<?xml version="1.0" encoding="utf-8" standalone="no"?>
<!DOCTYPE svg PUBLIC "-//W3C//DTD SVG 1.1//EN"
  "http://www.w3.org/Graphics/SVG/1.1/DTD/svg11.dtd">
<svg xmlns:xlink="http://www.w3.org/1999/xlink" width="460.8pt" height="345.6pt" viewBox="0 0 460.8 345.6" xmlns="http://www.w3.org/2000/svg" version="1.1">
 <metadata>
  <rdf:RDF xmlns:dc="http://purl.org/dc/elements/1.1/" xmlns:cc="http://creativecommons.org/ns#" xmlns:rdf="http://www.w3.org/1999/02/22-rdf-syntax-ns#">
   <cc:Work>
    <dc:type rdf:resource="http://purl.org/dc/dcmitype/StillImage"/>
    <dc:date>2024-02-14T09:04:03.657654</dc:date>
    <dc:format>image/svg+xml</dc:format>
    <dc:creator>
     <cc:Agent>
      <dc:title>Matplotlib v3.7.0, https://matplotlib.org/</dc:title>
     </cc:Agent>
    </dc:creator>
   </cc:Work>
  </rdf:RDF>
 </metadata>
 <defs>
  <style type="text/css">*{stroke-linejoin: round; stroke-linecap: butt}</style>
 </defs>
 <g id="figure_1">
  <g id="patch_1">
   <path d="M 0 345.6 
L 460.8 345.6 
L 460.8 0 
L 0 0 
L 0 345.6 
z
" style="fill: none"/>
  </g>
  <g id="axes_1">
   <g id="patch_2">
    <path d="M 87.552 293.76 
L 451.584 293.76 
L 451.584 6.912 
L 87.552 6.912 
L 87.552 293.76 
z
" style="fill: none"/>
   </g>
   <g id="patch_3">
    <path d="M 87.919709 59.894513 
L 90.861382 59.894513 
L 90.861382 27.514436 
L 87.919709 27.514436 
z
" clip-path="url(#p432fcc53f5)" style="fill: #800000"/>
   </g>
   <g id="patch_4">
    <path d="M 91.5968 67.015093 
L 94.538473 67.015093 
L 94.538473 39.916393 
L 91.5968 39.916393 
z
" clip-path="url(#p432fcc53f5)" style="fill: #800000"/>
   </g>
   <g id="patch_5">
    <path d="M 95.273891 73.055774 
L 98.215564 73.055774 
L 98.215564 46.345163 
L 95.273891 46.345163 
z
" clip-path="url(#p432fcc53f5)" style="fill: #800000"/>
   </g>
   <g id="patch_6">
    <path d="M 98.950982 75.434925 
L 101.892655 75.434925 
L 101.892655 42.396785 
L 98.950982 42.396785 
z
" clip-path="url(#p432fcc53f5)" style="fill: #800000"/>
   </g>
   <g id="patch_7">
    <path d="M 102.628073 82.201163 
L 105.569745 82.201163 
L 105.569745 63.522296 
L 102.628073 63.522296 
z
" clip-path="url(#p432fcc53f5)" style="fill: #800000"/>
   </g>
   <g id="patch_8">
    <path d="M 106.305164 79.113329 
L 109.246836 79.113329 
L 109.246836 52.301478 
L 106.305164 52.301478 
z
" clip-path="url(#p432fcc53f5)" style="fill: #800000"/>
   </g>
   <g id="patch_9">
    <path d="M 109.982255 73.646344 
L 112.923927 73.646344 
L 112.923927 48.167492 
L 109.982255 48.167492 
z
" clip-path="url(#p432fcc53f5)" style="fill: #800000"/>
   </g>
   <g id="patch_10">
    <path d="M 113.659345 84.833416 
L 116.601018 84.833416 
L 116.601018 64.467208 
L 113.659345 64.467208 
z
" clip-path="url(#p432fcc53f5)" style="fill: #800000"/>
   </g>
   <g id="patch_11">
    <path d="M 117.336436 93.202628 
L 120.278109 93.202628 
L 120.278109 72.83642 
L 117.336436 72.83642 
z
" clip-path="url(#p432fcc53f5)" style="fill: #800000"/>
   </g>
   <g id="patch_12">
    <path d="M 121.013527 102.854219 
L 123.9552 102.854219 
L 123.9552 85.05277 
L 121.013527 85.05277 
z
" clip-path="url(#p432fcc53f5)" style="fill: #800000"/>
   </g>
   <g id="patch_13">
    <path d="M 124.690618 105.452725 
L 127.632291 105.452725 
L 127.632291 87.651275 
L 124.690618 87.651275 
z
" clip-path="url(#p432fcc53f5)" style="fill: #800000"/>
   </g>
   <g id="patch_14">
    <path d="M 128.367709 105.334611 
L 131.309382 105.334611 
L 131.309382 79.36643 
L 128.367709 79.36643 
z
" clip-path="url(#p432fcc53f5)" style="fill: #800000"/>
   </g>
   <g id="patch_15">
    <path d="M 132.0448 112.573304 
L 134.986473 112.573304 
L 134.986473 80.969404 
L 132.0448 80.969404 
z
" clip-path="url(#p432fcc53f5)" style="fill: #800000"/>
   </g>
   <g id="patch_16">
    <path d="M 135.721891 110.987204 
L 138.663564 110.987204 
L 138.663564 80.581316 
L 135.721891 80.581316 
z
" clip-path="url(#p432fcc53f5)" style="fill: #800000"/>
   </g>
   <g id="patch_17">
    <path d="M 139.398982 115.745506 
L 142.340655 115.745506 
L 142.340655 85.643339 
L 139.398982 85.643339 
z
" clip-path="url(#p432fcc53f5)" style="fill: #800000"/>
   </g>
   <g id="patch_18">
    <path d="M 143.076073 122.798592 
L 146.017745 122.798592 
L 146.017745 97.876563 
L 143.076073 97.876563 
z
" clip-path="url(#p432fcc53f5)" style="fill: #800000"/>
   </g>
   <g id="patch_19">
    <path d="M 146.753164 122.596111 
L 149.694836 122.596111 
L 149.694836 88.410579 
L 146.753164 88.410579 
z
" clip-path="url(#p432fcc53f5)" style="fill: #800000"/>
   </g>
   <g id="patch_20">
    <path d="M 150.430255 123.03482 
L 153.371927 123.03482 
L 153.371927 93.337615 
L 150.430255 93.337615 
z
" clip-path="url(#p432fcc53f5)" style="fill: #800000"/>
   </g>
   <g id="patch_21">
    <path d="M 154.107345 133.02388 
L 157.049018 133.02388 
L 157.049018 106.836344 
L 154.107345 106.836344 
z
" clip-path="url(#p432fcc53f5)" style="fill: #800000"/>
   </g>
   <g id="patch_22">
    <path d="M 157.784436 139.233295 
L 160.726109 139.233295 
L 160.726109 112.792659 
L 157.784436 112.792659 
z
" clip-path="url(#p432fcc53f5)" style="fill: #800000"/>
   </g>
   <g id="patch_23">
    <path d="M 161.461527 144.413432 
L 164.4032 144.413432 
L 164.4032 117.753442 
L 161.461527 117.753442 
z
" clip-path="url(#p432fcc53f5)" style="fill: #800000"/>
   </g>
   <g id="patch_24">
    <path d="M 165.138618 139.486396 
L 168.080291 139.486396 
L 168.080291 108.473065 
L 165.138618 108.473065 
z
" clip-path="url(#p432fcc53f5)" style="fill: #800000"/>
   </g>
   <g id="patch_25">
    <path d="M 168.815709 150.605975 
L 171.757382 150.605975 
L 171.757382 124.013478 
L 168.815709 124.013478 
z
" clip-path="url(#p432fcc53f5)" style="fill: #800000"/>
   </g>
   <g id="patch_26">
    <path d="M 172.4928 147.265039 
L 175.434473 147.265039 
L 175.434473 113.332608 
L 172.4928 113.332608 
z
" clip-path="url(#p432fcc53f5)" style="fill: #800000"/>
   </g>
   <g id="patch_27">
    <path d="M 176.169891 153.94691 
L 179.111564 153.94691 
L 179.111564 118.816467 
L 176.169891 118.816467 
z
" clip-path="url(#p432fcc53f5)" style="fill: #800000"/>
   </g>
   <g id="patch_28">
    <path d="M 179.846982 155.937973 
L 182.788655 155.937973 
L 182.788655 125.9033 
L 179.846982 125.9033 
z
" clip-path="url(#p432fcc53f5)" style="fill: #800000"/>
   </g>
   <g id="patch_29">
    <path d="M 183.524073 161.961781 
L 186.465745 161.961781 
L 186.465745 129.851678 
L 183.524073 129.851678 
z
" clip-path="url(#p432fcc53f5)" style="fill: #800000"/>
   </g>
   <g id="patch_30">
    <path d="M 187.201164 169.571689 
L 190.142836 169.571689 
L 190.142836 142.675471 
L 187.201164 142.675471 
z
" clip-path="url(#p432fcc53f5)" style="fill: #800000"/>
   </g>
   <g id="patch_31">
    <path d="M 190.878255 171.410891 
L 193.819927 171.410891 
L 193.819927 136.381688 
L 190.878255 136.381688 
z
" clip-path="url(#p432fcc53f5)" style="fill: #800000"/>
   </g>
   <g id="patch_32">
    <path d="M 194.555345 178.143383 
L 197.497018 178.143383 
L 197.497018 160.055085 
L 194.555345 160.055085 
z
" clip-path="url(#p432fcc53f5)" style="fill: #800000"/>
   </g>
   <g id="patch_33">
    <path d="M 198.232436 182.597963 
L 201.174109 182.597963 
L 201.174109 164.526539 
L 198.232436 164.526539 
z
" clip-path="url(#p432fcc53f5)" style="fill: #800000"/>
   </g>
   <g id="patch_34">
    <path d="M 201.909527 183.340393 
L 204.8512 183.340393 
L 204.8512 163.227287 
L 201.909527 163.227287 
z
" clip-path="url(#p432fcc53f5)" style="fill: #800000"/>
   </g>
   <g id="patch_35">
    <path d="M 205.586618 189.313581 
L 208.528291 189.313581 
L 208.528291 161.151857 
L 205.586618 161.151857 
z
" clip-path="url(#p432fcc53f5)" style="fill: #800000"/>
   </g>
   <g id="patch_36">
    <path d="M 209.263709 187.187531 
L 212.205382 187.187531 
L 212.205382 163.109173 
L 209.263709 163.109173 
z
" clip-path="url(#p432fcc53f5)" style="fill: #800000"/>
   </g>
   <g id="patch_37">
    <path d="M 212.9408 192.924491 
L 215.882473 192.924491 
L 215.882473 169.656056 
L 212.9408 169.656056 
z
" clip-path="url(#p432fcc53f5)" style="fill: #800000"/>
   </g>
   <g id="patch_38">
    <path d="M 216.617891 197.530933 
L 219.559564 197.530933 
L 219.559564 176.219814 
L 216.617891 176.219814 
z
" clip-path="url(#p432fcc53f5)" style="fill: #800000"/>
   </g>
   <g id="patch_39">
    <path d="M 220.294982 203.925956 
L 223.236655 203.925956 
L 223.236655 183.137912 
L 220.294982 183.137912 
z
" clip-path="url(#p432fcc53f5)" style="fill: #800000"/>
   </g>
   <g id="patch_40">
    <path d="M 223.972073 210.084751 
L 226.913745 210.084751 
L 226.913745 192.198935 
L 223.972073 192.198935 
z
" clip-path="url(#p432fcc53f5)" style="fill: #800000"/>
   </g>
   <g id="patch_41">
    <path d="M 227.649164 211.350257 
L 230.590836 211.350257 
L 230.590836 190.140378 
L 227.649164 190.140378 
z
" clip-path="url(#p432fcc53f5)" style="fill: #800000"/>
   </g>
   <g id="patch_42">
    <path d="M 231.326255 209.460435 
L 234.267927 209.460435 
L 234.267927 186.782569 
L 231.326255 186.782569 
z
" clip-path="url(#p432fcc53f5)" style="fill: #800000"/>
   </g>
   <g id="patch_43">
    <path d="M 235.003345 212.092687 
L 237.945018 212.092687 
L 237.945018 190.781568 
L 235.003345 190.781568 
z
" clip-path="url(#p432fcc53f5)" style="fill: #800000"/>
   </g>
   <g id="patch_44">
    <path d="M 238.680436 223.954696 
L 241.622109 223.954696 
L 241.622109 200.956235 
L 238.680436 200.956235 
z
" clip-path="url(#p432fcc53f5)" style="fill: #800000"/>
   </g>
   <g id="patch_45">
    <path d="M 242.357527 225.726404 
L 245.2992 225.726404 
L 245.2992 204.988981 
L 242.357527 204.988981 
z
" clip-path="url(#p432fcc53f5)" style="fill: #800000"/>
   </g>
   <g id="patch_46">
    <path d="M 246.034618 230.062871 
L 248.976291 230.062871 
L 248.976291 201.243083 
L 246.034618 201.243083 
z
" clip-path="url(#p432fcc53f5)" style="fill: #800000"/>
   </g>
   <g id="patch_47">
    <path d="M 249.711709 235.428616 
L 252.653382 235.428616 
L 252.653382 202.744817 
L 249.711709 202.744817 
z
" clip-path="url(#p432fcc53f5)" style="fill: #800000"/>
   </g>
   <g id="patch_48">
    <path d="M 253.3888 230.75468 
L 256.330473 230.75468 
L 256.330473 202.71107 
L 253.3888 202.71107 
z
" clip-path="url(#p432fcc53f5)" style="fill: #800000"/>
   </g>
   <g id="patch_49">
    <path d="M 257.065891 229.26982 
L 260.007564 229.26982 
L 260.007564 199.167654 
L 257.065891 199.167654 
z
" clip-path="url(#p432fcc53f5)" style="fill: #800000"/>
   </g>
   <g id="patch_50">
    <path d="M 260.742982 227.531859 
L 263.684655 227.531859 
L 263.684655 194.561212 
L 260.742982 194.561212 
z
" clip-path="url(#p432fcc53f5)" style="fill: #800000"/>
   </g>
   <g id="patch_51">
    <path d="M 264.420073 234.298097 
L 267.361745 234.298097 
L 267.361745 207.418752 
L 264.420073 207.418752 
z
" clip-path="url(#p432fcc53f5)" style="fill: #800000"/>
   </g>
   <g id="patch_52">
    <path d="M 268.097164 232.948224 
L 271.038836 232.948224 
L 271.038836 213.695661 
L 268.097164 213.695661 
z
" clip-path="url(#p432fcc53f5)" style="fill: #800000"/>
   </g>
   <g id="patch_53">
    <path d="M 271.774255 234.500578 
L 274.715927 234.500578 
L 274.715927 208.954232 
L 271.774255 208.954232 
z
" clip-path="url(#p432fcc53f5)" style="fill: #800000"/>
   </g>
   <g id="patch_54">
    <path d="M 275.451345 235.546729 
L 278.393018 235.546729 
L 278.393018 218.875799 
L 275.451345 218.875799 
z
" clip-path="url(#p432fcc53f5)" style="fill: #800000"/>
   </g>
   <g id="patch_55">
    <path d="M 279.128436 231.412744 
L 282.070109 231.412744 
L 282.070109 207.75622 
L 279.128436 207.75622 
z
" clip-path="url(#p432fcc53f5)" style="fill: #800000"/>
   </g>
   <g id="patch_56">
    <path d="M 282.805527 234.095616 
L 285.7472 234.095616 
L 285.7472 208.313043 
L 282.805527 208.313043 
z
" clip-path="url(#p432fcc53f5)" style="fill: #800000"/>
   </g>
   <g id="patch_57">
    <path d="M 286.482618 233.673781 
L 289.424291 233.673781 
L 289.424291 213.206332 
L 286.482618 213.206332 
z
" clip-path="url(#p432fcc53f5)" style="fill: #800000"/>
   </g>
   <g id="patch_58">
    <path d="M 290.159709 236.272286 
L 293.101382 236.272286 
L 293.101382 215.146775 
L 290.159709 215.146775 
z
" clip-path="url(#p432fcc53f5)" style="fill: #800000"/>
   </g>
   <g id="patch_59">
    <path d="M 293.8368 236.44102 
L 296.778473 236.44102 
L 296.778473 212.092687 
L 293.8368 212.092687 
z
" clip-path="url(#p432fcc53f5)" style="fill: #800000"/>
   </g>
   <g id="patch_60">
    <path d="M 297.513891 236.33978 
L 300.455564 236.33978 
L 300.455564 216.091686 
L 297.513891 216.091686 
z
" clip-path="url(#p432fcc53f5)" style="fill: #800000"/>
   </g>
   <g id="patch_61">
    <path d="M 301.190982 239.798829 
L 304.132655 239.798829 
L 304.132655 222.301101 
L 301.190982 222.301101 
z
" clip-path="url(#p432fcc53f5)" style="fill: #800000"/>
   </g>
   <g id="patch_62">
    <path d="M 304.868073 237.250944 
L 307.809745 237.250944 
L 307.809745 209.916017 
L 304.868073 209.916017 
z
" clip-path="url(#p432fcc53f5)" style="fill: #800000"/>
   </g>
   <g id="patch_63">
    <path d="M 308.545164 237.03159 
L 311.486836 237.03159 
L 311.486836 217.205331 
L 308.545164 217.205331 
z
" clip-path="url(#p432fcc53f5)" style="fill: #800000"/>
   </g>
   <g id="patch_64">
    <path d="M 312.222255 234.736806 
L 315.163927 234.736806 
L 315.163927 208.313043 
L 312.222255 208.313043 
z
" clip-path="url(#p432fcc53f5)" style="fill: #800000"/>
   </g>
   <g id="patch_65">
    <path d="M 315.899345 220.377532 
L 318.841018 220.377532 
L 318.841018 191.97958 
L 315.899345 191.97958 
z
" clip-path="url(#p432fcc53f5)" style="fill: #800000"/>
   </g>
   <g id="patch_66">
    <path d="M 319.576436 196.653515 
L 322.518109 196.653515 
L 322.518109 176.456041 
L 319.576436 176.456041 
z
" clip-path="url(#p432fcc53f5)" style="fill: #800000"/>
   </g>
   <g id="patch_67">
    <path d="M 323.253527 237.385931 
L 326.1952 237.385931 
L 326.1952 217.981508 
L 323.253527 217.981508 
z
" clip-path="url(#p432fcc53f5)" style="fill: #800000"/>
   </g>
   <g id="patch_68">
    <path d="M 326.930618 232.897604 
L 329.872291 232.897604 
L 329.872291 209.08922 
L 326.930618 209.08922 
z
" clip-path="url(#p432fcc53f5)" style="fill: #800000"/>
   </g>
   <g id="patch_69">
    <path d="M 330.607709 235.681717 
L 333.549382 235.681717 
L 333.549382 201.985513 
L 330.607709 201.985513 
z
" clip-path="url(#p432fcc53f5)" style="fill: #800000"/>
   </g>
   <g id="patch_70">
    <path d="M 334.2848 237.048463 
L 337.226473 237.048463 
L 337.226473 206.96317 
L 334.2848 206.96317 
z
" clip-path="url(#p432fcc53f5)" style="fill: #800000"/>
   </g>
   <g id="patch_71">
    <path d="M 337.961891 236.761615 
L 340.903564 236.761615 
L 340.903564 208.549271 
L 337.961891 208.549271 
z
" clip-path="url(#p432fcc53f5)" style="fill: #800000"/>
   </g>
   <g id="patch_72">
    <path d="M 341.638982 236.086679 
L 344.580655 236.086679 
L 344.580655 205.140841 
L 341.638982 205.140841 
z
" clip-path="url(#p432fcc53f5)" style="fill: #800000"/>
   </g>
   <g id="patch_73">
    <path d="M 345.316073 236.356653 
L 348.257745 236.356653 
L 348.257745 207.671853 
L 345.316073 207.671853 
z
" clip-path="url(#p432fcc53f5)" style="fill: #800000"/>
   </g>
   <g id="patch_74">
    <path d="M 348.993164 239.916943 
L 351.934836 239.916943 
L 351.934836 214.336851 
L 348.993164 214.336851 
z
" clip-path="url(#p432fcc53f5)" style="fill: #800000"/>
   </g>
   <g id="patch_75">
    <path d="M 352.670255 240.828107 
L 355.611927 240.828107 
L 355.611927 214.77556 
L 352.670255 214.77556 
z
" clip-path="url(#p432fcc53f5)" style="fill: #800000"/>
   </g>
   <g id="patch_76">
    <path d="M 356.347345 239.579475 
L 359.289018 239.579475 
L 359.289018 218.167115 
L 356.347345 218.167115 
z
" clip-path="url(#p432fcc53f5)" style="fill: #800000"/>
   </g>
   <g id="patch_77">
    <path d="M 360.024436 239.680715 
L 362.966109 239.680715 
L 362.966109 215.889205 
L 360.024436 215.889205 
z
" clip-path="url(#p432fcc53f5)" style="fill: #800000"/>
   </g>
   <g id="patch_78">
    <path d="M 363.701527 235.799831 
L 366.6432 235.799831 
L 366.6432 212.177054 
L 363.701527 212.177054 
z
" clip-path="url(#p432fcc53f5)" style="fill: #800000"/>
   </g>
   <g id="patch_79">
    <path d="M 367.378618 234.129363 
L 370.320291 234.129363 
L 370.320291 214.77556 
L 367.378618 214.77556 
z
" clip-path="url(#p432fcc53f5)" style="fill: #800000"/>
   </g>
   <g id="patch_80">
    <path d="M 371.055709 239.410741 
L 373.997382 239.410741 
L 373.997382 219.584482 
L 371.055709 219.584482 
z
" clip-path="url(#p432fcc53f5)" style="fill: #800000"/>
   </g>
   <g id="patch_81">
    <path d="M 374.7328 240.068804 
L 377.674473 240.068804 
L 377.674473 219.635102 
L 374.7328 219.635102 
z
" clip-path="url(#p432fcc53f5)" style="fill: #800000"/>
   </g>
   <g id="patch_82">
    <path d="M 378.409891 238.583944 
L 381.351564 238.583944 
L 381.351564 214.539332 
L 378.409891 214.539332 
z
" clip-path="url(#p432fcc53f5)" style="fill: #800000"/>
   </g>
   <g id="patch_83">
    <path d="M 382.086982 240.186918 
L 385.028655 240.186918 
L 385.028655 219.1289 
L 382.086982 219.1289 
z
" clip-path="url(#p432fcc53f5)" style="fill: #800000"/>
   </g>
   <g id="patch_84">
    <path d="M 385.764073 239.916943 
L 388.705745 239.916943 
L 388.705745 219.500115 
L 385.764073 219.500115 
z
" clip-path="url(#p432fcc53f5)" style="fill: #800000"/>
   </g>
   <g id="patch_85">
    <path d="M 389.441164 241.654904 
L 392.382836 241.654904 
L 392.382836 216.26042 
L 389.441164 216.26042 
z
" clip-path="url(#p432fcc53f5)" style="fill: #800000"/>
   </g>
   <g id="patch_86">
    <path d="M 393.118255 244.25341 
L 396.059927 244.25341 
L 396.059927 224.9671 
L 393.118255 224.9671 
z
" clip-path="url(#p432fcc53f5)" style="fill: #800000"/>
   </g>
   <g id="patch_87">
    <path d="M 396.795345 240.912474 
L 399.737018 240.912474 
L 399.737018 219.803836 
L 396.795345 219.803836 
z
" clip-path="url(#p432fcc53f5)" style="fill: #800000"/>
   </g>
   <g id="patch_88">
    <path d="M 400.472436 240.338778 
L 403.414109 240.338778 
L 403.414109 214.303104 
L 400.472436 214.303104 
z
" clip-path="url(#p432fcc53f5)" style="fill: #800000"/>
   </g>
   <g id="patch_89">
    <path d="M 404.149527 241.199322 
L 407.0912 241.199322 
L 407.0912 219.685722 
L 404.149527 219.685722 
z
" clip-path="url(#p432fcc53f5)" style="fill: #800000"/>
   </g>
   <g id="patch_90">
    <path d="M 407.826618 244.067802 
L 410.768291 244.067802 
L 410.768291 226.570074 
L 407.826618 226.570074 
z
" clip-path="url(#p432fcc53f5)" style="fill: #800000"/>
   </g>
   <g id="patch_91">
    <path d="M 411.503709 241.789892 
L 414.445382 241.789892 
L 414.445382 210.287232 
L 411.503709 210.287232 
z
" clip-path="url(#p432fcc53f5)" style="fill: #800000"/>
   </g>
   <g id="patch_92">
    <path d="M 415.1808 242.852917 
L 418.122473 242.852917 
L 418.122473 222.571076 
L 415.1808 222.571076 
z
" clip-path="url(#p432fcc53f5)" style="fill: #800000"/>
   </g>
   <g id="patch_93">
    <path d="M 418.857891 242.566069 
L 421.799564 242.566069 
L 421.799564 221.457431 
L 418.857891 221.457431 
z
" clip-path="url(#p432fcc53f5)" style="fill: #800000"/>
   </g>
   <g id="patch_94">
    <path d="M 422.534982 242.431081 
L 425.476655 242.431081 
L 425.476655 217.74528 
L 422.534982 217.74528 
z
" clip-path="url(#p432fcc53f5)" style="fill: #800000"/>
   </g>
   <g id="patch_95">
    <path d="M 426.212073 240.254411 
L 429.153745 240.254411 
L 429.153745 219.382001 
L 426.212073 219.382001 
z
" clip-path="url(#p432fcc53f5)" style="fill: #800000"/>
   </g>
   <g id="patch_96">
    <path d="M 429.889164 238.718931 
L 432.830836 238.718931 
L 432.830836 214.218737 
L 429.889164 214.218737 
z
" clip-path="url(#p432fcc53f5)" style="fill: #800000"/>
   </g>
   <g id="patch_97">
    <path d="M 433.566255 243.949688 
L 436.507927 243.949688 
L 436.507927 221.659912 
L 433.566255 221.659912 
z
" clip-path="url(#p432fcc53f5)" style="fill: #800000"/>
   </g>
   <g id="patch_98">
    <path d="M 437.243345 242.532322 
L 440.185018 242.532322 
L 440.185018 222.14924 
L 437.243345 222.14924 
z
" clip-path="url(#p432fcc53f5)" style="fill: #800000"/>
   </g>
   <g id="patch_99">
    <path d="M 440.920436 244.169043 
L 443.862109 244.169043 
L 443.862109 219.87133 
L 440.920436 219.87133 
z
" clip-path="url(#p432fcc53f5)" style="fill: #800000"/>
   </g>
   <g id="patch_100">
    <path d="M 444.597527 242.397335 
L 447.5392 242.397335 
L 447.5392 220.900608 
L 444.597527 220.900608 
z
" clip-path="url(#p432fcc53f5)" style="fill: #800000"/>
   </g>
   <g id="patch_101">
    <path d="M 448.274618 236.036058 
L 451.216291 236.036058 
L 451.216291 212.835117 
L 448.274618 212.835117 
z
" clip-path="url(#p432fcc53f5)" style="fill: #800000"/>
   </g>
   <g id="patch_102">
    <path d="M 87.919709 95.008083 
L 90.861382 95.008083 
L 90.861382 59.894513 
L 87.919709 59.894513 
z
" clip-path="url(#p432fcc53f5)" style="fill: #a52a2a"/>
   </g>
   <g id="patch_103">
    <path d="M 91.5968 101.689954 
L 94.538473 101.689954 
L 94.538473 67.015093 
L 91.5968 67.015093 
z
" clip-path="url(#p432fcc53f5)" style="fill: #a52a2a"/>
   </g>
   <g id="patch_104">
    <path d="M 95.273891 105.87456 
L 98.215564 105.87456 
L 98.215564 73.055774 
L 95.273891 73.055774 
z
" clip-path="url(#p432fcc53f5)" style="fill: #a52a2a"/>
   </g>
   <g id="patch_105">
    <path d="M 98.950982 111.459659 
L 101.892655 111.459659 
L 101.892655 75.434925 
L 98.950982 75.434925 
z
" clip-path="url(#p432fcc53f5)" style="fill: #a52a2a"/>
   </g>
   <g id="patch_106">
    <path d="M 102.628073 113.889431 
L 105.569745 113.889431 
L 105.569745 82.201163 
L 102.628073 82.201163 
z
" clip-path="url(#p432fcc53f5)" style="fill: #a52a2a"/>
   </g>
   <g id="patch_107">
    <path d="M 106.305164 116.876024 
L 109.246836 116.876024 
L 109.246836 79.113329 
L 106.305164 79.113329 
z
" clip-path="url(#p432fcc53f5)" style="fill: #a52a2a"/>
   </g>
   <g id="patch_108">
    <path d="M 109.982255 119.508277 
L 112.923927 119.508277 
L 112.923927 73.646344 
L 109.982255 73.646344 
z
" clip-path="url(#p432fcc53f5)" style="fill: #a52a2a"/>
   </g>
   <g id="patch_109">
    <path d="M 113.659345 122.29239 
L 116.601018 122.29239 
L 116.601018 84.833416 
L 113.659345 84.833416 
z
" clip-path="url(#p432fcc53f5)" style="fill: #a52a2a"/>
   </g>
   <g id="patch_110">
    <path d="M 117.336436 127.995603 
L 120.278109 127.995603 
L 120.278109 93.202628 
L 117.336436 93.202628 
z
" clip-path="url(#p432fcc53f5)" style="fill: #a52a2a"/>
   </g>
   <g id="patch_111">
    <path d="M 121.013527 134.002537 
L 123.9552 134.002537 
L 123.9552 102.854219 
L 121.013527 102.854219 
z
" clip-path="url(#p432fcc53f5)" style="fill: #a52a2a"/>
   </g>
   <g id="patch_112">
    <path d="M 124.690618 136.466056 
L 127.632291 136.466056 
L 127.632291 105.452725 
L 124.690618 105.452725 
z
" clip-path="url(#p432fcc53f5)" style="fill: #a52a2a"/>
   </g>
   <g id="patch_113">
    <path d="M 128.367709 140.009472 
L 131.309382 140.009472 
L 131.309382 105.334611 
L 128.367709 105.334611 
z
" clip-path="url(#p432fcc53f5)" style="fill: #a52a2a"/>
   </g>
   <g id="patch_114">
    <path d="M 132.0448 145.93204 
L 134.986473 145.93204 
L 134.986473 112.573304 
L 132.0448 112.573304 
z
" clip-path="url(#p432fcc53f5)" style="fill: #a52a2a"/>
   </g>
   <g id="patch_115">
    <path d="M 135.721891 146.269508 
L 138.663564 146.269508 
L 138.663564 110.987204 
L 135.721891 110.987204 
z
" clip-path="url(#p432fcc53f5)" style="fill: #a52a2a"/>
   </g>
   <g id="patch_116">
    <path d="M 139.398982 153.322594 
L 142.340655 153.322594 
L 142.340655 115.745506 
L 139.398982 115.745506 
z
" clip-path="url(#p432fcc53f5)" style="fill: #a52a2a"/>
   </g>
   <g id="patch_117">
    <path d="M 143.076073 156.07296 
L 146.017745 156.07296 
L 146.017745 122.798592 
L 143.076073 122.798592 
z
" clip-path="url(#p432fcc53f5)" style="fill: #a52a2a"/>
   </g>
   <g id="patch_118">
    <path d="M 146.753164 159.110174 
L 149.694836 159.110174 
L 149.694836 122.596111 
L 146.753164 122.596111 
z
" clip-path="url(#p432fcc53f5)" style="fill: #a52a2a"/>
   </g>
   <g id="patch_119">
    <path d="M 150.430255 162.906692 
L 153.371927 162.906692 
L 153.371927 123.03482 
L 150.430255 123.03482 
z
" clip-path="url(#p432fcc53f5)" style="fill: #a52a2a"/>
   </g>
   <g id="patch_120">
    <path d="M 154.107345 167.226285 
L 157.049018 167.226285 
L 157.049018 133.02388 
L 154.107345 133.02388 
z
" clip-path="url(#p432fcc53f5)" style="fill: #a52a2a"/>
   </g>
   <g id="patch_121">
    <path d="M 157.784436 172.524536 
L 160.726109 172.524536 
L 160.726109 139.233295 
L 157.784436 139.233295 
z
" clip-path="url(#p432fcc53f5)" style="fill: #a52a2a"/>
   </g>
   <g id="patch_122">
    <path d="M 161.461527 177.789041 
L 164.4032 177.789041 
L 164.4032 144.413432 
L 161.461527 144.413432 
z
" clip-path="url(#p432fcc53f5)" style="fill: #a52a2a"/>
   </g>
   <g id="patch_123">
    <path d="M 165.138618 177.502193 
L 168.080291 177.502193 
L 168.080291 139.486396 
L 165.138618 139.486396 
z
" clip-path="url(#p432fcc53f5)" style="fill: #a52a2a"/>
   </g>
   <g id="patch_124">
    <path d="M 168.815709 183.593495 
L 171.757382 183.593495 
L 171.757382 150.605975 
L 168.815709 150.605975 
z
" clip-path="url(#p432fcc53f5)" style="fill: #a52a2a"/>
   </g>
   <g id="patch_125">
    <path d="M 172.4928 185.989519 
L 175.434473 185.989519 
L 175.434473 147.265039 
L 172.4928 147.265039 
z
" clip-path="url(#p432fcc53f5)" style="fill: #a52a2a"/>
   </g>
   <g id="patch_126">
    <path d="M 176.169891 191.338391 
L 179.111564 191.338391 
L 179.111564 153.94691 
L 176.169891 153.94691 
z
" clip-path="url(#p432fcc53f5)" style="fill: #a52a2a"/>
   </g>
   <g id="patch_127">
    <path d="M 179.846982 194.375605 
L 182.788655 194.375605 
L 182.788655 155.937973 
L 179.846982 155.937973 
z
" clip-path="url(#p432fcc53f5)" style="fill: #a52a2a"/>
   </g>
   <g id="patch_128">
    <path d="M 183.524073 199.521995 
L 186.465745 199.521995 
L 186.465745 161.961781 
L 183.524073 161.961781 
z
" clip-path="url(#p432fcc53f5)" style="fill: #a52a2a"/>
   </g>
   <g id="patch_129">
    <path d="M 187.201164 203.622234 
L 190.142836 203.622234 
L 190.142836 169.571689 
L 187.201164 169.571689 
z
" clip-path="url(#p432fcc53f5)" style="fill: #a52a2a"/>
   </g>
   <g id="patch_130">
    <path d="M 190.878255 204.752753 
L 193.819927 204.752753 
L 193.819927 171.410891 
L 190.878255 171.410891 
z
" clip-path="url(#p432fcc53f5)" style="fill: #a52a2a"/>
   </g>
   <g id="patch_131">
    <path d="M 194.555345 209.004853 
L 197.497018 209.004853 
L 197.497018 178.143383 
L 194.555345 178.143383 
z
" clip-path="url(#p432fcc53f5)" style="fill: #a52a2a"/>
   </g>
   <g id="patch_132">
    <path d="M 198.232436 213.881269 
L 201.174109 213.881269 
L 201.174109 182.597963 
L 198.232436 182.597963 
z
" clip-path="url(#p432fcc53f5)" style="fill: #a52a2a"/>
   </g>
   <g id="patch_133">
    <path d="M 201.909527 218.049001 
L 204.8512 218.049001 
L 204.8512 183.340393 
L 201.909527 183.340393 
z
" clip-path="url(#p432fcc53f5)" style="fill: #a52a2a"/>
   </g>
   <g id="patch_134">
    <path d="M 205.586618 222.84105 
L 208.528291 222.84105 
L 208.528291 189.313581 
L 205.586618 189.313581 
z
" clip-path="url(#p432fcc53f5)" style="fill: #a52a2a"/>
   </g>
   <g id="patch_135">
    <path d="M 209.263709 226.772555 
L 212.205382 226.772555 
L 212.205382 187.187531 
L 209.263709 187.187531 
z
" clip-path="url(#p432fcc53f5)" style="fill: #a52a2a"/>
   </g>
   <g id="patch_136">
    <path d="M 212.9408 230.180984 
L 215.882473 230.180984 
L 215.882473 192.924491 
L 212.9408 192.924491 
z
" clip-path="url(#p432fcc53f5)" style="fill: #a52a2a"/>
   </g>
   <g id="patch_137">
    <path d="M 216.617891 232.425148 
L 219.559564 232.425148 
L 219.559564 197.530933 
L 216.617891 197.530933 
z
" clip-path="url(#p432fcc53f5)" style="fill: #a52a2a"/>
   </g>
   <g id="patch_138">
    <path d="M 220.294982 238.786424 
L 223.236655 238.786424 
L 223.236655 203.925956 
L 220.294982 203.925956 
z
" clip-path="url(#p432fcc53f5)" style="fill: #a52a2a"/>
   </g>
   <g id="patch_139">
    <path d="M 223.972073 240.777487 
L 226.913745 240.777487 
L 226.913745 210.084751 
L 223.972073 210.084751 
z
" clip-path="url(#p432fcc53f5)" style="fill: #a52a2a"/>
   </g>
   <g id="patch_140">
    <path d="M 227.649164 246.716928 
L 230.590836 246.716928 
L 230.590836 211.350257 
L 227.649164 211.350257 
z
" clip-path="url(#p432fcc53f5)" style="fill: #a52a2a"/>
   </g>
   <g id="patch_141">
    <path d="M 231.326255 249.636028 
L 234.267927 249.636028 
L 234.267927 209.460435 
L 231.326255 209.460435 
z
" clip-path="url(#p432fcc53f5)" style="fill: #a52a2a"/>
   </g>
   <g id="patch_142">
    <path d="M 235.003345 249.079206 
L 237.945018 249.079206 
L 237.945018 212.092687 
L 235.003345 212.092687 
z
" clip-path="url(#p432fcc53f5)" style="fill: #a52a2a"/>
   </g>
   <g id="patch_143">
    <path d="M 238.680436 258.764544 
L 241.622109 258.764544 
L 241.622109 223.954696 
L 238.680436 223.954696 
z
" clip-path="url(#p432fcc53f5)" style="fill: #a52a2a"/>
   </g>
   <g id="patch_144">
    <path d="M 242.357527 262.004239 
L 245.2992 262.004239 
L 245.2992 225.726404 
L 242.357527 225.726404 
z
" clip-path="url(#p432fcc53f5)" style="fill: #a52a2a"/>
   </g>
   <g id="patch_145">
    <path d="M 246.034618 265.395795 
L 248.976291 265.395795 
L 248.976291 230.062871 
L 246.034618 230.062871 
z
" clip-path="url(#p432fcc53f5)" style="fill: #a52a2a"/>
   </g>
   <g id="patch_146">
    <path d="M 249.711709 266.627554 
L 252.653382 266.627554 
L 252.653382 235.428616 
L 249.711709 235.428616 
z
" clip-path="url(#p432fcc53f5)" style="fill: #a52a2a"/>
   </g>
   <g id="patch_147">
    <path d="M 253.3888 266.290086 
L 256.330473 266.290086 
L 256.330473 230.75468 
L 253.3888 230.75468 
z
" clip-path="url(#p432fcc53f5)" style="fill: #a52a2a"/>
   </g>
   <g id="patch_148">
    <path d="M 257.065891 267.488098 
L 260.007564 267.488098 
L 260.007564 229.26982 
L 257.065891 229.26982 
z
" clip-path="url(#p432fcc53f5)" style="fill: #a52a2a"/>
   </g>
   <g id="patch_149">
    <path d="M 260.742982 267.758072 
L 263.684655 267.758072 
L 263.684655 227.531859 
L 260.742982 227.531859 
z
" clip-path="url(#p432fcc53f5)" style="fill: #a52a2a"/>
   </g>
   <g id="patch_150">
    <path d="M 264.420073 268.078667 
L 267.361745 268.078667 
L 267.361745 234.298097 
L 264.420073 234.298097 
z
" clip-path="url(#p432fcc53f5)" style="fill: #a52a2a"/>
   </g>
   <g id="patch_151">
    <path d="M 268.097164 267.791819 
L 271.038836 267.791819 
L 271.038836 232.948224 
L 268.097164 232.948224 
z
" clip-path="url(#p432fcc53f5)" style="fill: #a52a2a"/>
   </g>
   <g id="patch_152">
    <path d="M 271.774255 269.799755 
L 274.715927 269.799755 
L 274.715927 234.500578 
L 271.774255 234.500578 
z
" clip-path="url(#p432fcc53f5)" style="fill: #a52a2a"/>
   </g>
   <g id="patch_153">
    <path d="M 275.451345 267.20125 
L 278.393018 267.20125 
L 278.393018 235.546729 
L 275.451345 235.546729 
z
" clip-path="url(#p432fcc53f5)" style="fill: #a52a2a"/>
   </g>
   <g id="patch_154">
    <path d="M 279.128436 268.939211 
L 282.070109 268.939211 
L 282.070109 231.412744 
L 279.128436 231.412744 
z
" clip-path="url(#p432fcc53f5)" style="fill: #a52a2a"/>
   </g>
   <g id="patch_155">
    <path d="M 282.805527 269.968489 
L 285.7472 269.968489 
L 285.7472 234.095616 
L 282.805527 234.095616 
z
" clip-path="url(#p432fcc53f5)" style="fill: #a52a2a"/>
   </g>
   <g id="patch_156">
    <path d="M 286.482618 268.618616 
L 289.424291 268.618616 
L 289.424291 233.673781 
L 286.482618 233.673781 
z
" clip-path="url(#p432fcc53f5)" style="fill: #a52a2a"/>
   </g>
   <g id="patch_157">
    <path d="M 290.159709 271.082135 
L 293.101382 271.082135 
L 293.101382 236.272286 
L 290.159709 236.272286 
z
" clip-path="url(#p432fcc53f5)" style="fill: #a52a2a"/>
   </g>
   <g id="patch_158">
    <path d="M 293.8368 270.289084 
L 296.778473 270.289084 
L 296.778473 236.44102 
L 293.8368 236.44102 
z
" clip-path="url(#p432fcc53f5)" style="fill: #a52a2a"/>
   </g>
   <g id="patch_159">
    <path d="M 297.513891 270.845907 
L 300.455564 270.845907 
L 300.455564 236.33978 
L 297.513891 236.33978 
z
" clip-path="url(#p432fcc53f5)" style="fill: #a52a2a"/>
   </g>
   <g id="patch_160">
    <path d="M 301.190982 271.520843 
L 304.132655 271.520843 
L 304.132655 239.798829 
L 301.190982 239.798829 
z
" clip-path="url(#p432fcc53f5)" style="fill: #a52a2a"/>
   </g>
   <g id="patch_161">
    <path d="M 304.868073 271.60521 
L 307.809745 271.60521 
L 307.809745 237.250944 
L 304.868073 237.250944 
z
" clip-path="url(#p432fcc53f5)" style="fill: #a52a2a"/>
   </g>
   <g id="patch_162">
    <path d="M 308.545164 272.010172 
L 311.486836 272.010172 
L 311.486836 237.03159 
L 308.545164 237.03159 
z
" clip-path="url(#p432fcc53f5)" style="fill: #a52a2a"/>
   </g>
   <g id="patch_163">
    <path d="M 312.222255 272.313894 
L 315.163927 272.313894 
L 315.163927 234.736806 
L 312.222255 234.736806 
z
" clip-path="url(#p432fcc53f5)" style="fill: #a52a2a"/>
   </g>
   <g id="patch_164">
    <path d="M 315.899345 262.071733 
L 318.841018 262.071733 
L 318.841018 220.377532 
L 315.899345 220.377532 
z
" clip-path="url(#p432fcc53f5)" style="fill: #a52a2a"/>
   </g>
   <g id="patch_165">
    <path d="M 319.576436 231.429617 
L 322.518109 231.429617 
L 322.518109 196.653515 
L 319.576436 196.653515 
z
" clip-path="url(#p432fcc53f5)" style="fill: #a52a2a"/>
   </g>
   <g id="patch_166">
    <path d="M 323.253527 272.499501 
L 326.1952 272.499501 
L 326.1952 237.385931 
L 323.253527 237.385931 
z
" clip-path="url(#p432fcc53f5)" style="fill: #a52a2a"/>
   </g>
   <g id="patch_167">
    <path d="M 326.930618 270.744666 
L 329.872291 270.744666 
L 329.872291 232.897604 
L 326.930618 232.897604 
z
" clip-path="url(#p432fcc53f5)" style="fill: #a52a2a"/>
   </g>
   <g id="patch_168">
    <path d="M 330.607709 273.343172 
L 333.549382 273.343172 
L 333.549382 235.681717 
L 330.607709 235.681717 
z
" clip-path="url(#p432fcc53f5)" style="fill: #a52a2a"/>
   </g>
   <g id="patch_169">
    <path d="M 334.2848 273.258805 
L 337.226473 273.258805 
L 337.226473 237.048463 
L 334.2848 237.048463 
z
" clip-path="url(#p432fcc53f5)" style="fill: #a52a2a"/>
   </g>
   <g id="patch_170">
    <path d="M 337.961891 273.140691 
L 340.903564 273.140691 
L 340.903564 236.761615 
L 337.961891 236.761615 
z
" clip-path="url(#p432fcc53f5)" style="fill: #a52a2a"/>
   </g>
   <g id="patch_171">
    <path d="M 341.638982 273.663767 
L 344.580655 273.663767 
L 344.580655 236.086679 
L 341.638982 236.086679 
z
" clip-path="url(#p432fcc53f5)" style="fill: #a52a2a"/>
   </g>
   <g id="patch_172">
    <path d="M 345.316073 274.136222 
L 348.257745 274.136222 
L 348.257745 236.356653 
L 345.316073 236.356653 
z
" clip-path="url(#p432fcc53f5)" style="fill: #a52a2a"/>
   </g>
   <g id="patch_173">
    <path d="M 348.993164 274.47369 
L 351.934836 274.47369 
L 351.934836 239.916943 
L 348.993164 239.916943 
z
" clip-path="url(#p432fcc53f5)" style="fill: #a52a2a"/>
   </g>
   <g id="patch_174">
    <path d="M 352.670255 274.524311 
L 355.611927 274.524311 
L 355.611927 240.828107 
L 352.670255 240.828107 
z
" clip-path="url(#p432fcc53f5)" style="fill: #a52a2a"/>
   </g>
   <g id="patch_175">
    <path d="M 356.347345 274.659298 
L 359.289018 274.659298 
L 359.289018 239.579475 
L 356.347345 239.579475 
z
" clip-path="url(#p432fcc53f5)" style="fill: #a52a2a"/>
   </g>
   <g id="patch_176">
    <path d="M 360.024436 274.288083 
L 362.966109 274.288083 
L 362.966109 239.680715 
L 360.024436 239.680715 
z
" clip-path="url(#p432fcc53f5)" style="fill: #a52a2a"/>
   </g>
   <g id="patch_177">
    <path d="M 363.701527 275.098007 
L 366.6432 275.098007 
L 366.6432 235.799831 
L 363.701527 235.799831 
z
" clip-path="url(#p432fcc53f5)" style="fill: #a52a2a"/>
   </g>
   <g id="patch_178">
    <path d="M 367.378618 267.9943 
L 370.320291 267.9943 
L 370.320291 234.129363 
L 367.378618 234.129363 
z
" clip-path="url(#p432fcc53f5)" style="fill: #a52a2a"/>
   </g>
   <g id="patch_179">
    <path d="M 371.055709 274.979893 
L 373.997382 274.979893 
L 373.997382 239.410741 
L 371.055709 239.410741 
z
" clip-path="url(#p432fcc53f5)" style="fill: #a52a2a"/>
   </g>
   <g id="patch_180">
    <path d="M 374.7328 274.693045 
L 377.674473 274.693045 
L 377.674473 240.068804 
L 374.7328 240.068804 
z
" clip-path="url(#p432fcc53f5)" style="fill: #a52a2a"/>
   </g>
   <g id="patch_181">
    <path d="M 378.409891 275.621082 
L 381.351564 275.621082 
L 381.351564 238.583944 
L 378.409891 238.583944 
z
" clip-path="url(#p432fcc53f5)" style="fill: #a52a2a"/>
   </g>
   <g id="patch_182">
    <path d="M 382.086982 275.131753 
L 385.028655 275.131753 
L 385.028655 240.186918 
L 382.086982 240.186918 
z
" clip-path="url(#p432fcc53f5)" style="fill: #a52a2a"/>
   </g>
   <g id="patch_183">
    <path d="M 385.764073 275.030513 
L 388.705745 275.030513 
L 388.705745 239.916943 
L 385.764073 239.916943 
z
" clip-path="url(#p432fcc53f5)" style="fill: #a52a2a"/>
   </g>
   <g id="patch_184">
    <path d="M 389.441164 276.194778 
L 392.382836 276.194778 
L 392.382836 241.654904 
L 389.441164 241.654904 
z
" clip-path="url(#p432fcc53f5)" style="fill: #a52a2a"/>
   </g>
   <g id="patch_185">
    <path d="M 393.118255 275.131753 
L 396.059927 275.131753 
L 396.059927 244.25341 
L 393.118255 244.25341 
z
" clip-path="url(#p432fcc53f5)" style="fill: #a52a2a"/>
   </g>
   <g id="patch_186">
    <path d="M 396.795345 276.363512 
L 399.737018 276.363512 
L 399.737018 240.912474 
L 396.795345 240.912474 
z
" clip-path="url(#p432fcc53f5)" style="fill: #a52a2a"/>
   </g>
   <g id="patch_187">
    <path d="M 400.472436 276.329766 
L 403.414109 276.329766 
L 403.414109 240.338778 
L 400.472436 240.338778 
z
" clip-path="url(#p432fcc53f5)" style="fill: #a52a2a"/>
   </g>
   <g id="patch_188">
    <path d="M 404.149527 276.245399 
L 407.0912 276.245399 
L 407.0912 241.199322 
L 404.149527 241.199322 
z
" clip-path="url(#p432fcc53f5)" style="fill: #a52a2a"/>
   </g>
   <g id="patch_189">
    <path d="M 407.826618 275.739196 
L 410.768291 275.739196 
L 410.768291 244.067802 
L 407.826618 244.067802 
z
" clip-path="url(#p432fcc53f5)" style="fill: #a52a2a"/>
   </g>
   <g id="patch_190">
    <path d="M 411.503709 276.65036 
L 414.445382 276.65036 
L 414.445382 241.789892 
L 411.503709 241.789892 
z
" clip-path="url(#p432fcc53f5)" style="fill: #a52a2a"/>
   </g>
   <g id="patch_191">
    <path d="M 415.1808 276.009171 
L 418.122473 276.009171 
L 418.122473 242.852917 
L 415.1808 242.852917 
z
" clip-path="url(#p432fcc53f5)" style="fill: #a52a2a"/>
   </g>
   <g id="patch_192">
    <path d="M 418.857891 277.122816 
L 421.799564 277.122816 
L 421.799564 242.566069 
L 418.857891 242.566069 
z
" clip-path="url(#p432fcc53f5)" style="fill: #a52a2a"/>
   </g>
   <g id="patch_193">
    <path d="M 422.534982 277.021576 
L 425.476655 277.021576 
L 425.476655 242.431081 
L 422.534982 242.431081 
z
" clip-path="url(#p432fcc53f5)" style="fill: #a52a2a"/>
   </g>
   <g id="patch_194">
    <path d="M 426.212073 276.59974 
L 429.153745 276.59974 
L 429.153745 240.254411 
L 426.212073 240.254411 
z
" clip-path="url(#p432fcc53f5)" style="fill: #a52a2a"/>
   </g>
   <g id="patch_195">
    <path d="M 429.889164 276.954082 
L 432.830836 276.954082 
L 432.830836 238.718931 
L 429.889164 238.718931 
z
" clip-path="url(#p432fcc53f5)" style="fill: #a52a2a"/>
   </g>
   <g id="patch_196">
    <path d="M 433.566255 277.696512 
L 436.507927 277.696512 
L 436.507927 243.949688 
L 433.566255 243.949688 
z
" clip-path="url(#p432fcc53f5)" style="fill: #a52a2a"/>
   </g>
   <g id="patch_197">
    <path d="M 437.243345 277.696512 
L 440.185018 277.696512 
L 440.185018 242.532322 
L 437.243345 242.532322 
z
" clip-path="url(#p432fcc53f5)" style="fill: #a52a2a"/>
   </g>
   <g id="patch_198">
    <path d="M 440.920436 277.325297 
L 443.862109 277.325297 
L 443.862109 244.169043 
L 440.920436 244.169043 
z
" clip-path="url(#p432fcc53f5)" style="fill: #a52a2a"/>
   </g>
   <g id="patch_199">
    <path d="M 444.597527 277.359044 
L 447.5392 277.359044 
L 447.5392 242.397335 
L 444.597527 242.397335 
z
" clip-path="url(#p432fcc53f5)" style="fill: #a52a2a"/>
   </g>
   <g id="patch_200">
    <path d="M 448.274618 277.274677 
L 451.216291 277.274677 
L 451.216291 236.036058 
L 448.274618 236.036058 
z
" clip-path="url(#p432fcc53f5)" style="fill: #a52a2a"/>
   </g>
   <g id="patch_201">
    <path d="M 87.919709 106.245775 
L 90.861382 106.245775 
L 90.861382 82.504885 
L 87.919709 82.504885 
z
" clip-path="url(#p432fcc53f5)" style="fill: #f08080"/>
   </g>
   <g id="patch_202">
    <path d="M 91.5968 113.501342 
L 94.538473 113.501342 
L 94.538473 86.402643 
L 91.5968 86.402643 
z
" clip-path="url(#p432fcc53f5)" style="fill: #f08080"/>
   </g>
   <g id="patch_203">
    <path d="M 95.273891 115.762379 
L 98.215564 115.762379 
L 98.215564 90.587249 
L 95.273891 90.587249 
z
" clip-path="url(#p432fcc53f5)" style="fill: #f08080"/>
   </g>
   <g id="patch_204">
    <path d="M 98.950982 121.60058 
L 101.892655 121.60058 
L 101.892655 96.611057 
L 98.950982 96.611057 
z
" clip-path="url(#p432fcc53f5)" style="fill: #f08080"/>
   </g>
   <g id="patch_205">
    <path d="M 102.628073 123.608516 
L 105.569745 123.608516 
L 105.569745 101.487473 
L 102.628073 101.487473 
z
" clip-path="url(#p432fcc53f5)" style="fill: #f08080"/>
   </g>
   <g id="patch_206">
    <path d="M 106.305164 126.544489 
L 109.246836 126.544489 
L 109.246836 104.288459 
L 106.305164 104.288459 
z
" clip-path="url(#p432fcc53f5)" style="fill: #f08080"/>
   </g>
   <g id="patch_207">
    <path d="M 109.982255 130.526615 
L 112.923927 130.526615 
L 112.923927 104.558434 
L 109.982255 104.558434 
z
" clip-path="url(#p432fcc53f5)" style="fill: #f08080"/>
   </g>
   <g id="patch_208">
    <path d="M 113.659345 134.238765 
L 116.601018 134.238765 
L 116.601018 109.924179 
L 113.659345 109.924179 
z
" clip-path="url(#p432fcc53f5)" style="fill: #f08080"/>
   </g>
   <g id="patch_209">
    <path d="M 117.336436 137.545954 
L 120.278109 137.545954 
L 120.278109 113.450722 
L 117.336436 113.450722 
z
" clip-path="url(#p432fcc53f5)" style="fill: #f08080"/>
   </g>
   <g id="patch_210">
    <path d="M 121.013527 142.945446 
L 123.9552 142.945446 
L 123.9552 121.853681 
L 121.013527 121.853681 
z
" clip-path="url(#p432fcc53f5)" style="fill: #f08080"/>
   </g>
   <g id="patch_211">
    <path d="M 124.690618 146.016407 
L 127.632291 146.016407 
L 127.632291 124.637794 
L 124.690618 124.637794 
z
" clip-path="url(#p432fcc53f5)" style="fill: #f08080"/>
   </g>
   <g id="patch_212">
    <path d="M 128.367709 150.842202 
L 131.309382 150.842202 
L 131.309382 126.207021 
L 128.367709 126.207021 
z
" clip-path="url(#p432fcc53f5)" style="fill: #f08080"/>
   </g>
   <g id="patch_213">
    <path d="M 132.0448 155.026808 
L 134.986473 155.026808 
L 134.986473 133.597576 
L 132.0448 133.597576 
z
" clip-path="url(#p432fcc53f5)" style="fill: #f08080"/>
   </g>
   <g id="patch_214">
    <path d="M 135.721891 156.207947 
L 138.663564 156.207947 
L 138.663564 134.441246 
L 135.721891 134.441246 
z
" clip-path="url(#p432fcc53f5)" style="fill: #f08080"/>
   </g>
   <g id="patch_215">
    <path d="M 139.398982 161.86054 
L 142.340655 161.86054 
L 142.340655 141.477459 
L 139.398982 141.477459 
z
" clip-path="url(#p432fcc53f5)" style="fill: #f08080"/>
   </g>
   <g id="patch_216">
    <path d="M 143.076073 165.167729 
L 146.017745 165.167729 
L 146.017745 144.852141 
L 143.076073 144.852141 
z
" clip-path="url(#p432fcc53f5)" style="fill: #f08080"/>
   </g>
   <g id="patch_217">
    <path d="M 146.753164 167.49626 
L 149.694836 167.49626 
L 149.694836 147.315659 
L 146.753164 147.315659 
z
" clip-path="url(#p432fcc53f5)" style="fill: #f08080"/>
   </g>
   <g id="patch_218">
    <path d="M 150.430255 171.697739 
L 153.371927 171.697739 
L 153.371927 151.618379 
L 150.430255 151.618379 
z
" clip-path="url(#p432fcc53f5)" style="fill: #f08080"/>
   </g>
   <g id="patch_219">
    <path d="M 154.107345 174.937434 
L 157.049018 174.937434 
L 157.049018 155.347403 
L 154.107345 155.347403 
z
" clip-path="url(#p432fcc53f5)" style="fill: #f08080"/>
   </g>
   <g id="patch_220">
    <path d="M 157.784436 180.303179 
L 160.726109 180.303179 
L 160.726109 161.691806 
L 157.784436 161.691806 
z
" clip-path="url(#p432fcc53f5)" style="fill: #f08080"/>
   </g>
   <g id="patch_221">
    <path d="M 161.461527 185.095228 
L 164.4032 185.095228 
L 164.4032 166.90569 
L 161.461527 166.90569 
z
" clip-path="url(#p432fcc53f5)" style="fill: #f08080"/>
   </g>
   <g id="patch_222">
    <path d="M 165.138618 185.044608 
L 168.080291 185.044608 
L 168.080291 165.505197 
L 165.138618 165.505197 
z
" clip-path="url(#p432fcc53f5)" style="fill: #f08080"/>
   </g>
   <g id="patch_223">
    <path d="M 168.815709 191.642112 
L 171.757382 191.642112 
L 171.757382 171.613372 
L 168.815709 171.613372 
z
" clip-path="url(#p432fcc53f5)" style="fill: #f08080"/>
   </g>
   <g id="patch_224">
    <path d="M 172.4928 194.409352 
L 175.434473 194.409352 
L 175.434473 174.836194 
L 172.4928 174.836194 
z
" clip-path="url(#p432fcc53f5)" style="fill: #f08080"/>
   </g>
   <g id="patch_225">
    <path d="M 176.169891 199.387008 
L 179.111564 199.387008 
L 179.111564 179.206408 
L 176.169891 179.206408 
z
" clip-path="url(#p432fcc53f5)" style="fill: #f08080"/>
   </g>
   <g id="patch_226">
    <path d="M 179.846982 202.137374 
L 182.788655 202.137374 
L 182.788655 183.104166 
L 179.846982 183.104166 
z
" clip-path="url(#p432fcc53f5)" style="fill: #f08080"/>
   </g>
   <g id="patch_227">
    <path d="M 183.524073 206.895676 
L 186.465745 206.895676 
L 186.465745 188.942366 
L 183.524073 188.942366 
z
" clip-path="url(#p432fcc53f5)" style="fill: #f08080"/>
   </g>
   <g id="patch_228">
    <path d="M 187.201164 211.046536 
L 190.142836 211.046536 
L 190.142836 193.126972 
L 187.201164 193.126972 
z
" clip-path="url(#p432fcc53f5)" style="fill: #f08080"/>
   </g>
   <g id="patch_229">
    <path d="M 190.878255 213.39194 
L 193.819927 213.39194 
L 193.819927 193.818782 
L 190.878255 193.818782 
z
" clip-path="url(#p432fcc53f5)" style="fill: #f08080"/>
   </g>
   <g id="patch_230">
    <path d="M 194.555345 216.108559 
L 197.497018 216.108559 
L 197.497018 197.902148 
L 194.555345 197.902148 
z
" clip-path="url(#p432fcc53f5)" style="fill: #f08080"/>
   </g>
   <g id="patch_231">
    <path d="M 198.232436 221.508051 
L 201.174109 221.508051 
L 201.174109 203.200399 
L 198.232436 203.200399 
z
" clip-path="url(#p432fcc53f5)" style="fill: #f08080"/>
   </g>
   <g id="patch_232">
    <path d="M 201.909527 225.169581 
L 204.8512 225.169581 
L 204.8512 207.908081 
L 201.909527 207.908081 
z
" clip-path="url(#p432fcc53f5)" style="fill: #f08080"/>
   </g>
   <g id="patch_233">
    <path d="M 205.586618 229.506048 
L 208.528291 229.506048 
L 208.528291 213.324446 
L 205.586618 213.324446 
z
" clip-path="url(#p432fcc53f5)" style="fill: #f08080"/>
   </g>
   <g id="patch_234">
    <path d="M 209.263709 233.825641 
L 212.205382 233.825641 
L 212.205382 216.36166 
L 209.263709 216.36166 
z
" clip-path="url(#p432fcc53f5)" style="fill: #f08080"/>
   </g>
   <g id="patch_235">
    <path d="M 212.9408 236.997843 
L 215.882473 236.997843 
L 215.882473 219.651976 
L 212.9408 219.651976 
z
" clip-path="url(#p432fcc53f5)" style="fill: #f08080"/>
   </g>
   <g id="patch_236">
    <path d="M 216.617891 239.20826 
L 219.559564 239.20826 
L 219.559564 222.722936 
L 216.617891 222.722936 
z
" clip-path="url(#p432fcc53f5)" style="fill: #f08080"/>
   </g>
   <g id="patch_237">
    <path d="M 220.294982 244.8946 
L 223.236655 244.8946 
L 223.236655 229.337314 
L 220.294982 229.337314 
z
" clip-path="url(#p432fcc53f5)" style="fill: #f08080"/>
   </g>
   <g id="patch_238">
    <path d="M 223.972073 246.683181 
L 226.913745 246.683181 
L 226.913745 231.311503 
L 223.972073 231.311503 
z
" clip-path="url(#p432fcc53f5)" style="fill: #f08080"/>
   </g>
   <g id="patch_239">
    <path d="M 227.649164 252.706989 
L 230.590836 252.706989 
L 230.590836 236.660375 
L 227.649164 236.660375 
z
" clip-path="url(#p432fcc53f5)" style="fill: #f08080"/>
   </g>
   <g id="patch_240">
    <path d="M 231.326255 255.406735 
L 234.267927 255.406735 
L 234.267927 239.967563 
L 231.326255 239.967563 
z
" clip-path="url(#p432fcc53f5)" style="fill: #f08080"/>
   </g>
   <g id="patch_241">
    <path d="M 235.003345 254.681178 
L 237.945018 254.681178 
L 237.945018 239.20826 
L 235.003345 239.20826 
z
" clip-path="url(#p432fcc53f5)" style="fill: #f08080"/>
   </g>
   <g id="patch_242">
    <path d="M 238.680436 264.38339 
L 241.622109 264.38339 
L 241.622109 248.809231 
L 238.680436 248.809231 
z
" clip-path="url(#p432fcc53f5)" style="fill: #f08080"/>
   </g>
   <g id="patch_243">
    <path d="M 242.357527 267.285617 
L 245.2992 267.285617 
L 245.2992 252.85885 
L 242.357527 252.85885 
z
" clip-path="url(#p432fcc53f5)" style="fill: #f08080"/>
   </g>
   <g id="patch_244">
    <path d="M 246.034618 270.744666 
L 248.976291 270.744666 
L 248.976291 256.047925 
L 246.034618 256.047925 
z
" clip-path="url(#p432fcc53f5)" style="fill: #f08080"/>
   </g>
   <g id="patch_245">
    <path d="M 249.711709 271.757071 
L 252.653382 271.757071 
L 252.653382 257.920873 
L 249.711709 257.920873 
z
" clip-path="url(#p432fcc53f5)" style="fill: #f08080"/>
   </g>
   <g id="patch_246">
    <path d="M 253.3888 271.149628 
L 256.330473 271.149628 
L 256.330473 256.267279 
L 253.3888 256.267279 
z
" clip-path="url(#p432fcc53f5)" style="fill: #f08080"/>
   </g>
   <g id="patch_247">
    <path d="M 257.065891 272.19578 
L 260.007564 272.19578 
L 260.007564 258.562063 
L 257.065891 258.562063 
z
" clip-path="url(#p432fcc53f5)" style="fill: #f08080"/>
   </g>
   <g id="patch_248">
    <path d="M 260.742982 272.668235 
L 263.684655 272.668235 
L 263.684655 259.776949 
L 260.742982 259.776949 
z
" clip-path="url(#p432fcc53f5)" style="fill: #f08080"/>
   </g>
   <g id="patch_249">
    <path d="M 264.420073 273.393792 
L 267.361745 273.393792 
L 267.361745 259.068265 
L 264.420073 259.068265 
z
" clip-path="url(#p432fcc53f5)" style="fill: #f08080"/>
   </g>
   <g id="patch_250">
    <path d="M 268.097164 273.309425 
L 271.038836 273.309425 
L 271.038836 258.933278 
L 268.097164 258.933278 
z
" clip-path="url(#p432fcc53f5)" style="fill: #f08080"/>
   </g>
   <g id="patch_251">
    <path d="M 271.774255 274.760538 
L 274.715927 274.760538 
L 274.715927 260.738733 
L 271.774255 260.738733 
z
" clip-path="url(#p432fcc53f5)" style="fill: #f08080"/>
   </g>
   <g id="patch_252">
    <path d="M 275.451345 272.516375 
L 278.393018 272.516375 
L 278.393018 258.59581 
L 275.451345 258.59581 
z
" clip-path="url(#p432fcc53f5)" style="fill: #f08080"/>
   </g>
   <g id="patch_253">
    <path d="M 279.128436 274.811159 
L 282.070109 274.811159 
L 282.070109 259.776949 
L 279.128436 259.776949 
z
" clip-path="url(#p432fcc53f5)" style="fill: #f08080"/>
   </g>
   <g id="patch_254">
    <path d="M 282.805527 274.844905 
L 285.7472 274.844905 
L 285.7472 261.278682 
L 282.805527 261.278682 
z
" clip-path="url(#p432fcc53f5)" style="fill: #f08080"/>
   </g>
   <g id="patch_255">
    <path d="M 286.482618 274.237463 
L 289.424291 274.237463 
L 289.424291 259.490101 
L 286.482618 259.490101 
z
" clip-path="url(#p432fcc53f5)" style="fill: #f08080"/>
   </g>
   <g id="patch_256">
    <path d="M 290.159709 275.80669 
L 293.101382 275.80669 
L 293.101382 261.633024 
L 290.159709 261.633024 
z
" clip-path="url(#p432fcc53f5)" style="fill: #f08080"/>
   </g>
   <g id="patch_257">
    <path d="M 293.8368 275.637956 
L 296.778473 275.637956 
L 296.778473 261.194315 
L 293.8368 261.194315 
z
" clip-path="url(#p432fcc53f5)" style="fill: #f08080"/>
   </g>
   <g id="patch_258">
    <path d="M 297.513891 275.874184 
L 300.455564 275.874184 
L 300.455564 260.738733 
L 297.513891 260.738733 
z
" clip-path="url(#p432fcc53f5)" style="fill: #f08080"/>
   </g>
   <g id="patch_259">
    <path d="M 301.190982 276.110411 
L 304.132655 276.110411 
L 304.132655 262.628555 
L 301.190982 262.628555 
z
" clip-path="url(#p432fcc53f5)" style="fill: #f08080"/>
   </g>
   <g id="patch_260">
    <path d="M 304.868073 276.532247 
L 307.809745 276.532247 
L 307.809745 262.99977 
L 304.868073 262.99977 
z
" clip-path="url(#p432fcc53f5)" style="fill: #f08080"/>
   </g>
   <g id="patch_261">
    <path d="M 308.545164 276.785348 
L 311.486836 276.785348 
L 311.486836 261.447416 
L 308.545164 261.447416 
z
" clip-path="url(#p432fcc53f5)" style="fill: #f08080"/>
   </g>
   <g id="patch_262">
    <path d="M 312.222255 277.460284 
L 315.163927 277.460284 
L 315.163927 262.94915 
L 312.222255 262.94915 
z
" clip-path="url(#p432fcc53f5)" style="fill: #f08080"/>
   </g>
   <g id="patch_263">
    <path d="M 315.899345 268.112414 
L 318.841018 268.112414 
L 318.841018 252.690116 
L 315.899345 252.690116 
z
" clip-path="url(#p432fcc53f5)" style="fill: #f08080"/>
   </g>
   <g id="patch_264">
    <path d="M 319.576436 277.612145 
L 322.518109 277.612145 
L 322.518109 222.368595 
L 319.576436 222.368595 
z
" clip-path="url(#p432fcc53f5)" style="fill: #f08080"/>
   </g>
   <g id="patch_265">
    <path d="M 323.253527 277.426537 
L 326.1952 277.426537 
L 326.1952 263.421606 
L 323.253527 263.421606 
z
" clip-path="url(#p432fcc53f5)" style="fill: #f08080"/>
   </g>
   <g id="patch_266">
    <path d="M 326.930618 277.544651 
L 329.872291 277.544651 
L 329.872291 261.56553 
L 326.930618 261.56553 
z
" clip-path="url(#p432fcc53f5)" style="fill: #f08080"/>
   </g>
   <g id="patch_267">
    <path d="M 330.607709 278.287081 
L 333.549382 278.287081 
L 333.549382 264.484631 
L 330.607709 264.484631 
z
" clip-path="url(#p432fcc53f5)" style="fill: #f08080"/>
   </g>
   <g id="patch_268">
    <path d="M 334.2848 278.388322 
L 337.226473 278.388322 
L 337.226473 264.552124 
L 334.2848 264.552124 
z
" clip-path="url(#p432fcc53f5)" style="fill: #f08080"/>
   </g>
   <g id="patch_269">
    <path d="M 337.961891 278.438942 
L 340.903564 278.438942 
L 340.903564 263.320365 
L 337.961891 263.320365 
z
" clip-path="url(#p432fcc53f5)" style="fill: #f08080"/>
   </g>
   <g id="patch_270">
    <path d="M 341.638982 278.337702 
L 344.580655 278.337702 
L 344.580655 264.231529 
L 341.638982 264.231529 
z
" clip-path="url(#p432fcc53f5)" style="fill: #f08080"/>
   </g>
   <g id="patch_271">
    <path d="M 345.316073 278.72579 
L 348.257745 278.72579 
L 348.257745 265.311428 
L 345.316073 265.311428 
z
" clip-path="url(#p432fcc53f5)" style="fill: #f08080"/>
   </g>
   <g id="patch_272">
    <path d="M 348.993164 278.962018 
L 351.934836 278.962018 
L 351.934836 265.497035 
L 348.993164 265.497035 
z
" clip-path="url(#p432fcc53f5)" style="fill: #f08080"/>
   </g>
   <g id="patch_273">
    <path d="M 352.670255 278.827031 
L 355.611927 278.827031 
L 355.611927 265.227061 
L 352.670255 265.227061 
z
" clip-path="url(#p432fcc53f5)" style="fill: #f08080"/>
   </g>
   <g id="patch_274">
    <path d="M 356.347345 279.333233 
L 359.289018 279.333233 
L 359.289018 265.699516 
L 356.347345 265.699516 
z
" clip-path="url(#p432fcc53f5)" style="fill: #f08080"/>
   </g>
   <g id="patch_275">
    <path d="M 360.024436 279.198246 
L 362.966109 279.198246 
L 362.966109 264.97396 
L 360.024436 264.97396 
z
" clip-path="url(#p432fcc53f5)" style="fill: #f08080"/>
   </g>
   <g id="patch_276">
    <path d="M 363.701527 279.839435 
L 366.6432 279.839435 
L 366.6432 265.243934 
L 363.701527 265.243934 
z
" clip-path="url(#p432fcc53f5)" style="fill: #f08080"/>
   </g>
   <g id="patch_277">
    <path d="M 367.378618 272.634488 
L 370.320291 272.634488 
L 370.320291 258.562063 
L 367.378618 258.562063 
z
" clip-path="url(#p432fcc53f5)" style="fill: #f08080"/>
   </g>
   <g id="patch_278">
    <path d="M 371.055709 280.295017 
L 373.997382 280.295017 
L 373.997382 266.138225 
L 371.055709 266.138225 
z
" clip-path="url(#p432fcc53f5)" style="fill: #f08080"/>
   </g>
   <g id="patch_279">
    <path d="M 374.7328 280.092536 
L 377.674473 280.092536 
L 377.674473 265.648896 
L 374.7328 265.648896 
z
" clip-path="url(#p432fcc53f5)" style="fill: #f08080"/>
   </g>
   <g id="patch_280">
    <path d="M 378.409891 280.413131 
L 381.351564 280.413131 
L 381.351564 267.049389 
L 378.409891 267.049389 
z
" clip-path="url(#p432fcc53f5)" style="fill: #f08080"/>
   </g>
   <g id="patch_281">
    <path d="M 382.086982 280.818093 
L 385.028655 280.818093 
L 385.028655 266.104478 
L 382.086982 266.104478 
z
" clip-path="url(#p432fcc53f5)" style="fill: #f08080"/>
   </g>
   <g id="patch_282">
    <path d="M 385.764073 280.784346 
L 388.705745 280.784346 
L 388.705745 265.952617 
L 385.764073 265.952617 
z
" clip-path="url(#p432fcc53f5)" style="fill: #f08080"/>
   </g>
   <g id="patch_283">
    <path d="M 389.441164 280.885587 
L 392.382836 280.885587 
L 392.382836 268.702984 
L 389.441164 268.702984 
z
" clip-path="url(#p432fcc53f5)" style="fill: #f08080"/>
   </g>
   <g id="patch_284">
    <path d="M 393.118255 280.261271 
L 396.059927 280.261271 
L 396.059927 266.273212 
L 393.118255 266.273212 
z
" clip-path="url(#p432fcc53f5)" style="fill: #f08080"/>
   </g>
   <g id="patch_285">
    <path d="M 396.795345 281.223055 
L 399.737018 281.223055 
L 399.737018 267.707452 
L 396.795345 267.707452 
z
" clip-path="url(#p432fcc53f5)" style="fill: #f08080"/>
   </g>
   <g id="patch_286">
    <path d="M 400.472436 281.256802 
L 403.414109 281.256802 
L 403.414109 268.095541 
L 400.472436 268.095541 
z
" clip-path="url(#p432fcc53f5)" style="fill: #f08080"/>
   </g>
   <g id="patch_287">
    <path d="M 404.149527 281.003701 
L 407.0912 281.003701 
L 407.0912 267.656832 
L 404.149527 267.656832 
z
" clip-path="url(#p432fcc53f5)" style="fill: #f08080"/>
   </g>
   <g id="patch_288">
    <path d="M 407.826618 280.90246 
L 410.768291 280.90246 
L 410.768291 267.488098 
L 407.826618 267.488098 
z
" clip-path="url(#p432fcc53f5)" style="fill: #f08080"/>
   </g>
   <g id="patch_289">
    <path d="M 411.503709 281.59427 
L 414.445382 281.59427 
L 414.445382 268.298022 
L 411.503709 268.298022 
z
" clip-path="url(#p432fcc53f5)" style="fill: #f08080"/>
   </g>
   <g id="patch_290">
    <path d="M 415.1808 281.695511 
L 418.122473 281.695511 
L 418.122473 266.998769 
L 415.1808 266.998769 
z
" clip-path="url(#p432fcc53f5)" style="fill: #f08080"/>
   </g>
   <g id="patch_291">
    <path d="M 418.857891 281.847371 
L 421.799564 281.847371 
L 421.799564 268.163034 
L 418.857891 268.163034 
z
" clip-path="url(#p432fcc53f5)" style="fill: #f08080"/>
   </g>
   <g id="patch_292">
    <path d="M 422.534982 282.066726 
L 425.476655 282.066726 
L 425.476655 268.298022 
L 422.534982 268.298022 
z
" clip-path="url(#p432fcc53f5)" style="fill: #f08080"/>
   </g>
   <g id="patch_293">
    <path d="M 426.212073 281.611144 
L 429.153745 281.611144 
L 429.153745 267.589338 
L 426.212073 267.589338 
z
" clip-path="url(#p432fcc53f5)" style="fill: #f08080"/>
   </g>
   <g id="patch_294">
    <path d="M 429.889164 282.319827 
L 432.830836 282.319827 
L 432.830836 267.977427 
L 429.889164 267.977427 
z
" clip-path="url(#p432fcc53f5)" style="fill: #f08080"/>
   </g>
   <g id="patch_295">
    <path d="M 433.566255 282.3367 
L 436.507927 282.3367 
L 436.507927 268.905464 
L 433.566255 268.905464 
z
" clip-path="url(#p432fcc53f5)" style="fill: #f08080"/>
   </g>
   <g id="patch_296">
    <path d="M 437.243345 282.3367 
L 440.185018 282.3367 
L 440.185018 269.799755 
L 437.243345 269.799755 
z
" clip-path="url(#p432fcc53f5)" style="fill: #f08080"/>
   </g>
   <g id="patch_297">
    <path d="M 440.920436 282.319827 
L 443.862109 282.319827 
L 443.862109 267.9943 
L 440.920436 267.9943 
z
" clip-path="url(#p432fcc53f5)" style="fill: #f08080"/>
   </g>
   <g id="patch_298">
    <path d="M 444.597527 282.556055 
L 447.5392 282.556055 
L 447.5392 268.770477 
L 444.597527 268.770477 
z
" clip-path="url(#p432fcc53f5)" style="fill: #f08080"/>
   </g>
   <g id="patch_299">
    <path d="M 448.274618 282.724789 
L 451.216291 282.724789 
L 451.216291 268.179908 
L 448.274618 268.179908 
z
" clip-path="url(#p432fcc53f5)" style="fill: #f08080"/>
   </g>
   <g id="patch_300">
    <path d="M 87.919709 293.76 
L 90.861382 293.76 
L 90.861382 106.245775 
L 87.919709 106.245775 
z
" clip-path="url(#p432fcc53f5)" style="fill: #ffe4e1"/>
   </g>
   <g id="patch_301">
    <path d="M 91.5968 293.76 
L 94.538473 293.76 
L 94.538473 113.501342 
L 91.5968 113.501342 
z
" clip-path="url(#p432fcc53f5)" style="fill: #ffe4e1"/>
   </g>
   <g id="patch_302">
    <path d="M 95.273891 293.76 
L 98.215564 293.76 
L 98.215564 115.762379 
L 95.273891 115.762379 
z
" clip-path="url(#p432fcc53f5)" style="fill: #ffe4e1"/>
   </g>
   <g id="patch_303">
    <path d="M 98.950982 293.76 
L 101.892655 293.76 
L 101.892655 121.60058 
L 98.950982 121.60058 
z
" clip-path="url(#p432fcc53f5)" style="fill: #ffe4e1"/>
   </g>
   <g id="patch_304">
    <path d="M 102.628073 293.76 
L 105.569745 293.76 
L 105.569745 123.608516 
L 102.628073 123.608516 
z
" clip-path="url(#p432fcc53f5)" style="fill: #ffe4e1"/>
   </g>
   <g id="patch_305">
    <path d="M 106.305164 293.76 
L 109.246836 293.76 
L 109.246836 126.544489 
L 106.305164 126.544489 
z
" clip-path="url(#p432fcc53f5)" style="fill: #ffe4e1"/>
   </g>
   <g id="patch_306">
    <path d="M 109.982255 293.76 
L 112.923927 293.76 
L 112.923927 130.526615 
L 109.982255 130.526615 
z
" clip-path="url(#p432fcc53f5)" style="fill: #ffe4e1"/>
   </g>
   <g id="patch_307">
    <path d="M 113.659345 293.76 
L 116.601018 293.76 
L 116.601018 134.238765 
L 113.659345 134.238765 
z
" clip-path="url(#p432fcc53f5)" style="fill: #ffe4e1"/>
   </g>
   <g id="patch_308">
    <path d="M 117.336436 293.76 
L 120.278109 293.76 
L 120.278109 137.545954 
L 117.336436 137.545954 
z
" clip-path="url(#p432fcc53f5)" style="fill: #ffe4e1"/>
   </g>
   <g id="patch_309">
    <path d="M 121.013527 293.76 
L 123.9552 293.76 
L 123.9552 142.945446 
L 121.013527 142.945446 
z
" clip-path="url(#p432fcc53f5)" style="fill: #ffe4e1"/>
   </g>
   <g id="patch_310">
    <path d="M 124.690618 293.76 
L 127.632291 293.76 
L 127.632291 146.016407 
L 124.690618 146.016407 
z
" clip-path="url(#p432fcc53f5)" style="fill: #ffe4e1"/>
   </g>
   <g id="patch_311">
    <path d="M 128.367709 293.76 
L 131.309382 293.76 
L 131.309382 150.842202 
L 128.367709 150.842202 
z
" clip-path="url(#p432fcc53f5)" style="fill: #ffe4e1"/>
   </g>
   <g id="patch_312">
    <path d="M 132.0448 293.76 
L 134.986473 293.76 
L 134.986473 155.026808 
L 132.0448 155.026808 
z
" clip-path="url(#p432fcc53f5)" style="fill: #ffe4e1"/>
   </g>
   <g id="patch_313">
    <path d="M 135.721891 293.76 
L 138.663564 293.76 
L 138.663564 156.207947 
L 135.721891 156.207947 
z
" clip-path="url(#p432fcc53f5)" style="fill: #ffe4e1"/>
   </g>
   <g id="patch_314">
    <path d="M 139.398982 293.76 
L 142.340655 293.76 
L 142.340655 161.86054 
L 139.398982 161.86054 
z
" clip-path="url(#p432fcc53f5)" style="fill: #ffe4e1"/>
   </g>
   <g id="patch_315">
    <path d="M 143.076073 293.76 
L 146.017745 293.76 
L 146.017745 165.167729 
L 143.076073 165.167729 
z
" clip-path="url(#p432fcc53f5)" style="fill: #ffe4e1"/>
   </g>
   <g id="patch_316">
    <path d="M 146.753164 293.76 
L 149.694836 293.76 
L 149.694836 167.49626 
L 146.753164 167.49626 
z
" clip-path="url(#p432fcc53f5)" style="fill: #ffe4e1"/>
   </g>
   <g id="patch_317">
    <path d="M 150.430255 293.76 
L 153.371927 293.76 
L 153.371927 171.697739 
L 150.430255 171.697739 
z
" clip-path="url(#p432fcc53f5)" style="fill: #ffe4e1"/>
   </g>
   <g id="patch_318">
    <path d="M 154.107345 293.76 
L 157.049018 293.76 
L 157.049018 174.937434 
L 154.107345 174.937434 
z
" clip-path="url(#p432fcc53f5)" style="fill: #ffe4e1"/>
   </g>
   <g id="patch_319">
    <path d="M 157.784436 293.76 
L 160.726109 293.76 
L 160.726109 180.303179 
L 157.784436 180.303179 
z
" clip-path="url(#p432fcc53f5)" style="fill: #ffe4e1"/>
   </g>
   <g id="patch_320">
    <path d="M 161.461527 293.76 
L 164.4032 293.76 
L 164.4032 185.095228 
L 161.461527 185.095228 
z
" clip-path="url(#p432fcc53f5)" style="fill: #ffe4e1"/>
   </g>
   <g id="patch_321">
    <path d="M 165.138618 293.76 
L 168.080291 293.76 
L 168.080291 185.044608 
L 165.138618 185.044608 
z
" clip-path="url(#p432fcc53f5)" style="fill: #ffe4e1"/>
   </g>
   <g id="patch_322">
    <path d="M 168.815709 293.76 
L 171.757382 293.76 
L 171.757382 191.642112 
L 168.815709 191.642112 
z
" clip-path="url(#p432fcc53f5)" style="fill: #ffe4e1"/>
   </g>
   <g id="patch_323">
    <path d="M 172.4928 293.76 
L 175.434473 293.76 
L 175.434473 194.409352 
L 172.4928 194.409352 
z
" clip-path="url(#p432fcc53f5)" style="fill: #ffe4e1"/>
   </g>
   <g id="patch_324">
    <path d="M 176.169891 293.76 
L 179.111564 293.76 
L 179.111564 199.387008 
L 176.169891 199.387008 
z
" clip-path="url(#p432fcc53f5)" style="fill: #ffe4e1"/>
   </g>
   <g id="patch_325">
    <path d="M 179.846982 293.76 
L 182.788655 293.76 
L 182.788655 202.137374 
L 179.846982 202.137374 
z
" clip-path="url(#p432fcc53f5)" style="fill: #ffe4e1"/>
   </g>
   <g id="patch_326">
    <path d="M 183.524073 293.76 
L 186.465745 293.76 
L 186.465745 206.895676 
L 183.524073 206.895676 
z
" clip-path="url(#p432fcc53f5)" style="fill: #ffe4e1"/>
   </g>
   <g id="patch_327">
    <path d="M 187.201164 293.76 
L 190.142836 293.76 
L 190.142836 211.046536 
L 187.201164 211.046536 
z
" clip-path="url(#p432fcc53f5)" style="fill: #ffe4e1"/>
   </g>
   <g id="patch_328">
    <path d="M 190.878255 293.76 
L 193.819927 293.76 
L 193.819927 213.39194 
L 190.878255 213.39194 
z
" clip-path="url(#p432fcc53f5)" style="fill: #ffe4e1"/>
   </g>
   <g id="patch_329">
    <path d="M 194.555345 293.76 
L 197.497018 293.76 
L 197.497018 216.108559 
L 194.555345 216.108559 
z
" clip-path="url(#p432fcc53f5)" style="fill: #ffe4e1"/>
   </g>
   <g id="patch_330">
    <path d="M 198.232436 293.76 
L 201.174109 293.76 
L 201.174109 221.508051 
L 198.232436 221.508051 
z
" clip-path="url(#p432fcc53f5)" style="fill: #ffe4e1"/>
   </g>
   <g id="patch_331">
    <path d="M 201.909527 293.76 
L 204.8512 293.76 
L 204.8512 225.169581 
L 201.909527 225.169581 
z
" clip-path="url(#p432fcc53f5)" style="fill: #ffe4e1"/>
   </g>
   <g id="patch_332">
    <path d="M 205.586618 293.76 
L 208.528291 293.76 
L 208.528291 229.506048 
L 205.586618 229.506048 
z
" clip-path="url(#p432fcc53f5)" style="fill: #ffe4e1"/>
   </g>
   <g id="patch_333">
    <path d="M 209.263709 293.76 
L 212.205382 293.76 
L 212.205382 233.825641 
L 209.263709 233.825641 
z
" clip-path="url(#p432fcc53f5)" style="fill: #ffe4e1"/>
   </g>
   <g id="patch_334">
    <path d="M 212.9408 293.76 
L 215.882473 293.76 
L 215.882473 236.997843 
L 212.9408 236.997843 
z
" clip-path="url(#p432fcc53f5)" style="fill: #ffe4e1"/>
   </g>
   <g id="patch_335">
    <path d="M 216.617891 293.76 
L 219.559564 293.76 
L 219.559564 239.20826 
L 216.617891 239.20826 
z
" clip-path="url(#p432fcc53f5)" style="fill: #ffe4e1"/>
   </g>
   <g id="patch_336">
    <path d="M 220.294982 293.76 
L 223.236655 293.76 
L 223.236655 244.8946 
L 220.294982 244.8946 
z
" clip-path="url(#p432fcc53f5)" style="fill: #ffe4e1"/>
   </g>
   <g id="patch_337">
    <path d="M 223.972073 293.76 
L 226.913745 293.76 
L 226.913745 246.683181 
L 223.972073 246.683181 
z
" clip-path="url(#p432fcc53f5)" style="fill: #ffe4e1"/>
   </g>
   <g id="patch_338">
    <path d="M 227.649164 293.76 
L 230.590836 293.76 
L 230.590836 252.706989 
L 227.649164 252.706989 
z
" clip-path="url(#p432fcc53f5)" style="fill: #ffe4e1"/>
   </g>
   <g id="patch_339">
    <path d="M 231.326255 293.76 
L 234.267927 293.76 
L 234.267927 255.406735 
L 231.326255 255.406735 
z
" clip-path="url(#p432fcc53f5)" style="fill: #ffe4e1"/>
   </g>
   <g id="patch_340">
    <path d="M 235.003345 293.76 
L 237.945018 293.76 
L 237.945018 254.681178 
L 235.003345 254.681178 
z
" clip-path="url(#p432fcc53f5)" style="fill: #ffe4e1"/>
   </g>
   <g id="patch_341">
    <path d="M 238.680436 293.76 
L 241.622109 293.76 
L 241.622109 264.38339 
L 238.680436 264.38339 
z
" clip-path="url(#p432fcc53f5)" style="fill: #ffe4e1"/>
   </g>
   <g id="patch_342">
    <path d="M 242.357527 293.76 
L 245.2992 293.76 
L 245.2992 267.285617 
L 242.357527 267.285617 
z
" clip-path="url(#p432fcc53f5)" style="fill: #ffe4e1"/>
   </g>
   <g id="patch_343">
    <path d="M 246.034618 293.76 
L 248.976291 293.76 
L 248.976291 270.744666 
L 246.034618 270.744666 
z
" clip-path="url(#p432fcc53f5)" style="fill: #ffe4e1"/>
   </g>
   <g id="patch_344">
    <path d="M 249.711709 293.76 
L 252.653382 293.76 
L 252.653382 271.757071 
L 249.711709 271.757071 
z
" clip-path="url(#p432fcc53f5)" style="fill: #ffe4e1"/>
   </g>
   <g id="patch_345">
    <path d="M 253.3888 293.76 
L 256.330473 293.76 
L 256.330473 271.149628 
L 253.3888 271.149628 
z
" clip-path="url(#p432fcc53f5)" style="fill: #ffe4e1"/>
   </g>
   <g id="patch_346">
    <path d="M 257.065891 293.76 
L 260.007564 293.76 
L 260.007564 272.19578 
L 257.065891 272.19578 
z
" clip-path="url(#p432fcc53f5)" style="fill: #ffe4e1"/>
   </g>
   <g id="patch_347">
    <path d="M 260.742982 293.76 
L 263.684655 293.76 
L 263.684655 272.668235 
L 260.742982 272.668235 
z
" clip-path="url(#p432fcc53f5)" style="fill: #ffe4e1"/>
   </g>
   <g id="patch_348">
    <path d="M 264.420073 293.76 
L 267.361745 293.76 
L 267.361745 273.393792 
L 264.420073 273.393792 
z
" clip-path="url(#p432fcc53f5)" style="fill: #ffe4e1"/>
   </g>
   <g id="patch_349">
    <path d="M 268.097164 293.76 
L 271.038836 293.76 
L 271.038836 273.309425 
L 268.097164 273.309425 
z
" clip-path="url(#p432fcc53f5)" style="fill: #ffe4e1"/>
   </g>
   <g id="patch_350">
    <path d="M 271.774255 293.76 
L 274.715927 293.76 
L 274.715927 274.760538 
L 271.774255 274.760538 
z
" clip-path="url(#p432fcc53f5)" style="fill: #ffe4e1"/>
   </g>
   <g id="patch_351">
    <path d="M 275.451345 293.76 
L 278.393018 293.76 
L 278.393018 272.516375 
L 275.451345 272.516375 
z
" clip-path="url(#p432fcc53f5)" style="fill: #ffe4e1"/>
   </g>
   <g id="patch_352">
    <path d="M 279.128436 293.76 
L 282.070109 293.76 
L 282.070109 274.811159 
L 279.128436 274.811159 
z
" clip-path="url(#p432fcc53f5)" style="fill: #ffe4e1"/>
   </g>
   <g id="patch_353">
    <path d="M 282.805527 293.76 
L 285.7472 293.76 
L 285.7472 274.844905 
L 282.805527 274.844905 
z
" clip-path="url(#p432fcc53f5)" style="fill: #ffe4e1"/>
   </g>
   <g id="patch_354">
    <path d="M 286.482618 293.76 
L 289.424291 293.76 
L 289.424291 274.237463 
L 286.482618 274.237463 
z
" clip-path="url(#p432fcc53f5)" style="fill: #ffe4e1"/>
   </g>
   <g id="patch_355">
    <path d="M 290.159709 293.76 
L 293.101382 293.76 
L 293.101382 275.80669 
L 290.159709 275.80669 
z
" clip-path="url(#p432fcc53f5)" style="fill: #ffe4e1"/>
   </g>
   <g id="patch_356">
    <path d="M 293.8368 293.76 
L 296.778473 293.76 
L 296.778473 275.637956 
L 293.8368 275.637956 
z
" clip-path="url(#p432fcc53f5)" style="fill: #ffe4e1"/>
   </g>
   <g id="patch_357">
    <path d="M 297.513891 293.76 
L 300.455564 293.76 
L 300.455564 275.874184 
L 297.513891 275.874184 
z
" clip-path="url(#p432fcc53f5)" style="fill: #ffe4e1"/>
   </g>
   <g id="patch_358">
    <path d="M 301.190982 293.76 
L 304.132655 293.76 
L 304.132655 276.110411 
L 301.190982 276.110411 
z
" clip-path="url(#p432fcc53f5)" style="fill: #ffe4e1"/>
   </g>
   <g id="patch_359">
    <path d="M 304.868073 293.76 
L 307.809745 293.76 
L 307.809745 276.532247 
L 304.868073 276.532247 
z
" clip-path="url(#p432fcc53f5)" style="fill: #ffe4e1"/>
   </g>
   <g id="patch_360">
    <path d="M 308.545164 293.76 
L 311.486836 293.76 
L 311.486836 276.785348 
L 308.545164 276.785348 
z
" clip-path="url(#p432fcc53f5)" style="fill: #ffe4e1"/>
   </g>
   <g id="patch_361">
    <path d="M 312.222255 293.76 
L 315.163927 293.76 
L 315.163927 277.460284 
L 312.222255 277.460284 
z
" clip-path="url(#p432fcc53f5)" style="fill: #ffe4e1"/>
   </g>
   <g id="patch_362">
    <path d="M 315.899345 293.76 
L 318.841018 293.76 
L 318.841018 268.112414 
L 315.899345 268.112414 
z
" clip-path="url(#p432fcc53f5)" style="fill: #ffe4e1"/>
   </g>
   <g id="patch_363">
    <path d="M 319.576436 293.76 
L 322.518109 293.76 
L 322.518109 277.612145 
L 319.576436 277.612145 
z
" clip-path="url(#p432fcc53f5)" style="fill: #ffe4e1"/>
   </g>
   <g id="patch_364">
    <path d="M 323.253527 293.76 
L 326.1952 293.76 
L 326.1952 277.426537 
L 323.253527 277.426537 
z
" clip-path="url(#p432fcc53f5)" style="fill: #ffe4e1"/>
   </g>
   <g id="patch_365">
    <path d="M 326.930618 293.76 
L 329.872291 293.76 
L 329.872291 277.544651 
L 326.930618 277.544651 
z
" clip-path="url(#p432fcc53f5)" style="fill: #ffe4e1"/>
   </g>
   <g id="patch_366">
    <path d="M 330.607709 293.76 
L 333.549382 293.76 
L 333.549382 278.287081 
L 330.607709 278.287081 
z
" clip-path="url(#p432fcc53f5)" style="fill: #ffe4e1"/>
   </g>
   <g id="patch_367">
    <path d="M 334.2848 293.76 
L 337.226473 293.76 
L 337.226473 278.388322 
L 334.2848 278.388322 
z
" clip-path="url(#p432fcc53f5)" style="fill: #ffe4e1"/>
   </g>
   <g id="patch_368">
    <path d="M 337.961891 293.76 
L 340.903564 293.76 
L 340.903564 278.438942 
L 337.961891 278.438942 
z
" clip-path="url(#p432fcc53f5)" style="fill: #ffe4e1"/>
   </g>
   <g id="patch_369">
    <path d="M 341.638982 293.76 
L 344.580655 293.76 
L 344.580655 278.337702 
L 341.638982 278.337702 
z
" clip-path="url(#p432fcc53f5)" style="fill: #ffe4e1"/>
   </g>
   <g id="patch_370">
    <path d="M 345.316073 293.76 
L 348.257745 293.76 
L 348.257745 278.72579 
L 345.316073 278.72579 
z
" clip-path="url(#p432fcc53f5)" style="fill: #ffe4e1"/>
   </g>
   <g id="patch_371">
    <path d="M 348.993164 293.76 
L 351.934836 293.76 
L 351.934836 278.962018 
L 348.993164 278.962018 
z
" clip-path="url(#p432fcc53f5)" style="fill: #ffe4e1"/>
   </g>
   <g id="patch_372">
    <path d="M 352.670255 293.76 
L 355.611927 293.76 
L 355.611927 278.827031 
L 352.670255 278.827031 
z
" clip-path="url(#p432fcc53f5)" style="fill: #ffe4e1"/>
   </g>
   <g id="patch_373">
    <path d="M 356.347345 293.76 
L 359.289018 293.76 
L 359.289018 279.333233 
L 356.347345 279.333233 
z
" clip-path="url(#p432fcc53f5)" style="fill: #ffe4e1"/>
   </g>
   <g id="patch_374">
    <path d="M 360.024436 293.76 
L 362.966109 293.76 
L 362.966109 279.198246 
L 360.024436 279.198246 
z
" clip-path="url(#p432fcc53f5)" style="fill: #ffe4e1"/>
   </g>
   <g id="patch_375">
    <path d="M 363.701527 293.76 
L 366.6432 293.76 
L 366.6432 279.839435 
L 363.701527 279.839435 
z
" clip-path="url(#p432fcc53f5)" style="fill: #ffe4e1"/>
   </g>
   <g id="patch_376">
    <path d="M 367.378618 293.76 
L 370.320291 293.76 
L 370.320291 272.634488 
L 367.378618 272.634488 
z
" clip-path="url(#p432fcc53f5)" style="fill: #ffe4e1"/>
   </g>
   <g id="patch_377">
    <path d="M 371.055709 293.76 
L 373.997382 293.76 
L 373.997382 280.295017 
L 371.055709 280.295017 
z
" clip-path="url(#p432fcc53f5)" style="fill: #ffe4e1"/>
   </g>
   <g id="patch_378">
    <path d="M 374.7328 293.76 
L 377.674473 293.76 
L 377.674473 280.092536 
L 374.7328 280.092536 
z
" clip-path="url(#p432fcc53f5)" style="fill: #ffe4e1"/>
   </g>
   <g id="patch_379">
    <path d="M 378.409891 293.76 
L 381.351564 293.76 
L 381.351564 280.413131 
L 378.409891 280.413131 
z
" clip-path="url(#p432fcc53f5)" style="fill: #ffe4e1"/>
   </g>
   <g id="patch_380">
    <path d="M 382.086982 293.76 
L 385.028655 293.76 
L 385.028655 280.818093 
L 382.086982 280.818093 
z
" clip-path="url(#p432fcc53f5)" style="fill: #ffe4e1"/>
   </g>
   <g id="patch_381">
    <path d="M 385.764073 293.76 
L 388.705745 293.76 
L 388.705745 280.784346 
L 385.764073 280.784346 
z
" clip-path="url(#p432fcc53f5)" style="fill: #ffe4e1"/>
   </g>
   <g id="patch_382">
    <path d="M 389.441164 293.76 
L 392.382836 293.76 
L 392.382836 280.885587 
L 389.441164 280.885587 
z
" clip-path="url(#p432fcc53f5)" style="fill: #ffe4e1"/>
   </g>
   <g id="patch_383">
    <path d="M 393.118255 293.76 
L 396.059927 293.76 
L 396.059927 280.261271 
L 393.118255 280.261271 
z
" clip-path="url(#p432fcc53f5)" style="fill: #ffe4e1"/>
   </g>
   <g id="patch_384">
    <path d="M 396.795345 293.76 
L 399.737018 293.76 
L 399.737018 281.223055 
L 396.795345 281.223055 
z
" clip-path="url(#p432fcc53f5)" style="fill: #ffe4e1"/>
   </g>
   <g id="patch_385">
    <path d="M 400.472436 293.76 
L 403.414109 293.76 
L 403.414109 281.256802 
L 400.472436 281.256802 
z
" clip-path="url(#p432fcc53f5)" style="fill: #ffe4e1"/>
   </g>
   <g id="patch_386">
    <path d="M 404.149527 293.76 
L 407.0912 293.76 
L 407.0912 281.003701 
L 404.149527 281.003701 
z
" clip-path="url(#p432fcc53f5)" style="fill: #ffe4e1"/>
   </g>
   <g id="patch_387">
    <path d="M 407.826618 293.76 
L 410.768291 293.76 
L 410.768291 280.90246 
L 407.826618 280.90246 
z
" clip-path="url(#p432fcc53f5)" style="fill: #ffe4e1"/>
   </g>
   <g id="patch_388">
    <path d="M 411.503709 293.76 
L 414.445382 293.76 
L 414.445382 281.59427 
L 411.503709 281.59427 
z
" clip-path="url(#p432fcc53f5)" style="fill: #ffe4e1"/>
   </g>
   <g id="patch_389">
    <path d="M 415.1808 293.76 
L 418.122473 293.76 
L 418.122473 281.695511 
L 415.1808 281.695511 
z
" clip-path="url(#p432fcc53f5)" style="fill: #ffe4e1"/>
   </g>
   <g id="patch_390">
    <path d="M 418.857891 293.76 
L 421.799564 293.76 
L 421.799564 281.847371 
L 418.857891 281.847371 
z
" clip-path="url(#p432fcc53f5)" style="fill: #ffe4e1"/>
   </g>
   <g id="patch_391">
    <path d="M 422.534982 293.76 
L 425.476655 293.76 
L 425.476655 282.066726 
L 422.534982 282.066726 
z
" clip-path="url(#p432fcc53f5)" style="fill: #ffe4e1"/>
   </g>
   <g id="patch_392">
    <path d="M 426.212073 293.76 
L 429.153745 293.76 
L 429.153745 281.611144 
L 426.212073 281.611144 
z
" clip-path="url(#p432fcc53f5)" style="fill: #ffe4e1"/>
   </g>
   <g id="patch_393">
    <path d="M 429.889164 293.76 
L 432.830836 293.76 
L 432.830836 282.319827 
L 429.889164 282.319827 
z
" clip-path="url(#p432fcc53f5)" style="fill: #ffe4e1"/>
   </g>
   <g id="patch_394">
    <path d="M 433.566255 293.76 
L 436.507927 293.76 
L 436.507927 282.3367 
L 433.566255 282.3367 
z
" clip-path="url(#p432fcc53f5)" style="fill: #ffe4e1"/>
   </g>
   <g id="patch_395">
    <path d="M 437.243345 293.76 
L 440.185018 293.76 
L 440.185018 282.3367 
L 437.243345 282.3367 
z
" clip-path="url(#p432fcc53f5)" style="fill: #ffe4e1"/>
   </g>
   <g id="patch_396">
    <path d="M 440.920436 293.76 
L 443.862109 293.76 
L 443.862109 282.319827 
L 440.920436 282.319827 
z
" clip-path="url(#p432fcc53f5)" style="fill: #ffe4e1"/>
   </g>
   <g id="patch_397">
    <path d="M 444.597527 293.76 
L 447.5392 293.76 
L 447.5392 282.556055 
L 444.597527 282.556055 
z
" clip-path="url(#p432fcc53f5)" style="fill: #ffe4e1"/>
   </g>
   <g id="patch_398">
    <path d="M 448.274618 293.76 
L 451.216291 293.76 
L 451.216291 282.724789 
L 448.274618 282.724789 
z
" clip-path="url(#p432fcc53f5)" style="fill: #ffe4e1"/>
   </g>
   <g id="matplotlib.axis_1">
    <g id="xtick_1">
     <g id="line2d_1">
      <path d="M 159.255273 293.76 
L 159.255273 6.912 
" clip-path="url(#p432fcc53f5)" style="fill: none; stroke: #b0b0b0; stroke-width: 0.8; stroke-linecap: square"/>
     </g>
     <g id="line2d_2">
      <defs>
       <path id="mb7831974fc" d="M 0 0 
L 0 3.5 
" style="stroke: #000000; stroke-width: 0.8"/>
      </defs>
      <g>
       <use xlink:href="#mb7831974fc" x="159.255273" y="293.76" style="stroke: #000000; stroke-width: 0.8"/>
      </g>
     </g>
     <g id="text_1">
      <!-- 20 -->
      <g transform="translate(146.530273 315.956875) scale(0.2 -0.2)">
       <defs>
        <path id="DejaVuSans-32" d="M 1228 531 
L 3431 531 
L 3431 0 
L 469 0 
L 469 531 
Q 828 903 1448 1529 
Q 2069 2156 2228 2338 
Q 2531 2678 2651 2914 
Q 2772 3150 2772 3378 
Q 2772 3750 2511 3984 
Q 2250 4219 1831 4219 
Q 1534 4219 1204 4116 
Q 875 4013 500 3803 
L 500 4441 
Q 881 4594 1212 4672 
Q 1544 4750 1819 4750 
Q 2544 4750 2975 4387 
Q 3406 4025 3406 3419 
Q 3406 3131 3298 2873 
Q 3191 2616 2906 2266 
Q 2828 2175 2409 1742 
Q 1991 1309 1228 531 
z
" transform="scale(0.015625)"/>
        <path id="DejaVuSans-30" d="M 2034 4250 
Q 1547 4250 1301 3770 
Q 1056 3291 1056 2328 
Q 1056 1369 1301 889 
Q 1547 409 2034 409 
Q 2525 409 2770 889 
Q 3016 1369 3016 2328 
Q 3016 3291 2770 3770 
Q 2525 4250 2034 4250 
z
M 2034 4750 
Q 2819 4750 3233 4129 
Q 3647 3509 3647 2328 
Q 3647 1150 3233 529 
Q 2819 -91 2034 -91 
Q 1250 -91 836 529 
Q 422 1150 422 2328 
Q 422 3509 836 4129 
Q 1250 4750 2034 4750 
z
" transform="scale(0.015625)"/>
       </defs>
       <use xlink:href="#DejaVuSans-32"/>
       <use xlink:href="#DejaVuSans-30" x="63.623047"/>
      </g>
     </g>
    </g>
    <g id="xtick_2">
     <g id="line2d_3">
      <path d="M 232.797091 293.76 
L 232.797091 6.912 
" clip-path="url(#p432fcc53f5)" style="fill: none; stroke: #b0b0b0; stroke-width: 0.8; stroke-linecap: square"/>
     </g>
     <g id="line2d_4">
      <g>
       <use xlink:href="#mb7831974fc" x="232.797091" y="293.76" style="stroke: #000000; stroke-width: 0.8"/>
      </g>
     </g>
     <g id="text_2">
      <!-- 40 -->
      <g transform="translate(220.072091 315.956875) scale(0.2 -0.2)">
       <defs>
        <path id="DejaVuSans-34" d="M 2419 4116 
L 825 1625 
L 2419 1625 
L 2419 4116 
z
M 2253 4666 
L 3047 4666 
L 3047 1625 
L 3713 1625 
L 3713 1100 
L 3047 1100 
L 3047 0 
L 2419 0 
L 2419 1100 
L 313 1100 
L 313 1709 
L 2253 4666 
z
" transform="scale(0.015625)"/>
       </defs>
       <use xlink:href="#DejaVuSans-34"/>
       <use xlink:href="#DejaVuSans-30" x="63.623047"/>
      </g>
     </g>
    </g>
    <g id="xtick_3">
     <g id="line2d_5">
      <path d="M 306.338909 293.76 
L 306.338909 6.912 
" clip-path="url(#p432fcc53f5)" style="fill: none; stroke: #b0b0b0; stroke-width: 0.8; stroke-linecap: square"/>
     </g>
     <g id="line2d_6">
      <g>
       <use xlink:href="#mb7831974fc" x="306.338909" y="293.76" style="stroke: #000000; stroke-width: 0.8"/>
      </g>
     </g>
     <g id="text_3">
      <!-- 60 -->
      <g transform="translate(293.613909 315.956875) scale(0.2 -0.2)">
       <defs>
        <path id="DejaVuSans-36" d="M 2113 2584 
Q 1688 2584 1439 2293 
Q 1191 2003 1191 1497 
Q 1191 994 1439 701 
Q 1688 409 2113 409 
Q 2538 409 2786 701 
Q 3034 994 3034 1497 
Q 3034 2003 2786 2293 
Q 2538 2584 2113 2584 
z
M 3366 4563 
L 3366 3988 
Q 3128 4100 2886 4159 
Q 2644 4219 2406 4219 
Q 1781 4219 1451 3797 
Q 1122 3375 1075 2522 
Q 1259 2794 1537 2939 
Q 1816 3084 2150 3084 
Q 2853 3084 3261 2657 
Q 3669 2231 3669 1497 
Q 3669 778 3244 343 
Q 2819 -91 2113 -91 
Q 1303 -91 875 529 
Q 447 1150 447 2328 
Q 447 3434 972 4092 
Q 1497 4750 2381 4750 
Q 2619 4750 2861 4703 
Q 3103 4656 3366 4563 
z
" transform="scale(0.015625)"/>
       </defs>
       <use xlink:href="#DejaVuSans-36"/>
       <use xlink:href="#DejaVuSans-30" x="63.623047"/>
      </g>
     </g>
    </g>
    <g id="xtick_4">
     <g id="line2d_7">
      <path d="M 379.880727 293.76 
L 379.880727 6.912 
" clip-path="url(#p432fcc53f5)" style="fill: none; stroke: #b0b0b0; stroke-width: 0.8; stroke-linecap: square"/>
     </g>
     <g id="line2d_8">
      <g>
       <use xlink:href="#mb7831974fc" x="379.880727" y="293.76" style="stroke: #000000; stroke-width: 0.8"/>
      </g>
     </g>
     <g id="text_4">
      <!-- 80 -->
      <g transform="translate(367.155727 315.956875) scale(0.2 -0.2)">
       <defs>
        <path id="DejaVuSans-38" d="M 2034 2216 
Q 1584 2216 1326 1975 
Q 1069 1734 1069 1313 
Q 1069 891 1326 650 
Q 1584 409 2034 409 
Q 2484 409 2743 651 
Q 3003 894 3003 1313 
Q 3003 1734 2745 1975 
Q 2488 2216 2034 2216 
z
M 1403 2484 
Q 997 2584 770 2862 
Q 544 3141 544 3541 
Q 544 4100 942 4425 
Q 1341 4750 2034 4750 
Q 2731 4750 3128 4425 
Q 3525 4100 3525 3541 
Q 3525 3141 3298 2862 
Q 3072 2584 2669 2484 
Q 3125 2378 3379 2068 
Q 3634 1759 3634 1313 
Q 3634 634 3220 271 
Q 2806 -91 2034 -91 
Q 1263 -91 848 271 
Q 434 634 434 1313 
Q 434 1759 690 2068 
Q 947 2378 1403 2484 
z
M 1172 3481 
Q 1172 3119 1398 2916 
Q 1625 2713 2034 2713 
Q 2441 2713 2670 2916 
Q 2900 3119 2900 3481 
Q 2900 3844 2670 4047 
Q 2441 4250 2034 4250 
Q 1625 4250 1398 4047 
Q 1172 3844 1172 3481 
z
" transform="scale(0.015625)"/>
       </defs>
       <use xlink:href="#DejaVuSans-38"/>
       <use xlink:href="#DejaVuSans-30" x="63.623047"/>
      </g>
     </g>
    </g>
    <g id="text_5">
     <!-- batch iteration -->
     <g transform="translate(203.277375 337.793437) scale(0.18 -0.18)">
      <defs>
       <path id="DejaVuSans-62" d="M 3116 1747 
Q 3116 2381 2855 2742 
Q 2594 3103 2138 3103 
Q 1681 3103 1420 2742 
Q 1159 2381 1159 1747 
Q 1159 1113 1420 752 
Q 1681 391 2138 391 
Q 2594 391 2855 752 
Q 3116 1113 3116 1747 
z
M 1159 2969 
Q 1341 3281 1617 3432 
Q 1894 3584 2278 3584 
Q 2916 3584 3314 3078 
Q 3713 2572 3713 1747 
Q 3713 922 3314 415 
Q 2916 -91 2278 -91 
Q 1894 -91 1617 61 
Q 1341 213 1159 525 
L 1159 0 
L 581 0 
L 581 4863 
L 1159 4863 
L 1159 2969 
z
" transform="scale(0.015625)"/>
       <path id="DejaVuSans-61" d="M 2194 1759 
Q 1497 1759 1228 1600 
Q 959 1441 959 1056 
Q 959 750 1161 570 
Q 1363 391 1709 391 
Q 2188 391 2477 730 
Q 2766 1069 2766 1631 
L 2766 1759 
L 2194 1759 
z
M 3341 1997 
L 3341 0 
L 2766 0 
L 2766 531 
Q 2569 213 2275 61 
Q 1981 -91 1556 -91 
Q 1019 -91 701 211 
Q 384 513 384 1019 
Q 384 1609 779 1909 
Q 1175 2209 1959 2209 
L 2766 2209 
L 2766 2266 
Q 2766 2663 2505 2880 
Q 2244 3097 1772 3097 
Q 1472 3097 1187 3025 
Q 903 2953 641 2809 
L 641 3341 
Q 956 3463 1253 3523 
Q 1550 3584 1831 3584 
Q 2591 3584 2966 3190 
Q 3341 2797 3341 1997 
z
" transform="scale(0.015625)"/>
       <path id="DejaVuSans-74" d="M 1172 4494 
L 1172 3500 
L 2356 3500 
L 2356 3053 
L 1172 3053 
L 1172 1153 
Q 1172 725 1289 603 
Q 1406 481 1766 481 
L 2356 481 
L 2356 0 
L 1766 0 
Q 1100 0 847 248 
Q 594 497 594 1153 
L 594 3053 
L 172 3053 
L 172 3500 
L 594 3500 
L 594 4494 
L 1172 4494 
z
" transform="scale(0.015625)"/>
       <path id="DejaVuSans-63" d="M 3122 3366 
L 3122 2828 
Q 2878 2963 2633 3030 
Q 2388 3097 2138 3097 
Q 1578 3097 1268 2742 
Q 959 2388 959 1747 
Q 959 1106 1268 751 
Q 1578 397 2138 397 
Q 2388 397 2633 464 
Q 2878 531 3122 666 
L 3122 134 
Q 2881 22 2623 -34 
Q 2366 -91 2075 -91 
Q 1284 -91 818 406 
Q 353 903 353 1747 
Q 353 2603 823 3093 
Q 1294 3584 2113 3584 
Q 2378 3584 2631 3529 
Q 2884 3475 3122 3366 
z
" transform="scale(0.015625)"/>
       <path id="DejaVuSans-68" d="M 3513 2113 
L 3513 0 
L 2938 0 
L 2938 2094 
Q 2938 2591 2744 2837 
Q 2550 3084 2163 3084 
Q 1697 3084 1428 2787 
Q 1159 2491 1159 1978 
L 1159 0 
L 581 0 
L 581 4863 
L 1159 4863 
L 1159 2956 
Q 1366 3272 1645 3428 
Q 1925 3584 2291 3584 
Q 2894 3584 3203 3211 
Q 3513 2838 3513 2113 
z
" transform="scale(0.015625)"/>
       <path id="DejaVuSans-20" transform="scale(0.015625)"/>
       <path id="DejaVuSans-69" d="M 603 3500 
L 1178 3500 
L 1178 0 
L 603 0 
L 603 3500 
z
M 603 4863 
L 1178 4863 
L 1178 4134 
L 603 4134 
L 603 4863 
z
" transform="scale(0.015625)"/>
       <path id="DejaVuSans-65" d="M 3597 1894 
L 3597 1613 
L 953 1613 
Q 991 1019 1311 708 
Q 1631 397 2203 397 
Q 2534 397 2845 478 
Q 3156 559 3463 722 
L 3463 178 
Q 3153 47 2828 -22 
Q 2503 -91 2169 -91 
Q 1331 -91 842 396 
Q 353 884 353 1716 
Q 353 2575 817 3079 
Q 1281 3584 2069 3584 
Q 2775 3584 3186 3129 
Q 3597 2675 3597 1894 
z
M 3022 2063 
Q 3016 2534 2758 2815 
Q 2500 3097 2075 3097 
Q 1594 3097 1305 2825 
Q 1016 2553 972 2059 
L 3022 2063 
z
" transform="scale(0.015625)"/>
       <path id="DejaVuSans-72" d="M 2631 2963 
Q 2534 3019 2420 3045 
Q 2306 3072 2169 3072 
Q 1681 3072 1420 2755 
Q 1159 2438 1159 1844 
L 1159 0 
L 581 0 
L 581 3500 
L 1159 3500 
L 1159 2956 
Q 1341 3275 1631 3429 
Q 1922 3584 2338 3584 
Q 2397 3584 2469 3576 
Q 2541 3569 2628 3553 
L 2631 2963 
z
" transform="scale(0.015625)"/>
       <path id="DejaVuSans-6f" d="M 1959 3097 
Q 1497 3097 1228 2736 
Q 959 2375 959 1747 
Q 959 1119 1226 758 
Q 1494 397 1959 397 
Q 2419 397 2687 759 
Q 2956 1122 2956 1747 
Q 2956 2369 2687 2733 
Q 2419 3097 1959 3097 
z
M 1959 3584 
Q 2709 3584 3137 3096 
Q 3566 2609 3566 1747 
Q 3566 888 3137 398 
Q 2709 -91 1959 -91 
Q 1206 -91 779 398 
Q 353 888 353 1747 
Q 353 2609 779 3096 
Q 1206 3584 1959 3584 
z
" transform="scale(0.015625)"/>
       <path id="DejaVuSans-6e" d="M 3513 2113 
L 3513 0 
L 2938 0 
L 2938 2094 
Q 2938 2591 2744 2837 
Q 2550 3084 2163 3084 
Q 1697 3084 1428 2787 
Q 1159 2491 1159 1978 
L 1159 0 
L 581 0 
L 581 3500 
L 1159 3500 
L 1159 2956 
Q 1366 3272 1645 3428 
Q 1925 3584 2291 3584 
Q 2894 3584 3203 3211 
Q 3513 2838 3513 2113 
z
" transform="scale(0.015625)"/>
      </defs>
      <use xlink:href="#DejaVuSans-62"/>
      <use xlink:href="#DejaVuSans-61" x="63.476562"/>
      <use xlink:href="#DejaVuSans-74" x="124.755859"/>
      <use xlink:href="#DejaVuSans-63" x="163.964844"/>
      <use xlink:href="#DejaVuSans-68" x="218.945312"/>
      <use xlink:href="#DejaVuSans-20" x="282.324219"/>
      <use xlink:href="#DejaVuSans-69" x="314.111328"/>
      <use xlink:href="#DejaVuSans-74" x="341.894531"/>
      <use xlink:href="#DejaVuSans-65" x="381.103516"/>
      <use xlink:href="#DejaVuSans-72" x="442.626953"/>
      <use xlink:href="#DejaVuSans-61" x="483.740234"/>
      <use xlink:href="#DejaVuSans-74" x="545.019531"/>
      <use xlink:href="#DejaVuSans-69" x="584.228516"/>
      <use xlink:href="#DejaVuSans-6f" x="612.011719"/>
      <use xlink:href="#DejaVuSans-6e" x="673.193359"/>
     </g>
    </g>
   </g>
   <g id="matplotlib.axis_2">
    <g id="ytick_1">
     <g id="line2d_9">
      <path d="M 87.552 293.76 
L 451.584 293.76 
" clip-path="url(#p432fcc53f5)" style="fill: none; stroke: #b0b0b0; stroke-width: 0.8; stroke-linecap: square"/>
     </g>
     <g id="line2d_10">
      <defs>
       <path id="m7540a8b3b9" d="M 0 0 
L -3.5 0 
" style="stroke: #000000; stroke-width: 0.8"/>
      </defs>
      <g>
       <use xlink:href="#m7540a8b3b9" x="87.552" y="293.76" style="stroke: #000000; stroke-width: 0.8"/>
      </g>
     </g>
     <g id="text_6">
      <!-- 0.000 -->
      <g transform="translate(23.29575 301.358437) scale(0.2 -0.2)">
       <defs>
        <path id="DejaVuSans-2e" d="M 684 794 
L 1344 794 
L 1344 0 
L 684 0 
L 684 794 
z
" transform="scale(0.015625)"/>
       </defs>
       <use xlink:href="#DejaVuSans-30"/>
       <use xlink:href="#DejaVuSans-2e" x="63.623047"/>
       <use xlink:href="#DejaVuSans-30" x="95.410156"/>
       <use xlink:href="#DejaVuSans-30" x="159.033203"/>
       <use xlink:href="#DejaVuSans-30" x="222.65625"/>
      </g>
     </g>
    </g>
    <g id="ytick_2">
     <g id="line2d_11">
      <path d="M 87.552 251.576471 
L 451.584 251.576471 
" clip-path="url(#p432fcc53f5)" style="fill: none; stroke: #b0b0b0; stroke-width: 0.8; stroke-linecap: square"/>
     </g>
     <g id="line2d_12">
      <g>
       <use xlink:href="#m7540a8b3b9" x="87.552" y="251.576471" style="stroke: #000000; stroke-width: 0.8"/>
      </g>
     </g>
     <g id="text_7">
      <!-- 0.025 -->
      <g transform="translate(23.29575 259.174908) scale(0.2 -0.2)">
       <defs>
        <path id="DejaVuSans-35" d="M 691 4666 
L 3169 4666 
L 3169 4134 
L 1269 4134 
L 1269 2991 
Q 1406 3038 1543 3061 
Q 1681 3084 1819 3084 
Q 2600 3084 3056 2656 
Q 3513 2228 3513 1497 
Q 3513 744 3044 326 
Q 2575 -91 1722 -91 
Q 1428 -91 1123 -41 
Q 819 9 494 109 
L 494 744 
Q 775 591 1075 516 
Q 1375 441 1709 441 
Q 2250 441 2565 725 
Q 2881 1009 2881 1497 
Q 2881 1984 2565 2268 
Q 2250 2553 1709 2553 
Q 1456 2553 1204 2497 
Q 953 2441 691 2322 
L 691 4666 
z
" transform="scale(0.015625)"/>
       </defs>
       <use xlink:href="#DejaVuSans-30"/>
       <use xlink:href="#DejaVuSans-2e" x="63.623047"/>
       <use xlink:href="#DejaVuSans-30" x="95.410156"/>
       <use xlink:href="#DejaVuSans-32" x="159.033203"/>
       <use xlink:href="#DejaVuSans-35" x="222.65625"/>
      </g>
     </g>
    </g>
    <g id="ytick_3">
     <g id="line2d_13">
      <path d="M 87.552 209.392941 
L 451.584 209.392941 
" clip-path="url(#p432fcc53f5)" style="fill: none; stroke: #b0b0b0; stroke-width: 0.8; stroke-linecap: square"/>
     </g>
     <g id="line2d_14">
      <g>
       <use xlink:href="#m7540a8b3b9" x="87.552" y="209.392941" style="stroke: #000000; stroke-width: 0.8"/>
      </g>
     </g>
     <g id="text_8">
      <!-- 0.050 -->
      <g transform="translate(23.29575 216.991379) scale(0.2 -0.2)">
       <use xlink:href="#DejaVuSans-30"/>
       <use xlink:href="#DejaVuSans-2e" x="63.623047"/>
       <use xlink:href="#DejaVuSans-30" x="95.410156"/>
       <use xlink:href="#DejaVuSans-35" x="159.033203"/>
       <use xlink:href="#DejaVuSans-30" x="222.65625"/>
      </g>
     </g>
    </g>
    <g id="ytick_4">
     <g id="line2d_15">
      <path d="M 87.552 167.209412 
L 451.584 167.209412 
" clip-path="url(#p432fcc53f5)" style="fill: none; stroke: #b0b0b0; stroke-width: 0.8; stroke-linecap: square"/>
     </g>
     <g id="line2d_16">
      <g>
       <use xlink:href="#m7540a8b3b9" x="87.552" y="167.209412" style="stroke: #000000; stroke-width: 0.8"/>
      </g>
     </g>
     <g id="text_9">
      <!-- 0.075 -->
      <g transform="translate(23.29575 174.807849) scale(0.2 -0.2)">
       <defs>
        <path id="DejaVuSans-37" d="M 525 4666 
L 3525 4666 
L 3525 4397 
L 1831 0 
L 1172 0 
L 2766 4134 
L 525 4134 
L 525 4666 
z
" transform="scale(0.015625)"/>
       </defs>
       <use xlink:href="#DejaVuSans-30"/>
       <use xlink:href="#DejaVuSans-2e" x="63.623047"/>
       <use xlink:href="#DejaVuSans-30" x="95.410156"/>
       <use xlink:href="#DejaVuSans-37" x="159.033203"/>
       <use xlink:href="#DejaVuSans-35" x="222.65625"/>
      </g>
     </g>
    </g>
    <g id="ytick_5">
     <g id="line2d_17">
      <path d="M 87.552 125.025882 
L 451.584 125.025882 
" clip-path="url(#p432fcc53f5)" style="fill: none; stroke: #b0b0b0; stroke-width: 0.8; stroke-linecap: square"/>
     </g>
     <g id="line2d_18">
      <g>
       <use xlink:href="#m7540a8b3b9" x="87.552" y="125.025882" style="stroke: #000000; stroke-width: 0.8"/>
      </g>
     </g>
     <g id="text_10">
      <!-- 0.100 -->
      <g transform="translate(23.29575 132.62432) scale(0.2 -0.2)">
       <defs>
        <path id="DejaVuSans-31" d="M 794 531 
L 1825 531 
L 1825 4091 
L 703 3866 
L 703 4441 
L 1819 4666 
L 2450 4666 
L 2450 531 
L 3481 531 
L 3481 0 
L 794 0 
L 794 531 
z
" transform="scale(0.015625)"/>
       </defs>
       <use xlink:href="#DejaVuSans-30"/>
       <use xlink:href="#DejaVuSans-2e" x="63.623047"/>
       <use xlink:href="#DejaVuSans-31" x="95.410156"/>
       <use xlink:href="#DejaVuSans-30" x="159.033203"/>
       <use xlink:href="#DejaVuSans-30" x="222.65625"/>
      </g>
     </g>
    </g>
    <g id="ytick_6">
     <g id="line2d_19">
      <path d="M 87.552 82.842353 
L 451.584 82.842353 
" clip-path="url(#p432fcc53f5)" style="fill: none; stroke: #b0b0b0; stroke-width: 0.8; stroke-linecap: square"/>
     </g>
     <g id="line2d_20">
      <g>
       <use xlink:href="#m7540a8b3b9" x="87.552" y="82.842353" style="stroke: #000000; stroke-width: 0.8"/>
      </g>
     </g>
     <g id="text_11">
      <!-- 0.125 -->
      <g transform="translate(23.29575 90.44079) scale(0.2 -0.2)">
       <use xlink:href="#DejaVuSans-30"/>
       <use xlink:href="#DejaVuSans-2e" x="63.623047"/>
       <use xlink:href="#DejaVuSans-31" x="95.410156"/>
       <use xlink:href="#DejaVuSans-32" x="159.033203"/>
       <use xlink:href="#DejaVuSans-35" x="222.65625"/>
      </g>
     </g>
    </g>
    <g id="ytick_7">
     <g id="line2d_21">
      <path d="M 87.552 40.658824 
L 451.584 40.658824 
" clip-path="url(#p432fcc53f5)" style="fill: none; stroke: #b0b0b0; stroke-width: 0.8; stroke-linecap: square"/>
     </g>
     <g id="line2d_22">
      <g>
       <use xlink:href="#m7540a8b3b9" x="87.552" y="40.658824" style="stroke: #000000; stroke-width: 0.8"/>
      </g>
     </g>
     <g id="text_12">
      <!-- 0.150 -->
      <g transform="translate(23.29575 48.257261) scale(0.2 -0.2)">
       <use xlink:href="#DejaVuSans-30"/>
       <use xlink:href="#DejaVuSans-2e" x="63.623047"/>
       <use xlink:href="#DejaVuSans-31" x="95.410156"/>
       <use xlink:href="#DejaVuSans-35" x="159.033203"/>
       <use xlink:href="#DejaVuSans-30" x="222.65625"/>
      </g>
     </g>
    </g>
    <g id="text_13">
     <!-- time[s] -->
     <g transform="translate(15.552313 182.380219) rotate(-90) scale(0.18 -0.18)">
      <defs>
       <path id="DejaVuSans-6d" d="M 3328 2828 
Q 3544 3216 3844 3400 
Q 4144 3584 4550 3584 
Q 5097 3584 5394 3201 
Q 5691 2819 5691 2113 
L 5691 0 
L 5113 0 
L 5113 2094 
Q 5113 2597 4934 2840 
Q 4756 3084 4391 3084 
Q 3944 3084 3684 2787 
Q 3425 2491 3425 1978 
L 3425 0 
L 2847 0 
L 2847 2094 
Q 2847 2600 2669 2842 
Q 2491 3084 2119 3084 
Q 1678 3084 1418 2786 
Q 1159 2488 1159 1978 
L 1159 0 
L 581 0 
L 581 3500 
L 1159 3500 
L 1159 2956 
Q 1356 3278 1631 3431 
Q 1906 3584 2284 3584 
Q 2666 3584 2933 3390 
Q 3200 3197 3328 2828 
z
" transform="scale(0.015625)"/>
       <path id="DejaVuSans-5b" d="M 550 4863 
L 1875 4863 
L 1875 4416 
L 1125 4416 
L 1125 -397 
L 1875 -397 
L 1875 -844 
L 550 -844 
L 550 4863 
z
" transform="scale(0.015625)"/>
       <path id="DejaVuSans-73" d="M 2834 3397 
L 2834 2853 
Q 2591 2978 2328 3040 
Q 2066 3103 1784 3103 
Q 1356 3103 1142 2972 
Q 928 2841 928 2578 
Q 928 2378 1081 2264 
Q 1234 2150 1697 2047 
L 1894 2003 
Q 2506 1872 2764 1633 
Q 3022 1394 3022 966 
Q 3022 478 2636 193 
Q 2250 -91 1575 -91 
Q 1294 -91 989 -36 
Q 684 19 347 128 
L 347 722 
Q 666 556 975 473 
Q 1284 391 1588 391 
Q 1994 391 2212 530 
Q 2431 669 2431 922 
Q 2431 1156 2273 1281 
Q 2116 1406 1581 1522 
L 1381 1569 
Q 847 1681 609 1914 
Q 372 2147 372 2553 
Q 372 3047 722 3315 
Q 1072 3584 1716 3584 
Q 2034 3584 2315 3537 
Q 2597 3491 2834 3397 
z
" transform="scale(0.015625)"/>
       <path id="DejaVuSans-5d" d="M 1947 4863 
L 1947 -844 
L 622 -844 
L 622 -397 
L 1369 -397 
L 1369 4416 
L 622 4416 
L 622 4863 
L 1947 4863 
z
" transform="scale(0.015625)"/>
      </defs>
      <use xlink:href="#DejaVuSans-74"/>
      <use xlink:href="#DejaVuSans-69" x="39.208984"/>
      <use xlink:href="#DejaVuSans-6d" x="66.992188"/>
      <use xlink:href="#DejaVuSans-65" x="164.404297"/>
      <use xlink:href="#DejaVuSans-5b" x="225.927734"/>
      <use xlink:href="#DejaVuSans-73" x="264.941406"/>
      <use xlink:href="#DejaVuSans-5d" x="317.041016"/>
     </g>
    </g>
   </g>
   <g id="patch_399">
    <path d="M 87.552 293.76 
L 87.552 6.912 
" style="fill: none; stroke: #000000; stroke-width: 0.8; stroke-linejoin: miter; stroke-linecap: square"/>
   </g>
   <g id="patch_400">
    <path d="M 451.584 293.76 
L 451.584 6.912 
" style="fill: none; stroke: #000000; stroke-width: 0.8; stroke-linejoin: miter; stroke-linecap: square"/>
   </g>
   <g id="patch_401">
    <path d="M 87.552 293.76 
L 451.584 293.76 
" style="fill: none; stroke: #000000; stroke-width: 0.8; stroke-linejoin: miter; stroke-linecap: square"/>
   </g>
   <g id="patch_402">
    <path d="M 87.552 6.912 
L 451.584 6.912 
" style="fill: none; stroke: #000000; stroke-width: 0.8; stroke-linejoin: miter; stroke-linecap: square"/>
   </g>
  </g>
 </g>
 <defs>
  <clipPath id="p432fcc53f5">
   <rect x="87.552" y="6.912" width="364.032" height="286.848"/>
  </clipPath>
 </defs>
</svg>
