<?xml version="1.0" encoding="utf-8" standalone="no"?>
<!DOCTYPE svg PUBLIC "-//W3C//DTD SVG 1.1//EN"
  "http://www.w3.org/Graphics/SVG/1.1/DTD/svg11.dtd">
<svg xmlns:xlink="http://www.w3.org/1999/xlink" width="460.8pt" height="345.6pt" viewBox="0 0 460.8 345.6" xmlns="http://www.w3.org/2000/svg" version="1.1">
 <metadata>
  <rdf:RDF xmlns:dc="http://purl.org/dc/elements/1.1/" xmlns:cc="http://creativecommons.org/ns#" xmlns:rdf="http://www.w3.org/1999/02/22-rdf-syntax-ns#">
   <cc:Work>
    <dc:type rdf:resource="http://purl.org/dc/dcmitype/StillImage"/>
    <dc:date>2024-02-14T09:04:03.263135</dc:date>
    <dc:format>image/svg+xml</dc:format>
    <dc:creator>
     <cc:Agent>
      <dc:title>Matplotlib v3.7.0, https://matplotlib.org/</dc:title>
     </cc:Agent>
    </dc:creator>
   </cc:Work>
  </rdf:RDF>
 </metadata>
 <defs>
  <style type="text/css">*{stroke-linejoin: round; stroke-linecap: butt}</style>
 </defs>
 <g id="figure_1">
  <g id="patch_1">
   <path d="M 0 345.6 
L 460.8 345.6 
L 460.8 0 
L 0 0 
L 0 345.6 
z
" style="fill: none"/>
  </g>
  <g id="axes_1">
   <g id="patch_2">
    <path d="M 87.552 293.76 
L 451.584 293.76 
L 451.584 6.912 
L 87.552 6.912 
L 87.552 293.76 
z
" style="fill: none"/>
   </g>
   <g id="patch_3">
    <path d="M 87.919709 247.543725 
L 90.861382 247.543725 
L 90.861382 223.330379 
L 87.919709 223.330379 
z
" clip-path="url(#pc76c7d4a44)" style="fill: #800000"/>
   </g>
   <g id="patch_4">
    <path d="M 91.5968 246.581941 
L 94.538473 246.581941 
L 94.538473 216.395407 
L 91.5968 216.395407 
z
" clip-path="url(#pc76c7d4a44)" style="fill: #800000"/>
   </g>
   <g id="patch_5">
    <path d="M 95.273891 246.193852 
L 98.215564 246.193852 
L 98.215564 223.077278 
L 95.273891 223.077278 
z
" clip-path="url(#pc76c7d4a44)" style="fill: #800000"/>
   </g>
   <g id="patch_6">
    <path d="M 98.950982 237.318438 
L 101.892655 237.318438 
L 101.892655 199.302641 
L 98.950982 199.302641 
z
" clip-path="url(#pc76c7d4a44)" style="fill: #800000"/>
   </g>
   <g id="patch_7">
    <path d="M 102.628073 245.113954 
L 105.569745 245.113954 
L 105.569745 215.045534 
L 102.628073 215.045534 
z
" clip-path="url(#pc76c7d4a44)" style="fill: #800000"/>
   </g>
   <g id="patch_8">
    <path d="M 106.305164 246.058865 
L 109.246836 246.058865 
L 109.246836 215.433623 
L 106.305164 215.433623 
z
" clip-path="url(#pc76c7d4a44)" style="fill: #800000"/>
   </g>
   <g id="patch_9">
    <path d="M 109.982255 246.565067 
L 112.923927 246.565067 
L 112.923927 224.697126 
L 109.982255 224.697126 
z
" clip-path="url(#pc76c7d4a44)" style="fill: #800000"/>
   </g>
   <g id="patch_10">
    <path d="M 113.659345 246.193852 
L 116.601018 246.193852 
L 116.601018 214.741813 
L 113.659345 214.741813 
z
" clip-path="url(#pc76c7d4a44)" style="fill: #800000"/>
   </g>
   <g id="patch_11">
    <path d="M 117.336436 247.07127 
L 120.278109 247.07127 
L 120.278109 213.661914 
L 117.336436 213.661914 
z
" clip-path="url(#pc76c7d4a44)" style="fill: #800000"/>
   </g>
   <g id="patch_12">
    <path d="M 121.013527 249.34918 
L 123.9552 249.34918 
L 123.9552 219.719469 
L 121.013527 219.719469 
z
" clip-path="url(#pc76c7d4a44)" style="fill: #800000"/>
   </g>
   <g id="patch_13">
    <path d="M 124.690618 247.256877 
L 127.632291 247.256877 
L 127.632291 216.682255 
L 124.690618 216.682255 
z
" clip-path="url(#pc76c7d4a44)" style="fill: #800000"/>
   </g>
   <g id="patch_14">
    <path d="M 128.367709 247.206257 
L 131.309382 247.206257 
L 131.309382 216.749749 
L 128.367709 216.749749 
z
" clip-path="url(#pc76c7d4a44)" style="fill: #800000"/>
   </g>
   <g id="patch_15">
    <path d="M 132.0448 246.362586 
L 134.986473 246.362586 
L 134.986473 213.105092 
L 132.0448 213.105092 
z
" clip-path="url(#pc76c7d4a44)" style="fill: #800000"/>
   </g>
   <g id="patch_16">
    <path d="M 135.721891 249.568535 
L 138.663564 249.568535 
L 138.663564 221.322443 
L 135.721891 221.322443 
z
" clip-path="url(#pc76c7d4a44)" style="fill: #800000"/>
   </g>
   <g id="patch_17">
    <path d="M 139.398982 250.817167 
L 142.340655 250.817167 
L 142.340655 222.621696 
L 139.398982 222.621696 
z
" clip-path="url(#pc76c7d4a44)" style="fill: #800000"/>
   </g>
   <g id="patch_18">
    <path d="M 143.076073 248.691117 
L 146.017745 248.691117 
L 146.017745 226.435087 
L 143.076073 226.435087 
z
" clip-path="url(#pc76c7d4a44)" style="fill: #800000"/>
   </g>
   <g id="patch_19">
    <path d="M 146.753164 245.839511 
L 149.694836 245.839511 
L 149.694836 222.419215 
L 146.753164 222.419215 
z
" clip-path="url(#pc76c7d4a44)" style="fill: #800000"/>
   </g>
   <g id="patch_20">
    <path d="M 150.430255 249.93975 
L 153.371927 249.93975 
L 153.371927 228.240542 
L 150.430255 228.240542 
z
" clip-path="url(#pc76c7d4a44)" style="fill: #800000"/>
   </g>
   <g id="patch_21">
    <path d="M 154.107345 250.918408 
L 157.049018 250.918408 
L 157.049018 224.22467 
L 154.107345 224.22467 
z
" clip-path="url(#pc76c7d4a44)" style="fill: #800000"/>
   </g>
   <g id="patch_22">
    <path d="M 157.784436 243.409739 
L 160.726109 243.409739 
L 160.726109 215.906078 
L 157.784436 215.906078 
z
" clip-path="url(#pc76c7d4a44)" style="fill: #800000"/>
   </g>
   <g id="patch_23">
    <path d="M 161.461527 251.745205 
L 164.4032 251.745205 
L 164.4032 229.809769 
L 161.461527 229.809769 
z
" clip-path="url(#pc76c7d4a44)" style="fill: #800000"/>
   </g>
   <g id="patch_24">
    <path d="M 165.138618 244.928346 
L 168.080291 244.928346 
L 168.080291 219.786963 
L 165.138618 219.786963 
z
" clip-path="url(#pc76c7d4a44)" style="fill: #800000"/>
   </g>
   <g id="patch_25">
    <path d="M 168.815709 250.969028 
L 171.757382 250.969028 
L 171.757382 228.409276 
L 168.815709 228.409276 
z
" clip-path="url(#pc76c7d4a44)" style="fill: #800000"/>
   </g>
   <g id="patch_26">
    <path d="M 172.4928 251.171509 
L 175.434473 251.171509 
L 175.434473 231.193389 
L 172.4928 231.193389 
z
" clip-path="url(#pc76c7d4a44)" style="fill: #800000"/>
   </g>
   <g id="patch_27">
    <path d="M 176.169891 245.78889 
L 179.111564 245.78889 
L 179.111564 219.888203 
L 176.169891 219.888203 
z
" clip-path="url(#pc76c7d4a44)" style="fill: #800000"/>
   </g>
   <g id="patch_28">
    <path d="M 179.846982 244.050929 
L 182.788655 244.050929 
L 182.788655 216.648508 
L 179.846982 216.648508 
z
" clip-path="url(#pc76c7d4a44)" style="fill: #800000"/>
   </g>
   <g id="patch_29">
    <path d="M 183.524073 252.90947 
L 186.465745 252.90947 
L 186.465745 231.480237 
L 183.524073 231.480237 
z
" clip-path="url(#pc76c7d4a44)" style="fill: #800000"/>
   </g>
   <g id="patch_30">
    <path d="M 187.201164 248.977965 
L 190.142836 248.977965 
L 190.142836 222.402342 
L 187.201164 222.402342 
z
" clip-path="url(#pc76c7d4a44)" style="fill: #800000"/>
   </g>
   <g id="patch_31">
    <path d="M 190.878255 244.101549 
L 193.819927 244.101549 
L 193.819927 219.82071 
L 190.878255 219.82071 
z
" clip-path="url(#pc76c7d4a44)" style="fill: #800000"/>
   </g>
   <g id="patch_32">
    <path d="M 194.555345 251.660838 
L 197.497018 251.660838 
L 197.497018 229.657909 
L 194.555345 229.657909 
z
" clip-path="url(#pc76c7d4a44)" style="fill: #800000"/>
   </g>
   <g id="patch_33">
    <path d="M 198.232436 250.277218 
L 201.174109 250.277218 
L 201.174109 227.869327 
L 198.232436 227.869327 
z
" clip-path="url(#pc76c7d4a44)" style="fill: #800000"/>
   </g>
   <g id="patch_34">
    <path d="M 201.909527 246.160105 
L 204.8512 246.160105 
L 204.8512 218.842052 
L 201.909527 218.842052 
z
" clip-path="url(#pc76c7d4a44)" style="fill: #800000"/>
   </g>
   <g id="patch_35">
    <path d="M 205.586618 247.695586 
L 208.528291 247.695586 
L 208.528291 224.325911 
L 205.586618 224.325911 
z
" clip-path="url(#pc76c7d4a44)" style="fill: #800000"/>
   </g>
   <g id="patch_36">
    <path d="M 209.263709 249.028585 
L 212.205382 249.028585 
L 212.205382 226.367593 
L 209.263709 226.367593 
z
" clip-path="url(#pc76c7d4a44)" style="fill: #800000"/>
   </g>
   <g id="patch_37">
    <path d="M 212.9408 248.589877 
L 215.882473 248.589877 
L 215.882473 221.99738 
L 212.9408 221.99738 
z
" clip-path="url(#pc76c7d4a44)" style="fill: #800000"/>
   </g>
   <g id="patch_38">
    <path d="M 216.617891 247.644966 
L 219.559564 247.644966 
L 219.559564 220.833114 
L 216.617891 220.833114 
z
" clip-path="url(#pc76c7d4a44)" style="fill: #800000"/>
   </g>
   <g id="patch_39">
    <path d="M 220.294982 251.390863 
L 223.236655 251.390863 
L 223.236655 228.780491 
L 220.294982 228.780491 
z
" clip-path="url(#pc76c7d4a44)" style="fill: #800000"/>
   </g>
   <g id="patch_40">
    <path d="M 223.972073 245.957624 
L 226.913745 245.957624 
L 226.913745 218.690191 
L 223.972073 218.690191 
z
" clip-path="url(#pc76c7d4a44)" style="fill: #800000"/>
   </g>
   <g id="patch_41">
    <path d="M 227.649164 243.46036 
L 230.590836 243.46036 
L 230.590836 217.137837 
L 227.649164 217.137837 
z
" clip-path="url(#pc76c7d4a44)" style="fill: #800000"/>
   </g>
   <g id="patch_42">
    <path d="M 231.326255 251.458357 
L 234.267927 251.458357 
L 234.267927 228.864858 
L 231.326255 228.864858 
z
" clip-path="url(#pc76c7d4a44)" style="fill: #800000"/>
   </g>
   <g id="patch_43">
    <path d="M 235.003345 250.294091 
L 237.945018 250.294091 
L 237.945018 227.768087 
L 235.003345 227.768087 
z
" clip-path="url(#pc76c7d4a44)" style="fill: #800000"/>
   </g>
   <g id="patch_44">
    <path d="M 238.680436 243.291625 
L 241.622109 243.291625 
L 241.622109 216.985976 
L 238.680436 216.985976 
z
" clip-path="url(#pc76c7d4a44)" style="fill: #800000"/>
   </g>
   <g id="patch_45">
    <path d="M 242.357527 247.459358 
L 245.2992 247.459358 
L 245.2992 223.161645 
L 242.357527 223.161645 
z
" clip-path="url(#pc76c7d4a44)" style="fill: #800000"/>
   </g>
   <g id="patch_46">
    <path d="M 246.034618 246.143232 
L 248.976291 246.143232 
L 248.976291 219.702596 
L 246.034618 219.702596 
z
" clip-path="url(#pc76c7d4a44)" style="fill: #800000"/>
   </g>
   <g id="patch_47">
    <path d="M 249.711709 244.624625 
L 252.653382 244.624625 
L 252.653382 214.97804 
L 249.711709 214.97804 
z
" clip-path="url(#pc76c7d4a44)" style="fill: #800000"/>
   </g>
   <g id="patch_48">
    <path d="M 253.3888 245.080207 
L 256.330473 245.080207 
L 256.330473 218.53833 
L 253.3888 218.53833 
z
" clip-path="url(#pc76c7d4a44)" style="fill: #800000"/>
   </g>
   <g id="patch_49">
    <path d="M 257.065891 251.677711 
L 260.007564 251.677711 
L 260.007564 228.594884 
L 257.065891 228.594884 
z
" clip-path="url(#pc76c7d4a44)" style="fill: #800000"/>
   </g>
   <g id="patch_50">
    <path d="M 260.742982 254.613685 
L 263.684655 254.613685 
L 263.684655 234.230603 
L 260.742982 234.230603 
z
" clip-path="url(#pc76c7d4a44)" style="fill: #800000"/>
   </g>
   <g id="patch_51">
    <path d="M 264.420073 233.842515 
L 267.361745 233.842515 
L 267.361745 207.671853 
L 264.420073 207.671853 
z
" clip-path="url(#pc76c7d4a44)" style="fill: #800000"/>
   </g>
   <g id="patch_52">
    <path d="M 268.097164 245.063334 
L 271.038836 245.063334 
L 271.038836 219.567608 
L 268.097164 219.567608 
z
" clip-path="url(#pc76c7d4a44)" style="fill: #800000"/>
   </g>
   <g id="patch_53">
    <path d="M 271.774255 250.024117 
L 274.715927 250.024117 
L 274.715927 226.671315 
L 271.774255 226.671315 
z
" clip-path="url(#pc76c7d4a44)" style="fill: #800000"/>
   </g>
   <g id="patch_54">
    <path d="M 275.451345 255.052393 
L 278.393018 255.052393 
L 278.393018 233.57254 
L 275.451345 233.57254 
z
" clip-path="url(#pc76c7d4a44)" style="fill: #800000"/>
   </g>
   <g id="patch_55">
    <path d="M 279.128436 246.092612 
L 282.070109 246.092612 
L 282.070109 220.107558 
L 279.128436 220.107558 
z
" clip-path="url(#pc76c7d4a44)" style="fill: #800000"/>
   </g>
   <g id="patch_56">
    <path d="M 282.805527 250.412205 
L 285.7472 250.412205 
L 285.7472 224.309037 
L 282.805527 224.309037 
z
" clip-path="url(#pc76c7d4a44)" style="fill: #800000"/>
   </g>
   <g id="patch_57">
    <path d="M 286.482618 247.290624 
L 289.424291 247.290624 
L 289.424291 221.862392 
L 286.482618 221.862392 
z
" clip-path="url(#pc76c7d4a44)" style="fill: #800000"/>
   </g>
   <g id="patch_58">
    <path d="M 290.159709 244.624625 
L 293.101382 244.624625 
L 293.101382 220.782494 
L 290.159709 220.782494 
z
" clip-path="url(#pc76c7d4a44)" style="fill: #800000"/>
   </g>
   <g id="patch_59">
    <path d="M 293.8368 247.358118 
L 296.778473 247.358118 
L 296.778473 223.330379 
L 293.8368 223.330379 
z
" clip-path="url(#pc76c7d4a44)" style="fill: #800000"/>
   </g>
   <g id="patch_60">
    <path d="M 297.513891 245.350182 
L 300.455564 245.350182 
L 300.455564 218.504584 
L 297.513891 218.504584 
z
" clip-path="url(#pc76c7d4a44)" style="fill: #800000"/>
   </g>
   <g id="patch_61">
    <path d="M 301.190982 251.593344 
L 304.132655 251.593344 
L 304.132655 230.569073 
L 301.190982 230.569073 
z
" clip-path="url(#pc76c7d4a44)" style="fill: #800000"/>
   </g>
   <g id="patch_62">
    <path d="M 304.868073 251.846445 
L 307.809745 251.846445 
L 307.809745 229.944757 
L 304.868073 229.944757 
z
" clip-path="url(#pc76c7d4a44)" style="fill: #800000"/>
   </g>
   <g id="patch_63">
    <path d="M 308.545164 246.986903 
L 311.486836 246.986903 
L 311.486836 221.592418 
L 308.545164 221.592418 
z
" clip-path="url(#pc76c7d4a44)" style="fill: #800000"/>
   </g>
   <g id="patch_64">
    <path d="M 312.222255 246.835042 
L 315.163927 246.835042 
L 315.163927 221.99738 
L 312.222255 221.99738 
z
" clip-path="url(#pc76c7d4a44)" style="fill: #800000"/>
   </g>
   <g id="patch_65">
    <path d="M 315.899345 246.750675 
L 318.841018 246.750675 
L 318.841018 223.043531 
L 315.899345 223.043531 
z
" clip-path="url(#pc76c7d4a44)" style="fill: #800000"/>
   </g>
   <g id="patch_66">
    <path d="M 319.576436 250.530319 
L 322.518109 250.530319 
L 322.518109 228.763618 
L 319.576436 228.763618 
z
" clip-path="url(#pc76c7d4a44)" style="fill: #800000"/>
   </g>
   <g id="patch_67">
    <path d="M 323.253527 247.746206 
L 326.1952 247.746206 
L 326.1952 223.853455 
L 323.253527 223.853455 
z
" clip-path="url(#pc76c7d4a44)" style="fill: #800000"/>
   </g>
   <g id="patch_68">
    <path d="M 326.930618 245.147701 
L 329.872291 245.147701 
L 329.872291 219.027659 
L 326.930618 219.027659 
z
" clip-path="url(#pc76c7d4a44)" style="fill: #800000"/>
   </g>
   <g id="patch_69">
    <path d="M 330.607709 253.280685 
L 333.549382 253.280685 
L 333.549382 230.569073 
L 330.607709 230.569073 
z
" clip-path="url(#pc76c7d4a44)" style="fill: #800000"/>
   </g>
   <g id="patch_70">
    <path d="M 334.2848 250.294091 
L 337.226473 250.294091 
L 337.226473 227.396872 
L 334.2848 227.396872 
z
" clip-path="url(#pc76c7d4a44)" style="fill: #800000"/>
   </g>
   <g id="patch_71">
    <path d="M 337.961891 246.362586 
L 340.903564 246.362586 
L 340.903564 220.040064 
L 337.961891 220.040064 
z
" clip-path="url(#pc76c7d4a44)" style="fill: #800000"/>
   </g>
   <g id="patch_72">
    <path d="M 341.638982 246.885662 
L 344.580655 246.885662 
L 344.580655 221.153709 
L 341.638982 221.153709 
z
" clip-path="url(#pc76c7d4a44)" style="fill: #800000"/>
   </g>
   <g id="patch_73">
    <path d="M 345.316073 251.222129 
L 348.257745 251.222129 
L 348.257745 229.185453 
L 345.316073 229.185453 
z
" clip-path="url(#pc76c7d4a44)" style="fill: #800000"/>
   </g>
   <g id="patch_74">
    <path d="M 348.993164 246.53132 
L 351.934836 246.53132 
L 351.934836 219.719469 
L 348.993164 219.719469 
z
" clip-path="url(#pc76c7d4a44)" style="fill: #800000"/>
   </g>
   <g id="patch_75">
    <path d="M 352.670255 244.422144 
L 355.611927 244.422144 
L 355.611927 217.374065 
L 352.670255 217.374065 
z
" clip-path="url(#pc76c7d4a44)" style="fill: #800000"/>
   </g>
   <g id="patch_76">
    <path d="M 356.347345 245.383928 
L 359.289018 245.383928 
L 359.289018 219.348254 
L 356.347345 219.348254 
z
" clip-path="url(#pc76c7d4a44)" style="fill: #800000"/>
   </g>
   <g id="patch_77">
    <path d="M 360.024436 244.017182 
L 362.966109 244.017182 
L 362.966109 217.7959 
L 360.024436 217.7959 
z
" clip-path="url(#pc76c7d4a44)" style="fill: #800000"/>
   </g>
   <g id="patch_78">
    <path d="M 363.701527 246.176979 
L 366.6432 246.176979 
L 366.6432 221.609291 
L 363.701527 221.609291 
z
" clip-path="url(#pc76c7d4a44)" style="fill: #800000"/>
   </g>
   <g id="patch_79">
    <path d="M 367.378618 254.107482 
L 370.320291 254.107482 
L 370.320291 233.994376 
L 367.378618 233.994376 
z
" clip-path="url(#pc76c7d4a44)" style="fill: #800000"/>
   </g>
   <g id="patch_80">
    <path d="M 371.055709 251.340243 
L 373.997382 251.340243 
L 373.997382 225.068341 
L 371.055709 225.068341 
z
" clip-path="url(#pc76c7d4a44)" style="fill: #800000"/>
   </g>
   <g id="patch_81">
    <path d="M 374.7328 247.982434 
L 377.674473 247.982434 
L 377.674473 224.17405 
L 374.7328 224.17405 
z
" clip-path="url(#pc76c7d4a44)" style="fill: #800000"/>
   </g>
   <g id="patch_82">
    <path d="M 378.409891 252.420141 
L 381.351564 252.420141 
L 381.351564 230.974035 
L 378.409891 230.974035 
z
" clip-path="url(#pc76c7d4a44)" style="fill: #800000"/>
   </g>
   <g id="patch_83">
    <path d="M 382.086982 247.07127 
L 385.028655 247.07127 
L 385.028655 221.862392 
L 382.086982 221.862392 
z
" clip-path="url(#pc76c7d4a44)" style="fill: #800000"/>
   </g>
   <g id="patch_84">
    <path d="M 385.764073 246.227599 
L 388.705745 246.227599 
L 388.705745 220.56314 
L 385.764073 220.56314 
z
" clip-path="url(#pc76c7d4a44)" style="fill: #800000"/>
   </g>
   <g id="patch_85">
    <path d="M 389.441164 252.90947 
L 392.382836 252.90947 
L 392.382836 232.1383 
L 389.441164 232.1383 
z
" clip-path="url(#pc76c7d4a44)" style="fill: #800000"/>
   </g>
   <g id="patch_86">
    <path d="M 393.118255 252.588875 
L 396.059927 252.588875 
L 396.059927 231.463364 
L 393.118255 231.463364 
z
" clip-path="url(#pc76c7d4a44)" style="fill: #800000"/>
   </g>
   <g id="patch_87">
    <path d="M 396.795345 251.52585 
L 399.737018 251.52585 
L 399.737018 229.11796 
L 396.795345 229.11796 
z
" clip-path="url(#pc76c7d4a44)" style="fill: #800000"/>
   </g>
   <g id="patch_88">
    <path d="M 400.472436 247.189384 
L 403.414109 247.189384 
L 403.414109 221.339317 
L 400.472436 221.339317 
z
" clip-path="url(#pc76c7d4a44)" style="fill: #800000"/>
   </g>
   <g id="patch_89">
    <path d="M 404.149527 246.413207 
L 407.0912 246.413207 
L 407.0912 220.141304 
L 404.149527 220.141304 
z
" clip-path="url(#pc76c7d4a44)" style="fill: #800000"/>
   </g>
   <g id="patch_90">
    <path d="M 407.826618 251.795825 
L 410.768291 251.795825 
L 410.768291 229.944757 
L 407.826618 229.944757 
z
" clip-path="url(#pc76c7d4a44)" style="fill: #800000"/>
   </g>
   <g id="patch_91">
    <path d="M 411.503709 252.234534 
L 414.445382 252.234534 
L 414.445382 228.409276 
L 411.503709 228.409276 
z
" clip-path="url(#pc76c7d4a44)" style="fill: #800000"/>
   </g>
   <g id="patch_92">
    <path d="M 415.1808 251.981432 
L 418.122473 251.981432 
L 418.122473 228.696124 
L 415.1808 228.696124 
z
" clip-path="url(#pc76c7d4a44)" style="fill: #800000"/>
   </g>
   <g id="patch_93">
    <path d="M 418.857891 252.099546 
L 421.799564 252.099546 
L 421.799564 221.693658 
L 418.857891 221.693658 
z
" clip-path="url(#pc76c7d4a44)" style="fill: #800000"/>
   </g>
   <g id="patch_94">
    <path d="M 422.534982 254.006242 
L 425.476655 254.006242 
L 425.476655 225.827644 
L 422.534982 225.827644 
z
" clip-path="url(#pc76c7d4a44)" style="fill: #800000"/>
   </g>
   <g id="patch_95">
    <path d="M 426.212073 251.542724 
L 429.153745 251.542724 
L 429.153745 221.710532 
L 426.212073 221.710532 
z
" clip-path="url(#pc76c7d4a44)" style="fill: #800000"/>
   </g>
   <g id="patch_96">
    <path d="M 429.889164 253.331305 
L 432.830836 253.331305 
L 432.830836 224.579012 
L 429.889164 224.579012 
z
" clip-path="url(#pc76c7d4a44)" style="fill: #800000"/>
   </g>
   <g id="patch_97">
    <path d="M 433.566255 255.946684 
L 436.507927 255.946684 
L 436.507927 227.73434 
L 433.566255 227.73434 
z
" clip-path="url(#pc76c7d4a44)" style="fill: #800000"/>
   </g>
   <g id="patch_98">
    <path d="M 437.243345 255.794824 
L 440.185018 255.794824 
L 440.185018 227.481239 
L 437.243345 227.481239 
z
" clip-path="url(#pc76c7d4a44)" style="fill: #800000"/>
   </g>
   <g id="patch_99">
    <path d="M 440.920436 252.352648 
L 443.862109 252.352648 
L 443.862109 223.330379 
L 440.920436 223.330379 
z
" clip-path="url(#pc76c7d4a44)" style="fill: #800000"/>
   </g>
   <g id="patch_100">
    <path d="M 444.597527 254.461824 
L 447.5392 254.461824 
L 447.5392 226.637568 
L 444.597527 226.637568 
z
" clip-path="url(#pc76c7d4a44)" style="fill: #800000"/>
   </g>
   <g id="patch_101">
    <path d="M 448.274618 252.521382 
L 451.216291 252.521382 
L 451.216291 222.166114 
L 448.274618 222.166114 
z
" clip-path="url(#pc76c7d4a44)" style="fill: #800000"/>
   </g>
   <g id="patch_102">
    <path d="M 87.919709 278.77641 
L 90.861382 278.77641 
L 90.861382 247.543725 
L 87.919709 247.543725 
z
" clip-path="url(#pc76c7d4a44)" style="fill: #a52a2a"/>
   </g>
   <g id="patch_103">
    <path d="M 91.5968 280.699979 
L 94.538473 280.699979 
L 94.538473 246.581941 
L 91.5968 246.581941 
z
" clip-path="url(#pc76c7d4a44)" style="fill: #a52a2a"/>
   </g>
   <g id="patch_104">
    <path d="M 95.273891 280.05879 
L 98.215564 280.05879 
L 98.215564 246.193852 
L 95.273891 246.193852 
z
" clip-path="url(#pc76c7d4a44)" style="fill: #a52a2a"/>
   </g>
   <g id="patch_105">
    <path d="M 98.950982 279.687575 
L 101.892655 279.687575 
L 101.892655 237.318438 
L 98.950982 237.318438 
z
" clip-path="url(#pc76c7d4a44)" style="fill: #a52a2a"/>
   </g>
   <g id="patch_106">
    <path d="M 102.628073 277.98336 
L 105.569745 277.98336 
L 105.569745 245.113954 
L 102.628073 245.113954 
z
" clip-path="url(#pc76c7d4a44)" style="fill: #a52a2a"/>
   </g>
   <g id="patch_107">
    <path d="M 106.305164 280.666232 
L 109.246836 280.666232 
L 109.246836 246.058865 
L 106.305164 246.058865 
z
" clip-path="url(#pc76c7d4a44)" style="fill: #a52a2a"/>
   </g>
   <g id="patch_108">
    <path d="M 109.982255 280.497498 
L 112.923927 280.497498 
L 112.923927 246.565067 
L 109.982255 246.565067 
z
" clip-path="url(#pc76c7d4a44)" style="fill: #a52a2a"/>
   </g>
   <g id="patch_109">
    <path d="M 113.659345 281.796751 
L 116.601018 281.796751 
L 116.601018 246.193852 
L 113.659345 246.193852 
z
" clip-path="url(#pc76c7d4a44)" style="fill: #a52a2a"/>
   </g>
   <g id="patch_110">
    <path d="M 117.336436 281.290549 
L 120.278109 281.290549 
L 120.278109 247.07127 
L 117.336436 247.07127 
z
" clip-path="url(#pc76c7d4a44)" style="fill: #a52a2a"/>
   </g>
   <g id="patch_111">
    <path d="M 121.013527 281.358042 
L 123.9552 281.358042 
L 123.9552 249.34918 
L 121.013527 249.34918 
z
" clip-path="url(#pc76c7d4a44)" style="fill: #a52a2a"/>
   </g>
   <g id="patch_112">
    <path d="M 124.690618 281.239928 
L 127.632291 281.239928 
L 127.632291 247.256877 
L 124.690618 247.256877 
z
" clip-path="url(#pc76c7d4a44)" style="fill: #a52a2a"/>
   </g>
   <g id="patch_113">
    <path d="M 128.367709 281.695511 
L 131.309382 281.695511 
L 131.309382 247.206257 
L 128.367709 247.206257 
z
" clip-path="url(#pc76c7d4a44)" style="fill: #a52a2a"/>
   </g>
   <g id="patch_114">
    <path d="M 132.0448 281.290549 
L 134.986473 281.290549 
L 134.986473 246.362586 
L 132.0448 246.362586 
z
" clip-path="url(#pc76c7d4a44)" style="fill: #a52a2a"/>
   </g>
   <g id="patch_115">
    <path d="M 135.721891 282.269207 
L 138.663564 282.269207 
L 138.663564 249.568535 
L 135.721891 249.568535 
z
" clip-path="url(#pc76c7d4a44)" style="fill: #a52a2a"/>
   </g>
   <g id="patch_116">
    <path d="M 139.398982 281.779878 
L 142.340655 281.779878 
L 142.340655 250.817167 
L 139.398982 250.817167 
z
" clip-path="url(#pc76c7d4a44)" style="fill: #a52a2a"/>
   </g>
   <g id="patch_117">
    <path d="M 143.076073 282.589801 
L 146.017745 282.589801 
L 146.017745 248.691117 
L 143.076073 248.691117 
z
" clip-path="url(#pc76c7d4a44)" style="fill: #a52a2a"/>
   </g>
   <g id="patch_118">
    <path d="M 146.753164 281.813624 
L 149.694836 281.813624 
L 149.694836 245.839511 
L 146.753164 245.839511 
z
" clip-path="url(#pc76c7d4a44)" style="fill: #a52a2a"/>
   </g>
   <g id="patch_119">
    <path d="M 150.430255 282.016105 
L 153.371927 282.016105 
L 153.371927 249.93975 
L 150.430255 249.93975 
z
" clip-path="url(#pc76c7d4a44)" style="fill: #a52a2a"/>
   </g>
   <g id="patch_120">
    <path d="M 154.107345 283.264738 
L 157.049018 283.264738 
L 157.049018 250.918408 
L 154.107345 250.918408 
z
" clip-path="url(#pc76c7d4a44)" style="fill: #a52a2a"/>
   </g>
   <g id="patch_121">
    <path d="M 157.784436 283.517839 
L 160.726109 283.517839 
L 160.726109 243.409739 
L 157.784436 243.409739 
z
" clip-path="url(#pc76c7d4a44)" style="fill: #a52a2a"/>
   </g>
   <g id="patch_122">
    <path d="M 161.461527 282.792282 
L 164.4032 282.792282 
L 164.4032 251.745205 
L 161.461527 251.745205 
z
" clip-path="url(#pc76c7d4a44)" style="fill: #a52a2a"/>
   </g>
   <g id="patch_123">
    <path d="M 165.138618 283.112877 
L 168.080291 283.112877 
L 168.080291 244.928346 
L 165.138618 244.928346 
z
" clip-path="url(#pc76c7d4a44)" style="fill: #a52a2a"/>
   </g>
   <g id="patch_124">
    <path d="M 168.815709 284.935206 
L 171.757382 284.935206 
L 171.757382 250.969028 
L 168.815709 250.969028 
z
" clip-path="url(#pc76c7d4a44)" style="fill: #a52a2a"/>
   </g>
   <g id="patch_125">
    <path d="M 172.4928 284.344636 
L 175.434473 284.344636 
L 175.434473 251.171509 
L 172.4928 251.171509 
z
" clip-path="url(#pc76c7d4a44)" style="fill: #a52a2a"/>
   </g>
   <g id="patch_126">
    <path d="M 176.169891 283.230991 
L 179.111564 283.230991 
L 179.111564 245.78889 
L 176.169891 245.78889 
z
" clip-path="url(#pc76c7d4a44)" style="fill: #a52a2a"/>
   </g>
   <g id="patch_127">
    <path d="M 179.846982 283.450345 
L 182.788655 283.450345 
L 182.788655 244.050929 
L 179.846982 244.050929 
z
" clip-path="url(#pc76c7d4a44)" style="fill: #a52a2a"/>
   </g>
   <g id="patch_128">
    <path d="M 183.524073 284.125282 
L 186.465745 284.125282 
L 186.465745 252.90947 
L 183.524073 252.90947 
z
" clip-path="url(#pc76c7d4a44)" style="fill: #a52a2a"/>
   </g>
   <g id="patch_129">
    <path d="M 187.201164 284.479624 
L 190.142836 284.479624 
L 190.142836 248.977965 
L 187.201164 248.977965 
z
" clip-path="url(#pc76c7d4a44)" style="fill: #a52a2a"/>
   </g>
   <g id="patch_130">
    <path d="M 190.878255 284.243396 
L 193.819927 284.243396 
L 193.819927 244.101549 
L 190.878255 244.101549 
z
" clip-path="url(#pc76c7d4a44)" style="fill: #a52a2a"/>
   </g>
   <g id="patch_131">
    <path d="M 194.555345 284.732725 
L 197.497018 284.732725 
L 197.497018 251.660838 
L 194.555345 251.660838 
z
" clip-path="url(#pc76c7d4a44)" style="fill: #a52a2a"/>
   </g>
   <g id="patch_132">
    <path d="M 198.232436 284.192776 
L 201.174109 284.192776 
L 201.174109 250.277218 
L 198.232436 250.277218 
z
" clip-path="url(#pc76c7d4a44)" style="fill: #a52a2a"/>
   </g>
   <g id="patch_133">
    <path d="M 201.909527 283.754067 
L 204.8512 283.754067 
L 204.8512 246.160105 
L 201.909527 246.160105 
z
" clip-path="url(#pc76c7d4a44)" style="fill: #a52a2a"/>
   </g>
   <g id="patch_134">
    <path d="M 205.586618 284.935206 
L 208.528291 284.935206 
L 208.528291 247.695586 
L 205.586618 247.695586 
z
" clip-path="url(#pc76c7d4a44)" style="fill: #a52a2a"/>
   </g>
   <g id="patch_135">
    <path d="M 209.263709 284.715851 
L 212.205382 284.715851 
L 212.205382 249.028585 
L 209.263709 249.028585 
z
" clip-path="url(#pc76c7d4a44)" style="fill: #a52a2a"/>
   </g>
   <g id="patch_136">
    <path d="M 212.9408 284.41213 
L 215.882473 284.41213 
L 215.882473 248.589877 
L 212.9408 248.589877 
z
" clip-path="url(#pc76c7d4a44)" style="fill: #a52a2a"/>
   </g>
   <g id="patch_137">
    <path d="M 216.617891 284.648358 
L 219.559564 284.648358 
L 219.559564 247.644966 
L 216.617891 247.644966 
z
" clip-path="url(#pc76c7d4a44)" style="fill: #a52a2a"/>
   </g>
   <g id="patch_138">
    <path d="M 220.294982 285.475155 
L 223.236655 285.475155 
L 223.236655 251.390863 
L 220.294982 251.390863 
z
" clip-path="url(#pc76c7d4a44)" style="fill: #a52a2a"/>
   </g>
   <g id="patch_139">
    <path d="M 223.972073 285.475155 
L 226.913745 285.475155 
L 226.913745 245.957624 
L 223.972073 245.957624 
z
" clip-path="url(#pc76c7d4a44)" style="fill: #a52a2a"/>
   </g>
   <g id="patch_140">
    <path d="M 227.649164 284.175902 
L 230.590836 284.175902 
L 230.590836 243.46036 
L 227.649164 243.46036 
z
" clip-path="url(#pc76c7d4a44)" style="fill: #a52a2a"/>
   </g>
   <g id="patch_141">
    <path d="M 231.326255 284.985826 
L 234.267927 284.985826 
L 234.267927 251.458357 
L 231.326255 251.458357 
z
" clip-path="url(#pc76c7d4a44)" style="fill: #a52a2a"/>
   </g>
   <g id="patch_142">
    <path d="M 235.003345 284.277143 
L 237.945018 284.277143 
L 237.945018 250.294091 
L 235.003345 250.294091 
z
" clip-path="url(#pc76c7d4a44)" style="fill: #a52a2a"/>
   </g>
   <g id="patch_143">
    <path d="M 238.680436 284.243396 
L 241.622109 284.243396 
L 241.622109 243.291625 
L 238.680436 243.291625 
z
" clip-path="url(#pc76c7d4a44)" style="fill: #a52a2a"/>
   </g>
   <g id="patch_144">
    <path d="M 242.357527 284.192776 
L 245.2992 284.192776 
L 245.2992 247.459358 
L 242.357527 247.459358 
z
" clip-path="url(#pc76c7d4a44)" style="fill: #a52a2a"/>
   </g>
   <g id="patch_145">
    <path d="M 246.034618 283.703447 
L 248.976291 283.703447 
L 248.976291 246.143232 
L 246.034618 246.143232 
z
" clip-path="url(#pc76c7d4a44)" style="fill: #a52a2a"/>
   </g>
   <g id="patch_146">
    <path d="M 249.711709 284.226522 
L 252.653382 284.226522 
L 252.653382 244.624625 
L 249.711709 244.624625 
z
" clip-path="url(#pc76c7d4a44)" style="fill: #a52a2a"/>
   </g>
   <g id="patch_147">
    <path d="M 253.3888 284.040915 
L 256.330473 284.040915 
L 256.330473 245.080207 
L 253.3888 245.080207 
z
" clip-path="url(#pc76c7d4a44)" style="fill: #a52a2a"/>
   </g>
   <g id="patch_148">
    <path d="M 257.065891 284.901459 
L 260.007564 284.901459 
L 260.007564 251.677711 
L 257.065891 251.677711 
z
" clip-path="url(#pc76c7d4a44)" style="fill: #a52a2a"/>
   </g>
   <g id="patch_149">
    <path d="M 260.742982 285.880117 
L 263.684655 285.880117 
L 263.684655 254.613685 
L 260.742982 254.613685 
z
" clip-path="url(#pc76c7d4a44)" style="fill: #a52a2a"/>
   </g>
   <g id="patch_150">
    <path d="M 264.420073 265.682643 
L 267.361745 265.682643 
L 267.361745 233.842515 
L 264.420073 233.842515 
z
" clip-path="url(#pc76c7d4a44)" style="fill: #a52a2a"/>
   </g>
   <g id="patch_151">
    <path d="M 268.097164 284.429003 
L 271.038836 284.429003 
L 271.038836 245.063334 
L 268.097164 245.063334 
z
" clip-path="url(#pc76c7d4a44)" style="fill: #a52a2a"/>
   </g>
   <g id="patch_152">
    <path d="M 271.774255 284.884585 
L 274.715927 284.884585 
L 274.715927 250.024117 
L 271.774255 250.024117 
z
" clip-path="url(#pc76c7d4a44)" style="fill: #a52a2a"/>
   </g>
   <g id="patch_153">
    <path d="M 275.451345 285.762003 
L 278.393018 285.762003 
L 278.393018 255.052393 
L 275.451345 255.052393 
z
" clip-path="url(#pc76c7d4a44)" style="fill: #a52a2a"/>
   </g>
   <g id="patch_154">
    <path d="M 279.128436 285.492028 
L 282.070109 285.492028 
L 282.070109 246.092612 
L 279.128436 246.092612 
z
" clip-path="url(#pc76c7d4a44)" style="fill: #a52a2a"/>
   </g>
   <g id="patch_155">
    <path d="M 282.805527 285.880117 
L 285.7472 285.880117 
L 285.7472 250.412205 
L 282.805527 250.412205 
z
" clip-path="url(#pc76c7d4a44)" style="fill: #a52a2a"/>
   </g>
   <g id="patch_156">
    <path d="M 286.482618 285.880117 
L 289.424291 285.880117 
L 289.424291 247.290624 
L 286.482618 247.290624 
z
" clip-path="url(#pc76c7d4a44)" style="fill: #a52a2a"/>
   </g>
   <g id="patch_157">
    <path d="M 290.159709 285.137687 
L 293.101382 285.137687 
L 293.101382 244.624625 
L 290.159709 244.624625 
z
" clip-path="url(#pc76c7d4a44)" style="fill: #a52a2a"/>
   </g>
   <g id="patch_158">
    <path d="M 293.8368 284.766472 
L 296.778473 284.766472 
L 296.778473 247.358118 
L 293.8368 247.358118 
z
" clip-path="url(#pc76c7d4a44)" style="fill: #a52a2a"/>
   </g>
   <g id="patch_159">
    <path d="M 297.513891 284.732725 
L 300.455564 284.732725 
L 300.455564 245.350182 
L 297.513891 245.350182 
z
" clip-path="url(#pc76c7d4a44)" style="fill: #a52a2a"/>
   </g>
   <g id="patch_160">
    <path d="M 301.190982 285.542648 
L 304.132655 285.542648 
L 304.132655 251.593344 
L 301.190982 251.593344 
z
" clip-path="url(#pc76c7d4a44)" style="fill: #a52a2a"/>
   </g>
   <g id="patch_161">
    <path d="M 304.868073 285.340168 
L 307.809745 285.340168 
L 307.809745 251.846445 
L 304.868073 251.846445 
z
" clip-path="url(#pc76c7d4a44)" style="fill: #a52a2a"/>
   </g>
   <g id="patch_162">
    <path d="M 308.545164 285.357041 
L 311.486836 285.357041 
L 311.486836 246.986903 
L 308.545164 246.986903 
z
" clip-path="url(#pc76c7d4a44)" style="fill: #a52a2a"/>
   </g>
   <g id="patch_163">
    <path d="M 312.222255 286.133218 
L 315.163927 286.133218 
L 315.163927 246.835042 
L 312.222255 246.835042 
z
" clip-path="url(#pc76c7d4a44)" style="fill: #a52a2a"/>
   </g>
   <g id="patch_164">
    <path d="M 315.899345 285.20518 
L 318.841018 285.20518 
L 318.841018 246.750675 
L 315.899345 246.750675 
z
" clip-path="url(#pc76c7d4a44)" style="fill: #a52a2a"/>
   </g>
   <g id="patch_165">
    <path d="M 319.576436 285.863243 
L 322.518109 285.863243 
L 322.518109 250.530319 
L 319.576436 250.530319 
z
" clip-path="url(#pc76c7d4a44)" style="fill: #a52a2a"/>
   </g>
   <g id="patch_166">
    <path d="M 323.253527 285.15456 
L 326.1952 285.15456 
L 326.1952 247.746206 
L 323.253527 247.746206 
z
" clip-path="url(#pc76c7d4a44)" style="fill: #a52a2a"/>
   </g>
   <g id="patch_167">
    <path d="M 326.930618 284.884585 
L 329.872291 284.884585 
L 329.872291 245.147701 
L 326.930618 245.147701 
z
" clip-path="url(#pc76c7d4a44)" style="fill: #a52a2a"/>
   </g>
   <g id="patch_168">
    <path d="M 330.607709 286.285079 
L 333.549382 286.285079 
L 333.549382 253.280685 
L 330.607709 253.280685 
z
" clip-path="url(#pc76c7d4a44)" style="fill: #a52a2a"/>
   </g>
   <g id="patch_169">
    <path d="M 334.2848 286.015104 
L 337.226473 286.015104 
L 337.226473 250.294091 
L 334.2848 250.294091 
z
" clip-path="url(#pc76c7d4a44)" style="fill: #a52a2a"/>
   </g>
   <g id="patch_170">
    <path d="M 337.961891 285.913864 
L 340.903564 285.913864 
L 340.903564 246.362586 
L 337.961891 246.362586 
z
" clip-path="url(#pc76c7d4a44)" style="fill: #a52a2a"/>
   </g>
   <g id="patch_171">
    <path d="M 341.638982 285.306421 
L 344.580655 285.306421 
L 344.580655 246.885662 
L 341.638982 246.885662 
z
" clip-path="url(#pc76c7d4a44)" style="fill: #a52a2a"/>
   </g>
   <g id="patch_172">
    <path d="M 345.316073 285.10394 
L 348.257745 285.10394 
L 348.257745 251.222129 
L 345.316073 251.222129 
z
" clip-path="url(#pc76c7d4a44)" style="fill: #a52a2a"/>
   </g>
   <g id="patch_173">
    <path d="M 348.993164 284.378383 
L 351.934836 284.378383 
L 351.934836 246.53132 
L 348.993164 246.53132 
z
" clip-path="url(#pc76c7d4a44)" style="fill: #a52a2a"/>
   </g>
   <g id="patch_174">
    <path d="M 352.670255 284.479624 
L 355.611927 284.479624 
L 355.611927 244.422144 
L 352.670255 244.422144 
z
" clip-path="url(#pc76c7d4a44)" style="fill: #a52a2a"/>
   </g>
   <g id="patch_175">
    <path d="M 356.347345 284.580864 
L 359.289018 284.580864 
L 359.289018 245.383928 
L 356.347345 245.383928 
z
" clip-path="url(#pc76c7d4a44)" style="fill: #a52a2a"/>
   </g>
   <g id="patch_176">
    <path d="M 360.024436 284.985826 
L 362.966109 284.985826 
L 362.966109 244.017182 
L 360.024436 244.017182 
z
" clip-path="url(#pc76c7d4a44)" style="fill: #a52a2a"/>
   </g>
   <g id="patch_177">
    <path d="M 363.701527 285.323294 
L 366.6432 285.323294 
L 366.6432 246.176979 
L 363.701527 246.176979 
z
" clip-path="url(#pc76c7d4a44)" style="fill: #a52a2a"/>
   </g>
   <g id="patch_178">
    <path d="M 367.378618 284.648358 
L 370.320291 284.648358 
L 370.320291 254.107482 
L 367.378618 254.107482 
z
" clip-path="url(#pc76c7d4a44)" style="fill: #a52a2a"/>
   </g>
   <g id="patch_179">
    <path d="M 371.055709 285.627016 
L 373.997382 285.627016 
L 373.997382 251.340243 
L 371.055709 251.340243 
z
" clip-path="url(#pc76c7d4a44)" style="fill: #a52a2a"/>
   </g>
   <g id="patch_180">
    <path d="M 374.7328 285.84637 
L 377.674473 285.84637 
L 377.674473 247.982434 
L 374.7328 247.982434 
z
" clip-path="url(#pc76c7d4a44)" style="fill: #a52a2a"/>
   </g>
   <g id="patch_181">
    <path d="M 378.409891 285.660762 
L 381.351564 285.660762 
L 381.351564 252.420141 
L 378.409891 252.420141 
z
" clip-path="url(#pc76c7d4a44)" style="fill: #a52a2a"/>
   </g>
   <g id="patch_182">
    <path d="M 382.086982 285.323294 
L 385.028655 285.323294 
L 385.028655 247.07127 
L 382.086982 247.07127 
z
" clip-path="url(#pc76c7d4a44)" style="fill: #a52a2a"/>
   </g>
   <g id="patch_183">
    <path d="M 385.764073 285.15456 
L 388.705745 285.15456 
L 388.705745 246.227599 
L 385.764073 246.227599 
z
" clip-path="url(#pc76c7d4a44)" style="fill: #a52a2a"/>
   </g>
   <g id="patch_184">
    <path d="M 389.441164 286.318825 
L 392.382836 286.318825 
L 392.382836 252.90947 
L 389.441164 252.90947 
z
" clip-path="url(#pc76c7d4a44)" style="fill: #a52a2a"/>
   </g>
   <g id="patch_185">
    <path d="M 393.118255 286.403192 
L 396.059927 286.403192 
L 396.059927 252.588875 
L 393.118255 252.588875 
z
" clip-path="url(#pc76c7d4a44)" style="fill: #a52a2a"/>
   </g>
   <g id="patch_186">
    <path d="M 396.795345 285.087066 
L 399.737018 285.087066 
L 399.737018 251.52585 
L 396.795345 251.52585 
z
" clip-path="url(#pc76c7d4a44)" style="fill: #a52a2a"/>
   </g>
   <g id="patch_187">
    <path d="M 400.472436 285.15456 
L 403.414109 285.15456 
L 403.414109 247.189384 
L 400.472436 247.189384 
z
" clip-path="url(#pc76c7d4a44)" style="fill: #a52a2a"/>
   </g>
   <g id="patch_188">
    <path d="M 404.149527 285.762003 
L 407.0912 285.762003 
L 407.0912 246.413207 
L 404.149527 246.413207 
z
" clip-path="url(#pc76c7d4a44)" style="fill: #a52a2a"/>
   </g>
   <g id="patch_189">
    <path d="M 407.826618 285.424535 
L 410.768291 285.424535 
L 410.768291 251.795825 
L 407.826618 251.795825 
z
" clip-path="url(#pc76c7d4a44)" style="fill: #a52a2a"/>
   </g>
   <g id="patch_190">
    <path d="M 411.503709 286.234458 
L 414.445382 286.234458 
L 414.445382 252.234534 
L 411.503709 252.234534 
z
" clip-path="url(#pc76c7d4a44)" style="fill: #a52a2a"/>
   </g>
   <g id="patch_191">
    <path d="M 415.1808 285.964484 
L 418.122473 285.964484 
L 418.122473 251.981432 
L 415.1808 251.981432 
z
" clip-path="url(#pc76c7d4a44)" style="fill: #a52a2a"/>
   </g>
   <g id="patch_192">
    <path d="M 418.857891 286.301952 
L 421.799564 286.301952 
L 421.799564 252.099546 
L 418.857891 252.099546 
z
" clip-path="url(#pc76c7d4a44)" style="fill: #a52a2a"/>
   </g>
   <g id="patch_193">
    <path d="M 422.534982 285.407661 
L 425.476655 285.407661 
L 425.476655 254.006242 
L 422.534982 254.006242 
z
" clip-path="url(#pc76c7d4a44)" style="fill: #a52a2a"/>
   </g>
   <g id="patch_194">
    <path d="M 426.212073 285.643889 
L 429.153745 285.643889 
L 429.153745 251.542724 
L 426.212073 251.542724 
z
" clip-path="url(#pc76c7d4a44)" style="fill: #a52a2a"/>
   </g>
   <g id="patch_195">
    <path d="M 429.889164 286.285079 
L 432.830836 286.285079 
L 432.830836 253.331305 
L 429.889164 253.331305 
z
" clip-path="url(#pc76c7d4a44)" style="fill: #a52a2a"/>
   </g>
   <g id="patch_196">
    <path d="M 433.566255 286.757534 
L 436.507927 286.757534 
L 436.507927 255.946684 
L 433.566255 255.946684 
z
" clip-path="url(#pc76c7d4a44)" style="fill: #a52a2a"/>
   </g>
   <g id="patch_197">
    <path d="M 437.243345 286.301952 
L 440.185018 286.301952 
L 440.185018 255.794824 
L 437.243345 255.794824 
z
" clip-path="url(#pc76c7d4a44)" style="fill: #a52a2a"/>
   </g>
   <g id="patch_198">
    <path d="M 440.920436 286.403192 
L 443.862109 286.403192 
L 443.862109 252.352648 
L 440.920436 252.352648 
z
" clip-path="url(#pc76c7d4a44)" style="fill: #a52a2a"/>
   </g>
   <g id="patch_199">
    <path d="M 444.597527 286.031977 
L 447.5392 286.031977 
L 447.5392 254.461824 
L 444.597527 254.461824 
z
" clip-path="url(#pc76c7d4a44)" style="fill: #a52a2a"/>
   </g>
   <g id="patch_200">
    <path d="M 448.274618 286.217585 
L 451.216291 286.217585 
L 451.216291 252.521382 
L 448.274618 252.521382 
z
" clip-path="url(#pc76c7d4a44)" style="fill: #a52a2a"/>
   </g>
   <g id="patch_201">
    <path d="M 87.919709 282.792282 
L 90.861382 282.792282 
L 90.861382 271.723324 
L 87.919709 271.723324 
z
" clip-path="url(#pc76c7d4a44)" style="fill: #f08080"/>
   </g>
   <g id="patch_202">
    <path d="M 91.5968 284.36151 
L 94.538473 284.36151 
L 94.538473 272.263273 
L 91.5968 272.263273 
z
" clip-path="url(#pc76c7d4a44)" style="fill: #f08080"/>
   </g>
   <g id="patch_203">
    <path d="M 95.273891 283.686573 
L 98.215564 283.686573 
L 98.215564 271.875185 
L 95.273891 271.875185 
z
" clip-path="url(#pc76c7d4a44)" style="fill: #f08080"/>
   </g>
   <g id="patch_204">
    <path d="M 98.950982 283.82156 
L 101.892655 283.82156 
L 101.892655 271.402729 
L 98.950982 271.402729 
z
" clip-path="url(#pc76c7d4a44)" style="fill: #f08080"/>
   </g>
   <g id="patch_205">
    <path d="M 102.628073 284.057788 
L 105.569745 284.057788 
L 105.569745 269.884122 
L 102.628073 269.884122 
z
" clip-path="url(#pc76c7d4a44)" style="fill: #f08080"/>
   </g>
   <g id="patch_206">
    <path d="M 106.305164 284.209649 
L 109.246836 284.209649 
L 109.246836 272.701982 
L 106.305164 272.701982 
z
" clip-path="url(#pc76c7d4a44)" style="fill: #f08080"/>
   </g>
   <g id="patch_207">
    <path d="M 109.982255 284.074662 
L 112.923927 284.074662 
L 112.923927 271.757071 
L 109.982255 271.757071 
z
" clip-path="url(#pc76c7d4a44)" style="fill: #f08080"/>
   </g>
   <g id="patch_208">
    <path d="M 113.659345 285.424535 
L 116.601018 285.424535 
L 116.601018 272.566995 
L 113.659345 272.566995 
z
" clip-path="url(#pc76c7d4a44)" style="fill: #f08080"/>
   </g>
   <g id="patch_209">
    <path d="M 117.336436 285.289547 
L 120.278109 285.289547 
L 120.278109 274.034982 
L 117.336436 274.034982 
z
" clip-path="url(#pc76c7d4a44)" style="fill: #f08080"/>
   </g>
   <g id="patch_210">
    <path d="M 121.013527 285.660762 
L 123.9552 285.660762 
L 123.9552 273.174438 
L 121.013527 273.174438 
z
" clip-path="url(#pc76c7d4a44)" style="fill: #f08080"/>
   </g>
   <g id="patch_211">
    <path d="M 124.690618 285.019573 
L 127.632291 285.019573 
L 127.632291 273.73126 
L 124.690618 273.73126 
z
" clip-path="url(#pc76c7d4a44)" style="fill: #f08080"/>
   </g>
   <g id="patch_212">
    <path d="M 128.367709 285.441408 
L 131.309382 285.441408 
L 131.309382 273.410665 
L 128.367709 273.410665 
z
" clip-path="url(#pc76c7d4a44)" style="fill: #f08080"/>
   </g>
   <g id="patch_213">
    <path d="M 132.0448 285.20518 
L 134.986473 285.20518 
L 134.986473 273.090071 
L 132.0448 273.090071 
z
" clip-path="url(#pc76c7d4a44)" style="fill: #f08080"/>
   </g>
   <g id="patch_214">
    <path d="M 135.721891 286.099471 
L 138.663564 286.099471 
L 138.663564 275.435475 
L 135.721891 275.435475 
z
" clip-path="url(#pc76c7d4a44)" style="fill: #f08080"/>
   </g>
   <g id="patch_215">
    <path d="M 139.398982 285.390788 
L 142.340655 285.390788 
L 142.340655 273.309425 
L 139.398982 273.309425 
z
" clip-path="url(#pc76c7d4a44)" style="fill: #f08080"/>
   </g>
   <g id="patch_216">
    <path d="M 143.076073 286.791281 
L 146.017745 286.791281 
L 146.017745 274.169969 
L 143.076073 274.169969 
z
" clip-path="url(#pc76c7d4a44)" style="fill: #f08080"/>
   </g>
   <g id="patch_217">
    <path d="M 146.753164 286.571927 
L 149.694836 286.571927 
L 149.694836 273.663767 
L 146.753164 273.663767 
z
" clip-path="url(#pc76c7d4a44)" style="fill: #f08080"/>
   </g>
   <g id="patch_218">
    <path d="M 150.430255 287.010635 
L 153.371927 287.010635 
L 153.371927 273.275678 
L 150.430255 273.275678 
z
" clip-path="url(#pc76c7d4a44)" style="fill: #f08080"/>
   </g>
   <g id="patch_219">
    <path d="M 154.107345 287.297483 
L 157.049018 287.297483 
L 157.049018 275.098007 
L 154.107345 275.098007 
z
" clip-path="url(#pc76c7d4a44)" style="fill: #f08080"/>
   </g>
   <g id="patch_220">
    <path d="M 157.784436 287.989293 
L 160.726109 287.989293 
L 160.726109 276.127285 
L 157.784436 276.127285 
z
" clip-path="url(#pc76c7d4a44)" style="fill: #f08080"/>
   </g>
   <g id="patch_221">
    <path d="M 161.461527 287.483091 
L 164.4032 287.483091 
L 164.4032 274.996766 
L 161.461527 274.996766 
z
" clip-path="url(#pc76c7d4a44)" style="fill: #f08080"/>
   </g>
   <g id="patch_222">
    <path d="M 165.138618 287.027509 
L 168.080291 287.027509 
L 168.080291 275.081133 
L 165.138618 275.081133 
z
" clip-path="url(#pc76c7d4a44)" style="fill: #f08080"/>
   </g>
   <g id="patch_223">
    <path d="M 168.815709 288.326761 
L 171.757382 288.326761 
L 171.757382 277.207183 
L 168.815709 277.207183 
z
" clip-path="url(#pc76c7d4a44)" style="fill: #f08080"/>
   </g>
   <g id="patch_224">
    <path d="M 172.4928 288.191774 
L 175.434473 288.191774 
L 175.434473 276.144158 
L 172.4928 276.144158 
z
" clip-path="url(#pc76c7d4a44)" style="fill: #f08080"/>
   </g>
   <g id="patch_225">
    <path d="M 176.169891 287.618078 
L 179.111564 287.618078 
L 179.111564 274.895526 
L 176.169891 274.895526 
z
" clip-path="url(#pc76c7d4a44)" style="fill: #f08080"/>
   </g>
   <g id="patch_226">
    <path d="M 179.846982 287.854306 
L 182.788655 287.854306 
L 182.788655 276.026044 
L 179.846982 276.026044 
z
" clip-path="url(#pc76c7d4a44)" style="fill: #f08080"/>
   </g>
   <g id="patch_227">
    <path d="M 183.524073 288.12428 
L 186.465745 288.12428 
L 186.465745 275.85731 
L 183.524073 275.85731 
z
" clip-path="url(#pc76c7d4a44)" style="fill: #f08080"/>
   </g>
   <g id="patch_228">
    <path d="M 187.201164 288.681103 
L 190.142836 288.681103 
L 190.142836 276.700981 
L 187.201164 276.700981 
z
" clip-path="url(#pc76c7d4a44)" style="fill: #f08080"/>
   </g>
   <g id="patch_229">
    <path d="M 190.878255 288.360508 
L 193.819927 288.360508 
L 193.819927 276.363512 
L 190.878255 276.363512 
z
" clip-path="url(#pc76c7d4a44)" style="fill: #f08080"/>
   </g>
   <g id="patch_230">
    <path d="M 194.555345 288.81609 
L 197.497018 288.81609 
L 197.497018 275.85731 
L 194.555345 275.85731 
z
" clip-path="url(#pc76c7d4a44)" style="fill: #f08080"/>
   </g>
   <g id="patch_231">
    <path d="M 198.232436 288.832964 
L 201.174109 288.832964 
L 201.174109 276.852841 
L 198.232436 276.852841 
z
" clip-path="url(#pc76c7d4a44)" style="fill: #f08080"/>
   </g>
   <g id="patch_232">
    <path d="M 201.909527 288.647356 
L 204.8512 288.647356 
L 204.8512 276.65036 
L 201.909527 276.65036 
z
" clip-path="url(#pc76c7d4a44)" style="fill: #f08080"/>
   </g>
   <g id="patch_233">
    <path d="M 205.586618 289.035445 
L 208.528291 289.035445 
L 208.528291 277.645892 
L 205.586618 277.645892 
z
" clip-path="url(#pc76c7d4a44)" style="fill: #f08080"/>
   </g>
   <g id="patch_234">
    <path d="M 209.263709 288.832964 
L 212.205382 288.832964 
L 212.205382 277.122816 
L 209.263709 277.122816 
z
" clip-path="url(#pc76c7d4a44)" style="fill: #f08080"/>
   </g>
   <g id="patch_235">
    <path d="M 212.9408 288.984824 
L 215.882473 288.984824 
L 215.882473 274.693045 
L 212.9408 274.693045 
z
" clip-path="url(#pc76c7d4a44)" style="fill: #f08080"/>
   </g>
   <g id="patch_236">
    <path d="M 216.617891 288.81609 
L 219.559564 288.81609 
L 219.559564 276.987829 
L 216.617891 276.987829 
z
" clip-path="url(#pc76c7d4a44)" style="fill: #f08080"/>
   </g>
   <g id="patch_237">
    <path d="M 220.294982 289.102938 
L 223.236655 289.102938 
L 223.236655 278.000233 
L 220.294982 278.000233 
z
" clip-path="url(#pc76c7d4a44)" style="fill: #f08080"/>
   </g>
   <g id="patch_238">
    <path d="M 223.972073 289.339166 
L 226.913745 289.339166 
L 226.913745 277.544651 
L 223.972073 277.544651 
z
" clip-path="url(#pc76c7d4a44)" style="fill: #f08080"/>
   </g>
   <g id="patch_239">
    <path d="M 227.649164 288.647356 
L 230.590836 288.647356 
L 230.590836 276.616614 
L 227.649164 276.616614 
z
" clip-path="url(#pc76c7d4a44)" style="fill: #f08080"/>
   </g>
   <g id="patch_240">
    <path d="M 231.326255 288.832964 
L 234.267927 288.832964 
L 234.267927 277.072196 
L 231.326255 277.072196 
z
" clip-path="url(#pc76c7d4a44)" style="fill: #f08080"/>
   </g>
   <g id="patch_241">
    <path d="M 235.003345 289.001698 
L 237.945018 289.001698 
L 237.945018 276.110411 
L 235.003345 276.110411 
z
" clip-path="url(#pc76c7d4a44)" style="fill: #f08080"/>
   </g>
   <g id="patch_242">
    <path d="M 238.680436 289.170432 
L 241.622109 289.170432 
L 241.622109 275.823563 
L 238.680436 275.823563 
z
" clip-path="url(#pc76c7d4a44)" style="fill: #f08080"/>
   </g>
   <g id="patch_243">
    <path d="M 242.357527 289.052318 
L 245.2992 289.052318 
L 245.2992 276.515373 
L 242.357527 276.515373 
z
" clip-path="url(#pc76c7d4a44)" style="fill: #f08080"/>
   </g>
   <g id="patch_244">
    <path d="M 246.034618 288.832964 
L 248.976291 288.832964 
L 248.976291 275.587336 
L 246.034618 275.587336 
z
" clip-path="url(#pc76c7d4a44)" style="fill: #f08080"/>
   </g>
   <g id="patch_245">
    <path d="M 249.711709 289.035445 
L 252.653382 289.035445 
L 252.653382 275.840437 
L 249.711709 275.840437 
z
" clip-path="url(#pc76c7d4a44)" style="fill: #f08080"/>
   </g>
   <g id="patch_246">
    <path d="M 253.3888 289.102938 
L 256.330473 289.102938 
L 256.330473 275.75607 
L 253.3888 275.75607 
z
" clip-path="url(#pc76c7d4a44)" style="fill: #f08080"/>
   </g>
   <g id="patch_247">
    <path d="M 257.065891 289.423533 
L 260.007564 289.423533 
L 260.007564 276.059791 
L 257.065891 276.059791 
z
" clip-path="url(#pc76c7d4a44)" style="fill: #f08080"/>
   </g>
   <g id="patch_248">
    <path d="M 260.742982 289.440407 
L 263.684655 289.440407 
L 263.684655 279.299486 
L 260.742982 279.299486 
z
" clip-path="url(#pc76c7d4a44)" style="fill: #f08080"/>
   </g>
   <g id="patch_249">
    <path d="M 264.420073 270.204717 
L 267.361745 270.204717 
L 267.361745 258.022114 
L 264.420073 258.022114 
z
" clip-path="url(#pc76c7d4a44)" style="fill: #f08080"/>
   </g>
   <g id="patch_250">
    <path d="M 268.097164 289.237926 
L 271.038836 289.237926 
L 271.038836 276.4985 
L 268.097164 276.4985 
z
" clip-path="url(#pc76c7d4a44)" style="fill: #f08080"/>
   </g>
   <g id="patch_251">
    <path d="M 271.774255 289.40666 
L 274.715927 289.40666 
L 274.715927 277.561525 
L 271.774255 277.561525 
z
" clip-path="url(#pc76c7d4a44)" style="fill: #f08080"/>
   </g>
   <g id="patch_252">
    <path d="M 275.451345 289.237926 
L 278.393018 289.237926 
L 278.393018 277.915866 
L 275.451345 277.915866 
z
" clip-path="url(#pc76c7d4a44)" style="fill: #f08080"/>
   </g>
   <g id="patch_253">
    <path d="M 279.128436 289.474153 
L 282.070109 289.474153 
L 282.070109 277.392791 
L 279.128436 277.392791 
z
" clip-path="url(#pc76c7d4a44)" style="fill: #f08080"/>
   </g>
   <g id="patch_254">
    <path d="M 282.805527 289.45728 
L 285.7472 289.45728 
L 285.7472 278.067727 
L 282.805527 278.067727 
z
" clip-path="url(#pc76c7d4a44)" style="fill: #f08080"/>
   </g>
   <g id="patch_255">
    <path d="M 286.482618 289.541647 
L 289.424291 289.541647 
L 289.424291 277.98336 
L 286.482618 277.98336 
z
" clip-path="url(#pc76c7d4a44)" style="fill: #f08080"/>
   </g>
   <g id="patch_256">
    <path d="M 290.159709 289.153559 
L 293.101382 289.153559 
L 293.101382 278.168968 
L 290.159709 278.168968 
z
" clip-path="url(#pc76c7d4a44)" style="fill: #f08080"/>
   </g>
   <g id="patch_257">
    <path d="M 293.8368 289.40666 
L 296.778473 289.40666 
L 296.778473 277.004702 
L 293.8368 277.004702 
z
" clip-path="url(#pc76c7d4a44)" style="fill: #f08080"/>
   </g>
   <g id="patch_258">
    <path d="M 297.513891 289.5079 
L 300.455564 289.5079 
L 300.455564 276.954082 
L 297.513891 276.954082 
z
" clip-path="url(#pc76c7d4a44)" style="fill: #f08080"/>
   </g>
   <g id="patch_259">
    <path d="M 301.190982 289.524774 
L 304.132655 289.524774 
L 304.132655 278.371448 
L 301.190982 278.371448 
z
" clip-path="url(#pc76c7d4a44)" style="fill: #f08080"/>
   </g>
   <g id="patch_260">
    <path d="M 304.868073 289.372913 
L 307.809745 289.372913 
L 307.809745 277.98336 
L 304.868073 277.98336 
z
" clip-path="url(#pc76c7d4a44)" style="fill: #f08080"/>
   </g>
   <g id="patch_261">
    <path d="M 308.545164 289.423533 
L 311.486836 289.423533 
L 311.486836 278.405195 
L 308.545164 278.405195 
z
" clip-path="url(#pc76c7d4a44)" style="fill: #f08080"/>
   </g>
   <g id="patch_262">
    <path d="M 312.222255 289.524774 
L 315.163927 289.524774 
L 315.163927 277.122816 
L 312.222255 277.122816 
z
" clip-path="url(#pc76c7d4a44)" style="fill: #f08080"/>
   </g>
   <g id="patch_263">
    <path d="M 315.899345 289.491027 
L 318.841018 289.491027 
L 318.841018 277.409664 
L 315.899345 277.409664 
z
" clip-path="url(#pc76c7d4a44)" style="fill: #f08080"/>
   </g>
   <g id="patch_264">
    <path d="M 319.576436 289.440407 
L 322.518109 289.440407 
L 322.518109 279.113879 
L 319.576436 279.113879 
z
" clip-path="url(#pc76c7d4a44)" style="fill: #f08080"/>
   </g>
   <g id="patch_265">
    <path d="M 323.253527 289.45728 
L 326.1952 289.45728 
L 326.1952 275.90793 
L 323.253527 275.90793 
z
" clip-path="url(#pc76c7d4a44)" style="fill: #f08080"/>
   </g>
   <g id="patch_266">
    <path d="M 326.930618 289.55852 
L 329.872291 289.55852 
L 329.872291 275.098007 
L 326.930618 275.098007 
z
" clip-path="url(#pc76c7d4a44)" style="fill: #f08080"/>
   </g>
   <g id="patch_267">
    <path d="M 330.607709 289.609141 
L 333.549382 289.609141 
L 333.549382 278.185841 
L 330.607709 278.185841 
z
" clip-path="url(#pc76c7d4a44)" style="fill: #f08080"/>
   </g>
   <g id="patch_268">
    <path d="M 334.2848 289.609141 
L 337.226473 289.609141 
L 337.226473 278.62455 
L 334.2848 278.62455 
z
" clip-path="url(#pc76c7d4a44)" style="fill: #f08080"/>
   </g>
   <g id="patch_269">
    <path d="M 337.961891 289.626014 
L 340.903564 289.626014 
L 340.903564 278.236461 
L 337.961891 278.236461 
z
" clip-path="url(#pc76c7d4a44)" style="fill: #f08080"/>
   </g>
   <g id="patch_270">
    <path d="M 341.638982 289.524774 
L 344.580655 289.524774 
L 344.580655 276.903462 
L 341.638982 276.903462 
z
" clip-path="url(#pc76c7d4a44)" style="fill: #f08080"/>
   </g>
   <g id="patch_271">
    <path d="M 345.316073 289.339166 
L 348.257745 289.339166 
L 348.257745 277.375917 
L 345.316073 277.375917 
z
" clip-path="url(#pc76c7d4a44)" style="fill: #f08080"/>
   </g>
   <g id="patch_272">
    <path d="M 348.993164 289.5079 
L 351.934836 289.5079 
L 351.934836 276.194778 
L 348.993164 276.194778 
z
" clip-path="url(#pc76c7d4a44)" style="fill: #f08080"/>
   </g>
   <g id="patch_273">
    <path d="M 352.670255 289.474153 
L 355.611927 289.474153 
L 355.611927 276.886588 
L 352.670255 276.886588 
z
" clip-path="url(#pc76c7d4a44)" style="fill: #f08080"/>
   </g>
   <g id="patch_274">
    <path d="M 356.347345 289.592267 
L 359.289018 289.592267 
L 359.289018 276.4985 
L 356.347345 276.4985 
z
" clip-path="url(#pc76c7d4a44)" style="fill: #f08080"/>
   </g>
   <g id="patch_275">
    <path d="M 360.024436 289.474153 
L 362.966109 289.474153 
L 362.966109 277.055322 
L 360.024436 277.055322 
z
" clip-path="url(#pc76c7d4a44)" style="fill: #f08080"/>
   </g>
   <g id="patch_276">
    <path d="M 363.701527 289.626014 
L 366.6432 289.626014 
L 366.6432 277.578398 
L 363.701527 277.578398 
z
" clip-path="url(#pc76c7d4a44)" style="fill: #f08080"/>
   </g>
   <g id="patch_277">
    <path d="M 367.378618 289.592267 
L 370.320291 289.592267 
L 370.320291 276.515373 
L 367.378618 276.515373 
z
" clip-path="url(#pc76c7d4a44)" style="fill: #f08080"/>
   </g>
   <g id="patch_278">
    <path d="M 371.055709 289.879115 
L 373.997382 289.879115 
L 373.997382 277.207183 
L 371.055709 277.207183 
z
" clip-path="url(#pc76c7d4a44)" style="fill: #f08080"/>
   </g>
   <g id="patch_279">
    <path d="M 374.7328 289.828495 
L 377.674473 289.828495 
L 377.674473 277.88212 
L 374.7328 277.88212 
z
" clip-path="url(#pc76c7d4a44)" style="fill: #f08080"/>
   </g>
   <g id="patch_280">
    <path d="M 378.409891 289.879115 
L 381.351564 289.879115 
L 381.351564 277.814626 
L 378.409891 277.814626 
z
" clip-path="url(#pc76c7d4a44)" style="fill: #f08080"/>
   </g>
   <g id="patch_281">
    <path d="M 382.086982 289.777875 
L 385.028655 289.777875 
L 385.028655 276.582867 
L 382.086982 276.582867 
z
" clip-path="url(#pc76c7d4a44)" style="fill: #f08080"/>
   </g>
   <g id="patch_282">
    <path d="M 385.764073 289.5079 
L 388.705745 289.5079 
L 388.705745 277.34217 
L 385.764073 277.34217 
z
" clip-path="url(#pc76c7d4a44)" style="fill: #f08080"/>
   </g>
   <g id="patch_283">
    <path d="M 389.441164 289.727255 
L 392.382836 289.727255 
L 392.382836 278.506436 
L 389.441164 278.506436 
z
" clip-path="url(#pc76c7d4a44)" style="fill: #f08080"/>
   </g>
   <g id="patch_284">
    <path d="M 393.118255 289.929736 
L 396.059927 289.929736 
L 396.059927 279.31636 
L 393.118255 279.31636 
z
" clip-path="url(#pc76c7d4a44)" style="fill: #f08080"/>
   </g>
   <g id="patch_285">
    <path d="M 396.795345 289.845368 
L 399.737018 289.845368 
L 399.737018 277.19031 
L 396.795345 277.19031 
z
" clip-path="url(#pc76c7d4a44)" style="fill: #f08080"/>
   </g>
   <g id="patch_286">
    <path d="M 400.472436 289.626014 
L 403.414109 289.626014 
L 403.414109 277.19031 
L 400.472436 277.19031 
z
" clip-path="url(#pc76c7d4a44)" style="fill: #f08080"/>
   </g>
   <g id="patch_287">
    <path d="M 404.149527 289.879115 
L 407.0912 289.879115 
L 407.0912 276.093538 
L 404.149527 276.093538 
z
" clip-path="url(#pc76c7d4a44)" style="fill: #f08080"/>
   </g>
   <g id="patch_288">
    <path d="M 407.826618 289.879115 
L 410.768291 289.879115 
L 410.768291 277.88212 
L 407.826618 277.88212 
z
" clip-path="url(#pc76c7d4a44)" style="fill: #f08080"/>
   </g>
   <g id="patch_289">
    <path d="M 411.503709 290.030976 
L 414.445382 290.030976 
L 414.445382 278.759537 
L 411.503709 278.759537 
z
" clip-path="url(#pc76c7d4a44)" style="fill: #f08080"/>
   </g>
   <g id="patch_290">
    <path d="M 415.1808 289.710381 
L 418.122473 289.710381 
L 418.122473 277.898993 
L 415.1808 277.898993 
z
" clip-path="url(#pc76c7d4a44)" style="fill: #f08080"/>
   </g>
   <g id="patch_291">
    <path d="M 418.857891 289.845368 
L 421.799564 289.845368 
L 421.799564 279.383853 
L 418.857891 279.383853 
z
" clip-path="url(#pc76c7d4a44)" style="fill: #f08080"/>
   </g>
   <g id="patch_292">
    <path d="M 422.534982 289.828495 
L 425.476655 289.828495 
L 425.476655 277.696512 
L 422.534982 277.696512 
z
" clip-path="url(#pc76c7d4a44)" style="fill: #f08080"/>
   </g>
   <g id="patch_293">
    <path d="M 426.212073 289.828495 
L 429.153745 289.828495 
L 429.153745 277.561525 
L 426.212073 277.561525 
z
" clip-path="url(#pc76c7d4a44)" style="fill: #f08080"/>
   </g>
   <g id="patch_294">
    <path d="M 429.889164 289.811622 
L 432.830836 289.811622 
L 432.830836 279.4176 
L 429.889164 279.4176 
z
" clip-path="url(#pc76c7d4a44)" style="fill: #f08080"/>
   </g>
   <g id="patch_295">
    <path d="M 433.566255 290.030976 
L 436.507927 290.030976 
L 436.507927 279.501967 
L 433.566255 279.501967 
z
" clip-path="url(#pc76c7d4a44)" style="fill: #f08080"/>
   </g>
   <g id="patch_296">
    <path d="M 437.243345 289.912862 
L 440.185018 289.912862 
L 440.185018 279.350106 
L 437.243345 279.350106 
z
" clip-path="url(#pc76c7d4a44)" style="fill: #f08080"/>
   </g>
   <g id="patch_297">
    <path d="M 440.920436 289.963482 
L 443.862109 289.963482 
L 443.862109 279.620081 
L 440.920436 279.620081 
z
" clip-path="url(#pc76c7d4a44)" style="fill: #f08080"/>
   </g>
   <g id="patch_298">
    <path d="M 444.597527 290.014103 
L 447.5392 290.014103 
L 447.5392 278.472689 
L 444.597527 278.472689 
z
" clip-path="url(#pc76c7d4a44)" style="fill: #f08080"/>
   </g>
   <g id="patch_299">
    <path d="M 448.274618 289.929736 
L 451.216291 289.929736 
L 451.216291 278.000233 
L 448.274618 278.000233 
z
" clip-path="url(#pc76c7d4a44)" style="fill: #f08080"/>
   </g>
   <g id="patch_300">
    <path d="M 87.919709 293.76 
L 90.861382 293.76 
L 90.861382 282.792282 
L 87.919709 282.792282 
z
" clip-path="url(#pc76c7d4a44)" style="fill: #ffe4e1"/>
   </g>
   <g id="patch_301">
    <path d="M 91.5968 293.76 
L 94.538473 293.76 
L 94.538473 284.36151 
L 91.5968 284.36151 
z
" clip-path="url(#pc76c7d4a44)" style="fill: #ffe4e1"/>
   </g>
   <g id="patch_302">
    <path d="M 95.273891 293.76 
L 98.215564 293.76 
L 98.215564 283.686573 
L 95.273891 283.686573 
z
" clip-path="url(#pc76c7d4a44)" style="fill: #ffe4e1"/>
   </g>
   <g id="patch_303">
    <path d="M 98.950982 293.76 
L 101.892655 293.76 
L 101.892655 283.82156 
L 98.950982 283.82156 
z
" clip-path="url(#pc76c7d4a44)" style="fill: #ffe4e1"/>
   </g>
   <g id="patch_304">
    <path d="M 102.628073 293.76 
L 105.569745 293.76 
L 105.569745 284.057788 
L 102.628073 284.057788 
z
" clip-path="url(#pc76c7d4a44)" style="fill: #ffe4e1"/>
   </g>
   <g id="patch_305">
    <path d="M 106.305164 293.76 
L 109.246836 293.76 
L 109.246836 284.209649 
L 106.305164 284.209649 
z
" clip-path="url(#pc76c7d4a44)" style="fill: #ffe4e1"/>
   </g>
   <g id="patch_306">
    <path d="M 109.982255 293.76 
L 112.923927 293.76 
L 112.923927 284.074662 
L 109.982255 284.074662 
z
" clip-path="url(#pc76c7d4a44)" style="fill: #ffe4e1"/>
   </g>
   <g id="patch_307">
    <path d="M 113.659345 293.76 
L 116.601018 293.76 
L 116.601018 285.424535 
L 113.659345 285.424535 
z
" clip-path="url(#pc76c7d4a44)" style="fill: #ffe4e1"/>
   </g>
   <g id="patch_308">
    <path d="M 117.336436 293.76 
L 120.278109 293.76 
L 120.278109 285.289547 
L 117.336436 285.289547 
z
" clip-path="url(#pc76c7d4a44)" style="fill: #ffe4e1"/>
   </g>
   <g id="patch_309">
    <path d="M 121.013527 293.76 
L 123.9552 293.76 
L 123.9552 285.660762 
L 121.013527 285.660762 
z
" clip-path="url(#pc76c7d4a44)" style="fill: #ffe4e1"/>
   </g>
   <g id="patch_310">
    <path d="M 124.690618 293.76 
L 127.632291 293.76 
L 127.632291 285.019573 
L 124.690618 285.019573 
z
" clip-path="url(#pc76c7d4a44)" style="fill: #ffe4e1"/>
   </g>
   <g id="patch_311">
    <path d="M 128.367709 293.76 
L 131.309382 293.76 
L 131.309382 285.441408 
L 128.367709 285.441408 
z
" clip-path="url(#pc76c7d4a44)" style="fill: #ffe4e1"/>
   </g>
   <g id="patch_312">
    <path d="M 132.0448 293.76 
L 134.986473 293.76 
L 134.986473 285.20518 
L 132.0448 285.20518 
z
" clip-path="url(#pc76c7d4a44)" style="fill: #ffe4e1"/>
   </g>
   <g id="patch_313">
    <path d="M 135.721891 293.76 
L 138.663564 293.76 
L 138.663564 286.099471 
L 135.721891 286.099471 
z
" clip-path="url(#pc76c7d4a44)" style="fill: #ffe4e1"/>
   </g>
   <g id="patch_314">
    <path d="M 139.398982 293.76 
L 142.340655 293.76 
L 142.340655 285.390788 
L 139.398982 285.390788 
z
" clip-path="url(#pc76c7d4a44)" style="fill: #ffe4e1"/>
   </g>
   <g id="patch_315">
    <path d="M 143.076073 293.76 
L 146.017745 293.76 
L 146.017745 286.791281 
L 143.076073 286.791281 
z
" clip-path="url(#pc76c7d4a44)" style="fill: #ffe4e1"/>
   </g>
   <g id="patch_316">
    <path d="M 146.753164 293.76 
L 149.694836 293.76 
L 149.694836 286.571927 
L 146.753164 286.571927 
z
" clip-path="url(#pc76c7d4a44)" style="fill: #ffe4e1"/>
   </g>
   <g id="patch_317">
    <path d="M 150.430255 293.76 
L 153.371927 293.76 
L 153.371927 287.010635 
L 150.430255 287.010635 
z
" clip-path="url(#pc76c7d4a44)" style="fill: #ffe4e1"/>
   </g>
   <g id="patch_318">
    <path d="M 154.107345 293.76 
L 157.049018 293.76 
L 157.049018 287.297483 
L 154.107345 287.297483 
z
" clip-path="url(#pc76c7d4a44)" style="fill: #ffe4e1"/>
   </g>
   <g id="patch_319">
    <path d="M 157.784436 293.76 
L 160.726109 293.76 
L 160.726109 287.989293 
L 157.784436 287.989293 
z
" clip-path="url(#pc76c7d4a44)" style="fill: #ffe4e1"/>
   </g>
   <g id="patch_320">
    <path d="M 161.461527 293.76 
L 164.4032 293.76 
L 164.4032 287.483091 
L 161.461527 287.483091 
z
" clip-path="url(#pc76c7d4a44)" style="fill: #ffe4e1"/>
   </g>
   <g id="patch_321">
    <path d="M 165.138618 293.76 
L 168.080291 293.76 
L 168.080291 287.027509 
L 165.138618 287.027509 
z
" clip-path="url(#pc76c7d4a44)" style="fill: #ffe4e1"/>
   </g>
   <g id="patch_322">
    <path d="M 168.815709 293.76 
L 171.757382 293.76 
L 171.757382 288.326761 
L 168.815709 288.326761 
z
" clip-path="url(#pc76c7d4a44)" style="fill: #ffe4e1"/>
   </g>
   <g id="patch_323">
    <path d="M 172.4928 293.76 
L 175.434473 293.76 
L 175.434473 288.191774 
L 172.4928 288.191774 
z
" clip-path="url(#pc76c7d4a44)" style="fill: #ffe4e1"/>
   </g>
   <g id="patch_324">
    <path d="M 176.169891 293.76 
L 179.111564 293.76 
L 179.111564 287.618078 
L 176.169891 287.618078 
z
" clip-path="url(#pc76c7d4a44)" style="fill: #ffe4e1"/>
   </g>
   <g id="patch_325">
    <path d="M 179.846982 293.76 
L 182.788655 293.76 
L 182.788655 287.854306 
L 179.846982 287.854306 
z
" clip-path="url(#pc76c7d4a44)" style="fill: #ffe4e1"/>
   </g>
   <g id="patch_326">
    <path d="M 183.524073 293.76 
L 186.465745 293.76 
L 186.465745 288.12428 
L 183.524073 288.12428 
z
" clip-path="url(#pc76c7d4a44)" style="fill: #ffe4e1"/>
   </g>
   <g id="patch_327">
    <path d="M 187.201164 293.76 
L 190.142836 293.76 
L 190.142836 288.681103 
L 187.201164 288.681103 
z
" clip-path="url(#pc76c7d4a44)" style="fill: #ffe4e1"/>
   </g>
   <g id="patch_328">
    <path d="M 190.878255 293.76 
L 193.819927 293.76 
L 193.819927 288.360508 
L 190.878255 288.360508 
z
" clip-path="url(#pc76c7d4a44)" style="fill: #ffe4e1"/>
   </g>
   <g id="patch_329">
    <path d="M 194.555345 293.76 
L 197.497018 293.76 
L 197.497018 288.81609 
L 194.555345 288.81609 
z
" clip-path="url(#pc76c7d4a44)" style="fill: #ffe4e1"/>
   </g>
   <g id="patch_330">
    <path d="M 198.232436 293.76 
L 201.174109 293.76 
L 201.174109 288.832964 
L 198.232436 288.832964 
z
" clip-path="url(#pc76c7d4a44)" style="fill: #ffe4e1"/>
   </g>
   <g id="patch_331">
    <path d="M 201.909527 293.76 
L 204.8512 293.76 
L 204.8512 288.647356 
L 201.909527 288.647356 
z
" clip-path="url(#pc76c7d4a44)" style="fill: #ffe4e1"/>
   </g>
   <g id="patch_332">
    <path d="M 205.586618 293.76 
L 208.528291 293.76 
L 208.528291 289.035445 
L 205.586618 289.035445 
z
" clip-path="url(#pc76c7d4a44)" style="fill: #ffe4e1"/>
   </g>
   <g id="patch_333">
    <path d="M 209.263709 293.76 
L 212.205382 293.76 
L 212.205382 288.832964 
L 209.263709 288.832964 
z
" clip-path="url(#pc76c7d4a44)" style="fill: #ffe4e1"/>
   </g>
   <g id="patch_334">
    <path d="M 212.9408 293.76 
L 215.882473 293.76 
L 215.882473 288.984824 
L 212.9408 288.984824 
z
" clip-path="url(#pc76c7d4a44)" style="fill: #ffe4e1"/>
   </g>
   <g id="patch_335">
    <path d="M 216.617891 293.76 
L 219.559564 293.76 
L 219.559564 288.81609 
L 216.617891 288.81609 
z
" clip-path="url(#pc76c7d4a44)" style="fill: #ffe4e1"/>
   </g>
   <g id="patch_336">
    <path d="M 220.294982 293.76 
L 223.236655 293.76 
L 223.236655 289.102938 
L 220.294982 289.102938 
z
" clip-path="url(#pc76c7d4a44)" style="fill: #ffe4e1"/>
   </g>
   <g id="patch_337">
    <path d="M 223.972073 293.76 
L 226.913745 293.76 
L 226.913745 289.339166 
L 223.972073 289.339166 
z
" clip-path="url(#pc76c7d4a44)" style="fill: #ffe4e1"/>
   </g>
   <g id="patch_338">
    <path d="M 227.649164 293.76 
L 230.590836 293.76 
L 230.590836 288.647356 
L 227.649164 288.647356 
z
" clip-path="url(#pc76c7d4a44)" style="fill: #ffe4e1"/>
   </g>
   <g id="patch_339">
    <path d="M 231.326255 293.76 
L 234.267927 293.76 
L 234.267927 288.832964 
L 231.326255 288.832964 
z
" clip-path="url(#pc76c7d4a44)" style="fill: #ffe4e1"/>
   </g>
   <g id="patch_340">
    <path d="M 235.003345 293.76 
L 237.945018 293.76 
L 237.945018 289.001698 
L 235.003345 289.001698 
z
" clip-path="url(#pc76c7d4a44)" style="fill: #ffe4e1"/>
   </g>
   <g id="patch_341">
    <path d="M 238.680436 293.76 
L 241.622109 293.76 
L 241.622109 289.170432 
L 238.680436 289.170432 
z
" clip-path="url(#pc76c7d4a44)" style="fill: #ffe4e1"/>
   </g>
   <g id="patch_342">
    <path d="M 242.357527 293.76 
L 245.2992 293.76 
L 245.2992 289.052318 
L 242.357527 289.052318 
z
" clip-path="url(#pc76c7d4a44)" style="fill: #ffe4e1"/>
   </g>
   <g id="patch_343">
    <path d="M 246.034618 293.76 
L 248.976291 293.76 
L 248.976291 288.832964 
L 246.034618 288.832964 
z
" clip-path="url(#pc76c7d4a44)" style="fill: #ffe4e1"/>
   </g>
   <g id="patch_344">
    <path d="M 249.711709 293.76 
L 252.653382 293.76 
L 252.653382 289.035445 
L 249.711709 289.035445 
z
" clip-path="url(#pc76c7d4a44)" style="fill: #ffe4e1"/>
   </g>
   <g id="patch_345">
    <path d="M 253.3888 293.76 
L 256.330473 293.76 
L 256.330473 289.102938 
L 253.3888 289.102938 
z
" clip-path="url(#pc76c7d4a44)" style="fill: #ffe4e1"/>
   </g>
   <g id="patch_346">
    <path d="M 257.065891 293.76 
L 260.007564 293.76 
L 260.007564 289.423533 
L 257.065891 289.423533 
z
" clip-path="url(#pc76c7d4a44)" style="fill: #ffe4e1"/>
   </g>
   <g id="patch_347">
    <path d="M 260.742982 293.76 
L 263.684655 293.76 
L 263.684655 289.440407 
L 260.742982 289.440407 
z
" clip-path="url(#pc76c7d4a44)" style="fill: #ffe4e1"/>
   </g>
   <g id="patch_348">
    <path d="M 264.420073 293.76 
L 267.361745 293.76 
L 267.361745 270.204717 
L 264.420073 270.204717 
z
" clip-path="url(#pc76c7d4a44)" style="fill: #ffe4e1"/>
   </g>
   <g id="patch_349">
    <path d="M 268.097164 293.76 
L 271.038836 293.76 
L 271.038836 289.237926 
L 268.097164 289.237926 
z
" clip-path="url(#pc76c7d4a44)" style="fill: #ffe4e1"/>
   </g>
   <g id="patch_350">
    <path d="M 271.774255 293.76 
L 274.715927 293.76 
L 274.715927 289.40666 
L 271.774255 289.40666 
z
" clip-path="url(#pc76c7d4a44)" style="fill: #ffe4e1"/>
   </g>
   <g id="patch_351">
    <path d="M 275.451345 293.76 
L 278.393018 293.76 
L 278.393018 289.237926 
L 275.451345 289.237926 
z
" clip-path="url(#pc76c7d4a44)" style="fill: #ffe4e1"/>
   </g>
   <g id="patch_352">
    <path d="M 279.128436 293.76 
L 282.070109 293.76 
L 282.070109 289.474153 
L 279.128436 289.474153 
z
" clip-path="url(#pc76c7d4a44)" style="fill: #ffe4e1"/>
   </g>
   <g id="patch_353">
    <path d="M 282.805527 293.76 
L 285.7472 293.76 
L 285.7472 289.45728 
L 282.805527 289.45728 
z
" clip-path="url(#pc76c7d4a44)" style="fill: #ffe4e1"/>
   </g>
   <g id="patch_354">
    <path d="M 286.482618 293.76 
L 289.424291 293.76 
L 289.424291 289.541647 
L 286.482618 289.541647 
z
" clip-path="url(#pc76c7d4a44)" style="fill: #ffe4e1"/>
   </g>
   <g id="patch_355">
    <path d="M 290.159709 293.76 
L 293.101382 293.76 
L 293.101382 289.153559 
L 290.159709 289.153559 
z
" clip-path="url(#pc76c7d4a44)" style="fill: #ffe4e1"/>
   </g>
   <g id="patch_356">
    <path d="M 293.8368 293.76 
L 296.778473 293.76 
L 296.778473 289.40666 
L 293.8368 289.40666 
z
" clip-path="url(#pc76c7d4a44)" style="fill: #ffe4e1"/>
   </g>
   <g id="patch_357">
    <path d="M 297.513891 293.76 
L 300.455564 293.76 
L 300.455564 289.5079 
L 297.513891 289.5079 
z
" clip-path="url(#pc76c7d4a44)" style="fill: #ffe4e1"/>
   </g>
   <g id="patch_358">
    <path d="M 301.190982 293.76 
L 304.132655 293.76 
L 304.132655 289.524774 
L 301.190982 289.524774 
z
" clip-path="url(#pc76c7d4a44)" style="fill: #ffe4e1"/>
   </g>
   <g id="patch_359">
    <path d="M 304.868073 293.76 
L 307.809745 293.76 
L 307.809745 289.372913 
L 304.868073 289.372913 
z
" clip-path="url(#pc76c7d4a44)" style="fill: #ffe4e1"/>
   </g>
   <g id="patch_360">
    <path d="M 308.545164 293.76 
L 311.486836 293.76 
L 311.486836 289.423533 
L 308.545164 289.423533 
z
" clip-path="url(#pc76c7d4a44)" style="fill: #ffe4e1"/>
   </g>
   <g id="patch_361">
    <path d="M 312.222255 293.76 
L 315.163927 293.76 
L 315.163927 289.524774 
L 312.222255 289.524774 
z
" clip-path="url(#pc76c7d4a44)" style="fill: #ffe4e1"/>
   </g>
   <g id="patch_362">
    <path d="M 315.899345 293.76 
L 318.841018 293.76 
L 318.841018 289.491027 
L 315.899345 289.491027 
z
" clip-path="url(#pc76c7d4a44)" style="fill: #ffe4e1"/>
   </g>
   <g id="patch_363">
    <path d="M 319.576436 293.76 
L 322.518109 293.76 
L 322.518109 289.440407 
L 319.576436 289.440407 
z
" clip-path="url(#pc76c7d4a44)" style="fill: #ffe4e1"/>
   </g>
   <g id="patch_364">
    <path d="M 323.253527 293.76 
L 326.1952 293.76 
L 326.1952 289.45728 
L 323.253527 289.45728 
z
" clip-path="url(#pc76c7d4a44)" style="fill: #ffe4e1"/>
   </g>
   <g id="patch_365">
    <path d="M 326.930618 293.76 
L 329.872291 293.76 
L 329.872291 289.55852 
L 326.930618 289.55852 
z
" clip-path="url(#pc76c7d4a44)" style="fill: #ffe4e1"/>
   </g>
   <g id="patch_366">
    <path d="M 330.607709 293.76 
L 333.549382 293.76 
L 333.549382 289.609141 
L 330.607709 289.609141 
z
" clip-path="url(#pc76c7d4a44)" style="fill: #ffe4e1"/>
   </g>
   <g id="patch_367">
    <path d="M 334.2848 293.76 
L 337.226473 293.76 
L 337.226473 289.609141 
L 334.2848 289.609141 
z
" clip-path="url(#pc76c7d4a44)" style="fill: #ffe4e1"/>
   </g>
   <g id="patch_368">
    <path d="M 337.961891 293.76 
L 340.903564 293.76 
L 340.903564 289.626014 
L 337.961891 289.626014 
z
" clip-path="url(#pc76c7d4a44)" style="fill: #ffe4e1"/>
   </g>
   <g id="patch_369">
    <path d="M 341.638982 293.76 
L 344.580655 293.76 
L 344.580655 289.524774 
L 341.638982 289.524774 
z
" clip-path="url(#pc76c7d4a44)" style="fill: #ffe4e1"/>
   </g>
   <g id="patch_370">
    <path d="M 345.316073 293.76 
L 348.257745 293.76 
L 348.257745 289.339166 
L 345.316073 289.339166 
z
" clip-path="url(#pc76c7d4a44)" style="fill: #ffe4e1"/>
   </g>
   <g id="patch_371">
    <path d="M 348.993164 293.76 
L 351.934836 293.76 
L 351.934836 289.5079 
L 348.993164 289.5079 
z
" clip-path="url(#pc76c7d4a44)" style="fill: #ffe4e1"/>
   </g>
   <g id="patch_372">
    <path d="M 352.670255 293.76 
L 355.611927 293.76 
L 355.611927 289.474153 
L 352.670255 289.474153 
z
" clip-path="url(#pc76c7d4a44)" style="fill: #ffe4e1"/>
   </g>
   <g id="patch_373">
    <path d="M 356.347345 293.76 
L 359.289018 293.76 
L 359.289018 289.592267 
L 356.347345 289.592267 
z
" clip-path="url(#pc76c7d4a44)" style="fill: #ffe4e1"/>
   </g>
   <g id="patch_374">
    <path d="M 360.024436 293.76 
L 362.966109 293.76 
L 362.966109 289.474153 
L 360.024436 289.474153 
z
" clip-path="url(#pc76c7d4a44)" style="fill: #ffe4e1"/>
   </g>
   <g id="patch_375">
    <path d="M 363.701527 293.76 
L 366.6432 293.76 
L 366.6432 289.626014 
L 363.701527 289.626014 
z
" clip-path="url(#pc76c7d4a44)" style="fill: #ffe4e1"/>
   </g>
   <g id="patch_376">
    <path d="M 367.378618 293.76 
L 370.320291 293.76 
L 370.320291 289.592267 
L 367.378618 289.592267 
z
" clip-path="url(#pc76c7d4a44)" style="fill: #ffe4e1"/>
   </g>
   <g id="patch_377">
    <path d="M 371.055709 293.76 
L 373.997382 293.76 
L 373.997382 289.879115 
L 371.055709 289.879115 
z
" clip-path="url(#pc76c7d4a44)" style="fill: #ffe4e1"/>
   </g>
   <g id="patch_378">
    <path d="M 374.7328 293.76 
L 377.674473 293.76 
L 377.674473 289.828495 
L 374.7328 289.828495 
z
" clip-path="url(#pc76c7d4a44)" style="fill: #ffe4e1"/>
   </g>
   <g id="patch_379">
    <path d="M 378.409891 293.76 
L 381.351564 293.76 
L 381.351564 289.879115 
L 378.409891 289.879115 
z
" clip-path="url(#pc76c7d4a44)" style="fill: #ffe4e1"/>
   </g>
   <g id="patch_380">
    <path d="M 382.086982 293.76 
L 385.028655 293.76 
L 385.028655 289.777875 
L 382.086982 289.777875 
z
" clip-path="url(#pc76c7d4a44)" style="fill: #ffe4e1"/>
   </g>
   <g id="patch_381">
    <path d="M 385.764073 293.76 
L 388.705745 293.76 
L 388.705745 289.5079 
L 385.764073 289.5079 
z
" clip-path="url(#pc76c7d4a44)" style="fill: #ffe4e1"/>
   </g>
   <g id="patch_382">
    <path d="M 389.441164 293.76 
L 392.382836 293.76 
L 392.382836 289.727255 
L 389.441164 289.727255 
z
" clip-path="url(#pc76c7d4a44)" style="fill: #ffe4e1"/>
   </g>
   <g id="patch_383">
    <path d="M 393.118255 293.76 
L 396.059927 293.76 
L 396.059927 289.929736 
L 393.118255 289.929736 
z
" clip-path="url(#pc76c7d4a44)" style="fill: #ffe4e1"/>
   </g>
   <g id="patch_384">
    <path d="M 396.795345 293.76 
L 399.737018 293.76 
L 399.737018 289.845368 
L 396.795345 289.845368 
z
" clip-path="url(#pc76c7d4a44)" style="fill: #ffe4e1"/>
   </g>
   <g id="patch_385">
    <path d="M 400.472436 293.76 
L 403.414109 293.76 
L 403.414109 289.626014 
L 400.472436 289.626014 
z
" clip-path="url(#pc76c7d4a44)" style="fill: #ffe4e1"/>
   </g>
   <g id="patch_386">
    <path d="M 404.149527 293.76 
L 407.0912 293.76 
L 407.0912 289.879115 
L 404.149527 289.879115 
z
" clip-path="url(#pc76c7d4a44)" style="fill: #ffe4e1"/>
   </g>
   <g id="patch_387">
    <path d="M 407.826618 293.76 
L 410.768291 293.76 
L 410.768291 289.879115 
L 407.826618 289.879115 
z
" clip-path="url(#pc76c7d4a44)" style="fill: #ffe4e1"/>
   </g>
   <g id="patch_388">
    <path d="M 411.503709 293.76 
L 414.445382 293.76 
L 414.445382 290.030976 
L 411.503709 290.030976 
z
" clip-path="url(#pc76c7d4a44)" style="fill: #ffe4e1"/>
   </g>
   <g id="patch_389">
    <path d="M 415.1808 293.76 
L 418.122473 293.76 
L 418.122473 289.710381 
L 415.1808 289.710381 
z
" clip-path="url(#pc76c7d4a44)" style="fill: #ffe4e1"/>
   </g>
   <g id="patch_390">
    <path d="M 418.857891 293.76 
L 421.799564 293.76 
L 421.799564 289.845368 
L 418.857891 289.845368 
z
" clip-path="url(#pc76c7d4a44)" style="fill: #ffe4e1"/>
   </g>
   <g id="patch_391">
    <path d="M 422.534982 293.76 
L 425.476655 293.76 
L 425.476655 289.828495 
L 422.534982 289.828495 
z
" clip-path="url(#pc76c7d4a44)" style="fill: #ffe4e1"/>
   </g>
   <g id="patch_392">
    <path d="M 426.212073 293.76 
L 429.153745 293.76 
L 429.153745 289.828495 
L 426.212073 289.828495 
z
" clip-path="url(#pc76c7d4a44)" style="fill: #ffe4e1"/>
   </g>
   <g id="patch_393">
    <path d="M 429.889164 293.76 
L 432.830836 293.76 
L 432.830836 289.811622 
L 429.889164 289.811622 
z
" clip-path="url(#pc76c7d4a44)" style="fill: #ffe4e1"/>
   </g>
   <g id="patch_394">
    <path d="M 433.566255 293.76 
L 436.507927 293.76 
L 436.507927 290.030976 
L 433.566255 290.030976 
z
" clip-path="url(#pc76c7d4a44)" style="fill: #ffe4e1"/>
   </g>
   <g id="patch_395">
    <path d="M 437.243345 293.76 
L 440.185018 293.76 
L 440.185018 289.912862 
L 437.243345 289.912862 
z
" clip-path="url(#pc76c7d4a44)" style="fill: #ffe4e1"/>
   </g>
   <g id="patch_396">
    <path d="M 440.920436 293.76 
L 443.862109 293.76 
L 443.862109 289.963482 
L 440.920436 289.963482 
z
" clip-path="url(#pc76c7d4a44)" style="fill: #ffe4e1"/>
   </g>
   <g id="patch_397">
    <path d="M 444.597527 293.76 
L 447.5392 293.76 
L 447.5392 290.014103 
L 444.597527 290.014103 
z
" clip-path="url(#pc76c7d4a44)" style="fill: #ffe4e1"/>
   </g>
   <g id="patch_398">
    <path d="M 448.274618 293.76 
L 451.216291 293.76 
L 451.216291 289.929736 
L 448.274618 289.929736 
z
" clip-path="url(#pc76c7d4a44)" style="fill: #ffe4e1"/>
   </g>
   <g id="matplotlib.axis_1">
    <g id="xtick_1">
     <g id="line2d_1">
      <path d="M 159.255273 293.76 
L 159.255273 6.912 
" clip-path="url(#pc76c7d4a44)" style="fill: none; stroke: #b0b0b0; stroke-width: 0.8; stroke-linecap: square"/>
     </g>
     <g id="line2d_2">
      <defs>
       <path id="me5a846da8c" d="M 0 0 
L 0 3.5 
" style="stroke: #000000; stroke-width: 0.8"/>
      </defs>
      <g>
       <use xlink:href="#me5a846da8c" x="159.255273" y="293.76" style="stroke: #000000; stroke-width: 0.8"/>
      </g>
     </g>
     <g id="text_1">
      <!-- 20 -->
      <g transform="translate(146.530273 315.956875) scale(0.2 -0.2)">
       <defs>
        <path id="DejaVuSans-32" d="M 1228 531 
L 3431 531 
L 3431 0 
L 469 0 
L 469 531 
Q 828 903 1448 1529 
Q 2069 2156 2228 2338 
Q 2531 2678 2651 2914 
Q 2772 3150 2772 3378 
Q 2772 3750 2511 3984 
Q 2250 4219 1831 4219 
Q 1534 4219 1204 4116 
Q 875 4013 500 3803 
L 500 4441 
Q 881 4594 1212 4672 
Q 1544 4750 1819 4750 
Q 2544 4750 2975 4387 
Q 3406 4025 3406 3419 
Q 3406 3131 3298 2873 
Q 3191 2616 2906 2266 
Q 2828 2175 2409 1742 
Q 1991 1309 1228 531 
z
" transform="scale(0.015625)"/>
        <path id="DejaVuSans-30" d="M 2034 4250 
Q 1547 4250 1301 3770 
Q 1056 3291 1056 2328 
Q 1056 1369 1301 889 
Q 1547 409 2034 409 
Q 2525 409 2770 889 
Q 3016 1369 3016 2328 
Q 3016 3291 2770 3770 
Q 2525 4250 2034 4250 
z
M 2034 4750 
Q 2819 4750 3233 4129 
Q 3647 3509 3647 2328 
Q 3647 1150 3233 529 
Q 2819 -91 2034 -91 
Q 1250 -91 836 529 
Q 422 1150 422 2328 
Q 422 3509 836 4129 
Q 1250 4750 2034 4750 
z
" transform="scale(0.015625)"/>
       </defs>
       <use xlink:href="#DejaVuSans-32"/>
       <use xlink:href="#DejaVuSans-30" x="63.623047"/>
      </g>
     </g>
    </g>
    <g id="xtick_2">
     <g id="line2d_3">
      <path d="M 232.797091 293.76 
L 232.797091 6.912 
" clip-path="url(#pc76c7d4a44)" style="fill: none; stroke: #b0b0b0; stroke-width: 0.8; stroke-linecap: square"/>
     </g>
     <g id="line2d_4">
      <g>
       <use xlink:href="#me5a846da8c" x="232.797091" y="293.76" style="stroke: #000000; stroke-width: 0.8"/>
      </g>
     </g>
     <g id="text_2">
      <!-- 40 -->
      <g transform="translate(220.072091 315.956875) scale(0.2 -0.2)">
       <defs>
        <path id="DejaVuSans-34" d="M 2419 4116 
L 825 1625 
L 2419 1625 
L 2419 4116 
z
M 2253 4666 
L 3047 4666 
L 3047 1625 
L 3713 1625 
L 3713 1100 
L 3047 1100 
L 3047 0 
L 2419 0 
L 2419 1100 
L 313 1100 
L 313 1709 
L 2253 4666 
z
" transform="scale(0.015625)"/>
       </defs>
       <use xlink:href="#DejaVuSans-34"/>
       <use xlink:href="#DejaVuSans-30" x="63.623047"/>
      </g>
     </g>
    </g>
    <g id="xtick_3">
     <g id="line2d_5">
      <path d="M 306.338909 293.76 
L 306.338909 6.912 
" clip-path="url(#pc76c7d4a44)" style="fill: none; stroke: #b0b0b0; stroke-width: 0.8; stroke-linecap: square"/>
     </g>
     <g id="line2d_6">
      <g>
       <use xlink:href="#me5a846da8c" x="306.338909" y="293.76" style="stroke: #000000; stroke-width: 0.8"/>
      </g>
     </g>
     <g id="text_3">
      <!-- 60 -->
      <g transform="translate(293.613909 315.956875) scale(0.2 -0.2)">
       <defs>
        <path id="DejaVuSans-36" d="M 2113 2584 
Q 1688 2584 1439 2293 
Q 1191 2003 1191 1497 
Q 1191 994 1439 701 
Q 1688 409 2113 409 
Q 2538 409 2786 701 
Q 3034 994 3034 1497 
Q 3034 2003 2786 2293 
Q 2538 2584 2113 2584 
z
M 3366 4563 
L 3366 3988 
Q 3128 4100 2886 4159 
Q 2644 4219 2406 4219 
Q 1781 4219 1451 3797 
Q 1122 3375 1075 2522 
Q 1259 2794 1537 2939 
Q 1816 3084 2150 3084 
Q 2853 3084 3261 2657 
Q 3669 2231 3669 1497 
Q 3669 778 3244 343 
Q 2819 -91 2113 -91 
Q 1303 -91 875 529 
Q 447 1150 447 2328 
Q 447 3434 972 4092 
Q 1497 4750 2381 4750 
Q 2619 4750 2861 4703 
Q 3103 4656 3366 4563 
z
" transform="scale(0.015625)"/>
       </defs>
       <use xlink:href="#DejaVuSans-36"/>
       <use xlink:href="#DejaVuSans-30" x="63.623047"/>
      </g>
     </g>
    </g>
    <g id="xtick_4">
     <g id="line2d_7">
      <path d="M 379.880727 293.76 
L 379.880727 6.912 
" clip-path="url(#pc76c7d4a44)" style="fill: none; stroke: #b0b0b0; stroke-width: 0.8; stroke-linecap: square"/>
     </g>
     <g id="line2d_8">
      <g>
       <use xlink:href="#me5a846da8c" x="379.880727" y="293.76" style="stroke: #000000; stroke-width: 0.8"/>
      </g>
     </g>
     <g id="text_4">
      <!-- 80 -->
      <g transform="translate(367.155727 315.956875) scale(0.2 -0.2)">
       <defs>
        <path id="DejaVuSans-38" d="M 2034 2216 
Q 1584 2216 1326 1975 
Q 1069 1734 1069 1313 
Q 1069 891 1326 650 
Q 1584 409 2034 409 
Q 2484 409 2743 651 
Q 3003 894 3003 1313 
Q 3003 1734 2745 1975 
Q 2488 2216 2034 2216 
z
M 1403 2484 
Q 997 2584 770 2862 
Q 544 3141 544 3541 
Q 544 4100 942 4425 
Q 1341 4750 2034 4750 
Q 2731 4750 3128 4425 
Q 3525 4100 3525 3541 
Q 3525 3141 3298 2862 
Q 3072 2584 2669 2484 
Q 3125 2378 3379 2068 
Q 3634 1759 3634 1313 
Q 3634 634 3220 271 
Q 2806 -91 2034 -91 
Q 1263 -91 848 271 
Q 434 634 434 1313 
Q 434 1759 690 2068 
Q 947 2378 1403 2484 
z
M 1172 3481 
Q 1172 3119 1398 2916 
Q 1625 2713 2034 2713 
Q 2441 2713 2670 2916 
Q 2900 3119 2900 3481 
Q 2900 3844 2670 4047 
Q 2441 4250 2034 4250 
Q 1625 4250 1398 4047 
Q 1172 3844 1172 3481 
z
" transform="scale(0.015625)"/>
       </defs>
       <use xlink:href="#DejaVuSans-38"/>
       <use xlink:href="#DejaVuSans-30" x="63.623047"/>
      </g>
     </g>
    </g>
    <g id="text_5">
     <!-- batch iteration -->
     <g transform="translate(203.277375 337.793437) scale(0.18 -0.18)">
      <defs>
       <path id="DejaVuSans-62" d="M 3116 1747 
Q 3116 2381 2855 2742 
Q 2594 3103 2138 3103 
Q 1681 3103 1420 2742 
Q 1159 2381 1159 1747 
Q 1159 1113 1420 752 
Q 1681 391 2138 391 
Q 2594 391 2855 752 
Q 3116 1113 3116 1747 
z
M 1159 2969 
Q 1341 3281 1617 3432 
Q 1894 3584 2278 3584 
Q 2916 3584 3314 3078 
Q 3713 2572 3713 1747 
Q 3713 922 3314 415 
Q 2916 -91 2278 -91 
Q 1894 -91 1617 61 
Q 1341 213 1159 525 
L 1159 0 
L 581 0 
L 581 4863 
L 1159 4863 
L 1159 2969 
z
" transform="scale(0.015625)"/>
       <path id="DejaVuSans-61" d="M 2194 1759 
Q 1497 1759 1228 1600 
Q 959 1441 959 1056 
Q 959 750 1161 570 
Q 1363 391 1709 391 
Q 2188 391 2477 730 
Q 2766 1069 2766 1631 
L 2766 1759 
L 2194 1759 
z
M 3341 1997 
L 3341 0 
L 2766 0 
L 2766 531 
Q 2569 213 2275 61 
Q 1981 -91 1556 -91 
Q 1019 -91 701 211 
Q 384 513 384 1019 
Q 384 1609 779 1909 
Q 1175 2209 1959 2209 
L 2766 2209 
L 2766 2266 
Q 2766 2663 2505 2880 
Q 2244 3097 1772 3097 
Q 1472 3097 1187 3025 
Q 903 2953 641 2809 
L 641 3341 
Q 956 3463 1253 3523 
Q 1550 3584 1831 3584 
Q 2591 3584 2966 3190 
Q 3341 2797 3341 1997 
z
" transform="scale(0.015625)"/>
       <path id="DejaVuSans-74" d="M 1172 4494 
L 1172 3500 
L 2356 3500 
L 2356 3053 
L 1172 3053 
L 1172 1153 
Q 1172 725 1289 603 
Q 1406 481 1766 481 
L 2356 481 
L 2356 0 
L 1766 0 
Q 1100 0 847 248 
Q 594 497 594 1153 
L 594 3053 
L 172 3053 
L 172 3500 
L 594 3500 
L 594 4494 
L 1172 4494 
z
" transform="scale(0.015625)"/>
       <path id="DejaVuSans-63" d="M 3122 3366 
L 3122 2828 
Q 2878 2963 2633 3030 
Q 2388 3097 2138 3097 
Q 1578 3097 1268 2742 
Q 959 2388 959 1747 
Q 959 1106 1268 751 
Q 1578 397 2138 397 
Q 2388 397 2633 464 
Q 2878 531 3122 666 
L 3122 134 
Q 2881 22 2623 -34 
Q 2366 -91 2075 -91 
Q 1284 -91 818 406 
Q 353 903 353 1747 
Q 353 2603 823 3093 
Q 1294 3584 2113 3584 
Q 2378 3584 2631 3529 
Q 2884 3475 3122 3366 
z
" transform="scale(0.015625)"/>
       <path id="DejaVuSans-68" d="M 3513 2113 
L 3513 0 
L 2938 0 
L 2938 2094 
Q 2938 2591 2744 2837 
Q 2550 3084 2163 3084 
Q 1697 3084 1428 2787 
Q 1159 2491 1159 1978 
L 1159 0 
L 581 0 
L 581 4863 
L 1159 4863 
L 1159 2956 
Q 1366 3272 1645 3428 
Q 1925 3584 2291 3584 
Q 2894 3584 3203 3211 
Q 3513 2838 3513 2113 
z
" transform="scale(0.015625)"/>
       <path id="DejaVuSans-20" transform="scale(0.015625)"/>
       <path id="DejaVuSans-69" d="M 603 3500 
L 1178 3500 
L 1178 0 
L 603 0 
L 603 3500 
z
M 603 4863 
L 1178 4863 
L 1178 4134 
L 603 4134 
L 603 4863 
z
" transform="scale(0.015625)"/>
       <path id="DejaVuSans-65" d="M 3597 1894 
L 3597 1613 
L 953 1613 
Q 991 1019 1311 708 
Q 1631 397 2203 397 
Q 2534 397 2845 478 
Q 3156 559 3463 722 
L 3463 178 
Q 3153 47 2828 -22 
Q 2503 -91 2169 -91 
Q 1331 -91 842 396 
Q 353 884 353 1716 
Q 353 2575 817 3079 
Q 1281 3584 2069 3584 
Q 2775 3584 3186 3129 
Q 3597 2675 3597 1894 
z
M 3022 2063 
Q 3016 2534 2758 2815 
Q 2500 3097 2075 3097 
Q 1594 3097 1305 2825 
Q 1016 2553 972 2059 
L 3022 2063 
z
" transform="scale(0.015625)"/>
       <path id="DejaVuSans-72" d="M 2631 2963 
Q 2534 3019 2420 3045 
Q 2306 3072 2169 3072 
Q 1681 3072 1420 2755 
Q 1159 2438 1159 1844 
L 1159 0 
L 581 0 
L 581 3500 
L 1159 3500 
L 1159 2956 
Q 1341 3275 1631 3429 
Q 1922 3584 2338 3584 
Q 2397 3584 2469 3576 
Q 2541 3569 2628 3553 
L 2631 2963 
z
" transform="scale(0.015625)"/>
       <path id="DejaVuSans-6f" d="M 1959 3097 
Q 1497 3097 1228 2736 
Q 959 2375 959 1747 
Q 959 1119 1226 758 
Q 1494 397 1959 397 
Q 2419 397 2687 759 
Q 2956 1122 2956 1747 
Q 2956 2369 2687 2733 
Q 2419 3097 1959 3097 
z
M 1959 3584 
Q 2709 3584 3137 3096 
Q 3566 2609 3566 1747 
Q 3566 888 3137 398 
Q 2709 -91 1959 -91 
Q 1206 -91 779 398 
Q 353 888 353 1747 
Q 353 2609 779 3096 
Q 1206 3584 1959 3584 
z
" transform="scale(0.015625)"/>
       <path id="DejaVuSans-6e" d="M 3513 2113 
L 3513 0 
L 2938 0 
L 2938 2094 
Q 2938 2591 2744 2837 
Q 2550 3084 2163 3084 
Q 1697 3084 1428 2787 
Q 1159 2491 1159 1978 
L 1159 0 
L 581 0 
L 581 3500 
L 1159 3500 
L 1159 2956 
Q 1366 3272 1645 3428 
Q 1925 3584 2291 3584 
Q 2894 3584 3203 3211 
Q 3513 2838 3513 2113 
z
" transform="scale(0.015625)"/>
      </defs>
      <use xlink:href="#DejaVuSans-62"/>
      <use xlink:href="#DejaVuSans-61" x="63.476562"/>
      <use xlink:href="#DejaVuSans-74" x="124.755859"/>
      <use xlink:href="#DejaVuSans-63" x="163.964844"/>
      <use xlink:href="#DejaVuSans-68" x="218.945312"/>
      <use xlink:href="#DejaVuSans-20" x="282.324219"/>
      <use xlink:href="#DejaVuSans-69" x="314.111328"/>
      <use xlink:href="#DejaVuSans-74" x="341.894531"/>
      <use xlink:href="#DejaVuSans-65" x="381.103516"/>
      <use xlink:href="#DejaVuSans-72" x="442.626953"/>
      <use xlink:href="#DejaVuSans-61" x="483.740234"/>
      <use xlink:href="#DejaVuSans-74" x="545.019531"/>
      <use xlink:href="#DejaVuSans-69" x="584.228516"/>
      <use xlink:href="#DejaVuSans-6f" x="612.011719"/>
      <use xlink:href="#DejaVuSans-6e" x="673.193359"/>
     </g>
    </g>
   </g>
   <g id="matplotlib.axis_2">
    <g id="ytick_1">
     <g id="line2d_9">
      <path d="M 87.552 293.76 
L 451.584 293.76 
" clip-path="url(#pc76c7d4a44)" style="fill: none; stroke: #b0b0b0; stroke-width: 0.8; stroke-linecap: square"/>
     </g>
     <g id="line2d_10">
      <defs>
       <path id="m99685011ad" d="M 0 0 
L -3.5 0 
" style="stroke: #000000; stroke-width: 0.8"/>
      </defs>
      <g>
       <use xlink:href="#m99685011ad" x="87.552" y="293.76" style="stroke: #000000; stroke-width: 0.8"/>
      </g>
     </g>
     <g id="text_6">
      <!-- 0.000 -->
      <g transform="translate(23.29575 301.358437) scale(0.2 -0.2)">
       <defs>
        <path id="DejaVuSans-2e" d="M 684 794 
L 1344 794 
L 1344 0 
L 684 0 
L 684 794 
z
" transform="scale(0.015625)"/>
       </defs>
       <use xlink:href="#DejaVuSans-30"/>
       <use xlink:href="#DejaVuSans-2e" x="63.623047"/>
       <use xlink:href="#DejaVuSans-30" x="95.410156"/>
       <use xlink:href="#DejaVuSans-30" x="159.033203"/>
       <use xlink:href="#DejaVuSans-30" x="222.65625"/>
      </g>
     </g>
    </g>
    <g id="ytick_2">
     <g id="line2d_11">
      <path d="M 87.552 251.576471 
L 451.584 251.576471 
" clip-path="url(#pc76c7d4a44)" style="fill: none; stroke: #b0b0b0; stroke-width: 0.8; stroke-linecap: square"/>
     </g>
     <g id="line2d_12">
      <g>
       <use xlink:href="#m99685011ad" x="87.552" y="251.576471" style="stroke: #000000; stroke-width: 0.8"/>
      </g>
     </g>
     <g id="text_7">
      <!-- 0.025 -->
      <g transform="translate(23.29575 259.174908) scale(0.2 -0.2)">
       <defs>
        <path id="DejaVuSans-35" d="M 691 4666 
L 3169 4666 
L 3169 4134 
L 1269 4134 
L 1269 2991 
Q 1406 3038 1543 3061 
Q 1681 3084 1819 3084 
Q 2600 3084 3056 2656 
Q 3513 2228 3513 1497 
Q 3513 744 3044 326 
Q 2575 -91 1722 -91 
Q 1428 -91 1123 -41 
Q 819 9 494 109 
L 494 744 
Q 775 591 1075 516 
Q 1375 441 1709 441 
Q 2250 441 2565 725 
Q 2881 1009 2881 1497 
Q 2881 1984 2565 2268 
Q 2250 2553 1709 2553 
Q 1456 2553 1204 2497 
Q 953 2441 691 2322 
L 691 4666 
z
" transform="scale(0.015625)"/>
       </defs>
       <use xlink:href="#DejaVuSans-30"/>
       <use xlink:href="#DejaVuSans-2e" x="63.623047"/>
       <use xlink:href="#DejaVuSans-30" x="95.410156"/>
       <use xlink:href="#DejaVuSans-32" x="159.033203"/>
       <use xlink:href="#DejaVuSans-35" x="222.65625"/>
      </g>
     </g>
    </g>
    <g id="ytick_3">
     <g id="line2d_13">
      <path d="M 87.552 209.392941 
L 451.584 209.392941 
" clip-path="url(#pc76c7d4a44)" style="fill: none; stroke: #b0b0b0; stroke-width: 0.8; stroke-linecap: square"/>
     </g>
     <g id="line2d_14">
      <g>
       <use xlink:href="#m99685011ad" x="87.552" y="209.392941" style="stroke: #000000; stroke-width: 0.8"/>
      </g>
     </g>
     <g id="text_8">
      <!-- 0.050 -->
      <g transform="translate(23.29575 216.991379) scale(0.2 -0.2)">
       <use xlink:href="#DejaVuSans-30"/>
       <use xlink:href="#DejaVuSans-2e" x="63.623047"/>
       <use xlink:href="#DejaVuSans-30" x="95.410156"/>
       <use xlink:href="#DejaVuSans-35" x="159.033203"/>
       <use xlink:href="#DejaVuSans-30" x="222.65625"/>
      </g>
     </g>
    </g>
    <g id="ytick_4">
     <g id="line2d_15">
      <path d="M 87.552 167.209412 
L 451.584 167.209412 
" clip-path="url(#pc76c7d4a44)" style="fill: none; stroke: #b0b0b0; stroke-width: 0.8; stroke-linecap: square"/>
     </g>
     <g id="line2d_16">
      <g>
       <use xlink:href="#m99685011ad" x="87.552" y="167.209412" style="stroke: #000000; stroke-width: 0.8"/>
      </g>
     </g>
     <g id="text_9">
      <!-- 0.075 -->
      <g transform="translate(23.29575 174.807849) scale(0.2 -0.2)">
       <defs>
        <path id="DejaVuSans-37" d="M 525 4666 
L 3525 4666 
L 3525 4397 
L 1831 0 
L 1172 0 
L 2766 4134 
L 525 4134 
L 525 4666 
z
" transform="scale(0.015625)"/>
       </defs>
       <use xlink:href="#DejaVuSans-30"/>
       <use xlink:href="#DejaVuSans-2e" x="63.623047"/>
       <use xlink:href="#DejaVuSans-30" x="95.410156"/>
       <use xlink:href="#DejaVuSans-37" x="159.033203"/>
       <use xlink:href="#DejaVuSans-35" x="222.65625"/>
      </g>
     </g>
    </g>
    <g id="ytick_5">
     <g id="line2d_17">
      <path d="M 87.552 125.025882 
L 451.584 125.025882 
" clip-path="url(#pc76c7d4a44)" style="fill: none; stroke: #b0b0b0; stroke-width: 0.8; stroke-linecap: square"/>
     </g>
     <g id="line2d_18">
      <g>
       <use xlink:href="#m99685011ad" x="87.552" y="125.025882" style="stroke: #000000; stroke-width: 0.8"/>
      </g>
     </g>
     <g id="text_10">
      <!-- 0.100 -->
      <g transform="translate(23.29575 132.62432) scale(0.2 -0.2)">
       <defs>
        <path id="DejaVuSans-31" d="M 794 531 
L 1825 531 
L 1825 4091 
L 703 3866 
L 703 4441 
L 1819 4666 
L 2450 4666 
L 2450 531 
L 3481 531 
L 3481 0 
L 794 0 
L 794 531 
z
" transform="scale(0.015625)"/>
       </defs>
       <use xlink:href="#DejaVuSans-30"/>
       <use xlink:href="#DejaVuSans-2e" x="63.623047"/>
       <use xlink:href="#DejaVuSans-31" x="95.410156"/>
       <use xlink:href="#DejaVuSans-30" x="159.033203"/>
       <use xlink:href="#DejaVuSans-30" x="222.65625"/>
      </g>
     </g>
    </g>
    <g id="ytick_6">
     <g id="line2d_19">
      <path d="M 87.552 82.842353 
L 451.584 82.842353 
" clip-path="url(#pc76c7d4a44)" style="fill: none; stroke: #b0b0b0; stroke-width: 0.8; stroke-linecap: square"/>
     </g>
     <g id="line2d_20">
      <g>
       <use xlink:href="#m99685011ad" x="87.552" y="82.842353" style="stroke: #000000; stroke-width: 0.8"/>
      </g>
     </g>
     <g id="text_11">
      <!-- 0.125 -->
      <g transform="translate(23.29575 90.44079) scale(0.2 -0.2)">
       <use xlink:href="#DejaVuSans-30"/>
       <use xlink:href="#DejaVuSans-2e" x="63.623047"/>
       <use xlink:href="#DejaVuSans-31" x="95.410156"/>
       <use xlink:href="#DejaVuSans-32" x="159.033203"/>
       <use xlink:href="#DejaVuSans-35" x="222.65625"/>
      </g>
     </g>
    </g>
    <g id="ytick_7">
     <g id="line2d_21">
      <path d="M 87.552 40.658824 
L 451.584 40.658824 
" clip-path="url(#pc76c7d4a44)" style="fill: none; stroke: #b0b0b0; stroke-width: 0.8; stroke-linecap: square"/>
     </g>
     <g id="line2d_22">
      <g>
       <use xlink:href="#m99685011ad" x="87.552" y="40.658824" style="stroke: #000000; stroke-width: 0.8"/>
      </g>
     </g>
     <g id="text_12">
      <!-- 0.150 -->
      <g transform="translate(23.29575 48.257261) scale(0.2 -0.2)">
       <use xlink:href="#DejaVuSans-30"/>
       <use xlink:href="#DejaVuSans-2e" x="63.623047"/>
       <use xlink:href="#DejaVuSans-31" x="95.410156"/>
       <use xlink:href="#DejaVuSans-35" x="159.033203"/>
       <use xlink:href="#DejaVuSans-30" x="222.65625"/>
      </g>
     </g>
    </g>
    <g id="text_13">
     <!-- time[s] -->
     <g transform="translate(15.552313 182.380219) rotate(-90) scale(0.18 -0.18)">
      <defs>
       <path id="DejaVuSans-6d" d="M 3328 2828 
Q 3544 3216 3844 3400 
Q 4144 3584 4550 3584 
Q 5097 3584 5394 3201 
Q 5691 2819 5691 2113 
L 5691 0 
L 5113 0 
L 5113 2094 
Q 5113 2597 4934 2840 
Q 4756 3084 4391 3084 
Q 3944 3084 3684 2787 
Q 3425 2491 3425 1978 
L 3425 0 
L 2847 0 
L 2847 2094 
Q 2847 2600 2669 2842 
Q 2491 3084 2119 3084 
Q 1678 3084 1418 2786 
Q 1159 2488 1159 1978 
L 1159 0 
L 581 0 
L 581 3500 
L 1159 3500 
L 1159 2956 
Q 1356 3278 1631 3431 
Q 1906 3584 2284 3584 
Q 2666 3584 2933 3390 
Q 3200 3197 3328 2828 
z
" transform="scale(0.015625)"/>
       <path id="DejaVuSans-5b" d="M 550 4863 
L 1875 4863 
L 1875 4416 
L 1125 4416 
L 1125 -397 
L 1875 -397 
L 1875 -844 
L 550 -844 
L 550 4863 
z
" transform="scale(0.015625)"/>
       <path id="DejaVuSans-73" d="M 2834 3397 
L 2834 2853 
Q 2591 2978 2328 3040 
Q 2066 3103 1784 3103 
Q 1356 3103 1142 2972 
Q 928 2841 928 2578 
Q 928 2378 1081 2264 
Q 1234 2150 1697 2047 
L 1894 2003 
Q 2506 1872 2764 1633 
Q 3022 1394 3022 966 
Q 3022 478 2636 193 
Q 2250 -91 1575 -91 
Q 1294 -91 989 -36 
Q 684 19 347 128 
L 347 722 
Q 666 556 975 473 
Q 1284 391 1588 391 
Q 1994 391 2212 530 
Q 2431 669 2431 922 
Q 2431 1156 2273 1281 
Q 2116 1406 1581 1522 
L 1381 1569 
Q 847 1681 609 1914 
Q 372 2147 372 2553 
Q 372 3047 722 3315 
Q 1072 3584 1716 3584 
Q 2034 3584 2315 3537 
Q 2597 3491 2834 3397 
z
" transform="scale(0.015625)"/>
       <path id="DejaVuSans-5d" d="M 1947 4863 
L 1947 -844 
L 622 -844 
L 622 -397 
L 1369 -397 
L 1369 4416 
L 622 4416 
L 622 4863 
L 1947 4863 
z
" transform="scale(0.015625)"/>
      </defs>
      <use xlink:href="#DejaVuSans-74"/>
      <use xlink:href="#DejaVuSans-69" x="39.208984"/>
      <use xlink:href="#DejaVuSans-6d" x="66.992188"/>
      <use xlink:href="#DejaVuSans-65" x="164.404297"/>
      <use xlink:href="#DejaVuSans-5b" x="225.927734"/>
      <use xlink:href="#DejaVuSans-73" x="264.941406"/>
      <use xlink:href="#DejaVuSans-5d" x="317.041016"/>
     </g>
    </g>
   </g>
   <g id="patch_399">
    <path d="M 87.552 293.76 
L 87.552 6.912 
" style="fill: none; stroke: #000000; stroke-width: 0.8; stroke-linejoin: miter; stroke-linecap: square"/>
   </g>
   <g id="patch_400">
    <path d="M 451.584 293.76 
L 451.584 6.912 
" style="fill: none; stroke: #000000; stroke-width: 0.8; stroke-linejoin: miter; stroke-linecap: square"/>
   </g>
   <g id="patch_401">
    <path d="M 87.552 293.76 
L 451.584 293.76 
" style="fill: none; stroke: #000000; stroke-width: 0.8; stroke-linejoin: miter; stroke-linecap: square"/>
   </g>
   <g id="patch_402">
    <path d="M 87.552 6.912 
L 451.584 6.912 
" style="fill: none; stroke: #000000; stroke-width: 0.8; stroke-linejoin: miter; stroke-linecap: square"/>
   </g>
  </g>
 </g>
 <defs>
  <clipPath id="pc76c7d4a44">
   <rect x="87.552" y="6.912" width="364.032" height="286.848"/>
  </clipPath>
 </defs>
</svg>
