<?xml version="1.0" encoding="utf-8" standalone="no"?>
<!DOCTYPE svg PUBLIC "-//W3C//DTD SVG 1.1//EN"
  "http://www.w3.org/Graphics/SVG/1.1/DTD/svg11.dtd">
<svg xmlns:xlink="http://www.w3.org/1999/xlink" width="460.8pt" height="345.6pt" viewBox="0 0 460.8 345.6" xmlns="http://www.w3.org/2000/svg" version="1.1">
 <metadata>
  <rdf:RDF xmlns:dc="http://purl.org/dc/elements/1.1/" xmlns:cc="http://creativecommons.org/ns#" xmlns:rdf="http://www.w3.org/1999/02/22-rdf-syntax-ns#">
   <cc:Work>
    <dc:type rdf:resource="http://purl.org/dc/dcmitype/StillImage"/>
    <dc:date>2024-02-14T09:04:01.492400</dc:date>
    <dc:format>image/svg+xml</dc:format>
    <dc:creator>
     <cc:Agent>
      <dc:title>Matplotlib v3.7.0, https://matplotlib.org/</dc:title>
     </cc:Agent>
    </dc:creator>
   </cc:Work>
  </rdf:RDF>
 </metadata>
 <defs>
  <style type="text/css">*{stroke-linejoin: round; stroke-linecap: butt}</style>
 </defs>
 <g id="figure_1">
  <g id="patch_1">
   <path d="M 0 345.6 
L 460.8 345.6 
L 460.8 0 
L 0 0 
L 0 345.6 
z
" style="fill: none"/>
  </g>
  <g id="axes_1">
   <g id="patch_2">
    <path d="M 87.552 293.76 
L 451.584 293.76 
L 451.584 6.912 
L 87.552 6.912 
L 87.552 293.76 
z
" style="fill: none"/>
   </g>
   <g id="patch_3">
    <path d="M 87.919709 230.535326 
L 90.861382 230.535326 
L 90.861382 220.276292 
L 87.919709 220.276292 
z
" clip-path="url(#p507e692b9e)" style="fill: #800000"/>
   </g>
   <g id="patch_4">
    <path d="M 91.5968 228.122428 
L 94.538473 228.122428 
L 94.538473 217.677786 
L 91.5968 217.677786 
z
" clip-path="url(#p507e692b9e)" style="fill: #800000"/>
   </g>
   <g id="patch_5">
    <path d="M 95.273891 229.16858 
L 98.215564 229.16858 
L 98.215564 219.162647 
L 95.273891 219.162647 
z
" clip-path="url(#p507e692b9e)" style="fill: #800000"/>
   </g>
   <g id="patch_6">
    <path d="M 98.950982 228.257416 
L 101.892655 228.257416 
L 101.892655 217.340318 
L 98.950982 217.340318 
z
" clip-path="url(#p507e692b9e)" style="fill: #800000"/>
   </g>
   <g id="patch_7">
    <path d="M 102.628073 228.52739 
L 105.569745 228.52739 
L 105.569745 217.593419 
L 102.628073 217.593419 
z
" clip-path="url(#p507e692b9e)" style="fill: #800000"/>
   </g>
   <g id="patch_8">
    <path d="M 106.305164 230.045997 
L 109.246836 230.045997 
L 109.246836 220.428152 
L 106.305164 220.428152 
z
" clip-path="url(#p507e692b9e)" style="fill: #800000"/>
   </g>
   <g id="patch_9">
    <path d="M 109.982255 228.999846 
L 112.923927 228.999846 
L 112.923927 219.112026 
L 109.982255 219.112026 
z
" clip-path="url(#p507e692b9e)" style="fill: #800000"/>
   </g>
   <g id="patch_10">
    <path d="M 113.659345 228.932352 
L 116.601018 228.932352 
L 116.601018 218.740811 
L 113.659345 218.740811 
z
" clip-path="url(#p507e692b9e)" style="fill: #800000"/>
   </g>
   <g id="patch_11">
    <path d="M 117.336436 219.651976 
L 120.278109 219.651976 
L 120.278109 210.185992 
L 117.336436 210.185992 
z
" clip-path="url(#p507e692b9e)" style="fill: #800000"/>
   </g>
   <g id="patch_12">
    <path d="M 121.013527 227.430618 
L 123.9552 227.430618 
L 123.9552 216.395407 
L 121.013527 216.395407 
z
" clip-path="url(#p507e692b9e)" style="fill: #800000"/>
   </g>
   <g id="patch_13">
    <path d="M 124.690618 232.239541 
L 127.632291 232.239541 
L 127.632291 220.968102 
L 124.690618 220.968102 
z
" clip-path="url(#p507e692b9e)" style="fill: #800000"/>
   </g>
   <g id="patch_14">
    <path d="M 128.367709 227.666846 
L 131.309382 227.666846 
L 131.309382 216.378534 
L 128.367709 216.378534 
z
" clip-path="url(#p507e692b9e)" style="fill: #800000"/>
   </g>
   <g id="patch_15">
    <path d="M 132.0448 231.682718 
L 134.986473 231.682718 
L 134.986473 220.310039 
L 132.0448 220.310039 
z
" clip-path="url(#p507e692b9e)" style="fill: #800000"/>
   </g>
   <g id="patch_16">
    <path d="M 135.721891 226.620695 
L 138.663564 226.620695 
L 138.663564 215.366129 
L 135.721891 215.366129 
z
" clip-path="url(#p507e692b9e)" style="fill: #800000"/>
   </g>
   <g id="patch_17">
    <path d="M 139.398982 231.632098 
L 142.340655 231.632098 
L 142.340655 221.153709 
L 139.398982 221.153709 
z
" clip-path="url(#p507e692b9e)" style="fill: #800000"/>
   </g>
   <g id="patch_18">
    <path d="M 143.076073 227.211264 
L 146.017745 227.211264 
L 146.017745 216.682255 
L 143.076073 216.682255 
z
" clip-path="url(#p507e692b9e)" style="fill: #800000"/>
   </g>
   <g id="patch_19">
    <path d="M 146.753164 226.806302 
L 149.694836 226.806302 
L 149.694836 216.243546 
L 146.753164 216.243546 
z
" clip-path="url(#p507e692b9e)" style="fill: #800000"/>
   </g>
   <g id="patch_20">
    <path d="M 150.430255 227.312504 
L 153.371927 227.312504 
L 153.371927 216.564141 
L 150.430255 216.564141 
z
" clip-path="url(#p507e692b9e)" style="fill: #800000"/>
   </g>
   <g id="patch_21">
    <path d="M 154.107345 226.721935 
L 157.049018 226.721935 
L 157.049018 216.192926 
L 154.107345 216.192926 
z
" clip-path="url(#p507e692b9e)" style="fill: #800000"/>
   </g>
   <g id="patch_22">
    <path d="M 157.784436 220.833114 
L 160.726109 220.833114 
L 160.726109 209.527928 
L 157.784436 209.527928 
z
" clip-path="url(#p507e692b9e)" style="fill: #800000"/>
   </g>
   <g id="patch_23">
    <path d="M 161.461527 226.856922 
L 164.4032 226.856922 
L 164.4032 215.737344 
L 161.461527 215.737344 
z
" clip-path="url(#p507e692b9e)" style="fill: #800000"/>
   </g>
   <g id="patch_24">
    <path d="M 165.138618 227.14377 
L 168.080291 227.14377 
L 168.080291 215.467369 
L 165.138618 215.467369 
z
" clip-path="url(#p507e692b9e)" style="fill: #800000"/>
   </g>
   <g id="patch_25">
    <path d="M 168.815709 226.823176 
L 171.757382 226.823176 
L 171.757382 214.573079 
L 168.815709 214.573079 
z
" clip-path="url(#p507e692b9e)" style="fill: #800000"/>
   </g>
   <g id="patch_26">
    <path d="M 172.4928 227.498112 
L 175.434473 227.498112 
L 175.434473 217.019723 
L 172.4928 217.019723 
z
" clip-path="url(#p507e692b9e)" style="fill: #800000"/>
   </g>
   <g id="patch_27">
    <path d="M 176.169891 226.553201 
L 179.111564 226.553201 
L 179.111564 215.315509 
L 176.169891 215.315509 
z
" clip-path="url(#p507e692b9e)" style="fill: #800000"/>
   </g>
   <g id="patch_28">
    <path d="M 179.846982 226.671315 
L 182.788655 226.671315 
L 182.788655 214.994914 
L 179.846982 214.994914 
z
" clip-path="url(#p507e692b9e)" style="fill: #800000"/>
   </g>
   <g id="patch_29">
    <path d="M 183.524073 227.261884 
L 186.465745 227.261884 
L 186.465745 215.838584 
L 183.524073 215.838584 
z
" clip-path="url(#p507e692b9e)" style="fill: #800000"/>
   </g>
   <g id="patch_30">
    <path d="M 187.201164 227.126897 
L 190.142836 227.126897 
L 190.142836 216.648508 
L 187.201164 216.648508 
z
" clip-path="url(#p507e692b9e)" style="fill: #800000"/>
   </g>
   <g id="patch_31">
    <path d="M 190.878255 230.872794 
L 193.819927 230.872794 
L 193.819927 221.204329 
L 190.878255 221.204329 
z
" clip-path="url(#p507e692b9e)" style="fill: #800000"/>
   </g>
   <g id="patch_32">
    <path d="M 194.555345 228.459896 
L 197.497018 228.459896 
L 197.497018 218.825178 
L 194.555345 218.825178 
z
" clip-path="url(#p507e692b9e)" style="fill: #800000"/>
   </g>
   <g id="patch_33">
    <path d="M 198.232436 231.547731 
L 201.174109 231.547731 
L 201.174109 221.119962 
L 198.232436 221.119962 
z
" clip-path="url(#p507e692b9e)" style="fill: #800000"/>
   </g>
   <g id="patch_34">
    <path d="M 201.909527 230.130364 
L 204.8512 230.130364 
L 204.8512 219.803836 
L 201.909527 219.803836 
z
" clip-path="url(#p507e692b9e)" style="fill: #800000"/>
   </g>
   <g id="patch_35">
    <path d="M 205.586618 229.134833 
L 208.528291 229.134833 
L 208.528291 217.509052 
L 205.586618 217.509052 
z
" clip-path="url(#p507e692b9e)" style="fill: #800000"/>
   </g>
   <g id="patch_36">
    <path d="M 209.263709 226.755682 
L 212.205382 226.755682 
L 212.205382 215.129901 
L 209.263709 215.129901 
z
" clip-path="url(#p507e692b9e)" style="fill: #800000"/>
   </g>
   <g id="patch_37">
    <path d="M 212.9408 227.700593 
L 215.882473 227.700593 
L 215.882473 216.007319 
L 212.9408 216.007319 
z
" clip-path="url(#p507e692b9e)" style="fill: #800000"/>
   </g>
   <g id="patch_38">
    <path d="M 216.617891 231.800832 
L 219.559564 231.800832 
L 219.559564 220.158178 
L 216.617891 220.158178 
z
" clip-path="url(#p507e692b9e)" style="fill: #800000"/>
   </g>
   <g id="patch_39">
    <path d="M 220.294982 227.261884 
L 223.236655 227.261884 
L 223.236655 216.682255 
L 220.294982 216.682255 
z
" clip-path="url(#p507e692b9e)" style="fill: #800000"/>
   </g>
   <g id="patch_40">
    <path d="M 223.972073 226.856922 
L 226.913745 226.856922 
L 226.913745 215.501116 
L 223.972073 215.501116 
z
" clip-path="url(#p507e692b9e)" style="fill: #800000"/>
   </g>
   <g id="patch_41">
    <path d="M 227.649164 227.211264 
L 230.590836 227.211264 
L 230.590836 215.787964 
L 227.649164 215.787964 
z
" clip-path="url(#p507e692b9e)" style="fill: #800000"/>
   </g>
   <g id="patch_42">
    <path d="M 231.326255 227.059403 
L 234.267927 227.059403 
L 234.267927 215.956698 
L 231.326255 215.956698 
z
" clip-path="url(#p507e692b9e)" style="fill: #800000"/>
   </g>
   <g id="patch_43">
    <path d="M 235.003345 232.863857 
L 237.945018 232.863857 
L 237.945018 223.684721 
L 235.003345 223.684721 
z
" clip-path="url(#p507e692b9e)" style="fill: #800000"/>
   </g>
   <g id="patch_44">
    <path d="M 238.680436 228.105555 
L 241.622109 228.105555 
L 241.622109 216.850989 
L 238.680436 216.850989 
z
" clip-path="url(#p507e692b9e)" style="fill: #800000"/>
   </g>
   <g id="patch_45">
    <path d="M 242.357527 227.110024 
L 245.2992 227.110024 
L 245.2992 215.686724 
L 242.357527 215.686724 
z
" clip-path="url(#p507e692b9e)" style="fill: #800000"/>
   </g>
   <g id="patch_46">
    <path d="M 246.034618 236.964096 
L 248.976291 236.964096 
L 248.976291 226.941289 
L 246.034618 226.941289 
z
" clip-path="url(#p507e692b9e)" style="fill: #800000"/>
   </g>
   <g id="patch_47">
    <path d="M 249.711709 230.839048 
L 252.653382 230.839048 
L 252.653382 220.866861 
L 249.711709 220.866861 
z
" clip-path="url(#p507e692b9e)" style="fill: #800000"/>
   </g>
   <g id="patch_48">
    <path d="M 253.3888 232.796363 
L 256.330473 232.796363 
L 256.330473 217.272824 
L 253.3888 217.272824 
z
" clip-path="url(#p507e692b9e)" style="fill: #800000"/>
   </g>
   <g id="patch_49">
    <path d="M 257.065891 227.751213 
L 260.007564 227.751213 
L 260.007564 216.581015 
L 257.065891 216.581015 
z
" clip-path="url(#p507e692b9e)" style="fill: #800000"/>
   </g>
   <g id="patch_50">
    <path d="M 260.742982 230.70406 
L 263.684655 230.70406 
L 263.684655 219.702596 
L 260.742982 219.702596 
z
" clip-path="url(#p507e692b9e)" style="fill: #800000"/>
   </g>
   <g id="patch_51">
    <path d="M 264.420073 228.949225 
L 267.361745 228.949225 
L 267.361745 218.032128 
L 264.420073 218.032128 
z
" clip-path="url(#p507e692b9e)" style="fill: #800000"/>
   </g>
   <g id="patch_52">
    <path d="M 268.097164 232.121427 
L 271.038836 232.121427 
L 271.038836 221.35619 
L 268.097164 221.35619 
z
" clip-path="url(#p507e692b9e)" style="fill: #800000"/>
   </g>
   <g id="patch_53">
    <path d="M 271.774255 226.975036 
L 274.715927 226.975036 
L 274.715927 214.573079 
L 271.774255 214.573079 
z
" clip-path="url(#p507e692b9e)" style="fill: #800000"/>
   </g>
   <g id="patch_54">
    <path d="M 275.451345 227.869327 
L 278.393018 227.869327 
L 278.393018 216.294167 
L 275.451345 216.294167 
z
" clip-path="url(#p507e692b9e)" style="fill: #800000"/>
   </g>
   <g id="patch_55">
    <path d="M 279.128436 228.47677 
L 282.070109 228.47677 
L 282.070109 217.137837 
L 279.128436 217.137837 
z
" clip-path="url(#p507e692b9e)" style="fill: #800000"/>
   </g>
   <g id="patch_56">
    <path d="M 282.805527 232.172047 
L 285.7472 232.172047 
L 285.7472 220.208798 
L 282.805527 220.208798 
z
" clip-path="url(#p507e692b9e)" style="fill: #800000"/>
   </g>
   <g id="patch_57">
    <path d="M 286.482618 232.475768 
L 289.424291 232.475768 
L 289.424291 221.30557 
L 286.482618 221.30557 
z
" clip-path="url(#p507e692b9e)" style="fill: #800000"/>
   </g>
   <g id="patch_58">
    <path d="M 290.159709 232.003313 
L 293.101382 232.003313 
L 293.101382 221.794899 
L 290.159709 221.794899 
z
" clip-path="url(#p507e692b9e)" style="fill: #800000"/>
   </g>
   <g id="patch_59">
    <path d="M 293.8368 234.230603 
L 296.778473 234.230603 
L 296.778473 223.802835 
L 293.8368 223.802835 
z
" clip-path="url(#p507e692b9e)" style="fill: #800000"/>
   </g>
   <g id="patch_60">
    <path d="M 297.513891 229.809769 
L 300.455564 229.809769 
L 300.455564 218.605824 
L 297.513891 218.605824 
z
" clip-path="url(#p507e692b9e)" style="fill: #800000"/>
   </g>
   <g id="patch_61">
    <path d="M 301.190982 227.953694 
L 304.132655 227.953694 
L 304.132655 217.10409 
L 301.190982 217.10409 
z
" clip-path="url(#p507e692b9e)" style="fill: #800000"/>
   </g>
   <g id="patch_62">
    <path d="M 304.868073 228.291162 
L 307.809745 228.291162 
L 307.809745 217.05347 
L 304.868073 217.05347 
z
" clip-path="url(#p507e692b9e)" style="fill: #800000"/>
   </g>
   <g id="patch_63">
    <path d="M 308.545164 232.711996 
L 311.486836 232.711996 
L 311.486836 221.373064 
L 308.545164 221.373064 
z
" clip-path="url(#p507e692b9e)" style="fill: #800000"/>
   </g>
   <g id="patch_64">
    <path d="M 312.222255 226.924416 
L 315.163927 226.924416 
L 315.163927 213.459433 
L 312.222255 213.459433 
z
" clip-path="url(#p507e692b9e)" style="fill: #800000"/>
   </g>
   <g id="patch_65">
    <path d="M 315.899345 227.768087 
L 318.841018 227.768087 
L 318.841018 216.901609 
L 315.899345 216.901609 
z
" clip-path="url(#p507e692b9e)" style="fill: #800000"/>
   </g>
   <g id="patch_66">
    <path d="M 319.576436 227.633099 
L 322.518109 227.633099 
L 322.518109 216.159179 
L 319.576436 216.159179 
z
" clip-path="url(#p507e692b9e)" style="fill: #800000"/>
   </g>
   <g id="patch_67">
    <path d="M 323.253527 232.121427 
L 326.1952 232.121427 
L 326.1952 220.681254 
L 323.253527 220.681254 
z
" clip-path="url(#p507e692b9e)" style="fill: #800000"/>
   </g>
   <g id="patch_68">
    <path d="M 326.930618 227.245011 
L 329.872291 227.245011 
L 329.872291 213.155712 
L 326.930618 213.155712 
z
" clip-path="url(#p507e692b9e)" style="fill: #800000"/>
   </g>
   <g id="patch_69">
    <path d="M 330.607709 227.379998 
L 333.549382 227.379998 
L 333.549382 215.652977 
L 330.607709 215.652977 
z
" clip-path="url(#p507e692b9e)" style="fill: #800000"/>
   </g>
   <g id="patch_70">
    <path d="M 334.2848 232.610756 
L 337.226473 232.610756 
L 337.226473 221.94676 
L 334.2848 221.94676 
z
" clip-path="url(#p507e692b9e)" style="fill: #800000"/>
   </g>
   <g id="patch_71">
    <path d="M 337.961891 226.671315 
L 340.903564 226.671315 
L 340.903564 213.071345 
L 337.961891 213.071345 
z
" clip-path="url(#p507e692b9e)" style="fill: #800000"/>
   </g>
   <g id="patch_72">
    <path d="M 341.638982 226.958163 
L 344.580655 226.958163 
L 344.580655 215.61923 
L 341.638982 215.61923 
z
" clip-path="url(#p507e692b9e)" style="fill: #800000"/>
   </g>
   <g id="patch_73">
    <path d="M 345.316073 227.413745 
L 348.257745 227.413745 
L 348.257745 215.534863 
L 345.316073 215.534863 
z
" clip-path="url(#p507e692b9e)" style="fill: #800000"/>
   </g>
   <g id="patch_74">
    <path d="M 348.993164 228.105555 
L 351.934836 228.105555 
L 351.934836 216.766622 
L 348.993164 216.766622 
z
" clip-path="url(#p507e692b9e)" style="fill: #800000"/>
   </g>
   <g id="patch_75">
    <path d="M 352.670255 225.540796 
L 355.611927 225.540796 
L 355.611927 213.864395 
L 352.670255 213.864395 
z
" clip-path="url(#p507e692b9e)" style="fill: #800000"/>
   </g>
   <g id="patch_76">
    <path d="M 356.347345 224.140303 
L 359.289018 224.140303 
L 359.289018 207.924954 
L 356.347345 207.924954 
z
" clip-path="url(#p507e692b9e)" style="fill: #800000"/>
   </g>
   <g id="patch_77">
    <path d="M 360.024436 228.52739 
L 362.966109 228.52739 
L 362.966109 214.08375 
L 360.024436 214.08375 
z
" clip-path="url(#p507e692b9e)" style="fill: #800000"/>
   </g>
   <g id="patch_78">
    <path d="M 363.701527 241.503044 
L 366.6432 241.503044 
L 366.6432 229.32044 
L 363.701527 229.32044 
z
" clip-path="url(#p507e692b9e)" style="fill: #800000"/>
   </g>
   <g id="patch_79">
    <path d="M 367.378618 229.590415 
L 370.320291 229.590415 
L 370.320291 217.441559 
L 367.378618 217.441559 
z
" clip-path="url(#p507e692b9e)" style="fill: #800000"/>
   </g>
   <g id="patch_80">
    <path d="M 371.055709 230.737807 
L 373.997382 230.737807 
L 373.997382 218.825178 
L 371.055709 218.825178 
z
" clip-path="url(#p507e692b9e)" style="fill: #800000"/>
   </g>
   <g id="patch_81">
    <path d="M 374.7328 228.611757 
L 377.674473 228.611757 
L 377.674473 216.2098 
L 374.7328 216.2098 
z
" clip-path="url(#p507e692b9e)" style="fill: #800000"/>
   </g>
   <g id="patch_82">
    <path d="M 378.409891 229.016719 
L 381.351564 229.016719 
L 381.351564 217.036597 
L 378.409891 217.036597 
z
" clip-path="url(#p507e692b9e)" style="fill: #800000"/>
   </g>
   <g id="patch_83">
    <path d="M 382.086982 229.151706 
L 385.028655 229.151706 
L 385.028655 217.458432 
L 382.086982 217.458432 
z
" clip-path="url(#p507e692b9e)" style="fill: #800000"/>
   </g>
   <g id="patch_84">
    <path d="M 385.764073 228.375529 
L 388.705745 228.375529 
L 388.705745 215.534863 
L 385.764073 215.534863 
z
" clip-path="url(#p507e692b9e)" style="fill: #800000"/>
   </g>
   <g id="patch_85">
    <path d="M 389.441164 228.173048 
L 392.382836 228.173048 
L 392.382836 215.703597 
L 389.441164 215.703597 
z
" clip-path="url(#p507e692b9e)" style="fill: #800000"/>
   </g>
   <g id="patch_86">
    <path d="M 393.118255 233.724401 
L 396.059927 233.724401 
L 396.059927 222.031127 
L 393.118255 222.031127 
z
" clip-path="url(#p507e692b9e)" style="fill: #800000"/>
   </g>
   <g id="patch_87">
    <path d="M 396.795345 233.386933 
L 399.737018 233.386933 
L 399.737018 221.018722 
L 396.795345 221.018722 
z
" clip-path="url(#p507e692b9e)" style="fill: #800000"/>
   </g>
   <g id="patch_88">
    <path d="M 400.472436 229.421681 
L 403.414109 229.421681 
L 403.414109 217.627166 
L 400.472436 217.627166 
z
" clip-path="url(#p507e692b9e)" style="fill: #800000"/>
   </g>
   <g id="patch_89">
    <path d="M 404.149527 229.033592 
L 407.0912 229.033592 
L 407.0912 217.205331 
L 404.149527 217.205331 
z
" clip-path="url(#p507e692b9e)" style="fill: #800000"/>
   </g>
   <g id="patch_90">
    <path d="M 407.826618 228.544264 
L 410.768291 228.544264 
L 410.768291 217.559672 
L 407.826618 217.559672 
z
" clip-path="url(#p507e692b9e)" style="fill: #800000"/>
   </g>
   <g id="patch_91">
    <path d="M 411.503709 232.981971 
L 414.445382 232.981971 
L 414.445382 221.221203 
L 411.503709 221.221203 
z
" clip-path="url(#p507e692b9e)" style="fill: #800000"/>
   </g>
   <g id="patch_92">
    <path d="M 415.1808 229.185453 
L 418.122473 229.185453 
L 418.122473 217.829647 
L 415.1808 217.829647 
z
" clip-path="url(#p507e692b9e)" style="fill: #800000"/>
   </g>
   <g id="patch_93">
    <path d="M 418.857891 221.204329 
L 421.799564 221.204329 
L 421.799564 209.376068 
L 418.857891 209.376068 
z
" clip-path="url(#p507e692b9e)" style="fill: #800000"/>
   </g>
   <g id="patch_94">
    <path d="M 422.534982 228.223669 
L 425.476655 228.223669 
L 425.476655 216.159179 
L 422.534982 216.159179 
z
" clip-path="url(#p507e692b9e)" style="fill: #800000"/>
   </g>
   <g id="patch_95">
    <path d="M 426.212073 232.678249 
L 429.153745 232.678249 
L 429.153745 221.30557 
L 426.212073 221.30557 
z
" clip-path="url(#p507e692b9e)" style="fill: #800000"/>
   </g>
   <g id="patch_96">
    <path d="M 429.889164 228.156175 
L 432.830836 228.156175 
L 432.830836 216.749749 
L 429.889164 216.749749 
z
" clip-path="url(#p507e692b9e)" style="fill: #800000"/>
   </g>
   <g id="patch_97">
    <path d="M 433.566255 227.447492 
L 436.507927 227.447492 
L 436.507927 214.910547 
L 433.566255 214.910547 
z
" clip-path="url(#p507e692b9e)" style="fill: #800000"/>
   </g>
   <g id="patch_98">
    <path d="M 437.243345 232.290161 
L 440.185018 232.290161 
L 440.185018 219.736343 
L 437.243345 219.736343 
z
" clip-path="url(#p507e692b9e)" style="fill: #800000"/>
   </g>
   <g id="patch_99">
    <path d="M 440.920436 232.121427 
L 443.862109 232.121427 
L 443.862109 220.056937 
L 440.920436 220.056937 
z
" clip-path="url(#p507e692b9e)" style="fill: #800000"/>
   </g>
   <g id="patch_100">
    <path d="M 444.597527 235.108021 
L 447.5392 235.108021 
L 447.5392 224.983974 
L 444.597527 224.983974 
z
" clip-path="url(#p507e692b9e)" style="fill: #800000"/>
   </g>
   <g id="patch_101">
    <path d="M 448.274618 227.616226 
L 451.216291 227.616226 
L 451.216291 216.395407 
L 448.274618 216.395407 
z
" clip-path="url(#p507e692b9e)" style="fill: #800000"/>
   </g>
   <g id="patch_102">
    <path d="M 87.919709 286.69004 
L 90.861382 286.69004 
L 90.861382 230.535326 
L 87.919709 230.535326 
z
" clip-path="url(#p507e692b9e)" style="fill: #a52a2a"/>
   </g>
   <g id="patch_103">
    <path d="M 91.5968 285.778876 
L 94.538473 285.778876 
L 94.538473 228.122428 
L 91.5968 228.122428 
z
" clip-path="url(#p507e692b9e)" style="fill: #a52a2a"/>
   </g>
   <g id="patch_104">
    <path d="M 95.273891 286.740661 
L 98.215564 286.740661 
L 98.215564 229.16858 
L 95.273891 229.16858 
z
" clip-path="url(#p507e692b9e)" style="fill: #a52a2a"/>
   </g>
   <g id="patch_105">
    <path d="M 98.950982 286.504433 
L 101.892655 286.504433 
L 101.892655 228.257416 
L 98.950982 228.257416 
z
" clip-path="url(#p507e692b9e)" style="fill: #a52a2a"/>
   </g>
   <g id="patch_106">
    <path d="M 102.628073 286.268205 
L 105.569745 286.268205 
L 105.569745 228.52739 
L 102.628073 228.52739 
z
" clip-path="url(#p507e692b9e)" style="fill: #a52a2a"/>
   </g>
   <g id="patch_107">
    <path d="M 106.305164 287.263736 
L 109.246836 287.263736 
L 109.246836 230.045997 
L 106.305164 230.045997 
z
" clip-path="url(#p507e692b9e)" style="fill: #a52a2a"/>
   </g>
   <g id="patch_108">
    <path d="M 109.982255 286.673167 
L 112.923927 286.673167 
L 112.923927 228.999846 
L 109.982255 228.999846 
z
" clip-path="url(#p507e692b9e)" style="fill: #a52a2a"/>
   </g>
   <g id="patch_109">
    <path d="M 113.659345 287.010635 
L 116.601018 287.010635 
L 116.601018 228.932352 
L 113.659345 228.932352 
z
" clip-path="url(#p507e692b9e)" style="fill: #a52a2a"/>
   </g>
   <g id="patch_110">
    <path d="M 117.336436 278.03398 
L 120.278109 278.03398 
L 120.278109 219.651976 
L 117.336436 219.651976 
z
" clip-path="url(#p507e692b9e)" style="fill: #a52a2a"/>
   </g>
   <g id="patch_111">
    <path d="M 121.013527 286.065724 
L 123.9552 286.065724 
L 123.9552 227.430618 
L 121.013527 227.430618 
z
" clip-path="url(#p507e692b9e)" style="fill: #a52a2a"/>
   </g>
   <g id="patch_112">
    <path d="M 124.690618 286.69004 
L 127.632291 286.69004 
L 127.632291 232.239541 
L 124.690618 232.239541 
z
" clip-path="url(#p507e692b9e)" style="fill: #a52a2a"/>
   </g>
   <g id="patch_113">
    <path d="M 128.367709 286.723787 
L 131.309382 286.723787 
L 131.309382 227.666846 
L 128.367709 227.666846 
z
" clip-path="url(#p507e692b9e)" style="fill: #a52a2a"/>
   </g>
   <g id="patch_114">
    <path d="M 132.0448 286.656294 
L 134.986473 286.656294 
L 134.986473 231.682718 
L 132.0448 231.682718 
z
" clip-path="url(#p507e692b9e)" style="fill: #a52a2a"/>
   </g>
   <g id="patch_115">
    <path d="M 135.721891 286.166965 
L 138.663564 286.166965 
L 138.663564 226.620695 
L 135.721891 226.620695 
z
" clip-path="url(#p507e692b9e)" style="fill: #a52a2a"/>
   </g>
   <g id="patch_116">
    <path d="M 139.398982 286.622547 
L 142.340655 286.622547 
L 142.340655 231.632098 
L 139.398982 231.632098 
z
" clip-path="url(#p507e692b9e)" style="fill: #a52a2a"/>
   </g>
   <g id="patch_117">
    <path d="M 143.076073 286.69004 
L 146.017745 286.69004 
L 146.017745 227.211264 
L 143.076073 227.211264 
z
" clip-path="url(#p507e692b9e)" style="fill: #a52a2a"/>
   </g>
   <g id="patch_118">
    <path d="M 146.753164 286.420066 
L 149.694836 286.420066 
L 149.694836 226.806302 
L 146.753164 226.806302 
z
" clip-path="url(#p507e692b9e)" style="fill: #a52a2a"/>
   </g>
   <g id="patch_119">
    <path d="M 150.430255 286.892521 
L 153.371927 286.892521 
L 153.371927 227.312504 
L 150.430255 227.312504 
z
" clip-path="url(#p507e692b9e)" style="fill: #a52a2a"/>
   </g>
   <g id="patch_120">
    <path d="M 154.107345 286.555053 
L 157.049018 286.555053 
L 157.049018 226.721935 
L 154.107345 226.721935 
z
" clip-path="url(#p507e692b9e)" style="fill: #a52a2a"/>
   </g>
   <g id="patch_121">
    <path d="M 157.784436 286.453813 
L 160.726109 286.453813 
L 160.726109 220.833114 
L 157.784436 220.833114 
z
" clip-path="url(#p507e692b9e)" style="fill: #a52a2a"/>
   </g>
   <g id="patch_122">
    <path d="M 161.461527 286.183838 
L 164.4032 286.183838 
L 164.4032 226.856922 
L 161.461527 226.856922 
z
" clip-path="url(#p507e692b9e)" style="fill: #a52a2a"/>
   </g>
   <g id="patch_123">
    <path d="M 165.138618 286.436939 
L 168.080291 286.436939 
L 168.080291 227.14377 
L 165.138618 227.14377 
z
" clip-path="url(#p507e692b9e)" style="fill: #a52a2a"/>
   </g>
   <g id="patch_124">
    <path d="M 168.815709 286.5888 
L 171.757382 286.5888 
L 171.757382 226.823176 
L 168.815709 226.823176 
z
" clip-path="url(#p507e692b9e)" style="fill: #a52a2a"/>
   </g>
   <g id="patch_125">
    <path d="M 172.4928 286.706914 
L 175.434473 286.706914 
L 175.434473 227.498112 
L 172.4928 227.498112 
z
" clip-path="url(#p507e692b9e)" style="fill: #a52a2a"/>
   </g>
   <g id="patch_126">
    <path d="M 176.169891 286.420066 
L 179.111564 286.420066 
L 179.111564 226.553201 
L 176.169891 226.553201 
z
" clip-path="url(#p507e692b9e)" style="fill: #a52a2a"/>
   </g>
   <g id="patch_127">
    <path d="M 179.846982 286.622547 
L 182.788655 286.622547 
L 182.788655 226.671315 
L 179.846982 226.671315 
z
" clip-path="url(#p507e692b9e)" style="fill: #a52a2a"/>
   </g>
   <g id="patch_128">
    <path d="M 183.524073 286.555053 
L 186.465745 286.555053 
L 186.465745 227.261884 
L 183.524073 227.261884 
z
" clip-path="url(#p507e692b9e)" style="fill: #a52a2a"/>
   </g>
   <g id="patch_129">
    <path d="M 187.201164 286.420066 
L 190.142836 286.420066 
L 190.142836 227.126897 
L 187.201164 227.126897 
z
" clip-path="url(#p507e692b9e)" style="fill: #a52a2a"/>
   </g>
   <g id="patch_130">
    <path d="M 190.878255 286.774408 
L 193.819927 286.774408 
L 193.819927 230.872794 
L 190.878255 230.872794 
z
" clip-path="url(#p507e692b9e)" style="fill: #a52a2a"/>
   </g>
   <g id="patch_131">
    <path d="M 194.555345 286.69004 
L 197.497018 286.69004 
L 197.497018 228.459896 
L 194.555345 228.459896 
z
" clip-path="url(#p507e692b9e)" style="fill: #a52a2a"/>
   </g>
   <g id="patch_132">
    <path d="M 198.232436 286.69004 
L 201.174109 286.69004 
L 201.174109 231.547731 
L 198.232436 231.547731 
z
" clip-path="url(#p507e692b9e)" style="fill: #a52a2a"/>
   </g>
   <g id="patch_133">
    <path d="M 201.909527 287.314357 
L 204.8512 287.314357 
L 204.8512 230.130364 
L 201.909527 230.130364 
z
" clip-path="url(#p507e692b9e)" style="fill: #a52a2a"/>
   </g>
   <g id="patch_134">
    <path d="M 205.586618 286.470686 
L 208.528291 286.470686 
L 208.528291 229.134833 
L 205.586618 229.134833 
z
" clip-path="url(#p507e692b9e)" style="fill: #a52a2a"/>
   </g>
   <g id="patch_135">
    <path d="M 209.263709 286.420066 
L 212.205382 286.420066 
L 212.205382 226.755682 
L 209.263709 226.755682 
z
" clip-path="url(#p507e692b9e)" style="fill: #a52a2a"/>
   </g>
   <g id="patch_136">
    <path d="M 212.9408 286.723787 
L 215.882473 286.723787 
L 215.882473 227.700593 
L 212.9408 227.700593 
z
" clip-path="url(#p507e692b9e)" style="fill: #a52a2a"/>
   </g>
   <g id="patch_137">
    <path d="M 216.617891 286.571927 
L 219.559564 286.571927 
L 219.559564 231.800832 
L 216.617891 231.800832 
z
" clip-path="url(#p507e692b9e)" style="fill: #a52a2a"/>
   </g>
   <g id="patch_138">
    <path d="M 220.294982 286.571927 
L 223.236655 286.571927 
L 223.236655 227.261884 
L 220.294982 227.261884 
z
" clip-path="url(#p507e692b9e)" style="fill: #a52a2a"/>
   </g>
   <g id="patch_139">
    <path d="M 223.972073 285.89699 
L 226.913745 285.89699 
L 226.913745 226.856922 
L 223.972073 226.856922 
z
" clip-path="url(#p507e692b9e)" style="fill: #a52a2a"/>
   </g>
   <g id="patch_140">
    <path d="M 227.649164 286.521306 
L 230.590836 286.521306 
L 230.590836 227.211264 
L 227.649164 227.211264 
z
" clip-path="url(#p507e692b9e)" style="fill: #a52a2a"/>
   </g>
   <g id="patch_141">
    <path d="M 231.326255 286.166965 
L 234.267927 286.166965 
L 234.267927 227.059403 
L 231.326255 227.059403 
z
" clip-path="url(#p507e692b9e)" style="fill: #a52a2a"/>
   </g>
   <g id="patch_142">
    <path d="M 235.003345 287.449344 
L 237.945018 287.449344 
L 237.945018 232.863857 
L 235.003345 232.863857 
z
" clip-path="url(#p507e692b9e)" style="fill: #a52a2a"/>
   </g>
   <g id="patch_143">
    <path d="M 238.680436 286.453813 
L 241.622109 286.453813 
L 241.622109 228.105555 
L 238.680436 228.105555 
z
" clip-path="url(#p507e692b9e)" style="fill: #a52a2a"/>
   </g>
   <g id="patch_144">
    <path d="M 242.357527 286.318825 
L 245.2992 286.318825 
L 245.2992 227.110024 
L 242.357527 227.110024 
z
" clip-path="url(#p507e692b9e)" style="fill: #a52a2a"/>
   </g>
   <g id="patch_145">
    <path d="M 246.034618 287.364977 
L 248.976291 287.364977 
L 248.976291 236.964096 
L 246.034618 236.964096 
z
" clip-path="url(#p507e692b9e)" style="fill: #a52a2a"/>
   </g>
   <g id="patch_146">
    <path d="M 249.711709 286.943142 
L 252.653382 286.943142 
L 252.653382 230.839048 
L 249.711709 230.839048 
z
" clip-path="url(#p507e692b9e)" style="fill: #a52a2a"/>
   </g>
   <g id="patch_147">
    <path d="M 253.3888 286.48756 
L 256.330473 286.48756 
L 256.330473 232.796363 
L 253.3888 232.796363 
z
" clip-path="url(#p507e692b9e)" style="fill: #a52a2a"/>
   </g>
   <g id="patch_148">
    <path d="M 257.065891 286.268205 
L 260.007564 286.268205 
L 260.007564 227.751213 
L 257.065891 227.751213 
z
" clip-path="url(#p507e692b9e)" style="fill: #a52a2a"/>
   </g>
   <g id="patch_149">
    <path d="M 260.742982 286.53818 
L 263.684655 286.53818 
L 263.684655 230.70406 
L 260.742982 230.70406 
z
" clip-path="url(#p507e692b9e)" style="fill: #a52a2a"/>
   </g>
   <g id="patch_150">
    <path d="M 264.420073 287.415597 
L 267.361745 287.415597 
L 267.361745 228.949225 
L 264.420073 228.949225 
z
" clip-path="url(#p507e692b9e)" style="fill: #a52a2a"/>
   </g>
   <g id="patch_151">
    <path d="M 268.097164 286.521306 
L 271.038836 286.521306 
L 271.038836 232.121427 
L 268.097164 232.121427 
z
" clip-path="url(#p507e692b9e)" style="fill: #a52a2a"/>
   </g>
   <g id="patch_152">
    <path d="M 271.774255 285.998231 
L 274.715927 285.998231 
L 274.715927 226.975036 
L 271.774255 226.975036 
z
" clip-path="url(#p507e692b9e)" style="fill: #a52a2a"/>
   </g>
   <g id="patch_153">
    <path d="M 275.451345 286.285079 
L 278.393018 286.285079 
L 278.393018 227.869327 
L 275.451345 227.869327 
z
" clip-path="url(#p507e692b9e)" style="fill: #a52a2a"/>
   </g>
   <g id="patch_154">
    <path d="M 279.128436 286.723787 
L 282.070109 286.723787 
L 282.070109 228.47677 
L 279.128436 228.47677 
z
" clip-path="url(#p507e692b9e)" style="fill: #a52a2a"/>
   </g>
   <g id="patch_155">
    <path d="M 282.805527 287.061256 
L 285.7472 287.061256 
L 285.7472 232.172047 
L 282.805527 232.172047 
z
" clip-path="url(#p507e692b9e)" style="fill: #a52a2a"/>
   </g>
   <g id="patch_156">
    <path d="M 286.482618 286.53818 
L 289.424291 286.53818 
L 289.424291 232.475768 
L 286.482618 232.475768 
z
" clip-path="url(#p507e692b9e)" style="fill: #a52a2a"/>
   </g>
   <g id="patch_157">
    <path d="M 290.159709 287.28061 
L 293.101382 287.28061 
L 293.101382 232.003313 
L 290.159709 232.003313 
z
" clip-path="url(#p507e692b9e)" style="fill: #a52a2a"/>
   </g>
   <g id="patch_158">
    <path d="M 293.8368 287.162496 
L 296.778473 287.162496 
L 296.778473 234.230603 
L 293.8368 234.230603 
z
" clip-path="url(#p507e692b9e)" style="fill: #a52a2a"/>
   </g>
   <g id="patch_159">
    <path d="M 297.513891 286.234458 
L 300.455564 286.234458 
L 300.455564 229.809769 
L 297.513891 229.809769 
z
" clip-path="url(#p507e692b9e)" style="fill: #a52a2a"/>
   </g>
   <g id="patch_160">
    <path d="M 301.190982 286.774408 
L 304.132655 286.774408 
L 304.132655 227.953694 
L 301.190982 227.953694 
z
" clip-path="url(#p507e692b9e)" style="fill: #a52a2a"/>
   </g>
   <g id="patch_161">
    <path d="M 304.868073 286.420066 
L 307.809745 286.420066 
L 307.809745 228.291162 
L 304.868073 228.291162 
z
" clip-path="url(#p507e692b9e)" style="fill: #a52a2a"/>
   </g>
   <g id="patch_162">
    <path d="M 308.545164 287.095002 
L 311.486836 287.095002 
L 311.486836 232.711996 
L 308.545164 232.711996 
z
" clip-path="url(#p507e692b9e)" style="fill: #a52a2a"/>
   </g>
   <g id="patch_163">
    <path d="M 312.222255 286.285079 
L 315.163927 286.285079 
L 315.163927 226.924416 
L 312.222255 226.924416 
z
" clip-path="url(#p507e692b9e)" style="fill: #a52a2a"/>
   </g>
   <g id="patch_164">
    <path d="M 315.899345 286.825028 
L 318.841018 286.825028 
L 318.841018 227.768087 
L 315.899345 227.768087 
z
" clip-path="url(#p507e692b9e)" style="fill: #a52a2a"/>
   </g>
   <g id="patch_165">
    <path d="M 319.576436 286.555053 
L 322.518109 286.555053 
L 322.518109 227.633099 
L 319.576436 227.633099 
z
" clip-path="url(#p507e692b9e)" style="fill: #a52a2a"/>
   </g>
   <g id="patch_166">
    <path d="M 323.253527 286.723787 
L 326.1952 286.723787 
L 326.1952 232.121427 
L 323.253527 232.121427 
z
" clip-path="url(#p507e692b9e)" style="fill: #a52a2a"/>
   </g>
   <g id="patch_167">
    <path d="M 326.930618 286.673167 
L 329.872291 286.673167 
L 329.872291 227.245011 
L 326.930618 227.245011 
z
" clip-path="url(#p507e692b9e)" style="fill: #a52a2a"/>
   </g>
   <g id="patch_168">
    <path d="M 330.607709 286.183838 
L 333.549382 286.183838 
L 333.549382 227.379998 
L 330.607709 227.379998 
z
" clip-path="url(#p507e692b9e)" style="fill: #a52a2a"/>
   </g>
   <g id="patch_169">
    <path d="M 334.2848 287.196243 
L 337.226473 287.196243 
L 337.226473 232.610756 
L 334.2848 232.610756 
z
" clip-path="url(#p507e692b9e)" style="fill: #a52a2a"/>
   </g>
   <g id="patch_170">
    <path d="M 337.961891 286.166965 
L 340.903564 286.166965 
L 340.903564 226.671315 
L 337.961891 226.671315 
z
" clip-path="url(#p507e692b9e)" style="fill: #a52a2a"/>
   </g>
   <g id="patch_171">
    <path d="M 341.638982 286.217585 
L 344.580655 286.217585 
L 344.580655 226.958163 
L 341.638982 226.958163 
z
" clip-path="url(#p507e692b9e)" style="fill: #a52a2a"/>
   </g>
   <g id="patch_172">
    <path d="M 345.316073 287.162496 
L 348.257745 287.162496 
L 348.257745 227.413745 
L 345.316073 227.413745 
z
" clip-path="url(#p507e692b9e)" style="fill: #a52a2a"/>
   </g>
   <g id="patch_173">
    <path d="M 348.993164 286.740661 
L 351.934836 286.740661 
L 351.934836 228.105555 
L 348.993164 228.105555 
z
" clip-path="url(#p507e692b9e)" style="fill: #a52a2a"/>
   </g>
   <g id="patch_174">
    <path d="M 352.670255 285.340168 
L 355.611927 285.340168 
L 355.611927 225.540796 
L 352.670255 225.540796 
z
" clip-path="url(#p507e692b9e)" style="fill: #a52a2a"/>
   </g>
   <g id="patch_175">
    <path d="M 356.347345 285.84637 
L 359.289018 285.84637 
L 359.289018 224.140303 
L 356.347345 224.140303 
z
" clip-path="url(#p507e692b9e)" style="fill: #a52a2a"/>
   </g>
   <g id="patch_176">
    <path d="M 360.024436 287.415597 
L 362.966109 287.415597 
L 362.966109 228.52739 
L 360.024436 228.52739 
z
" clip-path="url(#p507e692b9e)" style="fill: #a52a2a"/>
   </g>
   <g id="patch_177">
    <path d="M 363.701527 287.651825 
L 366.6432 287.651825 
L 366.6432 241.503044 
L 363.701527 241.503044 
z
" clip-path="url(#p507e692b9e)" style="fill: #a52a2a"/>
   </g>
   <g id="patch_178">
    <path d="M 367.378618 287.044382 
L 370.320291 287.044382 
L 370.320291 229.590415 
L 367.378618 229.590415 
z
" clip-path="url(#p507e692b9e)" style="fill: #a52a2a"/>
   </g>
   <g id="patch_179">
    <path d="M 371.055709 285.694509 
L 373.997382 285.694509 
L 373.997382 230.737807 
L 371.055709 230.737807 
z
" clip-path="url(#p507e692b9e)" style="fill: #a52a2a"/>
   </g>
   <g id="patch_180">
    <path d="M 374.7328 286.892521 
L 377.674473 286.892521 
L 377.674473 228.611757 
L 374.7328 228.611757 
z
" clip-path="url(#p507e692b9e)" style="fill: #a52a2a"/>
   </g>
   <g id="patch_181">
    <path d="M 378.409891 286.571927 
L 381.351564 286.571927 
L 381.351564 229.016719 
L 378.409891 229.016719 
z
" clip-path="url(#p507e692b9e)" style="fill: #a52a2a"/>
   </g>
   <g id="patch_182">
    <path d="M 382.086982 286.808154 
L 385.028655 286.808154 
L 385.028655 229.151706 
L 382.086982 229.151706 
z
" clip-path="url(#p507e692b9e)" style="fill: #a52a2a"/>
   </g>
   <g id="patch_183">
    <path d="M 385.764073 286.453813 
L 388.705745 286.453813 
L 388.705745 228.375529 
L 385.764073 228.375529 
z
" clip-path="url(#p507e692b9e)" style="fill: #a52a2a"/>
   </g>
   <g id="patch_184">
    <path d="M 389.441164 286.301952 
L 392.382836 286.301952 
L 392.382836 228.173048 
L 389.441164 228.173048 
z
" clip-path="url(#p507e692b9e)" style="fill: #a52a2a"/>
   </g>
   <g id="patch_185">
    <path d="M 393.118255 286.555053 
L 396.059927 286.555053 
L 396.059927 233.724401 
L 393.118255 233.724401 
z
" clip-path="url(#p507e692b9e)" style="fill: #a52a2a"/>
   </g>
   <g id="patch_186">
    <path d="M 396.795345 287.111876 
L 399.737018 287.111876 
L 399.737018 233.386933 
L 396.795345 233.386933 
z
" clip-path="url(#p507e692b9e)" style="fill: #a52a2a"/>
   </g>
   <g id="patch_187">
    <path d="M 400.472436 286.656294 
L 403.414109 286.656294 
L 403.414109 229.421681 
L 400.472436 229.421681 
z
" clip-path="url(#p507e692b9e)" style="fill: #a52a2a"/>
   </g>
   <g id="patch_188">
    <path d="M 404.149527 287.095002 
L 407.0912 287.095002 
L 407.0912 229.033592 
L 404.149527 229.033592 
z
" clip-path="url(#p507e692b9e)" style="fill: #a52a2a"/>
   </g>
   <g id="patch_189">
    <path d="M 407.826618 286.723787 
L 410.768291 286.723787 
L 410.768291 228.544264 
L 407.826618 228.544264 
z
" clip-path="url(#p507e692b9e)" style="fill: #a52a2a"/>
   </g>
   <g id="patch_190">
    <path d="M 411.503709 286.352572 
L 414.445382 286.352572 
L 414.445382 232.981971 
L 411.503709 232.981971 
z
" clip-path="url(#p507e692b9e)" style="fill: #a52a2a"/>
   </g>
   <g id="patch_191">
    <path d="M 415.1808 287.128749 
L 418.122473 287.128749 
L 418.122473 229.185453 
L 415.1808 229.185453 
z
" clip-path="url(#p507e692b9e)" style="fill: #a52a2a"/>
   </g>
   <g id="patch_192">
    <path d="M 418.857891 279.485094 
L 421.799564 279.485094 
L 421.799564 221.204329 
L 418.857891 221.204329 
z
" clip-path="url(#p507e692b9e)" style="fill: #a52a2a"/>
   </g>
   <g id="patch_193">
    <path d="M 422.534982 286.622547 
L 425.476655 286.622547 
L 425.476655 228.223669 
L 422.534982 228.223669 
z
" clip-path="url(#p507e692b9e)" style="fill: #a52a2a"/>
   </g>
   <g id="patch_194">
    <path d="M 426.212073 286.217585 
L 429.153745 286.217585 
L 429.153745 232.678249 
L 426.212073 232.678249 
z
" clip-path="url(#p507e692b9e)" style="fill: #a52a2a"/>
   </g>
   <g id="patch_195">
    <path d="M 429.889164 286.335699 
L 432.830836 286.335699 
L 432.830836 228.156175 
L 429.889164 228.156175 
z
" clip-path="url(#p507e692b9e)" style="fill: #a52a2a"/>
   </g>
   <g id="patch_196">
    <path d="M 433.566255 286.200712 
L 436.507927 286.200712 
L 436.507927 227.447492 
L 433.566255 227.447492 
z
" clip-path="url(#p507e692b9e)" style="fill: #a52a2a"/>
   </g>
   <g id="patch_197">
    <path d="M 437.243345 286.065724 
L 440.185018 286.065724 
L 440.185018 232.290161 
L 437.243345 232.290161 
z
" clip-path="url(#p507e692b9e)" style="fill: #a52a2a"/>
   </g>
   <g id="patch_198">
    <path d="M 440.920436 286.403192 
L 443.862109 286.403192 
L 443.862109 232.121427 
L 440.920436 232.121427 
z
" clip-path="url(#p507e692b9e)" style="fill: #a52a2a"/>
   </g>
   <g id="patch_199">
    <path d="M 444.597527 286.926268 
L 447.5392 286.926268 
L 447.5392 235.108021 
L 444.597527 235.108021 
z
" clip-path="url(#p507e692b9e)" style="fill: #a52a2a"/>
   </g>
   <g id="patch_200">
    <path d="M 448.274618 286.673167 
L 451.216291 286.673167 
L 451.216291 227.616226 
L 448.274618 227.616226 
z
" clip-path="url(#p507e692b9e)" style="fill: #a52a2a"/>
   </g>
   <g id="patch_201">
    <path d="M 87.919709 291.077128 
L 90.861382 291.077128 
L 90.861382 281.628017 
L 87.919709 281.628017 
z
" clip-path="url(#p507e692b9e)" style="fill: #f08080"/>
   </g>
   <g id="patch_202">
    <path d="M 91.5968 289.659761 
L 94.538473 289.659761 
L 94.538473 281.037448 
L 91.5968 281.037448 
z
" clip-path="url(#p507e692b9e)" style="fill: #f08080"/>
   </g>
   <g id="patch_203">
    <path d="M 95.273891 291.009634 
L 98.215564 291.009634 
L 98.215564 281.59427 
L 95.273891 281.59427 
z
" clip-path="url(#p507e692b9e)" style="fill: #f08080"/>
   </g>
   <g id="patch_204">
    <path d="M 98.950982 290.89152 
L 101.892655 290.89152 
L 101.892655 280.85184 
L 98.950982 280.85184 
z
" clip-path="url(#p507e692b9e)" style="fill: #f08080"/>
   </g>
   <g id="patch_205">
    <path d="M 102.628073 290.94214 
L 105.569745 290.94214 
L 105.569745 281.358042 
L 102.628073 281.358042 
z
" clip-path="url(#p507e692b9e)" style="fill: #f08080"/>
   </g>
   <g id="patch_206">
    <path d="M 106.305164 291.144621 
L 109.246836 291.144621 
L 109.246836 282.18484 
L 106.305164 282.18484 
z
" clip-path="url(#p507e692b9e)" style="fill: #f08080"/>
   </g>
   <g id="patch_207">
    <path d="M 109.982255 291.009634 
L 112.923927 291.009634 
L 112.923927 281.897992 
L 109.982255 281.897992 
z
" clip-path="url(#p507e692b9e)" style="fill: #f08080"/>
   </g>
   <g id="patch_208">
    <path d="M 113.659345 291.026507 
L 116.601018 291.026507 
L 116.601018 281.897992 
L 113.659345 281.897992 
z
" clip-path="url(#p507e692b9e)" style="fill: #f08080"/>
   </g>
   <g id="patch_209">
    <path d="M 117.336436 282.505434 
L 120.278109 282.505434 
L 120.278109 273.191311 
L 117.336436 273.191311 
z
" clip-path="url(#p507e692b9e)" style="fill: #f08080"/>
   </g>
   <g id="patch_210">
    <path d="M 121.013527 290.99276 
L 123.9552 290.99276 
L 123.9552 281.425536 
L 121.013527 281.425536 
z
" clip-path="url(#p507e692b9e)" style="fill: #f08080"/>
   </g>
   <g id="patch_211">
    <path d="M 124.690618 290.807153 
L 127.632291 290.807153 
L 127.632291 281.914865 
L 124.690618 281.914865 
z
" clip-path="url(#p507e692b9e)" style="fill: #f08080"/>
   </g>
   <g id="patch_212">
    <path d="M 128.367709 290.99276 
L 131.309382 290.99276 
L 131.309382 281.256802 
L 128.367709 281.256802 
z
" clip-path="url(#p507e692b9e)" style="fill: #f08080"/>
   </g>
   <g id="patch_213">
    <path d="M 132.0448 291.043381 
L 134.986473 291.043381 
L 134.986473 281.391789 
L 132.0448 281.391789 
z
" clip-path="url(#p507e692b9e)" style="fill: #f08080"/>
   </g>
   <g id="patch_214">
    <path d="M 135.721891 290.99276 
L 138.663564 290.99276 
L 138.663564 280.986827 
L 135.721891 280.986827 
z
" clip-path="url(#p507e692b9e)" style="fill: #f08080"/>
   </g>
   <g id="patch_215">
    <path d="M 139.398982 291.026507 
L 142.340655 291.026507 
L 142.340655 281.577397 
L 139.398982 281.577397 
z
" clip-path="url(#p507e692b9e)" style="fill: #f08080"/>
   </g>
   <g id="patch_216">
    <path d="M 143.076073 291.043381 
L 146.017745 291.043381 
L 146.017745 281.965485 
L 143.076073 281.965485 
z
" clip-path="url(#p507e692b9e)" style="fill: #f08080"/>
   </g>
   <g id="patch_217">
    <path d="M 146.753164 290.99276 
L 149.694836 290.99276 
L 149.694836 281.442409 
L 146.753164 281.442409 
z
" clip-path="url(#p507e692b9e)" style="fill: #f08080"/>
   </g>
   <g id="patch_218">
    <path d="M 150.430255 291.043381 
L 153.371927 291.043381 
L 153.371927 282.032979 
L 150.430255 282.032979 
z
" clip-path="url(#p507e692b9e)" style="fill: #f08080"/>
   </g>
   <g id="patch_219">
    <path d="M 154.107345 290.959014 
L 157.049018 290.959014 
L 157.049018 280.598739 
L 154.107345 280.598739 
z
" clip-path="url(#p507e692b9e)" style="fill: #f08080"/>
   </g>
   <g id="patch_220">
    <path d="M 157.784436 290.874647 
L 160.726109 290.874647 
L 160.726109 281.307422 
L 157.784436 281.307422 
z
" clip-path="url(#p507e692b9e)" style="fill: #f08080"/>
   </g>
   <g id="patch_221">
    <path d="M 161.461527 291.026507 
L 164.4032 291.026507 
L 164.4032 280.733726 
L 161.461527 280.733726 
z
" clip-path="url(#p507e692b9e)" style="fill: #f08080"/>
   </g>
   <g id="patch_222">
    <path d="M 165.138618 291.077128 
L 168.080291 291.077128 
L 168.080291 281.003701 
L 165.138618 281.003701 
z
" clip-path="url(#p507e692b9e)" style="fill: #f08080"/>
   </g>
   <g id="patch_223">
    <path d="M 168.815709 291.026507 
L 171.757382 291.026507 
L 171.757382 282.167966 
L 168.815709 282.167966 
z
" clip-path="url(#p507e692b9e)" style="fill: #f08080"/>
   </g>
   <g id="patch_224">
    <path d="M 172.4928 291.060254 
L 175.434473 291.060254 
L 175.434473 281.425536 
L 172.4928 281.425536 
z
" clip-path="url(#p507e692b9e)" style="fill: #f08080"/>
   </g>
   <g id="patch_225">
    <path d="M 176.169891 290.99276 
L 179.111564 290.99276 
L 179.111564 281.425536 
L 176.169891 281.425536 
z
" clip-path="url(#p507e692b9e)" style="fill: #f08080"/>
   </g>
   <g id="patch_226">
    <path d="M 179.846982 291.026507 
L 182.788655 291.026507 
L 182.788655 281.189308 
L 179.846982 281.189308 
z
" clip-path="url(#p507e692b9e)" style="fill: #f08080"/>
   </g>
   <g id="patch_227">
    <path d="M 183.524073 290.959014 
L 186.465745 290.959014 
L 186.465745 281.307422 
L 183.524073 281.307422 
z
" clip-path="url(#p507e692b9e)" style="fill: #f08080"/>
   </g>
   <g id="patch_228">
    <path d="M 187.201164 290.807153 
L 190.142836 290.807153 
L 190.142836 281.678637 
L 187.201164 281.678637 
z
" clip-path="url(#p507e692b9e)" style="fill: #f08080"/>
   </g>
   <g id="patch_229">
    <path d="M 190.878255 290.975887 
L 193.819927 290.975887 
L 193.819927 281.847371 
L 190.878255 281.847371 
z
" clip-path="url(#p507e692b9e)" style="fill: #f08080"/>
   </g>
   <g id="patch_230">
    <path d="M 194.555345 290.824026 
L 197.497018 290.824026 
L 197.497018 282.488561 
L 194.555345 282.488561 
z
" clip-path="url(#p507e692b9e)" style="fill: #f08080"/>
   </g>
   <g id="patch_231">
    <path d="M 198.232436 291.009634 
L 201.174109 291.009634 
L 201.174109 281.64489 
L 198.232436 281.64489 
z
" clip-path="url(#p507e692b9e)" style="fill: #f08080"/>
   </g>
   <g id="patch_232">
    <path d="M 201.909527 291.094001 
L 204.8512 291.094001 
L 204.8512 282.404194 
L 201.909527 282.404194 
z
" clip-path="url(#p507e692b9e)" style="fill: #f08080"/>
   </g>
   <g id="patch_233">
    <path d="M 205.586618 291.077128 
L 208.528291 291.077128 
L 208.528291 281.779878 
L 205.586618 281.779878 
z
" clip-path="url(#p507e692b9e)" style="fill: #f08080"/>
   </g>
   <g id="patch_234">
    <path d="M 209.263709 291.110874 
L 212.205382 291.110874 
L 212.205382 281.374916 
L 209.263709 281.374916 
z
" clip-path="url(#p507e692b9e)" style="fill: #f08080"/>
   </g>
   <g id="patch_235">
    <path d="M 212.9408 291.009634 
L 215.882473 291.009634 
L 215.882473 281.442409 
L 212.9408 281.442409 
z
" clip-path="url(#p507e692b9e)" style="fill: #f08080"/>
   </g>
   <g id="patch_236">
    <path d="M 216.617891 291.060254 
L 219.559564 291.060254 
L 219.559564 281.695511 
L 216.617891 281.695511 
z
" clip-path="url(#p507e692b9e)" style="fill: #f08080"/>
   </g>
   <g id="patch_237">
    <path d="M 220.294982 291.043381 
L 223.236655 291.043381 
L 223.236655 281.358042 
L 220.294982 281.358042 
z
" clip-path="url(#p507e692b9e)" style="fill: #f08080"/>
   </g>
   <g id="patch_238">
    <path d="M 223.972073 290.874647 
L 226.913745 290.874647 
L 226.913745 280.480625 
L 223.972073 280.480625 
z
" clip-path="url(#p507e692b9e)" style="fill: #f08080"/>
   </g>
   <g id="patch_239">
    <path d="M 227.649164 291.043381 
L 230.590836 291.043381 
L 230.590836 281.104941 
L 227.649164 281.104941 
z
" clip-path="url(#p507e692b9e)" style="fill: #f08080"/>
   </g>
   <g id="patch_240">
    <path d="M 231.326255 290.975887 
L 234.267927 290.975887 
L 234.267927 281.324296 
L 231.326255 281.324296 
z
" clip-path="url(#p507e692b9e)" style="fill: #f08080"/>
   </g>
   <g id="patch_241">
    <path d="M 235.003345 290.874647 
L 237.945018 290.874647 
L 237.945018 282.691042 
L 235.003345 282.691042 
z
" clip-path="url(#p507e692b9e)" style="fill: #f08080"/>
   </g>
   <g id="patch_242">
    <path d="M 238.680436 291.127748 
L 241.622109 291.127748 
L 241.622109 281.459283 
L 238.680436 281.459283 
z
" clip-path="url(#p507e692b9e)" style="fill: #f08080"/>
   </g>
   <g id="patch_243">
    <path d="M 242.357527 291.043381 
L 245.2992 291.043381 
L 245.2992 280.95308 
L 242.357527 280.95308 
z
" clip-path="url(#p507e692b9e)" style="fill: #f08080"/>
   </g>
   <g id="patch_244">
    <path d="M 246.034618 291.094001 
L 248.976291 291.094001 
L 248.976291 282.049852 
L 246.034618 282.049852 
z
" clip-path="url(#p507e692b9e)" style="fill: #f08080"/>
   </g>
   <g id="patch_245">
    <path d="M 249.711709 290.925267 
L 252.653382 290.925267 
L 252.653382 282.488561 
L 249.711709 282.488561 
z
" clip-path="url(#p507e692b9e)" style="fill: #f08080"/>
   </g>
   <g id="patch_246">
    <path d="M 253.3888 291.110874 
L 256.330473 291.110874 
L 256.330473 281.661764 
L 253.3888 281.661764 
z
" clip-path="url(#p507e692b9e)" style="fill: #f08080"/>
   </g>
   <g id="patch_247">
    <path d="M 257.065891 291.060254 
L 260.007564 291.060254 
L 260.007564 281.611144 
L 257.065891 281.611144 
z
" clip-path="url(#p507e692b9e)" style="fill: #f08080"/>
   </g>
   <g id="patch_248">
    <path d="M 260.742982 291.161495 
L 263.684655 291.161495 
L 263.684655 281.223055 
L 260.742982 281.223055 
z
" clip-path="url(#p507e692b9e)" style="fill: #f08080"/>
   </g>
   <g id="patch_249">
    <path d="M 264.420073 291.110874 
L 267.361745 291.110874 
L 267.361745 282.167966 
L 264.420073 282.167966 
z
" clip-path="url(#p507e692b9e)" style="fill: #f08080"/>
   </g>
   <g id="patch_250">
    <path d="M 268.097164 291.009634 
L 271.038836 291.009634 
L 271.038836 281.374916 
L 268.097164 281.374916 
z
" clip-path="url(#p507e692b9e)" style="fill: #f08080"/>
   </g>
   <g id="patch_251">
    <path d="M 271.774255 291.009634 
L 274.715927 291.009634 
L 274.715927 280.7506 
L 271.774255 280.7506 
z
" clip-path="url(#p507e692b9e)" style="fill: #f08080"/>
   </g>
   <g id="patch_252">
    <path d="M 275.451345 291.060254 
L 278.393018 291.060254 
L 278.393018 281.189308 
L 275.451345 281.189308 
z
" clip-path="url(#p507e692b9e)" style="fill: #f08080"/>
   </g>
   <g id="patch_253">
    <path d="M 279.128436 291.043381 
L 282.070109 291.043381 
L 282.070109 281.931738 
L 279.128436 281.931738 
z
" clip-path="url(#p507e692b9e)" style="fill: #f08080"/>
   </g>
   <g id="patch_254">
    <path d="M 282.805527 291.127748 
L 285.7472 291.127748 
L 285.7472 281.746131 
L 282.805527 281.746131 
z
" clip-path="url(#p507e692b9e)" style="fill: #f08080"/>
   </g>
   <g id="patch_255">
    <path d="M 286.482618 290.99276 
L 289.424291 290.99276 
L 289.424291 281.358042 
L 286.482618 281.358042 
z
" clip-path="url(#p507e692b9e)" style="fill: #f08080"/>
   </g>
   <g id="patch_256">
    <path d="M 290.159709 290.857773 
L 293.101382 290.857773 
L 293.101382 282.657295 
L 290.159709 282.657295 
z
" clip-path="url(#p507e692b9e)" style="fill: #f08080"/>
   </g>
   <g id="patch_257">
    <path d="M 293.8368 291.110874 
L 296.778473 291.110874 
L 296.778473 283.011637 
L 293.8368 283.011637 
z
" clip-path="url(#p507e692b9e)" style="fill: #f08080"/>
   </g>
   <g id="patch_258">
    <path d="M 297.513891 291.110874 
L 300.455564 291.110874 
L 300.455564 281.476156 
L 297.513891 281.476156 
z
" clip-path="url(#p507e692b9e)" style="fill: #f08080"/>
   </g>
   <g id="patch_259">
    <path d="M 301.190982 291.026507 
L 304.132655 291.026507 
L 304.132655 281.509903 
L 301.190982 281.509903 
z
" clip-path="url(#p507e692b9e)" style="fill: #f08080"/>
   </g>
   <g id="patch_260">
    <path d="M 304.868073 291.060254 
L 307.809745 291.060254 
L 307.809745 281.628017 
L 304.868073 281.628017 
z
" clip-path="url(#p507e692b9e)" style="fill: #f08080"/>
   </g>
   <g id="patch_261">
    <path d="M 308.545164 291.077128 
L 311.486836 291.077128 
L 311.486836 281.847371 
L 308.545164 281.847371 
z
" clip-path="url(#p507e692b9e)" style="fill: #f08080"/>
   </g>
   <g id="patch_262">
    <path d="M 312.222255 291.060254 
L 315.163927 291.060254 
L 315.163927 280.969954 
L 312.222255 280.969954 
z
" clip-path="url(#p507e692b9e)" style="fill: #f08080"/>
   </g>
   <g id="patch_263">
    <path d="M 315.899345 291.077128 
L 318.841018 291.077128 
L 318.841018 281.881118 
L 315.899345 281.881118 
z
" clip-path="url(#p507e692b9e)" style="fill: #f08080"/>
   </g>
   <g id="patch_264">
    <path d="M 319.576436 291.043381 
L 322.518109 291.043381 
L 322.518109 281.678637 
L 319.576436 281.678637 
z
" clip-path="url(#p507e692b9e)" style="fill: #f08080"/>
   </g>
   <g id="patch_265">
    <path d="M 323.253527 290.756533 
L 326.1952 290.756533 
L 326.1952 280.784346 
L 323.253527 280.784346 
z
" clip-path="url(#p507e692b9e)" style="fill: #f08080"/>
   </g>
   <g id="patch_266">
    <path d="M 326.930618 291.043381 
L 329.872291 291.043381 
L 329.872291 281.290549 
L 326.930618 281.290549 
z
" clip-path="url(#p507e692b9e)" style="fill: #f08080"/>
   </g>
   <g id="patch_267">
    <path d="M 330.607709 290.959014 
L 333.549382 290.959014 
L 333.549382 280.784346 
L 330.607709 280.784346 
z
" clip-path="url(#p507e692b9e)" style="fill: #f08080"/>
   </g>
   <g id="patch_268">
    <path d="M 334.2848 291.110874 
L 337.226473 291.110874 
L 337.226473 283.045384 
L 334.2848 283.045384 
z
" clip-path="url(#p507e692b9e)" style="fill: #f08080"/>
   </g>
   <g id="patch_269">
    <path d="M 337.961891 290.975887 
L 340.903564 290.975887 
L 340.903564 281.408663 
L 337.961891 281.408663 
z
" clip-path="url(#p507e692b9e)" style="fill: #f08080"/>
   </g>
   <g id="patch_270">
    <path d="M 341.638982 291.060254 
L 344.580655 291.060254 
L 344.580655 281.54365 
L 341.638982 281.54365 
z
" clip-path="url(#p507e692b9e)" style="fill: #f08080"/>
   </g>
   <g id="patch_271">
    <path d="M 345.316073 291.026507 
L 348.257745 291.026507 
L 348.257745 282.032979 
L 345.316073 282.032979 
z
" clip-path="url(#p507e692b9e)" style="fill: #f08080"/>
   </g>
   <g id="patch_272">
    <path d="M 348.993164 291.060254 
L 351.934836 291.060254 
L 351.934836 280.818093 
L 348.993164 280.818093 
z
" clip-path="url(#p507e692b9e)" style="fill: #f08080"/>
   </g>
   <g id="patch_273">
    <path d="M 352.670255 289.676634 
L 355.611927 289.676634 
L 355.611927 279.940676 
L 352.670255 279.940676 
z
" clip-path="url(#p507e692b9e)" style="fill: #f08080"/>
   </g>
   <g id="patch_274">
    <path d="M 356.347345 290.94214 
L 359.289018 290.94214 
L 359.289018 281.358042 
L 356.347345 281.358042 
z
" clip-path="url(#p507e692b9e)" style="fill: #f08080"/>
   </g>
   <g id="patch_275">
    <path d="M 360.024436 291.144621 
L 362.966109 291.144621 
L 362.966109 283.365978 
L 360.024436 283.365978 
z
" clip-path="url(#p507e692b9e)" style="fill: #f08080"/>
   </g>
   <g id="patch_276">
    <path d="M 363.701527 291.094001 
L 366.6432 291.094001 
L 366.6432 282.252333 
L 363.701527 282.252333 
z
" clip-path="url(#p507e692b9e)" style="fill: #f08080"/>
   </g>
   <g id="patch_277">
    <path d="M 367.378618 291.094001 
L 370.320291 291.094001 
L 370.320291 282.252333 
L 367.378618 282.252333 
z
" clip-path="url(#p507e692b9e)" style="fill: #f08080"/>
   </g>
   <g id="patch_278">
    <path d="M 371.055709 290.216584 
L 373.997382 290.216584 
L 373.997382 280.244397 
L 371.055709 280.244397 
z
" clip-path="url(#p507e692b9e)" style="fill: #f08080"/>
   </g>
   <g id="patch_279">
    <path d="M 374.7328 291.043381 
L 377.674473 291.043381 
L 377.674473 281.897992 
L 374.7328 281.897992 
z
" clip-path="url(#p507e692b9e)" style="fill: #f08080"/>
   </g>
   <g id="patch_280">
    <path d="M 378.409891 291.195241 
L 381.351564 291.195241 
L 381.351564 281.796751 
L 378.409891 281.796751 
z
" clip-path="url(#p507e692b9e)" style="fill: #f08080"/>
   </g>
   <g id="patch_281">
    <path d="M 382.086982 291.094001 
L 385.028655 291.094001 
L 385.028655 281.813624 
L 382.086982 281.813624 
z
" clip-path="url(#p507e692b9e)" style="fill: #f08080"/>
   </g>
   <g id="patch_282">
    <path d="M 385.764073 290.975887 
L 388.705745 290.975887 
L 388.705745 281.476156 
L 385.764073 281.476156 
z
" clip-path="url(#p507e692b9e)" style="fill: #f08080"/>
   </g>
   <g id="patch_283">
    <path d="M 389.441164 291.127748 
L 392.382836 291.127748 
L 392.382836 281.459283 
L 389.441164 281.459283 
z
" clip-path="url(#p507e692b9e)" style="fill: #f08080"/>
   </g>
   <g id="patch_284">
    <path d="M 393.118255 291.127748 
L 396.059927 291.127748 
L 396.059927 280.95308 
L 393.118255 280.95308 
z
" clip-path="url(#p507e692b9e)" style="fill: #f08080"/>
   </g>
   <g id="patch_285">
    <path d="M 396.795345 291.110874 
L 399.737018 291.110874 
L 399.737018 282.319827 
L 396.795345 282.319827 
z
" clip-path="url(#p507e692b9e)" style="fill: #f08080"/>
   </g>
   <g id="patch_286">
    <path d="M 400.472436 291.127748 
L 403.414109 291.127748 
L 403.414109 281.64489 
L 400.472436 281.64489 
z
" clip-path="url(#p507e692b9e)" style="fill: #f08080"/>
   </g>
   <g id="patch_287">
    <path d="M 404.149527 291.094001 
L 407.0912 291.094001 
L 407.0912 281.931738 
L 404.149527 281.931738 
z
" clip-path="url(#p507e692b9e)" style="fill: #f08080"/>
   </g>
   <g id="patch_288">
    <path d="M 407.826618 291.094001 
L 410.768291 291.094001 
L 410.768291 281.442409 
L 407.826618 281.442409 
z
" clip-path="url(#p507e692b9e)" style="fill: #f08080"/>
   </g>
   <g id="patch_289">
    <path d="M 411.503709 291.043381 
L 414.445382 291.043381 
L 414.445382 281.104941 
L 411.503709 281.104941 
z
" clip-path="url(#p507e692b9e)" style="fill: #f08080"/>
   </g>
   <g id="patch_290">
    <path d="M 415.1808 291.043381 
L 418.122473 291.043381 
L 418.122473 282.38732 
L 415.1808 282.38732 
z
" clip-path="url(#p507e692b9e)" style="fill: #f08080"/>
   </g>
   <g id="patch_291">
    <path d="M 418.857891 283.82156 
L 421.799564 283.82156 
L 421.799564 274.254336 
L 418.857891 274.254336 
z
" clip-path="url(#p507e692b9e)" style="fill: #f08080"/>
   </g>
   <g id="patch_292">
    <path d="M 422.534982 291.077128 
L 425.476655 291.077128 
L 425.476655 281.881118 
L 422.534982 281.881118 
z
" clip-path="url(#p507e692b9e)" style="fill: #f08080"/>
   </g>
   <g id="patch_293">
    <path d="M 426.212073 291.060254 
L 429.153745 291.060254 
L 429.153745 281.358042 
L 426.212073 281.358042 
z
" clip-path="url(#p507e692b9e)" style="fill: #f08080"/>
   </g>
   <g id="patch_294">
    <path d="M 429.889164 291.077128 
L 432.830836 291.077128 
L 432.830836 281.071194 
L 429.889164 281.071194 
z
" clip-path="url(#p507e692b9e)" style="fill: #f08080"/>
   </g>
   <g id="patch_295">
    <path d="M 433.566255 291.009634 
L 436.507927 291.009634 
L 436.507927 281.476156 
L 433.566255 281.476156 
z
" clip-path="url(#p507e692b9e)" style="fill: #f08080"/>
   </g>
   <g id="patch_296">
    <path d="M 437.243345 290.99276 
L 440.185018 290.99276 
L 440.185018 281.391789 
L 437.243345 281.391789 
z
" clip-path="url(#p507e692b9e)" style="fill: #f08080"/>
   </g>
   <g id="patch_297">
    <path d="M 440.920436 291.060254 
L 443.862109 291.060254 
L 443.862109 281.611144 
L 440.920436 281.611144 
z
" clip-path="url(#p507e692b9e)" style="fill: #f08080"/>
   </g>
   <g id="patch_298">
    <path d="M 444.597527 291.110874 
L 447.5392 291.110874 
L 447.5392 282.454814 
L 444.597527 282.454814 
z
" clip-path="url(#p507e692b9e)" style="fill: #f08080"/>
   </g>
   <g id="patch_299">
    <path d="M 448.274618 291.060254 
L 451.216291 291.060254 
L 451.216291 281.358042 
L 448.274618 281.358042 
z
" clip-path="url(#p507e692b9e)" style="fill: #f08080"/>
   </g>
   <g id="patch_300">
    <path d="M 87.919709 293.76 
L 90.861382 293.76 
L 90.861382 291.077128 
L 87.919709 291.077128 
z
" clip-path="url(#p507e692b9e)" style="fill: #ffe4e1"/>
   </g>
   <g id="patch_301">
    <path d="M 91.5968 293.76 
L 94.538473 293.76 
L 94.538473 289.659761 
L 91.5968 289.659761 
z
" clip-path="url(#p507e692b9e)" style="fill: #ffe4e1"/>
   </g>
   <g id="patch_302">
    <path d="M 95.273891 293.76 
L 98.215564 293.76 
L 98.215564 291.009634 
L 95.273891 291.009634 
z
" clip-path="url(#p507e692b9e)" style="fill: #ffe4e1"/>
   </g>
   <g id="patch_303">
    <path d="M 98.950982 293.76 
L 101.892655 293.76 
L 101.892655 290.89152 
L 98.950982 290.89152 
z
" clip-path="url(#p507e692b9e)" style="fill: #ffe4e1"/>
   </g>
   <g id="patch_304">
    <path d="M 102.628073 293.76 
L 105.569745 293.76 
L 105.569745 290.94214 
L 102.628073 290.94214 
z
" clip-path="url(#p507e692b9e)" style="fill: #ffe4e1"/>
   </g>
   <g id="patch_305">
    <path d="M 106.305164 293.76 
L 109.246836 293.76 
L 109.246836 291.144621 
L 106.305164 291.144621 
z
" clip-path="url(#p507e692b9e)" style="fill: #ffe4e1"/>
   </g>
   <g id="patch_306">
    <path d="M 109.982255 293.76 
L 112.923927 293.76 
L 112.923927 291.009634 
L 109.982255 291.009634 
z
" clip-path="url(#p507e692b9e)" style="fill: #ffe4e1"/>
   </g>
   <g id="patch_307">
    <path d="M 113.659345 293.76 
L 116.601018 293.76 
L 116.601018 291.026507 
L 113.659345 291.026507 
z
" clip-path="url(#p507e692b9e)" style="fill: #ffe4e1"/>
   </g>
   <g id="patch_308">
    <path d="M 117.336436 293.76 
L 120.278109 293.76 
L 120.278109 282.505434 
L 117.336436 282.505434 
z
" clip-path="url(#p507e692b9e)" style="fill: #ffe4e1"/>
   </g>
   <g id="patch_309">
    <path d="M 121.013527 293.76 
L 123.9552 293.76 
L 123.9552 290.99276 
L 121.013527 290.99276 
z
" clip-path="url(#p507e692b9e)" style="fill: #ffe4e1"/>
   </g>
   <g id="patch_310">
    <path d="M 124.690618 293.76 
L 127.632291 293.76 
L 127.632291 290.807153 
L 124.690618 290.807153 
z
" clip-path="url(#p507e692b9e)" style="fill: #ffe4e1"/>
   </g>
   <g id="patch_311">
    <path d="M 128.367709 293.76 
L 131.309382 293.76 
L 131.309382 290.99276 
L 128.367709 290.99276 
z
" clip-path="url(#p507e692b9e)" style="fill: #ffe4e1"/>
   </g>
   <g id="patch_312">
    <path d="M 132.0448 293.76 
L 134.986473 293.76 
L 134.986473 291.043381 
L 132.0448 291.043381 
z
" clip-path="url(#p507e692b9e)" style="fill: #ffe4e1"/>
   </g>
   <g id="patch_313">
    <path d="M 135.721891 293.76 
L 138.663564 293.76 
L 138.663564 290.99276 
L 135.721891 290.99276 
z
" clip-path="url(#p507e692b9e)" style="fill: #ffe4e1"/>
   </g>
   <g id="patch_314">
    <path d="M 139.398982 293.76 
L 142.340655 293.76 
L 142.340655 291.026507 
L 139.398982 291.026507 
z
" clip-path="url(#p507e692b9e)" style="fill: #ffe4e1"/>
   </g>
   <g id="patch_315">
    <path d="M 143.076073 293.76 
L 146.017745 293.76 
L 146.017745 291.043381 
L 143.076073 291.043381 
z
" clip-path="url(#p507e692b9e)" style="fill: #ffe4e1"/>
   </g>
   <g id="patch_316">
    <path d="M 146.753164 293.76 
L 149.694836 293.76 
L 149.694836 290.99276 
L 146.753164 290.99276 
z
" clip-path="url(#p507e692b9e)" style="fill: #ffe4e1"/>
   </g>
   <g id="patch_317">
    <path d="M 150.430255 293.76 
L 153.371927 293.76 
L 153.371927 291.043381 
L 150.430255 291.043381 
z
" clip-path="url(#p507e692b9e)" style="fill: #ffe4e1"/>
   </g>
   <g id="patch_318">
    <path d="M 154.107345 293.76 
L 157.049018 293.76 
L 157.049018 290.959014 
L 154.107345 290.959014 
z
" clip-path="url(#p507e692b9e)" style="fill: #ffe4e1"/>
   </g>
   <g id="patch_319">
    <path d="M 157.784436 293.76 
L 160.726109 293.76 
L 160.726109 290.874647 
L 157.784436 290.874647 
z
" clip-path="url(#p507e692b9e)" style="fill: #ffe4e1"/>
   </g>
   <g id="patch_320">
    <path d="M 161.461527 293.76 
L 164.4032 293.76 
L 164.4032 291.026507 
L 161.461527 291.026507 
z
" clip-path="url(#p507e692b9e)" style="fill: #ffe4e1"/>
   </g>
   <g id="patch_321">
    <path d="M 165.138618 293.76 
L 168.080291 293.76 
L 168.080291 291.077128 
L 165.138618 291.077128 
z
" clip-path="url(#p507e692b9e)" style="fill: #ffe4e1"/>
   </g>
   <g id="patch_322">
    <path d="M 168.815709 293.76 
L 171.757382 293.76 
L 171.757382 291.026507 
L 168.815709 291.026507 
z
" clip-path="url(#p507e692b9e)" style="fill: #ffe4e1"/>
   </g>
   <g id="patch_323">
    <path d="M 172.4928 293.76 
L 175.434473 293.76 
L 175.434473 291.060254 
L 172.4928 291.060254 
z
" clip-path="url(#p507e692b9e)" style="fill: #ffe4e1"/>
   </g>
   <g id="patch_324">
    <path d="M 176.169891 293.76 
L 179.111564 293.76 
L 179.111564 290.99276 
L 176.169891 290.99276 
z
" clip-path="url(#p507e692b9e)" style="fill: #ffe4e1"/>
   </g>
   <g id="patch_325">
    <path d="M 179.846982 293.76 
L 182.788655 293.76 
L 182.788655 291.026507 
L 179.846982 291.026507 
z
" clip-path="url(#p507e692b9e)" style="fill: #ffe4e1"/>
   </g>
   <g id="patch_326">
    <path d="M 183.524073 293.76 
L 186.465745 293.76 
L 186.465745 290.959014 
L 183.524073 290.959014 
z
" clip-path="url(#p507e692b9e)" style="fill: #ffe4e1"/>
   </g>
   <g id="patch_327">
    <path d="M 187.201164 293.76 
L 190.142836 293.76 
L 190.142836 290.807153 
L 187.201164 290.807153 
z
" clip-path="url(#p507e692b9e)" style="fill: #ffe4e1"/>
   </g>
   <g id="patch_328">
    <path d="M 190.878255 293.76 
L 193.819927 293.76 
L 193.819927 290.975887 
L 190.878255 290.975887 
z
" clip-path="url(#p507e692b9e)" style="fill: #ffe4e1"/>
   </g>
   <g id="patch_329">
    <path d="M 194.555345 293.76 
L 197.497018 293.76 
L 197.497018 290.824026 
L 194.555345 290.824026 
z
" clip-path="url(#p507e692b9e)" style="fill: #ffe4e1"/>
   </g>
   <g id="patch_330">
    <path d="M 198.232436 293.76 
L 201.174109 293.76 
L 201.174109 291.009634 
L 198.232436 291.009634 
z
" clip-path="url(#p507e692b9e)" style="fill: #ffe4e1"/>
   </g>
   <g id="patch_331">
    <path d="M 201.909527 293.76 
L 204.8512 293.76 
L 204.8512 291.094001 
L 201.909527 291.094001 
z
" clip-path="url(#p507e692b9e)" style="fill: #ffe4e1"/>
   </g>
   <g id="patch_332">
    <path d="M 205.586618 293.76 
L 208.528291 293.76 
L 208.528291 291.077128 
L 205.586618 291.077128 
z
" clip-path="url(#p507e692b9e)" style="fill: #ffe4e1"/>
   </g>
   <g id="patch_333">
    <path d="M 209.263709 293.76 
L 212.205382 293.76 
L 212.205382 291.110874 
L 209.263709 291.110874 
z
" clip-path="url(#p507e692b9e)" style="fill: #ffe4e1"/>
   </g>
   <g id="patch_334">
    <path d="M 212.9408 293.76 
L 215.882473 293.76 
L 215.882473 291.009634 
L 212.9408 291.009634 
z
" clip-path="url(#p507e692b9e)" style="fill: #ffe4e1"/>
   </g>
   <g id="patch_335">
    <path d="M 216.617891 293.76 
L 219.559564 293.76 
L 219.559564 291.060254 
L 216.617891 291.060254 
z
" clip-path="url(#p507e692b9e)" style="fill: #ffe4e1"/>
   </g>
   <g id="patch_336">
    <path d="M 220.294982 293.76 
L 223.236655 293.76 
L 223.236655 291.043381 
L 220.294982 291.043381 
z
" clip-path="url(#p507e692b9e)" style="fill: #ffe4e1"/>
   </g>
   <g id="patch_337">
    <path d="M 223.972073 293.76 
L 226.913745 293.76 
L 226.913745 290.874647 
L 223.972073 290.874647 
z
" clip-path="url(#p507e692b9e)" style="fill: #ffe4e1"/>
   </g>
   <g id="patch_338">
    <path d="M 227.649164 293.76 
L 230.590836 293.76 
L 230.590836 291.043381 
L 227.649164 291.043381 
z
" clip-path="url(#p507e692b9e)" style="fill: #ffe4e1"/>
   </g>
   <g id="patch_339">
    <path d="M 231.326255 293.76 
L 234.267927 293.76 
L 234.267927 290.975887 
L 231.326255 290.975887 
z
" clip-path="url(#p507e692b9e)" style="fill: #ffe4e1"/>
   </g>
   <g id="patch_340">
    <path d="M 235.003345 293.76 
L 237.945018 293.76 
L 237.945018 290.874647 
L 235.003345 290.874647 
z
" clip-path="url(#p507e692b9e)" style="fill: #ffe4e1"/>
   </g>
   <g id="patch_341">
    <path d="M 238.680436 293.76 
L 241.622109 293.76 
L 241.622109 291.127748 
L 238.680436 291.127748 
z
" clip-path="url(#p507e692b9e)" style="fill: #ffe4e1"/>
   </g>
   <g id="patch_342">
    <path d="M 242.357527 293.76 
L 245.2992 293.76 
L 245.2992 291.043381 
L 242.357527 291.043381 
z
" clip-path="url(#p507e692b9e)" style="fill: #ffe4e1"/>
   </g>
   <g id="patch_343">
    <path d="M 246.034618 293.76 
L 248.976291 293.76 
L 248.976291 291.094001 
L 246.034618 291.094001 
z
" clip-path="url(#p507e692b9e)" style="fill: #ffe4e1"/>
   </g>
   <g id="patch_344">
    <path d="M 249.711709 293.76 
L 252.653382 293.76 
L 252.653382 290.925267 
L 249.711709 290.925267 
z
" clip-path="url(#p507e692b9e)" style="fill: #ffe4e1"/>
   </g>
   <g id="patch_345">
    <path d="M 253.3888 293.76 
L 256.330473 293.76 
L 256.330473 291.110874 
L 253.3888 291.110874 
z
" clip-path="url(#p507e692b9e)" style="fill: #ffe4e1"/>
   </g>
   <g id="patch_346">
    <path d="M 257.065891 293.76 
L 260.007564 293.76 
L 260.007564 291.060254 
L 257.065891 291.060254 
z
" clip-path="url(#p507e692b9e)" style="fill: #ffe4e1"/>
   </g>
   <g id="patch_347">
    <path d="M 260.742982 293.76 
L 263.684655 293.76 
L 263.684655 291.161495 
L 260.742982 291.161495 
z
" clip-path="url(#p507e692b9e)" style="fill: #ffe4e1"/>
   </g>
   <g id="patch_348">
    <path d="M 264.420073 293.76 
L 267.361745 293.76 
L 267.361745 291.110874 
L 264.420073 291.110874 
z
" clip-path="url(#p507e692b9e)" style="fill: #ffe4e1"/>
   </g>
   <g id="patch_349">
    <path d="M 268.097164 293.76 
L 271.038836 293.76 
L 271.038836 291.009634 
L 268.097164 291.009634 
z
" clip-path="url(#p507e692b9e)" style="fill: #ffe4e1"/>
   </g>
   <g id="patch_350">
    <path d="M 271.774255 293.76 
L 274.715927 293.76 
L 274.715927 291.009634 
L 271.774255 291.009634 
z
" clip-path="url(#p507e692b9e)" style="fill: #ffe4e1"/>
   </g>
   <g id="patch_351">
    <path d="M 275.451345 293.76 
L 278.393018 293.76 
L 278.393018 291.060254 
L 275.451345 291.060254 
z
" clip-path="url(#p507e692b9e)" style="fill: #ffe4e1"/>
   </g>
   <g id="patch_352">
    <path d="M 279.128436 293.76 
L 282.070109 293.76 
L 282.070109 291.043381 
L 279.128436 291.043381 
z
" clip-path="url(#p507e692b9e)" style="fill: #ffe4e1"/>
   </g>
   <g id="patch_353">
    <path d="M 282.805527 293.76 
L 285.7472 293.76 
L 285.7472 291.127748 
L 282.805527 291.127748 
z
" clip-path="url(#p507e692b9e)" style="fill: #ffe4e1"/>
   </g>
   <g id="patch_354">
    <path d="M 286.482618 293.76 
L 289.424291 293.76 
L 289.424291 290.99276 
L 286.482618 290.99276 
z
" clip-path="url(#p507e692b9e)" style="fill: #ffe4e1"/>
   </g>
   <g id="patch_355">
    <path d="M 290.159709 293.76 
L 293.101382 293.76 
L 293.101382 290.857773 
L 290.159709 290.857773 
z
" clip-path="url(#p507e692b9e)" style="fill: #ffe4e1"/>
   </g>
   <g id="patch_356">
    <path d="M 293.8368 293.76 
L 296.778473 293.76 
L 296.778473 291.110874 
L 293.8368 291.110874 
z
" clip-path="url(#p507e692b9e)" style="fill: #ffe4e1"/>
   </g>
   <g id="patch_357">
    <path d="M 297.513891 293.76 
L 300.455564 293.76 
L 300.455564 291.110874 
L 297.513891 291.110874 
z
" clip-path="url(#p507e692b9e)" style="fill: #ffe4e1"/>
   </g>
   <g id="patch_358">
    <path d="M 301.190982 293.76 
L 304.132655 293.76 
L 304.132655 291.026507 
L 301.190982 291.026507 
z
" clip-path="url(#p507e692b9e)" style="fill: #ffe4e1"/>
   </g>
   <g id="patch_359">
    <path d="M 304.868073 293.76 
L 307.809745 293.76 
L 307.809745 291.060254 
L 304.868073 291.060254 
z
" clip-path="url(#p507e692b9e)" style="fill: #ffe4e1"/>
   </g>
   <g id="patch_360">
    <path d="M 308.545164 293.76 
L 311.486836 293.76 
L 311.486836 291.077128 
L 308.545164 291.077128 
z
" clip-path="url(#p507e692b9e)" style="fill: #ffe4e1"/>
   </g>
   <g id="patch_361">
    <path d="M 312.222255 293.76 
L 315.163927 293.76 
L 315.163927 291.060254 
L 312.222255 291.060254 
z
" clip-path="url(#p507e692b9e)" style="fill: #ffe4e1"/>
   </g>
   <g id="patch_362">
    <path d="M 315.899345 293.76 
L 318.841018 293.76 
L 318.841018 291.077128 
L 315.899345 291.077128 
z
" clip-path="url(#p507e692b9e)" style="fill: #ffe4e1"/>
   </g>
   <g id="patch_363">
    <path d="M 319.576436 293.76 
L 322.518109 293.76 
L 322.518109 291.043381 
L 319.576436 291.043381 
z
" clip-path="url(#p507e692b9e)" style="fill: #ffe4e1"/>
   </g>
   <g id="patch_364">
    <path d="M 323.253527 293.76 
L 326.1952 293.76 
L 326.1952 290.756533 
L 323.253527 290.756533 
z
" clip-path="url(#p507e692b9e)" style="fill: #ffe4e1"/>
   </g>
   <g id="patch_365">
    <path d="M 326.930618 293.76 
L 329.872291 293.76 
L 329.872291 291.043381 
L 326.930618 291.043381 
z
" clip-path="url(#p507e692b9e)" style="fill: #ffe4e1"/>
   </g>
   <g id="patch_366">
    <path d="M 330.607709 293.76 
L 333.549382 293.76 
L 333.549382 290.959014 
L 330.607709 290.959014 
z
" clip-path="url(#p507e692b9e)" style="fill: #ffe4e1"/>
   </g>
   <g id="patch_367">
    <path d="M 334.2848 293.76 
L 337.226473 293.76 
L 337.226473 291.110874 
L 334.2848 291.110874 
z
" clip-path="url(#p507e692b9e)" style="fill: #ffe4e1"/>
   </g>
   <g id="patch_368">
    <path d="M 337.961891 293.76 
L 340.903564 293.76 
L 340.903564 290.975887 
L 337.961891 290.975887 
z
" clip-path="url(#p507e692b9e)" style="fill: #ffe4e1"/>
   </g>
   <g id="patch_369">
    <path d="M 341.638982 293.76 
L 344.580655 293.76 
L 344.580655 291.060254 
L 341.638982 291.060254 
z
" clip-path="url(#p507e692b9e)" style="fill: #ffe4e1"/>
   </g>
   <g id="patch_370">
    <path d="M 345.316073 293.76 
L 348.257745 293.76 
L 348.257745 291.026507 
L 345.316073 291.026507 
z
" clip-path="url(#p507e692b9e)" style="fill: #ffe4e1"/>
   </g>
   <g id="patch_371">
    <path d="M 348.993164 293.76 
L 351.934836 293.76 
L 351.934836 291.060254 
L 348.993164 291.060254 
z
" clip-path="url(#p507e692b9e)" style="fill: #ffe4e1"/>
   </g>
   <g id="patch_372">
    <path d="M 352.670255 293.76 
L 355.611927 293.76 
L 355.611927 289.676634 
L 352.670255 289.676634 
z
" clip-path="url(#p507e692b9e)" style="fill: #ffe4e1"/>
   </g>
   <g id="patch_373">
    <path d="M 356.347345 293.76 
L 359.289018 293.76 
L 359.289018 290.94214 
L 356.347345 290.94214 
z
" clip-path="url(#p507e692b9e)" style="fill: #ffe4e1"/>
   </g>
   <g id="patch_374">
    <path d="M 360.024436 293.76 
L 362.966109 293.76 
L 362.966109 291.144621 
L 360.024436 291.144621 
z
" clip-path="url(#p507e692b9e)" style="fill: #ffe4e1"/>
   </g>
   <g id="patch_375">
    <path d="M 363.701527 293.76 
L 366.6432 293.76 
L 366.6432 291.094001 
L 363.701527 291.094001 
z
" clip-path="url(#p507e692b9e)" style="fill: #ffe4e1"/>
   </g>
   <g id="patch_376">
    <path d="M 367.378618 293.76 
L 370.320291 293.76 
L 370.320291 291.094001 
L 367.378618 291.094001 
z
" clip-path="url(#p507e692b9e)" style="fill: #ffe4e1"/>
   </g>
   <g id="patch_377">
    <path d="M 371.055709 293.76 
L 373.997382 293.76 
L 373.997382 290.216584 
L 371.055709 290.216584 
z
" clip-path="url(#p507e692b9e)" style="fill: #ffe4e1"/>
   </g>
   <g id="patch_378">
    <path d="M 374.7328 293.76 
L 377.674473 293.76 
L 377.674473 291.043381 
L 374.7328 291.043381 
z
" clip-path="url(#p507e692b9e)" style="fill: #ffe4e1"/>
   </g>
   <g id="patch_379">
    <path d="M 378.409891 293.76 
L 381.351564 293.76 
L 381.351564 291.195241 
L 378.409891 291.195241 
z
" clip-path="url(#p507e692b9e)" style="fill: #ffe4e1"/>
   </g>
   <g id="patch_380">
    <path d="M 382.086982 293.76 
L 385.028655 293.76 
L 385.028655 291.094001 
L 382.086982 291.094001 
z
" clip-path="url(#p507e692b9e)" style="fill: #ffe4e1"/>
   </g>
   <g id="patch_381">
    <path d="M 385.764073 293.76 
L 388.705745 293.76 
L 388.705745 290.975887 
L 385.764073 290.975887 
z
" clip-path="url(#p507e692b9e)" style="fill: #ffe4e1"/>
   </g>
   <g id="patch_382">
    <path d="M 389.441164 293.76 
L 392.382836 293.76 
L 392.382836 291.127748 
L 389.441164 291.127748 
z
" clip-path="url(#p507e692b9e)" style="fill: #ffe4e1"/>
   </g>
   <g id="patch_383">
    <path d="M 393.118255 293.76 
L 396.059927 293.76 
L 396.059927 291.127748 
L 393.118255 291.127748 
z
" clip-path="url(#p507e692b9e)" style="fill: #ffe4e1"/>
   </g>
   <g id="patch_384">
    <path d="M 396.795345 293.76 
L 399.737018 293.76 
L 399.737018 291.110874 
L 396.795345 291.110874 
z
" clip-path="url(#p507e692b9e)" style="fill: #ffe4e1"/>
   </g>
   <g id="patch_385">
    <path d="M 400.472436 293.76 
L 403.414109 293.76 
L 403.414109 291.127748 
L 400.472436 291.127748 
z
" clip-path="url(#p507e692b9e)" style="fill: #ffe4e1"/>
   </g>
   <g id="patch_386">
    <path d="M 404.149527 293.76 
L 407.0912 293.76 
L 407.0912 291.094001 
L 404.149527 291.094001 
z
" clip-path="url(#p507e692b9e)" style="fill: #ffe4e1"/>
   </g>
   <g id="patch_387">
    <path d="M 407.826618 293.76 
L 410.768291 293.76 
L 410.768291 291.094001 
L 407.826618 291.094001 
z
" clip-path="url(#p507e692b9e)" style="fill: #ffe4e1"/>
   </g>
   <g id="patch_388">
    <path d="M 411.503709 293.76 
L 414.445382 293.76 
L 414.445382 291.043381 
L 411.503709 291.043381 
z
" clip-path="url(#p507e692b9e)" style="fill: #ffe4e1"/>
   </g>
   <g id="patch_389">
    <path d="M 415.1808 293.76 
L 418.122473 293.76 
L 418.122473 291.043381 
L 415.1808 291.043381 
z
" clip-path="url(#p507e692b9e)" style="fill: #ffe4e1"/>
   </g>
   <g id="patch_390">
    <path d="M 418.857891 293.76 
L 421.799564 293.76 
L 421.799564 283.82156 
L 418.857891 283.82156 
z
" clip-path="url(#p507e692b9e)" style="fill: #ffe4e1"/>
   </g>
   <g id="patch_391">
    <path d="M 422.534982 293.76 
L 425.476655 293.76 
L 425.476655 291.077128 
L 422.534982 291.077128 
z
" clip-path="url(#p507e692b9e)" style="fill: #ffe4e1"/>
   </g>
   <g id="patch_392">
    <path d="M 426.212073 293.76 
L 429.153745 293.76 
L 429.153745 291.060254 
L 426.212073 291.060254 
z
" clip-path="url(#p507e692b9e)" style="fill: #ffe4e1"/>
   </g>
   <g id="patch_393">
    <path d="M 429.889164 293.76 
L 432.830836 293.76 
L 432.830836 291.077128 
L 429.889164 291.077128 
z
" clip-path="url(#p507e692b9e)" style="fill: #ffe4e1"/>
   </g>
   <g id="patch_394">
    <path d="M 433.566255 293.76 
L 436.507927 293.76 
L 436.507927 291.009634 
L 433.566255 291.009634 
z
" clip-path="url(#p507e692b9e)" style="fill: #ffe4e1"/>
   </g>
   <g id="patch_395">
    <path d="M 437.243345 293.76 
L 440.185018 293.76 
L 440.185018 290.99276 
L 437.243345 290.99276 
z
" clip-path="url(#p507e692b9e)" style="fill: #ffe4e1"/>
   </g>
   <g id="patch_396">
    <path d="M 440.920436 293.76 
L 443.862109 293.76 
L 443.862109 291.060254 
L 440.920436 291.060254 
z
" clip-path="url(#p507e692b9e)" style="fill: #ffe4e1"/>
   </g>
   <g id="patch_397">
    <path d="M 444.597527 293.76 
L 447.5392 293.76 
L 447.5392 291.110874 
L 444.597527 291.110874 
z
" clip-path="url(#p507e692b9e)" style="fill: #ffe4e1"/>
   </g>
   <g id="patch_398">
    <path d="M 448.274618 293.76 
L 451.216291 293.76 
L 451.216291 291.060254 
L 448.274618 291.060254 
z
" clip-path="url(#p507e692b9e)" style="fill: #ffe4e1"/>
   </g>
   <g id="matplotlib.axis_1">
    <g id="xtick_1">
     <g id="line2d_1">
      <path d="M 159.255273 293.76 
L 159.255273 6.912 
" clip-path="url(#p507e692b9e)" style="fill: none; stroke: #b0b0b0; stroke-width: 0.8; stroke-linecap: square"/>
     </g>
     <g id="line2d_2">
      <defs>
       <path id="m3750163163" d="M 0 0 
L 0 3.5 
" style="stroke: #000000; stroke-width: 0.8"/>
      </defs>
      <g>
       <use xlink:href="#m3750163163" x="159.255273" y="293.76" style="stroke: #000000; stroke-width: 0.8"/>
      </g>
     </g>
     <g id="text_1">
      <!-- 20 -->
      <g transform="translate(146.530273 315.956875) scale(0.2 -0.2)">
       <defs>
        <path id="DejaVuSans-32" d="M 1228 531 
L 3431 531 
L 3431 0 
L 469 0 
L 469 531 
Q 828 903 1448 1529 
Q 2069 2156 2228 2338 
Q 2531 2678 2651 2914 
Q 2772 3150 2772 3378 
Q 2772 3750 2511 3984 
Q 2250 4219 1831 4219 
Q 1534 4219 1204 4116 
Q 875 4013 500 3803 
L 500 4441 
Q 881 4594 1212 4672 
Q 1544 4750 1819 4750 
Q 2544 4750 2975 4387 
Q 3406 4025 3406 3419 
Q 3406 3131 3298 2873 
Q 3191 2616 2906 2266 
Q 2828 2175 2409 1742 
Q 1991 1309 1228 531 
z
" transform="scale(0.015625)"/>
        <path id="DejaVuSans-30" d="M 2034 4250 
Q 1547 4250 1301 3770 
Q 1056 3291 1056 2328 
Q 1056 1369 1301 889 
Q 1547 409 2034 409 
Q 2525 409 2770 889 
Q 3016 1369 3016 2328 
Q 3016 3291 2770 3770 
Q 2525 4250 2034 4250 
z
M 2034 4750 
Q 2819 4750 3233 4129 
Q 3647 3509 3647 2328 
Q 3647 1150 3233 529 
Q 2819 -91 2034 -91 
Q 1250 -91 836 529 
Q 422 1150 422 2328 
Q 422 3509 836 4129 
Q 1250 4750 2034 4750 
z
" transform="scale(0.015625)"/>
       </defs>
       <use xlink:href="#DejaVuSans-32"/>
       <use xlink:href="#DejaVuSans-30" x="63.623047"/>
      </g>
     </g>
    </g>
    <g id="xtick_2">
     <g id="line2d_3">
      <path d="M 232.797091 293.76 
L 232.797091 6.912 
" clip-path="url(#p507e692b9e)" style="fill: none; stroke: #b0b0b0; stroke-width: 0.8; stroke-linecap: square"/>
     </g>
     <g id="line2d_4">
      <g>
       <use xlink:href="#m3750163163" x="232.797091" y="293.76" style="stroke: #000000; stroke-width: 0.8"/>
      </g>
     </g>
     <g id="text_2">
      <!-- 40 -->
      <g transform="translate(220.072091 315.956875) scale(0.2 -0.2)">
       <defs>
        <path id="DejaVuSans-34" d="M 2419 4116 
L 825 1625 
L 2419 1625 
L 2419 4116 
z
M 2253 4666 
L 3047 4666 
L 3047 1625 
L 3713 1625 
L 3713 1100 
L 3047 1100 
L 3047 0 
L 2419 0 
L 2419 1100 
L 313 1100 
L 313 1709 
L 2253 4666 
z
" transform="scale(0.015625)"/>
       </defs>
       <use xlink:href="#DejaVuSans-34"/>
       <use xlink:href="#DejaVuSans-30" x="63.623047"/>
      </g>
     </g>
    </g>
    <g id="xtick_3">
     <g id="line2d_5">
      <path d="M 306.338909 293.76 
L 306.338909 6.912 
" clip-path="url(#p507e692b9e)" style="fill: none; stroke: #b0b0b0; stroke-width: 0.8; stroke-linecap: square"/>
     </g>
     <g id="line2d_6">
      <g>
       <use xlink:href="#m3750163163" x="306.338909" y="293.76" style="stroke: #000000; stroke-width: 0.8"/>
      </g>
     </g>
     <g id="text_3">
      <!-- 60 -->
      <g transform="translate(293.613909 315.956875) scale(0.2 -0.2)">
       <defs>
        <path id="DejaVuSans-36" d="M 2113 2584 
Q 1688 2584 1439 2293 
Q 1191 2003 1191 1497 
Q 1191 994 1439 701 
Q 1688 409 2113 409 
Q 2538 409 2786 701 
Q 3034 994 3034 1497 
Q 3034 2003 2786 2293 
Q 2538 2584 2113 2584 
z
M 3366 4563 
L 3366 3988 
Q 3128 4100 2886 4159 
Q 2644 4219 2406 4219 
Q 1781 4219 1451 3797 
Q 1122 3375 1075 2522 
Q 1259 2794 1537 2939 
Q 1816 3084 2150 3084 
Q 2853 3084 3261 2657 
Q 3669 2231 3669 1497 
Q 3669 778 3244 343 
Q 2819 -91 2113 -91 
Q 1303 -91 875 529 
Q 447 1150 447 2328 
Q 447 3434 972 4092 
Q 1497 4750 2381 4750 
Q 2619 4750 2861 4703 
Q 3103 4656 3366 4563 
z
" transform="scale(0.015625)"/>
       </defs>
       <use xlink:href="#DejaVuSans-36"/>
       <use xlink:href="#DejaVuSans-30" x="63.623047"/>
      </g>
     </g>
    </g>
    <g id="xtick_4">
     <g id="line2d_7">
      <path d="M 379.880727 293.76 
L 379.880727 6.912 
" clip-path="url(#p507e692b9e)" style="fill: none; stroke: #b0b0b0; stroke-width: 0.8; stroke-linecap: square"/>
     </g>
     <g id="line2d_8">
      <g>
       <use xlink:href="#m3750163163" x="379.880727" y="293.76" style="stroke: #000000; stroke-width: 0.8"/>
      </g>
     </g>
     <g id="text_4">
      <!-- 80 -->
      <g transform="translate(367.155727 315.956875) scale(0.2 -0.2)">
       <defs>
        <path id="DejaVuSans-38" d="M 2034 2216 
Q 1584 2216 1326 1975 
Q 1069 1734 1069 1313 
Q 1069 891 1326 650 
Q 1584 409 2034 409 
Q 2484 409 2743 651 
Q 3003 894 3003 1313 
Q 3003 1734 2745 1975 
Q 2488 2216 2034 2216 
z
M 1403 2484 
Q 997 2584 770 2862 
Q 544 3141 544 3541 
Q 544 4100 942 4425 
Q 1341 4750 2034 4750 
Q 2731 4750 3128 4425 
Q 3525 4100 3525 3541 
Q 3525 3141 3298 2862 
Q 3072 2584 2669 2484 
Q 3125 2378 3379 2068 
Q 3634 1759 3634 1313 
Q 3634 634 3220 271 
Q 2806 -91 2034 -91 
Q 1263 -91 848 271 
Q 434 634 434 1313 
Q 434 1759 690 2068 
Q 947 2378 1403 2484 
z
M 1172 3481 
Q 1172 3119 1398 2916 
Q 1625 2713 2034 2713 
Q 2441 2713 2670 2916 
Q 2900 3119 2900 3481 
Q 2900 3844 2670 4047 
Q 2441 4250 2034 4250 
Q 1625 4250 1398 4047 
Q 1172 3844 1172 3481 
z
" transform="scale(0.015625)"/>
       </defs>
       <use xlink:href="#DejaVuSans-38"/>
       <use xlink:href="#DejaVuSans-30" x="63.623047"/>
      </g>
     </g>
    </g>
    <g id="text_5">
     <!-- batch iteration -->
     <g transform="translate(203.277375 337.793437) scale(0.18 -0.18)">
      <defs>
       <path id="DejaVuSans-62" d="M 3116 1747 
Q 3116 2381 2855 2742 
Q 2594 3103 2138 3103 
Q 1681 3103 1420 2742 
Q 1159 2381 1159 1747 
Q 1159 1113 1420 752 
Q 1681 391 2138 391 
Q 2594 391 2855 752 
Q 3116 1113 3116 1747 
z
M 1159 2969 
Q 1341 3281 1617 3432 
Q 1894 3584 2278 3584 
Q 2916 3584 3314 3078 
Q 3713 2572 3713 1747 
Q 3713 922 3314 415 
Q 2916 -91 2278 -91 
Q 1894 -91 1617 61 
Q 1341 213 1159 525 
L 1159 0 
L 581 0 
L 581 4863 
L 1159 4863 
L 1159 2969 
z
" transform="scale(0.015625)"/>
       <path id="DejaVuSans-61" d="M 2194 1759 
Q 1497 1759 1228 1600 
Q 959 1441 959 1056 
Q 959 750 1161 570 
Q 1363 391 1709 391 
Q 2188 391 2477 730 
Q 2766 1069 2766 1631 
L 2766 1759 
L 2194 1759 
z
M 3341 1997 
L 3341 0 
L 2766 0 
L 2766 531 
Q 2569 213 2275 61 
Q 1981 -91 1556 -91 
Q 1019 -91 701 211 
Q 384 513 384 1019 
Q 384 1609 779 1909 
Q 1175 2209 1959 2209 
L 2766 2209 
L 2766 2266 
Q 2766 2663 2505 2880 
Q 2244 3097 1772 3097 
Q 1472 3097 1187 3025 
Q 903 2953 641 2809 
L 641 3341 
Q 956 3463 1253 3523 
Q 1550 3584 1831 3584 
Q 2591 3584 2966 3190 
Q 3341 2797 3341 1997 
z
" transform="scale(0.015625)"/>
       <path id="DejaVuSans-74" d="M 1172 4494 
L 1172 3500 
L 2356 3500 
L 2356 3053 
L 1172 3053 
L 1172 1153 
Q 1172 725 1289 603 
Q 1406 481 1766 481 
L 2356 481 
L 2356 0 
L 1766 0 
Q 1100 0 847 248 
Q 594 497 594 1153 
L 594 3053 
L 172 3053 
L 172 3500 
L 594 3500 
L 594 4494 
L 1172 4494 
z
" transform="scale(0.015625)"/>
       <path id="DejaVuSans-63" d="M 3122 3366 
L 3122 2828 
Q 2878 2963 2633 3030 
Q 2388 3097 2138 3097 
Q 1578 3097 1268 2742 
Q 959 2388 959 1747 
Q 959 1106 1268 751 
Q 1578 397 2138 397 
Q 2388 397 2633 464 
Q 2878 531 3122 666 
L 3122 134 
Q 2881 22 2623 -34 
Q 2366 -91 2075 -91 
Q 1284 -91 818 406 
Q 353 903 353 1747 
Q 353 2603 823 3093 
Q 1294 3584 2113 3584 
Q 2378 3584 2631 3529 
Q 2884 3475 3122 3366 
z
" transform="scale(0.015625)"/>
       <path id="DejaVuSans-68" d="M 3513 2113 
L 3513 0 
L 2938 0 
L 2938 2094 
Q 2938 2591 2744 2837 
Q 2550 3084 2163 3084 
Q 1697 3084 1428 2787 
Q 1159 2491 1159 1978 
L 1159 0 
L 581 0 
L 581 4863 
L 1159 4863 
L 1159 2956 
Q 1366 3272 1645 3428 
Q 1925 3584 2291 3584 
Q 2894 3584 3203 3211 
Q 3513 2838 3513 2113 
z
" transform="scale(0.015625)"/>
       <path id="DejaVuSans-20" transform="scale(0.015625)"/>
       <path id="DejaVuSans-69" d="M 603 3500 
L 1178 3500 
L 1178 0 
L 603 0 
L 603 3500 
z
M 603 4863 
L 1178 4863 
L 1178 4134 
L 603 4134 
L 603 4863 
z
" transform="scale(0.015625)"/>
       <path id="DejaVuSans-65" d="M 3597 1894 
L 3597 1613 
L 953 1613 
Q 991 1019 1311 708 
Q 1631 397 2203 397 
Q 2534 397 2845 478 
Q 3156 559 3463 722 
L 3463 178 
Q 3153 47 2828 -22 
Q 2503 -91 2169 -91 
Q 1331 -91 842 396 
Q 353 884 353 1716 
Q 353 2575 817 3079 
Q 1281 3584 2069 3584 
Q 2775 3584 3186 3129 
Q 3597 2675 3597 1894 
z
M 3022 2063 
Q 3016 2534 2758 2815 
Q 2500 3097 2075 3097 
Q 1594 3097 1305 2825 
Q 1016 2553 972 2059 
L 3022 2063 
z
" transform="scale(0.015625)"/>
       <path id="DejaVuSans-72" d="M 2631 2963 
Q 2534 3019 2420 3045 
Q 2306 3072 2169 3072 
Q 1681 3072 1420 2755 
Q 1159 2438 1159 1844 
L 1159 0 
L 581 0 
L 581 3500 
L 1159 3500 
L 1159 2956 
Q 1341 3275 1631 3429 
Q 1922 3584 2338 3584 
Q 2397 3584 2469 3576 
Q 2541 3569 2628 3553 
L 2631 2963 
z
" transform="scale(0.015625)"/>
       <path id="DejaVuSans-6f" d="M 1959 3097 
Q 1497 3097 1228 2736 
Q 959 2375 959 1747 
Q 959 1119 1226 758 
Q 1494 397 1959 397 
Q 2419 397 2687 759 
Q 2956 1122 2956 1747 
Q 2956 2369 2687 2733 
Q 2419 3097 1959 3097 
z
M 1959 3584 
Q 2709 3584 3137 3096 
Q 3566 2609 3566 1747 
Q 3566 888 3137 398 
Q 2709 -91 1959 -91 
Q 1206 -91 779 398 
Q 353 888 353 1747 
Q 353 2609 779 3096 
Q 1206 3584 1959 3584 
z
" transform="scale(0.015625)"/>
       <path id="DejaVuSans-6e" d="M 3513 2113 
L 3513 0 
L 2938 0 
L 2938 2094 
Q 2938 2591 2744 2837 
Q 2550 3084 2163 3084 
Q 1697 3084 1428 2787 
Q 1159 2491 1159 1978 
L 1159 0 
L 581 0 
L 581 3500 
L 1159 3500 
L 1159 2956 
Q 1366 3272 1645 3428 
Q 1925 3584 2291 3584 
Q 2894 3584 3203 3211 
Q 3513 2838 3513 2113 
z
" transform="scale(0.015625)"/>
      </defs>
      <use xlink:href="#DejaVuSans-62"/>
      <use xlink:href="#DejaVuSans-61" x="63.476562"/>
      <use xlink:href="#DejaVuSans-74" x="124.755859"/>
      <use xlink:href="#DejaVuSans-63" x="163.964844"/>
      <use xlink:href="#DejaVuSans-68" x="218.945312"/>
      <use xlink:href="#DejaVuSans-20" x="282.324219"/>
      <use xlink:href="#DejaVuSans-69" x="314.111328"/>
      <use xlink:href="#DejaVuSans-74" x="341.894531"/>
      <use xlink:href="#DejaVuSans-65" x="381.103516"/>
      <use xlink:href="#DejaVuSans-72" x="442.626953"/>
      <use xlink:href="#DejaVuSans-61" x="483.740234"/>
      <use xlink:href="#DejaVuSans-74" x="545.019531"/>
      <use xlink:href="#DejaVuSans-69" x="584.228516"/>
      <use xlink:href="#DejaVuSans-6f" x="612.011719"/>
      <use xlink:href="#DejaVuSans-6e" x="673.193359"/>
     </g>
    </g>
   </g>
   <g id="matplotlib.axis_2">
    <g id="ytick_1">
     <g id="line2d_9">
      <path d="M 87.552 293.76 
L 451.584 293.76 
" clip-path="url(#p507e692b9e)" style="fill: none; stroke: #b0b0b0; stroke-width: 0.8; stroke-linecap: square"/>
     </g>
     <g id="line2d_10">
      <defs>
       <path id="m50c2d0afd9" d="M 0 0 
L -3.5 0 
" style="stroke: #000000; stroke-width: 0.8"/>
      </defs>
      <g>
       <use xlink:href="#m50c2d0afd9" x="87.552" y="293.76" style="stroke: #000000; stroke-width: 0.8"/>
      </g>
     </g>
     <g id="text_6">
      <!-- 0.000 -->
      <g transform="translate(23.29575 301.358437) scale(0.2 -0.2)">
       <defs>
        <path id="DejaVuSans-2e" d="M 684 794 
L 1344 794 
L 1344 0 
L 684 0 
L 684 794 
z
" transform="scale(0.015625)"/>
       </defs>
       <use xlink:href="#DejaVuSans-30"/>
       <use xlink:href="#DejaVuSans-2e" x="63.623047"/>
       <use xlink:href="#DejaVuSans-30" x="95.410156"/>
       <use xlink:href="#DejaVuSans-30" x="159.033203"/>
       <use xlink:href="#DejaVuSans-30" x="222.65625"/>
      </g>
     </g>
    </g>
    <g id="ytick_2">
     <g id="line2d_11">
      <path d="M 87.552 251.576471 
L 451.584 251.576471 
" clip-path="url(#p507e692b9e)" style="fill: none; stroke: #b0b0b0; stroke-width: 0.8; stroke-linecap: square"/>
     </g>
     <g id="line2d_12">
      <g>
       <use xlink:href="#m50c2d0afd9" x="87.552" y="251.576471" style="stroke: #000000; stroke-width: 0.8"/>
      </g>
     </g>
     <g id="text_7">
      <!-- 0.025 -->
      <g transform="translate(23.29575 259.174908) scale(0.2 -0.2)">
       <defs>
        <path id="DejaVuSans-35" d="M 691 4666 
L 3169 4666 
L 3169 4134 
L 1269 4134 
L 1269 2991 
Q 1406 3038 1543 3061 
Q 1681 3084 1819 3084 
Q 2600 3084 3056 2656 
Q 3513 2228 3513 1497 
Q 3513 744 3044 326 
Q 2575 -91 1722 -91 
Q 1428 -91 1123 -41 
Q 819 9 494 109 
L 494 744 
Q 775 591 1075 516 
Q 1375 441 1709 441 
Q 2250 441 2565 725 
Q 2881 1009 2881 1497 
Q 2881 1984 2565 2268 
Q 2250 2553 1709 2553 
Q 1456 2553 1204 2497 
Q 953 2441 691 2322 
L 691 4666 
z
" transform="scale(0.015625)"/>
       </defs>
       <use xlink:href="#DejaVuSans-30"/>
       <use xlink:href="#DejaVuSans-2e" x="63.623047"/>
       <use xlink:href="#DejaVuSans-30" x="95.410156"/>
       <use xlink:href="#DejaVuSans-32" x="159.033203"/>
       <use xlink:href="#DejaVuSans-35" x="222.65625"/>
      </g>
     </g>
    </g>
    <g id="ytick_3">
     <g id="line2d_13">
      <path d="M 87.552 209.392941 
L 451.584 209.392941 
" clip-path="url(#p507e692b9e)" style="fill: none; stroke: #b0b0b0; stroke-width: 0.8; stroke-linecap: square"/>
     </g>
     <g id="line2d_14">
      <g>
       <use xlink:href="#m50c2d0afd9" x="87.552" y="209.392941" style="stroke: #000000; stroke-width: 0.8"/>
      </g>
     </g>
     <g id="text_8">
      <!-- 0.050 -->
      <g transform="translate(23.29575 216.991379) scale(0.2 -0.2)">
       <use xlink:href="#DejaVuSans-30"/>
       <use xlink:href="#DejaVuSans-2e" x="63.623047"/>
       <use xlink:href="#DejaVuSans-30" x="95.410156"/>
       <use xlink:href="#DejaVuSans-35" x="159.033203"/>
       <use xlink:href="#DejaVuSans-30" x="222.65625"/>
      </g>
     </g>
    </g>
    <g id="ytick_4">
     <g id="line2d_15">
      <path d="M 87.552 167.209412 
L 451.584 167.209412 
" clip-path="url(#p507e692b9e)" style="fill: none; stroke: #b0b0b0; stroke-width: 0.8; stroke-linecap: square"/>
     </g>
     <g id="line2d_16">
      <g>
       <use xlink:href="#m50c2d0afd9" x="87.552" y="167.209412" style="stroke: #000000; stroke-width: 0.8"/>
      </g>
     </g>
     <g id="text_9">
      <!-- 0.075 -->
      <g transform="translate(23.29575 174.807849) scale(0.2 -0.2)">
       <defs>
        <path id="DejaVuSans-37" d="M 525 4666 
L 3525 4666 
L 3525 4397 
L 1831 0 
L 1172 0 
L 2766 4134 
L 525 4134 
L 525 4666 
z
" transform="scale(0.015625)"/>
       </defs>
       <use xlink:href="#DejaVuSans-30"/>
       <use xlink:href="#DejaVuSans-2e" x="63.623047"/>
       <use xlink:href="#DejaVuSans-30" x="95.410156"/>
       <use xlink:href="#DejaVuSans-37" x="159.033203"/>
       <use xlink:href="#DejaVuSans-35" x="222.65625"/>
      </g>
     </g>
    </g>
    <g id="ytick_5">
     <g id="line2d_17">
      <path d="M 87.552 125.025882 
L 451.584 125.025882 
" clip-path="url(#p507e692b9e)" style="fill: none; stroke: #b0b0b0; stroke-width: 0.8; stroke-linecap: square"/>
     </g>
     <g id="line2d_18">
      <g>
       <use xlink:href="#m50c2d0afd9" x="87.552" y="125.025882" style="stroke: #000000; stroke-width: 0.8"/>
      </g>
     </g>
     <g id="text_10">
      <!-- 0.100 -->
      <g transform="translate(23.29575 132.62432) scale(0.2 -0.2)">
       <defs>
        <path id="DejaVuSans-31" d="M 794 531 
L 1825 531 
L 1825 4091 
L 703 3866 
L 703 4441 
L 1819 4666 
L 2450 4666 
L 2450 531 
L 3481 531 
L 3481 0 
L 794 0 
L 794 531 
z
" transform="scale(0.015625)"/>
       </defs>
       <use xlink:href="#DejaVuSans-30"/>
       <use xlink:href="#DejaVuSans-2e" x="63.623047"/>
       <use xlink:href="#DejaVuSans-31" x="95.410156"/>
       <use xlink:href="#DejaVuSans-30" x="159.033203"/>
       <use xlink:href="#DejaVuSans-30" x="222.65625"/>
      </g>
     </g>
    </g>
    <g id="ytick_6">
     <g id="line2d_19">
      <path d="M 87.552 82.842353 
L 451.584 82.842353 
" clip-path="url(#p507e692b9e)" style="fill: none; stroke: #b0b0b0; stroke-width: 0.8; stroke-linecap: square"/>
     </g>
     <g id="line2d_20">
      <g>
       <use xlink:href="#m50c2d0afd9" x="87.552" y="82.842353" style="stroke: #000000; stroke-width: 0.8"/>
      </g>
     </g>
     <g id="text_11">
      <!-- 0.125 -->
      <g transform="translate(23.29575 90.44079) scale(0.2 -0.2)">
       <use xlink:href="#DejaVuSans-30"/>
       <use xlink:href="#DejaVuSans-2e" x="63.623047"/>
       <use xlink:href="#DejaVuSans-31" x="95.410156"/>
       <use xlink:href="#DejaVuSans-32" x="159.033203"/>
       <use xlink:href="#DejaVuSans-35" x="222.65625"/>
      </g>
     </g>
    </g>
    <g id="ytick_7">
     <g id="line2d_21">
      <path d="M 87.552 40.658824 
L 451.584 40.658824 
" clip-path="url(#p507e692b9e)" style="fill: none; stroke: #b0b0b0; stroke-width: 0.8; stroke-linecap: square"/>
     </g>
     <g id="line2d_22">
      <g>
       <use xlink:href="#m50c2d0afd9" x="87.552" y="40.658824" style="stroke: #000000; stroke-width: 0.8"/>
      </g>
     </g>
     <g id="text_12">
      <!-- 0.150 -->
      <g transform="translate(23.29575 48.257261) scale(0.2 -0.2)">
       <use xlink:href="#DejaVuSans-30"/>
       <use xlink:href="#DejaVuSans-2e" x="63.623047"/>
       <use xlink:href="#DejaVuSans-31" x="95.410156"/>
       <use xlink:href="#DejaVuSans-35" x="159.033203"/>
       <use xlink:href="#DejaVuSans-30" x="222.65625"/>
      </g>
     </g>
    </g>
    <g id="text_13">
     <!-- time[s] -->
     <g transform="translate(15.552313 182.380219) rotate(-90) scale(0.18 -0.18)">
      <defs>
       <path id="DejaVuSans-6d" d="M 3328 2828 
Q 3544 3216 3844 3400 
Q 4144 3584 4550 3584 
Q 5097 3584 5394 3201 
Q 5691 2819 5691 2113 
L 5691 0 
L 5113 0 
L 5113 2094 
Q 5113 2597 4934 2840 
Q 4756 3084 4391 3084 
Q 3944 3084 3684 2787 
Q 3425 2491 3425 1978 
L 3425 0 
L 2847 0 
L 2847 2094 
Q 2847 2600 2669 2842 
Q 2491 3084 2119 3084 
Q 1678 3084 1418 2786 
Q 1159 2488 1159 1978 
L 1159 0 
L 581 0 
L 581 3500 
L 1159 3500 
L 1159 2956 
Q 1356 3278 1631 3431 
Q 1906 3584 2284 3584 
Q 2666 3584 2933 3390 
Q 3200 3197 3328 2828 
z
" transform="scale(0.015625)"/>
       <path id="DejaVuSans-5b" d="M 550 4863 
L 1875 4863 
L 1875 4416 
L 1125 4416 
L 1125 -397 
L 1875 -397 
L 1875 -844 
L 550 -844 
L 550 4863 
z
" transform="scale(0.015625)"/>
       <path id="DejaVuSans-73" d="M 2834 3397 
L 2834 2853 
Q 2591 2978 2328 3040 
Q 2066 3103 1784 3103 
Q 1356 3103 1142 2972 
Q 928 2841 928 2578 
Q 928 2378 1081 2264 
Q 1234 2150 1697 2047 
L 1894 2003 
Q 2506 1872 2764 1633 
Q 3022 1394 3022 966 
Q 3022 478 2636 193 
Q 2250 -91 1575 -91 
Q 1294 -91 989 -36 
Q 684 19 347 128 
L 347 722 
Q 666 556 975 473 
Q 1284 391 1588 391 
Q 1994 391 2212 530 
Q 2431 669 2431 922 
Q 2431 1156 2273 1281 
Q 2116 1406 1581 1522 
L 1381 1569 
Q 847 1681 609 1914 
Q 372 2147 372 2553 
Q 372 3047 722 3315 
Q 1072 3584 1716 3584 
Q 2034 3584 2315 3537 
Q 2597 3491 2834 3397 
z
" transform="scale(0.015625)"/>
       <path id="DejaVuSans-5d" d="M 1947 4863 
L 1947 -844 
L 622 -844 
L 622 -397 
L 1369 -397 
L 1369 4416 
L 622 4416 
L 622 4863 
L 1947 4863 
z
" transform="scale(0.015625)"/>
      </defs>
      <use xlink:href="#DejaVuSans-74"/>
      <use xlink:href="#DejaVuSans-69" x="39.208984"/>
      <use xlink:href="#DejaVuSans-6d" x="66.992188"/>
      <use xlink:href="#DejaVuSans-65" x="164.404297"/>
      <use xlink:href="#DejaVuSans-5b" x="225.927734"/>
      <use xlink:href="#DejaVuSans-73" x="264.941406"/>
      <use xlink:href="#DejaVuSans-5d" x="317.041016"/>
     </g>
    </g>
   </g>
   <g id="patch_399">
    <path d="M 87.552 293.76 
L 87.552 6.912 
" style="fill: none; stroke: #000000; stroke-width: 0.8; stroke-linejoin: miter; stroke-linecap: square"/>
   </g>
   <g id="patch_400">
    <path d="M 451.584 293.76 
L 451.584 6.912 
" style="fill: none; stroke: #000000; stroke-width: 0.8; stroke-linejoin: miter; stroke-linecap: square"/>
   </g>
   <g id="patch_401">
    <path d="M 87.552 293.76 
L 451.584 293.76 
" style="fill: none; stroke: #000000; stroke-width: 0.8; stroke-linejoin: miter; stroke-linecap: square"/>
   </g>
   <g id="patch_402">
    <path d="M 87.552 6.912 
L 451.584 6.912 
" style="fill: none; stroke: #000000; stroke-width: 0.8; stroke-linejoin: miter; stroke-linecap: square"/>
   </g>
  </g>
 </g>
 <defs>
  <clipPath id="p507e692b9e">
   <rect x="87.552" y="6.912" width="364.032" height="286.848"/>
  </clipPath>
 </defs>
</svg>
