<?xml version="1.0" encoding="utf-8" standalone="no"?>
<!DOCTYPE svg PUBLIC "-//W3C//DTD SVG 1.1//EN"
  "http://www.w3.org/Graphics/SVG/1.1/DTD/svg11.dtd">
<svg xmlns:xlink="http://www.w3.org/1999/xlink" width="460.8pt" height="345.6pt" viewBox="0 0 460.8 345.6" xmlns="http://www.w3.org/2000/svg" version="1.1">
 <metadata>
  <rdf:RDF xmlns:dc="http://purl.org/dc/elements/1.1/" xmlns:cc="http://creativecommons.org/ns#" xmlns:rdf="http://www.w3.org/1999/02/22-rdf-syntax-ns#">
   <cc:Work>
    <dc:type rdf:resource="http://purl.org/dc/dcmitype/StillImage"/>
    <dc:date>2024-01-24T05:34:16.789376</dc:date>
    <dc:format>image/svg+xml</dc:format>
    <dc:creator>
     <cc:Agent>
      <dc:title>Matplotlib v3.7.0, https://matplotlib.org/</dc:title>
     </cc:Agent>
    </dc:creator>
   </cc:Work>
  </rdf:RDF>
 </metadata>
 <defs>
  <style type="text/css">*{stroke-linejoin: round; stroke-linecap: butt}</style>
 </defs>
 <g id="figure_1">
  <g id="patch_1">
   <path d="M 0 345.6 
L 460.8 345.6 
L 460.8 0 
L 0 0 
L 0 345.6 
z
" style="fill: none"/>
  </g>
  <g id="axes_1">
   <g id="patch_2">
    <path d="M 69.12 293.76 
L 437.76 293.76 
L 437.76 17.28 
L 69.12 17.28 
L 69.12 293.76 
z
" style="fill: none"/>
   </g>
   <g id="matplotlib.axis_1">
    <g id="xtick_1">
     <g id="line2d_1">
      <path d="M 69.12 293.76 
L 69.12 17.28 
" clip-path="url(#pe26bf1f935)" style="fill: none; stroke: #b0b0b0; stroke-width: 0.8; stroke-linecap: square"/>
     </g>
     <g id="line2d_2">
      <defs>
       <path id="m68caf10e77" d="M 0 0 
L 0 3.5 
" style="stroke: #000000; stroke-width: 0.8"/>
      </defs>
      <g>
       <use xlink:href="#m68caf10e77" x="69.12" y="293.76" style="stroke: #000000; stroke-width: 0.8"/>
      </g>
     </g>
     <g id="text_1">
      <!-- $\mathdefault{10^{0}}$ -->
      <g transform="translate(53.28 314.437187) scale(0.18 -0.18)">
       <defs>
        <path id="DejaVuSans-31" d="M 794 531 
L 1825 531 
L 1825 4091 
L 703 3866 
L 703 4441 
L 1819 4666 
L 2450 4666 
L 2450 531 
L 3481 531 
L 3481 0 
L 794 0 
L 794 531 
z
" transform="scale(0.015625)"/>
        <path id="DejaVuSans-30" d="M 2034 4250 
Q 1547 4250 1301 3770 
Q 1056 3291 1056 2328 
Q 1056 1369 1301 889 
Q 1547 409 2034 409 
Q 2525 409 2770 889 
Q 3016 1369 3016 2328 
Q 3016 3291 2770 3770 
Q 2525 4250 2034 4250 
z
M 2034 4750 
Q 2819 4750 3233 4129 
Q 3647 3509 3647 2328 
Q 3647 1150 3233 529 
Q 2819 -91 2034 -91 
Q 1250 -91 836 529 
Q 422 1150 422 2328 
Q 422 3509 836 4129 
Q 1250 4750 2034 4750 
z
" transform="scale(0.015625)"/>
       </defs>
       <use xlink:href="#DejaVuSans-31" transform="translate(0 0.765625)"/>
       <use xlink:href="#DejaVuSans-30" transform="translate(63.623047 0.765625)"/>
       <use xlink:href="#DejaVuSans-30" transform="translate(128.203125 39.046875) scale(0.7)"/>
      </g>
     </g>
    </g>
    <g id="xtick_2">
     <g id="line2d_3">
      <path d="M 177.603716 293.76 
L 177.603716 17.28 
" clip-path="url(#pe26bf1f935)" style="fill: none; stroke: #b0b0b0; stroke-width: 0.8; stroke-linecap: square"/>
     </g>
     <g id="line2d_4">
      <g>
       <use xlink:href="#m68caf10e77" x="177.603716" y="293.76" style="stroke: #000000; stroke-width: 0.8"/>
      </g>
     </g>
     <g id="text_2">
      <!-- $\mathdefault{10^{1}}$ -->
      <g transform="translate(161.763716 314.437187) scale(0.18 -0.18)">
       <use xlink:href="#DejaVuSans-31" transform="translate(0 0.684375)"/>
       <use xlink:href="#DejaVuSans-30" transform="translate(63.623047 0.684375)"/>
       <use xlink:href="#DejaVuSans-31" transform="translate(128.203125 38.965625) scale(0.7)"/>
      </g>
     </g>
    </g>
    <g id="xtick_3">
     <g id="line2d_5">
      <path d="M 286.087432 293.76 
L 286.087432 17.28 
" clip-path="url(#pe26bf1f935)" style="fill: none; stroke: #b0b0b0; stroke-width: 0.8; stroke-linecap: square"/>
     </g>
     <g id="line2d_6">
      <g>
       <use xlink:href="#m68caf10e77" x="286.087432" y="293.76" style="stroke: #000000; stroke-width: 0.8"/>
      </g>
     </g>
     <g id="text_3">
      <!-- $\mathdefault{10^{2}}$ -->
      <g transform="translate(270.247432 314.437187) scale(0.18 -0.18)">
       <defs>
        <path id="DejaVuSans-32" d="M 1228 531 
L 3431 531 
L 3431 0 
L 469 0 
L 469 531 
Q 828 903 1448 1529 
Q 2069 2156 2228 2338 
Q 2531 2678 2651 2914 
Q 2772 3150 2772 3378 
Q 2772 3750 2511 3984 
Q 2250 4219 1831 4219 
Q 1534 4219 1204 4116 
Q 875 4013 500 3803 
L 500 4441 
Q 881 4594 1212 4672 
Q 1544 4750 1819 4750 
Q 2544 4750 2975 4387 
Q 3406 4025 3406 3419 
Q 3406 3131 3298 2873 
Q 3191 2616 2906 2266 
Q 2828 2175 2409 1742 
Q 1991 1309 1228 531 
z
" transform="scale(0.015625)"/>
       </defs>
       <use xlink:href="#DejaVuSans-31" transform="translate(0 0.765625)"/>
       <use xlink:href="#DejaVuSans-30" transform="translate(63.623047 0.765625)"/>
       <use xlink:href="#DejaVuSans-32" transform="translate(128.203125 39.046875) scale(0.7)"/>
      </g>
     </g>
    </g>
    <g id="xtick_4">
     <g id="line2d_7">
      <path d="M 394.571147 293.76 
L 394.571147 17.28 
" clip-path="url(#pe26bf1f935)" style="fill: none; stroke: #b0b0b0; stroke-width: 0.8; stroke-linecap: square"/>
     </g>
     <g id="line2d_8">
      <g>
       <use xlink:href="#m68caf10e77" x="394.571147" y="293.76" style="stroke: #000000; stroke-width: 0.8"/>
      </g>
     </g>
     <g id="text_4">
      <!-- $\mathdefault{10^{3}}$ -->
      <g transform="translate(378.731147 314.437187) scale(0.18 -0.18)">
       <defs>
        <path id="DejaVuSans-33" d="M 2597 2516 
Q 3050 2419 3304 2112 
Q 3559 1806 3559 1356 
Q 3559 666 3084 287 
Q 2609 -91 1734 -91 
Q 1441 -91 1130 -33 
Q 819 25 488 141 
L 488 750 
Q 750 597 1062 519 
Q 1375 441 1716 441 
Q 2309 441 2620 675 
Q 2931 909 2931 1356 
Q 2931 1769 2642 2001 
Q 2353 2234 1838 2234 
L 1294 2234 
L 1294 2753 
L 1863 2753 
Q 2328 2753 2575 2939 
Q 2822 3125 2822 3475 
Q 2822 3834 2567 4026 
Q 2313 4219 1838 4219 
Q 1578 4219 1281 4162 
Q 984 4106 628 3988 
L 628 4550 
Q 988 4650 1302 4700 
Q 1616 4750 1894 4750 
Q 2613 4750 3031 4423 
Q 3450 4097 3450 3541 
Q 3450 3153 3228 2886 
Q 3006 2619 2597 2516 
z
" transform="scale(0.015625)"/>
       </defs>
       <use xlink:href="#DejaVuSans-31" transform="translate(0 0.765625)"/>
       <use xlink:href="#DejaVuSans-30" transform="translate(63.623047 0.765625)"/>
       <use xlink:href="#DejaVuSans-33" transform="translate(128.203125 39.046875) scale(0.7)"/>
      </g>
     </g>
    </g>
    <g id="xtick_5">
     <g id="line2d_9">
      <defs>
       <path id="m743fba707a" d="M 0 0 
L 0 2 
" style="stroke: #000000; stroke-width: 0.6"/>
      </defs>
      <g>
       <use xlink:href="#m743fba707a" x="101.776852" y="293.76" style="stroke: #000000; stroke-width: 0.6"/>
      </g>
     </g>
    </g>
    <g id="xtick_6">
     <g id="line2d_10">
      <g>
       <use xlink:href="#m743fba707a" x="120.879887" y="293.76" style="stroke: #000000; stroke-width: 0.6"/>
      </g>
     </g>
    </g>
    <g id="xtick_7">
     <g id="line2d_11">
      <g>
       <use xlink:href="#m743fba707a" x="134.433705" y="293.76" style="stroke: #000000; stroke-width: 0.6"/>
      </g>
     </g>
    </g>
    <g id="xtick_8">
     <g id="line2d_12">
      <g>
       <use xlink:href="#m743fba707a" x="144.946863" y="293.76" style="stroke: #000000; stroke-width: 0.6"/>
      </g>
     </g>
    </g>
    <g id="xtick_9">
     <g id="line2d_13">
      <g>
       <use xlink:href="#m743fba707a" x="153.536739" y="293.76" style="stroke: #000000; stroke-width: 0.6"/>
      </g>
     </g>
    </g>
    <g id="xtick_10">
     <g id="line2d_14">
      <g>
       <use xlink:href="#m743fba707a" x="160.799376" y="293.76" style="stroke: #000000; stroke-width: 0.6"/>
      </g>
     </g>
    </g>
    <g id="xtick_11">
     <g id="line2d_15">
      <g>
       <use xlink:href="#m743fba707a" x="167.090557" y="293.76" style="stroke: #000000; stroke-width: 0.6"/>
      </g>
     </g>
    </g>
    <g id="xtick_12">
     <g id="line2d_16">
      <g>
       <use xlink:href="#m743fba707a" x="172.639773" y="293.76" style="stroke: #000000; stroke-width: 0.6"/>
      </g>
     </g>
    </g>
    <g id="xtick_13">
     <g id="line2d_17">
      <g>
       <use xlink:href="#m743fba707a" x="210.260568" y="293.76" style="stroke: #000000; stroke-width: 0.6"/>
      </g>
     </g>
    </g>
    <g id="xtick_14">
     <g id="line2d_18">
      <g>
       <use xlink:href="#m743fba707a" x="229.363602" y="293.76" style="stroke: #000000; stroke-width: 0.6"/>
      </g>
     </g>
    </g>
    <g id="xtick_15">
     <g id="line2d_19">
      <g>
       <use xlink:href="#m743fba707a" x="242.917421" y="293.76" style="stroke: #000000; stroke-width: 0.6"/>
      </g>
     </g>
    </g>
    <g id="xtick_16">
     <g id="line2d_20">
      <g>
       <use xlink:href="#m743fba707a" x="253.430579" y="293.76" style="stroke: #000000; stroke-width: 0.6"/>
      </g>
     </g>
    </g>
    <g id="xtick_17">
     <g id="line2d_21">
      <g>
       <use xlink:href="#m743fba707a" x="262.020455" y="293.76" style="stroke: #000000; stroke-width: 0.6"/>
      </g>
     </g>
    </g>
    <g id="xtick_18">
     <g id="line2d_22">
      <g>
       <use xlink:href="#m743fba707a" x="269.283091" y="293.76" style="stroke: #000000; stroke-width: 0.6"/>
      </g>
     </g>
    </g>
    <g id="xtick_19">
     <g id="line2d_23">
      <g>
       <use xlink:href="#m743fba707a" x="275.574273" y="293.76" style="stroke: #000000; stroke-width: 0.6"/>
      </g>
     </g>
    </g>
    <g id="xtick_20">
     <g id="line2d_24">
      <g>
       <use xlink:href="#m743fba707a" x="281.123489" y="293.76" style="stroke: #000000; stroke-width: 0.6"/>
      </g>
     </g>
    </g>
    <g id="xtick_21">
     <g id="line2d_25">
      <g>
       <use xlink:href="#m743fba707a" x="318.744284" y="293.76" style="stroke: #000000; stroke-width: 0.6"/>
      </g>
     </g>
    </g>
    <g id="xtick_22">
     <g id="line2d_26">
      <g>
       <use xlink:href="#m743fba707a" x="337.847318" y="293.76" style="stroke: #000000; stroke-width: 0.6"/>
      </g>
     </g>
    </g>
    <g id="xtick_23">
     <g id="line2d_27">
      <g>
       <use xlink:href="#m743fba707a" x="351.401137" y="293.76" style="stroke: #000000; stroke-width: 0.6"/>
      </g>
     </g>
    </g>
    <g id="xtick_24">
     <g id="line2d_28">
      <g>
       <use xlink:href="#m743fba707a" x="361.914295" y="293.76" style="stroke: #000000; stroke-width: 0.6"/>
      </g>
     </g>
    </g>
    <g id="xtick_25">
     <g id="line2d_29">
      <g>
       <use xlink:href="#m743fba707a" x="370.504171" y="293.76" style="stroke: #000000; stroke-width: 0.6"/>
      </g>
     </g>
    </g>
    <g id="xtick_26">
     <g id="line2d_30">
      <g>
       <use xlink:href="#m743fba707a" x="377.766807" y="293.76" style="stroke: #000000; stroke-width: 0.6"/>
      </g>
     </g>
    </g>
    <g id="xtick_27">
     <g id="line2d_31">
      <g>
       <use xlink:href="#m743fba707a" x="384.057989" y="293.76" style="stroke: #000000; stroke-width: 0.6"/>
      </g>
     </g>
    </g>
    <g id="xtick_28">
     <g id="line2d_32">
      <g>
       <use xlink:href="#m743fba707a" x="389.607205" y="293.76" style="stroke: #000000; stroke-width: 0.6"/>
      </g>
     </g>
    </g>
    <g id="xtick_29">
     <g id="line2d_33">
      <g>
       <use xlink:href="#m743fba707a" x="427.228" y="293.76" style="stroke: #000000; stroke-width: 0.6"/>
      </g>
     </g>
    </g>
    <g id="text_5">
     <!-- PIM node -->
     <g transform="translate(212.270625 335.857812) scale(0.18 -0.18)">
      <defs>
       <path id="DejaVuSans-50" d="M 1259 4147 
L 1259 2394 
L 2053 2394 
Q 2494 2394 2734 2622 
Q 2975 2850 2975 3272 
Q 2975 3691 2734 3919 
Q 2494 4147 2053 4147 
L 1259 4147 
z
M 628 4666 
L 2053 4666 
Q 2838 4666 3239 4311 
Q 3641 3956 3641 3272 
Q 3641 2581 3239 2228 
Q 2838 1875 2053 1875 
L 1259 1875 
L 1259 0 
L 628 0 
L 628 4666 
z
" transform="scale(0.015625)"/>
       <path id="DejaVuSans-49" d="M 628 4666 
L 1259 4666 
L 1259 0 
L 628 0 
L 628 4666 
z
" transform="scale(0.015625)"/>
       <path id="DejaVuSans-4d" d="M 628 4666 
L 1569 4666 
L 2759 1491 
L 3956 4666 
L 4897 4666 
L 4897 0 
L 4281 0 
L 4281 4097 
L 3078 897 
L 2444 897 
L 1241 4097 
L 1241 0 
L 628 0 
L 628 4666 
z
" transform="scale(0.015625)"/>
       <path id="DejaVuSans-20" transform="scale(0.015625)"/>
       <path id="DejaVuSans-6e" d="M 3513 2113 
L 3513 0 
L 2938 0 
L 2938 2094 
Q 2938 2591 2744 2837 
Q 2550 3084 2163 3084 
Q 1697 3084 1428 2787 
Q 1159 2491 1159 1978 
L 1159 0 
L 581 0 
L 581 3500 
L 1159 3500 
L 1159 2956 
Q 1366 3272 1645 3428 
Q 1925 3584 2291 3584 
Q 2894 3584 3203 3211 
Q 3513 2838 3513 2113 
z
" transform="scale(0.015625)"/>
       <path id="DejaVuSans-6f" d="M 1959 3097 
Q 1497 3097 1228 2736 
Q 959 2375 959 1747 
Q 959 1119 1226 758 
Q 1494 397 1959 397 
Q 2419 397 2687 759 
Q 2956 1122 2956 1747 
Q 2956 2369 2687 2733 
Q 2419 3097 1959 3097 
z
M 1959 3584 
Q 2709 3584 3137 3096 
Q 3566 2609 3566 1747 
Q 3566 888 3137 398 
Q 2709 -91 1959 -91 
Q 1206 -91 779 398 
Q 353 888 353 1747 
Q 353 2609 779 3096 
Q 1206 3584 1959 3584 
z
" transform="scale(0.015625)"/>
       <path id="DejaVuSans-64" d="M 2906 2969 
L 2906 4863 
L 3481 4863 
L 3481 0 
L 2906 0 
L 2906 525 
Q 2725 213 2448 61 
Q 2172 -91 1784 -91 
Q 1150 -91 751 415 
Q 353 922 353 1747 
Q 353 2572 751 3078 
Q 1150 3584 1784 3584 
Q 2172 3584 2448 3432 
Q 2725 3281 2906 2969 
z
M 947 1747 
Q 947 1113 1208 752 
Q 1469 391 1925 391 
Q 2381 391 2643 752 
Q 2906 1113 2906 1747 
Q 2906 2381 2643 2742 
Q 2381 3103 1925 3103 
Q 1469 3103 1208 2742 
Q 947 2381 947 1747 
z
" transform="scale(0.015625)"/>
       <path id="DejaVuSans-65" d="M 3597 1894 
L 3597 1613 
L 953 1613 
Q 991 1019 1311 708 
Q 1631 397 2203 397 
Q 2534 397 2845 478 
Q 3156 559 3463 722 
L 3463 178 
Q 3153 47 2828 -22 
Q 2503 -91 2169 -91 
Q 1331 -91 842 396 
Q 353 884 353 1716 
Q 353 2575 817 3079 
Q 1281 3584 2069 3584 
Q 2775 3584 3186 3129 
Q 3597 2675 3597 1894 
z
M 3022 2063 
Q 3016 2534 2758 2815 
Q 2500 3097 2075 3097 
Q 1594 3097 1305 2825 
Q 1016 2553 972 2059 
L 3022 2063 
z
" transform="scale(0.015625)"/>
      </defs>
      <use xlink:href="#DejaVuSans-50"/>
      <use xlink:href="#DejaVuSans-49" x="60.302734"/>
      <use xlink:href="#DejaVuSans-4d" x="89.794922"/>
      <use xlink:href="#DejaVuSans-20" x="176.074219"/>
      <use xlink:href="#DejaVuSans-6e" x="207.861328"/>
      <use xlink:href="#DejaVuSans-6f" x="271.240234"/>
      <use xlink:href="#DejaVuSans-64" x="332.421875"/>
      <use xlink:href="#DejaVuSans-65" x="395.898438"/>
     </g>
    </g>
   </g>
   <g id="matplotlib.axis_2">
    <g id="ytick_1">
     <g id="line2d_34">
      <path d="M 69.12 247.718406 
L 437.76 247.718406 
" clip-path="url(#pe26bf1f935)" style="fill: none; stroke: #b0b0b0; stroke-width: 0.8; stroke-linecap: square"/>
     </g>
     <g id="line2d_35">
      <defs>
       <path id="mab6a30f311" d="M 0 0 
L -3.5 0 
" style="stroke: #000000; stroke-width: 0.8"/>
      </defs>
      <g>
       <use xlink:href="#mab6a30f311" x="69.12" y="247.718406" style="stroke: #000000; stroke-width: 0.8"/>
      </g>
     </g>
     <g id="text_6">
      <!-- 1000 -->
      <g transform="translate(16.31 254.557) scale(0.18 -0.18)">
       <use xlink:href="#DejaVuSans-31"/>
       <use xlink:href="#DejaVuSans-30" x="63.623047"/>
       <use xlink:href="#DejaVuSans-30" x="127.246094"/>
       <use xlink:href="#DejaVuSans-30" x="190.869141"/>
      </g>
     </g>
    </g>
    <g id="ytick_2">
     <g id="line2d_36">
      <path d="M 69.12 201.630725 
L 437.76 201.630725 
" clip-path="url(#pe26bf1f935)" style="fill: none; stroke: #b0b0b0; stroke-width: 0.8; stroke-linecap: square"/>
     </g>
     <g id="line2d_37">
      <g>
       <use xlink:href="#mab6a30f311" x="69.12" y="201.630725" style="stroke: #000000; stroke-width: 0.8"/>
      </g>
     </g>
     <g id="text_7">
      <!-- 2000 -->
      <g transform="translate(16.31 208.469319) scale(0.18 -0.18)">
       <use xlink:href="#DejaVuSans-32"/>
       <use xlink:href="#DejaVuSans-30" x="63.623047"/>
       <use xlink:href="#DejaVuSans-30" x="127.246094"/>
       <use xlink:href="#DejaVuSans-30" x="190.869141"/>
      </g>
     </g>
    </g>
    <g id="ytick_3">
     <g id="line2d_38">
      <path d="M 69.12 155.543044 
L 437.76 155.543044 
" clip-path="url(#pe26bf1f935)" style="fill: none; stroke: #b0b0b0; stroke-width: 0.8; stroke-linecap: square"/>
     </g>
     <g id="line2d_39">
      <g>
       <use xlink:href="#mab6a30f311" x="69.12" y="155.543044" style="stroke: #000000; stroke-width: 0.8"/>
      </g>
     </g>
     <g id="text_8">
      <!-- 3000 -->
      <g transform="translate(16.31 162.381638) scale(0.18 -0.18)">
       <use xlink:href="#DejaVuSans-33"/>
       <use xlink:href="#DejaVuSans-30" x="63.623047"/>
       <use xlink:href="#DejaVuSans-30" x="127.246094"/>
       <use xlink:href="#DejaVuSans-30" x="190.869141"/>
      </g>
     </g>
    </g>
    <g id="ytick_4">
     <g id="line2d_40">
      <path d="M 69.12 109.455363 
L 437.76 109.455363 
" clip-path="url(#pe26bf1f935)" style="fill: none; stroke: #b0b0b0; stroke-width: 0.8; stroke-linecap: square"/>
     </g>
     <g id="line2d_41">
      <g>
       <use xlink:href="#mab6a30f311" x="69.12" y="109.455363" style="stroke: #000000; stroke-width: 0.8"/>
      </g>
     </g>
     <g id="text_9">
      <!-- 4000 -->
      <g transform="translate(16.31 116.293956) scale(0.18 -0.18)">
       <defs>
        <path id="DejaVuSans-34" d="M 2419 4116 
L 825 1625 
L 2419 1625 
L 2419 4116 
z
M 2253 4666 
L 3047 4666 
L 3047 1625 
L 3713 1625 
L 3713 1100 
L 3047 1100 
L 3047 0 
L 2419 0 
L 2419 1100 
L 313 1100 
L 313 1709 
L 2253 4666 
z
" transform="scale(0.015625)"/>
       </defs>
       <use xlink:href="#DejaVuSans-34"/>
       <use xlink:href="#DejaVuSans-30" x="63.623047"/>
       <use xlink:href="#DejaVuSans-30" x="127.246094"/>
       <use xlink:href="#DejaVuSans-30" x="190.869141"/>
      </g>
     </g>
    </g>
    <g id="ytick_5">
     <g id="line2d_42">
      <path d="M 69.12 63.367681 
L 437.76 63.367681 
" clip-path="url(#pe26bf1f935)" style="fill: none; stroke: #b0b0b0; stroke-width: 0.8; stroke-linecap: square"/>
     </g>
     <g id="line2d_43">
      <g>
       <use xlink:href="#mab6a30f311" x="69.12" y="63.367681" style="stroke: #000000; stroke-width: 0.8"/>
      </g>
     </g>
     <g id="text_10">
      <!-- 5000 -->
      <g transform="translate(16.31 70.206275) scale(0.18 -0.18)">
       <defs>
        <path id="DejaVuSans-35" d="M 691 4666 
L 3169 4666 
L 3169 4134 
L 1269 4134 
L 1269 2991 
Q 1406 3038 1543 3061 
Q 1681 3084 1819 3084 
Q 2600 3084 3056 2656 
Q 3513 2228 3513 1497 
Q 3513 744 3044 326 
Q 2575 -91 1722 -91 
Q 1428 -91 1123 -41 
Q 819 9 494 109 
L 494 744 
Q 775 591 1075 516 
Q 1375 441 1709 441 
Q 2250 441 2565 725 
Q 2881 1009 2881 1497 
Q 2881 1984 2565 2268 
Q 2250 2553 1709 2553 
Q 1456 2553 1204 2497 
Q 953 2441 691 2322 
L 691 4666 
z
" transform="scale(0.015625)"/>
       </defs>
       <use xlink:href="#DejaVuSans-35"/>
       <use xlink:href="#DejaVuSans-30" x="63.623047"/>
       <use xlink:href="#DejaVuSans-30" x="127.246094"/>
       <use xlink:href="#DejaVuSans-30" x="190.869141"/>
      </g>
     </g>
    </g>
    <g id="ytick_6">
     <g id="line2d_44">
      <path d="M 69.12 17.28 
L 437.76 17.28 
" clip-path="url(#pe26bf1f935)" style="fill: none; stroke: #b0b0b0; stroke-width: 0.8; stroke-linecap: square"/>
     </g>
     <g id="line2d_45">
      <g>
       <use xlink:href="#mab6a30f311" x="69.12" y="17.28" style="stroke: #000000; stroke-width: 0.8"/>
      </g>
     </g>
     <g id="text_11">
      <!-- 6000 -->
      <g transform="translate(16.31 24.118594) scale(0.18 -0.18)">
       <defs>
        <path id="DejaVuSans-36" d="M 2113 2584 
Q 1688 2584 1439 2293 
Q 1191 2003 1191 1497 
Q 1191 994 1439 701 
Q 1688 409 2113 409 
Q 2538 409 2786 701 
Q 3034 994 3034 1497 
Q 3034 2003 2786 2293 
Q 2538 2584 2113 2584 
z
M 3366 4563 
L 3366 3988 
Q 3128 4100 2886 4159 
Q 2644 4219 2406 4219 
Q 1781 4219 1451 3797 
Q 1122 3375 1075 2522 
Q 1259 2794 1537 2939 
Q 1816 3084 2150 3084 
Q 2853 3084 3261 2657 
Q 3669 2231 3669 1497 
Q 3669 778 3244 343 
Q 2819 -91 2113 -91 
Q 1303 -91 875 529 
Q 447 1150 447 2328 
Q 447 3434 972 4092 
Q 1497 4750 2381 4750 
Q 2619 4750 2861 4703 
Q 3103 4656 3366 4563 
z
" transform="scale(0.015625)"/>
       </defs>
       <use xlink:href="#DejaVuSans-36"/>
       <use xlink:href="#DejaVuSans-30" x="63.623047"/>
       <use xlink:href="#DejaVuSans-30" x="127.246094"/>
       <use xlink:href="#DejaVuSans-30" x="190.869141"/>
      </g>
     </g>
    </g>
    <g id="ytick_7">
     <g id="line2d_46">
      <path d="M 69.12 291.96258 
L 437.76 291.96258 
" clip-path="url(#pe26bf1f935)" style="fill: none; stroke: #b0b0b0; stroke-width: 0.8; stroke-linecap: square"/>
     </g>
     <g id="line2d_47">
      <g>
       <use xlink:href="#mab6a30f311" x="69.12" y="291.96258" style="stroke: #000000; stroke-width: 0.8"/>
      </g>
     </g>
     <g id="text_12">
      <!-- 40 -->
      <g transform="translate(39.215 298.801174) scale(0.18 -0.18)">
       <use xlink:href="#DejaVuSans-34"/>
       <use xlink:href="#DejaVuSans-30" x="63.623047"/>
      </g>
     </g>
    </g>
    <g id="text_13">
     <!-- number of queries -->
     <g transform="translate(8.566563 238.422656) rotate(-90) scale(0.18 -0.18)">
      <defs>
       <path id="DejaVuSans-75" d="M 544 1381 
L 544 3500 
L 1119 3500 
L 1119 1403 
Q 1119 906 1312 657 
Q 1506 409 1894 409 
Q 2359 409 2629 706 
Q 2900 1003 2900 1516 
L 2900 3500 
L 3475 3500 
L 3475 0 
L 2900 0 
L 2900 538 
Q 2691 219 2414 64 
Q 2138 -91 1772 -91 
Q 1169 -91 856 284 
Q 544 659 544 1381 
z
M 1991 3584 
L 1991 3584 
z
" transform="scale(0.015625)"/>
       <path id="DejaVuSans-6d" d="M 3328 2828 
Q 3544 3216 3844 3400 
Q 4144 3584 4550 3584 
Q 5097 3584 5394 3201 
Q 5691 2819 5691 2113 
L 5691 0 
L 5113 0 
L 5113 2094 
Q 5113 2597 4934 2840 
Q 4756 3084 4391 3084 
Q 3944 3084 3684 2787 
Q 3425 2491 3425 1978 
L 3425 0 
L 2847 0 
L 2847 2094 
Q 2847 2600 2669 2842 
Q 2491 3084 2119 3084 
Q 1678 3084 1418 2786 
Q 1159 2488 1159 1978 
L 1159 0 
L 581 0 
L 581 3500 
L 1159 3500 
L 1159 2956 
Q 1356 3278 1631 3431 
Q 1906 3584 2284 3584 
Q 2666 3584 2933 3390 
Q 3200 3197 3328 2828 
z
" transform="scale(0.015625)"/>
       <path id="DejaVuSans-62" d="M 3116 1747 
Q 3116 2381 2855 2742 
Q 2594 3103 2138 3103 
Q 1681 3103 1420 2742 
Q 1159 2381 1159 1747 
Q 1159 1113 1420 752 
Q 1681 391 2138 391 
Q 2594 391 2855 752 
Q 3116 1113 3116 1747 
z
M 1159 2969 
Q 1341 3281 1617 3432 
Q 1894 3584 2278 3584 
Q 2916 3584 3314 3078 
Q 3713 2572 3713 1747 
Q 3713 922 3314 415 
Q 2916 -91 2278 -91 
Q 1894 -91 1617 61 
Q 1341 213 1159 525 
L 1159 0 
L 581 0 
L 581 4863 
L 1159 4863 
L 1159 2969 
z
" transform="scale(0.015625)"/>
       <path id="DejaVuSans-72" d="M 2631 2963 
Q 2534 3019 2420 3045 
Q 2306 3072 2169 3072 
Q 1681 3072 1420 2755 
Q 1159 2438 1159 1844 
L 1159 0 
L 581 0 
L 581 3500 
L 1159 3500 
L 1159 2956 
Q 1341 3275 1631 3429 
Q 1922 3584 2338 3584 
Q 2397 3584 2469 3576 
Q 2541 3569 2628 3553 
L 2631 2963 
z
" transform="scale(0.015625)"/>
       <path id="DejaVuSans-66" d="M 2375 4863 
L 2375 4384 
L 1825 4384 
Q 1516 4384 1395 4259 
Q 1275 4134 1275 3809 
L 1275 3500 
L 2222 3500 
L 2222 3053 
L 1275 3053 
L 1275 0 
L 697 0 
L 697 3053 
L 147 3053 
L 147 3500 
L 697 3500 
L 697 3744 
Q 697 4328 969 4595 
Q 1241 4863 1831 4863 
L 2375 4863 
z
" transform="scale(0.015625)"/>
       <path id="DejaVuSans-71" d="M 947 1747 
Q 947 1113 1208 752 
Q 1469 391 1925 391 
Q 2381 391 2643 752 
Q 2906 1113 2906 1747 
Q 2906 2381 2643 2742 
Q 2381 3103 1925 3103 
Q 1469 3103 1208 2742 
Q 947 2381 947 1747 
z
M 2906 525 
Q 2725 213 2448 61 
Q 2172 -91 1784 -91 
Q 1150 -91 751 415 
Q 353 922 353 1747 
Q 353 2572 751 3078 
Q 1150 3584 1784 3584 
Q 2172 3584 2448 3432 
Q 2725 3281 2906 2969 
L 2906 3500 
L 3481 3500 
L 3481 -1331 
L 2906 -1331 
L 2906 525 
z
" transform="scale(0.015625)"/>
       <path id="DejaVuSans-69" d="M 603 3500 
L 1178 3500 
L 1178 0 
L 603 0 
L 603 3500 
z
M 603 4863 
L 1178 4863 
L 1178 4134 
L 603 4134 
L 603 4863 
z
" transform="scale(0.015625)"/>
       <path id="DejaVuSans-73" d="M 2834 3397 
L 2834 2853 
Q 2591 2978 2328 3040 
Q 2066 3103 1784 3103 
Q 1356 3103 1142 2972 
Q 928 2841 928 2578 
Q 928 2378 1081 2264 
Q 1234 2150 1697 2047 
L 1894 2003 
Q 2506 1872 2764 1633 
Q 3022 1394 3022 966 
Q 3022 478 2636 193 
Q 2250 -91 1575 -91 
Q 1294 -91 989 -36 
Q 684 19 347 128 
L 347 722 
Q 666 556 975 473 
Q 1284 391 1588 391 
Q 1994 391 2212 530 
Q 2431 669 2431 922 
Q 2431 1156 2273 1281 
Q 2116 1406 1581 1522 
L 1381 1569 
Q 847 1681 609 1914 
Q 372 2147 372 2553 
Q 372 3047 722 3315 
Q 1072 3584 1716 3584 
Q 2034 3584 2315 3537 
Q 2597 3491 2834 3397 
z
" transform="scale(0.015625)"/>
      </defs>
      <use xlink:href="#DejaVuSans-6e"/>
      <use xlink:href="#DejaVuSans-75" x="63.378906"/>
      <use xlink:href="#DejaVuSans-6d" x="126.757812"/>
      <use xlink:href="#DejaVuSans-62" x="224.169922"/>
      <use xlink:href="#DejaVuSans-65" x="287.646484"/>
      <use xlink:href="#DejaVuSans-72" x="349.169922"/>
      <use xlink:href="#DejaVuSans-20" x="390.283203"/>
      <use xlink:href="#DejaVuSans-6f" x="422.070312"/>
      <use xlink:href="#DejaVuSans-66" x="483.251953"/>
      <use xlink:href="#DejaVuSans-20" x="518.457031"/>
      <use xlink:href="#DejaVuSans-71" x="550.244141"/>
      <use xlink:href="#DejaVuSans-75" x="613.720703"/>
      <use xlink:href="#DejaVuSans-65" x="677.099609"/>
      <use xlink:href="#DejaVuSans-72" x="738.623047"/>
      <use xlink:href="#DejaVuSans-69" x="779.736328"/>
      <use xlink:href="#DejaVuSans-65" x="807.519531"/>
      <use xlink:href="#DejaVuSans-73" x="869.042969"/>
     </g>
    </g>
   </g>
   <g id="line2d_48">
    <path d="M 69.12 61.478086 
L 101.776852 156.234359 
L 120.879887 180.66083 
L 134.433705 209.143017 
L 144.946863 221.033639 
L 153.536739 231.265104 
L 160.799376 238.546958 
L 167.090557 247.25753 
L 172.639773 252.511525 
L 177.603716 254.677646 
L 182.094148 257.535083 
L 186.193592 260.669045 
L 189.964714 261.821237 
L 193.456228 265.185638 
L 196.70675 265.508251 
L 199.74741 267.12132 
L 202.603671 267.72046 
L 205.296626 271.084861 
L 207.843942 271.269212 
L 212.559262 272.790105 
L 214.751001 274.310998 
L 216.845296 274.357086 
L 218.850444 275.555366 
L 220.773727 275.924067 
L 222.621567 276.66147 
L 224.39966 277.076259 
L 226.113081 277.26061 
L 227.766369 278.136276 
L 229.363602 278.827591 
L 230.908458 278.965854 
L 232.404262 279.84152 
L 235.260524 279.933696 
L 236.626239 280.348485 
L 240.500795 280.993712 
L 242.917421 281.085888 
L 244.080786 282.099817 
L 246.324728 282.145904 
L 248.466637 282.606781 
L 249.502148 282.83722 
L 250.515389 282.883307 
L 251.507297 283.067658 
L 252.478751 283.482447 
L 254.363558 283.758973 
L 257.056512 284.265938 
L 257.921011 284.588551 
L 258.769933 284.588551 
L 260.423221 284.772902 
L 261.228606 284.772902 
L 264.319149 285.41813 
L 267.21938 285.879007 
L 269.951385 286.20162 
L 271.260188 286.293796 
L 273.157647 286.524234 
L 274.981638 286.754672 
L 276.159546 286.846848 
L 277.308722 287.077286 
L 283.172241 287.584251 
L 284.164149 287.768601 
L 289.275093 288.321654 
L 290.147597 288.413829 
L 292.260681 288.506004 
L 293.885459 288.59818 
L 294.283047 288.59818 
L 295.068296 288.78253 
L 296.60059 288.874706 
L 297.348445 288.966881 
L 298.44843 289.012969 
L 299.876232 289.105144 
L 300.574229 289.19732 
L 301.262035 289.19732 
L 301.602209 289.335583 
L 304.238638 289.427758 
L 305.503516 289.519933 
L 306.735321 289.612109 
L 308.524671 289.796459 
L 311.363715 289.888635 
L 311.911557 289.98081 
L 314.300942 290.072985 
L 315.325197 290.165161 
L 317.06575 290.257336 
L 317.551464 290.349512 
L 319.445744 290.441687 
L 320.136914 290.487775 
L 323.448385 290.57995 
L 324.2935 290.672125 
L 326.939899 290.764301 
L 327.53006 290.810388 
L 329.445522 290.902564 
L 330.005297 290.948651 
L 332.883376 291.040827 
L 333.403976 291.086914 
L 336.250085 291.17909 
L 336.734966 291.225178 
L 338.934013 291.317353 
L 339.392174 291.363441 
L 342.622427 291.455616 
L 343.046243 291.501704 
L 345.244374 291.593879 
L 345.645345 291.639967 
L 348.611083 291.732142 
L 348.984511 291.77823 
L 352.334115 291.870405 
L 352.679273 291.916493 
L 356.635208 292.008668 
L 356.950352 292.054756 
L 362.66215 292.146931 
L 362.939563 292.193019 
L 366.8311 292.285194 
L 367.085084 292.331282 
L 373.323465 292.423457 
L 373.544831 292.469545 
L 379.872806 292.56172 
L 380.065501 292.607808 
L 387.24565 292.699983 
L 387.465296 292.746071 
L 396.055172 292.838246 
L 396.237431 292.884334 
L 404.705879 292.976509 
L 404.857615 293.022597 
L 415.612538 293.114772 
L 415.763014 293.16086 
L 425.64701 293.253036 
L 425.792948 293.299123 
L 433.710194 293.391299 
L 433.833207 293.437386 
L 437.153294 293.529562 
L 437.28668 293.575649 
L 437.703452 293.667825 
L 437.741158 293.713912 
L 437.741158 293.713912 
" clip-path="url(#pe26bf1f935)" style="fill: none; stroke: #800000; stroke-width: 3; stroke-linecap: square"/>
   </g>
   <g id="line2d_49">
    <path d="M 69.12 158.123954 
L 101.776852 216.655309 
L 120.879887 230.665964 
L 134.433705 240.805254 
L 153.536739 242.602674 
L 160.799376 244.400093 
L 167.090557 247.44188 
L 172.639773 250.529755 
L 177.603716 252.972402 
L 182.094148 258.410748 
L 186.193592 260.069905 
L 189.964714 262.097763 
L 193.456228 264.955199 
L 196.70675 266.107391 
L 199.74741 268.273512 
L 202.603671 269.241354 
L 205.296626 270.485721 
L 207.843942 270.531809 
L 210.260568 271.960527 
L 212.559262 272.744017 
L 216.845296 272.974456 
L 218.850444 273.711859 
L 220.773727 273.804034 
L 222.621567 274.357086 
L 224.39966 274.357086 
L 229.363602 276.384944 
L 230.908458 276.615383 
L 232.404262 276.707558 
L 235.260524 277.26061 
L 237.953478 277.26061 
L 239.24435 278.274539 
L 240.500795 279.749345 
L 242.917421 279.933696 
L 244.080786 280.855449 
L 246.324728 281.0398 
L 248.466637 281.131975 
L 250.515389 281.316326 
L 251.507297 281.546764 
L 252.478751 282.007641 
L 253.430579 282.007641 
L 254.363558 282.42243 
L 257.921011 282.698956 
L 259.603829 282.791132 
L 260.423221 282.883307 
L 261.228606 283.252009 
L 262.020455 283.482447 
L 265.061115 283.528535 
L 267.21938 283.851149 
L 268.605182 283.943324 
L 269.951385 284.081587 
L 271.260188 284.588551 
L 271.901203 284.588551 
L 274.381453 285.233779 
L 274.981638 285.233779 
L 275.574273 285.41813 
L 276.737638 285.464217 
L 277.872967 285.60248 
L 279.526255 285.648568 
L 280.064706 286.063357 
L 280.597071 286.247708 
L 288.832706 287.077286 
L 291.004237 287.307725 
L 291.426786 287.492075 
L 293.484487 287.584251 
L 294.677307 287.768601 
L 295.840672 287.860777 
L 296.222163 288.045128 
L 297.717967 288.137303 
L 300.226523 288.367741 
L 301.602209 288.413829 
L 302.608237 288.59818 
L 305.190466 288.874706 
L 306.735321 288.966881 
L 307.339354 289.059057 
L 309.680898 289.335583 
L 311.911557 289.427758 
L 312.453102 289.519933 
L 314.300942 289.612109 
L 316.079035 289.842547 
L 317.551464 289.934722 
L 318.032222 290.026898 
L 319.907649 290.119073 
L 320.81809 290.211249 
L 322.587834 290.303424 
L 323.661089 290.441687 
L 325.123722 290.533862 
L 325.736926 290.57995 
L 327.33416 290.672125 
L 327.919433 290.718213 
L 330.5585 290.810388 
L 331.286142 290.902564 
L 334.932128 290.994739 
L 335.430692 291.040827 
L 337.05547 291.133002 
L 337.532174 291.17909 
L 340.146012 291.271265 
L 340.592593 291.317353 
L 342.194764 291.409528 
L 342.622427 291.455616 
L 346.042933 291.547791 
L 346.437194 291.593879 
L 350.087356 291.686054 
L 350.449309 291.732142 
L 353.587521 291.824317 
L 353.92365 291.870405 
L 357.677593 291.96258 
L 357.985864 292.008668 
L 362.66215 292.100843 
L 362.939563 292.146931 
L 367.337706 292.239107 
L 367.58898 292.285194 
L 373.397369 292.37737 
L 373.618389 292.423457 
L 379.289946 292.515633 
L 379.485035 292.56172 
L 386.131795 292.653896 
L 386.356683 292.699983 
L 393.859085 292.792159 
L 394.050023 292.838246 
L 402.169115 292.930422 
L 402.329231 292.976509 
L 413.009926 293.068685 
L 413.168934 293.114772 
L 423.325167 293.206948 
L 423.452951 293.253036 
L 432.250798 293.345211 
L 432.377676 293.391299 
L 436.673808 293.483474 
L 436.808557 293.529562 
L 437.741158 293.621737 
L 437.741158 293.621737 
" clip-path="url(#pe26bf1f935)" style="fill: none; stroke: #a52a2a; stroke-width: 3; stroke-linecap: square"/>
   </g>
   <g id="line2d_50">
    <path d="M 69.12 254.078506 
L 101.776852 254.40112 
L 120.879887 255.368961 
L 160.799376 255.968101 
L 172.639773 259.148151 
L 177.603716 259.148151 
L 182.094148 260.76122 
L 186.193592 262.420377 
L 189.964714 263.065604 
L 193.456228 263.895183 
L 196.70675 266.153479 
L 202.603671 268.964827 
L 205.296626 269.748318 
L 207.843942 269.886581 
L 210.260568 270.854422 
L 212.559262 272.329228 
L 214.751001 273.250982 
L 216.845296 273.29707 
L 218.850444 273.665771 
L 226.113081 273.896209 
L 227.766369 274.495349 
L 235.260524 274.6797 
L 236.626239 275.87798 
L 237.953478 276.108418 
L 239.24435 277.168435 
L 240.500795 277.168435 
L 241.724601 277.306698 
L 242.917421 278.827591 
L 244.080786 279.334556 
L 245.216115 279.65717 
L 246.324728 280.625011 
L 247.407853 280.855449 
L 250.515389 280.901537 
L 254.363558 281.823291 
L 260.423221 282.145904 
L 261.228606 282.42243 
L 262.020455 282.468518 
L 263.565311 282.83722 
L 264.319149 282.83722 
L 265.061115 282.975483 
L 266.510887 283.02157 
L 270.610331 283.62071 
L 271.901203 283.805061 
L 275.574273 284.265938 
L 277.308722 284.312025 
L 280.064706 285.095516 
L 281.123489 285.372042 
L 282.668345 285.41813 
L 283.670806 285.464217 
L 284.164149 285.648568 
L 288.386126 286.109445 
L 290.147597 286.385971 
L 292.672159 286.708585 
L 293.080074 287.031199 
L 293.885459 287.077286 
L 295.068296 287.261637 
L 295.456067 287.261637 
L 296.222163 287.445988 
L 296.60059 287.445988 
L 296.976001 287.584251 
L 298.809458 287.630338 
L 299.523318 287.722514 
L 300.919387 287.814689 
L 302.275275 287.906864 
L 307.038306 288.459917 
L 308.231126 288.552092 
L 310.248542 288.78253 
L 311.363715 288.874706 
L 312.988493 289.059057 
L 314.559101 289.151232 
L 315.325197 289.19732 
L 316.574976 289.289495 
L 318.032222 289.473846 
L 320.365069 289.566021 
L 321.266797 289.658196 
L 322.370217 289.750372 
L 323.661089 289.934722 
L 325.123722 290.026898 
L 325.736926 290.072985 
L 327.33416 290.165161 
L 328.112919 290.257336 
L 329.445522 290.349512 
L 330.190421 290.441687 
L 331.824592 290.533862 
L 332.708556 290.672125 
L 334.259061 290.764301 
L 334.76476 290.810388 
L 336.573893 290.902564 
L 337.05547 290.948651 
L 338.934013 291.040827 
L 339.54391 291.133002 
L 343.046243 291.225178 
L 343.466281 291.271265 
L 346.437194 291.363441 
L 346.828183 291.409528 
L 349.477854 291.501704 
L 349.844501 291.547791 
L 352.102597 291.639967 
L 352.449449 291.686054 
L 355.78437 291.77823 
L 356.105238 291.824317 
L 359.892756 291.916493 
L 360.186912 291.96258 
L 363.942994 292.054756 
L 364.212989 292.100843 
L 368.334862 292.193019 
L 368.580888 292.239107 
L 373.765161 292.331282 
L 373.984466 292.37737 
L 379.159437 292.469545 
L 379.355066 292.515633 
L 385.221354 292.607808 
L 385.450619 292.653896 
L 392.745917 292.746071 
L 392.94141 292.792159 
L 401.155875 292.884334 
L 401.319465 292.930422 
L 411.224481 293.022597 
L 411.38962 293.068685 
L 419.95751 293.16086 
L 420.094749 293.206948 
L 429.301806 293.299123 
L 429.436868 293.345211 
L 435.36419 293.437386 
L 435.502732 293.483474 
L 437.665716 293.575649 
L 437.741158 293.621737 
L 437.741158 293.621737 
" clip-path="url(#pe26bf1f935)" style="fill: none; stroke: #f08080; stroke-width: 3; stroke-linecap: square"/>
   </g>
   <g id="line2d_51">
    <path d="M 69.12 272.09879 
L 101.776852 272.237053 
L 134.433705 273.435333 
L 153.536739 273.573596 
L 167.090557 273.896209 
L 177.603716 273.988385 
L 186.193592 274.310998 
L 193.456228 274.403174 
L 196.70675 274.587525 
L 202.603671 274.725788 
L 207.843942 275.002314 
L 210.260568 275.831892 
L 216.845296 276.384944 
L 224.39966 276.569295 
L 229.363602 277.398873 
L 235.260524 278.274539 
L 236.626239 278.366714 
L 237.953478 278.597153 
L 240.500795 278.735416 
L 241.724601 278.919767 
L 242.917421 278.965854 
L 244.080786 279.24238 
L 245.216115 279.24238 
L 246.324728 279.933696 
L 247.407853 279.933696 
L 248.466637 280.578923 
L 255.278419 281.546764 
L 256.175853 281.823291 
L 257.921011 282.007641 
L 259.603829 282.099817 
L 265.791577 282.698956 
L 266.510887 283.113746 
L 268.605182 283.344184 
L 269.283091 283.344184 
L 269.951385 283.482447 
L 271.901203 283.574622 
L 274.381453 283.805061 
L 274.981638 283.943324 
L 276.737638 284.035499 
L 277.872967 284.127675 
L 278.430534 284.173762 
L 278.98158 284.496376 
L 280.064706 284.680727 
L 281.123489 284.726814 
L 282.668345 284.957253 
L 284.164149 285.049428 
L 287.02041 285.556393 
L 287.935272 285.648568 
L 288.832706 285.925094 
L 289.713365 286.01727 
L 290.577864 286.109445 
L 291.004237 286.339883 
L 292.260681 286.432059 
L 295.068296 286.662497 
L 296.222163 286.754672 
L 303.267183 287.538163 
L 304.558055 287.584251 
L 305.190466 287.722514 
L 305.8145 287.768601 
L 306.123444 287.906864 
L 307.638491 287.99904 
L 309.965575 288.275566 
L 311.363715 288.321654 
L 311.911557 288.413829 
L 312.721558 288.459917 
L 314.041361 288.552092 
L 315.071213 288.644267 
L 316.327658 288.736443 
L 318.744284 289.105144 
L 320.136914 289.19732 
L 321.489558 289.38167 
L 324.2935 289.473846 
L 325.123722 289.566021 
L 326.542311 289.658196 
L 327.33416 289.750372 
L 328.305615 289.796459 
L 328.497525 289.934722 
L 330.5585 290.026898 
L 331.286142 290.119073 
L 334.089281 290.211249 
L 334.596796 290.257336 
L 336.087342 290.349512 
L 336.734966 290.441687 
L 339.239948 290.533862 
L 339.845923 290.626038 
L 341.327613 290.718213 
L 341.763184 290.764301 
L 344.83996 290.856476 
L 345.244374 290.902564 
L 347.728066 290.994739 
L 348.234672 291.086914 
L 351.283204 291.17909 
L 351.636119 291.225178 
L 354.257398 291.317353 
L 354.588798 291.363441 
L 356.845538 291.455616 
L 357.159283 291.501704 
L 359.298876 291.593879 
L 359.596752 291.639967 
L 363.215353 291.732142 
L 363.489537 291.77823 
L 367.085084 291.870405 
L 367.337706 291.916493 
L 370.346862 292.008668 
L 370.582628 292.054756 
L 374.420036 292.146931 
L 374.636321 292.193019 
L 378.302198 292.285194 
L 378.501411 292.331282 
L 382.440443 292.423457 
L 382.683612 292.469545 
L 387.683922 292.56172 
L 387.901539 292.607808 
L 394.002361 292.699983 
L 394.192721 292.746071 
L 401.482489 292.838246 
L 401.64495 292.884334 
L 409.334273 292.976509 
L 409.506159 293.022597 
L 418.647546 293.114772 
L 418.788648 293.16086 
L 427.673469 293.253036 
L 427.813273 293.299123 
L 434.240945 293.391299 
L 434.362582 293.437386 
L 437.28668 293.529562 
L 437.41969 293.575649 
L 437.741158 293.621737 
L 437.741158 293.621737 
" clip-path="url(#pe26bf1f935)" style="fill: none; stroke: #ffe4e1; stroke-width: 3; stroke-linecap: square"/>
   </g>
   <g id="line2d_52">
    <path d="M 69.12 291.96258 
L 437.741158 291.96258 
L 437.741158 291.96258 
" clip-path="url(#pe26bf1f935)" style="fill: none; stroke-dasharray: 11.1,4.8; stroke-dashoffset: 0; stroke: #000000; stroke-width: 3"/>
   </g>
   <g id="patch_3">
    <path d="M 69.12 293.76 
L 69.12 17.28 
" style="fill: none; stroke: #000000; stroke-width: 0.8; stroke-linejoin: miter; stroke-linecap: square"/>
   </g>
   <g id="patch_4">
    <path d="M 437.76 293.76 
L 437.76 17.28 
" style="fill: none; stroke: #000000; stroke-width: 0.8; stroke-linejoin: miter; stroke-linecap: square"/>
   </g>
   <g id="patch_5">
    <path d="M 69.12 293.76 
L 437.76 293.76 
" style="fill: none; stroke: #000000; stroke-width: 0.8; stroke-linejoin: miter; stroke-linecap: square"/>
   </g>
   <g id="patch_6">
    <path d="M 69.12 17.28 
L 437.76 17.28 
" style="fill: none; stroke: #000000; stroke-width: 0.8; stroke-linejoin: miter; stroke-linecap: square"/>
   </g>
   <g id="legend_1">
    <g id="patch_7">
     <path d="M 199.62 163.783125 
L 425.16 163.783125 
Q 428.76 163.783125 428.76 160.183125 
L 428.76 29.88 
Q 428.76 26.28 425.16 26.28 
L 199.62 26.28 
Q 196.02 26.28 196.02 29.88 
L 196.02 160.183125 
Q 196.02 163.783125 199.62 163.783125 
z
" style="fill: #008000; opacity: 0.2; stroke: #000000; stroke-linejoin: miter"/>
    </g>
    <g id="line2d_53">
     <path d="M 203.22 40.857188 
L 221.22 40.857188 
L 239.22 40.857188 
" style="fill: none; stroke: #800000; stroke-width: 3; stroke-linecap: square"/>
    </g>
    <g id="text_14">
     <!-- batch 0 -->
     <g transform="translate(253.62 47.157188) scale(0.18 -0.18)">
      <defs>
       <path id="DejaVuSans-61" d="M 2194 1759 
Q 1497 1759 1228 1600 
Q 959 1441 959 1056 
Q 959 750 1161 570 
Q 1363 391 1709 391 
Q 2188 391 2477 730 
Q 2766 1069 2766 1631 
L 2766 1759 
L 2194 1759 
z
M 3341 1997 
L 3341 0 
L 2766 0 
L 2766 531 
Q 2569 213 2275 61 
Q 1981 -91 1556 -91 
Q 1019 -91 701 211 
Q 384 513 384 1019 
Q 384 1609 779 1909 
Q 1175 2209 1959 2209 
L 2766 2209 
L 2766 2266 
Q 2766 2663 2505 2880 
Q 2244 3097 1772 3097 
Q 1472 3097 1187 3025 
Q 903 2953 641 2809 
L 641 3341 
Q 956 3463 1253 3523 
Q 1550 3584 1831 3584 
Q 2591 3584 2966 3190 
Q 3341 2797 3341 1997 
z
" transform="scale(0.015625)"/>
       <path id="DejaVuSans-74" d="M 1172 4494 
L 1172 3500 
L 2356 3500 
L 2356 3053 
L 1172 3053 
L 1172 1153 
Q 1172 725 1289 603 
Q 1406 481 1766 481 
L 2356 481 
L 2356 0 
L 1766 0 
Q 1100 0 847 248 
Q 594 497 594 1153 
L 594 3053 
L 172 3053 
L 172 3500 
L 594 3500 
L 594 4494 
L 1172 4494 
z
" transform="scale(0.015625)"/>
       <path id="DejaVuSans-63" d="M 3122 3366 
L 3122 2828 
Q 2878 2963 2633 3030 
Q 2388 3097 2138 3097 
Q 1578 3097 1268 2742 
Q 959 2388 959 1747 
Q 959 1106 1268 751 
Q 1578 397 2138 397 
Q 2388 397 2633 464 
Q 2878 531 3122 666 
L 3122 134 
Q 2881 22 2623 -34 
Q 2366 -91 2075 -91 
Q 1284 -91 818 406 
Q 353 903 353 1747 
Q 353 2603 823 3093 
Q 1294 3584 2113 3584 
Q 2378 3584 2631 3529 
Q 2884 3475 3122 3366 
z
" transform="scale(0.015625)"/>
       <path id="DejaVuSans-68" d="M 3513 2113 
L 3513 0 
L 2938 0 
L 2938 2094 
Q 2938 2591 2744 2837 
Q 2550 3084 2163 3084 
Q 1697 3084 1428 2787 
Q 1159 2491 1159 1978 
L 1159 0 
L 581 0 
L 581 4863 
L 1159 4863 
L 1159 2956 
Q 1366 3272 1645 3428 
Q 1925 3584 2291 3584 
Q 2894 3584 3203 3211 
Q 3513 2838 3513 2113 
z
" transform="scale(0.015625)"/>
      </defs>
      <use xlink:href="#DejaVuSans-62"/>
      <use xlink:href="#DejaVuSans-61" x="63.476562"/>
      <use xlink:href="#DejaVuSans-74" x="124.755859"/>
      <use xlink:href="#DejaVuSans-63" x="163.964844"/>
      <use xlink:href="#DejaVuSans-68" x="218.945312"/>
      <use xlink:href="#DejaVuSans-20" x="282.324219"/>
      <use xlink:href="#DejaVuSans-30" x="314.111328"/>
     </g>
    </g>
    <g id="line2d_54">
     <path d="M 203.22 67.277813 
L 221.22 67.277813 
L 239.22 67.277813 
" style="fill: none; stroke: #a52a2a; stroke-width: 3; stroke-linecap: square"/>
    </g>
    <g id="text_15">
     <!-- batch 5 -->
     <g transform="translate(253.62 73.577813) scale(0.18 -0.18)">
      <use xlink:href="#DejaVuSans-62"/>
      <use xlink:href="#DejaVuSans-61" x="63.476562"/>
      <use xlink:href="#DejaVuSans-74" x="124.755859"/>
      <use xlink:href="#DejaVuSans-63" x="163.964844"/>
      <use xlink:href="#DejaVuSans-68" x="218.945312"/>
      <use xlink:href="#DejaVuSans-20" x="282.324219"/>
      <use xlink:href="#DejaVuSans-35" x="314.111328"/>
     </g>
    </g>
    <g id="line2d_55">
     <path d="M 203.22 93.698438 
L 221.22 93.698438 
L 239.22 93.698438 
" style="fill: none; stroke: #f08080; stroke-width: 3; stroke-linecap: square"/>
    </g>
    <g id="text_16">
     <!-- batch 10 -->
     <g transform="translate(253.62 99.998438) scale(0.18 -0.18)">
      <use xlink:href="#DejaVuSans-62"/>
      <use xlink:href="#DejaVuSans-61" x="63.476562"/>
      <use xlink:href="#DejaVuSans-74" x="124.755859"/>
      <use xlink:href="#DejaVuSans-63" x="163.964844"/>
      <use xlink:href="#DejaVuSans-68" x="218.945312"/>
      <use xlink:href="#DejaVuSans-20" x="282.324219"/>
      <use xlink:href="#DejaVuSans-31" x="314.111328"/>
      <use xlink:href="#DejaVuSans-30" x="377.734375"/>
     </g>
    </g>
    <g id="line2d_56">
     <path d="M 203.22 120.119063 
L 221.22 120.119063 
L 239.22 120.119063 
" style="fill: none; stroke: #ffe4e1; stroke-width: 3; stroke-linecap: square"/>
    </g>
    <g id="text_17">
     <!-- batch 49 -->
     <g transform="translate(253.62 126.419063) scale(0.18 -0.18)">
      <defs>
       <path id="DejaVuSans-39" d="M 703 97 
L 703 672 
Q 941 559 1184 500 
Q 1428 441 1663 441 
Q 2288 441 2617 861 
Q 2947 1281 2994 2138 
Q 2813 1869 2534 1725 
Q 2256 1581 1919 1581 
Q 1219 1581 811 2004 
Q 403 2428 403 3163 
Q 403 3881 828 4315 
Q 1253 4750 1959 4750 
Q 2769 4750 3195 4129 
Q 3622 3509 3622 2328 
Q 3622 1225 3098 567 
Q 2575 -91 1691 -91 
Q 1453 -91 1209 -44 
Q 966 3 703 97 
z
M 1959 2075 
Q 2384 2075 2632 2365 
Q 2881 2656 2881 3163 
Q 2881 3666 2632 3958 
Q 2384 4250 1959 4250 
Q 1534 4250 1286 3958 
Q 1038 3666 1038 3163 
Q 1038 2656 1286 2365 
Q 1534 2075 1959 2075 
z
" transform="scale(0.015625)"/>
      </defs>
      <use xlink:href="#DejaVuSans-62"/>
      <use xlink:href="#DejaVuSans-61" x="63.476562"/>
      <use xlink:href="#DejaVuSans-74" x="124.755859"/>
      <use xlink:href="#DejaVuSans-63" x="163.964844"/>
      <use xlink:href="#DejaVuSans-68" x="218.945312"/>
      <use xlink:href="#DejaVuSans-20" x="282.324219"/>
      <use xlink:href="#DejaVuSans-34" x="314.111328"/>
      <use xlink:href="#DejaVuSans-39" x="377.734375"/>
     </g>
    </g>
    <g id="line2d_57">
     <path d="M 203.22 146.539688 
L 221.22 146.539688 
L 239.22 146.539688 
" style="fill: none; stroke-dasharray: 11.1,4.8; stroke-dashoffset: 0; stroke: #000000; stroke-width: 3"/>
    </g>
    <g id="text_18">
     <!-- perfectly balanced -->
     <g transform="translate(253.62 152.839688) scale(0.18 -0.18)">
      <defs>
       <path id="DejaVuSans-70" d="M 1159 525 
L 1159 -1331 
L 581 -1331 
L 581 3500 
L 1159 3500 
L 1159 2969 
Q 1341 3281 1617 3432 
Q 1894 3584 2278 3584 
Q 2916 3584 3314 3078 
Q 3713 2572 3713 1747 
Q 3713 922 3314 415 
Q 2916 -91 2278 -91 
Q 1894 -91 1617 61 
Q 1341 213 1159 525 
z
M 3116 1747 
Q 3116 2381 2855 2742 
Q 2594 3103 2138 3103 
Q 1681 3103 1420 2742 
Q 1159 2381 1159 1747 
Q 1159 1113 1420 752 
Q 1681 391 2138 391 
Q 2594 391 2855 752 
Q 3116 1113 3116 1747 
z
" transform="scale(0.015625)"/>
       <path id="DejaVuSans-6c" d="M 603 4863 
L 1178 4863 
L 1178 0 
L 603 0 
L 603 4863 
z
" transform="scale(0.015625)"/>
       <path id="DejaVuSans-79" d="M 2059 -325 
Q 1816 -950 1584 -1140 
Q 1353 -1331 966 -1331 
L 506 -1331 
L 506 -850 
L 844 -850 
Q 1081 -850 1212 -737 
Q 1344 -625 1503 -206 
L 1606 56 
L 191 3500 
L 800 3500 
L 1894 763 
L 2988 3500 
L 3597 3500 
L 2059 -325 
z
" transform="scale(0.015625)"/>
      </defs>
      <use xlink:href="#DejaVuSans-70"/>
      <use xlink:href="#DejaVuSans-65" x="63.476562"/>
      <use xlink:href="#DejaVuSans-72" x="125"/>
      <use xlink:href="#DejaVuSans-66" x="166.113281"/>
      <use xlink:href="#DejaVuSans-65" x="201.318359"/>
      <use xlink:href="#DejaVuSans-63" x="262.841797"/>
      <use xlink:href="#DejaVuSans-74" x="317.822266"/>
      <use xlink:href="#DejaVuSans-6c" x="357.03125"/>
      <use xlink:href="#DejaVuSans-79" x="384.814453"/>
      <use xlink:href="#DejaVuSans-20" x="443.994141"/>
      <use xlink:href="#DejaVuSans-62" x="475.78125"/>
      <use xlink:href="#DejaVuSans-61" x="539.257812"/>
      <use xlink:href="#DejaVuSans-6c" x="600.537109"/>
      <use xlink:href="#DejaVuSans-61" x="628.320312"/>
      <use xlink:href="#DejaVuSans-6e" x="689.599609"/>
      <use xlink:href="#DejaVuSans-63" x="752.978516"/>
      <use xlink:href="#DejaVuSans-65" x="807.958984"/>
      <use xlink:href="#DejaVuSans-64" x="869.482422"/>
     </g>
    </g>
   </g>
  </g>
 </g>
 <defs>
  <clipPath id="pe26bf1f935">
   <rect x="69.12" y="17.28" width="368.64" height="276.48"/>
  </clipPath>
 </defs>
</svg>
