<?xml version="1.0" encoding="utf-8" standalone="no"?>
<!DOCTYPE svg PUBLIC "-//W3C//DTD SVG 1.1//EN"
  "http://www.w3.org/Graphics/SVG/1.1/DTD/svg11.dtd">
<svg xmlns:xlink="http://www.w3.org/1999/xlink" width="460.8pt" height="345.6pt" viewBox="0 0 460.8 345.6" xmlns="http://www.w3.org/2000/svg" version="1.1">
 <metadata>
  <rdf:RDF xmlns:dc="http://purl.org/dc/elements/1.1/" xmlns:cc="http://creativecommons.org/ns#" xmlns:rdf="http://www.w3.org/1999/02/22-rdf-syntax-ns#">
   <cc:Work>
    <dc:type rdf:resource="http://purl.org/dc/dcmitype/StillImage"/>
    <dc:date>2024-01-24T05:34:17.917020</dc:date>
    <dc:format>image/svg+xml</dc:format>
    <dc:creator>
     <cc:Agent>
      <dc:title>Matplotlib v3.7.0, https://matplotlib.org/</dc:title>
     </cc:Agent>
    </dc:creator>
   </cc:Work>
  </rdf:RDF>
 </metadata>
 <defs>
  <style type="text/css">*{stroke-linejoin: round; stroke-linecap: butt}</style>
 </defs>
 <g id="figure_1">
  <g id="patch_1">
   <path d="M 0 345.6 
L 460.8 345.6 
L 460.8 0 
L 0 0 
L 0 345.6 
z
" style="fill: none"/>
  </g>
  <g id="axes_1">
   <g id="patch_2">
    <path d="M 69.12 293.76 
L 437.76 293.76 
L 437.76 17.28 
L 69.12 17.28 
L 69.12 293.76 
z
" style="fill: none"/>
   </g>
   <g id="matplotlib.axis_1">
    <g id="xtick_1">
     <g id="line2d_1">
      <path d="M 69.12 293.76 
L 69.12 17.28 
" clip-path="url(#pa91d70bebc)" style="fill: none; stroke: #b0b0b0; stroke-width: 0.8; stroke-linecap: square"/>
     </g>
     <g id="line2d_2">
      <defs>
       <path id="m55a2620375" d="M 0 0 
L 0 3.5 
" style="stroke: #000000; stroke-width: 0.8"/>
      </defs>
      <g>
       <use xlink:href="#m55a2620375" x="69.12" y="293.76" style="stroke: #000000; stroke-width: 0.8"/>
      </g>
     </g>
     <g id="text_1">
      <!-- $\mathdefault{10^{0}}$ -->
      <g transform="translate(53.28 314.437187) scale(0.18 -0.18)">
       <defs>
        <path id="DejaVuSans-31" d="M 794 531 
L 1825 531 
L 1825 4091 
L 703 3866 
L 703 4441 
L 1819 4666 
L 2450 4666 
L 2450 531 
L 3481 531 
L 3481 0 
L 794 0 
L 794 531 
z
" transform="scale(0.015625)"/>
        <path id="DejaVuSans-30" d="M 2034 4250 
Q 1547 4250 1301 3770 
Q 1056 3291 1056 2328 
Q 1056 1369 1301 889 
Q 1547 409 2034 409 
Q 2525 409 2770 889 
Q 3016 1369 3016 2328 
Q 3016 3291 2770 3770 
Q 2525 4250 2034 4250 
z
M 2034 4750 
Q 2819 4750 3233 4129 
Q 3647 3509 3647 2328 
Q 3647 1150 3233 529 
Q 2819 -91 2034 -91 
Q 1250 -91 836 529 
Q 422 1150 422 2328 
Q 422 3509 836 4129 
Q 1250 4750 2034 4750 
z
" transform="scale(0.015625)"/>
       </defs>
       <use xlink:href="#DejaVuSans-31" transform="translate(0 0.765625)"/>
       <use xlink:href="#DejaVuSans-30" transform="translate(63.623047 0.765625)"/>
       <use xlink:href="#DejaVuSans-30" transform="translate(128.203125 39.046875) scale(0.7)"/>
      </g>
     </g>
    </g>
    <g id="xtick_2">
     <g id="line2d_3">
      <path d="M 177.603716 293.76 
L 177.603716 17.28 
" clip-path="url(#pa91d70bebc)" style="fill: none; stroke: #b0b0b0; stroke-width: 0.8; stroke-linecap: square"/>
     </g>
     <g id="line2d_4">
      <g>
       <use xlink:href="#m55a2620375" x="177.603716" y="293.76" style="stroke: #000000; stroke-width: 0.8"/>
      </g>
     </g>
     <g id="text_2">
      <!-- $\mathdefault{10^{1}}$ -->
      <g transform="translate(161.763716 314.437187) scale(0.18 -0.18)">
       <use xlink:href="#DejaVuSans-31" transform="translate(0 0.684375)"/>
       <use xlink:href="#DejaVuSans-30" transform="translate(63.623047 0.684375)"/>
       <use xlink:href="#DejaVuSans-31" transform="translate(128.203125 38.965625) scale(0.7)"/>
      </g>
     </g>
    </g>
    <g id="xtick_3">
     <g id="line2d_5">
      <path d="M 286.087432 293.76 
L 286.087432 17.28 
" clip-path="url(#pa91d70bebc)" style="fill: none; stroke: #b0b0b0; stroke-width: 0.8; stroke-linecap: square"/>
     </g>
     <g id="line2d_6">
      <g>
       <use xlink:href="#m55a2620375" x="286.087432" y="293.76" style="stroke: #000000; stroke-width: 0.8"/>
      </g>
     </g>
     <g id="text_3">
      <!-- $\mathdefault{10^{2}}$ -->
      <g transform="translate(270.247432 314.437187) scale(0.18 -0.18)">
       <defs>
        <path id="DejaVuSans-32" d="M 1228 531 
L 3431 531 
L 3431 0 
L 469 0 
L 469 531 
Q 828 903 1448 1529 
Q 2069 2156 2228 2338 
Q 2531 2678 2651 2914 
Q 2772 3150 2772 3378 
Q 2772 3750 2511 3984 
Q 2250 4219 1831 4219 
Q 1534 4219 1204 4116 
Q 875 4013 500 3803 
L 500 4441 
Q 881 4594 1212 4672 
Q 1544 4750 1819 4750 
Q 2544 4750 2975 4387 
Q 3406 4025 3406 3419 
Q 3406 3131 3298 2873 
Q 3191 2616 2906 2266 
Q 2828 2175 2409 1742 
Q 1991 1309 1228 531 
z
" transform="scale(0.015625)"/>
       </defs>
       <use xlink:href="#DejaVuSans-31" transform="translate(0 0.765625)"/>
       <use xlink:href="#DejaVuSans-30" transform="translate(63.623047 0.765625)"/>
       <use xlink:href="#DejaVuSans-32" transform="translate(128.203125 39.046875) scale(0.7)"/>
      </g>
     </g>
    </g>
    <g id="xtick_4">
     <g id="line2d_7">
      <path d="M 394.571147 293.76 
L 394.571147 17.28 
" clip-path="url(#pa91d70bebc)" style="fill: none; stroke: #b0b0b0; stroke-width: 0.8; stroke-linecap: square"/>
     </g>
     <g id="line2d_8">
      <g>
       <use xlink:href="#m55a2620375" x="394.571147" y="293.76" style="stroke: #000000; stroke-width: 0.8"/>
      </g>
     </g>
     <g id="text_4">
      <!-- $\mathdefault{10^{3}}$ -->
      <g transform="translate(378.731147 314.437187) scale(0.18 -0.18)">
       <defs>
        <path id="DejaVuSans-33" d="M 2597 2516 
Q 3050 2419 3304 2112 
Q 3559 1806 3559 1356 
Q 3559 666 3084 287 
Q 2609 -91 1734 -91 
Q 1441 -91 1130 -33 
Q 819 25 488 141 
L 488 750 
Q 750 597 1062 519 
Q 1375 441 1716 441 
Q 2309 441 2620 675 
Q 2931 909 2931 1356 
Q 2931 1769 2642 2001 
Q 2353 2234 1838 2234 
L 1294 2234 
L 1294 2753 
L 1863 2753 
Q 2328 2753 2575 2939 
Q 2822 3125 2822 3475 
Q 2822 3834 2567 4026 
Q 2313 4219 1838 4219 
Q 1578 4219 1281 4162 
Q 984 4106 628 3988 
L 628 4550 
Q 988 4650 1302 4700 
Q 1616 4750 1894 4750 
Q 2613 4750 3031 4423 
Q 3450 4097 3450 3541 
Q 3450 3153 3228 2886 
Q 3006 2619 2597 2516 
z
" transform="scale(0.015625)"/>
       </defs>
       <use xlink:href="#DejaVuSans-31" transform="translate(0 0.765625)"/>
       <use xlink:href="#DejaVuSans-30" transform="translate(63.623047 0.765625)"/>
       <use xlink:href="#DejaVuSans-33" transform="translate(128.203125 39.046875) scale(0.7)"/>
      </g>
     </g>
    </g>
    <g id="xtick_5">
     <g id="line2d_9">
      <defs>
       <path id="m461c090168" d="M 0 0 
L 0 2 
" style="stroke: #000000; stroke-width: 0.6"/>
      </defs>
      <g>
       <use xlink:href="#m461c090168" x="101.776852" y="293.76" style="stroke: #000000; stroke-width: 0.6"/>
      </g>
     </g>
    </g>
    <g id="xtick_6">
     <g id="line2d_10">
      <g>
       <use xlink:href="#m461c090168" x="120.879887" y="293.76" style="stroke: #000000; stroke-width: 0.6"/>
      </g>
     </g>
    </g>
    <g id="xtick_7">
     <g id="line2d_11">
      <g>
       <use xlink:href="#m461c090168" x="134.433705" y="293.76" style="stroke: #000000; stroke-width: 0.6"/>
      </g>
     </g>
    </g>
    <g id="xtick_8">
     <g id="line2d_12">
      <g>
       <use xlink:href="#m461c090168" x="144.946863" y="293.76" style="stroke: #000000; stroke-width: 0.6"/>
      </g>
     </g>
    </g>
    <g id="xtick_9">
     <g id="line2d_13">
      <g>
       <use xlink:href="#m461c090168" x="153.536739" y="293.76" style="stroke: #000000; stroke-width: 0.6"/>
      </g>
     </g>
    </g>
    <g id="xtick_10">
     <g id="line2d_14">
      <g>
       <use xlink:href="#m461c090168" x="160.799376" y="293.76" style="stroke: #000000; stroke-width: 0.6"/>
      </g>
     </g>
    </g>
    <g id="xtick_11">
     <g id="line2d_15">
      <g>
       <use xlink:href="#m461c090168" x="167.090557" y="293.76" style="stroke: #000000; stroke-width: 0.6"/>
      </g>
     </g>
    </g>
    <g id="xtick_12">
     <g id="line2d_16">
      <g>
       <use xlink:href="#m461c090168" x="172.639773" y="293.76" style="stroke: #000000; stroke-width: 0.6"/>
      </g>
     </g>
    </g>
    <g id="xtick_13">
     <g id="line2d_17">
      <g>
       <use xlink:href="#m461c090168" x="210.260568" y="293.76" style="stroke: #000000; stroke-width: 0.6"/>
      </g>
     </g>
    </g>
    <g id="xtick_14">
     <g id="line2d_18">
      <g>
       <use xlink:href="#m461c090168" x="229.363602" y="293.76" style="stroke: #000000; stroke-width: 0.6"/>
      </g>
     </g>
    </g>
    <g id="xtick_15">
     <g id="line2d_19">
      <g>
       <use xlink:href="#m461c090168" x="242.917421" y="293.76" style="stroke: #000000; stroke-width: 0.6"/>
      </g>
     </g>
    </g>
    <g id="xtick_16">
     <g id="line2d_20">
      <g>
       <use xlink:href="#m461c090168" x="253.430579" y="293.76" style="stroke: #000000; stroke-width: 0.6"/>
      </g>
     </g>
    </g>
    <g id="xtick_17">
     <g id="line2d_21">
      <g>
       <use xlink:href="#m461c090168" x="262.020455" y="293.76" style="stroke: #000000; stroke-width: 0.6"/>
      </g>
     </g>
    </g>
    <g id="xtick_18">
     <g id="line2d_22">
      <g>
       <use xlink:href="#m461c090168" x="269.283091" y="293.76" style="stroke: #000000; stroke-width: 0.6"/>
      </g>
     </g>
    </g>
    <g id="xtick_19">
     <g id="line2d_23">
      <g>
       <use xlink:href="#m461c090168" x="275.574273" y="293.76" style="stroke: #000000; stroke-width: 0.6"/>
      </g>
     </g>
    </g>
    <g id="xtick_20">
     <g id="line2d_24">
      <g>
       <use xlink:href="#m461c090168" x="281.123489" y="293.76" style="stroke: #000000; stroke-width: 0.6"/>
      </g>
     </g>
    </g>
    <g id="xtick_21">
     <g id="line2d_25">
      <g>
       <use xlink:href="#m461c090168" x="318.744284" y="293.76" style="stroke: #000000; stroke-width: 0.6"/>
      </g>
     </g>
    </g>
    <g id="xtick_22">
     <g id="line2d_26">
      <g>
       <use xlink:href="#m461c090168" x="337.847318" y="293.76" style="stroke: #000000; stroke-width: 0.6"/>
      </g>
     </g>
    </g>
    <g id="xtick_23">
     <g id="line2d_27">
      <g>
       <use xlink:href="#m461c090168" x="351.401137" y="293.76" style="stroke: #000000; stroke-width: 0.6"/>
      </g>
     </g>
    </g>
    <g id="xtick_24">
     <g id="line2d_28">
      <g>
       <use xlink:href="#m461c090168" x="361.914295" y="293.76" style="stroke: #000000; stroke-width: 0.6"/>
      </g>
     </g>
    </g>
    <g id="xtick_25">
     <g id="line2d_29">
      <g>
       <use xlink:href="#m461c090168" x="370.504171" y="293.76" style="stroke: #000000; stroke-width: 0.6"/>
      </g>
     </g>
    </g>
    <g id="xtick_26">
     <g id="line2d_30">
      <g>
       <use xlink:href="#m461c090168" x="377.766807" y="293.76" style="stroke: #000000; stroke-width: 0.6"/>
      </g>
     </g>
    </g>
    <g id="xtick_27">
     <g id="line2d_31">
      <g>
       <use xlink:href="#m461c090168" x="384.057989" y="293.76" style="stroke: #000000; stroke-width: 0.6"/>
      </g>
     </g>
    </g>
    <g id="xtick_28">
     <g id="line2d_32">
      <g>
       <use xlink:href="#m461c090168" x="389.607205" y="293.76" style="stroke: #000000; stroke-width: 0.6"/>
      </g>
     </g>
    </g>
    <g id="xtick_29">
     <g id="line2d_33">
      <g>
       <use xlink:href="#m461c090168" x="427.228" y="293.76" style="stroke: #000000; stroke-width: 0.6"/>
      </g>
     </g>
    </g>
    <g id="text_5">
     <!-- PIM node -->
     <g transform="translate(212.270625 335.857812) scale(0.18 -0.18)">
      <defs>
       <path id="DejaVuSans-50" d="M 1259 4147 
L 1259 2394 
L 2053 2394 
Q 2494 2394 2734 2622 
Q 2975 2850 2975 3272 
Q 2975 3691 2734 3919 
Q 2494 4147 2053 4147 
L 1259 4147 
z
M 628 4666 
L 2053 4666 
Q 2838 4666 3239 4311 
Q 3641 3956 3641 3272 
Q 3641 2581 3239 2228 
Q 2838 1875 2053 1875 
L 1259 1875 
L 1259 0 
L 628 0 
L 628 4666 
z
" transform="scale(0.015625)"/>
       <path id="DejaVuSans-49" d="M 628 4666 
L 1259 4666 
L 1259 0 
L 628 0 
L 628 4666 
z
" transform="scale(0.015625)"/>
       <path id="DejaVuSans-4d" d="M 628 4666 
L 1569 4666 
L 2759 1491 
L 3956 4666 
L 4897 4666 
L 4897 0 
L 4281 0 
L 4281 4097 
L 3078 897 
L 2444 897 
L 1241 4097 
L 1241 0 
L 628 0 
L 628 4666 
z
" transform="scale(0.015625)"/>
       <path id="DejaVuSans-20" transform="scale(0.015625)"/>
       <path id="DejaVuSans-6e" d="M 3513 2113 
L 3513 0 
L 2938 0 
L 2938 2094 
Q 2938 2591 2744 2837 
Q 2550 3084 2163 3084 
Q 1697 3084 1428 2787 
Q 1159 2491 1159 1978 
L 1159 0 
L 581 0 
L 581 3500 
L 1159 3500 
L 1159 2956 
Q 1366 3272 1645 3428 
Q 1925 3584 2291 3584 
Q 2894 3584 3203 3211 
Q 3513 2838 3513 2113 
z
" transform="scale(0.015625)"/>
       <path id="DejaVuSans-6f" d="M 1959 3097 
Q 1497 3097 1228 2736 
Q 959 2375 959 1747 
Q 959 1119 1226 758 
Q 1494 397 1959 397 
Q 2419 397 2687 759 
Q 2956 1122 2956 1747 
Q 2956 2369 2687 2733 
Q 2419 3097 1959 3097 
z
M 1959 3584 
Q 2709 3584 3137 3096 
Q 3566 2609 3566 1747 
Q 3566 888 3137 398 
Q 2709 -91 1959 -91 
Q 1206 -91 779 398 
Q 353 888 353 1747 
Q 353 2609 779 3096 
Q 1206 3584 1959 3584 
z
" transform="scale(0.015625)"/>
       <path id="DejaVuSans-64" d="M 2906 2969 
L 2906 4863 
L 3481 4863 
L 3481 0 
L 2906 0 
L 2906 525 
Q 2725 213 2448 61 
Q 2172 -91 1784 -91 
Q 1150 -91 751 415 
Q 353 922 353 1747 
Q 353 2572 751 3078 
Q 1150 3584 1784 3584 
Q 2172 3584 2448 3432 
Q 2725 3281 2906 2969 
z
M 947 1747 
Q 947 1113 1208 752 
Q 1469 391 1925 391 
Q 2381 391 2643 752 
Q 2906 1113 2906 1747 
Q 2906 2381 2643 2742 
Q 2381 3103 1925 3103 
Q 1469 3103 1208 2742 
Q 947 2381 947 1747 
z
" transform="scale(0.015625)"/>
       <path id="DejaVuSans-65" d="M 3597 1894 
L 3597 1613 
L 953 1613 
Q 991 1019 1311 708 
Q 1631 397 2203 397 
Q 2534 397 2845 478 
Q 3156 559 3463 722 
L 3463 178 
Q 3153 47 2828 -22 
Q 2503 -91 2169 -91 
Q 1331 -91 842 396 
Q 353 884 353 1716 
Q 353 2575 817 3079 
Q 1281 3584 2069 3584 
Q 2775 3584 3186 3129 
Q 3597 2675 3597 1894 
z
M 3022 2063 
Q 3016 2534 2758 2815 
Q 2500 3097 2075 3097 
Q 1594 3097 1305 2825 
Q 1016 2553 972 2059 
L 3022 2063 
z
" transform="scale(0.015625)"/>
      </defs>
      <use xlink:href="#DejaVuSans-50"/>
      <use xlink:href="#DejaVuSans-49" x="60.302734"/>
      <use xlink:href="#DejaVuSans-4d" x="89.794922"/>
      <use xlink:href="#DejaVuSans-20" x="176.074219"/>
      <use xlink:href="#DejaVuSans-6e" x="207.861328"/>
      <use xlink:href="#DejaVuSans-6f" x="271.240234"/>
      <use xlink:href="#DejaVuSans-64" x="332.421875"/>
      <use xlink:href="#DejaVuSans-65" x="395.898438"/>
     </g>
    </g>
   </g>
   <g id="matplotlib.axis_2">
    <g id="ytick_1">
     <g id="line2d_34">
      <path d="M 69.12 224.743732 
L 437.76 224.743732 
" clip-path="url(#pa91d70bebc)" style="fill: none; stroke: #b0b0b0; stroke-width: 0.8; stroke-linecap: square"/>
     </g>
     <g id="line2d_35">
      <defs>
       <path id="m911a717704" d="M 0 0 
L -3.5 0 
" style="stroke: #000000; stroke-width: 0.8"/>
      </defs>
      <g>
       <use xlink:href="#m911a717704" x="69.12" y="224.743732" style="stroke: #000000; stroke-width: 0.8"/>
      </g>
     </g>
     <g id="text_6">
      <!-- 500 -->
      <g transform="translate(27.7625 231.582326) scale(0.18 -0.18)">
       <defs>
        <path id="DejaVuSans-35" d="M 691 4666 
L 3169 4666 
L 3169 4134 
L 1269 4134 
L 1269 2991 
Q 1406 3038 1543 3061 
Q 1681 3084 1819 3084 
Q 2600 3084 3056 2656 
Q 3513 2228 3513 1497 
Q 3513 744 3044 326 
Q 2575 -91 1722 -91 
Q 1428 -91 1123 -41 
Q 819 9 494 109 
L 494 744 
Q 775 591 1075 516 
Q 1375 441 1709 441 
Q 2250 441 2565 725 
Q 2881 1009 2881 1497 
Q 2881 1984 2565 2268 
Q 2250 2553 1709 2553 
Q 1456 2553 1204 2497 
Q 953 2441 691 2322 
L 691 4666 
z
" transform="scale(0.015625)"/>
       </defs>
       <use xlink:href="#DejaVuSans-35"/>
       <use xlink:href="#DejaVuSans-30" x="63.623047"/>
       <use xlink:href="#DejaVuSans-30" x="127.246094"/>
      </g>
     </g>
    </g>
    <g id="ytick_2">
     <g id="line2d_36">
      <path d="M 69.12 155.589155 
L 437.76 155.589155 
" clip-path="url(#pa91d70bebc)" style="fill: none; stroke: #b0b0b0; stroke-width: 0.8; stroke-linecap: square"/>
     </g>
     <g id="line2d_37">
      <g>
       <use xlink:href="#m911a717704" x="69.12" y="155.589155" style="stroke: #000000; stroke-width: 0.8"/>
      </g>
     </g>
     <g id="text_7">
      <!-- 1000 -->
      <g transform="translate(16.31 162.427748) scale(0.18 -0.18)">
       <use xlink:href="#DejaVuSans-31"/>
       <use xlink:href="#DejaVuSans-30" x="63.623047"/>
       <use xlink:href="#DejaVuSans-30" x="127.246094"/>
       <use xlink:href="#DejaVuSans-30" x="190.869141"/>
      </g>
     </g>
    </g>
    <g id="ytick_3">
     <g id="line2d_38">
      <path d="M 69.12 86.434577 
L 437.76 86.434577 
" clip-path="url(#pa91d70bebc)" style="fill: none; stroke: #b0b0b0; stroke-width: 0.8; stroke-linecap: square"/>
     </g>
     <g id="line2d_39">
      <g>
       <use xlink:href="#m911a717704" x="69.12" y="86.434577" style="stroke: #000000; stroke-width: 0.8"/>
      </g>
     </g>
     <g id="text_8">
      <!-- 1500 -->
      <g transform="translate(16.31 93.273171) scale(0.18 -0.18)">
       <use xlink:href="#DejaVuSans-31"/>
       <use xlink:href="#DejaVuSans-35" x="63.623047"/>
       <use xlink:href="#DejaVuSans-30" x="127.246094"/>
       <use xlink:href="#DejaVuSans-30" x="190.869141"/>
      </g>
     </g>
    </g>
    <g id="ytick_4">
     <g id="line2d_40">
      <path d="M 69.12 17.28 
L 437.76 17.28 
" clip-path="url(#pa91d70bebc)" style="fill: none; stroke: #b0b0b0; stroke-width: 0.8; stroke-linecap: square"/>
     </g>
     <g id="line2d_41">
      <g>
       <use xlink:href="#m911a717704" x="69.12" y="17.28" style="stroke: #000000; stroke-width: 0.8"/>
      </g>
     </g>
     <g id="text_9">
      <!-- 2000 -->
      <g transform="translate(16.31 24.118594) scale(0.18 -0.18)">
       <use xlink:href="#DejaVuSans-32"/>
       <use xlink:href="#DejaVuSans-30" x="63.623047"/>
       <use xlink:href="#DejaVuSans-30" x="127.246094"/>
       <use xlink:href="#DejaVuSans-30" x="190.869141"/>
      </g>
     </g>
    </g>
    <g id="ytick_5">
     <g id="line2d_42">
      <path d="M 69.12 288.365943 
L 437.76 288.365943 
" clip-path="url(#pa91d70bebc)" style="fill: none; stroke: #b0b0b0; stroke-width: 0.8; stroke-linecap: square"/>
     </g>
     <g id="line2d_43">
      <g>
       <use xlink:href="#m911a717704" x="69.12" y="288.365943" style="stroke: #000000; stroke-width: 0.8"/>
      </g>
     </g>
     <g id="text_10">
      <!-- 40 -->
      <g transform="translate(39.215 295.204537) scale(0.18 -0.18)">
       <defs>
        <path id="DejaVuSans-34" d="M 2419 4116 
L 825 1625 
L 2419 1625 
L 2419 4116 
z
M 2253 4666 
L 3047 4666 
L 3047 1625 
L 3713 1625 
L 3713 1100 
L 3047 1100 
L 3047 0 
L 2419 0 
L 2419 1100 
L 313 1100 
L 313 1709 
L 2253 4666 
z
" transform="scale(0.015625)"/>
       </defs>
       <use xlink:href="#DejaVuSans-34"/>
       <use xlink:href="#DejaVuSans-30" x="63.623047"/>
      </g>
     </g>
    </g>
    <g id="text_11">
     <!-- number of queries -->
     <g transform="translate(8.566563 238.422656) rotate(-90) scale(0.18 -0.18)">
      <defs>
       <path id="DejaVuSans-75" d="M 544 1381 
L 544 3500 
L 1119 3500 
L 1119 1403 
Q 1119 906 1312 657 
Q 1506 409 1894 409 
Q 2359 409 2629 706 
Q 2900 1003 2900 1516 
L 2900 3500 
L 3475 3500 
L 3475 0 
L 2900 0 
L 2900 538 
Q 2691 219 2414 64 
Q 2138 -91 1772 -91 
Q 1169 -91 856 284 
Q 544 659 544 1381 
z
M 1991 3584 
L 1991 3584 
z
" transform="scale(0.015625)"/>
       <path id="DejaVuSans-6d" d="M 3328 2828 
Q 3544 3216 3844 3400 
Q 4144 3584 4550 3584 
Q 5097 3584 5394 3201 
Q 5691 2819 5691 2113 
L 5691 0 
L 5113 0 
L 5113 2094 
Q 5113 2597 4934 2840 
Q 4756 3084 4391 3084 
Q 3944 3084 3684 2787 
Q 3425 2491 3425 1978 
L 3425 0 
L 2847 0 
L 2847 2094 
Q 2847 2600 2669 2842 
Q 2491 3084 2119 3084 
Q 1678 3084 1418 2786 
Q 1159 2488 1159 1978 
L 1159 0 
L 581 0 
L 581 3500 
L 1159 3500 
L 1159 2956 
Q 1356 3278 1631 3431 
Q 1906 3584 2284 3584 
Q 2666 3584 2933 3390 
Q 3200 3197 3328 2828 
z
" transform="scale(0.015625)"/>
       <path id="DejaVuSans-62" d="M 3116 1747 
Q 3116 2381 2855 2742 
Q 2594 3103 2138 3103 
Q 1681 3103 1420 2742 
Q 1159 2381 1159 1747 
Q 1159 1113 1420 752 
Q 1681 391 2138 391 
Q 2594 391 2855 752 
Q 3116 1113 3116 1747 
z
M 1159 2969 
Q 1341 3281 1617 3432 
Q 1894 3584 2278 3584 
Q 2916 3584 3314 3078 
Q 3713 2572 3713 1747 
Q 3713 922 3314 415 
Q 2916 -91 2278 -91 
Q 1894 -91 1617 61 
Q 1341 213 1159 525 
L 1159 0 
L 581 0 
L 581 4863 
L 1159 4863 
L 1159 2969 
z
" transform="scale(0.015625)"/>
       <path id="DejaVuSans-72" d="M 2631 2963 
Q 2534 3019 2420 3045 
Q 2306 3072 2169 3072 
Q 1681 3072 1420 2755 
Q 1159 2438 1159 1844 
L 1159 0 
L 581 0 
L 581 3500 
L 1159 3500 
L 1159 2956 
Q 1341 3275 1631 3429 
Q 1922 3584 2338 3584 
Q 2397 3584 2469 3576 
Q 2541 3569 2628 3553 
L 2631 2963 
z
" transform="scale(0.015625)"/>
       <path id="DejaVuSans-66" d="M 2375 4863 
L 2375 4384 
L 1825 4384 
Q 1516 4384 1395 4259 
Q 1275 4134 1275 3809 
L 1275 3500 
L 2222 3500 
L 2222 3053 
L 1275 3053 
L 1275 0 
L 697 0 
L 697 3053 
L 147 3053 
L 147 3500 
L 697 3500 
L 697 3744 
Q 697 4328 969 4595 
Q 1241 4863 1831 4863 
L 2375 4863 
z
" transform="scale(0.015625)"/>
       <path id="DejaVuSans-71" d="M 947 1747 
Q 947 1113 1208 752 
Q 1469 391 1925 391 
Q 2381 391 2643 752 
Q 2906 1113 2906 1747 
Q 2906 2381 2643 2742 
Q 2381 3103 1925 3103 
Q 1469 3103 1208 2742 
Q 947 2381 947 1747 
z
M 2906 525 
Q 2725 213 2448 61 
Q 2172 -91 1784 -91 
Q 1150 -91 751 415 
Q 353 922 353 1747 
Q 353 2572 751 3078 
Q 1150 3584 1784 3584 
Q 2172 3584 2448 3432 
Q 2725 3281 2906 2969 
L 2906 3500 
L 3481 3500 
L 3481 -1331 
L 2906 -1331 
L 2906 525 
z
" transform="scale(0.015625)"/>
       <path id="DejaVuSans-69" d="M 603 3500 
L 1178 3500 
L 1178 0 
L 603 0 
L 603 3500 
z
M 603 4863 
L 1178 4863 
L 1178 4134 
L 603 4134 
L 603 4863 
z
" transform="scale(0.015625)"/>
       <path id="DejaVuSans-73" d="M 2834 3397 
L 2834 2853 
Q 2591 2978 2328 3040 
Q 2066 3103 1784 3103 
Q 1356 3103 1142 2972 
Q 928 2841 928 2578 
Q 928 2378 1081 2264 
Q 1234 2150 1697 2047 
L 1894 2003 
Q 2506 1872 2764 1633 
Q 3022 1394 3022 966 
Q 3022 478 2636 193 
Q 2250 -91 1575 -91 
Q 1294 -91 989 -36 
Q 684 19 347 128 
L 347 722 
Q 666 556 975 473 
Q 1284 391 1588 391 
Q 1994 391 2212 530 
Q 2431 669 2431 922 
Q 2431 1156 2273 1281 
Q 2116 1406 1581 1522 
L 1381 1569 
Q 847 1681 609 1914 
Q 372 2147 372 2553 
Q 372 3047 722 3315 
Q 1072 3584 1716 3584 
Q 2034 3584 2315 3537 
Q 2597 3491 2834 3397 
z
" transform="scale(0.015625)"/>
      </defs>
      <use xlink:href="#DejaVuSans-6e"/>
      <use xlink:href="#DejaVuSans-75" x="63.378906"/>
      <use xlink:href="#DejaVuSans-6d" x="126.757812"/>
      <use xlink:href="#DejaVuSans-62" x="224.169922"/>
      <use xlink:href="#DejaVuSans-65" x="287.646484"/>
      <use xlink:href="#DejaVuSans-72" x="349.169922"/>
      <use xlink:href="#DejaVuSans-20" x="390.283203"/>
      <use xlink:href="#DejaVuSans-6f" x="422.070312"/>
      <use xlink:href="#DejaVuSans-66" x="483.251953"/>
      <use xlink:href="#DejaVuSans-20" x="518.457031"/>
      <use xlink:href="#DejaVuSans-71" x="550.244141"/>
      <use xlink:href="#DejaVuSans-75" x="613.720703"/>
      <use xlink:href="#DejaVuSans-65" x="677.099609"/>
      <use xlink:href="#DejaVuSans-72" x="738.623047"/>
      <use xlink:href="#DejaVuSans-69" x="779.736328"/>
      <use xlink:href="#DejaVuSans-65" x="807.519531"/>
      <use xlink:href="#DejaVuSans-73" x="869.042969"/>
     </g>
    </g>
   </g>
   <g id="line2d_44">
    <path d="M 69.12 43.697049 
L 101.776852 135.672636 
L 120.879887 154.482681 
L 134.433705 173.845963 
L 144.946863 190.996298 
L 153.536739 200.263012 
L 160.799376 215.477019 
L 167.090557 220.732766 
L 172.639773 221.70093 
L 177.603716 229.861171 
L 182.094148 231.797499 
L 186.193592 238.021411 
L 189.964714 240.234357 
L 193.456228 241.755758 
L 196.70675 242.032376 
L 199.74741 247.426433 
L 202.603671 248.394597 
L 205.296626 250.884162 
L 207.843942 251.022471 
L 210.260568 252.267254 
L 212.559262 252.82049 
L 214.751001 253.788654 
L 216.845296 254.065273 
L 218.850444 254.618509 
L 220.773727 254.895128 
L 222.621567 255.448364 
L 224.39966 257.108074 
L 226.113081 257.523002 
L 227.766369 258.906093 
L 229.363602 259.597639 
L 230.908458 260.565803 
L 232.404262 261.672276 
L 233.854035 262.363822 
L 235.260524 262.363822 
L 236.626239 263.055368 
L 237.953478 263.470295 
L 239.24435 263.608604 
L 240.500795 263.885223 
L 241.724601 264.991696 
L 244.080786 266.236478 
L 245.216115 266.374787 
L 246.324728 267.757879 
L 247.407853 267.896188 
L 248.466637 268.726043 
L 249.502148 269.002661 
L 250.515389 269.555898 
L 252.478751 270.109135 
L 253.430579 270.109135 
L 254.363558 270.247444 
L 255.278419 270.247444 
L 256.175853 270.524062 
L 257.056512 270.524062 
L 257.921011 270.80068 
L 261.228606 271.353917 
L 262.020455 271.768844 
L 262.799214 272.045463 
L 263.565311 272.183772 
L 264.319149 272.183772 
L 265.061115 272.322081 
L 265.791577 272.322081 
L 266.510887 272.598699 
L 267.21938 273.290245 
L 267.917376 273.705173 
L 269.283091 273.705173 
L 269.951385 273.843482 
L 270.610331 274.258409 
L 271.901203 274.535028 
L 272.533613 274.811646 
L 273.157647 274.949955 
L 273.773524 275.364882 
L 274.381453 275.364882 
L 274.981638 275.503192 
L 275.574273 275.918119 
L 276.159546 276.056428 
L 276.737638 276.333047 
L 277.872967 276.333047 
L 278.430534 276.609665 
L 279.526255 276.886283 
L 280.597071 276.886283 
L 281.123489 277.024592 
L 282.159001 277.577829 
L 282.668345 277.577829 
L 283.172241 277.716138 
L 283.670806 277.716138 
L 284.65238 277.992756 
L 285.135604 278.269375 
L 286.55623 278.269375 
L 287.480061 278.545993 
L 288.832706 278.545993 
L 289.275093 278.684302 
L 289.713365 278.684302 
L 290.147597 278.96092 
L 290.577864 278.96092 
L 291.004237 279.09923 
L 291.426786 279.514157 
L 291.845578 279.652466 
L 292.672159 279.652466 
L 293.080074 279.790775 
L 293.885459 279.790775 
L 294.283047 279.929085 
L 295.068296 279.929085 
L 295.456067 280.067394 
L 295.840672 280.067394 
L 296.60059 280.344012 
L 297.348445 280.344012 
L 297.717967 280.482321 
L 298.44843 280.482321 
L 299.16774 280.758939 
L 299.523318 280.758939 
L 299.876232 280.897249 
L 300.919387 280.897249 
L 301.262035 281.035558 
L 301.602209 281.035558 
L 301.939944 281.173867 
L 302.275275 281.173867 
L 302.608237 281.312176 
L 302.938862 281.312176 
L 303.593232 281.588794 
L 304.875322 281.588794 
L 305.190466 281.727104 
L 306.430376 281.727104 
L 306.735321 281.865413 
L 307.038306 281.865413 
L 307.339354 282.003722 
L 308.524671 282.003722 
L 308.816399 282.142031 
L 309.965575 282.142031 
L 310.248542 282.28034 
L 311.087387 282.28034 
L 311.363715 282.418649 
L 311.911557 282.418649 
L 312.183108 282.556958 
L 312.988493 282.556958 
L 313.253924 282.695268 
L 313.517868 282.695268 
L 313.780342 282.833577 
L 314.300942 282.833577 
L 314.559101 283.110195 
L 315.829094 283.110195 
L 316.079035 283.248504 
L 317.551464 283.248504 
L 317.792456 283.386813 
L 318.032222 283.386813 
L 318.270774 283.525123 
L 319.445744 283.525123 
L 319.677263 283.663432 
L 320.592124 283.663432 
L 320.81809 283.801741 
L 322.151591 283.801741 
L 322.370217 283.94005 
L 323.234716 283.94005 
L 323.448385 284.078359 
L 324.2935 284.078359 
L 324.502431 284.216668 
L 325.53341 284.216668 
L 325.736926 284.354977 
L 326.14134 284.354977 
L 326.342252 284.493287 
L 326.741525 284.493287 
L 326.939899 284.631596 
L 327.725149 284.631596 
L 327.919433 284.769905 
L 328.879016 284.769905 
L 329.068609 284.908214 
L 330.005297 284.908214 
L 330.37482 285.046523 
L 332.002717 285.046523 
L 332.356958 285.184832 
L 333.403976 285.184832 
L 333.747875 285.323142 
L 334.76476 285.323142 
L 335.098903 285.461451 
L 336.250085 285.461451 
L 336.573893 285.59976 
L 337.373808 285.59976 
L 337.69001 285.738069 
L 338.934013 285.738069 
L 339.239948 285.876378 
L 340.740517 285.876378 
L 341.03498 286.014687 
L 341.907484 286.014687 
L 342.194764 286.152996 
L 343.744239 286.152996 
L 344.020568 286.291306 
L 345.109955 286.291306 
L 345.378411 286.429615 
L 346.437194 286.429615 
L 346.698213 286.567924 
L 347.855229 286.567924 
L 348.10853 286.706233 
L 349.231828 286.706233 
L 349.477854 286.844542 
L 350.927626 286.844542 
L 351.164976 286.982851 
L 353.248977 286.982851 
L 353.474943 287.121161 
L 354.035162 287.121161 
L 354.257398 287.25947 
L 356.317942 287.25947 
L 356.52969 287.397779 
L 357.985864 287.397779 
L 358.190263 287.536088 
L 360.186912 287.536088 
L 360.382001 287.674397 
L 362.476296 287.674397 
L 362.66215 287.812706 
L 363.942994 287.812706 
L 364.123163 287.951016 
L 365.540228 287.951016 
L 365.714402 288.089325 
L 367.755755 288.089325 
L 367.921942 288.227634 
L 370.189027 288.227634 
L 370.346862 288.365943 
L 371.51407 288.365943 
L 371.667535 288.504252 
L 373.323465 288.504252 
L 373.471158 288.642561 
L 375.208272 288.642561 
L 375.350181 288.78087 
L 376.883608 288.78087 
L 377.020567 288.91918 
L 379.094046 288.91918 
L 379.224737 289.057489 
L 381.455019 289.057489 
L 381.57933 289.195798 
L 384.292972 289.195798 
L 384.468442 289.334107 
L 386.244373 289.334107 
L 386.412738 289.472416 
L 388.441223 289.472416 
L 388.601929 289.610725 
L 390.999835 289.610725 
L 391.152061 289.749035 
L 393.81123 289.749035 
L 393.954651 289.887344 
L 396.869841 289.887344 
L 397.00426 290.025653 
L 399.018729 290.025653 
L 399.147164 290.163962 
L 401.887598 290.163962 
L 402.008454 290.302271 
L 405.309911 290.302271 
L 405.459717 290.44058 
L 408.884412 290.44058 
L 409.023289 290.578889 
L 412.206738 290.578889 
L 412.336172 290.717199 
L 415.401061 290.717199 
L 415.522021 290.855508 
L 418.619275 290.855508 
L 418.760461 290.993817 
L 421.392287 290.993817 
L 421.525415 291.132126 
L 424.162206 291.132126 
L 424.287742 291.270435 
L 426.683051 291.270435 
L 426.802055 291.408744 
L 428.939738 291.408744 
L 429.053183 291.547054 
L 431.07155 291.547054 
L 431.201639 291.685363 
L 432.588382 291.685363 
L 432.714355 291.823672 
L 434.20033 291.823672 
L 434.322071 291.961981 
L 435.443407 291.961981 
L 435.561982 292.10029 
L 436.228329 292.10029 
L 436.344948 292.238599 
L 436.866188 292.238599 
L 436.98124 292.376908 
L 437.324721 292.376908 
L 437.43866 292.515218 
L 437.514467 292.515218 
L 437.646836 292.791836 
L 437.722309 292.791836 
L 437.741158 292.930145 
L 437.741158 292.930145 
" clip-path="url(#pa91d70bebc)" style="fill: none; stroke: #800000; stroke-width: 3; stroke-linecap: square"/>
   </g>
   <g id="line2d_45">
    <path d="M 69.12 140.236838 
L 101.776852 204.273977 
L 120.879887 211.88098 
L 134.433705 213.817309 
L 144.946863 216.583492 
L 153.536739 217.551656 
L 160.799376 220.871076 
L 167.090557 221.83924 
L 172.639773 225.02035 
L 177.603716 231.65919 
L 182.094148 234.8403 
L 186.193592 238.989575 
L 189.964714 240.510975 
L 196.70675 242.585613 
L 199.74741 242.723922 
L 202.603671 244.936868 
L 205.296626 248.671216 
L 207.843942 250.054307 
L 210.260568 252.405563 
L 212.559262 253.097109 
L 214.751001 253.512036 
L 216.845296 253.650345 
L 218.850444 256.554837 
L 222.621567 258.214547 
L 224.39966 258.491166 
L 226.113081 259.597639 
L 227.766369 259.597639 
L 229.363602 260.012566 
L 230.908458 261.948894 
L 232.404262 262.087204 
L 233.854035 262.917059 
L 236.626239 264.715078 
L 237.953478 264.715078 
L 239.24435 265.130005 
L 240.500795 265.406623 
L 242.917421 265.683242 
L 244.080786 265.95986 
L 245.216115 266.789715 
L 246.324728 266.789715 
L 247.407853 266.928024 
L 249.502148 268.172806 
L 251.507297 268.726043 
L 252.478751 269.555898 
L 254.363558 269.555898 
L 255.278419 269.832516 
L 257.921011 269.832516 
L 258.769933 270.524062 
L 259.603829 270.524062 
L 260.423221 270.80068 
L 261.228606 271.215608 
L 262.020455 271.353917 
L 262.799214 272.183772 
L 263.565311 272.183772 
L 264.319149 272.322081 
L 265.061115 272.322081 
L 265.791577 272.46039 
L 266.510887 272.46039 
L 267.21938 272.598699 
L 267.917376 273.151936 
L 268.605182 273.151936 
L 269.283091 273.428554 
L 269.951385 273.428554 
L 270.610331 273.566863 
L 271.260188 273.566863 
L 273.157647 273.981791 
L 273.773524 273.981791 
L 274.381453 274.535028 
L 276.737638 275.088264 
L 277.308722 275.088264 
L 277.872967 275.77981 
L 278.430534 275.77981 
L 278.98158 276.056428 
L 280.064706 276.056428 
L 281.123489 276.333047 
L 281.64409 276.333047 
L 282.159001 276.609665 
L 282.668345 276.747974 
L 283.172241 277.301211 
L 283.670806 277.43952 
L 284.164149 277.716138 
L 286.087432 277.716138 
L 286.55623 277.992756 
L 287.02041 277.992756 
L 287.480061 278.131066 
L 288.832706 278.131066 
L 289.275093 278.269375 
L 290.147597 278.269375 
L 290.577864 278.407684 
L 291.426786 278.407684 
L 291.845578 278.545993 
L 292.672159 278.545993 
L 293.080074 278.684302 
L 293.484487 278.684302 
L 294.677307 279.09923 
L 296.222163 279.09923 
L 296.60059 279.375848 
L 297.717967 279.375848 
L 298.084614 279.514157 
L 300.574229 279.514157 
L 300.919387 279.652466 
L 301.262035 279.652466 
L 301.602209 279.790775 
L 301.939944 279.790775 
L 302.275275 279.929085 
L 302.608237 279.929085 
L 302.938862 280.205703 
L 303.593232 280.205703 
L 303.91704 280.344012 
L 304.238638 280.344012 
L 304.558055 280.482321 
L 304.875322 280.482321 
L 305.190466 280.62063 
L 305.8145 280.62063 
L 306.123444 280.758939 
L 307.339354 280.758939 
L 307.638491 280.897249 
L 307.93574 280.897249 
L 308.231126 281.035558 
L 308.816399 281.035558 
L 309.106331 281.173867 
L 309.680898 281.173867 
L 309.965575 281.312176 
L 310.52982 281.312176 
L 310.809428 281.588794 
L 311.363715 281.588794 
L 311.638433 281.727104 
L 312.453102 281.727104 
L 312.988493 282.003722 
L 314.041361 282.003722 
L 314.559101 282.28034 
L 315.325197 282.28034 
L 315.577819 282.418649 
L 315.829094 282.418649 
L 316.327658 282.695268 
L 317.309233 282.695268 
L 317.551464 282.833577 
L 318.979267 282.833577 
L 319.213083 282.971886 
L 319.907649 282.971886 
L 320.136914 283.110195 
L 320.81809 283.110195 
L 321.042978 283.248504 
L 322.370217 283.248504 
L 322.587834 283.386813 
L 323.661089 283.386813 
L 323.872837 283.525123 
L 324.917534 283.525123 
L 325.123722 283.663432 
L 326.342252 283.663432 
L 326.542311 283.801741 
L 327.53006 283.801741 
L 327.725149 283.94005 
L 328.688656 283.94005 
L 328.879016 284.078359 
L 330.5585 284.078359 
L 330.923726 284.216668 
L 331.645792 284.216668 
L 332.18017 284.493287 
L 333.403976 284.493287 
L 333.747875 284.631596 
L 334.259061 284.631596 
L 334.596796 284.769905 
L 335.595715 284.769905 
L 335.924036 284.908214 
L 336.734966 284.908214 
L 337.05547 285.046523 
L 337.69001 285.046523 
L 338.004103 285.184832 
L 338.780297 285.184832 
L 339.087229 285.323142 
L 340.295343 285.323142 
L 340.592593 285.461451 
L 341.03498 285.461451 
L 341.327613 285.59976 
L 342.051343 285.59976 
L 342.33775 285.738069 
L 342.905394 285.738069 
L 343.186672 285.876378 
L 344.020568 285.876378 
L 344.295285 286.014687 
L 345.244374 286.014687 
L 345.512067 286.152996 
L 346.567884 286.152996 
L 346.828183 286.291306 
L 347.600559 286.291306 
L 347.855229 286.429615 
L 348.860363 286.429615 
L 349.108332 286.567924 
L 350.087356 286.567924 
L 350.328967 286.706233 
L 351.401137 286.706233 
L 351.636119 286.844542 
L 352.679273 286.844542 
L 352.907982 286.982851 
L 354.257398 286.982851 
L 354.47859 287.121161 
L 356.740491 287.121161 
L 356.950352 287.25947 
L 358.495208 287.25947 
L 358.697414 287.397779 
L 359.794294 287.397779 
L 359.991012 287.536088 
L 361.819973 287.536088 
L 362.008429 287.674397 
L 363.398319 287.674397 
L 363.580578 287.812706 
L 365.189937 287.812706 
L 365.365408 287.951016 
L 367.253649 287.951016 
L 367.421613 288.089325 
L 368.252567 288.089325 
L 368.417014 288.227634 
L 370.26801 288.227634 
L 370.425582 288.365943 
L 372.427453 288.365943 
L 372.577977 288.504252 
L 374.34772 288.504252 
L 374.492242 288.642561 
L 376.539459 288.642561 
L 376.67742 288.78087 
L 378.16892 288.78087 
L 378.302198 288.91918 
L 380.512082 288.91918 
L 380.638902 289.057489 
L 382.379455 289.057489 
L 382.501353 289.195798 
L 384.292972 289.195798 
L 384.468442 289.334107 
L 386.858789 289.334107 
L 387.024976 289.472416 
L 389.397343 289.472416 
L 389.554827 289.610725 
L 392.253604 289.610725 
L 392.401839 289.749035 
L 395.319002 289.749035 
L 395.457913 289.887344 
L 398.153436 289.887344 
L 398.284248 290.025653 
L 400.537303 290.025653 
L 400.661669 290.163962 
L 403.121745 290.163962 
L 403.239481 290.302271 
L 405.757907 290.302271 
L 405.906297 290.44058 
L 409.265343 290.44058 
L 409.403103 290.578889 
L 412.626105 290.578889 
L 412.754393 290.717199 
L 415.522021 290.717199 
L 415.642672 290.855508 
L 418.957414 290.855508 
L 419.097592 290.993817 
L 421.73764 290.993817 
L 421.869797 291.132126 
L 424.612581 291.132126 
L 424.736925 291.270435 
L 427.110068 291.270435 
L 427.228 291.408744 
L 429.951045 291.408744 
L 430.084261 291.547054 
L 431.974719 291.547054 
L 432.102341 291.685363 
L 433.525071 291.685363 
L 433.648567 291.823672 
L 434.685419 291.823672 
L 434.805915 291.961981 
L 435.758947 291.961981 
L 435.876731 292.10029 
L 436.422533 292.10029 
L 436.538673 292.238599 
L 437.057786 292.238599 
L 437.172372 292.376908 
L 437.400711 292.376908 
L 437.514467 292.515218 
L 437.590152 292.515218 
L 437.722309 292.791836 
L 437.741158 292.791836 
L 437.741158 292.791836 
" clip-path="url(#pa91d70bebc)" style="fill: none; stroke: #a52a2a; stroke-width: 3; stroke-linecap: square"/>
   </g>
   <g id="line2d_46">
    <path d="M 69.12 234.287064 
L 120.879887 235.393537 
L 134.433705 236.085083 
L 153.536739 237.883102 
L 160.799376 238.021411 
L 167.090557 239.127884 
L 172.639773 239.127884 
L 182.094148 239.681121 
L 186.193592 241.47914 
L 189.964714 243.692086 
L 193.456228 244.383632 
L 196.70675 245.213487 
L 199.74741 248.671216 
L 202.603671 250.884162 
L 205.296626 252.682181 
L 207.843942 252.682181 
L 210.260568 253.650345 
L 212.559262 254.895128 
L 214.751001 255.171746 
L 216.845296 255.171746 
L 218.850444 257.661311 
L 220.773727 258.076238 
L 222.621567 260.427494 
L 226.113081 260.704112 
L 227.766369 261.11904 
L 232.404262 262.778749 
L 235.260524 263.055368 
L 236.626239 264.991696 
L 237.953478 265.130005 
L 239.24435 266.098169 
L 240.500795 266.236478 
L 241.724601 266.513097 
L 242.917421 266.651406 
L 244.080786 266.928024 
L 245.216115 267.066333 
L 246.324728 267.066333 
L 247.407853 267.342951 
L 248.466637 268.034497 
L 251.507297 268.449425 
L 252.478751 268.449425 
L 253.430579 268.587734 
L 254.363558 268.864352 
L 255.278419 269.002661 
L 256.175853 269.417589 
L 257.056512 269.970825 
L 257.921011 269.970825 
L 258.769933 270.524062 
L 259.603829 270.662371 
L 260.423221 270.938989 
L 261.228606 271.353917 
L 262.020455 271.492226 
L 263.565311 272.045463 
L 264.319149 272.045463 
L 265.061115 272.183772 
L 265.791577 272.46039 
L 266.510887 272.598699 
L 267.21938 272.875318 
L 268.605182 273.151936 
L 269.951385 273.151936 
L 271.260188 273.428554 
L 271.901203 273.428554 
L 272.533613 273.566863 
L 274.981638 273.566863 
L 275.574273 273.981791 
L 276.737638 273.981791 
L 277.308722 274.396718 
L 277.872967 274.396718 
L 278.98158 274.949955 
L 279.526255 275.364882 
L 280.597071 275.364882 
L 281.123489 275.641501 
L 281.64409 275.641501 
L 282.159001 275.77981 
L 283.172241 275.77981 
L 283.670806 275.918119 
L 284.164149 275.918119 
L 284.65238 276.056428 
L 285.613921 276.056428 
L 286.087432 276.471356 
L 286.55623 276.471356 
L 287.480061 276.747974 
L 287.935272 276.747974 
L 288.832706 277.024592 
L 289.275093 277.024592 
L 290.147597 277.301211 
L 291.004237 277.301211 
L 291.845578 277.577829 
L 292.260681 277.577829 
L 292.672159 277.716138 
L 293.080074 277.716138 
L 295.068296 278.407684 
L 296.976001 278.407684 
L 297.348445 278.545993 
L 297.717967 278.545993 
L 298.084614 278.684302 
L 298.809458 278.684302 
L 299.523318 278.96092 
L 300.574229 278.96092 
L 301.262035 279.237539 
L 301.939944 279.237539 
L 302.938862 279.652466 
L 303.593232 279.652466 
L 304.875322 280.205703 
L 305.8145 280.205703 
L 306.123444 280.344012 
L 306.430376 280.344012 
L 306.735321 280.482321 
L 307.339354 280.482321 
L 307.93574 280.897249 
L 308.231126 281.035558 
L 308.816399 281.035558 
L 309.106331 281.173867 
L 309.394491 281.173867 
L 309.680898 281.312176 
L 310.248542 281.312176 
L 310.52982 281.450485 
L 311.638433 281.450485 
L 311.911557 281.588794 
L 313.253924 281.588794 
L 313.517868 281.727104 
L 313.780342 281.727104 
L 314.041361 281.865413 
L 314.815853 281.865413 
L 315.071213 282.003722 
L 315.325197 282.003722 
L 315.577819 282.142031 
L 317.551464 282.142031 
L 317.792456 282.28034 
L 318.270774 282.28034 
L 318.508124 282.418649 
L 319.213083 282.418649 
L 319.445744 282.556958 
L 320.592124 282.556958 
L 320.81809 282.695268 
L 321.711271 282.695268 
L 321.931945 282.833577 
L 322.370217 282.833577 
L 322.587834 282.971886 
L 323.020074 282.971886 
L 323.234716 283.110195 
L 323.661089 283.110195 
L 323.872837 283.248504 
L 325.53341 283.248504 
L 325.736926 283.386813 
L 326.542311 283.386813 
L 326.741525 283.525123 
L 328.112919 283.525123 
L 328.305615 283.663432 
L 329.445522 283.663432 
L 329.819444 283.801741 
L 330.190421 283.801741 
L 330.5585 283.94005 
L 331.46631 283.94005 
L 331.824592 284.078359 
L 332.533085 284.078359 
L 332.883376 284.216668 
L 333.403976 284.216668 
L 333.747875 284.354977 
L 334.932128 284.354977 
L 335.26509 284.493287 
L 335.430692 284.493287 
L 335.760161 284.631596 
L 336.734966 284.631596 
L 337.05547 284.769905 
L 338.316117 284.769905 
L 338.626078 284.908214 
L 340.444202 284.908214 
L 340.740517 285.046523 
L 341.473251 285.046523 
L 341.763184 285.184832 
L 342.480304 285.184832 
L 342.764123 285.323142 
L 343.466281 285.323142 
L 343.744239 285.461451 
L 343.882606 285.461451 
L 344.158127 285.59976 
L 345.378411 285.59976 
L 345.645345 285.738069 
L 347.087051 285.738069 
L 347.344504 285.876378 
L 348.10853 285.876378 
L 348.360477 286.014687 
L 349.108332 286.014687 
L 349.355002 286.152996 
L 350.208316 286.152996 
L 350.449309 286.291306 
L 351.401137 286.291306 
L 351.636119 286.429615 
L 352.907982 286.429615 
L 353.135586 286.567924 
L 354.47859 286.567924 
L 354.698749 286.706233 
L 356.317942 286.706233 
L 356.52969 286.844542 
L 357.263402 286.844542 
L 357.470953 286.982851 
L 358.495208 286.982851 
L 358.697414 287.121161 
L 359.991012 287.121161 
L 360.186912 287.25947 
L 362.196134 287.25947 
L 362.383094 287.397779 
L 363.306925 287.397779 
L 363.489537 287.536088 
L 364.302644 287.536088 
L 364.481445 287.674397 
L 366.060829 287.674397 
L 366.233092 287.812706 
L 367.253649 287.812706 
L 367.421613 287.951016 
L 368.825636 287.951016 
L 368.988098 288.089325 
L 370.660956 288.089325 
L 370.817221 288.227634 
L 372.352011 288.227634 
L 372.502775 288.365943 
L 374.34772 288.365943 
L 374.492242 288.504252 
L 375.983536 288.504252 
L 376.123133 288.642561 
L 378.16892 288.642561 
L 378.302198 288.78087 
L 380.702185 288.78087 
L 380.828496 288.91918 
L 382.257239 288.91918 
L 382.379455 289.057489 
L 384.990968 289.057489 
L 385.163863 289.195798 
L 387.080242 289.195798 
L 387.24565 289.334107 
L 389.292061 289.334107 
L 389.449896 289.472416 
L 391.605809 289.472416 
L 391.756093 289.610725 
L 394.571147 289.610725 
L 394.712277 289.749035 
L 396.82495 289.749035 
L 396.959497 289.887344 
L 400.204047 289.887344 
L 400.329294 290.025653 
L 402.766762 290.025653 
L 402.885388 290.163962 
L 405.309911 290.163962 
L 405.459717 290.302271 
L 408.183821 290.302271 
L 408.324775 290.44058 
L 411.091953 290.44058 
L 411.224481 290.578889 
L 413.893535 290.578889 
L 414.018423 290.717199 
L 417.18364 290.717199 
L 417.300115 290.855508 
L 419.95751 290.855508 
L 420.094749 290.993817 
L 422.706934 290.993817 
L 422.836403 291.132126 
L 425.009332 291.132126 
L 425.132634 291.270435 
L 426.944465 291.270435 
L 427.062812 291.408744 
L 429.166356 291.408744 
L 429.279258 291.547054 
L 431.093256 291.547054 
L 431.223285 291.685363 
L 433.06946 291.685363 
L 433.194155 291.823672 
L 434.463706 291.823672 
L 434.58477 291.961981 
L 435.54224 291.961981 
L 435.660567 292.10029 
L 436.403149 292.10029 
L 436.519336 292.238599 
L 437.000389 292.238599 
L 437.115114 292.376908 
L 437.34373 292.376908 
L 437.457623 292.515218 
L 437.627949 292.515218 
L 437.741158 292.653527 
L 437.741158 292.653527 
" clip-path="url(#pa91d70bebc)" style="fill: none; stroke: #f08080; stroke-width: 3; stroke-linecap: square"/>
   </g>
   <g id="line2d_47">
    <path d="M 69.12 241.34083 
L 101.776852 242.308994 
L 120.879887 243.415468 
L 134.433705 243.553777 
L 144.946863 243.968704 
L 160.799376 245.905033 
L 167.090557 246.181651 
L 177.603716 247.149815 
L 182.094148 247.841361 
L 186.193592 248.947834 
L 202.603671 250.745853 
L 205.296626 251.437399 
L 210.260568 252.267254 
L 212.559262 252.958799 
L 214.751001 253.097109 
L 216.845296 253.788654 
L 218.850444 256.554837 
L 220.773727 258.076238 
L 222.621567 258.491166 
L 224.39966 259.735948 
L 226.113081 259.874257 
L 227.766369 260.704112 
L 229.363602 261.11904 
L 230.908458 262.087204 
L 232.404262 262.502131 
L 233.854035 262.502131 
L 235.260524 262.917059 
L 236.626239 263.055368 
L 237.953478 263.055368 
L 239.24435 264.023532 
L 240.500795 264.161841 
L 241.724601 265.406623 
L 242.917421 266.098169 
L 246.324728 266.928024 
L 247.407853 268.172806 
L 248.466637 268.172806 
L 249.502148 268.587734 
L 250.515389 269.832516 
L 253.430579 269.832516 
L 254.363558 270.109135 
L 256.175853 270.385753 
L 257.056512 270.385753 
L 257.921011 270.662371 
L 258.769933 270.80068 
L 259.603829 270.80068 
L 260.423221 270.938989 
L 261.228606 271.492226 
L 263.565311 271.907154 
L 265.061115 271.907154 
L 266.510887 272.183772 
L 267.21938 272.46039 
L 268.605182 272.737009 
L 269.283091 273.013627 
L 269.951385 273.013627 
L 270.610331 273.428554 
L 271.260188 273.428554 
L 271.901203 273.566863 
L 272.533613 273.981791 
L 273.157647 273.981791 
L 274.981638 274.396718 
L 275.574273 274.396718 
L 276.737638 274.673337 
L 277.308722 274.673337 
L 277.872967 274.811646 
L 278.430534 274.811646 
L 279.526255 275.088264 
L 280.064706 275.088264 
L 281.123489 275.364882 
L 281.64409 275.364882 
L 282.159001 275.503192 
L 283.670806 275.503192 
L 284.164149 275.641501 
L 284.65238 276.056428 
L 285.613921 276.056428 
L 286.087432 276.471356 
L 287.935272 276.471356 
L 288.832706 276.747974 
L 289.275093 276.747974 
L 290.577864 277.162901 
L 291.004237 277.577829 
L 291.426786 277.716138 
L 292.260681 277.716138 
L 292.672159 277.854447 
L 293.484487 277.854447 
L 294.677307 278.269375 
L 295.068296 278.269375 
L 295.456067 278.407684 
L 295.840672 278.407684 
L 296.222163 278.545993 
L 296.976001 278.545993 
L 297.348445 278.684302 
L 298.084614 278.684302 
L 298.44843 278.822611 
L 299.16774 278.822611 
L 299.523318 278.96092 
L 299.876232 278.96092 
L 300.226523 279.09923 
L 300.574229 279.09923 
L 300.919387 279.237539 
L 301.939944 279.237539 
L 302.275275 279.375848 
L 303.267183 279.375848 
L 303.593232 279.514157 
L 304.558055 279.514157 
L 305.503516 279.929085 
L 305.8145 279.929085 
L 306.430376 280.205703 
L 307.339354 280.205703 
L 307.638491 280.344012 
L 307.93574 280.344012 
L 308.231126 280.482321 
L 308.524671 280.482321 
L 308.816399 280.62063 
L 309.965575 280.62063 
L 310.248542 280.758939 
L 310.52982 280.758939 
L 310.809428 280.897249 
L 311.087387 280.897249 
L 311.363715 281.035558 
L 312.721558 281.035558 
L 312.988493 281.173867 
L 313.517868 281.173867 
L 313.780342 281.312176 
L 314.300942 281.312176 
L 314.559101 281.450485 
L 314.815853 281.450485 
L 315.071213 281.588794 
L 315.577819 281.588794 
L 315.829094 281.727104 
L 316.327658 281.727104 
L 316.574976 281.865413 
L 317.792456 281.865413 
L 318.032222 282.003722 
L 318.979267 282.003722 
L 319.213083 282.28034 
L 319.677263 282.28034 
L 319.907649 282.418649 
L 320.365069 282.418649 
L 320.592124 282.556958 
L 320.81809 282.556958 
L 321.042978 282.695268 
L 321.711271 282.695268 
L 321.931945 282.833577 
L 322.587834 282.833577 
L 322.80445 282.971886 
L 324.2935 282.971886 
L 324.502431 283.110195 
L 325.329011 283.110195 
L 325.53341 283.248504 
L 327.137442 283.248504 
L 327.33416 283.386813 
L 328.112919 283.386813 
L 328.305615 283.525123 
L 329.632854 283.525123 
L 330.190421 283.801741 
L 330.741467 283.801741 
L 331.105282 283.94005 
L 331.824592 283.94005 
L 332.18017 284.078359 
L 333.057549 284.078359 
L 333.403976 284.216668 
L 333.918887 284.216668 
L 334.259061 284.354977 
L 335.595715 284.354977 
L 335.924036 284.493287 
L 336.734966 284.493287 
L 337.05547 284.631596 
L 338.626078 284.631596 
L 338.934013 284.769905 
L 339.239948 284.769905 
L 339.54391 284.908214 
L 341.181524 284.908214 
L 341.473251 285.046523 
L 342.764123 285.046523 
L 343.046243 285.184832 
L 343.744239 285.184832 
L 344.020568 285.323142 
L 345.244374 285.323142 
L 345.512067 285.461451 
L 345.910776 285.461451 
L 346.17472 285.59976 
L 347.215954 285.59976 
L 347.472706 285.738069 
L 348.485946 285.738069 
L 348.735888 285.876378 
L 349.108332 285.876378 
L 349.355002 286.014687 
L 349.844501 286.014687 
L 350.087356 286.152996 
L 351.869935 286.152996 
L 352.102597 286.291306 
L 352.907982 286.291306 
L 353.135586 286.429615 
L 354.808444 286.429615 
L 355.02707 286.567924 
L 355.891569 286.567924 
L 356.105238 286.706233 
L 356.845538 286.706233 
L 357.054934 286.844542 
L 358.495208 286.844542 
L 358.697414 286.982851 
L 359.892756 286.982851 
L 360.089064 287.121161 
L 360.866218 287.121161 
L 361.05852 287.25947 
L 362.383094 287.25947 
L 362.569315 287.397779 
L 363.942994 287.397779 
L 364.123163 287.536088 
L 365.452899 287.536088 
L 365.627395 287.674397 
L 367.169442 287.674397 
L 367.337706 287.812706 
L 369.069119 287.812706 
L 369.230745 287.951016 
L 370.895159 287.951016 
L 371.050651 288.089325 
L 372.352011 288.089325 
L 372.502775 288.227634 
L 373.765161 288.227634 
L 373.911478 288.365943 
L 375.632724 288.365943 
L 375.773363 288.504252 
L 377.632003 288.504252 
L 377.766807 288.642561 
L 379.420095 288.642561 
L 379.549886 288.78087 
L 380.954469 288.78087 
L 381.080106 288.91918 
L 383.345927 288.91918 
L 383.524954 289.057489 
L 385.849168 289.057489 
L 386.018948 289.195798 
L 387.955786 289.195798 
L 388.118155 289.334107 
L 390.385964 289.334107 
L 390.540183 289.472416 
L 392.549609 289.472416 
L 392.696916 289.610725 
L 394.712277 289.610725 
L 394.852986 289.749035 
L 397.405232 289.749035 
L 397.538134 289.887344 
L 399.826294 289.887344 
L 399.952549 290.025653 
L 402.329231 290.025653 
L 402.448961 290.163962 
L 405.309911 290.163962 
L 405.459717 290.302271 
L 408.113186 290.302271 
L 408.254351 290.44058 
L 410.95905 290.44058 
L 411.091953 290.578889 
L 414.360167 290.578889 
L 414.483825 290.717199 
L 416.920515 290.717199 
L 417.037641 290.855508 
L 419.265258 290.855508 
L 419.404524 290.993817 
L 422.290224 290.993817 
L 422.420842 291.132126 
L 424.537817 291.132126 
L 424.662358 291.270435 
L 426.897043 291.270435 
L 427.015509 291.408744 
L 429.728179 291.408744 
L 429.862025 291.547054 
L 431.568285 291.547054 
L 431.697012 291.685363 
L 433.111062 291.685363 
L 433.235647 291.823672 
L 434.423283 291.823672 
L 434.54445 291.961981 
L 435.54224 291.961981 
L 435.660567 292.10029 
L 436.228329 292.10029 
L 436.344948 292.238599 
L 436.808557 292.238599 
L 436.923749 292.376908 
L 437.248608 292.376908 
L 437.362731 292.515218 
L 437.5334 292.515218 
L 437.741158 293.345073 
L 437.741158 293.345073 
" clip-path="url(#pa91d70bebc)" style="fill: none; stroke: #ffe4e1; stroke-width: 3; stroke-linecap: square"/>
   </g>
   <g id="line2d_48">
    <path d="M 69.12 288.365943 
L 437.741158 288.365943 
L 437.741158 288.365943 
" clip-path="url(#pa91d70bebc)" style="fill: none; stroke-dasharray: 11.1,4.8; stroke-dashoffset: 0; stroke: #000000; stroke-width: 3"/>
   </g>
   <g id="patch_3">
    <path d="M 69.12 293.76 
L 69.12 17.28 
" style="fill: none; stroke: #000000; stroke-width: 0.8; stroke-linejoin: miter; stroke-linecap: square"/>
   </g>
   <g id="patch_4">
    <path d="M 437.76 293.76 
L 437.76 17.28 
" style="fill: none; stroke: #000000; stroke-width: 0.8; stroke-linejoin: miter; stroke-linecap: square"/>
   </g>
   <g id="patch_5">
    <path d="M 69.12 293.76 
L 437.76 293.76 
" style="fill: none; stroke: #000000; stroke-width: 0.8; stroke-linejoin: miter; stroke-linecap: square"/>
   </g>
   <g id="patch_6">
    <path d="M 69.12 17.28 
L 437.76 17.28 
" style="fill: none; stroke: #000000; stroke-width: 0.8; stroke-linejoin: miter; stroke-linecap: square"/>
   </g>
   <g id="legend_1">
    <g id="patch_7">
     <path d="M 199.62 163.783125 
L 425.16 163.783125 
Q 428.76 163.783125 428.76 160.183125 
L 428.76 29.88 
Q 428.76 26.28 425.16 26.28 
L 199.62 26.28 
Q 196.02 26.28 196.02 29.88 
L 196.02 160.183125 
Q 196.02 163.783125 199.62 163.783125 
z
" style="fill: #008000; opacity: 0.2; stroke: #000000; stroke-linejoin: miter"/>
    </g>
    <g id="line2d_49">
     <path d="M 203.22 40.857188 
L 221.22 40.857188 
L 239.22 40.857188 
" style="fill: none; stroke: #800000; stroke-width: 3; stroke-linecap: square"/>
    </g>
    <g id="text_12">
     <!-- batch 0 -->
     <g transform="translate(253.62 47.157188) scale(0.18 -0.18)">
      <defs>
       <path id="DejaVuSans-61" d="M 2194 1759 
Q 1497 1759 1228 1600 
Q 959 1441 959 1056 
Q 959 750 1161 570 
Q 1363 391 1709 391 
Q 2188 391 2477 730 
Q 2766 1069 2766 1631 
L 2766 1759 
L 2194 1759 
z
M 3341 1997 
L 3341 0 
L 2766 0 
L 2766 531 
Q 2569 213 2275 61 
Q 1981 -91 1556 -91 
Q 1019 -91 701 211 
Q 384 513 384 1019 
Q 384 1609 779 1909 
Q 1175 2209 1959 2209 
L 2766 2209 
L 2766 2266 
Q 2766 2663 2505 2880 
Q 2244 3097 1772 3097 
Q 1472 3097 1187 3025 
Q 903 2953 641 2809 
L 641 3341 
Q 956 3463 1253 3523 
Q 1550 3584 1831 3584 
Q 2591 3584 2966 3190 
Q 3341 2797 3341 1997 
z
" transform="scale(0.015625)"/>
       <path id="DejaVuSans-74" d="M 1172 4494 
L 1172 3500 
L 2356 3500 
L 2356 3053 
L 1172 3053 
L 1172 1153 
Q 1172 725 1289 603 
Q 1406 481 1766 481 
L 2356 481 
L 2356 0 
L 1766 0 
Q 1100 0 847 248 
Q 594 497 594 1153 
L 594 3053 
L 172 3053 
L 172 3500 
L 594 3500 
L 594 4494 
L 1172 4494 
z
" transform="scale(0.015625)"/>
       <path id="DejaVuSans-63" d="M 3122 3366 
L 3122 2828 
Q 2878 2963 2633 3030 
Q 2388 3097 2138 3097 
Q 1578 3097 1268 2742 
Q 959 2388 959 1747 
Q 959 1106 1268 751 
Q 1578 397 2138 397 
Q 2388 397 2633 464 
Q 2878 531 3122 666 
L 3122 134 
Q 2881 22 2623 -34 
Q 2366 -91 2075 -91 
Q 1284 -91 818 406 
Q 353 903 353 1747 
Q 353 2603 823 3093 
Q 1294 3584 2113 3584 
Q 2378 3584 2631 3529 
Q 2884 3475 3122 3366 
z
" transform="scale(0.015625)"/>
       <path id="DejaVuSans-68" d="M 3513 2113 
L 3513 0 
L 2938 0 
L 2938 2094 
Q 2938 2591 2744 2837 
Q 2550 3084 2163 3084 
Q 1697 3084 1428 2787 
Q 1159 2491 1159 1978 
L 1159 0 
L 581 0 
L 581 4863 
L 1159 4863 
L 1159 2956 
Q 1366 3272 1645 3428 
Q 1925 3584 2291 3584 
Q 2894 3584 3203 3211 
Q 3513 2838 3513 2113 
z
" transform="scale(0.015625)"/>
      </defs>
      <use xlink:href="#DejaVuSans-62"/>
      <use xlink:href="#DejaVuSans-61" x="63.476562"/>
      <use xlink:href="#DejaVuSans-74" x="124.755859"/>
      <use xlink:href="#DejaVuSans-63" x="163.964844"/>
      <use xlink:href="#DejaVuSans-68" x="218.945312"/>
      <use xlink:href="#DejaVuSans-20" x="282.324219"/>
      <use xlink:href="#DejaVuSans-30" x="314.111328"/>
     </g>
    </g>
    <g id="line2d_50">
     <path d="M 203.22 67.277813 
L 221.22 67.277813 
L 239.22 67.277813 
" style="fill: none; stroke: #a52a2a; stroke-width: 3; stroke-linecap: square"/>
    </g>
    <g id="text_13">
     <!-- batch 5 -->
     <g transform="translate(253.62 73.577813) scale(0.18 -0.18)">
      <use xlink:href="#DejaVuSans-62"/>
      <use xlink:href="#DejaVuSans-61" x="63.476562"/>
      <use xlink:href="#DejaVuSans-74" x="124.755859"/>
      <use xlink:href="#DejaVuSans-63" x="163.964844"/>
      <use xlink:href="#DejaVuSans-68" x="218.945312"/>
      <use xlink:href="#DejaVuSans-20" x="282.324219"/>
      <use xlink:href="#DejaVuSans-35" x="314.111328"/>
     </g>
    </g>
    <g id="line2d_51">
     <path d="M 203.22 93.698438 
L 221.22 93.698438 
L 239.22 93.698438 
" style="fill: none; stroke: #f08080; stroke-width: 3; stroke-linecap: square"/>
    </g>
    <g id="text_14">
     <!-- batch 10 -->
     <g transform="translate(253.62 99.998438) scale(0.18 -0.18)">
      <use xlink:href="#DejaVuSans-62"/>
      <use xlink:href="#DejaVuSans-61" x="63.476562"/>
      <use xlink:href="#DejaVuSans-74" x="124.755859"/>
      <use xlink:href="#DejaVuSans-63" x="163.964844"/>
      <use xlink:href="#DejaVuSans-68" x="218.945312"/>
      <use xlink:href="#DejaVuSans-20" x="282.324219"/>
      <use xlink:href="#DejaVuSans-31" x="314.111328"/>
      <use xlink:href="#DejaVuSans-30" x="377.734375"/>
     </g>
    </g>
    <g id="line2d_52">
     <path d="M 203.22 120.119063 
L 221.22 120.119063 
L 239.22 120.119063 
" style="fill: none; stroke: #ffe4e1; stroke-width: 3; stroke-linecap: square"/>
    </g>
    <g id="text_15">
     <!-- batch 49 -->
     <g transform="translate(253.62 126.419063) scale(0.18 -0.18)">
      <defs>
       <path id="DejaVuSans-39" d="M 703 97 
L 703 672 
Q 941 559 1184 500 
Q 1428 441 1663 441 
Q 2288 441 2617 861 
Q 2947 1281 2994 2138 
Q 2813 1869 2534 1725 
Q 2256 1581 1919 1581 
Q 1219 1581 811 2004 
Q 403 2428 403 3163 
Q 403 3881 828 4315 
Q 1253 4750 1959 4750 
Q 2769 4750 3195 4129 
Q 3622 3509 3622 2328 
Q 3622 1225 3098 567 
Q 2575 -91 1691 -91 
Q 1453 -91 1209 -44 
Q 966 3 703 97 
z
M 1959 2075 
Q 2384 2075 2632 2365 
Q 2881 2656 2881 3163 
Q 2881 3666 2632 3958 
Q 2384 4250 1959 4250 
Q 1534 4250 1286 3958 
Q 1038 3666 1038 3163 
Q 1038 2656 1286 2365 
Q 1534 2075 1959 2075 
z
" transform="scale(0.015625)"/>
      </defs>
      <use xlink:href="#DejaVuSans-62"/>
      <use xlink:href="#DejaVuSans-61" x="63.476562"/>
      <use xlink:href="#DejaVuSans-74" x="124.755859"/>
      <use xlink:href="#DejaVuSans-63" x="163.964844"/>
      <use xlink:href="#DejaVuSans-68" x="218.945312"/>
      <use xlink:href="#DejaVuSans-20" x="282.324219"/>
      <use xlink:href="#DejaVuSans-34" x="314.111328"/>
      <use xlink:href="#DejaVuSans-39" x="377.734375"/>
     </g>
    </g>
    <g id="line2d_53">
     <path d="M 203.22 146.539688 
L 221.22 146.539688 
L 239.22 146.539688 
" style="fill: none; stroke-dasharray: 11.1,4.8; stroke-dashoffset: 0; stroke: #000000; stroke-width: 3"/>
    </g>
    <g id="text_16">
     <!-- perfectly balanced -->
     <g transform="translate(253.62 152.839688) scale(0.18 -0.18)">
      <defs>
       <path id="DejaVuSans-70" d="M 1159 525 
L 1159 -1331 
L 581 -1331 
L 581 3500 
L 1159 3500 
L 1159 2969 
Q 1341 3281 1617 3432 
Q 1894 3584 2278 3584 
Q 2916 3584 3314 3078 
Q 3713 2572 3713 1747 
Q 3713 922 3314 415 
Q 2916 -91 2278 -91 
Q 1894 -91 1617 61 
Q 1341 213 1159 525 
z
M 3116 1747 
Q 3116 2381 2855 2742 
Q 2594 3103 2138 3103 
Q 1681 3103 1420 2742 
Q 1159 2381 1159 1747 
Q 1159 1113 1420 752 
Q 1681 391 2138 391 
Q 2594 391 2855 752 
Q 3116 1113 3116 1747 
z
" transform="scale(0.015625)"/>
       <path id="DejaVuSans-6c" d="M 603 4863 
L 1178 4863 
L 1178 0 
L 603 0 
L 603 4863 
z
" transform="scale(0.015625)"/>
       <path id="DejaVuSans-79" d="M 2059 -325 
Q 1816 -950 1584 -1140 
Q 1353 -1331 966 -1331 
L 506 -1331 
L 506 -850 
L 844 -850 
Q 1081 -850 1212 -737 
Q 1344 -625 1503 -206 
L 1606 56 
L 191 3500 
L 800 3500 
L 1894 763 
L 2988 3500 
L 3597 3500 
L 2059 -325 
z
" transform="scale(0.015625)"/>
      </defs>
      <use xlink:href="#DejaVuSans-70"/>
      <use xlink:href="#DejaVuSans-65" x="63.476562"/>
      <use xlink:href="#DejaVuSans-72" x="125"/>
      <use xlink:href="#DejaVuSans-66" x="166.113281"/>
      <use xlink:href="#DejaVuSans-65" x="201.318359"/>
      <use xlink:href="#DejaVuSans-63" x="262.841797"/>
      <use xlink:href="#DejaVuSans-74" x="317.822266"/>
      <use xlink:href="#DejaVuSans-6c" x="357.03125"/>
      <use xlink:href="#DejaVuSans-79" x="384.814453"/>
      <use xlink:href="#DejaVuSans-20" x="443.994141"/>
      <use xlink:href="#DejaVuSans-62" x="475.78125"/>
      <use xlink:href="#DejaVuSans-61" x="539.257812"/>
      <use xlink:href="#DejaVuSans-6c" x="600.537109"/>
      <use xlink:href="#DejaVuSans-61" x="628.320312"/>
      <use xlink:href="#DejaVuSans-6e" x="689.599609"/>
      <use xlink:href="#DejaVuSans-63" x="752.978516"/>
      <use xlink:href="#DejaVuSans-65" x="807.958984"/>
      <use xlink:href="#DejaVuSans-64" x="869.482422"/>
     </g>
    </g>
   </g>
  </g>
 </g>
 <defs>
  <clipPath id="pa91d70bebc">
   <rect x="69.12" y="17.28" width="368.64" height="276.48"/>
  </clipPath>
 </defs>
</svg>
