<?xml version="1.0" encoding="utf-8" standalone="no"?>
<!DOCTYPE svg PUBLIC "-//W3C//DTD SVG 1.1//EN"
  "http://www.w3.org/Graphics/SVG/1.1/DTD/svg11.dtd">
<svg xmlns:xlink="http://www.w3.org/1999/xlink" width="460.8pt" height="345.6pt" viewBox="0 0 460.8 345.6" xmlns="http://www.w3.org/2000/svg" version="1.1">
 <metadata>
  <rdf:RDF xmlns:dc="http://purl.org/dc/elements/1.1/" xmlns:cc="http://creativecommons.org/ns#" xmlns:rdf="http://www.w3.org/1999/02/22-rdf-syntax-ns#">
   <cc:Work>
    <dc:type rdf:resource="http://purl.org/dc/dcmitype/StillImage"/>
    <dc:date>2024-01-24T21:22:44.328440</dc:date>
    <dc:format>image/svg+xml</dc:format>
    <dc:creator>
     <cc:Agent>
      <dc:title>Matplotlib v3.7.0, https://matplotlib.org/</dc:title>
     </cc:Agent>
    </dc:creator>
   </cc:Work>
  </rdf:RDF>
 </metadata>
 <defs>
  <style type="text/css">*{stroke-linejoin: round; stroke-linecap: butt}</style>
 </defs>
 <g id="figure_1">
  <g id="patch_1">
   <path d="M 0 345.6 
L 460.8 345.6 
L 460.8 0 
L 0 0 
L 0 345.6 
z
" style="fill: none"/>
  </g>
  <g id="axes_1">
   <g id="patch_2">
    <path d="M 69.12 311.04 
L 437.76 311.04 
L 437.76 17.28 
L 69.12 17.28 
L 69.12 311.04 
z
" style="fill: none"/>
   </g>
   <g id="patch_3">
    <path d="M 85.876364 311.04 
L 95.121254 311.04 
L 95.121254 31.268571 
L 85.876364 31.268571 
z
" clip-path="url(#p439de1163a)" style="fill: #800000; stroke: #cc4959; stroke-linejoin: miter"/>
   </g>
   <g id="patch_4">
    <path d="M 143.656928 311.04 
L 152.901818 311.04 
L 152.901818 256.450453 
L 143.656928 256.450453 
z
" clip-path="url(#p439de1163a)" style="fill: #800000; stroke: #cc4959; stroke-linejoin: miter"/>
   </g>
   <g id="patch_5">
    <path d="M 201.437492 311.04 
L 210.682382 311.04 
L 210.682382 307.628153 
L 201.437492 307.628153 
z
" clip-path="url(#p439de1163a)" style="fill: #800000; stroke: #cc4959; stroke-linejoin: miter"/>
   </g>
   <g id="patch_6">
    <path d="M 259.218056 311.04 
L 268.462947 311.04 
L 268.462947 65.387038 
L 259.218056 65.387038 
z
" clip-path="url(#p439de1163a)" style="fill: #800000; stroke: #cc4959; stroke-linejoin: miter"/>
   </g>
   <g id="patch_7">
    <path d="M 316.998621 311.04 
L 326.243511 311.04 
L 326.243511 273.509686 
L 316.998621 273.509686 
z
" clip-path="url(#p439de1163a)" style="fill: #800000; stroke: #cc4959; stroke-linejoin: miter"/>
   </g>
   <g id="patch_8">
    <path d="M 374.779185 311.04 
L 384.024075 311.04 
L 384.024075 308.310523 
L 374.779185 308.310523 
z
" clip-path="url(#p439de1163a)" style="fill: #800000; stroke: #cc4959; stroke-linejoin: miter"/>
   </g>
   <g id="patch_9">
    <path d="M 95.121254 311.04 
L 104.366144 311.04 
L 104.366144 275.556794 
L 95.121254 275.556794 
z
" clip-path="url(#p439de1163a)" style="stroke: #cc4959; stroke-linejoin: miter"/>
   </g>
   <g id="patch_10">
    <path d="M 152.901818 311.04 
L 162.146708 311.04 
L 162.146708 278.286272 
L 152.901818 278.286272 
z
" clip-path="url(#p439de1163a)" style="stroke: #cc4959; stroke-linejoin: miter"/>
   </g>
   <g id="patch_11">
    <path d="M 210.682382 311.04 
L 219.927273 311.04 
L 219.927273 288.521812 
L 210.682382 288.521812 
z
" clip-path="url(#p439de1163a)" style="stroke: #cc4959; stroke-linejoin: miter"/>
   </g>
   <g id="patch_12">
    <path d="M 268.462947 311.04 
L 277.707837 311.04 
L 277.707837 276.239164 
L 268.462947 276.239164 
z
" clip-path="url(#p439de1163a)" style="stroke: #cc4959; stroke-linejoin: miter"/>
   </g>
   <g id="patch_13">
    <path d="M 326.243511 311.04 
L 335.488401 311.04 
L 335.488401 285.109965 
L 326.243511 285.109965 
z
" clip-path="url(#p439de1163a)" style="stroke: #cc4959; stroke-linejoin: miter"/>
   </g>
   <g id="patch_14">
    <path d="M 384.024075 311.04 
L 393.268966 311.04 
L 393.268966 303.533937 
L 384.024075 303.533937 
z
" clip-path="url(#p439de1163a)" style="stroke: #cc4959; stroke-linejoin: miter"/>
   </g>
   <g id="patch_15">
    <path d="M 104.366144 311.04 
L 113.611034 311.04 
L 113.611034 208.684599 
L 104.366144 208.684599 
z
" clip-path="url(#p439de1163a)" style="fill: #a52a2a; stroke: #cc4959; stroke-linejoin: miter"/>
   </g>
   <g id="patch_16">
    <path d="M 162.146708 311.04 
L 171.391599 311.04 
L 171.391599 215.508293 
L 162.146708 215.508293 
z
" clip-path="url(#p439de1163a)" style="fill: #a52a2a; stroke: #cc4959; stroke-linejoin: miter"/>
   </g>
   <g id="patch_17">
    <path d="M 219.927273 311.04 
L 229.172163 311.04 
L 229.172163 212.096446 
L 219.927273 212.096446 
z
" clip-path="url(#p439de1163a)" style="fill: #a52a2a; stroke: #cc4959; stroke-linejoin: miter"/>
   </g>
   <g id="patch_18">
    <path d="M 277.707837 311.04 
L 286.952727 311.04 
L 286.952727 276.239164 
L 277.707837 276.239164 
z
" clip-path="url(#p439de1163a)" style="fill: #a52a2a; stroke: #cc4959; stroke-linejoin: miter"/>
   </g>
   <g id="patch_19">
    <path d="M 335.488401 311.04 
L 344.733292 311.04 
L 344.733292 276.921533 
L 335.488401 276.921533 
z
" clip-path="url(#p439de1163a)" style="fill: #a52a2a; stroke: #cc4959; stroke-linejoin: miter"/>
   </g>
   <g id="patch_20">
    <path d="M 393.268966 311.04 
L 402.513856 311.04 
L 402.513856 276.239164 
L 393.268966 276.239164 
z
" clip-path="url(#p439de1163a)" style="fill: #a52a2a; stroke: #cc4959; stroke-linejoin: miter"/>
   </g>
   <g id="patch_21">
    <path d="M 113.611034 311.04 
L 122.855925 311.04 
L 122.855925 182.754564 
L 113.611034 182.754564 
z
" clip-path="url(#p439de1163a)" style="fill: #f08080; stroke: #cc4959; stroke-linejoin: miter"/>
   </g>
   <g id="patch_22">
    <path d="M 171.391599 311.04 
L 180.636489 311.04 
L 180.636489 311.04 
L 171.391599 311.04 
z
" clip-path="url(#p439de1163a)" style="fill: #f08080; stroke: #cc4959; stroke-linejoin: miter"/>
   </g>
   <g id="patch_23">
    <path d="M 229.172163 311.04 
L 238.417053 311.04 
L 238.417053 169.107178 
L 229.172163 169.107178 
z
" clip-path="url(#p439de1163a)" style="fill: #f08080; stroke: #cc4959; stroke-linejoin: miter"/>
   </g>
   <g id="patch_24">
    <path d="M 286.952727 311.04 
L 296.197618 311.04 
L 296.197618 292.616028 
L 286.952727 292.616028 
z
" clip-path="url(#p439de1163a)" style="fill: #f08080; stroke: #cc4959; stroke-linejoin: miter"/>
   </g>
   <g id="patch_25">
    <path d="M 344.733292 311.04 
L 353.978182 311.04 
L 353.978182 311.04 
L 344.733292 311.04 
z
" clip-path="url(#p439de1163a)" style="fill: #f08080; stroke: #cc4959; stroke-linejoin: miter"/>
   </g>
   <g id="patch_26">
    <path d="M 402.513856 311.04 
L 411.758746 311.04 
L 411.758746 292.616028 
L 402.513856 292.616028 
z
" clip-path="url(#p439de1163a)" style="fill: #f08080; stroke: #cc4959; stroke-linejoin: miter"/>
   </g>
   <g id="patch_27">
    <path d="M 122.855925 311.04 
L 132.100815 311.04 
L 132.100815 268.050732 
L 122.855925 268.050732 
z
" clip-path="url(#p439de1163a)" style="fill: #ffe4e1; stroke: #cc4959; stroke-linejoin: miter"/>
   </g>
   <g id="patch_28">
    <path d="M 180.636489 311.04 
L 189.881379 311.04 
L 189.881379 311.04 
L 180.636489 311.04 
z
" clip-path="url(#p439de1163a)" style="fill: #ffe4e1; stroke: #cc4959; stroke-linejoin: miter"/>
   </g>
   <g id="patch_29">
    <path d="M 238.417053 311.04 
L 247.661944 311.04 
L 247.661944 262.591777 
L 238.417053 262.591777 
z
" clip-path="url(#p439de1163a)" style="fill: #ffe4e1; stroke: #cc4959; stroke-linejoin: miter"/>
   </g>
   <g id="patch_30">
    <path d="M 296.197618 311.04 
L 305.442508 311.04 
L 305.442508 291.933659 
L 296.197618 291.933659 
z
" clip-path="url(#p439de1163a)" style="fill: #ffe4e1; stroke: #cc4959; stroke-linejoin: miter"/>
   </g>
   <g id="patch_31">
    <path d="M 353.978182 311.04 
L 363.223072 311.04 
L 363.223072 311.04 
L 353.978182 311.04 
z
" clip-path="url(#p439de1163a)" style="fill: #ffe4e1; stroke: #cc4959; stroke-linejoin: miter"/>
   </g>
   <g id="patch_32">
    <path d="M 411.758746 311.04 
L 421.003636 311.04 
L 421.003636 291.251289 
L 411.758746 291.251289 
z
" clip-path="url(#p439de1163a)" style="fill: #ffe4e1; stroke: #cc4959; stroke-linejoin: miter"/>
   </g>
   <g id="matplotlib.axis_1">
    <g id="xtick_1">
     <g id="line2d_1">
      <defs>
       <path id="m92c3eee093" d="M 0 0 
L 0 3.5 
" style="stroke: #000000; stroke-width: 0.8"/>
      </defs>
      <g>
       <use xlink:href="#m92c3eee093" x="108.988589" y="311.04" style="stroke: #000000; stroke-width: 0.8"/>
      </g>
     </g>
     <g id="text_1">
      <!-- α=0 -->
      <g transform="translate(92.987808 329.437656) scale(0.15 -0.15)">
       <defs>
        <path id="DejaVuSans-3b1" d="M 2644 1628 
L 2506 2350 
Q 2366 3091 1809 3091 
Q 1391 3091 1200 2747 
Q 959 2316 959 1747 
Q 959 1059 1194 731 
Q 1431 397 1809 397 
Q 2228 397 2453 1063 
L 2644 1628 
z
M 2966 2584 
L 3275 3500 
L 3788 3500 
L 3147 1603 
L 3272 919 
Q 3300 766 3409 638 
Q 3538 488 3638 488 
L 3913 488 
L 3913 0 
L 3569 0 
Q 3275 0 3013 263 
Q 2884 394 2831 669 
Q 2688 322 2394 50 
Q 2256 -78 1809 -78 
Q 1075 -78 719 397 
Q 353 888 353 1747 
Q 353 2666 750 3097 
Q 1191 3578 1809 3578 
Q 2781 3578 2966 2584 
z
" transform="scale(0.015625)"/>
        <path id="DejaVuSans-3d" d="M 678 2906 
L 4684 2906 
L 4684 2381 
L 678 2381 
L 678 2906 
z
M 678 1631 
L 4684 1631 
L 4684 1100 
L 678 1100 
L 678 1631 
z
" transform="scale(0.015625)"/>
        <path id="DejaVuSans-30" d="M 2034 4250 
Q 1547 4250 1301 3770 
Q 1056 3291 1056 2328 
Q 1056 1369 1301 889 
Q 1547 409 2034 409 
Q 2525 409 2770 889 
Q 3016 1369 3016 2328 
Q 3016 3291 2770 3770 
Q 2525 4250 2034 4250 
z
M 2034 4750 
Q 2819 4750 3233 4129 
Q 3647 3509 3647 2328 
Q 3647 1150 3233 529 
Q 2819 -91 2034 -91 
Q 1250 -91 836 529 
Q 422 1150 422 2328 
Q 422 3509 836 4129 
Q 1250 4750 2034 4750 
z
" transform="scale(0.015625)"/>
       </defs>
       <use xlink:href="#DejaVuSans-3b1"/>
       <use xlink:href="#DejaVuSans-3d" x="65.917969"/>
       <use xlink:href="#DejaVuSans-30" x="149.707031"/>
      </g>
     </g>
    </g>
    <g id="xtick_2">
     <g id="line2d_2">
      <g>
       <use xlink:href="#m92c3eee093" x="166.769154" y="311.04" style="stroke: #000000; stroke-width: 0.8"/>
      </g>
     </g>
     <g id="text_2">
      <!-- α=0.4 -->
      <g transform="translate(143.612904 329.437656) scale(0.15 -0.15)">
       <defs>
        <path id="DejaVuSans-2e" d="M 684 794 
L 1344 794 
L 1344 0 
L 684 0 
L 684 794 
z
" transform="scale(0.015625)"/>
        <path id="DejaVuSans-34" d="M 2419 4116 
L 825 1625 
L 2419 1625 
L 2419 4116 
z
M 2253 4666 
L 3047 4666 
L 3047 1625 
L 3713 1625 
L 3713 1100 
L 3047 1100 
L 3047 0 
L 2419 0 
L 2419 1100 
L 313 1100 
L 313 1709 
L 2253 4666 
z
" transform="scale(0.015625)"/>
       </defs>
       <use xlink:href="#DejaVuSans-3b1"/>
       <use xlink:href="#DejaVuSans-3d" x="65.917969"/>
       <use xlink:href="#DejaVuSans-30" x="149.707031"/>
       <use xlink:href="#DejaVuSans-2e" x="213.330078"/>
       <use xlink:href="#DejaVuSans-34" x="245.117188"/>
      </g>
     </g>
    </g>
    <g id="xtick_3">
     <g id="line2d_3">
      <g>
       <use xlink:href="#m92c3eee093" x="224.549718" y="311.04" style="stroke: #000000; stroke-width: 0.8"/>
      </g>
     </g>
     <g id="text_3">
      <!-- α=0.99 -->
      <g transform="translate(196.621593 329.437656) scale(0.15 -0.15)">
       <defs>
        <path id="DejaVuSans-39" d="M 703 97 
L 703 672 
Q 941 559 1184 500 
Q 1428 441 1663 441 
Q 2288 441 2617 861 
Q 2947 1281 2994 2138 
Q 2813 1869 2534 1725 
Q 2256 1581 1919 1581 
Q 1219 1581 811 2004 
Q 403 2428 403 3163 
Q 403 3881 828 4315 
Q 1253 4750 1959 4750 
Q 2769 4750 3195 4129 
Q 3622 3509 3622 2328 
Q 3622 1225 3098 567 
Q 2575 -91 1691 -91 
Q 1453 -91 1209 -44 
Q 966 3 703 97 
z
M 1959 2075 
Q 2384 2075 2632 2365 
Q 2881 2656 2881 3163 
Q 2881 3666 2632 3958 
Q 2384 4250 1959 4250 
Q 1534 4250 1286 3958 
Q 1038 3666 1038 3163 
Q 1038 2656 1286 2365 
Q 1534 2075 1959 2075 
z
" transform="scale(0.015625)"/>
       </defs>
       <use xlink:href="#DejaVuSans-3b1"/>
       <use xlink:href="#DejaVuSans-3d" x="65.917969"/>
       <use xlink:href="#DejaVuSans-30" x="149.707031"/>
       <use xlink:href="#DejaVuSans-2e" x="213.330078"/>
       <use xlink:href="#DejaVuSans-39" x="245.117188"/>
       <use xlink:href="#DejaVuSans-39" x="308.740234"/>
      </g>
     </g>
    </g>
    <g id="xtick_4">
     <g id="line2d_4">
      <g>
       <use xlink:href="#m92c3eee093" x="282.330282" y="311.04" style="stroke: #000000; stroke-width: 0.8"/>
      </g>
     </g>
     <g id="text_4">
      <!-- α=0 -->
      <g transform="translate(266.329501 329.437656) scale(0.15 -0.15)">
       <use xlink:href="#DejaVuSans-3b1"/>
       <use xlink:href="#DejaVuSans-3d" x="65.917969"/>
       <use xlink:href="#DejaVuSans-30" x="149.707031"/>
      </g>
     </g>
    </g>
    <g id="xtick_5">
     <g id="line2d_5">
      <g>
       <use xlink:href="#m92c3eee093" x="340.110846" y="311.04" style="stroke: #000000; stroke-width: 0.8"/>
      </g>
     </g>
     <g id="text_5">
      <!-- α=0.4 -->
      <g transform="translate(316.954596 329.437656) scale(0.15 -0.15)">
       <use xlink:href="#DejaVuSans-3b1"/>
       <use xlink:href="#DejaVuSans-3d" x="65.917969"/>
       <use xlink:href="#DejaVuSans-30" x="149.707031"/>
       <use xlink:href="#DejaVuSans-2e" x="213.330078"/>
       <use xlink:href="#DejaVuSans-34" x="245.117188"/>
      </g>
     </g>
    </g>
    <g id="xtick_6">
     <g id="line2d_6">
      <g>
       <use xlink:href="#m92c3eee093" x="397.891411" y="311.04" style="stroke: #000000; stroke-width: 0.8"/>
      </g>
     </g>
     <g id="text_6">
      <!-- α=0.99 -->
      <g transform="translate(369.963286 329.437656) scale(0.15 -0.15)">
       <use xlink:href="#DejaVuSans-3b1"/>
       <use xlink:href="#DejaVuSans-3d" x="65.917969"/>
       <use xlink:href="#DejaVuSans-30" x="149.707031"/>
       <use xlink:href="#DejaVuSans-2e" x="213.330078"/>
       <use xlink:href="#DejaVuSans-39" x="245.117188"/>
       <use xlink:href="#DejaVuSans-39" x="308.740234"/>
      </g>
     </g>
    </g>
   </g>
   <g id="matplotlib.axis_2">
    <g id="ytick_1">
     <g id="line2d_7">
      <defs>
       <path id="m493b85de85" d="M 0 0 
L -3.5 0 
" style="stroke: #000000; stroke-width: 0.8"/>
      </defs>
      <g>
       <use xlink:href="#m493b85de85" x="69.12" y="311.04" style="stroke: #000000; stroke-width: 0.8"/>
      </g>
     </g>
     <g id="text_7">
      <!-- 0 -->
      <g transform="translate(50.6675 317.878594) scale(0.18 -0.18)">
       <use xlink:href="#DejaVuSans-30"/>
      </g>
     </g>
    </g>
    <g id="ytick_2">
     <g id="line2d_8">
      <g>
       <use xlink:href="#m493b85de85" x="69.12" y="242.803066" style="stroke: #000000; stroke-width: 0.8"/>
      </g>
     </g>
     <g id="text_8">
      <!-- 10 -->
      <g transform="translate(39.215 249.64166) scale(0.18 -0.18)">
       <defs>
        <path id="DejaVuSans-31" d="M 794 531 
L 1825 531 
L 1825 4091 
L 703 3866 
L 703 4441 
L 1819 4666 
L 2450 4666 
L 2450 531 
L 3481 531 
L 3481 0 
L 794 0 
L 794 531 
z
" transform="scale(0.015625)"/>
       </defs>
       <use xlink:href="#DejaVuSans-31"/>
       <use xlink:href="#DejaVuSans-30" x="63.623047"/>
      </g>
     </g>
    </g>
    <g id="ytick_3">
     <g id="line2d_9">
      <g>
       <use xlink:href="#m493b85de85" x="69.12" y="174.566132" style="stroke: #000000; stroke-width: 0.8"/>
      </g>
     </g>
     <g id="text_9">
      <!-- 20 -->
      <g transform="translate(39.215 181.404726) scale(0.18 -0.18)">
       <defs>
        <path id="DejaVuSans-32" d="M 1228 531 
L 3431 531 
L 3431 0 
L 469 0 
L 469 531 
Q 828 903 1448 1529 
Q 2069 2156 2228 2338 
Q 2531 2678 2651 2914 
Q 2772 3150 2772 3378 
Q 2772 3750 2511 3984 
Q 2250 4219 1831 4219 
Q 1534 4219 1204 4116 
Q 875 4013 500 3803 
L 500 4441 
Q 881 4594 1212 4672 
Q 1544 4750 1819 4750 
Q 2544 4750 2975 4387 
Q 3406 4025 3406 3419 
Q 3406 3131 3298 2873 
Q 3191 2616 2906 2266 
Q 2828 2175 2409 1742 
Q 1991 1309 1228 531 
z
" transform="scale(0.015625)"/>
       </defs>
       <use xlink:href="#DejaVuSans-32"/>
       <use xlink:href="#DejaVuSans-30" x="63.623047"/>
      </g>
     </g>
    </g>
    <g id="ytick_4">
     <g id="line2d_10">
      <g>
       <use xlink:href="#m493b85de85" x="69.12" y="106.329199" style="stroke: #000000; stroke-width: 0.8"/>
      </g>
     </g>
     <g id="text_10">
      <!-- 30 -->
      <g transform="translate(39.215 113.167792) scale(0.18 -0.18)">
       <defs>
        <path id="DejaVuSans-33" d="M 2597 2516 
Q 3050 2419 3304 2112 
Q 3559 1806 3559 1356 
Q 3559 666 3084 287 
Q 2609 -91 1734 -91 
Q 1441 -91 1130 -33 
Q 819 25 488 141 
L 488 750 
Q 750 597 1062 519 
Q 1375 441 1716 441 
Q 2309 441 2620 675 
Q 2931 909 2931 1356 
Q 2931 1769 2642 2001 
Q 2353 2234 1838 2234 
L 1294 2234 
L 1294 2753 
L 1863 2753 
Q 2328 2753 2575 2939 
Q 2822 3125 2822 3475 
Q 2822 3834 2567 4026 
Q 2313 4219 1838 4219 
Q 1578 4219 1281 4162 
Q 984 4106 628 3988 
L 628 4550 
Q 988 4650 1302 4700 
Q 1616 4750 1894 4750 
Q 2613 4750 3031 4423 
Q 3450 4097 3450 3541 
Q 3450 3153 3228 2886 
Q 3006 2619 2597 2516 
z
" transform="scale(0.015625)"/>
       </defs>
       <use xlink:href="#DejaVuSans-33"/>
       <use xlink:href="#DejaVuSans-30" x="63.623047"/>
      </g>
     </g>
    </g>
    <g id="ytick_5">
     <g id="line2d_11">
      <g>
       <use xlink:href="#m493b85de85" x="69.12" y="38.092265" style="stroke: #000000; stroke-width: 0.8"/>
      </g>
     </g>
     <g id="text_11">
      <!-- 40 -->
      <g transform="translate(39.215 44.930859) scale(0.18 -0.18)">
       <use xlink:href="#DejaVuSans-34"/>
       <use xlink:href="#DejaVuSans-30" x="63.623047"/>
      </g>
     </g>
    </g>
    <g id="text_12">
     <!-- throughput[MOP/s] -->
     <g transform="translate(31.471563 249.482813) rotate(-90) scale(0.18 -0.18)">
      <defs>
       <path id="DejaVuSans-74" d="M 1172 4494 
L 1172 3500 
L 2356 3500 
L 2356 3053 
L 1172 3053 
L 1172 1153 
Q 1172 725 1289 603 
Q 1406 481 1766 481 
L 2356 481 
L 2356 0 
L 1766 0 
Q 1100 0 847 248 
Q 594 497 594 1153 
L 594 3053 
L 172 3053 
L 172 3500 
L 594 3500 
L 594 4494 
L 1172 4494 
z
" transform="scale(0.015625)"/>
       <path id="DejaVuSans-68" d="M 3513 2113 
L 3513 0 
L 2938 0 
L 2938 2094 
Q 2938 2591 2744 2837 
Q 2550 3084 2163 3084 
Q 1697 3084 1428 2787 
Q 1159 2491 1159 1978 
L 1159 0 
L 581 0 
L 581 4863 
L 1159 4863 
L 1159 2956 
Q 1366 3272 1645 3428 
Q 1925 3584 2291 3584 
Q 2894 3584 3203 3211 
Q 3513 2838 3513 2113 
z
" transform="scale(0.015625)"/>
       <path id="DejaVuSans-72" d="M 2631 2963 
Q 2534 3019 2420 3045 
Q 2306 3072 2169 3072 
Q 1681 3072 1420 2755 
Q 1159 2438 1159 1844 
L 1159 0 
L 581 0 
L 581 3500 
L 1159 3500 
L 1159 2956 
Q 1341 3275 1631 3429 
Q 1922 3584 2338 3584 
Q 2397 3584 2469 3576 
Q 2541 3569 2628 3553 
L 2631 2963 
z
" transform="scale(0.015625)"/>
       <path id="DejaVuSans-6f" d="M 1959 3097 
Q 1497 3097 1228 2736 
Q 959 2375 959 1747 
Q 959 1119 1226 758 
Q 1494 397 1959 397 
Q 2419 397 2687 759 
Q 2956 1122 2956 1747 
Q 2956 2369 2687 2733 
Q 2419 3097 1959 3097 
z
M 1959 3584 
Q 2709 3584 3137 3096 
Q 3566 2609 3566 1747 
Q 3566 888 3137 398 
Q 2709 -91 1959 -91 
Q 1206 -91 779 398 
Q 353 888 353 1747 
Q 353 2609 779 3096 
Q 1206 3584 1959 3584 
z
" transform="scale(0.015625)"/>
       <path id="DejaVuSans-75" d="M 544 1381 
L 544 3500 
L 1119 3500 
L 1119 1403 
Q 1119 906 1312 657 
Q 1506 409 1894 409 
Q 2359 409 2629 706 
Q 2900 1003 2900 1516 
L 2900 3500 
L 3475 3500 
L 3475 0 
L 2900 0 
L 2900 538 
Q 2691 219 2414 64 
Q 2138 -91 1772 -91 
Q 1169 -91 856 284 
Q 544 659 544 1381 
z
M 1991 3584 
L 1991 3584 
z
" transform="scale(0.015625)"/>
       <path id="DejaVuSans-67" d="M 2906 1791 
Q 2906 2416 2648 2759 
Q 2391 3103 1925 3103 
Q 1463 3103 1205 2759 
Q 947 2416 947 1791 
Q 947 1169 1205 825 
Q 1463 481 1925 481 
Q 2391 481 2648 825 
Q 2906 1169 2906 1791 
z
M 3481 434 
Q 3481 -459 3084 -895 
Q 2688 -1331 1869 -1331 
Q 1566 -1331 1297 -1286 
Q 1028 -1241 775 -1147 
L 775 -588 
Q 1028 -725 1275 -790 
Q 1522 -856 1778 -856 
Q 2344 -856 2625 -561 
Q 2906 -266 2906 331 
L 2906 616 
Q 2728 306 2450 153 
Q 2172 0 1784 0 
Q 1141 0 747 490 
Q 353 981 353 1791 
Q 353 2603 747 3093 
Q 1141 3584 1784 3584 
Q 2172 3584 2450 3431 
Q 2728 3278 2906 2969 
L 2906 3500 
L 3481 3500 
L 3481 434 
z
" transform="scale(0.015625)"/>
       <path id="DejaVuSans-70" d="M 1159 525 
L 1159 -1331 
L 581 -1331 
L 581 3500 
L 1159 3500 
L 1159 2969 
Q 1341 3281 1617 3432 
Q 1894 3584 2278 3584 
Q 2916 3584 3314 3078 
Q 3713 2572 3713 1747 
Q 3713 922 3314 415 
Q 2916 -91 2278 -91 
Q 1894 -91 1617 61 
Q 1341 213 1159 525 
z
M 3116 1747 
Q 3116 2381 2855 2742 
Q 2594 3103 2138 3103 
Q 1681 3103 1420 2742 
Q 1159 2381 1159 1747 
Q 1159 1113 1420 752 
Q 1681 391 2138 391 
Q 2594 391 2855 752 
Q 3116 1113 3116 1747 
z
" transform="scale(0.015625)"/>
       <path id="DejaVuSans-5b" d="M 550 4863 
L 1875 4863 
L 1875 4416 
L 1125 4416 
L 1125 -397 
L 1875 -397 
L 1875 -844 
L 550 -844 
L 550 4863 
z
" transform="scale(0.015625)"/>
       <path id="DejaVuSans-4d" d="M 628 4666 
L 1569 4666 
L 2759 1491 
L 3956 4666 
L 4897 4666 
L 4897 0 
L 4281 0 
L 4281 4097 
L 3078 897 
L 2444 897 
L 1241 4097 
L 1241 0 
L 628 0 
L 628 4666 
z
" transform="scale(0.015625)"/>
       <path id="DejaVuSans-4f" d="M 2522 4238 
Q 1834 4238 1429 3725 
Q 1025 3213 1025 2328 
Q 1025 1447 1429 934 
Q 1834 422 2522 422 
Q 3209 422 3611 934 
Q 4013 1447 4013 2328 
Q 4013 3213 3611 3725 
Q 3209 4238 2522 4238 
z
M 2522 4750 
Q 3503 4750 4090 4092 
Q 4678 3434 4678 2328 
Q 4678 1225 4090 567 
Q 3503 -91 2522 -91 
Q 1538 -91 948 565 
Q 359 1222 359 2328 
Q 359 3434 948 4092 
Q 1538 4750 2522 4750 
z
" transform="scale(0.015625)"/>
       <path id="DejaVuSans-50" d="M 1259 4147 
L 1259 2394 
L 2053 2394 
Q 2494 2394 2734 2622 
Q 2975 2850 2975 3272 
Q 2975 3691 2734 3919 
Q 2494 4147 2053 4147 
L 1259 4147 
z
M 628 4666 
L 2053 4666 
Q 2838 4666 3239 4311 
Q 3641 3956 3641 3272 
Q 3641 2581 3239 2228 
Q 2838 1875 2053 1875 
L 1259 1875 
L 1259 0 
L 628 0 
L 628 4666 
z
" transform="scale(0.015625)"/>
       <path id="DejaVuSans-2f" d="M 1625 4666 
L 2156 4666 
L 531 -594 
L 0 -594 
L 1625 4666 
z
" transform="scale(0.015625)"/>
       <path id="DejaVuSans-73" d="M 2834 3397 
L 2834 2853 
Q 2591 2978 2328 3040 
Q 2066 3103 1784 3103 
Q 1356 3103 1142 2972 
Q 928 2841 928 2578 
Q 928 2378 1081 2264 
Q 1234 2150 1697 2047 
L 1894 2003 
Q 2506 1872 2764 1633 
Q 3022 1394 3022 966 
Q 3022 478 2636 193 
Q 2250 -91 1575 -91 
Q 1294 -91 989 -36 
Q 684 19 347 128 
L 347 722 
Q 666 556 975 473 
Q 1284 391 1588 391 
Q 1994 391 2212 530 
Q 2431 669 2431 922 
Q 2431 1156 2273 1281 
Q 2116 1406 1581 1522 
L 1381 1569 
Q 847 1681 609 1914 
Q 372 2147 372 2553 
Q 372 3047 722 3315 
Q 1072 3584 1716 3584 
Q 2034 3584 2315 3537 
Q 2597 3491 2834 3397 
z
" transform="scale(0.015625)"/>
       <path id="DejaVuSans-5d" d="M 1947 4863 
L 1947 -844 
L 622 -844 
L 622 -397 
L 1369 -397 
L 1369 4416 
L 622 4416 
L 622 4863 
L 1947 4863 
z
" transform="scale(0.015625)"/>
      </defs>
      <use xlink:href="#DejaVuSans-74"/>
      <use xlink:href="#DejaVuSans-68" x="39.208984"/>
      <use xlink:href="#DejaVuSans-72" x="102.587891"/>
      <use xlink:href="#DejaVuSans-6f" x="141.451172"/>
      <use xlink:href="#DejaVuSans-75" x="202.632812"/>
      <use xlink:href="#DejaVuSans-67" x="266.011719"/>
      <use xlink:href="#DejaVuSans-68" x="329.488281"/>
      <use xlink:href="#DejaVuSans-70" x="392.867188"/>
      <use xlink:href="#DejaVuSans-75" x="456.34375"/>
      <use xlink:href="#DejaVuSans-74" x="519.722656"/>
      <use xlink:href="#DejaVuSans-5b" x="558.931641"/>
      <use xlink:href="#DejaVuSans-4d" x="597.945312"/>
      <use xlink:href="#DejaVuSans-4f" x="684.224609"/>
      <use xlink:href="#DejaVuSans-50" x="762.935547"/>
      <use xlink:href="#DejaVuSans-2f" x="823.238281"/>
      <use xlink:href="#DejaVuSans-73" x="856.929688"/>
      <use xlink:href="#DejaVuSans-5d" x="909.029297"/>
     </g>
    </g>
   </g>
   <g id="patch_33">
    <path d="M 69.12 311.04 
L 69.12 17.28 
" style="fill: none; stroke: #000000; stroke-width: 0.8; stroke-linejoin: miter; stroke-linecap: square"/>
   </g>
   <g id="patch_34">
    <path d="M 437.76 311.04 
L 437.76 17.28 
" style="fill: none; stroke: #000000; stroke-width: 0.8; stroke-linejoin: miter; stroke-linecap: square"/>
   </g>
   <g id="patch_35">
    <path d="M 69.12 311.04 
L 437.76 311.04 
" style="fill: none; stroke: #000000; stroke-width: 0.8; stroke-linejoin: miter; stroke-linecap: square"/>
   </g>
   <g id="patch_36">
    <path d="M 69.12 17.28 
L 437.76 17.28 
" style="fill: none; stroke: #000000; stroke-width: 0.8; stroke-linejoin: miter; stroke-linecap: square"/>
   </g>
  </g>
 </g>
 <defs>
  <clipPath id="p439de1163a">
   <rect x="69.12" y="17.28" width="368.64" height="293.76"/>
  </clipPath>
 </defs>
</svg>
