<?xml version="1.0" encoding="utf-8" standalone="no"?>
<!DOCTYPE svg PUBLIC "-//W3C//DTD SVG 1.1//EN"
  "http://www.w3.org/Graphics/SVG/1.1/DTD/svg11.dtd">
<svg xmlns:xlink="http://www.w3.org/1999/xlink" width="460.8pt" height="345.6pt" viewBox="0 0 460.8 345.6" xmlns="http://www.w3.org/2000/svg" version="1.1">
 <metadata>
  <rdf:RDF xmlns:dc="http://purl.org/dc/elements/1.1/" xmlns:cc="http://creativecommons.org/ns#" xmlns:rdf="http://www.w3.org/1999/02/22-rdf-syntax-ns#">
   <cc:Work>
    <dc:type rdf:resource="http://purl.org/dc/dcmitype/StillImage"/>
    <dc:date>2024-01-24T05:34:17.030061</dc:date>
    <dc:format>image/svg+xml</dc:format>
    <dc:creator>
     <cc:Agent>
      <dc:title>Matplotlib v3.7.0, https://matplotlib.org/</dc:title>
     </cc:Agent>
    </dc:creator>
   </cc:Work>
  </rdf:RDF>
 </metadata>
 <defs>
  <style type="text/css">*{stroke-linejoin: round; stroke-linecap: butt}</style>
 </defs>
 <g id="figure_1">
  <g id="patch_1">
   <path d="M 0 345.6 
L 460.8 345.6 
L 460.8 0 
L 0 0 
L 0 345.6 
z
" style="fill: none"/>
  </g>
  <g id="axes_1">
   <g id="patch_2">
    <path d="M 69.12 293.76 
L 437.76 293.76 
L 437.76 17.28 
L 69.12 17.28 
L 69.12 293.76 
z
" style="fill: none"/>
   </g>
   <g id="matplotlib.axis_1">
    <g id="xtick_1">
     <g id="line2d_1">
      <path d="M 69.12 293.76 
L 69.12 17.28 
" clip-path="url(#pb96a0822b4)" style="fill: none; stroke: #b0b0b0; stroke-width: 0.8; stroke-linecap: square"/>
     </g>
     <g id="line2d_2">
      <defs>
       <path id="ma78e57ae13" d="M 0 0 
L 0 3.5 
" style="stroke: #000000; stroke-width: 0.8"/>
      </defs>
      <g>
       <use xlink:href="#ma78e57ae13" x="69.12" y="293.76" style="stroke: #000000; stroke-width: 0.8"/>
      </g>
     </g>
     <g id="text_1">
      <!-- $\mathdefault{10^{0}}$ -->
      <g transform="translate(53.28 314.437187) scale(0.18 -0.18)">
       <defs>
        <path id="DejaVuSans-31" d="M 794 531 
L 1825 531 
L 1825 4091 
L 703 3866 
L 703 4441 
L 1819 4666 
L 2450 4666 
L 2450 531 
L 3481 531 
L 3481 0 
L 794 0 
L 794 531 
z
" transform="scale(0.015625)"/>
        <path id="DejaVuSans-30" d="M 2034 4250 
Q 1547 4250 1301 3770 
Q 1056 3291 1056 2328 
Q 1056 1369 1301 889 
Q 1547 409 2034 409 
Q 2525 409 2770 889 
Q 3016 1369 3016 2328 
Q 3016 3291 2770 3770 
Q 2525 4250 2034 4250 
z
M 2034 4750 
Q 2819 4750 3233 4129 
Q 3647 3509 3647 2328 
Q 3647 1150 3233 529 
Q 2819 -91 2034 -91 
Q 1250 -91 836 529 
Q 422 1150 422 2328 
Q 422 3509 836 4129 
Q 1250 4750 2034 4750 
z
" transform="scale(0.015625)"/>
       </defs>
       <use xlink:href="#DejaVuSans-31" transform="translate(0 0.765625)"/>
       <use xlink:href="#DejaVuSans-30" transform="translate(63.623047 0.765625)"/>
       <use xlink:href="#DejaVuSans-30" transform="translate(128.203125 39.046875) scale(0.7)"/>
      </g>
     </g>
    </g>
    <g id="xtick_2">
     <g id="line2d_3">
      <path d="M 177.603716 293.76 
L 177.603716 17.28 
" clip-path="url(#pb96a0822b4)" style="fill: none; stroke: #b0b0b0; stroke-width: 0.8; stroke-linecap: square"/>
     </g>
     <g id="line2d_4">
      <g>
       <use xlink:href="#ma78e57ae13" x="177.603716" y="293.76" style="stroke: #000000; stroke-width: 0.8"/>
      </g>
     </g>
     <g id="text_2">
      <!-- $\mathdefault{10^{1}}$ -->
      <g transform="translate(161.763716 314.437187) scale(0.18 -0.18)">
       <use xlink:href="#DejaVuSans-31" transform="translate(0 0.684375)"/>
       <use xlink:href="#DejaVuSans-30" transform="translate(63.623047 0.684375)"/>
       <use xlink:href="#DejaVuSans-31" transform="translate(128.203125 38.965625) scale(0.7)"/>
      </g>
     </g>
    </g>
    <g id="xtick_3">
     <g id="line2d_5">
      <path d="M 286.087432 293.76 
L 286.087432 17.28 
" clip-path="url(#pb96a0822b4)" style="fill: none; stroke: #b0b0b0; stroke-width: 0.8; stroke-linecap: square"/>
     </g>
     <g id="line2d_6">
      <g>
       <use xlink:href="#ma78e57ae13" x="286.087432" y="293.76" style="stroke: #000000; stroke-width: 0.8"/>
      </g>
     </g>
     <g id="text_3">
      <!-- $\mathdefault{10^{2}}$ -->
      <g transform="translate(270.247432 314.437187) scale(0.18 -0.18)">
       <defs>
        <path id="DejaVuSans-32" d="M 1228 531 
L 3431 531 
L 3431 0 
L 469 0 
L 469 531 
Q 828 903 1448 1529 
Q 2069 2156 2228 2338 
Q 2531 2678 2651 2914 
Q 2772 3150 2772 3378 
Q 2772 3750 2511 3984 
Q 2250 4219 1831 4219 
Q 1534 4219 1204 4116 
Q 875 4013 500 3803 
L 500 4441 
Q 881 4594 1212 4672 
Q 1544 4750 1819 4750 
Q 2544 4750 2975 4387 
Q 3406 4025 3406 3419 
Q 3406 3131 3298 2873 
Q 3191 2616 2906 2266 
Q 2828 2175 2409 1742 
Q 1991 1309 1228 531 
z
" transform="scale(0.015625)"/>
       </defs>
       <use xlink:href="#DejaVuSans-31" transform="translate(0 0.765625)"/>
       <use xlink:href="#DejaVuSans-30" transform="translate(63.623047 0.765625)"/>
       <use xlink:href="#DejaVuSans-32" transform="translate(128.203125 39.046875) scale(0.7)"/>
      </g>
     </g>
    </g>
    <g id="xtick_4">
     <g id="line2d_7">
      <path d="M 394.571147 293.76 
L 394.571147 17.28 
" clip-path="url(#pb96a0822b4)" style="fill: none; stroke: #b0b0b0; stroke-width: 0.8; stroke-linecap: square"/>
     </g>
     <g id="line2d_8">
      <g>
       <use xlink:href="#ma78e57ae13" x="394.571147" y="293.76" style="stroke: #000000; stroke-width: 0.8"/>
      </g>
     </g>
     <g id="text_4">
      <!-- $\mathdefault{10^{3}}$ -->
      <g transform="translate(378.731147 314.437187) scale(0.18 -0.18)">
       <defs>
        <path id="DejaVuSans-33" d="M 2597 2516 
Q 3050 2419 3304 2112 
Q 3559 1806 3559 1356 
Q 3559 666 3084 287 
Q 2609 -91 1734 -91 
Q 1441 -91 1130 -33 
Q 819 25 488 141 
L 488 750 
Q 750 597 1062 519 
Q 1375 441 1716 441 
Q 2309 441 2620 675 
Q 2931 909 2931 1356 
Q 2931 1769 2642 2001 
Q 2353 2234 1838 2234 
L 1294 2234 
L 1294 2753 
L 1863 2753 
Q 2328 2753 2575 2939 
Q 2822 3125 2822 3475 
Q 2822 3834 2567 4026 
Q 2313 4219 1838 4219 
Q 1578 4219 1281 4162 
Q 984 4106 628 3988 
L 628 4550 
Q 988 4650 1302 4700 
Q 1616 4750 1894 4750 
Q 2613 4750 3031 4423 
Q 3450 4097 3450 3541 
Q 3450 3153 3228 2886 
Q 3006 2619 2597 2516 
z
" transform="scale(0.015625)"/>
       </defs>
       <use xlink:href="#DejaVuSans-31" transform="translate(0 0.765625)"/>
       <use xlink:href="#DejaVuSans-30" transform="translate(63.623047 0.765625)"/>
       <use xlink:href="#DejaVuSans-33" transform="translate(128.203125 39.046875) scale(0.7)"/>
      </g>
     </g>
    </g>
    <g id="xtick_5">
     <g id="line2d_9">
      <defs>
       <path id="m5c2e37ae9f" d="M 0 0 
L 0 2 
" style="stroke: #000000; stroke-width: 0.6"/>
      </defs>
      <g>
       <use xlink:href="#m5c2e37ae9f" x="101.776852" y="293.76" style="stroke: #000000; stroke-width: 0.6"/>
      </g>
     </g>
    </g>
    <g id="xtick_6">
     <g id="line2d_10">
      <g>
       <use xlink:href="#m5c2e37ae9f" x="120.879887" y="293.76" style="stroke: #000000; stroke-width: 0.6"/>
      </g>
     </g>
    </g>
    <g id="xtick_7">
     <g id="line2d_11">
      <g>
       <use xlink:href="#m5c2e37ae9f" x="134.433705" y="293.76" style="stroke: #000000; stroke-width: 0.6"/>
      </g>
     </g>
    </g>
    <g id="xtick_8">
     <g id="line2d_12">
      <g>
       <use xlink:href="#m5c2e37ae9f" x="144.946863" y="293.76" style="stroke: #000000; stroke-width: 0.6"/>
      </g>
     </g>
    </g>
    <g id="xtick_9">
     <g id="line2d_13">
      <g>
       <use xlink:href="#m5c2e37ae9f" x="153.536739" y="293.76" style="stroke: #000000; stroke-width: 0.6"/>
      </g>
     </g>
    </g>
    <g id="xtick_10">
     <g id="line2d_14">
      <g>
       <use xlink:href="#m5c2e37ae9f" x="160.799376" y="293.76" style="stroke: #000000; stroke-width: 0.6"/>
      </g>
     </g>
    </g>
    <g id="xtick_11">
     <g id="line2d_15">
      <g>
       <use xlink:href="#m5c2e37ae9f" x="167.090557" y="293.76" style="stroke: #000000; stroke-width: 0.6"/>
      </g>
     </g>
    </g>
    <g id="xtick_12">
     <g id="line2d_16">
      <g>
       <use xlink:href="#m5c2e37ae9f" x="172.639773" y="293.76" style="stroke: #000000; stroke-width: 0.6"/>
      </g>
     </g>
    </g>
    <g id="xtick_13">
     <g id="line2d_17">
      <g>
       <use xlink:href="#m5c2e37ae9f" x="210.260568" y="293.76" style="stroke: #000000; stroke-width: 0.6"/>
      </g>
     </g>
    </g>
    <g id="xtick_14">
     <g id="line2d_18">
      <g>
       <use xlink:href="#m5c2e37ae9f" x="229.363602" y="293.76" style="stroke: #000000; stroke-width: 0.6"/>
      </g>
     </g>
    </g>
    <g id="xtick_15">
     <g id="line2d_19">
      <g>
       <use xlink:href="#m5c2e37ae9f" x="242.917421" y="293.76" style="stroke: #000000; stroke-width: 0.6"/>
      </g>
     </g>
    </g>
    <g id="xtick_16">
     <g id="line2d_20">
      <g>
       <use xlink:href="#m5c2e37ae9f" x="253.430579" y="293.76" style="stroke: #000000; stroke-width: 0.6"/>
      </g>
     </g>
    </g>
    <g id="xtick_17">
     <g id="line2d_21">
      <g>
       <use xlink:href="#m5c2e37ae9f" x="262.020455" y="293.76" style="stroke: #000000; stroke-width: 0.6"/>
      </g>
     </g>
    </g>
    <g id="xtick_18">
     <g id="line2d_22">
      <g>
       <use xlink:href="#m5c2e37ae9f" x="269.283091" y="293.76" style="stroke: #000000; stroke-width: 0.6"/>
      </g>
     </g>
    </g>
    <g id="xtick_19">
     <g id="line2d_23">
      <g>
       <use xlink:href="#m5c2e37ae9f" x="275.574273" y="293.76" style="stroke: #000000; stroke-width: 0.6"/>
      </g>
     </g>
    </g>
    <g id="xtick_20">
     <g id="line2d_24">
      <g>
       <use xlink:href="#m5c2e37ae9f" x="281.123489" y="293.76" style="stroke: #000000; stroke-width: 0.6"/>
      </g>
     </g>
    </g>
    <g id="xtick_21">
     <g id="line2d_25">
      <g>
       <use xlink:href="#m5c2e37ae9f" x="318.744284" y="293.76" style="stroke: #000000; stroke-width: 0.6"/>
      </g>
     </g>
    </g>
    <g id="xtick_22">
     <g id="line2d_26">
      <g>
       <use xlink:href="#m5c2e37ae9f" x="337.847318" y="293.76" style="stroke: #000000; stroke-width: 0.6"/>
      </g>
     </g>
    </g>
    <g id="xtick_23">
     <g id="line2d_27">
      <g>
       <use xlink:href="#m5c2e37ae9f" x="351.401137" y="293.76" style="stroke: #000000; stroke-width: 0.6"/>
      </g>
     </g>
    </g>
    <g id="xtick_24">
     <g id="line2d_28">
      <g>
       <use xlink:href="#m5c2e37ae9f" x="361.914295" y="293.76" style="stroke: #000000; stroke-width: 0.6"/>
      </g>
     </g>
    </g>
    <g id="xtick_25">
     <g id="line2d_29">
      <g>
       <use xlink:href="#m5c2e37ae9f" x="370.504171" y="293.76" style="stroke: #000000; stroke-width: 0.6"/>
      </g>
     </g>
    </g>
    <g id="xtick_26">
     <g id="line2d_30">
      <g>
       <use xlink:href="#m5c2e37ae9f" x="377.766807" y="293.76" style="stroke: #000000; stroke-width: 0.6"/>
      </g>
     </g>
    </g>
    <g id="xtick_27">
     <g id="line2d_31">
      <g>
       <use xlink:href="#m5c2e37ae9f" x="384.057989" y="293.76" style="stroke: #000000; stroke-width: 0.6"/>
      </g>
     </g>
    </g>
    <g id="xtick_28">
     <g id="line2d_32">
      <g>
       <use xlink:href="#m5c2e37ae9f" x="389.607205" y="293.76" style="stroke: #000000; stroke-width: 0.6"/>
      </g>
     </g>
    </g>
    <g id="xtick_29">
     <g id="line2d_33">
      <g>
       <use xlink:href="#m5c2e37ae9f" x="427.228" y="293.76" style="stroke: #000000; stroke-width: 0.6"/>
      </g>
     </g>
    </g>
    <g id="text_5">
     <!-- PIM node -->
     <g transform="translate(212.270625 335.857812) scale(0.18 -0.18)">
      <defs>
       <path id="DejaVuSans-50" d="M 1259 4147 
L 1259 2394 
L 2053 2394 
Q 2494 2394 2734 2622 
Q 2975 2850 2975 3272 
Q 2975 3691 2734 3919 
Q 2494 4147 2053 4147 
L 1259 4147 
z
M 628 4666 
L 2053 4666 
Q 2838 4666 3239 4311 
Q 3641 3956 3641 3272 
Q 3641 2581 3239 2228 
Q 2838 1875 2053 1875 
L 1259 1875 
L 1259 0 
L 628 0 
L 628 4666 
z
" transform="scale(0.015625)"/>
       <path id="DejaVuSans-49" d="M 628 4666 
L 1259 4666 
L 1259 0 
L 628 0 
L 628 4666 
z
" transform="scale(0.015625)"/>
       <path id="DejaVuSans-4d" d="M 628 4666 
L 1569 4666 
L 2759 1491 
L 3956 4666 
L 4897 4666 
L 4897 0 
L 4281 0 
L 4281 4097 
L 3078 897 
L 2444 897 
L 1241 4097 
L 1241 0 
L 628 0 
L 628 4666 
z
" transform="scale(0.015625)"/>
       <path id="DejaVuSans-20" transform="scale(0.015625)"/>
       <path id="DejaVuSans-6e" d="M 3513 2113 
L 3513 0 
L 2938 0 
L 2938 2094 
Q 2938 2591 2744 2837 
Q 2550 3084 2163 3084 
Q 1697 3084 1428 2787 
Q 1159 2491 1159 1978 
L 1159 0 
L 581 0 
L 581 3500 
L 1159 3500 
L 1159 2956 
Q 1366 3272 1645 3428 
Q 1925 3584 2291 3584 
Q 2894 3584 3203 3211 
Q 3513 2838 3513 2113 
z
" transform="scale(0.015625)"/>
       <path id="DejaVuSans-6f" d="M 1959 3097 
Q 1497 3097 1228 2736 
Q 959 2375 959 1747 
Q 959 1119 1226 758 
Q 1494 397 1959 397 
Q 2419 397 2687 759 
Q 2956 1122 2956 1747 
Q 2956 2369 2687 2733 
Q 2419 3097 1959 3097 
z
M 1959 3584 
Q 2709 3584 3137 3096 
Q 3566 2609 3566 1747 
Q 3566 888 3137 398 
Q 2709 -91 1959 -91 
Q 1206 -91 779 398 
Q 353 888 353 1747 
Q 353 2609 779 3096 
Q 1206 3584 1959 3584 
z
" transform="scale(0.015625)"/>
       <path id="DejaVuSans-64" d="M 2906 2969 
L 2906 4863 
L 3481 4863 
L 3481 0 
L 2906 0 
L 2906 525 
Q 2725 213 2448 61 
Q 2172 -91 1784 -91 
Q 1150 -91 751 415 
Q 353 922 353 1747 
Q 353 2572 751 3078 
Q 1150 3584 1784 3584 
Q 2172 3584 2448 3432 
Q 2725 3281 2906 2969 
z
M 947 1747 
Q 947 1113 1208 752 
Q 1469 391 1925 391 
Q 2381 391 2643 752 
Q 2906 1113 2906 1747 
Q 2906 2381 2643 2742 
Q 2381 3103 1925 3103 
Q 1469 3103 1208 2742 
Q 947 2381 947 1747 
z
" transform="scale(0.015625)"/>
       <path id="DejaVuSans-65" d="M 3597 1894 
L 3597 1613 
L 953 1613 
Q 991 1019 1311 708 
Q 1631 397 2203 397 
Q 2534 397 2845 478 
Q 3156 559 3463 722 
L 3463 178 
Q 3153 47 2828 -22 
Q 2503 -91 2169 -91 
Q 1331 -91 842 396 
Q 353 884 353 1716 
Q 353 2575 817 3079 
Q 1281 3584 2069 3584 
Q 2775 3584 3186 3129 
Q 3597 2675 3597 1894 
z
M 3022 2063 
Q 3016 2534 2758 2815 
Q 2500 3097 2075 3097 
Q 1594 3097 1305 2825 
Q 1016 2553 972 2059 
L 3022 2063 
z
" transform="scale(0.015625)"/>
      </defs>
      <use xlink:href="#DejaVuSans-50"/>
      <use xlink:href="#DejaVuSans-49" x="60.302734"/>
      <use xlink:href="#DejaVuSans-4d" x="89.794922"/>
      <use xlink:href="#DejaVuSans-20" x="176.074219"/>
      <use xlink:href="#DejaVuSans-6e" x="207.861328"/>
      <use xlink:href="#DejaVuSans-6f" x="271.240234"/>
      <use xlink:href="#DejaVuSans-64" x="332.421875"/>
      <use xlink:href="#DejaVuSans-65" x="395.898438"/>
     </g>
    </g>
   </g>
   <g id="matplotlib.axis_2">
    <g id="ytick_1">
     <g id="line2d_34">
      <path d="M 69.12 247.699202 
L 437.76 247.699202 
" clip-path="url(#pb96a0822b4)" style="fill: none; stroke: #b0b0b0; stroke-width: 0.8; stroke-linecap: square"/>
     </g>
     <g id="line2d_35">
      <defs>
       <path id="m2ed63dbdee" d="M 0 0 
L -3.5 0 
" style="stroke: #000000; stroke-width: 0.8"/>
      </defs>
      <g>
       <use xlink:href="#m2ed63dbdee" x="69.12" y="247.699202" style="stroke: #000000; stroke-width: 0.8"/>
      </g>
     </g>
     <g id="text_6">
      <!-- 2000 -->
      <g transform="translate(16.31 254.537795) scale(0.18 -0.18)">
       <use xlink:href="#DejaVuSans-32"/>
       <use xlink:href="#DejaVuSans-30" x="63.623047"/>
       <use xlink:href="#DejaVuSans-30" x="127.246094"/>
       <use xlink:href="#DejaVuSans-30" x="190.869141"/>
      </g>
     </g>
    </g>
    <g id="ytick_2">
     <g id="line2d_36">
      <path d="M 69.12 201.615361 
L 437.76 201.615361 
" clip-path="url(#pb96a0822b4)" style="fill: none; stroke: #b0b0b0; stroke-width: 0.8; stroke-linecap: square"/>
     </g>
     <g id="line2d_37">
      <g>
       <use xlink:href="#m2ed63dbdee" x="69.12" y="201.615361" style="stroke: #000000; stroke-width: 0.8"/>
      </g>
     </g>
     <g id="text_7">
      <!-- 4000 -->
      <g transform="translate(16.31 208.453955) scale(0.18 -0.18)">
       <defs>
        <path id="DejaVuSans-34" d="M 2419 4116 
L 825 1625 
L 2419 1625 
L 2419 4116 
z
M 2253 4666 
L 3047 4666 
L 3047 1625 
L 3713 1625 
L 3713 1100 
L 3047 1100 
L 3047 0 
L 2419 0 
L 2419 1100 
L 313 1100 
L 313 1709 
L 2253 4666 
z
" transform="scale(0.015625)"/>
       </defs>
       <use xlink:href="#DejaVuSans-34"/>
       <use xlink:href="#DejaVuSans-30" x="63.623047"/>
       <use xlink:href="#DejaVuSans-30" x="127.246094"/>
       <use xlink:href="#DejaVuSans-30" x="190.869141"/>
      </g>
     </g>
    </g>
    <g id="ytick_3">
     <g id="line2d_38">
      <path d="M 69.12 155.531521 
L 437.76 155.531521 
" clip-path="url(#pb96a0822b4)" style="fill: none; stroke: #b0b0b0; stroke-width: 0.8; stroke-linecap: square"/>
     </g>
     <g id="line2d_39">
      <g>
       <use xlink:href="#m2ed63dbdee" x="69.12" y="155.531521" style="stroke: #000000; stroke-width: 0.8"/>
      </g>
     </g>
     <g id="text_8">
      <!-- 6000 -->
      <g transform="translate(16.31 162.370115) scale(0.18 -0.18)">
       <defs>
        <path id="DejaVuSans-36" d="M 2113 2584 
Q 1688 2584 1439 2293 
Q 1191 2003 1191 1497 
Q 1191 994 1439 701 
Q 1688 409 2113 409 
Q 2538 409 2786 701 
Q 3034 994 3034 1497 
Q 3034 2003 2786 2293 
Q 2538 2584 2113 2584 
z
M 3366 4563 
L 3366 3988 
Q 3128 4100 2886 4159 
Q 2644 4219 2406 4219 
Q 1781 4219 1451 3797 
Q 1122 3375 1075 2522 
Q 1259 2794 1537 2939 
Q 1816 3084 2150 3084 
Q 2853 3084 3261 2657 
Q 3669 2231 3669 1497 
Q 3669 778 3244 343 
Q 2819 -91 2113 -91 
Q 1303 -91 875 529 
Q 447 1150 447 2328 
Q 447 3434 972 4092 
Q 1497 4750 2381 4750 
Q 2619 4750 2861 4703 
Q 3103 4656 3366 4563 
z
" transform="scale(0.015625)"/>
       </defs>
       <use xlink:href="#DejaVuSans-36"/>
       <use xlink:href="#DejaVuSans-30" x="63.623047"/>
       <use xlink:href="#DejaVuSans-30" x="127.246094"/>
       <use xlink:href="#DejaVuSans-30" x="190.869141"/>
      </g>
     </g>
    </g>
    <g id="ytick_4">
     <g id="line2d_40">
      <path d="M 69.12 109.447681 
L 437.76 109.447681 
" clip-path="url(#pb96a0822b4)" style="fill: none; stroke: #b0b0b0; stroke-width: 0.8; stroke-linecap: square"/>
     </g>
     <g id="line2d_41">
      <g>
       <use xlink:href="#m2ed63dbdee" x="69.12" y="109.447681" style="stroke: #000000; stroke-width: 0.8"/>
      </g>
     </g>
     <g id="text_9">
      <!-- 8000 -->
      <g transform="translate(16.31 116.286274) scale(0.18 -0.18)">
       <defs>
        <path id="DejaVuSans-38" d="M 2034 2216 
Q 1584 2216 1326 1975 
Q 1069 1734 1069 1313 
Q 1069 891 1326 650 
Q 1584 409 2034 409 
Q 2484 409 2743 651 
Q 3003 894 3003 1313 
Q 3003 1734 2745 1975 
Q 2488 2216 2034 2216 
z
M 1403 2484 
Q 997 2584 770 2862 
Q 544 3141 544 3541 
Q 544 4100 942 4425 
Q 1341 4750 2034 4750 
Q 2731 4750 3128 4425 
Q 3525 4100 3525 3541 
Q 3525 3141 3298 2862 
Q 3072 2584 2669 2484 
Q 3125 2378 3379 2068 
Q 3634 1759 3634 1313 
Q 3634 634 3220 271 
Q 2806 -91 2034 -91 
Q 1263 -91 848 271 
Q 434 634 434 1313 
Q 434 1759 690 2068 
Q 947 2378 1403 2484 
z
M 1172 3481 
Q 1172 3119 1398 2916 
Q 1625 2713 2034 2713 
Q 2441 2713 2670 2916 
Q 2900 3119 2900 3481 
Q 2900 3844 2670 4047 
Q 2441 4250 2034 4250 
Q 1625 4250 1398 4047 
Q 1172 3844 1172 3481 
z
" transform="scale(0.015625)"/>
       </defs>
       <use xlink:href="#DejaVuSans-38"/>
       <use xlink:href="#DejaVuSans-30" x="63.623047"/>
       <use xlink:href="#DejaVuSans-30" x="127.246094"/>
       <use xlink:href="#DejaVuSans-30" x="190.869141"/>
      </g>
     </g>
    </g>
    <g id="ytick_5">
     <g id="line2d_42">
      <path d="M 69.12 63.36384 
L 437.76 63.36384 
" clip-path="url(#pb96a0822b4)" style="fill: none; stroke: #b0b0b0; stroke-width: 0.8; stroke-linecap: square"/>
     </g>
     <g id="line2d_43">
      <g>
       <use xlink:href="#m2ed63dbdee" x="69.12" y="63.36384" style="stroke: #000000; stroke-width: 0.8"/>
      </g>
     </g>
     <g id="text_10">
      <!-- 10000 -->
      <g transform="translate(4.8575 70.202434) scale(0.18 -0.18)">
       <use xlink:href="#DejaVuSans-31"/>
       <use xlink:href="#DejaVuSans-30" x="63.623047"/>
       <use xlink:href="#DejaVuSans-30" x="127.246094"/>
       <use xlink:href="#DejaVuSans-30" x="190.869141"/>
       <use xlink:href="#DejaVuSans-30" x="254.492188"/>
      </g>
     </g>
    </g>
    <g id="ytick_6">
     <g id="line2d_44">
      <path d="M 69.12 17.28 
L 437.76 17.28 
" clip-path="url(#pb96a0822b4)" style="fill: none; stroke: #b0b0b0; stroke-width: 0.8; stroke-linecap: square"/>
     </g>
     <g id="line2d_45">
      <g>
       <use xlink:href="#m2ed63dbdee" x="69.12" y="17.28" style="stroke: #000000; stroke-width: 0.8"/>
      </g>
     </g>
     <g id="text_11">
      <!-- 12000 -->
      <g transform="translate(4.8575 24.118594) scale(0.18 -0.18)">
       <use xlink:href="#DejaVuSans-31"/>
       <use xlink:href="#DejaVuSans-32" x="63.623047"/>
       <use xlink:href="#DejaVuSans-30" x="127.246094"/>
       <use xlink:href="#DejaVuSans-30" x="190.869141"/>
       <use xlink:href="#DejaVuSans-30" x="254.492188"/>
      </g>
     </g>
    </g>
    <g id="ytick_7">
     <g id="line2d_46">
      <path d="M 69.12 292.861365 
L 437.76 292.861365 
" clip-path="url(#pb96a0822b4)" style="fill: none; stroke: #b0b0b0; stroke-width: 0.8; stroke-linecap: square"/>
     </g>
     <g id="line2d_47">
      <g>
       <use xlink:href="#m2ed63dbdee" x="69.12" y="292.861365" style="stroke: #000000; stroke-width: 0.8"/>
      </g>
     </g>
     <g id="text_12">
      <!-- 40 -->
      <g transform="translate(39.215 299.699959) scale(0.18 -0.18)">
       <use xlink:href="#DejaVuSans-34"/>
       <use xlink:href="#DejaVuSans-30" x="63.623047"/>
      </g>
     </g>
    </g>
    <g id="text_13">
     <!-- number of queries -->
     <g transform="translate(-2.885937 238.422656) rotate(-90) scale(0.18 -0.18)">
      <defs>
       <path id="DejaVuSans-75" d="M 544 1381 
L 544 3500 
L 1119 3500 
L 1119 1403 
Q 1119 906 1312 657 
Q 1506 409 1894 409 
Q 2359 409 2629 706 
Q 2900 1003 2900 1516 
L 2900 3500 
L 3475 3500 
L 3475 0 
L 2900 0 
L 2900 538 
Q 2691 219 2414 64 
Q 2138 -91 1772 -91 
Q 1169 -91 856 284 
Q 544 659 544 1381 
z
M 1991 3584 
L 1991 3584 
z
" transform="scale(0.015625)"/>
       <path id="DejaVuSans-6d" d="M 3328 2828 
Q 3544 3216 3844 3400 
Q 4144 3584 4550 3584 
Q 5097 3584 5394 3201 
Q 5691 2819 5691 2113 
L 5691 0 
L 5113 0 
L 5113 2094 
Q 5113 2597 4934 2840 
Q 4756 3084 4391 3084 
Q 3944 3084 3684 2787 
Q 3425 2491 3425 1978 
L 3425 0 
L 2847 0 
L 2847 2094 
Q 2847 2600 2669 2842 
Q 2491 3084 2119 3084 
Q 1678 3084 1418 2786 
Q 1159 2488 1159 1978 
L 1159 0 
L 581 0 
L 581 3500 
L 1159 3500 
L 1159 2956 
Q 1356 3278 1631 3431 
Q 1906 3584 2284 3584 
Q 2666 3584 2933 3390 
Q 3200 3197 3328 2828 
z
" transform="scale(0.015625)"/>
       <path id="DejaVuSans-62" d="M 3116 1747 
Q 3116 2381 2855 2742 
Q 2594 3103 2138 3103 
Q 1681 3103 1420 2742 
Q 1159 2381 1159 1747 
Q 1159 1113 1420 752 
Q 1681 391 2138 391 
Q 2594 391 2855 752 
Q 3116 1113 3116 1747 
z
M 1159 2969 
Q 1341 3281 1617 3432 
Q 1894 3584 2278 3584 
Q 2916 3584 3314 3078 
Q 3713 2572 3713 1747 
Q 3713 922 3314 415 
Q 2916 -91 2278 -91 
Q 1894 -91 1617 61 
Q 1341 213 1159 525 
L 1159 0 
L 581 0 
L 581 4863 
L 1159 4863 
L 1159 2969 
z
" transform="scale(0.015625)"/>
       <path id="DejaVuSans-72" d="M 2631 2963 
Q 2534 3019 2420 3045 
Q 2306 3072 2169 3072 
Q 1681 3072 1420 2755 
Q 1159 2438 1159 1844 
L 1159 0 
L 581 0 
L 581 3500 
L 1159 3500 
L 1159 2956 
Q 1341 3275 1631 3429 
Q 1922 3584 2338 3584 
Q 2397 3584 2469 3576 
Q 2541 3569 2628 3553 
L 2631 2963 
z
" transform="scale(0.015625)"/>
       <path id="DejaVuSans-66" d="M 2375 4863 
L 2375 4384 
L 1825 4384 
Q 1516 4384 1395 4259 
Q 1275 4134 1275 3809 
L 1275 3500 
L 2222 3500 
L 2222 3053 
L 1275 3053 
L 1275 0 
L 697 0 
L 697 3053 
L 147 3053 
L 147 3500 
L 697 3500 
L 697 3744 
Q 697 4328 969 4595 
Q 1241 4863 1831 4863 
L 2375 4863 
z
" transform="scale(0.015625)"/>
       <path id="DejaVuSans-71" d="M 947 1747 
Q 947 1113 1208 752 
Q 1469 391 1925 391 
Q 2381 391 2643 752 
Q 2906 1113 2906 1747 
Q 2906 2381 2643 2742 
Q 2381 3103 1925 3103 
Q 1469 3103 1208 2742 
Q 947 2381 947 1747 
z
M 2906 525 
Q 2725 213 2448 61 
Q 2172 -91 1784 -91 
Q 1150 -91 751 415 
Q 353 922 353 1747 
Q 353 2572 751 3078 
Q 1150 3584 1784 3584 
Q 2172 3584 2448 3432 
Q 2725 3281 2906 2969 
L 2906 3500 
L 3481 3500 
L 3481 -1331 
L 2906 -1331 
L 2906 525 
z
" transform="scale(0.015625)"/>
       <path id="DejaVuSans-69" d="M 603 3500 
L 1178 3500 
L 1178 0 
L 603 0 
L 603 3500 
z
M 603 4863 
L 1178 4863 
L 1178 4134 
L 603 4134 
L 603 4863 
z
" transform="scale(0.015625)"/>
       <path id="DejaVuSans-73" d="M 2834 3397 
L 2834 2853 
Q 2591 2978 2328 3040 
Q 2066 3103 1784 3103 
Q 1356 3103 1142 2972 
Q 928 2841 928 2578 
Q 928 2378 1081 2264 
Q 1234 2150 1697 2047 
L 1894 2003 
Q 2506 1872 2764 1633 
Q 3022 1394 3022 966 
Q 3022 478 2636 193 
Q 2250 -91 1575 -91 
Q 1294 -91 989 -36 
Q 684 19 347 128 
L 347 722 
Q 666 556 975 473 
Q 1284 391 1588 391 
Q 1994 391 2212 530 
Q 2431 669 2431 922 
Q 2431 1156 2273 1281 
Q 2116 1406 1581 1522 
L 1381 1569 
Q 847 1681 609 1914 
Q 372 2147 372 2553 
Q 372 3047 722 3315 
Q 1072 3584 1716 3584 
Q 2034 3584 2315 3537 
Q 2597 3491 2834 3397 
z
" transform="scale(0.015625)"/>
      </defs>
      <use xlink:href="#DejaVuSans-6e"/>
      <use xlink:href="#DejaVuSans-75" x="63.378906"/>
      <use xlink:href="#DejaVuSans-6d" x="126.757812"/>
      <use xlink:href="#DejaVuSans-62" x="224.169922"/>
      <use xlink:href="#DejaVuSans-65" x="287.646484"/>
      <use xlink:href="#DejaVuSans-72" x="349.169922"/>
      <use xlink:href="#DejaVuSans-20" x="390.283203"/>
      <use xlink:href="#DejaVuSans-6f" x="422.070312"/>
      <use xlink:href="#DejaVuSans-66" x="483.251953"/>
      <use xlink:href="#DejaVuSans-20" x="518.457031"/>
      <use xlink:href="#DejaVuSans-71" x="550.244141"/>
      <use xlink:href="#DejaVuSans-75" x="613.720703"/>
      <use xlink:href="#DejaVuSans-65" x="677.099609"/>
      <use xlink:href="#DejaVuSans-72" x="738.623047"/>
      <use xlink:href="#DejaVuSans-69" x="779.736328"/>
      <use xlink:href="#DejaVuSans-65" x="807.519531"/>
      <use xlink:href="#DejaVuSans-73" x="869.042969"/>
     </g>
    </g>
   </g>
   <g id="line2d_48">
    <path d="M 69.12 31.542949 
L 101.776852 156.061485 
L 120.879887 189.080557 
L 134.433705 217.929041 
L 144.946863 236.63908 
L 153.536739 247.123154 
L 160.799376 254.726987 
L 167.090557 258.574988 
L 172.639773 263.87463 
L 177.603716 266.201863 
L 182.094148 269.842487 
L 186.193592 270.00378 
L 189.964714 273.068356 
L 193.456228 275.211254 
L 196.70675 276.248141 
L 199.74741 276.708979 
L 202.603671 277.999327 
L 205.296626 278.367997 
L 207.843942 279.681387 
L 210.260568 280.487854 
L 212.559262 280.510896 
L 214.751001 281.616908 
L 216.845296 281.732118 
L 218.850444 282.769004 
L 220.773727 283.206801 
L 222.621567 283.80589 
L 226.113081 284.03631 
L 227.766369 284.197603 
L 229.363602 284.773651 
L 232.404262 285.073196 
L 233.854035 285.464909 
L 235.260524 286.063999 
L 236.626239 286.31746 
L 239.24435 286.432669 
L 240.500795 286.755256 
L 244.080786 287.054801 
L 245.216115 287.077843 
L 246.324728 287.239137 
L 247.407853 287.838227 
L 249.502148 288.045604 
L 253.430579 288.183855 
L 254.363558 288.322107 
L 255.278419 288.345149 
L 256.175853 288.621652 
L 258.769933 288.805987 
L 260.423221 289.08249 
L 265.791577 289.428119 
L 266.510887 289.658538 
L 267.917376 289.727664 
L 268.605182 289.750706 
L 269.283091 289.958083 
L 270.610331 290.004167 
L 271.901203 290.211544 
L 276.737638 290.372838 
L 277.308722 290.557173 
L 280.597071 290.649341 
L 283.670806 290.971928 
L 285.135604 291.041053 
L 287.480061 291.156263 
L 289.275093 291.248431 
L 290.577864 291.317556 
L 293.080074 291.409724 
L 304.558055 291.96273 
L 306.735321 292.054898 
L 307.638491 292.100982 
L 311.911557 292.193149 
L 314.559101 292.308359 
L 318.979267 292.400527 
L 320.592124 292.469652 
L 324.083638 292.56182 
L 325.329011 292.607904 
L 329.257442 292.700072 
L 330.190421 292.723114 
L 335.26509 292.815281 
L 336.087342 292.838323 
L 341.181524 292.930491 
L 341.907484 292.953533 
L 350.087356 293.0457 
L 350.689074 293.068742 
L 358.190263 293.16091 
L 358.697414 293.183952 
L 368.334862 293.27612 
L 368.825636 293.299162 
L 380.765383 293.391329 
L 381.142799 293.414371 
L 397.80282 293.506539 
L 398.066027 293.529581 
L 422.368639 293.621748 
L 422.551099 293.64479 
L 437.267648 293.736958 
L 437.41969 293.76 
L 437.741158 293.783042 
L 437.741158 293.783042 
" clip-path="url(#pb96a0822b4)" style="fill: none; stroke: #800000; stroke-width: 3; stroke-linecap: square"/>
   </g>
   <g id="line2d_49">
    <path d="M 69.12 140.439063 
L 101.776852 216.546526 
L 120.879887 231.408564 
L 134.433705 250.763777 
L 144.946863 252.307586 
L 153.536739 252.491921 
L 160.799376 254.03573 
L 167.090557 260.3953 
L 172.639773 263.575085 
L 177.603716 265.188019 
L 182.094148 267.976091 
L 186.193592 271.063709 
L 193.456228 271.31717 
L 196.70675 271.547589 
L 202.603671 271.708882 
L 205.296626 272.100595 
L 207.843942 273.59832 
L 210.260568 275.856428 
L 212.559262 277.031566 
L 214.751001 277.907159 
L 216.845296 278.460165 
L 218.850444 279.612261 
L 220.773727 279.658345 
L 222.621567 280.994776 
L 224.39966 281.709076 
L 226.113081 281.732118 
L 227.766369 281.985579 
L 229.363602 282.400333 
L 232.404262 282.446417 
L 233.854035 282.815088 
L 236.626239 282.907256 
L 237.953478 282.907256 
L 239.24435 283.944142 
L 241.724601 284.105435 
L 242.917421 284.381938 
L 245.216115 284.497148 
L 247.407853 285.142322 
L 248.466637 285.142322 
L 250.515389 285.441867 
L 251.507297 285.441867 
L 252.478751 285.810538 
L 253.430579 285.810538 
L 255.278419 286.732214 
L 258.769933 287.077843 
L 261.228606 287.446514 
L 262.799214 287.607807 
L 263.565311 287.838227 
L 267.21938 287.976478 
L 271.260188 288.805987 
L 274.381453 288.921197 
L 276.159546 289.243784 
L 276.737638 289.243784 
L 277.872967 289.451161 
L 287.02041 290.303712 
L 288.832706 290.580215 
L 293.080074 290.856718 
L 293.885459 290.948886 
L 295.840672 291.087137 
L 298.084614 291.179305 
L 298.809458 291.317556 
L 301.262035 291.409724 
L 303.267183 291.59406 
L 305.8145 291.686227 
L 309.106331 291.824479 
L 311.638433 291.916646 
L 314.815853 292.07794 
L 316.327658 292.170108 
L 318.508124 292.262275 
L 323.234716 292.354443 
L 324.2935 292.377485 
L 328.112919 292.469652 
L 329.445522 292.538778 
L 332.18017 292.630946 
L 333.231081 292.67703 
L 336.89549 292.769197 
L 337.69001 292.792239 
L 342.622427 292.884407 
L 343.466281 292.930491 
L 349.722602 293.022659 
L 350.328967 293.0457 
L 358.495208 293.137868 
L 358.999105 293.16091 
L 367.58898 293.253078 
L 368.087545 293.27612 
L 379.224737 293.368287 
L 379.614647 293.391329 
L 395.688525 293.483497 
L 395.963777 293.506539 
L 418.901226 293.598707 
L 419.097592 293.621748 
L 436.673808 293.713916 
L 436.827775 293.736958 
L 437.741158 293.76 
L 437.741158 293.76 
" clip-path="url(#pb96a0822b4)" style="fill: none; stroke: #a52a2a; stroke-width: 3; stroke-linecap: square"/>
   </g>
   <g id="line2d_50">
    <path d="M 69.12 250.32598 
L 101.776852 262.376905 
L 120.879887 262.584282 
L 134.433705 262.952953 
L 144.946863 262.999037 
L 153.536739 265.418438 
L 160.799376 266.224905 
L 167.090557 267.906966 
L 172.639773 268.160427 
L 177.603716 269.427732 
L 182.094148 270.741122 
L 186.193592 270.810248 
L 189.964714 271.409337 
L 193.456228 271.455421 
L 196.70675 271.708882 
L 199.74741 271.708882 
L 212.559262 272.354056 
L 214.751001 272.377098 
L 216.845296 272.907062 
L 218.850444 273.575278 
L 220.773727 275.003877 
L 222.621567 276.939398 
L 224.39966 278.414081 
L 226.113081 279.013171 
L 227.766369 279.151423 
L 229.363602 280.580022 
L 230.908458 281.15607 
L 233.854035 281.340405 
L 235.260524 282.054705 
L 236.626239 282.400333 
L 237.953478 282.400333 
L 239.24435 282.607711 
L 241.724601 282.792046 
L 245.216115 283.022465 
L 247.407853 283.114633 
L 248.466637 283.345052 
L 249.502148 283.368094 
L 250.515389 283.944142 
L 251.507297 284.128477 
L 252.478751 284.151519 
L 253.430579 284.40498 
L 257.056512 284.451064 
L 257.921011 284.589316 
L 258.769933 285.027112 
L 260.423221 285.188406 
L 262.020455 285.372741 
L 262.799214 285.395783 
L 264.319149 285.649244 
L 265.061115 285.741412 
L 267.21938 286.893508 
L 268.605182 286.962634 
L 271.260188 287.308262 
L 272.533613 287.40043 
L 273.773524 287.492598 
L 274.981638 287.723017 
L 276.737638 287.769101 
L 277.872967 287.930394 
L 278.430534 287.930394 
L 280.597071 288.460358 
L 281.64409 288.506442 
L 282.668345 288.690778 
L 283.670806 288.829029 
L 284.65238 288.990323 
L 286.087432 289.08249 
L 287.02041 289.1977 
L 287.935272 289.289867 
L 288.832706 289.451161 
L 291.845578 289.842874 
L 293.885459 289.981125 
L 294.677307 290.142419 
L 295.456067 290.234586 
L 298.084614 290.326754 
L 301.262035 290.511089 
L 301.602209 290.695425 
L 303.593232 290.87976 
L 303.91704 290.87976 
L 304.238638 291.041053 
L 305.8145 291.133221 
L 306.735321 291.179305 
L 318.032222 291.939688 
L 320.136914 292.031856 
L 321.711271 292.100982 
L 324.71044 292.193149 
L 325.939567 292.239233 
L 328.497525 292.331401 
L 330.005297 292.423569 
L 332.356958 292.515736 
L 333.403976 292.56182 
L 337.847318 292.653988 
L 338.780297 292.700072 
L 342.905394 292.792239 
L 343.744239 292.838323 
L 348.735888 292.930491 
L 349.477854 292.976575 
L 356.317942 293.068742 
L 356.845538 293.091784 
L 365.189937 293.183952 
L 365.714402 293.206994 
L 374.636321 293.299162 
L 375.065934 293.322204 
L 386.412738 293.414371 
L 386.747672 293.437413 
L 404.247718 293.529581 
L 404.477355 293.552623 
L 427.790001 293.64479 
L 427.952663 293.667832 
L 437.741158 293.76 
L 437.741158 293.76 
" clip-path="url(#pb96a0822b4)" style="fill: none; stroke: #f08080; stroke-width: 3; stroke-linecap: square"/>
   </g>
   <g id="line2d_51">
    <path d="M 69.12 270.280283 
L 101.776852 270.764164 
L 120.879887 270.925457 
L 134.433705 270.925457 
L 160.799376 271.248044 
L 167.090557 271.731924 
L 172.639773 271.962344 
L 186.193592 272.169721 
L 189.964714 272.423182 
L 193.456228 273.321817 
L 196.70675 273.390943 
L 202.603671 273.713529 
L 207.843942 273.805697 
L 210.260568 274.243494 
L 214.751001 274.404787 
L 216.845296 275.856428 
L 218.850444 276.386392 
L 220.773727 276.685937 
L 222.621567 277.192859 
L 224.39966 277.861075 
L 226.113081 278.782752 
L 227.766369 279.497051 
L 229.363602 279.520093 
L 230.908458 279.773554 
L 232.404262 281.732118 
L 233.854035 281.893411 
L 235.260524 281.916453 
L 236.626239 282.169914 
L 239.24435 282.285124 
L 244.080786 282.561627 
L 248.466637 282.72292 
L 249.502148 283.091591 
L 254.363558 284.243687 
L 255.278419 284.266729 
L 257.056512 284.589316 
L 257.921011 284.865819 
L 259.603829 284.911903 
L 262.020455 285.211448 
L 265.061115 285.695328 
L 266.510887 285.994873 
L 267.917376 286.31746 
L 269.951385 286.524837 
L 270.610331 286.524837 
L 271.260188 286.824382 
L 272.533613 286.962634 
L 275.574273 287.492598 
L 277.872967 287.676933 
L 278.430534 287.907352 
L 281.123489 288.229939 
L 282.668345 288.529484 
L 284.164149 288.621652 
L 291.004237 289.335951 
L 291.845578 289.520287 
L 293.484487 289.543329 
L 293.885459 289.704622 
L 294.677307 289.79679 
L 296.222163 290.050251 
L 298.44843 290.142419 
L 306.430376 290.718467 
L 307.038306 290.833676 
L 314.300942 291.294515 
L 316.079035 291.386682 
L 320.592124 291.709269 
L 322.587834 291.801437 
L 324.71044 291.916646 
L 326.542311 291.985772 
L 327.53006 292.100982 
L 330.190421 292.193149 
L 331.46631 292.262275 
L 333.057549 292.354443 
L 334.76476 292.469652 
L 338.471352 292.56182 
L 339.392174 292.607904 
L 343.186672 292.700072 
L 343.882606 292.723114 
L 347.472706 292.815281 
L 348.10853 292.838323 
L 351.283204 292.930491 
L 351.869935 292.953533 
L 357.263402 293.0457 
L 357.780574 293.068742 
L 364.570591 293.16091 
L 365.101956 293.183952 
L 373.691832 293.27612 
L 374.130104 293.299162 
L 384.526788 293.391329 
L 384.875351 293.414371 
L 401.401047 293.506539 
L 401.64495 293.529581 
L 423.325167 293.621748 
L 423.503968 293.64479 
L 437.476579 293.736958 
L 437.627949 293.76 
L 437.741158 293.76 
L 437.741158 293.76 
" clip-path="url(#pb96a0822b4)" style="fill: none; stroke: #ffe4e1; stroke-width: 3; stroke-linecap: square"/>
   </g>
   <g id="line2d_52">
    <path d="M 69.12 292.861365 
L 437.741158 292.861365 
L 437.741158 292.861365 
" clip-path="url(#pb96a0822b4)" style="fill: none; stroke-dasharray: 11.1,4.8; stroke-dashoffset: 0; stroke: #000000; stroke-width: 3"/>
   </g>
   <g id="patch_3">
    <path d="M 69.12 293.76 
L 69.12 17.28 
" style="fill: none; stroke: #000000; stroke-width: 0.8; stroke-linejoin: miter; stroke-linecap: square"/>
   </g>
   <g id="patch_4">
    <path d="M 437.76 293.76 
L 437.76 17.28 
" style="fill: none; stroke: #000000; stroke-width: 0.8; stroke-linejoin: miter; stroke-linecap: square"/>
   </g>
   <g id="patch_5">
    <path d="M 69.12 293.76 
L 437.76 293.76 
" style="fill: none; stroke: #000000; stroke-width: 0.8; stroke-linejoin: miter; stroke-linecap: square"/>
   </g>
   <g id="patch_6">
    <path d="M 69.12 17.28 
L 437.76 17.28 
" style="fill: none; stroke: #000000; stroke-width: 0.8; stroke-linejoin: miter; stroke-linecap: square"/>
   </g>
   <g id="legend_1">
    <g id="patch_7">
     <path d="M 199.62 163.783125 
L 425.16 163.783125 
Q 428.76 163.783125 428.76 160.183125 
L 428.76 29.88 
Q 428.76 26.28 425.16 26.28 
L 199.62 26.28 
Q 196.02 26.28 196.02 29.88 
L 196.02 160.183125 
Q 196.02 163.783125 199.62 163.783125 
z
" style="fill: #008000; opacity: 0.2; stroke: #000000; stroke-linejoin: miter"/>
    </g>
    <g id="line2d_53">
     <path d="M 203.22 40.857188 
L 221.22 40.857188 
L 239.22 40.857188 
" style="fill: none; stroke: #800000; stroke-width: 3; stroke-linecap: square"/>
    </g>
    <g id="text_14">
     <!-- batch 0 -->
     <g transform="translate(253.62 47.157188) scale(0.18 -0.18)">
      <defs>
       <path id="DejaVuSans-61" d="M 2194 1759 
Q 1497 1759 1228 1600 
Q 959 1441 959 1056 
Q 959 750 1161 570 
Q 1363 391 1709 391 
Q 2188 391 2477 730 
Q 2766 1069 2766 1631 
L 2766 1759 
L 2194 1759 
z
M 3341 1997 
L 3341 0 
L 2766 0 
L 2766 531 
Q 2569 213 2275 61 
Q 1981 -91 1556 -91 
Q 1019 -91 701 211 
Q 384 513 384 1019 
Q 384 1609 779 1909 
Q 1175 2209 1959 2209 
L 2766 2209 
L 2766 2266 
Q 2766 2663 2505 2880 
Q 2244 3097 1772 3097 
Q 1472 3097 1187 3025 
Q 903 2953 641 2809 
L 641 3341 
Q 956 3463 1253 3523 
Q 1550 3584 1831 3584 
Q 2591 3584 2966 3190 
Q 3341 2797 3341 1997 
z
" transform="scale(0.015625)"/>
       <path id="DejaVuSans-74" d="M 1172 4494 
L 1172 3500 
L 2356 3500 
L 2356 3053 
L 1172 3053 
L 1172 1153 
Q 1172 725 1289 603 
Q 1406 481 1766 481 
L 2356 481 
L 2356 0 
L 1766 0 
Q 1100 0 847 248 
Q 594 497 594 1153 
L 594 3053 
L 172 3053 
L 172 3500 
L 594 3500 
L 594 4494 
L 1172 4494 
z
" transform="scale(0.015625)"/>
       <path id="DejaVuSans-63" d="M 3122 3366 
L 3122 2828 
Q 2878 2963 2633 3030 
Q 2388 3097 2138 3097 
Q 1578 3097 1268 2742 
Q 959 2388 959 1747 
Q 959 1106 1268 751 
Q 1578 397 2138 397 
Q 2388 397 2633 464 
Q 2878 531 3122 666 
L 3122 134 
Q 2881 22 2623 -34 
Q 2366 -91 2075 -91 
Q 1284 -91 818 406 
Q 353 903 353 1747 
Q 353 2603 823 3093 
Q 1294 3584 2113 3584 
Q 2378 3584 2631 3529 
Q 2884 3475 3122 3366 
z
" transform="scale(0.015625)"/>
       <path id="DejaVuSans-68" d="M 3513 2113 
L 3513 0 
L 2938 0 
L 2938 2094 
Q 2938 2591 2744 2837 
Q 2550 3084 2163 3084 
Q 1697 3084 1428 2787 
Q 1159 2491 1159 1978 
L 1159 0 
L 581 0 
L 581 4863 
L 1159 4863 
L 1159 2956 
Q 1366 3272 1645 3428 
Q 1925 3584 2291 3584 
Q 2894 3584 3203 3211 
Q 3513 2838 3513 2113 
z
" transform="scale(0.015625)"/>
      </defs>
      <use xlink:href="#DejaVuSans-62"/>
      <use xlink:href="#DejaVuSans-61" x="63.476562"/>
      <use xlink:href="#DejaVuSans-74" x="124.755859"/>
      <use xlink:href="#DejaVuSans-63" x="163.964844"/>
      <use xlink:href="#DejaVuSans-68" x="218.945312"/>
      <use xlink:href="#DejaVuSans-20" x="282.324219"/>
      <use xlink:href="#DejaVuSans-30" x="314.111328"/>
     </g>
    </g>
    <g id="line2d_54">
     <path d="M 203.22 67.277813 
L 221.22 67.277813 
L 239.22 67.277813 
" style="fill: none; stroke: #a52a2a; stroke-width: 3; stroke-linecap: square"/>
    </g>
    <g id="text_15">
     <!-- batch 5 -->
     <g transform="translate(253.62 73.577813) scale(0.18 -0.18)">
      <defs>
       <path id="DejaVuSans-35" d="M 691 4666 
L 3169 4666 
L 3169 4134 
L 1269 4134 
L 1269 2991 
Q 1406 3038 1543 3061 
Q 1681 3084 1819 3084 
Q 2600 3084 3056 2656 
Q 3513 2228 3513 1497 
Q 3513 744 3044 326 
Q 2575 -91 1722 -91 
Q 1428 -91 1123 -41 
Q 819 9 494 109 
L 494 744 
Q 775 591 1075 516 
Q 1375 441 1709 441 
Q 2250 441 2565 725 
Q 2881 1009 2881 1497 
Q 2881 1984 2565 2268 
Q 2250 2553 1709 2553 
Q 1456 2553 1204 2497 
Q 953 2441 691 2322 
L 691 4666 
z
" transform="scale(0.015625)"/>
      </defs>
      <use xlink:href="#DejaVuSans-62"/>
      <use xlink:href="#DejaVuSans-61" x="63.476562"/>
      <use xlink:href="#DejaVuSans-74" x="124.755859"/>
      <use xlink:href="#DejaVuSans-63" x="163.964844"/>
      <use xlink:href="#DejaVuSans-68" x="218.945312"/>
      <use xlink:href="#DejaVuSans-20" x="282.324219"/>
      <use xlink:href="#DejaVuSans-35" x="314.111328"/>
     </g>
    </g>
    <g id="line2d_55">
     <path d="M 203.22 93.698438 
L 221.22 93.698438 
L 239.22 93.698438 
" style="fill: none; stroke: #f08080; stroke-width: 3; stroke-linecap: square"/>
    </g>
    <g id="text_16">
     <!-- batch 10 -->
     <g transform="translate(253.62 99.998438) scale(0.18 -0.18)">
      <use xlink:href="#DejaVuSans-62"/>
      <use xlink:href="#DejaVuSans-61" x="63.476562"/>
      <use xlink:href="#DejaVuSans-74" x="124.755859"/>
      <use xlink:href="#DejaVuSans-63" x="163.964844"/>
      <use xlink:href="#DejaVuSans-68" x="218.945312"/>
      <use xlink:href="#DejaVuSans-20" x="282.324219"/>
      <use xlink:href="#DejaVuSans-31" x="314.111328"/>
      <use xlink:href="#DejaVuSans-30" x="377.734375"/>
     </g>
    </g>
    <g id="line2d_56">
     <path d="M 203.22 120.119063 
L 221.22 120.119063 
L 239.22 120.119063 
" style="fill: none; stroke: #ffe4e1; stroke-width: 3; stroke-linecap: square"/>
    </g>
    <g id="text_17">
     <!-- batch 49 -->
     <g transform="translate(253.62 126.419063) scale(0.18 -0.18)">
      <defs>
       <path id="DejaVuSans-39" d="M 703 97 
L 703 672 
Q 941 559 1184 500 
Q 1428 441 1663 441 
Q 2288 441 2617 861 
Q 2947 1281 2994 2138 
Q 2813 1869 2534 1725 
Q 2256 1581 1919 1581 
Q 1219 1581 811 2004 
Q 403 2428 403 3163 
Q 403 3881 828 4315 
Q 1253 4750 1959 4750 
Q 2769 4750 3195 4129 
Q 3622 3509 3622 2328 
Q 3622 1225 3098 567 
Q 2575 -91 1691 -91 
Q 1453 -91 1209 -44 
Q 966 3 703 97 
z
M 1959 2075 
Q 2384 2075 2632 2365 
Q 2881 2656 2881 3163 
Q 2881 3666 2632 3958 
Q 2384 4250 1959 4250 
Q 1534 4250 1286 3958 
Q 1038 3666 1038 3163 
Q 1038 2656 1286 2365 
Q 1534 2075 1959 2075 
z
" transform="scale(0.015625)"/>
      </defs>
      <use xlink:href="#DejaVuSans-62"/>
      <use xlink:href="#DejaVuSans-61" x="63.476562"/>
      <use xlink:href="#DejaVuSans-74" x="124.755859"/>
      <use xlink:href="#DejaVuSans-63" x="163.964844"/>
      <use xlink:href="#DejaVuSans-68" x="218.945312"/>
      <use xlink:href="#DejaVuSans-20" x="282.324219"/>
      <use xlink:href="#DejaVuSans-34" x="314.111328"/>
      <use xlink:href="#DejaVuSans-39" x="377.734375"/>
     </g>
    </g>
    <g id="line2d_57">
     <path d="M 203.22 146.539688 
L 221.22 146.539688 
L 239.22 146.539688 
" style="fill: none; stroke-dasharray: 11.1,4.8; stroke-dashoffset: 0; stroke: #000000; stroke-width: 3"/>
    </g>
    <g id="text_18">
     <!-- perfectly balanced -->
     <g transform="translate(253.62 152.839688) scale(0.18 -0.18)">
      <defs>
       <path id="DejaVuSans-70" d="M 1159 525 
L 1159 -1331 
L 581 -1331 
L 581 3500 
L 1159 3500 
L 1159 2969 
Q 1341 3281 1617 3432 
Q 1894 3584 2278 3584 
Q 2916 3584 3314 3078 
Q 3713 2572 3713 1747 
Q 3713 922 3314 415 
Q 2916 -91 2278 -91 
Q 1894 -91 1617 61 
Q 1341 213 1159 525 
z
M 3116 1747 
Q 3116 2381 2855 2742 
Q 2594 3103 2138 3103 
Q 1681 3103 1420 2742 
Q 1159 2381 1159 1747 
Q 1159 1113 1420 752 
Q 1681 391 2138 391 
Q 2594 391 2855 752 
Q 3116 1113 3116 1747 
z
" transform="scale(0.015625)"/>
       <path id="DejaVuSans-6c" d="M 603 4863 
L 1178 4863 
L 1178 0 
L 603 0 
L 603 4863 
z
" transform="scale(0.015625)"/>
       <path id="DejaVuSans-79" d="M 2059 -325 
Q 1816 -950 1584 -1140 
Q 1353 -1331 966 -1331 
L 506 -1331 
L 506 -850 
L 844 -850 
Q 1081 -850 1212 -737 
Q 1344 -625 1503 -206 
L 1606 56 
L 191 3500 
L 800 3500 
L 1894 763 
L 2988 3500 
L 3597 3500 
L 2059 -325 
z
" transform="scale(0.015625)"/>
      </defs>
      <use xlink:href="#DejaVuSans-70"/>
      <use xlink:href="#DejaVuSans-65" x="63.476562"/>
      <use xlink:href="#DejaVuSans-72" x="125"/>
      <use xlink:href="#DejaVuSans-66" x="166.113281"/>
      <use xlink:href="#DejaVuSans-65" x="201.318359"/>
      <use xlink:href="#DejaVuSans-63" x="262.841797"/>
      <use xlink:href="#DejaVuSans-74" x="317.822266"/>
      <use xlink:href="#DejaVuSans-6c" x="357.03125"/>
      <use xlink:href="#DejaVuSans-79" x="384.814453"/>
      <use xlink:href="#DejaVuSans-20" x="443.994141"/>
      <use xlink:href="#DejaVuSans-62" x="475.78125"/>
      <use xlink:href="#DejaVuSans-61" x="539.257812"/>
      <use xlink:href="#DejaVuSans-6c" x="600.537109"/>
      <use xlink:href="#DejaVuSans-61" x="628.320312"/>
      <use xlink:href="#DejaVuSans-6e" x="689.599609"/>
      <use xlink:href="#DejaVuSans-63" x="752.978516"/>
      <use xlink:href="#DejaVuSans-65" x="807.958984"/>
      <use xlink:href="#DejaVuSans-64" x="869.482422"/>
     </g>
    </g>
   </g>
  </g>
 </g>
 <defs>
  <clipPath id="pb96a0822b4">
   <rect x="69.12" y="17.28" width="368.64" height="276.48"/>
  </clipPath>
 </defs>
</svg>
