<?xml version="1.0" encoding="utf-8" standalone="no"?>
<!DOCTYPE svg PUBLIC "-//W3C//DTD SVG 1.1//EN"
  "http://www.w3.org/Graphics/SVG/1.1/DTD/svg11.dtd">
<svg xmlns:xlink="http://www.w3.org/1999/xlink" width="460.8pt" height="345.6pt" viewBox="0 0 460.8 345.6" xmlns="http://www.w3.org/2000/svg" version="1.1">
 <metadata>
  <rdf:RDF xmlns:dc="http://purl.org/dc/elements/1.1/" xmlns:cc="http://creativecommons.org/ns#" xmlns:rdf="http://www.w3.org/1999/02/22-rdf-syntax-ns#">
   <cc:Work>
    <dc:type rdf:resource="http://purl.org/dc/dcmitype/StillImage"/>
    <dc:date>2024-02-14T09:04:01.946766</dc:date>
    <dc:format>image/svg+xml</dc:format>
    <dc:creator>
     <cc:Agent>
      <dc:title>Matplotlib v3.7.0, https://matplotlib.org/</dc:title>
     </cc:Agent>
    </dc:creator>
   </cc:Work>
  </rdf:RDF>
 </metadata>
 <defs>
  <style type="text/css">*{stroke-linejoin: round; stroke-linecap: butt}</style>
 </defs>
 <g id="figure_1">
  <g id="patch_1">
   <path d="M 0 345.6 
L 460.8 345.6 
L 460.8 0 
L 0 0 
L 0 345.6 
z
" style="fill: none"/>
  </g>
  <g id="axes_1">
   <g id="patch_2">
    <path d="M 87.552 293.76 
L 451.584 293.76 
L 451.584 6.912 
L 87.552 6.912 
L 87.552 293.76 
z
" style="fill: none"/>
   </g>
   <g id="patch_3">
    <path d="M 87.919709 223.246012 
L 90.861382 223.246012 
L 90.861382 211.063409 
L 87.919709 211.063409 
z
" clip-path="url(#pd7bd9d6d43)" style="fill: #800000"/>
   </g>
   <g id="patch_4">
    <path d="M 91.5968 223.954696 
L 94.538473 223.954696 
L 94.538473 212.683256 
L 91.5968 212.683256 
z
" clip-path="url(#pd7bd9d6d43)" style="fill: #800000"/>
   </g>
   <g id="patch_5">
    <path d="M 95.273891 224.258417 
L 98.215564 224.258417 
L 98.215564 211.586485 
L 95.273891 211.586485 
z
" clip-path="url(#pd7bd9d6d43)" style="fill: #800000"/>
   </g>
   <g id="patch_6">
    <path d="M 98.950982 225.338315 
L 101.892655 225.338315 
L 101.892655 213.206332 
L 98.950982 213.206332 
z
" clip-path="url(#pd7bd9d6d43)" style="fill: #800000"/>
   </g>
   <g id="patch_7">
    <path d="M 102.628073 225.726404 
L 105.569745 225.726404 
L 105.569745 214.471838 
L 102.628073 214.471838 
z
" clip-path="url(#pd7bd9d6d43)" style="fill: #800000"/>
   </g>
   <g id="patch_8">
    <path d="M 106.305164 217.340318 
L 109.246836 217.340318 
L 109.246836 204.83712 
L 106.305164 204.83712 
z
" clip-path="url(#pd7bd9d6d43)" style="fill: #800000"/>
   </g>
   <g id="patch_9">
    <path d="M 109.982255 224.697126 
L 112.923927 224.697126 
L 112.923927 212.092687 
L 109.982255 212.092687 
z
" clip-path="url(#pd7bd9d6d43)" style="fill: #800000"/>
   </g>
   <g id="patch_10">
    <path d="M 113.659345 225.996378 
L 116.601018 225.996378 
L 116.601018 213.746281 
L 113.659345 213.746281 
z
" clip-path="url(#pd7bd9d6d43)" style="fill: #800000"/>
   </g>
   <g id="patch_11">
    <path d="M 117.336436 225.743277 
L 120.278109 225.743277 
L 120.278109 213.746281 
L 117.336436 213.746281 
z
" clip-path="url(#pd7bd9d6d43)" style="fill: #800000"/>
   </g>
   <g id="patch_12">
    <path d="M 121.013527 226.553201 
L 123.9552 226.553201 
L 123.9552 215.146775 
L 121.013527 215.146775 
z
" clip-path="url(#pd7bd9d6d43)" style="fill: #800000"/>
   </g>
   <g id="patch_13">
    <path d="M 124.690618 224.747746 
L 127.632291 224.747746 
L 127.632291 212.717003 
L 124.690618 212.717003 
z
" clip-path="url(#pd7bd9d6d43)" style="fill: #800000"/>
   </g>
   <g id="patch_14">
    <path d="M 128.367709 224.81524 
L 131.309382 224.81524 
L 131.309382 212.70013 
L 128.367709 212.70013 
z
" clip-path="url(#pd7bd9d6d43)" style="fill: #800000"/>
   </g>
   <g id="patch_15">
    <path d="M 132.0448 227.245011 
L 134.986473 227.245011 
L 134.986473 214.303104 
L 132.0448 214.303104 
z
" clip-path="url(#pd7bd9d6d43)" style="fill: #800000"/>
   </g>
   <g id="patch_16">
    <path d="M 135.721891 226.772555 
L 138.663564 226.772555 
L 138.663564 215.922952 
L 135.721891 215.922952 
z
" clip-path="url(#pd7bd9d6d43)" style="fill: #800000"/>
   </g>
   <g id="patch_17">
    <path d="M 139.398982 226.890669 
L 142.340655 226.890669 
L 142.340655 214.066876 
L 139.398982 214.066876 
z
" clip-path="url(#pd7bd9d6d43)" style="fill: #800000"/>
   </g>
   <g id="patch_18">
    <path d="M 143.076073 227.04253 
L 146.017745 227.04253 
L 146.017745 215.197395 
L 143.076073 215.197395 
z
" clip-path="url(#pd7bd9d6d43)" style="fill: #800000"/>
   </g>
   <g id="patch_19">
    <path d="M 146.753164 227.852454 
L 149.694836 227.852454 
L 149.694836 215.990445 
L 146.753164 215.990445 
z
" clip-path="url(#pd7bd9d6d43)" style="fill: #800000"/>
   </g>
   <g id="patch_20">
    <path d="M 150.430255 227.110024 
L 153.371927 227.110024 
L 153.371927 215.855458 
L 150.430255 215.855458 
z
" clip-path="url(#pd7bd9d6d43)" style="fill: #800000"/>
   </g>
   <g id="patch_21">
    <path d="M 154.107345 227.025656 
L 157.049018 227.025656 
L 157.049018 215.416749 
L 154.107345 215.416749 
z
" clip-path="url(#pd7bd9d6d43)" style="fill: #800000"/>
   </g>
   <g id="patch_22">
    <path d="M 157.784436 227.126897 
L 160.726109 227.126897 
L 160.726109 214.319977 
L 157.784436 214.319977 
z
" clip-path="url(#pd7bd9d6d43)" style="fill: #800000"/>
   </g>
   <g id="patch_23">
    <path d="M 161.461527 226.941289 
L 164.4032 226.941289 
L 164.4032 215.416749 
L 161.461527 215.416749 
z
" clip-path="url(#pd7bd9d6d43)" style="fill: #800000"/>
   </g>
   <g id="patch_24">
    <path d="M 165.138618 226.806302 
L 168.080291 226.806302 
L 168.080291 215.467369 
L 165.138618 215.467369 
z
" clip-path="url(#pd7bd9d6d43)" style="fill: #800000"/>
   </g>
   <g id="patch_25">
    <path d="M 168.815709 226.975036 
L 171.757382 226.975036 
L 171.757382 215.636104 
L 168.815709 215.636104 
z
" clip-path="url(#pd7bd9d6d43)" style="fill: #800000"/>
   </g>
   <g id="patch_26">
    <path d="M 172.4928 226.873796 
L 175.434473 226.873796 
L 175.434473 215.771091 
L 172.4928 215.771091 
z
" clip-path="url(#pd7bd9d6d43)" style="fill: #800000"/>
   </g>
   <g id="patch_27">
    <path d="M 176.169891 226.755682 
L 179.111564 226.755682 
L 179.111564 214.944294 
L 176.169891 214.944294 
z
" clip-path="url(#pd7bd9d6d43)" style="fill: #800000"/>
   </g>
   <g id="patch_28">
    <path d="M 179.846982 226.519454 
L 182.788655 226.519454 
L 182.788655 214.97804 
L 179.846982 214.97804 
z
" clip-path="url(#pd7bd9d6d43)" style="fill: #800000"/>
   </g>
   <g id="patch_29">
    <path d="M 183.524073 222.284228 
L 186.465745 222.284228 
L 186.465745 210.000384 
L 183.524073 210.000384 
z
" clip-path="url(#pd7bd9d6d43)" style="fill: #800000"/>
   </g>
   <g id="patch_30">
    <path d="M 187.201164 227.666846 
L 190.142836 227.666846 
L 190.142836 214.8768 
L 187.201164 214.8768 
z
" clip-path="url(#pd7bd9d6d43)" style="fill: #800000"/>
   </g>
   <g id="patch_31">
    <path d="M 190.878255 224.595885 
L 193.819927 224.595885 
L 193.819927 212.514522 
L 190.878255 212.514522 
z
" clip-path="url(#pd7bd9d6d43)" style="fill: #800000"/>
   </g>
   <g id="patch_32">
    <path d="M 194.555345 227.970568 
L 197.497018 227.970568 
L 197.497018 216.479774 
L 194.555345 216.479774 
z
" clip-path="url(#pd7bd9d6d43)" style="fill: #800000"/>
   </g>
   <g id="patch_33">
    <path d="M 198.232436 227.548732 
L 201.174109 227.548732 
L 201.174109 216.243546 
L 198.232436 216.243546 
z
" clip-path="url(#pd7bd9d6d43)" style="fill: #800000"/>
   </g>
   <g id="patch_34">
    <path d="M 201.909527 227.68372 
L 204.8512 227.68372 
L 204.8512 215.51799 
L 201.909527 215.51799 
z
" clip-path="url(#pd7bd9d6d43)" style="fill: #800000"/>
   </g>
   <g id="patch_35">
    <path d="M 205.586618 228.763618 
L 208.528291 228.763618 
L 208.528291 216.074812 
L 205.586618 216.074812 
z
" clip-path="url(#pd7bd9d6d43)" style="fill: #800000"/>
   </g>
   <g id="patch_36">
    <path d="M 209.263709 227.919947 
L 212.205382 227.919947 
L 212.205382 216.479774 
L 209.263709 216.479774 
z
" clip-path="url(#pd7bd9d6d43)" style="fill: #800000"/>
   </g>
   <g id="patch_37">
    <path d="M 212.9408 227.126897 
L 215.882473 227.126897 
L 215.882473 215.956698 
L 212.9408 215.956698 
z
" clip-path="url(#pd7bd9d6d43)" style="fill: #800000"/>
   </g>
   <g id="patch_38">
    <path d="M 216.617891 227.025656 
L 219.559564 227.025656 
L 219.559564 216.041065 
L 216.617891 216.041065 
z
" clip-path="url(#pd7bd9d6d43)" style="fill: #800000"/>
   </g>
   <g id="patch_39">
    <path d="M 220.294982 226.907543 
L 223.236655 226.907543 
L 223.236655 215.450496 
L 220.294982 215.450496 
z
" clip-path="url(#pd7bd9d6d43)" style="fill: #800000"/>
   </g>
   <g id="patch_40">
    <path d="M 223.972073 227.717466 
L 226.913745 227.717466 
L 226.913745 217.188457 
L 223.972073 217.188457 
z
" clip-path="url(#pd7bd9d6d43)" style="fill: #800000"/>
   </g>
   <g id="patch_41">
    <path d="M 227.649164 228.409276 
L 230.590836 228.409276 
L 230.590836 217.00285 
L 227.649164 217.00285 
z
" clip-path="url(#pd7bd9d6d43)" style="fill: #800000"/>
   </g>
   <g id="patch_42">
    <path d="M 231.326255 226.519454 
L 234.267927 226.519454 
L 234.267927 215.906078 
L 231.326255 215.906078 
z
" clip-path="url(#pd7bd9d6d43)" style="fill: #800000"/>
   </g>
   <g id="patch_43">
    <path d="M 235.003345 228.054935 
L 237.945018 228.054935 
L 237.945018 216.766622 
L 235.003345 216.766622 
z
" clip-path="url(#pd7bd9d6d43)" style="fill: #800000"/>
   </g>
   <g id="patch_44">
    <path d="M 238.680436 216.665382 
L 241.622109 216.665382 
L 241.622109 205.191462 
L 238.680436 205.191462 
z
" clip-path="url(#pd7bd9d6d43)" style="fill: #800000"/>
   </g>
   <g id="patch_45">
    <path d="M 242.357527 227.059403 
L 245.2992 227.059403 
L 245.2992 215.129901 
L 242.357527 215.129901 
z
" clip-path="url(#pd7bd9d6d43)" style="fill: #800000"/>
   </g>
   <g id="patch_46">
    <path d="M 246.034618 228.105555 
L 248.976291 228.105555 
L 248.976291 216.479774 
L 246.034618 216.479774 
z
" clip-path="url(#pd7bd9d6d43)" style="fill: #800000"/>
   </g>
   <g id="patch_47">
    <path d="M 249.711709 227.531859 
L 252.653382 227.531859 
L 252.653382 216.31104 
L 249.711709 216.31104 
z
" clip-path="url(#pd7bd9d6d43)" style="fill: #800000"/>
   </g>
   <g id="patch_48">
    <path d="M 253.3888 228.308036 
L 256.330473 228.308036 
L 256.330473 217.036597 
L 253.3888 217.036597 
z
" clip-path="url(#pd7bd9d6d43)" style="fill: #800000"/>
   </g>
   <g id="patch_49">
    <path d="M 257.065891 227.211264 
L 260.007564 227.211264 
L 260.007564 213.661914 
L 257.065891 213.661914 
z
" clip-path="url(#pd7bd9d6d43)" style="fill: #800000"/>
   </g>
   <g id="patch_50">
    <path d="M 260.742982 227.919947 
L 263.684655 227.919947 
L 263.684655 216.395407 
L 260.742982 216.395407 
z
" clip-path="url(#pd7bd9d6d43)" style="fill: #800000"/>
   </g>
   <g id="patch_51">
    <path d="M 264.420073 227.278758 
L 267.361745 227.278758 
L 267.361745 215.973572 
L 264.420073 215.973572 
z
" clip-path="url(#pd7bd9d6d43)" style="fill: #800000"/>
   </g>
   <g id="patch_52">
    <path d="M 268.097164 227.464365 
L 271.038836 227.464365 
L 271.038836 216.2098 
L 268.097164 216.2098 
z
" clip-path="url(#pd7bd9d6d43)" style="fill: #800000"/>
   </g>
   <g id="patch_53">
    <path d="M 271.774255 226.924416 
L 274.715927 226.924416 
L 274.715927 216.159179 
L 271.774255 216.159179 
z
" clip-path="url(#pd7bd9d6d43)" style="fill: #800000"/>
   </g>
   <g id="patch_54">
    <path d="M 275.451345 228.358656 
L 278.393018 228.358656 
L 278.393018 216.176053 
L 275.451345 216.176053 
z
" clip-path="url(#pd7bd9d6d43)" style="fill: #800000"/>
   </g>
   <g id="patch_55">
    <path d="M 279.128436 228.341783 
L 282.070109 228.341783 
L 282.070109 216.918483 
L 279.128436 216.918483 
z
" clip-path="url(#pd7bd9d6d43)" style="fill: #800000"/>
   </g>
   <g id="patch_56">
    <path d="M 282.805527 228.611757 
L 285.7472 228.611757 
L 285.7472 217.509052 
L 282.805527 217.509052 
z
" clip-path="url(#pd7bd9d6d43)" style="fill: #800000"/>
   </g>
   <g id="patch_57">
    <path d="M 286.482618 228.054935 
L 289.424291 228.054935 
L 289.424291 216.581015 
L 286.482618 216.581015 
z
" clip-path="url(#pd7bd9d6d43)" style="fill: #800000"/>
   </g>
   <g id="patch_58">
    <path d="M 290.159709 228.004314 
L 293.101382 228.004314 
L 293.101382 216.36166 
L 290.159709 216.36166 
z
" clip-path="url(#pd7bd9d6d43)" style="fill: #800000"/>
   </g>
   <g id="patch_59">
    <path d="M 293.8368 228.544264 
L 296.778473 228.544264 
L 296.778473 216.699128 
L 293.8368 216.699128 
z
" clip-path="url(#pd7bd9d6d43)" style="fill: #800000"/>
   </g>
   <g id="patch_60">
    <path d="M 297.513891 227.481239 
L 300.455564 227.481239 
L 300.455564 215.973572 
L 297.513891 215.973572 
z
" clip-path="url(#pd7bd9d6d43)" style="fill: #800000"/>
   </g>
   <g id="patch_61">
    <path d="M 301.190982 227.953694 
L 304.132655 227.953694 
L 304.132655 215.737344 
L 301.190982 215.737344 
z
" clip-path="url(#pd7bd9d6d43)" style="fill: #800000"/>
   </g>
   <g id="patch_62">
    <path d="M 304.868073 228.544264 
L 307.809745 228.544264 
L 307.809745 216.884736 
L 304.868073 216.884736 
z
" clip-path="url(#pd7bd9d6d43)" style="fill: #800000"/>
   </g>
   <g id="patch_63">
    <path d="M 308.545164 228.898605 
L 311.486836 228.898605 
L 311.486836 217.272824 
L 308.545164 217.272824 
z
" clip-path="url(#pd7bd9d6d43)" style="fill: #800000"/>
   </g>
   <g id="patch_64">
    <path d="M 312.222255 228.223669 
L 315.163927 228.223669 
L 315.163927 216.226673 
L 312.222255 216.226673 
z
" clip-path="url(#pd7bd9d6d43)" style="fill: #800000"/>
   </g>
   <g id="patch_65">
    <path d="M 315.899345 224.292164 
L 318.841018 224.292164 
L 318.841018 211.788966 
L 315.899345 211.788966 
z
" clip-path="url(#pd7bd9d6d43)" style="fill: #800000"/>
   </g>
   <g id="patch_66">
    <path d="M 319.576436 227.869327 
L 322.518109 227.869327 
L 322.518109 216.344787 
L 319.576436 216.344787 
z
" clip-path="url(#pd7bd9d6d43)" style="fill: #800000"/>
   </g>
   <g id="patch_67">
    <path d="M 323.253527 229.843516 
L 326.1952 229.843516 
L 326.1952 218.555204 
L 323.253527 218.555204 
z
" clip-path="url(#pd7bd9d6d43)" style="fill: #800000"/>
   </g>
   <g id="patch_68">
    <path d="M 326.930618 228.864858 
L 329.872291 228.864858 
L 329.872291 217.576546 
L 326.930618 217.576546 
z
" clip-path="url(#pd7bd9d6d43)" style="fill: #800000"/>
   </g>
   <g id="patch_69">
    <path d="M 330.607709 227.09315 
L 333.549382 227.09315 
L 333.549382 214.556205 
L 330.607709 214.556205 
z
" clip-path="url(#pd7bd9d6d43)" style="fill: #800000"/>
   </g>
   <g id="patch_70">
    <path d="M 334.2848 226.907543 
L 337.226473 226.907543 
L 337.226473 214.13437 
L 334.2848 214.13437 
z
" clip-path="url(#pd7bd9d6d43)" style="fill: #800000"/>
   </g>
   <g id="patch_71">
    <path d="M 337.961891 228.358656 
L 340.903564 228.358656 
L 340.903564 216.749749 
L 337.961891 216.749749 
z
" clip-path="url(#pd7bd9d6d43)" style="fill: #800000"/>
   </g>
   <g id="patch_72">
    <path d="M 341.638982 227.160644 
L 344.580655 227.160644 
L 344.580655 215.096154 
L 341.638982 215.096154 
z
" clip-path="url(#pd7bd9d6d43)" style="fill: #800000"/>
   </g>
   <g id="patch_73">
    <path d="M 345.316073 228.52739 
L 348.257745 228.52739 
L 348.257745 217.120964 
L 345.316073 217.120964 
z
" clip-path="url(#pd7bd9d6d43)" style="fill: #800000"/>
   </g>
   <g id="patch_74">
    <path d="M 348.993164 229.337314 
L 351.934836 229.337314 
L 351.934836 217.930888 
L 348.993164 217.930888 
z
" clip-path="url(#pd7bd9d6d43)" style="fill: #800000"/>
   </g>
   <g id="patch_75">
    <path d="M 352.670255 230.332845 
L 355.611927 230.332845 
L 355.611927 219.010786 
L 352.670255 219.010786 
z
" clip-path="url(#pd7bd9d6d43)" style="fill: #800000"/>
   </g>
   <g id="patch_76">
    <path d="M 356.347345 228.679251 
L 359.289018 228.679251 
L 359.289018 217.829647 
L 356.347345 217.829647 
z
" clip-path="url(#pd7bd9d6d43)" style="fill: #800000"/>
   </g>
   <g id="patch_77">
    <path d="M 360.024436 231.328376 
L 362.966109 231.328376 
L 362.966109 220.529393 
L 360.024436 220.529393 
z
" clip-path="url(#pd7bd9d6d43)" style="fill: #800000"/>
   </g>
   <g id="patch_78">
    <path d="M 363.701527 228.206795 
L 366.6432 228.206795 
L 366.6432 216.935356 
L 363.701527 216.935356 
z
" clip-path="url(#pd7bd9d6d43)" style="fill: #800000"/>
   </g>
   <g id="patch_79">
    <path d="M 367.378618 227.649973 
L 370.320291 227.649973 
L 370.320291 215.939825 
L 367.378618 215.939825 
z
" clip-path="url(#pd7bd9d6d43)" style="fill: #800000"/>
   </g>
   <g id="patch_80">
    <path d="M 371.055709 228.746744 
L 373.997382 228.746744 
L 373.997382 213.965636 
L 371.055709 213.965636 
z
" clip-path="url(#pd7bd9d6d43)" style="fill: #800000"/>
   </g>
   <g id="patch_81">
    <path d="M 374.7328 228.375529 
L 377.674473 228.375529 
L 377.674473 216.36166 
L 374.7328 216.36166 
z
" clip-path="url(#pd7bd9d6d43)" style="fill: #800000"/>
   </g>
   <g id="patch_82">
    <path d="M 378.409891 227.312504 
L 381.351564 227.312504 
L 381.351564 213.729408 
L 378.409891 213.729408 
z
" clip-path="url(#pd7bd9d6d43)" style="fill: #800000"/>
   </g>
   <g id="patch_83">
    <path d="M 382.086982 228.443023 
L 385.028655 228.443023 
L 385.028655 216.547268 
L 382.086982 216.547268 
z
" clip-path="url(#pd7bd9d6d43)" style="fill: #800000"/>
   </g>
   <g id="patch_84">
    <path d="M 385.764073 228.122428 
L 388.705745 228.122428 
L 388.705745 216.192926 
L 385.764073 216.192926 
z
" clip-path="url(#pd7bd9d6d43)" style="fill: #800000"/>
   </g>
   <g id="patch_85">
    <path d="M 389.441164 227.751213 
L 392.382836 227.751213 
L 392.382836 216.176053 
L 389.441164 216.176053 
z
" clip-path="url(#pd7bd9d6d43)" style="fill: #800000"/>
   </g>
   <g id="patch_86">
    <path d="M 393.118255 228.746744 
L 396.059927 228.746744 
L 396.059927 217.711533 
L 393.118255 217.711533 
z
" clip-path="url(#pd7bd9d6d43)" style="fill: #800000"/>
   </g>
   <g id="patch_87">
    <path d="M 396.795345 228.982972 
L 399.737018 228.982972 
L 399.737018 217.829647 
L 396.795345 217.829647 
z
" clip-path="url(#pd7bd9d6d43)" style="fill: #800000"/>
   </g>
   <g id="patch_88">
    <path d="M 400.472436 228.881732 
L 403.414109 228.881732 
L 403.414109 217.84652 
L 400.472436 217.84652 
z
" clip-path="url(#pd7bd9d6d43)" style="fill: #800000"/>
   </g>
   <g id="patch_89">
    <path d="M 404.149527 225.220201 
L 407.0912 225.220201 
L 407.0912 213.459433 
L 404.149527 213.459433 
z
" clip-path="url(#pd7bd9d6d43)" style="fill: #800000"/>
   </g>
   <g id="patch_90">
    <path d="M 407.826618 228.898605 
L 410.768291 228.898605 
L 410.768291 216.41228 
L 407.826618 216.41228 
z
" clip-path="url(#pd7bd9d6d43)" style="fill: #800000"/>
   </g>
   <g id="patch_91">
    <path d="M 411.503709 228.797365 
L 414.445382 228.797365 
L 414.445382 217.576546 
L 411.503709 217.576546 
z
" clip-path="url(#pd7bd9d6d43)" style="fill: #800000"/>
   </g>
   <g id="patch_92">
    <path d="M 415.1808 228.459896 
L 418.122473 228.459896 
L 418.122473 216.901609 
L 415.1808 216.901609 
z
" clip-path="url(#pd7bd9d6d43)" style="fill: #800000"/>
   </g>
   <g id="patch_93">
    <path d="M 418.857891 232.948224 
L 421.799564 232.948224 
L 421.799564 221.069342 
L 418.857891 221.069342 
z
" clip-path="url(#pd7bd9d6d43)" style="fill: #800000"/>
   </g>
   <g id="patch_94">
    <path d="M 422.534982 231.159642 
L 425.476655 231.159642 
L 425.476655 218.622697 
L 422.534982 218.622697 
z
" clip-path="url(#pd7bd9d6d43)" style="fill: #800000"/>
   </g>
   <g id="patch_95">
    <path d="M 426.212073 227.919947 
L 429.153745 227.919947 
L 429.153745 215.906078 
L 426.212073 215.906078 
z
" clip-path="url(#pd7bd9d6d43)" style="fill: #800000"/>
   </g>
   <g id="patch_96">
    <path d="M 429.889164 232.340781 
L 432.830836 232.340781 
L 432.830836 220.428152 
L 429.889164 220.428152 
z
" clip-path="url(#pd7bd9d6d43)" style="fill: #800000"/>
   </g>
   <g id="patch_97">
    <path d="M 433.566255 226.030125 
L 436.507927 226.030125 
L 436.507927 214.488712 
L 433.566255 214.488712 
z
" clip-path="url(#pd7bd9d6d43)" style="fill: #800000"/>
   </g>
   <g id="patch_98">
    <path d="M 437.243345 227.987441 
L 440.185018 227.987441 
L 440.185018 216.631635 
L 437.243345 216.631635 
z
" clip-path="url(#pd7bd9d6d43)" style="fill: #800000"/>
   </g>
   <g id="patch_99">
    <path d="M 440.920436 226.789429 
L 443.862109 226.789429 
L 443.862109 215.66985 
L 440.920436 215.66985 
z
" clip-path="url(#pd7bd9d6d43)" style="fill: #800000"/>
   </g>
   <g id="patch_100">
    <path d="M 444.597527 227.413745 
L 447.5392 227.413745 
L 447.5392 215.973572 
L 444.597527 215.973572 
z
" clip-path="url(#pd7bd9d6d43)" style="fill: #800000"/>
   </g>
   <g id="patch_101">
    <path d="M 448.274618 228.628631 
L 451.216291 228.628631 
L 451.216291 216.850989 
L 448.274618 216.850989 
z
" clip-path="url(#pd7bd9d6d43)" style="fill: #800000"/>
   </g>
   <g id="patch_102">
    <path d="M 87.919709 280.278144 
L 90.861382 280.278144 
L 90.861382 223.246012 
L 87.919709 223.246012 
z
" clip-path="url(#pd7bd9d6d43)" style="fill: #a52a2a"/>
   </g>
   <g id="patch_103">
    <path d="M 91.5968 281.206182 
L 94.538473 281.206182 
L 94.538473 223.954696 
L 91.5968 223.954696 
z
" clip-path="url(#pd7bd9d6d43)" style="fill: #a52a2a"/>
   </g>
   <g id="patch_104">
    <path d="M 95.273891 281.897992 
L 98.215564 281.897992 
L 98.215564 224.258417 
L 95.273891 224.258417 
z
" clip-path="url(#pd7bd9d6d43)" style="fill: #a52a2a"/>
   </g>
   <g id="patch_105">
    <path d="M 98.950982 282.944143 
L 101.892655 282.944143 
L 101.892655 225.338315 
L 98.950982 225.338315 
z
" clip-path="url(#pd7bd9d6d43)" style="fill: #a52a2a"/>
   </g>
   <g id="patch_106">
    <path d="M 102.628073 283.096004 
L 105.569745 283.096004 
L 105.569745 225.726404 
L 102.628073 225.726404 
z
" clip-path="url(#pd7bd9d6d43)" style="fill: #a52a2a"/>
   </g>
   <g id="patch_107">
    <path d="M 106.305164 283.939674 
L 109.246836 283.939674 
L 109.246836 217.340318 
L 106.305164 217.340318 
z
" clip-path="url(#pd7bd9d6d43)" style="fill: #a52a2a"/>
   </g>
   <g id="patch_108">
    <path d="M 109.982255 284.36151 
L 112.923927 284.36151 
L 112.923927 224.697126 
L 109.982255 224.697126 
z
" clip-path="url(#pd7bd9d6d43)" style="fill: #a52a2a"/>
   </g>
   <g id="patch_109">
    <path d="M 113.659345 284.294016 
L 116.601018 284.294016 
L 116.601018 225.996378 
L 113.659345 225.996378 
z
" clip-path="url(#pd7bd9d6d43)" style="fill: #a52a2a"/>
   </g>
   <g id="patch_110">
    <path d="M 117.336436 284.580864 
L 120.278109 284.580864 
L 120.278109 225.743277 
L 117.336436 225.743277 
z
" clip-path="url(#pd7bd9d6d43)" style="fill: #a52a2a"/>
   </g>
   <g id="patch_111">
    <path d="M 121.013527 284.665231 
L 123.9552 284.665231 
L 123.9552 226.553201 
L 121.013527 226.553201 
z
" clip-path="url(#pd7bd9d6d43)" style="fill: #a52a2a"/>
   </g>
   <g id="patch_112">
    <path d="M 124.690618 284.749598 
L 127.632291 284.749598 
L 127.632291 224.747746 
L 124.690618 224.747746 
z
" clip-path="url(#pd7bd9d6d43)" style="fill: #a52a2a"/>
   </g>
   <g id="patch_113">
    <path d="M 128.367709 284.395256 
L 131.309382 284.395256 
L 131.309382 224.81524 
L 128.367709 224.81524 
z
" clip-path="url(#pd7bd9d6d43)" style="fill: #a52a2a"/>
   </g>
   <g id="patch_114">
    <path d="M 132.0448 285.289547 
L 134.986473 285.289547 
L 134.986473 227.245011 
L 132.0448 227.245011 
z
" clip-path="url(#pd7bd9d6d43)" style="fill: #a52a2a"/>
   </g>
   <g id="patch_115">
    <path d="M 135.721891 285.492028 
L 138.663564 285.492028 
L 138.663564 226.772555 
L 135.721891 226.772555 
z
" clip-path="url(#pd7bd9d6d43)" style="fill: #a52a2a"/>
   </g>
   <g id="patch_116">
    <path d="M 139.398982 285.188307 
L 142.340655 285.188307 
L 142.340655 226.890669 
L 139.398982 226.890669 
z
" clip-path="url(#pd7bd9d6d43)" style="fill: #a52a2a"/>
   </g>
   <g id="patch_117">
    <path d="M 143.076073 285.306421 
L 146.017745 285.306421 
L 146.017745 227.04253 
L 143.076073 227.04253 
z
" clip-path="url(#pd7bd9d6d43)" style="fill: #a52a2a"/>
   </g>
   <g id="patch_118">
    <path d="M 146.753164 285.728256 
L 149.694836 285.728256 
L 149.694836 227.852454 
L 146.753164 227.852454 
z
" clip-path="url(#pd7bd9d6d43)" style="fill: #a52a2a"/>
   </g>
   <g id="patch_119">
    <path d="M 150.430255 285.525775 
L 153.371927 285.525775 
L 153.371927 227.110024 
L 150.430255 227.110024 
z
" clip-path="url(#pd7bd9d6d43)" style="fill: #a52a2a"/>
   </g>
   <g id="patch_120">
    <path d="M 154.107345 285.340168 
L 157.049018 285.340168 
L 157.049018 227.025656 
L 154.107345 227.025656 
z
" clip-path="url(#pd7bd9d6d43)" style="fill: #a52a2a"/>
   </g>
   <g id="patch_121">
    <path d="M 157.784436 285.694509 
L 160.726109 285.694509 
L 160.726109 227.126897 
L 157.784436 227.126897 
z
" clip-path="url(#pd7bd9d6d43)" style="fill: #a52a2a"/>
   </g>
   <g id="patch_122">
    <path d="M 161.461527 285.373914 
L 164.4032 285.373914 
L 164.4032 226.941289 
L 161.461527 226.941289 
z
" clip-path="url(#pd7bd9d6d43)" style="fill: #a52a2a"/>
   </g>
   <g id="patch_123">
    <path d="M 165.138618 284.783345 
L 168.080291 284.783345 
L 168.080291 226.806302 
L 165.138618 226.806302 
z
" clip-path="url(#pd7bd9d6d43)" style="fill: #a52a2a"/>
   </g>
   <g id="patch_124">
    <path d="M 168.815709 285.475155 
L 171.757382 285.475155 
L 171.757382 226.975036 
L 168.815709 226.975036 
z
" clip-path="url(#pd7bd9d6d43)" style="fill: #a52a2a"/>
   </g>
   <g id="patch_125">
    <path d="M 172.4928 285.711383 
L 175.434473 285.711383 
L 175.434473 226.873796 
L 172.4928 226.873796 
z
" clip-path="url(#pd7bd9d6d43)" style="fill: #a52a2a"/>
   </g>
   <g id="patch_126">
    <path d="M 176.169891 285.542648 
L 179.111564 285.542648 
L 179.111564 226.755682 
L 176.169891 226.755682 
z
" clip-path="url(#pd7bd9d6d43)" style="fill: #a52a2a"/>
   </g>
   <g id="patch_127">
    <path d="M 179.846982 285.036446 
L 182.788655 285.036446 
L 182.788655 226.519454 
L 179.846982 226.519454 
z
" clip-path="url(#pd7bd9d6d43)" style="fill: #a52a2a"/>
   </g>
   <g id="patch_128">
    <path d="M 183.524073 285.525775 
L 186.465745 285.525775 
L 186.465745 222.284228 
L 183.524073 222.284228 
z
" clip-path="url(#pd7bd9d6d43)" style="fill: #a52a2a"/>
   </g>
   <g id="patch_129">
    <path d="M 187.201164 285.728256 
L 190.142836 285.728256 
L 190.142836 227.666846 
L 187.201164 227.666846 
z
" clip-path="url(#pd7bd9d6d43)" style="fill: #a52a2a"/>
   </g>
   <g id="patch_130">
    <path d="M 190.878255 285.407661 
L 193.819927 285.407661 
L 193.819927 224.595885 
L 190.878255 224.595885 
z
" clip-path="url(#pd7bd9d6d43)" style="fill: #a52a2a"/>
   </g>
   <g id="patch_131">
    <path d="M 194.555345 285.863243 
L 197.497018 285.863243 
L 197.497018 227.970568 
L 194.555345 227.970568 
z
" clip-path="url(#pd7bd9d6d43)" style="fill: #a52a2a"/>
   </g>
   <g id="patch_132">
    <path d="M 198.232436 285.930737 
L 201.174109 285.930737 
L 201.174109 227.548732 
L 198.232436 227.548732 
z
" clip-path="url(#pd7bd9d6d43)" style="fill: #a52a2a"/>
   </g>
   <g id="patch_133">
    <path d="M 201.909527 285.863243 
L 204.8512 285.863243 
L 204.8512 227.68372 
L 201.909527 227.68372 
z
" clip-path="url(#pd7bd9d6d43)" style="fill: #a52a2a"/>
   </g>
   <g id="patch_134">
    <path d="M 205.586618 285.762003 
L 208.528291 285.762003 
L 208.528291 228.763618 
L 205.586618 228.763618 
z
" clip-path="url(#pd7bd9d6d43)" style="fill: #a52a2a"/>
   </g>
   <g id="patch_135">
    <path d="M 209.263709 285.10394 
L 212.205382 285.10394 
L 212.205382 227.919947 
L 209.263709 227.919947 
z
" clip-path="url(#pd7bd9d6d43)" style="fill: #a52a2a"/>
   </g>
   <g id="patch_136">
    <path d="M 212.9408 285.10394 
L 215.882473 285.10394 
L 215.882473 227.126897 
L 212.9408 227.126897 
z
" clip-path="url(#pd7bd9d6d43)" style="fill: #a52a2a"/>
   </g>
   <g id="patch_137">
    <path d="M 216.617891 285.407661 
L 219.559564 285.407661 
L 219.559564 227.025656 
L 216.617891 227.025656 
z
" clip-path="url(#pd7bd9d6d43)" style="fill: #a52a2a"/>
   </g>
   <g id="patch_138">
    <path d="M 220.294982 284.327763 
L 223.236655 284.327763 
L 223.236655 226.907543 
L 220.294982 226.907543 
z
" clip-path="url(#pd7bd9d6d43)" style="fill: #a52a2a"/>
   </g>
   <g id="patch_139">
    <path d="M 223.972073 285.694509 
L 226.913745 285.694509 
L 226.913745 227.717466 
L 223.972073 227.717466 
z
" clip-path="url(#pd7bd9d6d43)" style="fill: #a52a2a"/>
   </g>
   <g id="patch_140">
    <path d="M 227.649164 286.251332 
L 230.590836 286.251332 
L 230.590836 228.409276 
L 227.649164 228.409276 
z
" clip-path="url(#pd7bd9d6d43)" style="fill: #a52a2a"/>
   </g>
   <g id="patch_141">
    <path d="M 231.326255 284.378383 
L 234.267927 284.378383 
L 234.267927 226.519454 
L 231.326255 226.519454 
z
" clip-path="url(#pd7bd9d6d43)" style="fill: #a52a2a"/>
   </g>
   <g id="patch_142">
    <path d="M 235.003345 286.031977 
L 237.945018 286.031977 
L 237.945018 228.054935 
L 235.003345 228.054935 
z
" clip-path="url(#pd7bd9d6d43)" style="fill: #a52a2a"/>
   </g>
   <g id="patch_143">
    <path d="M 238.680436 285.79575 
L 241.622109 285.79575 
L 241.622109 216.665382 
L 238.680436 216.665382 
z
" clip-path="url(#pd7bd9d6d43)" style="fill: #a52a2a"/>
   </g>
   <g id="patch_144">
    <path d="M 242.357527 285.812623 
L 245.2992 285.812623 
L 245.2992 227.059403 
L 242.357527 227.059403 
z
" clip-path="url(#pd7bd9d6d43)" style="fill: #a52a2a"/>
   </g>
   <g id="patch_145">
    <path d="M 246.034618 286.521306 
L 248.976291 286.521306 
L 248.976291 228.105555 
L 246.034618 228.105555 
z
" clip-path="url(#pd7bd9d6d43)" style="fill: #a52a2a"/>
   </g>
   <g id="patch_146">
    <path d="M 249.711709 285.981357 
L 252.653382 285.981357 
L 252.653382 227.531859 
L 249.711709 227.531859 
z
" clip-path="url(#pd7bd9d6d43)" style="fill: #a52a2a"/>
   </g>
   <g id="patch_147">
    <path d="M 253.3888 286.63942 
L 256.330473 286.63942 
L 256.330473 228.308036 
L 253.3888 228.308036 
z
" clip-path="url(#pd7bd9d6d43)" style="fill: #a52a2a"/>
   </g>
   <g id="patch_148">
    <path d="M 257.065891 285.475155 
L 260.007564 285.475155 
L 260.007564 227.211264 
L 257.065891 227.211264 
z
" clip-path="url(#pd7bd9d6d43)" style="fill: #a52a2a"/>
   </g>
   <g id="patch_149">
    <path d="M 260.742982 285.880117 
L 263.684655 285.880117 
L 263.684655 227.919947 
L 260.742982 227.919947 
z
" clip-path="url(#pd7bd9d6d43)" style="fill: #a52a2a"/>
   </g>
   <g id="patch_150">
    <path d="M 264.420073 285.390788 
L 267.361745 285.390788 
L 267.361745 227.278758 
L 264.420073 227.278758 
z
" clip-path="url(#pd7bd9d6d43)" style="fill: #a52a2a"/>
   </g>
   <g id="patch_151">
    <path d="M 268.097164 285.863243 
L 271.038836 285.863243 
L 271.038836 227.464365 
L 268.097164 227.464365 
z
" clip-path="url(#pd7bd9d6d43)" style="fill: #a52a2a"/>
   </g>
   <g id="patch_152">
    <path d="M 271.774255 285.15456 
L 274.715927 285.15456 
L 274.715927 226.924416 
L 271.774255 226.924416 
z
" clip-path="url(#pd7bd9d6d43)" style="fill: #a52a2a"/>
   </g>
   <g id="patch_153">
    <path d="M 275.451345 286.673167 
L 278.393018 286.673167 
L 278.393018 228.358656 
L 275.451345 228.358656 
z
" clip-path="url(#pd7bd9d6d43)" style="fill: #a52a2a"/>
   </g>
   <g id="patch_154">
    <path d="M 279.128436 286.386319 
L 282.070109 286.386319 
L 282.070109 228.341783 
L 279.128436 228.341783 
z
" clip-path="url(#pd7bd9d6d43)" style="fill: #a52a2a"/>
   </g>
   <g id="patch_155">
    <path d="M 282.805527 286.63942 
L 285.7472 286.63942 
L 285.7472 228.611757 
L 282.805527 228.611757 
z
" clip-path="url(#pd7bd9d6d43)" style="fill: #a52a2a"/>
   </g>
   <g id="patch_156">
    <path d="M 286.482618 286.268205 
L 289.424291 286.268205 
L 289.424291 228.054935 
L 286.482618 228.054935 
z
" clip-path="url(#pd7bd9d6d43)" style="fill: #a52a2a"/>
   </g>
   <g id="patch_157">
    <path d="M 290.159709 286.150091 
L 293.101382 286.150091 
L 293.101382 228.004314 
L 290.159709 228.004314 
z
" clip-path="url(#pd7bd9d6d43)" style="fill: #a52a2a"/>
   </g>
   <g id="patch_158">
    <path d="M 293.8368 286.656294 
L 296.778473 286.656294 
L 296.778473 228.544264 
L 293.8368 228.544264 
z
" clip-path="url(#pd7bd9d6d43)" style="fill: #a52a2a"/>
   </g>
   <g id="patch_159">
    <path d="M 297.513891 285.508902 
L 300.455564 285.508902 
L 300.455564 227.481239 
L 297.513891 227.481239 
z
" clip-path="url(#pd7bd9d6d43)" style="fill: #a52a2a"/>
   </g>
   <g id="patch_160">
    <path d="M 301.190982 286.150091 
L 304.132655 286.150091 
L 304.132655 227.953694 
L 301.190982 227.953694 
z
" clip-path="url(#pd7bd9d6d43)" style="fill: #a52a2a"/>
   </g>
   <g id="patch_161">
    <path d="M 304.868073 286.53818 
L 307.809745 286.53818 
L 307.809745 228.544264 
L 304.868073 228.544264 
z
" clip-path="url(#pd7bd9d6d43)" style="fill: #a52a2a"/>
   </g>
   <g id="patch_162">
    <path d="M 308.545164 286.571927 
L 311.486836 286.571927 
L 311.486836 228.898605 
L 308.545164 228.898605 
z
" clip-path="url(#pd7bd9d6d43)" style="fill: #a52a2a"/>
   </g>
   <g id="patch_163">
    <path d="M 312.222255 285.89699 
L 315.163927 285.89699 
L 315.163927 228.223669 
L 312.222255 228.223669 
z
" clip-path="url(#pd7bd9d6d43)" style="fill: #a52a2a"/>
   </g>
   <g id="patch_164">
    <path d="M 315.899345 281.476156 
L 318.841018 281.476156 
L 318.841018 224.292164 
L 315.899345 224.292164 
z
" clip-path="url(#pd7bd9d6d43)" style="fill: #a52a2a"/>
   </g>
   <g id="patch_165">
    <path d="M 319.576436 285.593269 
L 322.518109 285.593269 
L 322.518109 227.869327 
L 319.576436 227.869327 
z
" clip-path="url(#pd7bd9d6d43)" style="fill: #a52a2a"/>
   </g>
   <g id="patch_166">
    <path d="M 323.253527 287.128749 
L 326.1952 287.128749 
L 326.1952 229.843516 
L 323.253527 229.843516 
z
" clip-path="url(#pd7bd9d6d43)" style="fill: #a52a2a"/>
   </g>
   <g id="patch_167">
    <path d="M 326.930618 286.504433 
L 329.872291 286.504433 
L 329.872291 228.864858 
L 326.930618 228.864858 
z
" clip-path="url(#pd7bd9d6d43)" style="fill: #a52a2a"/>
   </g>
   <g id="patch_168">
    <path d="M 330.607709 284.732725 
L 333.549382 284.732725 
L 333.549382 227.09315 
L 330.607709 227.09315 
z
" clip-path="url(#pd7bd9d6d43)" style="fill: #a52a2a"/>
   </g>
   <g id="patch_169">
    <path d="M 334.2848 286.369446 
L 337.226473 286.369446 
L 337.226473 226.907543 
L 334.2848 226.907543 
z
" clip-path="url(#pd7bd9d6d43)" style="fill: #a52a2a"/>
   </g>
   <g id="patch_170">
    <path d="M 337.961891 285.863243 
L 340.903564 285.863243 
L 340.903564 228.358656 
L 337.961891 228.358656 
z
" clip-path="url(#pd7bd9d6d43)" style="fill: #a52a2a"/>
   </g>
   <g id="patch_171">
    <path d="M 341.638982 284.547117 
L 344.580655 284.547117 
L 344.580655 227.160644 
L 341.638982 227.160644 
z
" clip-path="url(#pd7bd9d6d43)" style="fill: #a52a2a"/>
   </g>
   <g id="patch_172">
    <path d="M 345.316073 285.964484 
L 348.257745 285.964484 
L 348.257745 228.52739 
L 345.316073 228.52739 
z
" clip-path="url(#pd7bd9d6d43)" style="fill: #a52a2a"/>
   </g>
   <g id="patch_173">
    <path d="M 348.993164 286.622547 
L 351.934836 286.622547 
L 351.934836 229.337314 
L 348.993164 229.337314 
z
" clip-path="url(#pd7bd9d6d43)" style="fill: #a52a2a"/>
   </g>
   <g id="patch_174">
    <path d="M 352.670255 286.723787 
L 355.611927 286.723787 
L 355.611927 230.332845 
L 352.670255 230.332845 
z
" clip-path="url(#pd7bd9d6d43)" style="fill: #a52a2a"/>
   </g>
   <g id="patch_175">
    <path d="M 356.347345 286.031977 
L 359.289018 286.031977 
L 359.289018 228.679251 
L 356.347345 228.679251 
z
" clip-path="url(#pd7bd9d6d43)" style="fill: #a52a2a"/>
   </g>
   <g id="patch_176">
    <path d="M 360.024436 286.774408 
L 362.966109 286.774408 
L 362.966109 231.328376 
L 360.024436 231.328376 
z
" clip-path="url(#pd7bd9d6d43)" style="fill: #a52a2a"/>
   </g>
   <g id="patch_177">
    <path d="M 363.701527 285.998231 
L 366.6432 285.998231 
L 366.6432 228.206795 
L 363.701527 228.206795 
z
" clip-path="url(#pd7bd9d6d43)" style="fill: #a52a2a"/>
   </g>
   <g id="patch_178">
    <path d="M 367.378618 285.745129 
L 370.320291 285.745129 
L 370.320291 227.649973 
L 367.378618 227.649973 
z
" clip-path="url(#pd7bd9d6d43)" style="fill: #a52a2a"/>
   </g>
   <g id="patch_179">
    <path d="M 371.055709 285.542648 
L 373.997382 285.542648 
L 373.997382 228.746744 
L 371.055709 228.746744 
z
" clip-path="url(#pd7bd9d6d43)" style="fill: #a52a2a"/>
   </g>
   <g id="patch_180">
    <path d="M 374.7328 286.285079 
L 377.674473 286.285079 
L 377.674473 228.375529 
L 374.7328 228.375529 
z
" clip-path="url(#pd7bd9d6d43)" style="fill: #a52a2a"/>
   </g>
   <g id="patch_181">
    <path d="M 378.409891 284.952079 
L 381.351564 284.952079 
L 381.351564 227.312504 
L 378.409891 227.312504 
z
" clip-path="url(#pd7bd9d6d43)" style="fill: #a52a2a"/>
   </g>
   <g id="patch_182">
    <path d="M 382.086982 286.318825 
L 385.028655 286.318825 
L 385.028655 228.443023 
L 382.086982 228.443023 
z
" clip-path="url(#pd7bd9d6d43)" style="fill: #a52a2a"/>
   </g>
   <g id="patch_183">
    <path d="M 385.764073 286.048851 
L 388.705745 286.048851 
L 388.705745 228.122428 
L 385.764073 228.122428 
z
" clip-path="url(#pd7bd9d6d43)" style="fill: #a52a2a"/>
   </g>
   <g id="patch_184">
    <path d="M 389.441164 285.458281 
L 392.382836 285.458281 
L 392.382836 227.751213 
L 389.441164 227.751213 
z
" clip-path="url(#pd7bd9d6d43)" style="fill: #a52a2a"/>
   </g>
   <g id="patch_185">
    <path d="M 393.118255 286.53818 
L 396.059927 286.53818 
L 396.059927 228.746744 
L 393.118255 228.746744 
z
" clip-path="url(#pd7bd9d6d43)" style="fill: #a52a2a"/>
   </g>
   <g id="patch_186">
    <path d="M 396.795345 286.521306 
L 399.737018 286.521306 
L 399.737018 228.982972 
L 396.795345 228.982972 
z
" clip-path="url(#pd7bd9d6d43)" style="fill: #a52a2a"/>
   </g>
   <g id="patch_187">
    <path d="M 400.472436 286.403192 
L 403.414109 286.403192 
L 403.414109 228.881732 
L 400.472436 228.881732 
z
" clip-path="url(#pd7bd9d6d43)" style="fill: #a52a2a"/>
   </g>
   <g id="patch_188">
    <path d="M 404.149527 282.370447 
L 407.0912 282.370447 
L 407.0912 225.220201 
L 404.149527 225.220201 
z
" clip-path="url(#pd7bd9d6d43)" style="fill: #a52a2a"/>
   </g>
   <g id="patch_189">
    <path d="M 407.826618 286.69004 
L 410.768291 286.69004 
L 410.768291 228.898605 
L 407.826618 228.898605 
z
" clip-path="url(#pd7bd9d6d43)" style="fill: #a52a2a"/>
   </g>
   <g id="patch_190">
    <path d="M 411.503709 285.998231 
L 414.445382 285.998231 
L 414.445382 228.797365 
L 411.503709 228.797365 
z
" clip-path="url(#pd7bd9d6d43)" style="fill: #a52a2a"/>
   </g>
   <g id="patch_191">
    <path d="M 415.1808 285.94761 
L 418.122473 285.94761 
L 418.122473 228.459896 
L 415.1808 228.459896 
z
" clip-path="url(#pd7bd9d6d43)" style="fill: #a52a2a"/>
   </g>
   <g id="patch_192">
    <path d="M 418.857891 286.706914 
L 421.799564 286.706914 
L 421.799564 232.948224 
L 418.857891 232.948224 
z
" clip-path="url(#pd7bd9d6d43)" style="fill: #a52a2a"/>
   </g>
   <g id="patch_193">
    <path d="M 422.534982 284.952079 
L 425.476655 284.952079 
L 425.476655 231.159642 
L 422.534982 231.159642 
z
" clip-path="url(#pd7bd9d6d43)" style="fill: #a52a2a"/>
   </g>
   <g id="patch_194">
    <path d="M 426.212073 286.386319 
L 429.153745 286.386319 
L 429.153745 227.919947 
L 426.212073 227.919947 
z
" clip-path="url(#pd7bd9d6d43)" style="fill: #a52a2a"/>
   </g>
   <g id="patch_195">
    <path d="M 429.889164 285.306421 
L 432.830836 285.306421 
L 432.830836 232.340781 
L 429.889164 232.340781 
z
" clip-path="url(#pd7bd9d6d43)" style="fill: #a52a2a"/>
   </g>
   <g id="patch_196">
    <path d="M 433.566255 284.46275 
L 436.507927 284.46275 
L 436.507927 226.030125 
L 433.566255 226.030125 
z
" clip-path="url(#pd7bd9d6d43)" style="fill: #a52a2a"/>
   </g>
   <g id="patch_197">
    <path d="M 437.243345 286.183838 
L 440.185018 286.183838 
L 440.185018 227.987441 
L 437.243345 227.987441 
z
" clip-path="url(#pd7bd9d6d43)" style="fill: #a52a2a"/>
   </g>
   <g id="patch_198">
    <path d="M 440.920436 285.087066 
L 443.862109 285.087066 
L 443.862109 226.789429 
L 440.920436 226.789429 
z
" clip-path="url(#pd7bd9d6d43)" style="fill: #a52a2a"/>
   </g>
   <g id="patch_199">
    <path d="M 444.597527 285.2558 
L 447.5392 285.2558 
L 447.5392 227.413745 
L 444.597527 227.413745 
z
" clip-path="url(#pd7bd9d6d43)" style="fill: #a52a2a"/>
   </g>
   <g id="patch_200">
    <path d="M 448.274618 286.656294 
L 451.216291 286.656294 
L 451.216291 228.628631 
L 448.274618 228.628631 
z
" clip-path="url(#pd7bd9d6d43)" style="fill: #a52a2a"/>
   </g>
   <g id="patch_201">
    <path d="M 87.919709 284.125282 
L 90.861382 284.125282 
L 90.861382 275.081133 
L 87.919709 275.081133 
z
" clip-path="url(#pd7bd9d6d43)" style="fill: #f08080"/>
   </g>
   <g id="patch_202">
    <path d="M 91.5968 285.559522 
L 94.538473 285.559522 
L 94.538473 276.397259 
L 91.5968 276.397259 
z
" clip-path="url(#pd7bd9d6d43)" style="fill: #f08080"/>
   </g>
   <g id="patch_203">
    <path d="M 95.273891 286.285079 
L 98.215564 286.285079 
L 98.215564 277.207183 
L 95.273891 277.207183 
z
" clip-path="url(#pd7bd9d6d43)" style="fill: #f08080"/>
   </g>
   <g id="patch_204">
    <path d="M 98.950982 287.415597 
L 101.892655 287.415597 
L 101.892655 278.101474 
L 98.950982 278.101474 
z
" clip-path="url(#pd7bd9d6d43)" style="fill: #f08080"/>
   </g>
   <g id="patch_205">
    <path d="M 102.628073 287.22999 
L 105.569745 287.22999 
L 105.569745 278.641423 
L 102.628073 278.641423 
z
" clip-path="url(#pd7bd9d6d43)" style="fill: #f08080"/>
   </g>
   <g id="patch_206">
    <path d="M 106.305164 287.888053 
L 109.246836 287.888053 
L 109.246836 278.62455 
L 106.305164 278.62455 
z
" clip-path="url(#pd7bd9d6d43)" style="fill: #f08080"/>
   </g>
   <g id="patch_207">
    <path d="M 109.982255 288.832964 
L 112.923927 288.832964 
L 112.923927 279.282613 
L 109.982255 279.282613 
z
" clip-path="url(#pd7bd9d6d43)" style="fill: #f08080"/>
   </g>
   <g id="patch_208">
    <path d="M 113.659345 288.748597 
L 116.601018 288.748597 
L 116.601018 279.31636 
L 113.659345 279.31636 
z
" clip-path="url(#pd7bd9d6d43)" style="fill: #f08080"/>
   </g>
   <g id="patch_209">
    <path d="M 117.336436 289.119812 
L 120.278109 289.119812 
L 120.278109 279.636954 
L 117.336436 279.636954 
z
" clip-path="url(#pd7bd9d6d43)" style="fill: #f08080"/>
   </g>
   <g id="patch_210">
    <path d="M 121.013527 289.237926 
L 123.9552 289.237926 
L 123.9552 279.771942 
L 121.013527 279.771942 
z
" clip-path="url(#pd7bd9d6d43)" style="fill: #f08080"/>
   </g>
   <g id="patch_211">
    <path d="M 124.690618 289.237926 
L 127.632291 289.237926 
L 127.632291 279.755068 
L 124.690618 279.755068 
z
" clip-path="url(#pd7bd9d6d43)" style="fill: #f08080"/>
   </g>
   <g id="patch_212">
    <path d="M 128.367709 289.40666 
L 131.309382 289.40666 
L 131.309382 278.77641 
L 128.367709 278.77641 
z
" clip-path="url(#pd7bd9d6d43)" style="fill: #f08080"/>
   </g>
   <g id="patch_213">
    <path d="M 132.0448 289.676634 
L 134.986473 289.676634 
L 134.986473 280.126283 
L 132.0448 280.126283 
z
" clip-path="url(#pd7bd9d6d43)" style="fill: #f08080"/>
   </g>
   <g id="patch_214">
    <path d="M 135.721891 289.777875 
L 138.663564 289.777875 
L 138.663564 279.721321 
L 135.721891 279.721321 
z
" clip-path="url(#pd7bd9d6d43)" style="fill: #f08080"/>
   </g>
   <g id="patch_215">
    <path d="M 139.398982 289.693508 
L 142.340655 289.693508 
L 142.340655 279.704448 
L 139.398982 279.704448 
z
" clip-path="url(#pd7bd9d6d43)" style="fill: #f08080"/>
   </g>
   <g id="patch_216">
    <path d="M 143.076073 289.777875 
L 146.017745 289.777875 
L 146.017745 280.025043 
L 143.076073 280.025043 
z
" clip-path="url(#pd7bd9d6d43)" style="fill: #f08080"/>
   </g>
   <g id="patch_217">
    <path d="M 146.753164 289.929736 
L 149.694836 289.929736 
L 149.694836 280.767473 
L 146.753164 280.767473 
z
" clip-path="url(#pd7bd9d6d43)" style="fill: #f08080"/>
   </g>
   <g id="patch_218">
    <path d="M 150.430255 289.727255 
L 153.371927 289.727255 
L 153.371927 280.649359 
L 150.430255 280.649359 
z
" clip-path="url(#pd7bd9d6d43)" style="fill: #f08080"/>
   </g>
   <g id="patch_219">
    <path d="M 154.107345 289.676634 
L 157.049018 289.676634 
L 157.049018 280.430005 
L 154.107345 280.430005 
z
" clip-path="url(#pd7bd9d6d43)" style="fill: #f08080"/>
   </g>
   <g id="patch_220">
    <path d="M 157.784436 290.064723 
L 160.726109 290.064723 
L 160.726109 280.767473 
L 157.784436 280.767473 
z
" clip-path="url(#pd7bd9d6d43)" style="fill: #f08080"/>
   </g>
   <g id="patch_221">
    <path d="M 161.461527 290.081596 
L 164.4032 290.081596 
L 164.4032 280.328764 
L 161.461527 280.328764 
z
" clip-path="url(#pd7bd9d6d43)" style="fill: #f08080"/>
   </g>
   <g id="patch_222">
    <path d="M 165.138618 288.748597 
L 168.080291 288.748597 
L 168.080291 279.586334 
L 165.138618 279.586334 
z
" clip-path="url(#pd7bd9d6d43)" style="fill: #f08080"/>
   </g>
   <g id="patch_223">
    <path d="M 168.815709 289.963482 
L 171.757382 289.963482 
L 171.757382 280.075663 
L 168.815709 280.075663 
z
" clip-path="url(#pd7bd9d6d43)" style="fill: #f08080"/>
   </g>
   <g id="patch_224">
    <path d="M 172.4928 290.081596 
L 175.434473 290.081596 
L 175.434473 280.328764 
L 172.4928 280.328764 
z
" clip-path="url(#pd7bd9d6d43)" style="fill: #f08080"/>
   </g>
   <g id="patch_225">
    <path d="M 176.169891 289.845368 
L 179.111564 289.845368 
L 179.111564 279.670701 
L 176.169891 279.670701 
z
" clip-path="url(#pd7bd9d6d43)" style="fill: #f08080"/>
   </g>
   <g id="patch_226">
    <path d="M 179.846982 289.693508 
L 182.788655 289.693508 
L 182.788655 279.923802 
L 179.846982 279.923802 
z
" clip-path="url(#pd7bd9d6d43)" style="fill: #f08080"/>
   </g>
   <g id="patch_227">
    <path d="M 183.524073 290.081596 
L 186.465745 290.081596 
L 186.465745 279.923802 
L 183.524073 279.923802 
z
" clip-path="url(#pd7bd9d6d43)" style="fill: #f08080"/>
   </g>
   <g id="patch_228">
    <path d="M 187.201164 290.081596 
L 190.142836 290.081596 
L 190.142836 280.615612 
L 187.201164 280.615612 
z
" clip-path="url(#pd7bd9d6d43)" style="fill: #f08080"/>
   </g>
   <g id="patch_229">
    <path d="M 190.878255 290.132216 
L 193.819927 290.132216 
L 193.819927 280.649359 
L 190.878255 280.649359 
z
" clip-path="url(#pd7bd9d6d43)" style="fill: #f08080"/>
   </g>
   <g id="patch_230">
    <path d="M 194.555345 290.115343 
L 197.497018 290.115343 
L 197.497018 280.328764 
L 194.555345 280.328764 
z
" clip-path="url(#pd7bd9d6d43)" style="fill: #f08080"/>
   </g>
   <g id="patch_231">
    <path d="M 198.232436 290.317824 
L 201.174109 290.317824 
L 201.174109 280.986827 
L 198.232436 280.986827 
z
" clip-path="url(#pd7bd9d6d43)" style="fill: #f08080"/>
   </g>
   <g id="patch_232">
    <path d="M 201.909527 290.385318 
L 204.8512 290.385318 
L 204.8512 281.104941 
L 201.909527 281.104941 
z
" clip-path="url(#pd7bd9d6d43)" style="fill: #f08080"/>
   </g>
   <g id="patch_233">
    <path d="M 205.586618 290.317824 
L 208.528291 290.317824 
L 208.528291 281.324296 
L 205.586618 281.324296 
z
" clip-path="url(#pd7bd9d6d43)" style="fill: #f08080"/>
   </g>
   <g id="patch_234">
    <path d="M 209.263709 289.626014 
L 212.205382 289.626014 
L 212.205382 279.873182 
L 209.263709 279.873182 
z
" clip-path="url(#pd7bd9d6d43)" style="fill: #f08080"/>
   </g>
   <g id="patch_235">
    <path d="M 212.9408 289.963482 
L 215.882473 289.963482 
L 215.882473 279.400727 
L 212.9408 279.400727 
z
" clip-path="url(#pd7bd9d6d43)" style="fill: #f08080"/>
   </g>
   <g id="patch_236">
    <path d="M 216.617891 290.14909 
L 219.559564 290.14909 
L 219.559564 280.699979 
L 216.617891 280.699979 
z
" clip-path="url(#pd7bd9d6d43)" style="fill: #f08080"/>
   </g>
   <g id="patch_237">
    <path d="M 220.294982 288.697976 
L 223.236655 288.697976 
L 223.236655 278.978891 
L 220.294982 278.978891 
z
" clip-path="url(#pd7bd9d6d43)" style="fill: #f08080"/>
   </g>
   <g id="patch_238">
    <path d="M 223.972073 290.368444 
L 226.913745 290.368444 
L 226.913745 280.278144 
L 223.972073 280.278144 
z
" clip-path="url(#pd7bd9d6d43)" style="fill: #f08080"/>
   </g>
   <g id="patch_239">
    <path d="M 227.649164 290.284077 
L 230.590836 290.284077 
L 230.590836 281.138688 
L 227.649164 281.138688 
z
" clip-path="url(#pd7bd9d6d43)" style="fill: #f08080"/>
   </g>
   <g id="patch_240">
    <path d="M 231.326255 288.546116 
L 234.267927 288.546116 
L 234.267927 279.198246 
L 231.326255 279.198246 
z
" clip-path="url(#pd7bd9d6d43)" style="fill: #f08080"/>
   </g>
   <g id="patch_241">
    <path d="M 235.003345 290.385318 
L 237.945018 290.385318 
L 237.945018 280.767473 
L 235.003345 280.767473 
z
" clip-path="url(#pd7bd9d6d43)" style="fill: #f08080"/>
   </g>
   <g id="patch_242">
    <path d="M 238.680436 290.334697 
L 241.622109 290.334697 
L 241.622109 280.919334 
L 238.680436 280.919334 
z
" clip-path="url(#pd7bd9d6d43)" style="fill: #f08080"/>
   </g>
   <g id="patch_243">
    <path d="M 242.357527 290.435938 
L 245.2992 290.435938 
L 245.2992 280.90246 
L 242.357527 280.90246 
z
" clip-path="url(#pd7bd9d6d43)" style="fill: #f08080"/>
   </g>
   <g id="patch_244">
    <path d="M 246.034618 290.452811 
L 248.976291 290.452811 
L 248.976291 281.408663 
L 246.034618 281.408663 
z
" clip-path="url(#pd7bd9d6d43)" style="fill: #f08080"/>
   </g>
   <g id="patch_245">
    <path d="M 249.711709 290.452811 
L 252.653382 290.452811 
L 252.653382 280.716853 
L 249.711709 280.716853 
z
" clip-path="url(#pd7bd9d6d43)" style="fill: #f08080"/>
   </g>
   <g id="patch_246">
    <path d="M 253.3888 290.503432 
L 256.330473 290.503432 
L 256.330473 281.374916 
L 253.3888 281.374916 
z
" clip-path="url(#pd7bd9d6d43)" style="fill: #f08080"/>
   </g>
   <g id="patch_247">
    <path d="M 257.065891 290.334697 
L 260.007564 290.334697 
L 260.007564 279.822562 
L 257.065891 279.822562 
z
" clip-path="url(#pd7bd9d6d43)" style="fill: #f08080"/>
   </g>
   <g id="patch_248">
    <path d="M 260.742982 289.895989 
L 263.684655 289.895989 
L 263.684655 281.290549 
L 260.742982 281.290549 
z
" clip-path="url(#pd7bd9d6d43)" style="fill: #f08080"/>
   </g>
   <g id="patch_249">
    <path d="M 264.420073 289.895989 
L 267.361745 289.895989 
L 267.361745 280.041916 
L 264.420073 280.041916 
z
" clip-path="url(#pd7bd9d6d43)" style="fill: #f08080"/>
   </g>
   <g id="patch_250">
    <path d="M 268.097164 290.705912 
L 271.038836 290.705912 
L 271.038836 280.80122 
L 268.097164 280.80122 
z
" clip-path="url(#pd7bd9d6d43)" style="fill: #f08080"/>
   </g>
   <g id="patch_251">
    <path d="M 271.774255 289.642888 
L 274.715927 289.642888 
L 274.715927 280.05879 
L 271.774255 280.05879 
z
" clip-path="url(#pd7bd9d6d43)" style="fill: #f08080"/>
   </g>
   <g id="patch_252">
    <path d="M 275.451345 290.621545 
L 278.393018 290.621545 
L 278.393018 281.897992 
L 275.451345 281.897992 
z
" clip-path="url(#pd7bd9d6d43)" style="fill: #f08080"/>
   </g>
   <g id="patch_253">
    <path d="M 279.128436 290.705912 
L 282.070109 290.705912 
L 282.070109 281.442409 
L 279.128436 281.442409 
z
" clip-path="url(#pd7bd9d6d43)" style="fill: #f08080"/>
   </g>
   <g id="patch_254">
    <path d="M 282.805527 290.739659 
L 285.7472 290.739659 
L 285.7472 280.7506 
L 282.805527 280.7506 
z
" clip-path="url(#pd7bd9d6d43)" style="fill: #f08080"/>
   </g>
   <g id="patch_255">
    <path d="M 286.482618 290.705912 
L 289.424291 290.705912 
L 289.424291 281.307422 
L 286.482618 281.307422 
z
" clip-path="url(#pd7bd9d6d43)" style="fill: #f08080"/>
   </g>
   <g id="patch_256">
    <path d="M 290.159709 290.705912 
L 293.101382 290.705912 
L 293.101382 281.054321 
L 290.159709 281.054321 
z
" clip-path="url(#pd7bd9d6d43)" style="fill: #f08080"/>
   </g>
   <g id="patch_257">
    <path d="M 293.8368 290.756533 
L 296.778473 290.756533 
L 296.778473 281.307422 
L 293.8368 281.307422 
z
" clip-path="url(#pd7bd9d6d43)" style="fill: #f08080"/>
   </g>
   <g id="patch_258">
    <path d="M 297.513891 289.963482 
L 300.455564 289.963482 
L 300.455564 280.379384 
L 297.513891 280.379384 
z
" clip-path="url(#pd7bd9d6d43)" style="fill: #f08080"/>
   </g>
   <g id="patch_259">
    <path d="M 301.190982 290.689039 
L 304.132655 290.689039 
L 304.132655 281.239928 
L 301.190982 281.239928 
z
" clip-path="url(#pd7bd9d6d43)" style="fill: #f08080"/>
   </g>
   <g id="patch_260">
    <path d="M 304.868073 290.807153 
L 307.809745 290.807153 
L 307.809745 281.341169 
L 304.868073 281.341169 
z
" clip-path="url(#pd7bd9d6d43)" style="fill: #f08080"/>
   </g>
   <g id="patch_261">
    <path d="M 308.545164 290.756533 
L 311.486836 290.756533 
L 311.486836 281.459283 
L 308.545164 281.459283 
z
" clip-path="url(#pd7bd9d6d43)" style="fill: #f08080"/>
   </g>
   <g id="patch_262">
    <path d="M 312.222255 290.284077 
L 315.163927 290.284077 
L 315.163927 281.088068 
L 312.222255 281.088068 
z
" clip-path="url(#pd7bd9d6d43)" style="fill: #f08080"/>
   </g>
   <g id="patch_263">
    <path d="M 315.899345 286.251332 
L 318.841018 286.251332 
L 318.841018 276.296019 
L 315.899345 276.296019 
z
" clip-path="url(#pd7bd9d6d43)" style="fill: #f08080"/>
   </g>
   <g id="patch_264">
    <path d="M 319.576436 290.047849 
L 322.518109 290.047849 
L 322.518109 280.531245 
L 319.576436 280.531245 
z
" clip-path="url(#pd7bd9d6d43)" style="fill: #f08080"/>
   </g>
   <g id="patch_265">
    <path d="M 323.253527 290.824026 
L 326.1952 290.824026 
L 326.1952 281.796751 
L 323.253527 281.796751 
z
" clip-path="url(#pd7bd9d6d43)" style="fill: #f08080"/>
   </g>
   <g id="patch_266">
    <path d="M 326.930618 290.807153 
L 329.872291 290.807153 
L 329.872291 281.560523 
L 326.930618 281.560523 
z
" clip-path="url(#pd7bd9d6d43)" style="fill: #f08080"/>
   </g>
   <g id="patch_267">
    <path d="M 330.607709 289.40666 
L 333.549382 289.40666 
L 333.549382 279.771942 
L 330.607709 279.771942 
z
" clip-path="url(#pd7bd9d6d43)" style="fill: #f08080"/>
   </g>
   <g id="patch_268">
    <path d="M 334.2848 290.807153 
L 337.226473 290.807153 
L 337.226473 281.59427 
L 334.2848 281.59427 
z
" clip-path="url(#pd7bd9d6d43)" style="fill: #f08080"/>
   </g>
   <g id="patch_269">
    <path d="M 337.961891 290.722786 
L 340.903564 290.722786 
L 340.903564 281.206182 
L 337.961891 281.206182 
z
" clip-path="url(#pd7bd9d6d43)" style="fill: #f08080"/>
   </g>
   <g id="patch_270">
    <path d="M 341.638982 289.001698 
L 344.580655 289.001698 
L 344.580655 278.843904 
L 341.638982 278.843904 
z
" clip-path="url(#pd7bd9d6d43)" style="fill: #f08080"/>
   </g>
   <g id="patch_271">
    <path d="M 345.316073 290.452811 
L 348.257745 290.452811 
L 348.257745 280.868713 
L 345.316073 280.868713 
z
" clip-path="url(#pd7bd9d6d43)" style="fill: #f08080"/>
   </g>
   <g id="patch_272">
    <path d="M 348.993164 290.824026 
L 351.934836 290.824026 
L 351.934836 281.611144 
L 348.993164 281.611144 
z
" clip-path="url(#pd7bd9d6d43)" style="fill: #f08080"/>
   </g>
   <g id="patch_273">
    <path d="M 352.670255 290.773406 
L 355.611927 290.773406 
L 355.611927 282.066726 
L 352.670255 282.066726 
z
" clip-path="url(#pd7bd9d6d43)" style="fill: #f08080"/>
   </g>
   <g id="patch_274">
    <path d="M 356.347345 290.773406 
L 359.289018 290.773406 
L 359.289018 281.256802 
L 356.347345 281.256802 
z
" clip-path="url(#pd7bd9d6d43)" style="fill: #f08080"/>
   </g>
   <g id="patch_275">
    <path d="M 360.024436 290.638419 
L 362.966109 290.638419 
L 362.966109 281.459283 
L 360.024436 281.459283 
z
" clip-path="url(#pd7bd9d6d43)" style="fill: #f08080"/>
   </g>
   <g id="patch_276">
    <path d="M 363.701527 290.773406 
L 366.6432 290.773406 
L 366.6432 280.767473 
L 363.701527 280.767473 
z
" clip-path="url(#pd7bd9d6d43)" style="fill: #f08080"/>
   </g>
   <g id="patch_277">
    <path d="M 367.378618 290.300951 
L 370.320291 290.300951 
L 370.320291 280.7506 
L 367.378618 280.7506 
z
" clip-path="url(#pd7bd9d6d43)" style="fill: #f08080"/>
   </g>
   <g id="patch_278">
    <path d="M 371.055709 289.744128 
L 373.997382 289.744128 
L 373.997382 280.446878 
L 371.055709 280.446878 
z
" clip-path="url(#pd7bd9d6d43)" style="fill: #f08080"/>
   </g>
   <g id="patch_279">
    <path d="M 374.7328 290.807153 
L 377.674473 290.807153 
L 377.674473 281.324296 
L 374.7328 281.324296 
z
" clip-path="url(#pd7bd9d6d43)" style="fill: #f08080"/>
   </g>
   <g id="patch_280">
    <path d="M 378.409891 289.929736 
L 381.351564 289.929736 
L 381.351564 279.923802 
L 378.409891 279.923802 
z
" clip-path="url(#pd7bd9d6d43)" style="fill: #f08080"/>
   </g>
   <g id="patch_281">
    <path d="M 382.086982 290.705912 
L 385.028655 290.705912 
L 385.028655 281.071194 
L 382.086982 281.071194 
z
" clip-path="url(#pd7bd9d6d43)" style="fill: #f08080"/>
   </g>
   <g id="patch_282">
    <path d="M 385.764073 290.807153 
L 388.705745 290.807153 
L 388.705745 280.649359 
L 385.764073 280.649359 
z
" clip-path="url(#pd7bd9d6d43)" style="fill: #f08080"/>
   </g>
   <g id="patch_283">
    <path d="M 389.441164 290.047849 
L 392.382836 290.047849 
L 392.382836 280.21065 
L 389.441164 280.21065 
z
" clip-path="url(#pd7bd9d6d43)" style="fill: #f08080"/>
   </g>
   <g id="patch_284">
    <path d="M 393.118255 290.857773 
L 396.059927 290.857773 
L 396.059927 281.881118 
L 393.118255 281.881118 
z
" clip-path="url(#pd7bd9d6d43)" style="fill: #f08080"/>
   </g>
   <g id="patch_285">
    <path d="M 396.795345 290.807153 
L 399.737018 290.807153 
L 399.737018 281.239928 
L 396.795345 281.239928 
z
" clip-path="url(#pd7bd9d6d43)" style="fill: #f08080"/>
   </g>
   <g id="patch_286">
    <path d="M 400.472436 290.773406 
L 403.414109 290.773406 
L 403.414109 281.071194 
L 400.472436 281.071194 
z
" clip-path="url(#pd7bd9d6d43)" style="fill: #f08080"/>
   </g>
   <g id="patch_287">
    <path d="M 404.149527 287.078129 
L 407.0912 287.078129 
L 407.0912 277.105943 
L 404.149527 277.105943 
z
" clip-path="url(#pd7bd9d6d43)" style="fill: #f08080"/>
   </g>
   <g id="patch_288">
    <path d="M 407.826618 290.8409 
L 410.768291 290.8409 
L 410.768291 281.729257 
L 407.826618 281.729257 
z
" clip-path="url(#pd7bd9d6d43)" style="fill: #f08080"/>
   </g>
   <g id="patch_289">
    <path d="M 411.503709 290.334697 
L 414.445382 290.334697 
L 414.445382 280.649359 
L 411.503709 280.649359 
z
" clip-path="url(#pd7bd9d6d43)" style="fill: #f08080"/>
   </g>
   <g id="patch_290">
    <path d="M 415.1808 290.807153 
L 418.122473 290.807153 
L 418.122473 280.615612 
L 415.1808 280.615612 
z
" clip-path="url(#pd7bd9d6d43)" style="fill: #f08080"/>
   </g>
   <g id="patch_291">
    <path d="M 418.857891 290.874647 
L 421.799564 290.874647 
L 421.799564 281.49303 
L 418.857891 281.49303 
z
" clip-path="url(#pd7bd9d6d43)" style="fill: #f08080"/>
   </g>
   <g id="patch_292">
    <path d="M 422.534982 289.45728 
L 425.476655 289.45728 
L 425.476655 279.687575 
L 422.534982 279.687575 
z
" clip-path="url(#pd7bd9d6d43)" style="fill: #f08080"/>
   </g>
   <g id="patch_293">
    <path d="M 426.212073 290.722786 
L 429.153745 290.722786 
L 429.153745 280.868713 
L 426.212073 280.868713 
z
" clip-path="url(#pd7bd9d6d43)" style="fill: #f08080"/>
   </g>
   <g id="patch_294">
    <path d="M 429.889164 289.693508 
L 432.830836 289.693508 
L 432.830836 280.564992 
L 429.889164 280.564992 
z
" clip-path="url(#pd7bd9d6d43)" style="fill: #f08080"/>
   </g>
   <g id="patch_295">
    <path d="M 433.566255 288.81609 
L 436.507927 288.81609 
L 436.507927 278.945144 
L 433.566255 278.945144 
z
" clip-path="url(#pd7bd9d6d43)" style="fill: #f08080"/>
   </g>
   <g id="patch_296">
    <path d="M 437.243345 290.267204 
L 440.185018 290.267204 
L 440.185018 280.683106 
L 437.243345 280.683106 
z
" clip-path="url(#pd7bd9d6d43)" style="fill: #f08080"/>
   </g>
   <g id="patch_297">
    <path d="M 440.920436 289.710381 
L 443.862109 289.710381 
L 443.862109 280.092536 
L 440.920436 280.092536 
z
" clip-path="url(#pd7bd9d6d43)" style="fill: #f08080"/>
   </g>
   <g id="patch_298">
    <path d="M 444.597527 290.047849 
L 447.5392 290.047849 
L 447.5392 279.991296 
L 444.597527 279.991296 
z
" clip-path="url(#pd7bd9d6d43)" style="fill: #f08080"/>
   </g>
   <g id="patch_299">
    <path d="M 448.274618 290.89152 
L 451.216291 290.89152 
L 451.216291 281.746131 
L 448.274618 281.746131 
z
" clip-path="url(#pd7bd9d6d43)" style="fill: #f08080"/>
   </g>
   <g id="patch_300">
    <path d="M 87.919709 293.76 
L 90.861382 293.76 
L 90.861382 284.125282 
L 87.919709 284.125282 
z
" clip-path="url(#pd7bd9d6d43)" style="fill: #ffe4e1"/>
   </g>
   <g id="patch_301">
    <path d="M 91.5968 293.76 
L 94.538473 293.76 
L 94.538473 285.559522 
L 91.5968 285.559522 
z
" clip-path="url(#pd7bd9d6d43)" style="fill: #ffe4e1"/>
   </g>
   <g id="patch_302">
    <path d="M 95.273891 293.76 
L 98.215564 293.76 
L 98.215564 286.285079 
L 95.273891 286.285079 
z
" clip-path="url(#pd7bd9d6d43)" style="fill: #ffe4e1"/>
   </g>
   <g id="patch_303">
    <path d="M 98.950982 293.76 
L 101.892655 293.76 
L 101.892655 287.415597 
L 98.950982 287.415597 
z
" clip-path="url(#pd7bd9d6d43)" style="fill: #ffe4e1"/>
   </g>
   <g id="patch_304">
    <path d="M 102.628073 293.76 
L 105.569745 293.76 
L 105.569745 287.22999 
L 102.628073 287.22999 
z
" clip-path="url(#pd7bd9d6d43)" style="fill: #ffe4e1"/>
   </g>
   <g id="patch_305">
    <path d="M 106.305164 293.76 
L 109.246836 293.76 
L 109.246836 287.888053 
L 106.305164 287.888053 
z
" clip-path="url(#pd7bd9d6d43)" style="fill: #ffe4e1"/>
   </g>
   <g id="patch_306">
    <path d="M 109.982255 293.76 
L 112.923927 293.76 
L 112.923927 288.832964 
L 109.982255 288.832964 
z
" clip-path="url(#pd7bd9d6d43)" style="fill: #ffe4e1"/>
   </g>
   <g id="patch_307">
    <path d="M 113.659345 293.76 
L 116.601018 293.76 
L 116.601018 288.748597 
L 113.659345 288.748597 
z
" clip-path="url(#pd7bd9d6d43)" style="fill: #ffe4e1"/>
   </g>
   <g id="patch_308">
    <path d="M 117.336436 293.76 
L 120.278109 293.76 
L 120.278109 289.119812 
L 117.336436 289.119812 
z
" clip-path="url(#pd7bd9d6d43)" style="fill: #ffe4e1"/>
   </g>
   <g id="patch_309">
    <path d="M 121.013527 293.76 
L 123.9552 293.76 
L 123.9552 289.237926 
L 121.013527 289.237926 
z
" clip-path="url(#pd7bd9d6d43)" style="fill: #ffe4e1"/>
   </g>
   <g id="patch_310">
    <path d="M 124.690618 293.76 
L 127.632291 293.76 
L 127.632291 289.237926 
L 124.690618 289.237926 
z
" clip-path="url(#pd7bd9d6d43)" style="fill: #ffe4e1"/>
   </g>
   <g id="patch_311">
    <path d="M 128.367709 293.76 
L 131.309382 293.76 
L 131.309382 289.40666 
L 128.367709 289.40666 
z
" clip-path="url(#pd7bd9d6d43)" style="fill: #ffe4e1"/>
   </g>
   <g id="patch_312">
    <path d="M 132.0448 293.76 
L 134.986473 293.76 
L 134.986473 289.676634 
L 132.0448 289.676634 
z
" clip-path="url(#pd7bd9d6d43)" style="fill: #ffe4e1"/>
   </g>
   <g id="patch_313">
    <path d="M 135.721891 293.76 
L 138.663564 293.76 
L 138.663564 289.777875 
L 135.721891 289.777875 
z
" clip-path="url(#pd7bd9d6d43)" style="fill: #ffe4e1"/>
   </g>
   <g id="patch_314">
    <path d="M 139.398982 293.76 
L 142.340655 293.76 
L 142.340655 289.693508 
L 139.398982 289.693508 
z
" clip-path="url(#pd7bd9d6d43)" style="fill: #ffe4e1"/>
   </g>
   <g id="patch_315">
    <path d="M 143.076073 293.76 
L 146.017745 293.76 
L 146.017745 289.777875 
L 143.076073 289.777875 
z
" clip-path="url(#pd7bd9d6d43)" style="fill: #ffe4e1"/>
   </g>
   <g id="patch_316">
    <path d="M 146.753164 293.76 
L 149.694836 293.76 
L 149.694836 289.929736 
L 146.753164 289.929736 
z
" clip-path="url(#pd7bd9d6d43)" style="fill: #ffe4e1"/>
   </g>
   <g id="patch_317">
    <path d="M 150.430255 293.76 
L 153.371927 293.76 
L 153.371927 289.727255 
L 150.430255 289.727255 
z
" clip-path="url(#pd7bd9d6d43)" style="fill: #ffe4e1"/>
   </g>
   <g id="patch_318">
    <path d="M 154.107345 293.76 
L 157.049018 293.76 
L 157.049018 289.676634 
L 154.107345 289.676634 
z
" clip-path="url(#pd7bd9d6d43)" style="fill: #ffe4e1"/>
   </g>
   <g id="patch_319">
    <path d="M 157.784436 293.76 
L 160.726109 293.76 
L 160.726109 290.064723 
L 157.784436 290.064723 
z
" clip-path="url(#pd7bd9d6d43)" style="fill: #ffe4e1"/>
   </g>
   <g id="patch_320">
    <path d="M 161.461527 293.76 
L 164.4032 293.76 
L 164.4032 290.081596 
L 161.461527 290.081596 
z
" clip-path="url(#pd7bd9d6d43)" style="fill: #ffe4e1"/>
   </g>
   <g id="patch_321">
    <path d="M 165.138618 293.76 
L 168.080291 293.76 
L 168.080291 288.748597 
L 165.138618 288.748597 
z
" clip-path="url(#pd7bd9d6d43)" style="fill: #ffe4e1"/>
   </g>
   <g id="patch_322">
    <path d="M 168.815709 293.76 
L 171.757382 293.76 
L 171.757382 289.963482 
L 168.815709 289.963482 
z
" clip-path="url(#pd7bd9d6d43)" style="fill: #ffe4e1"/>
   </g>
   <g id="patch_323">
    <path d="M 172.4928 293.76 
L 175.434473 293.76 
L 175.434473 290.081596 
L 172.4928 290.081596 
z
" clip-path="url(#pd7bd9d6d43)" style="fill: #ffe4e1"/>
   </g>
   <g id="patch_324">
    <path d="M 176.169891 293.76 
L 179.111564 293.76 
L 179.111564 289.845368 
L 176.169891 289.845368 
z
" clip-path="url(#pd7bd9d6d43)" style="fill: #ffe4e1"/>
   </g>
   <g id="patch_325">
    <path d="M 179.846982 293.76 
L 182.788655 293.76 
L 182.788655 289.693508 
L 179.846982 289.693508 
z
" clip-path="url(#pd7bd9d6d43)" style="fill: #ffe4e1"/>
   </g>
   <g id="patch_326">
    <path d="M 183.524073 293.76 
L 186.465745 293.76 
L 186.465745 290.081596 
L 183.524073 290.081596 
z
" clip-path="url(#pd7bd9d6d43)" style="fill: #ffe4e1"/>
   </g>
   <g id="patch_327">
    <path d="M 187.201164 293.76 
L 190.142836 293.76 
L 190.142836 290.081596 
L 187.201164 290.081596 
z
" clip-path="url(#pd7bd9d6d43)" style="fill: #ffe4e1"/>
   </g>
   <g id="patch_328">
    <path d="M 190.878255 293.76 
L 193.819927 293.76 
L 193.819927 290.132216 
L 190.878255 290.132216 
z
" clip-path="url(#pd7bd9d6d43)" style="fill: #ffe4e1"/>
   </g>
   <g id="patch_329">
    <path d="M 194.555345 293.76 
L 197.497018 293.76 
L 197.497018 290.115343 
L 194.555345 290.115343 
z
" clip-path="url(#pd7bd9d6d43)" style="fill: #ffe4e1"/>
   </g>
   <g id="patch_330">
    <path d="M 198.232436 293.76 
L 201.174109 293.76 
L 201.174109 290.317824 
L 198.232436 290.317824 
z
" clip-path="url(#pd7bd9d6d43)" style="fill: #ffe4e1"/>
   </g>
   <g id="patch_331">
    <path d="M 201.909527 293.76 
L 204.8512 293.76 
L 204.8512 290.385318 
L 201.909527 290.385318 
z
" clip-path="url(#pd7bd9d6d43)" style="fill: #ffe4e1"/>
   </g>
   <g id="patch_332">
    <path d="M 205.586618 293.76 
L 208.528291 293.76 
L 208.528291 290.317824 
L 205.586618 290.317824 
z
" clip-path="url(#pd7bd9d6d43)" style="fill: #ffe4e1"/>
   </g>
   <g id="patch_333">
    <path d="M 209.263709 293.76 
L 212.205382 293.76 
L 212.205382 289.626014 
L 209.263709 289.626014 
z
" clip-path="url(#pd7bd9d6d43)" style="fill: #ffe4e1"/>
   </g>
   <g id="patch_334">
    <path d="M 212.9408 293.76 
L 215.882473 293.76 
L 215.882473 289.963482 
L 212.9408 289.963482 
z
" clip-path="url(#pd7bd9d6d43)" style="fill: #ffe4e1"/>
   </g>
   <g id="patch_335">
    <path d="M 216.617891 293.76 
L 219.559564 293.76 
L 219.559564 290.14909 
L 216.617891 290.14909 
z
" clip-path="url(#pd7bd9d6d43)" style="fill: #ffe4e1"/>
   </g>
   <g id="patch_336">
    <path d="M 220.294982 293.76 
L 223.236655 293.76 
L 223.236655 288.697976 
L 220.294982 288.697976 
z
" clip-path="url(#pd7bd9d6d43)" style="fill: #ffe4e1"/>
   </g>
   <g id="patch_337">
    <path d="M 223.972073 293.76 
L 226.913745 293.76 
L 226.913745 290.368444 
L 223.972073 290.368444 
z
" clip-path="url(#pd7bd9d6d43)" style="fill: #ffe4e1"/>
   </g>
   <g id="patch_338">
    <path d="M 227.649164 293.76 
L 230.590836 293.76 
L 230.590836 290.284077 
L 227.649164 290.284077 
z
" clip-path="url(#pd7bd9d6d43)" style="fill: #ffe4e1"/>
   </g>
   <g id="patch_339">
    <path d="M 231.326255 293.76 
L 234.267927 293.76 
L 234.267927 288.546116 
L 231.326255 288.546116 
z
" clip-path="url(#pd7bd9d6d43)" style="fill: #ffe4e1"/>
   </g>
   <g id="patch_340">
    <path d="M 235.003345 293.76 
L 237.945018 293.76 
L 237.945018 290.385318 
L 235.003345 290.385318 
z
" clip-path="url(#pd7bd9d6d43)" style="fill: #ffe4e1"/>
   </g>
   <g id="patch_341">
    <path d="M 238.680436 293.76 
L 241.622109 293.76 
L 241.622109 290.334697 
L 238.680436 290.334697 
z
" clip-path="url(#pd7bd9d6d43)" style="fill: #ffe4e1"/>
   </g>
   <g id="patch_342">
    <path d="M 242.357527 293.76 
L 245.2992 293.76 
L 245.2992 290.435938 
L 242.357527 290.435938 
z
" clip-path="url(#pd7bd9d6d43)" style="fill: #ffe4e1"/>
   </g>
   <g id="patch_343">
    <path d="M 246.034618 293.76 
L 248.976291 293.76 
L 248.976291 290.452811 
L 246.034618 290.452811 
z
" clip-path="url(#pd7bd9d6d43)" style="fill: #ffe4e1"/>
   </g>
   <g id="patch_344">
    <path d="M 249.711709 293.76 
L 252.653382 293.76 
L 252.653382 290.452811 
L 249.711709 290.452811 
z
" clip-path="url(#pd7bd9d6d43)" style="fill: #ffe4e1"/>
   </g>
   <g id="patch_345">
    <path d="M 253.3888 293.76 
L 256.330473 293.76 
L 256.330473 290.503432 
L 253.3888 290.503432 
z
" clip-path="url(#pd7bd9d6d43)" style="fill: #ffe4e1"/>
   </g>
   <g id="patch_346">
    <path d="M 257.065891 293.76 
L 260.007564 293.76 
L 260.007564 290.334697 
L 257.065891 290.334697 
z
" clip-path="url(#pd7bd9d6d43)" style="fill: #ffe4e1"/>
   </g>
   <g id="patch_347">
    <path d="M 260.742982 293.76 
L 263.684655 293.76 
L 263.684655 289.895989 
L 260.742982 289.895989 
z
" clip-path="url(#pd7bd9d6d43)" style="fill: #ffe4e1"/>
   </g>
   <g id="patch_348">
    <path d="M 264.420073 293.76 
L 267.361745 293.76 
L 267.361745 289.895989 
L 264.420073 289.895989 
z
" clip-path="url(#pd7bd9d6d43)" style="fill: #ffe4e1"/>
   </g>
   <g id="patch_349">
    <path d="M 268.097164 293.76 
L 271.038836 293.76 
L 271.038836 290.705912 
L 268.097164 290.705912 
z
" clip-path="url(#pd7bd9d6d43)" style="fill: #ffe4e1"/>
   </g>
   <g id="patch_350">
    <path d="M 271.774255 293.76 
L 274.715927 293.76 
L 274.715927 289.642888 
L 271.774255 289.642888 
z
" clip-path="url(#pd7bd9d6d43)" style="fill: #ffe4e1"/>
   </g>
   <g id="patch_351">
    <path d="M 275.451345 293.76 
L 278.393018 293.76 
L 278.393018 290.621545 
L 275.451345 290.621545 
z
" clip-path="url(#pd7bd9d6d43)" style="fill: #ffe4e1"/>
   </g>
   <g id="patch_352">
    <path d="M 279.128436 293.76 
L 282.070109 293.76 
L 282.070109 290.705912 
L 279.128436 290.705912 
z
" clip-path="url(#pd7bd9d6d43)" style="fill: #ffe4e1"/>
   </g>
   <g id="patch_353">
    <path d="M 282.805527 293.76 
L 285.7472 293.76 
L 285.7472 290.739659 
L 282.805527 290.739659 
z
" clip-path="url(#pd7bd9d6d43)" style="fill: #ffe4e1"/>
   </g>
   <g id="patch_354">
    <path d="M 286.482618 293.76 
L 289.424291 293.76 
L 289.424291 290.705912 
L 286.482618 290.705912 
z
" clip-path="url(#pd7bd9d6d43)" style="fill: #ffe4e1"/>
   </g>
   <g id="patch_355">
    <path d="M 290.159709 293.76 
L 293.101382 293.76 
L 293.101382 290.705912 
L 290.159709 290.705912 
z
" clip-path="url(#pd7bd9d6d43)" style="fill: #ffe4e1"/>
   </g>
   <g id="patch_356">
    <path d="M 293.8368 293.76 
L 296.778473 293.76 
L 296.778473 290.756533 
L 293.8368 290.756533 
z
" clip-path="url(#pd7bd9d6d43)" style="fill: #ffe4e1"/>
   </g>
   <g id="patch_357">
    <path d="M 297.513891 293.76 
L 300.455564 293.76 
L 300.455564 289.963482 
L 297.513891 289.963482 
z
" clip-path="url(#pd7bd9d6d43)" style="fill: #ffe4e1"/>
   </g>
   <g id="patch_358">
    <path d="M 301.190982 293.76 
L 304.132655 293.76 
L 304.132655 290.689039 
L 301.190982 290.689039 
z
" clip-path="url(#pd7bd9d6d43)" style="fill: #ffe4e1"/>
   </g>
   <g id="patch_359">
    <path d="M 304.868073 293.76 
L 307.809745 293.76 
L 307.809745 290.807153 
L 304.868073 290.807153 
z
" clip-path="url(#pd7bd9d6d43)" style="fill: #ffe4e1"/>
   </g>
   <g id="patch_360">
    <path d="M 308.545164 293.76 
L 311.486836 293.76 
L 311.486836 290.756533 
L 308.545164 290.756533 
z
" clip-path="url(#pd7bd9d6d43)" style="fill: #ffe4e1"/>
   </g>
   <g id="patch_361">
    <path d="M 312.222255 293.76 
L 315.163927 293.76 
L 315.163927 290.284077 
L 312.222255 290.284077 
z
" clip-path="url(#pd7bd9d6d43)" style="fill: #ffe4e1"/>
   </g>
   <g id="patch_362">
    <path d="M 315.899345 293.76 
L 318.841018 293.76 
L 318.841018 286.251332 
L 315.899345 286.251332 
z
" clip-path="url(#pd7bd9d6d43)" style="fill: #ffe4e1"/>
   </g>
   <g id="patch_363">
    <path d="M 319.576436 293.76 
L 322.518109 293.76 
L 322.518109 290.047849 
L 319.576436 290.047849 
z
" clip-path="url(#pd7bd9d6d43)" style="fill: #ffe4e1"/>
   </g>
   <g id="patch_364">
    <path d="M 323.253527 293.76 
L 326.1952 293.76 
L 326.1952 290.824026 
L 323.253527 290.824026 
z
" clip-path="url(#pd7bd9d6d43)" style="fill: #ffe4e1"/>
   </g>
   <g id="patch_365">
    <path d="M 326.930618 293.76 
L 329.872291 293.76 
L 329.872291 290.807153 
L 326.930618 290.807153 
z
" clip-path="url(#pd7bd9d6d43)" style="fill: #ffe4e1"/>
   </g>
   <g id="patch_366">
    <path d="M 330.607709 293.76 
L 333.549382 293.76 
L 333.549382 289.40666 
L 330.607709 289.40666 
z
" clip-path="url(#pd7bd9d6d43)" style="fill: #ffe4e1"/>
   </g>
   <g id="patch_367">
    <path d="M 334.2848 293.76 
L 337.226473 293.76 
L 337.226473 290.807153 
L 334.2848 290.807153 
z
" clip-path="url(#pd7bd9d6d43)" style="fill: #ffe4e1"/>
   </g>
   <g id="patch_368">
    <path d="M 337.961891 293.76 
L 340.903564 293.76 
L 340.903564 290.722786 
L 337.961891 290.722786 
z
" clip-path="url(#pd7bd9d6d43)" style="fill: #ffe4e1"/>
   </g>
   <g id="patch_369">
    <path d="M 341.638982 293.76 
L 344.580655 293.76 
L 344.580655 289.001698 
L 341.638982 289.001698 
z
" clip-path="url(#pd7bd9d6d43)" style="fill: #ffe4e1"/>
   </g>
   <g id="patch_370">
    <path d="M 345.316073 293.76 
L 348.257745 293.76 
L 348.257745 290.452811 
L 345.316073 290.452811 
z
" clip-path="url(#pd7bd9d6d43)" style="fill: #ffe4e1"/>
   </g>
   <g id="patch_371">
    <path d="M 348.993164 293.76 
L 351.934836 293.76 
L 351.934836 290.824026 
L 348.993164 290.824026 
z
" clip-path="url(#pd7bd9d6d43)" style="fill: #ffe4e1"/>
   </g>
   <g id="patch_372">
    <path d="M 352.670255 293.76 
L 355.611927 293.76 
L 355.611927 290.773406 
L 352.670255 290.773406 
z
" clip-path="url(#pd7bd9d6d43)" style="fill: #ffe4e1"/>
   </g>
   <g id="patch_373">
    <path d="M 356.347345 293.76 
L 359.289018 293.76 
L 359.289018 290.773406 
L 356.347345 290.773406 
z
" clip-path="url(#pd7bd9d6d43)" style="fill: #ffe4e1"/>
   </g>
   <g id="patch_374">
    <path d="M 360.024436 293.76 
L 362.966109 293.76 
L 362.966109 290.638419 
L 360.024436 290.638419 
z
" clip-path="url(#pd7bd9d6d43)" style="fill: #ffe4e1"/>
   </g>
   <g id="patch_375">
    <path d="M 363.701527 293.76 
L 366.6432 293.76 
L 366.6432 290.773406 
L 363.701527 290.773406 
z
" clip-path="url(#pd7bd9d6d43)" style="fill: #ffe4e1"/>
   </g>
   <g id="patch_376">
    <path d="M 367.378618 293.76 
L 370.320291 293.76 
L 370.320291 290.300951 
L 367.378618 290.300951 
z
" clip-path="url(#pd7bd9d6d43)" style="fill: #ffe4e1"/>
   </g>
   <g id="patch_377">
    <path d="M 371.055709 293.76 
L 373.997382 293.76 
L 373.997382 289.744128 
L 371.055709 289.744128 
z
" clip-path="url(#pd7bd9d6d43)" style="fill: #ffe4e1"/>
   </g>
   <g id="patch_378">
    <path d="M 374.7328 293.76 
L 377.674473 293.76 
L 377.674473 290.807153 
L 374.7328 290.807153 
z
" clip-path="url(#pd7bd9d6d43)" style="fill: #ffe4e1"/>
   </g>
   <g id="patch_379">
    <path d="M 378.409891 293.76 
L 381.351564 293.76 
L 381.351564 289.929736 
L 378.409891 289.929736 
z
" clip-path="url(#pd7bd9d6d43)" style="fill: #ffe4e1"/>
   </g>
   <g id="patch_380">
    <path d="M 382.086982 293.76 
L 385.028655 293.76 
L 385.028655 290.705912 
L 382.086982 290.705912 
z
" clip-path="url(#pd7bd9d6d43)" style="fill: #ffe4e1"/>
   </g>
   <g id="patch_381">
    <path d="M 385.764073 293.76 
L 388.705745 293.76 
L 388.705745 290.807153 
L 385.764073 290.807153 
z
" clip-path="url(#pd7bd9d6d43)" style="fill: #ffe4e1"/>
   </g>
   <g id="patch_382">
    <path d="M 389.441164 293.76 
L 392.382836 293.76 
L 392.382836 290.047849 
L 389.441164 290.047849 
z
" clip-path="url(#pd7bd9d6d43)" style="fill: #ffe4e1"/>
   </g>
   <g id="patch_383">
    <path d="M 393.118255 293.76 
L 396.059927 293.76 
L 396.059927 290.857773 
L 393.118255 290.857773 
z
" clip-path="url(#pd7bd9d6d43)" style="fill: #ffe4e1"/>
   </g>
   <g id="patch_384">
    <path d="M 396.795345 293.76 
L 399.737018 293.76 
L 399.737018 290.807153 
L 396.795345 290.807153 
z
" clip-path="url(#pd7bd9d6d43)" style="fill: #ffe4e1"/>
   </g>
   <g id="patch_385">
    <path d="M 400.472436 293.76 
L 403.414109 293.76 
L 403.414109 290.773406 
L 400.472436 290.773406 
z
" clip-path="url(#pd7bd9d6d43)" style="fill: #ffe4e1"/>
   </g>
   <g id="patch_386">
    <path d="M 404.149527 293.76 
L 407.0912 293.76 
L 407.0912 287.078129 
L 404.149527 287.078129 
z
" clip-path="url(#pd7bd9d6d43)" style="fill: #ffe4e1"/>
   </g>
   <g id="patch_387">
    <path d="M 407.826618 293.76 
L 410.768291 293.76 
L 410.768291 290.8409 
L 407.826618 290.8409 
z
" clip-path="url(#pd7bd9d6d43)" style="fill: #ffe4e1"/>
   </g>
   <g id="patch_388">
    <path d="M 411.503709 293.76 
L 414.445382 293.76 
L 414.445382 290.334697 
L 411.503709 290.334697 
z
" clip-path="url(#pd7bd9d6d43)" style="fill: #ffe4e1"/>
   </g>
   <g id="patch_389">
    <path d="M 415.1808 293.76 
L 418.122473 293.76 
L 418.122473 290.807153 
L 415.1808 290.807153 
z
" clip-path="url(#pd7bd9d6d43)" style="fill: #ffe4e1"/>
   </g>
   <g id="patch_390">
    <path d="M 418.857891 293.76 
L 421.799564 293.76 
L 421.799564 290.874647 
L 418.857891 290.874647 
z
" clip-path="url(#pd7bd9d6d43)" style="fill: #ffe4e1"/>
   </g>
   <g id="patch_391">
    <path d="M 422.534982 293.76 
L 425.476655 293.76 
L 425.476655 289.45728 
L 422.534982 289.45728 
z
" clip-path="url(#pd7bd9d6d43)" style="fill: #ffe4e1"/>
   </g>
   <g id="patch_392">
    <path d="M 426.212073 293.76 
L 429.153745 293.76 
L 429.153745 290.722786 
L 426.212073 290.722786 
z
" clip-path="url(#pd7bd9d6d43)" style="fill: #ffe4e1"/>
   </g>
   <g id="patch_393">
    <path d="M 429.889164 293.76 
L 432.830836 293.76 
L 432.830836 289.693508 
L 429.889164 289.693508 
z
" clip-path="url(#pd7bd9d6d43)" style="fill: #ffe4e1"/>
   </g>
   <g id="patch_394">
    <path d="M 433.566255 293.76 
L 436.507927 293.76 
L 436.507927 288.81609 
L 433.566255 288.81609 
z
" clip-path="url(#pd7bd9d6d43)" style="fill: #ffe4e1"/>
   </g>
   <g id="patch_395">
    <path d="M 437.243345 293.76 
L 440.185018 293.76 
L 440.185018 290.267204 
L 437.243345 290.267204 
z
" clip-path="url(#pd7bd9d6d43)" style="fill: #ffe4e1"/>
   </g>
   <g id="patch_396">
    <path d="M 440.920436 293.76 
L 443.862109 293.76 
L 443.862109 289.710381 
L 440.920436 289.710381 
z
" clip-path="url(#pd7bd9d6d43)" style="fill: #ffe4e1"/>
   </g>
   <g id="patch_397">
    <path d="M 444.597527 293.76 
L 447.5392 293.76 
L 447.5392 290.047849 
L 444.597527 290.047849 
z
" clip-path="url(#pd7bd9d6d43)" style="fill: #ffe4e1"/>
   </g>
   <g id="patch_398">
    <path d="M 448.274618 293.76 
L 451.216291 293.76 
L 451.216291 290.89152 
L 448.274618 290.89152 
z
" clip-path="url(#pd7bd9d6d43)" style="fill: #ffe4e1"/>
   </g>
   <g id="matplotlib.axis_1">
    <g id="xtick_1">
     <g id="line2d_1">
      <path d="M 159.255273 293.76 
L 159.255273 6.912 
" clip-path="url(#pd7bd9d6d43)" style="fill: none; stroke: #b0b0b0; stroke-width: 0.8; stroke-linecap: square"/>
     </g>
     <g id="line2d_2">
      <defs>
       <path id="m0c561797ac" d="M 0 0 
L 0 3.5 
" style="stroke: #000000; stroke-width: 0.8"/>
      </defs>
      <g>
       <use xlink:href="#m0c561797ac" x="159.255273" y="293.76" style="stroke: #000000; stroke-width: 0.8"/>
      </g>
     </g>
     <g id="text_1">
      <!-- 20 -->
      <g transform="translate(146.530273 315.956875) scale(0.2 -0.2)">
       <defs>
        <path id="DejaVuSans-32" d="M 1228 531 
L 3431 531 
L 3431 0 
L 469 0 
L 469 531 
Q 828 903 1448 1529 
Q 2069 2156 2228 2338 
Q 2531 2678 2651 2914 
Q 2772 3150 2772 3378 
Q 2772 3750 2511 3984 
Q 2250 4219 1831 4219 
Q 1534 4219 1204 4116 
Q 875 4013 500 3803 
L 500 4441 
Q 881 4594 1212 4672 
Q 1544 4750 1819 4750 
Q 2544 4750 2975 4387 
Q 3406 4025 3406 3419 
Q 3406 3131 3298 2873 
Q 3191 2616 2906 2266 
Q 2828 2175 2409 1742 
Q 1991 1309 1228 531 
z
" transform="scale(0.015625)"/>
        <path id="DejaVuSans-30" d="M 2034 4250 
Q 1547 4250 1301 3770 
Q 1056 3291 1056 2328 
Q 1056 1369 1301 889 
Q 1547 409 2034 409 
Q 2525 409 2770 889 
Q 3016 1369 3016 2328 
Q 3016 3291 2770 3770 
Q 2525 4250 2034 4250 
z
M 2034 4750 
Q 2819 4750 3233 4129 
Q 3647 3509 3647 2328 
Q 3647 1150 3233 529 
Q 2819 -91 2034 -91 
Q 1250 -91 836 529 
Q 422 1150 422 2328 
Q 422 3509 836 4129 
Q 1250 4750 2034 4750 
z
" transform="scale(0.015625)"/>
       </defs>
       <use xlink:href="#DejaVuSans-32"/>
       <use xlink:href="#DejaVuSans-30" x="63.623047"/>
      </g>
     </g>
    </g>
    <g id="xtick_2">
     <g id="line2d_3">
      <path d="M 232.797091 293.76 
L 232.797091 6.912 
" clip-path="url(#pd7bd9d6d43)" style="fill: none; stroke: #b0b0b0; stroke-width: 0.8; stroke-linecap: square"/>
     </g>
     <g id="line2d_4">
      <g>
       <use xlink:href="#m0c561797ac" x="232.797091" y="293.76" style="stroke: #000000; stroke-width: 0.8"/>
      </g>
     </g>
     <g id="text_2">
      <!-- 40 -->
      <g transform="translate(220.072091 315.956875) scale(0.2 -0.2)">
       <defs>
        <path id="DejaVuSans-34" d="M 2419 4116 
L 825 1625 
L 2419 1625 
L 2419 4116 
z
M 2253 4666 
L 3047 4666 
L 3047 1625 
L 3713 1625 
L 3713 1100 
L 3047 1100 
L 3047 0 
L 2419 0 
L 2419 1100 
L 313 1100 
L 313 1709 
L 2253 4666 
z
" transform="scale(0.015625)"/>
       </defs>
       <use xlink:href="#DejaVuSans-34"/>
       <use xlink:href="#DejaVuSans-30" x="63.623047"/>
      </g>
     </g>
    </g>
    <g id="xtick_3">
     <g id="line2d_5">
      <path d="M 306.338909 293.76 
L 306.338909 6.912 
" clip-path="url(#pd7bd9d6d43)" style="fill: none; stroke: #b0b0b0; stroke-width: 0.8; stroke-linecap: square"/>
     </g>
     <g id="line2d_6">
      <g>
       <use xlink:href="#m0c561797ac" x="306.338909" y="293.76" style="stroke: #000000; stroke-width: 0.8"/>
      </g>
     </g>
     <g id="text_3">
      <!-- 60 -->
      <g transform="translate(293.613909 315.956875) scale(0.2 -0.2)">
       <defs>
        <path id="DejaVuSans-36" d="M 2113 2584 
Q 1688 2584 1439 2293 
Q 1191 2003 1191 1497 
Q 1191 994 1439 701 
Q 1688 409 2113 409 
Q 2538 409 2786 701 
Q 3034 994 3034 1497 
Q 3034 2003 2786 2293 
Q 2538 2584 2113 2584 
z
M 3366 4563 
L 3366 3988 
Q 3128 4100 2886 4159 
Q 2644 4219 2406 4219 
Q 1781 4219 1451 3797 
Q 1122 3375 1075 2522 
Q 1259 2794 1537 2939 
Q 1816 3084 2150 3084 
Q 2853 3084 3261 2657 
Q 3669 2231 3669 1497 
Q 3669 778 3244 343 
Q 2819 -91 2113 -91 
Q 1303 -91 875 529 
Q 447 1150 447 2328 
Q 447 3434 972 4092 
Q 1497 4750 2381 4750 
Q 2619 4750 2861 4703 
Q 3103 4656 3366 4563 
z
" transform="scale(0.015625)"/>
       </defs>
       <use xlink:href="#DejaVuSans-36"/>
       <use xlink:href="#DejaVuSans-30" x="63.623047"/>
      </g>
     </g>
    </g>
    <g id="xtick_4">
     <g id="line2d_7">
      <path d="M 379.880727 293.76 
L 379.880727 6.912 
" clip-path="url(#pd7bd9d6d43)" style="fill: none; stroke: #b0b0b0; stroke-width: 0.8; stroke-linecap: square"/>
     </g>
     <g id="line2d_8">
      <g>
       <use xlink:href="#m0c561797ac" x="379.880727" y="293.76" style="stroke: #000000; stroke-width: 0.8"/>
      </g>
     </g>
     <g id="text_4">
      <!-- 80 -->
      <g transform="translate(367.155727 315.956875) scale(0.2 -0.2)">
       <defs>
        <path id="DejaVuSans-38" d="M 2034 2216 
Q 1584 2216 1326 1975 
Q 1069 1734 1069 1313 
Q 1069 891 1326 650 
Q 1584 409 2034 409 
Q 2484 409 2743 651 
Q 3003 894 3003 1313 
Q 3003 1734 2745 1975 
Q 2488 2216 2034 2216 
z
M 1403 2484 
Q 997 2584 770 2862 
Q 544 3141 544 3541 
Q 544 4100 942 4425 
Q 1341 4750 2034 4750 
Q 2731 4750 3128 4425 
Q 3525 4100 3525 3541 
Q 3525 3141 3298 2862 
Q 3072 2584 2669 2484 
Q 3125 2378 3379 2068 
Q 3634 1759 3634 1313 
Q 3634 634 3220 271 
Q 2806 -91 2034 -91 
Q 1263 -91 848 271 
Q 434 634 434 1313 
Q 434 1759 690 2068 
Q 947 2378 1403 2484 
z
M 1172 3481 
Q 1172 3119 1398 2916 
Q 1625 2713 2034 2713 
Q 2441 2713 2670 2916 
Q 2900 3119 2900 3481 
Q 2900 3844 2670 4047 
Q 2441 4250 2034 4250 
Q 1625 4250 1398 4047 
Q 1172 3844 1172 3481 
z
" transform="scale(0.015625)"/>
       </defs>
       <use xlink:href="#DejaVuSans-38"/>
       <use xlink:href="#DejaVuSans-30" x="63.623047"/>
      </g>
     </g>
    </g>
    <g id="text_5">
     <!-- batch iteration -->
     <g transform="translate(203.277375 337.793437) scale(0.18 -0.18)">
      <defs>
       <path id="DejaVuSans-62" d="M 3116 1747 
Q 3116 2381 2855 2742 
Q 2594 3103 2138 3103 
Q 1681 3103 1420 2742 
Q 1159 2381 1159 1747 
Q 1159 1113 1420 752 
Q 1681 391 2138 391 
Q 2594 391 2855 752 
Q 3116 1113 3116 1747 
z
M 1159 2969 
Q 1341 3281 1617 3432 
Q 1894 3584 2278 3584 
Q 2916 3584 3314 3078 
Q 3713 2572 3713 1747 
Q 3713 922 3314 415 
Q 2916 -91 2278 -91 
Q 1894 -91 1617 61 
Q 1341 213 1159 525 
L 1159 0 
L 581 0 
L 581 4863 
L 1159 4863 
L 1159 2969 
z
" transform="scale(0.015625)"/>
       <path id="DejaVuSans-61" d="M 2194 1759 
Q 1497 1759 1228 1600 
Q 959 1441 959 1056 
Q 959 750 1161 570 
Q 1363 391 1709 391 
Q 2188 391 2477 730 
Q 2766 1069 2766 1631 
L 2766 1759 
L 2194 1759 
z
M 3341 1997 
L 3341 0 
L 2766 0 
L 2766 531 
Q 2569 213 2275 61 
Q 1981 -91 1556 -91 
Q 1019 -91 701 211 
Q 384 513 384 1019 
Q 384 1609 779 1909 
Q 1175 2209 1959 2209 
L 2766 2209 
L 2766 2266 
Q 2766 2663 2505 2880 
Q 2244 3097 1772 3097 
Q 1472 3097 1187 3025 
Q 903 2953 641 2809 
L 641 3341 
Q 956 3463 1253 3523 
Q 1550 3584 1831 3584 
Q 2591 3584 2966 3190 
Q 3341 2797 3341 1997 
z
" transform="scale(0.015625)"/>
       <path id="DejaVuSans-74" d="M 1172 4494 
L 1172 3500 
L 2356 3500 
L 2356 3053 
L 1172 3053 
L 1172 1153 
Q 1172 725 1289 603 
Q 1406 481 1766 481 
L 2356 481 
L 2356 0 
L 1766 0 
Q 1100 0 847 248 
Q 594 497 594 1153 
L 594 3053 
L 172 3053 
L 172 3500 
L 594 3500 
L 594 4494 
L 1172 4494 
z
" transform="scale(0.015625)"/>
       <path id="DejaVuSans-63" d="M 3122 3366 
L 3122 2828 
Q 2878 2963 2633 3030 
Q 2388 3097 2138 3097 
Q 1578 3097 1268 2742 
Q 959 2388 959 1747 
Q 959 1106 1268 751 
Q 1578 397 2138 397 
Q 2388 397 2633 464 
Q 2878 531 3122 666 
L 3122 134 
Q 2881 22 2623 -34 
Q 2366 -91 2075 -91 
Q 1284 -91 818 406 
Q 353 903 353 1747 
Q 353 2603 823 3093 
Q 1294 3584 2113 3584 
Q 2378 3584 2631 3529 
Q 2884 3475 3122 3366 
z
" transform="scale(0.015625)"/>
       <path id="DejaVuSans-68" d="M 3513 2113 
L 3513 0 
L 2938 0 
L 2938 2094 
Q 2938 2591 2744 2837 
Q 2550 3084 2163 3084 
Q 1697 3084 1428 2787 
Q 1159 2491 1159 1978 
L 1159 0 
L 581 0 
L 581 4863 
L 1159 4863 
L 1159 2956 
Q 1366 3272 1645 3428 
Q 1925 3584 2291 3584 
Q 2894 3584 3203 3211 
Q 3513 2838 3513 2113 
z
" transform="scale(0.015625)"/>
       <path id="DejaVuSans-20" transform="scale(0.015625)"/>
       <path id="DejaVuSans-69" d="M 603 3500 
L 1178 3500 
L 1178 0 
L 603 0 
L 603 3500 
z
M 603 4863 
L 1178 4863 
L 1178 4134 
L 603 4134 
L 603 4863 
z
" transform="scale(0.015625)"/>
       <path id="DejaVuSans-65" d="M 3597 1894 
L 3597 1613 
L 953 1613 
Q 991 1019 1311 708 
Q 1631 397 2203 397 
Q 2534 397 2845 478 
Q 3156 559 3463 722 
L 3463 178 
Q 3153 47 2828 -22 
Q 2503 -91 2169 -91 
Q 1331 -91 842 396 
Q 353 884 353 1716 
Q 353 2575 817 3079 
Q 1281 3584 2069 3584 
Q 2775 3584 3186 3129 
Q 3597 2675 3597 1894 
z
M 3022 2063 
Q 3016 2534 2758 2815 
Q 2500 3097 2075 3097 
Q 1594 3097 1305 2825 
Q 1016 2553 972 2059 
L 3022 2063 
z
" transform="scale(0.015625)"/>
       <path id="DejaVuSans-72" d="M 2631 2963 
Q 2534 3019 2420 3045 
Q 2306 3072 2169 3072 
Q 1681 3072 1420 2755 
Q 1159 2438 1159 1844 
L 1159 0 
L 581 0 
L 581 3500 
L 1159 3500 
L 1159 2956 
Q 1341 3275 1631 3429 
Q 1922 3584 2338 3584 
Q 2397 3584 2469 3576 
Q 2541 3569 2628 3553 
L 2631 2963 
z
" transform="scale(0.015625)"/>
       <path id="DejaVuSans-6f" d="M 1959 3097 
Q 1497 3097 1228 2736 
Q 959 2375 959 1747 
Q 959 1119 1226 758 
Q 1494 397 1959 397 
Q 2419 397 2687 759 
Q 2956 1122 2956 1747 
Q 2956 2369 2687 2733 
Q 2419 3097 1959 3097 
z
M 1959 3584 
Q 2709 3584 3137 3096 
Q 3566 2609 3566 1747 
Q 3566 888 3137 398 
Q 2709 -91 1959 -91 
Q 1206 -91 779 398 
Q 353 888 353 1747 
Q 353 2609 779 3096 
Q 1206 3584 1959 3584 
z
" transform="scale(0.015625)"/>
       <path id="DejaVuSans-6e" d="M 3513 2113 
L 3513 0 
L 2938 0 
L 2938 2094 
Q 2938 2591 2744 2837 
Q 2550 3084 2163 3084 
Q 1697 3084 1428 2787 
Q 1159 2491 1159 1978 
L 1159 0 
L 581 0 
L 581 3500 
L 1159 3500 
L 1159 2956 
Q 1366 3272 1645 3428 
Q 1925 3584 2291 3584 
Q 2894 3584 3203 3211 
Q 3513 2838 3513 2113 
z
" transform="scale(0.015625)"/>
      </defs>
      <use xlink:href="#DejaVuSans-62"/>
      <use xlink:href="#DejaVuSans-61" x="63.476562"/>
      <use xlink:href="#DejaVuSans-74" x="124.755859"/>
      <use xlink:href="#DejaVuSans-63" x="163.964844"/>
      <use xlink:href="#DejaVuSans-68" x="218.945312"/>
      <use xlink:href="#DejaVuSans-20" x="282.324219"/>
      <use xlink:href="#DejaVuSans-69" x="314.111328"/>
      <use xlink:href="#DejaVuSans-74" x="341.894531"/>
      <use xlink:href="#DejaVuSans-65" x="381.103516"/>
      <use xlink:href="#DejaVuSans-72" x="442.626953"/>
      <use xlink:href="#DejaVuSans-61" x="483.740234"/>
      <use xlink:href="#DejaVuSans-74" x="545.019531"/>
      <use xlink:href="#DejaVuSans-69" x="584.228516"/>
      <use xlink:href="#DejaVuSans-6f" x="612.011719"/>
      <use xlink:href="#DejaVuSans-6e" x="673.193359"/>
     </g>
    </g>
   </g>
   <g id="matplotlib.axis_2">
    <g id="ytick_1">
     <g id="line2d_9">
      <path d="M 87.552 293.76 
L 451.584 293.76 
" clip-path="url(#pd7bd9d6d43)" style="fill: none; stroke: #b0b0b0; stroke-width: 0.8; stroke-linecap: square"/>
     </g>
     <g id="line2d_10">
      <defs>
       <path id="mdd96e59d36" d="M 0 0 
L -3.5 0 
" style="stroke: #000000; stroke-width: 0.8"/>
      </defs>
      <g>
       <use xlink:href="#mdd96e59d36" x="87.552" y="293.76" style="stroke: #000000; stroke-width: 0.8"/>
      </g>
     </g>
     <g id="text_6">
      <!-- 0.000 -->
      <g transform="translate(23.29575 301.358437) scale(0.2 -0.2)">
       <defs>
        <path id="DejaVuSans-2e" d="M 684 794 
L 1344 794 
L 1344 0 
L 684 0 
L 684 794 
z
" transform="scale(0.015625)"/>
       </defs>
       <use xlink:href="#DejaVuSans-30"/>
       <use xlink:href="#DejaVuSans-2e" x="63.623047"/>
       <use xlink:href="#DejaVuSans-30" x="95.410156"/>
       <use xlink:href="#DejaVuSans-30" x="159.033203"/>
       <use xlink:href="#DejaVuSans-30" x="222.65625"/>
      </g>
     </g>
    </g>
    <g id="ytick_2">
     <g id="line2d_11">
      <path d="M 87.552 251.576471 
L 451.584 251.576471 
" clip-path="url(#pd7bd9d6d43)" style="fill: none; stroke: #b0b0b0; stroke-width: 0.8; stroke-linecap: square"/>
     </g>
     <g id="line2d_12">
      <g>
       <use xlink:href="#mdd96e59d36" x="87.552" y="251.576471" style="stroke: #000000; stroke-width: 0.8"/>
      </g>
     </g>
     <g id="text_7">
      <!-- 0.025 -->
      <g transform="translate(23.29575 259.174908) scale(0.2 -0.2)">
       <defs>
        <path id="DejaVuSans-35" d="M 691 4666 
L 3169 4666 
L 3169 4134 
L 1269 4134 
L 1269 2991 
Q 1406 3038 1543 3061 
Q 1681 3084 1819 3084 
Q 2600 3084 3056 2656 
Q 3513 2228 3513 1497 
Q 3513 744 3044 326 
Q 2575 -91 1722 -91 
Q 1428 -91 1123 -41 
Q 819 9 494 109 
L 494 744 
Q 775 591 1075 516 
Q 1375 441 1709 441 
Q 2250 441 2565 725 
Q 2881 1009 2881 1497 
Q 2881 1984 2565 2268 
Q 2250 2553 1709 2553 
Q 1456 2553 1204 2497 
Q 953 2441 691 2322 
L 691 4666 
z
" transform="scale(0.015625)"/>
       </defs>
       <use xlink:href="#DejaVuSans-30"/>
       <use xlink:href="#DejaVuSans-2e" x="63.623047"/>
       <use xlink:href="#DejaVuSans-30" x="95.410156"/>
       <use xlink:href="#DejaVuSans-32" x="159.033203"/>
       <use xlink:href="#DejaVuSans-35" x="222.65625"/>
      </g>
     </g>
    </g>
    <g id="ytick_3">
     <g id="line2d_13">
      <path d="M 87.552 209.392941 
L 451.584 209.392941 
" clip-path="url(#pd7bd9d6d43)" style="fill: none; stroke: #b0b0b0; stroke-width: 0.8; stroke-linecap: square"/>
     </g>
     <g id="line2d_14">
      <g>
       <use xlink:href="#mdd96e59d36" x="87.552" y="209.392941" style="stroke: #000000; stroke-width: 0.8"/>
      </g>
     </g>
     <g id="text_8">
      <!-- 0.050 -->
      <g transform="translate(23.29575 216.991379) scale(0.2 -0.2)">
       <use xlink:href="#DejaVuSans-30"/>
       <use xlink:href="#DejaVuSans-2e" x="63.623047"/>
       <use xlink:href="#DejaVuSans-30" x="95.410156"/>
       <use xlink:href="#DejaVuSans-35" x="159.033203"/>
       <use xlink:href="#DejaVuSans-30" x="222.65625"/>
      </g>
     </g>
    </g>
    <g id="ytick_4">
     <g id="line2d_15">
      <path d="M 87.552 167.209412 
L 451.584 167.209412 
" clip-path="url(#pd7bd9d6d43)" style="fill: none; stroke: #b0b0b0; stroke-width: 0.8; stroke-linecap: square"/>
     </g>
     <g id="line2d_16">
      <g>
       <use xlink:href="#mdd96e59d36" x="87.552" y="167.209412" style="stroke: #000000; stroke-width: 0.8"/>
      </g>
     </g>
     <g id="text_9">
      <!-- 0.075 -->
      <g transform="translate(23.29575 174.807849) scale(0.2 -0.2)">
       <defs>
        <path id="DejaVuSans-37" d="M 525 4666 
L 3525 4666 
L 3525 4397 
L 1831 0 
L 1172 0 
L 2766 4134 
L 525 4134 
L 525 4666 
z
" transform="scale(0.015625)"/>
       </defs>
       <use xlink:href="#DejaVuSans-30"/>
       <use xlink:href="#DejaVuSans-2e" x="63.623047"/>
       <use xlink:href="#DejaVuSans-30" x="95.410156"/>
       <use xlink:href="#DejaVuSans-37" x="159.033203"/>
       <use xlink:href="#DejaVuSans-35" x="222.65625"/>
      </g>
     </g>
    </g>
    <g id="ytick_5">
     <g id="line2d_17">
      <path d="M 87.552 125.025882 
L 451.584 125.025882 
" clip-path="url(#pd7bd9d6d43)" style="fill: none; stroke: #b0b0b0; stroke-width: 0.8; stroke-linecap: square"/>
     </g>
     <g id="line2d_18">
      <g>
       <use xlink:href="#mdd96e59d36" x="87.552" y="125.025882" style="stroke: #000000; stroke-width: 0.8"/>
      </g>
     </g>
     <g id="text_10">
      <!-- 0.100 -->
      <g transform="translate(23.29575 132.62432) scale(0.2 -0.2)">
       <defs>
        <path id="DejaVuSans-31" d="M 794 531 
L 1825 531 
L 1825 4091 
L 703 3866 
L 703 4441 
L 1819 4666 
L 2450 4666 
L 2450 531 
L 3481 531 
L 3481 0 
L 794 0 
L 794 531 
z
" transform="scale(0.015625)"/>
       </defs>
       <use xlink:href="#DejaVuSans-30"/>
       <use xlink:href="#DejaVuSans-2e" x="63.623047"/>
       <use xlink:href="#DejaVuSans-31" x="95.410156"/>
       <use xlink:href="#DejaVuSans-30" x="159.033203"/>
       <use xlink:href="#DejaVuSans-30" x="222.65625"/>
      </g>
     </g>
    </g>
    <g id="ytick_6">
     <g id="line2d_19">
      <path d="M 87.552 82.842353 
L 451.584 82.842353 
" clip-path="url(#pd7bd9d6d43)" style="fill: none; stroke: #b0b0b0; stroke-width: 0.8; stroke-linecap: square"/>
     </g>
     <g id="line2d_20">
      <g>
       <use xlink:href="#mdd96e59d36" x="87.552" y="82.842353" style="stroke: #000000; stroke-width: 0.8"/>
      </g>
     </g>
     <g id="text_11">
      <!-- 0.125 -->
      <g transform="translate(23.29575 90.44079) scale(0.2 -0.2)">
       <use xlink:href="#DejaVuSans-30"/>
       <use xlink:href="#DejaVuSans-2e" x="63.623047"/>
       <use xlink:href="#DejaVuSans-31" x="95.410156"/>
       <use xlink:href="#DejaVuSans-32" x="159.033203"/>
       <use xlink:href="#DejaVuSans-35" x="222.65625"/>
      </g>
     </g>
    </g>
    <g id="ytick_7">
     <g id="line2d_21">
      <path d="M 87.552 40.658824 
L 451.584 40.658824 
" clip-path="url(#pd7bd9d6d43)" style="fill: none; stroke: #b0b0b0; stroke-width: 0.8; stroke-linecap: square"/>
     </g>
     <g id="line2d_22">
      <g>
       <use xlink:href="#mdd96e59d36" x="87.552" y="40.658824" style="stroke: #000000; stroke-width: 0.8"/>
      </g>
     </g>
     <g id="text_12">
      <!-- 0.150 -->
      <g transform="translate(23.29575 48.257261) scale(0.2 -0.2)">
       <use xlink:href="#DejaVuSans-30"/>
       <use xlink:href="#DejaVuSans-2e" x="63.623047"/>
       <use xlink:href="#DejaVuSans-31" x="95.410156"/>
       <use xlink:href="#DejaVuSans-35" x="159.033203"/>
       <use xlink:href="#DejaVuSans-30" x="222.65625"/>
      </g>
     </g>
    </g>
    <g id="text_13">
     <!-- time[s] -->
     <g transform="translate(15.552313 182.380219) rotate(-90) scale(0.18 -0.18)">
      <defs>
       <path id="DejaVuSans-6d" d="M 3328 2828 
Q 3544 3216 3844 3400 
Q 4144 3584 4550 3584 
Q 5097 3584 5394 3201 
Q 5691 2819 5691 2113 
L 5691 0 
L 5113 0 
L 5113 2094 
Q 5113 2597 4934 2840 
Q 4756 3084 4391 3084 
Q 3944 3084 3684 2787 
Q 3425 2491 3425 1978 
L 3425 0 
L 2847 0 
L 2847 2094 
Q 2847 2600 2669 2842 
Q 2491 3084 2119 3084 
Q 1678 3084 1418 2786 
Q 1159 2488 1159 1978 
L 1159 0 
L 581 0 
L 581 3500 
L 1159 3500 
L 1159 2956 
Q 1356 3278 1631 3431 
Q 1906 3584 2284 3584 
Q 2666 3584 2933 3390 
Q 3200 3197 3328 2828 
z
" transform="scale(0.015625)"/>
       <path id="DejaVuSans-5b" d="M 550 4863 
L 1875 4863 
L 1875 4416 
L 1125 4416 
L 1125 -397 
L 1875 -397 
L 1875 -844 
L 550 -844 
L 550 4863 
z
" transform="scale(0.015625)"/>
       <path id="DejaVuSans-73" d="M 2834 3397 
L 2834 2853 
Q 2591 2978 2328 3040 
Q 2066 3103 1784 3103 
Q 1356 3103 1142 2972 
Q 928 2841 928 2578 
Q 928 2378 1081 2264 
Q 1234 2150 1697 2047 
L 1894 2003 
Q 2506 1872 2764 1633 
Q 3022 1394 3022 966 
Q 3022 478 2636 193 
Q 2250 -91 1575 -91 
Q 1294 -91 989 -36 
Q 684 19 347 128 
L 347 722 
Q 666 556 975 473 
Q 1284 391 1588 391 
Q 1994 391 2212 530 
Q 2431 669 2431 922 
Q 2431 1156 2273 1281 
Q 2116 1406 1581 1522 
L 1381 1569 
Q 847 1681 609 1914 
Q 372 2147 372 2553 
Q 372 3047 722 3315 
Q 1072 3584 1716 3584 
Q 2034 3584 2315 3537 
Q 2597 3491 2834 3397 
z
" transform="scale(0.015625)"/>
       <path id="DejaVuSans-5d" d="M 1947 4863 
L 1947 -844 
L 622 -844 
L 622 -397 
L 1369 -397 
L 1369 4416 
L 622 4416 
L 622 4863 
L 1947 4863 
z
" transform="scale(0.015625)"/>
      </defs>
      <use xlink:href="#DejaVuSans-74"/>
      <use xlink:href="#DejaVuSans-69" x="39.208984"/>
      <use xlink:href="#DejaVuSans-6d" x="66.992188"/>
      <use xlink:href="#DejaVuSans-65" x="164.404297"/>
      <use xlink:href="#DejaVuSans-5b" x="225.927734"/>
      <use xlink:href="#DejaVuSans-73" x="264.941406"/>
      <use xlink:href="#DejaVuSans-5d" x="317.041016"/>
     </g>
    </g>
   </g>
   <g id="patch_399">
    <path d="M 87.552 293.76 
L 87.552 6.912 
" style="fill: none; stroke: #000000; stroke-width: 0.8; stroke-linejoin: miter; stroke-linecap: square"/>
   </g>
   <g id="patch_400">
    <path d="M 451.584 293.76 
L 451.584 6.912 
" style="fill: none; stroke: #000000; stroke-width: 0.8; stroke-linejoin: miter; stroke-linecap: square"/>
   </g>
   <g id="patch_401">
    <path d="M 87.552 293.76 
L 451.584 293.76 
" style="fill: none; stroke: #000000; stroke-width: 0.8; stroke-linejoin: miter; stroke-linecap: square"/>
   </g>
   <g id="patch_402">
    <path d="M 87.552 6.912 
L 451.584 6.912 
" style="fill: none; stroke: #000000; stroke-width: 0.8; stroke-linejoin: miter; stroke-linecap: square"/>
   </g>
  </g>
 </g>
 <defs>
  <clipPath id="pd7bd9d6d43">
   <rect x="87.552" y="6.912" width="364.032" height="286.848"/>
  </clipPath>
 </defs>
</svg>
