<?xml version="1.0" encoding="utf-8" standalone="no"?>
<!DOCTYPE svg PUBLIC "-//W3C//DTD SVG 1.1//EN"
  "http://www.w3.org/Graphics/SVG/1.1/DTD/svg11.dtd">
<svg xmlns:xlink="http://www.w3.org/1999/xlink" width="1080pt" height="360pt" viewBox="0 0 1080 360" xmlns="http://www.w3.org/2000/svg" version="1.1">
 <metadata>
  <rdf:RDF xmlns:dc="http://purl.org/dc/elements/1.1/" xmlns:cc="http://creativecommons.org/ns#" xmlns:rdf="http://www.w3.org/1999/02/22-rdf-syntax-ns#">
   <cc:Work>
    <dc:type rdf:resource="http://purl.org/dc/dcmitype/StillImage"/>
    <dc:date>2024-03-06T11:07:12.743299</dc:date>
    <dc:format>image/svg+xml</dc:format>
    <dc:creator>
     <cc:Agent>
      <dc:title>Matplotlib v3.7.0, https://matplotlib.org/</dc:title>
     </cc:Agent>
    </dc:creator>
   </cc:Work>
  </rdf:RDF>
 </metadata>
 <defs>
  <style type="text/css">*{stroke-linejoin: round; stroke-linecap: butt}</style>
 </defs>
 <g id="figure_1">
  <g id="patch_1">
   <path d="M 0 360 
L 1080 360 
L 1080 0 
L 0 0 
L 0 360 
z
" style="fill: none"/>
  </g>
  <g id="axes_1">
   <g id="patch_2">
    <path d="M 54.29 283.68 
L 387.497778 283.68 
L 387.497778 9 
L 54.29 9 
L 54.29 283.68 
z
" style="fill: none"/>
   </g>
   <g id="matplotlib.axis_1">
    <g id="xtick_1">
     <g id="line2d_1">
      <defs>
       <path id="mbe7ca78b03" d="M 0 0 
L 0 3.5 
" style="stroke: #000000; stroke-width: 0.8"/>
      </defs>
      <g>
       <use xlink:href="#mbe7ca78b03" x="165.173525" y="283.68" style="stroke: #000000; stroke-width: 0.8"/>
      </g>
     </g>
     <g id="text_1">
      <!-- 100 -->
      <g transform="translate(151.812275 301.317813) scale(0.14 -0.14)">
       <defs>
        <path id="DejaVuSans-31" d="M 794 531 
L 1825 531 
L 1825 4091 
L 703 3866 
L 703 4441 
L 1819 4666 
L 2450 4666 
L 2450 531 
L 3481 531 
L 3481 0 
L 794 0 
L 794 531 
z
" transform="scale(0.015625)"/>
        <path id="DejaVuSans-30" d="M 2034 4250 
Q 1547 4250 1301 3770 
Q 1056 3291 1056 2328 
Q 1056 1369 1301 889 
Q 1547 409 2034 409 
Q 2525 409 2770 889 
Q 3016 1369 3016 2328 
Q 3016 3291 2770 3770 
Q 2525 4250 2034 4250 
z
M 2034 4750 
Q 2819 4750 3233 4129 
Q 3647 3509 3647 2328 
Q 3647 1150 3233 529 
Q 2819 -91 2034 -91 
Q 1250 -91 836 529 
Q 422 1150 422 2328 
Q 422 3509 836 4129 
Q 1250 4750 2034 4750 
z
" transform="scale(0.015625)"/>
       </defs>
       <use xlink:href="#DejaVuSans-31"/>
       <use xlink:href="#DejaVuSans-30" x="63.623047"/>
       <use xlink:href="#DejaVuSans-30" x="127.246094"/>
      </g>
     </g>
    </g>
    <g id="xtick_2">
     <g id="line2d_2">
      <g>
       <use xlink:href="#mbe7ca78b03" x="276.614253" y="283.68" style="stroke: #000000; stroke-width: 0.8"/>
      </g>
     </g>
     <g id="text_2">
      <!-- 200 -->
      <g transform="translate(263.253003 301.317813) scale(0.14 -0.14)">
       <defs>
        <path id="DejaVuSans-32" d="M 1228 531 
L 3431 531 
L 3431 0 
L 469 0 
L 469 531 
Q 828 903 1448 1529 
Q 2069 2156 2228 2338 
Q 2531 2678 2651 2914 
Q 2772 3150 2772 3378 
Q 2772 3750 2511 3984 
Q 2250 4219 1831 4219 
Q 1534 4219 1204 4116 
Q 875 4013 500 3803 
L 500 4441 
Q 881 4594 1212 4672 
Q 1544 4750 1819 4750 
Q 2544 4750 2975 4387 
Q 3406 4025 3406 3419 
Q 3406 3131 3298 2873 
Q 3191 2616 2906 2266 
Q 2828 2175 2409 1742 
Q 1991 1309 1228 531 
z
" transform="scale(0.015625)"/>
       </defs>
       <use xlink:href="#DejaVuSans-32"/>
       <use xlink:href="#DejaVuSans-30" x="63.623047"/>
       <use xlink:href="#DejaVuSans-30" x="127.246094"/>
      </g>
     </g>
    </g>
    <g id="xtick_3">
     <g id="line2d_3">
      <g>
       <use xlink:href="#mbe7ca78b03" x="54.847204" y="283.68" style="stroke: #000000; stroke-width: 0.8"/>
      </g>
     </g>
     <g id="text_3">
      <!-- 1 -->
      <g transform="translate(50.393454 301.317813) scale(0.14 -0.14)">
       <use xlink:href="#DejaVuSans-31"/>
      </g>
     </g>
    </g>
    <g id="text_4">
     <!-- バッチ -->
     <g transform="translate(204.68967 321.906562) scale(0.18 -0.18)">
      <defs>
       <path id="DejaVuSans-30d0" d="M 319 -1131 
L 319 4513 
L 3519 4513 
L 3519 -1131 
L 319 -1131 
z
M 678 -775 
L 3163 -775 
L 3163 4153 
L 678 4153 
L 678 -775 
z
" transform="scale(0.015625)"/>
       <path id="DejaVuSans-30c3" d="M 319 -1131 
L 319 4513 
L 3519 4513 
L 3519 -1131 
L 319 -1131 
z
M 678 -775 
L 3163 -775 
L 3163 4153 
L 678 4153 
L 678 -775 
z
" transform="scale(0.015625)"/>
       <path id="DejaVuSans-30c1" d="M 319 -1131 
L 319 4513 
L 3519 4513 
L 3519 -1131 
L 319 -1131 
z
M 678 -775 
L 3163 -775 
L 3163 4153 
L 678 4153 
L 678 -775 
z
" transform="scale(0.015625)"/>
      </defs>
      <use xlink:href="#DejaVuSans-30d0"/>
      <use xlink:href="#DejaVuSans-30c3" x="60.009766"/>
      <use xlink:href="#DejaVuSans-30c1" x="120.019531"/>
     </g>
    </g>
   </g>
   <g id="matplotlib.axis_2">
    <g id="ytick_1">
     <g id="line2d_4">
      <defs>
       <path id="m26c44c5917" d="M 0 0 
L -3.5 0 
" style="stroke: #000000; stroke-width: 0.8"/>
      </defs>
      <g>
       <use xlink:href="#m26c44c5917" x="54.29" y="283.68" style="stroke: #000000; stroke-width: 0.8"/>
      </g>
     </g>
     <g id="text_5">
      <!-- 0.0 -->
      <g transform="translate(25.025625 288.998906) scale(0.14 -0.14)">
       <defs>
        <path id="DejaVuSans-2e" d="M 684 794 
L 1344 794 
L 1344 0 
L 684 0 
L 684 794 
z
" transform="scale(0.015625)"/>
       </defs>
       <use xlink:href="#DejaVuSans-30"/>
       <use xlink:href="#DejaVuSans-2e" x="63.623047"/>
       <use xlink:href="#DejaVuSans-30" x="95.410156"/>
      </g>
     </g>
    </g>
    <g id="ytick_2">
     <g id="line2d_5">
      <g>
       <use xlink:href="#m26c44c5917" x="54.29" y="244.44" style="stroke: #000000; stroke-width: 0.8"/>
      </g>
     </g>
     <g id="text_6">
      <!-- 0.5 -->
      <g transform="translate(25.025625 249.758906) scale(0.14 -0.14)">
       <defs>
        <path id="DejaVuSans-35" d="M 691 4666 
L 3169 4666 
L 3169 4134 
L 1269 4134 
L 1269 2991 
Q 1406 3038 1543 3061 
Q 1681 3084 1819 3084 
Q 2600 3084 3056 2656 
Q 3513 2228 3513 1497 
Q 3513 744 3044 326 
Q 2575 -91 1722 -91 
Q 1428 -91 1123 -41 
Q 819 9 494 109 
L 494 744 
Q 775 591 1075 516 
Q 1375 441 1709 441 
Q 2250 441 2565 725 
Q 2881 1009 2881 1497 
Q 2881 1984 2565 2268 
Q 2250 2553 1709 2553 
Q 1456 2553 1204 2497 
Q 953 2441 691 2322 
L 691 4666 
z
" transform="scale(0.015625)"/>
       </defs>
       <use xlink:href="#DejaVuSans-30"/>
       <use xlink:href="#DejaVuSans-2e" x="63.623047"/>
       <use xlink:href="#DejaVuSans-35" x="95.410156"/>
      </g>
     </g>
    </g>
    <g id="ytick_3">
     <g id="line2d_6">
      <g>
       <use xlink:href="#m26c44c5917" x="54.29" y="205.2" style="stroke: #000000; stroke-width: 0.8"/>
      </g>
     </g>
     <g id="text_7">
      <!-- 1.0 -->
      <g transform="translate(25.025625 210.518906) scale(0.14 -0.14)">
       <use xlink:href="#DejaVuSans-31"/>
       <use xlink:href="#DejaVuSans-2e" x="63.623047"/>
       <use xlink:href="#DejaVuSans-30" x="95.410156"/>
      </g>
     </g>
    </g>
    <g id="ytick_4">
     <g id="line2d_7">
      <g>
       <use xlink:href="#m26c44c5917" x="54.29" y="165.96" style="stroke: #000000; stroke-width: 0.8"/>
      </g>
     </g>
     <g id="text_8">
      <!-- 1.5 -->
      <g transform="translate(25.025625 171.278906) scale(0.14 -0.14)">
       <use xlink:href="#DejaVuSans-31"/>
       <use xlink:href="#DejaVuSans-2e" x="63.623047"/>
       <use xlink:href="#DejaVuSans-35" x="95.410156"/>
      </g>
     </g>
    </g>
    <g id="ytick_5">
     <g id="line2d_8">
      <g>
       <use xlink:href="#m26c44c5917" x="54.29" y="126.72" style="stroke: #000000; stroke-width: 0.8"/>
      </g>
     </g>
     <g id="text_9">
      <!-- 2.0 -->
      <g transform="translate(25.025625 132.038906) scale(0.14 -0.14)">
       <use xlink:href="#DejaVuSans-32"/>
       <use xlink:href="#DejaVuSans-2e" x="63.623047"/>
       <use xlink:href="#DejaVuSans-30" x="95.410156"/>
      </g>
     </g>
    </g>
    <g id="ytick_6">
     <g id="line2d_9">
      <g>
       <use xlink:href="#m26c44c5917" x="54.29" y="87.48" style="stroke: #000000; stroke-width: 0.8"/>
      </g>
     </g>
     <g id="text_10">
      <!-- 2.5 -->
      <g transform="translate(25.025625 92.798906) scale(0.14 -0.14)">
       <use xlink:href="#DejaVuSans-32"/>
       <use xlink:href="#DejaVuSans-2e" x="63.623047"/>
       <use xlink:href="#DejaVuSans-35" x="95.410156"/>
      </g>
     </g>
    </g>
    <g id="ytick_7">
     <g id="line2d_10">
      <g>
       <use xlink:href="#m26c44c5917" x="54.29" y="48.24" style="stroke: #000000; stroke-width: 0.8"/>
      </g>
     </g>
     <g id="text_11">
      <!-- 3.0 -->
      <g transform="translate(25.025625 53.558906) scale(0.14 -0.14)">
       <defs>
        <path id="DejaVuSans-33" d="M 2597 2516 
Q 3050 2419 3304 2112 
Q 3559 1806 3559 1356 
Q 3559 666 3084 287 
Q 2609 -91 1734 -91 
Q 1441 -91 1130 -33 
Q 819 25 488 141 
L 488 750 
Q 750 597 1062 519 
Q 1375 441 1716 441 
Q 2309 441 2620 675 
Q 2931 909 2931 1356 
Q 2931 1769 2642 2001 
Q 2353 2234 1838 2234 
L 1294 2234 
L 1294 2753 
L 1863 2753 
Q 2328 2753 2575 2939 
Q 2822 3125 2822 3475 
Q 2822 3834 2567 4026 
Q 2313 4219 1838 4219 
Q 1578 4219 1281 4162 
Q 984 4106 628 3988 
L 628 4550 
Q 988 4650 1302 4700 
Q 1616 4750 1894 4750 
Q 2613 4750 3031 4423 
Q 3450 4097 3450 3541 
Q 3450 3153 3228 2886 
Q 3006 2619 2597 2516 
z
" transform="scale(0.015625)"/>
       </defs>
       <use xlink:href="#DejaVuSans-33"/>
       <use xlink:href="#DejaVuSans-2e" x="63.623047"/>
       <use xlink:href="#DejaVuSans-30" x="95.410156"/>
      </g>
     </g>
    </g>
    <g id="ytick_8">
     <g id="line2d_11">
      <g>
       <use xlink:href="#m26c44c5917" x="54.29" y="9" style="stroke: #000000; stroke-width: 0.8"/>
      </g>
     </g>
     <g id="text_12">
      <!-- 3.5 -->
      <g transform="translate(25.025625 14.318906) scale(0.14 -0.14)">
       <use xlink:href="#DejaVuSans-33"/>
       <use xlink:href="#DejaVuSans-2e" x="63.623047"/>
       <use xlink:href="#DejaVuSans-35" x="95.410156"/>
      </g>
     </g>
    </g>
    <g id="text_13">
     <!-- スループット (MOP/s) -->
     <g transform="translate(17.282187 216.628594) rotate(-90) scale(0.18 -0.18)">
      <defs>
       <path id="DejaVuSans-30b9" d="M 319 -1131 
L 319 4513 
L 3519 4513 
L 3519 -1131 
L 319 -1131 
z
M 678 -775 
L 3163 -775 
L 3163 4153 
L 678 4153 
L 678 -775 
z
" transform="scale(0.015625)"/>
       <path id="DejaVuSans-30eb" d="M 319 -1131 
L 319 4513 
L 3519 4513 
L 3519 -1131 
L 319 -1131 
z
M 678 -775 
L 3163 -775 
L 3163 4153 
L 678 4153 
L 678 -775 
z
" transform="scale(0.015625)"/>
       <path id="DejaVuSans-30fc" d="M 319 -1131 
L 319 4513 
L 3519 4513 
L 3519 -1131 
L 319 -1131 
z
M 678 -775 
L 3163 -775 
L 3163 4153 
L 678 4153 
L 678 -775 
z
" transform="scale(0.015625)"/>
       <path id="DejaVuSans-30d7" d="M 319 -1131 
L 319 4513 
L 3519 4513 
L 3519 -1131 
L 319 -1131 
z
M 678 -775 
L 3163 -775 
L 3163 4153 
L 678 4153 
L 678 -775 
z
" transform="scale(0.015625)"/>
       <path id="DejaVuSans-30c8" d="M 319 -1131 
L 319 4513 
L 3519 4513 
L 3519 -1131 
L 319 -1131 
z
M 678 -775 
L 3163 -775 
L 3163 4153 
L 678 4153 
L 678 -775 
z
" transform="scale(0.015625)"/>
       <path id="DejaVuSans-20" transform="scale(0.015625)"/>
       <path id="DejaVuSans-28" d="M 1984 4856 
Q 1566 4138 1362 3434 
Q 1159 2731 1159 2009 
Q 1159 1288 1364 580 
Q 1569 -128 1984 -844 
L 1484 -844 
Q 1016 -109 783 600 
Q 550 1309 550 2009 
Q 550 2706 781 3412 
Q 1013 4119 1484 4856 
L 1984 4856 
z
" transform="scale(0.015625)"/>
       <path id="DejaVuSans-4d" d="M 628 4666 
L 1569 4666 
L 2759 1491 
L 3956 4666 
L 4897 4666 
L 4897 0 
L 4281 0 
L 4281 4097 
L 3078 897 
L 2444 897 
L 1241 4097 
L 1241 0 
L 628 0 
L 628 4666 
z
" transform="scale(0.015625)"/>
       <path id="DejaVuSans-4f" d="M 2522 4238 
Q 1834 4238 1429 3725 
Q 1025 3213 1025 2328 
Q 1025 1447 1429 934 
Q 1834 422 2522 422 
Q 3209 422 3611 934 
Q 4013 1447 4013 2328 
Q 4013 3213 3611 3725 
Q 3209 4238 2522 4238 
z
M 2522 4750 
Q 3503 4750 4090 4092 
Q 4678 3434 4678 2328 
Q 4678 1225 4090 567 
Q 3503 -91 2522 -91 
Q 1538 -91 948 565 
Q 359 1222 359 2328 
Q 359 3434 948 4092 
Q 1538 4750 2522 4750 
z
" transform="scale(0.015625)"/>
       <path id="DejaVuSans-50" d="M 1259 4147 
L 1259 2394 
L 2053 2394 
Q 2494 2394 2734 2622 
Q 2975 2850 2975 3272 
Q 2975 3691 2734 3919 
Q 2494 4147 2053 4147 
L 1259 4147 
z
M 628 4666 
L 2053 4666 
Q 2838 4666 3239 4311 
Q 3641 3956 3641 3272 
Q 3641 2581 3239 2228 
Q 2838 1875 2053 1875 
L 1259 1875 
L 1259 0 
L 628 0 
L 628 4666 
z
" transform="scale(0.015625)"/>
       <path id="DejaVuSans-2f" d="M 1625 4666 
L 2156 4666 
L 531 -594 
L 0 -594 
L 1625 4666 
z
" transform="scale(0.015625)"/>
       <path id="DejaVuSans-73" d="M 2834 3397 
L 2834 2853 
Q 2591 2978 2328 3040 
Q 2066 3103 1784 3103 
Q 1356 3103 1142 2972 
Q 928 2841 928 2578 
Q 928 2378 1081 2264 
Q 1234 2150 1697 2047 
L 1894 2003 
Q 2506 1872 2764 1633 
Q 3022 1394 3022 966 
Q 3022 478 2636 193 
Q 2250 -91 1575 -91 
Q 1294 -91 989 -36 
Q 684 19 347 128 
L 347 722 
Q 666 556 975 473 
Q 1284 391 1588 391 
Q 1994 391 2212 530 
Q 2431 669 2431 922 
Q 2431 1156 2273 1281 
Q 2116 1406 1581 1522 
L 1381 1569 
Q 847 1681 609 1914 
Q 372 2147 372 2553 
Q 372 3047 722 3315 
Q 1072 3584 1716 3584 
Q 2034 3584 2315 3537 
Q 2597 3491 2834 3397 
z
" transform="scale(0.015625)"/>
       <path id="DejaVuSans-29" d="M 513 4856 
L 1013 4856 
Q 1481 4119 1714 3412 
Q 1947 2706 1947 2009 
Q 1947 1309 1714 600 
Q 1481 -109 1013 -844 
L 513 -844 
Q 928 -128 1133 580 
Q 1338 1288 1338 2009 
Q 1338 2731 1133 3434 
Q 928 4138 513 4856 
z
" transform="scale(0.015625)"/>
      </defs>
      <use xlink:href="#DejaVuSans-30b9"/>
      <use xlink:href="#DejaVuSans-30eb" x="60.009766"/>
      <use xlink:href="#DejaVuSans-30fc" x="120.019531"/>
      <use xlink:href="#DejaVuSans-30d7" x="180.029297"/>
      <use xlink:href="#DejaVuSans-30c3" x="240.039062"/>
      <use xlink:href="#DejaVuSans-30c8" x="300.048828"/>
      <use xlink:href="#DejaVuSans-20" x="360.058594"/>
      <use xlink:href="#DejaVuSans-28" x="391.845703"/>
      <use xlink:href="#DejaVuSans-4d" x="430.859375"/>
      <use xlink:href="#DejaVuSans-4f" x="517.138672"/>
      <use xlink:href="#DejaVuSans-50" x="595.849609"/>
      <use xlink:href="#DejaVuSans-2f" x="656.152344"/>
      <use xlink:href="#DejaVuSans-73" x="689.84375"/>
      <use xlink:href="#DejaVuSans-29" x="741.943359"/>
     </g>
    </g>
   </g>
   <g id="line2d_12">
    <path d="M 54.847204 118.732855 
L 55.961611 125.104646 
L 57.076018 120.41994 
L 58.190425 124.080247 
L 59.304833 106.402156 
L 60.41924 121.121472 
L 61.533647 116.57646 
L 62.648055 122.149874 
L 63.762462 120.447957 
L 64.876869 126.20109 
L 65.991276 115.736018 
L 67.105684 125.739314 
L 68.220091 115.939516 
L 69.334498 125.241908 
L 70.448906 112.205673 
L 71.563313 125.542329 
L 72.67772 126.822652 
L 73.792127 123.628673 
L 74.906535 125.627951 
L 77.135349 128.97889 
L 78.249757 126.83152 
L 79.364164 123.284695 
L 80.478571 130.90165 
L 81.592978 130.697288 
L 82.707386 128.025672 
L 83.821793 129.213624 
L 84.9362 125.166724 
L 86.050608 127.314172 
L 87.165015 125.957488 
L 88.279422 113.905079 
L 89.393829 120.31509 
L 90.508237 125.11579 
L 91.622644 123.566281 
L 92.737051 125.168372 
L 93.851459 117.46093 
L 94.965866 126.07976 
L 96.080273 127.325552 
L 97.19468 126.196774 
L 98.309088 128.440988 
L 100.537902 128.167878 
L 101.65231 127.651715 
L 102.766717 119.329695 
L 103.881124 127.129038 
L 104.995531 126.067439 
L 106.109939 127.735217 
L 107.224346 134.447533 
L 108.338753 124.125922 
L 109.45316 122.857057 
L 110.567568 122.593836 
L 111.681975 125.159582 
L 112.796382 125.506699 
L 113.91079 120.534442 
L 115.025197 113.897702 
L 116.139604 123.855794 
L 117.254011 112.554595 
L 118.368419 119.80238 
L 119.482826 124.020523 
L 120.597233 115.369124 
L 121.711641 118.87043 
L 122.826048 124.591387 
L 123.940455 125.490925 
L 125.054862 125.444778 
L 126.16927 119.187097 
L 127.283677 128.220852 
L 128.398084 128.185222 
L 129.512492 118.145511 
L 130.626899 123.505852 
L 131.741306 123.479561 
L 133.970121 129.542612 
L 135.084528 127.497658 
L 136.198935 126.796361 
L 137.313343 126.590273 
L 138.42775 111.290361 
L 139.542157 127.924903 
L 140.656564 116.66836 
L 141.770972 129.20091 
L 142.885379 127.265044 
L 143.999786 126.026001 
L 145.114194 129.235833 
L 146.228601 130.424256 
L 147.343008 120.179712 
L 148.457415 119.918531 
L 149.571823 124.719388 
L 150.68623 130.569993 
L 151.800637 130.46122 
L 152.915045 119.303405 
L 154.029452 128.896407 
L 155.143859 128.246358 
L 156.258266 127.235771 
L 157.372674 115.192387 
L 158.487081 124.149309 
L 159.601488 114.433485 
L 160.715896 84.486694 
L 161.830303 102.721287 
L 162.94471 102.401245 
L 164.059117 124.612341 
L 165.173525 116.030946 
L 166.287932 104.178425 
L 167.402339 122.054129 
L 168.516746 127.506684 
L 170.745561 125.957881 
L 171.859968 103.66391 
L 172.974376 126.894147 
L 174.088783 119.31141 
L 175.20319 121.036086 
L 176.317597 117.857881 
L 177.432005 106.684998 
L 178.546412 108.880711 
L 179.660819 125.997278 
L 180.775227 122.113146 
L 181.889634 124.946509 
L 183.004041 124.38726 
L 184.118448 128.622983 
L 185.232856 131.508457 
L 186.347263 126.848943 
L 187.46167 132.200651 
L 188.576078 125.399025 
L 189.690485 125.656596 
L 190.804892 126.150549 
L 191.919299 116.76128 
L 193.033707 124.16838 
L 195.262521 123.844336 
L 196.376929 115.271102 
L 197.491336 127.278307 
L 198.605743 126.063907 
L 199.72015 119.366346 
L 200.834558 126.554407 
L 201.948965 127.483767 
L 203.063372 125.005997 
L 204.17778 129.640398 
L 205.292187 125.871553 
L 206.406594 124.063452 
L 207.521001 121.499118 
L 208.635409 107.375543 
L 210.864223 122.793646 
L 211.978631 128.366667 
L 213.093038 120.651848 
L 214.207445 126.265601 
L 215.321852 126.996642 
L 216.43626 127.92561 
L 217.550667 117.807497 
L 218.665074 126.625275 
L 219.779481 116.566258 
L 220.893889 129.39554 
L 222.008296 128.868782 
L 223.122703 128.494354 
L 224.237111 130.366102 
L 225.351518 130.297432 
L 226.465925 129.853471 
L 227.580332 127.804201 
L 228.69474 126.955597 
L 229.809147 127.640963 
L 230.923554 116.56202 
L 232.037962 112.88688 
L 233.152369 127.672826 
L 234.266776 123.465434 
L 235.381183 112.361299 
L 236.495591 126.802561 
L 237.609998 119.675635 
L 238.724405 128.612702 
L 239.838813 109.941054 
L 240.95322 110.324822 
L 242.067627 117.300673 
L 243.182034 123.173175 
L 244.296442 112.990238 
L 245.410849 115.512899 
L 246.525256 104.755802 
L 247.639664 122.824331 
L 248.754071 126.673618 
L 249.868478 125.863391 
L 250.982885 117.406621 
L 252.097293 115.192858 
L 253.2117 128.048823 
L 254.326107 116.696848 
L 255.440515 127.061937 
L 256.554922 125.147339 
L 257.669329 124.288847 
L 258.783736 128.135151 
L 259.898144 119.516949 
L 261.012551 113.530651 
L 262.126958 110.274673 
L 263.241366 132.023051 
L 265.47018 109.375606 
L 266.584587 115.348719 
L 267.698995 123.224579 
L 268.813402 120.530518 
L 269.927809 104.815604 
L 271.042217 127.274226 
L 272.156624 110.567246 
L 273.271031 125.59648 
L 274.385438 119.724607 
L 275.499846 122.287607 
L 276.614253 121.854868 
L 277.72866 104.201263 
L 278.843067 124.692469 
L 279.957475 104.335307 
L 282.186289 117.892256 
L 283.300697 130.712356 
L 284.415104 126.295423 
L 285.529511 129.614499 
L 286.643918 118.479757 
L 287.758326 126.130144 
L 288.872733 121.576892 
L 289.98714 111.015367 
L 291.101548 123.836959 
L 292.215955 126.498294 
L 293.330362 125.490611 
L 294.444769 116.081408 
L 295.559177 124.703221 
L 296.673584 126.311119 
L 297.787991 125.060383 
L 298.902399 125.867786 
L 300.016806 127.263239 
L 301.131213 129.082405 
L 302.24562 126.485502 
L 303.360028 125.850912 
L 304.474435 143.548702 
L 305.588842 127.67934 
L 306.70325 130.970634 
L 307.817657 126.54546 
L 308.932064 129.205697 
L 311.160879 122.313662 
L 312.275286 107.34886 
L 313.389693 100.857151 
L 314.504101 117.304833 
L 315.618508 113.66909 
L 316.732915 123.626004 
L 317.847322 125.387567 
L 318.96173 123.366864 
L 320.076137 125.413779 
L 321.190544 128.6211 
L 322.304952 96.272821 
L 323.419359 122.792311 
L 324.533766 120.244458 
L 325.648173 110.759208 
L 326.762581 127.206576 
L 327.876988 91.103265 
L 328.991395 111.137718 
L 330.105802 121.208899 
L 331.22021 123.172233 
L 332.334617 118.782376 
L 333.449024 89.354024 
L 334.563432 130.951249 
L 335.677839 91.877391 
L 336.792246 135.732565 
L 337.906653 109.464367 
L 339.021061 138.550232 
L 340.135468 114.841738 
L 341.249875 130.349386 
L 342.364283 100.168332 
L 343.47869 122.522419 
L 344.593097 110.890035 
L 345.707504 105.914874 
L 346.821912 106.14223 
L 347.936319 125.40185 
L 349.050726 100.096366 
L 350.165134 121.674835 
L 351.279541 114.231164 
L 352.393948 128.485408 
L 353.508355 98.49922 
L 354.622763 125.47931 
L 355.73717 175.015807 
L 356.851577 112.900064 
L 357.965985 137.460459 
L 359.080392 119.653268 
L 360.194799 117.626836 
L 361.309206 110.865941 
L 362.423614 130.651534 
L 363.538021 98.833074 
L 364.652428 117.708456 
L 365.766836 93.584802 
L 366.881243 113.056161 
L 367.99565 121.383988 
L 369.110057 111.470316 
L 370.224465 122.30809 
L 371.338872 130.644706 
L 372.453279 118.731442 
L 373.567687 102.833827 
L 374.682094 115.185167 
L 375.796501 106.429153 
L 376.910908 121.692728 
L 378.025316 96.352556 
L 379.139723 122.582613 
L 380.25413 122.705748 
L 381.368538 127.835672 
L 382.482945 110.278597 
L 383.597352 127.259942 
L 384.711759 92.905401 
L 385.826167 130.403773 
L 386.940574 85.707608 
L 386.940574 85.707608 
" clip-path="url(#p925eb755e3)" style="fill: none; stroke: #1f77b4; stroke-linecap: square"/>
   </g>
   <g id="line2d_13">
    <path d="M 54.847204 104.834753 
L 55.961611 129.947647 
L 57.076018 138.871294 
L 58.190425 112.42479 
L 59.304833 120.292723 
L 60.41924 113.671366 
L 61.533647 136.856477 
L 62.648055 119.473549 
L 63.762462 132.344819 
L 64.876869 131.819866 
L 65.991276 125.641057 
L 67.105684 116.627707 
L 68.220091 108.614193 
L 69.334498 118.595358 
L 70.448906 107.368088 
L 71.563313 132.171535 
L 72.67772 133.900685 
L 73.792127 116.004969 
L 74.906535 111.321518 
L 76.020942 104.810189 
L 77.135349 103.007268 
L 78.249757 135.489355 
L 79.364164 130.589456 
L 80.478571 132.101138 
L 81.592978 108.315891 
L 82.707386 133.074212 
L 83.821793 136.09938 
L 84.9362 105.44415 
L 86.050608 128.247456 
L 87.165015 131.87802 
L 88.279422 139.529898 
L 89.393829 128.275395 
L 90.508237 132.337441 
L 91.622644 129.550303 
L 92.737051 116.432685 
L 93.851459 125.056302 
L 94.965866 137.874284 
L 96.080273 125.010863 
L 97.19468 113.940238 
L 98.309088 113.943848 
L 99.423495 108.241492 
L 100.537902 136.726278 
L 101.65231 139.148407 
L 102.766717 112.054442 
L 103.881124 121.404942 
L 104.995531 107.482355 
L 106.109939 121.146272 
L 107.224346 131.859655 
L 108.338753 120.124698 
L 109.45316 130.135371 
L 110.567568 116.201953 
L 111.681975 106.697084 
L 112.796382 136.166088 
L 113.91079 134.077892 
L 115.025197 132.681576 
L 116.139604 113.341985 
L 117.254011 124.23964 
L 118.368419 119.916804 
L 119.482826 100.298923 
L 120.597233 106.583602 
L 121.711641 132.446843 
L 122.826048 103.03607 
L 123.940455 134.711697 
L 125.054862 123.362547 
L 126.16927 116.76905 
L 127.283677 126.228794 
L 128.398084 117.799649 
L 129.512492 132.259589 
L 130.626899 126.889595 
L 131.741306 112.962613 
L 132.855713 139.12141 
L 133.970121 138.015862 
L 135.084528 133.616273 
L 137.313343 116.017996 
L 138.42775 137.808282 
L 139.542157 115.107628 
L 140.656564 131.69265 
L 141.770972 112.215248 
L 142.885379 117.375622 
L 143.999786 113.578995 
L 145.114194 133.208099 
L 146.228601 114.539198 
L 147.343008 138.491608 
L 148.457415 111.916788 
L 149.571823 107.480863 
L 150.68623 115.865824 
L 151.800637 134.555679 
L 152.915045 132.227883 
L 154.029452 102.00861 
L 155.143859 113.007111 
L 156.258266 103.3598 
L 157.372674 114.984101 
L 158.487081 122.665959 
L 159.601488 127.139162 
L 161.830303 142.127664 
L 162.94471 129.600059 
L 164.059117 112.33336 
L 165.173525 106.916828 
L 166.287932 115.949797 
L 167.402339 130.97911 
L 168.516746 137.227373 
L 169.631154 116.481892 
L 170.745561 134.80548 
L 171.859968 141.486326 
L 172.974376 133.204175 
L 174.088783 133.288776 
L 175.20319 112.475017 
L 176.317597 126.309864 
L 177.432005 134.008438 
L 178.546412 115.12254 
L 179.660819 124.911507 
L 180.775227 116.200227 
L 181.889634 125.786088 
L 183.004041 113.1151 
L 184.118448 114.011655 
L 185.232856 125.18085 
L 186.347263 114.923279 
L 187.46167 121.216433 
L 188.576078 130.125797 
L 189.690485 108.044193 
L 190.804892 112.991337 
L 191.919299 110.853463 
L 193.033707 121.483814 
L 194.148114 133.313026 
L 195.262521 141.435314 
L 196.376929 132.242795 
L 197.491336 130.96051 
L 198.605743 135.691206 
L 199.72015 112.755661 
L 200.834558 130.654281 
L 201.948965 153.328173 
L 203.063372 109.73065 
L 204.17778 132.360201 
L 205.292187 112.153955 
L 206.406594 107.710417 
L 207.521001 131.904546 
L 208.635409 134.410412 
L 209.749816 123.544464 
L 210.864223 121.474397 
L 211.978631 125.803432 
L 213.093038 125.729425 
L 214.207445 129.070633 
L 215.321852 102.955314 
L 216.43626 113.952246 
L 217.550667 129.387535 
L 218.665074 130.371988 
L 219.779481 116.887005 
L 220.893889 115.015336 
L 222.008296 123.685728 
L 223.122703 143.407281 
L 224.237111 116.833639 
L 225.351518 131.294285 
L 226.465925 130.949366 
L 227.580332 123.627574 
L 228.69474 129.431013 
L 229.809147 117.158154 
L 230.923554 118.266134 
L 232.037962 125.446348 
L 233.152369 128.588059 
L 234.266776 104.036455 
L 235.381183 123.096657 
L 236.495591 88.716766 
L 237.609998 143.257776 
L 238.724405 124.580243 
L 239.838813 135.867629 
L 240.95322 108.252714 
L 242.067627 139.747445 
L 243.182034 125.471933 
L 244.296442 127.625816 
L 245.410849 113.16415 
L 246.525256 126.607695 
L 247.639664 133.485368 
L 248.754071 122.170514 
L 249.868478 128.772017 
L 250.982885 121.541183 
L 252.097293 137.511392 
L 253.2117 114.326988 
L 254.326107 117.390219 
L 255.440515 85.444935 
L 256.554922 123.162031 
L 257.669329 102.673336 
L 258.783736 123.411205 
L 259.898144 108.83998 
L 261.012551 113.417169 
L 262.126958 103.671523 
L 263.241366 107.129273 
L 264.355773 100.098956 
L 265.47018 101.409572 
L 266.584587 121.796871 
L 267.698995 95.935357 
L 268.813402 84.548301 
L 269.927809 105.990293 
L 271.042217 103.294505 
L 272.156624 94.017227 
L 273.271031 110.181988 
L 274.385438 112.29726 
L 275.499846 110.411228 
L 276.614253 110.393727 
L 277.72866 118.7801 
L 278.843067 109.546614 
L 279.957475 103.227012 
L 281.071882 116.232875 
L 282.186289 117.015242 
L 283.300697 108.648567 
L 284.415104 96.120962 
L 285.529511 117.327906 
L 286.643918 119.481162 
L 287.758326 94.407822 
L 288.872733 99.444982 
L 289.98714 114.911193 
L 291.101548 120.898354 
L 292.215955 142.861452 
L 293.330362 134.814113 
L 294.444769 107.889823 
L 295.559177 97.925453 
L 296.673584 119.167713 
L 297.787991 108.826246 
L 298.902399 101.951006 
L 300.016806 101.348593 
L 301.131213 101.557899 
L 302.24562 105.943676 
L 303.360028 104.445414 
L 304.474435 107.08297 
L 305.588842 102.645161 
L 306.70325 109.438782 
L 307.817657 140.697916 
L 308.932064 101.460427 
L 310.046471 99.439018 
L 311.160879 117.311425 
L 312.275286 113.794736 
L 313.389693 114.01864 
L 314.504101 139.95267 
L 315.618508 95.812457 
L 316.732915 120.8526 
L 317.847322 118.142921 
L 318.96173 114.31498 
L 320.076137 113.043212 
L 321.190544 113.307925 
L 322.304952 93.207078 
L 323.419359 101.535611 
L 324.533766 106.609814 
L 325.648173 104.834753 
L 326.762581 104.577417 
L 327.876988 108.149356 
L 328.991395 108.626122 
L 330.105802 98.564358 
L 331.22021 99.026056 
L 332.334617 93.183142 
L 333.449024 122.516768 
L 334.563432 116.642226 
L 335.677839 106.239702 
L 336.792246 121.274744 
L 337.906653 103.046979 
L 339.021061 128.435259 
L 340.135468 88.603127 
L 341.249875 111.437747 
L 342.364283 77.069157 
L 343.47869 110.385644 
L 344.593097 97.544825 
L 345.707504 124.57624 
L 346.821912 122.195 
L 347.936319 103.511973 
L 349.050726 135.36881 
L 350.165134 94.854452 
L 351.279541 107.38551 
L 352.393948 91.007911 
L 353.508355 122.713282 
L 354.622763 104.430267 
L 355.73717 115.607703 
L 356.851577 105.081965 
L 357.965985 125.891173 
L 359.080392 98.43934 
L 360.194799 105.755481 
L 361.309206 135.035034 
L 362.423614 112.255822 
L 363.538021 136.506848 
L 364.652428 109.671711 
L 365.766836 102.858705 
L 366.881243 129.22932 
L 367.99565 110.130348 
L 369.110057 131.637478 
L 370.224465 114.134005 
L 371.338872 103.649391 
L 372.453279 130.168254 
L 373.567687 106.905762 
L 374.682094 151.502728 
L 375.796501 115.634622 
L 376.910908 126.569789 
L 378.025316 88.814945 
L 379.139723 102.516925 
L 380.25413 138.844925 
L 381.368538 120.409188 
L 382.482945 120.584434 
L 383.597352 111.839486 
L 384.711759 136.69316 
L 385.826167 104.688702 
L 386.940574 97.499542 
L 386.940574 97.499542 
" clip-path="url(#p925eb755e3)" style="fill: none; stroke-dasharray: 3.7,1.6; stroke-dashoffset: 0; stroke: #ff7f0e"/>
   </g>
   <g id="patch_3">
    <path d="M 54.29 283.68 
L 54.29 9 
" style="fill: none; stroke: #000000; stroke-width: 0.8; stroke-linejoin: miter; stroke-linecap: square"/>
   </g>
   <g id="patch_4">
    <path d="M 387.497778 283.68 
L 387.497778 9 
" style="fill: none; stroke: #000000; stroke-width: 0.8; stroke-linejoin: miter; stroke-linecap: square"/>
   </g>
   <g id="patch_5">
    <path d="M 54.29 283.68 
L 387.497778 283.68 
" style="fill: none; stroke: #000000; stroke-width: 0.8; stroke-linejoin: miter; stroke-linecap: square"/>
   </g>
   <g id="patch_6">
    <path d="M 54.29 9 
L 387.497778 9 
" style="fill: none; stroke: #000000; stroke-width: 0.8; stroke-linejoin: miter; stroke-linecap: square"/>
   </g>
   <g id="text_14">
    <!-- a) α = 0 -->
    <g transform="translate(184.085295 352.293187) scale(0.18 -0.18)">
     <defs>
      <path id="DejaVuSans-61" d="M 2194 1759 
Q 1497 1759 1228 1600 
Q 959 1441 959 1056 
Q 959 750 1161 570 
Q 1363 391 1709 391 
Q 2188 391 2477 730 
Q 2766 1069 2766 1631 
L 2766 1759 
L 2194 1759 
z
M 3341 1997 
L 3341 0 
L 2766 0 
L 2766 531 
Q 2569 213 2275 61 
Q 1981 -91 1556 -91 
Q 1019 -91 701 211 
Q 384 513 384 1019 
Q 384 1609 779 1909 
Q 1175 2209 1959 2209 
L 2766 2209 
L 2766 2266 
Q 2766 2663 2505 2880 
Q 2244 3097 1772 3097 
Q 1472 3097 1187 3025 
Q 903 2953 641 2809 
L 641 3341 
Q 956 3463 1253 3523 
Q 1550 3584 1831 3584 
Q 2591 3584 2966 3190 
Q 3341 2797 3341 1997 
z
" transform="scale(0.015625)"/>
      <path id="DejaVuSans-3b1" d="M 2644 1628 
L 2506 2350 
Q 2366 3091 1809 3091 
Q 1391 3091 1200 2747 
Q 959 2316 959 1747 
Q 959 1059 1194 731 
Q 1431 397 1809 397 
Q 2228 397 2453 1063 
L 2644 1628 
z
M 2966 2584 
L 3275 3500 
L 3788 3500 
L 3147 1603 
L 3272 919 
Q 3300 766 3409 638 
Q 3538 488 3638 488 
L 3913 488 
L 3913 0 
L 3569 0 
Q 3275 0 3013 263 
Q 2884 394 2831 669 
Q 2688 322 2394 50 
Q 2256 -78 1809 -78 
Q 1075 -78 719 397 
Q 353 888 353 1747 
Q 353 2666 750 3097 
Q 1191 3578 1809 3578 
Q 2781 3578 2966 2584 
z
" transform="scale(0.015625)"/>
      <path id="DejaVuSans-3d" d="M 678 2906 
L 4684 2906 
L 4684 2381 
L 678 2381 
L 678 2906 
z
M 678 1631 
L 4684 1631 
L 4684 1100 
L 678 1100 
L 678 1631 
z
" transform="scale(0.015625)"/>
     </defs>
     <use xlink:href="#DejaVuSans-61"/>
     <use xlink:href="#DejaVuSans-29" x="61.279297"/>
     <use xlink:href="#DejaVuSans-20" x="100.292969"/>
     <use xlink:href="#DejaVuSans-3b1" x="132.080078"/>
     <use xlink:href="#DejaVuSans-20" x="197.998047"/>
     <use xlink:href="#DejaVuSans-3d" x="229.785156"/>
     <use xlink:href="#DejaVuSans-20" x="313.574219"/>
     <use xlink:href="#DejaVuSans-30" x="345.361328"/>
    </g>
   </g>
  </g>
  <g id="axes_2">
   <g id="patch_7">
    <path d="M 398.741111 283.68 
L 731.948889 283.68 
L 731.948889 9 
L 398.741111 9 
L 398.741111 283.68 
z
" style="fill: none"/>
   </g>
   <g id="matplotlib.axis_3">
    <g id="xtick_4">
     <g id="line2d_14">
      <g>
       <use xlink:href="#mbe7ca78b03" x="509.624636" y="283.68" style="stroke: #000000; stroke-width: 0.8"/>
      </g>
     </g>
     <g id="text_15">
      <!-- 100 -->
      <g transform="translate(496.263386 301.317813) scale(0.14 -0.14)">
       <use xlink:href="#DejaVuSans-31"/>
       <use xlink:href="#DejaVuSans-30" x="63.623047"/>
       <use xlink:href="#DejaVuSans-30" x="127.246094"/>
      </g>
     </g>
    </g>
    <g id="xtick_5">
     <g id="line2d_15">
      <g>
       <use xlink:href="#mbe7ca78b03" x="621.065364" y="283.68" style="stroke: #000000; stroke-width: 0.8"/>
      </g>
     </g>
     <g id="text_16">
      <!-- 200 -->
      <g transform="translate(607.704114 301.317813) scale(0.14 -0.14)">
       <use xlink:href="#DejaVuSans-32"/>
       <use xlink:href="#DejaVuSans-30" x="63.623047"/>
       <use xlink:href="#DejaVuSans-30" x="127.246094"/>
      </g>
     </g>
    </g>
    <g id="xtick_6">
     <g id="line2d_16">
      <g>
       <use xlink:href="#mbe7ca78b03" x="399.298315" y="283.68" style="stroke: #000000; stroke-width: 0.8"/>
      </g>
     </g>
     <g id="text_17">
      <!-- 1 -->
      <g transform="translate(394.844565 301.317813) scale(0.14 -0.14)">
       <use xlink:href="#DejaVuSans-31"/>
      </g>
     </g>
    </g>
    <g id="text_18">
     <!-- バッチ -->
     <g transform="translate(549.140781 321.906562) scale(0.18 -0.18)">
      <use xlink:href="#DejaVuSans-30d0"/>
      <use xlink:href="#DejaVuSans-30c3" x="60.009766"/>
      <use xlink:href="#DejaVuSans-30c1" x="120.019531"/>
     </g>
    </g>
   </g>
   <g id="matplotlib.axis_4">
    <g id="ytick_9">
     <g id="line2d_17">
      <g>
       <use xlink:href="#m26c44c5917" x="398.741111" y="283.68" style="stroke: #000000; stroke-width: 0.8"/>
      </g>
     </g>
    </g>
    <g id="ytick_10">
     <g id="line2d_18">
      <g>
       <use xlink:href="#m26c44c5917" x="398.741111" y="244.44" style="stroke: #000000; stroke-width: 0.8"/>
      </g>
     </g>
    </g>
    <g id="ytick_11">
     <g id="line2d_19">
      <g>
       <use xlink:href="#m26c44c5917" x="398.741111" y="205.2" style="stroke: #000000; stroke-width: 0.8"/>
      </g>
     </g>
    </g>
    <g id="ytick_12">
     <g id="line2d_20">
      <g>
       <use xlink:href="#m26c44c5917" x="398.741111" y="165.96" style="stroke: #000000; stroke-width: 0.8"/>
      </g>
     </g>
    </g>
    <g id="ytick_13">
     <g id="line2d_21">
      <g>
       <use xlink:href="#m26c44c5917" x="398.741111" y="126.72" style="stroke: #000000; stroke-width: 0.8"/>
      </g>
     </g>
    </g>
    <g id="ytick_14">
     <g id="line2d_22">
      <g>
       <use xlink:href="#m26c44c5917" x="398.741111" y="87.48" style="stroke: #000000; stroke-width: 0.8"/>
      </g>
     </g>
    </g>
    <g id="ytick_15">
     <g id="line2d_23">
      <g>
       <use xlink:href="#m26c44c5917" x="398.741111" y="48.24" style="stroke: #000000; stroke-width: 0.8"/>
      </g>
     </g>
    </g>
    <g id="ytick_16">
     <g id="line2d_24">
      <g>
       <use xlink:href="#m26c44c5917" x="398.741111" y="9" style="stroke: #000000; stroke-width: 0.8"/>
      </g>
     </g>
    </g>
   </g>
   <g id="line2d_25">
    <path d="M 399.298315 125.339223 
L 400.412722 136.315122 
L 402.641537 126.194184 
L 403.755944 128.072681 
L 404.870351 128.789753 
L 405.984759 120.900473 
L 407.099166 129.989163 
L 408.213573 130.193682 
L 409.32798 132.095645 
L 410.442388 108.799014 
L 411.556795 102.538428 
L 412.671202 116.554486 
L 413.78561 151.883984 
L 414.900017 130.858407 
L 416.014424 126.032672 
L 417.128831 125.874613 
L 418.243239 124.129061 
L 419.357646 132.819387 
L 420.472053 128.754045 
L 421.586461 146.303899 
L 422.700868 126.407414 
L 423.815275 116.367782 
L 424.929682 121.974 
L 426.04409 123.581506 
L 427.158497 123.594848 
L 428.272904 124.404918 
L 429.387311 125.4757 
L 430.501719 122.626169 
L 431.616126 125.03425 
L 432.730533 124.479082 
L 433.844941 123.661556 
L 434.959348 124.647893 
L 436.073755 123.256835 
L 437.188162 123.866467 
L 438.30257 123.448247 
L 439.416977 122.566681 
L 440.531384 119.839266 
L 441.645792 130.448192 
L 442.760199 125.559909 
L 443.874606 125.508347 
L 444.989013 124.49415 
L 446.103421 123.131502 
L 448.332235 88.245102 
L 449.446643 88.135151 
L 450.56105 123.174038 
L 451.675457 122.648144 
L 452.789864 125.153068 
L 453.904272 122.611494 
L 455.018679 122.110085 
L 456.133086 129.756156 
L 457.247494 126.679033 
L 458.361901 124.4885 
L 459.476308 124.226141 
L 460.590715 123.580329 
L 461.705123 110.100918 
L 462.81953 121.748135 
L 465.048345 126.931661 
L 466.162752 122.679614 
L 467.277159 130.794525 
L 468.391566 122.774104 
L 469.505974 127.803024 
L 470.620381 123.422113 
L 471.734788 115.434576 
L 472.849196 96.524428 
L 473.963603 121.987813 
L 475.07801 119.577064 
L 476.192417 102.111497 
L 477.306825 123.674505 
L 478.421232 119.220294 
L 479.535639 118.294466 
L 480.650047 126.895089 
L 481.764454 116.697005 
L 482.878861 95.481821 
L 483.993268 125.500578 
L 485.107676 124.186823 
L 486.222083 128.70884 
L 487.33649 121.957834 
L 488.450897 126.77729 
L 489.565305 125.855464 
L 490.679712 105.404126 
L 491.794119 113.665715 
L 492.908527 136.423189 
L 494.022934 118.701071 
L 495.137341 110.95737 
L 496.251748 112.660151 
L 497.366156 90.408324 
L 498.480563 86.325638 
L 499.59497 111.214863 
L 500.709378 111.141485 
L 501.823785 123.232663 
L 502.938192 97.249975 
L 504.052599 122.799689 
L 505.167007 122.597524 
L 506.281414 127.358042 
L 507.395821 127.125899 
L 508.510229 123.370081 
L 509.624636 124.832399 
L 510.739043 130.29602 
L 511.85345 126.283337 
L 512.967858 126.646857 
L 514.082265 124.653622 
L 515.196672 113.035678 
L 516.31108 114.138793 
L 517.425487 113.113138 
L 518.539894 126.273135 
L 519.654301 124.346608 
L 520.768709 127.946956 
L 521.883116 121.946454 
L 522.997523 102.515905 
L 524.111931 101.607185 
L 525.226338 118.929761 
L 526.340745 121.753393 
L 527.455152 117.117423 
L 528.56956 129.185214 
L 529.683967 123.765856 
L 530.798374 114.143815 
L 531.912782 113.287599 
L 533.027189 115.207769 
L 534.141596 126.072226 
L 535.256003 99.6692 
L 536.370411 106.328306 
L 537.484818 115.791346 
L 538.599225 121.759593 
L 539.713632 112.380056 
L 540.82804 93.250556 
L 541.942447 108.817927 
L 543.056854 120.925194 
L 544.171262 110.425747 
L 545.285669 119.68623 
L 546.400076 111.56096 
L 547.514483 116.67197 
L 548.628891 124.723704 
L 549.743298 111.235661 
L 550.857705 116.085254 
L 551.972113 127.835358 
L 553.08652 118.204842 
L 554.200927 114.96605 
L 555.315334 121.313827 
L 556.429742 133.846455 
L 557.544149 122.02925 
L 558.658556 113.470065 
L 559.772964 112.959395 
L 560.887371 115.877282 
L 562.001778 110.887759 
L 563.116185 115.499714 
L 564.230593 115.611862 
L 565.345 115.372498 
L 566.459407 116.202738 
L 567.573815 125.275733 
L 568.688222 95.349817 
L 569.802629 122.743026 
L 570.917036 119.890513 
L 572.031444 119.862888 
L 573.145851 99.129493 
L 574.260258 69.93972 
L 575.374666 95.49477 
L 576.489073 92.354314 
L 577.60348 108.939885 
L 578.717887 101.965211 
L 579.832295 77.452061 
L 580.946702 106.439434 
L 582.061109 92.567231 
L 583.175517 89.4234 
L 584.289924 98.146531 
L 585.404331 92.760448 
L 586.518738 94.985199 
L 587.633146 98.947498 
L 588.747553 104.23391 
L 589.86196 119.722645 
L 590.976368 90.542133 
L 592.090775 117.868555 
L 593.205182 117.341169 
L 595.433997 103.559375 
L 596.548404 107.852231 
L 597.662811 95.979698 
L 598.777218 77.281446 
L 599.891626 116.344238 
L 601.006033 107.64112 
L 602.12044 104.779817 
L 603.234848 70.231352 
L 604.349255 102.745616 
L 605.463662 101.867111 
L 606.578069 80.552335 
L 607.692477 74.572237 
L 608.806884 86.230363 
L 609.921291 62.231964 
L 611.035699 80.701133 
L 612.150106 108.101719 
L 613.264513 77.595993 
L 614.37892 82.788387 
L 615.493328 59.153664 
L 616.607735 145.327686 
L 617.722142 104.388751 
L 618.83655 103.725203 
L 619.950957 92.876756 
L 621.065364 91.135284 
L 622.179771 72.489378 
L 623.294179 86.250689 
L 624.408586 116.707443 
L 625.522993 61.519601 
L 626.637401 114.829809 
L 627.751808 100.87269 
L 628.866215 91.763909 
L 629.980622 64.492423 
L 631.09503 93.058201 
L 632.209437 86.836464 
L 633.323844 85.216794 
L 634.438252 96.736716 
L 635.552659 94.221667 
L 636.667066 92.439387 
L 637.781473 115.996336 
L 638.895881 90.300571 
L 640.010288 58.895073 
L 641.124695 107.160273 
L 642.239103 107.346663 
L 644.467917 78.737328 
L 645.582324 71.826065 
L 646.696732 104.183683 
L 647.811139 70.677275 
L 648.925546 60.86806 
L 650.039953 103.865525 
L 651.154361 91.018506 
L 652.268768 93.807528 
L 653.383175 115.148516 
L 654.497583 110.850716 
L 655.61199 98.257344 
L 656.726397 89.287551 
L 657.840804 78.838018 
L 658.955212 39.943958 
L 660.069619 90.875751 
L 661.184026 97.673061 
L 662.298434 106.946258 
L 663.412841 80.249559 
L 664.527248 81.054764 
L 665.641655 91.308961 
L 666.756063 93.726616 
L 667.87047 61.356755 
L 668.984877 90.867903 
L 670.099285 71.440258 
L 672.328099 92.060721 
L 673.442506 91.700262 
L 674.556914 66.698967 
L 675.671321 81.514107 
L 676.785728 65.941242 
L 677.900136 53.72842 
L 679.014543 63.989288 
L 680.12895 72.762253 
L 681.243357 113.77598 
L 682.357765 109.876779 
L 683.472172 83.285087 
L 684.586579 79.761021 
L 685.700987 52.556635 
L 686.815394 59.286688 
L 687.929801 39.34696 
L 689.044208 90.780398 
L 690.158616 93.597516 
L 691.273023 112.265004 
L 692.38743 76.523407 
L 693.501838 108.413206 
L 694.616245 57.26363 
L 695.730652 74.075302 
L 696.845059 120.343186 
L 699.073874 66.147252 
L 700.188281 96.101185 
L 701.302689 87.417765 
L 702.417096 91.287379 
L 703.531503 83.050118 
L 704.64591 123.388681 
L 705.760318 88.531397 
L 706.874725 91.336507 
L 707.989132 91.872683 
L 709.103539 14.848722 
L 710.217947 61.496292 
L 711.332354 96.274312 
L 712.446761 61.397172 
L 713.561169 86.768186 
L 714.675576 59.108224 
L 715.789983 90.624929 
L 716.90439 86.685704 
L 718.018798 86.281846 
L 719.133205 73.107879 
L 720.247612 86.100949 
L 721.36202 70.71314 
L 722.476427 41.584974 
L 723.590834 108.217869 
L 724.705241 62.715322 
L 725.819649 62.383901 
L 726.934056 95.095071 
L 728.048463 5.959763 
L 729.162871 76.197401 
L 730.277278 63.849986 
L 731.133405 -1 
L 731.133405 -1 
" clip-path="url(#p9284ad189b)" style="fill: none; stroke: #1f77b4; stroke-linecap: square"/>
   </g>
   <g id="line2d_26">
    <path d="M 399.298315 126.352164 
L 400.412722 128.488625 
L 402.641537 137.894296 
L 403.755944 139.600138 
L 404.870351 131.121943 
L 405.984759 118.86062 
L 407.099166 124.901854 
L 409.32798 113.334137 
L 410.442388 105.206905 
L 411.556795 100.666524 
L 412.671202 111.977454 
L 413.78561 118.606502 
L 414.900017 110.300885 
L 416.014424 115.380739 
L 417.128831 118.426626 
L 418.243239 97.425692 
L 420.472053 123.445344 
L 421.586461 106.193085 
L 422.700868 111.122257 
L 423.815275 123.243179 
L 424.929682 91.24963 
L 426.04409 103.076723 
L 427.158497 90.479741 
L 428.272904 100.261017 
L 429.387311 134.628351 
L 430.501719 127.262061 
L 431.616126 98.740624 
L 432.730533 83.700639 
L 433.844941 92.300085 
L 434.959348 107.032664 
L 436.073755 99.471509 
L 437.188162 112.428243 
L 438.30257 111.720981 
L 439.416977 109.093235 
L 440.531384 123.274493 
L 441.645792 98.767464 
L 442.760199 94.047677 
L 443.874606 113.223402 
L 444.989013 106.24135 
L 446.103421 107.284193 
L 447.217828 108.959662 
L 448.332235 108.358505 
L 449.446643 125.195448 
L 450.56105 123.907983 
L 451.675457 122.809969 
L 452.789864 107.575118 
L 453.904272 107.107848 
L 455.018679 111.582464 
L 456.133086 122.485533 
L 457.247494 110.934376 
L 458.361901 113.36137 
L 459.476308 117.151483 
L 460.590715 109.646519 
L 461.705123 115.33781 
L 462.81953 123.398334 
L 463.933937 102.866789 
L 465.048345 109.691724 
L 466.162752 107.944602 
L 467.277159 104.033394 
L 468.391566 112.404306 
L 469.505974 108.7305 
L 470.620381 96.200541 
L 471.734788 134.209503 
L 472.849196 128.982892 
L 473.963603 129.986652 
L 475.07801 108.581938 
L 476.192417 107.031016 
L 477.306825 114.606298 
L 478.421232 108.514053 
L 479.535639 116.093259 
L 480.650047 110.524632 
L 481.764454 103.89676 
L 482.878861 107.403325 
L 483.993268 95.213419 
L 485.107676 110.981856 
L 486.222083 102.933654 
L 487.33649 110.483744 
L 488.450897 111.533728 
L 489.565305 114.871247 
L 490.679712 89.925672 
L 491.794119 104.372977 
L 492.908527 116.167108 
L 494.022934 115.12976 
L 495.137341 90.262351 
L 496.251748 94.137772 
L 497.366156 131.067007 
L 498.480563 135.383329 
L 499.59497 117.132098 
L 500.709378 106.815039 
L 501.823785 99.310154 
L 502.938192 110.396317 
L 504.052599 98.634127 
L 505.167007 104.992106 
L 506.281414 122.559226 
L 507.395821 105.916522 
L 509.624636 109.87725 
L 510.739043 108.597869 
L 511.85345 117.989885 
L 512.967858 128.373024 
L 514.082265 106.978199 
L 515.196672 104.399346 
L 516.31108 113.660928 
L 517.425487 92.620754 
L 518.539894 109.765573 
L 519.654301 122.541725 
L 520.768709 126.216237 
L 521.883116 119.213388 
L 522.997523 94.304621 
L 524.111931 101.254182 
L 525.226338 91.264541 
L 526.340745 108.16309 
L 527.455152 110.011686 
L 528.56956 116.747311 
L 529.683967 116.190888 
L 530.798374 107.302478 
L 531.912782 107.421925 
L 533.027189 128.816122 
L 534.141596 99.488617 
L 535.256003 95.2609 
L 536.370411 105.095464 
L 537.484818 93.513778 
L 538.599225 129.666689 
L 539.713632 103.815847 
L 540.82804 133.161481 
L 541.942447 106.914787 
L 544.171262 133.675918 
L 545.285669 106.293853 
L 546.400076 121.201129 
L 547.514483 110.428729 
L 548.628891 86.16185 
L 549.743298 113.786418 
L 551.972113 93.666578 
L 554.200927 128.0996 
L 555.315334 112.522654 
L 556.429742 109.136321 
L 557.544149 105.34864 
L 558.658556 110.341302 
L 559.772964 95.010784 
L 560.887371 108.320521 
L 562.001778 100.314148 
L 563.116185 111.197519 
L 564.230593 108.738662 
L 565.345 127.699744 
L 566.459407 114.43631 
L 567.573815 93.643505 
L 568.688222 109.12086 
L 569.802629 117.01069 
L 570.917036 103.879652 
L 572.031444 120.780869 
L 573.145851 101.518032 
L 574.260258 127.220781 
L 575.374666 102.592658 
L 576.489073 105.255249 
L 577.60348 107.442644 
L 578.717887 140.313364 
L 579.832295 134.543671 
L 580.946702 120.363591 
L 582.061109 130.862802 
L 583.175517 120.801195 
L 584.289924 128.732463 
L 585.404331 118.145668 
L 586.518738 123.496042 
L 587.633146 130.231902 
L 588.747553 131.486483 
L 589.86196 103.805959 
L 590.976368 128.489489 
L 592.090775 115.868256 
L 593.205182 112.780539 
L 594.319589 135.149615 
L 595.433997 129.720133 
L 596.548404 132.080027 
L 597.662811 127.389277 
L 598.777218 131.889948 
L 599.891626 131.17374 
L 601.006033 133.444951 
L 602.12044 119.289592 
L 603.234848 117.342582 
L 604.349255 102.170436 
L 605.463662 126.008893 
L 606.578069 106.899327 
L 607.692477 123.096343 
L 608.806884 113.491961 
L 609.921291 114.285786 
L 611.035699 120.604446 
L 612.150106 134.135732 
L 613.264513 139.486577 
L 614.37892 126.750921 
L 615.493328 131.90745 
L 616.607735 126.27078 
L 617.722142 112.926591 
L 618.83655 115.511957 
L 619.950957 117.07936 
L 621.065364 122.725682 
L 622.179771 116.571673 
L 623.294179 115.790483 
L 624.408586 101.826379 
L 625.522993 116.687117 
L 626.637401 93.529395 
L 628.866215 110.610646 
L 629.980622 112.321902 
L 631.09503 108.479757 
L 632.209437 120.208671 
L 633.323844 108.250281 
L 634.438252 88.504321 
L 635.552659 114.446984 
L 636.667066 123.990152 
L 637.781473 108.34226 
L 638.895881 101.071637 
L 640.010288 108.795482 
L 641.124695 103.174116 
L 643.35351 124.379883 
L 644.467917 101.82018 
L 645.582324 145.879636 
L 646.696732 106.337174 
L 647.811139 113.14092 
L 648.925546 129.616069 
L 650.039953 134.32118 
L 651.154361 107.404267 
L 652.268768 119.391224 
L 653.383175 112.928553 
L 654.497583 102.179932 
L 655.61199 108.551252 
L 656.726397 114.01707 
L 657.840804 114.168066 
L 658.955212 104.169949 
L 661.184026 127.621735 
L 662.298434 110.680885 
L 663.412841 122.332419 
L 664.527248 131.025727 
L 666.756063 102.525401 
L 667.87047 122.661721 
L 668.984877 120.445367 
L 670.099285 98.677919 
L 671.213692 117.171495 
L 672.328099 116.348868 
L 673.442506 102.118953 
L 674.556914 110.736057 
L 675.671321 109.913665 
L 676.785728 131.487189 
L 677.900136 127.650223 
L 679.014543 119.370191 
L 680.12895 133.045488 
L 681.243357 131.603889 
L 682.357765 142.133472 
L 683.472172 112.640217 
L 685.700987 117.33442 
L 686.815394 105.55002 
L 687.929801 96.626059 
L 689.044208 105.407029 
L 690.158616 112.446842 
L 691.273023 100.809985 
L 692.38743 128.162305 
L 693.501838 100.092442 
L 694.616245 93.914261 
L 695.730652 118.460451 
L 696.845059 99.487048 
L 697.959467 116.040442 
L 699.073874 100.984132 
L 700.188281 93.989131 
L 701.302689 109.660488 
L 702.417096 112.340188 
L 703.531503 119.046775 
L 704.64591 103.122712 
L 705.760318 97.831198 
L 706.874725 106.267877 
L 707.989132 108.571422 
L 709.103539 107.427968 
L 710.217947 107.825391 
L 711.332354 114.781152 
L 712.446761 103.717826 
L 713.561169 135.522945 
L 714.675576 88.175176 
L 715.789983 114.105753 
L 716.90439 75.549235 
L 718.018798 99.458402 
L 719.133205 100.412562 
L 720.247612 105.928137 
L 721.36202 109.751996 
L 722.476427 119.636003 
L 723.590834 99.847663 
L 724.705241 90.177907 
L 725.819649 101.27082 
L 726.934056 108.367452 
L 728.048463 106.630219 
L 730.277278 111.099184 
L 731.391685 102.858862 
L 731.391685 102.858862 
" clip-path="url(#p9284ad189b)" style="fill: none; stroke-dasharray: 3.7,1.6; stroke-dashoffset: 0; stroke: #ff7f0e"/>
   </g>
   <g id="patch_8">
    <path d="M 398.741111 283.68 
L 398.741111 9 
" style="fill: none; stroke: #000000; stroke-width: 0.8; stroke-linejoin: miter; stroke-linecap: square"/>
   </g>
   <g id="patch_9">
    <path d="M 731.948889 283.68 
L 731.948889 9 
" style="fill: none; stroke: #000000; stroke-width: 0.8; stroke-linejoin: miter; stroke-linecap: square"/>
   </g>
   <g id="patch_10">
    <path d="M 398.741111 283.68 
L 731.948889 283.68 
" style="fill: none; stroke: #000000; stroke-width: 0.8; stroke-linejoin: miter; stroke-linecap: square"/>
   </g>
   <g id="patch_11">
    <path d="M 398.741111 9 
L 731.948889 9 
" style="fill: none; stroke: #000000; stroke-width: 0.8; stroke-linejoin: miter; stroke-linecap: square"/>
   </g>
   <g id="text_19">
    <!-- b) α = 0.4 -->
    <g transform="translate(519.751562 352.293187) scale(0.18 -0.18)">
     <defs>
      <path id="DejaVuSans-62" d="M 3116 1747 
Q 3116 2381 2855 2742 
Q 2594 3103 2138 3103 
Q 1681 3103 1420 2742 
Q 1159 2381 1159 1747 
Q 1159 1113 1420 752 
Q 1681 391 2138 391 
Q 2594 391 2855 752 
Q 3116 1113 3116 1747 
z
M 1159 2969 
Q 1341 3281 1617 3432 
Q 1894 3584 2278 3584 
Q 2916 3584 3314 3078 
Q 3713 2572 3713 1747 
Q 3713 922 3314 415 
Q 2916 -91 2278 -91 
Q 1894 -91 1617 61 
Q 1341 213 1159 525 
L 1159 0 
L 581 0 
L 581 4863 
L 1159 4863 
L 1159 2969 
z
" transform="scale(0.015625)"/>
      <path id="DejaVuSans-34" d="M 2419 4116 
L 825 1625 
L 2419 1625 
L 2419 4116 
z
M 2253 4666 
L 3047 4666 
L 3047 1625 
L 3713 1625 
L 3713 1100 
L 3047 1100 
L 3047 0 
L 2419 0 
L 2419 1100 
L 313 1100 
L 313 1709 
L 2253 4666 
z
" transform="scale(0.015625)"/>
     </defs>
     <use xlink:href="#DejaVuSans-62"/>
     <use xlink:href="#DejaVuSans-29" x="63.476562"/>
     <use xlink:href="#DejaVuSans-20" x="102.490234"/>
     <use xlink:href="#DejaVuSans-3b1" x="134.277344"/>
     <use xlink:href="#DejaVuSans-20" x="200.195312"/>
     <use xlink:href="#DejaVuSans-3d" x="231.982422"/>
     <use xlink:href="#DejaVuSans-20" x="315.771484"/>
     <use xlink:href="#DejaVuSans-30" x="347.558594"/>
     <use xlink:href="#DejaVuSans-2e" x="411.181641"/>
     <use xlink:href="#DejaVuSans-34" x="442.96875"/>
    </g>
   </g>
  </g>
  <g id="axes_3">
   <g id="patch_12">
    <path d="M 743.192222 283.68 
L 1076.4 283.68 
L 1076.4 9 
L 743.192222 9 
L 743.192222 283.68 
z
" style="fill: none"/>
   </g>
   <g id="matplotlib.axis_5">
    <g id="xtick_7">
     <g id="line2d_27">
      <g>
       <use xlink:href="#mbe7ca78b03" x="854.075747" y="283.68" style="stroke: #000000; stroke-width: 0.8"/>
      </g>
     </g>
     <g id="text_20">
      <!-- 100 -->
      <g transform="translate(840.714497 301.317813) scale(0.14 -0.14)">
       <use xlink:href="#DejaVuSans-31"/>
       <use xlink:href="#DejaVuSans-30" x="63.623047"/>
       <use xlink:href="#DejaVuSans-30" x="127.246094"/>
      </g>
     </g>
    </g>
    <g id="xtick_8">
     <g id="line2d_28">
      <g>
       <use xlink:href="#mbe7ca78b03" x="965.516475" y="283.68" style="stroke: #000000; stroke-width: 0.8"/>
      </g>
     </g>
     <g id="text_21">
      <!-- 200 -->
      <g transform="translate(952.155225 301.317813) scale(0.14 -0.14)">
       <use xlink:href="#DejaVuSans-32"/>
       <use xlink:href="#DejaVuSans-30" x="63.623047"/>
       <use xlink:href="#DejaVuSans-30" x="127.246094"/>
      </g>
     </g>
    </g>
    <g id="xtick_9">
     <g id="line2d_29">
      <g>
       <use xlink:href="#mbe7ca78b03" x="743.749426" y="283.68" style="stroke: #000000; stroke-width: 0.8"/>
      </g>
     </g>
     <g id="text_22">
      <!-- 1 -->
      <g transform="translate(739.295676 301.317813) scale(0.14 -0.14)">
       <use xlink:href="#DejaVuSans-31"/>
      </g>
     </g>
    </g>
    <g id="text_23">
     <!-- バッチ -->
     <g transform="translate(893.591892 321.906562) scale(0.18 -0.18)">
      <use xlink:href="#DejaVuSans-30d0"/>
      <use xlink:href="#DejaVuSans-30c3" x="60.009766"/>
      <use xlink:href="#DejaVuSans-30c1" x="120.019531"/>
     </g>
    </g>
   </g>
   <g id="matplotlib.axis_6">
    <g id="ytick_17">
     <g id="line2d_30">
      <g>
       <use xlink:href="#m26c44c5917" x="743.192222" y="283.68" style="stroke: #000000; stroke-width: 0.8"/>
      </g>
     </g>
    </g>
    <g id="ytick_18">
     <g id="line2d_31">
      <g>
       <use xlink:href="#m26c44c5917" x="743.192222" y="244.44" style="stroke: #000000; stroke-width: 0.8"/>
      </g>
     </g>
    </g>
    <g id="ytick_19">
     <g id="line2d_32">
      <g>
       <use xlink:href="#m26c44c5917" x="743.192222" y="205.2" style="stroke: #000000; stroke-width: 0.8"/>
      </g>
     </g>
    </g>
    <g id="ytick_20">
     <g id="line2d_33">
      <g>
       <use xlink:href="#m26c44c5917" x="743.192222" y="165.96" style="stroke: #000000; stroke-width: 0.8"/>
      </g>
     </g>
    </g>
    <g id="ytick_21">
     <g id="line2d_34">
      <g>
       <use xlink:href="#m26c44c5917" x="743.192222" y="126.72" style="stroke: #000000; stroke-width: 0.8"/>
      </g>
     </g>
    </g>
    <g id="ytick_22">
     <g id="line2d_35">
      <g>
       <use xlink:href="#m26c44c5917" x="743.192222" y="87.48" style="stroke: #000000; stroke-width: 0.8"/>
      </g>
     </g>
    </g>
    <g id="ytick_23">
     <g id="line2d_36">
      <g>
       <use xlink:href="#m26c44c5917" x="743.192222" y="48.24" style="stroke: #000000; stroke-width: 0.8"/>
      </g>
     </g>
    </g>
    <g id="ytick_24">
     <g id="line2d_37">
      <g>
       <use xlink:href="#m26c44c5917" x="743.192222" y="9" style="stroke: #000000; stroke-width: 0.8"/>
      </g>
     </g>
    </g>
   </g>
   <g id="line2d_38">
    <path d="M 743.749426 229.806619 
L 744.863833 226.792595 
L 745.978241 220.148713 
L 747.092648 217.011946 
L 748.207055 209.297833 
L 749.321462 207.161137 
L 750.43587 203.666815 
L 751.550277 193.485761 
L 752.664684 182.075554 
L 753.779092 168.543797 
L 754.893499 159.718643 
L 756.007906 157.555655 
L 757.122313 157.13304 
L 759.351128 148.670699 
L 760.465535 126.980318 
L 761.579943 131.676247 
L 762.69435 98.695969 
L 763.808757 102.270969 
L 764.923164 107.579199 
L 766.037572 119.998973 
L 767.151979 107.963908 
L 768.266386 111.702774 
L 769.380794 97.706807 
L 770.495201 100.752773 
L 771.609608 92.166983 
L 772.724015 80.360451 
L 773.838423 104.367405 
L 774.95283 87.742594 
L 776.067237 80.808023 
L 777.181645 105.300768 
L 778.296052 103.594141 
L 779.410459 122.550122 
L 780.524866 131.122728 
L 781.639274 103.909788 
L 782.753681 117.371698 
L 783.868088 133.463865 
L 784.982496 115.936456 
L 786.096903 117.787642 
L 787.21131 125.15864 
L 788.325717 157.868398 
L 789.440125 126.747703 
L 790.554532 103.854695 
L 791.668939 126.574341 
L 792.783347 126.834188 
L 793.897754 121.94716 
L 795.012161 131.816962 
L 796.126568 116.833796 
L 797.240976 115.089499 
L 798.355383 108.402219 
L 799.46979 135.205807 
L 800.584198 110.142356 
L 801.698605 110.953682 
L 802.813012 130.238651 
L 803.927419 117.684284 
L 805.041827 118.971434 
L 807.270641 105.147418 
L 808.385048 116.880413 
L 809.499456 134.398797 
L 810.613863 125.662482 
L 811.72827 122.392848 
L 812.842678 126.45615 
L 813.957085 123.766091 
L 815.071492 106.279649 
L 816.185899 125.492965 
L 817.300307 120.196115 
L 818.414714 107.855448 
L 819.529121 104.702514 
L 820.643529 110.956036 
L 821.757936 131.289969 
L 822.872343 129.076284 
L 823.98675 117.987452 
L 825.101158 118.105721 
L 826.215565 112.870399 
L 827.329972 82.838379 
L 828.44438 90.272946 
L 829.558787 114.904993 
L 830.673194 121.893951 
L 831.787601 92.184719 
L 832.902009 111.192889 
L 834.016416 103.069267 
L 835.130823 103.628987 
L 836.245231 119.972211 
L 837.359638 104.244584 
L 838.474045 105.557162 
L 839.588452 101.14635 
L 840.70286 105.526868 
L 841.817267 128.361723 
L 842.931674 111.408944 
L 844.046082 129.156098 
L 845.160489 109.269737 
L 846.274896 124.345195 
L 847.389303 98.832917 
L 848.503711 110.174689 
L 849.618118 92.666429 
L 850.732525 120.418527 
L 851.846933 111.519758 
L 852.96134 108.86682 
L 854.075747 125.25007 
L 855.190154 100.718006 
L 856.304562 112.640374 
L 857.418969 77.372953 
L 858.533376 133.550114 
L 859.647783 97.102433 
L 860.762191 109.739596 
L 861.876598 104.080796 
L 862.991005 117.885036 
L 864.105413 89.53233 
L 865.21982 92.008296 
L 866.334227 116.237426 
L 867.448634 117.309385 
L 868.563042 103.361841 
L 869.677449 107.58893 
L 870.791856 123.779668 
L 871.906264 115.577959 
L 873.020671 121.145252 
L 874.135078 123.622787 
L 876.363893 112.79961 
L 877.4783 124.526798 
L 878.592707 126.43088 
L 879.707115 111.502179 
L 880.821522 114.179367 
L 881.935929 87.465717 
L 883.050336 97.800434 
L 884.164744 81.451873 
L 885.279151 109.105164 
L 886.393558 115.727777 
L 887.507966 102.782344 
L 888.622373 116.344944 
L 889.73678 74.930577 
L 890.851187 126.068145 
L 891.965595 109.007849 
L 893.080002 128.936668 
L 894.194409 85.563204 
L 895.308817 154.910173 
L 896.423224 104.104261 
L 897.537631 93.088887 
L 898.652038 129.87003 
L 899.766446 76.95591 
L 900.880853 116.055824 
L 901.99526 112.448177 
L 903.109668 93.501456 
L 904.224075 70.960117 
L 905.338482 85.545703 
L 906.452889 89.511062 
L 907.567297 109.189608 
L 908.681704 102.412311 
L 909.796111 107.189153 
L 910.910519 127.596465 
L 912.024926 109.653582 
L 913.139333 105.073568 
L 914.25374 107.008492 
L 915.368148 101.153806 
L 916.482555 114.752349 
L 917.596962 120.541584 
L 918.711369 94.881606 
L 919.825777 111.604438 
L 920.940184 106.391796 
L 922.054591 100.222248 
L 923.168999 95.186422 
L 924.283406 106.744172 
L 925.397813 114.982845 
L 926.51222 75.912597 
L 927.626628 105.942891 
L 928.741035 86.511792 
L 929.855442 92.118639 
L 930.96985 119.671947 
L 932.084257 109.18074 
L 933.198664 81.003438 
L 934.313071 133.521391 
L 935.427479 111.438688 
L 936.541886 103.854067 
L 937.656293 119.134986 
L 938.770701 118.436279 
L 939.885108 119.82255 
L 940.999515 119.203656 
L 942.113922 115.247951 
L 943.22833 95.322349 
L 944.342737 113.605992 
L 946.571552 87.036274 
L 947.685959 100.458708 
L 948.800366 116.066811 
L 949.914773 125.858917 
L 951.029181 114.258318 
L 952.143588 112.593051 
L 953.257995 108.924738 
L 954.372403 120.839337 
L 955.48681 137.214895 
L 956.601217 90.538915 
L 957.715624 120.157581 
L 958.830032 113.443068 
L 959.944439 90.33369 
L 961.058846 117.805849 
L 962.173254 135.38427 
L 963.287661 105.956076 
L 964.402068 116.814254 
L 965.516475 123.990152 
L 966.630883 108.116551 
L 967.74529 121.364054 
L 968.859697 111.087883 
L 969.974104 106.039657 
L 971.088512 108.562318 
L 972.202919 124.087388 
L 973.317326 111.921183 
L 974.431734 111.132302 
L 975.546141 110.993707 
L 976.660548 111.77678 
L 977.774955 113.27826 
L 978.889363 105.604956 
L 980.00377 114.022014 
L 981.118177 111.01215 
L 982.232585 129.036651 
L 983.346992 90.437676 
L 984.461399 98.178629 
L 985.575806 108.059732 
L 986.690214 83.723712 
L 987.804621 75.111787 
L 990.033436 116.984713 
L 991.147843 115.312854 
L 992.26225 100.582001 
L 993.376657 115.685869 
L 994.491065 105.388351 
L 995.605472 99.208679 
L 996.719879 105.928764 
L 997.834287 99.454243 
L 998.948694 98.290463 
L 1000.063101 95.16225 
L 1001.177508 119.508708 
L 1002.291916 90.998494 
L 1003.406323 122.966616 
L 1004.52073 113.347636 
L 1005.635138 127.764098 
L 1006.749545 110.991195 
L 1007.863952 110.021496 
L 1008.978359 116.827282 
L 1010.092767 95.509603 
L 1011.207174 113.755653 
L 1012.321581 94.601746 
L 1013.435989 89.559642 
L 1014.550396 92.176243 
L 1015.664803 88.083354 
L 1016.77921 86.806485 
L 1017.893618 109.005337 
L 1019.008025 102.530502 
L 1020.122432 89.416102 
L 1021.23684 91.464744 
L 1022.351247 116.159731 
L 1023.465654 107.885349 
L 1024.580061 83.79662 
L 1025.694469 108.213553 
L 1026.808876 114.436781 
L 1027.923283 136.34204 
L 1029.03769 101.43861 
L 1030.152098 112.625463 
L 1031.266505 119.011067 
L 1032.380912 119.952984 
L 1033.49532 125.117281 
L 1034.609727 108.425449 
L 1035.724134 107.076691 
L 1036.838541 117.987373 
L 1037.952949 112.389866 
L 1039.067356 94.053328 
L 1040.181763 122.791841 
L 1041.296171 115.886307 
L 1042.410578 107.348154 
L 1043.524985 116.067282 
L 1044.639392 105.733114 
L 1045.7538 102.808871 
L 1046.868207 123.136054 
L 1047.982614 140.904946 
L 1049.097022 122.09949 
L 1050.211429 119.903227 
L 1051.325836 112.494244 
L 1052.440243 102.789878 
L 1053.554651 123.417797 
L 1054.669058 119.250431 
L 1055.783465 117.352941 
L 1056.897873 91.826693 
L 1058.01228 100.75034 
L 1059.126687 115.087851 
L 1060.241094 116.414477 
L 1061.355502 107.156663 
L 1062.469909 122.708809 
L 1063.584316 96.207839 
L 1064.698724 121.144781 
L 1065.813131 128.276886 
L 1066.927538 110.63623 
L 1068.041945 125.243477 
L 1069.156353 103.062126 
L 1070.27076 117.336931 
L 1071.385167 118.246514 
L 1072.499575 114.285472 
L 1073.613982 111.297503 
L 1074.728389 112.167375 
L 1075.842796 109.450319 
L 1075.842796 109.450319 
" clip-path="url(#pe85a42c7a4)" style="fill: none; stroke: #1f77b4; stroke-linecap: square"/>
   </g>
   <g id="line2d_39">
    <path d="M 743.749426 234.923986 
L 744.863833 235.004193 
L 745.978241 235.563363 
L 747.092648 234.955692 
L 748.207055 233.677331 
L 749.321462 231.306686 
L 750.43587 227.615615 
L 751.550277 230.050457 
L 752.664684 230.194546 
L 754.893499 225.271652 
L 756.007906 225.700467 
L 757.122313 223.327232 
L 758.236721 230.649808 
L 759.351128 222.637 
L 760.465535 222.246248 
L 761.579943 219.754194 
L 762.69435 222.637157 
L 763.808757 219.099279 
L 764.923164 219.298932 
L 766.037572 215.88929 
L 767.151979 214.829418 
L 768.266386 213.955935 
L 769.380794 215.07969 
L 770.495201 211.752295 
L 771.609608 209.605161 
L 772.724015 203.23902 
L 773.838423 200.159151 
L 774.95283 206.755474 
L 776.067237 201.867896 
L 777.181645 202.617145 
L 778.296052 196.933152 
L 779.410459 197.079125 
L 780.524866 193.941887 
L 781.639274 185.522082 
L 782.753681 194.354378 
L 783.868088 178.119613 
L 784.982496 187.842735 
L 786.096903 172.27968 
L 787.21131 170.094405 
L 788.325717 175.491945 
L 789.440125 158.434867 
L 790.554532 158.81212 
L 791.668939 154.056075 
L 792.783347 144.74874 
L 793.897754 155.762858 
L 795.012161 139.818155 
L 796.126568 130.25521 
L 797.240976 144.829888 
L 798.355383 152.19037 
L 799.46979 122.854154 
L 800.584198 140.292881 
L 801.698605 123.72536 
L 802.813012 136.0023 
L 803.927419 150.231509 
L 805.041827 136.93017 
L 806.156234 133.702444 
L 807.270641 142.794901 
L 808.385048 135.873829 
L 809.499456 142.897946 
L 811.72827 129.267382 
L 812.842678 151.287458 
L 813.957085 145.473581 
L 815.071492 132.833827 
L 816.185899 143.253696 
L 817.300307 128.866585 
L 818.414714 145.314894 
L 819.529121 137.881896 
L 820.643529 137.870438 
L 821.757936 138.339121 
L 823.98675 114.616893 
L 825.101158 184.539434 
L 826.215565 136.155807 
L 827.329972 135.314659 
L 828.44438 143.248437 
L 829.558787 130.511526 
L 830.673194 133.251576 
L 831.787601 149.097395 
L 832.902009 126.889438 
L 834.016416 138.632165 
L 835.130823 140.288407 
L 836.245231 130.68065 
L 837.359638 150.318151 
L 838.474045 126.315279 
L 839.588452 125.902317 
L 840.70286 121.416871 
L 841.817267 126.345807 
L 842.931674 124.588405 
L 844.046082 137.162392 
L 845.160489 123.486781 
L 846.274896 136.242292 
L 847.389303 122.315467 
L 848.503711 126.245824 
L 849.618118 124.833812 
L 850.732525 121.754727 
L 851.846933 123.574836 
L 852.96134 119.171401 
L 854.075747 115.35743 
L 855.190154 122.988198 
L 856.304562 106.000103 
L 857.418969 124.496269 
L 858.533376 117.609335 
L 859.647783 112.462068 
L 860.762191 118.522607 
L 861.876598 105.990764 
L 862.991005 158.50236 
L 864.105413 173.529004 
L 865.21982 118.083433 
L 866.334227 126.086823 
L 867.448634 107.709319 
L 868.563042 118.374123 
L 869.677449 117.292355 
L 870.791856 125.271102 
L 871.906264 118.030616 
L 873.020671 126.380652 
L 874.135078 101.165264 
L 875.249485 135.438814 
L 876.363893 115.379718 
L 877.4783 145.88874 
L 878.592707 143.709821 
L 879.707115 124.730924 
L 880.821522 103.727087 
L 881.935929 118.503615 
L 883.050336 118.052355 
L 884.164744 125.70078 
L 885.279151 123.336806 
L 886.393558 129.222727 
L 887.507966 117.243697 
L 888.622373 102.333203 
L 889.73678 131.259911 
L 890.851187 122.487495 
L 891.965595 130.947875 
L 893.080002 128.979047 
L 894.194409 116.904036 
L 895.308817 112.074612 
L 896.423224 131.289184 
L 897.537631 124.701965 
L 898.652038 140.191014 
L 899.766446 114.456637 
L 900.880853 121.136933 
L 901.99526 98.872 
L 903.109668 136.789298 
L 904.224075 111.561117 
L 905.338482 117.721562 
L 906.452889 127.90497 
L 907.567297 116.761987 
L 908.681704 115.973263 
L 909.796111 107.492557 
L 910.910519 96.176683 
L 912.024926 131.419147 
L 913.139333 117.218976 
L 914.25374 116.6033 
L 915.368148 121.597846 
L 916.482555 104.973035 
L 917.596962 113.591395 
L 918.711369 115.955997 
L 919.825777 117.110516 
L 920.940184 119.080757 
L 922.054591 111.164636 
L 923.168999 111.542439 
L 924.283406 101.363112 
L 925.397813 93.889305 
L 926.51222 116.517129 
L 927.626628 118.888481 
L 928.741035 117.520574 
L 929.855442 121.092435 
L 930.96985 117.39893 
L 932.084257 115.665464 
L 933.198664 96.87594 
L 934.313071 120.847028 
L 935.427479 114.490697 
L 936.541886 124.414415 
L 937.656293 113.871647 
L 938.770701 120.928254 
L 939.885108 114.952002 
L 940.999515 120.657969 
L 942.113922 130.231195 
L 943.22833 119.117642 
L 944.342737 112.766021 
L 945.457144 130.661501 
L 946.571552 107.710888 
L 947.685959 117.104003 
L 948.800366 110.286445 
L 949.914773 131.145016 
L 951.029181 112.163216 
L 952.143588 129.43478 
L 953.257995 106.933701 
L 954.372403 107.959827 
L 955.48681 121.321518 
L 956.601217 127.573313 
L 957.715624 112.751266 
L 958.830032 116.440219 
L 959.944439 112.47431 
L 961.058846 128.232467 
L 962.173254 102.462617 
L 963.287661 95.641292 
L 964.402068 108.00095 
L 965.516475 111.13191 
L 966.630883 108.23592 
L 968.859697 136.09632 
L 969.974104 128.659555 
L 971.088512 114.629685 
L 972.202919 109.27625 
L 973.317326 99.809208 
L 974.431734 110.220836 
L 975.546141 113.095087 
L 976.660548 105.633209 
L 977.774955 115.359235 
L 978.889363 109.938151 
L 980.00377 114.932147 
L 981.118177 117.603135 
L 982.232585 130.445367 
L 983.346992 103.322679 
L 984.461399 104.561329 
L 985.575806 106.704932 
L 986.690214 102.288784 
L 987.804621 95.291821 
L 988.919028 104.881213 
L 990.033436 112.820957 
L 991.147843 112.834063 
L 992.26225 102.769474 
L 994.491065 124.094687 
L 995.605472 132.293964 
L 996.719879 107.814246 
L 997.834287 94.672457 
L 998.948694 130.641803 
L 1000.063101 106.769913 
L 1001.177508 115.800685 
L 1002.291916 112.879267 
L 1003.406323 127.714891 
L 1004.52073 101.258106 
L 1005.635138 104.338289 
L 1006.749545 123.230622 
L 1007.863952 117.499856 
L 1008.978359 104.219156 
L 1010.092767 95.018318 
L 1011.207174 127.635312 
L 1012.321581 124.552382 
L 1013.435989 125.961255 
L 1014.550396 100.887916 
L 1015.664803 122.005706 
L 1016.77921 115.311205 
L 1017.893618 117.428674 
L 1019.008025 104.645852 
L 1020.122432 101.707404 
L 1021.23684 104.652758 
L 1022.351247 97.160586 
L 1023.465654 90.831096 
L 1024.580061 102.08348 
L 1025.694469 95.924448 
L 1026.808876 114.09657 
L 1027.923283 111.824339 
L 1029.03769 108.005031 
L 1030.152098 98.139311 
L 1031.266505 115.166488 
L 1032.380912 100.011216 
L 1033.49532 116.827596 
L 1034.609727 109.030608 
L 1035.724134 99.193846 
L 1036.838541 99.63357 
L 1037.952949 101.858635 
L 1039.067356 111.692257 
L 1040.181763 112.696095 
L 1041.296171 105.121205 
L 1042.410578 112.144537 
L 1043.524985 102.018734 
L 1044.639392 105.447839 
L 1045.7538 91.187081 
L 1046.868207 122.455083 
L 1047.982614 108.609013 
L 1049.097022 116.013288 
L 1050.211429 96.163655 
L 1051.325836 84.579772 
L 1052.440243 102.29671 
L 1053.554651 106.112643 
L 1054.669058 107.109575 
L 1055.783465 104.514084 
L 1056.897873 106.319909 
L 1058.01228 116.494762 
L 1059.126687 115.501284 
L 1060.241094 86.741503 
L 1061.355502 114.914568 
L 1062.469909 128.497886 
L 1063.584316 102.171927 
L 1064.698724 104.146327 
L 1065.813131 107.897592 
L 1066.927538 95.124658 
L 1068.041945 92.249073 
L 1069.156353 113.889933 
L 1070.27076 104.564861 
L 1071.385167 106.688608 
L 1072.499575 125.592792 
L 1073.613982 105.534481 
L 1074.728389 105.265059 
L 1075.842796 102.967714 
L 1075.842796 102.967714 
" clip-path="url(#pe85a42c7a4)" style="fill: none; stroke-dasharray: 3.7,1.6; stroke-dashoffset: 0; stroke: #ff7f0e"/>
   </g>
   <g id="patch_13">
    <path d="M 743.192222 283.68 
L 743.192222 9 
" style="fill: none; stroke: #000000; stroke-width: 0.8; stroke-linejoin: miter; stroke-linecap: square"/>
   </g>
   <g id="patch_14">
    <path d="M 1076.4 283.68 
L 1076.4 9 
" style="fill: none; stroke: #000000; stroke-width: 0.8; stroke-linejoin: miter; stroke-linecap: square"/>
   </g>
   <g id="patch_15">
    <path d="M 743.192222 283.68 
L 1076.4 283.68 
" style="fill: none; stroke: #000000; stroke-width: 0.8; stroke-linejoin: miter; stroke-linecap: square"/>
   </g>
   <g id="patch_16">
    <path d="M 743.192222 9 
L 1076.4 9 
" style="fill: none; stroke: #000000; stroke-width: 0.8; stroke-linejoin: miter; stroke-linecap: square"/>
   </g>
   <g id="text_24">
    <!-- c) α = 0.99 -->
    <g transform="translate(859.241424 352.293187) scale(0.18 -0.18)">
     <defs>
      <path id="DejaVuSans-63" d="M 3122 3366 
L 3122 2828 
Q 2878 2963 2633 3030 
Q 2388 3097 2138 3097 
Q 1578 3097 1268 2742 
Q 959 2388 959 1747 
Q 959 1106 1268 751 
Q 1578 397 2138 397 
Q 2388 397 2633 464 
Q 2878 531 3122 666 
L 3122 134 
Q 2881 22 2623 -34 
Q 2366 -91 2075 -91 
Q 1284 -91 818 406 
Q 353 903 353 1747 
Q 353 2603 823 3093 
Q 1294 3584 2113 3584 
Q 2378 3584 2631 3529 
Q 2884 3475 3122 3366 
z
" transform="scale(0.015625)"/>
      <path id="DejaVuSans-39" d="M 703 97 
L 703 672 
Q 941 559 1184 500 
Q 1428 441 1663 441 
Q 2288 441 2617 861 
Q 2947 1281 2994 2138 
Q 2813 1869 2534 1725 
Q 2256 1581 1919 1581 
Q 1219 1581 811 2004 
Q 403 2428 403 3163 
Q 403 3881 828 4315 
Q 1253 4750 1959 4750 
Q 2769 4750 3195 4129 
Q 3622 3509 3622 2328 
Q 3622 1225 3098 567 
Q 2575 -91 1691 -91 
Q 1453 -91 1209 -44 
Q 966 3 703 97 
z
M 1959 2075 
Q 2384 2075 2632 2365 
Q 2881 2656 2881 3163 
Q 2881 3666 2632 3958 
Q 2384 4250 1959 4250 
Q 1534 4250 1286 3958 
Q 1038 3666 1038 3163 
Q 1038 2656 1286 2365 
Q 1534 2075 1959 2075 
z
" transform="scale(0.015625)"/>
     </defs>
     <use xlink:href="#DejaVuSans-63"/>
     <use xlink:href="#DejaVuSans-29" x="54.980469"/>
     <use xlink:href="#DejaVuSans-20" x="93.994141"/>
     <use xlink:href="#DejaVuSans-3b1" x="125.78125"/>
     <use xlink:href="#DejaVuSans-20" x="191.699219"/>
     <use xlink:href="#DejaVuSans-3d" x="223.486328"/>
     <use xlink:href="#DejaVuSans-20" x="307.275391"/>
     <use xlink:href="#DejaVuSans-30" x="339.0625"/>
     <use xlink:href="#DejaVuSans-2e" x="402.685547"/>
     <use xlink:href="#DejaVuSans-39" x="434.472656"/>
     <use xlink:href="#DejaVuSans-39" x="498.095703"/>
    </g>
   </g>
  </g>
  <g id="legend_1">
   <g id="patch_17">
    <path d="M 952.185938 67.24125 
L 1071 67.24125 
L 1071 9 
L 952.185938 9 
z
" style="fill: #ffffff; stroke: #000000; stroke-linejoin: miter"/>
   </g>
   <g id="line2d_40">
    <path d="M 959.385938 23.577187 
L 977.385938 23.577187 
L 995.385938 23.577187 
" style="fill: none; stroke: #1f77b4; stroke-linecap: square"/>
   </g>
   <g id="text_25">
    <!-- 粗い分割 -->
    <g transform="translate(1009.785938 29.877187) scale(0.18 -0.18)">
     <defs>
      <path id="DejaVuSans-7c97" d="M 319 -1131 
L 319 4513 
L 3519 4513 
L 3519 -1131 
L 319 -1131 
z
M 678 -775 
L 3163 -775 
L 3163 4153 
L 678 4153 
L 678 -775 
z
" transform="scale(0.015625)"/>
      <path id="DejaVuSans-3044" d="M 319 -1131 
L 319 4513 
L 3519 4513 
L 3519 -1131 
L 319 -1131 
z
M 678 -775 
L 3163 -775 
L 3163 4153 
L 678 4153 
L 678 -775 
z
" transform="scale(0.015625)"/>
      <path id="DejaVuSans-5206" d="M 319 -1131 
L 319 4513 
L 3519 4513 
L 3519 -1131 
L 319 -1131 
z
M 678 -775 
L 3163 -775 
L 3163 4153 
L 678 4153 
L 678 -775 
z
" transform="scale(0.015625)"/>
      <path id="DejaVuSans-5272" d="M 319 -1131 
L 319 4513 
L 3519 4513 
L 3519 -1131 
L 319 -1131 
z
M 678 -775 
L 3163 -775 
L 3163 4153 
L 678 4153 
L 678 -775 
z
" transform="scale(0.015625)"/>
     </defs>
     <use xlink:href="#DejaVuSans-7c97"/>
     <use xlink:href="#DejaVuSans-3044" x="60.009766"/>
     <use xlink:href="#DejaVuSans-5206" x="120.019531"/>
     <use xlink:href="#DejaVuSans-5272" x="180.029297"/>
    </g>
   </g>
   <g id="line2d_41">
    <path d="M 959.385938 49.997812 
L 977.385938 49.997812 
L 995.385938 49.997812 
" style="fill: none; stroke-dasharray: 3.7,1.6; stroke-dashoffset: 0; stroke: #ff7f0e"/>
   </g>
   <g id="text_26">
    <!-- 細かい分割 -->
    <g transform="translate(1009.785938 56.297812) scale(0.18 -0.18)">
     <defs>
      <path id="DejaVuSans-7d30" d="M 319 -1131 
L 319 4513 
L 3519 4513 
L 3519 -1131 
L 319 -1131 
z
M 678 -775 
L 3163 -775 
L 3163 4153 
L 678 4153 
L 678 -775 
z
" transform="scale(0.015625)"/>
      <path id="DejaVuSans-304b" d="M 319 -1131 
L 319 4513 
L 3519 4513 
L 3519 -1131 
L 319 -1131 
z
M 678 -775 
L 3163 -775 
L 3163 4153 
L 678 4153 
L 678 -775 
z
" transform="scale(0.015625)"/>
     </defs>
     <use xlink:href="#DejaVuSans-7d30"/>
     <use xlink:href="#DejaVuSans-304b" x="60.009766"/>
     <use xlink:href="#DejaVuSans-3044" x="120.019531"/>
     <use xlink:href="#DejaVuSans-5206" x="180.029297"/>
     <use xlink:href="#DejaVuSans-5272" x="240.039062"/>
    </g>
   </g>
  </g>
 </g>
 <defs>
  <clipPath id="p925eb755e3">
   <rect x="54.29" y="9" width="333.207778" height="274.68"/>
  </clipPath>
  <clipPath id="p9284ad189b">
   <rect x="398.741111" y="9" width="333.207778" height="274.68"/>
  </clipPath>
  <clipPath id="pe85a42c7a4">
   <rect x="743.192222" y="9" width="333.207778" height="274.68"/>
  </clipPath>
 </defs>
</svg>
