<?xml version="1.0" encoding="utf-8" standalone="no"?>
<!DOCTYPE svg PUBLIC "-//W3C//DTD SVG 1.1//EN"
  "http://www.w3.org/Graphics/SVG/1.1/DTD/svg11.dtd">
<svg xmlns:xlink="http://www.w3.org/1999/xlink" width="1080pt" height="360pt" viewBox="0 0 1080 360" xmlns="http://www.w3.org/2000/svg" version="1.1">
 <metadata>
  <rdf:RDF xmlns:dc="http://purl.org/dc/elements/1.1/" xmlns:cc="http://creativecommons.org/ns#" xmlns:rdf="http://www.w3.org/1999/02/22-rdf-syntax-ns#">
   <cc:Work>
    <dc:type rdf:resource="http://purl.org/dc/dcmitype/StillImage"/>
    <dc:date>2024-02-15T19:59:48.806831</dc:date>
    <dc:format>image/svg+xml</dc:format>
    <dc:creator>
     <cc:Agent>
      <dc:title>Matplotlib v3.7.0, https://matplotlib.org/</dc:title>
     </cc:Agent>
    </dc:creator>
   </cc:Work>
  </rdf:RDF>
 </metadata>
 <defs>
  <style type="text/css">*{stroke-linejoin: round; stroke-linecap: butt}</style>
 </defs>
 <g id="figure_1">
  <g id="patch_1">
   <path d="M 0 360 
L 1080 360 
L 1080 0 
L 0 0 
L 0 360 
z
" style="fill: none"/>
  </g>
  <g id="axes_1">
   <g id="patch_2">
    <path d="M 54.50375 282.7575 
L 387.700278 282.7575 
L 387.700278 8.746875 
L 54.50375 8.746875 
L 54.50375 282.7575 
z
" style="fill: none"/>
   </g>
   <g id="matplotlib.axis_1">
    <g id="xtick_1">
     <g id="line2d_1">
      <defs>
       <path id="m2414844a4f" d="M 0 0 
L 0 3.5 
" style="stroke: #000000; stroke-width: 0.8"/>
      </defs>
      <g>
       <use xlink:href="#m2414844a4f" x="165.383531" y="282.7575" style="stroke: #000000; stroke-width: 0.8"/>
      </g>
     </g>
     <g id="text_1">
      <!-- 100 -->
      <g transform="translate(152.402906 299.9775) scale(0.14 -0.14)">
       <defs>
        <path id="IPAexMincho-31" d="M 3094 63 
L 913 63 
L 913 263 
Q 1441 263 1578 325 
Q 1797 419 1797 734 
L 1797 3825 
Q 1797 4166 1463 4166 
L 831 4166 
L 831 4344 
Q 1850 4453 2244 4763 
L 2244 734 
Q 2244 444 2438 338 
Q 2572 263 3094 263 
L 3094 63 
z
" transform="scale(0.015625)"/>
        <path id="IPAexMincho-30" d="M 1963 4734 
Q 2759 4734 3172 3991 
Q 3544 3344 3544 2316 
Q 3544 1288 3159 625 
Q 2747 -97 1981 -97 
Q 1213 -97 800 625 
Q 422 1294 422 2322 
Q 422 3744 1081 4375 
Q 1459 4734 1963 4734 
z
M 1988 4509 
Q 1528 4509 1247 4016 
Q 909 3406 909 2319 
Q 909 1409 1153 834 
Q 1447 138 1988 138 
Q 2544 138 2831 863 
Q 3056 1425 3056 2313 
Q 3056 3256 2813 3831 
Q 2528 4509 1988 4509 
z
" transform="scale(0.015625)"/>
       </defs>
       <use xlink:href="#IPAexMincho-31"/>
       <use xlink:href="#IPAexMincho-30" x="61.816406"/>
       <use xlink:href="#IPAexMincho-30" x="123.632812"/>
      </g>
     </g>
    </g>
    <g id="xtick_2">
     <g id="line2d_2">
      <g>
       <use xlink:href="#m2414844a4f" x="276.820497" y="282.7575" style="stroke: #000000; stroke-width: 0.8"/>
      </g>
     </g>
     <g id="text_2">
      <!-- 200 -->
      <g transform="translate(263.839872 299.9775) scale(0.14 -0.14)">
       <defs>
        <path id="IPAexMincho-32" d="M 3500 1375 
L 3347 63 
L 538 63 
L 538 319 
Q 750 1231 1838 2119 
L 1941 2203 
Q 2463 2603 2634 2841 
Q 2878 3172 2878 3544 
Q 2878 4056 2547 4313 
Q 2303 4497 1963 4497 
Q 1419 4497 1172 4147 
Q 1041 3959 1031 3756 
Q 1338 3747 1338 3456 
Q 1338 3144 1031 3144 
Q 653 3144 653 3572 
Q 653 4006 1013 4363 
Q 1381 4734 1984 4734 
Q 2550 4734 2931 4441 
Q 3378 4097 3378 3513 
Q 3378 3109 3141 2778 
Q 2922 2463 2278 2047 
L 2100 1931 
Q 1059 1266 878 453 
L 2572 453 
Q 2969 453 3091 631 
Q 3206 784 3316 1375 
L 3500 1375 
z
" transform="scale(0.015625)"/>
       </defs>
       <use xlink:href="#IPAexMincho-32"/>
       <use xlink:href="#IPAexMincho-30" x="61.816406"/>
       <use xlink:href="#IPAexMincho-30" x="123.632812"/>
      </g>
     </g>
    </g>
    <g id="xtick_3">
     <g id="line2d_3">
      <g>
       <use xlink:href="#m2414844a4f" x="55.060935" y="282.7575" style="stroke: #000000; stroke-width: 0.8"/>
      </g>
     </g>
     <g id="text_3">
      <!-- 1 -->
      <g transform="translate(50.73406 299.9775) scale(0.14 -0.14)">
       <use xlink:href="#IPAexMincho-31"/>
      </g>
     </g>
    </g>
    <g id="text_4">
     <!-- バッチ -->
     <g transform="translate(194.102014 319.52375) scale(0.18 -0.18)">
      <defs>
       <path id="IPAexMincho-30d0" d="M 397 800 
Q 994 1269 1359 1703 
Q 1719 2131 2003 2694 
Q 2216 3106 2216 3303 
Q 2216 3453 1881 3566 
L 1947 3725 
Q 2319 3703 2578 3553 
Q 2766 3447 2766 3359 
Q 2766 3284 2728 3231 
Q 2672 3159 2600 2988 
Q 2263 2194 1706 1597 
Q 1231 1088 531 647 
L 397 800 
z
M 3803 3781 
Q 4588 3272 5141 2491 
Q 5691 1719 5691 1281 
Q 5691 941 5466 941 
Q 5294 941 5216 1247 
Q 4875 2609 3681 3641 
L 3803 3781 
z
M 4519 4484 
Q 4934 4341 5166 4125 
Q 5369 3941 5369 3756 
Q 5369 3531 5178 3531 
Q 5047 3531 4966 3731 
Q 4816 4088 4422 4356 
L 4519 4484 
z
M 5106 4928 
Q 5516 4806 5766 4581 
Q 5978 4391 5978 4213 
Q 5978 3988 5794 3988 
Q 5669 3988 5575 4200 
Q 5431 4513 5013 4800 
L 5106 4928 
z
" transform="scale(0.015625)"/>
       <path id="IPAexMincho-30c3" d="M 1313 3119 
L 1453 3228 
Q 2216 2716 2216 2247 
Q 2216 1959 1978 1959 
Q 1875 1959 1828 2031 
Q 1791 2091 1753 2266 
Q 1672 2694 1313 3119 
z
M 2472 3425 
L 2613 3531 
Q 3016 3203 3172 2963 
Q 3316 2744 3316 2522 
Q 3316 2216 3059 2216 
Q 2969 2216 2928 2291 
Q 2891 2359 2856 2547 
Q 2775 2997 2472 3425 
z
M 2056 -213 
L 1959 -56 
Q 3034 591 3625 1291 
Q 4203 1975 4459 2853 
Q 4525 3075 4525 3175 
Q 4525 3294 4269 3413 
L 4328 3559 
Q 4666 3491 4863 3359 
Q 5044 3241 5044 3109 
Q 5044 3025 4994 2963 
Q 4922 2869 4866 2706 
Q 4350 1500 3684 850 
Q 3094 275 2056 -213 
z
" transform="scale(0.015625)"/>
       <path id="IPAexMincho-30c1" d="M 3591 4072 
Q 3591 3447 3559 2881 
L 4600 2953 
Q 4853 2969 5031 3056 
Q 5131 3106 5241 3106 
Q 5397 3106 5600 2991 
Q 5747 2913 5747 2772 
Q 5747 2638 5497 2638 
Q 5388 2638 5294 2644 
Q 5147 2650 4788 2650 
Q 4334 2650 3538 2606 
Q 3472 1522 2975 891 
Q 2525 284 1522 -134 
L 1428 34 
Q 2481 572 2872 1353 
Q 3084 1775 3156 2581 
Q 2203 2494 1606 2394 
L 1406 2350 
Q 1297 2325 1241 2325 
Q 1000 2325 678 2844 
L 800 2966 
Q 1000 2809 1131 2763 
Q 1247 2722 1416 2722 
Q 1488 2722 3169 2844 
Q 3188 3194 3188 3994 
Q 2028 3769 1247 3700 
L 1222 3894 
Q 3044 4169 3956 4538 
Q 4225 4650 4225 4725 
Q 4225 4809 4050 4928 
L 4209 5013 
Q 4741 4725 4741 4519 
Q 4741 4416 4509 4341 
Q 4178 4222 3591 4072 
z
" transform="scale(0.015625)"/>
      </defs>
      <use xlink:href="#IPAexMincho-30d0"/>
      <use xlink:href="#IPAexMincho-30c3" x="100"/>
      <use xlink:href="#IPAexMincho-30c1" x="200"/>
     </g>
    </g>
   </g>
   <g id="matplotlib.axis_2">
    <g id="ytick_1">
     <g id="line2d_4">
      <defs>
       <path id="m94d5dda805" d="M 0 0 
L -3.5 0 
" style="stroke: #000000; stroke-width: 0.8"/>
      </defs>
      <g>
       <use xlink:href="#m94d5dda805" x="54.50375" y="282.7575" style="stroke: #000000; stroke-width: 0.8"/>
      </g>
     </g>
     <g id="text_5">
      <!-- 0.0 -->
      <g transform="translate(26.866875 287.8675) scale(0.14 -0.14)">
       <defs>
        <path id="IPAexMincho-2e" d="M 766 722 
Q 916 722 1016 619 
Q 1119 516 1119 369 
Q 1119 228 1016 128 
Q 916 25 766 25 
Q 625 25 525 128 
Q 422 228 422 369 
Q 422 516 525 619 
Q 628 722 766 722 
z
" transform="scale(0.015625)"/>
       </defs>
       <use xlink:href="#IPAexMincho-30"/>
       <use xlink:href="#IPAexMincho-2e" x="61.816406"/>
       <use xlink:href="#IPAexMincho-30" x="85.595703"/>
      </g>
     </g>
    </g>
    <g id="ytick_2">
     <g id="line2d_5">
      <g>
       <use xlink:href="#m94d5dda805" x="54.50375" y="243.613125" style="stroke: #000000; stroke-width: 0.8"/>
      </g>
     </g>
     <g id="text_6">
      <!-- 0.5 -->
      <g transform="translate(26.866875 248.723125) scale(0.14 -0.14)">
       <defs>
        <path id="IPAexMincho-35" d="M 1041 2553 
Q 1438 2950 2053 2950 
Q 2784 2950 3200 2419 
Q 3500 2019 3500 1503 
Q 3500 600 2866 159 
Q 2478 -103 1969 -103 
Q 1547 -103 1181 88 
Q 594 406 594 953 
Q 594 1369 984 1369 
Q 1309 1369 1309 1047 
Q 1309 925 1219 838 
Q 1131 747 1022 747 
Q 984 747 953 753 
Q 991 525 1253 350 
Q 1531 156 1919 156 
Q 2372 156 2659 444 
Q 3006 791 3006 1438 
Q 3006 1950 2769 2284 
Q 2469 2700 1969 2700 
Q 1288 2700 953 2003 
L 703 2034 
L 941 4575 
L 3294 4575 
L 3206 4178 
L 1209 4178 
L 1041 2553 
z
" transform="scale(0.015625)"/>
       </defs>
       <use xlink:href="#IPAexMincho-30"/>
       <use xlink:href="#IPAexMincho-2e" x="61.816406"/>
       <use xlink:href="#IPAexMincho-35" x="85.595703"/>
      </g>
     </g>
    </g>
    <g id="ytick_3">
     <g id="line2d_6">
      <g>
       <use xlink:href="#m94d5dda805" x="54.50375" y="204.46875" style="stroke: #000000; stroke-width: 0.8"/>
      </g>
     </g>
     <g id="text_7">
      <!-- 1.0 -->
      <g transform="translate(26.866875 209.57875) scale(0.14 -0.14)">
       <use xlink:href="#IPAexMincho-31"/>
       <use xlink:href="#IPAexMincho-2e" x="61.816406"/>
       <use xlink:href="#IPAexMincho-30" x="85.595703"/>
      </g>
     </g>
    </g>
    <g id="ytick_4">
     <g id="line2d_7">
      <g>
       <use xlink:href="#m94d5dda805" x="54.50375" y="165.324375" style="stroke: #000000; stroke-width: 0.8"/>
      </g>
     </g>
     <g id="text_8">
      <!-- 1.5 -->
      <g transform="translate(26.866875 170.434375) scale(0.14 -0.14)">
       <use xlink:href="#IPAexMincho-31"/>
       <use xlink:href="#IPAexMincho-2e" x="61.816406"/>
       <use xlink:href="#IPAexMincho-35" x="85.595703"/>
      </g>
     </g>
    </g>
    <g id="ytick_5">
     <g id="line2d_8">
      <g>
       <use xlink:href="#m94d5dda805" x="54.50375" y="126.18" style="stroke: #000000; stroke-width: 0.8"/>
      </g>
     </g>
     <g id="text_9">
      <!-- 2.0 -->
      <g transform="translate(26.866875 131.29) scale(0.14 -0.14)">
       <use xlink:href="#IPAexMincho-32"/>
       <use xlink:href="#IPAexMincho-2e" x="61.816406"/>
       <use xlink:href="#IPAexMincho-30" x="85.595703"/>
      </g>
     </g>
    </g>
    <g id="ytick_6">
     <g id="line2d_9">
      <g>
       <use xlink:href="#m94d5dda805" x="54.50375" y="87.035625" style="stroke: #000000; stroke-width: 0.8"/>
      </g>
     </g>
     <g id="text_10">
      <!-- 2.5 -->
      <g transform="translate(26.866875 92.145625) scale(0.14 -0.14)">
       <use xlink:href="#IPAexMincho-32"/>
       <use xlink:href="#IPAexMincho-2e" x="61.816406"/>
       <use xlink:href="#IPAexMincho-35" x="85.595703"/>
      </g>
     </g>
    </g>
    <g id="ytick_7">
     <g id="line2d_10">
      <g>
       <use xlink:href="#m94d5dda805" x="54.50375" y="47.89125" style="stroke: #000000; stroke-width: 0.8"/>
      </g>
     </g>
     <g id="text_11">
      <!-- 3.0 -->
      <g transform="translate(26.866875 53.00125) scale(0.14 -0.14)">
       <defs>
        <path id="IPAexMincho-33" d="M 2234 2425 
Q 3400 2194 3400 1234 
Q 3400 709 3034 344 
Q 2597 -103 1844 -103 
Q 1259 -103 853 216 
Q 488 503 488 900 
Q 488 1356 872 1356 
Q 1197 1356 1197 1034 
Q 1197 741 922 741 
Q 878 741 847 747 
Q 875 572 1019 425 
Q 1306 156 1794 156 
Q 2284 156 2606 478 
Q 2913 784 2913 1247 
Q 2913 1681 2625 1969 
Q 2313 2284 1769 2284 
L 1447 2284 
L 1447 2541 
L 1769 2541 
Q 2216 2541 2503 2828 
Q 2809 3134 2809 3603 
Q 2809 3981 2559 4222 
Q 2297 4484 1888 4484 
Q 1472 4484 1178 4247 
Q 1013 4119 956 3941 
Q 1256 3941 1256 3653 
Q 1256 3334 938 3334 
Q 584 3334 584 3744 
Q 584 4138 1019 4447 
Q 1419 4728 1934 4728 
Q 2600 4728 2972 4356 
Q 3278 4050 3278 3597 
Q 3278 2681 2234 2469 
L 2234 2425 
z
" transform="scale(0.015625)"/>
       </defs>
       <use xlink:href="#IPAexMincho-33"/>
       <use xlink:href="#IPAexMincho-2e" x="61.816406"/>
       <use xlink:href="#IPAexMincho-30" x="85.595703"/>
      </g>
     </g>
    </g>
    <g id="ytick_8">
     <g id="line2d_11">
      <g>
       <use xlink:href="#m94d5dda805" x="54.50375" y="8.746875" style="stroke: #000000; stroke-width: 0.8"/>
      </g>
     </g>
     <g id="text_12">
      <!-- 3.5 -->
      <g transform="translate(26.866875 13.856875) scale(0.14 -0.14)">
       <use xlink:href="#IPAexMincho-33"/>
       <use xlink:href="#IPAexMincho-2e" x="61.816406"/>
       <use xlink:href="#IPAexMincho-35" x="85.595703"/>
      </g>
     </g>
    </g>
    <g id="text_13">
     <!-- スループット (MOP/s) -->
     <g transform="translate(18.8675 239.294531) rotate(-90) scale(0.18 -0.18)">
      <defs>
       <path id="IPAexMincho-30b9" d="M 3522 2291 
Q 4747 1778 5300 1216 
Q 5588 938 5588 741 
Q 5588 434 5356 434 
Q 5263 434 5159 594 
Q 4547 1494 3400 2125 
Q 2822 1447 2159 991 
Q 1538 563 725 244 
L 653 422 
Q 2016 1138 2838 2053 
Q 3600 2906 4066 4109 
Q 2888 3953 2278 3859 
Q 2119 3831 2063 3806 
Q 1975 3775 1881 3775 
Q 1778 3775 1616 3978 
Q 1472 4156 1391 4363 
L 1544 4453 
Q 1684 4294 1769 4250 
Q 1869 4197 2028 4197 
Q 2716 4197 3884 4344 
Q 4031 4363 4147 4441 
Q 4244 4497 4281 4497 
Q 4344 4497 4519 4325 
Q 4691 4150 4691 4069 
Q 4691 3997 4606 3959 
Q 4475 3900 4378 3703 
Q 3984 2903 3522 2291 
z
" transform="scale(0.015625)"/>
       <path id="IPAexMincho-30eb" d="M 488 300 
Q 1306 913 1659 1719 
Q 1966 2419 1966 3359 
Q 1966 3625 1869 3713 
Q 1734 3828 1606 3872 
L 1672 4038 
Q 2013 4000 2222 3884 
Q 2447 3763 2447 3622 
Q 2447 3541 2422 3450 
Q 2397 3341 2356 3016 
Q 2213 1894 1778 1228 
Q 1381 616 603 147 
L 488 300 
z
M 6031 2822 
Q 5616 2150 5000 1572 
Q 4572 1166 3834 613 
Q 3663 484 3616 422 
Q 3563 344 3503 344 
Q 3381 344 3247 528 
Q 3156 653 3156 741 
Q 3156 759 3169 794 
Q 3184 834 3188 850 
Q 3213 922 3228 1150 
Q 3241 1497 3241 2944 
Q 3241 4028 3191 4191 
Q 3128 4394 2844 4484 
L 2900 4666 
Q 3394 4591 3553 4488 
Q 3688 4403 3688 4238 
Q 3688 4206 3656 4031 
Q 3625 3863 3616 3578 
Q 3578 1656 3578 966 
Q 4269 1350 4850 1859 
Q 5344 2297 5891 2944 
L 6031 2822 
z
" transform="scale(0.015625)"/>
       <path id="IPAexMincho-30fc" d="M 781 2841 
Q 1078 2522 1422 2522 
Q 1994 2522 2547 2547 
Q 3222 2575 4469 2656 
Q 4838 2678 4969 2722 
Q 5072 2759 5147 2759 
Q 5319 2759 5494 2669 
Q 5678 2575 5678 2444 
Q 5678 2253 5428 2253 
Q 5356 2253 5109 2266 
Q 4847 2284 4531 2284 
Q 3753 2284 1684 2144 
Q 1547 2134 1441 2100 
Q 1350 2075 1288 2075 
Q 953 2075 647 2731 
L 781 2841 
z
" transform="scale(0.015625)"/>
       <path id="IPAexMincho-30d7" d="M 1172 4244 
Q 1369 4063 1506 4003 
Q 1631 3947 1806 3947 
Q 2044 3947 2869 4006 
Q 3769 4069 4428 4153 
Q 4606 4175 4725 4269 
Q 4788 4313 4844 4313 
Q 4934 4313 5141 4109 
Q 5319 3928 5319 3831 
Q 5319 3772 5191 3678 
Q 5106 3619 5013 3372 
Q 4506 2075 3853 1381 
Q 3013 478 1697 -56 
L 1594 103 
Q 2978 791 3763 1869 
Q 4381 2703 4684 3897 
Q 3453 3781 2253 3628 
Q 1978 3591 1850 3525 
Q 1775 3488 1653 3488 
Q 1513 3488 1328 3691 
Q 1166 3869 1031 4134 
L 1172 4244 
z
M 5716 5422 
Q 5988 5422 6175 5216 
Q 6338 5038 6338 4800 
Q 6338 4522 6131 4334 
Q 5953 4172 5716 4172 
Q 5438 4172 5250 4378 
Q 5088 4559 5088 4800 
Q 5088 5075 5294 5259 
Q 5475 5422 5716 5422 
z
M 5716 5216 
Q 5531 5216 5403 5075 
Q 5294 4956 5294 4800 
Q 5294 4616 5434 4488 
Q 5556 4378 5716 4378 
Q 5897 4378 6022 4519 
Q 6131 4641 6131 4800 
Q 6131 4981 5991 5106 
Q 5872 5216 5716 5216 
z
" transform="scale(0.015625)"/>
       <path id="IPAexMincho-30c8" d="M 2888 3138 
Q 3891 2881 4463 2528 
Q 4981 2209 4981 1919 
Q 4981 1650 4775 1650 
Q 4656 1650 4513 1844 
Q 4272 2147 3853 2431 
Q 3469 2700 2888 2913 
Q 2888 2413 2906 1606 
Q 2925 766 2931 403 
L 2938 147 
Q 2938 -225 2669 -225 
Q 2472 -225 2472 56 
Q 2472 94 2481 228 
Q 2488 363 2491 434 
Q 2534 1472 2534 2847 
Q 2534 4313 2497 4513 
Q 2450 4728 2094 4844 
L 2150 5006 
Q 2522 4991 2778 4834 
Q 2972 4719 2972 4616 
Q 2972 4534 2934 4447 
Q 2888 4334 2888 4072 
L 2888 3138 
z
" transform="scale(0.015625)"/>
       <path id="IPAexMincho-20" transform="scale(0.015625)"/>
       <path id="IPAexMincho-28" d="M 1919 -1319 
L 1734 -1422 
Q 575 6 575 1747 
Q 575 3488 1734 4916 
L 1919 4806 
Q 1009 3456 1009 1741 
Q 1009 41 1919 -1319 
z
" transform="scale(0.015625)"/>
       <path id="IPAexMincho-4d" d="M 5806 63 
L 4072 63 
L 4072 241 
Q 4409 263 4534 319 
Q 4719 397 4719 753 
L 4719 4263 
L 4700 4263 
L 3084 63 
L 2863 63 
L 1253 4256 
L 1228 4256 
L 1228 747 
Q 1228 419 1394 331 
Q 1538 259 1856 241 
L 1856 63 
L 275 63 
L 275 241 
Q 588 263 731 319 
Q 916 406 916 747 
L 916 3872 
Q 916 4219 750 4306 
Q 638 4366 250 4397 
L 250 4575 
L 1588 4575 
L 3059 753 
L 4519 4575 
L 5806 4575 
L 5806 4397 
Q 5497 4378 5344 4306 
Q 5153 4219 5153 3878 
L 5153 753 
Q 5153 419 5319 331 
Q 5450 263 5806 241 
L 5806 63 
z
" transform="scale(0.015625)"/>
       <path id="IPAexMincho-4f" d="M 2578 4734 
Q 3469 4734 4078 4125 
Q 4769 3425 4769 2341 
Q 4769 1194 4072 497 
Q 3469 -103 2578 -103 
Q 1691 -103 1081 503 
Q 384 1200 384 2328 
Q 384 3425 1075 4125 
Q 1684 4734 2578 4734 
z
M 2578 4509 
Q 1797 4509 1338 3869 
Q 916 3284 916 2341 
Q 916 1503 1241 938 
Q 1691 144 2578 144 
Q 3347 144 3809 778 
Q 4238 1359 4238 2319 
Q 4238 3344 3756 3941 
Q 3303 4509 2578 4509 
z
" transform="scale(0.015625)"/>
       <path id="IPAexMincho-50" d="M 322 4575 
L 2325 4575 
Q 3319 4575 3738 4109 
Q 4013 3803 4013 3366 
Q 4013 2059 2222 2059 
L 1416 2059 
L 1416 741 
Q 1416 425 1594 331 
Q 1725 259 2100 241 
L 2100 63 
L 322 63 
L 322 241 
Q 659 263 781 319 
Q 975 406 975 741 
L 975 3878 
Q 975 4191 853 4275 
Q 734 4366 322 4397 
L 322 4575 
z
M 1416 2303 
L 2038 2303 
Q 3513 2303 3513 3328 
Q 3513 4363 2184 4363 
L 1984 4363 
Q 1816 4363 1678 4331 
Q 1416 4263 1416 3878 
L 1416 2303 
z
" transform="scale(0.015625)"/>
       <path id="IPAexMincho-2f" d="M 2734 4659 
L 609 -959 
L 341 -856 
L 2459 4763 
L 2734 4659 
z
" transform="scale(0.015625)"/>
       <path id="IPAexMincho-73" d="M 2388 2203 
Q 2338 2566 2131 2775 
Q 1863 3044 1484 3044 
Q 1172 3044 966 2838 
Q 819 2681 819 2466 
Q 819 2091 1466 1888 
L 1631 1838 
Q 2166 1666 2388 1497 
Q 2706 1256 2706 856 
Q 2706 381 2347 141 
Q 2069 -50 1663 -50 
Q 1303 -50 897 172 
Q 759 253 684 253 
Q 581 253 581 31 
L 397 31 
L 397 1203 
L 594 1203 
Q 625 750 869 506 
Q 1181 184 1650 184 
Q 2316 184 2316 775 
Q 2316 1034 2119 1197 
Q 1984 1303 1497 1472 
L 1306 1538 
Q 866 1681 716 1806 
Q 434 2028 434 2388 
Q 434 2738 697 2991 
Q 984 3259 1447 3259 
Q 1847 3259 2163 3069 
Q 2253 3016 2316 3016 
Q 2388 3016 2406 3200 
L 2566 3200 
L 2566 2203 
L 2388 2203 
z
" transform="scale(0.015625)"/>
       <path id="IPAexMincho-29" d="M 600 4916 
Q 1759 3491 1759 1747 
Q 1759 6 600 -1422 
L 416 -1319 
Q 1325 41 1325 1741 
Q 1325 3447 416 4806 
L 600 4916 
z
" transform="scale(0.015625)"/>
      </defs>
      <use xlink:href="#IPAexMincho-30b9"/>
      <use xlink:href="#IPAexMincho-30eb" x="100"/>
      <use xlink:href="#IPAexMincho-30fc" x="200"/>
      <use xlink:href="#IPAexMincho-30d7" x="300"/>
      <use xlink:href="#IPAexMincho-30c3" x="400"/>
      <use xlink:href="#IPAexMincho-30c8" x="500"/>
      <use xlink:href="#IPAexMincho-20" x="600"/>
      <use xlink:href="#IPAexMincho-28" x="629.003906"/>
      <use xlink:href="#IPAexMincho-4d" x="665.527344"/>
      <use xlink:href="#IPAexMincho-4f" x="760.9375"/>
      <use xlink:href="#IPAexMincho-50" x="841.015625"/>
      <use xlink:href="#IPAexMincho-2f" x="905.224609"/>
      <use xlink:href="#IPAexMincho-73" x="955.224609"/>
      <use xlink:href="#IPAexMincho-29" x="1002.832031"/>
     </g>
    </g>
   </g>
   <g id="line2d_12">
    <path d="M 55.060935 118.212319 
L 56.175304 124.568583 
L 57.289674 119.895292 
L 58.404044 123.54668 
L 59.518413 105.911669 
L 60.632783 120.595115 
L 61.747153 116.061179 
L 62.861522 121.621011 
L 63.975892 119.923241 
L 65.090262 125.662355 
L 66.204631 115.222785 
L 67.319001 125.201704 
L 68.433371 115.425788 
L 69.54774 124.70551 
L 70.66211 111.701044 
L 71.77648 125.005199 
L 72.890849 126.282402 
L 74.005219 123.096206 
L 75.119589 125.090612 
L 77.348328 128.433385 
L 78.462698 126.291248 
L 79.577067 122.753067 
L 80.691437 130.351459 
L 81.805807 130.147596 
L 82.920176 127.48249 
L 84.034546 128.667547 
L 85.148916 124.630509 
L 86.263285 126.772724 
L 87.377655 125.419347 
L 88.492025 113.396308 
L 89.606394 119.790699 
L 90.720764 124.5797 
L 91.835134 123.033967 
L 92.949503 124.632153 
L 94.063873 116.943493 
L 95.178242 125.54132 
L 96.292612 126.784076 
L 97.406982 125.658049 
L 98.521351 127.896794 
L 100.750091 127.624349 
L 101.86446 127.109444 
L 102.97883 118.807705 
L 104.0932 126.588041 
L 105.207569 125.529029 
L 106.321939 127.192743 
L 107.436309 133.888702 
L 108.550678 123.592244 
L 109.665048 122.326471 
L 110.779418 122.063891 
L 111.893787 124.623385 
L 113.008157 124.969656 
L 114.122527 120.009516 
L 115.236896 113.388949 
L 116.351266 123.322774 
L 117.465636 112.049115 
L 118.580005 119.279238 
L 119.694375 123.487102 
L 120.808745 114.856785 
L 121.923114 118.349559 
L 123.037484 124.056574 
L 124.151854 124.95392 
L 125.266223 124.907886 
L 126.380593 118.665454 
L 127.494963 127.677194 
L 128.609332 127.641651 
L 129.723702 117.626406 
L 130.838072 122.973684 
L 131.952441 122.947458 
L 134.181181 128.995733 
L 135.29555 126.955763 
L 136.40992 126.256175 
L 137.524289 126.050589 
L 138.638659 110.787962 
L 139.753029 127.381967 
L 140.867398 116.152855 
L 141.981768 128.654864 
L 143.096138 126.723715 
L 144.210507 125.487693 
L 145.324877 128.689702 
L 146.439247 129.875229 
L 147.553616 119.65565 
L 148.667986 119.395105 
L 149.782356 124.184263 
L 150.896725 130.020611 
L 152.011095 129.912103 
L 153.125465 118.781478 
L 154.239834 128.351104 
L 155.354204 127.702638 
L 156.468574 126.694514 
L 157.582943 114.680479 
L 158.697313 123.615574 
L 159.811683 113.923426 
L 160.926052 84.049614 
L 162.040422 102.23977 
L 163.154792 101.920508 
L 164.269161 124.077477 
L 165.383531 115.516994 
L 166.497901 103.693357 
L 167.61227 121.525499 
L 168.72664 126.964766 
L 170.955379 125.419738 
L 172.069749 103.180096 
L 173.184119 126.353723 
L 174.298488 118.789464 
L 175.412858 120.509937 
L 176.527227 117.339478 
L 177.641597 106.193822 
L 178.755967 108.384184 
L 179.870336 125.459039 
L 180.984706 121.584372 
L 182.099076 124.410831 
L 183.213445 123.852945 
L 184.327815 128.078346 
L 185.442185 130.956788 
L 186.556554 126.308628 
L 187.670924 131.647295 
L 188.785294 124.862244 
L 189.899663 125.119187 
L 191.014033 125.611937 
L 192.128403 116.245549 
L 193.242772 123.634598 
L 195.471512 123.311344 
L 196.585881 114.759002 
L 197.700251 126.736946 
L 198.814621 125.525506 
L 199.92899 118.844266 
L 201.04336 126.014811 
L 202.15773 126.941906 
L 203.272099 124.470174 
L 204.386469 129.093281 
L 205.500839 125.33362 
L 206.615208 123.529926 
L 207.729578 120.971841 
L 208.843948 106.882684 
L 211.072687 122.263214 
L 212.187057 127.822655 
L 213.301426 120.126636 
L 214.415796 125.726708 
L 215.530165 126.455968 
L 216.644535 127.382672 
L 217.758905 117.289216 
L 218.873274 126.085505 
L 219.987644 116.051002 
L 221.102014 128.84902 
L 222.216383 128.323546 
L 223.330753 127.95003 
L 224.445123 129.817217 
L 225.559492 129.748714 
L 226.673862 129.305835 
L 227.788232 127.261559 
L 228.902601 126.415023 
L 230.016971 127.098718 
L 231.131341 116.046774 
L 232.24571 112.38059 
L 233.36008 127.130504 
L 234.47445 122.933366 
L 235.588819 111.85629 
L 236.703189 126.26236 
L 237.817559 119.152802 
L 238.931928 128.06809 
L 240.046298 109.441944 
L 241.160668 109.824776 
L 242.275037 116.783628 
L 243.389407 122.641818 
L 244.503777 112.483696 
L 245.618146 115.00021 
L 246.732516 104.269328 
L 247.846886 122.293825 
L 248.961255 126.133731 
L 250.075625 125.325478 
L 251.189995 116.889317 
L 252.304364 114.680948 
L 253.418734 127.505585 
L 254.533104 116.181274 
L 255.647473 126.521104 
L 256.761843 124.611172 
L 257.876212 123.754771 
L 258.990582 127.591703 
L 260.104952 118.994502 
L 261.219321 113.022793 
L 262.333691 109.774749 
L 263.448061 131.470127 
L 265.6768 108.877873 
L 266.79117 114.83643 
L 267.905539 122.693097 
L 269.019909 120.005601 
L 270.134279 104.328984 
L 271.248648 126.732875 
L 272.363018 110.066609 
L 273.477388 125.059218 
L 274.591757 119.201654 
L 275.706127 121.758408 
L 276.820497 121.326724 
L 277.934866 103.716139 
L 279.049236 124.15741 
L 280.163606 103.849856 
L 282.392345 117.373768 
L 283.506715 130.162627 
L 284.621084 125.756458 
L 285.735454 129.067446 
L 286.849824 117.959838 
L 287.964193 125.591582 
L 289.078563 121.049425 
L 290.192933 110.513638 
L 291.307302 123.303984 
L 292.421672 125.958834 
L 293.536042 124.953607 
L 294.650411 115.567334 
L 295.764781 124.168136 
L 296.87915 125.772116 
L 297.99352 124.524428 
L 299.10789 125.329862 
L 300.222259 126.721915 
L 301.336629 128.536648 
L 302.450999 125.946073 
L 303.565368 125.31303 
L 304.679738 142.967692 
L 305.794108 127.137002 
L 306.908477 130.420275 
L 308.022847 126.005886 
L 309.137217 128.65964 
L 311.365956 121.7844 
L 312.480326 106.856066 
L 313.594695 100.380177 
L 314.709065 116.787777 
L 315.823435 113.160894 
L 316.937804 123.093544 
L 318.052174 124.850814 
L 319.166544 122.835035 
L 320.280913 124.876962 
L 321.395283 128.076467 
L 322.509653 95.807018 
L 323.624022 122.261883 
L 324.738392 119.720239 
L 325.852762 110.258104 
L 326.967131 126.66539 
L 328.081501 90.65006 
L 329.195871 110.63569 
L 330.31024 120.682329 
L 331.42461 122.640879 
L 332.53898 118.261719 
L 333.653349 88.905082 
L 334.767719 130.400938 
L 335.882088 91.4223 
L 336.996458 135.170602 
L 338.110828 108.966418 
L 339.225197 137.981403 
L 340.339567 114.330685 
L 341.453937 129.800542 
L 342.568306 99.693037 
L 343.682676 121.992648 
L 344.797046 110.388611 
L 345.911415 105.425574 
L 347.025785 105.652377 
L 348.140155 124.865062 
L 349.254524 99.621246 
L 350.368894 121.147129 
L 351.483264 113.721598 
L 352.597633 127.941105 
L 353.712003 98.027992 
L 354.826373 124.942333 
L 355.940742 174.358114 
L 357.055112 112.393743 
L 358.169482 136.894285 
L 359.283851 119.13049 
L 360.398221 117.108996 
L 361.512591 110.364576 
L 362.62696 130.101953 
L 363.74133 98.361032 
L 364.8557 117.190416 
L 365.970069 93.12555 
L 367.084439 112.549459 
L 368.198809 120.856991 
L 369.313178 110.967478 
L 370.427548 121.778841 
L 371.541918 130.095142 
L 372.656287 118.21091 
L 373.770657 102.352036 
L 374.885026 114.673276 
L 375.999396 105.9386 
L 377.113766 121.164979 
L 378.228135 95.88656 
L 379.342505 122.052695 
L 380.456875 122.17553 
L 381.571244 127.292953 
L 382.685614 109.778663 
L 383.799984 126.718627 
L 384.914353 92.447805 
L 386.028723 129.854796 
L 387.143093 85.267552 
L 387.143093 85.267552 
" clip-path="url(#p471639ee30)" style="fill: none; stroke: #1f77b4; stroke-linecap: square"/>
   </g>
   <g id="line2d_13">
    <path d="M 55.060935 104.348086 
L 56.175304 129.399781 
L 57.289674 138.301682 
L 58.404044 111.919626 
L 59.518413 119.768386 
L 60.632783 113.163164 
L 61.747153 136.291775 
L 62.861522 118.951208 
L 63.975892 131.791111 
L 65.090262 131.267438 
L 66.204631 125.103686 
L 67.319001 116.112302 
L 68.433371 108.118316 
L 69.54774 118.075157 
L 70.66211 106.875247 
L 71.77648 131.61825 
L 72.890849 133.343186 
L 74.005219 115.49108 
L 75.119589 110.819043 
L 76.233958 104.323582 
L 77.348328 102.525054 
L 78.462698 134.927985 
L 79.577067 130.040027 
L 80.691437 131.548025 
L 81.805807 107.82074 
L 82.920176 132.518727 
L 84.034546 135.536523 
L 85.148916 104.955998 
L 86.263285 127.703734 
L 87.377655 131.32545 
L 88.492025 138.958681 
L 89.606394 127.731605 
L 90.720764 131.783752 
L 91.835134 129.003405 
L 92.949503 115.917754 
L 94.063873 124.520357 
L 95.178242 137.307102 
L 96.292612 124.475028 
L 97.406982 113.431382 
L 98.521351 113.434983 
L 99.635721 107.746522 
L 100.750091 136.161894 
L 101.86446 138.57812 
L 102.97883 111.550181 
L 104.0932 120.877894 
L 105.207569 106.989235 
L 106.321939 120.619855 
L 107.436309 131.30713 
L 108.550678 119.60077 
L 109.665048 129.587048 
L 110.779418 115.687585 
L 111.893787 106.205878 
L 113.008157 135.603069 
L 114.122527 133.519962 
L 115.236896 132.127048 
L 116.351266 112.834587 
L 117.465636 123.705684 
L 118.580005 119.393383 
L 119.694375 99.823309 
L 120.808745 106.092673 
L 121.923114 131.892887 
L 123.037484 102.553786 
L 124.151854 134.152222 
L 125.266223 122.830729 
L 126.380593 116.2533 
L 127.494963 125.689991 
L 128.609332 117.281388 
L 129.723702 131.70609 
L 130.838072 126.349182 
L 131.952441 112.456139 
L 133.066811 138.551188 
L 134.181181 137.448335 
L 135.29555 133.059467 
L 137.524289 115.504076 
L 138.638659 137.241261 
L 139.753029 114.595927 
L 140.867398 131.140532 
L 141.981768 111.710595 
L 143.096138 116.858393 
L 144.210507 113.071019 
L 145.324877 132.652288 
L 146.439247 114.028881 
L 147.553616 137.922921 
L 148.667986 111.412863 
L 149.782356 106.987748 
L 150.896725 115.352274 
L 152.011095 133.996584 
L 153.125465 131.674461 
L 154.239834 101.52883 
L 155.354204 112.500528 
L 156.468574 102.876727 
L 157.582943 114.4727 
L 158.697313 122.135838 
L 159.811683 126.59814 
L 162.040422 141.550117 
L 163.154792 129.053041 
L 164.269161 111.82842 
L 165.383531 106.425087 
L 166.497901 115.436043 
L 167.61227 130.42873 
L 168.72664 136.661768 
L 169.84101 115.966841 
L 170.955379 134.245777 
L 172.069749 140.910341 
L 173.184119 132.648373 
L 174.298488 132.732768 
L 175.412858 111.969731 
L 176.527227 125.770863 
L 177.641597 133.450676 
L 178.755967 114.610802 
L 179.870336 124.375914 
L 180.984706 115.685863 
L 182.099076 125.248364 
L 183.213445 112.608254 
L 184.327815 113.502624 
L 185.442185 124.644601 
L 186.556554 114.412027 
L 187.670924 120.689845 
L 188.785294 129.577497 
L 189.899663 107.549704 
L 191.014033 112.484792 
L 192.128403 110.352129 
L 193.242772 120.956575 
L 194.357142 132.75696 
L 195.471512 140.859454 
L 196.585881 131.689336 
L 197.700251 130.410176 
L 198.814621 135.129344 
L 199.92899 112.249691 
L 201.04336 130.104693 
L 202.15773 152.723331 
L 203.272099 109.232051 
L 204.386469 131.806456 
L 205.500839 111.649451 
L 206.615208 107.216742 
L 207.729578 131.351911 
L 208.843948 133.851671 
L 209.958317 123.012202 
L 211.072687 120.94718 
L 212.187057 125.265666 
L 213.301426 125.191839 
L 214.415796 128.524905 
L 215.530165 102.473227 
L 216.644535 113.44336 
L 217.758905 128.841035 
L 218.873274 129.823089 
L 219.987644 116.370968 
L 221.102014 114.503859 
L 222.216383 123.153122 
L 223.330753 142.826615 
L 224.445123 116.317731 
L 225.559492 130.743138 
L 226.673862 130.399059 
L 227.788232 123.09511 
L 228.902601 128.884407 
L 230.016971 116.641455 
L 231.131341 117.746736 
L 232.24571 124.909452 
L 233.36008 128.043507 
L 234.47445 103.551733 
L 235.588819 122.565487 
L 236.703189 88.269377 
L 237.817559 142.677475 
L 238.931928 124.045457 
L 240.046298 135.305337 
L 241.160668 107.757718 
L 242.275037 139.175698 
L 243.389407 124.934974 
L 244.503777 127.083609 
L 245.618146 112.657184 
L 246.732516 126.067969 
L 247.846886 132.928882 
L 248.961255 121.641601 
L 250.075625 128.227016 
L 251.189995 121.013804 
L 252.304364 136.945095 
L 253.418734 113.817189 
L 254.533104 116.872955 
L 255.647473 85.005519 
L 256.761843 122.630701 
L 257.876212 102.191936 
L 258.990582 122.879268 
L 260.104952 108.343552 
L 261.219321 112.909587 
L 262.333691 103.18769 
L 263.448061 106.637014 
L 264.56243 99.62383 
L 265.6768 100.931252 
L 266.79117 121.268868 
L 267.905539 95.470377 
L 269.019909 84.11107 
L 270.134279 105.50081 
L 271.248648 102.811591 
L 272.363018 93.556921 
L 273.477388 109.68229 
L 274.591757 111.792407 
L 275.706127 109.910971 
L 276.820497 109.893513 
L 277.934866 118.259449 
L 279.049236 109.048464 
L 280.163606 102.744263 
L 281.277975 115.718431 
L 282.392345 116.498891 
L 283.506715 108.152606 
L 284.621084 95.65553 
L 285.735454 116.810794 
L 286.849824 118.958802 
L 287.964193 93.946564 
L 289.078563 98.97145 
L 290.192933 114.39997 
L 291.307302 120.372541 
L 292.421672 142.282117 
L 293.536042 134.254389 
L 294.650411 107.39571 
L 295.764781 97.455623 
L 296.87915 118.646117 
L 297.99352 108.329852 
L 299.10789 101.471366 
L 300.222259 100.870421 
L 301.336629 101.079218 
L 302.450999 105.454306 
L 303.565368 103.959696 
L 304.679738 106.590824 
L 305.794108 102.16383 
L 306.908477 108.940896 
L 308.022847 140.123853 
L 309.137217 100.981983 
L 310.251586 98.9655 
L 311.365956 116.794353 
L 312.480326 113.286234 
L 313.594695 113.509592 
L 314.709065 139.380423 
L 315.823435 95.347776 
L 316.937804 120.326898 
L 318.052174 117.623823 
L 319.166544 113.80521 
L 320.280913 112.536541 
L 321.395283 112.800609 
L 322.509653 92.748747 
L 323.624022 101.056984 
L 324.738392 106.118821 
L 325.852762 104.348086 
L 326.967131 104.091377 
L 328.081501 107.654611 
L 329.195871 108.130216 
L 330.31024 98.092971 
L 331.42461 98.553544 
L 332.53898 92.724868 
L 333.653349 121.987011 
L 334.767719 116.126785 
L 335.882088 105.749611 
L 336.996458 120.748013 
L 338.110828 102.564668 
L 339.225197 127.891079 
L 340.339567 88.156015 
L 341.453937 110.934988 
L 342.568306 76.650153 
L 343.682676 109.885449 
L 344.797046 97.075922 
L 345.911415 124.041465 
L 347.025785 121.666027 
L 348.140155 103.028529 
L 349.254524 134.807733 
L 350.368894 94.392106 
L 351.483264 106.892627 
L 352.597633 90.554939 
L 353.712003 122.183046 
L 354.826373 103.944586 
L 355.940742 115.094783 
L 357.055112 104.594696 
L 358.169482 125.353193 
L 359.283851 97.968257 
L 360.398221 105.26657 
L 361.512591 134.474771 
L 362.62696 111.75107 
L 363.74133 135.942999 
L 364.8557 109.173257 
L 365.970069 102.376854 
L 367.084439 128.683204 
L 368.198809 109.630776 
L 369.313178 131.085495 
L 370.427548 113.624677 
L 371.541918 103.165613 
L 372.656287 129.619851 
L 373.770657 106.414048 
L 374.885026 150.902335 
L 375.999396 115.121636 
L 377.113766 126.030155 
L 378.228135 88.367317 
L 379.342505 102.035906 
L 380.456875 138.275377 
L 381.571244 119.884567 
L 382.685614 120.059386 
L 383.799984 111.335748 
L 384.914353 136.128856 
L 386.028723 104.202391 
L 387.143093 97.03075 
L 387.143093 97.03075 
" clip-path="url(#p471639ee30)" style="fill: none; stroke-dasharray: 3.7,1.6; stroke-dashoffset: 0; stroke: #ff7f0e"/>
   </g>
   <g id="patch_3">
    <path d="M 54.50375 282.7575 
L 54.50375 8.746875 
" style="fill: none; stroke: #000000; stroke-width: 0.8; stroke-linejoin: miter; stroke-linecap: square"/>
   </g>
   <g id="patch_4">
    <path d="M 387.700278 282.7575 
L 387.700278 8.746875 
" style="fill: none; stroke: #000000; stroke-width: 0.8; stroke-linejoin: miter; stroke-linecap: square"/>
   </g>
   <g id="patch_5">
    <path d="M 54.50375 282.7575 
L 387.700278 282.7575 
" style="fill: none; stroke: #000000; stroke-width: 0.8; stroke-linejoin: miter; stroke-linecap: square"/>
   </g>
   <g id="patch_6">
    <path d="M 54.50375 8.746875 
L 387.700278 8.746875 
" style="fill: none; stroke: #000000; stroke-width: 0.8; stroke-linejoin: miter; stroke-linecap: square"/>
   </g>
   <g id="text_14">
    <!-- a) α = 0 -->
    <g transform="translate(184.429826 351.385875) scale(0.18 -0.18)">
     <defs>
      <path id="IPAexMincho-61" d="M 3372 300 
Q 3231 -31 2913 -31 
Q 2463 -31 2444 516 
Q 2053 -44 1356 -44 
Q 934 -44 653 178 
Q 353 422 353 831 
Q 353 1841 2075 1947 
L 2400 1966 
L 2400 2081 
Q 2400 3044 1644 3044 
Q 1141 3044 959 2709 
Q 1141 2681 1141 2478 
Q 1141 2203 859 2203 
Q 550 2203 550 2516 
Q 550 2778 844 2997 
Q 1194 3259 1678 3259 
Q 2803 3259 2803 2138 
L 2803 838 
Q 2803 197 3022 197 
Q 3156 197 3250 391 
L 3372 300 
z
M 2400 863 
L 2400 1741 
L 2131 1728 
Q 800 1663 800 869 
Q 800 575 984 388 
Q 1166 209 1441 209 
Q 1816 209 2113 441 
Q 2313 603 2400 863 
z
" transform="scale(0.015625)"/>
      <path id="IPAexMincho-3b1" d="M 5038 969 
Q 4694 231 4147 231 
Q 3606 231 3578 1191 
Q 2897 231 2253 231 
Q 1844 231 1613 538 
Q 1428 794 1428 1159 
Q 1428 1750 1856 2447 
Q 2478 3469 3225 3469 
Q 3966 3469 3975 2209 
Q 4313 2956 4422 3353 
L 4788 3353 
Q 4431 2531 3975 1756 
L 3975 1294 
Q 3975 506 4288 506 
Q 4641 506 4909 1056 
L 5038 969 
z
M 3566 1550 
L 3566 2278 
Q 3566 3241 3188 3241 
Q 2916 3241 2528 2788 
Q 2234 2434 2041 1934 
Q 1863 1491 1863 1166 
Q 1863 506 2356 506 
Q 2906 506 3566 1550 
z
" transform="scale(0.015625)"/>
      <path id="IPAexMincho-3d" d="M 447 2772 
L 3891 2772 
L 3891 2472 
L 447 2472 
L 447 2772 
z
M 447 1594 
L 3891 1594 
L 3891 1294 
L 447 1294 
L 447 1594 
z
" transform="scale(0.015625)"/>
     </defs>
     <use xlink:href="#IPAexMincho-61"/>
     <use xlink:href="#IPAexMincho-29" x="54.296875"/>
     <use xlink:href="#IPAexMincho-20" x="90.820312"/>
     <use xlink:href="#IPAexMincho-3b1" x="119.824219"/>
     <use xlink:href="#IPAexMincho-20" x="219.824219"/>
     <use xlink:href="#IPAexMincho-3d" x="248.828125"/>
     <use xlink:href="#IPAexMincho-20" x="316.650391"/>
     <use xlink:href="#IPAexMincho-30" x="345.654297"/>
    </g>
   </g>
  </g>
  <g id="axes_2">
   <g id="patch_7">
    <path d="M 398.853611 282.7575 
L 732.050139 282.7575 
L 732.050139 8.746875 
L 398.853611 8.746875 
L 398.853611 282.7575 
z
" style="fill: none"/>
   </g>
   <g id="matplotlib.axis_3">
    <g id="xtick_4">
     <g id="line2d_14">
      <g>
       <use xlink:href="#m2414844a4f" x="509.733392" y="282.7575" style="stroke: #000000; stroke-width: 0.8"/>
      </g>
     </g>
     <g id="text_15">
      <!-- 100 -->
      <g transform="translate(496.752767 299.9775) scale(0.14 -0.14)">
       <use xlink:href="#IPAexMincho-31"/>
       <use xlink:href="#IPAexMincho-30" x="61.816406"/>
       <use xlink:href="#IPAexMincho-30" x="123.632812"/>
      </g>
     </g>
    </g>
    <g id="xtick_5">
     <g id="line2d_15">
      <g>
       <use xlink:href="#m2414844a4f" x="621.170358" y="282.7575" style="stroke: #000000; stroke-width: 0.8"/>
      </g>
     </g>
     <g id="text_16">
      <!-- 200 -->
      <g transform="translate(608.189733 299.9775) scale(0.14 -0.14)">
       <use xlink:href="#IPAexMincho-32"/>
       <use xlink:href="#IPAexMincho-30" x="61.816406"/>
       <use xlink:href="#IPAexMincho-30" x="123.632812"/>
      </g>
     </g>
    </g>
    <g id="xtick_6">
     <g id="line2d_16">
      <g>
       <use xlink:href="#m2414844a4f" x="399.410796" y="282.7575" style="stroke: #000000; stroke-width: 0.8"/>
      </g>
     </g>
     <g id="text_17">
      <!-- 1 -->
      <g transform="translate(395.083921 299.9775) scale(0.14 -0.14)">
       <use xlink:href="#IPAexMincho-31"/>
      </g>
     </g>
    </g>
    <g id="text_18">
     <!-- バッチ -->
     <g transform="translate(538.451875 319.52375) scale(0.18 -0.18)">
      <use xlink:href="#IPAexMincho-30d0"/>
      <use xlink:href="#IPAexMincho-30c3" x="100"/>
      <use xlink:href="#IPAexMincho-30c1" x="200"/>
     </g>
    </g>
   </g>
   <g id="matplotlib.axis_4">
    <g id="ytick_9">
     <g id="line2d_17">
      <g>
       <use xlink:href="#m94d5dda805" x="398.853611" y="282.7575" style="stroke: #000000; stroke-width: 0.8"/>
      </g>
     </g>
    </g>
    <g id="ytick_10">
     <g id="line2d_18">
      <g>
       <use xlink:href="#m94d5dda805" x="398.853611" y="243.613125" style="stroke: #000000; stroke-width: 0.8"/>
      </g>
     </g>
    </g>
    <g id="ytick_11">
     <g id="line2d_19">
      <g>
       <use xlink:href="#m94d5dda805" x="398.853611" y="204.46875" style="stroke: #000000; stroke-width: 0.8"/>
      </g>
     </g>
    </g>
    <g id="ytick_12">
     <g id="line2d_20">
      <g>
       <use xlink:href="#m94d5dda805" x="398.853611" y="165.324375" style="stroke: #000000; stroke-width: 0.8"/>
      </g>
     </g>
    </g>
    <g id="ytick_13">
     <g id="line2d_21">
      <g>
       <use xlink:href="#m94d5dda805" x="398.853611" y="126.18" style="stroke: #000000; stroke-width: 0.8"/>
      </g>
     </g>
    </g>
    <g id="ytick_14">
     <g id="line2d_22">
      <g>
       <use xlink:href="#m94d5dda805" x="398.853611" y="87.035625" style="stroke: #000000; stroke-width: 0.8"/>
      </g>
     </g>
    </g>
    <g id="ytick_15">
     <g id="line2d_23">
      <g>
       <use xlink:href="#m94d5dda805" x="398.853611" y="47.89125" style="stroke: #000000; stroke-width: 0.8"/>
      </g>
     </g>
    </g>
    <g id="ytick_16">
     <g id="line2d_24">
      <g>
       <use xlink:href="#m94d5dda805" x="398.853611" y="8.746875" style="stroke: #000000; stroke-width: 0.8"/>
      </g>
     </g>
    </g>
   </g>
   <g id="line2d_25">
    <path d="M 399.410796 124.802588 
L 400.525166 135.751739 
L 402.753905 125.655465 
L 403.868275 127.529385 
L 404.982644 128.244709 
L 406.097014 120.374654 
L 407.211384 129.441196 
L 408.325753 129.645217 
L 409.440123 131.542545 
L 410.554493 108.302686 
L 411.668862 102.057357 
L 412.783232 116.039258 
L 413.897602 151.282661 
L 415.011971 130.308322 
L 416.126341 125.494347 
L 417.240711 125.336674 
L 418.35508 123.595375 
L 419.46945 132.264523 
L 420.58382 128.209088 
L 421.698189 145.716175 
L 422.812559 125.868176 
L 423.926929 115.853009 
L 425.041298 121.445566 
L 426.155668 123.049155 
L 427.270037 123.062464 
L 428.384407 123.87056 
L 429.498777 124.938732 
L 430.613146 122.096146 
L 431.727516 124.498358 
L 432.841886 123.944543 
L 433.956255 123.129009 
L 435.070625 124.112942 
L 436.184995 122.725274 
L 437.299364 123.333421 
L 438.413734 122.91622 
L 439.528104 122.036803 
L 440.642473 119.316034 
L 441.756843 129.899107 
L 442.871213 125.022736 
L 443.985582 124.9713 
L 445.099952 123.959574 
L 446.214322 122.600247 
L 448.443061 87.798862 
L 449.557431 87.689179 
L 450.6718 122.642679 
L 451.78617 122.118066 
L 452.90054 124.616887 
L 454.014909 122.081506 
L 455.129279 121.581319 
L 456.243649 129.208757 
L 457.358018 126.139133 
L 458.472388 123.953938 
L 459.586758 123.692218 
L 460.701127 123.04798 
L 461.815497 109.601418 
L 462.929867 121.220251 
L 465.158606 126.391145 
L 466.272975 122.14946 
L 467.387345 130.244595 
L 468.501715 122.24372 
L 469.616084 127.260385 
L 470.730454 122.89015 
L 471.844824 114.922078 
L 472.959193 96.058012 
L 474.073563 121.459345 
L 475.187933 119.054471 
L 476.302302 101.631466 
L 477.416672 123.141927 
L 478.531042 118.69857 
L 479.645411 117.774998 
L 480.759781 126.354662 
L 481.874151 116.181431 
L 482.98852 95.017946 
L 484.10289 124.963549 
L 485.21726 123.652996 
L 486.331629 128.163994 
L 487.445999 121.429439 
L 488.560369 126.237151 
L 489.674738 125.317571 
L 490.789108 104.916071 
L 491.903478 113.157528 
L 493.017847 135.859543 
L 494.132217 118.180612 
L 495.246587 110.455783 
L 496.360956 112.154414 
L 497.475326 89.956813 
L 498.589696 85.884076 
L 499.704065 110.712648 
L 500.818435 110.639448 
L 501.932805 122.701161 
L 503.047174 96.781791 
L 504.161544 122.269242 
L 505.275914 122.06757 
L 506.390283 126.816488 
L 507.504653 126.584909 
L 508.619022 122.838245 
L 509.733392 124.296999 
L 510.847762 129.747305 
L 511.962131 125.744401 
L 513.076501 126.107035 
L 514.190871 124.118657 
L 515.30524 112.529026 
L 516.41961 113.629452 
L 517.53398 112.606297 
L 518.648349 125.734224 
L 519.762719 123.812392 
L 520.877089 127.403966 
L 521.991458 121.418087 
L 523.105828 102.034888 
L 524.220198 101.128383 
L 525.334567 118.408746 
L 526.448937 121.225496 
L 527.563307 116.600823 
L 528.677676 128.639206 
L 529.792046 123.233055 
L 530.906416 113.634463 
L 532.020785 112.780332 
L 533.135155 114.695823 
L 534.249525 125.533805 
L 535.363894 99.19512 
L 536.478264 105.837999 
L 537.592634 115.277978 
L 538.707003 121.231681 
L 539.821373 111.875001 
L 540.935743 92.792118 
L 542.050112 108.321553 
L 543.164482 120.399315 
L 544.278852 109.925455 
L 545.393221 119.163371 
L 546.507591 111.057902 
L 547.62196 116.156456 
L 548.73633 124.188569 
L 549.8507 110.733395 
L 550.965069 115.57117 
L 552.079439 127.29264 
L 553.193809 117.685592 
L 554.308178 114.454694 
L 555.422548 120.787001 
L 556.536918 133.289088 
L 557.651287 121.500681 
L 558.765657 112.962354 
L 559.880027 112.452929 
L 560.994396 115.363705 
L 562.108766 110.386341 
L 563.223136 114.987057 
L 564.337505 115.098932 
L 565.451875 114.860151 
L 566.566245 115.688368 
L 567.680614 124.739252 
L 568.794984 94.886264 
L 569.909354 122.212718 
L 571.023723 119.367156 
L 572.138093 119.339599 
L 573.252463 98.656729 
L 574.366832 69.538089 
L 575.481202 95.030864 
L 576.595572 91.898061 
L 577.709941 108.443214 
L 578.824311 101.485536 
L 579.938681 77.032123 
L 581.05305 105.948856 
L 582.16742 92.110458 
L 583.28179 88.974289 
L 584.396159 97.676162 
L 585.510529 92.303205 
L 586.624898 94.522535 
L 587.739268 98.475177 
L 588.853638 103.748707 
L 589.968007 119.199697 
L 591.082377 90.090295 
L 592.196747 117.350125 
L 593.311116 116.824025 
L 595.539856 103.075816 
L 596.654225 107.35821 
L 597.768595 95.51461 
L 598.882965 76.861924 
L 599.997334 115.829523 
L 601.111704 107.147613 
L 602.226074 104.293284 
L 603.340443 69.82901 
L 604.454813 102.264039 
L 605.569183 101.387675 
L 606.683552 80.124842 
L 607.797922 74.159318 
L 608.912292 85.789033 
L 610.026661 61.849116 
L 611.141031 80.273278 
L 612.255401 107.60709 
L 613.36977 77.175705 
L 614.48414 82.355445 
L 615.59851 58.778318 
L 616.712879 144.742341 
L 617.827249 103.903171 
L 618.941619 103.24124 
L 620.055988 92.419229 
L 621.170358 90.682002 
L 622.284728 72.081534 
L 623.399097 85.80931 
L 624.513467 116.191843 
L 625.627836 61.138489 
L 626.742206 114.318785 
L 627.856576 100.395678 
L 628.970945 91.309095 
L 630.085315 64.104067 
L 631.199685 92.600233 
L 632.314054 86.393657 
L 633.428424 84.777934 
L 634.542794 96.269783 
L 635.657163 93.760863 
L 636.771533 91.982926 
L 637.885903 115.482469 
L 639.000272 89.849323 
L 640.114642 58.520357 
L 641.229012 106.667938 
L 642.343381 106.853874 
L 644.572121 78.314258 
L 645.68649 71.419838 
L 646.80086 103.698603 
L 647.91523 70.273847 
L 649.029599 60.488536 
L 650.143969 103.38122 
L 651.258339 90.565508 
L 652.372708 93.347734 
L 653.487078 114.636715 
L 654.601448 110.349388 
L 655.715817 97.786706 
L 656.830187 88.838771 
L 657.944557 78.414703 
L 659.058926 39.615425 
L 660.173296 90.423101 
L 661.287666 97.203846 
L 662.402035 106.454445 
L 663.516405 79.822804 
L 664.630775 80.626047 
L 665.745144 90.855255 
L 666.859514 93.267018 
L 667.973883 60.97604 
L 669.088253 90.415272 
L 670.202623 71.03497 
L 672.431362 91.605183 
L 673.545732 91.245603 
L 674.660101 66.305234 
L 675.774471 81.084271 
L 676.888841 65.549356 
L 678.00321 53.366295 
L 679.11758 63.602158 
L 680.23195 72.353744 
L 681.346319 113.267523 
L 682.460689 109.377825 
L 683.575059 82.850935 
L 684.689428 79.335457 
L 685.803798 52.197366 
L 686.918168 58.911018 
L 688.032537 39.019882 
L 689.146907 90.32798 
L 690.261277 93.138233 
L 691.375646 111.76023 
L 692.490016 76.105733 
L 693.604386 107.917818 
L 694.718755 56.89289 
L 695.833125 73.663593 
L 696.947495 119.818726 
L 699.176234 65.754864 
L 700.290604 95.635801 
L 701.404973 86.973542 
L 702.519343 90.833725 
L 703.633713 82.616538 
L 704.748082 122.856799 
L 705.862452 88.084459 
L 706.976821 90.882734 
L 708.091191 91.417603 
L 709.205561 14.581344 
L 710.31993 61.115238 
L 711.4343 95.808506 
L 712.54867 61.016359 
L 713.663039 86.325546 
L 714.777409 58.732989 
L 715.891779 90.17289 
L 717.006148 86.243265 
L 718.120518 85.840391 
L 719.234888 72.698528 
L 720.349257 85.659935 
L 721.463627 70.309625 
L 722.577997 41.252442 
L 723.692366 107.722957 
L 724.806736 62.331297 
L 725.921106 62.000683 
L 727.035475 94.632139 
L 728.149845 5.714047 
L 729.264215 75.780521 
L 730.378584 63.463196 
L 731.231656 -1 
L 731.231656 -1 
" clip-path="url(#p0babf1997c)" style="fill: none; stroke: #1f77b4; stroke-linecap: square"/>
   </g>
   <g id="line2d_26">
    <path d="M 399.410796 125.813061 
L 400.525166 127.944315 
L 402.753905 137.327065 
L 403.868275 139.02875 
L 404.982644 130.571216 
L 406.097014 118.339773 
L 407.211384 124.366285 
L 409.440123 112.826758 
L 410.554493 104.719331 
L 411.668862 100.190014 
L 412.783232 111.47338 
L 413.897602 118.086274 
L 415.011971 109.800897 
L 416.126341 114.868372 
L 417.240711 117.906836 
L 418.35508 96.95708 
L 420.58382 122.913324 
L 421.698189 105.703108 
L 422.812559 110.620268 
L 423.926929 122.711652 
L 425.041298 90.796069 
L 426.155668 102.59434 
L 427.270037 90.028056 
L 428.384407 99.785496 
L 429.498777 134.069079 
L 430.613146 126.72074 
L 431.727516 98.268808 
L 432.841886 83.265474 
L 433.956255 91.843963 
L 435.070625 106.540641 
L 436.184995 98.997911 
L 437.299364 111.923071 
L 438.413734 111.217532 
L 439.528104 108.59619 
L 440.642473 122.742889 
L 441.756843 98.295583 
L 442.871213 93.587297 
L 443.985582 112.716292 
L 445.099952 105.751255 
L 446.214322 106.791556 
L 447.328691 108.462943 
L 448.443061 107.863251 
L 449.557431 124.659163 
L 450.6718 123.374836 
L 451.78617 122.279498 
L 452.90054 107.081773 
L 454.014909 106.615641 
L 455.129279 111.079353 
L 456.243649 121.955852 
L 457.358018 110.432844 
L 458.472388 112.853924 
L 459.586758 116.634801 
L 460.701127 109.148126 
L 461.815497 114.825548 
L 462.929867 122.866429 
L 464.044236 102.384917 
L 465.158606 109.19322 
L 466.272975 107.450356 
L 467.387345 103.54868 
L 468.501715 111.899193 
L 469.616084 108.23434 
L 470.730454 95.734914 
L 471.844824 133.651252 
L 472.959193 128.437378 
L 474.073563 129.438691 
L 475.187933 108.086139 
L 476.302302 106.538997 
L 477.416672 114.095818 
L 478.531042 108.018419 
L 479.645411 115.579155 
L 480.759781 110.024099 
L 481.874151 103.412379 
L 482.98852 106.910399 
L 484.10289 94.750198 
L 485.21726 110.480209 
L 486.331629 102.451619 
L 487.445999 109.98331 
L 488.560369 111.030735 
L 489.674738 114.360121 
L 490.789108 89.475337 
L 491.903478 103.887435 
L 493.017847 115.652825 
L 494.132217 114.618004 
L 495.246587 89.811196 
L 496.360956 93.677173 
L 497.475326 130.516414 
L 498.589696 134.822217 
L 499.704065 116.615463 
L 500.818435 106.323546 
L 501.932805 98.836949 
L 503.047174 109.896097 
L 504.161544 98.16257 
L 505.275914 104.505055 
L 506.390283 122.029365 
L 507.504653 105.427218 
L 509.733392 109.378295 
L 510.847762 108.102032 
L 511.962131 117.471159 
L 513.076501 127.828996 
L 514.190871 106.486308 
L 515.30524 103.91374 
L 516.41961 113.152752 
L 517.53398 92.163851 
L 518.648349 109.26689 
L 519.762719 122.011907 
L 520.877089 125.677465 
L 521.991458 118.691681 
L 523.105828 93.843615 
L 524.220198 100.77624 
L 525.334567 90.810943 
L 526.448937 107.668312 
L 527.563307 109.512403 
L 528.677676 116.231614 
L 529.792046 115.676546 
L 530.906416 106.809797 
L 532.020785 106.928953 
L 533.135155 128.271014 
L 534.249525 99.014978 
L 535.363894 94.797563 
L 536.478264 104.608161 
L 537.592634 93.054699 
L 538.707003 129.119508 
L 539.821373 103.331663 
L 540.935743 132.605784 
L 542.050112 106.423051 
L 544.278852 133.118967 
L 545.393221 105.80363 
L 546.507591 120.674579 
L 547.62196 109.92843 
L 548.73633 85.720687 
L 549.8507 113.277936 
L 552.079439 93.207127 
L 554.308178 127.556238 
L 555.422548 112.017252 
L 556.536918 108.639171 
L 557.651287 104.860721 
L 558.765657 109.841216 
L 559.880027 94.548057 
L 560.994396 107.825359 
L 562.108766 99.838497 
L 563.223136 110.695346 
L 564.337505 108.242482 
L 565.451875 127.157357 
L 566.566245 113.926245 
L 567.680614 93.18411 
L 568.794984 108.623748 
L 569.909354 116.494351 
L 571.023723 103.395312 
L 572.138093 120.255342 
L 573.252463 101.039447 
L 574.366832 126.679561 
L 575.481202 102.111455 
L 576.595572 104.767557 
L 577.709941 106.949621 
L 578.824311 139.740238 
L 579.938681 133.984605 
L 581.05305 119.839081 
L 582.16742 130.312707 
L 583.28179 120.275619 
L 584.396159 128.187558 
L 585.510529 117.626563 
L 586.624898 122.963898 
L 587.739268 129.683343 
L 588.853638 130.934867 
L 589.968007 103.321799 
L 591.082377 127.945176 
L 592.196747 115.354701 
L 593.311116 112.274509 
L 594.425486 134.589073 
L 595.539856 129.172822 
L 596.654225 131.526965 
L 597.768595 126.847646 
L 598.882965 131.33735 
L 599.997334 130.622887 
L 601.111704 132.888563 
L 602.226074 118.767699 
L 603.340443 116.825434 
L 604.454813 101.690261 
L 605.569183 125.470626 
L 606.683552 106.407628 
L 607.797922 122.565174 
L 608.912292 112.984196 
L 610.026661 113.776087 
L 611.141031 120.079349 
L 612.255401 133.577661 
L 613.36977 138.915466 
L 614.48414 126.210846 
L 615.59851 131.354808 
L 616.712879 125.731875 
L 617.827249 112.420204 
L 618.941619 114.99927 
L 620.055988 116.562853 
L 621.170358 122.195416 
L 622.284728 116.056403 
L 623.399097 115.277117 
L 624.513467 101.347043 
L 625.627836 116.171566 
L 626.742206 93.070278 
L 628.970945 110.109903 
L 630.085315 111.816989 
L 631.199685 107.984207 
L 632.314054 119.684539 
L 633.428424 107.755291 
L 634.542794 88.05745 
L 635.657163 113.936892 
L 636.771533 123.456804 
L 637.885903 107.847045 
L 639.000272 100.59414 
L 640.114642 108.299163 
L 641.229012 102.691496 
L 643.457751 123.845586 
L 644.572121 101.340859 
L 645.68649 145.292946 
L 646.80086 105.846846 
L 647.91523 112.634011 
L 649.029599 129.069011 
L 650.143969 133.762657 
L 651.258339 106.911338 
L 652.372708 118.869083 
L 653.487078 112.422161 
L 654.601448 101.699734 
L 655.715817 108.055528 
L 656.830187 113.508026 
L 657.944557 113.658654 
L 659.058926 103.684902 
L 661.287666 127.079538 
L 662.402035 110.179972 
L 663.516405 121.803111 
L 664.630775 130.475234 
L 666.859514 102.044361 
L 667.973883 122.13161 
L 669.088253 119.920658 
L 670.202623 98.206255 
L 671.316992 116.654764 
L 672.431362 115.834142 
L 673.545732 101.638904 
L 674.660101 110.235009 
L 675.774471 109.414621 
L 676.888841 130.935572 
L 678.00321 127.107957 
L 679.11758 118.848102 
L 680.23195 132.490073 
L 681.346319 131.051987 
L 682.460689 141.555911 
L 683.575059 112.134529 
L 685.803798 116.817292 
L 686.918168 105.06161 
L 688.032537 96.159396 
L 689.146907 104.918968 
L 690.261277 111.941625 
L 691.375646 100.333126 
L 692.490016 127.618791 
L 693.604386 99.617332 
L 694.718755 93.454206 
L 695.833125 117.940579 
L 696.947495 99.013412 
L 698.061864 115.526467 
L 699.176234 100.506849 
L 700.290604 93.528894 
L 701.404973 109.162061 
L 702.519343 111.835231 
L 703.633713 118.525474 
L 704.748082 102.640217 
L 705.862452 97.361598 
L 706.976821 105.777717 
L 708.091191 108.075648 
L 709.205561 106.934981 
L 710.31993 107.331435 
L 711.4343 114.270246 
L 712.54867 103.233881 
L 713.663039 134.961493 
L 714.777409 87.729107 
L 715.891779 113.596493 
L 717.006148 75.133934 
L 718.120518 98.984837 
L 719.234888 99.936672 
L 720.349257 105.438805 
L 721.463627 109.253346 
L 722.577997 119.113266 
L 723.692366 99.373149 
L 724.806736 89.726957 
L 725.921106 100.792837 
L 727.035475 107.872176 
L 728.149845 106.139176 
L 730.378584 110.597251 
L 731.492954 102.37701 
L 731.492954 102.37701 
" clip-path="url(#p0babf1997c)" style="fill: none; stroke-dasharray: 3.7,1.6; stroke-dashoffset: 0; stroke: #ff7f0e"/>
   </g>
   <g id="patch_8">
    <path d="M 398.853611 282.7575 
L 398.853611 8.746875 
" style="fill: none; stroke: #000000; stroke-width: 0.8; stroke-linejoin: miter; stroke-linecap: square"/>
   </g>
   <g id="patch_9">
    <path d="M 732.050139 282.7575 
L 732.050139 8.746875 
" style="fill: none; stroke: #000000; stroke-width: 0.8; stroke-linejoin: miter; stroke-linecap: square"/>
   </g>
   <g id="patch_10">
    <path d="M 398.853611 282.7575 
L 732.050139 282.7575 
" style="fill: none; stroke: #000000; stroke-width: 0.8; stroke-linejoin: miter; stroke-linecap: square"/>
   </g>
   <g id="patch_11">
    <path d="M 398.853611 8.746875 
L 732.050139 8.746875 
" style="fill: none; stroke: #000000; stroke-width: 0.8; stroke-linejoin: miter; stroke-linecap: square"/>
   </g>
   <g id="text_19">
    <!-- b) α = 0.4 -->
    <g transform="translate(520.553125 351.385875) scale(0.18 -0.18)">
     <defs>
      <path id="IPAexMincho-62" d="M 1063 2606 
Q 1453 3244 2138 3244 
Q 2669 3244 3047 2866 
Q 3500 2413 3500 1631 
Q 3500 844 3041 381 
Q 2650 -6 2125 -6 
Q 1459 -6 1075 531 
L 866 13 
L 647 13 
L 647 3988 
Q 647 4281 506 4338 
Q 409 4378 97 4378 
L 97 4575 
Q 641 4584 1063 4672 
L 1063 2606 
z
M 1063 1997 
L 1063 1166 
Q 1063 766 1478 469 
Q 1763 263 2081 263 
Q 2566 263 2834 722 
Q 3047 1078 3047 1619 
Q 3047 2341 2675 2713 
Q 2406 2981 2050 2981 
Q 1578 2981 1259 2541 
Q 1063 2275 1063 1997 
z
" transform="scale(0.015625)"/>
      <path id="IPAexMincho-34" d="M 3703 1313 
L 2875 1313 
L 2875 741 
Q 2875 434 2997 350 
Q 3113 272 3509 241 
L 3509 63 
L 1775 63 
L 1775 241 
Q 2144 263 2269 319 
Q 2469 403 2469 741 
L 2469 1313 
L 266 1313 
L 266 1619 
L 2634 4647 
L 2875 4647 
L 2875 1588 
L 3703 1588 
L 3703 1313 
z
M 2469 1588 
L 2469 3994 
L 591 1588 
L 2469 1588 
z
" transform="scale(0.015625)"/>
     </defs>
     <use xlink:href="#IPAexMincho-62"/>
     <use xlink:href="#IPAexMincho-29" x="60.107422"/>
     <use xlink:href="#IPAexMincho-20" x="96.630859"/>
     <use xlink:href="#IPAexMincho-3b1" x="125.634766"/>
     <use xlink:href="#IPAexMincho-20" x="225.634766"/>
     <use xlink:href="#IPAexMincho-3d" x="254.638672"/>
     <use xlink:href="#IPAexMincho-20" x="322.460938"/>
     <use xlink:href="#IPAexMincho-30" x="351.464844"/>
     <use xlink:href="#IPAexMincho-2e" x="413.28125"/>
     <use xlink:href="#IPAexMincho-34" x="437.060547"/>
    </g>
   </g>
  </g>
  <g id="axes_3">
   <g id="patch_12">
    <path d="M 743.203472 282.7575 
L 1076.4 282.7575 
L 1076.4 8.746875 
L 743.203472 8.746875 
L 743.203472 282.7575 
z
" style="fill: none"/>
   </g>
   <g id="matplotlib.axis_5">
    <g id="xtick_7">
     <g id="line2d_27">
      <g>
       <use xlink:href="#m2414844a4f" x="854.083253" y="282.7575" style="stroke: #000000; stroke-width: 0.8"/>
      </g>
     </g>
     <g id="text_20">
      <!-- 100 -->
      <g transform="translate(841.102628 299.9775) scale(0.14 -0.14)">
       <use xlink:href="#IPAexMincho-31"/>
       <use xlink:href="#IPAexMincho-30" x="61.816406"/>
       <use xlink:href="#IPAexMincho-30" x="123.632812"/>
      </g>
     </g>
    </g>
    <g id="xtick_8">
     <g id="line2d_28">
      <g>
       <use xlink:href="#m2414844a4f" x="965.520219" y="282.7575" style="stroke: #000000; stroke-width: 0.8"/>
      </g>
     </g>
     <g id="text_21">
      <!-- 200 -->
      <g transform="translate(952.539594 299.9775) scale(0.14 -0.14)">
       <use xlink:href="#IPAexMincho-32"/>
       <use xlink:href="#IPAexMincho-30" x="61.816406"/>
       <use xlink:href="#IPAexMincho-30" x="123.632812"/>
      </g>
     </g>
    </g>
    <g id="xtick_9">
     <g id="line2d_29">
      <g>
       <use xlink:href="#m2414844a4f" x="743.760657" y="282.7575" style="stroke: #000000; stroke-width: 0.8"/>
      </g>
     </g>
     <g id="text_22">
      <!-- 1 -->
      <g transform="translate(739.433782 299.9775) scale(0.14 -0.14)">
       <use xlink:href="#IPAexMincho-31"/>
      </g>
     </g>
    </g>
    <g id="text_23">
     <!-- バッチ -->
     <g transform="translate(882.801736 319.52375) scale(0.18 -0.18)">
      <use xlink:href="#IPAexMincho-30d0"/>
      <use xlink:href="#IPAexMincho-30c3" x="100"/>
      <use xlink:href="#IPAexMincho-30c1" x="200"/>
     </g>
    </g>
   </g>
   <g id="matplotlib.axis_6">
    <g id="ytick_17">
     <g id="line2d_30">
      <g>
       <use xlink:href="#m94d5dda805" x="743.203472" y="282.7575" style="stroke: #000000; stroke-width: 0.8"/>
      </g>
     </g>
    </g>
    <g id="ytick_18">
     <g id="line2d_31">
      <g>
       <use xlink:href="#m94d5dda805" x="743.203472" y="243.613125" style="stroke: #000000; stroke-width: 0.8"/>
      </g>
     </g>
    </g>
    <g id="ytick_19">
     <g id="line2d_32">
      <g>
       <use xlink:href="#m94d5dda805" x="743.203472" y="204.46875" style="stroke: #000000; stroke-width: 0.8"/>
      </g>
     </g>
    </g>
    <g id="ytick_20">
     <g id="line2d_33">
      <g>
       <use xlink:href="#m94d5dda805" x="743.203472" y="165.324375" style="stroke: #000000; stroke-width: 0.8"/>
      </g>
     </g>
    </g>
    <g id="ytick_21">
     <g id="line2d_34">
      <g>
       <use xlink:href="#m94d5dda805" x="743.203472" y="126.18" style="stroke: #000000; stroke-width: 0.8"/>
      </g>
     </g>
    </g>
    <g id="ytick_22">
     <g id="line2d_35">
      <g>
       <use xlink:href="#m94d5dda805" x="743.203472" y="87.035625" style="stroke: #000000; stroke-width: 0.8"/>
      </g>
     </g>
    </g>
    <g id="ytick_23">
     <g id="line2d_36">
      <g>
       <use xlink:href="#m94d5dda805" x="743.203472" y="47.89125" style="stroke: #000000; stroke-width: 0.8"/>
      </g>
     </g>
    </g>
    <g id="ytick_24">
     <g id="line2d_37">
      <g>
       <use xlink:href="#m94d5dda805" x="743.203472" y="8.746875" style="stroke: #000000; stroke-width: 0.8"/>
      </g>
     </g>
    </g>
   </g>
   <g id="line2d_38">
    <path d="M 743.760657 229.015405 
L 744.875027 226.008725 
L 745.989397 219.381035 
L 747.103766 216.251911 
L 748.218136 208.556597 
L 749.332506 206.425108 
L 750.446875 202.939301 
L 751.561245 192.783058 
L 752.675615 181.400657 
L 753.789984 167.901876 
L 754.904354 159.098227 
L 756.018724 156.940511 
L 757.133093 156.518926 
L 759.361832 148.077207 
L 760.476202 126.439684 
L 761.590572 131.124169 
L 762.704941 98.224262 
L 763.819311 101.790549 
L 764.933681 107.085844 
L 766.04805 119.475351 
L 767.16242 107.469615 
L 768.27679 111.199369 
L 769.391159 97.23751 
L 770.505529 100.276053 
L 771.619899 91.711186 
L 772.734268 79.933426 
L 773.848638 103.881877 
L 774.963008 87.297579 
L 776.077377 80.379907 
L 777.191747 104.812965 
L 778.306117 103.110497 
L 779.420486 122.020284 
L 780.534856 130.571999 
L 781.649226 103.425375 
L 782.763595 116.854479 
L 783.877965 132.907431 
L 784.992335 115.422734 
L 786.106704 117.269409 
L 787.221074 124.622445 
L 788.335444 157.252492 
L 789.449813 126.207636 
L 790.564183 103.370416 
L 791.678553 126.034696 
L 792.792922 126.29391 
L 793.907292 121.418791 
L 795.021662 131.264541 
L 796.136031 116.317888 
L 797.250401 114.577842 
L 798.36477 107.906858 
L 799.47914 134.645128 
L 800.59351 109.642754 
L 801.707879 110.452103 
L 802.822249 129.690076 
L 803.936619 117.166303 
L 805.050988 118.450317 
L 807.279728 104.659988 
L 808.394097 116.364391 
L 809.508467 133.840084 
L 810.622837 125.125059 
L 811.737206 121.863393 
L 812.851576 125.916793 
L 813.965946 123.23329 
L 815.080315 105.78946 
L 816.194685 124.955955 
L 817.309055 119.672013 
L 818.423424 107.36142 
L 819.537794 104.216169 
L 820.652164 110.454452 
L 821.766533 130.738832 
L 822.880903 128.530541 
L 823.995273 117.468732 
L 825.109642 117.586714 
L 826.224012 112.364149 
L 827.338382 82.405315 
L 828.452751 89.821765 
L 829.567121 114.393785 
L 830.681491 121.365712 
L 831.79586 91.728879 
L 832.91023 110.690727 
L 834.0246 102.586902 
L 835.138969 103.145258 
L 836.253339 119.448655 
L 837.367708 103.759355 
L 838.482078 105.068734 
L 839.596448 100.668671 
L 840.710817 105.038515 
L 841.825187 127.817722 
L 842.939557 110.906256 
L 844.053926 128.610161 
L 845.168296 108.772262 
L 846.282666 123.810982 
L 847.397035 98.360876 
L 848.511405 109.675009 
L 849.625775 92.209415 
L 850.740144 119.893883 
L 851.854514 111.0168 
L 852.968884 108.370327 
L 854.083253 124.713652 
L 855.197623 100.241371 
L 856.311993 112.134685 
L 857.426362 76.953208 
L 858.540732 132.99347 
L 859.655102 96.634609 
L 860.769471 109.240976 
L 861.883841 103.595966 
L 862.998211 117.366566 
L 864.11258 89.082954 
L 865.22695 91.552886 
L 866.34132 115.722972 
L 867.455689 116.792318 
L 868.570059 102.878763 
L 869.684429 107.095551 
L 870.798798 123.246834 
L 871.913168 115.065111 
L 873.027538 120.618837 
L 874.141907 123.090334 
L 876.370646 112.293533 
L 877.485016 123.992143 
L 878.599386 125.891584 
L 879.713755 110.999263 
L 880.828125 113.669927 
L 881.942495 87.021376 
L 883.056864 97.330909 
L 884.171234 81.022188 
L 885.285604 108.60809 
L 886.399973 115.214565 
L 887.514343 102.300679 
L 888.628713 115.830227 
L 889.743082 74.516784 
L 890.857452 125.529734 
L 891.971822 108.511012 
L 893.086191 128.391266 
L 894.200561 85.123501 
L 895.314931 154.301476 
L 896.4293 103.619374 
L 897.54367 92.630844 
L 898.65804 129.322354 
L 899.772409 76.537182 
L 900.886779 115.541811 
L 902.001149 111.942956 
L 903.115518 93.042408 
L 904.229888 70.556 
L 905.344258 85.106042 
L 906.458627 89.061738 
L 907.572997 108.692329 
L 908.687367 101.931547 
L 909.801736 106.696749 
L 910.916106 127.054329 
L 912.030476 109.155172 
L 913.144845 104.586319 
L 914.259215 106.516528 
L 915.373585 100.676109 
L 916.487954 114.241514 
L 917.602324 120.01664 
L 918.716693 94.419194 
L 919.831063 111.101274 
L 920.945433 105.901335 
L 922.059802 99.746821 
L 923.174172 94.723267 
L 924.288542 106.252851 
L 925.402911 114.471448 
L 926.517281 75.496411 
L 927.631651 105.453523 
L 928.74602 86.069777 
L 929.86039 91.66296 
L 930.97476 119.149122 
L 932.089129 108.683482 
L 933.203499 80.574846 
L 934.317869 132.964816 
L 935.432238 110.935928 
L 936.546608 103.36979 
L 937.660978 118.613471 
L 938.775347 117.916466 
L 939.889717 119.299358 
L 941.004087 118.681973 
L 942.118456 114.735907 
L 943.232826 94.858863 
L 944.347196 113.09795 
L 946.575935 86.59298 
L 947.690305 99.982705 
L 948.804674 115.552772 
L 949.919044 125.321016 
L 951.033414 113.748686 
L 952.147783 112.087477 
L 953.262153 108.428104 
L 954.376523 120.313667 
L 955.490892 136.64932 
L 956.605262 90.087086 
L 957.719631 119.633573 
L 958.834001 112.935422 
L 959.948371 89.882361 
L 961.06274 117.287572 
L 962.17711 134.823156 
L 963.29148 105.466676 
L 964.405849 116.298394 
L 965.520219 123.456804 
L 966.634589 107.621887 
L 967.748958 120.837106 
L 968.863328 110.585977 
L 969.977698 105.550053 
L 971.092067 108.066567 
L 972.206437 123.553804 
L 973.320807 111.417247 
L 974.435176 110.630288 
L 975.549546 110.492031 
L 976.663916 111.273196 
L 977.778285 112.771016 
L 978.892655 105.116412 
L 980.007025 113.512959 
L 981.121394 110.510428 
L 982.235764 128.491006 
L 983.350134 89.986093 
L 984.464503 97.708182 
L 985.578873 107.565206 
L 986.693243 83.288491 
L 987.807612 74.697553 
L 990.036352 116.468437 
L 991.150721 114.800652 
L 992.265091 100.105697 
L 993.379461 115.172758 
L 994.49383 104.900335 
L 995.6082 98.735722 
L 996.722569 105.439431 
L 997.836939 98.980688 
L 998.951309 97.819744 
L 1000.065678 94.699154 
L 1001.180048 118.986282 
L 1002.294418 90.545545 
L 1003.408787 122.435762 
L 1004.523157 112.840223 
L 1005.637527 127.221554 
L 1006.751896 110.489525 
L 1007.866266 109.52219 
L 1008.980636 116.31139 
L 1010.095005 95.04566 
L 1011.209375 113.247247 
L 1012.323745 94.140016 
L 1013.438114 89.110199 
L 1014.552484 91.720424 
L 1015.666854 87.637509 
L 1016.781223 86.363751 
L 1017.895593 108.508507 
L 1019.009963 102.04945 
L 1020.124332 88.967008 
L 1021.238702 91.010658 
L 1022.353072 115.645466 
L 1023.467441 107.391248 
L 1024.581811 83.361221 
L 1025.696181 107.718652 
L 1026.81055 113.926715 
L 1027.92492 135.778592 
L 1029.03929 100.960219 
L 1030.153659 112.11981 
L 1031.268029 118.489853 
L 1032.382399 119.429474 
L 1033.496768 124.581187 
L 1034.611138 107.930031 
L 1035.725508 106.584561 
L 1036.839877 117.468654 
L 1037.954247 111.884787 
L 1039.068616 93.592934 
L 1040.182986 122.261413 
L 1041.297356 115.372708 
L 1042.411725 106.855362 
L 1043.526095 115.553242 
L 1044.640465 105.244257 
L 1045.754834 102.32714 
L 1046.869204 122.604788 
L 1047.983574 140.330378 
L 1049.097943 121.57075 
L 1050.212313 119.379839 
L 1051.326683 111.988911 
L 1052.441052 102.308194 
L 1053.555422 122.885844 
L 1054.669792 118.728633 
L 1055.784161 116.835768 
L 1056.898531 91.371726 
L 1058.012901 100.273626 
L 1059.12727 114.576198 
L 1060.24164 115.899591 
L 1061.35601 106.664337 
L 1062.470379 122.178584 
L 1063.584749 95.742195 
L 1064.699119 120.618367 
L 1065.813488 127.733092 
L 1066.927858 110.135425 
L 1068.042228 124.707075 
L 1069.156597 102.579778 
L 1070.270967 116.819797 
L 1071.385337 117.727164 
L 1072.499706 113.775774 
L 1073.614076 110.795086 
L 1074.728446 111.662839 
L 1075.842815 108.952404 
L 1075.842815 108.952404 
" clip-path="url(#pbd9a9e2428)" style="fill: none; stroke: #1f77b4; stroke-linecap: square"/>
   </g>
   <g id="line2d_39">
    <path d="M 743.760657 234.120301 
L 744.875027 234.200312 
L 745.989397 234.758119 
L 747.103766 234.15193 
L 748.218136 232.876684 
L 749.332506 230.511816 
L 750.446875 226.829739 
L 751.561245 229.258648 
L 752.675615 229.402386 
L 754.904354 224.491489 
L 756.018724 224.919259 
L 757.133093 222.551807 
L 758.247463 229.856539 
L 759.361832 221.863258 
L 760.476202 221.473458 
L 761.590572 218.987477 
L 762.704941 221.863414 
L 763.819311 218.334157 
L 764.933681 218.533324 
L 766.04805 215.131991 
L 767.16242 214.074701 
L 768.27679 213.203348 
L 769.391159 214.324364 
L 770.505529 211.005078 
L 771.619899 208.863176 
L 772.734268 202.512549 
L 773.848638 199.440185 
L 774.963008 206.020433 
L 776.077377 201.144766 
L 777.191747 201.892189 
L 778.306117 196.222048 
L 779.420486 196.367665 
L 780.534856 193.238072 
L 781.649226 184.838785 
L 782.763595 193.649558 
L 783.877965 177.454356 
L 784.992335 187.153784 
L 786.106704 171.628655 
L 787.221074 169.448705 
L 788.335444 174.833092 
L 789.449813 157.81758 
L 790.564183 158.193914 
L 791.678553 153.449459 
L 792.792922 144.164805 
L 793.907292 155.152083 
L 795.021662 139.246236 
L 796.136031 129.706595 
L 797.250401 144.245755 
L 798.36477 151.588301 
L 799.47914 122.323574 
L 800.59351 139.719804 
L 801.707879 123.192658 
L 802.822249 135.43968 
L 803.936619 149.634213 
L 805.050988 136.365288 
L 806.165358 133.145428 
L 807.279728 142.215728 
L 808.394097 135.311522 
L 809.508467 142.318521 
L 811.737206 128.721175 
L 812.851576 150.687589 
L 813.965946 144.88788 
L 815.080315 132.278928 
L 816.194685 142.673404 
L 817.309055 128.321354 
L 818.423424 144.72958 
L 819.537794 137.314696 
L 820.652164 137.303266 
L 821.766533 137.770806 
L 823.995273 114.106387 
L 825.109642 183.858532 
L 826.224012 135.592813 
L 827.338382 134.753714 
L 828.452751 142.668159 
L 829.567121 129.962286 
L 830.681491 132.69566 
L 831.79586 148.502863 
L 832.91023 126.349025 
L 834.0246 138.063136 
L 835.138969 139.715342 
L 836.253339 130.130998 
L 837.367708 149.720644 
L 838.482078 125.776265 
L 839.596448 125.36431 
L 840.710817 120.889794 
L 841.825187 125.806719 
L 842.939557 124.053599 
L 844.053926 136.596944 
L 845.168296 122.95466 
L 846.282666 135.679087 
L 847.397035 121.7862 
L 848.511405 125.706979 
L 849.625775 124.298408 
L 850.740144 121.226827 
L 851.854514 123.0425 
L 852.968884 118.649797 
L 854.083253 114.84512 
L 855.197623 122.457292 
L 856.311993 105.510596 
L 857.426362 123.961688 
L 858.540732 117.091537 
L 859.655102 111.956813 
L 860.769471 118.002583 
L 861.883841 105.501279 
L 862.998211 157.884908 
L 864.11258 172.874933 
L 865.22695 117.56448 
L 866.34132 125.548366 
L 867.455689 107.215646 
L 868.570059 117.854461 
L 869.684429 116.775329 
L 870.798798 124.734633 
L 871.913168 117.511791 
L 873.027538 125.841479 
L 874.141907 100.687539 
L 875.256277 134.877567 
L 876.370646 114.867354 
L 877.485016 145.302027 
L 878.599386 143.128418 
L 879.713755 124.195772 
L 880.828125 103.243119 
L 881.942495 117.983638 
L 883.056864 117.533477 
L 884.171234 125.163264 
L 885.285604 122.80505 
L 886.399973 128.676628 
L 887.514343 116.72679 
L 888.628713 101.852632 
L 889.743082 130.708848 
L 890.857452 121.957809 
L 891.971822 130.397572 
L 893.086191 128.433542 
L 894.200561 116.387956 
L 895.314931 111.570301 
L 896.4293 130.738049 
L 897.54367 124.166883 
L 898.65804 139.618186 
L 899.772409 113.946522 
L 900.886779 120.610538 
L 902.001149 98.399863 
L 903.115518 136.22476 
L 904.229888 111.058058 
L 905.344258 117.20349 
L 906.458627 127.362082 
L 907.572997 116.246254 
L 908.687367 115.459452 
L 909.801736 106.999413 
L 910.916106 95.711115 
L 912.030476 130.867695 
L 913.144845 116.702129 
L 914.259215 116.087954 
L 915.373585 121.070328 
L 916.487954 104.486031 
L 917.602324 113.083388 
L 918.716693 115.442228 
L 919.831063 116.593934 
L 920.945433 118.559373 
L 922.059802 110.662543 
L 923.174172 111.039425 
L 924.288542 100.884905 
L 925.402911 93.429311 
L 926.517281 116.001993 
L 927.631651 118.367566 
L 928.74602 117.002993 
L 929.86039 120.566149 
L 930.97476 116.881645 
L 932.089129 115.152403 
L 933.203499 96.408667 
L 934.317869 120.32134 
L 935.432238 113.980499 
L 936.546608 123.880033 
L 937.660978 113.362957 
L 938.775347 120.402369 
L 939.889717 114.44068 
L 941.004087 120.132742 
L 942.118456 129.682639 
L 943.232826 118.596169 
L 944.347196 112.260025 
L 945.461565 130.111896 
L 946.575935 107.217212 
L 947.690305 116.587436 
L 948.804674 109.786492 
L 949.919044 130.594233 
L 951.033414 111.658689 
L 952.147783 128.888164 
L 953.262153 106.441919 
L 954.376523 107.465544 
L 955.490892 120.794673 
L 956.605262 127.031234 
L 957.719631 112.245307 
L 958.834001 115.92527 
L 959.948371 111.969026 
L 961.06274 127.688781 
L 962.17711 101.98173 
L 963.29148 95.177029 
L 964.405849 107.506567 
L 965.520219 110.629897 
L 966.634589 107.740964 
L 968.863328 135.53347 
L 969.977698 128.114828 
L 971.092067 114.119148 
L 972.206437 108.77876 
L 973.320807 99.334788 
L 974.435176 109.721043 
L 975.549546 112.58829 
L 976.663916 105.144596 
L 977.778285 114.846921 
L 978.892655 109.439047 
L 980.007025 114.420873 
L 981.121394 117.085352 
L 982.235764 129.896289 
L 983.350134 102.839697 
L 984.464503 104.075328 
L 985.578873 106.213707 
L 986.693243 101.808321 
L 987.807612 94.828409 
L 988.921982 104.394433 
L 990.036352 112.314828 
L 991.150721 112.327902 
L 992.265091 102.287839 
L 994.49383 123.561085 
L 995.6082 131.74038 
L 996.722569 107.320318 
L 997.836939 94.210554 
L 998.951309 130.092245 
L 1000.065678 106.27853 
L 1001.180048 115.287295 
L 1002.294418 112.372996 
L 1003.408787 127.172466 
L 1004.523157 100.780155 
L 1005.637527 103.852831 
L 1006.751896 122.699126 
L 1007.866266 116.982324 
L 1008.980636 103.733989 
L 1010.095005 94.555573 
L 1011.209375 127.093082 
L 1012.323745 124.017665 
L 1013.438114 125.423104 
L 1014.552484 100.410866 
L 1015.666854 121.477195 
L 1016.781223 114.799008 
L 1017.895593 116.911317 
L 1019.009963 104.159645 
L 1020.124332 101.228358 
L 1021.238702 104.166534 
L 1022.353072 96.692621 
L 1023.467441 90.378555 
L 1024.581811 101.603517 
L 1025.696181 95.459495 
L 1026.81055 113.587333 
L 1027.92492 111.320639 
L 1029.03929 107.510638 
L 1030.153659 97.66896 
L 1031.268029 114.654643 
L 1032.382399 99.536303 
L 1033.496768 116.311703 
L 1034.611138 108.533716 
L 1035.725508 98.720926 
L 1036.839877 99.159577 
L 1037.954247 101.37922 
L 1039.068616 111.188879 
L 1040.182986 112.19027 
L 1041.297356 104.63384 
L 1042.411725 111.640057 
L 1043.526095 101.538929 
L 1044.640465 104.959678 
L 1045.754834 90.733672 
L 1046.869204 121.925476 
L 1047.983574 108.113149 
L 1049.097943 115.499379 
L 1050.212313 95.698119 
L 1051.326683 84.142464 
L 1052.441052 101.816228 
L 1053.555422 105.622862 
L 1054.669792 106.617364 
L 1055.784161 104.028198 
L 1056.898531 105.829622 
L 1058.012901 115.97968 
L 1059.12727 114.988623 
L 1060.24164 86.298928 
L 1061.35601 114.403336 
L 1062.470379 127.953553 
L 1063.584749 101.691749 
L 1064.699119 103.661337 
L 1065.813488 107.403461 
L 1066.927858 94.661654 
L 1068.042228 91.793076 
L 1069.156597 113.381199 
L 1070.270967 104.078851 
L 1071.385337 106.197423 
L 1072.499706 125.055539 
L 1073.614076 105.046109 
L 1074.728446 104.777343 
L 1075.842815 102.485597 
L 1075.842815 102.485597 
" clip-path="url(#pbd9a9e2428)" style="fill: none; stroke-dasharray: 3.7,1.6; stroke-dashoffset: 0; stroke: #ff7f0e"/>
   </g>
   <g id="patch_13">
    <path d="M 743.203472 282.7575 
L 743.203472 8.746875 
" style="fill: none; stroke: #000000; stroke-width: 0.8; stroke-linejoin: miter; stroke-linecap: square"/>
   </g>
   <g id="patch_14">
    <path d="M 1076.4 282.7575 
L 1076.4 8.746875 
" style="fill: none; stroke: #000000; stroke-width: 0.8; stroke-linejoin: miter; stroke-linecap: square"/>
   </g>
   <g id="patch_15">
    <path d="M 743.203472 282.7575 
L 1076.4 282.7575 
" style="fill: none; stroke: #000000; stroke-width: 0.8; stroke-linejoin: miter; stroke-linecap: square"/>
   </g>
   <g id="patch_16">
    <path d="M 743.203472 8.746875 
L 1076.4 8.746875 
" style="fill: none; stroke: #000000; stroke-width: 0.8; stroke-linejoin: miter; stroke-linecap: square"/>
   </g>
   <g id="text_24">
    <!-- c) α = 0.99 -->
    <g transform="translate(859.933299 351.385875) scale(0.18 -0.18)">
     <defs>
      <path id="IPAexMincho-63" d="M 3156 775 
Q 2734 -38 1863 -38 
Q 1225 -38 806 391 
Q 366 841 366 1588 
Q 366 2369 834 2838 
Q 1244 3259 1881 3259 
Q 2419 3259 2778 2978 
Q 3053 2759 3053 2509 
Q 3053 2181 2759 2181 
Q 2478 2181 2478 2444 
Q 2478 2628 2631 2694 
Q 2400 3044 1903 3044 
Q 1344 3044 1066 2544 
Q 841 2144 841 1622 
Q 841 1031 1147 647 
Q 1453 256 1941 256 
Q 2597 256 2972 916 
L 3156 775 
z
" transform="scale(0.015625)"/>
      <path id="IPAexMincho-39" d="M 2994 2469 
Q 2631 1772 1822 1772 
Q 1197 1772 825 2163 
Q 428 2578 428 3238 
Q 428 3925 850 4338 
Q 1256 4734 1869 4734 
Q 3431 4734 3431 2544 
Q 3431 1159 2863 447 
Q 2416 -103 1753 -103 
Q 1219 -103 844 222 
Q 606 431 606 669 
Q 606 1034 944 1034 
Q 1284 1034 1284 722 
Q 1284 497 1094 422 
Q 1278 156 1716 156 
Q 2281 156 2616 700 
Q 2994 1313 3013 2469 
L 2994 2469 
z
M 1881 4516 
Q 1425 4516 1147 4131 
Q 903 3781 903 3263 
Q 903 2734 1128 2394 
Q 1388 2009 1863 2009 
Q 2278 2009 2559 2291 
Q 2900 2638 2900 3244 
Q 2900 3794 2619 4150 
Q 2331 4516 1881 4516 
z
" transform="scale(0.015625)"/>
     </defs>
     <use xlink:href="#IPAexMincho-63"/>
     <use xlink:href="#IPAexMincho-29" x="53.515625"/>
     <use xlink:href="#IPAexMincho-20" x="90.039062"/>
     <use xlink:href="#IPAexMincho-3b1" x="119.042969"/>
     <use xlink:href="#IPAexMincho-20" x="219.042969"/>
     <use xlink:href="#IPAexMincho-3d" x="248.046875"/>
     <use xlink:href="#IPAexMincho-20" x="315.869141"/>
     <use xlink:href="#IPAexMincho-30" x="344.873047"/>
     <use xlink:href="#IPAexMincho-2e" x="406.689453"/>
     <use xlink:href="#IPAexMincho-39" x="430.46875"/>
     <use xlink:href="#IPAexMincho-39" x="492.285156"/>
    </g>
   </g>
  </g>
  <g id="legend_1">
   <g id="patch_17">
    <path d="M 916.2 64.982813 
L 1071 64.982813 
L 1071 9 
L 916.2 9 
z
" style="fill: #ffffff; stroke: #000000; stroke-linejoin: miter"/>
   </g>
   <g id="line2d_40">
    <path d="M 923.4 23.04 
L 941.4 23.04 
L 959.4 23.04 
" style="fill: none; stroke: #1f77b4; stroke-linecap: square"/>
   </g>
   <g id="text_25">
    <!-- 粗い分割 -->
    <g transform="translate(973.8 29.34) scale(0.18 -0.18)">
     <defs>
      <path id="IPAexMincho-7c97" d="M 3638 4800 
L 4941 4800 
L 5203 5106 
Q 5597 4794 5597 4709 
Q 5597 4666 5538 4628 
L 5384 4525 
L 5384 -50 
L 5628 -50 
L 5897 391 
Q 6031 231 6172 -6 
L 6216 -81 
L 6153 -213 
L 2384 -213 
L 2319 -50 
L 3172 -50 
L 3172 5019 
Q 3381 4953 3638 4800 
z
M 5013 3097 
L 3544 3097 
L 3544 1638 
L 5013 1638 
L 5013 3097 
z
M 5013 3256 
L 5013 4641 
L 3544 4641 
L 3544 3256 
L 5013 3256 
z
M 5013 -50 
L 5013 1478 
L 3544 1478 
L 3544 -50 
L 5013 -50 
z
M 1341 1813 
Q 922 928 303 194 
L 169 309 
Q 909 1316 1300 2613 
L 353 2613 
L 291 2772 
L 1341 2772 
L 1341 5269 
Q 1944 5259 1944 5122 
Q 1944 5047 1700 4947 
L 1700 2772 
L 2197 2772 
L 2475 3169 
Q 2656 2984 2838 2734 
L 2775 2613 
L 1700 2613 
L 1700 2075 
Q 1763 2044 1809 2019 
Q 2256 1797 2506 1513 
Q 2691 1297 2691 1128 
Q 2691 903 2484 903 
Q 2372 903 2294 1094 
Q 2113 1528 1700 1884 
L 1700 -459 
L 1341 -459 
L 1341 1813 
z
M 450 4719 
Q 1031 4078 1031 3413 
Q 1031 3100 825 3100 
Q 653 3100 653 3309 
Q 644 4056 334 4628 
L 450 4719 
z
M 1916 3144 
Q 2188 3906 2331 4750 
Q 2875 4606 2875 4475 
Q 2875 4397 2638 4359 
Q 2419 3716 2063 3072 
L 1916 3144 
z
" transform="scale(0.015625)"/>
      <path id="IPAexMincho-3044" d="M 2981 2113 
Q 2641 1288 2581 1131 
Q 2450 775 2450 628 
L 2516 300 
Q 2516 141 2344 141 
Q 2238 141 2053 253 
Q 1888 350 1747 488 
Q 1363 872 1191 1613 
Q 1056 2169 1050 3300 
Q 1050 3659 991 3878 
Q 906 4147 659 4300 
L 769 4453 
Q 1484 4119 1484 3731 
Q 1484 3700 1456 3613 
Q 1431 3538 1425 3488 
Q 1381 2953 1381 2547 
Q 1381 1647 1816 959 
Q 1888 850 1991 850 
Q 2059 850 2138 972 
Q 2356 1294 2816 2194 
L 2981 2113 
z
M 4213 3841 
Q 4691 3603 4978 3325 
Q 5197 3113 5416 2772 
Q 5753 2244 5753 1769 
Q 5753 1403 5516 1403 
Q 5378 1403 5319 1697 
Q 5056 3028 4097 3675 
L 4213 3841 
z
" transform="scale(0.015625)"/>
      <path id="IPAexMincho-5206" d="M 2481 2591 
L 1466 2591 
L 1413 2753 
L 4356 2753 
L 4600 3041 
Q 4978 2741 4978 2656 
Q 4978 2606 4916 2559 
L 4781 2456 
Q 4772 566 4466 6 
Q 4256 -378 3719 -378 
Q 3719 -188 3475 -91 
Q 3291 -16 2803 63 
L 2803 234 
Q 3447 147 3806 147 
Q 4141 147 4238 550 
Q 4400 1213 4409 2591 
L 2884 2591 
Q 2791 1428 2341 741 
Q 1850 -22 794 -450 
L 703 -309 
Q 1822 294 2219 1331 
Q 2425 1891 2481 2591 
z
M 3847 5119 
Q 4734 3572 6003 2816 
Q 5813 2681 5669 2425 
Q 4728 3166 4147 4147 
Q 3925 4522 3684 5031 
L 3847 5119 
z
M 428 2259 
Q 1750 3359 2353 5119 
Q 2931 4919 2931 4794 
Q 2931 4709 2663 4653 
Q 2181 3644 1625 3041 
Q 1200 2569 531 2131 
L 428 2259 
z
" transform="scale(0.015625)"/>
      <path id="IPAexMincho-5272" d="M 1300 1253 
L 2875 1253 
L 3100 1522 
Q 3481 1225 3481 1150 
Q 3481 1113 3425 1075 
L 3284 984 
L 3284 -463 
L 2919 -463 
L 2919 -109 
L 1250 -109 
L 1250 -463 
L 891 -463 
L 891 1431 
Q 1084 1359 1300 1253 
z
M 1250 1094 
L 1250 50 
L 2919 50 
L 2919 1094 
L 1250 1094 
z
M 2269 2584 
L 2269 1984 
L 3203 1984 
L 3497 2356 
Q 3709 2163 3869 1953 
L 3791 1825 
L 494 1825 
L 425 1984 
L 1903 1984 
L 1903 2584 
L 872 2584 
L 809 2747 
L 1903 2747 
L 1903 3291 
L 663 3291 
L 597 3450 
L 1903 3450 
L 1903 4122 
Q 2506 4094 2506 3963 
Q 2506 3888 2269 3803 
L 2269 3450 
L 3056 3450 
L 3313 3763 
Q 3531 3566 3656 3406 
L 3588 3291 
L 2269 3291 
L 2269 2747 
L 2903 2747 
L 3159 3066 
Q 3303 2931 3484 2700 
L 3416 2584 
L 2269 2584 
z
M 1909 4494 
L 1909 5294 
Q 2519 5284 2519 5159 
Q 2519 5081 2263 4988 
L 2263 4494 
L 3331 4494 
L 3572 4794 
Q 3984 4422 3984 4313 
Q 3984 4263 3913 4241 
L 3728 4197 
Q 3494 3944 3297 3775 
L 3175 3856 
Q 3281 4084 3350 4331 
L 909 4331 
Q 900 3538 572 3538 
Q 347 3538 347 3734 
Q 347 3822 409 3897 
Q 700 4231 700 4731 
L 866 4706 
Q 878 4641 897 4494 
L 1909 4494 
z
M 4225 928 
L 4225 4403 
Q 4834 4384 4834 4250 
Q 4834 4163 4584 4078 
L 4584 928 
L 4225 928 
z
M 4288 184 
Q 4800 134 5131 134 
Q 5369 134 5369 325 
L 5369 5203 
Q 5997 5166 5997 5025 
Q 5997 4938 5741 4850 
L 5741 122 
Q 5741 -413 5125 -403 
Q 5125 -206 4928 -122 
Q 4784 -59 4288 19 
L 4288 184 
z
" transform="scale(0.015625)"/>
     </defs>
     <use xlink:href="#IPAexMincho-7c97"/>
     <use xlink:href="#IPAexMincho-3044" x="100"/>
     <use xlink:href="#IPAexMincho-5206" x="200"/>
     <use xlink:href="#IPAexMincho-5272" x="300"/>
    </g>
   </g>
   <g id="line2d_41">
    <path d="M 923.4 48.389063 
L 941.4 48.389063 
L 959.4 48.389063 
" style="fill: none; stroke-dasharray: 3.7,1.6; stroke-dashoffset: 0; stroke: #ff7f0e"/>
   </g>
   <g id="text_26">
    <!-- 細かい分割 -->
    <g transform="translate(973.8 54.689063) scale(0.18 -0.18)">
     <defs>
      <path id="IPAexMincho-7d30" d="M 3513 4659 
L 5325 4659 
L 5588 4972 
Q 5972 4656 5972 4556 
Q 5972 4513 5906 4475 
L 5747 4378 
L 5747 -381 
L 5375 -381 
L 5375 206 
L 3444 206 
L 3444 -381 
L 3072 -381 
L 3072 4884 
Q 3241 4822 3513 4659 
z
M 3444 4500 
L 3444 2584 
L 4209 2584 
L 4209 4500 
L 3444 4500 
z
M 5375 366 
L 5375 2425 
L 4569 2425 
L 4569 366 
L 5375 366 
z
M 5375 2584 
L 5375 4500 
L 4569 4500 
L 4569 2584 
L 5375 2584 
z
M 4209 2425 
L 3444 2425 
L 3444 366 
L 4209 366 
L 4209 2425 
z
M 1038 2616 
Q 1059 2653 1128 2731 
Q 1744 3556 2263 4556 
Q 2759 4334 2759 4209 
Q 2759 4116 2497 4116 
Q 1847 3253 1250 2622 
Q 1575 2634 2369 2719 
Q 2244 2959 2025 3219 
L 2113 3316 
Q 2919 2797 2919 2272 
Q 2919 2022 2709 2022 
Q 2550 2022 2509 2272 
Q 2494 2381 2441 2553 
Q 2125 2481 1825 2431 
L 1788 2425 
L 1788 -463 
L 1428 -463 
L 1428 2359 
Q 1278 2338 653 2253 
Q 588 2053 525 2053 
Q 422 2053 309 2591 
Q 672 2600 981 2609 
L 1038 2616 
z
M 1016 4172 
Q 1303 4678 1522 5350 
Q 2066 5150 2066 5038 
Q 2066 4959 1831 4941 
Q 1547 4500 1144 4072 
Q 1472 3791 1472 3553 
Q 1472 3316 1241 3316 
Q 1128 3316 1081 3450 
Q 900 3966 403 4347 
L 478 4453 
Q 784 4334 1016 4172 
z
M 2163 1966 
Q 2797 1341 2797 769 
Q 2797 475 2572 475 
Q 2400 475 2400 725 
Q 2391 1266 2047 1875 
L 2163 1966 
z
M 288 44 
Q 584 831 634 1819 
Q 1209 1694 1209 1569 
Q 1209 1509 1003 1459 
Q 809 569 422 -25 
L 288 44 
z
" transform="scale(0.015625)"/>
      <path id="IPAexMincho-304b" d="M 2188 3438 
Q 2438 4150 2438 4456 
Q 2438 4619 2344 4700 
Q 2263 4772 2075 4822 
L 2106 4994 
Q 2459 4994 2709 4859 
Q 2913 4750 2913 4628 
Q 2913 4519 2797 4222 
Q 2613 3747 2522 3491 
Q 2819 3547 3116 3547 
Q 3481 3547 3672 3247 
Q 3853 2969 3853 2466 
Q 3853 891 3297 216 
Q 3069 -72 2853 -72 
Q 2747 -72 2706 88 
Q 2663 303 2081 825 
L 2163 966 
Q 2659 622 2828 556 
Q 2903 531 2969 531 
Q 3078 531 3181 756 
Q 3513 1525 3513 2578 
Q 3513 3081 3344 3228 
Q 3253 3309 3041 3309 
Q 2778 3309 2431 3222 
Q 1819 1581 1416 653 
Q 1272 325 1175 200 
Q 1075 72 966 72 
Q 906 72 856 138 
Q 800 209 800 328 
Q 800 406 881 547 
Q 891 566 959 681 
Q 997 747 1025 794 
Q 1406 1475 2094 3150 
Q 1866 3078 1191 2825 
Q 1050 2753 953 2753 
Q 834 2753 747 2944 
Q 663 3131 659 3413 
L 806 3463 
Q 859 3188 1044 3188 
Q 1244 3188 2188 3438 
z
M 4525 2188 
Q 5025 2209 5369 2247 
Q 5466 2256 5466 2363 
Q 5466 2650 5191 3053 
Q 4950 3400 4453 3706 
L 4538 3859 
Q 4906 3703 5122 3541 
Q 5319 3394 5497 3169 
Q 5978 2575 5978 1997 
Q 5978 1650 5788 1650 
Q 5678 1650 5600 1772 
Q 5491 1934 5147 1972 
Q 4866 2003 4531 2009 
L 4525 2188 
z
" transform="scale(0.015625)"/>
     </defs>
     <use xlink:href="#IPAexMincho-7d30"/>
     <use xlink:href="#IPAexMincho-304b" x="100"/>
     <use xlink:href="#IPAexMincho-3044" x="200"/>
     <use xlink:href="#IPAexMincho-5206" x="300"/>
     <use xlink:href="#IPAexMincho-5272" x="400"/>
    </g>
   </g>
  </g>
 </g>
 <defs>
  <clipPath id="p471639ee30">
   <rect x="54.50375" y="8.746875" width="333.196528" height="274.010625"/>
  </clipPath>
  <clipPath id="p0babf1997c">
   <rect x="398.853611" y="8.746875" width="333.196528" height="274.010625"/>
  </clipPath>
  <clipPath id="pbd9a9e2428">
   <rect x="743.203472" y="8.746875" width="333.196528" height="274.010625"/>
  </clipPath>
 </defs>
</svg>
