<?xml version="1.0" encoding="utf-8" standalone="no"?>
<!DOCTYPE svg PUBLIC "-//W3C//DTD SVG 1.1//EN"
  "http://www.w3.org/Graphics/SVG/1.1/DTD/svg11.dtd">
<svg xmlns:xlink="http://www.w3.org/1999/xlink" width="1080pt" height="360pt" viewBox="0 0 1080 360" xmlns="http://www.w3.org/2000/svg" version="1.1">
 <metadata>
  <rdf:RDF xmlns:dc="http://purl.org/dc/elements/1.1/" xmlns:cc="http://creativecommons.org/ns#" xmlns:rdf="http://www.w3.org/1999/02/22-rdf-syntax-ns#">
   <cc:Work>
    <dc:type rdf:resource="http://purl.org/dc/dcmitype/StillImage"/>
    <dc:date>2024-03-06T11:32:06.765927</dc:date>
    <dc:format>image/svg+xml</dc:format>
    <dc:creator>
     <cc:Agent>
      <dc:title>Matplotlib v3.7.0, https://matplotlib.org/</dc:title>
     </cc:Agent>
    </dc:creator>
   </cc:Work>
  </rdf:RDF>
 </metadata>
 <defs>
  <style type="text/css">*{stroke-linejoin: round; stroke-linecap: butt}</style>
 </defs>
 <g id="figure_1">
  <g id="patch_1">
   <path d="M 0 360 
L 1080 360 
L 1080 0 
L 0 0 
L 0 360 
z
" style="fill: none"/>
  </g>
  <g id="axes_1">
   <g id="patch_2">
    <path d="M 55.72625 301 
L 557.201231 301 
L 557.201231 4.8 
L 55.72625 4.8 
L 55.72625 301 
z
" style="fill: none"/>
   </g>
   <g id="matplotlib.axis_1">
    <g id="xtick_1">
     <g id="line2d_1">
      <defs>
       <path id="m10dc62b3e8" d="M 0 0 
L 0 3.5 
" style="stroke: #000000; stroke-width: 0.8"/>
      </defs>
      <g>
       <use xlink:href="#m10dc62b3e8" x="222.605048" y="301" style="stroke: #000000; stroke-width: 0.8"/>
      </g>
     </g>
     <g id="text_1">
      <!-- 100 -->
      <g transform="translate(199.930673 325.9775) scale(0.24 -0.24)">
       <defs>
        <path id="IPAexGothic-31" d="M 2463 63 
L 1900 63 
L 1900 4103 
Q 1372 3922 788 3797 
L 684 4231 
Q 1519 4441 2106 4731 
L 2463 4731 
L 2463 63 
z
" transform="scale(0.015625)"/>
        <path id="IPAexGothic-30" d="M 2038 4725 
Q 2881 4725 3334 3944 
Q 3694 3325 3694 2344 
Q 3694 1372 3334 741 
Q 2888 -31 2016 -31 
Q 1147 -31 700 741 
Q 341 1372 341 2350 
Q 341 3713 1000 4334 
Q 1419 4725 2038 4725 
z
M 2016 4266 
Q 1516 4266 1228 3759 
Q 934 3247 934 2344 
Q 934 1456 1222 947 
Q 1513 447 2016 447 
Q 2619 447 2909 1153 
Q 3100 1622 3100 2375 
Q 3100 3256 2806 3759 
Q 2509 4266 2016 4266 
z
" transform="scale(0.015625)"/>
       </defs>
       <use xlink:href="#IPAexGothic-31"/>
       <use xlink:href="#IPAexGothic-30" x="62.988281"/>
       <use xlink:href="#IPAexGothic-30" x="125.976562"/>
      </g>
     </g>
    </g>
    <g id="xtick_2">
     <g id="line2d_2">
      <g>
       <use xlink:href="#m10dc62b3e8" x="390.322433" y="301" style="stroke: #000000; stroke-width: 0.8"/>
      </g>
     </g>
     <g id="text_2">
      <!-- 200 -->
      <g transform="translate(367.648058 325.9775) scale(0.24 -0.24)">
       <defs>
        <path id="IPAexGothic-32" d="M 3659 63 
L 447 63 
L 447 594 
Q 825 1475 1894 2203 
L 2072 2322 
Q 2619 2697 2791 2906 
Q 2988 3153 2988 3444 
Q 2988 3772 2756 4003 
Q 2500 4259 2084 4259 
Q 1250 4259 991 3328 
L 497 3506 
Q 853 4725 2116 4725 
Q 2806 4725 3216 4316 
Q 3575 3947 3575 3425 
Q 3575 3038 3344 2722 
Q 3131 2416 2366 1938 
L 2231 1856 
Q 1256 1253 978 569 
L 3659 569 
L 3659 63 
z
" transform="scale(0.015625)"/>
       </defs>
       <use xlink:href="#IPAexGothic-32"/>
       <use xlink:href="#IPAexGothic-30" x="62.988281"/>
       <use xlink:href="#IPAexGothic-30" x="125.976562"/>
      </g>
     </g>
    </g>
    <g id="xtick_3">
     <g id="line2d_3">
      <g>
       <use xlink:href="#m10dc62b3e8" x="56.564837" y="301" style="stroke: #000000; stroke-width: 0.8"/>
      </g>
     </g>
     <g id="text_3">
      <!-- 1 -->
      <g transform="translate(49.006712 325.9775) scale(0.24 -0.24)">
       <use xlink:href="#IPAexGothic-31"/>
      </g>
     </g>
    </g>
    <g id="text_4">
     <!-- バッチ目 -->
     <g transform="translate(258.46374 352.515) scale(0.24 -0.24)">
      <defs>
       <path id="IPAexGothic-30d0" d="M 428 903 
Q 1472 2069 1972 3884 
L 2497 3700 
Q 1938 1778 897 544 
L 428 903 
z
M 5441 678 
Q 4694 2275 3684 3725 
L 4147 3969 
Q 5050 2734 5956 1025 
L 5441 678 
z
M 5697 4116 
Q 5334 4656 4941 4984 
L 5241 5216 
Q 5625 4906 6016 4391 
L 5697 4116 
z
M 5094 3641 
Q 4803 4131 4356 4531 
L 4678 4781 
Q 5050 4472 5434 3922 
L 5094 3641 
z
" transform="scale(0.015625)"/>
       <path id="IPAexGothic-30c3" d="M 1775 1984 
Q 1553 2666 1275 3175 
L 1716 3391 
Q 2034 2866 2247 2209 
L 1775 1984 
z
M 3003 2297 
Q 2813 2978 2522 3469 
L 2978 3681 
Q 3291 3166 3484 2522 
L 3003 2297 
z
M 1928 372 
Q 3094 744 3731 1569 
Q 4275 2263 4469 3525 
L 4975 3406 
Q 4734 1975 4016 1119 
Q 3406 391 2266 -44 
L 1928 372 
z
" transform="scale(0.015625)"/>
       <path id="IPAexGothic-30c1" d="M 3088 2853 
L 3088 3981 
Q 2359 3847 1531 3797 
L 1288 4238 
Q 3200 4344 4553 4872 
L 4909 4456 
Q 4244 4216 3606 4078 
L 3606 2913 
L 5806 2913 
L 5806 2459 
L 3600 2459 
Q 3559 1422 3188 850 
Q 2722 138 1738 -256 
L 1347 153 
Q 2319 500 2709 1081 
Q 3031 1563 3081 2400 
L 597 2400 
L 597 2853 
L 3088 2853 
z
" transform="scale(0.015625)"/>
       <path id="IPAexGothic-76ee" d="M 5266 4819 
L 5266 -384 
L 4791 -384 
L 4791 38 
L 1600 38 
L 1600 -384 
L 1125 -384 
L 1125 4819 
L 5266 4819 
z
M 1600 4416 
L 1600 3384 
L 4791 3384 
L 4791 4416 
L 1600 4416 
z
M 1600 2988 
L 1600 1966 
L 4791 1966 
L 4791 2988 
L 1600 2988 
z
M 1600 1563 
L 1600 447 
L 4791 447 
L 4791 1563 
L 1600 1563 
z
" transform="scale(0.015625)"/>
      </defs>
      <use xlink:href="#IPAexGothic-30d0"/>
      <use xlink:href="#IPAexGothic-30c3" x="100"/>
      <use xlink:href="#IPAexGothic-30c1" x="200"/>
      <use xlink:href="#IPAexGothic-76ee" x="300"/>
     </g>
    </g>
   </g>
   <g id="matplotlib.axis_2">
    <g id="ytick_1">
     <g id="line2d_4">
      <defs>
       <path id="meb5b89d413" d="M 0 0 
L -3.5 0 
" style="stroke: #000000; stroke-width: 0.8"/>
      </defs>
      <g>
       <use xlink:href="#meb5b89d413" x="55.72625" y="301" style="stroke: #000000; stroke-width: 0.8"/>
      </g>
     </g>
     <g id="text_5">
      <!-- 0 -->
      <g transform="translate(33.61 309.98875) scale(0.24 -0.24)">
       <use xlink:href="#IPAexGothic-30"/>
      </g>
     </g>
    </g>
    <g id="ytick_2">
     <g id="line2d_5">
      <g>
       <use xlink:href="#meb5b89d413" x="55.72625" y="235.177778" style="stroke: #000000; stroke-width: 0.8"/>
      </g>
     </g>
     <g id="text_6">
      <!-- 1 -->
      <g transform="translate(33.61 244.166528) scale(0.24 -0.24)">
       <use xlink:href="#IPAexGothic-31"/>
      </g>
     </g>
    </g>
    <g id="ytick_3">
     <g id="line2d_6">
      <g>
       <use xlink:href="#meb5b89d413" x="55.72625" y="169.355556" style="stroke: #000000; stroke-width: 0.8"/>
      </g>
     </g>
     <g id="text_7">
      <!-- 2 -->
      <g transform="translate(33.61 178.344306) scale(0.24 -0.24)">
       <use xlink:href="#IPAexGothic-32"/>
      </g>
     </g>
    </g>
    <g id="ytick_4">
     <g id="line2d_7">
      <g>
       <use xlink:href="#meb5b89d413" x="55.72625" y="103.533333" style="stroke: #000000; stroke-width: 0.8"/>
      </g>
     </g>
     <g id="text_8">
      <!-- 3 -->
      <g transform="translate(33.61 112.522083) scale(0.24 -0.24)">
       <defs>
        <path id="IPAexGothic-33" d="M 2381 2419 
Q 3506 2216 3506 1278 
Q 3506 716 3128 356 
Q 2709 -31 1944 -31 
Q 797 -31 288 881 
L 756 1131 
Q 1109 441 1938 441 
Q 2425 441 2694 691 
Q 2950 928 2950 1291 
Q 2950 1719 2566 1978 
Q 2216 2213 1644 2213 
L 1363 2213 
L 1363 2669 
L 1656 2669 
Q 2231 2669 2534 2888 
Q 2859 3119 2859 3509 
Q 2859 3934 2494 4138 
Q 2259 4278 1931 4278 
Q 1238 4278 903 3578 
L 434 3803 
Q 897 4725 1938 4725 
Q 2597 4725 3006 4394 
Q 3416 4069 3416 3534 
Q 3416 3028 3019 2706 
Q 2763 2500 2381 2444 
L 2381 2419 
z
" transform="scale(0.015625)"/>
       </defs>
       <use xlink:href="#IPAexGothic-33"/>
      </g>
     </g>
    </g>
    <g id="ytick_5">
     <g id="line2d_8">
      <g>
       <use xlink:href="#meb5b89d413" x="55.72625" y="37.711111" style="stroke: #000000; stroke-width: 0.8"/>
      </g>
     </g>
     <g id="text_9">
      <!-- 4 -->
      <g transform="translate(33.61 46.699861) scale(0.24 -0.24)">
       <defs>
        <path id="IPAexGothic-34" d="M 3813 1159 
L 3059 1159 
L 3059 63 
L 2547 63 
L 2547 1159 
L 197 1159 
L 197 1672 
L 2456 4678 
L 3059 4678 
L 3059 1634 
L 3813 1634 
L 3813 1159 
z
M 2578 4109 
L 2559 4109 
Q 2278 3656 2003 3284 
L 759 1634 
L 2547 1634 
L 2547 3144 
Q 2547 3481 2578 4109 
z
" transform="scale(0.015625)"/>
       </defs>
       <use xlink:href="#IPAexGothic-34"/>
      </g>
     </g>
    </g>
    <g id="text_10">
     <!-- スループット (MOP/s) -->
     <g transform="translate(25.05 275.511875) rotate(-90) scale(0.24 -0.24)">
      <defs>
       <path id="IPAexGothic-30b9" d="M 4359 4481 
L 4716 4147 
Q 4328 3072 3647 2150 
Q 4659 1434 5659 453 
L 5234 19 
Q 4256 1088 3353 1778 
Q 2372 597 1044 -31 
L 653 403 
Q 3128 1453 4097 4000 
L 1241 3963 
L 1228 4453 
L 4359 4481 
z
" transform="scale(0.015625)"/>
       <path id="IPAexGothic-30eb" d="M 353 331 
Q 1313 994 1544 2022 
Q 1684 2650 1684 4397 
L 2203 4397 
L 2203 4153 
L 2203 4116 
Q 2203 2259 1934 1491 
Q 1619 588 744 -38 
L 353 331 
z
M 3125 4666 
L 3650 4666 
L 3650 769 
Q 4875 1488 5672 2734 
L 6000 2278 
Q 5075 966 3516 63 
L 3125 359 
L 3125 4666 
z
" transform="scale(0.015625)"/>
       <path id="IPAexGothic-30fc" d="M 588 2688 
L 5809 2688 
L 5809 2175 
L 588 2175 
L 588 2688 
z
" transform="scale(0.015625)"/>
       <path id="IPAexGothic-30d7" d="M 4825 4275 
L 5125 4000 
Q 4884 2378 4081 1381 
Q 3294 413 1888 -116 
L 1522 331 
Q 4069 1113 4550 3803 
L 966 3738 
L 966 4225 
L 4825 4275 
z
M 5597 5509 
Q 5906 5509 6119 5275 
Q 6303 5075 6303 4806 
Q 6303 4494 6069 4281 
Q 5866 4097 5597 4097 
Q 5284 4097 5072 4331 
Q 4888 4534 4888 4806 
Q 4888 5116 5122 5328 
Q 5328 5509 5597 5509 
z
M 5597 5228 
Q 5409 5228 5278 5088 
Q 5169 4966 5169 4806 
Q 5169 4616 5309 4488 
Q 5434 4378 5597 4378 
Q 5784 4378 5913 4519 
Q 6022 4641 6022 4806 
Q 6022 4991 5881 5119 
Q 5759 5228 5597 5228 
z
" transform="scale(0.015625)"/>
       <path id="IPAexGothic-30c8" d="M 2284 4997 
L 2803 4997 
L 2803 3206 
Q 4088 2619 5216 1888 
L 4878 1369 
Q 3819 2175 2803 2688 
L 2803 -184 
L 2284 -184 
L 2284 4997 
z
" transform="scale(0.015625)"/>
       <path id="IPAexGothic-20" transform="scale(0.015625)"/>
       <path id="IPAexGothic-28" d="M 1928 -1016 
L 1653 -1166 
Q 488 69 488 1875 
Q 488 3678 1653 4909 
L 1928 4763 
Q 1006 3522 1006 1881 
Q 1006 203 1928 -1016 
z
" transform="scale(0.015625)"/>
       <path id="IPAexGothic-4d" d="M 5147 63 
L 4597 63 
L 4597 2534 
Q 4597 3281 4634 4134 
L 4609 4134 
Q 4356 3409 4066 2675 
L 3066 209 
L 2650 209 
L 1641 2725 
Q 1328 3506 1128 4141 
L 1103 4141 
Q 1141 3131 1141 2553 
L 1141 63 
L 609 63 
L 609 4634 
L 1416 4634 
L 2503 1944 
Q 2697 1472 2869 906 
L 2888 906 
Q 3028 1416 3234 1931 
L 4316 4634 
L 5147 4634 
L 5147 63 
z
" transform="scale(0.015625)"/>
       <path id="IPAexGothic-4f" d="M 2541 4725 
Q 3456 4725 4044 4138 
Q 4709 3472 4709 2331 
Q 4709 1219 4031 550 
Q 3450 -31 2541 -31 
Q 1638 -31 1056 550 
Q 378 1219 378 2356 
Q 378 3469 1044 4138 
Q 1631 4725 2541 4725 
z
M 2541 4266 
Q 1953 4266 1531 3844 
Q 994 3303 994 2350 
Q 994 1391 1531 863 
Q 1947 447 2541 447 
Q 3131 447 3556 863 
Q 4094 1400 4094 2375 
Q 4094 3297 3550 3844 
Q 3138 4266 2541 4266 
z
" transform="scale(0.015625)"/>
       <path id="IPAexGothic-50" d="M 609 4634 
L 1941 4634 
Q 3688 4634 3688 3322 
Q 3688 1934 1906 1934 
L 1172 1934 
L 1172 63 
L 609 63 
L 609 4634 
z
M 1172 2381 
L 1800 2381 
Q 3100 2381 3100 3316 
Q 3100 4181 1894 4181 
L 1172 4181 
L 1172 2381 
z
" transform="scale(0.015625)"/>
       <path id="IPAexGothic-2f" d="M 2719 4709 
L 600 -884 
L 300 -763 
L 2413 4831 
L 2719 4709 
z
" transform="scale(0.015625)"/>
       <path id="IPAexGothic-73" d="M 2234 2547 
Q 1938 2931 1484 2931 
Q 891 2931 891 2475 
Q 891 2153 1531 1944 
L 1741 1875 
Q 2650 1578 2650 894 
Q 2650 434 2272 172 
Q 1972 -31 1497 -31 
Q 766 -31 256 503 
L 603 819 
Q 997 397 1516 397 
Q 2131 397 2131 875 
Q 2131 1238 1453 1478 
L 1234 1553 
Q 378 1853 378 2431 
Q 378 2797 628 3047 
Q 928 3347 1453 3347 
Q 2156 3347 2606 2859 
L 2234 2547 
z
" transform="scale(0.015625)"/>
       <path id="IPAexGothic-29" d="M 466 4909 
Q 1638 3672 1638 1875 
Q 1638 75 466 -1166 
L 191 -1016 
Q 1119 216 1119 1881 
Q 1119 3509 191 4763 
L 466 4909 
z
" transform="scale(0.015625)"/>
      </defs>
      <use xlink:href="#IPAexGothic-30b9"/>
      <use xlink:href="#IPAexGothic-30eb" x="100"/>
      <use xlink:href="#IPAexGothic-30fc" x="200"/>
      <use xlink:href="#IPAexGothic-30d7" x="300"/>
      <use xlink:href="#IPAexGothic-30c3" x="400"/>
      <use xlink:href="#IPAexGothic-30c8" x="500"/>
      <use xlink:href="#IPAexGothic-20" x="600"/>
      <use xlink:href="#IPAexGothic-28" x="627.001953"/>
      <use xlink:href="#IPAexGothic-4d" x="660.302734"/>
      <use xlink:href="#IPAexGothic-4f" x="750.488281"/>
      <use xlink:href="#IPAexGothic-50" x="830.175781"/>
      <use xlink:href="#IPAexGothic-2f" x="892.285156"/>
      <use xlink:href="#IPAexGothic-73" x="942.285156"/>
      <use xlink:href="#IPAexGothic-29" x="988.476562"/>
     </g>
    </g>
   </g>
   <g id="line2d_9">
    <path d="M 56.564837 162.656631 
L 58.242011 168.000737 
L 59.919185 164.071611 
L 61.596358 167.141559 
L 63.273532 152.314709 
L 64.950706 164.659996 
L 66.62788 160.848033 
L 68.305054 165.52253 
L 69.982228 164.095109 
L 71.659402 168.920339 
L 73.336575 160.143143 
L 75.013749 168.533041 
L 76.690923 160.31382 
L 78.368097 168.11586 
L 80.045271 157.182196 
L 81.722445 168.367827 
L 83.399619 169.441651 
L 85.076792 166.762818 
L 86.753966 168.439639 
L 90.108314 171.250117 
L 91.785488 169.449089 
L 93.462662 166.474319 
L 95.139835 172.862761 
L 96.817009 172.69136 
L 98.494183 170.45064 
L 100.171357 171.446991 
L 101.848531 168.052802 
L 103.525705 169.853896 
L 105.202879 168.716027 
L 106.880052 158.607511 
L 108.557226 163.983672 
L 110.2344 168.010084 
L 111.911574 166.71049 
L 113.588748 168.054184 
L 115.265922 161.58985 
L 116.943095 168.818578 
L 118.620269 169.86344 
L 120.297443 168.916719 
L 121.974617 170.798971 
L 125.328965 170.56991 
L 127.006139 170.136997 
L 128.683312 163.157209 
L 130.360486 169.698621 
L 132.03766 168.808244 
L 133.714834 170.207032 
L 135.392008 175.836741 
L 137.069182 167.179868 
L 138.746356 166.115654 
L 140.423529 165.894886 
L 142.100703 168.046812 
L 143.777877 168.337944 
L 145.455051 164.167645 
L 147.132225 158.601323 
L 148.809399 166.953308 
L 150.486572 157.474842 
L 152.163746 163.553656 
L 153.84092 167.091469 
L 155.518094 159.835424 
L 157.195268 162.772017 
L 158.872442 167.570259 
L 160.549616 168.324714 
L 162.226789 168.28601 
L 163.903963 163.03761 
L 165.581137 170.61434 
L 167.258311 170.584456 
L 168.935485 162.164017 
L 170.612659 166.659806 
L 172.289832 166.637756 
L 175.64418 171.722918 
L 177.321354 170.007788 
L 178.998528 169.419601 
L 180.675702 169.246751 
L 182.352876 156.414512 
L 184.030049 170.366124 
L 185.707223 160.925111 
L 187.384397 171.436328 
L 189.061571 169.812691 
L 190.738745 168.77349 
L 192.415919 171.465619 
L 194.093093 172.462364 
L 195.770266 163.870129 
L 197.44744 163.651073 
L 199.124614 167.677615 
L 200.801788 172.584596 
L 202.478962 172.493367 
L 204.156136 163.135158 
L 205.833309 171.180937 
L 207.510483 170.635732 
L 209.187657 169.788139 
L 210.864831 159.687193 
L 212.542005 167.199483 
L 214.219179 159.050692 
L 215.896353 133.933919 
L 217.573526 149.227515 
L 219.2507 148.959092 
L 220.927874 167.587834 
L 222.605048 160.390503 
L 224.282222 150.449636 
L 225.959396 165.442227 
L 227.63657 170.015358 
L 230.990917 168.716356 
L 232.668091 150.018106 
L 234.345265 169.501615 
L 236.022439 163.141872 
L 237.699613 164.588381 
L 239.376786 161.922779 
L 241.05396 152.551932 
L 242.731134 154.393506 
L 244.408308 168.749399 
L 246.085482 165.491725 
L 247.762656 167.868105 
L 249.43983 167.399056 
L 251.117003 170.951613 
L 252.794177 173.371698 
L 254.471351 169.463701 
L 256.148525 173.95225 
L 257.825699 168.247636 
L 259.502873 168.463664 
L 261.180046 168.87795 
L 262.85722 161.003045 
L 264.534394 167.215478 
L 267.888742 166.943698 
L 269.565916 159.753212 
L 271.24309 169.823815 
L 272.920263 168.805282 
L 274.597437 163.187948 
L 276.274611 169.216671 
L 277.951785 169.996137 
L 279.628959 167.917998 
L 281.306133 171.804932 
L 282.983307 168.643952 
L 284.66048 167.127473 
L 286.337654 164.976732 
L 288.014828 153.131102 
L 289.692002 159.340441 
L 291.369176 166.06247 
L 293.04635 170.736637 
L 294.723523 164.266116 
L 296.400697 168.974445 
L 298.077871 169.587579 
L 299.755045 170.366717 
L 301.432219 161.880521 
L 303.109393 169.276108 
L 304.786567 160.839476 
L 306.46374 171.599567 
L 308.140914 171.157768 
L 309.818088 170.84373 
L 311.495262 172.41359 
L 313.172436 172.355996 
L 314.84961 171.983639 
L 316.526783 170.26489 
L 318.203957 169.553154 
L 319.881131 170.127979 
L 321.558305 160.835922 
L 323.235479 157.753533 
L 324.912653 170.154703 
L 326.589827 166.625908 
L 328.267 157.312722 
L 329.944174 169.424801 
L 331.621348 163.447353 
L 333.298522 170.94299 
L 334.975696 155.28283 
L 336.65287 155.604701 
L 338.330044 161.455441 
L 340.007217 166.380786 
L 341.684391 157.840221 
L 343.361565 159.956011 
L 345.038739 150.93389 
L 346.715913 166.088206 
L 348.393087 169.316655 
L 350.07026 168.637106 
L 351.747434 161.544301 
L 353.424608 159.687588 
L 355.101782 170.470057 
L 356.778956 160.949005 
L 358.45613 169.642343 
L 360.133304 168.036544 
L 361.810477 167.316515 
L 363.487651 170.542462 
L 365.164825 163.31426 
L 366.841999 158.293473 
L 368.519173 155.562641 
L 370.196347 173.803295 
L 373.550694 154.808581 
L 375.227868 159.81831 
L 376.905042 166.4239 
L 378.582216 164.164354 
L 380.25939 150.984047 
L 381.936564 169.820392 
L 383.613737 155.808026 
L 385.290911 168.413245 
L 386.968085 163.488426 
L 388.645259 165.638048 
L 390.322433 165.275104 
L 391.999607 150.46879 
L 393.676781 167.655038 
L 395.353954 150.581215 
L 398.708302 161.951609 
L 400.385476 172.703998 
L 402.06265 168.999457 
L 403.739824 171.783211 
L 405.416997 162.444354 
L 407.094171 168.860836 
L 408.771345 165.041962 
L 410.448519 156.183871 
L 412.125693 166.93751 
L 413.802867 169.169608 
L 415.480041 168.32445 
L 417.157214 160.432827 
L 418.834388 167.664056 
L 420.511562 169.012622 
L 422.188736 167.963613 
L 423.86591 168.640792 
L 425.543084 169.811177 
L 427.220258 171.336936 
L 428.897431 169.158879 
L 430.574605 168.62664 
L 432.251779 183.470012 
L 433.928953 170.160166 
L 435.606127 172.920619 
L 437.283301 169.209167 
L 438.960474 171.440343 
L 442.314822 165.659901 
L 443.991996 153.108722 
L 445.66917 147.66404 
L 447.346344 161.458929 
L 449.023518 158.409583 
L 450.700691 166.76058 
L 452.377865 168.238026 
L 454.055039 166.543235 
L 455.732213 168.26001 
L 457.409387 170.950033 
L 459.086561 143.8191 
L 460.763734 166.061351 
L 462.440908 163.924432 
L 464.118082 155.969027 
L 465.795256 169.763653 
L 467.47243 139.483325 
L 469.149604 156.286488 
L 470.826778 164.733322 
L 472.503951 166.379996 
L 474.181125 162.698164 
L 475.858299 138.016213 
L 477.535473 172.904361 
L 479.212647 140.132595 
L 480.889821 176.914514 
L 482.566995 154.883026 
L 484.244168 179.277729 
L 485.921342 159.393099 
L 487.598516 172.39957 
L 489.27569 147.086318 
L 490.952864 165.834988 
L 492.630038 156.078753 
L 494.307211 151.906019 
L 495.984385 152.096706 
L 497.661559 168.250006 
L 499.338733 147.025959 
L 501.015907 165.124108 
L 502.693081 158.881002 
L 504.370255 170.836226 
L 506.047428 145.686411 
L 507.724602 168.314972 
L 509.401776 209.861893 
L 511.07895 157.764591 
L 512.756124 178.363722 
L 514.433298 163.428594 
L 516.110472 161.728998 
L 517.787645 156.058545 
L 519.464819 172.652986 
L 521.141993 145.966419 
L 522.819167 161.797453 
L 524.496341 141.564623 
L 526.173515 157.895512 
L 527.850688 164.880171 
L 529.527862 156.565442 
L 531.205036 165.655228 
L 532.88221 172.647259 
L 534.559384 162.655446 
L 536.236558 149.321904 
L 537.913732 159.681137 
L 539.590905 152.337352 
L 541.268079 165.139116 
L 542.945253 143.885976 
L 544.622427 165.885474 
L 546.299601 165.988749 
L 547.976775 170.291284 
L 549.653948 155.565932 
L 551.331122 169.808412 
L 553.008296 140.9948 
L 554.68547 172.445185 
L 556.362644 134.957915 
L 556.362644 134.957915 
" clip-path="url(#pae500adf95)" style="fill: none; stroke-dasharray: 1.5,2.475; stroke-dashoffset: 0; stroke: #1f77b4; stroke-width: 1.5"/>
   </g>
   <g id="line2d_10">
    <path d="M 56.564837 168.197479 
L 58.242011 177.403112 
L 61.596358 168.914547 
L 63.273532 170.490067 
L 64.950706 171.091485 
L 66.62788 164.47464 
L 68.305054 172.097446 
L 69.982228 172.268979 
L 71.659402 173.86418 
L 73.336575 154.324985 
L 75.013749 149.074149 
L 76.690923 160.829603 
L 78.368097 190.460925 
L 80.045271 172.826493 
L 81.722445 168.779085 
L 83.399619 168.646519 
L 85.076792 167.182501 
L 86.753966 174.471193 
L 88.43114 171.061536 
L 90.108314 185.780833 
L 91.785488 169.093386 
L 93.462662 160.673012 
L 95.139835 165.375022 
L 96.817009 166.723259 
L 98.494183 166.734449 
L 100.171357 167.413866 
L 101.848531 168.311944 
L 103.525705 165.922005 
L 105.202879 167.941694 
L 106.880052 167.476068 
L 108.557226 166.790398 
L 110.2344 167.617651 
L 111.911574 166.450953 
L 113.588748 166.96226 
L 115.265922 166.611493 
L 116.943095 165.872112 
L 118.620269 163.584592 
L 120.297443 172.48244 
L 121.974617 168.382571 
L 123.651791 168.339326 
L 125.328965 167.488706 
L 127.006139 166.345834 
L 130.360486 137.086145 
L 132.03766 136.993928 
L 133.714834 166.38151 
L 135.392008 165.940435 
L 137.069182 168.041349 
L 138.746356 165.909696 
L 140.423529 165.489158 
L 142.100703 171.90202 
L 143.777877 169.321196 
L 145.455051 167.483966 
L 147.132225 167.263923 
L 148.809399 166.722272 
L 150.486572 155.41691 
L 152.163746 165.185586 
L 155.518094 169.533078 
L 157.195268 165.96683 
L 158.872442 172.772914 
L 160.549616 166.04608 
L 162.226789 170.263902 
L 163.903963 166.589574 
L 165.581137 159.89032 
L 167.258311 144.030126 
L 168.935485 165.386607 
L 170.612659 163.36468 
L 172.289832 148.716076 
L 173.967006 166.801258 
L 175.64418 163.065452 
L 177.321354 162.288948 
L 178.998528 169.502405 
L 180.675702 160.949136 
L 182.352876 143.155678 
L 184.030049 168.33281 
L 185.707223 167.230946 
L 187.384397 171.023622 
L 189.061571 165.361463 
L 190.738745 169.403606 
L 192.415919 168.630458 
L 194.093093 151.477648 
L 195.770266 158.406753 
L 197.44744 177.493749 
L 199.124614 162.629973 
L 200.801788 156.135228 
L 202.478962 157.563373 
L 204.156136 138.900469 
L 205.833309 135.476265 
L 207.510483 156.351191 
L 209.187657 156.289647 
L 210.864831 166.430679 
L 212.542005 144.638653 
L 214.219179 166.067538 
L 215.896353 165.89798 
L 217.573526 169.89069 
L 219.2507 169.695988 
L 220.927874 166.545934 
L 222.605048 167.772399 
L 224.282222 172.354811 
L 225.959396 168.989321 
L 227.63657 169.294209 
L 229.313743 167.622456 
L 230.990917 157.878332 
L 232.668091 158.803529 
L 234.345265 157.943299 
L 236.022439 168.980764 
L 237.699613 167.36496 
L 239.376786 170.38462 
L 241.05396 165.351919 
L 242.731134 149.055258 
L 244.408308 148.293103 
L 246.085482 162.821778 
L 247.762656 165.189996 
L 249.43983 161.301746 
L 251.117003 171.423163 
L 252.794177 166.877875 
L 254.471351 158.807742 
L 256.148525 158.089621 
L 257.825699 159.700094 
L 259.502873 168.812259 
L 261.180046 146.667689 
L 262.85722 152.25277 
L 264.534394 160.189548 
L 266.211568 165.195196 
L 267.888742 157.328453 
L 269.565916 141.284287 
L 271.24309 154.340848 
L 272.920263 164.495374 
L 274.597437 155.689348 
L 276.274611 163.456239 
L 277.951785 156.641467 
L 279.628959 160.928139 
L 281.306133 167.681236 
L 282.983307 156.368634 
L 284.66048 160.436052 
L 286.337654 170.291021 
L 288.014828 162.213779 
L 289.692002 159.497361 
L 291.369176 164.821326 
L 293.04635 175.332608 
L 294.723523 165.421361 
L 296.400697 158.242658 
L 298.077871 157.814353 
L 299.755045 160.261623 
L 301.432219 156.076844 
L 303.109393 159.944952 
L 304.786567 160.039012 
L 306.46374 159.838255 
L 308.140914 160.534588 
L 309.818088 168.144229 
L 311.495262 143.044965 
L 313.172436 166.020014 
L 314.84961 163.627574 
L 316.526783 163.604405 
L 318.203957 146.215029 
L 319.881131 121.733178 
L 321.558305 143.166539 
L 323.235479 140.532597 
L 324.912653 154.443136 
L 326.589827 148.593384 
L 328.267 128.033878 
L 329.944174 152.345974 
L 331.621348 140.711173 
L 333.298522 138.0744 
L 334.975696 145.390606 
L 336.65287 140.873227 
L 338.330044 142.739155 
L 340.007217 146.062388 
L 341.684391 150.496172 
L 343.361565 163.48678 
L 345.038739 139.012696 
L 346.715913 161.93173 
L 348.393087 161.489405 
L 351.747434 149.93043 
L 353.424608 153.530906 
L 355.101782 143.573254 
L 356.778956 127.890781 
L 358.45613 160.653265 
L 360.133304 153.353844 
L 361.810477 150.954032 
L 363.487651 121.977773 
L 365.164825 149.24792 
L 366.841999 148.511106 
L 368.519173 130.634119 
L 370.196347 125.618532 
L 371.873521 135.396357 
L 373.550694 115.26858 
L 375.227868 130.758918 
L 376.905042 153.740155 
L 378.582216 128.154596 
L 380.25939 132.509526 
L 381.936564 112.686769 
L 383.613737 184.96207 
L 385.290911 150.62604 
L 386.968085 150.069513 
L 388.645259 140.970775 
L 390.322433 139.51018 
L 391.999607 123.87161 
L 393.676781 135.413405 
L 395.353954 160.957891 
L 397.031128 114.671112 
L 398.708302 159.383094 
L 400.385476 147.677072 
L 402.06265 140.037416 
L 403.739824 117.164457 
L 405.416997 141.122956 
L 407.094171 135.904702 
L 408.771345 134.546263 
L 410.448519 144.208176 
L 412.125693 142.098771 
L 413.802867 140.603948 
L 415.480041 160.361475 
L 417.157214 138.810095 
L 418.834388 112.469885 
L 420.511562 152.950551 
L 422.188736 153.106879 
L 423.86591 141.564953 
L 425.543084 129.111849 
L 427.220258 123.315281 
L 428.897431 150.454046 
L 430.574605 122.351775 
L 432.251779 114.124655 
L 433.928953 150.187203 
L 435.606127 139.412237 
L 437.283301 141.751427 
L 438.960474 159.650398 
L 440.637648 156.045776 
L 442.314822 145.483547 
L 443.991996 137.960462 
L 445.66917 129.196299 
L 447.346344 96.575332 
L 449.023518 139.292506 
L 450.700691 144.9935 
L 452.377865 152.771054 
L 454.055039 130.380177 
L 455.732213 131.055513 
L 457.409387 139.655845 
L 459.086561 141.683564 
L 460.763734 114.53453 
L 462.440908 139.285924 
L 464.118082 122.991699 
L 467.47243 140.286356 
L 469.149604 139.984034 
L 470.826778 119.015115 
L 472.503951 131.440771 
L 474.181125 118.379601 
L 475.858299 108.136545 
L 477.535473 116.742471 
L 479.212647 124.100474 
L 480.889821 158.499233 
L 482.566995 155.228922 
L 484.244168 132.926115 
L 485.921342 129.970434 
L 487.598516 107.153753 
L 489.27569 112.798338 
L 490.952864 96.074622 
L 492.630038 139.212532 
L 494.307211 141.575287 
L 495.984385 157.231958 
L 497.661559 127.255004 
L 499.338733 154.001403 
L 501.015907 111.101572 
L 502.693081 125.201746 
L 504.370255 164.007237 
L 506.047428 142.025576 
L 507.724602 118.552385 
L 509.401776 143.675147 
L 511.07895 136.392247 
L 512.756124 139.637744 
L 514.433298 132.729043 
L 516.110472 166.561534 
L 517.787645 137.326265 
L 519.464819 139.678948 
L 521.141993 140.128646 
L 522.819167 75.527623 
L 524.496341 114.651562 
L 526.173515 143.820351 
L 527.850688 114.568429 
L 529.527862 135.847437 
L 531.205036 112.648658 
L 532.88221 139.082138 
L 534.559384 135.778258 
L 536.236558 135.439537 
L 537.913732 124.390355 
L 539.590905 135.287816 
L 541.268079 122.381856 
L 542.945253 97.951675 
L 544.622427 153.837572 
L 546.299601 115.673979 
L 547.976775 115.396012 
L 549.653948 142.831306 
L 551.331122 68.072335 
L 553.008296 126.981578 
L 554.68547 116.625637 
L 556.362644 45.826333 
L 556.362644 45.826333 
" clip-path="url(#pae500adf95)" style="fill: none; stroke: #ff7f0e; stroke-width: 1.5; stroke-linecap: square"/>
   </g>
   <g id="line2d_11">
    <path d="M 56.564837 255.815677 
L 58.242011 253.287775 
L 59.919185 247.715463 
L 61.596358 245.084615 
L 63.273532 238.614685 
L 64.950706 236.822609 
L 66.62788 233.891875 
L 68.305054 225.35289 
L 69.982228 215.782997 
L 71.659402 204.433732 
L 73.336575 197.031957 
L 75.013749 195.217831 
L 76.690923 194.863378 
L 80.045271 187.765899 
L 81.722445 169.573888 
L 83.399619 173.512426 
L 85.076792 145.851427 
L 86.753966 148.849827 
L 88.43114 153.30191 
L 90.108314 163.71854 
L 91.785488 153.624571 
L 93.462662 156.760408 
L 95.139835 145.021804 
L 96.817009 147.576496 
L 98.494183 140.375479 
L 100.171357 130.473184 
L 101.848531 150.608136 
L 103.525705 136.664686 
L 105.202879 130.848568 
L 106.880052 151.39096 
L 108.557226 149.95959 
L 110.2344 165.858223 
L 111.911574 173.048182 
L 113.588748 150.224327 
L 115.265922 161.51501 
L 116.943095 175.011725 
L 118.620269 160.311253 
L 120.297443 161.863868 
L 121.974617 168.046022 
L 123.651791 195.480132 
L 125.328965 169.378791 
L 127.006139 150.178119 
L 128.683312 169.23339 
L 130.360486 169.451327 
L 132.03766 165.352511 
L 133.714834 173.630446 
L 135.392008 161.063864 
L 137.069182 159.6009 
L 138.746356 153.992188 
L 140.423529 176.472715 
L 142.100703 155.451664 
L 143.777877 156.132134 
L 145.455051 172.306695 
L 147.132225 161.77718 
L 148.809399 162.85673 
L 152.163746 151.262343 
L 153.84092 161.102963 
L 155.518094 175.795865 
L 157.195268 168.468601 
L 158.872442 165.726316 
L 160.549616 169.134261 
L 162.226789 166.878073 
L 163.903963 152.21196 
L 165.581137 168.326425 
L 167.258311 163.883886 
L 168.935485 153.533605 
L 170.612659 150.889197 
L 172.289832 156.134109 
L 173.967006 173.188449 
L 175.64418 171.331802 
L 177.321354 162.031451 
L 178.998528 162.130645 
L 180.675702 157.739711 
L 182.352876 132.551455 
L 184.030049 138.786926 
L 185.707223 159.446152 
L 187.384397 165.307884 
L 189.061571 140.390355 
L 190.738745 156.332761 
L 192.415919 149.519371 
L 194.093093 149.988815 
L 195.770266 163.696095 
L 197.44744 150.505124 
L 199.124614 151.606001 
L 200.801788 147.906595 
L 202.478962 151.580594 
L 204.156136 170.732491 
L 205.833309 156.513969 
L 207.510483 171.398743 
L 209.187657 154.719787 
L 210.864831 167.363775 
L 212.542005 145.966287 
L 214.219179 155.478783 
L 215.896353 140.794372 
L 217.573526 164.070426 
L 219.2507 156.60691 
L 220.927874 154.381856 
L 222.605048 168.122705 
L 224.282222 147.547337 
L 225.959396 157.546786 
L 227.63657 127.96753 
L 229.313743 175.084064 
L 230.990917 144.514907 
L 232.668091 155.113865 
L 234.345265 150.367753 
L 236.022439 161.945553 
L 237.699613 138.165761 
L 239.376786 140.242387 
L 241.05396 160.563681 
L 242.731134 161.462747 
L 244.408308 149.764756 
L 246.085482 153.310072 
L 247.762656 166.88946 
L 249.43983 160.010577 
L 251.117003 164.67994 
L 252.794177 166.757882 
L 256.148525 157.680339 
L 257.825699 167.516088 
L 259.502873 169.113066 
L 261.180046 156.592166 
L 262.85722 158.837559 
L 264.534394 136.432465 
L 266.211568 145.10033 
L 267.888742 131.388574 
L 269.565916 154.581758 
L 271.24309 160.136232 
L 272.920263 149.278725 
L 274.597437 160.653858 
L 276.274611 125.919076 
L 277.951785 168.808836 
L 279.628959 154.500138 
L 281.306133 171.214704 
L 282.983307 134.836802 
L 284.66048 192.999029 
L 286.337654 150.387434 
L 288.014828 141.148693 
L 289.692002 171.997528 
L 291.369176 127.61775 
L 293.04635 160.411369 
L 294.723523 157.385587 
L 296.400697 141.49472 
L 298.077871 122.588998 
L 299.755045 134.822124 
L 301.432219 138.147924 
L 303.109393 154.652582 
L 304.786567 148.968373 
L 306.46374 152.974774 
L 308.140914 170.090658 
L 309.818088 155.041723 
L 311.495262 151.200404 
L 313.172436 152.823251 
L 314.84961 147.912848 
L 316.526783 159.318127 
L 318.203957 164.173635 
L 319.881131 142.65227 
L 321.558305 156.677932 
L 323.235479 152.30602 
L 324.912653 147.131538 
L 326.589827 142.907923 
L 328.267 152.601562 
L 329.944174 159.511447 
L 331.621348 126.74271 
L 333.298522 151.929517 
L 334.975696 135.632396 
L 336.65287 140.334933 
L 338.330044 163.444259 
L 340.007217 154.645145 
L 341.684391 131.012466 
L 343.361565 175.059973 
L 345.038739 156.538916 
L 346.715913 150.177593 
L 348.393087 162.993904 
L 350.07026 162.407888 
L 351.747434 163.570572 
L 353.424608 163.051498 
L 355.101782 159.733795 
L 356.778956 143.021927 
L 358.45613 158.356662 
L 361.810477 136.072286 
L 363.487651 147.32986 
L 365.164825 160.420584 
L 366.841999 168.633354 
L 368.519173 158.903777 
L 370.196347 157.507095 
L 371.873521 154.430432 
L 373.550694 164.423365 
L 375.227868 178.157764 
L 376.905042 139.009997 
L 378.582216 163.851567 
L 380.25939 158.220015 
L 381.936564 138.837872 
L 383.613737 161.879138 
L 385.290911 176.622395 
L 386.968085 151.940575 
L 388.645259 161.047475 
L 390.322433 167.065995 
L 391.999607 153.752595 
L 393.676781 164.863452 
L 395.353954 156.24469 
L 397.031128 152.010676 
L 398.708302 154.126465 
L 400.385476 167.147549 
L 402.06265 156.943591 
L 403.739824 156.281946 
L 405.416997 156.165704 
L 407.094171 156.822478 
L 408.771345 158.081789 
L 410.448519 151.646087 
L 412.125693 158.705586 
L 413.802867 156.181172 
L 415.480041 171.298562 
L 417.157214 138.925087 
L 418.834388 145.417527 
L 420.511562 153.70494 
L 422.188736 133.293995 
L 423.86591 126.07106 
L 427.220258 161.190441 
L 428.897431 159.78823 
L 430.574605 147.433267 
L 432.251779 160.101083 
L 433.928953 151.464417 
L 435.606127 146.281444 
L 437.283301 151.917669 
L 438.960474 146.487402 
L 440.637648 145.511324 
L 442.314822 142.88765 
L 443.991996 163.307349 
L 445.66917 139.395452 
L 447.346344 166.207542 
L 449.023518 158.139975 
L 450.700691 170.231254 
L 452.377865 156.163597 
L 454.055039 155.350298 
L 455.732213 161.058401 
L 457.409387 143.178979 
L 459.086561 158.482185 
L 460.763734 142.417548 
L 462.440908 138.188668 
L 464.118082 140.383246 
L 465.795256 136.950486 
L 467.47243 135.879558 
L 469.149604 154.498032 
L 470.826778 149.067501 
L 472.503951 138.068279 
L 474.181125 139.786502 
L 475.858299 160.498517 
L 477.535473 153.558683 
L 479.212647 133.355144 
L 480.889821 153.833952 
L 482.566995 159.053456 
L 484.244168 177.425689 
L 485.921342 148.151717 
L 487.598516 157.534279 
L 489.27569 162.88997 
L 490.952864 163.679969 
L 492.630038 168.011334 
L 494.307211 154.011672 
L 495.984385 152.880451 
L 497.661559 162.031385 
L 499.338733 157.336681 
L 501.015907 141.957582 
L 502.693081 166.060956 
L 504.370255 160.269193 
L 506.047428 153.10813 
L 507.724602 160.420979 
L 509.401776 151.753574 
L 511.07895 149.300973 
L 512.756124 166.349652 
L 514.433298 181.252659 
L 516.110472 165.480272 
L 517.787645 163.638237 
L 519.464819 157.424225 
L 521.141993 149.285044 
L 522.819167 166.585954 
L 524.496341 163.090728 
L 526.173515 161.499278 
L 527.850688 140.090074 
L 529.527862 147.574456 
L 531.205036 159.599517 
L 532.88221 160.712176 
L 534.559384 152.947524 
L 536.236558 165.991316 
L 537.913732 143.7646 
L 539.590905 164.679545 
L 541.268079 170.661337 
L 542.945253 155.865884 
L 544.622427 168.117176 
L 546.299601 149.513381 
L 547.976775 161.485851 
L 549.653948 162.24873 
L 551.331122 158.926551 
L 553.008296 156.420502 
L 554.68547 157.150075 
L 556.362644 154.871244 
L 556.362644 154.871244 
" clip-path="url(#pae500adf95)" style="fill: none; stroke-dasharray: 5.55,2.4; stroke-dashoffset: 0; stroke: #2ca02c; stroke-width: 1.5"/>
   </g>
   <g id="patch_3">
    <path d="M 55.72625 301 
L 55.72625 4.8 
" style="fill: none; stroke: #000000; stroke-width: 0.8; stroke-linejoin: miter; stroke-linecap: square"/>
   </g>
   <g id="patch_4">
    <path d="M 557.201231 301 
L 557.201231 4.8 
" style="fill: none; stroke: #000000; stroke-width: 0.8; stroke-linejoin: miter; stroke-linecap: square"/>
   </g>
   <g id="patch_5">
    <path d="M 55.72625 301 
L 557.201231 301 
" style="fill: none; stroke: #000000; stroke-width: 0.8; stroke-linejoin: miter; stroke-linecap: square"/>
   </g>
   <g id="patch_6">
    <path d="M 55.72625 4.8 
L 557.201231 4.8 
" style="fill: none; stroke: #000000; stroke-width: 0.8; stroke-linejoin: miter; stroke-linecap: square"/>
   </g>
  </g>
  <g id="axes_2">
   <g id="patch_7">
    <path d="M 573.725019 301 
L 1075.2 301 
L 1075.2 4.8 
L 573.725019 4.8 
L 573.725019 301 
z
" style="fill: none"/>
   </g>
   <g id="matplotlib.axis_3">
    <g id="xtick_4">
     <g id="line2d_12">
      <g>
       <use xlink:href="#m10dc62b3e8" x="740.603817" y="301" style="stroke: #000000; stroke-width: 0.8"/>
      </g>
     </g>
     <g id="text_11">
      <!-- 100 -->
      <g transform="translate(717.929442 325.9775) scale(0.24 -0.24)">
       <use xlink:href="#IPAexGothic-31"/>
       <use xlink:href="#IPAexGothic-30" x="62.988281"/>
       <use xlink:href="#IPAexGothic-30" x="125.976562"/>
      </g>
     </g>
    </g>
    <g id="xtick_5">
     <g id="line2d_13">
      <g>
       <use xlink:href="#m10dc62b3e8" x="908.321202" y="301" style="stroke: #000000; stroke-width: 0.8"/>
      </g>
     </g>
     <g id="text_12">
      <!-- 200 -->
      <g transform="translate(885.646827 325.9775) scale(0.24 -0.24)">
       <use xlink:href="#IPAexGothic-32"/>
       <use xlink:href="#IPAexGothic-30" x="62.988281"/>
       <use xlink:href="#IPAexGothic-30" x="125.976562"/>
      </g>
     </g>
    </g>
    <g id="xtick_6">
     <g id="line2d_14">
      <g>
       <use xlink:href="#m10dc62b3e8" x="574.563606" y="301" style="stroke: #000000; stroke-width: 0.8"/>
      </g>
     </g>
     <g id="text_13">
      <!-- 1 -->
      <g transform="translate(567.005481 325.9775) scale(0.24 -0.24)">
       <use xlink:href="#IPAexGothic-31"/>
      </g>
     </g>
    </g>
    <g id="text_14">
     <!-- バッチ目 -->
     <g transform="translate(776.46251 352.515) scale(0.24 -0.24)">
      <use xlink:href="#IPAexGothic-30d0"/>
      <use xlink:href="#IPAexGothic-30c3" x="100"/>
      <use xlink:href="#IPAexGothic-30c1" x="200"/>
      <use xlink:href="#IPAexGothic-76ee" x="300"/>
     </g>
    </g>
   </g>
   <g id="matplotlib.axis_4">
    <g id="ytick_6">
     <g id="line2d_15">
      <g>
       <use xlink:href="#meb5b89d413" x="573.725019" y="301" style="stroke: #000000; stroke-width: 0.8"/>
      </g>
     </g>
    </g>
    <g id="ytick_7">
     <g id="line2d_16">
      <g>
       <use xlink:href="#meb5b89d413" x="573.725019" y="235.177778" style="stroke: #000000; stroke-width: 0.8"/>
      </g>
     </g>
    </g>
    <g id="ytick_8">
     <g id="line2d_17">
      <g>
       <use xlink:href="#meb5b89d413" x="573.725019" y="169.355556" style="stroke: #000000; stroke-width: 0.8"/>
      </g>
     </g>
    </g>
    <g id="ytick_9">
     <g id="line2d_18">
      <g>
       <use xlink:href="#meb5b89d413" x="573.725019" y="103.533333" style="stroke: #000000; stroke-width: 0.8"/>
      </g>
     </g>
    </g>
    <g id="ytick_10">
     <g id="line2d_19">
      <g>
       <use xlink:href="#meb5b89d413" x="573.725019" y="37.711111" style="stroke: #000000; stroke-width: 0.8"/>
      </g>
     </g>
    </g>
   </g>
   <g id="line2d_20">
    <path d="M 574.563606 151.000107 
L 576.24078 172.062626 
L 577.917954 179.547008 
L 579.595128 157.365972 
L 581.272302 163.964913 
L 582.949475 158.411492 
L 584.626649 177.857154 
L 586.303823 163.277861 
L 587.980997 174.073166 
L 589.658171 173.632881 
L 591.335345 168.450632 
L 593.012518 160.891015 
L 594.689692 154.169974 
L 596.366866 162.54131 
L 598.04404 153.124849 
L 599.721214 173.92783 
L 601.398388 175.378091 
L 603.075562 160.368716 
L 604.752735 156.440643 
L 606.429909 150.979505 
L 608.107083 149.467371 
L 609.784257 176.710531 
L 611.461431 172.60092 
L 613.138605 173.868788 
L 614.815778 153.919784 
L 616.492952 174.684918 
L 618.170126 177.222167 
L 619.8473 151.511217 
L 621.524474 170.636653 
L 623.201648 173.681655 
L 624.878822 180.099388 
L 626.555995 170.660086 
L 628.233169 174.066979 
L 629.910343 171.729368 
L 631.587517 160.727447 
L 633.264691 167.96019 
L 634.941865 178.710802 
L 636.619039 167.922079 
L 638.296212 158.636999 
L 639.973386 158.640027 
L 641.65056 153.857384 
L 643.327734 177.747955 
L 645.004908 179.779426 
L 646.682082 157.055357 
L 648.359255 164.897746 
L 650.036429 153.220686 
L 651.713603 164.680796 
L 653.390777 173.666253 
L 655.067951 163.823988 
L 656.745125 172.220073 
L 658.422299 160.53393 
L 660.099472 152.562069 
L 661.776646 177.278116 
L 663.45382 175.526718 
L 665.130994 174.355609 
L 666.808168 158.135236 
L 668.485342 167.275244 
L 670.162516 163.649625 
L 671.839689 147.195846 
L 673.516863 152.46689 
L 675.194037 174.158735 
L 676.871211 149.491528 
L 678.548385 176.058298 
L 680.225559 166.539615 
L 681.902732 161.009561 
L 683.579906 168.943574 
L 685.25708 161.873938 
L 686.934254 174.001683 
L 688.611428 169.497797 
L 690.288602 157.817052 
L 691.965776 179.756783 
L 693.642949 178.829545 
L 695.320123 175.139552 
L 696.997297 167.43664 
L 698.674471 160.379642 
L 700.351645 178.655446 
L 702.028819 159.616105 
L 703.705992 173.526183 
L 705.383166 157.190227 
L 707.06034 161.518301 
L 708.737514 158.334019 
L 710.414688 174.79721 
L 712.091862 159.139354 
L 713.769036 179.22856 
L 715.446209 156.939905 
L 717.123383 153.219435 
L 718.800557 160.252013 
L 720.477731 175.927444 
L 722.154905 173.975091 
L 723.832079 148.629783 
L 725.509253 157.854373 
L 727.186426 149.763045 
L 728.8636 159.5125 
L 730.540774 165.955377 
L 732.217948 169.707112 
L 735.572296 182.278169 
L 737.249469 171.771099 
L 738.926643 157.289289 
L 740.603817 152.746371 
L 742.280991 160.322443 
L 743.958165 172.927728 
L 745.635339 178.16823 
L 747.312513 160.768718 
L 748.989686 176.136956 
L 750.66686 181.74027 
L 752.344034 174.793919 
L 754.021208 174.864876 
L 755.698382 157.408098 
L 757.375556 169.011569 
L 759.052729 175.468465 
L 760.729903 159.628611 
L 762.407077 167.838748 
L 764.084251 160.532482 
L 765.761425 168.572271 
L 767.438599 157.944944 
L 769.115773 158.696897 
L 770.792946 168.06465 
L 772.47012 159.461488 
L 774.147294 164.739641 
L 775.824468 172.212043 
L 777.501642 153.691907 
L 779.178816 157.841143 
L 780.85599 156.048079 
L 782.533163 164.963897 
L 784.210337 174.885215 
L 785.887511 181.697486 
L 787.564685 173.987597 
L 789.241859 172.912128 
L 790.919033 176.879825 
L 792.596206 157.643478 
L 794.27338 172.655289 
L 795.950554 191.672185 
L 797.627728 155.106361 
L 799.304902 174.086067 
L 800.982076 157.138819 
L 802.65925 153.411965 
L 804.336423 173.703903 
L 806.013597 175.805607 
L 807.690771 166.692191 
L 809.367945 164.955998 
L 811.045119 168.586818 
L 812.722293 168.524747 
L 814.399467 171.327063 
L 816.07664 149.423797 
L 817.753814 158.64707 
L 819.430988 171.592853 
L 821.108162 172.418527 
L 822.785336 161.108492 
L 824.46251 159.538698 
L 826.139683 166.810671 
L 827.816857 183.3514 
L 829.494031 161.063733 
L 831.171205 173.19207 
L 832.848379 172.902781 
L 834.525553 166.761897 
L 836.202727 171.629318 
L 837.8799 161.335908 
L 839.557074 162.265186 
L 841.234248 168.287327 
L 842.911422 170.922322 
L 844.588596 150.330564 
L 846.26577 166.316609 
L 847.942943 137.481737 
L 849.620117 183.226009 
L 851.297291 167.560913 
L 852.974465 177.027794 
L 854.651639 153.866797 
L 856.328813 180.281847 
L 858.005987 168.308785 
L 859.68316 170.115276 
L 861.360334 157.986083 
L 863.037508 169.261364 
L 864.714682 175.02976 
L 866.391856 165.539841 
L 868.06903 171.076609 
L 869.746204 165.012013 
L 871.423377 178.40644 
L 873.100551 158.961371 
L 874.777725 161.530544 
L 876.454899 134.737608 
L 878.132073 166.371439 
L 879.809247 149.187298 
L 881.48642 166.580425 
L 883.163594 154.359344 
L 884.840768 158.198294 
L 886.517942 150.02449 
L 888.195116 152.924552 
L 889.87229 147.028131 
L 891.549464 148.127362 
L 893.226637 165.226462 
L 894.903811 143.536065 
L 896.580985 133.98559 
L 898.258159 151.969274 
L 899.935333 149.70828 
L 901.612507 141.927304 
L 903.28968 155.484904 
L 904.966854 157.259011 
L 906.644028 155.677171 
L 908.321202 155.662493 
L 909.998376 162.696256 
L 911.67555 154.952008 
L 913.352724 149.651673 
L 915.029897 160.559864 
L 916.707071 161.216045 
L 918.384245 154.198804 
L 920.061419 143.691734 
L 921.738593 161.478281 
L 923.415767 163.284245 
L 925.092941 142.254901 
L 926.770114 146.479635 
L 928.447288 159.451352 
L 930.124462 164.472863 
L 931.801636 182.893607 
L 933.47881 176.144196 
L 935.155984 153.562435 
L 936.833157 145.205185 
L 938.510331 163.021351 
L 940.187505 154.347826 
L 941.864679 148.58147 
L 943.541853 148.076218 
L 945.219027 148.251766 
L 946.896201 151.930175 
L 948.573374 150.673563 
L 950.250548 152.885717 
L 951.927722 149.163667 
L 953.604896 154.861568 
L 955.28207 181.07902 
L 956.959244 148.170015 
L 958.636418 146.474632 
L 960.313591 161.464458 
L 961.990765 158.514965 
L 963.667939 158.702755 
L 965.345113 180.453972 
L 967.022287 143.432987 
L 968.699461 164.434489 
L 970.376634 162.161845 
L 972.053808 158.9513 
L 973.730982 157.884651 
L 975.408156 158.106669 
L 977.08533 141.247821 
L 978.762504 148.233073 
L 980.439678 152.488874 
L 982.116851 151.000107 
L 983.794025 150.784276 
L 985.471199 153.780109 
L 987.148373 154.179979 
L 988.825547 145.741043 
L 990.502721 146.128276 
L 992.179894 141.227745 
L 993.857068 165.830249 
L 995.534242 160.903192 
L 997.211416 152.178457 
L 998.88859 164.788546 
L 1000.565764 149.500677 
L 1002.242938 170.794166 
L 1003.920111 137.386426 
L 1005.597285 156.538126 
L 1007.274459 127.712732 
L 1008.951633 155.655713 
L 1010.628807 144.885947 
L 1012.305981 167.557556 
L 1013.983155 165.560378 
L 1015.660328 149.890674 
L 1017.337502 176.609428 
L 1019.014676 142.629495 
L 1020.69185 153.139461 
L 1022.369024 139.403351 
L 1024.046198 165.995068 
L 1025.723371 150.66086 
L 1027.400545 160.035524 
L 1029.077719 151.207447 
L 1030.754893 168.660407 
L 1032.432067 145.636189 
L 1034.109241 151.772334 
L 1035.786415 176.329486 
L 1037.463588 157.224257 
L 1039.140762 177.563916 
L 1040.817936 155.056928 
L 1042.49511 149.34277 
L 1044.172284 171.460155 
L 1045.849458 155.441593 
L 1047.526631 173.47991 
L 1049.203805 158.799514 
L 1050.880979 150.005929 
L 1052.558153 172.247652 
L 1054.235327 152.73709 
L 1055.912501 190.14116 
L 1057.589675 160.058101 
L 1059.266848 169.229572 
L 1060.944022 137.56408 
L 1062.621196 149.056114 
L 1064.29837 179.524891 
L 1065.975544 164.062593 
L 1067.652718 164.209574 
L 1069.329892 156.87507 
L 1071.007065 177.720178 
L 1072.684239 150.877612 
L 1074.361413 144.847968 
L 1074.361413 144.847968 
" clip-path="url(#p6d215f0add)" style="fill: none; stroke-dasharray: 1.5,2.475; stroke-dashoffset: 0; stroke: #1f77b4; stroke-width: 1.5"/>
   </g>
   <g id="line2d_21">
    <path d="M 574.563606 169.047047 
L 576.24078 170.838925 
L 577.917954 174.619819 
L 579.595128 178.727587 
L 581.272302 180.158299 
L 582.949475 173.047524 
L 584.626649 162.763789 
L 586.303823 167.830652 
L 589.658171 158.128654 
L 591.335345 151.312236 
L 593.012518 147.504158 
L 594.689692 156.990785 
L 596.366866 162.550657 
L 598.04404 155.584625 
L 599.721214 159.845166 
L 601.398388 162.399792 
L 603.075562 144.786029 
L 604.752735 155.202198 
L 606.429909 166.609058 
L 608.107083 152.139358 
L 609.784257 156.273521 
L 611.461431 166.439499 
L 613.138605 139.606083 
L 614.815778 149.525624 
L 616.492952 138.960367 
L 618.170126 147.164054 
L 619.8473 175.988395 
L 621.524474 169.81019 
L 623.201648 145.88888 
L 624.878822 133.274644 
L 626.555995 140.487114 
L 628.233169 152.843525 
L 629.910343 146.501883 
L 631.587517 157.368868 
L 633.264691 156.775678 
L 634.941865 154.571753 
L 636.619039 166.465763 
L 638.296212 145.911391 
L 639.973386 141.952843 
L 641.65056 158.035779 
L 643.327734 152.179839 
L 645.004908 153.054485 
L 646.682082 154.459723 
L 648.359255 153.955525 
L 650.036429 168.076893 
L 651.713603 166.99708 
L 653.390777 166.076161 
L 655.067951 153.298488 
L 656.745125 152.906582 
L 658.422299 156.659502 
L 660.099472 165.804052 
L 661.776646 156.115942 
L 663.45382 158.151494 
L 665.130994 161.330313 
L 666.808168 155.035799 
L 668.485342 159.809161 
L 670.162516 166.56963 
L 671.839689 149.349549 
L 673.516863 155.073713 
L 675.194037 153.608379 
L 676.871211 150.327997 
L 678.548385 157.348792 
L 680.225559 154.267522 
L 681.902732 143.758478 
L 683.579906 175.637102 
L 685.25708 171.253474 
L 686.934254 172.09534 
L 688.611428 154.142921 
L 690.288602 152.842142 
L 691.965776 159.195632 
L 693.642949 154.085985 
L 695.320123 160.442766 
L 696.997297 155.772284 
L 698.674471 150.2134 
L 700.351645 153.154403 
L 702.028819 142.930566 
L 703.705992 156.155765 
L 705.383166 149.40563 
L 707.06034 155.737991 
L 708.737514 156.618626 
L 710.414688 159.417848 
L 712.091862 138.495662 
L 713.769036 150.612809 
L 715.446209 160.504705 
L 717.123383 159.634666 
L 718.800557 138.77804 
L 720.477731 142.028407 
L 722.154905 173.001448 
L 723.832079 176.621605 
L 725.509253 161.314055 
L 727.186426 152.661 
L 728.8636 146.366552 
L 730.540774 155.664665 
L 732.217948 145.799559 
L 733.895122 151.132081 
L 735.572296 165.865859 
L 737.249469 151.907401 
L 738.926643 153.649057 
L 740.603817 155.229317 
L 742.280991 154.156283 
L 743.958165 162.033492 
L 745.635339 170.741969 
L 747.312513 152.797844 
L 748.989686 150.634926 
L 750.66686 158.402738 
L 752.344034 140.756063 
L 754.021208 155.135652 
L 755.698382 165.85118 
L 757.375556 168.933043 
L 759.052729 163.05966 
L 760.729903 142.168345 
L 762.407077 147.997034 
L 764.084251 139.618589 
L 765.761425 153.791628 
L 767.438599 155.34207 
L 769.115773 160.991328 
L 770.792946 160.524649 
L 772.47012 153.069821 
L 774.147294 153.170003 
L 775.824468 171.113601 
L 777.501642 146.516232 
L 779.178816 142.970389 
L 780.85599 151.218769 
L 782.533163 141.505054 
L 784.210337 171.826983 
L 785.887511 150.145537 
L 787.564685 174.758112 
L 789.241859 152.74466 
L 792.596206 175.189577 
L 794.27338 152.223874 
L 795.950554 164.726805 
L 797.627728 155.69185 
L 799.304902 135.338894 
L 800.982076 158.507988 
L 804.336423 141.63321 
L 806.013597 155.561456 
L 807.690771 170.512644 
L 809.367945 157.448052 
L 811.045119 154.607889 
L 812.722293 151.431111 
L 814.399467 155.618524 
L 816.07664 142.760613 
L 817.753814 153.923667 
L 819.430988 147.208616 
L 821.108162 156.336644 
L 822.785336 154.274368 
L 824.46251 170.17728 
L 826.139683 159.053061 
L 827.816857 141.613858 
L 829.494031 154.594922 
L 831.171205 161.212228 
L 832.848379 150.199051 
L 834.525553 164.374327 
L 836.202727 148.218329 
L 837.8799 169.775567 
L 839.557074 149.119632 
L 841.234248 151.352783 
L 842.911422 153.18738 
L 844.588596 180.756491 
L 846.26577 175.917373 
L 847.942943 164.02435 
L 849.620117 172.830179 
L 851.297291 164.391375 
L 852.974465 171.043435 
L 854.651639 162.164149 
L 856.328813 166.651579 
L 858.005987 172.301034 
L 859.68316 173.353268 
L 861.360334 150.137244 
L 863.037508 170.839649 
L 864.714682 160.254054 
L 866.391856 157.664344 
L 868.06903 176.425586 
L 869.746204 171.871807 
L 871.423377 173.851082 
L 873.100551 169.916887 
L 874.777725 173.69166 
L 876.454899 173.090967 
L 878.132073 174.995862 
L 879.809247 163.123573 
L 881.48642 161.49059 
L 883.163594 148.765509 
L 884.840768 168.75914 
L 886.517942 152.731693 
L 888.195116 166.316346 
L 889.87229 158.261023 
L 891.549464 158.926814 
L 893.226637 164.226359 
L 894.903811 175.575229 
L 896.580985 180.063054 
L 898.258159 169.38149 
L 899.935333 173.706339 
L 901.612507 168.978789 
L 903.28968 157.786839 
L 904.966854 159.955221 
L 906.644028 161.269822 
L 908.321202 166.005468 
L 909.998376 160.844018 
L 911.67555 160.188824 
L 913.352724 148.476944 
L 915.029897 160.940843 
L 916.707071 141.518153 
L 918.384245 149.005957 
L 920.061419 155.844425 
L 921.738593 157.279679 
L 923.415767 154.05722 
L 925.092941 163.894417 
L 926.770114 153.864756 
L 928.447288 137.303556 
L 930.124462 159.062013 
L 931.801636 167.065995 
L 933.47881 153.9419 
L 935.155984 147.843932 
L 936.833157 154.322023 
L 938.510331 149.607309 
L 941.864679 167.392869 
L 943.541853 148.471744 
L 945.219027 185.424998 
L 946.896201 152.260208 
L 948.573374 157.9666 
L 950.250548 171.784527 
L 951.927722 175.730767 
L 953.604896 153.155193 
L 955.28207 163.208813 
L 956.959244 157.788485 
L 958.636418 148.773473 
L 960.313591 154.117185 
L 961.990765 158.701439 
L 963.667939 158.828081 
L 965.345113 150.442527 
L 968.699461 170.111853 
L 970.376634 155.903336 
L 972.053808 165.675633 
L 973.730982 172.966826 
L 975.408156 160.526953 
L 977.08533 149.063223 
L 978.762504 165.951823 
L 980.439678 164.092937 
L 982.116851 145.836288 
L 983.794025 161.347097 
L 985.471199 160.657149 
L 987.148373 148.722329 
L 988.825547 155.949609 
L 990.502721 155.259858 
L 992.179894 173.353861 
L 993.857068 170.135746 
L 995.534242 163.191173 
L 997.211416 174.660827 
L 998.88859 173.451738 
L 1000.565764 182.28304 
L 1002.242938 157.546654 
L 1005.597285 161.483744 
L 1007.274459 151.600011 
L 1008.951633 144.115366 
L 1010.628807 151.480083 
L 1012.305981 157.384468 
L 1013.983155 147.624481 
L 1015.660328 170.565236 
L 1017.337502 147.022668 
L 1019.014676 141.840945 
L 1020.69185 162.428162 
L 1022.369024 146.514915 
L 1024.046198 160.398468 
L 1025.723371 147.77054 
L 1027.400545 141.90374 
L 1029.077719 155.047516 
L 1030.754893 157.295016 
L 1032.432067 162.919919 
L 1034.109241 149.564196 
L 1035.786415 145.126132 
L 1037.463588 152.202087 
L 1039.140762 154.134101 
L 1040.817936 153.175071 
L 1042.49511 153.508395 
L 1044.172284 159.342284 
L 1045.849458 150.063326 
L 1047.526631 176.738703 
L 1049.203805 137.027498 
L 1050.880979 158.775818 
L 1052.558153 126.437953 
L 1054.235327 146.49089 
L 1055.912501 147.291157 
L 1057.589675 151.917143 
L 1059.266848 155.124265 
L 1060.944022 163.414113 
L 1062.621196 146.817368 
L 1064.29837 138.707215 
L 1065.975544 148.010989 
L 1067.652718 153.963029 
L 1069.329892 152.505988 
L 1072.684239 156.254169 
L 1074.361413 149.342901 
L 1074.361413 149.342901 
" clip-path="url(#p6d215f0add)" style="fill: none; stroke: #ff7f0e; stroke-width: 1.5; stroke-linecap: square"/>
   </g>
   <g id="line2d_22">
    <path d="M 574.563606 260.107681 
L 576.24078 260.174951 
L 577.917954 260.643935 
L 579.595128 260.134273 
L 581.272302 259.062095 
L 582.949475 257.073803 
L 584.626649 253.978053 
L 586.303823 256.020187 
L 587.980997 256.141037 
L 589.658171 253.965546 
L 591.335345 252.01214 
L 593.012518 252.371793 
L 594.689692 250.381329 
L 596.366866 256.522871 
L 598.04404 249.802422 
L 599.721214 249.474694 
L 601.398388 247.384575 
L 603.075562 249.802554 
L 604.752735 246.835288 
L 606.429909 247.00274 
L 608.107083 244.143028 
L 609.784257 243.254099 
L 611.461431 242.521497 
L 613.138605 243.464006 
L 614.815778 240.673275 
L 616.492952 238.872445 
L 618.170126 233.533078 
L 619.8473 230.949951 
L 621.524474 236.482374 
L 623.201648 232.383098 
L 624.878822 233.011503 
L 626.555995 228.244262 
L 628.233169 228.366692 
L 629.910343 225.735448 
L 631.587517 218.673645 
L 633.264691 226.08141 
L 634.941865 212.465096 
L 636.619039 220.620009 
L 638.296212 207.567067 
L 639.973386 205.734247 
L 641.65056 210.261236 
L 643.327734 195.955237 
L 645.004908 196.271644 
L 646.682082 192.282686 
L 648.359255 184.4765 
L 650.036429 193.714188 
L 651.713603 180.341153 
L 653.390777 172.320583 
L 655.067951 184.54456 
L 656.745125 190.717894 
L 658.422299 166.113219 
L 660.099472 180.739311 
L 661.776646 166.843911 
L 663.45382 177.140745 
L 665.130994 189.074972 
L 666.808168 177.918961 
L 668.485342 175.211824 
L 670.162516 182.83779 
L 671.839689 177.032994 
L 673.516863 182.924214 
L 676.871211 171.492079 
L 678.548385 189.96061 
L 680.225559 185.084434 
L 681.902732 174.483304 
L 683.579906 183.222586 
L 685.25708 171.155925 
L 686.934254 184.951341 
L 688.611428 178.717187 
L 690.288602 178.707577 
L 691.965776 179.100667 
L 693.642949 169.505894 
L 695.320123 159.204518 
L 696.997297 217.849485 
L 698.674471 177.269493 
L 700.351645 176.56401 
L 702.028819 183.218176 
L 703.705992 172.535559 
L 705.383166 174.833676 
L 707.06034 188.123775 
L 708.737514 169.497666 
L 710.414688 179.346447 
L 712.091862 180.73556 
L 713.769036 172.677406 
L 715.446209 189.14764 
L 717.123383 169.01611 
L 718.800557 168.669754 
L 720.477731 164.907751 
L 722.154905 169.041715 
L 723.832079 167.567758 
L 725.509253 178.113729 
L 727.186426 166.643812 
L 728.8636 177.342029 
L 730.540774 165.661415 
L 732.217948 168.957858 
L 733.895122 167.773584 
L 735.572296 165.191115 
L 737.249469 166.717664 
L 738.926643 163.024445 
L 740.603817 159.825617 
L 742.280991 166.225643 
L 743.958165 151.977502 
L 745.635339 167.490483 
L 747.312513 161.71432 
L 748.989686 157.397238 
L 750.66686 162.480293 
L 752.344034 151.969669 
L 754.021208 196.011844 
L 755.698382 208.614891 
L 757.375556 162.111952 
L 759.052729 168.824502 
L 760.729903 153.411044 
L 762.407077 162.355757 
L 764.084251 161.448464 
L 765.761425 168.140346 
L 767.438599 162.067653 
L 769.115773 169.07094 
L 770.792946 147.922458 
L 772.47012 176.668141 
L 774.147294 159.84431 
L 775.824468 185.432633 
L 777.501642 183.605145 
L 779.178816 167.687291 
L 780.85599 150.071093 
L 782.533163 162.464364 
L 784.210337 162.085886 
L 785.887511 168.500722 
L 787.564685 166.518025 
L 789.241859 171.454626 
L 790.919033 161.407654 
L 792.596206 148.902024 
L 794.27338 173.163239 
L 795.950554 165.805697 
L 797.627728 172.90153 
L 799.304902 171.250248 
L 800.982076 161.122775 
L 802.65925 157.072273 
L 804.336423 173.187791 
L 806.013597 167.663003 
L 807.690771 180.653874 
L 809.367945 159.070109 
L 811.045119 164.672963 
L 812.722293 145.999067 
L 814.399467 177.80081 
L 816.07664 156.641598 
L 817.753814 161.808445 
L 819.430988 170.349405 
L 821.108162 161.003637 
L 822.785336 160.342124 
L 824.46251 153.229243 
L 826.139683 143.738468 
L 827.816857 173.296793 
L 829.494031 161.38692 
L 831.171205 160.870545 
L 832.848379 165.059537 
L 834.525553 151.116086 
L 836.202727 158.344419 
L 837.8799 160.327643 
L 839.557074 161.295954 
L 841.234248 162.94842 
L 842.911422 156.309065 
L 844.588596 156.625933 
L 846.26577 148.088396 
L 847.942943 141.820014 
L 849.620117 160.798272 
L 851.297291 162.787156 
L 852.974465 161.639875 
L 854.651639 164.635641 
L 856.328813 161.53785 
L 858.005987 160.083969 
L 859.68316 144.324944 
L 861.360334 164.429815 
L 863.037508 159.098676 
L 864.714682 167.42183 
L 866.391856 158.57947 
L 868.06903 164.497941 
L 869.746204 159.485579 
L 871.423377 164.27125 
L 873.100551 172.300442 
L 874.777725 162.979357 
L 876.454899 157.652167 
L 878.132073 172.661345 
L 879.809247 153.41236 
L 881.48642 161.29049 
L 883.163594 155.572514 
L 884.840768 173.066876 
L 886.517942 157.146586 
L 888.195116 171.632478 
L 889.87229 152.760523 
L 891.549464 153.621148 
L 893.226637 164.827777 
L 894.903811 170.071241 
L 896.580985 157.639792 
L 898.258159 160.733766 
L 899.935333 157.407506 
L 901.612507 170.624081 
L 903.28968 149.010565 
L 904.966854 143.289429 
L 906.644028 153.655639 
L 908.321202 156.281617 
L 909.998376 153.852711 
L 913.352724 177.2196 
L 915.029897 170.982286 
L 916.707071 159.215247 
L 918.384245 154.72525 
L 920.061419 146.785116 
L 921.738593 155.517486 
L 923.415767 157.92816 
L 925.092941 151.669783 
L 926.770114 159.827131 
L 928.447288 155.280395 
L 930.124462 159.468926 
L 931.801636 161.70912 
L 933.47881 172.480071 
L 935.155984 149.731911 
L 936.833157 150.770783 
L 938.510331 152.568651 
L 940.187505 148.864769 
L 941.864679 142.996323 
L 943.541853 151.039074 
L 945.219027 157.698243 
L 946.896201 157.709235 
L 948.573374 149.26793 
L 950.250548 158.537344 
L 951.927722 167.153671 
L 953.604896 174.030513 
L 955.28207 153.499048 
L 956.959244 142.476854 
L 958.636418 172.644824 
L 960.313591 152.623152 
L 961.990765 160.197381 
L 963.667939 157.747148 
L 965.345113 170.189984 
L 967.022287 148.000325 
L 968.699461 150.583716 
L 970.376634 166.428968 
L 972.053808 161.622498 
L 973.730982 150.483798 
L 975.408156 142.766932 
L 977.08533 170.12324 
L 978.762504 167.537546 
L 980.439678 168.719186 
L 982.116851 147.689842 
L 983.794025 165.401615 
L 985.471199 159.786847 
L 987.148373 161.562797 
L 988.825547 150.841673 
L 990.502721 148.377158 
L 992.179894 150.847466 
L 993.857068 144.563681 
L 995.534242 139.255053 
L 997.211416 148.692578 
L 998.88859 143.526916 
L 1000.565764 158.768117 
L 1002.242938 156.862366 
L 1003.920111 153.659062 
L 1005.597285 145.38455 
L 1007.274459 159.665471 
L 1008.951633 146.954542 
L 1010.628807 161.058664 
L 1012.305981 154.519227 
L 1013.983155 146.269004 
L 1015.660328 146.637805 
L 1017.337502 148.503997 
L 1019.014676 156.751587 
L 1020.69185 157.593519 
L 1022.369024 151.240358 
L 1024.046198 157.130921 
L 1025.723371 148.638274 
L 1027.400545 151.514311 
L 1029.077719 139.553623 
L 1030.754893 165.778513 
L 1032.432067 154.16563 
L 1034.109241 160.375693 
L 1035.786415 143.727542 
L 1037.463588 134.011984 
L 1039.140762 148.871417 
L 1040.817936 152.071891 
L 1042.49511 152.90803 
L 1044.172284 150.731158 
L 1045.849458 152.245727 
L 1047.526631 160.779512 
L 1049.203805 159.946269 
L 1050.880979 135.825057 
L 1052.558153 159.454182 
L 1054.235327 170.846692 
L 1055.912501 148.766759 
L 1057.589675 150.422715 
L 1059.266848 153.568951 
L 1060.944022 142.856121 
L 1062.621196 140.444329 
L 1064.29837 158.594807 
L 1065.975544 150.773745 
L 1067.652718 152.55496 
L 1069.329892 168.410151 
L 1071.007065 151.586978 
L 1072.684239 151.361011 
L 1074.361413 149.434197 
L 1074.361413 149.434197 
" clip-path="url(#p6d215f0add)" style="fill: none; stroke-dasharray: 5.55,2.4; stroke-dashoffset: 0; stroke: #2ca02c; stroke-width: 1.5"/>
   </g>
   <g id="patch_8">
    <path d="M 573.725019 301 
L 573.725019 4.8 
" style="fill: none; stroke: #000000; stroke-width: 0.8; stroke-linejoin: miter; stroke-linecap: square"/>
   </g>
   <g id="patch_9">
    <path d="M 1075.2 301 
L 1075.2 4.8 
" style="fill: none; stroke: #000000; stroke-width: 0.8; stroke-linejoin: miter; stroke-linecap: square"/>
   </g>
   <g id="patch_10">
    <path d="M 573.725019 301 
L 1075.2 301 
" style="fill: none; stroke: #000000; stroke-width: 0.8; stroke-linejoin: miter; stroke-linecap: square"/>
   </g>
   <g id="patch_11">
    <path d="M 573.725019 4.8 
L 1075.2 4.8 
" style="fill: none; stroke: #000000; stroke-width: 0.8; stroke-linejoin: miter; stroke-linecap: square"/>
   </g>
  </g>
  <g id="legend_1">
   <g id="patch_12">
    <path d="M 889.63125 122.8125 
L 1068 122.8125 
L 1068 12 
L 889.63125 12 
z
" style="fill: #ffffff; stroke: #000000; stroke-linejoin: miter"/>
   </g>
   <g id="line2d_23">
    <path d="M 899.23125 31.1775 
L 923.23125 31.1775 
L 947.23125 31.1775 
" style="fill: none; stroke-dasharray: 1.5,2.475; stroke-dashoffset: 0; stroke: #1f77b4; stroke-width: 1.5"/>
   </g>
   <g id="text_15">
    <!-- α=0 -->
    <g transform="translate(966.43125 39.5775) scale(0.24 -0.24)">
     <defs>
      <path id="IPAexGothic-3b1" d="M 5169 1278 
Q 4872 197 4244 197 
Q 3709 197 3538 1028 
Q 2800 197 2144 197 
Q 1769 197 1522 453 
Q 1241 734 1241 1197 
Q 1241 1966 1784 2681 
Q 2400 3488 3103 3488 
Q 3531 3488 3725 3147 
Q 3884 2875 3922 2259 
Q 4269 2775 4466 3366 
L 5081 3366 
Q 4559 2316 3981 1509 
Q 4019 709 4263 709 
Q 4547 709 4653 1278 
L 5169 1278 
z
M 3475 1650 
Q 3475 2169 3384 2616 
Q 3309 2994 3013 2994 
Q 2653 2994 2297 2559 
Q 1803 1950 1803 1241 
Q 1803 709 2231 709 
Q 2497 709 2797 922 
Q 3047 1097 3281 1381 
Q 3475 1622 3475 1650 
z
" transform="scale(0.015625)"/>
      <path id="IPAexGothic-3d" d="M 416 2803 
L 3922 2803 
L 3922 2438 
L 416 2438 
L 416 2803 
z
M 416 1625 
L 3922 1625 
L 3922 1259 
L 416 1259 
L 416 1625 
z
" transform="scale(0.015625)"/>
     </defs>
     <use xlink:href="#IPAexGothic-3b1"/>
     <use xlink:href="#IPAexGothic-3d" x="100"/>
     <use xlink:href="#IPAexGothic-30" x="167.822266"/>
    </g>
   </g>
   <g id="line2d_24">
    <path d="M 899.23125 65.715 
L 923.23125 65.715 
L 947.23125 65.715 
" style="fill: none; stroke: #ff7f0e; stroke-width: 1.5; stroke-linecap: square"/>
   </g>
   <g id="text_16">
    <!-- α=0.4 -->
    <g transform="translate(966.43125 74.115) scale(0.24 -0.24)">
     <defs>
      <path id="IPAexGothic-2e" d="M 1184 63 
L 494 63 
L 494 753 
L 1184 753 
L 1184 63 
z
" transform="scale(0.015625)"/>
     </defs>
     <use xlink:href="#IPAexGothic-3b1"/>
     <use xlink:href="#IPAexGothic-3d" x="100"/>
     <use xlink:href="#IPAexGothic-30" x="167.822266"/>
     <use xlink:href="#IPAexGothic-2e" x="230.810547"/>
     <use xlink:href="#IPAexGothic-34" x="257.226562"/>
    </g>
   </g>
   <g id="line2d_25">
    <path d="M 899.23125 100.2525 
L 923.23125 100.2525 
L 947.23125 100.2525 
" style="fill: none; stroke-dasharray: 5.55,2.4; stroke-dashoffset: 0; stroke: #2ca02c; stroke-width: 1.5"/>
   </g>
   <g id="text_17">
    <!-- α=0.99 -->
    <g transform="translate(966.43125 108.6525) scale(0.24 -0.24)">
     <defs>
      <path id="IPAexGothic-39" d="M 2984 2356 
Q 2544 1716 1813 1716 
Q 1253 1716 847 2056 
Q 366 2459 366 3163 
Q 366 3813 769 4266 
Q 1181 4725 1869 4725 
Q 2800 4725 3241 3950 
Q 3559 3378 3559 2472 
Q 3559 1250 3041 588 
Q 2553 -31 1769 -31 
Q 859 -31 391 703 
L 853 953 
Q 1156 428 1753 428 
Q 2922 428 3009 2356 
L 2984 2356 
z
M 1888 4278 
Q 1450 4278 1172 3950 
Q 922 3653 922 3200 
Q 922 2741 1159 2478 
Q 1434 2163 1906 2163 
Q 2431 2163 2728 2572 
Q 2925 2847 2925 3169 
Q 2925 3553 2694 3863 
Q 2375 4278 1888 4278 
z
" transform="scale(0.015625)"/>
     </defs>
     <use xlink:href="#IPAexGothic-3b1"/>
     <use xlink:href="#IPAexGothic-3d" x="100"/>
     <use xlink:href="#IPAexGothic-30" x="167.822266"/>
     <use xlink:href="#IPAexGothic-2e" x="230.810547"/>
     <use xlink:href="#IPAexGothic-39" x="257.226562"/>
     <use xlink:href="#IPAexGothic-39" x="320.214844"/>
    </g>
   </g>
  </g>
 </g>
 <defs>
  <clipPath id="pae500adf95">
   <rect x="55.72625" y="4.8" width="501.474981" height="296.2"/>
  </clipPath>
  <clipPath id="p6d215f0add">
   <rect x="573.725019" y="4.8" width="501.474981" height="296.2"/>
  </clipPath>
 </defs>
</svg>
