<?xml version="1.0" encoding="utf-8" standalone="no"?>
<!DOCTYPE svg PUBLIC "-//W3C//DTD SVG 1.1//EN"
  "http://www.w3.org/Graphics/SVG/1.1/DTD/svg11.dtd">
<svg xmlns:xlink="http://www.w3.org/1999/xlink" width="460.8pt" height="345.6pt" viewBox="0 0 460.8 345.6" xmlns="http://www.w3.org/2000/svg" version="1.1">
 <metadata>
  <rdf:RDF xmlns:dc="http://purl.org/dc/elements/1.1/" xmlns:cc="http://creativecommons.org/ns#" xmlns:rdf="http://www.w3.org/1999/02/22-rdf-syntax-ns#">
   <cc:Work>
    <dc:type rdf:resource="http://purl.org/dc/dcmitype/StillImage"/>
    <dc:date>2024-02-15T08:03:44.677454</dc:date>
    <dc:format>image/svg+xml</dc:format>
    <dc:creator>
     <cc:Agent>
      <dc:title>Matplotlib v3.7.0, https://matplotlib.org/</dc:title>
     </cc:Agent>
    </dc:creator>
   </cc:Work>
  </rdf:RDF>
 </metadata>
 <defs>
  <style type="text/css">*{stroke-linejoin: round; stroke-linecap: butt}</style>
 </defs>
 <g id="figure_1">
  <g id="patch_1">
   <path d="M 0 345.6 
L 460.8 345.6 
L 460.8 0 
L 0 0 
L 0 345.6 
z
" style="fill: none"/>
  </g>
  <g id="axes_1">
   <g id="patch_2">
    <path d="M 69.12 307.584 
L 414.72 307.584 
L 414.72 41.472 
L 69.12 41.472 
L 69.12 307.584 
z
" style="fill: none"/>
   </g>
   <g id="matplotlib.axis_1">
    <g id="xtick_1">
     <g id="line2d_1">
      <path d="M 126.334716 307.584 
L 126.334716 41.472 
" clip-path="url(#p96dc1cb586)" style="fill: none; stroke: #b0b0b0; stroke-width: 0.8; stroke-linecap: square"/>
     </g>
     <g id="line2d_2">
      <defs>
       <path id="m174b01cd76" d="M 0 0 
L 0 3.5 
" style="stroke: #000000; stroke-width: 0.8"/>
      </defs>
      <g>
       <use xlink:href="#m174b01cd76" x="126.334716" y="307.584" style="stroke: #000000; stroke-width: 0.8"/>
      </g>
     </g>
     <g id="text_1">
      <!-- 50 -->
      <g transform="translate(118.334716 325.694) scale(0.16 -0.16)">
       <defs>
        <path id="TimesNewRomanPSMT-35" d="M 2778 4238 
L 2534 3706 
L 1259 3706 
L 981 3138 
Q 1809 3016 2294 2522 
Q 2709 2097 2709 1522 
Q 2709 1188 2573 903 
Q 2438 619 2231 419 
Q 2025 219 1772 97 
Q 1413 -75 1034 -75 
Q 653 -75 479 54 
Q 306 184 306 341 
Q 306 428 378 495 
Q 450 563 559 563 
Q 641 563 702 538 
Q 763 513 909 409 
Q 1144 247 1384 247 
Q 1750 247 2026 523 
Q 2303 800 2303 1197 
Q 2303 1581 2056 1914 
Q 1809 2247 1375 2428 
Q 1034 2569 447 2591 
L 1259 4238 
L 2778 4238 
z
" transform="scale(0.015625)"/>
        <path id="TimesNewRomanPSMT-30" d="M 231 2094 
Q 231 2819 450 3342 
Q 669 3866 1031 4122 
Q 1313 4325 1613 4325 
Q 2100 4325 2488 3828 
Q 2972 3213 2972 2159 
Q 2972 1422 2759 906 
Q 2547 391 2217 158 
Q 1888 -75 1581 -75 
Q 975 -75 572 641 
Q 231 1244 231 2094 
z
M 844 2016 
Q 844 1141 1059 588 
Q 1238 122 1591 122 
Q 1759 122 1940 273 
Q 2122 425 2216 781 
Q 2359 1319 2359 2297 
Q 2359 3022 2209 3506 
Q 2097 3866 1919 4016 
Q 1791 4119 1609 4119 
Q 1397 4119 1231 3928 
Q 1006 3669 925 3112 
Q 844 2556 844 2016 
z
" transform="scale(0.015625)"/>
       </defs>
       <use xlink:href="#TimesNewRomanPSMT-35"/>
       <use xlink:href="#TimesNewRomanPSMT-30" x="50"/>
      </g>
     </g>
    </g>
    <g id="xtick_2">
     <g id="line2d_3">
      <path d="M 184.127358 307.584 
L 184.127358 41.472 
" clip-path="url(#p96dc1cb586)" style="fill: none; stroke: #b0b0b0; stroke-width: 0.8; stroke-linecap: square"/>
     </g>
     <g id="line2d_4">
      <g>
       <use xlink:href="#m174b01cd76" x="184.127358" y="307.584" style="stroke: #000000; stroke-width: 0.8"/>
      </g>
     </g>
     <g id="text_2">
      <!-- 100 -->
      <g transform="translate(172.127358 325.694) scale(0.16 -0.16)">
       <defs>
        <path id="TimesNewRomanPSMT-31" d="M 750 3822 
L 1781 4325 
L 1884 4325 
L 1884 747 
Q 1884 391 1914 303 
Q 1944 216 2037 169 
Q 2131 122 2419 116 
L 2419 0 
L 825 0 
L 825 116 
Q 1125 122 1212 167 
Q 1300 213 1334 289 
Q 1369 366 1369 747 
L 1369 3034 
Q 1369 3497 1338 3628 
Q 1316 3728 1258 3775 
Q 1200 3822 1119 3822 
Q 1003 3822 797 3725 
L 750 3822 
z
" transform="scale(0.015625)"/>
       </defs>
       <use xlink:href="#TimesNewRomanPSMT-31"/>
       <use xlink:href="#TimesNewRomanPSMT-30" x="50"/>
       <use xlink:href="#TimesNewRomanPSMT-30" x="100"/>
      </g>
     </g>
    </g>
    <g id="xtick_3">
     <g id="line2d_5">
      <path d="M 241.92 307.584 
L 241.92 41.472 
" clip-path="url(#p96dc1cb586)" style="fill: none; stroke: #b0b0b0; stroke-width: 0.8; stroke-linecap: square"/>
     </g>
     <g id="line2d_6">
      <g>
       <use xlink:href="#m174b01cd76" x="241.92" y="307.584" style="stroke: #000000; stroke-width: 0.8"/>
      </g>
     </g>
     <g id="text_3">
      <!-- 150 -->
      <g transform="translate(229.92 325.694) scale(0.16 -0.16)">
       <use xlink:href="#TimesNewRomanPSMT-31"/>
       <use xlink:href="#TimesNewRomanPSMT-35" x="50"/>
       <use xlink:href="#TimesNewRomanPSMT-30" x="100"/>
      </g>
     </g>
    </g>
    <g id="xtick_4">
     <g id="line2d_7">
      <path d="M 299.712642 307.584 
L 299.712642 41.472 
" clip-path="url(#p96dc1cb586)" style="fill: none; stroke: #b0b0b0; stroke-width: 0.8; stroke-linecap: square"/>
     </g>
     <g id="line2d_8">
      <g>
       <use xlink:href="#m174b01cd76" x="299.712642" y="307.584" style="stroke: #000000; stroke-width: 0.8"/>
      </g>
     </g>
     <g id="text_4">
      <!-- 200 -->
      <g transform="translate(287.712642 325.694) scale(0.16 -0.16)">
       <defs>
        <path id="TimesNewRomanPSMT-32" d="M 2934 816 
L 2638 0 
L 138 0 
L 138 116 
Q 1241 1122 1691 1759 
Q 2141 2397 2141 2925 
Q 2141 3328 1894 3587 
Q 1647 3847 1303 3847 
Q 991 3847 742 3664 
Q 494 3481 375 3128 
L 259 3128 
Q 338 3706 661 4015 
Q 984 4325 1469 4325 
Q 1984 4325 2329 3994 
Q 2675 3663 2675 3213 
Q 2675 2891 2525 2569 
Q 2294 2063 1775 1497 
Q 997 647 803 472 
L 1909 472 
Q 2247 472 2383 497 
Q 2519 522 2628 598 
Q 2738 675 2819 816 
L 2934 816 
z
" transform="scale(0.015625)"/>
       </defs>
       <use xlink:href="#TimesNewRomanPSMT-32"/>
       <use xlink:href="#TimesNewRomanPSMT-30" x="50"/>
       <use xlink:href="#TimesNewRomanPSMT-30" x="100"/>
      </g>
     </g>
    </g>
    <g id="xtick_5">
     <g id="line2d_9">
      <path d="M 357.505284 307.584 
L 357.505284 41.472 
" clip-path="url(#p96dc1cb586)" style="fill: none; stroke: #b0b0b0; stroke-width: 0.8; stroke-linecap: square"/>
     </g>
     <g id="line2d_10">
      <g>
       <use xlink:href="#m174b01cd76" x="357.505284" y="307.584" style="stroke: #000000; stroke-width: 0.8"/>
      </g>
     </g>
     <g id="text_5">
      <!-- 250 -->
      <g transform="translate(345.505284 325.694) scale(0.16 -0.16)">
       <use xlink:href="#TimesNewRomanPSMT-32"/>
       <use xlink:href="#TimesNewRomanPSMT-35" x="50"/>
       <use xlink:href="#TimesNewRomanPSMT-30" x="100"/>
      </g>
     </g>
    </g>
    <g id="text_6">
     <!-- batch iteration -->
     <g transform="translate(190.191094 345.61525) scale(0.18 -0.18)">
      <defs>
       <path id="TimesNewRomanPSMT-62" d="M 984 2369 
Q 1400 2947 1881 2947 
Q 2322 2947 2650 2570 
Q 2978 2194 2978 1541 
Q 2978 778 2472 313 
Q 2038 -88 1503 -88 
Q 1253 -88 995 3 
Q 738 94 469 275 
L 469 3241 
Q 469 3728 445 3840 
Q 422 3953 372 3993 
Q 322 4034 247 4034 
Q 159 4034 28 3984 
L -16 4094 
L 844 4444 
L 984 4444 
L 984 2369 
z
M 984 2169 
L 984 456 
Q 1144 300 1314 220 
Q 1484 141 1663 141 
Q 1947 141 2192 453 
Q 2438 766 2438 1363 
Q 2438 1913 2192 2208 
Q 1947 2503 1634 2503 
Q 1469 2503 1303 2419 
Q 1178 2356 984 2169 
z
" transform="scale(0.015625)"/>
       <path id="TimesNewRomanPSMT-61" d="M 1822 413 
Q 1381 72 1269 19 
Q 1100 -59 909 -59 
Q 613 -59 420 144 
Q 228 347 228 678 
Q 228 888 322 1041 
Q 450 1253 767 1440 
Q 1084 1628 1822 1897 
L 1822 2009 
Q 1822 2438 1686 2597 
Q 1550 2756 1291 2756 
Q 1094 2756 978 2650 
Q 859 2544 859 2406 
L 866 2225 
Q 866 2081 792 2003 
Q 719 1925 600 1925 
Q 484 1925 411 2006 
Q 338 2088 338 2228 
Q 338 2497 613 2722 
Q 888 2947 1384 2947 
Q 1766 2947 2009 2819 
Q 2194 2722 2281 2516 
Q 2338 2381 2338 1966 
L 2338 994 
Q 2338 584 2353 492 
Q 2369 400 2405 369 
Q 2441 338 2488 338 
Q 2538 338 2575 359 
Q 2641 400 2828 588 
L 2828 413 
Q 2478 -56 2159 -56 
Q 2006 -56 1915 50 
Q 1825 156 1822 413 
z
M 1822 616 
L 1822 1706 
Q 1350 1519 1213 1441 
Q 966 1303 859 1153 
Q 753 1003 753 825 
Q 753 600 887 451 
Q 1022 303 1197 303 
Q 1434 303 1822 616 
z
" transform="scale(0.015625)"/>
       <path id="TimesNewRomanPSMT-74" d="M 1031 3803 
L 1031 2863 
L 1700 2863 
L 1700 2644 
L 1031 2644 
L 1031 788 
Q 1031 509 1111 412 
Q 1191 316 1316 316 
Q 1419 316 1516 380 
Q 1613 444 1666 569 
L 1788 569 
Q 1678 263 1478 108 
Q 1278 -47 1066 -47 
Q 922 -47 784 33 
Q 647 113 581 261 
Q 516 409 516 719 
L 516 2644 
L 63 2644 
L 63 2747 
Q 234 2816 414 2980 
Q 594 3144 734 3369 
Q 806 3488 934 3803 
L 1031 3803 
z
" transform="scale(0.015625)"/>
       <path id="TimesNewRomanPSMT-63" d="M 2631 1088 
Q 2516 522 2178 217 
Q 1841 -88 1431 -88 
Q 944 -88 581 321 
Q 219 731 219 1428 
Q 219 2103 620 2525 
Q 1022 2947 1584 2947 
Q 2006 2947 2278 2723 
Q 2550 2500 2550 2259 
Q 2550 2141 2473 2067 
Q 2397 1994 2259 1994 
Q 2075 1994 1981 2113 
Q 1928 2178 1911 2362 
Q 1894 2547 1784 2644 
Q 1675 2738 1481 2738 
Q 1169 2738 978 2506 
Q 725 2200 725 1697 
Q 725 1184 976 792 
Q 1228 400 1656 400 
Q 1963 400 2206 609 
Q 2378 753 2541 1131 
L 2631 1088 
z
" transform="scale(0.015625)"/>
       <path id="TimesNewRomanPSMT-68" d="M 1041 4444 
L 1041 2350 
Q 1388 2731 1591 2839 
Q 1794 2947 1997 2947 
Q 2241 2947 2416 2812 
Q 2591 2678 2675 2391 
Q 2734 2191 2734 1659 
L 2734 647 
Q 2734 375 2778 275 
Q 2809 200 2884 156 
Q 2959 113 3159 113 
L 3159 0 
L 1753 0 
L 1753 113 
L 1819 113 
Q 2019 113 2097 173 
Q 2175 234 2206 353 
Q 2216 403 2216 647 
L 2216 1659 
Q 2216 2128 2167 2275 
Q 2119 2422 2012 2495 
Q 1906 2569 1756 2569 
Q 1603 2569 1437 2487 
Q 1272 2406 1041 2159 
L 1041 647 
Q 1041 353 1073 281 
Q 1106 209 1195 161 
Q 1284 113 1503 113 
L 1503 0 
L 84 0 
L 84 113 
Q 275 113 384 172 
Q 447 203 484 290 
Q 522 378 522 647 
L 522 3238 
Q 522 3728 498 3840 
Q 475 3953 426 3993 
Q 378 4034 297 4034 
Q 231 4034 84 3984 
L 41 4094 
L 897 4444 
L 1041 4444 
z
" transform="scale(0.015625)"/>
       <path id="TimesNewRomanPSMT-20" transform="scale(0.015625)"/>
       <path id="TimesNewRomanPSMT-69" d="M 928 4444 
Q 1059 4444 1151 4351 
Q 1244 4259 1244 4128 
Q 1244 3997 1151 3903 
Q 1059 3809 928 3809 
Q 797 3809 703 3903 
Q 609 3997 609 4128 
Q 609 4259 701 4351 
Q 794 4444 928 4444 
z
M 1188 2947 
L 1188 647 
Q 1188 378 1227 289 
Q 1266 200 1342 156 
Q 1419 113 1622 113 
L 1622 0 
L 231 0 
L 231 113 
Q 441 113 512 153 
Q 584 194 626 287 
Q 669 381 669 647 
L 669 1750 
Q 669 2216 641 2353 
Q 619 2453 572 2492 
Q 525 2531 444 2531 
Q 356 2531 231 2484 
L 188 2597 
L 1050 2947 
L 1188 2947 
z
" transform="scale(0.015625)"/>
       <path id="TimesNewRomanPSMT-65" d="M 681 1784 
Q 678 1147 991 784 
Q 1303 422 1725 422 
Q 2006 422 2214 576 
Q 2422 731 2563 1106 
L 2659 1044 
Q 2594 616 2278 264 
Q 1963 -88 1488 -88 
Q 972 -88 605 314 
Q 238 716 238 1394 
Q 238 2128 614 2539 
Q 991 2950 1559 2950 
Q 2041 2950 2350 2633 
Q 2659 2316 2659 1784 
L 681 1784 
z
M 681 1966 
L 2006 1966 
Q 1991 2241 1941 2353 
Q 1863 2528 1708 2628 
Q 1553 2728 1384 2728 
Q 1125 2728 920 2526 
Q 716 2325 681 1966 
z
" transform="scale(0.015625)"/>
       <path id="TimesNewRomanPSMT-72" d="M 1038 2947 
L 1038 2303 
Q 1397 2947 1775 2947 
Q 1947 2947 2059 2842 
Q 2172 2738 2172 2600 
Q 2172 2478 2090 2393 
Q 2009 2309 1897 2309 
Q 1788 2309 1652 2417 
Q 1516 2525 1450 2525 
Q 1394 2525 1328 2463 
Q 1188 2334 1038 2041 
L 1038 669 
Q 1038 431 1097 309 
Q 1138 225 1241 169 
Q 1344 113 1538 113 
L 1538 0 
L 72 0 
L 72 113 
Q 291 113 397 181 
Q 475 231 506 341 
Q 522 394 522 644 
L 522 1753 
Q 522 2253 501 2348 
Q 481 2444 426 2487 
Q 372 2531 291 2531 
Q 194 2531 72 2484 
L 41 2597 
L 906 2947 
L 1038 2947 
z
" transform="scale(0.015625)"/>
       <path id="TimesNewRomanPSMT-6f" d="M 1600 2947 
Q 2250 2947 2644 2453 
Q 2978 2031 2978 1484 
Q 2978 1100 2793 706 
Q 2609 313 2286 112 
Q 1963 -88 1566 -88 
Q 919 -88 538 428 
Q 216 863 216 1403 
Q 216 1797 411 2186 
Q 606 2575 925 2761 
Q 1244 2947 1600 2947 
z
M 1503 2744 
Q 1338 2744 1170 2645 
Q 1003 2547 900 2300 
Q 797 2053 797 1666 
Q 797 1041 1045 587 
Q 1294 134 1700 134 
Q 2003 134 2200 384 
Q 2397 634 2397 1244 
Q 2397 2006 2069 2444 
Q 1847 2744 1503 2744 
z
" transform="scale(0.015625)"/>
       <path id="TimesNewRomanPSMT-6e" d="M 1034 2341 
Q 1538 2947 1994 2947 
Q 2228 2947 2397 2830 
Q 2566 2713 2666 2444 
Q 2734 2256 2734 1869 
L 2734 647 
Q 2734 375 2778 278 
Q 2813 200 2889 156 
Q 2966 113 3172 113 
L 3172 0 
L 1756 0 
L 1756 113 
L 1816 113 
Q 2016 113 2095 173 
Q 2175 234 2206 353 
Q 2219 400 2219 647 
L 2219 1819 
Q 2219 2209 2117 2386 
Q 2016 2563 1775 2563 
Q 1403 2563 1034 2156 
L 1034 647 
Q 1034 356 1069 288 
Q 1113 197 1189 155 
Q 1266 113 1500 113 
L 1500 0 
L 84 0 
L 84 113 
L 147 113 
Q 366 113 442 223 
Q 519 334 519 647 
L 519 1709 
Q 519 2225 495 2337 
Q 472 2450 423 2490 
Q 375 2531 294 2531 
Q 206 2531 84 2484 
L 38 2597 
L 900 2947 
L 1034 2947 
L 1034 2341 
z
" transform="scale(0.015625)"/>
      </defs>
      <use xlink:href="#TimesNewRomanPSMT-62"/>
      <use xlink:href="#TimesNewRomanPSMT-61" x="50"/>
      <use xlink:href="#TimesNewRomanPSMT-74" x="94.384766"/>
      <use xlink:href="#TimesNewRomanPSMT-63" x="122.167969"/>
      <use xlink:href="#TimesNewRomanPSMT-68" x="166.552734"/>
      <use xlink:href="#TimesNewRomanPSMT-20" x="216.552734"/>
      <use xlink:href="#TimesNewRomanPSMT-69" x="241.552734"/>
      <use xlink:href="#TimesNewRomanPSMT-74" x="269.335938"/>
      <use xlink:href="#TimesNewRomanPSMT-65" x="297.119141"/>
      <use xlink:href="#TimesNewRomanPSMT-72" x="341.503906"/>
      <use xlink:href="#TimesNewRomanPSMT-61" x="374.804688"/>
      <use xlink:href="#TimesNewRomanPSMT-74" x="419.189453"/>
      <use xlink:href="#TimesNewRomanPSMT-69" x="446.972656"/>
      <use xlink:href="#TimesNewRomanPSMT-6f" x="474.755859"/>
      <use xlink:href="#TimesNewRomanPSMT-6e" x="524.755859"/>
     </g>
    </g>
   </g>
   <g id="matplotlib.axis_2">
    <g id="ytick_1">
     <g id="line2d_11">
      <path d="M 69.12 307.584 
L 414.72 307.584 
" clip-path="url(#p96dc1cb586)" style="fill: none; stroke: #b0b0b0; stroke-width: 0.8; stroke-linecap: square"/>
     </g>
     <g id="line2d_12">
      <defs>
       <path id="m3027329212" d="M 0 0 
L -3.5 0 
" style="stroke: #000000; stroke-width: 0.8"/>
      </defs>
      <g>
       <use xlink:href="#m3027329212" x="69.12" y="307.584" style="stroke: #000000; stroke-width: 0.8"/>
      </g>
     </g>
     <g id="text_7">
      <!-- 0.0 -->
      <g transform="translate(42.12 313.139) scale(0.16 -0.16)">
       <defs>
        <path id="TimesNewRomanPSMT-2e" d="M 800 606 
Q 947 606 1047 504 
Q 1147 403 1147 259 
Q 1147 116 1045 14 
Q 944 -88 800 -88 
Q 656 -88 554 14 
Q 453 116 453 259 
Q 453 406 554 506 
Q 656 606 800 606 
z
" transform="scale(0.015625)"/>
       </defs>
       <use xlink:href="#TimesNewRomanPSMT-30"/>
       <use xlink:href="#TimesNewRomanPSMT-2e" x="50"/>
       <use xlink:href="#TimesNewRomanPSMT-30" x="75"/>
      </g>
     </g>
    </g>
    <g id="ytick_2">
     <g id="line2d_13">
      <path d="M 69.12 269.568 
L 414.72 269.568 
" clip-path="url(#p96dc1cb586)" style="fill: none; stroke: #b0b0b0; stroke-width: 0.8; stroke-linecap: square"/>
     </g>
     <g id="line2d_14">
      <g>
       <use xlink:href="#m3027329212" x="69.12" y="269.568" style="stroke: #000000; stroke-width: 0.8"/>
      </g>
     </g>
     <g id="text_8">
      <!-- 0.5 -->
      <g transform="translate(42.12 275.123) scale(0.16 -0.16)">
       <use xlink:href="#TimesNewRomanPSMT-30"/>
       <use xlink:href="#TimesNewRomanPSMT-2e" x="50"/>
       <use xlink:href="#TimesNewRomanPSMT-35" x="75"/>
      </g>
     </g>
    </g>
    <g id="ytick_3">
     <g id="line2d_15">
      <path d="M 69.12 231.552 
L 414.72 231.552 
" clip-path="url(#p96dc1cb586)" style="fill: none; stroke: #b0b0b0; stroke-width: 0.8; stroke-linecap: square"/>
     </g>
     <g id="line2d_16">
      <g>
       <use xlink:href="#m3027329212" x="69.12" y="231.552" style="stroke: #000000; stroke-width: 0.8"/>
      </g>
     </g>
     <g id="text_9">
      <!-- 1.0 -->
      <g transform="translate(42.12 237.107) scale(0.16 -0.16)">
       <use xlink:href="#TimesNewRomanPSMT-31"/>
       <use xlink:href="#TimesNewRomanPSMT-2e" x="50"/>
       <use xlink:href="#TimesNewRomanPSMT-30" x="75"/>
      </g>
     </g>
    </g>
    <g id="ytick_4">
     <g id="line2d_17">
      <path d="M 69.12 193.536 
L 414.72 193.536 
" clip-path="url(#p96dc1cb586)" style="fill: none; stroke: #b0b0b0; stroke-width: 0.8; stroke-linecap: square"/>
     </g>
     <g id="line2d_18">
      <g>
       <use xlink:href="#m3027329212" x="69.12" y="193.536" style="stroke: #000000; stroke-width: 0.8"/>
      </g>
     </g>
     <g id="text_10">
      <!-- 1.5 -->
      <g transform="translate(42.12 199.091) scale(0.16 -0.16)">
       <use xlink:href="#TimesNewRomanPSMT-31"/>
       <use xlink:href="#TimesNewRomanPSMT-2e" x="50"/>
       <use xlink:href="#TimesNewRomanPSMT-35" x="75"/>
      </g>
     </g>
    </g>
    <g id="ytick_5">
     <g id="line2d_19">
      <path d="M 69.12 155.52 
L 414.72 155.52 
" clip-path="url(#p96dc1cb586)" style="fill: none; stroke: #b0b0b0; stroke-width: 0.8; stroke-linecap: square"/>
     </g>
     <g id="line2d_20">
      <g>
       <use xlink:href="#m3027329212" x="69.12" y="155.52" style="stroke: #000000; stroke-width: 0.8"/>
      </g>
     </g>
     <g id="text_11">
      <!-- 2.0 -->
      <g transform="translate(42.12 161.075) scale(0.16 -0.16)">
       <use xlink:href="#TimesNewRomanPSMT-32"/>
       <use xlink:href="#TimesNewRomanPSMT-2e" x="50"/>
       <use xlink:href="#TimesNewRomanPSMT-30" x="75"/>
      </g>
     </g>
    </g>
    <g id="ytick_6">
     <g id="line2d_21">
      <path d="M 69.12 117.504 
L 414.72 117.504 
" clip-path="url(#p96dc1cb586)" style="fill: none; stroke: #b0b0b0; stroke-width: 0.8; stroke-linecap: square"/>
     </g>
     <g id="line2d_22">
      <g>
       <use xlink:href="#m3027329212" x="69.12" y="117.504" style="stroke: #000000; stroke-width: 0.8"/>
      </g>
     </g>
     <g id="text_12">
      <!-- 2.5 -->
      <g transform="translate(42.12 123.059) scale(0.16 -0.16)">
       <use xlink:href="#TimesNewRomanPSMT-32"/>
       <use xlink:href="#TimesNewRomanPSMT-2e" x="50"/>
       <use xlink:href="#TimesNewRomanPSMT-35" x="75"/>
      </g>
     </g>
    </g>
    <g id="ytick_7">
     <g id="line2d_23">
      <path d="M 69.12 79.488 
L 414.72 79.488 
" clip-path="url(#p96dc1cb586)" style="fill: none; stroke: #b0b0b0; stroke-width: 0.8; stroke-linecap: square"/>
     </g>
     <g id="line2d_24">
      <g>
       <use xlink:href="#m3027329212" x="69.12" y="79.488" style="stroke: #000000; stroke-width: 0.8"/>
      </g>
     </g>
     <g id="text_13">
      <!-- 3.0 -->
      <g transform="translate(42.12 85.043) scale(0.16 -0.16)">
       <defs>
        <path id="TimesNewRomanPSMT-33" d="M 325 3431 
Q 506 3859 782 4092 
Q 1059 4325 1472 4325 
Q 1981 4325 2253 3994 
Q 2459 3747 2459 3466 
Q 2459 3003 1878 2509 
Q 2269 2356 2469 2072 
Q 2669 1788 2669 1403 
Q 2669 853 2319 450 
Q 1863 -75 997 -75 
Q 569 -75 414 31 
Q 259 138 259 259 
Q 259 350 332 419 
Q 406 488 509 488 
Q 588 488 669 463 
Q 722 447 909 348 
Q 1097 250 1169 231 
Q 1284 197 1416 197 
Q 1734 197 1970 444 
Q 2206 691 2206 1028 
Q 2206 1275 2097 1509 
Q 2016 1684 1919 1775 
Q 1784 1900 1550 2001 
Q 1316 2103 1072 2103 
L 972 2103 
L 972 2197 
Q 1219 2228 1467 2375 
Q 1716 2522 1828 2728 
Q 1941 2934 1941 3181 
Q 1941 3503 1739 3701 
Q 1538 3900 1238 3900 
Q 753 3900 428 3381 
L 325 3431 
z
" transform="scale(0.015625)"/>
       </defs>
       <use xlink:href="#TimesNewRomanPSMT-33"/>
       <use xlink:href="#TimesNewRomanPSMT-2e" x="50"/>
       <use xlink:href="#TimesNewRomanPSMT-30" x="75"/>
      </g>
     </g>
    </g>
    <g id="ytick_8">
     <g id="line2d_25">
      <path d="M 69.12 41.472 
L 414.72 41.472 
" clip-path="url(#p96dc1cb586)" style="fill: none; stroke: #b0b0b0; stroke-width: 0.8; stroke-linecap: square"/>
     </g>
     <g id="line2d_26">
      <g>
       <use xlink:href="#m3027329212" x="69.12" y="41.472" style="stroke: #000000; stroke-width: 0.8"/>
      </g>
     </g>
     <g id="text_14">
      <!-- 3.5 -->
      <g transform="translate(42.12 47.027) scale(0.16 -0.16)">
       <use xlink:href="#TimesNewRomanPSMT-33"/>
       <use xlink:href="#TimesNewRomanPSMT-2e" x="50"/>
       <use xlink:href="#TimesNewRomanPSMT-35" x="75"/>
      </g>
     </g>
    </g>
    <g id="text_15">
     <!-- throughput[MOP/s] -->
     <g transform="translate(34.235938 245.529562) rotate(-90) scale(0.18 -0.18)">
      <defs>
       <path id="TimesNewRomanPSMT-75" d="M 2709 2863 
L 2709 1128 
Q 2709 631 2732 520 
Q 2756 409 2807 365 
Q 2859 322 2928 322 
Q 3025 322 3147 375 
L 3191 266 
L 2334 -88 
L 2194 -88 
L 2194 519 
Q 1825 119 1631 15 
Q 1438 -88 1222 -88 
Q 981 -88 804 51 
Q 628 191 559 409 
Q 491 628 491 1028 
L 491 2306 
Q 491 2509 447 2587 
Q 403 2666 317 2708 
Q 231 2750 6 2747 
L 6 2863 
L 1009 2863 
L 1009 947 
Q 1009 547 1148 422 
Q 1288 297 1484 297 
Q 1619 297 1789 381 
Q 1959 466 2194 703 
L 2194 2325 
Q 2194 2569 2105 2655 
Q 2016 2741 1734 2747 
L 1734 2863 
L 2709 2863 
z
" transform="scale(0.015625)"/>
       <path id="TimesNewRomanPSMT-67" d="M 966 1044 
Q 703 1172 562 1401 
Q 422 1631 422 1909 
Q 422 2334 742 2640 
Q 1063 2947 1563 2947 
Q 1972 2947 2272 2747 
L 2878 2747 
Q 3013 2747 3034 2739 
Q 3056 2731 3066 2713 
Q 3084 2684 3084 2613 
Q 3084 2531 3069 2500 
Q 3059 2484 3036 2475 
Q 3013 2466 2878 2466 
L 2506 2466 
Q 2681 2241 2681 1891 
Q 2681 1491 2375 1206 
Q 2069 922 1553 922 
Q 1341 922 1119 984 
Q 981 866 932 777 
Q 884 688 884 625 
Q 884 572 936 522 
Q 988 472 1138 450 
Q 1225 438 1575 428 
Q 2219 413 2409 384 
Q 2700 344 2873 169 
Q 3047 -6 3047 -263 
Q 3047 -616 2716 -925 
Q 2228 -1381 1444 -1381 
Q 841 -1381 425 -1109 
Q 191 -953 191 -784 
Q 191 -709 225 -634 
Q 278 -519 444 -313 
Q 466 -284 763 25 
Q 600 122 533 198 
Q 466 275 466 372 
Q 466 481 555 628 
Q 644 775 966 1044 
z
M 1509 2797 
Q 1278 2797 1122 2612 
Q 966 2428 966 2047 
Q 966 1553 1178 1281 
Q 1341 1075 1591 1075 
Q 1828 1075 1981 1253 
Q 2134 1431 2134 1813 
Q 2134 2309 1919 2591 
Q 1759 2797 1509 2797 
z
M 934 0 
Q 788 -159 713 -296 
Q 638 -434 638 -550 
Q 638 -700 819 -813 
Q 1131 -1006 1722 -1006 
Q 2284 -1006 2551 -807 
Q 2819 -609 2819 -384 
Q 2819 -222 2659 -153 
Q 2497 -84 2016 -72 
Q 1313 -53 934 0 
z
" transform="scale(0.015625)"/>
       <path id="TimesNewRomanPSMT-70" d="M -6 2578 
L 875 2934 
L 994 2934 
L 994 2266 
Q 1216 2644 1439 2795 
Q 1663 2947 1909 2947 
Q 2341 2947 2628 2609 
Q 2981 2197 2981 1534 
Q 2981 794 2556 309 
Q 2206 -88 1675 -88 
Q 1444 -88 1275 -22 
Q 1150 25 994 166 
L 994 -706 
Q 994 -1000 1030 -1079 
Q 1066 -1159 1155 -1206 
Q 1244 -1253 1478 -1253 
L 1478 -1369 
L -22 -1369 
L -22 -1253 
L 56 -1253 
Q 228 -1256 350 -1188 
Q 409 -1153 442 -1076 
Q 475 -1000 475 -688 
L 475 2019 
Q 475 2297 450 2372 
Q 425 2447 370 2484 
Q 316 2522 222 2522 
Q 147 2522 31 2478 
L -6 2578 
z
M 994 2081 
L 994 1013 
Q 994 666 1022 556 
Q 1066 375 1236 237 
Q 1406 100 1666 100 
Q 1978 100 2172 344 
Q 2425 663 2425 1241 
Q 2425 1897 2138 2250 
Q 1938 2494 1663 2494 
Q 1513 2494 1366 2419 
Q 1253 2363 994 2081 
z
" transform="scale(0.015625)"/>
       <path id="TimesNewRomanPSMT-5b" d="M 1900 -1269 
L 525 -1269 
L 525 4334 
L 1900 4334 
L 1900 4088 
L 994 4088 
L 994 -1025 
L 1900 -1025 
L 1900 -1269 
z
" transform="scale(0.015625)"/>
       <path id="TimesNewRomanPSMT-4d" d="M 2619 0 
L 981 3566 
L 981 734 
Q 981 344 1066 247 
Q 1181 116 1431 116 
L 1581 116 
L 1581 0 
L 106 0 
L 106 116 
L 256 116 
Q 525 116 638 278 
Q 706 378 706 734 
L 706 3503 
Q 706 3784 644 3909 
Q 600 4000 483 4061 
Q 366 4122 106 4122 
L 106 4238 
L 1306 4238 
L 2844 922 
L 4356 4238 
L 5556 4238 
L 5556 4122 
L 5409 4122 
Q 5138 4122 5025 3959 
Q 4956 3859 4956 3503 
L 4956 734 
Q 4956 344 5044 247 
Q 5159 116 5409 116 
L 5556 116 
L 5556 0 
L 3756 0 
L 3756 116 
L 3906 116 
Q 4178 116 4288 278 
Q 4356 378 4356 734 
L 4356 3566 
L 2722 0 
L 2619 0 
z
" transform="scale(0.015625)"/>
       <path id="TimesNewRomanPSMT-4f" d="M 2341 4334 
Q 3166 4334 3770 3707 
Q 4375 3081 4375 2144 
Q 4375 1178 3765 540 
Q 3156 -97 2291 -97 
Q 1416 -97 820 525 
Q 225 1147 225 2134 
Q 225 3144 913 3781 
Q 1509 4334 2341 4334 
z
M 2281 4106 
Q 1713 4106 1369 3684 
Q 941 3159 941 2147 
Q 941 1109 1384 550 
Q 1725 125 2284 125 
Q 2881 125 3270 590 
Q 3659 1056 3659 2059 
Q 3659 3147 3231 3681 
Q 2888 4106 2281 4106 
z
" transform="scale(0.015625)"/>
       <path id="TimesNewRomanPSMT-50" d="M 1313 1984 
L 1313 750 
Q 1313 350 1400 253 
Q 1519 116 1759 116 
L 1922 116 
L 1922 0 
L 106 0 
L 106 116 
L 266 116 
Q 534 116 650 291 
Q 713 388 713 750 
L 713 3488 
Q 713 3888 628 3984 
Q 506 4122 266 4122 
L 106 4122 
L 106 4238 
L 1659 4238 
Q 2228 4238 2556 4120 
Q 2884 4003 3109 3725 
Q 3334 3447 3334 3066 
Q 3334 2547 2992 2222 
Q 2650 1897 2025 1897 
Q 1872 1897 1694 1919 
Q 1516 1941 1313 1984 
z
M 1313 2163 
Q 1478 2131 1606 2115 
Q 1734 2100 1825 2100 
Q 2150 2100 2386 2351 
Q 2622 2603 2622 3003 
Q 2622 3278 2509 3514 
Q 2397 3750 2190 3867 
Q 1984 3984 1722 3984 
Q 1563 3984 1313 3925 
L 1313 2163 
z
" transform="scale(0.015625)"/>
       <path id="TimesNewRomanPSMT-2f" d="M 1794 4444 
L 259 -88 
L 9 -88 
L 1544 4444 
L 1794 4444 
z
" transform="scale(0.015625)"/>
       <path id="TimesNewRomanPSMT-73" d="M 2050 2947 
L 2050 1972 
L 1947 1972 
Q 1828 2431 1642 2597 
Q 1456 2763 1169 2763 
Q 950 2763 815 2647 
Q 681 2531 681 2391 
Q 681 2216 781 2091 
Q 878 1963 1175 1819 
L 1631 1597 
Q 2266 1288 2266 781 
Q 2266 391 1970 151 
Q 1675 -88 1309 -88 
Q 1047 -88 709 6 
Q 606 38 541 38 
Q 469 38 428 -44 
L 325 -44 
L 325 978 
L 428 978 
Q 516 541 762 319 
Q 1009 97 1316 97 
Q 1531 97 1667 223 
Q 1803 350 1803 528 
Q 1803 744 1651 891 
Q 1500 1038 1047 1263 
Q 594 1488 453 1669 
Q 313 1847 313 2119 
Q 313 2472 555 2709 
Q 797 2947 1181 2947 
Q 1350 2947 1591 2875 
Q 1750 2828 1803 2828 
Q 1853 2828 1881 2850 
Q 1909 2872 1947 2947 
L 2050 2947 
z
" transform="scale(0.015625)"/>
       <path id="TimesNewRomanPSMT-5d" d="M 234 4334 
L 1609 4334 
L 1609 -1272 
L 234 -1272 
L 234 -1025 
L 1141 -1025 
L 1141 4088 
L 234 4088 
L 234 4334 
z
" transform="scale(0.015625)"/>
      </defs>
      <use xlink:href="#TimesNewRomanPSMT-74"/>
      <use xlink:href="#TimesNewRomanPSMT-68" x="27.783203"/>
      <use xlink:href="#TimesNewRomanPSMT-72" x="77.783203"/>
      <use xlink:href="#TimesNewRomanPSMT-6f" x="111.083984"/>
      <use xlink:href="#TimesNewRomanPSMT-75" x="161.083984"/>
      <use xlink:href="#TimesNewRomanPSMT-67" x="211.083984"/>
      <use xlink:href="#TimesNewRomanPSMT-68" x="261.083984"/>
      <use xlink:href="#TimesNewRomanPSMT-70" x="311.083984"/>
      <use xlink:href="#TimesNewRomanPSMT-75" x="361.083984"/>
      <use xlink:href="#TimesNewRomanPSMT-74" x="411.083984"/>
      <use xlink:href="#TimesNewRomanPSMT-5b" x="438.867188"/>
      <use xlink:href="#TimesNewRomanPSMT-4d" x="472.167969"/>
      <use xlink:href="#TimesNewRomanPSMT-4f" x="561.083984"/>
      <use xlink:href="#TimesNewRomanPSMT-50" x="633.300781"/>
      <use xlink:href="#TimesNewRomanPSMT-2f" x="688.916016"/>
      <use xlink:href="#TimesNewRomanPSMT-73" x="716.699219"/>
      <use xlink:href="#TimesNewRomanPSMT-5d" x="755.615234"/>
     </g>
    </g>
    <g id="text_16">
     <!-- 1e6 -->
     <g transform="translate(69.12 38.472) scale(0.16 -0.16)">
      <defs>
       <path id="TimesNewRomanPSMT-36" d="M 2869 4325 
L 2869 4209 
Q 2456 4169 2195 4045 
Q 1934 3922 1679 3669 
Q 1425 3416 1258 3105 
Q 1091 2794 978 2366 
Q 1428 2675 1881 2675 
Q 2316 2675 2634 2325 
Q 2953 1975 2953 1425 
Q 2953 894 2631 456 
Q 2244 -75 1606 -75 
Q 1172 -75 869 213 
Q 275 772 275 1663 
Q 275 2231 503 2743 
Q 731 3256 1154 3653 
Q 1578 4050 1965 4187 
Q 2353 4325 2688 4325 
L 2869 4325 
z
M 925 2138 
Q 869 1716 869 1456 
Q 869 1156 980 804 
Q 1091 453 1309 247 
Q 1469 100 1697 100 
Q 1969 100 2183 356 
Q 2397 613 2397 1088 
Q 2397 1622 2184 2012 
Q 1972 2403 1581 2403 
Q 1463 2403 1327 2353 
Q 1191 2303 925 2138 
z
" transform="scale(0.015625)"/>
      </defs>
      <use xlink:href="#TimesNewRomanPSMT-31"/>
      <use xlink:href="#TimesNewRomanPSMT-65" x="50"/>
      <use xlink:href="#TimesNewRomanPSMT-36" x="94.384766"/>
     </g>
    </g>
   </g>
   <g id="line2d_27">
    <path d="M 69.697926 255.391073 
L 70.853779 252.471064 
L 72.009632 246.034423 
L 73.165485 242.9955 
L 74.321338 235.522011 
L 75.477191 233.451964 
L 76.633043 230.066639 
L 77.788896 220.20316 
L 78.944749 209.148867 
L 80.100602 196.039202 
L 81.256455 187.489327 
L 82.412308 185.393809 
L 83.568161 184.984377 
L 85.879866 176.785998 
L 87.035719 155.772198 
L 88.191572 160.321649 
L 89.347425 128.370113 
L 90.503278 131.833599 
L 91.65913 136.976251 
L 92.814983 149.00862 
L 93.970836 137.34896 
L 95.126689 140.971201 
L 96.282542 127.411806 
L 97.438395 130.36276 
L 98.594247 122.044783 
L 99.7501 110.606529 
L 100.905953 133.864642 
L 102.061806 117.758403 
L 103.217659 111.04014 
L 104.373512 134.76889 
L 105.529365 133.115498 
L 106.685217 151.480192 
L 107.84107 159.785395 
L 108.996923 133.421299 
L 110.152776 146.463296 
L 111.308629 162.053506 
L 112.464482 145.072823 
L 113.620334 146.866266 
L 114.776187 154.007343 
L 115.93204 185.696797 
L 117.087893 155.546839 
L 118.243746 133.367925 
L 119.399599 155.378885 
L 120.555452 155.630627 
L 121.711304 150.896038 
L 122.867157 160.457974 
L 124.02301 145.942173 
L 125.178863 144.252286 
L 126.334716 137.773599 
L 127.490569 163.741112 
L 128.646421 139.459457 
L 129.802274 140.245475 
L 130.958127 158.928895 
L 132.11398 146.766132 
L 133.269833 148.013133 
L 135.581538 134.620324 
L 136.737391 145.987336 
L 137.893244 162.959275 
L 139.049097 154.495469 
L 140.20495 151.327824 
L 141.360803 155.26438 
L 142.516656 152.658232 
L 143.672508 135.717238 
L 144.828361 154.33124 
L 145.984214 149.199612 
L 147.140067 137.243884 
L 148.29592 134.189298 
L 149.451773 140.247756 
L 150.607625 159.947419 
L 151.763478 157.802785 
L 152.919331 147.059843 
L 154.075184 147.174424 
L 155.231037 142.102405 
L 156.38689 113.007163 
L 157.542742 120.209827 
L 158.698595 144.073534 
L 159.854448 150.844488 
L 161.010301 122.061966 
L 162.166154 140.477221 
L 163.322007 132.606996 
L 164.47786 133.149257 
L 165.633712 148.982693 
L 166.789565 133.745652 
L 167.945418 135.017287 
L 169.101271 130.74406 
L 170.257124 134.987939 
L 171.412977 157.110513 
L 172.568829 140.686537 
L 173.724682 157.880109 
L 174.880535 138.614057 
L 176.036388 153.219272 
L 177.192241 128.502789 
L 178.348094 139.490782 
L 179.503946 122.528651 
L 180.659799 149.415087 
L 181.815652 140.793894 
L 182.971505 138.223708 
L 184.127358 154.095921 
L 185.283211 130.329078 
L 186.439064 141.879555 
L 187.594916 107.712219 
L 188.750769 162.137065 
L 189.906622 126.826284 
L 191.062475 139.06926 
L 192.218328 133.586973 
L 193.374181 146.960622 
L 194.530033 119.492313 
L 195.685886 121.891046 
L 196.841739 145.364406 
L 197.997592 146.402927 
L 199.153445 132.890444 
L 200.309298 136.985679 
L 201.465151 152.671385 
L 202.621003 144.725509 
L 203.776856 150.119143 
L 204.932709 152.519397 
L 207.244415 142.033824 
L 208.400268 153.39521 
L 209.55612 155.239898 
L 210.711973 140.776863 
L 211.867826 143.370543 
L 213.023679 117.490162 
L 214.179532 127.502512 
L 215.335385 111.663906 
L 216.491237 138.454618 
L 217.64709 144.870654 
L 218.802943 132.329023 
L 219.958796 145.46857 
L 221.114649 105.346027 
L 222.270502 154.888478 
L 223.426355 138.360338 
L 224.582207 157.667524 
L 225.73806 115.646994 
L 226.893913 182.830846 
L 228.049766 133.609706 
L 229.205619 122.937931 
L 230.361472 158.571772 
L 231.517324 107.308185 
L 232.673177 145.188468 
L 233.82903 141.693353 
L 234.984883 123.337631 
L 236.140736 101.499416 
L 237.296589 115.630039 
L 238.452441 119.471708 
L 239.608294 138.536428 
L 240.764147 131.970533 
L 241.92 136.598372 
L 243.075853 156.369125 
L 244.231706 138.985929 
L 245.387559 134.548778 
L 246.543411 136.423347 
L 247.699264 130.751283 
L 248.855117 143.925652 
L 250.01097 149.534305 
L 251.166823 124.67473 
L 252.322676 140.875933 
L 253.478528 135.825887 
L 254.634381 129.848784 
L 255.790234 124.970038 
L 256.946087 136.167271 
L 258.10194 144.148958 
L 259.257793 106.297415 
L 260.413645 135.390984 
L 261.569498 116.565993 
L 262.725351 121.997947 
L 263.881204 148.691794 
L 265.037057 138.527836 
L 266.19291 111.229459 
L 267.348763 162.109237 
L 268.504615 140.715353 
L 269.660468 133.367316 
L 270.816321 148.171583 
L 271.972174 147.49467 
L 273.128027 148.8377 
L 274.28388 148.238111 
L 275.439732 144.405794 
L 276.595585 125.101726 
L 277.751438 142.815053 
L 280.063144 117.074115 
L 281.218997 130.077868 
L 282.374849 145.199112 
L 283.530702 154.685777 
L 284.686555 143.447031 
L 285.842408 141.833708 
L 286.998261 138.27982 
L 288.154114 149.82277 
L 289.309967 165.687531 
L 290.465819 120.467499 
L 291.621672 149.16228 
L 292.777525 142.65721 
L 293.933378 120.268676 
L 295.089231 146.883905 
L 296.245084 163.914009 
L 297.400936 135.403758 
L 298.556789 145.923241 
L 299.712642 152.875303 
L 300.868495 137.496842 
L 302.024348 150.33112 
L 303.180201 140.37549 
L 304.336054 135.484732 
L 305.491906 137.928704 
L 306.647759 152.969507 
L 307.803612 141.182798 
L 308.959465 140.418524 
L 310.115318 140.284252 
L 311.271171 141.042899 
L 312.427023 142.497543 
L 313.582876 135.06359 
L 314.738729 143.218098 
L 315.894582 140.302119 
L 317.050435 157.764389 
L 318.206288 120.369418 
L 319.36214 127.86891 
L 320.517993 137.441795 
L 321.673846 113.86488 
L 322.829699 105.521585 
L 325.141405 146.088382 
L 326.297258 144.468673 
L 327.45311 130.197314 
L 328.608963 144.830053 
L 329.764816 134.853742 
L 330.920669 128.86683 
L 332.076522 135.377298 
L 333.232375 129.104734 
L 334.388227 127.977256 
L 335.54408 124.94662 
L 336.699933 148.533648 
L 337.855786 120.912743 
L 339.011639 151.883694 
L 340.167492 142.564755 
L 341.323344 156.53153 
L 342.479197 140.281819 
L 343.63505 139.342367 
L 344.790903 145.935862 
L 345.946756 125.283138 
L 347.102609 142.960046 
L 348.258462 124.4036 
L 349.414314 119.518772 
L 350.570167 122.053755 
L 351.72602 118.088534 
L 352.881873 116.851493 
L 354.037726 138.357905 
L 355.193579 132.085037 
L 356.349431 119.379709 
L 357.505284 121.364449 
L 358.661137 145.289134 
L 359.81699 137.272852 
L 360.972843 113.935514 
L 362.128696 137.590818 
L 363.284548 143.619928 
L 364.440401 164.841903 
L 365.596254 131.027204 
L 366.752107 141.865109 
L 367.90796 148.051529 
L 369.063813 148.964065 
L 370.219666 153.967274 
L 371.375518 137.796104 
L 372.531371 136.489418 
L 373.687224 147.059767 
L 374.843077 141.636861 
L 375.99893 123.872288 
L 377.154783 151.71437 
L 378.310635 145.024239 
L 379.466488 136.752413 
L 380.622341 145.199568 
L 381.778194 135.187751 
L 382.934047 132.354722 
L 384.0899 152.047847 
L 385.245753 169.26248 
L 386.401605 151.043616 
L 387.557458 148.91586 
L 388.713311 141.737983 
L 389.869164 132.336323 
L 391.025017 152.320802 
L 392.18087 148.283426 
L 393.336722 146.445125 
L 394.492575 121.715108 
L 395.648428 130.360403 
L 396.804281 144.250689 
L 397.960134 145.535934 
L 399.115987 136.566895 
L 400.271839 151.633928 
L 401.427692 125.959595 
L 402.583545 150.118687 
L 403.739398 157.028323 
L 404.895251 139.937926 
L 406.051104 154.089534 
L 407.206957 132.600078 
L 408.362809 146.429614 
L 409.518662 147.310825 
L 410.674515 143.473338 
L 411.830368 140.578572 
L 412.986221 141.42131 
L 414.142074 138.789006 
L 414.142074 138.789006 
" clip-path="url(#p96dc1cb586)" style="fill: none; stroke: #1f77b4; stroke-linecap: square"/>
   </g>
   <g id="line2d_28">
    <path d="M 69.697926 260.348816 
L 70.853779 260.426521 
L 72.009632 260.968249 
L 73.165485 260.379533 
L 74.321338 259.141048 
L 75.477191 256.844349 
L 76.633043 253.268412 
L 77.788896 255.627305 
L 78.944749 255.766899 
L 81.256455 250.997564 
L 82.412308 251.413003 
L 83.568161 249.113795 
L 84.724013 256.207961 
L 85.879866 248.445094 
L 87.035719 248.066531 
L 88.191572 245.65221 
L 89.347425 248.445246 
L 90.503278 245.017723 
L 91.65913 245.211149 
L 92.814983 241.907863 
L 93.970836 240.88105 
L 95.126689 240.034814 
L 96.282542 241.123516 
L 97.438395 237.899912 
L 98.594247 235.819752 
L 99.7501 229.652188 
L 100.905953 226.668389 
L 102.061806 233.058954 
L 103.217659 228.323833 
L 104.373512 229.049711 
L 105.529365 223.543017 
L 106.685217 223.684437 
L 107.84107 220.645058 
L 108.996923 212.487888 
L 110.152776 221.044682 
L 111.308629 205.316322 
L 112.464482 214.736155 
L 113.620334 199.658553 
L 114.776187 197.541442 
L 115.93204 202.770619 
L 117.087893 186.245596 
L 118.243746 186.611081 
L 119.399599 182.00339 
L 120.555452 172.986375 
L 121.711304 183.656934 
L 122.867157 168.209589 
L 124.02301 158.944937 
L 125.178863 173.064992 
L 126.334716 180.195881 
L 127.490569 151.77474 
L 128.646421 168.669506 
L 129.802274 152.618771 
L 130.958127 164.512761 
L 132.11398 178.298123 
L 133.269833 165.411687 
L 134.425686 162.284643 
L 135.581538 171.093482 
L 136.737391 164.388296 
L 137.893244 171.193313 
L 140.20495 157.987923 
L 141.360803 179.321133 
L 142.516656 173.688607 
L 143.672508 161.443121 
L 144.828361 171.537966 
L 145.984214 157.599627 
L 147.140067 173.53487 
L 148.29592 166.333727 
L 149.451773 166.322627 
L 150.607625 166.77669 
L 152.919331 143.794421 
L 154.075184 211.535892 
L 155.231037 164.661479 
L 156.38689 163.846568 
L 157.542742 171.532871 
L 158.698595 159.193258 
L 159.854448 161.847839 
L 161.010301 177.199384 
L 162.166154 155.684153 
L 163.322007 167.060593 
L 164.47786 168.665172 
L 165.633712 159.357107 
L 166.789565 178.382062 
L 167.945418 155.127903 
L 169.101271 154.727823 
L 170.257124 150.38229 
L 171.412977 155.157479 
L 172.568829 153.454895 
L 173.724682 165.636666 
L 174.880535 152.387634 
L 176.036388 164.745267 
L 177.192241 151.252856 
L 178.348094 155.060615 
L 179.503946 153.692647 
L 180.659799 150.709607 
L 181.815652 152.472942 
L 182.971505 148.206862 
L 184.127358 144.511859 
L 185.283211 151.904602 
L 186.439064 135.446412 
L 187.594916 153.365633 
L 188.750769 146.693521 
L 189.906622 141.70681 
L 191.062475 147.578306 
L 192.218328 135.437364 
L 193.374181 186.310983 
L 194.530033 200.868906 
L 195.685886 147.15283 
L 196.841739 154.906574 
L 197.997592 137.102312 
L 199.153445 147.434453 
L 200.309298 146.386428 
L 201.465151 154.116297 
L 202.621003 147.101661 
L 203.776856 155.191238 
L 204.932709 130.762384 
L 206.088562 163.966851 
L 207.244415 144.533452 
L 208.400268 174.090816 
L 209.55612 171.979864 
L 210.711973 153.592969 
L 211.867826 133.244297 
L 213.023679 147.559906 
L 214.179532 147.122722 
L 215.335385 154.532572 
L 216.491237 152.242337 
L 217.64709 157.94466 
L 218.802943 146.339288 
L 219.958796 131.893892 
L 221.114649 159.918299 
L 222.270502 151.419518 
L 223.426355 159.615996 
L 224.582207 157.708581 
L 225.73806 146.010222 
L 226.893913 141.33144 
L 228.049766 159.946659 
L 229.205619 153.564913 
L 230.361472 168.570817 
L 231.517324 143.639164 
L 232.673177 150.111084 
L 233.82903 128.540653 
L 234.984883 165.27521 
L 236.140736 140.833963 
L 237.296589 146.802247 
L 238.452441 156.668007 
L 239.608294 145.872604 
L 240.764147 145.108482 
L 241.92 136.892312 
L 243.075853 125.92941 
L 244.231706 160.072568 
L 245.387559 146.315338 
L 246.543411 145.718867 
L 247.699264 150.557619 
L 248.855117 134.451381 
L 250.01097 142.800911 
L 251.166823 145.091755 
L 252.322676 146.210262 
L 253.478528 148.119045 
L 254.634381 140.449849 
L 255.790234 140.815867 
L 256.946087 130.954061 
L 258.10194 123.713381 
L 259.257793 145.635384 
L 260.413645 147.932767 
L 261.569498 146.607529 
L 262.725351 150.067973 
L 263.881204 146.489679 
L 265.037057 144.810285 
L 266.19291 126.606855 
L 267.348763 149.830221 
L 268.504615 143.672162 
L 269.660468 153.286332 
L 270.816321 143.072421 
L 271.972174 149.908914 
L 273.128027 144.119078 
L 274.28388 149.64706 
L 275.439732 158.921672 
L 276.595585 148.15478 
L 277.751438 142.001282 
L 278.907291 159.338555 
L 280.063144 137.103833 
L 281.218997 146.203951 
L 282.374849 139.599051 
L 283.530702 159.806988 
L 284.686555 141.417281 
L 285.842408 158.150099 
L 286.998261 136.350888 
L 288.154114 137.345007 
L 289.309967 150.289911 
L 290.465819 156.346696 
L 291.621672 141.986988 
L 292.777525 145.560872 
L 293.933378 141.718671 
L 295.089231 156.985289 
L 296.245084 132.019269 
L 297.400936 125.41072 
L 298.556789 137.384847 
L 299.712642 140.418144 
L 300.868495 137.612487 
L 303.180201 164.603847 
L 304.336054 157.399055 
L 305.491906 143.806814 
L 306.647759 138.620367 
L 307.803612 129.448627 
L 308.959465 139.535489 
L 310.115318 142.320084 
L 311.271171 135.090962 
L 312.427023 144.513608 
L 313.582876 139.261621 
L 314.738729 144.099842 
L 315.894582 146.687515 
L 317.050435 159.129163 
L 318.206288 132.852504 
L 319.36214 134.052517 
L 320.517993 136.129255 
L 321.673846 131.850858 
L 322.829699 125.072149 
L 323.985552 134.362423 
L 325.141405 142.054505 
L 326.297258 142.067202 
L 327.45311 132.316554 
L 329.764816 152.976578 
L 330.920669 160.920097 
L 332.076522 137.203967 
L 333.232375 124.472105 
L 334.388227 159.319471 
L 335.54408 136.192209 
L 336.699933 144.941288 
L 337.855786 142.110996 
L 339.011639 156.483858 
L 340.167492 130.85233 
L 341.323344 133.836434 
L 342.479197 152.139465 
L 343.63505 146.587457 
L 344.790903 133.721017 
L 345.946756 124.807178 
L 347.102609 156.406761 
L 348.258462 153.419996 
L 349.414314 154.784923 
L 350.570167 130.493687 
L 351.72602 150.952758 
L 352.881873 144.467076 
L 354.037726 146.518495 
L 355.193579 134.134403 
L 356.349431 131.287613 
L 357.505284 134.141094 
L 358.661137 126.882623 
L 359.81699 120.750566 
L 360.972843 131.651959 
L 362.128696 125.685043 
L 363.284548 143.290329 
L 364.440401 141.088974 
L 365.596254 137.388801 
L 366.752107 127.830818 
L 367.90796 144.326873 
L 369.063813 129.644334 
L 370.219666 145.936166 
L 371.375518 138.382387 
L 372.531371 128.85246 
L 373.687224 129.278468 
L 374.843077 131.434127 
L 375.99893 140.961012 
L 377.154783 141.933538 
L 378.310635 134.594929 
L 379.466488 141.399185 
L 380.622341 131.589232 
L 381.778194 134.911374 
L 382.934047 121.095448 
L 384.0899 151.388117 
L 385.245753 137.973943 
L 386.401605 145.147258 
L 387.557458 125.916789 
L 388.713311 114.694237 
L 389.869164 131.858537 
L 391.025017 135.555441 
L 392.18087 136.521276 
L 393.336722 134.006746 
L 394.492575 135.756242 
L 395.648428 145.613715 
L 396.804281 144.651226 
L 397.960134 116.788539 
L 399.115987 144.08281 
L 400.271839 157.242429 
L 401.427692 131.737647 
L 402.583545 133.65046 
L 403.739398 137.284713 
L 404.895251 124.910201 
L 406.051104 122.124313 
L 407.206957 143.090137 
L 408.362809 134.055938 
L 409.518662 136.11344 
L 410.674515 154.427952 
L 411.830368 134.995314 
L 412.986221 134.734296 
L 414.142074 132.508611 
L 414.142074 132.508611 
" clip-path="url(#p96dc1cb586)" style="fill: none; stroke: #ff7f0e; stroke-linecap: square"/>
   </g>
   <g id="patch_3">
    <path d="M 69.12 307.584 
L 69.12 41.472 
" style="fill: none; stroke: #000000; stroke-width: 0.8; stroke-linejoin: miter; stroke-linecap: square"/>
   </g>
   <g id="patch_4">
    <path d="M 414.72 307.584 
L 414.72 41.472 
" style="fill: none; stroke: #000000; stroke-width: 0.8; stroke-linejoin: miter; stroke-linecap: square"/>
   </g>
   <g id="patch_5">
    <path d="M 69.12 307.584 
L 414.72 307.584 
" style="fill: none; stroke: #000000; stroke-width: 0.8; stroke-linejoin: miter; stroke-linecap: square"/>
   </g>
   <g id="patch_6">
    <path d="M 69.12 41.472 
L 414.72 41.472 
" style="fill: none; stroke: #000000; stroke-width: 0.8; stroke-linejoin: miter; stroke-linecap: square"/>
   </g>
   <g id="legend_1">
    <g id="patch_7">
     <path d="M 306.115 99.517 
L 403.52 99.517 
Q 406.72 99.517 406.72 96.317 
L 406.72 52.672 
Q 406.72 49.472 403.52 49.472 
L 306.115 49.472 
Q 302.915 49.472 302.915 52.672 
L 302.915 96.317 
Q 302.915 99.517 306.115 99.517 
z
" style="fill: #ffffff; opacity: 0.8; stroke: #cccccc; stroke-linejoin: miter"/>
    </g>
    <g id="line2d_29">
     <path d="M 309.315 61.472 
L 325.315 61.472 
L 341.315 61.472 
" style="fill: none; stroke: #1f77b4; stroke-linecap: square"/>
    </g>
    <g id="text_17">
     <!-- 12trees -->
     <g transform="translate(354.115 67.072) scale(0.16 -0.16)">
      <use xlink:href="#TimesNewRomanPSMT-31"/>
      <use xlink:href="#TimesNewRomanPSMT-32" x="50"/>
      <use xlink:href="#TimesNewRomanPSMT-74" x="100"/>
      <use xlink:href="#TimesNewRomanPSMT-72" x="127.783203"/>
      <use xlink:href="#TimesNewRomanPSMT-65" x="161.083984"/>
      <use xlink:href="#TimesNewRomanPSMT-65" x="205.46875"/>
      <use xlink:href="#TimesNewRomanPSMT-73" x="249.853516"/>
     </g>
    </g>
    <g id="line2d_30">
     <path d="M 309.315 84.0945 
L 325.315 84.0945 
L 341.315 84.0945 
" style="fill: none; stroke: #ff7f0e; stroke-linecap: square"/>
    </g>
    <g id="text_18">
     <!-- 50trees -->
     <g transform="translate(354.115 89.6945) scale(0.16 -0.16)">
      <use xlink:href="#TimesNewRomanPSMT-35"/>
      <use xlink:href="#TimesNewRomanPSMT-30" x="50"/>
      <use xlink:href="#TimesNewRomanPSMT-74" x="100"/>
      <use xlink:href="#TimesNewRomanPSMT-72" x="127.783203"/>
      <use xlink:href="#TimesNewRomanPSMT-65" x="161.083984"/>
      <use xlink:href="#TimesNewRomanPSMT-65" x="205.46875"/>
      <use xlink:href="#TimesNewRomanPSMT-73" x="249.853516"/>
     </g>
    </g>
   </g>
  </g>
 </g>
 <defs>
  <clipPath id="p96dc1cb586">
   <rect x="69.12" y="41.472" width="345.6" height="266.112"/>
  </clipPath>
 </defs>
</svg>
