<?xml version="1.0" encoding="utf-8" standalone="no"?>
<!DOCTYPE svg PUBLIC "-//W3C//DTD SVG 1.1//EN"
  "http://www.w3.org/Graphics/SVG/1.1/DTD/svg11.dtd">
<svg xmlns:xlink="http://www.w3.org/1999/xlink" width="460.8pt" height="345.6pt" viewBox="0 0 460.8 345.6" xmlns="http://www.w3.org/2000/svg" version="1.1">
 <metadata>
  <rdf:RDF xmlns:dc="http://purl.org/dc/elements/1.1/" xmlns:cc="http://creativecommons.org/ns#" xmlns:rdf="http://www.w3.org/1999/02/22-rdf-syntax-ns#">
   <cc:Work>
    <dc:type rdf:resource="http://purl.org/dc/dcmitype/StillImage"/>
    <dc:date>2024-02-15T08:03:44.497432</dc:date>
    <dc:format>image/svg+xml</dc:format>
    <dc:creator>
     <cc:Agent>
      <dc:title>Matplotlib v3.7.0, https://matplotlib.org/</dc:title>
     </cc:Agent>
    </dc:creator>
   </cc:Work>
  </rdf:RDF>
 </metadata>
 <defs>
  <style type="text/css">*{stroke-linejoin: round; stroke-linecap: butt}</style>
 </defs>
 <g id="figure_1">
  <g id="patch_1">
   <path d="M 0 345.6 
L 460.8 345.6 
L 460.8 0 
L 0 0 
L 0 345.6 
z
" style="fill: none"/>
  </g>
  <g id="axes_1">
   <g id="patch_2">
    <path d="M 69.12 307.584 
L 414.72 307.584 
L 414.72 41.472 
L 69.12 41.472 
L 69.12 307.584 
z
" style="fill: none"/>
   </g>
   <g id="matplotlib.axis_1">
    <g id="xtick_1">
     <g id="line2d_1">
      <path d="M 126.334716 307.584 
L 126.334716 41.472 
" clip-path="url(#p82c9ac6092)" style="fill: none; stroke: #b0b0b0; stroke-width: 0.8; stroke-linecap: square"/>
     </g>
     <g id="line2d_2">
      <defs>
       <path id="m12eff1275b" d="M 0 0 
L 0 3.5 
" style="stroke: #000000; stroke-width: 0.8"/>
      </defs>
      <g>
       <use xlink:href="#m12eff1275b" x="126.334716" y="307.584" style="stroke: #000000; stroke-width: 0.8"/>
      </g>
     </g>
     <g id="text_1">
      <!-- 50 -->
      <g transform="translate(118.334716 325.694) scale(0.16 -0.16)">
       <defs>
        <path id="TimesNewRomanPSMT-35" d="M 2778 4238 
L 2534 3706 
L 1259 3706 
L 981 3138 
Q 1809 3016 2294 2522 
Q 2709 2097 2709 1522 
Q 2709 1188 2573 903 
Q 2438 619 2231 419 
Q 2025 219 1772 97 
Q 1413 -75 1034 -75 
Q 653 -75 479 54 
Q 306 184 306 341 
Q 306 428 378 495 
Q 450 563 559 563 
Q 641 563 702 538 
Q 763 513 909 409 
Q 1144 247 1384 247 
Q 1750 247 2026 523 
Q 2303 800 2303 1197 
Q 2303 1581 2056 1914 
Q 1809 2247 1375 2428 
Q 1034 2569 447 2591 
L 1259 4238 
L 2778 4238 
z
" transform="scale(0.015625)"/>
        <path id="TimesNewRomanPSMT-30" d="M 231 2094 
Q 231 2819 450 3342 
Q 669 3866 1031 4122 
Q 1313 4325 1613 4325 
Q 2100 4325 2488 3828 
Q 2972 3213 2972 2159 
Q 2972 1422 2759 906 
Q 2547 391 2217 158 
Q 1888 -75 1581 -75 
Q 975 -75 572 641 
Q 231 1244 231 2094 
z
M 844 2016 
Q 844 1141 1059 588 
Q 1238 122 1591 122 
Q 1759 122 1940 273 
Q 2122 425 2216 781 
Q 2359 1319 2359 2297 
Q 2359 3022 2209 3506 
Q 2097 3866 1919 4016 
Q 1791 4119 1609 4119 
Q 1397 4119 1231 3928 
Q 1006 3669 925 3112 
Q 844 2556 844 2016 
z
" transform="scale(0.015625)"/>
       </defs>
       <use xlink:href="#TimesNewRomanPSMT-35"/>
       <use xlink:href="#TimesNewRomanPSMT-30" x="50"/>
      </g>
     </g>
    </g>
    <g id="xtick_2">
     <g id="line2d_3">
      <path d="M 184.127358 307.584 
L 184.127358 41.472 
" clip-path="url(#p82c9ac6092)" style="fill: none; stroke: #b0b0b0; stroke-width: 0.8; stroke-linecap: square"/>
     </g>
     <g id="line2d_4">
      <g>
       <use xlink:href="#m12eff1275b" x="184.127358" y="307.584" style="stroke: #000000; stroke-width: 0.8"/>
      </g>
     </g>
     <g id="text_2">
      <!-- 100 -->
      <g transform="translate(172.127358 325.694) scale(0.16 -0.16)">
       <defs>
        <path id="TimesNewRomanPSMT-31" d="M 750 3822 
L 1781 4325 
L 1884 4325 
L 1884 747 
Q 1884 391 1914 303 
Q 1944 216 2037 169 
Q 2131 122 2419 116 
L 2419 0 
L 825 0 
L 825 116 
Q 1125 122 1212 167 
Q 1300 213 1334 289 
Q 1369 366 1369 747 
L 1369 3034 
Q 1369 3497 1338 3628 
Q 1316 3728 1258 3775 
Q 1200 3822 1119 3822 
Q 1003 3822 797 3725 
L 750 3822 
z
" transform="scale(0.015625)"/>
       </defs>
       <use xlink:href="#TimesNewRomanPSMT-31"/>
       <use xlink:href="#TimesNewRomanPSMT-30" x="50"/>
       <use xlink:href="#TimesNewRomanPSMT-30" x="100"/>
      </g>
     </g>
    </g>
    <g id="xtick_3">
     <g id="line2d_5">
      <path d="M 241.92 307.584 
L 241.92 41.472 
" clip-path="url(#p82c9ac6092)" style="fill: none; stroke: #b0b0b0; stroke-width: 0.8; stroke-linecap: square"/>
     </g>
     <g id="line2d_6">
      <g>
       <use xlink:href="#m12eff1275b" x="241.92" y="307.584" style="stroke: #000000; stroke-width: 0.8"/>
      </g>
     </g>
     <g id="text_3">
      <!-- 150 -->
      <g transform="translate(229.92 325.694) scale(0.16 -0.16)">
       <use xlink:href="#TimesNewRomanPSMT-31"/>
       <use xlink:href="#TimesNewRomanPSMT-35" x="50"/>
       <use xlink:href="#TimesNewRomanPSMT-30" x="100"/>
      </g>
     </g>
    </g>
    <g id="xtick_4">
     <g id="line2d_7">
      <path d="M 299.712642 307.584 
L 299.712642 41.472 
" clip-path="url(#p82c9ac6092)" style="fill: none; stroke: #b0b0b0; stroke-width: 0.8; stroke-linecap: square"/>
     </g>
     <g id="line2d_8">
      <g>
       <use xlink:href="#m12eff1275b" x="299.712642" y="307.584" style="stroke: #000000; stroke-width: 0.8"/>
      </g>
     </g>
     <g id="text_4">
      <!-- 200 -->
      <g transform="translate(287.712642 325.694) scale(0.16 -0.16)">
       <defs>
        <path id="TimesNewRomanPSMT-32" d="M 2934 816 
L 2638 0 
L 138 0 
L 138 116 
Q 1241 1122 1691 1759 
Q 2141 2397 2141 2925 
Q 2141 3328 1894 3587 
Q 1647 3847 1303 3847 
Q 991 3847 742 3664 
Q 494 3481 375 3128 
L 259 3128 
Q 338 3706 661 4015 
Q 984 4325 1469 4325 
Q 1984 4325 2329 3994 
Q 2675 3663 2675 3213 
Q 2675 2891 2525 2569 
Q 2294 2063 1775 1497 
Q 997 647 803 472 
L 1909 472 
Q 2247 472 2383 497 
Q 2519 522 2628 598 
Q 2738 675 2819 816 
L 2934 816 
z
" transform="scale(0.015625)"/>
       </defs>
       <use xlink:href="#TimesNewRomanPSMT-32"/>
       <use xlink:href="#TimesNewRomanPSMT-30" x="50"/>
       <use xlink:href="#TimesNewRomanPSMT-30" x="100"/>
      </g>
     </g>
    </g>
    <g id="xtick_5">
     <g id="line2d_9">
      <path d="M 357.505284 307.584 
L 357.505284 41.472 
" clip-path="url(#p82c9ac6092)" style="fill: none; stroke: #b0b0b0; stroke-width: 0.8; stroke-linecap: square"/>
     </g>
     <g id="line2d_10">
      <g>
       <use xlink:href="#m12eff1275b" x="357.505284" y="307.584" style="stroke: #000000; stroke-width: 0.8"/>
      </g>
     </g>
     <g id="text_5">
      <!-- 250 -->
      <g transform="translate(345.505284 325.694) scale(0.16 -0.16)">
       <use xlink:href="#TimesNewRomanPSMT-32"/>
       <use xlink:href="#TimesNewRomanPSMT-35" x="50"/>
       <use xlink:href="#TimesNewRomanPSMT-30" x="100"/>
      </g>
     </g>
    </g>
    <g id="text_6">
     <!-- batch iteration -->
     <g transform="translate(190.191094 345.61525) scale(0.18 -0.18)">
      <defs>
       <path id="TimesNewRomanPSMT-62" d="M 984 2369 
Q 1400 2947 1881 2947 
Q 2322 2947 2650 2570 
Q 2978 2194 2978 1541 
Q 2978 778 2472 313 
Q 2038 -88 1503 -88 
Q 1253 -88 995 3 
Q 738 94 469 275 
L 469 3241 
Q 469 3728 445 3840 
Q 422 3953 372 3993 
Q 322 4034 247 4034 
Q 159 4034 28 3984 
L -16 4094 
L 844 4444 
L 984 4444 
L 984 2369 
z
M 984 2169 
L 984 456 
Q 1144 300 1314 220 
Q 1484 141 1663 141 
Q 1947 141 2192 453 
Q 2438 766 2438 1363 
Q 2438 1913 2192 2208 
Q 1947 2503 1634 2503 
Q 1469 2503 1303 2419 
Q 1178 2356 984 2169 
z
" transform="scale(0.015625)"/>
       <path id="TimesNewRomanPSMT-61" d="M 1822 413 
Q 1381 72 1269 19 
Q 1100 -59 909 -59 
Q 613 -59 420 144 
Q 228 347 228 678 
Q 228 888 322 1041 
Q 450 1253 767 1440 
Q 1084 1628 1822 1897 
L 1822 2009 
Q 1822 2438 1686 2597 
Q 1550 2756 1291 2756 
Q 1094 2756 978 2650 
Q 859 2544 859 2406 
L 866 2225 
Q 866 2081 792 2003 
Q 719 1925 600 1925 
Q 484 1925 411 2006 
Q 338 2088 338 2228 
Q 338 2497 613 2722 
Q 888 2947 1384 2947 
Q 1766 2947 2009 2819 
Q 2194 2722 2281 2516 
Q 2338 2381 2338 1966 
L 2338 994 
Q 2338 584 2353 492 
Q 2369 400 2405 369 
Q 2441 338 2488 338 
Q 2538 338 2575 359 
Q 2641 400 2828 588 
L 2828 413 
Q 2478 -56 2159 -56 
Q 2006 -56 1915 50 
Q 1825 156 1822 413 
z
M 1822 616 
L 1822 1706 
Q 1350 1519 1213 1441 
Q 966 1303 859 1153 
Q 753 1003 753 825 
Q 753 600 887 451 
Q 1022 303 1197 303 
Q 1434 303 1822 616 
z
" transform="scale(0.015625)"/>
       <path id="TimesNewRomanPSMT-74" d="M 1031 3803 
L 1031 2863 
L 1700 2863 
L 1700 2644 
L 1031 2644 
L 1031 788 
Q 1031 509 1111 412 
Q 1191 316 1316 316 
Q 1419 316 1516 380 
Q 1613 444 1666 569 
L 1788 569 
Q 1678 263 1478 108 
Q 1278 -47 1066 -47 
Q 922 -47 784 33 
Q 647 113 581 261 
Q 516 409 516 719 
L 516 2644 
L 63 2644 
L 63 2747 
Q 234 2816 414 2980 
Q 594 3144 734 3369 
Q 806 3488 934 3803 
L 1031 3803 
z
" transform="scale(0.015625)"/>
       <path id="TimesNewRomanPSMT-63" d="M 2631 1088 
Q 2516 522 2178 217 
Q 1841 -88 1431 -88 
Q 944 -88 581 321 
Q 219 731 219 1428 
Q 219 2103 620 2525 
Q 1022 2947 1584 2947 
Q 2006 2947 2278 2723 
Q 2550 2500 2550 2259 
Q 2550 2141 2473 2067 
Q 2397 1994 2259 1994 
Q 2075 1994 1981 2113 
Q 1928 2178 1911 2362 
Q 1894 2547 1784 2644 
Q 1675 2738 1481 2738 
Q 1169 2738 978 2506 
Q 725 2200 725 1697 
Q 725 1184 976 792 
Q 1228 400 1656 400 
Q 1963 400 2206 609 
Q 2378 753 2541 1131 
L 2631 1088 
z
" transform="scale(0.015625)"/>
       <path id="TimesNewRomanPSMT-68" d="M 1041 4444 
L 1041 2350 
Q 1388 2731 1591 2839 
Q 1794 2947 1997 2947 
Q 2241 2947 2416 2812 
Q 2591 2678 2675 2391 
Q 2734 2191 2734 1659 
L 2734 647 
Q 2734 375 2778 275 
Q 2809 200 2884 156 
Q 2959 113 3159 113 
L 3159 0 
L 1753 0 
L 1753 113 
L 1819 113 
Q 2019 113 2097 173 
Q 2175 234 2206 353 
Q 2216 403 2216 647 
L 2216 1659 
Q 2216 2128 2167 2275 
Q 2119 2422 2012 2495 
Q 1906 2569 1756 2569 
Q 1603 2569 1437 2487 
Q 1272 2406 1041 2159 
L 1041 647 
Q 1041 353 1073 281 
Q 1106 209 1195 161 
Q 1284 113 1503 113 
L 1503 0 
L 84 0 
L 84 113 
Q 275 113 384 172 
Q 447 203 484 290 
Q 522 378 522 647 
L 522 3238 
Q 522 3728 498 3840 
Q 475 3953 426 3993 
Q 378 4034 297 4034 
Q 231 4034 84 3984 
L 41 4094 
L 897 4444 
L 1041 4444 
z
" transform="scale(0.015625)"/>
       <path id="TimesNewRomanPSMT-20" transform="scale(0.015625)"/>
       <path id="TimesNewRomanPSMT-69" d="M 928 4444 
Q 1059 4444 1151 4351 
Q 1244 4259 1244 4128 
Q 1244 3997 1151 3903 
Q 1059 3809 928 3809 
Q 797 3809 703 3903 
Q 609 3997 609 4128 
Q 609 4259 701 4351 
Q 794 4444 928 4444 
z
M 1188 2947 
L 1188 647 
Q 1188 378 1227 289 
Q 1266 200 1342 156 
Q 1419 113 1622 113 
L 1622 0 
L 231 0 
L 231 113 
Q 441 113 512 153 
Q 584 194 626 287 
Q 669 381 669 647 
L 669 1750 
Q 669 2216 641 2353 
Q 619 2453 572 2492 
Q 525 2531 444 2531 
Q 356 2531 231 2484 
L 188 2597 
L 1050 2947 
L 1188 2947 
z
" transform="scale(0.015625)"/>
       <path id="TimesNewRomanPSMT-65" d="M 681 1784 
Q 678 1147 991 784 
Q 1303 422 1725 422 
Q 2006 422 2214 576 
Q 2422 731 2563 1106 
L 2659 1044 
Q 2594 616 2278 264 
Q 1963 -88 1488 -88 
Q 972 -88 605 314 
Q 238 716 238 1394 
Q 238 2128 614 2539 
Q 991 2950 1559 2950 
Q 2041 2950 2350 2633 
Q 2659 2316 2659 1784 
L 681 1784 
z
M 681 1966 
L 2006 1966 
Q 1991 2241 1941 2353 
Q 1863 2528 1708 2628 
Q 1553 2728 1384 2728 
Q 1125 2728 920 2526 
Q 716 2325 681 1966 
z
" transform="scale(0.015625)"/>
       <path id="TimesNewRomanPSMT-72" d="M 1038 2947 
L 1038 2303 
Q 1397 2947 1775 2947 
Q 1947 2947 2059 2842 
Q 2172 2738 2172 2600 
Q 2172 2478 2090 2393 
Q 2009 2309 1897 2309 
Q 1788 2309 1652 2417 
Q 1516 2525 1450 2525 
Q 1394 2525 1328 2463 
Q 1188 2334 1038 2041 
L 1038 669 
Q 1038 431 1097 309 
Q 1138 225 1241 169 
Q 1344 113 1538 113 
L 1538 0 
L 72 0 
L 72 113 
Q 291 113 397 181 
Q 475 231 506 341 
Q 522 394 522 644 
L 522 1753 
Q 522 2253 501 2348 
Q 481 2444 426 2487 
Q 372 2531 291 2531 
Q 194 2531 72 2484 
L 41 2597 
L 906 2947 
L 1038 2947 
z
" transform="scale(0.015625)"/>
       <path id="TimesNewRomanPSMT-6f" d="M 1600 2947 
Q 2250 2947 2644 2453 
Q 2978 2031 2978 1484 
Q 2978 1100 2793 706 
Q 2609 313 2286 112 
Q 1963 -88 1566 -88 
Q 919 -88 538 428 
Q 216 863 216 1403 
Q 216 1797 411 2186 
Q 606 2575 925 2761 
Q 1244 2947 1600 2947 
z
M 1503 2744 
Q 1338 2744 1170 2645 
Q 1003 2547 900 2300 
Q 797 2053 797 1666 
Q 797 1041 1045 587 
Q 1294 134 1700 134 
Q 2003 134 2200 384 
Q 2397 634 2397 1244 
Q 2397 2006 2069 2444 
Q 1847 2744 1503 2744 
z
" transform="scale(0.015625)"/>
       <path id="TimesNewRomanPSMT-6e" d="M 1034 2341 
Q 1538 2947 1994 2947 
Q 2228 2947 2397 2830 
Q 2566 2713 2666 2444 
Q 2734 2256 2734 1869 
L 2734 647 
Q 2734 375 2778 278 
Q 2813 200 2889 156 
Q 2966 113 3172 113 
L 3172 0 
L 1756 0 
L 1756 113 
L 1816 113 
Q 2016 113 2095 173 
Q 2175 234 2206 353 
Q 2219 400 2219 647 
L 2219 1819 
Q 2219 2209 2117 2386 
Q 2016 2563 1775 2563 
Q 1403 2563 1034 2156 
L 1034 647 
Q 1034 356 1069 288 
Q 1113 197 1189 155 
Q 1266 113 1500 113 
L 1500 0 
L 84 0 
L 84 113 
L 147 113 
Q 366 113 442 223 
Q 519 334 519 647 
L 519 1709 
Q 519 2225 495 2337 
Q 472 2450 423 2490 
Q 375 2531 294 2531 
Q 206 2531 84 2484 
L 38 2597 
L 900 2947 
L 1034 2947 
L 1034 2341 
z
" transform="scale(0.015625)"/>
      </defs>
      <use xlink:href="#TimesNewRomanPSMT-62"/>
      <use xlink:href="#TimesNewRomanPSMT-61" x="50"/>
      <use xlink:href="#TimesNewRomanPSMT-74" x="94.384766"/>
      <use xlink:href="#TimesNewRomanPSMT-63" x="122.167969"/>
      <use xlink:href="#TimesNewRomanPSMT-68" x="166.552734"/>
      <use xlink:href="#TimesNewRomanPSMT-20" x="216.552734"/>
      <use xlink:href="#TimesNewRomanPSMT-69" x="241.552734"/>
      <use xlink:href="#TimesNewRomanPSMT-74" x="269.335938"/>
      <use xlink:href="#TimesNewRomanPSMT-65" x="297.119141"/>
      <use xlink:href="#TimesNewRomanPSMT-72" x="341.503906"/>
      <use xlink:href="#TimesNewRomanPSMT-61" x="374.804688"/>
      <use xlink:href="#TimesNewRomanPSMT-74" x="419.189453"/>
      <use xlink:href="#TimesNewRomanPSMT-69" x="446.972656"/>
      <use xlink:href="#TimesNewRomanPSMT-6f" x="474.755859"/>
      <use xlink:href="#TimesNewRomanPSMT-6e" x="524.755859"/>
     </g>
    </g>
   </g>
   <g id="matplotlib.axis_2">
    <g id="ytick_1">
     <g id="line2d_11">
      <path d="M 69.12 307.584 
L 414.72 307.584 
" clip-path="url(#p82c9ac6092)" style="fill: none; stroke: #b0b0b0; stroke-width: 0.8; stroke-linecap: square"/>
     </g>
     <g id="line2d_12">
      <defs>
       <path id="mdad1e63295" d="M 0 0 
L -3.5 0 
" style="stroke: #000000; stroke-width: 0.8"/>
      </defs>
      <g>
       <use xlink:href="#mdad1e63295" x="69.12" y="307.584" style="stroke: #000000; stroke-width: 0.8"/>
      </g>
     </g>
     <g id="text_7">
      <!-- 0.0 -->
      <g transform="translate(42.12 313.139) scale(0.16 -0.16)">
       <defs>
        <path id="TimesNewRomanPSMT-2e" d="M 800 606 
Q 947 606 1047 504 
Q 1147 403 1147 259 
Q 1147 116 1045 14 
Q 944 -88 800 -88 
Q 656 -88 554 14 
Q 453 116 453 259 
Q 453 406 554 506 
Q 656 606 800 606 
z
" transform="scale(0.015625)"/>
       </defs>
       <use xlink:href="#TimesNewRomanPSMT-30"/>
       <use xlink:href="#TimesNewRomanPSMT-2e" x="50"/>
       <use xlink:href="#TimesNewRomanPSMT-30" x="75"/>
      </g>
     </g>
    </g>
    <g id="ytick_2">
     <g id="line2d_13">
      <path d="M 69.12 269.568 
L 414.72 269.568 
" clip-path="url(#p82c9ac6092)" style="fill: none; stroke: #b0b0b0; stroke-width: 0.8; stroke-linecap: square"/>
     </g>
     <g id="line2d_14">
      <g>
       <use xlink:href="#mdad1e63295" x="69.12" y="269.568" style="stroke: #000000; stroke-width: 0.8"/>
      </g>
     </g>
     <g id="text_8">
      <!-- 0.5 -->
      <g transform="translate(42.12 275.123) scale(0.16 -0.16)">
       <use xlink:href="#TimesNewRomanPSMT-30"/>
       <use xlink:href="#TimesNewRomanPSMT-2e" x="50"/>
       <use xlink:href="#TimesNewRomanPSMT-35" x="75"/>
      </g>
     </g>
    </g>
    <g id="ytick_3">
     <g id="line2d_15">
      <path d="M 69.12 231.552 
L 414.72 231.552 
" clip-path="url(#p82c9ac6092)" style="fill: none; stroke: #b0b0b0; stroke-width: 0.8; stroke-linecap: square"/>
     </g>
     <g id="line2d_16">
      <g>
       <use xlink:href="#mdad1e63295" x="69.12" y="231.552" style="stroke: #000000; stroke-width: 0.8"/>
      </g>
     </g>
     <g id="text_9">
      <!-- 1.0 -->
      <g transform="translate(42.12 237.107) scale(0.16 -0.16)">
       <use xlink:href="#TimesNewRomanPSMT-31"/>
       <use xlink:href="#TimesNewRomanPSMT-2e" x="50"/>
       <use xlink:href="#TimesNewRomanPSMT-30" x="75"/>
      </g>
     </g>
    </g>
    <g id="ytick_4">
     <g id="line2d_17">
      <path d="M 69.12 193.536 
L 414.72 193.536 
" clip-path="url(#p82c9ac6092)" style="fill: none; stroke: #b0b0b0; stroke-width: 0.8; stroke-linecap: square"/>
     </g>
     <g id="line2d_18">
      <g>
       <use xlink:href="#mdad1e63295" x="69.12" y="193.536" style="stroke: #000000; stroke-width: 0.8"/>
      </g>
     </g>
     <g id="text_10">
      <!-- 1.5 -->
      <g transform="translate(42.12 199.091) scale(0.16 -0.16)">
       <use xlink:href="#TimesNewRomanPSMT-31"/>
       <use xlink:href="#TimesNewRomanPSMT-2e" x="50"/>
       <use xlink:href="#TimesNewRomanPSMT-35" x="75"/>
      </g>
     </g>
    </g>
    <g id="ytick_5">
     <g id="line2d_19">
      <path d="M 69.12 155.52 
L 414.72 155.52 
" clip-path="url(#p82c9ac6092)" style="fill: none; stroke: #b0b0b0; stroke-width: 0.8; stroke-linecap: square"/>
     </g>
     <g id="line2d_20">
      <g>
       <use xlink:href="#mdad1e63295" x="69.12" y="155.52" style="stroke: #000000; stroke-width: 0.8"/>
      </g>
     </g>
     <g id="text_11">
      <!-- 2.0 -->
      <g transform="translate(42.12 161.075) scale(0.16 -0.16)">
       <use xlink:href="#TimesNewRomanPSMT-32"/>
       <use xlink:href="#TimesNewRomanPSMT-2e" x="50"/>
       <use xlink:href="#TimesNewRomanPSMT-30" x="75"/>
      </g>
     </g>
    </g>
    <g id="ytick_6">
     <g id="line2d_21">
      <path d="M 69.12 117.504 
L 414.72 117.504 
" clip-path="url(#p82c9ac6092)" style="fill: none; stroke: #b0b0b0; stroke-width: 0.8; stroke-linecap: square"/>
     </g>
     <g id="line2d_22">
      <g>
       <use xlink:href="#mdad1e63295" x="69.12" y="117.504" style="stroke: #000000; stroke-width: 0.8"/>
      </g>
     </g>
     <g id="text_12">
      <!-- 2.5 -->
      <g transform="translate(42.12 123.059) scale(0.16 -0.16)">
       <use xlink:href="#TimesNewRomanPSMT-32"/>
       <use xlink:href="#TimesNewRomanPSMT-2e" x="50"/>
       <use xlink:href="#TimesNewRomanPSMT-35" x="75"/>
      </g>
     </g>
    </g>
    <g id="ytick_7">
     <g id="line2d_23">
      <path d="M 69.12 79.488 
L 414.72 79.488 
" clip-path="url(#p82c9ac6092)" style="fill: none; stroke: #b0b0b0; stroke-width: 0.8; stroke-linecap: square"/>
     </g>
     <g id="line2d_24">
      <g>
       <use xlink:href="#mdad1e63295" x="69.12" y="79.488" style="stroke: #000000; stroke-width: 0.8"/>
      </g>
     </g>
     <g id="text_13">
      <!-- 3.0 -->
      <g transform="translate(42.12 85.043) scale(0.16 -0.16)">
       <defs>
        <path id="TimesNewRomanPSMT-33" d="M 325 3431 
Q 506 3859 782 4092 
Q 1059 4325 1472 4325 
Q 1981 4325 2253 3994 
Q 2459 3747 2459 3466 
Q 2459 3003 1878 2509 
Q 2269 2356 2469 2072 
Q 2669 1788 2669 1403 
Q 2669 853 2319 450 
Q 1863 -75 997 -75 
Q 569 -75 414 31 
Q 259 138 259 259 
Q 259 350 332 419 
Q 406 488 509 488 
Q 588 488 669 463 
Q 722 447 909 348 
Q 1097 250 1169 231 
Q 1284 197 1416 197 
Q 1734 197 1970 444 
Q 2206 691 2206 1028 
Q 2206 1275 2097 1509 
Q 2016 1684 1919 1775 
Q 1784 1900 1550 2001 
Q 1316 2103 1072 2103 
L 972 2103 
L 972 2197 
Q 1219 2228 1467 2375 
Q 1716 2522 1828 2728 
Q 1941 2934 1941 3181 
Q 1941 3503 1739 3701 
Q 1538 3900 1238 3900 
Q 753 3900 428 3381 
L 325 3431 
z
" transform="scale(0.015625)"/>
       </defs>
       <use xlink:href="#TimesNewRomanPSMT-33"/>
       <use xlink:href="#TimesNewRomanPSMT-2e" x="50"/>
       <use xlink:href="#TimesNewRomanPSMT-30" x="75"/>
      </g>
     </g>
    </g>
    <g id="ytick_8">
     <g id="line2d_25">
      <path d="M 69.12 41.472 
L 414.72 41.472 
" clip-path="url(#p82c9ac6092)" style="fill: none; stroke: #b0b0b0; stroke-width: 0.8; stroke-linecap: square"/>
     </g>
     <g id="line2d_26">
      <g>
       <use xlink:href="#mdad1e63295" x="69.12" y="41.472" style="stroke: #000000; stroke-width: 0.8"/>
      </g>
     </g>
     <g id="text_14">
      <!-- 3.5 -->
      <g transform="translate(42.12 47.027) scale(0.16 -0.16)">
       <use xlink:href="#TimesNewRomanPSMT-33"/>
       <use xlink:href="#TimesNewRomanPSMT-2e" x="50"/>
       <use xlink:href="#TimesNewRomanPSMT-35" x="75"/>
      </g>
     </g>
    </g>
    <g id="text_15">
     <!-- throughput[MOP/s] -->
     <g transform="translate(34.235938 245.529562) rotate(-90) scale(0.18 -0.18)">
      <defs>
       <path id="TimesNewRomanPSMT-75" d="M 2709 2863 
L 2709 1128 
Q 2709 631 2732 520 
Q 2756 409 2807 365 
Q 2859 322 2928 322 
Q 3025 322 3147 375 
L 3191 266 
L 2334 -88 
L 2194 -88 
L 2194 519 
Q 1825 119 1631 15 
Q 1438 -88 1222 -88 
Q 981 -88 804 51 
Q 628 191 559 409 
Q 491 628 491 1028 
L 491 2306 
Q 491 2509 447 2587 
Q 403 2666 317 2708 
Q 231 2750 6 2747 
L 6 2863 
L 1009 2863 
L 1009 947 
Q 1009 547 1148 422 
Q 1288 297 1484 297 
Q 1619 297 1789 381 
Q 1959 466 2194 703 
L 2194 2325 
Q 2194 2569 2105 2655 
Q 2016 2741 1734 2747 
L 1734 2863 
L 2709 2863 
z
" transform="scale(0.015625)"/>
       <path id="TimesNewRomanPSMT-67" d="M 966 1044 
Q 703 1172 562 1401 
Q 422 1631 422 1909 
Q 422 2334 742 2640 
Q 1063 2947 1563 2947 
Q 1972 2947 2272 2747 
L 2878 2747 
Q 3013 2747 3034 2739 
Q 3056 2731 3066 2713 
Q 3084 2684 3084 2613 
Q 3084 2531 3069 2500 
Q 3059 2484 3036 2475 
Q 3013 2466 2878 2466 
L 2506 2466 
Q 2681 2241 2681 1891 
Q 2681 1491 2375 1206 
Q 2069 922 1553 922 
Q 1341 922 1119 984 
Q 981 866 932 777 
Q 884 688 884 625 
Q 884 572 936 522 
Q 988 472 1138 450 
Q 1225 438 1575 428 
Q 2219 413 2409 384 
Q 2700 344 2873 169 
Q 3047 -6 3047 -263 
Q 3047 -616 2716 -925 
Q 2228 -1381 1444 -1381 
Q 841 -1381 425 -1109 
Q 191 -953 191 -784 
Q 191 -709 225 -634 
Q 278 -519 444 -313 
Q 466 -284 763 25 
Q 600 122 533 198 
Q 466 275 466 372 
Q 466 481 555 628 
Q 644 775 966 1044 
z
M 1509 2797 
Q 1278 2797 1122 2612 
Q 966 2428 966 2047 
Q 966 1553 1178 1281 
Q 1341 1075 1591 1075 
Q 1828 1075 1981 1253 
Q 2134 1431 2134 1813 
Q 2134 2309 1919 2591 
Q 1759 2797 1509 2797 
z
M 934 0 
Q 788 -159 713 -296 
Q 638 -434 638 -550 
Q 638 -700 819 -813 
Q 1131 -1006 1722 -1006 
Q 2284 -1006 2551 -807 
Q 2819 -609 2819 -384 
Q 2819 -222 2659 -153 
Q 2497 -84 2016 -72 
Q 1313 -53 934 0 
z
" transform="scale(0.015625)"/>
       <path id="TimesNewRomanPSMT-70" d="M -6 2578 
L 875 2934 
L 994 2934 
L 994 2266 
Q 1216 2644 1439 2795 
Q 1663 2947 1909 2947 
Q 2341 2947 2628 2609 
Q 2981 2197 2981 1534 
Q 2981 794 2556 309 
Q 2206 -88 1675 -88 
Q 1444 -88 1275 -22 
Q 1150 25 994 166 
L 994 -706 
Q 994 -1000 1030 -1079 
Q 1066 -1159 1155 -1206 
Q 1244 -1253 1478 -1253 
L 1478 -1369 
L -22 -1369 
L -22 -1253 
L 56 -1253 
Q 228 -1256 350 -1188 
Q 409 -1153 442 -1076 
Q 475 -1000 475 -688 
L 475 2019 
Q 475 2297 450 2372 
Q 425 2447 370 2484 
Q 316 2522 222 2522 
Q 147 2522 31 2478 
L -6 2578 
z
M 994 2081 
L 994 1013 
Q 994 666 1022 556 
Q 1066 375 1236 237 
Q 1406 100 1666 100 
Q 1978 100 2172 344 
Q 2425 663 2425 1241 
Q 2425 1897 2138 2250 
Q 1938 2494 1663 2494 
Q 1513 2494 1366 2419 
Q 1253 2363 994 2081 
z
" transform="scale(0.015625)"/>
       <path id="TimesNewRomanPSMT-5b" d="M 1900 -1269 
L 525 -1269 
L 525 4334 
L 1900 4334 
L 1900 4088 
L 994 4088 
L 994 -1025 
L 1900 -1025 
L 1900 -1269 
z
" transform="scale(0.015625)"/>
       <path id="TimesNewRomanPSMT-4d" d="M 2619 0 
L 981 3566 
L 981 734 
Q 981 344 1066 247 
Q 1181 116 1431 116 
L 1581 116 
L 1581 0 
L 106 0 
L 106 116 
L 256 116 
Q 525 116 638 278 
Q 706 378 706 734 
L 706 3503 
Q 706 3784 644 3909 
Q 600 4000 483 4061 
Q 366 4122 106 4122 
L 106 4238 
L 1306 4238 
L 2844 922 
L 4356 4238 
L 5556 4238 
L 5556 4122 
L 5409 4122 
Q 5138 4122 5025 3959 
Q 4956 3859 4956 3503 
L 4956 734 
Q 4956 344 5044 247 
Q 5159 116 5409 116 
L 5556 116 
L 5556 0 
L 3756 0 
L 3756 116 
L 3906 116 
Q 4178 116 4288 278 
Q 4356 378 4356 734 
L 4356 3566 
L 2722 0 
L 2619 0 
z
" transform="scale(0.015625)"/>
       <path id="TimesNewRomanPSMT-4f" d="M 2341 4334 
Q 3166 4334 3770 3707 
Q 4375 3081 4375 2144 
Q 4375 1178 3765 540 
Q 3156 -97 2291 -97 
Q 1416 -97 820 525 
Q 225 1147 225 2134 
Q 225 3144 913 3781 
Q 1509 4334 2341 4334 
z
M 2281 4106 
Q 1713 4106 1369 3684 
Q 941 3159 941 2147 
Q 941 1109 1384 550 
Q 1725 125 2284 125 
Q 2881 125 3270 590 
Q 3659 1056 3659 2059 
Q 3659 3147 3231 3681 
Q 2888 4106 2281 4106 
z
" transform="scale(0.015625)"/>
       <path id="TimesNewRomanPSMT-50" d="M 1313 1984 
L 1313 750 
Q 1313 350 1400 253 
Q 1519 116 1759 116 
L 1922 116 
L 1922 0 
L 106 0 
L 106 116 
L 266 116 
Q 534 116 650 291 
Q 713 388 713 750 
L 713 3488 
Q 713 3888 628 3984 
Q 506 4122 266 4122 
L 106 4122 
L 106 4238 
L 1659 4238 
Q 2228 4238 2556 4120 
Q 2884 4003 3109 3725 
Q 3334 3447 3334 3066 
Q 3334 2547 2992 2222 
Q 2650 1897 2025 1897 
Q 1872 1897 1694 1919 
Q 1516 1941 1313 1984 
z
M 1313 2163 
Q 1478 2131 1606 2115 
Q 1734 2100 1825 2100 
Q 2150 2100 2386 2351 
Q 2622 2603 2622 3003 
Q 2622 3278 2509 3514 
Q 2397 3750 2190 3867 
Q 1984 3984 1722 3984 
Q 1563 3984 1313 3925 
L 1313 2163 
z
" transform="scale(0.015625)"/>
       <path id="TimesNewRomanPSMT-2f" d="M 1794 4444 
L 259 -88 
L 9 -88 
L 1544 4444 
L 1794 4444 
z
" transform="scale(0.015625)"/>
       <path id="TimesNewRomanPSMT-73" d="M 2050 2947 
L 2050 1972 
L 1947 1972 
Q 1828 2431 1642 2597 
Q 1456 2763 1169 2763 
Q 950 2763 815 2647 
Q 681 2531 681 2391 
Q 681 2216 781 2091 
Q 878 1963 1175 1819 
L 1631 1597 
Q 2266 1288 2266 781 
Q 2266 391 1970 151 
Q 1675 -88 1309 -88 
Q 1047 -88 709 6 
Q 606 38 541 38 
Q 469 38 428 -44 
L 325 -44 
L 325 978 
L 428 978 
Q 516 541 762 319 
Q 1009 97 1316 97 
Q 1531 97 1667 223 
Q 1803 350 1803 528 
Q 1803 744 1651 891 
Q 1500 1038 1047 1263 
Q 594 1488 453 1669 
Q 313 1847 313 2119 
Q 313 2472 555 2709 
Q 797 2947 1181 2947 
Q 1350 2947 1591 2875 
Q 1750 2828 1803 2828 
Q 1853 2828 1881 2850 
Q 1909 2872 1947 2947 
L 2050 2947 
z
" transform="scale(0.015625)"/>
       <path id="TimesNewRomanPSMT-5d" d="M 234 4334 
L 1609 4334 
L 1609 -1272 
L 234 -1272 
L 234 -1025 
L 1141 -1025 
L 1141 4088 
L 234 4088 
L 234 4334 
z
" transform="scale(0.015625)"/>
      </defs>
      <use xlink:href="#TimesNewRomanPSMT-74"/>
      <use xlink:href="#TimesNewRomanPSMT-68" x="27.783203"/>
      <use xlink:href="#TimesNewRomanPSMT-72" x="77.783203"/>
      <use xlink:href="#TimesNewRomanPSMT-6f" x="111.083984"/>
      <use xlink:href="#TimesNewRomanPSMT-75" x="161.083984"/>
      <use xlink:href="#TimesNewRomanPSMT-67" x="211.083984"/>
      <use xlink:href="#TimesNewRomanPSMT-68" x="261.083984"/>
      <use xlink:href="#TimesNewRomanPSMT-70" x="311.083984"/>
      <use xlink:href="#TimesNewRomanPSMT-75" x="361.083984"/>
      <use xlink:href="#TimesNewRomanPSMT-74" x="411.083984"/>
      <use xlink:href="#TimesNewRomanPSMT-5b" x="438.867188"/>
      <use xlink:href="#TimesNewRomanPSMT-4d" x="472.167969"/>
      <use xlink:href="#TimesNewRomanPSMT-4f" x="561.083984"/>
      <use xlink:href="#TimesNewRomanPSMT-50" x="633.300781"/>
      <use xlink:href="#TimesNewRomanPSMT-2f" x="688.916016"/>
      <use xlink:href="#TimesNewRomanPSMT-73" x="716.699219"/>
      <use xlink:href="#TimesNewRomanPSMT-5d" x="755.615234"/>
     </g>
    </g>
    <g id="text_16">
     <!-- 1e6 -->
     <g transform="translate(69.12 38.472) scale(0.16 -0.16)">
      <defs>
       <path id="TimesNewRomanPSMT-36" d="M 2869 4325 
L 2869 4209 
Q 2456 4169 2195 4045 
Q 1934 3922 1679 3669 
Q 1425 3416 1258 3105 
Q 1091 2794 978 2366 
Q 1428 2675 1881 2675 
Q 2316 2675 2634 2325 
Q 2953 1975 2953 1425 
Q 2953 894 2631 456 
Q 2244 -75 1606 -75 
Q 1172 -75 869 213 
Q 275 772 275 1663 
Q 275 2231 503 2743 
Q 731 3256 1154 3653 
Q 1578 4050 1965 4187 
Q 2353 4325 2688 4325 
L 2869 4325 
z
M 925 2138 
Q 869 1716 869 1456 
Q 869 1156 980 804 
Q 1091 453 1309 247 
Q 1469 100 1697 100 
Q 1969 100 2183 356 
Q 2397 613 2397 1088 
Q 2397 1622 2184 2012 
Q 1972 2403 1581 2403 
Q 1463 2403 1327 2353 
Q 1191 2303 925 2138 
z
" transform="scale(0.015625)"/>
      </defs>
      <use xlink:href="#TimesNewRomanPSMT-31"/>
      <use xlink:href="#TimesNewRomanPSMT-65" x="50"/>
      <use xlink:href="#TimesNewRomanPSMT-36" x="94.384766"/>
     </g>
    </g>
   </g>
   <g id="line2d_27">
    <path d="M 69.697926 147.781995 
L 70.853779 153.955033 
L 72.009632 149.416455 
L 73.165485 152.962588 
L 74.321338 135.835923 
L 75.477191 150.096105 
L 76.633043 145.692864 
L 77.788896 151.092429 
L 78.944749 149.443599 
L 80.100602 155.017276 
L 81.256455 144.878637 
L 82.412308 154.569904 
L 83.568161 145.075788 
L 84.724013 154.088013 
L 85.879866 141.458414 
L 87.035719 154.379064 
L 88.191572 155.61945 
L 89.347425 152.5251 
L 90.503278 154.462015 
L 92.814983 157.708429 
L 93.970836 155.628041 
L 95.126689 152.191851 
L 96.282542 159.571213 
L 97.438395 159.373226 
L 98.594247 156.784944 
L 99.7501 157.935841 
L 100.905953 154.015175 
L 102.061806 156.095638 
L 103.217659 154.781273 
L 104.373512 143.104811 
L 105.529365 149.314876 
L 106.685217 153.96583 
L 107.84107 152.464654 
L 108.996923 154.016771 
L 110.152776 146.549745 
L 111.308629 154.899731 
L 112.464482 156.106663 
L 113.620334 155.013095 
L 114.776187 157.187306 
L 117.087893 156.922714 
L 118.243746 156.422652 
L 119.399599 148.360219 
L 120.555452 155.916279 
L 121.711304 154.887794 
L 122.867157 156.50355 
L 124.02301 163.006491 
L 125.178863 153.006838 
L 126.334716 151.777553 
L 127.490569 151.522542 
L 128.646421 154.008256 
L 129.802274 154.344545 
L 130.958127 149.527386 
L 132.11398 143.097664 
L 133.269833 152.745136 
L 134.425686 141.796452 
L 135.581538 148.818159 
L 136.737391 152.904727 
L 137.893244 144.523188 
L 139.049097 147.915279 
L 140.20495 153.457784 
L 141.360803 154.329263 
L 142.516656 154.284556 
L 143.672508 148.222068 
L 144.828361 156.974036 
L 145.984214 156.939517 
L 147.140067 147.212972 
L 148.29592 152.406109 
L 149.451773 152.380639 
L 151.763478 158.254567 
L 152.919331 156.273401 
L 154.075184 155.593979 
L 155.231037 155.394319 
L 156.38689 140.571653 
L 157.542742 156.687319 
L 158.698595 145.781897 
L 159.854448 157.923524 
L 161.010301 156.048042 
L 162.166154 154.847649 
L 163.322007 157.957358 
L 164.47786 159.10871 
L 165.633712 149.183721 
L 166.789565 148.930687 
L 167.945418 153.581792 
L 169.101271 159.249902 
L 170.257124 159.144521 
L 171.412977 148.334748 
L 172.568829 157.628519 
L 173.724682 156.998746 
L 174.880535 156.019682 
L 176.036388 144.351964 
L 177.192241 153.029496 
L 178.348094 143.616734 
L 179.503946 114.604063 
L 180.659799 132.269871 
L 181.815652 131.959812 
L 182.971505 153.478085 
L 184.127358 145.164366 
L 185.283211 133.681557 
L 186.439064 150.99967 
L 187.594916 156.282145 
L 189.906622 154.781653 
L 191.062475 133.183091 
L 192.218328 155.688715 
L 193.374181 148.342503 
L 194.530033 150.013382 
L 195.685886 146.934314 
L 196.841739 136.109943 
L 197.997592 138.237166 
L 199.153445 154.819821 
L 200.309298 151.056846 
L 201.465151 153.801829 
L 202.621003 153.260025 
L 203.776856 157.363624 
L 204.932709 160.159092 
L 206.088562 155.644921 
L 207.244415 160.829695 
L 208.400268 154.240229 
L 209.55612 154.489766 
L 210.711973 154.968312 
L 211.867826 145.871919 
L 213.023679 153.047972 
L 215.335385 152.734035 
L 216.491237 144.428224 
L 217.64709 156.060892 
L 218.802943 154.884372 
L 219.958796 148.395726 
L 221.114649 155.359572 
L 222.270502 156.259943 
L 223.426355 153.859461 
L 224.582207 158.349303 
L 225.73806 154.698018 
L 226.893913 152.946317 
L 228.049766 150.461971 
L 229.205619 136.778948 
L 231.517324 151.716119 
L 232.673177 157.115303 
L 233.82903 149.64113 
L 234.984883 155.079775 
L 236.140736 155.788013 
L 237.296589 156.688004 
L 238.452441 146.885502 
L 239.608294 155.428229 
L 240.764147 145.68298 
L 241.92 158.112083 
L 243.075853 157.601756 
L 244.231706 157.239007 
L 245.387559 159.052371 
L 246.543411 158.985843 
L 247.699264 158.55573 
L 248.855117 156.570382 
L 250.01097 155.748248 
L 251.166823 156.412236 
L 252.322676 145.678874 
L 253.478528 142.118372 
L 254.634381 156.443105 
L 255.790234 152.366953 
L 256.946087 141.609185 
L 258.10194 155.599986 
L 259.257793 148.695368 
L 260.413645 157.353664 
L 261.569498 139.264434 
L 262.725351 139.636231 
L 263.881204 146.394487 
L 265.037057 152.08381 
L 266.19291 142.218506 
L 267.348763 144.662478 
L 268.504615 134.240924 
L 269.660468 151.745848 
L 270.816321 155.475065 
L 271.972174 154.690111 
L 273.128027 146.49713 
L 274.28388 144.35242 
L 275.439732 156.807374 
L 276.595585 145.809497 
L 277.751438 155.851271 
L 278.907291 153.996395 
L 280.063144 153.164681 
L 281.218997 156.891009 
L 282.374849 148.541631 
L 283.530702 142.742062 
L 284.686555 139.587646 
L 285.842408 160.657634 
L 288.154114 138.716624 
L 289.309967 144.503419 
L 290.465819 152.133611 
L 291.621672 149.523584 
L 292.777525 134.298861 
L 293.933378 156.056938 
L 295.089231 139.871094 
L 296.245084 154.431526 
L 297.400936 148.742812 
L 298.556789 151.225865 
L 299.712642 150.806624 
L 300.868495 133.703682 
L 302.024348 153.555713 
L 303.180201 133.833545 
L 305.491906 146.967617 
L 306.647759 159.387824 
L 307.803612 155.108667 
L 308.959465 158.324212 
L 310.115318 147.536792 
L 311.271171 154.948543 
L 312.427023 150.537319 
L 313.582876 140.305236 
L 314.738729 152.726888 
L 315.894582 155.30521 
L 317.050435 154.328959 
L 318.206288 145.213254 
L 319.36214 153.56613 
L 320.517993 155.123873 
L 321.673846 153.912151 
L 322.829699 154.694369 
L 323.985552 156.046294 
L 325.141405 157.808715 
L 326.297258 155.292816 
L 327.45311 154.678022 
L 328.608963 171.82377 
L 329.764816 156.449415 
L 330.920669 159.638045 
L 332.076522 155.350905 
L 333.232375 157.928162 
L 335.54408 151.251107 
L 336.699933 136.753097 
L 337.855786 130.463882 
L 339.011639 146.398517 
L 340.167492 142.876183 
L 341.323344 152.522514 
L 342.479197 154.229129 
L 343.63505 152.271457 
L 344.790903 154.254523 
L 345.946756 157.361799 
L 347.102609 126.022549 
L 348.258462 151.714826 
L 349.414314 149.246448 
L 350.570167 140.057068 
L 351.72602 155.991398 
L 352.881873 121.014245 
L 354.037726 140.42377 
L 355.193579 150.180805 
L 356.349431 152.082897 
L 357.505284 147.829971 
L 358.661137 119.319568 
L 359.81699 159.619265 
L 360.972843 121.764225 
L 362.128696 164.251439 
L 363.284548 138.802616 
L 364.440401 166.981216 
L 365.596254 144.012253 
L 366.752107 159.036176 
L 367.90796 129.79655 
L 369.063813 151.453352 
L 370.219666 140.183813 
L 371.375518 135.363841 
L 372.531371 135.584105 
L 373.687224 154.242967 
L 374.843077 129.726828 
L 375.99893 150.632207 
L 377.154783 143.420724 
L 378.310635 157.23034 
L 379.466488 128.179501 
L 380.622341 154.31801 
L 381.778194 202.309332 
L 382.934047 142.131145 
L 384.0899 165.925435 
L 385.245753 148.673699 
L 386.401605 146.710476 
L 387.557458 140.160472 
L 388.713311 159.328899 
L 389.869164 128.502941 
L 391.025017 146.78955 
L 392.18087 123.418377 
L 393.336722 142.282373 
L 394.492575 150.350432 
L 395.648428 140.745994 
L 396.804281 151.245709 
L 397.960134 159.322284 
L 399.115987 147.780627 
L 400.271839 132.3789 
L 401.427692 144.344969 
L 402.583545 135.862078 
L 403.739398 150.649542 
L 404.895251 126.099798 
L 406.051104 151.511669 
L 407.206957 151.630963 
L 408.362809 156.600871 
L 409.518662 139.591448 
L 410.674515 156.0431 
L 411.830368 122.760168 
L 412.986221 159.088866 
L 414.142074 115.786893 
L 414.142074 115.786893 
" clip-path="url(#p82c9ac6092)" style="fill: none; stroke: #1f77b4; stroke-linecap: square"/>
   </g>
   <g id="line2d_28">
    <path d="M 69.697926 134.317412 
L 70.853779 158.646968 
L 72.009632 167.292263 
L 73.165485 141.670695 
L 74.321338 149.293207 
L 75.477191 142.878387 
L 76.633043 165.340293 
L 77.788896 148.499585 
L 78.944749 160.969366 
L 80.100602 160.460787 
L 81.256455 154.474712 
L 82.412308 145.742513 
L 83.568161 137.978961 
L 84.724013 147.648787 
L 85.879866 136.771725 
L 87.035719 160.801487 
L 88.191572 162.4767 
L 89.347425 145.139199 
L 90.503278 140.601837 
L 91.65913 134.293614 
L 92.814983 132.546931 
L 93.970836 164.015816 
L 95.126689 159.268758 
L 96.282542 160.733286 
L 97.438395 137.689964 
L 98.594247 161.676007 
L 99.7501 164.606812 
L 100.905953 134.907801 
L 102.061806 156.999811 
L 103.217659 160.517127 
L 104.373512 167.930323 
L 105.529365 157.026878 
L 106.685217 160.962218 
L 107.84107 158.262018 
L 108.996923 145.553573 
L 110.152776 153.908198 
L 111.308629 166.326352 
L 112.464482 153.864175 
L 113.620334 143.138873 
L 114.776187 143.142371 
L 115.93204 137.617885 
L 117.087893 165.214156 
L 118.243746 167.560732 
L 119.399599 141.3119 
L 120.555452 150.370733 
L 121.711304 136.882428 
L 122.867157 150.120131 
L 124.02301 160.499336 
L 125.178863 149.130423 
L 126.334716 158.828837 
L 127.490569 145.330039 
L 128.646421 136.121652 
L 129.802274 164.67144 
L 130.958127 162.64838 
L 132.11398 161.295619 
L 133.269833 142.559281 
L 134.425686 153.117009 
L 135.581538 148.929014 
L 136.737391 129.923067 
L 137.893244 136.011709 
L 139.049097 161.068207 
L 140.20495 132.574835 
L 141.360803 163.262415 
L 142.516656 152.267275 
L 143.672508 145.879447 
L 144.828361 155.044116 
L 145.984214 146.877899 
L 147.140067 160.886795 
L 148.29592 155.684305 
L 149.451773 142.191742 
L 150.607625 167.534577 
L 151.763478 166.463514 
L 152.919331 162.20116 
L 155.231037 145.15182 
L 156.38689 166.262409 
L 157.542742 144.269849 
L 158.698595 160.33754 
L 159.854448 141.46769 
L 161.010301 146.467098 
L 162.166154 142.788898 
L 163.322007 161.805718 
L 164.47786 143.719149 
L 165.633712 166.92442 
L 166.789565 141.17854 
L 167.945418 136.880983 
L 169.101271 145.004394 
L 170.257124 163.111263 
L 171.412977 160.856078 
L 172.568829 131.579424 
L 173.724682 142.234853 
L 174.880535 132.888467 
L 176.036388 144.150175 
L 177.192241 151.592415 
L 178.348094 155.926087 
L 180.659799 170.447058 
L 181.815652 158.310222 
L 182.971505 141.582118 
L 184.127358 136.334541 
L 185.283211 145.085748 
L 186.439064 159.646257 
L 187.594916 165.69962 
L 188.750769 145.601245 
L 189.906622 163.353273 
L 191.062475 169.825725 
L 192.218328 161.801916 
L 193.374181 161.883878 
L 194.530033 141.719356 
L 195.685886 155.122657 
L 196.841739 162.581092 
L 197.997592 144.284295 
L 199.153445 153.767919 
L 200.309298 145.328367 
L 201.465151 154.615219 
L 202.621003 142.339473 
L 203.776856 143.208062 
L 204.932709 154.02886 
L 206.088562 144.09125 
L 207.244415 150.188104 
L 208.400268 158.819561 
L 209.55612 137.426741 
L 210.711973 142.21957 
L 211.867826 140.148382 
L 213.023679 150.447145 
L 214.179532 161.907372 
L 215.335385 169.776304 
L 216.491237 160.870524 
L 217.64709 159.628237 
L 218.802943 164.21137 
L 219.958796 141.991246 
L 221.114649 159.33156 
L 222.270502 181.298193 
L 223.426355 139.060593 
L 224.582207 160.984268 
L 225.73806 141.408309 
L 226.893913 137.103377 
L 228.049766 160.542826 
L 229.205619 162.970528 
L 230.361472 152.443517 
L 231.517324 150.438021 
L 232.673177 154.632022 
L 233.82903 154.560324 
L 234.984883 157.79731 
L 236.140736 132.496598 
L 237.296589 143.150506 
L 238.452441 158.104328 
L 239.608294 159.058073 
L 240.764147 145.993723 
L 241.92 144.180435 
L 243.075853 152.580375 
L 244.231706 171.68676 
L 245.387559 145.942021 
L 246.543411 159.951601 
L 247.699264 159.617441 
L 248.855117 152.524035 
L 250.01097 158.146449 
L 251.166823 146.256413 
L 252.322676 147.329833 
L 253.478528 154.286077 
L 254.634381 157.32979 
L 255.790234 133.544015 
L 256.946087 152.009679 
L 258.10194 118.702188 
L 259.257793 171.541919 
L 260.413645 153.446988 
L 261.569498 164.38229 
L 262.725351 137.628758 
L 263.881204 168.141084 
L 265.037057 154.310863 
L 266.19291 156.397561 
L 267.348763 142.386993 
L 268.504615 155.411198 
L 269.660468 162.074339 
L 270.816321 151.112425 
L 271.972174 157.508009 
L 273.128027 150.502724 
L 274.28388 165.97478 
L 275.439732 143.513559 
L 276.595585 146.48124 
L 277.751438 115.532414 
L 278.907291 152.073013 
L 280.063144 132.223415 
L 281.218997 152.314415 
L 282.374849 138.197705 
L 283.530702 142.63212 
L 284.686555 133.190466 
L 285.842408 136.54036 
L 286.998261 129.729337 
L 288.154114 130.999072 
L 289.309967 150.750437 
L 290.465819 125.695612 
L 291.621672 114.663749 
L 292.777525 135.436908 
L 293.933378 132.825208 
L 295.089231 123.837314 
L 296.245084 139.497853 
L 297.400936 141.547143 
L 298.556789 139.719942 
L 299.712642 139.702987 
L 300.868495 147.827767 
L 302.024348 138.882298 
L 303.180201 132.759821 
L 304.336054 145.359996 
L 305.491906 146.117959 
L 306.647759 138.012263 
L 307.803612 125.875427 
L 308.959465 146.42087 
L 310.115318 148.50696 
L 311.271171 124.215725 
L 312.427023 129.095763 
L 313.582876 144.079541 
L 314.738729 149.879946 
L 315.894582 171.157958 
L 317.050435 163.361636 
L 318.206288 137.277186 
L 319.36214 127.623631 
L 320.517993 148.203289 
L 321.673846 138.1844 
L 322.829699 131.523617 
L 323.985552 130.939995 
L 325.141405 131.142772 
L 326.297258 135.391745 
L 327.45311 133.940218 
L 328.608963 136.495501 
L 329.764816 132.19612 
L 330.920669 138.77783 
L 332.076522 169.061907 
L 333.232375 131.04834 
L 334.388227 129.089984 
L 335.54408 146.404904 
L 336.699933 142.99791 
L 337.855786 143.214829 
L 339.011639 168.339908 
L 340.167492 125.576546 
L 341.323344 149.83562 
L 342.479197 147.210463 
L 343.63505 143.501926 
L 344.790903 142.269827 
L 345.946756 142.526283 
L 347.102609 123.052435 
L 348.258462 131.121179 
L 349.414314 136.037104 
L 350.570167 134.317412 
L 351.72602 134.068103 
L 352.881873 137.528624 
L 354.037726 137.990518 
L 355.193579 128.242608 
L 356.349431 128.689904 
L 357.505284 123.029245 
L 358.661137 151.447878 
L 359.81699 145.756579 
L 360.972843 135.678537 
L 362.128696 150.244596 
L 363.284548 132.585403 
L 364.440401 157.181755 
L 365.596254 118.592094 
L 366.752107 140.714441 
L 367.90796 107.417899 
L 369.063813 139.695156 
L 370.219666 127.254876 
L 371.375518 153.44311 
L 372.531371 151.136147 
L 373.687224 133.035893 
L 374.843077 163.899031 
L 375.99893 124.648423 
L 377.154783 136.788604 
L 378.310635 120.921866 
L 379.466488 151.638262 
L 380.622341 133.925543 
L 381.778194 144.754325 
L 382.934047 134.556913 
L 384.0899 154.717026 
L 385.245753 128.121489 
L 386.401605 135.20942 
L 387.557458 163.575666 
L 388.713311 141.506998 
L 389.869164 165.001571 
L 391.025017 139.003493 
L 392.18087 132.403003 
L 393.336722 157.951047 
L 394.492575 139.447824 
L 395.648428 160.284089 
L 396.804281 143.326596 
L 397.960134 133.169025 
L 399.115987 158.860694 
L 400.271839 136.323821 
L 401.427692 179.529689 
L 402.583545 144.780404 
L 403.739398 155.374475 
L 404.895251 118.797304 
L 406.051104 132.071883 
L 407.206957 167.266716 
L 408.362809 149.406039 
L 409.518662 149.575818 
L 410.674515 141.103649 
L 411.830368 165.182071 
L 412.986221 134.175917 
L 414.142074 127.211005 
L 414.142074 127.211005 
" clip-path="url(#p82c9ac6092)" style="fill: none; stroke: #ff7f0e; stroke-linecap: square"/>
   </g>
   <g id="patch_3">
    <path d="M 69.12 307.584 
L 69.12 41.472 
" style="fill: none; stroke: #000000; stroke-width: 0.8; stroke-linejoin: miter; stroke-linecap: square"/>
   </g>
   <g id="patch_4">
    <path d="M 414.72 307.584 
L 414.72 41.472 
" style="fill: none; stroke: #000000; stroke-width: 0.8; stroke-linejoin: miter; stroke-linecap: square"/>
   </g>
   <g id="patch_5">
    <path d="M 69.12 307.584 
L 414.72 307.584 
" style="fill: none; stroke: #000000; stroke-width: 0.8; stroke-linejoin: miter; stroke-linecap: square"/>
   </g>
   <g id="patch_6">
    <path d="M 69.12 41.472 
L 414.72 41.472 
" style="fill: none; stroke: #000000; stroke-width: 0.8; stroke-linejoin: miter; stroke-linecap: square"/>
   </g>
   <g id="legend_1">
    <g id="patch_7">
     <path d="M 306.115 99.517 
L 403.52 99.517 
Q 406.72 99.517 406.72 96.317 
L 406.72 52.672 
Q 406.72 49.472 403.52 49.472 
L 306.115 49.472 
Q 302.915 49.472 302.915 52.672 
L 302.915 96.317 
Q 302.915 99.517 306.115 99.517 
z
" style="fill: #ffffff; opacity: 0.8; stroke: #cccccc; stroke-linejoin: miter"/>
    </g>
    <g id="line2d_29">
     <path d="M 309.315 61.472 
L 325.315 61.472 
L 341.315 61.472 
" style="fill: none; stroke: #1f77b4; stroke-linecap: square"/>
    </g>
    <g id="text_17">
     <!-- 12trees -->
     <g transform="translate(354.115 67.072) scale(0.16 -0.16)">
      <use xlink:href="#TimesNewRomanPSMT-31"/>
      <use xlink:href="#TimesNewRomanPSMT-32" x="50"/>
      <use xlink:href="#TimesNewRomanPSMT-74" x="100"/>
      <use xlink:href="#TimesNewRomanPSMT-72" x="127.783203"/>
      <use xlink:href="#TimesNewRomanPSMT-65" x="161.083984"/>
      <use xlink:href="#TimesNewRomanPSMT-65" x="205.46875"/>
      <use xlink:href="#TimesNewRomanPSMT-73" x="249.853516"/>
     </g>
    </g>
    <g id="line2d_30">
     <path d="M 309.315 84.0945 
L 325.315 84.0945 
L 341.315 84.0945 
" style="fill: none; stroke: #ff7f0e; stroke-linecap: square"/>
    </g>
    <g id="text_18">
     <!-- 50trees -->
     <g transform="translate(354.115 89.6945) scale(0.16 -0.16)">
      <use xlink:href="#TimesNewRomanPSMT-35"/>
      <use xlink:href="#TimesNewRomanPSMT-30" x="50"/>
      <use xlink:href="#TimesNewRomanPSMT-74" x="100"/>
      <use xlink:href="#TimesNewRomanPSMT-72" x="127.783203"/>
      <use xlink:href="#TimesNewRomanPSMT-65" x="161.083984"/>
      <use xlink:href="#TimesNewRomanPSMT-65" x="205.46875"/>
      <use xlink:href="#TimesNewRomanPSMT-73" x="249.853516"/>
     </g>
    </g>
   </g>
  </g>
 </g>
 <defs>
  <clipPath id="p82c9ac6092">
   <rect x="69.12" y="41.472" width="345.6" height="266.112"/>
  </clipPath>
 </defs>
</svg>
