<?xml version="1.0" encoding="utf-8" standalone="no"?>
<!DOCTYPE svg PUBLIC "-//W3C//DTD SVG 1.1//EN"
  "http://www.w3.org/Graphics/SVG/1.1/DTD/svg11.dtd">
<svg xmlns:xlink="http://www.w3.org/1999/xlink" width="460.8pt" height="345.6pt" viewBox="0 0 460.8 345.6" xmlns="http://www.w3.org/2000/svg" version="1.1">
 <metadata>
  <rdf:RDF xmlns:dc="http://purl.org/dc/elements/1.1/" xmlns:cc="http://creativecommons.org/ns#" xmlns:rdf="http://www.w3.org/1999/02/22-rdf-syntax-ns#">
   <cc:Work>
    <dc:type rdf:resource="http://purl.org/dc/dcmitype/StillImage"/>
    <dc:date>2024-02-15T08:03:44.589989</dc:date>
    <dc:format>image/svg+xml</dc:format>
    <dc:creator>
     <cc:Agent>
      <dc:title>Matplotlib v3.7.0, https://matplotlib.org/</dc:title>
     </cc:Agent>
    </dc:creator>
   </cc:Work>
  </rdf:RDF>
 </metadata>
 <defs>
  <style type="text/css">*{stroke-linejoin: round; stroke-linecap: butt}</style>
 </defs>
 <g id="figure_1">
  <g id="patch_1">
   <path d="M 0 345.6 
L 460.8 345.6 
L 460.8 0 
L 0 0 
L 0 345.6 
z
" style="fill: none"/>
  </g>
  <g id="axes_1">
   <g id="patch_2">
    <path d="M 69.12 307.584 
L 414.72 307.584 
L 414.72 41.472 
L 69.12 41.472 
L 69.12 307.584 
z
" style="fill: none"/>
   </g>
   <g id="matplotlib.axis_1">
    <g id="xtick_1">
     <g id="line2d_1">
      <path d="M 126.334716 307.584 
L 126.334716 41.472 
" clip-path="url(#pabf7a340cb)" style="fill: none; stroke: #b0b0b0; stroke-width: 0.8; stroke-linecap: square"/>
     </g>
     <g id="line2d_2">
      <defs>
       <path id="mb57075b5ce" d="M 0 0 
L 0 3.5 
" style="stroke: #000000; stroke-width: 0.8"/>
      </defs>
      <g>
       <use xlink:href="#mb57075b5ce" x="126.334716" y="307.584" style="stroke: #000000; stroke-width: 0.8"/>
      </g>
     </g>
     <g id="text_1">
      <!-- 50 -->
      <g transform="translate(118.334716 325.694) scale(0.16 -0.16)">
       <defs>
        <path id="TimesNewRomanPSMT-35" d="M 2778 4238 
L 2534 3706 
L 1259 3706 
L 981 3138 
Q 1809 3016 2294 2522 
Q 2709 2097 2709 1522 
Q 2709 1188 2573 903 
Q 2438 619 2231 419 
Q 2025 219 1772 97 
Q 1413 -75 1034 -75 
Q 653 -75 479 54 
Q 306 184 306 341 
Q 306 428 378 495 
Q 450 563 559 563 
Q 641 563 702 538 
Q 763 513 909 409 
Q 1144 247 1384 247 
Q 1750 247 2026 523 
Q 2303 800 2303 1197 
Q 2303 1581 2056 1914 
Q 1809 2247 1375 2428 
Q 1034 2569 447 2591 
L 1259 4238 
L 2778 4238 
z
" transform="scale(0.015625)"/>
        <path id="TimesNewRomanPSMT-30" d="M 231 2094 
Q 231 2819 450 3342 
Q 669 3866 1031 4122 
Q 1313 4325 1613 4325 
Q 2100 4325 2488 3828 
Q 2972 3213 2972 2159 
Q 2972 1422 2759 906 
Q 2547 391 2217 158 
Q 1888 -75 1581 -75 
Q 975 -75 572 641 
Q 231 1244 231 2094 
z
M 844 2016 
Q 844 1141 1059 588 
Q 1238 122 1591 122 
Q 1759 122 1940 273 
Q 2122 425 2216 781 
Q 2359 1319 2359 2297 
Q 2359 3022 2209 3506 
Q 2097 3866 1919 4016 
Q 1791 4119 1609 4119 
Q 1397 4119 1231 3928 
Q 1006 3669 925 3112 
Q 844 2556 844 2016 
z
" transform="scale(0.015625)"/>
       </defs>
       <use xlink:href="#TimesNewRomanPSMT-35"/>
       <use xlink:href="#TimesNewRomanPSMT-30" x="50"/>
      </g>
     </g>
    </g>
    <g id="xtick_2">
     <g id="line2d_3">
      <path d="M 184.127358 307.584 
L 184.127358 41.472 
" clip-path="url(#pabf7a340cb)" style="fill: none; stroke: #b0b0b0; stroke-width: 0.8; stroke-linecap: square"/>
     </g>
     <g id="line2d_4">
      <g>
       <use xlink:href="#mb57075b5ce" x="184.127358" y="307.584" style="stroke: #000000; stroke-width: 0.8"/>
      </g>
     </g>
     <g id="text_2">
      <!-- 100 -->
      <g transform="translate(172.127358 325.694) scale(0.16 -0.16)">
       <defs>
        <path id="TimesNewRomanPSMT-31" d="M 750 3822 
L 1781 4325 
L 1884 4325 
L 1884 747 
Q 1884 391 1914 303 
Q 1944 216 2037 169 
Q 2131 122 2419 116 
L 2419 0 
L 825 0 
L 825 116 
Q 1125 122 1212 167 
Q 1300 213 1334 289 
Q 1369 366 1369 747 
L 1369 3034 
Q 1369 3497 1338 3628 
Q 1316 3728 1258 3775 
Q 1200 3822 1119 3822 
Q 1003 3822 797 3725 
L 750 3822 
z
" transform="scale(0.015625)"/>
       </defs>
       <use xlink:href="#TimesNewRomanPSMT-31"/>
       <use xlink:href="#TimesNewRomanPSMT-30" x="50"/>
       <use xlink:href="#TimesNewRomanPSMT-30" x="100"/>
      </g>
     </g>
    </g>
    <g id="xtick_3">
     <g id="line2d_5">
      <path d="M 241.92 307.584 
L 241.92 41.472 
" clip-path="url(#pabf7a340cb)" style="fill: none; stroke: #b0b0b0; stroke-width: 0.8; stroke-linecap: square"/>
     </g>
     <g id="line2d_6">
      <g>
       <use xlink:href="#mb57075b5ce" x="241.92" y="307.584" style="stroke: #000000; stroke-width: 0.8"/>
      </g>
     </g>
     <g id="text_3">
      <!-- 150 -->
      <g transform="translate(229.92 325.694) scale(0.16 -0.16)">
       <use xlink:href="#TimesNewRomanPSMT-31"/>
       <use xlink:href="#TimesNewRomanPSMT-35" x="50"/>
       <use xlink:href="#TimesNewRomanPSMT-30" x="100"/>
      </g>
     </g>
    </g>
    <g id="xtick_4">
     <g id="line2d_7">
      <path d="M 299.712642 307.584 
L 299.712642 41.472 
" clip-path="url(#pabf7a340cb)" style="fill: none; stroke: #b0b0b0; stroke-width: 0.8; stroke-linecap: square"/>
     </g>
     <g id="line2d_8">
      <g>
       <use xlink:href="#mb57075b5ce" x="299.712642" y="307.584" style="stroke: #000000; stroke-width: 0.8"/>
      </g>
     </g>
     <g id="text_4">
      <!-- 200 -->
      <g transform="translate(287.712642 325.694) scale(0.16 -0.16)">
       <defs>
        <path id="TimesNewRomanPSMT-32" d="M 2934 816 
L 2638 0 
L 138 0 
L 138 116 
Q 1241 1122 1691 1759 
Q 2141 2397 2141 2925 
Q 2141 3328 1894 3587 
Q 1647 3847 1303 3847 
Q 991 3847 742 3664 
Q 494 3481 375 3128 
L 259 3128 
Q 338 3706 661 4015 
Q 984 4325 1469 4325 
Q 1984 4325 2329 3994 
Q 2675 3663 2675 3213 
Q 2675 2891 2525 2569 
Q 2294 2063 1775 1497 
Q 997 647 803 472 
L 1909 472 
Q 2247 472 2383 497 
Q 2519 522 2628 598 
Q 2738 675 2819 816 
L 2934 816 
z
" transform="scale(0.015625)"/>
       </defs>
       <use xlink:href="#TimesNewRomanPSMT-32"/>
       <use xlink:href="#TimesNewRomanPSMT-30" x="50"/>
       <use xlink:href="#TimesNewRomanPSMT-30" x="100"/>
      </g>
     </g>
    </g>
    <g id="xtick_5">
     <g id="line2d_9">
      <path d="M 357.505284 307.584 
L 357.505284 41.472 
" clip-path="url(#pabf7a340cb)" style="fill: none; stroke: #b0b0b0; stroke-width: 0.8; stroke-linecap: square"/>
     </g>
     <g id="line2d_10">
      <g>
       <use xlink:href="#mb57075b5ce" x="357.505284" y="307.584" style="stroke: #000000; stroke-width: 0.8"/>
      </g>
     </g>
     <g id="text_5">
      <!-- 250 -->
      <g transform="translate(345.505284 325.694) scale(0.16 -0.16)">
       <use xlink:href="#TimesNewRomanPSMT-32"/>
       <use xlink:href="#TimesNewRomanPSMT-35" x="50"/>
       <use xlink:href="#TimesNewRomanPSMT-30" x="100"/>
      </g>
     </g>
    </g>
    <g id="text_6">
     <!-- batch iteration -->
     <g transform="translate(190.191094 345.61525) scale(0.18 -0.18)">
      <defs>
       <path id="TimesNewRomanPSMT-62" d="M 984 2369 
Q 1400 2947 1881 2947 
Q 2322 2947 2650 2570 
Q 2978 2194 2978 1541 
Q 2978 778 2472 313 
Q 2038 -88 1503 -88 
Q 1253 -88 995 3 
Q 738 94 469 275 
L 469 3241 
Q 469 3728 445 3840 
Q 422 3953 372 3993 
Q 322 4034 247 4034 
Q 159 4034 28 3984 
L -16 4094 
L 844 4444 
L 984 4444 
L 984 2369 
z
M 984 2169 
L 984 456 
Q 1144 300 1314 220 
Q 1484 141 1663 141 
Q 1947 141 2192 453 
Q 2438 766 2438 1363 
Q 2438 1913 2192 2208 
Q 1947 2503 1634 2503 
Q 1469 2503 1303 2419 
Q 1178 2356 984 2169 
z
" transform="scale(0.015625)"/>
       <path id="TimesNewRomanPSMT-61" d="M 1822 413 
Q 1381 72 1269 19 
Q 1100 -59 909 -59 
Q 613 -59 420 144 
Q 228 347 228 678 
Q 228 888 322 1041 
Q 450 1253 767 1440 
Q 1084 1628 1822 1897 
L 1822 2009 
Q 1822 2438 1686 2597 
Q 1550 2756 1291 2756 
Q 1094 2756 978 2650 
Q 859 2544 859 2406 
L 866 2225 
Q 866 2081 792 2003 
Q 719 1925 600 1925 
Q 484 1925 411 2006 
Q 338 2088 338 2228 
Q 338 2497 613 2722 
Q 888 2947 1384 2947 
Q 1766 2947 2009 2819 
Q 2194 2722 2281 2516 
Q 2338 2381 2338 1966 
L 2338 994 
Q 2338 584 2353 492 
Q 2369 400 2405 369 
Q 2441 338 2488 338 
Q 2538 338 2575 359 
Q 2641 400 2828 588 
L 2828 413 
Q 2478 -56 2159 -56 
Q 2006 -56 1915 50 
Q 1825 156 1822 413 
z
M 1822 616 
L 1822 1706 
Q 1350 1519 1213 1441 
Q 966 1303 859 1153 
Q 753 1003 753 825 
Q 753 600 887 451 
Q 1022 303 1197 303 
Q 1434 303 1822 616 
z
" transform="scale(0.015625)"/>
       <path id="TimesNewRomanPSMT-74" d="M 1031 3803 
L 1031 2863 
L 1700 2863 
L 1700 2644 
L 1031 2644 
L 1031 788 
Q 1031 509 1111 412 
Q 1191 316 1316 316 
Q 1419 316 1516 380 
Q 1613 444 1666 569 
L 1788 569 
Q 1678 263 1478 108 
Q 1278 -47 1066 -47 
Q 922 -47 784 33 
Q 647 113 581 261 
Q 516 409 516 719 
L 516 2644 
L 63 2644 
L 63 2747 
Q 234 2816 414 2980 
Q 594 3144 734 3369 
Q 806 3488 934 3803 
L 1031 3803 
z
" transform="scale(0.015625)"/>
       <path id="TimesNewRomanPSMT-63" d="M 2631 1088 
Q 2516 522 2178 217 
Q 1841 -88 1431 -88 
Q 944 -88 581 321 
Q 219 731 219 1428 
Q 219 2103 620 2525 
Q 1022 2947 1584 2947 
Q 2006 2947 2278 2723 
Q 2550 2500 2550 2259 
Q 2550 2141 2473 2067 
Q 2397 1994 2259 1994 
Q 2075 1994 1981 2113 
Q 1928 2178 1911 2362 
Q 1894 2547 1784 2644 
Q 1675 2738 1481 2738 
Q 1169 2738 978 2506 
Q 725 2200 725 1697 
Q 725 1184 976 792 
Q 1228 400 1656 400 
Q 1963 400 2206 609 
Q 2378 753 2541 1131 
L 2631 1088 
z
" transform="scale(0.015625)"/>
       <path id="TimesNewRomanPSMT-68" d="M 1041 4444 
L 1041 2350 
Q 1388 2731 1591 2839 
Q 1794 2947 1997 2947 
Q 2241 2947 2416 2812 
Q 2591 2678 2675 2391 
Q 2734 2191 2734 1659 
L 2734 647 
Q 2734 375 2778 275 
Q 2809 200 2884 156 
Q 2959 113 3159 113 
L 3159 0 
L 1753 0 
L 1753 113 
L 1819 113 
Q 2019 113 2097 173 
Q 2175 234 2206 353 
Q 2216 403 2216 647 
L 2216 1659 
Q 2216 2128 2167 2275 
Q 2119 2422 2012 2495 
Q 1906 2569 1756 2569 
Q 1603 2569 1437 2487 
Q 1272 2406 1041 2159 
L 1041 647 
Q 1041 353 1073 281 
Q 1106 209 1195 161 
Q 1284 113 1503 113 
L 1503 0 
L 84 0 
L 84 113 
Q 275 113 384 172 
Q 447 203 484 290 
Q 522 378 522 647 
L 522 3238 
Q 522 3728 498 3840 
Q 475 3953 426 3993 
Q 378 4034 297 4034 
Q 231 4034 84 3984 
L 41 4094 
L 897 4444 
L 1041 4444 
z
" transform="scale(0.015625)"/>
       <path id="TimesNewRomanPSMT-20" transform="scale(0.015625)"/>
       <path id="TimesNewRomanPSMT-69" d="M 928 4444 
Q 1059 4444 1151 4351 
Q 1244 4259 1244 4128 
Q 1244 3997 1151 3903 
Q 1059 3809 928 3809 
Q 797 3809 703 3903 
Q 609 3997 609 4128 
Q 609 4259 701 4351 
Q 794 4444 928 4444 
z
M 1188 2947 
L 1188 647 
Q 1188 378 1227 289 
Q 1266 200 1342 156 
Q 1419 113 1622 113 
L 1622 0 
L 231 0 
L 231 113 
Q 441 113 512 153 
Q 584 194 626 287 
Q 669 381 669 647 
L 669 1750 
Q 669 2216 641 2353 
Q 619 2453 572 2492 
Q 525 2531 444 2531 
Q 356 2531 231 2484 
L 188 2597 
L 1050 2947 
L 1188 2947 
z
" transform="scale(0.015625)"/>
       <path id="TimesNewRomanPSMT-65" d="M 681 1784 
Q 678 1147 991 784 
Q 1303 422 1725 422 
Q 2006 422 2214 576 
Q 2422 731 2563 1106 
L 2659 1044 
Q 2594 616 2278 264 
Q 1963 -88 1488 -88 
Q 972 -88 605 314 
Q 238 716 238 1394 
Q 238 2128 614 2539 
Q 991 2950 1559 2950 
Q 2041 2950 2350 2633 
Q 2659 2316 2659 1784 
L 681 1784 
z
M 681 1966 
L 2006 1966 
Q 1991 2241 1941 2353 
Q 1863 2528 1708 2628 
Q 1553 2728 1384 2728 
Q 1125 2728 920 2526 
Q 716 2325 681 1966 
z
" transform="scale(0.015625)"/>
       <path id="TimesNewRomanPSMT-72" d="M 1038 2947 
L 1038 2303 
Q 1397 2947 1775 2947 
Q 1947 2947 2059 2842 
Q 2172 2738 2172 2600 
Q 2172 2478 2090 2393 
Q 2009 2309 1897 2309 
Q 1788 2309 1652 2417 
Q 1516 2525 1450 2525 
Q 1394 2525 1328 2463 
Q 1188 2334 1038 2041 
L 1038 669 
Q 1038 431 1097 309 
Q 1138 225 1241 169 
Q 1344 113 1538 113 
L 1538 0 
L 72 0 
L 72 113 
Q 291 113 397 181 
Q 475 231 506 341 
Q 522 394 522 644 
L 522 1753 
Q 522 2253 501 2348 
Q 481 2444 426 2487 
Q 372 2531 291 2531 
Q 194 2531 72 2484 
L 41 2597 
L 906 2947 
L 1038 2947 
z
" transform="scale(0.015625)"/>
       <path id="TimesNewRomanPSMT-6f" d="M 1600 2947 
Q 2250 2947 2644 2453 
Q 2978 2031 2978 1484 
Q 2978 1100 2793 706 
Q 2609 313 2286 112 
Q 1963 -88 1566 -88 
Q 919 -88 538 428 
Q 216 863 216 1403 
Q 216 1797 411 2186 
Q 606 2575 925 2761 
Q 1244 2947 1600 2947 
z
M 1503 2744 
Q 1338 2744 1170 2645 
Q 1003 2547 900 2300 
Q 797 2053 797 1666 
Q 797 1041 1045 587 
Q 1294 134 1700 134 
Q 2003 134 2200 384 
Q 2397 634 2397 1244 
Q 2397 2006 2069 2444 
Q 1847 2744 1503 2744 
z
" transform="scale(0.015625)"/>
       <path id="TimesNewRomanPSMT-6e" d="M 1034 2341 
Q 1538 2947 1994 2947 
Q 2228 2947 2397 2830 
Q 2566 2713 2666 2444 
Q 2734 2256 2734 1869 
L 2734 647 
Q 2734 375 2778 278 
Q 2813 200 2889 156 
Q 2966 113 3172 113 
L 3172 0 
L 1756 0 
L 1756 113 
L 1816 113 
Q 2016 113 2095 173 
Q 2175 234 2206 353 
Q 2219 400 2219 647 
L 2219 1819 
Q 2219 2209 2117 2386 
Q 2016 2563 1775 2563 
Q 1403 2563 1034 2156 
L 1034 647 
Q 1034 356 1069 288 
Q 1113 197 1189 155 
Q 1266 113 1500 113 
L 1500 0 
L 84 0 
L 84 113 
L 147 113 
Q 366 113 442 223 
Q 519 334 519 647 
L 519 1709 
Q 519 2225 495 2337 
Q 472 2450 423 2490 
Q 375 2531 294 2531 
Q 206 2531 84 2484 
L 38 2597 
L 900 2947 
L 1034 2947 
L 1034 2341 
z
" transform="scale(0.015625)"/>
      </defs>
      <use xlink:href="#TimesNewRomanPSMT-62"/>
      <use xlink:href="#TimesNewRomanPSMT-61" x="50"/>
      <use xlink:href="#TimesNewRomanPSMT-74" x="94.384766"/>
      <use xlink:href="#TimesNewRomanPSMT-63" x="122.167969"/>
      <use xlink:href="#TimesNewRomanPSMT-68" x="166.552734"/>
      <use xlink:href="#TimesNewRomanPSMT-20" x="216.552734"/>
      <use xlink:href="#TimesNewRomanPSMT-69" x="241.552734"/>
      <use xlink:href="#TimesNewRomanPSMT-74" x="269.335938"/>
      <use xlink:href="#TimesNewRomanPSMT-65" x="297.119141"/>
      <use xlink:href="#TimesNewRomanPSMT-72" x="341.503906"/>
      <use xlink:href="#TimesNewRomanPSMT-61" x="374.804688"/>
      <use xlink:href="#TimesNewRomanPSMT-74" x="419.189453"/>
      <use xlink:href="#TimesNewRomanPSMT-69" x="446.972656"/>
      <use xlink:href="#TimesNewRomanPSMT-6f" x="474.755859"/>
      <use xlink:href="#TimesNewRomanPSMT-6e" x="524.755859"/>
     </g>
    </g>
   </g>
   <g id="matplotlib.axis_2">
    <g id="ytick_1">
     <g id="line2d_11">
      <path d="M 69.12 307.584 
L 414.72 307.584 
" clip-path="url(#pabf7a340cb)" style="fill: none; stroke: #b0b0b0; stroke-width: 0.8; stroke-linecap: square"/>
     </g>
     <g id="line2d_12">
      <defs>
       <path id="mf23cc3a231" d="M 0 0 
L -3.5 0 
" style="stroke: #000000; stroke-width: 0.8"/>
      </defs>
      <g>
       <use xlink:href="#mf23cc3a231" x="69.12" y="307.584" style="stroke: #000000; stroke-width: 0.8"/>
      </g>
     </g>
     <g id="text_7">
      <!-- 0.0 -->
      <g transform="translate(42.12 313.139) scale(0.16 -0.16)">
       <defs>
        <path id="TimesNewRomanPSMT-2e" d="M 800 606 
Q 947 606 1047 504 
Q 1147 403 1147 259 
Q 1147 116 1045 14 
Q 944 -88 800 -88 
Q 656 -88 554 14 
Q 453 116 453 259 
Q 453 406 554 506 
Q 656 606 800 606 
z
" transform="scale(0.015625)"/>
       </defs>
       <use xlink:href="#TimesNewRomanPSMT-30"/>
       <use xlink:href="#TimesNewRomanPSMT-2e" x="50"/>
       <use xlink:href="#TimesNewRomanPSMT-30" x="75"/>
      </g>
     </g>
    </g>
    <g id="ytick_2">
     <g id="line2d_13">
      <path d="M 69.12 269.568 
L 414.72 269.568 
" clip-path="url(#pabf7a340cb)" style="fill: none; stroke: #b0b0b0; stroke-width: 0.8; stroke-linecap: square"/>
     </g>
     <g id="line2d_14">
      <g>
       <use xlink:href="#mf23cc3a231" x="69.12" y="269.568" style="stroke: #000000; stroke-width: 0.8"/>
      </g>
     </g>
     <g id="text_8">
      <!-- 0.5 -->
      <g transform="translate(42.12 275.123) scale(0.16 -0.16)">
       <use xlink:href="#TimesNewRomanPSMT-30"/>
       <use xlink:href="#TimesNewRomanPSMT-2e" x="50"/>
       <use xlink:href="#TimesNewRomanPSMT-35" x="75"/>
      </g>
     </g>
    </g>
    <g id="ytick_3">
     <g id="line2d_15">
      <path d="M 69.12 231.552 
L 414.72 231.552 
" clip-path="url(#pabf7a340cb)" style="fill: none; stroke: #b0b0b0; stroke-width: 0.8; stroke-linecap: square"/>
     </g>
     <g id="line2d_16">
      <g>
       <use xlink:href="#mf23cc3a231" x="69.12" y="231.552" style="stroke: #000000; stroke-width: 0.8"/>
      </g>
     </g>
     <g id="text_9">
      <!-- 1.0 -->
      <g transform="translate(42.12 237.107) scale(0.16 -0.16)">
       <use xlink:href="#TimesNewRomanPSMT-31"/>
       <use xlink:href="#TimesNewRomanPSMT-2e" x="50"/>
       <use xlink:href="#TimesNewRomanPSMT-30" x="75"/>
      </g>
     </g>
    </g>
    <g id="ytick_4">
     <g id="line2d_17">
      <path d="M 69.12 193.536 
L 414.72 193.536 
" clip-path="url(#pabf7a340cb)" style="fill: none; stroke: #b0b0b0; stroke-width: 0.8; stroke-linecap: square"/>
     </g>
     <g id="line2d_18">
      <g>
       <use xlink:href="#mf23cc3a231" x="69.12" y="193.536" style="stroke: #000000; stroke-width: 0.8"/>
      </g>
     </g>
     <g id="text_10">
      <!-- 1.5 -->
      <g transform="translate(42.12 199.091) scale(0.16 -0.16)">
       <use xlink:href="#TimesNewRomanPSMT-31"/>
       <use xlink:href="#TimesNewRomanPSMT-2e" x="50"/>
       <use xlink:href="#TimesNewRomanPSMT-35" x="75"/>
      </g>
     </g>
    </g>
    <g id="ytick_5">
     <g id="line2d_19">
      <path d="M 69.12 155.52 
L 414.72 155.52 
" clip-path="url(#pabf7a340cb)" style="fill: none; stroke: #b0b0b0; stroke-width: 0.8; stroke-linecap: square"/>
     </g>
     <g id="line2d_20">
      <g>
       <use xlink:href="#mf23cc3a231" x="69.12" y="155.52" style="stroke: #000000; stroke-width: 0.8"/>
      </g>
     </g>
     <g id="text_11">
      <!-- 2.0 -->
      <g transform="translate(42.12 161.075) scale(0.16 -0.16)">
       <use xlink:href="#TimesNewRomanPSMT-32"/>
       <use xlink:href="#TimesNewRomanPSMT-2e" x="50"/>
       <use xlink:href="#TimesNewRomanPSMT-30" x="75"/>
      </g>
     </g>
    </g>
    <g id="ytick_6">
     <g id="line2d_21">
      <path d="M 69.12 117.504 
L 414.72 117.504 
" clip-path="url(#pabf7a340cb)" style="fill: none; stroke: #b0b0b0; stroke-width: 0.8; stroke-linecap: square"/>
     </g>
     <g id="line2d_22">
      <g>
       <use xlink:href="#mf23cc3a231" x="69.12" y="117.504" style="stroke: #000000; stroke-width: 0.8"/>
      </g>
     </g>
     <g id="text_12">
      <!-- 2.5 -->
      <g transform="translate(42.12 123.059) scale(0.16 -0.16)">
       <use xlink:href="#TimesNewRomanPSMT-32"/>
       <use xlink:href="#TimesNewRomanPSMT-2e" x="50"/>
       <use xlink:href="#TimesNewRomanPSMT-35" x="75"/>
      </g>
     </g>
    </g>
    <g id="ytick_7">
     <g id="line2d_23">
      <path d="M 69.12 79.488 
L 414.72 79.488 
" clip-path="url(#pabf7a340cb)" style="fill: none; stroke: #b0b0b0; stroke-width: 0.8; stroke-linecap: square"/>
     </g>
     <g id="line2d_24">
      <g>
       <use xlink:href="#mf23cc3a231" x="69.12" y="79.488" style="stroke: #000000; stroke-width: 0.8"/>
      </g>
     </g>
     <g id="text_13">
      <!-- 3.0 -->
      <g transform="translate(42.12 85.043) scale(0.16 -0.16)">
       <defs>
        <path id="TimesNewRomanPSMT-33" d="M 325 3431 
Q 506 3859 782 4092 
Q 1059 4325 1472 4325 
Q 1981 4325 2253 3994 
Q 2459 3747 2459 3466 
Q 2459 3003 1878 2509 
Q 2269 2356 2469 2072 
Q 2669 1788 2669 1403 
Q 2669 853 2319 450 
Q 1863 -75 997 -75 
Q 569 -75 414 31 
Q 259 138 259 259 
Q 259 350 332 419 
Q 406 488 509 488 
Q 588 488 669 463 
Q 722 447 909 348 
Q 1097 250 1169 231 
Q 1284 197 1416 197 
Q 1734 197 1970 444 
Q 2206 691 2206 1028 
Q 2206 1275 2097 1509 
Q 2016 1684 1919 1775 
Q 1784 1900 1550 2001 
Q 1316 2103 1072 2103 
L 972 2103 
L 972 2197 
Q 1219 2228 1467 2375 
Q 1716 2522 1828 2728 
Q 1941 2934 1941 3181 
Q 1941 3503 1739 3701 
Q 1538 3900 1238 3900 
Q 753 3900 428 3381 
L 325 3431 
z
" transform="scale(0.015625)"/>
       </defs>
       <use xlink:href="#TimesNewRomanPSMT-33"/>
       <use xlink:href="#TimesNewRomanPSMT-2e" x="50"/>
       <use xlink:href="#TimesNewRomanPSMT-30" x="75"/>
      </g>
     </g>
    </g>
    <g id="ytick_8">
     <g id="line2d_25">
      <path d="M 69.12 41.472 
L 414.72 41.472 
" clip-path="url(#pabf7a340cb)" style="fill: none; stroke: #b0b0b0; stroke-width: 0.8; stroke-linecap: square"/>
     </g>
     <g id="line2d_26">
      <g>
       <use xlink:href="#mf23cc3a231" x="69.12" y="41.472" style="stroke: #000000; stroke-width: 0.8"/>
      </g>
     </g>
     <g id="text_14">
      <!-- 3.5 -->
      <g transform="translate(42.12 47.027) scale(0.16 -0.16)">
       <use xlink:href="#TimesNewRomanPSMT-33"/>
       <use xlink:href="#TimesNewRomanPSMT-2e" x="50"/>
       <use xlink:href="#TimesNewRomanPSMT-35" x="75"/>
      </g>
     </g>
    </g>
    <g id="text_15">
     <!-- throughput[MOP/s] -->
     <g transform="translate(34.235938 245.529562) rotate(-90) scale(0.18 -0.18)">
      <defs>
       <path id="TimesNewRomanPSMT-75" d="M 2709 2863 
L 2709 1128 
Q 2709 631 2732 520 
Q 2756 409 2807 365 
Q 2859 322 2928 322 
Q 3025 322 3147 375 
L 3191 266 
L 2334 -88 
L 2194 -88 
L 2194 519 
Q 1825 119 1631 15 
Q 1438 -88 1222 -88 
Q 981 -88 804 51 
Q 628 191 559 409 
Q 491 628 491 1028 
L 491 2306 
Q 491 2509 447 2587 
Q 403 2666 317 2708 
Q 231 2750 6 2747 
L 6 2863 
L 1009 2863 
L 1009 947 
Q 1009 547 1148 422 
Q 1288 297 1484 297 
Q 1619 297 1789 381 
Q 1959 466 2194 703 
L 2194 2325 
Q 2194 2569 2105 2655 
Q 2016 2741 1734 2747 
L 1734 2863 
L 2709 2863 
z
" transform="scale(0.015625)"/>
       <path id="TimesNewRomanPSMT-67" d="M 966 1044 
Q 703 1172 562 1401 
Q 422 1631 422 1909 
Q 422 2334 742 2640 
Q 1063 2947 1563 2947 
Q 1972 2947 2272 2747 
L 2878 2747 
Q 3013 2747 3034 2739 
Q 3056 2731 3066 2713 
Q 3084 2684 3084 2613 
Q 3084 2531 3069 2500 
Q 3059 2484 3036 2475 
Q 3013 2466 2878 2466 
L 2506 2466 
Q 2681 2241 2681 1891 
Q 2681 1491 2375 1206 
Q 2069 922 1553 922 
Q 1341 922 1119 984 
Q 981 866 932 777 
Q 884 688 884 625 
Q 884 572 936 522 
Q 988 472 1138 450 
Q 1225 438 1575 428 
Q 2219 413 2409 384 
Q 2700 344 2873 169 
Q 3047 -6 3047 -263 
Q 3047 -616 2716 -925 
Q 2228 -1381 1444 -1381 
Q 841 -1381 425 -1109 
Q 191 -953 191 -784 
Q 191 -709 225 -634 
Q 278 -519 444 -313 
Q 466 -284 763 25 
Q 600 122 533 198 
Q 466 275 466 372 
Q 466 481 555 628 
Q 644 775 966 1044 
z
M 1509 2797 
Q 1278 2797 1122 2612 
Q 966 2428 966 2047 
Q 966 1553 1178 1281 
Q 1341 1075 1591 1075 
Q 1828 1075 1981 1253 
Q 2134 1431 2134 1813 
Q 2134 2309 1919 2591 
Q 1759 2797 1509 2797 
z
M 934 0 
Q 788 -159 713 -296 
Q 638 -434 638 -550 
Q 638 -700 819 -813 
Q 1131 -1006 1722 -1006 
Q 2284 -1006 2551 -807 
Q 2819 -609 2819 -384 
Q 2819 -222 2659 -153 
Q 2497 -84 2016 -72 
Q 1313 -53 934 0 
z
" transform="scale(0.015625)"/>
       <path id="TimesNewRomanPSMT-70" d="M -6 2578 
L 875 2934 
L 994 2934 
L 994 2266 
Q 1216 2644 1439 2795 
Q 1663 2947 1909 2947 
Q 2341 2947 2628 2609 
Q 2981 2197 2981 1534 
Q 2981 794 2556 309 
Q 2206 -88 1675 -88 
Q 1444 -88 1275 -22 
Q 1150 25 994 166 
L 994 -706 
Q 994 -1000 1030 -1079 
Q 1066 -1159 1155 -1206 
Q 1244 -1253 1478 -1253 
L 1478 -1369 
L -22 -1369 
L -22 -1253 
L 56 -1253 
Q 228 -1256 350 -1188 
Q 409 -1153 442 -1076 
Q 475 -1000 475 -688 
L 475 2019 
Q 475 2297 450 2372 
Q 425 2447 370 2484 
Q 316 2522 222 2522 
Q 147 2522 31 2478 
L -6 2578 
z
M 994 2081 
L 994 1013 
Q 994 666 1022 556 
Q 1066 375 1236 237 
Q 1406 100 1666 100 
Q 1978 100 2172 344 
Q 2425 663 2425 1241 
Q 2425 1897 2138 2250 
Q 1938 2494 1663 2494 
Q 1513 2494 1366 2419 
Q 1253 2363 994 2081 
z
" transform="scale(0.015625)"/>
       <path id="TimesNewRomanPSMT-5b" d="M 1900 -1269 
L 525 -1269 
L 525 4334 
L 1900 4334 
L 1900 4088 
L 994 4088 
L 994 -1025 
L 1900 -1025 
L 1900 -1269 
z
" transform="scale(0.015625)"/>
       <path id="TimesNewRomanPSMT-4d" d="M 2619 0 
L 981 3566 
L 981 734 
Q 981 344 1066 247 
Q 1181 116 1431 116 
L 1581 116 
L 1581 0 
L 106 0 
L 106 116 
L 256 116 
Q 525 116 638 278 
Q 706 378 706 734 
L 706 3503 
Q 706 3784 644 3909 
Q 600 4000 483 4061 
Q 366 4122 106 4122 
L 106 4238 
L 1306 4238 
L 2844 922 
L 4356 4238 
L 5556 4238 
L 5556 4122 
L 5409 4122 
Q 5138 4122 5025 3959 
Q 4956 3859 4956 3503 
L 4956 734 
Q 4956 344 5044 247 
Q 5159 116 5409 116 
L 5556 116 
L 5556 0 
L 3756 0 
L 3756 116 
L 3906 116 
Q 4178 116 4288 278 
Q 4356 378 4356 734 
L 4356 3566 
L 2722 0 
L 2619 0 
z
" transform="scale(0.015625)"/>
       <path id="TimesNewRomanPSMT-4f" d="M 2341 4334 
Q 3166 4334 3770 3707 
Q 4375 3081 4375 2144 
Q 4375 1178 3765 540 
Q 3156 -97 2291 -97 
Q 1416 -97 820 525 
Q 225 1147 225 2134 
Q 225 3144 913 3781 
Q 1509 4334 2341 4334 
z
M 2281 4106 
Q 1713 4106 1369 3684 
Q 941 3159 941 2147 
Q 941 1109 1384 550 
Q 1725 125 2284 125 
Q 2881 125 3270 590 
Q 3659 1056 3659 2059 
Q 3659 3147 3231 3681 
Q 2888 4106 2281 4106 
z
" transform="scale(0.015625)"/>
       <path id="TimesNewRomanPSMT-50" d="M 1313 1984 
L 1313 750 
Q 1313 350 1400 253 
Q 1519 116 1759 116 
L 1922 116 
L 1922 0 
L 106 0 
L 106 116 
L 266 116 
Q 534 116 650 291 
Q 713 388 713 750 
L 713 3488 
Q 713 3888 628 3984 
Q 506 4122 266 4122 
L 106 4122 
L 106 4238 
L 1659 4238 
Q 2228 4238 2556 4120 
Q 2884 4003 3109 3725 
Q 3334 3447 3334 3066 
Q 3334 2547 2992 2222 
Q 2650 1897 2025 1897 
Q 1872 1897 1694 1919 
Q 1516 1941 1313 1984 
z
M 1313 2163 
Q 1478 2131 1606 2115 
Q 1734 2100 1825 2100 
Q 2150 2100 2386 2351 
Q 2622 2603 2622 3003 
Q 2622 3278 2509 3514 
Q 2397 3750 2190 3867 
Q 1984 3984 1722 3984 
Q 1563 3984 1313 3925 
L 1313 2163 
z
" transform="scale(0.015625)"/>
       <path id="TimesNewRomanPSMT-2f" d="M 1794 4444 
L 259 -88 
L 9 -88 
L 1544 4444 
L 1794 4444 
z
" transform="scale(0.015625)"/>
       <path id="TimesNewRomanPSMT-73" d="M 2050 2947 
L 2050 1972 
L 1947 1972 
Q 1828 2431 1642 2597 
Q 1456 2763 1169 2763 
Q 950 2763 815 2647 
Q 681 2531 681 2391 
Q 681 2216 781 2091 
Q 878 1963 1175 1819 
L 1631 1597 
Q 2266 1288 2266 781 
Q 2266 391 1970 151 
Q 1675 -88 1309 -88 
Q 1047 -88 709 6 
Q 606 38 541 38 
Q 469 38 428 -44 
L 325 -44 
L 325 978 
L 428 978 
Q 516 541 762 319 
Q 1009 97 1316 97 
Q 1531 97 1667 223 
Q 1803 350 1803 528 
Q 1803 744 1651 891 
Q 1500 1038 1047 1263 
Q 594 1488 453 1669 
Q 313 1847 313 2119 
Q 313 2472 555 2709 
Q 797 2947 1181 2947 
Q 1350 2947 1591 2875 
Q 1750 2828 1803 2828 
Q 1853 2828 1881 2850 
Q 1909 2872 1947 2947 
L 2050 2947 
z
" transform="scale(0.015625)"/>
       <path id="TimesNewRomanPSMT-5d" d="M 234 4334 
L 1609 4334 
L 1609 -1272 
L 234 -1272 
L 234 -1025 
L 1141 -1025 
L 1141 4088 
L 234 4088 
L 234 4334 
z
" transform="scale(0.015625)"/>
      </defs>
      <use xlink:href="#TimesNewRomanPSMT-74"/>
      <use xlink:href="#TimesNewRomanPSMT-68" x="27.783203"/>
      <use xlink:href="#TimesNewRomanPSMT-72" x="77.783203"/>
      <use xlink:href="#TimesNewRomanPSMT-6f" x="111.083984"/>
      <use xlink:href="#TimesNewRomanPSMT-75" x="161.083984"/>
      <use xlink:href="#TimesNewRomanPSMT-67" x="211.083984"/>
      <use xlink:href="#TimesNewRomanPSMT-68" x="261.083984"/>
      <use xlink:href="#TimesNewRomanPSMT-70" x="311.083984"/>
      <use xlink:href="#TimesNewRomanPSMT-75" x="361.083984"/>
      <use xlink:href="#TimesNewRomanPSMT-74" x="411.083984"/>
      <use xlink:href="#TimesNewRomanPSMT-5b" x="438.867188"/>
      <use xlink:href="#TimesNewRomanPSMT-4d" x="472.167969"/>
      <use xlink:href="#TimesNewRomanPSMT-4f" x="561.083984"/>
      <use xlink:href="#TimesNewRomanPSMT-50" x="633.300781"/>
      <use xlink:href="#TimesNewRomanPSMT-2f" x="688.916016"/>
      <use xlink:href="#TimesNewRomanPSMT-73" x="716.699219"/>
      <use xlink:href="#TimesNewRomanPSMT-5d" x="755.615234"/>
     </g>
    </g>
    <g id="text_16">
     <!-- 1e6 -->
     <g transform="translate(69.12 38.472) scale(0.16 -0.16)">
      <defs>
       <path id="TimesNewRomanPSMT-36" d="M 2869 4325 
L 2869 4209 
Q 2456 4169 2195 4045 
Q 1934 3922 1679 3669 
Q 1425 3416 1258 3105 
Q 1091 2794 978 2366 
Q 1428 2675 1881 2675 
Q 2316 2675 2634 2325 
Q 2953 1975 2953 1425 
Q 2953 894 2631 456 
Q 2244 -75 1606 -75 
Q 1172 -75 869 213 
Q 275 772 275 1663 
Q 275 2231 503 2743 
Q 731 3256 1154 3653 
Q 1578 4050 1965 4187 
Q 2353 4325 2688 4325 
L 2869 4325 
z
M 925 2138 
Q 869 1716 869 1456 
Q 869 1156 980 804 
Q 1091 453 1309 247 
Q 1469 100 1697 100 
Q 1969 100 2183 356 
Q 2397 613 2397 1088 
Q 2397 1622 2184 2012 
Q 1972 2403 1581 2403 
Q 1463 2403 1327 2353 
Q 1191 2303 925 2138 
z
" transform="scale(0.015625)"/>
      </defs>
      <use xlink:href="#TimesNewRomanPSMT-31"/>
      <use xlink:href="#TimesNewRomanPSMT-65" x="50"/>
      <use xlink:href="#TimesNewRomanPSMT-36" x="94.384766"/>
     </g>
    </g>
   </g>
   <g id="line2d_27">
    <path d="M 69.697926 154.182293 
L 70.853779 164.815824 
L 73.165485 155.010586 
L 74.321338 156.830488 
L 75.477191 157.525192 
L 76.633043 149.881999 
L 77.788896 158.687189 
L 78.944749 158.885328 
L 80.100602 160.727964 
L 81.256455 138.158017 
L 82.412308 132.092716 
L 83.568161 145.671575 
L 84.724013 179.899053 
L 85.879866 159.529319 
L 87.035719 154.854112 
L 88.191572 154.700983 
L 89.347425 153.00988 
L 90.503278 161.429131 
L 91.65913 157.490597 
L 92.814983 174.493025 
L 93.970836 155.217165 
L 95.126689 145.490695 
L 96.282542 150.922041 
L 97.438395 152.479404 
L 98.594247 152.49233 
L 99.7501 153.277132 
L 100.905953 154.314513 
L 102.061806 151.553867 
L 103.217659 153.886833 
L 104.373512 153.348982 
L 105.529365 152.556957 
L 106.685217 153.512527 
L 107.84107 152.16486 
L 108.996923 152.755476 
L 110.152776 152.350302 
L 111.308629 151.496234 
L 112.464482 148.853894 
L 113.620334 159.1319 
L 114.776187 154.396095 
L 115.93204 154.346142 
L 117.087893 153.36358 
L 118.243746 152.043437 
L 120.555452 118.245236 
L 121.711304 118.138715 
L 122.867157 152.084646 
L 124.02301 151.575156 
L 125.178863 154.001945 
L 126.334716 151.539649 
L 127.490569 151.05388 
L 128.646421 158.46145 
L 129.802274 155.480311 
L 130.958127 153.358106 
L 132.11398 153.103931 
L 133.269833 152.478264 
L 134.425686 139.419312 
L 135.581538 150.703221 
L 137.893244 155.725058 
L 139.049097 151.605645 
L 140.20495 159.467429 
L 141.360803 151.697187 
L 142.516656 156.569242 
L 143.672508 152.324983 
L 144.828361 144.586598 
L 145.984214 126.266308 
L 147.140067 150.935422 
L 148.29592 148.599871 
L 149.451773 131.679102 
L 150.607625 152.569502 
L 151.763478 148.25423 
L 152.919331 147.357281 
L 154.075184 155.689627 
L 155.231037 145.809649 
L 156.38689 125.256223 
L 157.542742 154.338615 
L 158.698595 153.065839 
L 159.854448 157.446803 
L 161.010301 150.906378 
L 162.166154 155.575503 
L 163.322007 154.682431 
L 164.47786 134.869025 
L 165.633712 142.872913 
L 166.789565 164.92052 
L 167.945418 147.751202 
L 169.101271 140.249049 
L 170.257124 141.898715 
L 171.412977 120.340982 
L 172.568829 116.385645 
L 173.724682 140.49851 
L 174.880535 140.42742 
L 176.036388 152.141442 
L 177.192241 126.969224 
L 178.348094 151.721974 
L 179.503946 151.526115 
L 180.659799 156.13814 
L 181.815652 155.913238 
L 182.971505 152.274574 
L 184.127358 153.691278 
L 185.283211 158.984474 
L 186.439064 155.096958 
L 187.594916 155.449138 
L 188.750769 153.518077 
L 189.906622 142.262528 
L 191.062475 143.331234 
L 192.218328 142.337572 
L 193.374181 155.087074 
L 194.530033 153.22064 
L 195.685886 156.708684 
L 196.841739 150.895354 
L 197.997592 132.070895 
L 199.153445 131.19052 
L 200.309298 147.97276 
L 201.465151 150.708315 
L 202.621003 146.216953 
L 203.776856 157.908317 
L 204.932709 152.658003 
L 206.088562 143.3361 
L 207.244415 142.506591 
L 208.400268 144.366866 
L 209.55612 154.892432 
L 210.711973 129.312986 
L 211.867826 135.764377 
L 213.023679 144.93224 
L 214.179532 150.714321 
L 215.335385 141.627357 
L 216.491237 123.094557 
L 217.64709 138.17634 
L 218.802943 149.905949 
L 219.958796 139.734008 
L 221.114649 148.705632 
L 222.270502 140.833811 
L 223.426355 145.785395 
L 224.582207 153.585974 
L 225.73806 140.518658 
L 226.893913 145.21698 
L 228.049766 156.600567 
L 229.205619 147.270452 
L 230.361472 144.132687 
L 231.517324 150.28246 
L 232.673177 162.424162 
L 233.82903 150.975567 
L 234.984883 142.683365 
L 236.140736 142.188625 
L 237.296589 145.015495 
L 238.452441 140.181608 
L 239.608294 144.649705 
L 240.764147 144.758355 
L 241.92 144.526457 
L 243.075853 145.3308 
L 244.231706 154.120783 
L 245.387559 125.128337 
L 246.543411 151.667078 
L 247.699264 148.903543 
L 248.855117 148.87678 
L 250.01097 128.790114 
L 251.166823 100.510848 
L 252.322676 125.268768 
L 253.478528 122.226271 
L 254.634381 138.294494 
L 255.790234 131.537378 
L 256.946087 107.788859 
L 258.10194 135.872039 
L 259.257793 122.432546 
L 260.413645 119.38678 
L 261.569498 127.837813 
L 262.725351 122.619737 
L 263.881204 124.775092 
L 265.037057 128.613796 
L 266.19291 133.735311 
L 267.348763 148.740911 
L 268.504615 120.470617 
L 269.660468 146.944655 
L 270.816321 146.43372 
L 273.128027 133.081816 
L 274.28388 137.240767 
L 275.439732 125.73857 
L 276.595585 107.623566 
L 277.751438 145.467885 
L 278.907291 137.036241 
L 280.063144 134.26419 
L 281.218997 100.793383 
L 282.374849 132.293441 
L 283.530702 131.442338 
L 284.686555 110.792427 
L 285.842408 104.998865 
L 286.998261 116.293342 
L 288.154114 93.043517 
L 289.309967 110.936584 
L 290.465819 137.482472 
L 291.621672 107.928302 
L 292.777525 112.958731 
L 293.933378 90.061238 
L 295.089231 173.547263 
L 296.245084 133.885322 
L 297.400936 133.242472 
L 298.556789 122.732417 
L 299.712642 121.045266 
L 300.868495 102.980976 
L 302.024348 116.313035 
L 303.180201 145.819761 
L 304.336054 92.353375 
L 305.491906 144.000696 
L 306.647759 130.478937 
L 307.803612 121.654283 
L 308.959465 95.233467 
L 310.115318 122.908202 
L 311.271171 116.880538 
L 312.427023 115.311389 
L 313.582876 126.471974 
L 314.738729 124.035377 
L 315.894582 122.30869 
L 317.050435 145.130835 
L 318.206288 120.23659 
L 319.36214 89.810713 
L 320.517993 136.570393 
L 321.673846 136.750969 
L 323.985552 109.034035 
L 325.141405 102.338353 
L 326.297258 133.686651 
L 327.45311 101.225397 
L 328.608963 91.722157 
L 329.764816 133.378417 
L 330.920669 120.932131 
L 332.076522 123.634156 
L 333.232375 144.309462 
L 334.388227 140.145721 
L 335.54408 127.94517 
L 336.699933 119.255169 
L 337.855786 109.131584 
L 339.011639 71.450733 
L 340.167492 120.793829 
L 341.323344 127.379112 
L 342.479197 136.363053 
L 343.63505 110.499096 
L 344.790903 111.279184 
L 345.946756 121.213525 
L 347.102609 123.555767 
L 348.258462 92.195608 
L 349.414314 120.786225 
L 350.570167 101.96458 
L 352.881873 121.941836 
L 354.037726 121.592621 
L 355.193579 97.371183 
L 356.349431 111.724199 
L 357.505284 96.637094 
L 358.661137 84.805222 
L 359.81699 94.746026 
L 360.972843 103.245339 
L 362.128696 142.979738 
L 363.284548 139.202164 
L 364.440401 113.439938 
L 365.596254 110.025797 
L 366.752107 83.669988 
L 367.90796 90.190112 
L 369.063813 70.872358 
L 370.219666 120.70145 
L 371.375518 123.430694 
L 372.531371 141.515894 
L 373.687224 106.889172 
L 374.843077 137.784243 
L 375.99893 88.230159 
L 377.154783 104.51743 
L 378.310635 149.342096 
L 380.622341 96.836678 
L 381.778194 125.856267 
L 382.934047 117.443707 
L 384.0899 121.192616 
L 385.245753 113.212298 
L 386.401605 152.292594 
L 387.557458 118.522601 
L 388.713311 121.240212 
L 389.869164 121.759663 
L 391.025017 47.138285 
L 392.18087 92.330793 
L 393.336722 126.023994 
L 394.492575 92.234765 
L 395.648428 116.81439 
L 396.804281 90.017215 
L 397.960134 120.55083 
L 399.115987 116.73448 
L 400.271839 116.343219 
L 401.427692 103.580184 
L 402.583545 116.167966 
L 403.739398 101.260143 
L 404.895251 73.040562 
L 406.051104 137.595 
L 407.206957 93.511798 
L 408.362809 93.190715 
L 409.518662 124.881537 
L 410.674515 38.526596 
L 411.830368 106.573336 
L 412.986221 94.611069 
L 414.142074 12.829985 
L 414.142074 12.829985 
" clip-path="url(#pabf7a340cb)" style="fill: none; stroke: #1f77b4; stroke-linecap: square"/>
   </g>
   <g id="line2d_28">
    <path d="M 69.697926 155.163638 
L 70.853779 157.233457 
L 73.165485 166.34574 
L 74.321338 167.998372 
L 75.477191 159.784635 
L 76.633043 147.905775 
L 77.788896 153.758567 
L 80.100602 142.551678 
L 81.256455 134.677956 
L 82.412308 130.279201 
L 83.568161 141.237313 
L 84.724013 147.659584 
L 85.879866 139.613041 
L 87.035719 144.53444 
L 88.191572 147.485318 
L 89.347425 127.139459 
L 91.65913 152.347489 
L 92.814983 135.633374 
L 93.970836 140.408792 
L 95.126689 152.15163 
L 96.282542 121.156045 
L 97.438395 132.61422 
L 98.594247 120.410171 
L 99.7501 129.886343 
L 100.905953 163.181669 
L 102.061806 156.045153 
L 103.217659 128.413375 
L 104.373512 113.842527 
L 105.529365 122.173733 
L 106.685217 136.446765 
L 107.84107 129.121462 
L 108.996923 141.674041 
L 110.152776 140.98884 
L 111.308629 138.443061 
L 112.464482 152.181967 
L 113.620334 128.439378 
L 114.776187 123.866814 
L 115.93204 142.444397 
L 117.087893 135.680134 
L 118.243746 136.690447 
L 119.399599 138.313654 
L 120.555452 137.731249 
L 121.711304 154.043002 
L 122.867157 152.795697 
L 124.02301 151.731934 
L 125.178863 136.972298 
L 126.334716 136.519603 
L 127.490569 140.854644 
L 128.646421 151.417617 
L 129.802274 140.226771 
L 130.958127 142.578061 
L 132.11398 146.24995 
L 133.269833 138.979086 
L 134.425686 144.492851 
L 135.581538 152.301946 
L 136.737391 132.410834 
L 137.893244 139.022881 
L 139.049097 137.330256 
L 140.20495 133.54105 
L 141.360803 141.650851 
L 142.516656 138.091641 
L 143.672508 125.952524 
L 144.828361 162.775886 
L 145.984214 157.712307 
L 147.140067 158.684756 
L 148.29592 137.947712 
L 149.451773 136.445168 
L 150.607625 143.784157 
L 151.763478 137.881945 
L 152.919331 145.224735 
L 154.075184 139.829808 
L 155.231037 133.408678 
L 156.38689 136.805864 
L 157.542742 124.996193 
L 158.698595 140.272771 
L 159.854448 132.475613 
L 161.010301 139.790196 
L 162.166154 140.807428 
L 163.322007 144.040841 
L 164.47786 119.873385 
L 165.633712 133.87004 
L 166.789565 145.296281 
L 167.945418 144.29129 
L 169.101271 120.199562 
L 170.257124 123.954099 
L 171.412977 159.731412 
L 172.568829 163.913096 
L 173.724682 146.231171 
L 174.880535 136.235928 
L 176.036388 128.96514 
L 177.192241 139.705496 
L 178.348094 128.3102 
L 179.503946 134.469857 
L 180.659799 151.489011 
L 181.815652 135.365437 
L 184.127358 139.20262 
L 185.283211 137.963147 
L 186.439064 147.0622 
L 187.594916 157.121462 
L 188.750769 136.393998 
L 189.906622 133.895587 
L 191.062475 142.868275 
L 192.218328 122.4844 
L 193.374181 139.094427 
L 194.530033 151.472056 
L 195.685886 155.031951 
L 196.841739 148.247539 
L 197.997592 124.115743 
L 199.153445 130.848528 
L 200.309298 121.170491 
L 201.465151 137.541929 
L 202.621003 139.332863 
L 203.776856 145.858386 
L 204.932709 145.319319 
L 206.088562 136.708163 
L 207.244415 136.823883 
L 208.400268 157.550739 
L 209.55612 129.138036 
L 210.711973 125.042193 
L 211.867826 134.569991 
L 213.023679 123.349568 
L 214.179532 158.374774 
L 215.335385 133.330289 
L 216.491237 161.760554 
L 217.64709 136.332564 
L 219.958796 162.258944 
L 221.114649 135.730999 
L 222.270502 150.173278 
L 223.426355 139.736897 
L 224.582207 116.226967 
L 225.73806 142.98985 
L 228.049766 123.497603 
L 230.361472 156.856567 
L 231.517324 141.765507 
L 232.673177 138.484802 
L 233.82903 134.81527 
L 234.984883 139.652198 
L 236.140736 124.799879 
L 237.296589 137.69445 
L 238.452441 129.937817 
L 239.608294 140.481707 
L 240.764147 138.099548 
L 241.92 156.469183 
L 243.075853 143.619471 
L 244.231706 123.475249 
L 245.387559 138.469824 
L 246.543411 146.113549 
L 247.699264 133.392103 
L 248.855117 149.766126 
L 250.01097 131.104148 
L 251.166823 156.00516 
L 252.322676 132.145254 
L 253.478528 134.724792 
L 254.634381 136.843956 
L 255.790234 168.689351 
L 256.946087 163.09963 
L 258.10194 149.361864 
L 259.257793 159.533577 
L 260.413645 149.785819 
L 261.569498 157.469689 
L 262.725351 147.213124 
L 263.881204 152.396605 
L 265.037057 158.922356 
L 266.19291 160.137804 
L 267.348763 133.320709 
L 268.504615 157.234294 
L 269.660468 145.006751 
L 270.816321 142.015348 
L 271.972174 163.686673 
L 273.128027 158.426551 
L 274.28388 160.712834 
L 275.439732 156.168401 
L 276.595585 160.528684 
L 277.751438 159.834816 
L 278.907291 162.035182 
L 280.063144 148.321366 
L 281.218997 146.435088 
L 282.374849 131.736202 
L 283.530702 154.831074 
L 284.686555 136.317586 
L 285.842408 152.009374 
L 286.998261 142.704578 
L 288.154114 143.473642 
L 289.309967 149.595206 
L 290.465819 162.704416 
L 291.621672 167.888354 
L 292.777525 155.549957 
L 293.933378 160.545639 
L 295.089231 155.084793 
L 296.245084 142.156844 
L 297.400936 144.661566 
L 298.556789 146.180077 
L 299.712642 151.650275 
L 300.868495 145.688226 
L 302.024348 144.931404 
L 303.180201 131.402878 
L 304.336054 145.800069 
L 305.491906 123.364699 
L 307.803612 139.913139 
L 308.959465 141.571017 
L 310.115318 137.848719 
L 311.271171 149.211777 
L 312.427023 137.626401 
L 313.582876 118.49637 
L 314.738729 143.629812 
L 315.894582 152.875303 
L 317.050435 137.715511 
L 318.206288 130.671678 
L 319.36214 138.154595 
L 320.517993 132.708575 
L 322.829699 153.252878 
L 323.985552 131.396871 
L 325.141405 174.081996 
L 326.297258 135.772969 
L 327.45311 142.364487 
L 328.608963 158.325733 
L 329.764816 162.884079 
L 330.920669 136.806776 
L 332.076522 148.419828 
L 333.232375 142.158745 
L 334.388227 131.745402 
L 335.54408 137.917984 
L 336.699933 143.213308 
L 337.855786 143.359594 
L 339.011639 133.673345 
L 341.323344 156.393608 
L 342.479197 139.981188 
L 343.63505 151.269279 
L 344.790903 159.69142 
L 347.102609 132.080095 
L 348.258462 151.588309 
L 349.414314 149.44109 
L 350.570167 128.352626 
L 351.72602 146.269339 
L 352.881873 145.472371 
L 354.037726 131.686325 
L 355.193579 140.034639 
L 356.349431 139.237899 
L 357.505284 160.138488 
L 358.661137 156.421207 
L 359.81699 148.399451 
L 360.972843 161.648179 
L 362.128696 160.251547 
L 363.284548 170.452685 
L 364.440401 141.879403 
L 366.752107 146.427181 
L 367.90796 135.010368 
L 369.063813 126.364769 
L 370.219666 134.871838 
L 371.375518 141.69206 
L 372.531371 130.418187 
L 373.687224 156.917316 
L 374.843077 129.723027 
L 375.99893 123.73756 
L 377.154783 147.518088 
L 378.310635 129.136516 
L 379.466488 145.173565 
L 380.622341 130.586902 
L 381.778194 123.810094 
L 382.934047 138.99262 
L 384.0899 141.588733 
L 385.245753 148.086123 
L 386.401605 132.658774 
L 387.557458 127.532317 
L 388.713311 135.705833 
L 389.869164 137.937524 
L 391.025017 136.829738 
L 392.18087 137.214764 
L 393.336722 143.953556 
L 394.492575 133.235325 
L 395.648428 164.048357 
L 396.804281 118.177491 
L 397.960134 143.299225 
L 399.115987 105.945387 
L 400.271839 129.108764 
L 401.427692 130.033161 
L 402.583545 135.37669 
L 403.739398 139.081273 
L 404.895251 148.656972 
L 406.051104 129.485883 
L 407.206957 120.117752 
L 408.362809 130.864647 
L 409.518662 137.739917 
L 410.674515 136.056872 
L 412.986221 140.386439 
L 414.142074 132.403155 
L 414.142074 132.403155 
" clip-path="url(#pabf7a340cb)" style="fill: none; stroke: #ff7f0e; stroke-linecap: square"/>
   </g>
   <g id="patch_3">
    <path d="M 69.12 307.584 
L 69.12 41.472 
" style="fill: none; stroke: #000000; stroke-width: 0.8; stroke-linejoin: miter; stroke-linecap: square"/>
   </g>
   <g id="patch_4">
    <path d="M 414.72 307.584 
L 414.72 41.472 
" style="fill: none; stroke: #000000; stroke-width: 0.8; stroke-linejoin: miter; stroke-linecap: square"/>
   </g>
   <g id="patch_5">
    <path d="M 69.12 307.584 
L 414.72 307.584 
" style="fill: none; stroke: #000000; stroke-width: 0.8; stroke-linejoin: miter; stroke-linecap: square"/>
   </g>
   <g id="patch_6">
    <path d="M 69.12 41.472 
L 414.72 41.472 
" style="fill: none; stroke: #000000; stroke-width: 0.8; stroke-linejoin: miter; stroke-linecap: square"/>
   </g>
   <g id="legend_1">
    <g id="patch_7">
     <path d="M 80.32 99.517 
L 177.725 99.517 
Q 180.925 99.517 180.925 96.317 
L 180.925 52.672 
Q 180.925 49.472 177.725 49.472 
L 80.32 49.472 
Q 77.12 49.472 77.12 52.672 
L 77.12 96.317 
Q 77.12 99.517 80.32 99.517 
z
" style="fill: #ffffff; opacity: 0.8; stroke: #cccccc; stroke-linejoin: miter"/>
    </g>
    <g id="line2d_29">
     <path d="M 83.52 61.472 
L 99.52 61.472 
L 115.52 61.472 
" style="fill: none; stroke: #1f77b4; stroke-linecap: square"/>
    </g>
    <g id="text_17">
     <!-- 12trees -->
     <g transform="translate(128.32 67.072) scale(0.16 -0.16)">
      <use xlink:href="#TimesNewRomanPSMT-31"/>
      <use xlink:href="#TimesNewRomanPSMT-32" x="50"/>
      <use xlink:href="#TimesNewRomanPSMT-74" x="100"/>
      <use xlink:href="#TimesNewRomanPSMT-72" x="127.783203"/>
      <use xlink:href="#TimesNewRomanPSMT-65" x="161.083984"/>
      <use xlink:href="#TimesNewRomanPSMT-65" x="205.46875"/>
      <use xlink:href="#TimesNewRomanPSMT-73" x="249.853516"/>
     </g>
    </g>
    <g id="line2d_30">
     <path d="M 83.52 84.0945 
L 99.52 84.0945 
L 115.52 84.0945 
" style="fill: none; stroke: #ff7f0e; stroke-linecap: square"/>
    </g>
    <g id="text_18">
     <!-- 50trees -->
     <g transform="translate(128.32 89.6945) scale(0.16 -0.16)">
      <use xlink:href="#TimesNewRomanPSMT-35"/>
      <use xlink:href="#TimesNewRomanPSMT-30" x="50"/>
      <use xlink:href="#TimesNewRomanPSMT-74" x="100"/>
      <use xlink:href="#TimesNewRomanPSMT-72" x="127.783203"/>
      <use xlink:href="#TimesNewRomanPSMT-65" x="161.083984"/>
      <use xlink:href="#TimesNewRomanPSMT-65" x="205.46875"/>
      <use xlink:href="#TimesNewRomanPSMT-73" x="249.853516"/>
     </g>
    </g>
   </g>
  </g>
 </g>
 <defs>
  <clipPath id="pabf7a340cb">
   <rect x="69.12" y="41.472" width="345.6" height="266.112"/>
  </clipPath>
 </defs>
</svg>
