<?xml version="1.0" encoding="utf-8" standalone="no"?>
<!DOCTYPE svg PUBLIC "-//W3C//DTD SVG 1.1//EN"
  "http://www.w3.org/Graphics/SVG/1.1/DTD/svg11.dtd">
<svg xmlns:xlink="http://www.w3.org/1999/xlink" width="460.8pt" height="345.6pt" viewBox="0 0 460.8 345.6" xmlns="http://www.w3.org/2000/svg" version="1.1">
 <metadata>
  <rdf:RDF xmlns:dc="http://purl.org/dc/elements/1.1/" xmlns:cc="http://creativecommons.org/ns#" xmlns:rdf="http://www.w3.org/1999/02/22-rdf-syntax-ns#">
   <cc:Work>
    <dc:type rdf:resource="http://purl.org/dc/dcmitype/StillImage"/>
    <dc:date>2024-01-31T07:19:32.732141</dc:date>
    <dc:format>image/svg+xml</dc:format>
    <dc:creator>
     <cc:Agent>
      <dc:title>Matplotlib v3.7.0, https://matplotlib.org/</dc:title>
     </cc:Agent>
    </dc:creator>
   </cc:Work>
  </rdf:RDF>
 </metadata>
 <defs>
  <style type="text/css">*{stroke-linejoin: round; stroke-linecap: butt}</style>
 </defs>
 <g id="figure_1">
  <g id="patch_1">
   <path d="M 0 345.6 
L 460.8 345.6 
L 460.8 0 
L 0 0 
L 0 345.6 
z
" style="fill: none"/>
  </g>
  <g id="axes_1">
   <g id="patch_2">
    <path d="M 87.552 293.76 
L 451.584 293.76 
L 451.584 6.912 
L 87.552 6.912 
L 87.552 293.76 
z
" style="fill: none"/>
   </g>
   <g id="patch_3">
    <path d="M 88.3104 137.660303 
L 94.3776 137.660303 
L 94.3776 132.466068 
L 88.3104 132.466068 
z
" clip-path="url(#p99d8a261fd)" style="fill: #800000"/>
   </g>
   <g id="patch_4">
    <path d="M 95.8944 171.096136 
L 101.9616 171.096136 
L 101.9616 165.041679 
L 95.8944 165.041679 
z
" clip-path="url(#p99d8a261fd)" style="fill: #800000"/>
   </g>
   <g id="patch_5">
    <path d="M 103.4784 180.647888 
L 109.5456 180.647888 
L 109.5456 176.440793 
L 103.4784 176.440793 
z
" clip-path="url(#p99d8a261fd)" style="fill: #800000"/>
   </g>
   <g id="patch_6">
    <path d="M 111.0624 182.217911 
L 117.1296 182.217911 
L 117.1296 178.476181 
L 111.0624 178.476181 
z
" clip-path="url(#p99d8a261fd)" style="fill: #800000"/>
   </g>
   <g id="patch_7">
    <path d="M 118.6464 178.344562 
L 124.7136 178.344562 
L 124.7136 174.292589 
L 118.6464 174.292589 
z
" clip-path="url(#p99d8a261fd)" style="fill: #800000"/>
   </g>
   <g id="patch_8">
    <path d="M 126.2304 196.263499 
L 132.2976 196.263499 
L 132.2976 192.206825 
L 126.2304 192.206825 
z
" clip-path="url(#p99d8a261fd)" style="fill: #800000"/>
   </g>
   <g id="patch_9">
    <path d="M 133.8144 216.697291 
L 139.8816 216.697291 
L 139.8816 212.344475 
L 133.8144 212.344475 
z
" clip-path="url(#p99d8a261fd)" style="fill: #800000"/>
   </g>
   <g id="patch_10">
    <path d="M 141.3984 221.670595 
L 147.4656 221.670595 
L 147.4656 217.557513 
L 141.3984 217.557513 
z
" clip-path="url(#p99d8a261fd)" style="fill: #800000"/>
   </g>
   <g id="patch_11">
    <path d="M 148.9824 229.741638 
L 155.0496 229.741638 
L 155.0496 225.605052 
L 148.9824 225.605052 
z
" clip-path="url(#p99d8a261fd)" style="fill: #800000"/>
   </g>
   <g id="patch_12">
    <path d="M 156.5664 231.607802 
L 162.6336 231.607802 
L 162.6336 228.039997 
L 156.5664 228.039997 
z
" clip-path="url(#p99d8a261fd)" style="fill: #800000"/>
   </g>
   <g id="patch_13">
    <path d="M 164.1504 234.761948 
L 170.2176 234.761948 
L 170.2176 230.709975 
L 164.1504 230.709975 
z
" clip-path="url(#p99d8a261fd)" style="fill: #800000"/>
   </g>
   <g id="patch_14">
    <path d="M 171.7344 238.922037 
L 177.8016 238.922037 
L 177.8016 235.354232 
L 171.7344 235.354232 
z
" clip-path="url(#p99d8a261fd)" style="fill: #800000"/>
   </g>
   <g id="patch_15">
    <path d="M 179.3184 235.076893 
L 185.3856 235.076893 
L 185.3856 231.039021 
L 179.3184 231.039021 
z
" clip-path="url(#p99d8a261fd)" style="fill: #800000"/>
   </g>
   <g id="patch_16">
    <path d="M 186.9024 236.054631 
L 192.9696 236.054631 
L 192.9696 232.096671 
L 186.9024 232.096671 
z
" clip-path="url(#p99d8a261fd)" style="fill: #800000"/>
   </g>
   <g id="patch_17">
    <path d="M 194.4864 237.10288 
L 200.5536 237.10288 
L 200.5536 233.459864 
L 194.4864 233.459864 
z
" clip-path="url(#p99d8a261fd)" style="fill: #800000"/>
   </g>
   <g id="patch_18">
    <path d="M 202.0704 254.993612 
L 208.1376 254.993612 
L 208.1376 251.063856 
L 202.0704 251.063856 
z
" clip-path="url(#p99d8a261fd)" style="fill: #800000"/>
   </g>
   <g id="patch_19">
    <path d="M 209.6544 244.713257 
L 215.7216 244.713257 
L 215.7216 241.098445 
L 209.6544 241.098445 
z
" clip-path="url(#p99d8a261fd)" style="fill: #800000"/>
   </g>
   <g id="patch_20">
    <path d="M 217.2384 222.201771 
L 223.3056 222.201771 
L 223.3056 218.398932 
L 217.2384 218.398932 
z
" clip-path="url(#p99d8a261fd)" style="fill: #800000"/>
   </g>
   <g id="patch_21">
    <path d="M 224.8224 238.113523 
L 230.8896 238.113523 
L 230.8896 233.915829 
L 224.8224 233.915829 
z
" clip-path="url(#p99d8a261fd)" style="fill: #800000"/>
   </g>
   <g id="patch_22">
    <path d="M 232.4064 240.905718 
L 238.4736 240.905718 
L 238.4736 236.661017 
L 232.4064 236.661017 
z
" clip-path="url(#p99d8a261fd)" style="fill: #800000"/>
   </g>
   <g id="patch_23">
    <path d="M 239.9904 244.482925 
L 246.0576 244.482925 
L 246.0576 240.430951 
L 239.9904 240.430951 
z
" clip-path="url(#p99d8a261fd)" style="fill: #800000"/>
   </g>
   <g id="patch_24">
    <path d="M 247.5744 240.510862 
L 253.6416 240.510862 
L 253.6416 236.435385 
L 247.5744 236.435385 
z
" clip-path="url(#p99d8a261fd)" style="fill: #800000"/>
   </g>
   <g id="patch_25">
    <path d="M 255.1584 258.829355 
L 261.2256 258.829355 
L 261.2256 254.547049 
L 255.1584 254.547049 
z
" clip-path="url(#p99d8a261fd)" style="fill: #800000"/>
   </g>
   <g id="patch_26">
    <path d="M 262.7424 245.314942 
L 268.8096 245.314942 
L 268.8096 241.450995 
L 262.7424 241.450995 
z
" clip-path="url(#p99d8a261fd)" style="fill: #800000"/>
   </g>
   <g id="patch_27">
    <path d="M 270.3264 242.536849 
L 276.3936 242.536849 
L 276.3936 238.597691 
L 270.3264 238.597691 
z
" clip-path="url(#p99d8a261fd)" style="fill: #800000"/>
   </g>
   <g id="patch_28">
    <path d="M 277.9104 249.2541 
L 283.9776 249.2541 
L 283.9776 245.521772 
L 277.9104 245.521772 
z
" clip-path="url(#p99d8a261fd)" style="fill: #800000"/>
   </g>
   <g id="patch_29">
    <path d="M 285.4944 247.218712 
L 291.5616 247.218712 
L 291.5616 243.589798 
L 285.4944 243.589798 
z
" clip-path="url(#p99d8a261fd)" style="fill: #800000"/>
   </g>
   <g id="patch_30">
    <path d="M 293.0784 234.315385 
L 299.1456 234.315385 
L 299.1456 230.686472 
L 293.0784 230.686472 
z
" clip-path="url(#p99d8a261fd)" style="fill: #800000"/>
   </g>
   <g id="patch_31">
    <path d="M 300.6624 255.900841 
L 306.7296 255.900841 
L 306.7296 252.215519 
L 300.6624 252.215519 
z
" clip-path="url(#p99d8a261fd)" style="fill: #800000"/>
   </g>
   <g id="patch_32">
    <path d="M 308.2464 249.742969 
L 314.3136 249.742969 
L 314.3136 245.7239 
L 308.2464 245.7239 
z
" clip-path="url(#p99d8a261fd)" style="fill: #800000"/>
   </g>
   <g id="patch_33">
    <path d="M 315.8304 248.135342 
L 321.8976 248.135342 
L 321.8976 244.125674 
L 315.8304 244.125674 
z
" clip-path="url(#p99d8a261fd)" style="fill: #800000"/>
   </g>
   <g id="patch_34">
    <path d="M 323.4144 242.485142 
L 329.4816 242.485142 
L 329.4816 238.898534 
L 323.4144 238.898534 
z
" clip-path="url(#p99d8a261fd)" style="fill: #800000"/>
   </g>
   <g id="patch_35">
    <path d="M 330.9984 252.694987 
L 337.0656 252.694987 
L 337.0656 249.009665 
L 330.9984 249.009665 
z
" clip-path="url(#p99d8a261fd)" style="fill: #800000"/>
   </g>
   <g id="patch_36">
    <path d="M 338.5824 242.790685 
L 344.6496 242.790685 
L 344.6496 238.762215 
L 338.5824 238.762215 
z
" clip-path="url(#p99d8a261fd)" style="fill: #800000"/>
   </g>
   <g id="patch_37">
    <path d="M 346.1664 246.85206 
L 352.2336 246.85206 
L 352.2336 242.447536 
L 346.1664 242.447536 
z
" clip-path="url(#p99d8a261fd)" style="fill: #800000"/>
   </g>
   <g id="patch_38">
    <path d="M 353.7504 247.745186 
L 359.8176 247.745186 
L 359.8176 243.730818 
L 353.7504 243.730818 
z
" clip-path="url(#p99d8a261fd)" style="fill: #800000"/>
   </g>
   <g id="patch_39">
    <path d="M 361.3344 243.918845 
L 367.4016 243.918845 
L 367.4016 239.735252 
L 361.3344 239.735252 
z
" clip-path="url(#p99d8a261fd)" style="fill: #800000"/>
   </g>
   <g id="patch_40">
    <path d="M 368.9184 252.206118 
L 374.9856 252.206118 
L 374.9856 247.876805 
L 368.9184 247.876805 
z
" clip-path="url(#p99d8a261fd)" style="fill: #800000"/>
   </g>
   <g id="patch_41">
    <path d="M 376.5024 24.595198 
L 382.5696 24.595198 
L 382.5696 20.571429 
L 376.5024 20.571429 
z
" clip-path="url(#p99d8a261fd)" style="fill: #800000"/>
   </g>
   <g id="patch_42">
    <path d="M 384.0864 249.992104 
L 390.1536 249.992104 
L 390.1536 245.404255 
L 384.0864 245.404255 
z
" clip-path="url(#p99d8a261fd)" style="fill: #800000"/>
   </g>
   <g id="patch_43">
    <path d="M 391.6704 247.966118 
L 397.7376 247.966118 
L 397.7376 243.627403 
L 391.6704 243.627403 
z
" clip-path="url(#p99d8a261fd)" style="fill: #800000"/>
   </g>
   <g id="patch_44">
    <path d="M 399.2544 241.986871 
L 405.3216 241.986871 
L 405.3216 237.422525 
L 399.2544 237.422525 
z
" clip-path="url(#p99d8a261fd)" style="fill: #800000"/>
   </g>
   <g id="patch_45">
    <path d="M 406.8384 243.444077 
L 412.9056 243.444077 
L 412.9056 239.302791 
L 406.8384 239.302791 
z
" clip-path="url(#p99d8a261fd)" style="fill: #800000"/>
   </g>
   <g id="patch_46">
    <path d="M 414.4224 248.036628 
L 420.4896 248.036628 
L 420.4896 243.796627 
L 414.4224 243.796627 
z
" clip-path="url(#p99d8a261fd)" style="fill: #800000"/>
   </g>
   <g id="patch_47">
    <path d="M 422.0064 249.451528 
L 428.0736 249.451528 
L 428.0736 245.22563 
L 422.0064 245.22563 
z
" clip-path="url(#p99d8a261fd)" style="fill: #800000"/>
   </g>
   <g id="patch_48">
    <path d="M 429.5904 236.834942 
L 435.6576 236.834942 
L 435.6576 231.556095 
L 429.5904 231.556095 
z
" clip-path="url(#p99d8a261fd)" style="fill: #800000"/>
   </g>
   <g id="patch_49">
    <path d="M 437.1744 246.21747 
L 443.2416 246.21747 
L 443.2416 241.634321 
L 437.1744 241.634321 
z
" clip-path="url(#p99d8a261fd)" style="fill: #800000"/>
   </g>
   <g id="patch_50">
    <path d="M 444.7584 247.872104 
L 450.8256 247.872104 
L 450.8256 243.481683 
L 444.7584 243.481683 
z
" clip-path="url(#p99d8a261fd)" style="fill: #800000"/>
   </g>
   <g id="patch_51">
    <path d="M 88.3104 153.661368 
L 94.3776 153.661368 
L 94.3776 137.660303 
L 88.3104 137.660303 
z
" clip-path="url(#p99d8a261fd)" style="fill: #a52a2a"/>
   </g>
   <g id="patch_52">
    <path d="M 95.8944 189.259507 
L 101.9616 189.259507 
L 101.9616 171.096136 
L 95.8944 171.096136 
z
" clip-path="url(#p99d8a261fd)" style="fill: #a52a2a"/>
   </g>
   <g id="patch_53">
    <path d="M 103.4784 201.504741 
L 109.5456 201.504741 
L 109.5456 180.647888 
L 103.4784 180.647888 
z
" clip-path="url(#p99d8a261fd)" style="fill: #a52a2a"/>
   </g>
   <g id="patch_54">
    <path d="M 111.0624 201.467135 
L 117.1296 201.467135 
L 117.1296 182.217911 
L 111.0624 182.217911 
z
" clip-path="url(#p99d8a261fd)" style="fill: #a52a2a"/>
   </g>
   <g id="patch_55">
    <path d="M 118.6464 201.218 
L 124.7136 201.218 
L 124.7136 178.344562 
L 118.6464 178.344562 
z
" clip-path="url(#p99d8a261fd)" style="fill: #a52a2a"/>
   </g>
   <g id="patch_56">
    <path d="M 126.2304 220.800972 
L 132.2976 220.800972 
L 132.2976 196.263499 
L 126.2304 196.263499 
z
" clip-path="url(#p99d8a261fd)" style="fill: #a52a2a"/>
   </g>
   <g id="patch_57">
    <path d="M 133.8144 242.649665 
L 139.8816 242.649665 
L 139.8816 216.697291 
L 133.8144 216.697291 
z
" clip-path="url(#p99d8a261fd)" style="fill: #a52a2a"/>
   </g>
   <g id="patch_58">
    <path d="M 141.3984 250.236539 
L 147.4656 250.236539 
L 147.4656 221.670595 
L 141.3984 221.670595 
z
" clip-path="url(#p99d8a261fd)" style="fill: #a52a2a"/>
   </g>
   <g id="patch_59">
    <path d="M 148.9824 256.916185 
L 155.0496 256.916185 
L 155.0496 229.741638 
L 148.9824 229.741638 
z
" clip-path="url(#p99d8a261fd)" style="fill: #a52a2a"/>
   </g>
   <g id="patch_60">
    <path d="M 156.5664 259.70838 
L 162.6336 259.70838 
L 162.6336 231.607802 
L 156.5664 231.607802 
z
" clip-path="url(#p99d8a261fd)" style="fill: #a52a2a"/>
   </g>
   <g id="patch_61">
    <path d="M 164.1504 259.271218 
L 170.2176 259.271218 
L 170.2176 234.761948 
L 164.1504 234.761948 
z
" clip-path="url(#p99d8a261fd)" style="fill: #a52a2a"/>
   </g>
   <g id="patch_62">
    <path d="M 171.7344 258.105453 
L 177.8016 258.105453 
L 177.8016 238.922037 
L 171.7344 238.922037 
z
" clip-path="url(#p99d8a261fd)" style="fill: #a52a2a"/>
   </g>
   <g id="patch_63">
    <path d="M 179.3184 256.944389 
L 185.3856 256.944389 
L 185.3856 235.076893 
L 179.3184 235.076893 
z
" clip-path="url(#p99d8a261fd)" style="fill: #a52a2a"/>
   </g>
   <g id="patch_64">
    <path d="M 186.9024 258.627227 
L 192.9696 258.627227 
L 192.9696 236.054631 
L 186.9024 236.054631 
z
" clip-path="url(#p99d8a261fd)" style="fill: #a52a2a"/>
   </g>
   <g id="patch_65">
    <path d="M 194.4864 260.48399 
L 200.5536 260.48399 
L 200.5536 237.10288 
L 194.4864 237.10288 
z
" clip-path="url(#p99d8a261fd)" style="fill: #a52a2a"/>
   </g>
   <g id="patch_66">
    <path d="M 202.0704 259.543857 
L 208.1376 259.543857 
L 208.1376 254.993612 
L 202.0704 254.993612 
z
" clip-path="url(#p99d8a261fd)" style="fill: #a52a2a"/>
   </g>
   <g id="patch_67">
    <path d="M 209.6544 260.465187 
L 215.7216 260.465187 
L 215.7216 244.713257 
L 209.6544 244.713257 
z
" clip-path="url(#p99d8a261fd)" style="fill: #a52a2a"/>
   </g>
   <g id="patch_68">
    <path d="M 217.2384 260.921151 
L 223.3056 260.921151 
L 223.3056 222.201771 
L 217.2384 222.201771 
z
" clip-path="url(#p99d8a261fd)" style="fill: #a52a2a"/>
   </g>
   <g id="patch_69">
    <path d="M 224.8224 260.089134 
L 230.8896 260.089134 
L 230.8896 238.113523 
L 224.8224 238.113523 
z
" clip-path="url(#p99d8a261fd)" style="fill: #a52a2a"/>
   </g>
   <g id="patch_70">
    <path d="M 232.4064 261.127981 
L 238.4736 261.127981 
L 238.4736 240.905718 
L 232.4064 240.905718 
z
" clip-path="url(#p99d8a261fd)" style="fill: #a52a2a"/>
   </g>
   <g id="patch_71">
    <path d="M 239.9904 259.050287 
L 246.0576 259.050287 
L 246.0576 244.482925 
L 239.9904 244.482925 
z
" clip-path="url(#p99d8a261fd)" style="fill: #a52a2a"/>
   </g>
   <g id="patch_72">
    <path d="M 247.5744 260.681418 
L 253.6416 260.681418 
L 253.6416 240.510862 
L 247.5744 240.510862 
z
" clip-path="url(#p99d8a261fd)" style="fill: #a52a2a"/>
   </g>
   <g id="patch_73">
    <path d="M 255.1584 259.092593 
L 261.2256 259.092593 
L 261.2256 258.829355 
L 255.1584 258.829355 
z
" clip-path="url(#p99d8a261fd)" style="fill: #a52a2a"/>
   </g>
   <g id="patch_74">
    <path d="M 262.7424 258.895165 
L 268.8096 258.895165 
L 268.8096 245.314942 
L 262.7424 245.314942 
z
" clip-path="url(#p99d8a261fd)" style="fill: #a52a2a"/>
   </g>
   <g id="patch_75">
    <path d="M 270.3264 258.251174 
L 276.3936 258.251174 
L 276.3936 242.536849 
L 270.3264 242.536849 
z
" clip-path="url(#p99d8a261fd)" style="fill: #a52a2a"/>
   </g>
   <g id="patch_76">
    <path d="M 277.9104 258.744743 
L 283.9776 258.744743 
L 283.9776 249.2541 
L 277.9104 249.2541 
z
" clip-path="url(#p99d8a261fd)" style="fill: #a52a2a"/>
   </g>
   <g id="patch_77">
    <path d="M 285.4944 259.00328 
L 291.5616 259.00328 
L 291.5616 247.218712 
L 285.4944 247.218712 
z
" clip-path="url(#p99d8a261fd)" style="fill: #a52a2a"/>
   </g>
   <g id="patch_78">
    <path d="M 293.0784 259.374633 
L 299.1456 259.374633 
L 299.1456 234.315385 
L 293.0784 234.315385 
z
" clip-path="url(#p99d8a261fd)" style="fill: #a52a2a"/>
   </g>
   <g id="patch_79">
    <path d="M 300.6624 255.990153 
L 306.7296 255.990153 
L 306.7296 255.900841 
L 300.6624 255.900841 
z
" clip-path="url(#p99d8a261fd)" style="fill: #a52a2a"/>
   </g>
   <g id="patch_80">
    <path d="M 308.2464 258.190065 
L 314.3136 258.190065 
L 314.3136 249.742969 
L 308.2464 249.742969 
z
" clip-path="url(#p99d8a261fd)" style="fill: #a52a2a"/>
   </g>
   <g id="patch_81">
    <path d="M 315.8304 259.134899 
L 321.8976 259.134899 
L 321.8976 248.135342 
L 315.8304 248.135342 
z
" clip-path="url(#p99d8a261fd)" style="fill: #a52a2a"/>
   </g>
   <g id="patch_82">
    <path d="M 323.4144 259.835298 
L 329.4816 259.835298 
L 329.4816 242.485142 
L 323.4144 242.485142 
z
" clip-path="url(#p99d8a261fd)" style="fill: #a52a2a"/>
   </g>
   <g id="patch_83">
    <path d="M 330.9984 261.259599 
L 337.0656 261.259599 
L 337.0656 252.694987 
L 330.9984 252.694987 
z
" clip-path="url(#p99d8a261fd)" style="fill: #a52a2a"/>
   </g>
   <g id="patch_84">
    <path d="M 338.5824 258.815253 
L 344.6496 258.815253 
L 344.6496 242.790685 
L 338.5824 242.790685 
z
" clip-path="url(#p99d8a261fd)" style="fill: #a52a2a"/>
   </g>
   <g id="patch_85">
    <path d="M 346.1664 261.325409 
L 352.2336 261.325409 
L 352.2336 246.85206 
L 346.1664 246.85206 
z
" clip-path="url(#p99d8a261fd)" style="fill: #a52a2a"/>
   </g>
   <g id="patch_86">
    <path d="M 353.7504 262.213834 
L 359.8176 262.213834 
L 359.8176 247.745186 
L 353.7504 247.745186 
z
" clip-path="url(#p99d8a261fd)" style="fill: #a52a2a"/>
   </g>
   <g id="patch_87">
    <path d="M 361.3344 261.301905 
L 367.4016 261.301905 
L 367.4016 243.918845 
L 361.3344 243.918845 
z
" clip-path="url(#p99d8a261fd)" style="fill: #a52a2a"/>
   </g>
   <g id="patch_88">
    <path d="M 368.9184 262.246739 
L 374.9856 262.246739 
L 374.9856 252.206118 
L 368.9184 252.206118 
z
" clip-path="url(#p99d8a261fd)" style="fill: #a52a2a"/>
   </g>
   <g id="patch_89">
    <path d="M 376.5024 39.218968 
L 382.5696 39.218968 
L 382.5696 24.595198 
L 376.5024 24.595198 
z
" clip-path="url(#p99d8a261fd)" style="fill: #a52a2a"/>
   </g>
   <g id="patch_90">
    <path d="M 384.0864 261.203191 
L 390.1536 261.203191 
L 390.1536 249.992104 
L 384.0864 249.992104 
z
" clip-path="url(#p99d8a261fd)" style="fill: #a52a2a"/>
   </g>
   <g id="patch_91">
    <path d="M 391.6704 261.240797 
L 397.7376 261.240797 
L 397.7376 247.966118 
L 391.6704 247.966118 
z
" clip-path="url(#p99d8a261fd)" style="fill: #a52a2a"/>
   </g>
   <g id="patch_92">
    <path d="M 399.2544 260.314766 
L 405.3216 260.314766 
L 405.3216 241.986871 
L 399.2544 241.986871 
z
" clip-path="url(#p99d8a261fd)" style="fill: #a52a2a"/>
   </g>
   <g id="patch_93">
    <path d="M 406.8384 262.387759 
L 412.9056 262.387759 
L 412.9056 243.444077 
L 406.8384 243.444077 
z
" clip-path="url(#p99d8a261fd)" style="fill: #a52a2a"/>
   </g>
   <g id="patch_94">
    <path d="M 414.4224 262.049311 
L 420.4896 262.049311 
L 420.4896 248.036628 
L 414.4224 248.036628 
z
" clip-path="url(#p99d8a261fd)" style="fill: #a52a2a"/>
   </g>
   <g id="patch_95">
    <path d="M 422.0064 261.494633 
L 428.0736 261.494633 
L 428.0736 249.451528 
L 422.0064 249.451528 
z
" clip-path="url(#p99d8a261fd)" style="fill: #a52a2a"/>
   </g>
   <g id="patch_96">
    <path d="M 429.5904 261.250198 
L 435.6576 261.250198 
L 435.6576 236.834942 
L 429.5904 236.834942 
z
" clip-path="url(#p99d8a261fd)" style="fill: #a52a2a"/>
   </g>
   <g id="patch_97">
    <path d="M 437.1744 262.571085 
L 443.2416 262.571085 
L 443.2416 246.21747 
L 437.1744 246.21747 
z
" clip-path="url(#p99d8a261fd)" style="fill: #a52a2a"/>
   </g>
   <g id="patch_98">
    <path d="M 444.7584 262.218535 
L 450.8256 262.218535 
L 450.8256 247.872104 
L 444.7584 247.872104 
z
" clip-path="url(#p99d8a261fd)" style="fill: #a52a2a"/>
   </g>
   <g id="patch_99">
    <path d="M 88.3104 156.420659 
L 94.3776 156.420659 
L 94.3776 152.152455 
L 88.3104 152.152455 
z
" clip-path="url(#p99d8a261fd)" style="fill: #f08080"/>
   </g>
   <g id="patch_100">
    <path d="M 95.8944 191.464119 
L 101.9616 191.464119 
L 101.9616 187.65188 
L 95.8944 187.65188 
z
" clip-path="url(#p99d8a261fd)" style="fill: #f08080"/>
   </g>
   <g id="patch_101">
    <path d="M 103.4784 203.624741 
L 109.5456 203.624741 
L 109.5456 200.056936 
L 103.4784 200.056936 
z
" clip-path="url(#p99d8a261fd)" style="fill: #f08080"/>
   </g>
   <g id="patch_102">
    <path d="M 111.0624 203.676448 
L 117.1296 203.676448 
L 117.1296 199.87361 
L 111.0624 199.87361 
z
" clip-path="url(#p99d8a261fd)" style="fill: #f08080"/>
   </g>
   <g id="patch_103">
    <path d="M 118.6464 203.883277 
L 124.7136 203.883277 
L 124.7136 199.807801 
L 118.6464 199.807801 
z
" clip-path="url(#p99d8a261fd)" style="fill: #f08080"/>
   </g>
   <g id="patch_104">
    <path d="M 126.2304 223.165407 
L 132.2976 223.165407 
L 132.2976 219.165141 
L 126.2304 219.165141 
z
" clip-path="url(#p99d8a261fd)" style="fill: #f08080"/>
   </g>
   <g id="patch_105">
    <path d="M 133.8144 244.882481 
L 139.8816 244.882481 
L 139.8816 241.046738 
L 133.8144 241.046738 
z
" clip-path="url(#p99d8a261fd)" style="fill: #f08080"/>
   </g>
   <g id="patch_106">
    <path d="M 141.3984 252.662082 
L 147.4656 252.662082 
L 147.4656 248.774632 
L 141.3984 248.774632 
z
" clip-path="url(#p99d8a261fd)" style="fill: #f08080"/>
   </g>
   <g id="patch_107">
    <path d="M 148.9824 259.633169 
L 155.0496 259.633169 
L 155.0496 255.557692 
L 148.9824 255.557692 
z
" clip-path="url(#p99d8a261fd)" style="fill: #f08080"/>
   </g>
   <g id="patch_108">
    <path d="M 156.5664 261.842482 
L 162.6336 261.842482 
L 162.6336 258.345187 
L 156.5664 258.345187 
z
" clip-path="url(#p99d8a261fd)" style="fill: #f08080"/>
   </g>
   <g id="patch_109">
    <path d="M 164.1504 261.692061 
L 170.2176 261.692061 
L 170.2176 257.917426 
L 164.1504 257.917426 
z
" clip-path="url(#p99d8a261fd)" style="fill: #f08080"/>
   </g>
   <g id="patch_110">
    <path d="M 171.7344 260.178446 
L 177.8016 260.178446 
L 177.8016 256.662349 
L 171.7344 256.662349 
z
" clip-path="url(#p99d8a261fd)" style="fill: #f08080"/>
   </g>
   <g id="patch_111">
    <path d="M 179.3184 259.365231 
L 185.3856 259.365231 
L 185.3856 255.585896 
L 179.3184 255.585896 
z
" clip-path="url(#p99d8a261fd)" style="fill: #f08080"/>
   </g>
   <g id="patch_112">
    <path d="M 186.9024 261.085675 
L 192.9696 261.085675 
L 192.9696 257.296938 
L 186.9024 257.296938 
z
" clip-path="url(#p99d8a261fd)" style="fill: #f08080"/>
   </g>
   <g id="patch_113">
    <path d="M 194.4864 262.721506 
L 200.5536 262.721506 
L 200.5536 258.843457 
L 194.4864 258.843457 
z
" clip-path="url(#p99d8a261fd)" style="fill: #f08080"/>
   </g>
   <g id="patch_114">
    <path d="M 202.0704 261.598047 
L 208.1376 261.598047 
L 208.1376 258.213568 
L 202.0704 258.213568 
z
" clip-path="url(#p99d8a261fd)" style="fill: #f08080"/>
   </g>
   <g id="patch_115">
    <path d="M 209.6544 262.556983 
L 215.7216 262.556983 
L 215.7216 259.111395 
L 209.6544 259.111395 
z
" clip-path="url(#p99d8a261fd)" style="fill: #f08080"/>
   </g>
   <g id="patch_116">
    <path d="M 217.2384 263.304389 
L 223.3056 263.304389 
L 223.3056 259.379333 
L 217.2384 259.379333 
z
" clip-path="url(#p99d8a261fd)" style="fill: #f08080"/>
   </g>
   <g id="patch_117">
    <path d="M 224.8224 262.618092 
L 230.8896 262.618092 
L 230.8896 258.359289 
L 224.8224 258.359289 
z
" clip-path="url(#p99d8a261fd)" style="fill: #f08080"/>
   </g>
   <g id="patch_118">
    <path d="M 232.4064 263.647537 
L 238.4736 263.647537 
L 238.4736 259.548557 
L 232.4064 259.548557 
z
" clip-path="url(#p99d8a261fd)" style="fill: #f08080"/>
   </g>
   <g id="patch_119">
    <path d="M 239.9904 261.621551 
L 246.0576 261.621551 
L 246.0576 257.536672 
L 239.9904 257.536672 
z
" clip-path="url(#p99d8a261fd)" style="fill: #f08080"/>
   </g>
   <g id="patch_120">
    <path d="M 247.5744 263.219777 
L 253.6416 263.219777 
L 253.6416 259.087892 
L 247.5744 259.087892 
z
" clip-path="url(#p99d8a261fd)" style="fill: #f08080"/>
   </g>
   <g id="patch_121">
    <path d="M 255.1584 261.673258 
L 261.2256 261.673258 
L 261.2256 257.7341 
L 255.1584 257.7341 
z
" clip-path="url(#p99d8a261fd)" style="fill: #f08080"/>
   </g>
   <g id="patch_122">
    <path d="M 262.7424 261.391218 
L 268.8096 261.391218 
L 268.8096 257.536672 
L 262.7424 257.536672 
z
" clip-path="url(#p99d8a261fd)" style="fill: #f08080"/>
   </g>
   <g id="patch_123">
    <path d="M 270.3264 260.878845 
L 276.3936 260.878845 
L 276.3936 256.930287 
L 270.3264 256.930287 
z
" clip-path="url(#p99d8a261fd)" style="fill: #f08080"/>
   </g>
   <g id="patch_124">
    <path d="M 277.9104 261.033967 
L 283.9776 261.033967 
L 283.9776 257.395652 
L 277.9104 257.395652 
z
" clip-path="url(#p99d8a261fd)" style="fill: #f08080"/>
   </g>
   <g id="patch_125">
    <path d="M 285.4944 261.283103 
L 291.5616 261.283103 
L 291.5616 257.630686 
L 285.4944 257.630686 
z
" clip-path="url(#p99d8a261fd)" style="fill: #f08080"/>
   </g>
   <g id="patch_126">
    <path d="M 293.0784 261.61685 
L 299.1456 261.61685 
L 299.1456 257.762304 
L 293.0784 257.762304 
z
" clip-path="url(#p99d8a261fd)" style="fill: #f08080"/>
   </g>
   <g id="patch_127">
    <path d="M 300.6624 258.378091 
L 306.7296 258.378091 
L 306.7296 254.424832 
L 300.6624 254.424832 
z
" clip-path="url(#p99d8a261fd)" style="fill: #f08080"/>
   </g>
   <g id="patch_128">
    <path d="M 308.2464 260.540398 
L 314.3136 260.540398 
L 314.3136 256.634145 
L 308.2464 256.634145 
z
" clip-path="url(#p99d8a261fd)" style="fill: #f08080"/>
   </g>
   <g id="patch_129">
    <path d="M 315.8304 261.602748 
L 321.8976 261.602748 
L 321.8976 257.771706 
L 315.8304 257.771706 
z
" clip-path="url(#p99d8a261fd)" style="fill: #f08080"/>
   </g>
   <g id="patch_130">
    <path d="M 323.4144 261.992903 
L 329.4816 261.992903 
L 329.4816 258.486207 
L 323.4144 258.486207 
z
" clip-path="url(#p99d8a261fd)" style="fill: #f08080"/>
   </g>
   <g id="patch_131">
    <path d="M 330.9984 263.200974 
L 337.0656 263.200974 
L 337.0656 259.689577 
L 330.9984 259.689577 
z
" clip-path="url(#p99d8a261fd)" style="fill: #f08080"/>
   </g>
   <g id="patch_132">
    <path d="M 338.5824 261.005763 
L 344.6496 261.005763 
L 344.6496 257.24053 
L 338.5824 257.24053 
z
" clip-path="url(#p99d8a261fd)" style="fill: #f08080"/>
   </g>
   <g id="patch_133">
    <path d="M 346.1664 263.694544 
L 352.2336 263.694544 
L 352.2336 259.891706 
L 346.1664 259.891706 
z
" clip-path="url(#p99d8a261fd)" style="fill: #f08080"/>
   </g>
   <g id="patch_134">
    <path d="M 353.7504 264.573568 
L 359.8176 264.573568 
L 359.8176 260.860043 
L 353.7504 260.860043 
z
" clip-path="url(#p99d8a261fd)" style="fill: #f08080"/>
   </g>
   <g id="patch_135">
    <path d="M 361.3344 263.774455 
L 367.4016 263.774455 
L 367.4016 259.966916 
L 361.3344 259.966916 
z
" clip-path="url(#p99d8a261fd)" style="fill: #f08080"/>
   </g>
   <g id="patch_136">
    <path d="M 368.9184 264.578269 
L 374.9856 264.578269 
L 374.9856 260.751928 
L 368.9184 260.751928 
z
" clip-path="url(#p99d8a261fd)" style="fill: #f08080"/>
   </g>
   <g id="patch_137">
    <path d="M 376.5024 41.5646 
L 382.5696 41.5646 
L 382.5696 37.489123 
L 376.5024 37.489123 
z
" clip-path="url(#p99d8a261fd)" style="fill: #f08080"/>
   </g>
   <g id="patch_138">
    <path d="M 384.0864 263.647537 
L 390.1536 263.647537 
L 390.1536 259.633169 
L 384.0864 259.633169 
z
" clip-path="url(#p99d8a261fd)" style="fill: #f08080"/>
   </g>
   <g id="patch_139">
    <path d="M 391.6704 263.619333 
L 397.7376 263.619333 
L 397.7376 259.628468 
L 391.6704 259.628468 
z
" clip-path="url(#p99d8a261fd)" style="fill: #f08080"/>
   </g>
   <g id="patch_140">
    <path d="M 399.2544 262.655697 
L 405.3216 262.655697 
L 405.3216 258.937471 
L 399.2544 258.937471 
z
" clip-path="url(#p99d8a261fd)" style="fill: #f08080"/>
   </g>
   <g id="patch_141">
    <path d="M 406.8384 264.376141 
L 412.9056 264.376141 
L 412.9056 260.860043 
L 406.8384 260.860043 
z
" clip-path="url(#p99d8a261fd)" style="fill: #f08080"/>
   </g>
   <g id="patch_142">
    <path d="M 414.4224 264.216318 
L 420.4896 264.216318 
L 420.4896 260.333568 
L 414.4224 260.333568 
z
" clip-path="url(#p99d8a261fd)" style="fill: #f08080"/>
   </g>
   <g id="patch_143">
    <path d="M 422.0064 263.774455 
L 428.0736 263.774455 
L 428.0736 259.957515 
L 422.0064 259.957515 
z
" clip-path="url(#p99d8a261fd)" style="fill: #f08080"/>
   </g>
   <g id="patch_144">
    <path d="M 429.5904 263.694544 
L 435.6576 263.694544 
L 435.6576 259.473347 
L 429.5904 259.473347 
z
" clip-path="url(#p99d8a261fd)" style="fill: #f08080"/>
   </g>
   <g id="patch_145">
    <path d="M 437.1744 265.165852 
L 443.2416 265.165852 
L 443.2416 260.939954 
L 437.1744 260.939954 
z
" clip-path="url(#p99d8a261fd)" style="fill: #f08080"/>
   </g>
   <g id="patch_146">
    <path d="M 444.7584 264.695786 
L 450.8256 264.695786 
L 450.8256 260.827138 
L 444.7584 260.827138 
z
" clip-path="url(#p99d8a261fd)" style="fill: #f08080"/>
   </g>
   <g id="patch_147">
    <path d="M 88.3104 293.76 
L 94.3776 293.76 
L 94.3776 156.420659 
L 88.3104 156.420659 
z
" clip-path="url(#p99d8a261fd)" style="fill: #ffe4e1"/>
   </g>
   <g id="patch_148">
    <path d="M 95.8944 293.76 
L 101.9616 293.76 
L 101.9616 191.464119 
L 95.8944 191.464119 
z
" clip-path="url(#p99d8a261fd)" style="fill: #ffe4e1"/>
   </g>
   <g id="patch_149">
    <path d="M 103.4784 293.76 
L 109.5456 293.76 
L 109.5456 203.624741 
L 103.4784 203.624741 
z
" clip-path="url(#p99d8a261fd)" style="fill: #ffe4e1"/>
   </g>
   <g id="patch_150">
    <path d="M 111.0624 293.76 
L 117.1296 293.76 
L 117.1296 203.676448 
L 111.0624 203.676448 
z
" clip-path="url(#p99d8a261fd)" style="fill: #ffe4e1"/>
   </g>
   <g id="patch_151">
    <path d="M 118.6464 293.76 
L 124.7136 293.76 
L 124.7136 203.883277 
L 118.6464 203.883277 
z
" clip-path="url(#p99d8a261fd)" style="fill: #ffe4e1"/>
   </g>
   <g id="patch_152">
    <path d="M 126.2304 293.76 
L 132.2976 293.76 
L 132.2976 223.165407 
L 126.2304 223.165407 
z
" clip-path="url(#p99d8a261fd)" style="fill: #ffe4e1"/>
   </g>
   <g id="patch_153">
    <path d="M 133.8144 293.76 
L 139.8816 293.76 
L 139.8816 244.882481 
L 133.8144 244.882481 
z
" clip-path="url(#p99d8a261fd)" style="fill: #ffe4e1"/>
   </g>
   <g id="patch_154">
    <path d="M 141.3984 293.76 
L 147.4656 293.76 
L 147.4656 252.662082 
L 141.3984 252.662082 
z
" clip-path="url(#p99d8a261fd)" style="fill: #ffe4e1"/>
   </g>
   <g id="patch_155">
    <path d="M 148.9824 293.76 
L 155.0496 293.76 
L 155.0496 259.633169 
L 148.9824 259.633169 
z
" clip-path="url(#p99d8a261fd)" style="fill: #ffe4e1"/>
   </g>
   <g id="patch_156">
    <path d="M 156.5664 293.76 
L 162.6336 293.76 
L 162.6336 261.842482 
L 156.5664 261.842482 
z
" clip-path="url(#p99d8a261fd)" style="fill: #ffe4e1"/>
   </g>
   <g id="patch_157">
    <path d="M 164.1504 293.76 
L 170.2176 293.76 
L 170.2176 261.692061 
L 164.1504 261.692061 
z
" clip-path="url(#p99d8a261fd)" style="fill: #ffe4e1"/>
   </g>
   <g id="patch_158">
    <path d="M 171.7344 293.76 
L 177.8016 293.76 
L 177.8016 260.178446 
L 171.7344 260.178446 
z
" clip-path="url(#p99d8a261fd)" style="fill: #ffe4e1"/>
   </g>
   <g id="patch_159">
    <path d="M 179.3184 293.76 
L 185.3856 293.76 
L 185.3856 259.365231 
L 179.3184 259.365231 
z
" clip-path="url(#p99d8a261fd)" style="fill: #ffe4e1"/>
   </g>
   <g id="patch_160">
    <path d="M 186.9024 293.76 
L 192.9696 293.76 
L 192.9696 261.085675 
L 186.9024 261.085675 
z
" clip-path="url(#p99d8a261fd)" style="fill: #ffe4e1"/>
   </g>
   <g id="patch_161">
    <path d="M 194.4864 293.76 
L 200.5536 293.76 
L 200.5536 262.721506 
L 194.4864 262.721506 
z
" clip-path="url(#p99d8a261fd)" style="fill: #ffe4e1"/>
   </g>
   <g id="patch_162">
    <path d="M 202.0704 293.76 
L 208.1376 293.76 
L 208.1376 261.598047 
L 202.0704 261.598047 
z
" clip-path="url(#p99d8a261fd)" style="fill: #ffe4e1"/>
   </g>
   <g id="patch_163">
    <path d="M 209.6544 293.76 
L 215.7216 293.76 
L 215.7216 262.556983 
L 209.6544 262.556983 
z
" clip-path="url(#p99d8a261fd)" style="fill: #ffe4e1"/>
   </g>
   <g id="patch_164">
    <path d="M 217.2384 293.76 
L 223.3056 293.76 
L 223.3056 263.304389 
L 217.2384 263.304389 
z
" clip-path="url(#p99d8a261fd)" style="fill: #ffe4e1"/>
   </g>
   <g id="patch_165">
    <path d="M 224.8224 293.76 
L 230.8896 293.76 
L 230.8896 262.618092 
L 224.8224 262.618092 
z
" clip-path="url(#p99d8a261fd)" style="fill: #ffe4e1"/>
   </g>
   <g id="patch_166">
    <path d="M 232.4064 293.76 
L 238.4736 293.76 
L 238.4736 263.647537 
L 232.4064 263.647537 
z
" clip-path="url(#p99d8a261fd)" style="fill: #ffe4e1"/>
   </g>
   <g id="patch_167">
    <path d="M 239.9904 293.76 
L 246.0576 293.76 
L 246.0576 261.621551 
L 239.9904 261.621551 
z
" clip-path="url(#p99d8a261fd)" style="fill: #ffe4e1"/>
   </g>
   <g id="patch_168">
    <path d="M 247.5744 293.76 
L 253.6416 293.76 
L 253.6416 263.219777 
L 247.5744 263.219777 
z
" clip-path="url(#p99d8a261fd)" style="fill: #ffe4e1"/>
   </g>
   <g id="patch_169">
    <path d="M 255.1584 293.76 
L 261.2256 293.76 
L 261.2256 261.673258 
L 255.1584 261.673258 
z
" clip-path="url(#p99d8a261fd)" style="fill: #ffe4e1"/>
   </g>
   <g id="patch_170">
    <path d="M 262.7424 293.76 
L 268.8096 293.76 
L 268.8096 261.391218 
L 262.7424 261.391218 
z
" clip-path="url(#p99d8a261fd)" style="fill: #ffe4e1"/>
   </g>
   <g id="patch_171">
    <path d="M 270.3264 293.76 
L 276.3936 293.76 
L 276.3936 260.878845 
L 270.3264 260.878845 
z
" clip-path="url(#p99d8a261fd)" style="fill: #ffe4e1"/>
   </g>
   <g id="patch_172">
    <path d="M 277.9104 293.76 
L 283.9776 293.76 
L 283.9776 261.033967 
L 277.9104 261.033967 
z
" clip-path="url(#p99d8a261fd)" style="fill: #ffe4e1"/>
   </g>
   <g id="patch_173">
    <path d="M 285.4944 293.76 
L 291.5616 293.76 
L 291.5616 261.283103 
L 285.4944 261.283103 
z
" clip-path="url(#p99d8a261fd)" style="fill: #ffe4e1"/>
   </g>
   <g id="patch_174">
    <path d="M 293.0784 293.76 
L 299.1456 293.76 
L 299.1456 261.61685 
L 293.0784 261.61685 
z
" clip-path="url(#p99d8a261fd)" style="fill: #ffe4e1"/>
   </g>
   <g id="patch_175">
    <path d="M 300.6624 293.76 
L 306.7296 293.76 
L 306.7296 258.378091 
L 300.6624 258.378091 
z
" clip-path="url(#p99d8a261fd)" style="fill: #ffe4e1"/>
   </g>
   <g id="patch_176">
    <path d="M 308.2464 293.76 
L 314.3136 293.76 
L 314.3136 260.540398 
L 308.2464 260.540398 
z
" clip-path="url(#p99d8a261fd)" style="fill: #ffe4e1"/>
   </g>
   <g id="patch_177">
    <path d="M 315.8304 293.76 
L 321.8976 293.76 
L 321.8976 261.602748 
L 315.8304 261.602748 
z
" clip-path="url(#p99d8a261fd)" style="fill: #ffe4e1"/>
   </g>
   <g id="patch_178">
    <path d="M 323.4144 293.76 
L 329.4816 293.76 
L 329.4816 261.992903 
L 323.4144 261.992903 
z
" clip-path="url(#p99d8a261fd)" style="fill: #ffe4e1"/>
   </g>
   <g id="patch_179">
    <path d="M 330.9984 293.76 
L 337.0656 293.76 
L 337.0656 263.200974 
L 330.9984 263.200974 
z
" clip-path="url(#p99d8a261fd)" style="fill: #ffe4e1"/>
   </g>
   <g id="patch_180">
    <path d="M 338.5824 293.76 
L 344.6496 293.76 
L 344.6496 261.005763 
L 338.5824 261.005763 
z
" clip-path="url(#p99d8a261fd)" style="fill: #ffe4e1"/>
   </g>
   <g id="patch_181">
    <path d="M 346.1664 293.76 
L 352.2336 293.76 
L 352.2336 263.694544 
L 346.1664 263.694544 
z
" clip-path="url(#p99d8a261fd)" style="fill: #ffe4e1"/>
   </g>
   <g id="patch_182">
    <path d="M 353.7504 293.76 
L 359.8176 293.76 
L 359.8176 264.573568 
L 353.7504 264.573568 
z
" clip-path="url(#p99d8a261fd)" style="fill: #ffe4e1"/>
   </g>
   <g id="patch_183">
    <path d="M 361.3344 293.76 
L 367.4016 293.76 
L 367.4016 263.774455 
L 361.3344 263.774455 
z
" clip-path="url(#p99d8a261fd)" style="fill: #ffe4e1"/>
   </g>
   <g id="patch_184">
    <path d="M 368.9184 293.76 
L 374.9856 293.76 
L 374.9856 264.578269 
L 368.9184 264.578269 
z
" clip-path="url(#p99d8a261fd)" style="fill: #ffe4e1"/>
   </g>
   <g id="patch_185">
    <path d="M 376.5024 293.76 
L 382.5696 293.76 
L 382.5696 41.5646 
L 376.5024 41.5646 
z
" clip-path="url(#p99d8a261fd)" style="fill: #ffe4e1"/>
   </g>
   <g id="patch_186">
    <path d="M 384.0864 293.76 
L 390.1536 293.76 
L 390.1536 263.647537 
L 384.0864 263.647537 
z
" clip-path="url(#p99d8a261fd)" style="fill: #ffe4e1"/>
   </g>
   <g id="patch_187">
    <path d="M 391.6704 293.76 
L 397.7376 293.76 
L 397.7376 263.619333 
L 391.6704 263.619333 
z
" clip-path="url(#p99d8a261fd)" style="fill: #ffe4e1"/>
   </g>
   <g id="patch_188">
    <path d="M 399.2544 293.76 
L 405.3216 293.76 
L 405.3216 262.655697 
L 399.2544 262.655697 
z
" clip-path="url(#p99d8a261fd)" style="fill: #ffe4e1"/>
   </g>
   <g id="patch_189">
    <path d="M 406.8384 293.76 
L 412.9056 293.76 
L 412.9056 264.376141 
L 406.8384 264.376141 
z
" clip-path="url(#p99d8a261fd)" style="fill: #ffe4e1"/>
   </g>
   <g id="patch_190">
    <path d="M 414.4224 293.76 
L 420.4896 293.76 
L 420.4896 264.216318 
L 414.4224 264.216318 
z
" clip-path="url(#p99d8a261fd)" style="fill: #ffe4e1"/>
   </g>
   <g id="patch_191">
    <path d="M 422.0064 293.76 
L 428.0736 293.76 
L 428.0736 263.774455 
L 422.0064 263.774455 
z
" clip-path="url(#p99d8a261fd)" style="fill: #ffe4e1"/>
   </g>
   <g id="patch_192">
    <path d="M 429.5904 293.76 
L 435.6576 293.76 
L 435.6576 263.694544 
L 429.5904 263.694544 
z
" clip-path="url(#p99d8a261fd)" style="fill: #ffe4e1"/>
   </g>
   <g id="patch_193">
    <path d="M 437.1744 293.76 
L 443.2416 293.76 
L 443.2416 265.165852 
L 437.1744 265.165852 
z
" clip-path="url(#p99d8a261fd)" style="fill: #ffe4e1"/>
   </g>
   <g id="patch_194">
    <path d="M 444.7584 293.76 
L 450.8256 293.76 
L 450.8256 264.695786 
L 444.7584 264.695786 
z
" clip-path="url(#p99d8a261fd)" style="fill: #ffe4e1"/>
   </g>
   <g id="matplotlib.axis_1">
    <g id="xtick_1">
     <g id="line2d_1">
      <path d="M 159.6 293.76 
L 159.6 6.912 
" clip-path="url(#p99d8a261fd)" style="fill: none; stroke: #b0b0b0; stroke-width: 0.8; stroke-linecap: square"/>
     </g>
     <g id="line2d_2">
      <defs>
       <path id="m48387b3327" d="M 0 0 
L 0 3.5 
" style="stroke: #000000; stroke-width: 0.8"/>
      </defs>
      <g>
       <use xlink:href="#m48387b3327" x="159.6" y="293.76" style="stroke: #000000; stroke-width: 0.8"/>
      </g>
     </g>
     <g id="text_1">
      <!-- 10 -->
      <g transform="translate(146.875 315.956875) scale(0.2 -0.2)">
       <defs>
        <path id="DejaVuSans-31" d="M 794 531 
L 1825 531 
L 1825 4091 
L 703 3866 
L 703 4441 
L 1819 4666 
L 2450 4666 
L 2450 531 
L 3481 531 
L 3481 0 
L 794 0 
L 794 531 
z
" transform="scale(0.015625)"/>
        <path id="DejaVuSans-30" d="M 2034 4250 
Q 1547 4250 1301 3770 
Q 1056 3291 1056 2328 
Q 1056 1369 1301 889 
Q 1547 409 2034 409 
Q 2525 409 2770 889 
Q 3016 1369 3016 2328 
Q 3016 3291 2770 3770 
Q 2525 4250 2034 4250 
z
M 2034 4750 
Q 2819 4750 3233 4129 
Q 3647 3509 3647 2328 
Q 3647 1150 3233 529 
Q 2819 -91 2034 -91 
Q 1250 -91 836 529 
Q 422 1150 422 2328 
Q 422 3509 836 4129 
Q 1250 4750 2034 4750 
z
" transform="scale(0.015625)"/>
       </defs>
       <use xlink:href="#DejaVuSans-31"/>
       <use xlink:href="#DejaVuSans-30" x="63.623047"/>
      </g>
     </g>
    </g>
    <g id="xtick_2">
     <g id="line2d_3">
      <path d="M 235.44 293.76 
L 235.44 6.912 
" clip-path="url(#p99d8a261fd)" style="fill: none; stroke: #b0b0b0; stroke-width: 0.8; stroke-linecap: square"/>
     </g>
     <g id="line2d_4">
      <g>
       <use xlink:href="#m48387b3327" x="235.44" y="293.76" style="stroke: #000000; stroke-width: 0.8"/>
      </g>
     </g>
     <g id="text_2">
      <!-- 20 -->
      <g transform="translate(222.715 315.956875) scale(0.2 -0.2)">
       <defs>
        <path id="DejaVuSans-32" d="M 1228 531 
L 3431 531 
L 3431 0 
L 469 0 
L 469 531 
Q 828 903 1448 1529 
Q 2069 2156 2228 2338 
Q 2531 2678 2651 2914 
Q 2772 3150 2772 3378 
Q 2772 3750 2511 3984 
Q 2250 4219 1831 4219 
Q 1534 4219 1204 4116 
Q 875 4013 500 3803 
L 500 4441 
Q 881 4594 1212 4672 
Q 1544 4750 1819 4750 
Q 2544 4750 2975 4387 
Q 3406 4025 3406 3419 
Q 3406 3131 3298 2873 
Q 3191 2616 2906 2266 
Q 2828 2175 2409 1742 
Q 1991 1309 1228 531 
z
" transform="scale(0.015625)"/>
       </defs>
       <use xlink:href="#DejaVuSans-32"/>
       <use xlink:href="#DejaVuSans-30" x="63.623047"/>
      </g>
     </g>
    </g>
    <g id="xtick_3">
     <g id="line2d_5">
      <path d="M 311.28 293.76 
L 311.28 6.912 
" clip-path="url(#p99d8a261fd)" style="fill: none; stroke: #b0b0b0; stroke-width: 0.8; stroke-linecap: square"/>
     </g>
     <g id="line2d_6">
      <g>
       <use xlink:href="#m48387b3327" x="311.28" y="293.76" style="stroke: #000000; stroke-width: 0.8"/>
      </g>
     </g>
     <g id="text_3">
      <!-- 30 -->
      <g transform="translate(298.555 315.956875) scale(0.2 -0.2)">
       <defs>
        <path id="DejaVuSans-33" d="M 2597 2516 
Q 3050 2419 3304 2112 
Q 3559 1806 3559 1356 
Q 3559 666 3084 287 
Q 2609 -91 1734 -91 
Q 1441 -91 1130 -33 
Q 819 25 488 141 
L 488 750 
Q 750 597 1062 519 
Q 1375 441 1716 441 
Q 2309 441 2620 675 
Q 2931 909 2931 1356 
Q 2931 1769 2642 2001 
Q 2353 2234 1838 2234 
L 1294 2234 
L 1294 2753 
L 1863 2753 
Q 2328 2753 2575 2939 
Q 2822 3125 2822 3475 
Q 2822 3834 2567 4026 
Q 2313 4219 1838 4219 
Q 1578 4219 1281 4162 
Q 984 4106 628 3988 
L 628 4550 
Q 988 4650 1302 4700 
Q 1616 4750 1894 4750 
Q 2613 4750 3031 4423 
Q 3450 4097 3450 3541 
Q 3450 3153 3228 2886 
Q 3006 2619 2597 2516 
z
" transform="scale(0.015625)"/>
       </defs>
       <use xlink:href="#DejaVuSans-33"/>
       <use xlink:href="#DejaVuSans-30" x="63.623047"/>
      </g>
     </g>
    </g>
    <g id="xtick_4">
     <g id="line2d_7">
      <path d="M 387.12 293.76 
L 387.12 6.912 
" clip-path="url(#p99d8a261fd)" style="fill: none; stroke: #b0b0b0; stroke-width: 0.8; stroke-linecap: square"/>
     </g>
     <g id="line2d_8">
      <g>
       <use xlink:href="#m48387b3327" x="387.12" y="293.76" style="stroke: #000000; stroke-width: 0.8"/>
      </g>
     </g>
     <g id="text_4">
      <!-- 40 -->
      <g transform="translate(374.395 315.956875) scale(0.2 -0.2)">
       <defs>
        <path id="DejaVuSans-34" d="M 2419 4116 
L 825 1625 
L 2419 1625 
L 2419 4116 
z
M 2253 4666 
L 3047 4666 
L 3047 1625 
L 3713 1625 
L 3713 1100 
L 3047 1100 
L 3047 0 
L 2419 0 
L 2419 1100 
L 313 1100 
L 313 1709 
L 2253 4666 
z
" transform="scale(0.015625)"/>
       </defs>
       <use xlink:href="#DejaVuSans-34"/>
       <use xlink:href="#DejaVuSans-30" x="63.623047"/>
      </g>
     </g>
    </g>
    <g id="text_5">
     <!-- batch iteration -->
     <g transform="translate(203.277375 337.793437) scale(0.18 -0.18)">
      <defs>
       <path id="DejaVuSans-62" d="M 3116 1747 
Q 3116 2381 2855 2742 
Q 2594 3103 2138 3103 
Q 1681 3103 1420 2742 
Q 1159 2381 1159 1747 
Q 1159 1113 1420 752 
Q 1681 391 2138 391 
Q 2594 391 2855 752 
Q 3116 1113 3116 1747 
z
M 1159 2969 
Q 1341 3281 1617 3432 
Q 1894 3584 2278 3584 
Q 2916 3584 3314 3078 
Q 3713 2572 3713 1747 
Q 3713 922 3314 415 
Q 2916 -91 2278 -91 
Q 1894 -91 1617 61 
Q 1341 213 1159 525 
L 1159 0 
L 581 0 
L 581 4863 
L 1159 4863 
L 1159 2969 
z
" transform="scale(0.015625)"/>
       <path id="DejaVuSans-61" d="M 2194 1759 
Q 1497 1759 1228 1600 
Q 959 1441 959 1056 
Q 959 750 1161 570 
Q 1363 391 1709 391 
Q 2188 391 2477 730 
Q 2766 1069 2766 1631 
L 2766 1759 
L 2194 1759 
z
M 3341 1997 
L 3341 0 
L 2766 0 
L 2766 531 
Q 2569 213 2275 61 
Q 1981 -91 1556 -91 
Q 1019 -91 701 211 
Q 384 513 384 1019 
Q 384 1609 779 1909 
Q 1175 2209 1959 2209 
L 2766 2209 
L 2766 2266 
Q 2766 2663 2505 2880 
Q 2244 3097 1772 3097 
Q 1472 3097 1187 3025 
Q 903 2953 641 2809 
L 641 3341 
Q 956 3463 1253 3523 
Q 1550 3584 1831 3584 
Q 2591 3584 2966 3190 
Q 3341 2797 3341 1997 
z
" transform="scale(0.015625)"/>
       <path id="DejaVuSans-74" d="M 1172 4494 
L 1172 3500 
L 2356 3500 
L 2356 3053 
L 1172 3053 
L 1172 1153 
Q 1172 725 1289 603 
Q 1406 481 1766 481 
L 2356 481 
L 2356 0 
L 1766 0 
Q 1100 0 847 248 
Q 594 497 594 1153 
L 594 3053 
L 172 3053 
L 172 3500 
L 594 3500 
L 594 4494 
L 1172 4494 
z
" transform="scale(0.015625)"/>
       <path id="DejaVuSans-63" d="M 3122 3366 
L 3122 2828 
Q 2878 2963 2633 3030 
Q 2388 3097 2138 3097 
Q 1578 3097 1268 2742 
Q 959 2388 959 1747 
Q 959 1106 1268 751 
Q 1578 397 2138 397 
Q 2388 397 2633 464 
Q 2878 531 3122 666 
L 3122 134 
Q 2881 22 2623 -34 
Q 2366 -91 2075 -91 
Q 1284 -91 818 406 
Q 353 903 353 1747 
Q 353 2603 823 3093 
Q 1294 3584 2113 3584 
Q 2378 3584 2631 3529 
Q 2884 3475 3122 3366 
z
" transform="scale(0.015625)"/>
       <path id="DejaVuSans-68" d="M 3513 2113 
L 3513 0 
L 2938 0 
L 2938 2094 
Q 2938 2591 2744 2837 
Q 2550 3084 2163 3084 
Q 1697 3084 1428 2787 
Q 1159 2491 1159 1978 
L 1159 0 
L 581 0 
L 581 4863 
L 1159 4863 
L 1159 2956 
Q 1366 3272 1645 3428 
Q 1925 3584 2291 3584 
Q 2894 3584 3203 3211 
Q 3513 2838 3513 2113 
z
" transform="scale(0.015625)"/>
       <path id="DejaVuSans-20" transform="scale(0.015625)"/>
       <path id="DejaVuSans-69" d="M 603 3500 
L 1178 3500 
L 1178 0 
L 603 0 
L 603 3500 
z
M 603 4863 
L 1178 4863 
L 1178 4134 
L 603 4134 
L 603 4863 
z
" transform="scale(0.015625)"/>
       <path id="DejaVuSans-65" d="M 3597 1894 
L 3597 1613 
L 953 1613 
Q 991 1019 1311 708 
Q 1631 397 2203 397 
Q 2534 397 2845 478 
Q 3156 559 3463 722 
L 3463 178 
Q 3153 47 2828 -22 
Q 2503 -91 2169 -91 
Q 1331 -91 842 396 
Q 353 884 353 1716 
Q 353 2575 817 3079 
Q 1281 3584 2069 3584 
Q 2775 3584 3186 3129 
Q 3597 2675 3597 1894 
z
M 3022 2063 
Q 3016 2534 2758 2815 
Q 2500 3097 2075 3097 
Q 1594 3097 1305 2825 
Q 1016 2553 972 2059 
L 3022 2063 
z
" transform="scale(0.015625)"/>
       <path id="DejaVuSans-72" d="M 2631 2963 
Q 2534 3019 2420 3045 
Q 2306 3072 2169 3072 
Q 1681 3072 1420 2755 
Q 1159 2438 1159 1844 
L 1159 0 
L 581 0 
L 581 3500 
L 1159 3500 
L 1159 2956 
Q 1341 3275 1631 3429 
Q 1922 3584 2338 3584 
Q 2397 3584 2469 3576 
Q 2541 3569 2628 3553 
L 2631 2963 
z
" transform="scale(0.015625)"/>
       <path id="DejaVuSans-6f" d="M 1959 3097 
Q 1497 3097 1228 2736 
Q 959 2375 959 1747 
Q 959 1119 1226 758 
Q 1494 397 1959 397 
Q 2419 397 2687 759 
Q 2956 1122 2956 1747 
Q 2956 2369 2687 2733 
Q 2419 3097 1959 3097 
z
M 1959 3584 
Q 2709 3584 3137 3096 
Q 3566 2609 3566 1747 
Q 3566 888 3137 398 
Q 2709 -91 1959 -91 
Q 1206 -91 779 398 
Q 353 888 353 1747 
Q 353 2609 779 3096 
Q 1206 3584 1959 3584 
z
" transform="scale(0.015625)"/>
       <path id="DejaVuSans-6e" d="M 3513 2113 
L 3513 0 
L 2938 0 
L 2938 2094 
Q 2938 2591 2744 2837 
Q 2550 3084 2163 3084 
Q 1697 3084 1428 2787 
Q 1159 2491 1159 1978 
L 1159 0 
L 581 0 
L 581 3500 
L 1159 3500 
L 1159 2956 
Q 1366 3272 1645 3428 
Q 1925 3584 2291 3584 
Q 2894 3584 3203 3211 
Q 3513 2838 3513 2113 
z
" transform="scale(0.015625)"/>
      </defs>
      <use xlink:href="#DejaVuSans-62"/>
      <use xlink:href="#DejaVuSans-61" x="63.476562"/>
      <use xlink:href="#DejaVuSans-74" x="124.755859"/>
      <use xlink:href="#DejaVuSans-63" x="163.964844"/>
      <use xlink:href="#DejaVuSans-68" x="218.945312"/>
      <use xlink:href="#DejaVuSans-20" x="282.324219"/>
      <use xlink:href="#DejaVuSans-69" x="314.111328"/>
      <use xlink:href="#DejaVuSans-74" x="341.894531"/>
      <use xlink:href="#DejaVuSans-65" x="381.103516"/>
      <use xlink:href="#DejaVuSans-72" x="442.626953"/>
      <use xlink:href="#DejaVuSans-61" x="483.740234"/>
      <use xlink:href="#DejaVuSans-74" x="545.019531"/>
      <use xlink:href="#DejaVuSans-69" x="584.228516"/>
      <use xlink:href="#DejaVuSans-6f" x="612.011719"/>
      <use xlink:href="#DejaVuSans-6e" x="673.193359"/>
     </g>
    </g>
   </g>
   <g id="matplotlib.axis_2">
    <g id="ytick_1">
     <g id="line2d_9">
      <path d="M 87.552 293.76 
L 451.584 293.76 
" clip-path="url(#p99d8a261fd)" style="fill: none; stroke: #b0b0b0; stroke-width: 0.8; stroke-linecap: square"/>
     </g>
     <g id="line2d_10">
      <defs>
       <path id="mc8d80d6bed" d="M 0 0 
L -3.5 0 
" style="stroke: #000000; stroke-width: 0.8"/>
      </defs>
      <g>
       <use xlink:href="#mc8d80d6bed" x="87.552" y="293.76" style="stroke: #000000; stroke-width: 0.8"/>
      </g>
     </g>
     <g id="text_6">
      <!-- 0.0 -->
      <g transform="translate(48.74575 301.358437) scale(0.2 -0.2)">
       <defs>
        <path id="DejaVuSans-2e" d="M 684 794 
L 1344 794 
L 1344 0 
L 684 0 
L 684 794 
z
" transform="scale(0.015625)"/>
       </defs>
       <use xlink:href="#DejaVuSans-30"/>
       <use xlink:href="#DejaVuSans-2e" x="63.623047"/>
       <use xlink:href="#DejaVuSans-30" x="95.410156"/>
      </g>
     </g>
    </g>
    <g id="ytick_2">
     <g id="line2d_11">
      <path d="M 87.552 246.753346 
L 451.584 246.753346 
" clip-path="url(#p99d8a261fd)" style="fill: none; stroke: #b0b0b0; stroke-width: 0.8; stroke-linecap: square"/>
     </g>
     <g id="line2d_12">
      <g>
       <use xlink:href="#mc8d80d6bed" x="87.552" y="246.753346" style="stroke: #000000; stroke-width: 0.8"/>
      </g>
     </g>
     <g id="text_7">
      <!-- 0.1 -->
      <g transform="translate(48.74575 254.351783) scale(0.2 -0.2)">
       <use xlink:href="#DejaVuSans-30"/>
       <use xlink:href="#DejaVuSans-2e" x="63.623047"/>
       <use xlink:href="#DejaVuSans-31" x="95.410156"/>
      </g>
     </g>
    </g>
    <g id="ytick_3">
     <g id="line2d_13">
      <path d="M 87.552 199.746692 
L 451.584 199.746692 
" clip-path="url(#p99d8a261fd)" style="fill: none; stroke: #b0b0b0; stroke-width: 0.8; stroke-linecap: square"/>
     </g>
     <g id="line2d_14">
      <g>
       <use xlink:href="#mc8d80d6bed" x="87.552" y="199.746692" style="stroke: #000000; stroke-width: 0.8"/>
      </g>
     </g>
     <g id="text_8">
      <!-- 0.2 -->
      <g transform="translate(48.74575 207.345129) scale(0.2 -0.2)">
       <use xlink:href="#DejaVuSans-30"/>
       <use xlink:href="#DejaVuSans-2e" x="63.623047"/>
       <use xlink:href="#DejaVuSans-32" x="95.410156"/>
      </g>
     </g>
    </g>
    <g id="ytick_4">
     <g id="line2d_15">
      <path d="M 87.552 152.740038 
L 451.584 152.740038 
" clip-path="url(#p99d8a261fd)" style="fill: none; stroke: #b0b0b0; stroke-width: 0.8; stroke-linecap: square"/>
     </g>
     <g id="line2d_16">
      <g>
       <use xlink:href="#mc8d80d6bed" x="87.552" y="152.740038" style="stroke: #000000; stroke-width: 0.8"/>
      </g>
     </g>
     <g id="text_9">
      <!-- 0.3 -->
      <g transform="translate(48.74575 160.338475) scale(0.2 -0.2)">
       <use xlink:href="#DejaVuSans-30"/>
       <use xlink:href="#DejaVuSans-2e" x="63.623047"/>
       <use xlink:href="#DejaVuSans-33" x="95.410156"/>
      </g>
     </g>
    </g>
    <g id="ytick_5">
     <g id="line2d_17">
      <path d="M 87.552 105.733384 
L 451.584 105.733384 
" clip-path="url(#p99d8a261fd)" style="fill: none; stroke: #b0b0b0; stroke-width: 0.8; stroke-linecap: square"/>
     </g>
     <g id="line2d_18">
      <g>
       <use xlink:href="#mc8d80d6bed" x="87.552" y="105.733384" style="stroke: #000000; stroke-width: 0.8"/>
      </g>
     </g>
     <g id="text_10">
      <!-- 0.4 -->
      <g transform="translate(48.74575 113.331821) scale(0.2 -0.2)">
       <use xlink:href="#DejaVuSans-30"/>
       <use xlink:href="#DejaVuSans-2e" x="63.623047"/>
       <use xlink:href="#DejaVuSans-34" x="95.410156"/>
      </g>
     </g>
    </g>
    <g id="ytick_6">
     <g id="line2d_19">
      <path d="M 87.552 58.72673 
L 451.584 58.72673 
" clip-path="url(#p99d8a261fd)" style="fill: none; stroke: #b0b0b0; stroke-width: 0.8; stroke-linecap: square"/>
     </g>
     <g id="line2d_20">
      <g>
       <use xlink:href="#mc8d80d6bed" x="87.552" y="58.72673" style="stroke: #000000; stroke-width: 0.8"/>
      </g>
     </g>
     <g id="text_11">
      <!-- 0.5 -->
      <g transform="translate(48.74575 66.325167) scale(0.2 -0.2)">
       <defs>
        <path id="DejaVuSans-35" d="M 691 4666 
L 3169 4666 
L 3169 4134 
L 1269 4134 
L 1269 2991 
Q 1406 3038 1543 3061 
Q 1681 3084 1819 3084 
Q 2600 3084 3056 2656 
Q 3513 2228 3513 1497 
Q 3513 744 3044 326 
Q 2575 -91 1722 -91 
Q 1428 -91 1123 -41 
Q 819 9 494 109 
L 494 744 
Q 775 591 1075 516 
Q 1375 441 1709 441 
Q 2250 441 2565 725 
Q 2881 1009 2881 1497 
Q 2881 1984 2565 2268 
Q 2250 2553 1709 2553 
Q 1456 2553 1204 2497 
Q 953 2441 691 2322 
L 691 4666 
z
" transform="scale(0.015625)"/>
       </defs>
       <use xlink:href="#DejaVuSans-30"/>
       <use xlink:href="#DejaVuSans-2e" x="63.623047"/>
       <use xlink:href="#DejaVuSans-35" x="95.410156"/>
      </g>
     </g>
    </g>
    <g id="ytick_7">
     <g id="line2d_21">
      <path d="M 87.552 11.720076 
L 451.584 11.720076 
" clip-path="url(#p99d8a261fd)" style="fill: none; stroke: #b0b0b0; stroke-width: 0.8; stroke-linecap: square"/>
     </g>
     <g id="line2d_22">
      <g>
       <use xlink:href="#mc8d80d6bed" x="87.552" y="11.720076" style="stroke: #000000; stroke-width: 0.8"/>
      </g>
     </g>
     <g id="text_12">
      <!-- 0.6 -->
      <g transform="translate(48.74575 19.318513) scale(0.2 -0.2)">
       <defs>
        <path id="DejaVuSans-36" d="M 2113 2584 
Q 1688 2584 1439 2293 
Q 1191 2003 1191 1497 
Q 1191 994 1439 701 
Q 1688 409 2113 409 
Q 2538 409 2786 701 
Q 3034 994 3034 1497 
Q 3034 2003 2786 2293 
Q 2538 2584 2113 2584 
z
M 3366 4563 
L 3366 3988 
Q 3128 4100 2886 4159 
Q 2644 4219 2406 4219 
Q 1781 4219 1451 3797 
Q 1122 3375 1075 2522 
Q 1259 2794 1537 2939 
Q 1816 3084 2150 3084 
Q 2853 3084 3261 2657 
Q 3669 2231 3669 1497 
Q 3669 778 3244 343 
Q 2819 -91 2113 -91 
Q 1303 -91 875 529 
Q 447 1150 447 2328 
Q 447 3434 972 4092 
Q 1497 4750 2381 4750 
Q 2619 4750 2861 4703 
Q 3103 4656 3366 4563 
z
" transform="scale(0.015625)"/>
       </defs>
       <use xlink:href="#DejaVuSans-30"/>
       <use xlink:href="#DejaVuSans-2e" x="63.623047"/>
       <use xlink:href="#DejaVuSans-36" x="95.410156"/>
      </g>
     </g>
    </g>
    <g id="text_13">
     <!-- time[s] -->
     <g transform="translate(41.002313 182.380219) rotate(-90) scale(0.18 -0.18)">
      <defs>
       <path id="DejaVuSans-6d" d="M 3328 2828 
Q 3544 3216 3844 3400 
Q 4144 3584 4550 3584 
Q 5097 3584 5394 3201 
Q 5691 2819 5691 2113 
L 5691 0 
L 5113 0 
L 5113 2094 
Q 5113 2597 4934 2840 
Q 4756 3084 4391 3084 
Q 3944 3084 3684 2787 
Q 3425 2491 3425 1978 
L 3425 0 
L 2847 0 
L 2847 2094 
Q 2847 2600 2669 2842 
Q 2491 3084 2119 3084 
Q 1678 3084 1418 2786 
Q 1159 2488 1159 1978 
L 1159 0 
L 581 0 
L 581 3500 
L 1159 3500 
L 1159 2956 
Q 1356 3278 1631 3431 
Q 1906 3584 2284 3584 
Q 2666 3584 2933 3390 
Q 3200 3197 3328 2828 
z
" transform="scale(0.015625)"/>
       <path id="DejaVuSans-5b" d="M 550 4863 
L 1875 4863 
L 1875 4416 
L 1125 4416 
L 1125 -397 
L 1875 -397 
L 1875 -844 
L 550 -844 
L 550 4863 
z
" transform="scale(0.015625)"/>
       <path id="DejaVuSans-73" d="M 2834 3397 
L 2834 2853 
Q 2591 2978 2328 3040 
Q 2066 3103 1784 3103 
Q 1356 3103 1142 2972 
Q 928 2841 928 2578 
Q 928 2378 1081 2264 
Q 1234 2150 1697 2047 
L 1894 2003 
Q 2506 1872 2764 1633 
Q 3022 1394 3022 966 
Q 3022 478 2636 193 
Q 2250 -91 1575 -91 
Q 1294 -91 989 -36 
Q 684 19 347 128 
L 347 722 
Q 666 556 975 473 
Q 1284 391 1588 391 
Q 1994 391 2212 530 
Q 2431 669 2431 922 
Q 2431 1156 2273 1281 
Q 2116 1406 1581 1522 
L 1381 1569 
Q 847 1681 609 1914 
Q 372 2147 372 2553 
Q 372 3047 722 3315 
Q 1072 3584 1716 3584 
Q 2034 3584 2315 3537 
Q 2597 3491 2834 3397 
z
" transform="scale(0.015625)"/>
       <path id="DejaVuSans-5d" d="M 1947 4863 
L 1947 -844 
L 622 -844 
L 622 -397 
L 1369 -397 
L 1369 4416 
L 622 4416 
L 622 4863 
L 1947 4863 
z
" transform="scale(0.015625)"/>
      </defs>
      <use xlink:href="#DejaVuSans-74"/>
      <use xlink:href="#DejaVuSans-69" x="39.208984"/>
      <use xlink:href="#DejaVuSans-6d" x="66.992188"/>
      <use xlink:href="#DejaVuSans-65" x="164.404297"/>
      <use xlink:href="#DejaVuSans-5b" x="225.927734"/>
      <use xlink:href="#DejaVuSans-73" x="264.941406"/>
      <use xlink:href="#DejaVuSans-5d" x="317.041016"/>
     </g>
    </g>
   </g>
   <g id="patch_195">
    <path d="M 87.552 293.76 
L 87.552 6.912 
" style="fill: none; stroke: #000000; stroke-width: 0.8; stroke-linejoin: miter; stroke-linecap: square"/>
   </g>
   <g id="patch_196">
    <path d="M 451.584 293.76 
L 451.584 6.912 
" style="fill: none; stroke: #000000; stroke-width: 0.8; stroke-linejoin: miter; stroke-linecap: square"/>
   </g>
   <g id="patch_197">
    <path d="M 87.552 293.76 
L 451.584 293.76 
" style="fill: none; stroke: #000000; stroke-width: 0.8; stroke-linejoin: miter; stroke-linecap: square"/>
   </g>
   <g id="patch_198">
    <path d="M 87.552 6.912 
L 451.584 6.912 
" style="fill: none; stroke: #000000; stroke-width: 0.8; stroke-linejoin: miter; stroke-linecap: square"/>
   </g>
  </g>
 </g>
 <defs>
  <clipPath id="p99d8a261fd">
   <rect x="87.552" y="6.912" width="364.032" height="286.848"/>
  </clipPath>
 </defs>
</svg>
