<?xml version="1.0" encoding="utf-8" standalone="no"?>
<!DOCTYPE svg PUBLIC "-//W3C//DTD SVG 1.1//EN"
  "http://www.w3.org/Graphics/SVG/1.1/DTD/svg11.dtd">
<svg xmlns:xlink="http://www.w3.org/1999/xlink" width="864pt" height="360pt" viewBox="0 0 864 360" xmlns="http://www.w3.org/2000/svg" version="1.1">
 <metadata>
  <rdf:RDF xmlns:dc="http://purl.org/dc/elements/1.1/" xmlns:cc="http://creativecommons.org/ns#" xmlns:rdf="http://www.w3.org/1999/02/22-rdf-syntax-ns#">
   <cc:Work>
    <dc:type rdf:resource="http://purl.org/dc/dcmitype/StillImage"/>
    <dc:date>2024-02-15T19:57:28.433914</dc:date>
    <dc:format>image/svg+xml</dc:format>
    <dc:creator>
     <cc:Agent>
      <dc:title>Matplotlib v3.7.0, https://matplotlib.org/</dc:title>
     </cc:Agent>
    </dc:creator>
   </cc:Work>
  </rdf:RDF>
 </metadata>
 <defs>
  <style type="text/css">*{stroke-linejoin: round; stroke-linecap: butt}</style>
 </defs>
 <g id="figure_1">
  <g id="patch_1">
   <path d="M 0 360 
L 864 360 
L 864 0 
L 0 0 
L 0 360 
z
" style="fill: none"/>
  </g>
  <g id="axes_1">
   <g id="patch_2">
    <path d="M 66.36125 273.7575 
L 431.935625 273.7575 
L 431.935625 12.6 
L 66.36125 12.6 
L 66.36125 273.7575 
z
" style="fill: none"/>
   </g>
   <g id="matplotlib.axis_1">
    <g id="xtick_1">
     <g id="line2d_1">
      <defs>
       <path id="m3ab628d28b" d="M 0 0 
L 0 3.5 
" style="stroke: #000000; stroke-width: 0.8"/>
      </defs>
      <g>
       <use xlink:href="#m3ab628d28b" x="66.36125" y="273.7575" style="stroke: #000000; stroke-width: 0.8"/>
      </g>
     </g>
     <g id="text_1">
      <!-- 1 -->
      <g transform="translate(62.034375 290.9775) scale(0.14 -0.14)">
       <defs>
        <path id="IPAexMincho-31" d="M 3094 63 
L 913 63 
L 913 263 
Q 1441 263 1578 325 
Q 1797 419 1797 734 
L 1797 3825 
Q 1797 4166 1463 4166 
L 831 4166 
L 831 4344 
Q 1850 4453 2244 4763 
L 2244 734 
Q 2244 444 2438 338 
Q 2572 263 3094 263 
L 3094 63 
z
" transform="scale(0.015625)"/>
       </defs>
       <use xlink:href="#IPAexMincho-31"/>
      </g>
     </g>
    </g>
    <g id="xtick_2">
     <g id="line2d_2">
      <g>
       <use xlink:href="#m3ab628d28b" x="187.810455" y="273.7575" style="stroke: #000000; stroke-width: 0.8"/>
      </g>
     </g>
     <g id="text_2">
      <!-- 100 -->
      <g transform="translate(174.82983 290.9775) scale(0.14 -0.14)">
       <defs>
        <path id="IPAexMincho-30" d="M 1963 4734 
Q 2759 4734 3172 3991 
Q 3544 3344 3544 2316 
Q 3544 1288 3159 625 
Q 2747 -97 1981 -97 
Q 1213 -97 800 625 
Q 422 1294 422 2322 
Q 422 3744 1081 4375 
Q 1459 4734 1963 4734 
z
M 1988 4509 
Q 1528 4509 1247 4016 
Q 909 3406 909 2319 
Q 909 1409 1153 834 
Q 1447 138 1988 138 
Q 2544 138 2831 863 
Q 3056 1425 3056 2313 
Q 3056 3256 2813 3831 
Q 2528 4509 1988 4509 
z
" transform="scale(0.015625)"/>
       </defs>
       <use xlink:href="#IPAexMincho-31"/>
       <use xlink:href="#IPAexMincho-30" x="61.816406"/>
       <use xlink:href="#IPAexMincho-30" x="123.632812"/>
      </g>
     </g>
    </g>
    <g id="xtick_3">
     <g id="line2d_3">
      <g>
       <use xlink:href="#m3ab628d28b" x="310.48642" y="273.7575" style="stroke: #000000; stroke-width: 0.8"/>
      </g>
     </g>
     <g id="text_3">
      <!-- 200 -->
      <g transform="translate(297.505795 290.9775) scale(0.14 -0.14)">
       <defs>
        <path id="IPAexMincho-32" d="M 3500 1375 
L 3347 63 
L 538 63 
L 538 319 
Q 750 1231 1838 2119 
L 1941 2203 
Q 2463 2603 2634 2841 
Q 2878 3172 2878 3544 
Q 2878 4056 2547 4313 
Q 2303 4497 1963 4497 
Q 1419 4497 1172 4147 
Q 1041 3959 1031 3756 
Q 1338 3747 1338 3456 
Q 1338 3144 1031 3144 
Q 653 3144 653 3572 
Q 653 4006 1013 4363 
Q 1381 4734 1984 4734 
Q 2550 4734 2931 4441 
Q 3378 4097 3378 3513 
Q 3378 3109 3141 2778 
Q 2922 2463 2278 2047 
L 2100 1931 
Q 1059 1266 878 453 
L 2572 453 
Q 2969 453 3091 631 
Q 3206 784 3316 1375 
L 3500 1375 
z
" transform="scale(0.015625)"/>
       </defs>
       <use xlink:href="#IPAexMincho-32"/>
       <use xlink:href="#IPAexMincho-30" x="61.816406"/>
       <use xlink:href="#IPAexMincho-30" x="123.632812"/>
      </g>
     </g>
    </g>
    <g id="text_4">
     <!-- バッチ -->
     <g transform="translate(222.148438 310.52375) scale(0.18 -0.18)">
      <defs>
       <path id="IPAexMincho-30d0" d="M 397 800 
Q 994 1269 1359 1703 
Q 1719 2131 2003 2694 
Q 2216 3106 2216 3303 
Q 2216 3453 1881 3566 
L 1947 3725 
Q 2319 3703 2578 3553 
Q 2766 3447 2766 3359 
Q 2766 3284 2728 3231 
Q 2672 3159 2600 2988 
Q 2263 2194 1706 1597 
Q 1231 1088 531 647 
L 397 800 
z
M 3803 3781 
Q 4588 3272 5141 2491 
Q 5691 1719 5691 1281 
Q 5691 941 5466 941 
Q 5294 941 5216 1247 
Q 4875 2609 3681 3641 
L 3803 3781 
z
M 4519 4484 
Q 4934 4341 5166 4125 
Q 5369 3941 5369 3756 
Q 5369 3531 5178 3531 
Q 5047 3531 4966 3731 
Q 4816 4088 4422 4356 
L 4519 4484 
z
M 5106 4928 
Q 5516 4806 5766 4581 
Q 5978 4391 5978 4213 
Q 5978 3988 5794 3988 
Q 5669 3988 5575 4200 
Q 5431 4513 5013 4800 
L 5106 4928 
z
" transform="scale(0.015625)"/>
       <path id="IPAexMincho-30c3" d="M 1313 3119 
L 1453 3228 
Q 2216 2716 2216 2247 
Q 2216 1959 1978 1959 
Q 1875 1959 1828 2031 
Q 1791 2091 1753 2266 
Q 1672 2694 1313 3119 
z
M 2472 3425 
L 2613 3531 
Q 3016 3203 3172 2963 
Q 3316 2744 3316 2522 
Q 3316 2216 3059 2216 
Q 2969 2216 2928 2291 
Q 2891 2359 2856 2547 
Q 2775 2997 2472 3425 
z
M 2056 -213 
L 1959 -56 
Q 3034 591 3625 1291 
Q 4203 1975 4459 2853 
Q 4525 3075 4525 3175 
Q 4525 3294 4269 3413 
L 4328 3559 
Q 4666 3491 4863 3359 
Q 5044 3241 5044 3109 
Q 5044 3025 4994 2963 
Q 4922 2869 4866 2706 
Q 4350 1500 3684 850 
Q 3094 275 2056 -213 
z
" transform="scale(0.015625)"/>
       <path id="IPAexMincho-30c1" d="M 3591 4072 
Q 3591 3447 3559 2881 
L 4600 2953 
Q 4853 2969 5031 3056 
Q 5131 3106 5241 3106 
Q 5397 3106 5600 2991 
Q 5747 2913 5747 2772 
Q 5747 2638 5497 2638 
Q 5388 2638 5294 2644 
Q 5147 2650 4788 2650 
Q 4334 2650 3538 2606 
Q 3472 1522 2975 891 
Q 2525 284 1522 -134 
L 1428 34 
Q 2481 572 2872 1353 
Q 3084 1775 3156 2581 
Q 2203 2494 1606 2394 
L 1406 2350 
Q 1297 2325 1241 2325 
Q 1000 2325 678 2844 
L 800 2966 
Q 1000 2809 1131 2763 
Q 1247 2722 1416 2722 
Q 1488 2722 3169 2844 
Q 3188 3194 3188 3994 
Q 2028 3769 1247 3700 
L 1222 3894 
Q 3044 4169 3956 4538 
Q 4225 4650 4225 4725 
Q 4225 4809 4050 4928 
L 4209 5013 
Q 4741 4725 4741 4519 
Q 4741 4416 4509 4341 
Q 4178 4222 3591 4072 
z
" transform="scale(0.015625)"/>
      </defs>
      <use xlink:href="#IPAexMincho-30d0"/>
      <use xlink:href="#IPAexMincho-30c3" x="100"/>
      <use xlink:href="#IPAexMincho-30c1" x="200"/>
     </g>
    </g>
   </g>
   <g id="matplotlib.axis_2">
    <g id="ytick_1">
     <g id="line2d_4">
      <defs>
       <path id="mdc5ae68c6e" d="M 0 0 
L -3.5 0 
" style="stroke: #000000; stroke-width: 0.8"/>
      </defs>
      <g>
       <use xlink:href="#mdc5ae68c6e" x="66.36125" y="273.7575" style="stroke: #000000; stroke-width: 0.8"/>
      </g>
     </g>
     <g id="text_5">
      <!-- 0 -->
      <g transform="translate(50.7075 278.8675) scale(0.14 -0.14)">
       <use xlink:href="#IPAexMincho-30"/>
      </g>
     </g>
    </g>
    <g id="ytick_2">
     <g id="line2d_5">
      <g>
       <use xlink:href="#mdc5ae68c6e" x="66.36125" y="229.747136" style="stroke: #000000; stroke-width: 0.8"/>
      </g>
     </g>
     <g id="text_6">
      <!-- 100 -->
      <g transform="translate(33.4 234.857136) scale(0.14 -0.14)">
       <use xlink:href="#IPAexMincho-31"/>
       <use xlink:href="#IPAexMincho-30" x="61.816406"/>
       <use xlink:href="#IPAexMincho-30" x="123.632812"/>
      </g>
     </g>
    </g>
    <g id="ytick_3">
     <g id="line2d_6">
      <g>
       <use xlink:href="#mdc5ae68c6e" x="66.36125" y="185.736772" style="stroke: #000000; stroke-width: 0.8"/>
      </g>
     </g>
     <g id="text_7">
      <!-- 200 -->
      <g transform="translate(33.4 190.846772) scale(0.14 -0.14)">
       <use xlink:href="#IPAexMincho-32"/>
       <use xlink:href="#IPAexMincho-30" x="61.816406"/>
       <use xlink:href="#IPAexMincho-30" x="123.632812"/>
      </g>
     </g>
    </g>
    <g id="ytick_4">
     <g id="line2d_7">
      <g>
       <use xlink:href="#mdc5ae68c6e" x="66.36125" y="141.726408" style="stroke: #000000; stroke-width: 0.8"/>
      </g>
     </g>
     <g id="text_8">
      <!-- 300 -->
      <g transform="translate(33.4 146.836408) scale(0.14 -0.14)">
       <defs>
        <path id="IPAexMincho-33" d="M 2234 2425 
Q 3400 2194 3400 1234 
Q 3400 709 3034 344 
Q 2597 -103 1844 -103 
Q 1259 -103 853 216 
Q 488 503 488 900 
Q 488 1356 872 1356 
Q 1197 1356 1197 1034 
Q 1197 741 922 741 
Q 878 741 847 747 
Q 875 572 1019 425 
Q 1306 156 1794 156 
Q 2284 156 2606 478 
Q 2913 784 2913 1247 
Q 2913 1681 2625 1969 
Q 2313 2284 1769 2284 
L 1447 2284 
L 1447 2541 
L 1769 2541 
Q 2216 2541 2503 2828 
Q 2809 3134 2809 3603 
Q 2809 3981 2559 4222 
Q 2297 4484 1888 4484 
Q 1472 4484 1178 4247 
Q 1013 4119 956 3941 
Q 1256 3941 1256 3653 
Q 1256 3334 938 3334 
Q 584 3334 584 3744 
Q 584 4138 1019 4447 
Q 1419 4728 1934 4728 
Q 2600 4728 2972 4356 
Q 3278 4050 3278 3597 
Q 3278 2681 2234 2469 
L 2234 2425 
z
" transform="scale(0.015625)"/>
       </defs>
       <use xlink:href="#IPAexMincho-33"/>
       <use xlink:href="#IPAexMincho-30" x="61.816406"/>
       <use xlink:href="#IPAexMincho-30" x="123.632812"/>
      </g>
     </g>
    </g>
    <g id="ytick_5">
     <g id="line2d_8">
      <g>
       <use xlink:href="#mdc5ae68c6e" x="66.36125" y="97.716044" style="stroke: #000000; stroke-width: 0.8"/>
      </g>
     </g>
     <g id="text_9">
      <!-- 400 -->
      <g transform="translate(33.4 102.826044) scale(0.14 -0.14)">
       <defs>
        <path id="IPAexMincho-34" d="M 3703 1313 
L 2875 1313 
L 2875 741 
Q 2875 434 2997 350 
Q 3113 272 3509 241 
L 3509 63 
L 1775 63 
L 1775 241 
Q 2144 263 2269 319 
Q 2469 403 2469 741 
L 2469 1313 
L 266 1313 
L 266 1619 
L 2634 4647 
L 2875 4647 
L 2875 1588 
L 3703 1588 
L 3703 1313 
z
M 2469 1588 
L 2469 3994 
L 591 1588 
L 2469 1588 
z
" transform="scale(0.015625)"/>
       </defs>
       <use xlink:href="#IPAexMincho-34"/>
       <use xlink:href="#IPAexMincho-30" x="61.816406"/>
       <use xlink:href="#IPAexMincho-30" x="123.632812"/>
      </g>
     </g>
    </g>
    <g id="ytick_6">
     <g id="line2d_9">
      <g>
       <use xlink:href="#mdc5ae68c6e" x="66.36125" y="53.70568" style="stroke: #000000; stroke-width: 0.8"/>
      </g>
     </g>
     <g id="text_10">
      <!-- 500 -->
      <g transform="translate(33.4 58.81568) scale(0.14 -0.14)">
       <defs>
        <path id="IPAexMincho-35" d="M 1041 2553 
Q 1438 2950 2053 2950 
Q 2784 2950 3200 2419 
Q 3500 2019 3500 1503 
Q 3500 600 2866 159 
Q 2478 -103 1969 -103 
Q 1547 -103 1181 88 
Q 594 406 594 953 
Q 594 1369 984 1369 
Q 1309 1369 1309 1047 
Q 1309 925 1219 838 
Q 1131 747 1022 747 
Q 984 747 953 753 
Q 991 525 1253 350 
Q 1531 156 1919 156 
Q 2372 156 2659 444 
Q 3006 791 3006 1438 
Q 3006 1950 2769 2284 
Q 2469 2700 1969 2700 
Q 1288 2700 953 2003 
L 703 2034 
L 941 4575 
L 3294 4575 
L 3206 4178 
L 1209 4178 
L 1041 2553 
z
" transform="scale(0.015625)"/>
       </defs>
       <use xlink:href="#IPAexMincho-35"/>
       <use xlink:href="#IPAexMincho-30" x="61.816406"/>
       <use xlink:href="#IPAexMincho-30" x="123.632812"/>
      </g>
     </g>
    </g>
    <g id="text_11">
     <!-- 最集中クエリ数 -->
     <g transform="translate(26.30625 206.17875) rotate(-90) scale(0.18 -0.18)">
      <defs>
       <path id="IPAexMincho-6700" d="M 1731 4966 
L 4619 4966 
L 4869 5253 
Q 5253 4956 5253 4875 
Q 5253 4831 5194 4794 
L 5047 4691 
L 5047 3291 
L 4681 3291 
L 4681 3494 
L 1663 3494 
L 1663 3253 
L 1297 3253 
L 1297 5163 
Q 1444 5109 1731 4966 
z
M 1663 4806 
L 1663 4325 
L 4681 4325 
L 4681 4806 
L 1663 4806 
z
M 4681 3653 
L 4681 4166 
L 1663 4166 
L 1663 3653 
L 4681 3653 
z
M 3659 2100 
L 3288 2100 
L 3225 2259 
L 5169 2259 
L 5394 2516 
Q 5778 2209 5778 2125 
Q 5778 2078 5719 2050 
L 5553 1959 
Q 5263 1253 4850 706 
Q 5388 244 6150 -19 
Q 5944 -184 5863 -356 
Q 5116 -9 4650 438 
Q 4103 -131 3288 -466 
L 3194 -325 
Q 3869 31 4416 691 
Q 3966 1244 3659 2100 
z
M 3866 2100 
Q 4163 1397 4606 934 
Q 4984 1481 5197 2100 
L 3866 2100 
z
M 2750 488 
Q 2725 478 2659 469 
Q 1781 256 778 116 
Q 731 -103 656 -103 
Q 531 -103 406 456 
Q 913 475 1169 500 
L 1169 2809 
L 381 2809 
L 325 2969 
L 5278 2969 
L 5619 3372 
Q 5656 3334 5694 3309 
Q 5897 3156 6097 2938 
L 6016 2809 
L 3109 2809 
L 3109 -459 
L 2750 -459 
L 2750 488 
z
M 1528 2216 
L 2750 2216 
L 2750 2809 
L 1528 2809 
L 1528 2216 
z
M 2750 2053 
L 1528 2053 
L 1528 1434 
L 2750 1434 
L 2750 2053 
z
M 2750 1275 
L 1528 1275 
L 1528 531 
Q 2475 628 2750 678 
L 2750 1275 
z
" transform="scale(0.015625)"/>
       <path id="IPAexMincho-96c6" d="M 1266 3872 
Q 903 3447 466 3119 
L 363 3238 
Q 1241 4050 1694 5363 
Q 2259 5222 2259 5081 
Q 2259 4997 1981 4969 
Q 1853 4719 1719 4500 
L 3153 4500 
L 3175 4556 
Q 3325 4994 3397 5363 
Q 4013 5219 4013 5103 
Q 4013 5025 3744 4988 
Q 3534 4678 3366 4500 
L 4878 4500 
L 5172 4866 
Q 5372 4694 5575 4456 
L 5503 4341 
L 3438 4341 
L 3438 3781 
L 4603 3781 
L 4897 4116 
Q 5000 4038 5294 3744 
L 5222 3622 
L 3438 3622 
L 3438 3022 
L 4603 3022 
L 4909 3384 
Q 5128 3194 5300 2975 
L 5234 2859 
L 3438 2859 
L 3438 2222 
L 4941 2222 
L 5253 2603 
Q 5463 2431 5678 2191 
L 5600 2059 
L 1631 2059 
L 1631 1791 
L 1266 1791 
L 1266 3872 
z
M 1631 4341 
L 1631 3781 
L 3078 3781 
L 3078 4341 
L 1631 4341 
z
M 1631 2222 
L 3078 2222 
L 3078 2859 
L 1631 2859 
L 1631 2222 
z
M 1631 3022 
L 3078 3022 
L 3078 3622 
L 1631 3622 
L 1631 3022 
z
M 2791 1306 
L 403 1306 
L 331 1466 
L 3047 1466 
L 3047 2028 
Q 3656 1922 3656 1819 
Q 3656 1763 3425 1697 
L 3425 1466 
L 5288 1466 
L 5619 1856 
Q 5806 1716 6053 1428 
L 5984 1306 
L 3547 1306 
Q 4616 544 6131 219 
Q 5963 78 5838 -172 
Q 4384 322 3425 1184 
L 3425 -459 
L 3047 -459 
L 3047 1044 
Q 1922 113 372 -300 
L 275 -153 
Q 1859 375 2791 1306 
z
" transform="scale(0.015625)"/>
       <path id="IPAexMincho-4e2d" d="M 1272 3750 
L 2938 3750 
L 2938 5197 
Q 3616 5169 3616 5031 
Q 3616 4944 3328 4838 
L 3328 3750 
L 5063 3750 
L 5325 4075 
Q 5741 3738 5741 3647 
Q 5741 3600 5681 3572 
L 5503 3463 
L 5503 1238 
L 5119 1238 
L 5119 1672 
L 3328 1672 
L 3328 -459 
L 2938 -459 
L 2938 1672 
L 1216 1672 
L 1216 1147 
L 831 1147 
L 831 3969 
Q 1019 3891 1272 3750 
z
M 1216 3591 
L 1216 1831 
L 2938 1831 
L 2938 3591 
L 1216 3591 
z
M 5119 1831 
L 5119 3591 
L 3328 3591 
L 3328 1831 
L 5119 1831 
z
" transform="scale(0.015625)"/>
       <path id="IPAexMincho-30af" d="M 3103 3897 
Q 3666 3944 4409 4041 
Q 4591 4066 4691 4141 
Q 4769 4206 4838 4206 
Q 4900 4206 5078 4028 
Q 5278 3828 5278 3731 
Q 5278 3659 5181 3597 
Q 5056 3522 4931 3272 
Q 4263 1913 3375 1131 
Q 2531 388 1278 -44 
L 1197 122 
Q 2584 766 3400 1647 
Q 4172 2481 4709 3788 
L 2919 3622 
Q 2522 3075 2116 2703 
Q 1672 2294 1088 1959 
L 978 2119 
Q 2016 2894 2700 3928 
Q 2981 4356 2981 4525 
Q 2981 4669 2694 4781 
L 2750 4953 
Q 3113 4903 3331 4781 
Q 3519 4675 3519 4563 
Q 3519 4497 3463 4403 
Q 3269 4134 3103 3897 
z
" transform="scale(0.015625)"/>
       <path id="IPAexMincho-30a8" d="M 3372 3578 
L 3366 1281 
Q 3725 1297 4281 1325 
Q 4628 1341 4716 1344 
Q 4931 1353 5053 1409 
Q 5156 1453 5213 1453 
Q 5425 1453 5688 1300 
Q 5822 1216 5822 1100 
Q 5822 953 5656 953 
Q 5597 953 5559 959 
Q 4928 1019 4441 1019 
Q 3084 1019 1663 853 
Q 1453 828 1363 788 
Q 1266 750 1178 750 
Q 1025 750 844 925 
Q 681 1084 563 1325 
L 697 1447 
Q 888 1275 1056 1222 
Q 1209 1172 1472 1172 
Q 1850 1172 2988 1269 
L 2981 3531 
Q 2791 3516 2466 3484 
Q 2088 3447 2041 3444 
Q 2013 3441 1909 3431 
Q 1847 3425 1816 3425 
Q 1600 3425 1469 3541 
Q 1359 3638 1203 3909 
L 1350 4025 
Q 1522 3866 1669 3816 
Q 1797 3772 2022 3772 
Q 2197 3772 2747 3816 
Q 2984 3834 3847 3925 
Q 4225 3975 4391 4041 
Q 4566 4109 4703 4109 
Q 4875 4109 5028 4034 
Q 5191 3953 5191 3828 
Q 5191 3731 5119 3697 
Q 5063 3675 4934 3675 
Q 4594 3675 4238 3647 
Q 4163 3644 3838 3616 
Q 3556 3591 3372 3578 
z
" transform="scale(0.015625)"/>
       <path id="IPAexMincho-30ea" d="M 1675 4666 
Q 2025 4644 2241 4516 
Q 2413 4409 2413 4288 
Q 2413 4228 2388 4116 
Q 2353 3947 2353 3431 
L 2353 2516 
L 2363 2163 
Q 2363 1850 2106 1850 
Q 1906 1850 1906 2163 
Q 1906 2191 1916 2284 
Q 1925 2391 1931 2484 
Q 1981 3091 1981 3794 
Q 1981 4191 1919 4300 
Q 1834 4431 1625 4497 
L 1675 4666 
z
M 2213 13 
Q 3259 519 3691 1216 
Q 4109 1897 4109 2975 
L 4109 4116 
Q 4109 4522 4038 4641 
Q 3972 4766 3678 4844 
L 3719 5019 
Q 4222 5006 4422 4850 
Q 4550 4750 4550 4647 
Q 4550 4609 4538 4494 
Q 4519 4300 4519 4072 
Q 4519 2525 4447 2131 
Q 4297 1228 3719 672 
Q 3228 200 2309 -147 
L 2213 13 
z
" transform="scale(0.015625)"/>
       <path id="IPAexMincho-6570" d="M 1697 3944 
L 1697 5281 
Q 2275 5253 2275 5134 
Q 2275 5059 2044 4994 
L 2044 3944 
L 2794 3944 
L 3056 4303 
Q 3259 4084 3369 3913 
L 3297 3781 
L 2044 3781 
L 2044 3544 
Q 3075 3322 3075 2963 
Q 3075 2756 2897 2756 
Q 2800 2756 2703 2872 
Q 2444 3184 2044 3378 
L 2044 2444 
L 1697 2444 
L 1697 3416 
Q 1172 2853 391 2463 
L 297 2597 
Q 1100 3091 1581 3781 
L 391 3781 
L 341 3944 
L 1697 3944 
z
M 1081 897 
Q 1047 838 975 725 
Q 903 616 872 563 
L 563 703 
Q 881 1194 1119 1703 
L 325 1703 
L 263 1863 
L 1191 1863 
Q 1297 2103 1428 2456 
Q 1925 2294 1925 2194 
Q 1925 2128 1672 2100 
L 1575 1863 
L 2772 1863 
L 3016 2169 
Q 3247 1975 3391 1813 
L 3322 1703 
L 2766 1703 
Q 2763 1694 2756 1669 
Q 2744 1616 2741 1581 
Q 2613 1047 2338 628 
Q 2900 350 2900 122 
Q 2900 -63 2722 -63 
Q 2641 -63 2559 6 
Q 2341 216 2150 347 
Q 1609 -253 434 -447 
L 353 -300 
Q 1366 -69 1856 538 
Q 1478 753 1081 897 
z
M 1159 1031 
Q 1556 950 2028 769 
Q 2266 1175 2381 1703 
L 1503 1703 
Q 1359 1369 1159 1031 
z
M 4781 1209 
Q 5319 497 6203 0 
Q 6019 -163 5900 -372 
Q 5044 234 4588 900 
Q 3909 -22 2759 -450 
L 2663 -309 
Q 3781 250 4384 1228 
Q 3938 2006 3706 3294 
Q 3459 2759 3084 2303 
L 2950 2400 
Q 3613 3475 3891 5281 
Q 4481 5156 4481 5038 
Q 4481 4953 4219 4903 
Q 4097 4334 3963 3944 
L 5466 3944 
L 5753 4347 
Q 6003 4119 6175 3900 
L 6113 3781 
L 5453 3781 
L 5447 3703 
Q 5322 2203 4781 1209 
z
M 4563 1534 
Q 4966 2484 5050 3709 
L 5056 3781 
L 3903 3781 
Q 3900 3766 3878 3713 
Q 3850 3641 3841 3616 
Q 4081 2328 4563 1534 
z
M 609 5088 
Q 1294 4694 1294 4316 
Q 1294 4078 1075 4078 
Q 938 4078 891 4294 
Q 825 4628 500 4972 
L 609 5088 
z
M 2316 4128 
Q 2606 4578 2803 5119 
Q 3278 4916 3278 4800 
Q 3278 4716 3028 4716 
Q 2838 4438 2431 4050 
L 2316 4128 
z
" transform="scale(0.015625)"/>
      </defs>
      <use xlink:href="#IPAexMincho-6700"/>
      <use xlink:href="#IPAexMincho-96c6" x="100"/>
      <use xlink:href="#IPAexMincho-4e2d" x="200"/>
      <use xlink:href="#IPAexMincho-30af" x="300"/>
      <use xlink:href="#IPAexMincho-30a8" x="400"/>
      <use xlink:href="#IPAexMincho-30ea" x="500"/>
      <use xlink:href="#IPAexMincho-6570" x="600"/>
     </g>
    </g>
   </g>
   <g id="line2d_10">
    <path d="M 66.36125 35.221327 
L 67.58801 80.552002 
L 68.814769 87.153557 
L 70.041529 99.476459 
L 71.268289 105.63791 
L 72.495048 93.315008 
L 73.721808 97.27594 
L 74.948568 110.47905 
L 76.175327 109.598842 
L 77.402087 117.520708 
L 78.628846 114.880086 
L 79.855606 114.439982 
L 81.082366 125.882677 
L 82.309125 116.200397 
L 83.535885 113.999879 
L 84.762645 122.361848 
L 85.989404 114.880086 
L 87.216164 114.880086 
L 88.442924 112.679568 
L 89.669683 125.442573 
L 90.896443 106.078013 
L 92.123203 119.721226 
L 93.349962 114.880086 
L 94.576722 115.760293 
L 95.803482 121.041537 
L 97.030241 121.481641 
L 98.257001 108.718635 
L 99.48376 105.63791 
L 100.71052 104.757702 
L 101.93728 120.16133 
L 103.164039 112.679568 
L 104.390799 108.278531 
L 105.617559 108.278531 
L 106.844318 114.439982 
L 108.071078 115.32019 
L 109.297838 108.718635 
L 110.524597 108.278531 
L 111.751357 122.801951 
L 112.978117 111.79936 
L 114.204876 108.718635 
L 115.431636 125.00247 
L 116.658396 117.080604 
L 117.885155 123.242055 
L 119.111915 117.080604 
L 120.338674 115.32019 
L 121.565434 121.921744 
L 122.792194 124.562366 
L 124.018953 98.156148 
L 125.245713 113.119671 
L 126.472473 110.919153 
L 127.699232 112.679568 
L 128.925992 111.79936 
L 130.152752 123.682159 
L 132.606271 114.439982 
L 133.833031 113.119671 
L 135.05979 120.16133 
L 136.28655 119.281122 
L 137.51331 125.00247 
L 138.740069 127.643092 
L 139.966829 118.400915 
L 141.193589 115.760293 
L 142.420348 121.921744 
L 143.647108 117.080604 
L 144.873867 115.760293 
L 147.327387 113.999879 
L 148.554146 114.439982 
L 149.780906 128.523299 
L 151.007666 132.924335 
L 152.234425 127.643092 
L 153.461185 126.322781 
L 154.687945 112.239464 
L 155.914704 125.00247 
L 157.141464 130.723817 
L 158.368224 127.202988 
L 159.594983 117.080604 
L 160.821743 108.718635 
L 162.048503 114.439982 
L 163.275262 125.00247 
L 164.502022 119.721226 
L 165.728781 122.801951 
L 166.955541 110.919153 
L 168.182301 130.723817 
L 169.40906 109.598842 
L 170.63582 122.361848 
L 171.86258 124.562366 
L 173.089339 124.562366 
L 174.316099 127.202988 
L 175.542859 128.083195 
L 177.996378 118.400915 
L 179.223138 127.202988 
L 180.449897 113.559775 
L 181.676657 122.361848 
L 182.903417 114.439982 
L 184.130176 123.682159 
L 185.356936 107.838428 
L 186.583695 125.882677 
L 187.810455 122.361848 
L 189.037215 113.999879 
L 190.263974 108.718635 
L 191.490734 127.202988 
L 192.717494 122.801951 
L 193.944253 117.960811 
L 195.171013 118.841019 
L 196.397773 121.041537 
L 197.624532 121.481641 
L 198.851292 117.080604 
L 200.078052 114.439982 
L 201.304811 113.119671 
L 202.531571 125.00247 
L 203.758331 118.400915 
L 204.98509 112.679568 
L 206.21185 112.679568 
L 207.438609 121.921744 
L 208.665369 123.242055 
L 209.892129 129.403506 
L 211.118888 126.322781 
L 212.345648 118.841019 
L 213.572408 126.762884 
L 214.799167 123.242055 
L 216.025927 136.445164 
L 217.252687 110.47905 
L 218.479446 125.882677 
L 219.706206 125.442573 
L 220.932966 131.163921 
L 222.159725 116.200397 
L 223.386485 127.202988 
L 224.613245 112.679568 
L 225.840004 117.960811 
L 227.066764 128.523299 
L 228.293523 119.281122 
L 229.520283 115.760293 
L 230.747043 131.163921 
L 231.973802 123.242055 
L 233.200562 127.643092 
L 234.427322 123.682159 
L 235.654081 124.122262 
L 236.880841 110.038946 
L 238.107601 124.562366 
L 239.33436 122.801951 
L 240.56112 119.281122 
L 241.78788 107.398324 
L 243.014639 120.16133 
L 244.241399 118.841019 
L 245.468159 112.679568 
L 246.694918 115.32019 
L 247.921678 112.239464 
L 249.148438 121.921744 
L 251.601957 121.921744 
L 252.828716 114.880086 
L 254.055476 131.163921 
L 255.282236 133.364439 
L 256.508995 128.963402 
L 257.735755 128.083195 
L 258.962515 106.95822 
L 260.189274 128.083195 
L 261.416034 113.559775 
L 262.642794 107.838428 
L 263.869553 120.16133 
L 265.096313 116.200397 
L 266.323073 121.921744 
L 267.549832 124.562366 
L 268.776592 129.84361 
L 270.003352 127.202988 
L 271.230111 125.00247 
L 272.456871 121.481641 
L 273.68363 115.32019 
L 274.91039 122.801951 
L 276.13715 125.442573 
L 277.363909 130.283713 
L 278.590669 117.960811 
L 279.817429 116.640501 
L 281.044188 126.322781 
L 282.270948 120.16133 
L 283.497708 125.00247 
L 284.724467 109.598842 
L 285.951227 117.080604 
L 287.177987 116.640501 
L 288.404746 121.481641 
L 289.631506 119.281122 
L 290.858266 105.63791 
L 292.085025 129.84361 
L 293.311785 112.679568 
L 294.538544 116.640501 
L 295.765304 121.481641 
L 296.992064 113.559775 
L 298.218823 131.163921 
L 299.445583 128.523299 
L 300.672343 128.963402 
L 301.899102 124.562366 
L 303.125862 105.197806 
L 304.352622 112.239464 
L 305.579381 120.601433 
L 306.806141 114.439982 
L 308.032901 111.79936 
L 309.25966 127.202988 
L 310.48642 112.679568 
L 311.71318 110.47905 
L 312.939939 127.643092 
L 314.166699 125.00247 
L 315.393458 119.721226 
L 316.620218 122.361848 
L 317.846978 122.801951 
L 319.073737 125.882677 
L 320.300497 116.200397 
L 322.754016 123.242055 
L 323.980776 124.122262 
L 326.434295 130.283713 
L 327.661055 120.16133 
L 328.887815 125.882677 
L 330.114574 107.398324 
L 331.341334 120.601433 
L 332.568094 119.281122 
L 333.794853 129.403506 
L 335.021613 115.32019 
L 336.248372 124.122262 
L 337.475132 127.202988 
L 338.701892 115.760293 
L 339.928651 126.322781 
L 341.155411 119.281122 
L 342.382171 120.601433 
L 343.60893 122.801951 
L 344.83569 114.880086 
L 346.06245 116.640501 
L 347.289209 121.041537 
L 348.515969 123.682159 
L 349.742729 118.841019 
L 350.969488 121.041537 
L 352.196248 121.041537 
L 354.649767 117.520708 
L 355.876527 122.801951 
L 357.103286 113.119671 
L 358.330046 128.963402 
L 359.556806 125.882677 
L 360.783565 107.838428 
L 362.010325 125.442573 
L 363.237085 105.63791 
L 364.463844 118.400915 
L 365.690604 132.924335 
L 366.917364 117.080604 
L 368.144123 125.00247 
L 369.370883 121.481641 
L 370.597643 101.236873 
L 371.824402 125.882677 
L 373.051162 130.283713 
L 374.277922 121.041537 
L 375.504681 110.47905 
L 376.731441 127.643092 
L 377.958201 117.520708 
L 379.18496 123.242055 
L 380.41172 121.481641 
L 381.638479 114.880086 
L 382.865239 120.16133 
L 384.091999 114.880086 
L 385.318758 114.880086 
L 386.545518 120.601433 
L 387.772278 128.523299 
L 388.999037 118.400915 
L 390.225797 119.281122 
L 391.452557 121.921744 
L 392.679316 113.559775 
L 393.906076 116.200397 
L 395.132836 124.562366 
L 396.359595 120.16133 
L 397.586355 107.838428 
L 398.813115 115.760293 
L 400.039874 117.960811 
L 401.266634 123.242055 
L 402.493393 120.601433 
L 403.720153 120.601433 
L 404.946913 131.163921 
L 406.173672 115.32019 
L 407.400432 126.762884 
L 408.627192 121.481641 
L 411.080711 125.00247 
L 412.307471 113.559775 
L 413.53423 113.559775 
L 414.76099 116.640501 
L 415.98775 108.718635 
L 417.214509 110.919153 
L 418.441269 114.439982 
L 419.668029 131.604024 
L 420.894788 117.960811 
L 422.121548 110.47905 
L 423.348307 127.202988 
L 424.575067 126.762884 
L 425.801827 121.041537 
L 427.028586 116.640501 
L 428.255346 113.999879 
L 429.482106 119.281122 
L 430.708865 120.601433 
L 431.935625 123.242055 
L 433.162385 130.723817 
L 434.389144 120.16133 
L 435.615904 132.924335 
L 436.842664 122.361848 
L 438.069423 119.721226 
L 439.296183 125.442573 
L 440.522943 132.044128 
L 441.749702 125.442573 
L 442.976462 117.520708 
L 444.203221 121.921744 
L 445.429981 125.442573 
L 446.656741 122.361848 
L 447.8835 128.083195 
L 449.11026 122.361848 
L 450.33702 120.16133 
L 452.790539 132.924335 
L 454.017299 122.361848 
L 455.244058 120.16133 
L 456.470818 124.562366 
L 457.697578 121.041537 
L 458.924337 102.557184 
L 460.151097 118.841019 
L 461.377857 120.601433 
L 462.604616 126.762884 
L 463.831376 117.520708 
L 465.058135 127.202988 
L 466.284895 123.682159 
L 467.511655 125.442573 
L 468.738414 122.361848 
L 469.965174 122.361848 
L 471.191934 115.760293 
L 472.418693 118.400915 
L 473.645453 122.361848 
L 474.872213 120.16133 
L 476.098972 116.640501 
L 477.325732 115.32019 
L 478.552492 121.921744 
L 479.779251 119.721226 
L 481.006011 117.960811 
L 482.232771 123.242055 
L 483.45953 123.242055 
L 484.68629 113.999879 
L 485.913049 118.841019 
L 487.139809 125.00247 
L 488.366569 111.79936 
L 489.593328 121.921744 
L 490.820088 130.283713 
L 492.046848 120.16133 
L 493.273607 127.643092 
L 494.500367 123.682159 
L 495.727127 129.84361 
L 496.953886 117.520708 
L 498.180646 122.801951 
L 499.407406 120.601433 
L 500.634165 122.361848 
L 501.860925 116.200397 
L 503.087685 120.601433 
L 504.314444 123.242055 
L 505.541204 108.278531 
L 506.767964 117.960811 
L 507.994723 124.122262 
L 509.221483 120.16133 
L 510.448242 123.242055 
L 511.675002 111.359257 
L 512.901762 122.361848 
L 514.128521 121.921744 
L 516.582041 119.281122 
L 517.8088 123.242055 
L 519.03556 107.838428 
L 520.26232 125.00247 
L 521.489079 113.999879 
L 522.715839 128.963402 
L 523.942599 116.200397 
L 525.169358 124.122262 
L 526.396118 116.640501 
L 527.622878 116.200397 
L 528.849637 122.361848 
L 530.076397 121.921744 
L 531.303156 117.520708 
L 532.529916 107.398324 
L 533.756676 116.200397 
L 534.983435 129.84361 
L 536.210195 129.403506 
L 537.436955 126.322781 
L 538.663714 127.202988 
L 539.890474 118.400915 
L 541.117234 125.00247 
L 542.343993 127.643092 
L 543.570753 134.244646 
L 544.797513 118.400915 
L 546.024272 129.403506 
L 548.477792 120.601433 
L 549.704551 118.841019 
L 550.931311 112.679568 
L 552.15807 117.960811 
L 553.38483 125.442573 
L 554.61159 124.562366 
L 555.838349 120.16133 
L 557.065109 123.242055 
L 558.291869 124.122262 
L 559.518628 117.960811 
L 560.745388 119.721226 
L 561.972148 115.760293 
L 563.198907 120.601433 
L 564.425667 114.439982 
L 565.652427 132.044128 
L 566.879186 122.361848 
L 568.105946 126.322781 
L 569.332706 112.239464 
L 570.559465 117.080604 
L 571.786225 108.278531 
L 573.012984 112.239464 
L 574.239744 115.32019 
L 575.466504 123.682159 
L 576.693263 130.723817 
L 579.146783 113.999879 
L 580.373542 110.038946 
L 581.600302 123.242055 
L 582.827062 117.960811 
L 584.053821 114.439982 
L 585.280581 133.804542 
L 586.507341 115.32019 
L 587.7341 130.283713 
L 588.96086 105.197806 
L 590.18762 117.080604 
L 591.414379 126.762884 
L 592.641139 109.158739 
L 593.867898 125.882677 
L 595.094658 129.84361 
L 596.321418 123.242055 
L 597.548177 124.562366 
L 598.774937 112.239464 
L 600.001697 125.442573 
L 601.228456 120.601433 
L 602.455216 118.400915 
L 603.681976 116.640501 
L 604.908735 118.400915 
L 606.135495 115.32019 
L 607.362255 126.762884 
L 608.589014 128.523299 
L 609.815774 121.041537 
L 611.042534 128.963402 
L 612.269293 125.882677 
L 613.496053 115.760293 
L 614.722813 123.242055 
L 615.949572 118.841019 
L 617.176332 118.841019 
L 618.403091 122.361848 
L 619.629851 120.16133 
L 620.856611 120.16133 
L 622.08337 122.801951 
L 623.31013 98.596251 
L 624.53689 120.601433 
L 625.763649 122.801951 
L 626.990409 118.841019 
L 628.217169 111.79936 
L 629.443928 117.520708 
L 630.670688 128.963402 
L 631.897448 104.317599 
L 633.124207 103.437391 
L 634.350967 126.322781 
L 635.577727 125.442573 
L 636.804486 118.400915 
L 638.031246 122.801951 
L 639.258005 121.921744 
L 640.484765 115.32019 
L 641.711525 120.16133 
L 642.938284 115.32019 
L 644.165044 120.601433 
L 645.391804 110.47905 
L 646.618563 119.721226 
L 649.072083 122.361848 
L 650.298842 121.481641 
L 651.525602 123.242055 
L 652.752362 119.281122 
L 653.979121 111.79936 
L 655.205881 127.643092 
L 656.432641 120.16133 
L 657.6594 125.882677 
L 658.88616 113.119671 
L 660.112919 128.963402 
L 661.339679 119.721226 
L 662.566439 119.721226 
L 663.793198 116.640501 
L 665.019958 117.520708 
L 666.246718 116.200397 
L 667.473477 115.32019 
L 668.700237 113.999879 
L 669.926997 121.041537 
L 672.380516 114.880086 
L 673.607276 127.643092 
L 674.834035 126.762884 
L 676.060795 122.801951 
L 676.060795 122.801951 
" clip-path="url(#p3c2bedc592)" style="fill: none; stroke: #1f77b4; stroke-width: 1.5; stroke-linecap: square"/>
   </g>
   <g id="line2d_11">
    <path d="M 66.36125 18.497389 
L 67.58801 44.903607 
L 68.814769 37.861949 
L 70.041529 37.861949 
L 71.268289 36.101534 
L 72.495048 47.104125 
L 73.721808 59.867131 
L 74.948568 79.231691 
L 76.175327 83.632728 
L 77.402087 91.554593 
L 78.628846 72.190033 
L 79.855606 87.153557 
L 81.082366 88.913971 
L 82.309125 94.195215 
L 83.535885 87.59366 
L 84.762645 104.757702 
L 85.989404 97.27594 
L 87.216164 100.796769 
L 88.442924 87.153557 
L 89.669683 97.27594 
L 90.896443 95.955629 
L 92.123203 97.716044 
L 93.349962 105.63791 
L 94.576722 102.11708 
L 95.803482 93.755111 
L 97.030241 103.437391 
L 98.257001 100.356666 
L 99.48376 96.395733 
L 100.71052 97.716044 
L 101.93728 109.158739 
L 103.164039 103.437391 
L 104.390799 95.515526 
L 105.617559 100.796769 
L 106.844318 99.036355 
L 108.071078 104.317599 
L 109.297838 96.395733 
L 111.751357 107.398324 
L 112.978117 109.158739 
L 114.204876 102.11708 
L 115.431636 109.158739 
L 116.658396 101.676977 
L 117.885155 98.596251 
L 119.111915 102.997288 
L 120.338674 107.838428 
L 121.565434 104.757702 
L 122.792194 109.158739 
L 124.018953 92.4348 
L 125.245713 100.796769 
L 126.472473 101.236873 
L 127.699232 105.197806 
L 128.925992 91.554593 
L 130.152752 114.439982 
L 131.379511 103.877495 
L 132.606271 105.63791 
L 133.833031 106.95822 
L 135.05979 106.518117 
L 136.28655 99.476459 
L 137.51331 106.078013 
L 138.740069 109.598842 
L 139.966829 102.997288 
L 141.193589 107.838428 
L 142.420348 111.79936 
L 143.647108 100.356666 
L 144.873867 105.63791 
L 146.100627 102.557184 
L 147.327387 94.635319 
L 148.554146 110.47905 
L 149.780906 114.880086 
L 151.007666 110.919153 
L 152.234425 108.718635 
L 153.461185 107.838428 
L 154.687945 102.557184 
L 155.914704 111.79936 
L 157.141464 107.398324 
L 158.368224 105.63791 
L 159.594983 104.317599 
L 160.821743 99.036355 
L 162.048503 108.278531 
L 163.275262 101.236873 
L 164.502022 104.317599 
L 165.728781 107.838428 
L 166.955541 104.757702 
L 168.182301 108.278531 
L 169.40906 100.796769 
L 170.63582 95.955629 
L 171.86258 112.679568 
L 173.089339 100.796769 
L 174.316099 100.356666 
L 175.542859 106.518117 
L 176.769618 97.27594 
L 177.996378 111.79936 
L 179.223138 116.640501 
L 180.449897 103.877495 
L 181.676657 105.63791 
L 182.903417 105.63791 
L 184.130176 94.635319 
L 186.583695 106.078013 
L 187.810455 110.919153 
L 189.037215 107.838428 
L 190.263974 97.716044 
L 191.490734 110.919153 
L 192.717494 106.95822 
L 193.944253 114.880086 
L 195.171013 105.63791 
L 196.397773 102.557184 
L 197.624532 107.838428 
L 198.851292 110.919153 
L 200.078052 103.437391 
L 201.304811 109.158739 
L 202.531571 110.038946 
L 203.758331 103.877495 
L 204.98509 103.437391 
L 206.21185 102.11708 
L 207.438609 103.877495 
L 208.665369 114.439982 
L 209.892129 109.158739 
L 211.118888 104.757702 
L 212.345648 97.716044 
L 213.572408 115.32019 
L 214.799167 94.195215 
L 216.025927 108.718635 
L 217.252687 105.63791 
L 218.479446 113.119671 
L 219.706206 114.880086 
L 220.932966 116.200397 
L 222.159725 99.036355 
L 223.386485 110.919153 
L 224.613245 98.156148 
L 225.840004 110.038946 
L 227.066764 118.841019 
L 228.293523 97.27594 
L 229.520283 112.239464 
L 231.973802 99.476459 
L 233.200562 104.757702 
L 234.427322 102.997288 
L 235.654081 116.200397 
L 236.880841 99.036355 
L 238.107601 114.439982 
L 239.33436 115.32019 
L 240.56112 119.281122 
L 241.78788 100.356666 
L 243.014639 107.838428 
L 244.241399 102.997288 
L 246.694918 112.239464 
L 247.921678 93.755111 
L 249.148438 112.239464 
L 251.601957 113.999879 
L 252.828716 99.036355 
L 254.055476 121.041537 
L 255.282236 120.601433 
L 256.508995 109.158739 
L 257.735755 112.679568 
L 258.962515 97.716044 
L 260.189274 116.640501 
L 261.416034 106.518117 
L 262.642794 106.95822 
L 263.869553 110.47905 
L 265.096313 104.757702 
L 266.323073 107.838428 
L 267.549832 113.559775 
L 268.776592 114.439982 
L 270.003352 109.598842 
L 271.230111 103.437391 
L 272.456871 103.877495 
L 273.68363 115.32019 
L 274.91039 107.838428 
L 276.13715 105.63791 
L 277.363909 118.841019 
L 278.590669 114.880086 
L 279.817429 116.640501 
L 281.044188 113.999879 
L 282.270948 107.398324 
L 283.497708 117.080604 
L 284.724467 109.598842 
L 285.951227 99.476459 
L 287.177987 112.679568 
L 288.404746 107.838428 
L 289.631506 106.078013 
L 290.858266 100.796769 
L 292.085025 110.919153 
L 293.311785 97.716044 
L 294.538544 106.078013 
L 295.765304 112.239464 
L 296.992064 113.559775 
L 298.218823 119.721226 
L 299.445583 110.919153 
L 300.672343 109.158739 
L 301.899102 110.47905 
L 303.125862 95.515526 
L 304.352622 106.95822 
L 305.579381 112.239464 
L 306.806141 114.439982 
L 308.032901 111.79936 
L 309.25966 121.921744 
L 310.48642 112.679568 
L 311.71318 117.520708 
L 312.939939 112.239464 
L 314.166699 104.757702 
L 315.393458 99.476459 
L 316.620218 114.880086 
L 317.846978 108.278531 
L 319.073737 112.239464 
L 320.300497 99.036355 
L 321.527257 103.877495 
L 322.754016 106.518117 
L 323.980776 114.439982 
L 325.207536 117.080604 
L 326.434295 110.038946 
L 327.661055 117.520708 
L 328.887815 102.557184 
L 330.114574 107.398324 
L 331.341334 113.999879 
L 332.568094 108.278531 
L 333.794853 116.200397 
L 335.021613 113.999879 
L 336.248372 119.281122 
L 337.475132 110.919153 
L 338.701892 101.676977 
L 339.928651 108.718635 
L 341.155411 117.080604 
L 342.382171 111.79936 
L 343.60893 110.919153 
L 344.83569 103.877495 
L 346.06245 110.038946 
L 347.289209 106.078013 
L 348.515969 113.999879 
L 349.742729 113.559775 
L 350.969488 110.47905 
L 352.196248 102.11708 
L 353.423008 106.078013 
L 354.649767 103.877495 
L 355.876527 112.239464 
L 357.103286 105.197806 
L 358.330046 113.119671 
L 359.556806 112.239464 
L 360.783565 106.95822 
L 362.010325 119.721226 
L 363.237085 105.63791 
L 364.463844 113.119671 
L 365.690604 115.32019 
L 366.917364 101.676977 
L 368.144123 124.562366 
L 369.370883 114.880086 
L 370.597643 101.676977 
L 371.824402 107.398324 
L 373.051162 109.158739 
L 374.277922 113.999879 
L 375.504681 110.47905 
L 376.731441 117.080604 
L 377.958201 113.119671 
L 379.18496 110.038946 
L 380.41172 117.080604 
L 381.638479 96.835837 
L 382.865239 114.439982 
L 384.091999 105.197806 
L 385.318758 105.63791 
L 386.545518 114.880086 
L 387.772278 107.838428 
L 388.999037 99.476459 
L 390.225797 104.317599 
L 391.452557 116.200397 
L 392.679316 104.757702 
L 393.906076 114.439982 
L 395.132836 111.79936 
L 396.359595 111.79936 
L 397.586355 100.356666 
L 398.813115 115.760293 
L 400.039874 109.598842 
L 401.266634 112.239464 
L 402.493393 99.476459 
L 403.720153 113.559775 
L 404.946913 126.322781 
L 406.173672 111.79936 
L 407.400432 116.200397 
L 408.627192 123.242055 
L 409.853951 105.63791 
L 411.080711 112.679568 
L 412.307471 99.036355 
L 413.53423 114.880086 
L 414.76099 107.838428 
L 415.98775 97.27594 
L 417.214509 105.197806 
L 418.441269 114.439982 
L 419.668029 112.239464 
L 420.894788 98.156148 
L 422.121548 102.997288 
L 423.348307 111.79936 
L 424.575067 108.718635 
L 425.801827 109.598842 
L 427.028586 109.158739 
L 428.255346 104.757702 
L 429.482106 117.080604 
L 430.708865 107.838428 
L 431.935625 119.721226 
L 433.162385 110.919153 
L 434.389144 107.838428 
L 435.615904 125.442573 
L 436.842664 116.640501 
L 438.069423 116.640501 
L 439.296183 113.119671 
L 440.522943 115.760293 
L 441.749702 108.278531 
L 442.976462 117.080604 
L 444.203221 109.158739 
L 445.429981 114.880086 
L 446.656741 111.359257 
L 447.8835 106.95822 
L 449.11026 116.200397 
L 450.33702 109.598842 
L 451.563779 105.63791 
L 452.790539 115.760293 
L 454.017299 113.999879 
L 455.244058 106.078013 
L 456.470818 116.640501 
L 457.697578 101.676977 
L 458.924337 96.395733 
L 460.151097 108.278531 
L 461.377857 109.598842 
L 462.604616 112.239464 
L 463.831376 113.119671 
L 465.058135 120.601433 
L 466.284895 122.801951 
L 467.511655 102.11708 
L 468.738414 108.718635 
L 469.965174 113.119671 
L 471.191934 105.63791 
L 473.645453 101.236873 
L 474.872213 112.679568 
L 476.098972 115.760293 
L 477.325732 104.757702 
L 478.552492 115.32019 
L 479.779251 112.679568 
L 481.006011 102.11708 
L 482.232771 119.721226 
L 483.45953 107.398324 
L 484.68629 102.11708 
L 485.913049 109.598842 
L 487.139809 105.197806 
L 488.366569 104.757702 
L 489.593328 106.078013 
L 490.820088 115.32019 
L 492.046848 100.796769 
L 493.273607 115.760293 
L 494.500367 110.47905 
L 495.727127 106.95822 
L 496.953886 102.11708 
L 498.180646 110.919153 
L 499.407406 120.601433 
L 500.634165 110.038946 
L 501.860925 110.47905 
L 503.087685 112.239464 
L 504.314444 109.598842 
L 505.541204 106.518117 
L 506.767964 108.718635 
L 507.994723 124.122262 
L 509.221483 115.760293 
L 510.448242 108.278531 
L 511.675002 106.95822 
L 512.901762 117.520708 
L 514.128521 111.359257 
L 515.355281 113.559775 
L 516.582041 106.078013 
L 519.03556 99.916562 
L 520.26232 110.47905 
L 521.489079 113.999879 
L 522.715839 123.682159 
L 523.942599 115.760293 
L 525.169358 113.999879 
L 526.396118 107.838428 
L 527.622878 116.200397 
L 528.849637 111.359257 
L 530.076397 109.158739 
L 532.529916 105.63791 
L 533.756676 109.598842 
L 534.983435 112.679568 
L 536.210195 116.200397 
L 537.436955 126.322781 
L 538.663714 113.559775 
L 539.890474 114.880086 
L 541.117234 102.557184 
L 542.343993 114.439982 
L 543.570753 119.281122 
L 544.797513 104.757702 
L 546.024272 116.640501 
L 547.251032 107.398324 
L 548.477792 117.960811 
L 549.704551 106.518117 
L 550.931311 102.557184 
L 552.15807 106.078013 
L 553.38483 98.156148 
L 554.61159 114.439982 
L 555.838349 116.200397 
L 557.065109 118.841019 
L 558.291869 114.880086 
L 559.518628 104.317599 
L 560.745388 116.200397 
L 561.972148 115.760293 
L 563.198907 102.11708 
L 564.425667 106.518117 
L 565.652427 119.281122 
L 566.879186 111.359257 
L 568.105946 112.239464 
L 569.332706 103.877495 
L 570.559465 96.835837 
L 571.786225 102.11708 
L 573.012984 95.955629 
L 574.239744 109.158739 
L 575.466504 118.400915 
L 576.693263 118.841019 
L 577.920023 109.158739 
L 579.146783 95.515526 
L 580.373542 110.038946 
L 581.600302 110.47905 
L 582.827062 111.359257 
L 585.280581 114.880086 
L 586.507341 100.356666 
L 587.7341 113.999879 
L 588.96086 101.676977 
L 590.18762 110.919153 
L 591.414379 126.762884 
L 592.641139 106.518117 
L 593.867898 111.79936 
L 595.094658 112.239464 
L 596.321418 113.119671 
L 597.548177 105.197806 
L 598.774937 112.239464 
L 600.001697 110.919153 
L 601.228456 105.63791 
L 602.455216 106.078013 
L 603.681976 115.32019 
L 604.908735 117.080604 
L 606.135495 103.437391 
L 608.589014 117.960811 
L 609.815774 113.119671 
L 611.042534 113.119671 
L 612.269293 111.79936 
L 613.496053 107.838428 
L 614.722813 106.95822 
L 615.949572 124.122262 
L 617.176332 111.359257 
L 618.403091 109.158739 
L 619.629851 116.640501 
L 620.856611 108.718635 
L 622.08337 115.760293 
L 623.31013 98.596251 
L 624.53689 108.718635 
L 625.763649 107.838428 
L 626.990409 103.877495 
L 628.217169 98.596251 
L 630.670688 115.760293 
L 631.897448 106.518117 
L 633.124207 103.437391 
L 634.350967 118.400915 
L 635.577727 118.841019 
L 636.804486 99.476459 
L 638.031246 110.919153 
L 639.258005 110.47905 
L 640.484765 105.63791 
L 641.711525 111.359257 
L 642.938284 115.32019 
L 644.165044 104.317599 
L 645.391804 106.95822 
L 646.618563 104.757702 
L 647.845323 110.919153 
L 649.072083 114.880086 
L 650.298842 101.676977 
L 651.525602 110.038946 
L 652.752362 106.95822 
L 653.979121 102.11708 
L 655.205881 120.601433 
L 656.432641 113.559775 
L 657.6594 112.679568 
L 658.88616 108.278531 
L 660.112919 113.119671 
L 661.339679 101.236873 
L 662.566439 113.559775 
L 663.793198 114.439982 
L 665.019958 104.757702 
L 666.246718 106.518117 
L 667.473477 113.559775 
L 668.700237 104.757702 
L 669.926997 117.080604 
L 671.153756 102.997288 
L 672.380516 112.679568 
L 673.607276 121.041537 
L 674.834035 113.559775 
L 676.060795 108.278531 
L 676.060795 108.278531 
" clip-path="url(#p3c2bedc592)" style="fill: none; stroke-dasharray: 5.55,2.4; stroke-dashoffset: 0; stroke: #ff7f0e; stroke-width: 1.5"/>
   </g>
   <g id="patch_3">
    <path d="M 66.36125 273.7575 
L 66.36125 12.6 
" style="fill: none; stroke: #000000; stroke-width: 0.8; stroke-linejoin: miter; stroke-linecap: square"/>
   </g>
   <g id="patch_4">
    <path d="M 431.935625 273.7575 
L 431.935625 12.6 
" style="fill: none; stroke: #000000; stroke-width: 0.8; stroke-linejoin: miter; stroke-linecap: square"/>
   </g>
   <g id="patch_5">
    <path d="M 66.36125 273.7575 
L 431.935625 273.7575 
" style="fill: none; stroke: #000000; stroke-width: 0.8; stroke-linejoin: miter; stroke-linecap: square"/>
   </g>
   <g id="patch_6">
    <path d="M 66.36125 12.6 
L 431.935625 12.6 
" style="fill: none; stroke: #000000; stroke-width: 0.8; stroke-linejoin: miter; stroke-linecap: square"/>
   </g>
   <g id="text_12">
    <!-- a) α = 0.4 -->
    <g transform="translate(204.772813 339.81525) scale(0.18 -0.18)">
     <defs>
      <path id="IPAexMincho-61" d="M 3372 300 
Q 3231 -31 2913 -31 
Q 2463 -31 2444 516 
Q 2053 -44 1356 -44 
Q 934 -44 653 178 
Q 353 422 353 831 
Q 353 1841 2075 1947 
L 2400 1966 
L 2400 2081 
Q 2400 3044 1644 3044 
Q 1141 3044 959 2709 
Q 1141 2681 1141 2478 
Q 1141 2203 859 2203 
Q 550 2203 550 2516 
Q 550 2778 844 2997 
Q 1194 3259 1678 3259 
Q 2803 3259 2803 2138 
L 2803 838 
Q 2803 197 3022 197 
Q 3156 197 3250 391 
L 3372 300 
z
M 2400 863 
L 2400 1741 
L 2131 1728 
Q 800 1663 800 869 
Q 800 575 984 388 
Q 1166 209 1441 209 
Q 1816 209 2113 441 
Q 2313 603 2400 863 
z
" transform="scale(0.015625)"/>
      <path id="IPAexMincho-29" d="M 600 4916 
Q 1759 3491 1759 1747 
Q 1759 6 600 -1422 
L 416 -1319 
Q 1325 41 1325 1741 
Q 1325 3447 416 4806 
L 600 4916 
z
" transform="scale(0.015625)"/>
      <path id="IPAexMincho-20" transform="scale(0.015625)"/>
      <path id="IPAexMincho-3b1" d="M 5038 969 
Q 4694 231 4147 231 
Q 3606 231 3578 1191 
Q 2897 231 2253 231 
Q 1844 231 1613 538 
Q 1428 794 1428 1159 
Q 1428 1750 1856 2447 
Q 2478 3469 3225 3469 
Q 3966 3469 3975 2209 
Q 4313 2956 4422 3353 
L 4788 3353 
Q 4431 2531 3975 1756 
L 3975 1294 
Q 3975 506 4288 506 
Q 4641 506 4909 1056 
L 5038 969 
z
M 3566 1550 
L 3566 2278 
Q 3566 3241 3188 3241 
Q 2916 3241 2528 2788 
Q 2234 2434 2041 1934 
Q 1863 1491 1863 1166 
Q 1863 506 2356 506 
Q 2906 506 3566 1550 
z
" transform="scale(0.015625)"/>
      <path id="IPAexMincho-3d" d="M 447 2772 
L 3891 2772 
L 3891 2472 
L 447 2472 
L 447 2772 
z
M 447 1594 
L 3891 1594 
L 3891 1294 
L 447 1294 
L 447 1594 
z
" transform="scale(0.015625)"/>
      <path id="IPAexMincho-2e" d="M 766 722 
Q 916 722 1016 619 
Q 1119 516 1119 369 
Q 1119 228 1016 128 
Q 916 25 766 25 
Q 625 25 525 128 
Q 422 228 422 369 
Q 422 516 525 619 
Q 628 722 766 722 
z
" transform="scale(0.015625)"/>
     </defs>
     <use xlink:href="#IPAexMincho-61"/>
     <use xlink:href="#IPAexMincho-29" x="54.296875"/>
     <use xlink:href="#IPAexMincho-20" x="90.820312"/>
     <use xlink:href="#IPAexMincho-3b1" x="119.824219"/>
     <use xlink:href="#IPAexMincho-20" x="219.824219"/>
     <use xlink:href="#IPAexMincho-3d" x="248.828125"/>
     <use xlink:href="#IPAexMincho-20" x="316.650391"/>
     <use xlink:href="#IPAexMincho-30" x="345.654297"/>
     <use xlink:href="#IPAexMincho-2e" x="407.470703"/>
     <use xlink:href="#IPAexMincho-34" x="431.25"/>
    </g>
   </g>
  </g>
  <g id="axes_2">
   <g id="patch_7">
    <path d="M 485.825625 273.7575 
L 851.4 273.7575 
L 851.4 12.6 
L 485.825625 12.6 
L 485.825625 273.7575 
z
" style="fill: none"/>
   </g>
   <g id="matplotlib.axis_3">
    <g id="xtick_4">
     <g id="line2d_12">
      <g>
       <use xlink:href="#m3ab628d28b" x="485.825625" y="273.7575" style="stroke: #000000; stroke-width: 0.8"/>
      </g>
     </g>
     <g id="text_13">
      <!-- 1 -->
      <g transform="translate(481.49875 290.9775) scale(0.14 -0.14)">
       <use xlink:href="#IPAexMincho-31"/>
      </g>
     </g>
    </g>
    <g id="xtick_5">
     <g id="line2d_13">
      <g>
       <use xlink:href="#m3ab628d28b" x="607.27483" y="273.7575" style="stroke: #000000; stroke-width: 0.8"/>
      </g>
     </g>
     <g id="text_14">
      <!-- 100 -->
      <g transform="translate(594.294205 290.9775) scale(0.14 -0.14)">
       <use xlink:href="#IPAexMincho-31"/>
       <use xlink:href="#IPAexMincho-30" x="61.816406"/>
       <use xlink:href="#IPAexMincho-30" x="123.632812"/>
      </g>
     </g>
    </g>
    <g id="xtick_6">
     <g id="line2d_14">
      <g>
       <use xlink:href="#m3ab628d28b" x="729.950795" y="273.7575" style="stroke: #000000; stroke-width: 0.8"/>
      </g>
     </g>
     <g id="text_15">
      <!-- 200 -->
      <g transform="translate(716.97017 290.9775) scale(0.14 -0.14)">
       <use xlink:href="#IPAexMincho-32"/>
       <use xlink:href="#IPAexMincho-30" x="61.816406"/>
       <use xlink:href="#IPAexMincho-30" x="123.632812"/>
      </g>
     </g>
    </g>
    <g id="text_16">
     <!-- バッチ -->
     <g transform="translate(641.612812 310.52375) scale(0.18 -0.18)">
      <use xlink:href="#IPAexMincho-30d0"/>
      <use xlink:href="#IPAexMincho-30c3" x="100"/>
      <use xlink:href="#IPAexMincho-30c1" x="200"/>
     </g>
    </g>
   </g>
   <g id="matplotlib.axis_4">
    <g id="ytick_7">
     <g id="line2d_15">
      <g>
       <use xlink:href="#mdc5ae68c6e" x="485.825625" y="273.7575" style="stroke: #000000; stroke-width: 0.8"/>
      </g>
     </g>
     <g id="text_17">
      <!-- 0 -->
      <g transform="translate(470.171875 278.8675) scale(0.14 -0.14)">
       <use xlink:href="#IPAexMincho-30"/>
      </g>
     </g>
    </g>
    <g id="ytick_8">
     <g id="line2d_16">
      <g>
       <use xlink:href="#mdc5ae68c6e" x="485.825625" y="229.76215" style="stroke: #000000; stroke-width: 0.8"/>
      </g>
     </g>
     <g id="text_18">
      <!-- 2000 -->
      <g transform="translate(444.210625 234.87215) scale(0.14 -0.14)">
       <use xlink:href="#IPAexMincho-32"/>
       <use xlink:href="#IPAexMincho-30" x="61.816406"/>
       <use xlink:href="#IPAexMincho-30" x="123.632812"/>
       <use xlink:href="#IPAexMincho-30" x="185.449219"/>
      </g>
     </g>
    </g>
    <g id="ytick_9">
     <g id="line2d_17">
      <g>
       <use xlink:href="#mdc5ae68c6e" x="485.825625" y="185.766799" style="stroke: #000000; stroke-width: 0.8"/>
      </g>
     </g>
     <g id="text_19">
      <!-- 4000 -->
      <g transform="translate(444.210625 190.876799) scale(0.14 -0.14)">
       <use xlink:href="#IPAexMincho-34"/>
       <use xlink:href="#IPAexMincho-30" x="61.816406"/>
       <use xlink:href="#IPAexMincho-30" x="123.632812"/>
       <use xlink:href="#IPAexMincho-30" x="185.449219"/>
      </g>
     </g>
    </g>
    <g id="ytick_10">
     <g id="line2d_18">
      <g>
       <use xlink:href="#mdc5ae68c6e" x="485.825625" y="141.771449" style="stroke: #000000; stroke-width: 0.8"/>
      </g>
     </g>
     <g id="text_20">
      <!-- 6000 -->
      <g transform="translate(444.210625 146.881449) scale(0.14 -0.14)">
       <defs>
        <path id="IPAexMincho-36" d="M 1003 2231 
Q 1388 2944 2150 2944 
Q 2847 2944 3259 2419 
Q 3559 2019 3559 1413 
Q 3559 722 3131 294 
Q 2725 -103 2125 -103 
Q 1466 -103 1050 369 
Q 556 938 556 2109 
Q 556 3588 1197 4284 
Q 1606 4734 2219 4734 
Q 2647 4734 2950 4547 
Q 3347 4297 3347 3975 
Q 3347 3616 3013 3616 
Q 2688 3616 2688 3916 
Q 2688 4128 2900 4222 
Q 2700 4497 2253 4497 
Q 1706 4497 1369 3928 
Q 1003 3313 984 2231 
L 1003 2231 
z
M 2125 2694 
Q 1722 2694 1434 2406 
Q 1081 2053 1081 1431 
Q 1081 869 1375 497 
Q 1666 138 2106 138 
Q 2628 138 2900 613 
Q 3091 938 3091 1413 
Q 3091 2066 2750 2425 
Q 2494 2694 2125 2694 
z
" transform="scale(0.015625)"/>
       </defs>
       <use xlink:href="#IPAexMincho-36"/>
       <use xlink:href="#IPAexMincho-30" x="61.816406"/>
       <use xlink:href="#IPAexMincho-30" x="123.632812"/>
       <use xlink:href="#IPAexMincho-30" x="185.449219"/>
      </g>
     </g>
    </g>
    <g id="ytick_11">
     <g id="line2d_19">
      <g>
       <use xlink:href="#mdc5ae68c6e" x="485.825625" y="97.776098" style="stroke: #000000; stroke-width: 0.8"/>
      </g>
     </g>
     <g id="text_21">
      <!-- 8000 -->
      <g transform="translate(444.210625 102.886098) scale(0.14 -0.14)">
       <defs>
        <path id="IPAexMincho-38" d="M 2341 2481 
Q 3494 1972 3494 1156 
Q 3494 547 3000 191 
Q 2572 -122 1950 -122 
Q 1300 -122 869 222 
Q 441 566 441 1125 
Q 441 1947 1516 2438 
Q 600 2881 600 3584 
Q 600 4031 941 4372 
Q 1338 4769 1978 4769 
Q 2566 4769 2944 4466 
Q 3334 4153 3334 3653 
Q 3334 2916 2341 2481 
z
M 2053 2622 
Q 2938 2969 2938 3684 
Q 2938 4116 2597 4359 
Q 2334 4544 1997 4544 
Q 1569 4544 1278 4263 
Q 1028 4013 1028 3653 
Q 1028 3291 1316 3031 
Q 1466 2891 1694 2781 
Q 2025 2613 2053 2622 
z
M 1809 2309 
L 1716 2272 
Q 856 1884 856 1119 
Q 856 713 1131 438 
Q 1444 125 1944 125 
Q 2478 125 2791 438 
Q 3047 694 3047 1094 
Q 3047 1534 2669 1853 
Q 2503 1994 2219 2131 
Q 1841 2319 1809 2309 
z
" transform="scale(0.015625)"/>
       </defs>
       <use xlink:href="#IPAexMincho-38"/>
       <use xlink:href="#IPAexMincho-30" x="61.816406"/>
       <use xlink:href="#IPAexMincho-30" x="123.632812"/>
       <use xlink:href="#IPAexMincho-30" x="185.449219"/>
      </g>
     </g>
    </g>
    <g id="ytick_12">
     <g id="line2d_20">
      <g>
       <use xlink:href="#mdc5ae68c6e" x="485.825625" y="53.780748" style="stroke: #000000; stroke-width: 0.8"/>
      </g>
     </g>
     <g id="text_22">
      <!-- 10000 -->
      <g transform="translate(435.556875 58.890748) scale(0.14 -0.14)">
       <use xlink:href="#IPAexMincho-31"/>
       <use xlink:href="#IPAexMincho-30" x="61.816406"/>
       <use xlink:href="#IPAexMincho-30" x="123.632812"/>
       <use xlink:href="#IPAexMincho-30" x="185.449219"/>
       <use xlink:href="#IPAexMincho-30" x="247.265625"/>
      </g>
     </g>
    </g>
   </g>
   <g id="line2d_21">
    <path d="M 485.825625 41.572038 
L 487.052385 66.605393 
L 488.279144 84.599491 
L 489.505904 109.830824 
L 490.732664 128.836816 
L 494.412943 190.29832 
L 495.639702 209.744265 
L 496.866462 233.479757 
L 498.093221 245.204518 
L 499.319981 247.690255 
L 501.7735 250.57195 
L 503.00026 251.539848 
L 504.22702 252.199778 
L 505.453779 251.891811 
L 506.680539 251.253878 
L 507.907299 251.671834 
L 509.134058 251.319871 
L 510.360818 251.979802 
L 511.587578 251.539848 
L 512.814337 252.133785 
L 514.041097 251.869813 
L 515.267857 250.923913 
L 516.494616 251.253878 
L 517.721376 250.813925 
L 518.948135 251.913809 
L 521.401655 251.671834 
L 522.628414 252.155783 
L 525.081934 251.407862 
L 526.308693 251.605841 
L 527.535453 251.495853 
L 528.762213 251.209883 
L 529.988972 251.935806 
L 531.215732 251.253878 
L 533.669251 251.297874 
L 534.896011 251.80382 
L 536.122771 251.935806 
L 537.34953 251.869813 
L 538.57629 251.341869 
L 539.803049 251.121892 
L 541.029809 251.715829 
L 543.483328 251.759825 
L 544.710088 251.495853 
L 545.936848 251.055899 
L 547.163607 251.209883 
L 548.390367 251.935806 
L 549.617127 251.80382 
L 550.843886 251.847815 
L 552.070646 251.275876 
L 553.297406 251.121892 
L 554.524165 251.165888 
L 555.750925 251.51785 
L 556.977685 251.033902 
L 559.431204 251.451857 
L 560.657964 251.341869 
L 561.884723 252.023797 
L 563.111483 251.363867 
L 564.338242 252.023797 
L 565.565002 251.957804 
L 566.791762 251.42986 
L 568.018521 251.033902 
L 569.245281 251.319871 
L 570.472041 251.737827 
L 571.6988 251.627839 
L 572.92556 251.209883 
L 574.15232 251.187885 
L 575.379079 251.671834 
L 577.832599 252.045795 
L 579.059358 251.649836 
L 580.286118 251.605841 
L 581.512878 251.759825 
L 582.739637 251.539848 
L 583.966397 251.451857 
L 585.193156 251.935806 
L 586.419916 251.781822 
L 587.646676 252.177781 
L 588.873435 251.42986 
L 590.100195 251.495853 
L 592.553714 252.08979 
L 593.780474 251.42986 
L 595.007234 251.495853 
L 596.233993 251.825818 
L 597.460753 251.627839 
L 598.687513 251.869813 
L 599.914272 251.319871 
L 602.367792 251.363867 
L 606.04807 252.331764 
L 607.27483 251.825818 
L 608.50159 249.956015 
L 609.728349 251.473855 
L 610.955109 251.80382 
L 612.181869 251.847815 
L 613.408628 252.177781 
L 614.635388 251.561846 
L 615.862148 251.495853 
L 617.088907 251.957804 
L 618.315667 251.737827 
L 619.542427 250.791927 
L 620.769186 251.583843 
L 621.995946 252.001799 
L 623.222706 251.253878 
L 624.449465 251.561846 
L 626.902984 251.649836 
L 628.129744 250.813925 
L 629.356504 251.583843 
L 630.583263 251.42986 
L 631.810023 251.715829 
L 633.036783 251.341869 
L 634.263542 251.14389 
L 635.490302 251.671834 
L 636.717062 251.297874 
L 637.943821 251.561846 
L 639.170581 251.42986 
L 640.397341 251.737827 
L 641.6241 251.077897 
L 642.85086 251.627839 
L 644.07762 250.527955 
L 645.304379 251.627839 
L 646.531139 251.847815 
L 647.757898 251.539848 
L 648.984658 251.935806 
L 650.211418 251.451857 
L 651.438177 251.891811 
L 653.891697 251.099895 
L 655.118456 250.549953 
L 656.345216 252.243774 
L 657.571976 251.671834 
L 658.798735 252.067792 
L 660.025495 251.42986 
L 661.252255 252.08979 
L 662.479014 251.561846 
L 663.705774 251.847815 
L 664.932534 251.649836 
L 666.159293 251.297874 
L 667.386053 251.935806 
L 668.612812 252.353762 
L 669.839572 252.023797 
L 671.066332 251.473855 
L 672.293091 250.703936 
L 673.519851 252.001799 
L 674.746611 251.847815 
L 675.97337 251.935806 
L 677.20013 251.583843 
L 678.42689 251.825818 
L 679.653649 252.37576 
L 680.880409 251.231881 
L 682.107169 251.847815 
L 684.560688 250.989906 
L 685.787448 251.693832 
L 687.014207 251.363867 
L 688.240967 251.957804 
L 689.467727 252.221776 
L 690.694486 252.155783 
L 691.921246 251.605841 
L 693.148005 251.693832 
L 694.374765 250.659941 
L 695.601525 251.51785 
L 696.828284 252.133785 
L 698.055044 251.957804 
L 699.281804 251.209883 
L 700.508563 251.693832 
L 701.735323 251.187885 
L 702.962083 252.023797 
L 704.188842 251.055899 
L 705.415602 251.099895 
L 706.642362 251.319871 
L 707.869121 252.001799 
L 709.095881 250.48396 
L 710.322641 251.539848 
L 712.77616 251.847815 
L 714.002919 251.649836 
L 715.229679 251.583843 
L 717.683198 251.847815 
L 718.909958 252.177781 
L 720.136718 251.847815 
L 721.363477 251.385864 
L 722.590237 251.561846 
L 723.816997 252.023797 
L 725.043756 251.913809 
L 726.270516 251.121892 
L 727.497276 251.363867 
L 728.724035 251.319871 
L 729.950795 251.847815 
L 731.177555 251.14389 
L 732.404314 252.133785 
L 733.631074 251.451857 
L 734.857833 251.275876 
L 737.311353 251.891811 
L 738.538112 251.847815 
L 739.764872 251.187885 
L 740.991632 251.341869 
L 742.218391 251.913809 
L 743.445151 250.681939 
L 745.89867 251.847815 
L 747.12543 251.385864 
L 748.35219 250.505957 
L 749.578949 251.42986 
L 750.805709 251.42986 
L 752.032469 251.715829 
L 753.259228 252.221776 
L 754.485988 251.253878 
L 755.712747 252.551741 
L 756.939507 252.221776 
L 758.166267 251.627839 
L 759.393026 251.759825 
L 760.619786 252.045795 
L 761.846546 251.869813 
L 763.073305 251.847815 
L 764.300065 250.57195 
L 765.526825 251.363867 
L 766.753584 251.869813 
L 767.980344 251.671834 
L 769.207104 251.649836 
L 770.433863 251.935806 
L 771.660623 251.737827 
L 772.887383 252.155783 
L 774.114142 251.51785 
L 775.340902 251.583843 
L 776.567661 252.08979 
L 777.794421 251.759825 
L 779.021181 250.901915 
L 780.24794 251.891811 
L 781.4747 251.891811 
L 782.70146 250.945911 
L 783.928219 252.023797 
L 785.154979 251.715829 
L 786.381739 252.243774 
L 787.608498 251.605841 
L 788.835258 251.51785 
L 792.515537 251.781822 
L 793.742297 251.715829 
L 794.969056 250.901915 
L 796.195816 250.791927 
L 797.422576 251.627839 
L 798.649335 252.001799 
L 799.876095 252.08979 
L 801.102854 251.275876 
L 802.329614 251.935806 
L 803.556374 250.351974 
L 804.783133 251.825818 
L 806.009893 252.111788 
L 807.236653 251.539848 
L 808.463412 251.979802 
L 809.690172 251.121892 
L 810.916932 251.869813 
L 812.143691 251.671834 
L 813.370451 252.133785 
L 814.597211 251.869813 
L 815.82397 251.451857 
L 817.05073 250.879918 
L 818.27749 252.177781 
L 819.504249 252.221776 
L 820.731009 251.561846 
L 821.957768 251.275876 
L 823.184528 251.825818 
L 824.411288 252.067792 
L 825.638047 252.023797 
L 826.864807 251.715829 
L 828.091567 251.935806 
L 829.318326 251.583843 
L 830.545086 251.847815 
L 831.771846 251.715829 
L 832.998605 251.715829 
L 834.225365 250.901915 
L 835.452125 251.011904 
L 836.678884 251.913809 
L 837.905644 251.869813 
L 839.132404 252.199778 
L 840.359163 251.51785 
L 841.585923 251.341869 
L 842.812682 251.363867 
L 844.039442 251.14389 
L 845.266202 251.51785 
L 846.492961 251.715829 
L 847.719721 251.319871 
L 848.946481 251.80382 
L 850.17324 252.067792 
L 851.4 251.385864 
L 852.62676 251.121892 
L 853.853519 250.989906 
L 855.080279 252.08979 
L 856.307039 251.627839 
L 857.533798 251.891811 
L 858.760558 251.693832 
L 859.987318 252.001799 
L 861.214077 251.297874 
L 862.440837 251.539848 
L 863.667596 252.177781 
L 865 251.717414 
L 865 251.717414 
" clip-path="url(#p2722a2bca1)" style="fill: none; stroke: #1f77b4; stroke-width: 1.5; stroke-linecap: square"/>
   </g>
   <g id="line2d_22">
    <path d="M 485.825625 24.655826 
L 487.052385 34.620773 
L 488.279144 37.810436 
L 489.505904 45.685603 
L 490.732664 47.445417 
L 491.959423 53.318797 
L 493.186183 59.874104 
L 494.412943 61.039981 
L 495.639702 66.847367 
L 496.866462 74.986507 
L 498.093221 77.208272 
L 499.319981 86.183323 
L 500.546741 88.58107 
L 501.7735 92.892614 
L 503.00026 98.743996 
L 504.22702 101.911661 
L 505.453779 107.785041 
L 506.680539 110.072799 
L 507.907299 115.418234 
L 509.134058 124.503274 
L 510.360818 127.208988 
L 511.587578 129.628732 
L 512.814337 138.295816 
L 514.041097 142.629358 
L 515.267857 145.35707 
L 516.494616 153.518207 
L 517.721376 156.685873 
L 518.948135 164.56104 
L 521.401655 173.998043 
L 522.628414 177.71565 
L 523.855174 183.809006 
L 525.081934 188.560504 
L 526.308693 194.103918 
L 527.535453 197.271583 
L 528.762213 204.552814 
L 529.988972 208.75437 
L 531.215732 213.549863 
L 532.442492 220.347145 
L 533.669251 224.74668 
L 534.896011 227.496389 
L 537.34953 240.013066 
L 538.57629 243.752671 
L 539.803049 245.776457 
L 541.029809 246.766353 
L 542.256569 246.722357 
L 544.710088 247.580266 
L 545.936848 248.504169 
L 547.163607 250.19799 
L 548.390367 249.164099 
L 549.617127 250.285981 
L 550.843886 250.659941 
L 552.070646 250.153994 
L 553.297406 251.42986 
L 554.524165 251.033902 
L 556.977685 252.177781 
L 558.204444 252.74972 
L 559.431204 252.727722 
L 560.657964 253.497641 
L 563.111483 253.937595 
L 564.338242 252.881706 
L 565.565002 253.827606 
L 566.791762 254.201567 
L 568.018521 254.817502 
L 570.472041 255.675411 
L 571.6988 255.30145 
L 572.92556 255.785399 
L 575.379079 256.203355 
L 576.605839 256.467327 
L 577.832599 256.555318 
L 579.059358 256.907281 
L 580.286118 256.81929 
L 581.512878 257.369232 
L 582.739637 257.787188 
L 583.966397 257.787188 
L 585.193156 258.249139 
L 586.419916 258.315132 
L 587.646676 257.545213 
L 588.873435 258.513111 
L 590.100195 258.887072 
L 592.553714 259.019058 
L 593.780474 259.349023 
L 595.007234 259.261032 
L 596.233993 259.920962 
L 597.460753 259.437013 
L 598.687513 259.437013 
L 599.914272 260.22893 
L 601.141032 260.184934 
L 602.367792 260.5149 
L 603.594551 260.492902 
L 604.821311 260.250927 
L 606.04807 260.910858 
L 607.27483 260.756874 
L 608.50159 260.778872 
L 609.728349 261.042844 
L 610.955109 260.976851 
L 612.181869 261.306816 
L 613.408628 261.306816 
L 614.635388 261.152832 
L 615.862148 261.4608 
L 617.088907 261.4608 
L 618.315667 261.856758 
L 619.542427 261.83476 
L 620.769186 262.428697 
L 621.995946 261.944748 
L 623.222706 262.010741 
L 624.449465 262.340707 
L 625.676225 262.472693 
L 626.902984 262.472693 
L 628.129744 262.296711 
L 629.356504 262.736665 
L 630.583263 262.296711 
L 634.263542 262.956641 
L 635.490302 262.670672 
L 636.717062 262.802658 
L 637.943821 263.198616 
L 639.170581 263.330602 
L 640.397341 262.758662 
L 641.6241 263.572576 
L 644.07762 263.374597 
L 645.304379 263.638569 
L 646.531139 263.374597 
L 647.757898 263.814551 
L 648.984658 263.770555 
L 650.211418 263.06663 
L 651.438177 264.056525 
L 652.664937 263.572576 
L 653.891697 263.704562 
L 655.118456 264.342495 
L 656.345216 264.210509 
L 657.571976 264.2985 
L 660.025495 263.924539 
L 661.252255 264.738453 
L 662.479014 264.430486 
L 663.705774 264.364493 
L 664.932534 264.562472 
L 666.159293 264.408488 
L 667.386053 265.002425 
L 668.612812 264.848442 
L 671.066332 265.046421 
L 672.293091 264.804446 
L 673.519851 264.716455 
L 674.746611 264.95843 
L 675.97337 265.046421 
L 678.42689 265.046421 
L 679.653649 264.738453 
L 680.880409 265.156409 
L 682.107169 264.650462 
L 683.333928 264.95843 
L 684.560688 265.002425 
L 685.787448 265.310393 
L 687.014207 265.068418 
L 688.240967 265.178407 
L 691.921246 265.090416 
L 693.148005 265.310393 
L 694.374765 264.95843 
L 696.828284 265.200404 
L 698.055044 265.002425 
L 705.415602 265.200404 
L 707.869121 265.200404 
L 709.095881 265.420381 
L 711.5494 265.112414 
L 712.77616 265.222402 
L 715.229679 264.95843 
L 716.456439 265.222402 
L 717.683198 265.046421 
L 718.909958 265.156409 
L 720.136718 265.002425 
L 722.590237 265.2444 
L 725.043756 265.002425 
L 726.270516 265.200404 
L 727.497276 265.024423 
L 728.724035 265.156409 
L 732.404314 265.090416 
L 733.631074 265.178407 
L 734.857833 265.046421 
L 736.084593 265.288395 
L 737.311353 265.024423 
L 739.764872 265.156409 
L 740.991632 265.288395 
L 742.218391 265.090416 
L 753.259228 265.266397 
L 754.485988 264.716455 
L 755.712747 265.134411 
L 759.393026 265.310393 
L 763.073305 265.266397 
L 764.300065 264.95843 
L 765.526825 265.222402 
L 766.753584 265.112414 
L 767.980344 265.266397 
L 769.207104 265.200404 
L 770.433863 265.486374 
L 771.660623 265.310393 
L 772.887383 265.002425 
L 774.114142 265.508372 
L 779.021181 264.914435 
L 780.24794 265.354388 
L 781.4747 265.068418 
L 782.70146 265.024423 
L 783.928219 265.486374 
L 785.154979 265.266397 
L 786.381739 265.222402 
L 787.608498 265.310393 
L 788.835258 265.024423 
L 790.062018 265.310393 
L 793.742297 265.486374 
L 794.969056 265.354388 
L 796.195816 265.354388 
L 797.422576 265.046421 
L 798.649335 265.178407 
L 799.876095 265.486374 
L 801.102854 265.33239 
L 802.329614 265.530369 
L 803.556374 265.134411 
L 804.783133 265.310393 
L 806.009893 265.2444 
L 808.463412 265.464376 
L 809.690172 265.200404 
L 810.916932 265.398383 
L 814.597211 265.354388 
L 815.82397 265.464376 
L 817.05073 265.376386 
L 818.27749 265.068418 
L 819.504249 265.442379 
L 821.957768 265.684353 
L 823.184528 265.046421 
L 824.411288 265.33239 
L 826.864807 265.178407 
L 828.091567 265.046421 
L 829.318326 265.442379 
L 830.545086 265.068418 
L 831.771846 265.002425 
L 832.998605 265.222402 
L 834.225365 265.61836 
L 835.452125 265.178407 
L 836.678884 265.200404 
L 837.905644 265.574365 
L 839.132404 265.530369 
L 840.359163 265.112414 
L 841.585923 264.980428 
L 844.039442 265.552367 
L 845.266202 265.090416 
L 847.719721 265.33239 
L 850.17324 265.046421 
L 851.4 265.420381 
L 852.62676 265.420381 
L 853.853519 265.266397 
L 855.080279 265.33239 
L 856.307039 265.728349 
L 857.533798 265.376386 
L 861.214077 265.288395 
L 863.667596 265.464376 
L 865 265.226925 
L 865 265.226925 
" clip-path="url(#p2722a2bca1)" style="fill: none; stroke-dasharray: 5.55,2.4; stroke-dashoffset: 0; stroke: #ff7f0e; stroke-width: 1.5"/>
   </g>
   <g id="patch_8">
    <path d="M 485.825625 273.7575 
L 485.825625 12.6 
" style="fill: none; stroke: #000000; stroke-width: 0.8; stroke-linejoin: miter; stroke-linecap: square"/>
   </g>
   <g id="patch_9">
    <path d="M 851.4 273.7575 
L 851.4 12.6 
" style="fill: none; stroke: #000000; stroke-width: 0.8; stroke-linejoin: miter; stroke-linecap: square"/>
   </g>
   <g id="patch_10">
    <path d="M 485.825625 273.7575 
L 851.4 273.7575 
" style="fill: none; stroke: #000000; stroke-width: 0.8; stroke-linejoin: miter; stroke-linecap: square"/>
   </g>
   <g id="patch_11">
    <path d="M 485.825625 12.6 
L 851.4 12.6 
" style="fill: none; stroke: #000000; stroke-width: 0.8; stroke-linejoin: miter; stroke-linecap: square"/>
   </g>
   <g id="text_23">
    <!-- b) α = 0.99 -->
    <g transform="translate(618.150937 339.81525) scale(0.18 -0.18)">
     <defs>
      <path id="IPAexMincho-62" d="M 1063 2606 
Q 1453 3244 2138 3244 
Q 2669 3244 3047 2866 
Q 3500 2413 3500 1631 
Q 3500 844 3041 381 
Q 2650 -6 2125 -6 
Q 1459 -6 1075 531 
L 866 13 
L 647 13 
L 647 3988 
Q 647 4281 506 4338 
Q 409 4378 97 4378 
L 97 4575 
Q 641 4584 1063 4672 
L 1063 2606 
z
M 1063 1997 
L 1063 1166 
Q 1063 766 1478 469 
Q 1763 263 2081 263 
Q 2566 263 2834 722 
Q 3047 1078 3047 1619 
Q 3047 2341 2675 2713 
Q 2406 2981 2050 2981 
Q 1578 2981 1259 2541 
Q 1063 2275 1063 1997 
z
" transform="scale(0.015625)"/>
      <path id="IPAexMincho-39" d="M 2994 2469 
Q 2631 1772 1822 1772 
Q 1197 1772 825 2163 
Q 428 2578 428 3238 
Q 428 3925 850 4338 
Q 1256 4734 1869 4734 
Q 3431 4734 3431 2544 
Q 3431 1159 2863 447 
Q 2416 -103 1753 -103 
Q 1219 -103 844 222 
Q 606 431 606 669 
Q 606 1034 944 1034 
Q 1284 1034 1284 722 
Q 1284 497 1094 422 
Q 1278 156 1716 156 
Q 2281 156 2616 700 
Q 2994 1313 3013 2469 
L 2994 2469 
z
M 1881 4516 
Q 1425 4516 1147 4131 
Q 903 3781 903 3263 
Q 903 2734 1128 2394 
Q 1388 2009 1863 2009 
Q 2278 2009 2559 2291 
Q 2900 2638 2900 3244 
Q 2900 3794 2619 4150 
Q 2331 4516 1881 4516 
z
" transform="scale(0.015625)"/>
     </defs>
     <use xlink:href="#IPAexMincho-62"/>
     <use xlink:href="#IPAexMincho-29" x="60.107422"/>
     <use xlink:href="#IPAexMincho-20" x="96.630859"/>
     <use xlink:href="#IPAexMincho-3b1" x="125.634766"/>
     <use xlink:href="#IPAexMincho-20" x="225.634766"/>
     <use xlink:href="#IPAexMincho-3d" x="254.638672"/>
     <use xlink:href="#IPAexMincho-20" x="322.460938"/>
     <use xlink:href="#IPAexMincho-30" x="351.464844"/>
     <use xlink:href="#IPAexMincho-2e" x="413.28125"/>
     <use xlink:href="#IPAexMincho-39" x="437.060547"/>
     <use xlink:href="#IPAexMincho-39" x="498.876953"/>
    </g>
   </g>
  </g>
  <g id="legend_1">
   <g id="patch_12">
    <path d="M 700.2 64.982813 
L 855 64.982813 
L 855 9 
L 700.2 9 
z
" style="fill: #ffffff; stroke: #000000; stroke-linejoin: miter"/>
   </g>
   <g id="line2d_23">
    <path d="M 707.4 23.04 
L 725.4 23.04 
L 743.4 23.04 
" style="fill: none; stroke: #1f77b4; stroke-width: 1.5; stroke-linecap: square"/>
   </g>
   <g id="text_24">
    <!-- 粗い分割 -->
    <g transform="translate(757.8 29.34) scale(0.18 -0.18)">
     <defs>
      <path id="IPAexMincho-7c97" d="M 3638 4800 
L 4941 4800 
L 5203 5106 
Q 5597 4794 5597 4709 
Q 5597 4666 5538 4628 
L 5384 4525 
L 5384 -50 
L 5628 -50 
L 5897 391 
Q 6031 231 6172 -6 
L 6216 -81 
L 6153 -213 
L 2384 -213 
L 2319 -50 
L 3172 -50 
L 3172 5019 
Q 3381 4953 3638 4800 
z
M 5013 3097 
L 3544 3097 
L 3544 1638 
L 5013 1638 
L 5013 3097 
z
M 5013 3256 
L 5013 4641 
L 3544 4641 
L 3544 3256 
L 5013 3256 
z
M 5013 -50 
L 5013 1478 
L 3544 1478 
L 3544 -50 
L 5013 -50 
z
M 1341 1813 
Q 922 928 303 194 
L 169 309 
Q 909 1316 1300 2613 
L 353 2613 
L 291 2772 
L 1341 2772 
L 1341 5269 
Q 1944 5259 1944 5122 
Q 1944 5047 1700 4947 
L 1700 2772 
L 2197 2772 
L 2475 3169 
Q 2656 2984 2838 2734 
L 2775 2613 
L 1700 2613 
L 1700 2075 
Q 1763 2044 1809 2019 
Q 2256 1797 2506 1513 
Q 2691 1297 2691 1128 
Q 2691 903 2484 903 
Q 2372 903 2294 1094 
Q 2113 1528 1700 1884 
L 1700 -459 
L 1341 -459 
L 1341 1813 
z
M 450 4719 
Q 1031 4078 1031 3413 
Q 1031 3100 825 3100 
Q 653 3100 653 3309 
Q 644 4056 334 4628 
L 450 4719 
z
M 1916 3144 
Q 2188 3906 2331 4750 
Q 2875 4606 2875 4475 
Q 2875 4397 2638 4359 
Q 2419 3716 2063 3072 
L 1916 3144 
z
" transform="scale(0.015625)"/>
      <path id="IPAexMincho-3044" d="M 2981 2113 
Q 2641 1288 2581 1131 
Q 2450 775 2450 628 
L 2516 300 
Q 2516 141 2344 141 
Q 2238 141 2053 253 
Q 1888 350 1747 488 
Q 1363 872 1191 1613 
Q 1056 2169 1050 3300 
Q 1050 3659 991 3878 
Q 906 4147 659 4300 
L 769 4453 
Q 1484 4119 1484 3731 
Q 1484 3700 1456 3613 
Q 1431 3538 1425 3488 
Q 1381 2953 1381 2547 
Q 1381 1647 1816 959 
Q 1888 850 1991 850 
Q 2059 850 2138 972 
Q 2356 1294 2816 2194 
L 2981 2113 
z
M 4213 3841 
Q 4691 3603 4978 3325 
Q 5197 3113 5416 2772 
Q 5753 2244 5753 1769 
Q 5753 1403 5516 1403 
Q 5378 1403 5319 1697 
Q 5056 3028 4097 3675 
L 4213 3841 
z
" transform="scale(0.015625)"/>
      <path id="IPAexMincho-5206" d="M 2481 2591 
L 1466 2591 
L 1413 2753 
L 4356 2753 
L 4600 3041 
Q 4978 2741 4978 2656 
Q 4978 2606 4916 2559 
L 4781 2456 
Q 4772 566 4466 6 
Q 4256 -378 3719 -378 
Q 3719 -188 3475 -91 
Q 3291 -16 2803 63 
L 2803 234 
Q 3447 147 3806 147 
Q 4141 147 4238 550 
Q 4400 1213 4409 2591 
L 2884 2591 
Q 2791 1428 2341 741 
Q 1850 -22 794 -450 
L 703 -309 
Q 1822 294 2219 1331 
Q 2425 1891 2481 2591 
z
M 3847 5119 
Q 4734 3572 6003 2816 
Q 5813 2681 5669 2425 
Q 4728 3166 4147 4147 
Q 3925 4522 3684 5031 
L 3847 5119 
z
M 428 2259 
Q 1750 3359 2353 5119 
Q 2931 4919 2931 4794 
Q 2931 4709 2663 4653 
Q 2181 3644 1625 3041 
Q 1200 2569 531 2131 
L 428 2259 
z
" transform="scale(0.015625)"/>
      <path id="IPAexMincho-5272" d="M 1300 1253 
L 2875 1253 
L 3100 1522 
Q 3481 1225 3481 1150 
Q 3481 1113 3425 1075 
L 3284 984 
L 3284 -463 
L 2919 -463 
L 2919 -109 
L 1250 -109 
L 1250 -463 
L 891 -463 
L 891 1431 
Q 1084 1359 1300 1253 
z
M 1250 1094 
L 1250 50 
L 2919 50 
L 2919 1094 
L 1250 1094 
z
M 2269 2584 
L 2269 1984 
L 3203 1984 
L 3497 2356 
Q 3709 2163 3869 1953 
L 3791 1825 
L 494 1825 
L 425 1984 
L 1903 1984 
L 1903 2584 
L 872 2584 
L 809 2747 
L 1903 2747 
L 1903 3291 
L 663 3291 
L 597 3450 
L 1903 3450 
L 1903 4122 
Q 2506 4094 2506 3963 
Q 2506 3888 2269 3803 
L 2269 3450 
L 3056 3450 
L 3313 3763 
Q 3531 3566 3656 3406 
L 3588 3291 
L 2269 3291 
L 2269 2747 
L 2903 2747 
L 3159 3066 
Q 3303 2931 3484 2700 
L 3416 2584 
L 2269 2584 
z
M 1909 4494 
L 1909 5294 
Q 2519 5284 2519 5159 
Q 2519 5081 2263 4988 
L 2263 4494 
L 3331 4494 
L 3572 4794 
Q 3984 4422 3984 4313 
Q 3984 4263 3913 4241 
L 3728 4197 
Q 3494 3944 3297 3775 
L 3175 3856 
Q 3281 4084 3350 4331 
L 909 4331 
Q 900 3538 572 3538 
Q 347 3538 347 3734 
Q 347 3822 409 3897 
Q 700 4231 700 4731 
L 866 4706 
Q 878 4641 897 4494 
L 1909 4494 
z
M 4225 928 
L 4225 4403 
Q 4834 4384 4834 4250 
Q 4834 4163 4584 4078 
L 4584 928 
L 4225 928 
z
M 4288 184 
Q 4800 134 5131 134 
Q 5369 134 5369 325 
L 5369 5203 
Q 5997 5166 5997 5025 
Q 5997 4938 5741 4850 
L 5741 122 
Q 5741 -413 5125 -403 
Q 5125 -206 4928 -122 
Q 4784 -59 4288 19 
L 4288 184 
z
" transform="scale(0.015625)"/>
     </defs>
     <use xlink:href="#IPAexMincho-7c97"/>
     <use xlink:href="#IPAexMincho-3044" x="100"/>
     <use xlink:href="#IPAexMincho-5206" x="200"/>
     <use xlink:href="#IPAexMincho-5272" x="300"/>
    </g>
   </g>
   <g id="line2d_24">
    <path d="M 707.4 48.389063 
L 725.4 48.389063 
L 743.4 48.389063 
" style="fill: none; stroke-dasharray: 5.55,2.4; stroke-dashoffset: 0; stroke: #ff7f0e; stroke-width: 1.5"/>
   </g>
   <g id="text_25">
    <!-- 細かい分割 -->
    <g transform="translate(757.8 54.689063) scale(0.18 -0.18)">
     <defs>
      <path id="IPAexMincho-7d30" d="M 3513 4659 
L 5325 4659 
L 5588 4972 
Q 5972 4656 5972 4556 
Q 5972 4513 5906 4475 
L 5747 4378 
L 5747 -381 
L 5375 -381 
L 5375 206 
L 3444 206 
L 3444 -381 
L 3072 -381 
L 3072 4884 
Q 3241 4822 3513 4659 
z
M 3444 4500 
L 3444 2584 
L 4209 2584 
L 4209 4500 
L 3444 4500 
z
M 5375 366 
L 5375 2425 
L 4569 2425 
L 4569 366 
L 5375 366 
z
M 5375 2584 
L 5375 4500 
L 4569 4500 
L 4569 2584 
L 5375 2584 
z
M 4209 2425 
L 3444 2425 
L 3444 366 
L 4209 366 
L 4209 2425 
z
M 1038 2616 
Q 1059 2653 1128 2731 
Q 1744 3556 2263 4556 
Q 2759 4334 2759 4209 
Q 2759 4116 2497 4116 
Q 1847 3253 1250 2622 
Q 1575 2634 2369 2719 
Q 2244 2959 2025 3219 
L 2113 3316 
Q 2919 2797 2919 2272 
Q 2919 2022 2709 2022 
Q 2550 2022 2509 2272 
Q 2494 2381 2441 2553 
Q 2125 2481 1825 2431 
L 1788 2425 
L 1788 -463 
L 1428 -463 
L 1428 2359 
Q 1278 2338 653 2253 
Q 588 2053 525 2053 
Q 422 2053 309 2591 
Q 672 2600 981 2609 
L 1038 2616 
z
M 1016 4172 
Q 1303 4678 1522 5350 
Q 2066 5150 2066 5038 
Q 2066 4959 1831 4941 
Q 1547 4500 1144 4072 
Q 1472 3791 1472 3553 
Q 1472 3316 1241 3316 
Q 1128 3316 1081 3450 
Q 900 3966 403 4347 
L 478 4453 
Q 784 4334 1016 4172 
z
M 2163 1966 
Q 2797 1341 2797 769 
Q 2797 475 2572 475 
Q 2400 475 2400 725 
Q 2391 1266 2047 1875 
L 2163 1966 
z
M 288 44 
Q 584 831 634 1819 
Q 1209 1694 1209 1569 
Q 1209 1509 1003 1459 
Q 809 569 422 -25 
L 288 44 
z
" transform="scale(0.015625)"/>
      <path id="IPAexMincho-304b" d="M 2188 3438 
Q 2438 4150 2438 4456 
Q 2438 4619 2344 4700 
Q 2263 4772 2075 4822 
L 2106 4994 
Q 2459 4994 2709 4859 
Q 2913 4750 2913 4628 
Q 2913 4519 2797 4222 
Q 2613 3747 2522 3491 
Q 2819 3547 3116 3547 
Q 3481 3547 3672 3247 
Q 3853 2969 3853 2466 
Q 3853 891 3297 216 
Q 3069 -72 2853 -72 
Q 2747 -72 2706 88 
Q 2663 303 2081 825 
L 2163 966 
Q 2659 622 2828 556 
Q 2903 531 2969 531 
Q 3078 531 3181 756 
Q 3513 1525 3513 2578 
Q 3513 3081 3344 3228 
Q 3253 3309 3041 3309 
Q 2778 3309 2431 3222 
Q 1819 1581 1416 653 
Q 1272 325 1175 200 
Q 1075 72 966 72 
Q 906 72 856 138 
Q 800 209 800 328 
Q 800 406 881 547 
Q 891 566 959 681 
Q 997 747 1025 794 
Q 1406 1475 2094 3150 
Q 1866 3078 1191 2825 
Q 1050 2753 953 2753 
Q 834 2753 747 2944 
Q 663 3131 659 3413 
L 806 3463 
Q 859 3188 1044 3188 
Q 1244 3188 2188 3438 
z
M 4525 2188 
Q 5025 2209 5369 2247 
Q 5466 2256 5466 2363 
Q 5466 2650 5191 3053 
Q 4950 3400 4453 3706 
L 4538 3859 
Q 4906 3703 5122 3541 
Q 5319 3394 5497 3169 
Q 5978 2575 5978 1997 
Q 5978 1650 5788 1650 
Q 5678 1650 5600 1772 
Q 5491 1934 5147 1972 
Q 4866 2003 4531 2009 
L 4525 2188 
z
" transform="scale(0.015625)"/>
     </defs>
     <use xlink:href="#IPAexMincho-7d30"/>
     <use xlink:href="#IPAexMincho-304b" x="100"/>
     <use xlink:href="#IPAexMincho-3044" x="200"/>
     <use xlink:href="#IPAexMincho-5206" x="300"/>
     <use xlink:href="#IPAexMincho-5272" x="400"/>
    </g>
   </g>
  </g>
 </g>
 <defs>
  <clipPath id="p3c2bedc592">
   <rect x="66.36125" y="12.6" width="365.574375" height="261.1575"/>
  </clipPath>
  <clipPath id="p2722a2bca1">
   <rect x="485.825625" y="12.6" width="365.574375" height="261.1575"/>
  </clipPath>
 </defs>
</svg>
