<?xml version="1.0" encoding="utf-8" standalone="no"?>
<!DOCTYPE svg PUBLIC "-//W3C//DTD SVG 1.1//EN"
  "http://www.w3.org/Graphics/SVG/1.1/DTD/svg11.dtd">
<svg xmlns:xlink="http://www.w3.org/1999/xlink" width="864pt" height="360pt" viewBox="0 0 864 360" xmlns="http://www.w3.org/2000/svg" version="1.1">
 <metadata>
  <rdf:RDF xmlns:dc="http://purl.org/dc/elements/1.1/" xmlns:cc="http://creativecommons.org/ns#" xmlns:rdf="http://www.w3.org/1999/02/22-rdf-syntax-ns#">
   <cc:Work>
    <dc:type rdf:resource="http://purl.org/dc/dcmitype/StillImage"/>
    <dc:date>2024-03-06T11:32:36.834134</dc:date>
    <dc:format>image/svg+xml</dc:format>
    <dc:creator>
     <cc:Agent>
      <dc:title>Matplotlib v3.7.0, https://matplotlib.org/</dc:title>
     </cc:Agent>
    </dc:creator>
   </cc:Work>
  </rdf:RDF>
 </metadata>
 <defs>
  <style type="text/css">*{stroke-linejoin: round; stroke-linecap: butt}</style>
 </defs>
 <g id="figure_1">
  <g id="patch_1">
   <path d="M 0 360 
L 864 360 
L 864 0 
L 0 0 
L 0 360 
z
" style="fill: none"/>
  </g>
  <g id="axes_1">
   <g id="patch_2">
    <path d="M 109.9475 289 
L 472.39375 289 
L 472.39375 25.44 
L 109.9475 25.44 
L 109.9475 289 
z
" style="fill: none"/>
   </g>
   <g id="matplotlib.axis_1">
    <g id="xtick_1">
     <g id="line2d_1">
      <defs>
       <path id="m7cadb4277a" d="M 0 0 
L 0 3.5 
" style="stroke: #000000; stroke-width: 0.8"/>
      </defs>
      <g>
       <use xlink:href="#m7cadb4277a" x="109.9475" y="289" style="stroke: #000000; stroke-width: 0.8"/>
      </g>
     </g>
     <g id="text_1">
      <!-- 1 -->
      <g transform="translate(102.389375 313.9775) scale(0.24 -0.24)">
       <defs>
        <path id="IPAexGothic-31" d="M 2463 63 
L 1900 63 
L 1900 4103 
Q 1372 3922 788 3797 
L 684 4231 
Q 1519 4441 2106 4731 
L 2463 4731 
L 2463 63 
z
" transform="scale(0.015625)"/>
       </defs>
       <use xlink:href="#IPAexGothic-31"/>
      </g>
     </g>
    </g>
    <g id="xtick_2">
     <g id="line2d_2">
      <g>
       <use xlink:href="#m7cadb4277a" x="230.357496" y="289" style="stroke: #000000; stroke-width: 0.8"/>
      </g>
     </g>
     <g id="text_2">
      <!-- 100 -->
      <g transform="translate(207.683121 313.9775) scale(0.24 -0.24)">
       <defs>
        <path id="IPAexGothic-30" d="M 2038 4725 
Q 2881 4725 3334 3944 
Q 3694 3325 3694 2344 
Q 3694 1372 3334 741 
Q 2888 -31 2016 -31 
Q 1147 -31 700 741 
Q 341 1372 341 2350 
Q 341 3713 1000 4334 
Q 1419 4725 2038 4725 
z
M 2016 4266 
Q 1516 4266 1228 3759 
Q 934 3247 934 2344 
Q 934 1456 1222 947 
Q 1513 447 2016 447 
Q 2619 447 2909 1153 
Q 3100 1622 3100 2375 
Q 3100 3256 2806 3759 
Q 2509 4266 2016 4266 
z
" transform="scale(0.015625)"/>
       </defs>
       <use xlink:href="#IPAexGothic-31"/>
       <use xlink:href="#IPAexGothic-30" x="62.988281"/>
       <use xlink:href="#IPAexGothic-30" x="125.976562"/>
      </g>
     </g>
    </g>
    <g id="xtick_3">
     <g id="line2d_3">
      <g>
       <use xlink:href="#m7cadb4277a" x="351.983754" y="289" style="stroke: #000000; stroke-width: 0.8"/>
      </g>
     </g>
     <g id="text_3">
      <!-- 200 -->
      <g transform="translate(329.309379 313.9775) scale(0.24 -0.24)">
       <defs>
        <path id="IPAexGothic-32" d="M 3659 63 
L 447 63 
L 447 594 
Q 825 1475 1894 2203 
L 2072 2322 
Q 2619 2697 2791 2906 
Q 2988 3153 2988 3444 
Q 2988 3772 2756 4003 
Q 2500 4259 2084 4259 
Q 1250 4259 991 3328 
L 497 3506 
Q 853 4725 2116 4725 
Q 2806 4725 3216 4316 
Q 3575 3947 3575 3425 
Q 3575 3038 3344 2722 
Q 3131 2416 2366 1938 
L 2231 1856 
Q 1256 1253 978 569 
L 3659 569 
L 3659 63 
z
" transform="scale(0.015625)"/>
       </defs>
       <use xlink:href="#IPAexGothic-32"/>
       <use xlink:href="#IPAexGothic-30" x="62.988281"/>
       <use xlink:href="#IPAexGothic-30" x="125.976562"/>
      </g>
     </g>
    </g>
    <g id="text_4">
     <!-- バッチ目 -->
     <g transform="translate(243.170625 340.515) scale(0.24 -0.24)">
      <defs>
       <path id="IPAexGothic-30d0" d="M 428 903 
Q 1472 2069 1972 3884 
L 2497 3700 
Q 1938 1778 897 544 
L 428 903 
z
M 5441 678 
Q 4694 2275 3684 3725 
L 4147 3969 
Q 5050 2734 5956 1025 
L 5441 678 
z
M 5697 4116 
Q 5334 4656 4941 4984 
L 5241 5216 
Q 5625 4906 6016 4391 
L 5697 4116 
z
M 5094 3641 
Q 4803 4131 4356 4531 
L 4678 4781 
Q 5050 4472 5434 3922 
L 5094 3641 
z
" transform="scale(0.015625)"/>
       <path id="IPAexGothic-30c3" d="M 1775 1984 
Q 1553 2666 1275 3175 
L 1716 3391 
Q 2034 2866 2247 2209 
L 1775 1984 
z
M 3003 2297 
Q 2813 2978 2522 3469 
L 2978 3681 
Q 3291 3166 3484 2522 
L 3003 2297 
z
M 1928 372 
Q 3094 744 3731 1569 
Q 4275 2263 4469 3525 
L 4975 3406 
Q 4734 1975 4016 1119 
Q 3406 391 2266 -44 
L 1928 372 
z
" transform="scale(0.015625)"/>
       <path id="IPAexGothic-30c1" d="M 3088 2853 
L 3088 3981 
Q 2359 3847 1531 3797 
L 1288 4238 
Q 3200 4344 4553 4872 
L 4909 4456 
Q 4244 4216 3606 4078 
L 3606 2913 
L 5806 2913 
L 5806 2459 
L 3600 2459 
Q 3559 1422 3188 850 
Q 2722 138 1738 -256 
L 1347 153 
Q 2319 500 2709 1081 
Q 3031 1563 3081 2400 
L 597 2400 
L 597 2853 
L 3088 2853 
z
" transform="scale(0.015625)"/>
       <path id="IPAexGothic-76ee" d="M 5266 4819 
L 5266 -384 
L 4791 -384 
L 4791 38 
L 1600 38 
L 1600 -384 
L 1125 -384 
L 1125 4819 
L 5266 4819 
z
M 1600 4416 
L 1600 3384 
L 4791 3384 
L 4791 4416 
L 1600 4416 
z
M 1600 2988 
L 1600 1966 
L 4791 1966 
L 4791 2988 
L 1600 2988 
z
M 1600 1563 
L 1600 447 
L 4791 447 
L 4791 1563 
L 1600 1563 
z
" transform="scale(0.015625)"/>
      </defs>
      <use xlink:href="#IPAexGothic-30d0"/>
      <use xlink:href="#IPAexGothic-30c3" x="100"/>
      <use xlink:href="#IPAexGothic-30c1" x="200"/>
      <use xlink:href="#IPAexGothic-76ee" x="300"/>
     </g>
    </g>
   </g>
   <g id="matplotlib.axis_2">
    <g id="ytick_1">
     <g id="line2d_4">
      <defs>
       <path id="m4e0f25d49d" d="M 0 0 
L -3.5 0 
" style="stroke: #000000; stroke-width: 0.8"/>
      </defs>
      <g>
       <use xlink:href="#m4e0f25d49d" x="109.9475" y="289" style="stroke: #000000; stroke-width: 0.8"/>
      </g>
     </g>
     <g id="text_5">
      <!-- 0 -->
      <g transform="translate(87.83125 297.98875) scale(0.24 -0.24)">
       <use xlink:href="#IPAexGothic-30"/>
      </g>
     </g>
    </g>
    <g id="ytick_2">
     <g id="line2d_5">
      <g>
       <use xlink:href="#m4e0f25d49d" x="109.9475" y="201.146667" style="stroke: #000000; stroke-width: 0.8"/>
      </g>
     </g>
     <g id="text_6">
      <!-- 500 -->
      <g transform="translate(57.59875 210.135417) scale(0.24 -0.24)">
       <defs>
        <path id="IPAexGothic-35" d="M 1178 2603 
Q 1634 2963 2172 2963 
Q 2816 2963 3241 2528 
Q 3638 2113 3638 1497 
Q 3638 938 3297 513 
Q 2869 -31 2031 -31 
Q 959 -31 469 784 
L 938 1028 
Q 1309 434 2013 434 
Q 2466 434 2769 716 
Q 3081 1013 3081 1503 
Q 3081 1966 2806 2241 
Q 2519 2528 2056 2528 
Q 1406 2528 1072 2028 
L 591 2091 
L 884 4634 
L 3406 4634 
L 3406 4153 
L 1341 4153 
L 1134 2603 
L 1178 2603 
z
" transform="scale(0.015625)"/>
       </defs>
       <use xlink:href="#IPAexGothic-35"/>
       <use xlink:href="#IPAexGothic-30" x="62.988281"/>
       <use xlink:href="#IPAexGothic-30" x="125.976562"/>
      </g>
     </g>
    </g>
    <g id="ytick_3">
     <g id="line2d_6">
      <g>
       <use xlink:href="#m4e0f25d49d" x="109.9475" y="113.293333" style="stroke: #000000; stroke-width: 0.8"/>
      </g>
     </g>
     <g id="text_7">
      <!-- 1000 -->
      <g transform="translate(42.4825 122.282083) scale(0.24 -0.24)">
       <use xlink:href="#IPAexGothic-31"/>
       <use xlink:href="#IPAexGothic-30" x="62.988281"/>
       <use xlink:href="#IPAexGothic-30" x="125.976562"/>
       <use xlink:href="#IPAexGothic-30" x="188.964844"/>
      </g>
     </g>
    </g>
    <g id="ytick_4">
     <g id="line2d_7">
      <g>
       <use xlink:href="#m4e0f25d49d" x="109.9475" y="25.44" style="stroke: #000000; stroke-width: 0.8"/>
      </g>
     </g>
     <g id="text_8">
      <!-- 1500 -->
      <g transform="translate(42.4825 34.42875) scale(0.24 -0.24)">
       <use xlink:href="#IPAexGothic-31"/>
       <use xlink:href="#IPAexGothic-35" x="62.988281"/>
       <use xlink:href="#IPAexGothic-30" x="125.976562"/>
       <use xlink:href="#IPAexGothic-30" x="188.964844"/>
      </g>
     </g>
    </g>
    <g id="text_9">
     <!-- 最集中クエリ数 -->
     <g transform="translate(33.9225 241.22) rotate(-90) scale(0.24 -0.24)">
      <defs>
       <path id="IPAexGothic-6700" d="M 5106 5050 
L 5106 3275 
L 1284 3275 
L 1284 5050 
L 5106 5050 
z
M 1741 4697 
L 1741 4331 
L 4656 4331 
L 4656 4697 
L 1741 4697 
z
M 1741 4000 
L 1741 3622 
L 4656 3622 
L 4656 4000 
L 1741 4000 
z
M 2925 2528 
L 2925 -450 
L 2503 -450 
L 2503 228 
Q 1869 94 525 -78 
L 409 356 
Q 491 363 609 372 
Q 725 381 756 381 
L 994 403 
L 994 2528 
L 384 2528 
L 384 2900 
L 6016 2900 
L 6016 2528 
L 2925 2528 
z
M 2503 2528 
L 1400 2528 
L 1400 2088 
L 2503 2088 
L 2503 2528 
z
M 2503 1763 
L 1400 1763 
L 1400 1309 
L 2503 1309 
L 2503 1763 
z
M 2503 984 
L 1400 984 
L 1400 434 
L 1759 472 
Q 2159 500 2503 550 
L 2503 984 
z
M 4844 588 
Q 5350 225 6047 -9 
L 5753 -419 
Q 5066 -128 4556 288 
Q 4000 -241 3281 -534 
L 3006 -163 
Q 3734 84 4263 563 
Q 3722 1141 3463 1803 
L 3084 1803 
L 3084 2169 
L 5425 2169 
L 5656 1963 
Q 5328 1178 4881 638 
L 4844 588 
z
M 4538 850 
Q 4884 1275 5119 1803 
L 3872 1803 
Q 4113 1275 4538 850 
z
" transform="scale(0.015625)"/>
       <path id="IPAexGothic-96c6" d="M 3000 4634 
Q 3197 5047 3275 5338 
L 3775 5216 
Q 3634 4922 3447 4634 
L 5625 4634 
L 5625 4269 
L 3416 4269 
L 3416 3884 
L 5291 3884 
L 5291 3553 
L 3416 3553 
L 3416 3175 
L 5291 3175 
L 5291 2844 
L 3416 2844 
L 3416 2431 
L 5759 2431 
L 5759 2066 
L 3403 2066 
L 3403 1659 
L 5981 1659 
L 5981 1281 
L 3741 1281 
Q 4628 538 6078 141 
L 5759 -275 
Q 4266 222 3403 1122 
L 3403 -447 
L 2950 -447 
L 2950 1091 
Q 2094 69 600 -409 
L 294 -25 
Q 1778 388 2644 1281 
L 416 1281 
L 416 1659 
L 2950 1659 
L 2950 2066 
L 1222 2066 
L 1222 3744 
Q 894 3322 600 3066 
L 306 3375 
Q 1209 4163 1625 5338 
L 2091 5244 
Q 1950 4909 1797 4634 
L 3000 4634 
z
M 1663 4269 
L 1663 3884 
L 3000 3884 
L 3000 4269 
L 1663 4269 
z
M 1663 3553 
L 1663 3175 
L 3000 3175 
L 3000 3553 
L 1663 3553 
z
M 1663 2844 
L 1663 2431 
L 3000 2431 
L 3000 2844 
L 1663 2844 
z
" transform="scale(0.015625)"/>
       <path id="IPAexGothic-4e2d" d="M 2925 3950 
L 2925 5209 
L 3425 5209 
L 3425 3950 
L 5613 3950 
L 5613 1125 
L 5125 1125 
L 5125 1594 
L 3425 1594 
L 3425 -447 
L 2925 -447 
L 2925 1594 
L 1263 1594 
L 1263 1094 
L 775 1094 
L 775 3950 
L 2925 3950 
z
M 1263 3534 
L 1263 2009 
L 2925 2009 
L 2925 3534 
L 1263 3534 
z
M 5125 2009 
L 5125 3534 
L 3425 3534 
L 3425 2009 
L 5125 2009 
z
" transform="scale(0.015625)"/>
       <path id="IPAexGothic-30af" d="M 4934 4191 
L 5272 3941 
Q 4894 2334 4031 1300 
Q 3275 391 2028 -225 
L 1656 184 
Q 2875 691 3641 1625 
Q 4403 2553 4691 3731 
L 2903 3731 
Q 2188 2653 1356 1959 
L 978 2309 
Q 2328 3400 2931 5022 
L 3422 4881 
Q 3363 4672 3141 4191 
L 4934 4191 
z
" transform="scale(0.015625)"/>
       <path id="IPAexGothic-30a8" d="M 1109 4063 
L 5294 4063 
L 5294 3594 
L 3444 3594 
L 3444 988 
L 5759 988 
L 5759 513 
L 641 513 
L 641 988 
L 2913 988 
L 2913 3594 
L 1109 3594 
L 1109 4063 
z
" transform="scale(0.015625)"/>
       <path id="IPAexGothic-30ea" d="M 1678 4788 
L 2222 4788 
L 2222 1900 
L 1678 1900 
L 1678 4788 
z
M 4084 4909 
L 4628 4909 
L 4628 2753 
Q 4628 1563 4150 794 
Q 3725 119 2772 -353 
L 2394 78 
Q 3334 494 3706 1094 
Q 4084 1703 4084 2725 
L 4084 4909 
z
" transform="scale(0.015625)"/>
       <path id="IPAexGothic-6570" d="M 2847 1553 
Q 2741 1006 2425 534 
Q 2625 441 3091 203 
L 2809 -188 
Q 2541 0 2144 209 
Q 1569 -291 703 -500 
L 422 -125 
Q 1263 19 1747 406 
Q 1222 650 734 816 
Q 975 1172 1147 1503 
L 1172 1553 
L 359 1553 
L 359 1925 
L 1344 1925 
Q 1406 2066 1569 2475 
L 1691 2450 
L 1691 3372 
Q 1250 2738 550 2303 
L 275 2663 
Q 1019 3013 1528 3641 
L 378 3641 
L 378 4006 
L 1691 4006 
L 1691 5313 
L 2113 5313 
L 2113 4006 
L 3297 4006 
L 3297 3641 
L 2113 3641 
L 2113 3513 
Q 2659 3291 3175 2963 
L 2956 2584 
Q 2553 2922 2113 3159 
L 2113 2372 
L 1966 2372 
Q 1928 2288 1872 2141 
Q 1806 1975 1784 1925 
L 3378 1925 
L 3378 1553 
L 2847 1553 
z
M 2419 1553 
L 1613 1553 
Q 1478 1269 1313 997 
Q 1559 909 2047 703 
Q 2313 1047 2419 1553 
z
M 4363 1163 
Q 3953 1781 3738 2638 
Q 3575 2281 3428 2016 
L 3103 2406 
Q 3675 3444 3916 5291 
L 4363 5200 
Q 4284 4666 4197 4197 
L 6009 4197 
L 6009 3775 
L 5503 3775 
Q 5397 2275 4869 1191 
Q 5419 503 6144 75 
L 5822 -378 
Q 5188 106 4631 788 
Q 4113 34 3341 -463 
L 3031 -78 
Q 3888 406 4363 1163 
z
M 4588 1594 
Q 4938 2388 5059 3775 
L 4100 3775 
Q 4041 3519 3972 3288 
Q 3981 3250 3991 3194 
Q 4175 2256 4588 1594 
z
M 1003 4116 
Q 878 4544 638 4934 
L 1053 5094 
Q 1247 4788 1438 4269 
L 1003 4116 
z
M 2316 4269 
Q 2550 4688 2688 5131 
L 3128 4997 
Q 2966 4588 2675 4128 
L 2316 4269 
z
" transform="scale(0.015625)"/>
      </defs>
      <use xlink:href="#IPAexGothic-6700"/>
      <use xlink:href="#IPAexGothic-96c6" x="100"/>
      <use xlink:href="#IPAexGothic-4e2d" x="200"/>
      <use xlink:href="#IPAexGothic-30af" x="300"/>
      <use xlink:href="#IPAexGothic-30a8" x="400"/>
      <use xlink:href="#IPAexGothic-30ea" x="500"/>
      <use xlink:href="#IPAexGothic-6570" x="600"/>
     </g>
    </g>
   </g>
   <g id="line2d_8">
    <path d="M 109.9475 193.766987 
L 111.163763 211.864773 
L 112.380025 214.500373 
L 113.596288 219.42016 
L 114.81255 221.880053 
L 116.028813 216.960267 
L 117.245076 218.541627 
L 118.461338 223.812827 
L 119.677601 223.461413 
L 120.893863 226.624133 
L 122.110126 225.569893 
L 123.326388 225.394187 
L 124.542651 229.96256 
L 125.758914 226.097013 
L 126.975176 225.21848 
L 128.191439 228.556907 
L 129.407701 225.569893 
L 130.623964 225.569893 
L 131.840227 224.69136 
L 133.056489 229.786853 
L 134.272752 222.05576 
L 135.489014 227.502667 
L 136.705277 225.569893 
L 137.921539 225.921307 
L 139.137802 228.029787 
L 140.354065 228.205493 
L 141.570327 223.11 
L 142.78659 221.880053 
L 144.002852 221.52864 
L 145.219115 227.678373 
L 146.435378 224.69136 
L 147.65164 222.934293 
L 148.867903 222.934293 
L 150.084165 225.394187 
L 151.300428 225.7456 
L 152.51669 223.11 
L 153.732953 222.934293 
L 154.949216 228.732613 
L 156.165478 224.339947 
L 157.381741 223.11 
L 158.598003 229.611147 
L 159.814266 226.448427 
L 161.030529 228.90832 
L 162.246791 226.448427 
L 163.463054 225.7456 
L 164.679316 228.3812 
L 165.895579 229.43544 
L 167.111841 218.89304 
L 168.328104 224.867067 
L 169.544367 223.988533 
L 170.760629 224.69136 
L 171.976892 224.339947 
L 173.193154 229.084027 
L 175.62568 225.394187 
L 176.841942 224.867067 
L 178.058205 227.678373 
L 179.274467 227.32696 
L 180.49073 229.611147 
L 181.706992 230.665387 
L 182.923255 226.975547 
L 184.139518 225.921307 
L 185.35578 228.3812 
L 186.572043 226.448427 
L 187.788305 225.921307 
L 190.220831 225.21848 
L 191.437093 225.394187 
L 192.653356 231.0168 
L 193.869618 232.773867 
L 195.085881 230.665387 
L 196.302143 230.138267 
L 197.518406 224.515653 
L 198.734669 229.611147 
L 199.950931 231.895333 
L 201.167194 230.48968 
L 202.383456 226.448427 
L 203.599719 223.11 
L 204.815982 225.394187 
L 206.032244 229.611147 
L 207.248507 227.502667 
L 208.464769 228.732613 
L 209.681032 223.988533 
L 210.897294 231.895333 
L 212.113557 223.461413 
L 213.32982 228.556907 
L 214.546082 229.43544 
L 215.762345 229.43544 
L 216.978607 230.48968 
L 218.19487 230.841093 
L 220.627395 226.975547 
L 221.843658 230.48968 
L 223.05992 225.042773 
L 224.276183 228.556907 
L 225.492445 225.394187 
L 226.708708 229.084027 
L 227.924971 222.758587 
L 229.141233 229.96256 
L 230.357496 228.556907 
L 231.573758 225.21848 
L 232.790021 223.11 
L 234.006284 230.48968 
L 236.438809 226.79984 
L 237.655071 227.151253 
L 238.871334 228.029787 
L 240.087596 228.205493 
L 241.303859 226.448427 
L 242.520122 225.394187 
L 243.736384 224.867067 
L 244.952647 229.611147 
L 246.168909 226.975547 
L 247.385172 224.69136 
L 248.601435 224.69136 
L 249.817697 228.3812 
L 251.03396 228.90832 
L 252.250222 231.368213 
L 253.466485 230.138267 
L 254.682747 227.151253 
L 255.89901 230.313973 
L 257.115273 228.90832 
L 258.331535 234.17952 
L 259.547798 223.812827 
L 260.76406 229.96256 
L 261.980323 229.786853 
L 263.196586 232.07104 
L 264.412848 226.097013 
L 265.629111 230.48968 
L 266.845373 224.69136 
L 268.061636 226.79984 
L 269.277898 231.0168 
L 270.494161 227.32696 
L 271.710424 225.921307 
L 272.926686 232.07104 
L 274.142949 228.90832 
L 275.359211 230.665387 
L 276.575474 229.084027 
L 277.791737 229.259733 
L 279.007999 223.63712 
L 280.224262 229.43544 
L 281.440524 228.732613 
L 282.656787 227.32696 
L 283.873049 222.58288 
L 285.089312 227.678373 
L 286.305575 227.151253 
L 287.521837 224.69136 
L 288.7381 225.7456 
L 289.954362 224.515653 
L 291.170625 228.3812 
L 293.60315 228.3812 
L 294.819413 225.569893 
L 296.035675 232.07104 
L 297.251938 232.949573 
L 298.468201 231.192507 
L 299.684463 230.841093 
L 300.900726 222.407173 
L 302.116988 230.841093 
L 303.333251 225.042773 
L 304.549513 222.758587 
L 305.765776 227.678373 
L 306.982039 226.097013 
L 308.198301 228.3812 
L 309.414564 229.43544 
L 310.630826 231.54392 
L 311.847089 230.48968 
L 313.063352 229.611147 
L 314.279614 228.205493 
L 315.495877 225.7456 
L 316.712139 228.732613 
L 317.928402 229.786853 
L 319.144664 231.719627 
L 320.360927 226.79984 
L 321.57719 226.27272 
L 322.793452 230.138267 
L 324.009715 227.678373 
L 325.225977 229.611147 
L 326.44224 223.461413 
L 327.658503 226.448427 
L 328.874765 226.27272 
L 330.091028 228.205493 
L 331.30729 227.32696 
L 332.523553 221.880053 
L 333.739815 231.54392 
L 334.956078 224.69136 
L 336.172341 226.27272 
L 337.388603 228.205493 
L 338.604866 225.042773 
L 339.821128 232.07104 
L 341.037391 231.0168 
L 342.253654 231.192507 
L 343.469916 229.43544 
L 344.686179 221.704347 
L 345.902441 224.515653 
L 347.118704 227.85408 
L 348.334966 225.394187 
L 349.551229 224.339947 
L 350.767492 230.48968 
L 351.983754 224.69136 
L 353.200017 223.812827 
L 354.416279 230.665387 
L 355.632542 229.611147 
L 356.848805 227.502667 
L 358.065067 228.556907 
L 359.28133 228.732613 
L 360.497592 229.96256 
L 361.713855 226.097013 
L 364.14638 228.90832 
L 365.362643 229.259733 
L 367.795168 231.719627 
L 369.01143 227.678373 
L 370.227693 229.96256 
L 371.443956 222.58288 
L 372.660218 227.85408 
L 373.876481 227.32696 
L 375.092743 231.368213 
L 376.309006 225.7456 
L 377.525268 229.259733 
L 378.741531 230.48968 
L 379.957794 225.921307 
L 381.174056 230.138267 
L 382.390319 227.32696 
L 383.606581 227.85408 
L 384.822844 228.732613 
L 386.039107 225.569893 
L 387.255369 226.27272 
L 388.471632 228.029787 
L 389.687894 229.084027 
L 390.904157 227.151253 
L 392.120419 228.029787 
L 393.336682 228.029787 
L 395.769207 226.624133 
L 396.98547 228.732613 
L 398.201732 224.867067 
L 399.417995 231.192507 
L 400.634258 229.96256 
L 401.85052 222.758587 
L 403.066783 229.786853 
L 404.283045 221.880053 
L 405.499308 226.975547 
L 406.71557 232.773867 
L 407.931833 226.448427 
L 409.148096 229.611147 
L 410.364358 228.205493 
L 411.580621 220.122987 
L 412.796883 229.96256 
L 414.013146 231.719627 
L 415.229409 228.029787 
L 416.445671 223.812827 
L 417.661934 230.665387 
L 418.878196 226.624133 
L 420.094459 228.90832 
L 421.310721 228.205493 
L 422.526984 225.569893 
L 423.743247 227.678373 
L 424.959509 225.569893 
L 426.175772 225.569893 
L 427.392034 227.85408 
L 428.608297 231.0168 
L 429.82456 226.975547 
L 431.040822 227.32696 
L 432.257085 228.3812 
L 433.473347 225.042773 
L 434.68961 226.097013 
L 435.905872 229.43544 
L 437.122135 227.678373 
L 438.338398 222.758587 
L 439.55466 225.921307 
L 440.770923 226.79984 
L 441.987185 228.90832 
L 443.203448 227.85408 
L 444.419711 227.85408 
L 445.635973 232.07104 
L 446.852236 225.7456 
L 448.068498 230.313973 
L 449.284761 228.205493 
L 451.717286 229.611147 
L 452.933549 225.042773 
L 454.149811 225.042773 
L 455.366074 226.27272 
L 456.582336 223.11 
L 457.798599 223.988533 
L 459.014862 225.394187 
L 460.231124 232.246747 
L 461.447387 226.79984 
L 462.663649 223.812827 
L 463.879912 230.48968 
L 465.096174 230.313973 
L 466.312437 228.029787 
L 467.5287 226.27272 
L 468.744962 225.21848 
L 469.961225 227.32696 
L 471.177487 227.85408 
L 472.39375 228.90832 
L 473.610013 231.895333 
L 474.826275 227.678373 
L 476.042538 232.773867 
L 477.2588 228.556907 
L 478.475063 227.502667 
L 479.691326 229.786853 
L 480.907588 232.422453 
L 482.123851 229.786853 
L 483.340113 226.624133 
L 484.556376 228.3812 
L 485.772638 229.786853 
L 486.988901 228.556907 
L 488.205164 230.841093 
L 489.421426 228.556907 
L 490.637689 227.678373 
L 493.070214 232.773867 
L 494.286477 228.556907 
L 495.502739 227.678373 
L 496.719002 229.43544 
L 497.935264 228.029787 
L 499.151527 220.650107 
L 500.367789 227.151253 
L 501.584052 227.85408 
L 502.800315 230.313973 
L 504.016577 226.624133 
L 505.23284 230.48968 
L 506.449102 229.084027 
L 507.665365 229.786853 
L 508.881628 228.556907 
L 510.09789 228.556907 
L 511.314153 225.921307 
L 512.530415 226.975547 
L 513.746678 228.556907 
L 514.96294 227.678373 
L 516.179203 226.27272 
L 517.395466 225.7456 
L 518.611728 228.3812 
L 519.827991 227.502667 
L 521.044253 226.79984 
L 522.260516 228.90832 
L 523.476779 228.90832 
L 524.693041 225.21848 
L 525.909304 227.151253 
L 527.125566 229.611147 
L 528.341829 224.339947 
L 529.558091 228.3812 
L 530.774354 231.719627 
L 531.990617 227.678373 
L 533.206879 230.665387 
L 534.423142 229.084027 
L 535.639404 231.54392 
L 536.855667 226.624133 
L 538.07193 228.732613 
L 539.288192 227.85408 
L 540.504455 228.556907 
L 541.720717 226.097013 
L 542.93698 227.85408 
L 544.153242 228.90832 
L 545.369505 222.934293 
L 546.585768 226.79984 
L 547.80203 229.259733 
L 549.018293 227.678373 
L 550.234555 228.90832 
L 551.450818 224.16424 
L 552.667081 228.556907 
L 553.883343 228.3812 
L 556.315868 227.32696 
L 557.532131 228.90832 
L 558.748393 222.758587 
L 559.964656 229.611147 
L 561.180919 225.21848 
L 562.397181 231.192507 
L 563.613444 226.097013 
L 564.829706 229.259733 
L 566.045969 226.27272 
L 567.262232 226.097013 
L 568.478494 228.556907 
L 569.694757 228.3812 
L 570.911019 226.624133 
L 572.127282 222.58288 
L 573.343544 226.097013 
L 574.559807 231.54392 
L 575.77607 231.368213 
L 576.992332 230.138267 
L 578.208595 230.48968 
L 579.424857 226.975547 
L 580.64112 229.611147 
L 581.857383 230.665387 
L 583.073645 233.300987 
L 584.289908 226.975547 
L 585.50617 231.368213 
L 587.938695 227.85408 
L 589.154958 227.151253 
L 590.371221 224.69136 
L 591.587483 226.79984 
L 592.803746 229.786853 
L 594.020008 229.43544 
L 595.236271 227.678373 
L 596.452534 228.90832 
L 597.668796 229.259733 
L 598.885059 226.79984 
L 600.101321 227.502667 
L 601.317584 225.921307 
L 602.533846 227.85408 
L 603.750109 225.394187 
L 604.966372 232.422453 
L 606.182634 228.556907 
L 607.398897 230.138267 
L 608.615159 224.515653 
L 609.831422 226.448427 
L 611.047685 222.934293 
L 612.263947 224.515653 
L 613.48021 225.7456 
L 614.696472 229.084027 
L 615.912735 231.895333 
L 618.34526 225.21848 
L 619.561523 223.63712 
L 620.777785 228.90832 
L 621.994048 226.79984 
L 623.21031 225.394187 
L 624.426573 233.12528 
L 625.642836 225.7456 
L 626.859098 231.719627 
L 628.075361 221.704347 
L 629.291623 226.448427 
L 630.507886 230.313973 
L 631.724148 223.285707 
L 632.940411 229.96256 
L 634.156674 231.54392 
L 635.372936 228.90832 
L 636.589199 229.43544 
L 637.805461 224.515653 
L 639.021724 229.786853 
L 640.237987 227.85408 
L 641.454249 226.975547 
L 642.670512 226.27272 
L 643.886774 226.975547 
L 645.103037 225.7456 
L 646.319299 230.313973 
L 647.535562 231.0168 
L 648.751825 228.029787 
L 649.968087 231.192507 
L 651.18435 229.96256 
L 652.400612 225.921307 
L 653.616875 228.90832 
L 654.833138 227.151253 
L 656.0494 227.151253 
L 657.265663 228.556907 
L 658.481925 227.678373 
L 659.698188 227.678373 
L 660.914451 228.732613 
L 662.130713 219.068747 
L 663.346976 227.85408 
L 664.563238 228.732613 
L 665.779501 227.151253 
L 666.995763 224.339947 
L 668.212026 226.624133 
L 669.428289 231.192507 
L 670.644551 221.352933 
L 671.860814 221.00152 
L 673.077076 230.138267 
L 674.293339 229.786853 
L 675.509602 226.975547 
L 676.725864 228.732613 
L 677.942127 228.3812 
L 679.158389 225.7456 
L 680.374652 227.678373 
L 681.590914 225.7456 
L 682.807177 227.85408 
L 684.02344 223.812827 
L 685.239702 227.502667 
L 687.672227 228.556907 
L 688.88849 228.205493 
L 690.104753 228.90832 
L 691.321015 227.32696 
L 692.537278 224.339947 
L 693.75354 230.665387 
L 694.969803 227.678373 
L 696.186065 229.96256 
L 697.402328 224.867067 
L 698.618591 231.192507 
L 699.834853 227.502667 
L 701.051116 227.502667 
L 702.267378 226.27272 
L 703.483641 226.624133 
L 704.699904 226.097013 
L 705.916166 225.7456 
L 707.132429 225.21848 
L 708.348691 228.029787 
L 710.781216 225.569893 
L 711.997479 230.665387 
L 713.213742 230.313973 
L 714.430004 228.732613 
L 714.430004 228.732613 
" clip-path="url(#pe74a6ff0b6)" style="fill: none; stroke: #1f77b4; stroke-width: 1.5; stroke-linecap: square"/>
   </g>
   <g id="line2d_9">
    <path d="M 121.3058 -1 
L 122.110126 60.932747 
L 123.326388 80.7876 
L 125.758914 103.805173 
L 126.975176 111.536267 
L 128.191439 116.807467 
L 129.407701 114.347573 
L 130.623964 109.25208 
L 131.840227 112.590507 
L 133.056489 109.7792 
L 134.272752 115.0504 
L 135.489014 111.536267 
L 136.705277 116.280347 
L 137.921539 114.171867 
L 139.137802 106.61648 
L 140.354065 109.25208 
L 141.570327 105.737947 
L 142.78659 114.52328 
L 144.002852 113.117627 
L 145.219115 112.590507 
L 146.435378 116.456053 
L 147.65164 113.117627 
L 148.867903 110.482027 
L 150.084165 112.063387 
L 151.300428 111.184853 
L 152.51669 108.900667 
L 153.732953 114.698987 
L 154.949216 109.25208 
L 156.165478 109.603493 
L 157.381741 109.603493 
L 158.598003 113.644747 
L 159.814266 114.698987 
L 161.030529 114.171867 
L 162.246791 109.954907 
L 163.463054 108.19784 
L 164.679316 112.94192 
L 165.895579 113.293333 
L 167.111841 113.293333 
L 168.328104 111.184853 
L 169.544367 107.67072 
L 170.760629 108.900667 
L 171.976892 114.698987 
L 173.193154 113.644747 
L 174.409417 113.99616 
L 175.62568 109.427787 
L 176.841942 108.19784 
L 178.058205 108.549253 
L 179.274467 111.36056 
L 180.49073 107.495013 
L 181.706992 109.603493 
L 182.923255 110.83344 
L 184.139518 109.954907 
L 185.35578 115.401813 
L 186.572043 110.130613 
L 187.788305 115.401813 
L 189.004568 114.874693 
L 190.220831 110.657733 
L 191.437093 107.495013 
L 192.653356 109.7792 
L 193.869618 113.117627 
L 195.085881 112.239093 
L 196.302143 108.900667 
L 197.518406 108.72496 
L 198.734669 112.590507 
L 201.167194 115.57752 
L 202.383456 112.4148 
L 203.599719 112.063387 
L 204.815982 113.293333 
L 206.032244 111.536267 
L 207.248507 110.83344 
L 208.464769 114.698987 
L 209.681032 113.46904 
L 210.897294 116.63176 
L 212.113557 110.657733 
L 213.32982 111.184853 
L 214.546082 113.293333 
L 215.762345 115.928933 
L 216.978607 110.657733 
L 218.19487 111.184853 
L 219.411133 113.820453 
L 220.627395 112.239093 
L 221.843658 114.171867 
L 223.05992 109.7792 
L 225.492445 110.130613 
L 226.708708 112.4148 
L 227.924971 115.401813 
L 229.141233 117.861707 
L 230.357496 113.820453 
L 231.573758 98.885387 
L 232.790021 111.009147 
L 234.006284 113.644747 
L 235.222546 113.99616 
L 236.438809 116.63176 
L 237.655071 111.711973 
L 238.871334 111.184853 
L 240.087596 114.874693 
L 241.303859 113.117627 
L 242.520122 105.56224 
L 243.736384 111.88768 
L 244.952647 115.226107 
L 246.168909 109.25208 
L 247.385172 111.711973 
L 248.601435 111.88768 
L 249.817697 112.4148 
L 251.03396 105.737947 
L 252.250222 111.88768 
L 253.466485 110.657733 
L 254.682747 112.94192 
L 255.89901 109.954907 
L 257.115273 108.373547 
L 258.331535 112.590507 
L 259.547798 109.603493 
L 260.76406 111.711973 
L 261.980323 110.657733 
L 263.196586 113.117627 
L 264.412848 107.846427 
L 265.629111 112.239093 
L 266.845373 103.45376 
L 268.061636 112.239093 
L 269.277898 113.99616 
L 270.494161 111.536267 
L 271.710424 114.698987 
L 272.926686 110.83344 
L 274.142949 114.347573 
L 276.575474 108.022133 
L 277.791737 103.629467 
L 279.007999 117.15888 
L 280.224262 112.590507 
L 281.440524 115.753227 
L 282.656787 110.657733 
L 283.873049 115.928933 
L 285.089312 111.711973 
L 286.305575 113.99616 
L 287.521837 112.4148 
L 288.7381 109.603493 
L 289.954362 114.698987 
L 291.170625 118.037413 
L 292.386888 115.401813 
L 293.60315 111.009147 
L 294.819413 104.859413 
L 296.035675 115.226107 
L 297.251938 113.99616 
L 298.468201 114.698987 
L 299.684463 111.88768 
L 300.900726 113.820453 
L 302.116988 118.21312 
L 303.333251 109.076373 
L 304.549513 113.99616 
L 305.765776 110.130613 
L 306.982039 107.1436 
L 308.198301 112.766213 
L 309.414564 110.130613 
L 310.630826 114.874693 
L 311.847089 116.983173 
L 313.063352 116.456053 
L 314.279614 112.063387 
L 315.495877 112.766213 
L 316.712139 104.508 
L 317.928402 111.36056 
L 319.144664 116.280347 
L 320.360927 114.874693 
L 321.57719 108.900667 
L 322.793452 112.766213 
L 324.009715 108.72496 
L 325.225977 115.401813 
L 326.44224 107.67072 
L 327.658503 108.022133 
L 328.874765 109.7792 
L 330.091028 115.226107 
L 331.30729 103.102347 
L 332.523553 111.536267 
L 333.739815 112.590507 
L 334.956078 113.99616 
L 336.172341 112.4148 
L 337.388603 111.88768 
L 338.604866 112.766213 
L 339.821128 113.99616 
L 341.037391 116.63176 
L 342.253654 113.99616 
L 343.469916 110.30632 
L 344.686179 111.711973 
L 345.902441 115.401813 
L 347.118704 114.52328 
L 348.334966 108.19784 
L 349.551229 110.130613 
L 350.767492 109.7792 
L 351.983754 113.99616 
L 353.200017 108.373547 
L 354.416279 116.280347 
L 355.632542 110.83344 
L 356.848805 109.427787 
L 359.28133 114.347573 
L 360.497592 113.99616 
L 361.713855 108.72496 
L 362.930117 109.954907 
L 364.14638 114.52328 
L 365.362643 104.683707 
L 366.578905 109.076373 
L 367.795168 113.99616 
L 369.01143 110.30632 
L 370.227693 103.278053 
L 371.443956 110.657733 
L 372.660218 110.657733 
L 373.876481 112.94192 
L 375.092743 116.983173 
L 376.309006 109.25208 
L 377.525268 119.618773 
L 378.741531 116.983173 
L 379.957794 112.239093 
L 381.174056 113.293333 
L 382.390319 115.57752 
L 383.606581 114.171867 
L 384.822844 113.99616 
L 386.039107 103.805173 
L 387.255369 110.130613 
L 388.471632 114.171867 
L 389.687894 112.590507 
L 390.904157 112.4148 
L 392.120419 114.698987 
L 393.336682 113.117627 
L 394.552945 116.456053 
L 395.769207 111.36056 
L 396.98547 111.88768 
L 398.201732 115.928933 
L 399.417995 113.293333 
L 400.634258 106.440773 
L 401.85052 114.347573 
L 403.066783 114.347573 
L 404.283045 106.792187 
L 405.499308 115.401813 
L 406.71557 112.94192 
L 407.931833 117.15888 
L 409.148096 112.063387 
L 410.364358 111.36056 
L 411.580621 112.063387 
L 412.796883 113.46904 
L 414.013146 113.46904 
L 415.229409 112.94192 
L 416.445671 106.440773 
L 417.661934 105.56224 
L 418.878196 112.239093 
L 420.094459 115.226107 
L 421.310721 115.928933 
L 422.526984 109.427787 
L 423.743247 114.698987 
L 424.959509 102.048107 
L 426.175772 113.820453 
L 427.392034 116.10464 
L 428.608297 111.536267 
L 429.82456 115.0504 
L 431.040822 108.19784 
L 432.257085 114.171867 
L 433.473347 112.590507 
L 434.68961 116.280347 
L 435.905872 114.171867 
L 437.122135 110.83344 
L 438.338398 106.265067 
L 439.55466 116.63176 
L 440.770923 116.983173 
L 441.987185 111.711973 
L 443.203448 109.427787 
L 444.419711 113.820453 
L 445.635973 115.753227 
L 446.852236 115.401813 
L 448.068498 112.94192 
L 449.284761 114.698987 
L 450.501023 111.88768 
L 451.717286 113.99616 
L 452.933549 112.94192 
L 454.149811 112.94192 
L 455.366074 106.440773 
L 456.582336 107.319307 
L 457.798599 114.52328 
L 459.014862 114.171867 
L 460.231124 116.807467 
L 461.447387 111.36056 
L 462.663649 109.954907 
L 463.879912 110.130613 
L 465.096174 108.373547 
L 466.312437 111.36056 
L 467.5287 112.94192 
L 468.744962 109.7792 
L 469.961225 113.644747 
L 471.177487 115.753227 
L 472.39375 110.30632 
L 473.610013 108.19784 
L 474.826275 107.1436 
L 476.042538 115.928933 
L 477.2588 112.239093 
L 478.475063 114.347573 
L 479.691326 112.766213 
L 480.907588 115.226107 
L 482.123851 109.603493 
L 483.340113 111.536267 
L 484.556376 116.63176 
L 485.772638 113.46904 
L 486.988901 107.495013 
L 488.205164 108.900667 
L 489.421426 112.94192 
L 490.637689 111.711973 
L 491.853951 107.67072 
L 493.070214 112.766213 
L 494.286477 111.36056 
L 495.502739 108.373547 
L 496.719002 108.373547 
L 497.935264 108.19784 
L 499.151527 114.52328 
L 500.367789 110.482027 
L 501.584052 109.427787 
L 502.800315 109.427787 
L 504.016577 111.009147 
L 505.23284 109.954907 
L 506.449102 115.0504 
L 507.665365 116.983173 
L 508.881628 115.928933 
L 510.09789 112.239093 
L 511.314153 111.009147 
L 512.530415 104.156587 
L 513.746678 115.753227 
L 514.96294 115.226107 
L 516.179203 116.280347 
L 517.395466 105.386533 
L 518.611728 111.711973 
L 519.827991 117.334587 
L 521.044253 109.7792 
L 522.260516 108.72496 
L 523.476779 116.807467 
L 524.693041 106.08936 
L 527.125566 116.63176 
L 528.341829 112.590507 
L 530.774354 108.72496 
L 531.990617 112.94192 
L 534.423142 112.590507 
L 535.639404 109.954907 
L 536.855667 110.83344 
L 538.07193 111.184853 
L 539.288192 113.293333 
L 540.504455 111.88768 
L 541.720717 110.30632 
L 542.93698 109.954907 
L 544.153242 112.4148 
L 545.369505 110.30632 
L 546.585768 114.347573 
L 547.80203 106.08936 
L 549.018293 113.820453 
L 550.234555 112.766213 
L 551.450818 112.4148 
L 552.667081 112.239093 
L 553.883343 117.861707 
L 555.099606 113.99616 
L 556.315868 105.03512 
L 557.532131 108.022133 
L 558.748393 115.226107 
L 559.964656 112.94192 
L 561.180919 114.171867 
L 562.397181 116.280347 
L 564.829706 105.913653 
L 566.045969 106.265067 
L 567.262232 115.401813 
L 568.478494 112.590507 
L 569.694757 108.373547 
L 570.911019 111.88768 
L 572.127282 112.94192 
L 573.343544 107.846427 
L 574.559807 115.0504 
L 575.77607 113.820453 
L 576.992332 116.10464 
L 578.208595 111.88768 
L 579.424857 111.711973 
L 580.64112 110.482027 
L 581.857383 110.130613 
L 583.073645 110.30632 
L 584.289908 115.928933 
L 585.50617 111.36056 
L 586.722433 111.536267 
L 587.938695 113.820453 
L 589.154958 112.766213 
L 590.371221 111.536267 
L 591.587483 110.482027 
L 592.803746 114.698987 
L 594.020008 115.928933 
L 595.236271 111.184853 
L 596.452534 109.076373 
L 597.668796 112.4148 
L 598.885059 110.657733 
L 600.101321 111.88768 
L 601.317584 114.347573 
L 602.533846 111.88768 
L 603.750109 106.967893 
L 604.966372 110.482027 
L 606.182634 112.766213 
L 607.398897 112.4148 
L 608.615159 113.293333 
L 609.831422 115.0504 
L 612.263947 106.61648 
L 613.48021 113.644747 
L 614.696472 112.063387 
L 615.912735 112.590507 
L 617.128997 105.210827 
L 618.34526 113.99616 
L 619.561523 104.859413 
L 620.777785 115.753227 
L 621.994048 108.72496 
L 623.21031 112.063387 
L 624.426573 110.657733 
L 625.642836 114.171867 
L 626.859098 113.820453 
L 628.075361 115.0504 
L 629.291623 105.56224 
L 630.507886 110.482027 
L 631.724148 109.603493 
L 632.940411 112.766213 
L 634.156674 115.226107 
L 635.372936 114.874693 
L 636.589199 114.347573 
L 637.805461 107.1436 
L 639.021724 111.36056 
L 640.237987 105.03512 
L 641.454249 111.36056 
L 642.670512 110.130613 
L 643.886774 114.698987 
L 645.103037 110.83344 
L 646.319299 109.25208 
L 647.535562 117.686 
L 648.751825 107.319307 
L 649.968087 115.57752 
L 651.18435 114.347573 
L 652.400612 114.698987 
L 653.616875 113.644747 
L 654.833138 114.698987 
L 656.0494 113.99616 
L 657.265663 112.239093 
L 658.481925 109.954907 
L 659.698188 113.644747 
L 660.914451 108.549253 
L 662.130713 106.440773 
L 663.346976 113.99616 
L 664.563238 114.347573 
L 665.779501 109.427787 
L 666.995763 111.009147 
L 668.212026 111.184853 
L 669.428289 109.427787 
L 670.644551 113.99616 
L 671.860814 113.117627 
L 673.077076 112.766213 
L 674.293339 110.83344 
L 675.509602 111.536267 
L 676.725864 114.874693 
L 677.942127 112.590507 
L 679.158389 111.36056 
L 680.374652 112.239093 
L 681.590914 110.657733 
L 682.807177 108.72496 
L 684.02344 115.928933 
L 685.239702 112.766213 
L 686.455965 112.590507 
L 687.672227 113.820453 
L 688.88849 116.63176 
L 690.104753 108.19784 
L 691.321015 112.590507 
L 692.537278 104.332293 
L 693.75354 113.820453 
L 694.969803 109.25208 
L 696.186065 115.0504 
L 697.402328 114.52328 
L 698.618591 112.239093 
L 699.834853 108.373547 
L 701.051116 108.022133 
L 702.267378 115.0504 
L 703.483641 112.94192 
L 704.699904 115.401813 
L 705.916166 109.954907 
L 707.132429 114.347573 
L 708.348691 114.874693 
L 709.564954 111.184853 
L 710.781216 112.4148 
L 711.997479 115.57752 
L 713.213742 109.25208 
L 714.430004 111.536267 
L 714.430004 111.536267 
" clip-path="url(#pe74a6ff0b6)" style="fill: none; stroke-dasharray: 5.55,2.4; stroke-dashoffset: 0; stroke: #ff7f0e; stroke-width: 1.5"/>
   </g>
   <g id="patch_3">
    <path d="M 109.9475 289 
L 109.9475 25.44 
" style="fill: none; stroke: #000000; stroke-width: 0.8; stroke-linejoin: miter; stroke-linecap: square"/>
   </g>
   <g id="patch_4">
    <path d="M 472.39375 289 
L 472.39375 25.44 
" style="fill: none; stroke: #000000; stroke-width: 0.8; stroke-linejoin: miter; stroke-linecap: square"/>
   </g>
   <g id="patch_5">
    <path d="M 109.9475 289 
L 472.39375 289 
" style="fill: none; stroke: #000000; stroke-width: 0.8; stroke-linejoin: miter; stroke-linecap: square"/>
   </g>
   <g id="patch_6">
    <path d="M 109.9475 25.44 
L 472.39375 25.44 
" style="fill: none; stroke: #000000; stroke-width: 0.8; stroke-linejoin: miter; stroke-linecap: square"/>
   </g>
  </g>
  <g id="axes_2">
   <g id="patch_7">
    <path d="M 484.75375 289 
L 847.2 289 
L 847.2 25.44 
L 484.75375 25.44 
L 484.75375 289 
z
" style="fill: none"/>
   </g>
   <g id="matplotlib.axis_3">
    <g id="xtick_4">
     <g id="line2d_10">
      <g>
       <use xlink:href="#m7cadb4277a" x="484.75375" y="289" style="stroke: #000000; stroke-width: 0.8"/>
      </g>
     </g>
     <g id="text_10">
      <!-- 1 -->
      <g transform="translate(477.195625 313.9775) scale(0.24 -0.24)">
       <use xlink:href="#IPAexGothic-31"/>
      </g>
     </g>
    </g>
    <g id="xtick_5">
     <g id="line2d_11">
      <g>
       <use xlink:href="#m7cadb4277a" x="605.163746" y="289" style="stroke: #000000; stroke-width: 0.8"/>
      </g>
     </g>
     <g id="text_11">
      <!-- 100 -->
      <g transform="translate(582.489371 313.9775) scale(0.24 -0.24)">
       <use xlink:href="#IPAexGothic-31"/>
       <use xlink:href="#IPAexGothic-30" x="62.988281"/>
       <use xlink:href="#IPAexGothic-30" x="125.976562"/>
      </g>
     </g>
    </g>
    <g id="xtick_6">
     <g id="line2d_12">
      <g>
       <use xlink:href="#m7cadb4277a" x="726.790004" y="289" style="stroke: #000000; stroke-width: 0.8"/>
      </g>
     </g>
     <g id="text_12">
      <!-- 200 -->
      <g transform="translate(704.115629 313.9775) scale(0.24 -0.24)">
       <use xlink:href="#IPAexGothic-32"/>
       <use xlink:href="#IPAexGothic-30" x="62.988281"/>
       <use xlink:href="#IPAexGothic-30" x="125.976562"/>
      </g>
     </g>
    </g>
    <g id="text_13">
     <!-- バッチ目 -->
     <g transform="translate(617.976875 340.515) scale(0.24 -0.24)">
      <use xlink:href="#IPAexGothic-30d0"/>
      <use xlink:href="#IPAexGothic-30c3" x="100"/>
      <use xlink:href="#IPAexGothic-30c1" x="200"/>
      <use xlink:href="#IPAexGothic-76ee" x="300"/>
     </g>
    </g>
   </g>
   <g id="matplotlib.axis_4">
    <g id="ytick_5">
     <g id="line2d_13">
      <g>
       <use xlink:href="#m4e0f25d49d" x="484.75375" y="289" style="stroke: #000000; stroke-width: 0.8"/>
      </g>
     </g>
    </g>
    <g id="ytick_6">
     <g id="line2d_14">
      <g>
       <use xlink:href="#m4e0f25d49d" x="484.75375" y="201.146667" style="stroke: #000000; stroke-width: 0.8"/>
      </g>
     </g>
    </g>
    <g id="ytick_7">
     <g id="line2d_15">
      <g>
       <use xlink:href="#m4e0f25d49d" x="484.75375" y="113.293333" style="stroke: #000000; stroke-width: 0.8"/>
      </g>
     </g>
    </g>
    <g id="ytick_8">
     <g id="line2d_16">
      <g>
       <use xlink:href="#m4e0f25d49d" x="484.75375" y="25.44" style="stroke: #000000; stroke-width: 0.8"/>
      </g>
     </g>
    </g>
   </g>
   <g id="line2d_17">
    <path d="M 484.75375 187.090133 
L 485.970013 197.632533 
L 487.186275 194.821227 
L 488.402538 194.821227 
L 489.6188 194.1184 
L 490.835063 198.511067 
L 492.051326 203.60656 
L 493.267588 211.337653 
L 494.483851 213.09472 
L 495.700113 216.25744 
L 496.916376 208.526347 
L 498.132638 214.500373 
L 499.348901 215.2032 
L 500.565164 217.31168 
L 501.781426 214.67608 
L 502.997689 221.52864 
L 504.213951 218.541627 
L 505.430214 219.94728 
L 506.646477 214.500373 
L 507.862739 218.541627 
L 509.079002 218.014507 
L 510.295264 218.717333 
L 511.511527 221.880053 
L 512.727789 220.4744 
L 513.944052 217.135973 
L 515.160315 221.00152 
L 516.376577 219.771573 
L 517.59284 218.190213 
L 518.809102 218.717333 
L 520.025365 223.285707 
L 521.241628 221.00152 
L 522.45789 217.8388 
L 523.674153 219.94728 
L 524.890415 219.244453 
L 526.106678 221.352933 
L 527.32294 218.190213 
L 529.755466 222.58288 
L 530.971728 223.285707 
L 532.187991 220.4744 
L 533.404253 223.285707 
L 534.620516 220.298693 
L 535.836779 219.068747 
L 538.269304 222.758587 
L 539.485566 221.52864 
L 540.701829 223.285707 
L 541.918091 216.608853 
L 543.134354 219.94728 
L 544.350617 220.122987 
L 545.566879 221.704347 
L 546.783142 216.25744 
L 547.999404 225.394187 
L 549.215667 221.177227 
L 550.43193 221.880053 
L 551.648192 222.407173 
L 552.864455 222.231467 
L 554.080717 219.42016 
L 555.29698 222.05576 
L 556.513242 223.461413 
L 557.729505 220.825813 
L 558.945768 222.758587 
L 560.16203 224.339947 
L 561.378293 219.771573 
L 562.594555 221.880053 
L 563.810818 220.650107 
L 565.027081 217.487387 
L 566.243343 223.812827 
L 567.459606 225.569893 
L 568.675868 223.988533 
L 569.892131 223.11 
L 571.108393 222.758587 
L 572.324656 220.650107 
L 573.540919 224.339947 
L 574.757181 222.58288 
L 575.973444 221.880053 
L 577.189706 221.352933 
L 578.405969 219.244453 
L 579.622232 222.934293 
L 580.838494 220.122987 
L 582.054757 221.352933 
L 583.271019 222.758587 
L 584.487282 221.52864 
L 585.703544 222.934293 
L 586.919807 219.94728 
L 588.13607 218.014507 
L 589.352332 224.69136 
L 590.568595 219.94728 
L 591.784857 219.771573 
L 593.00112 222.231467 
L 594.217383 218.541627 
L 595.433645 224.339947 
L 596.649908 226.27272 
L 597.86617 221.177227 
L 599.082433 221.880053 
L 600.298695 221.880053 
L 601.514958 217.487387 
L 603.947483 222.05576 
L 605.163746 223.988533 
L 606.380008 222.758587 
L 607.596271 218.717333 
L 608.812534 223.988533 
L 610.028796 222.407173 
L 611.245059 225.569893 
L 612.461321 221.880053 
L 613.677584 220.650107 
L 614.893846 222.758587 
L 616.110109 223.988533 
L 617.326372 221.00152 
L 618.542634 223.285707 
L 619.758897 223.63712 
L 620.975159 221.177227 
L 622.191422 221.00152 
L 623.407685 220.4744 
L 624.623947 221.177227 
L 625.84021 225.394187 
L 627.056472 223.285707 
L 628.272735 221.52864 
L 629.488997 218.717333 
L 630.70526 225.7456 
L 631.921523 217.31168 
L 633.137785 223.11 
L 634.354048 221.880053 
L 635.57031 224.867067 
L 636.786573 225.569893 
L 638.002836 226.097013 
L 639.219098 219.244453 
L 640.435361 223.988533 
L 641.651623 218.89304 
L 642.867886 223.63712 
L 644.084148 227.151253 
L 645.300411 218.541627 
L 646.516674 224.515653 
L 648.949199 219.42016 
L 650.165461 221.52864 
L 651.381724 220.825813 
L 652.597987 226.097013 
L 653.814249 219.244453 
L 655.030512 225.394187 
L 656.246774 225.7456 
L 657.463037 227.32696 
L 658.679299 219.771573 
L 659.895562 222.758587 
L 661.111825 220.825813 
L 663.54435 224.515653 
L 664.760612 217.135973 
L 665.976875 224.515653 
L 668.4094 225.21848 
L 669.625663 219.244453 
L 670.841925 228.029787 
L 672.058188 227.85408 
L 673.274451 223.285707 
L 674.490713 224.69136 
L 675.706976 218.717333 
L 676.923238 226.27272 
L 678.139501 222.231467 
L 679.355763 222.407173 
L 680.572026 223.812827 
L 681.788289 221.52864 
L 683.004551 222.758587 
L 684.220814 225.042773 
L 685.437076 225.394187 
L 686.653339 223.461413 
L 687.869602 221.00152 
L 689.085864 221.177227 
L 690.302127 225.7456 
L 691.518389 222.758587 
L 692.734652 221.880053 
L 693.950914 227.151253 
L 695.167177 225.569893 
L 696.38344 226.27272 
L 697.599702 225.21848 
L 698.815965 222.58288 
L 700.032227 226.448427 
L 701.24849 223.461413 
L 702.464753 219.42016 
L 703.681015 224.69136 
L 704.897278 222.758587 
L 706.11354 222.05576 
L 707.329803 219.94728 
L 708.546065 223.988533 
L 709.762328 218.717333 
L 710.978591 222.05576 
L 712.194853 224.515653 
L 713.411116 225.042773 
L 714.627378 227.502667 
L 715.843641 223.988533 
L 717.059904 223.285707 
L 718.276166 223.812827 
L 719.492429 217.8388 
L 720.708691 222.407173 
L 721.924954 224.515653 
L 723.141216 225.394187 
L 724.357479 224.339947 
L 725.573742 228.3812 
L 726.790004 224.69136 
L 728.006267 226.624133 
L 729.222529 224.515653 
L 730.438792 221.52864 
L 731.655055 219.42016 
L 732.871317 225.569893 
L 734.08758 222.934293 
L 735.303842 224.515653 
L 736.520105 219.244453 
L 737.736367 221.177227 
L 738.95263 222.231467 
L 740.168893 225.394187 
L 741.385155 226.448427 
L 742.601418 223.63712 
L 743.81768 226.624133 
L 745.033943 220.650107 
L 746.250206 222.58288 
L 747.466468 225.21848 
L 748.682731 222.934293 
L 749.898993 226.097013 
L 751.115256 225.21848 
L 752.331518 227.32696 
L 753.547781 223.988533 
L 754.764044 220.298693 
L 755.980306 223.11 
L 757.196569 226.448427 
L 758.412831 224.339947 
L 759.629094 223.988533 
L 760.845357 221.177227 
L 762.061619 223.63712 
L 763.277882 222.05576 
L 764.494144 225.21848 
L 765.710407 225.042773 
L 766.926669 223.812827 
L 768.142932 220.4744 
L 769.359195 222.05576 
L 770.575457 221.177227 
L 771.79172 224.515653 
L 773.007982 221.704347 
L 774.224245 224.867067 
L 775.440508 224.515653 
L 776.65677 222.407173 
L 777.873033 227.502667 
L 779.089295 221.880053 
L 780.305558 224.867067 
L 781.52182 225.7456 
L 782.738083 220.298693 
L 783.954346 229.43544 
L 785.170608 225.569893 
L 786.386871 220.298693 
L 787.603133 222.58288 
L 788.819396 223.285707 
L 790.035659 225.21848 
L 791.251921 223.812827 
L 792.468184 226.448427 
L 793.684446 224.867067 
L 794.900709 223.63712 
L 796.116971 226.448427 
L 797.333234 218.36592 
L 798.549497 225.394187 
L 799.765759 221.704347 
L 800.982022 221.880053 
L 802.198284 225.569893 
L 803.414547 222.758587 
L 804.63081 219.42016 
L 805.847072 221.352933 
L 807.063335 226.097013 
L 808.279597 221.52864 
L 809.49586 225.394187 
L 810.712122 224.339947 
L 811.928385 224.339947 
L 813.144648 219.771573 
L 814.36091 225.921307 
L 815.577173 223.461413 
L 816.793435 224.515653 
L 818.009698 219.42016 
L 819.225961 225.042773 
L 820.442223 230.138267 
L 821.658486 224.339947 
L 822.874748 226.097013 
L 824.091011 228.90832 
L 825.307273 221.880053 
L 826.523536 224.69136 
L 827.739799 219.244453 
L 828.956061 225.569893 
L 830.172324 222.758587 
L 831.388586 218.541627 
L 832.604849 221.704347 
L 833.821112 225.394187 
L 835.037374 224.515653 
L 836.253637 218.89304 
L 837.469899 220.825813 
L 838.686162 224.339947 
L 839.902424 223.11 
L 841.118687 223.461413 
L 842.33495 223.285707 
L 843.551212 221.52864 
L 844.767475 226.448427 
L 845.983737 222.758587 
L 847.2 227.502667 
L 848.416263 223.988533 
L 849.632525 222.758587 
L 850.848788 229.786853 
L 852.06505 226.27272 
L 853.281313 226.27272 
L 854.497576 224.867067 
L 855.713838 225.921307 
L 856.930101 222.934293 
L 858.146363 226.448427 
L 859.362626 223.285707 
L 860.578888 225.569893 
L 861.795151 224.16424 
L 863.011414 222.407173 
L 864.227676 226.097013 
L 865 224.423414 
L 865 224.423414 
" clip-path="url(#pa4f185e52c)" style="fill: none; stroke: #1f77b4; stroke-width: 1.5; stroke-linecap: square"/>
   </g>
   <g id="line2d_18">
    <path d="M 535.344876 -1 
L 535.836779 19.465973 
L 537.053041 49.336107 
L 538.269304 65.50112 
L 539.485566 73.40792 
L 540.701829 73.056507 
L 541.918091 76.219227 
L 543.134354 79.909067 
L 544.350617 87.288747 
L 545.566879 100.81816 
L 546.783142 92.559947 
L 547.999404 101.520987 
L 549.215667 104.508 
L 550.43193 100.466747 
L 551.648192 110.657733 
L 552.864455 107.495013 
L 554.080717 112.4148 
L 556.513242 121.200133 
L 557.729505 121.024427 
L 558.945768 127.17416 
L 560.16203 128.75552 
L 561.378293 130.688293 
L 562.594555 122.254373 
L 563.810818 129.80976 
L 565.027081 132.796773 
L 566.243343 137.71656 
L 568.675868 144.56912 
L 569.892131 141.582107 
L 571.108393 145.447653 
L 572.324656 146.6776 
L 574.757181 150.89456 
L 575.973444 151.597387 
L 577.189706 154.408693 
L 578.405969 153.705867 
L 579.622232 158.098533 
L 580.838494 161.43696 
L 582.054757 161.43696 
L 583.271019 165.1268 
L 584.487282 165.65392 
L 585.703544 159.504187 
L 586.919807 167.23528 
L 588.13607 170.222293 
L 589.352332 170.92512 
L 590.568595 171.276533 
L 591.784857 173.912133 
L 593.00112 173.209307 
L 594.217383 178.480507 
L 595.433645 174.61496 
L 596.649908 174.61496 
L 597.86617 180.9404 
L 599.082433 180.588987 
L 600.298695 183.224587 
L 601.514958 183.04888 
L 602.731221 181.116107 
L 603.947483 186.387307 
L 605.163746 185.15736 
L 606.380008 185.333067 
L 607.596271 187.441547 
L 608.812534 186.914427 
L 610.028796 189.550027 
L 611.245059 189.550027 
L 612.461321 188.32008 
L 613.677584 190.779973 
L 614.893846 190.779973 
L 616.110109 193.942693 
L 617.326372 193.766987 
L 618.542634 198.511067 
L 619.758897 194.64552 
L 620.975159 195.17264 
L 622.191422 197.80824 
L 623.407685 198.86248 
L 624.623947 198.86248 
L 625.84021 197.456827 
L 627.056472 200.97096 
L 628.272735 197.456827 
L 629.488997 199.3896 
L 630.70526 202.0252 
L 631.921523 202.728027 
L 633.137785 200.44384 
L 634.354048 201.49808 
L 635.57031 204.6608 
L 636.786573 205.71504 
L 638.002836 201.146667 
L 639.219098 207.647813 
L 640.435361 207.120693 
L 641.651623 206.066453 
L 642.867886 208.174933 
L 644.084148 206.066453 
L 645.300411 209.580587 
L 646.516674 209.229173 
L 647.732936 203.60656 
L 648.949199 211.51336 
L 650.165461 207.647813 
L 651.381724 208.702053 
L 652.597987 213.797547 
L 653.814249 212.743307 
L 655.030512 213.446133 
L 656.246774 211.689067 
L 657.463037 210.45912 
L 658.679299 216.960267 
L 659.895562 214.500373 
L 661.111825 213.973253 
L 662.328087 215.554613 
L 663.54435 214.324667 
L 664.760612 219.068747 
L 665.976875 217.8388 
L 667.193138 218.717333 
L 668.4094 219.42016 
L 669.625663 217.487387 
L 670.841925 216.78456 
L 672.058188 218.717333 
L 673.274451 219.42016 
L 674.490713 219.068747 
L 675.706976 219.42016 
L 676.923238 216.960267 
L 678.139501 220.298693 
L 679.355763 216.25744 
L 680.572026 218.717333 
L 681.788289 219.068747 
L 683.004551 221.52864 
L 684.220814 219.595867 
L 685.437076 220.4744 
L 686.653339 220.298693 
L 687.869602 219.244453 
L 689.085864 219.771573 
L 690.302127 221.52864 
L 691.518389 218.717333 
L 692.734652 219.244453 
L 693.950914 220.650107 
L 695.167177 219.068747 
L 696.38344 219.42016 
L 697.599702 220.122987 
L 698.815965 219.771573 
L 700.032227 220.298693 
L 701.24849 220.650107 
L 702.464753 220.650107 
L 703.681015 220.298693 
L 704.897278 220.650107 
L 706.11354 222.407173 
L 707.329803 221.00152 
L 708.546065 219.94728 
L 709.762328 220.825813 
L 710.978591 219.94728 
L 712.194853 218.717333 
L 713.411116 220.825813 
L 714.627378 219.42016 
L 715.843641 220.298693 
L 717.059904 219.068747 
L 718.276166 220.4744 
L 719.492429 221.00152 
L 720.708691 220.298693 
L 721.924954 219.068747 
L 723.141216 220.650107 
L 724.357479 219.244453 
L 725.573742 220.298693 
L 726.790004 219.94728 
L 728.006267 219.94728 
L 729.222529 219.771573 
L 730.438792 220.4744 
L 731.655055 219.42016 
L 732.871317 221.352933 
L 734.08758 219.244453 
L 735.303842 219.595867 
L 736.520105 220.298693 
L 737.736367 221.352933 
L 738.95263 219.771573 
L 740.168893 219.94728 
L 741.385155 221.00152 
L 742.601418 220.298693 
L 743.81768 219.771573 
L 745.033943 221.352933 
L 746.250206 220.825813 
L 747.466468 221.352933 
L 748.682731 220.298693 
L 749.898993 221.177227 
L 751.115256 216.78456 
L 752.331518 220.122987 
L 754.764044 221.52864 
L 755.980306 221.52864 
L 757.196569 221.352933 
L 758.412831 220.825813 
L 759.629094 221.177227 
L 760.845357 218.717333 
L 762.061619 220.825813 
L 763.277882 219.94728 
L 764.494144 221.177227 
L 765.710407 220.650107 
L 766.926669 222.934293 
L 768.142932 221.52864 
L 769.359195 219.068747 
L 770.575457 223.11 
L 773.007982 220.650107 
L 774.224245 219.244453 
L 775.440508 218.36592 
L 776.65677 221.880053 
L 777.873033 219.595867 
L 779.089295 219.244453 
L 780.305558 222.934293 
L 781.52182 221.177227 
L 782.738083 220.825813 
L 783.954346 221.52864 
L 785.170608 219.244453 
L 786.386871 221.52864 
L 788.819396 222.231467 
L 790.035659 222.934293 
L 791.251921 221.880053 
L 792.468184 221.880053 
L 793.684446 219.42016 
L 794.900709 220.4744 
L 796.116971 222.934293 
L 797.333234 221.704347 
L 798.549497 223.285707 
L 799.765759 220.122987 
L 800.982022 221.52864 
L 802.198284 221.00152 
L 804.63081 222.758587 
L 805.847072 220.650107 
L 807.063335 222.231467 
L 808.279597 221.880053 
L 810.712122 221.880053 
L 811.928385 222.758587 
L 813.144648 222.05576 
L 814.36091 219.595867 
L 815.577173 222.58288 
L 816.793435 223.285707 
L 818.009698 224.515653 
L 819.225961 219.42016 
L 820.442223 221.704347 
L 821.658486 221.52864 
L 824.091011 219.42016 
L 825.307273 222.58288 
L 826.523536 219.595867 
L 827.739799 219.068747 
L 828.956061 220.825813 
L 830.172324 223.988533 
L 831.388586 220.4744 
L 832.604849 220.650107 
L 833.821112 223.63712 
L 835.037374 223.285707 
L 836.253637 219.94728 
L 837.469899 218.89304 
L 838.686162 221.00152 
L 839.902424 223.461413 
L 841.118687 219.771573 
L 842.33495 221.00152 
L 843.551212 221.704347 
L 844.767475 221.00152 
L 845.983737 219.42016 
L 847.2 222.407173 
L 848.416263 222.407173 
L 849.632525 221.177227 
L 850.848788 221.704347 
L 852.06505 224.867067 
L 853.281313 222.05576 
L 854.497576 221.52864 
L 855.713838 221.704347 
L 856.930101 221.352933 
L 858.146363 222.231467 
L 859.362626 222.758587 
L 860.578888 220.650107 
L 861.795151 223.11 
L 863.011414 219.94728 
L 865 220.920693 
L 865 220.920693 
" clip-path="url(#pa4f185e52c)" style="fill: none; stroke-dasharray: 5.55,2.4; stroke-dashoffset: 0; stroke: #ff7f0e; stroke-width: 1.5"/>
   </g>
   <g id="patch_8">
    <path d="M 484.75375 289 
L 484.75375 25.44 
" style="fill: none; stroke: #000000; stroke-width: 0.8; stroke-linejoin: miter; stroke-linecap: square"/>
   </g>
   <g id="patch_9">
    <path d="M 847.2 289 
L 847.2 25.44 
" style="fill: none; stroke: #000000; stroke-width: 0.8; stroke-linejoin: miter; stroke-linecap: square"/>
   </g>
   <g id="patch_10">
    <path d="M 484.75375 289 
L 847.2 289 
" style="fill: none; stroke: #000000; stroke-width: 0.8; stroke-linejoin: miter; stroke-linecap: square"/>
   </g>
   <g id="patch_11">
    <path d="M 484.75375 25.44 
L 847.2 25.44 
" style="fill: none; stroke: #000000; stroke-width: 0.8; stroke-linejoin: miter; stroke-linecap: square"/>
   </g>
  </g>
  <g id="legend_1">
   <g id="patch_12">
    <path d="M 673.63125 88.275 
L 852 88.275 
L 852 12 
L 673.63125 12 
z
" style="fill: #ffffff; stroke: #000000; stroke-linejoin: miter"/>
   </g>
   <g id="line2d_19">
    <path d="M 683.23125 31.1775 
L 707.23125 31.1775 
L 731.23125 31.1775 
" style="fill: none; stroke: #1f77b4; stroke-width: 1.5; stroke-linecap: square"/>
   </g>
   <g id="text_14">
    <!-- α=0.4 -->
    <g transform="translate(750.43125 39.5775) scale(0.24 -0.24)">
     <defs>
      <path id="IPAexGothic-3b1" d="M 5169 1278 
Q 4872 197 4244 197 
Q 3709 197 3538 1028 
Q 2800 197 2144 197 
Q 1769 197 1522 453 
Q 1241 734 1241 1197 
Q 1241 1966 1784 2681 
Q 2400 3488 3103 3488 
Q 3531 3488 3725 3147 
Q 3884 2875 3922 2259 
Q 4269 2775 4466 3366 
L 5081 3366 
Q 4559 2316 3981 1509 
Q 4019 709 4263 709 
Q 4547 709 4653 1278 
L 5169 1278 
z
M 3475 1650 
Q 3475 2169 3384 2616 
Q 3309 2994 3013 2994 
Q 2653 2994 2297 2559 
Q 1803 1950 1803 1241 
Q 1803 709 2231 709 
Q 2497 709 2797 922 
Q 3047 1097 3281 1381 
Q 3475 1622 3475 1650 
z
" transform="scale(0.015625)"/>
      <path id="IPAexGothic-3d" d="M 416 2803 
L 3922 2803 
L 3922 2438 
L 416 2438 
L 416 2803 
z
M 416 1625 
L 3922 1625 
L 3922 1259 
L 416 1259 
L 416 1625 
z
" transform="scale(0.015625)"/>
      <path id="IPAexGothic-2e" d="M 1184 63 
L 494 63 
L 494 753 
L 1184 753 
L 1184 63 
z
" transform="scale(0.015625)"/>
      <path id="IPAexGothic-34" d="M 3813 1159 
L 3059 1159 
L 3059 63 
L 2547 63 
L 2547 1159 
L 197 1159 
L 197 1672 
L 2456 4678 
L 3059 4678 
L 3059 1634 
L 3813 1634 
L 3813 1159 
z
M 2578 4109 
L 2559 4109 
Q 2278 3656 2003 3284 
L 759 1634 
L 2547 1634 
L 2547 3144 
Q 2547 3481 2578 4109 
z
" transform="scale(0.015625)"/>
     </defs>
     <use xlink:href="#IPAexGothic-3b1"/>
     <use xlink:href="#IPAexGothic-3d" x="100"/>
     <use xlink:href="#IPAexGothic-30" x="167.822266"/>
     <use xlink:href="#IPAexGothic-2e" x="230.810547"/>
     <use xlink:href="#IPAexGothic-34" x="257.226562"/>
    </g>
   </g>
   <g id="line2d_20">
    <path d="M 683.23125 65.715 
L 707.23125 65.715 
L 731.23125 65.715 
" style="fill: none; stroke-dasharray: 5.55,2.4; stroke-dashoffset: 0; stroke: #ff7f0e; stroke-width: 1.5"/>
   </g>
   <g id="text_15">
    <!-- α=0.99 -->
    <g transform="translate(750.43125 74.115) scale(0.24 -0.24)">
     <defs>
      <path id="IPAexGothic-39" d="M 2984 2356 
Q 2544 1716 1813 1716 
Q 1253 1716 847 2056 
Q 366 2459 366 3163 
Q 366 3813 769 4266 
Q 1181 4725 1869 4725 
Q 2800 4725 3241 3950 
Q 3559 3378 3559 2472 
Q 3559 1250 3041 588 
Q 2553 -31 1769 -31 
Q 859 -31 391 703 
L 853 953 
Q 1156 428 1753 428 
Q 2922 428 3009 2356 
L 2984 2356 
z
M 1888 4278 
Q 1450 4278 1172 3950 
Q 922 3653 922 3200 
Q 922 2741 1159 2478 
Q 1434 2163 1906 2163 
Q 2431 2163 2728 2572 
Q 2925 2847 2925 3169 
Q 2925 3553 2694 3863 
Q 2375 4278 1888 4278 
z
" transform="scale(0.015625)"/>
     </defs>
     <use xlink:href="#IPAexGothic-3b1"/>
     <use xlink:href="#IPAexGothic-3d" x="100"/>
     <use xlink:href="#IPAexGothic-30" x="167.822266"/>
     <use xlink:href="#IPAexGothic-2e" x="230.810547"/>
     <use xlink:href="#IPAexGothic-39" x="257.226562"/>
     <use xlink:href="#IPAexGothic-39" x="320.214844"/>
    </g>
   </g>
  </g>
 </g>
 <defs>
  <clipPath id="pe74a6ff0b6">
   <rect x="109.9475" y="25.44" width="362.44625" height="263.56"/>
  </clipPath>
  <clipPath id="pa4f185e52c">
   <rect x="484.75375" y="25.44" width="362.44625" height="263.56"/>
  </clipPath>
 </defs>
</svg>
