<?xml version="1.0" encoding="utf-8" standalone="no"?>
<!DOCTYPE svg PUBLIC "-//W3C//DTD SVG 1.1//EN"
  "http://www.w3.org/Graphics/SVG/1.1/DTD/svg11.dtd">
<svg xmlns:xlink="http://www.w3.org/1999/xlink" width="460.8pt" height="345.6pt" viewBox="0 0 460.8 345.6" xmlns="http://www.w3.org/2000/svg" version="1.1">
 <metadata>
  <rdf:RDF xmlns:dc="http://purl.org/dc/elements/1.1/" xmlns:cc="http://creativecommons.org/ns#" xmlns:rdf="http://www.w3.org/1999/02/22-rdf-syntax-ns#">
   <cc:Work>
    <dc:type rdf:resource="http://purl.org/dc/dcmitype/StillImage"/>
    <dc:date>2024-02-14T14:37:15.517770</dc:date>
    <dc:format>image/svg+xml</dc:format>
    <dc:creator>
     <cc:Agent>
      <dc:title>Matplotlib v3.7.0, https://matplotlib.org/</dc:title>
     </cc:Agent>
    </dc:creator>
   </cc:Work>
  </rdf:RDF>
 </metadata>
 <defs>
  <style type="text/css">*{stroke-linejoin: round; stroke-linecap: butt}</style>
 </defs>
 <g id="figure_1">
  <g id="patch_1">
   <path d="M 0 345.6 
L 460.8 345.6 
L 460.8 0 
L 0 0 
L 0 345.6 
z
" style="fill: none"/>
  </g>
  <g id="axes_1">
   <g id="patch_2">
    <path d="M 57.6 307.584 
L 414.72 307.584 
L 414.72 41.472 
L 57.6 41.472 
L 57.6 307.584 
z
" style="fill: none"/>
   </g>
   <g id="matplotlib.axis_1">
    <g id="xtick_1">
     <g id="line2d_1">
      <defs>
       <path id="m57eed33124" d="M 0 0 
L 0 3.5 
" style="stroke: #000000; stroke-width: 0.8"/>
      </defs>
      <g>
       <use xlink:href="#m57eed33124" x="116.721873" y="307.584" style="stroke: #000000; stroke-width: 0.8"/>
      </g>
     </g>
     <g id="text_1">
      <!-- 50 -->
      <g transform="translate(111.721873 321.52775) scale(0.1 -0.1)">
       <defs>
        <path id="TimesNewRomanPSMT-35" d="M 2778 4238 
L 2534 3706 
L 1259 3706 
L 981 3138 
Q 1809 3016 2294 2522 
Q 2709 2097 2709 1522 
Q 2709 1188 2573 903 
Q 2438 619 2231 419 
Q 2025 219 1772 97 
Q 1413 -75 1034 -75 
Q 653 -75 479 54 
Q 306 184 306 341 
Q 306 428 378 495 
Q 450 563 559 563 
Q 641 563 702 538 
Q 763 513 909 409 
Q 1144 247 1384 247 
Q 1750 247 2026 523 
Q 2303 800 2303 1197 
Q 2303 1581 2056 1914 
Q 1809 2247 1375 2428 
Q 1034 2569 447 2591 
L 1259 4238 
L 2778 4238 
z
" transform="scale(0.015625)"/>
        <path id="TimesNewRomanPSMT-30" d="M 231 2094 
Q 231 2819 450 3342 
Q 669 3866 1031 4122 
Q 1313 4325 1613 4325 
Q 2100 4325 2488 3828 
Q 2972 3213 2972 2159 
Q 2972 1422 2759 906 
Q 2547 391 2217 158 
Q 1888 -75 1581 -75 
Q 975 -75 572 641 
Q 231 1244 231 2094 
z
M 844 2016 
Q 844 1141 1059 588 
Q 1238 122 1591 122 
Q 1759 122 1940 273 
Q 2122 425 2216 781 
Q 2359 1319 2359 2297 
Q 2359 3022 2209 3506 
Q 2097 3866 1919 4016 
Q 1791 4119 1609 4119 
Q 1397 4119 1231 3928 
Q 1006 3669 925 3112 
Q 844 2556 844 2016 
z
" transform="scale(0.015625)"/>
       </defs>
       <use xlink:href="#TimesNewRomanPSMT-35"/>
       <use xlink:href="#TimesNewRomanPSMT-30" x="50"/>
      </g>
     </g>
    </g>
    <g id="xtick_2">
     <g id="line2d_2">
      <g>
       <use xlink:href="#m57eed33124" x="176.440936" y="307.584" style="stroke: #000000; stroke-width: 0.8"/>
      </g>
     </g>
     <g id="text_2">
      <!-- 100 -->
      <g transform="translate(168.940936 321.52775) scale(0.1 -0.1)">
       <defs>
        <path id="TimesNewRomanPSMT-31" d="M 750 3822 
L 1781 4325 
L 1884 4325 
L 1884 747 
Q 1884 391 1914 303 
Q 1944 216 2037 169 
Q 2131 122 2419 116 
L 2419 0 
L 825 0 
L 825 116 
Q 1125 122 1212 167 
Q 1300 213 1334 289 
Q 1369 366 1369 747 
L 1369 3034 
Q 1369 3497 1338 3628 
Q 1316 3728 1258 3775 
Q 1200 3822 1119 3822 
Q 1003 3822 797 3725 
L 750 3822 
z
" transform="scale(0.015625)"/>
       </defs>
       <use xlink:href="#TimesNewRomanPSMT-31"/>
       <use xlink:href="#TimesNewRomanPSMT-30" x="50"/>
       <use xlink:href="#TimesNewRomanPSMT-30" x="100"/>
      </g>
     </g>
    </g>
    <g id="xtick_3">
     <g id="line2d_3">
      <g>
       <use xlink:href="#m57eed33124" x="236.16" y="307.584" style="stroke: #000000; stroke-width: 0.8"/>
      </g>
     </g>
     <g id="text_3">
      <!-- 150 -->
      <g transform="translate(228.66 321.52775) scale(0.1 -0.1)">
       <use xlink:href="#TimesNewRomanPSMT-31"/>
       <use xlink:href="#TimesNewRomanPSMT-35" x="50"/>
       <use xlink:href="#TimesNewRomanPSMT-30" x="100"/>
      </g>
     </g>
    </g>
    <g id="xtick_4">
     <g id="line2d_4">
      <g>
       <use xlink:href="#m57eed33124" x="295.879064" y="307.584" style="stroke: #000000; stroke-width: 0.8"/>
      </g>
     </g>
     <g id="text_4">
      <!-- 200 -->
      <g transform="translate(288.379064 321.52775) scale(0.1 -0.1)">
       <defs>
        <path id="TimesNewRomanPSMT-32" d="M 2934 816 
L 2638 0 
L 138 0 
L 138 116 
Q 1241 1122 1691 1759 
Q 2141 2397 2141 2925 
Q 2141 3328 1894 3587 
Q 1647 3847 1303 3847 
Q 991 3847 742 3664 
Q 494 3481 375 3128 
L 259 3128 
Q 338 3706 661 4015 
Q 984 4325 1469 4325 
Q 1984 4325 2329 3994 
Q 2675 3663 2675 3213 
Q 2675 2891 2525 2569 
Q 2294 2063 1775 1497 
Q 997 647 803 472 
L 1909 472 
Q 2247 472 2383 497 
Q 2519 522 2628 598 
Q 2738 675 2819 816 
L 2934 816 
z
" transform="scale(0.015625)"/>
       </defs>
       <use xlink:href="#TimesNewRomanPSMT-32"/>
       <use xlink:href="#TimesNewRomanPSMT-30" x="50"/>
       <use xlink:href="#TimesNewRomanPSMT-30" x="100"/>
      </g>
     </g>
    </g>
    <g id="xtick_5">
     <g id="line2d_5">
      <g>
       <use xlink:href="#m57eed33124" x="355.598127" y="307.584" style="stroke: #000000; stroke-width: 0.8"/>
      </g>
     </g>
     <g id="text_5">
      <!-- 250 -->
      <g transform="translate(348.098127 321.52775) scale(0.1 -0.1)">
       <use xlink:href="#TimesNewRomanPSMT-32"/>
       <use xlink:href="#TimesNewRomanPSMT-35" x="50"/>
       <use xlink:href="#TimesNewRomanPSMT-30" x="100"/>
      </g>
     </g>
    </g>
    <g id="text_6">
     <!-- batch iteration -->
     <g transform="translate(184.431094 340.165562) scale(0.18 -0.18)">
      <defs>
       <path id="TimesNewRomanPSMT-62" d="M 984 2369 
Q 1400 2947 1881 2947 
Q 2322 2947 2650 2570 
Q 2978 2194 2978 1541 
Q 2978 778 2472 313 
Q 2038 -88 1503 -88 
Q 1253 -88 995 3 
Q 738 94 469 275 
L 469 3241 
Q 469 3728 445 3840 
Q 422 3953 372 3993 
Q 322 4034 247 4034 
Q 159 4034 28 3984 
L -16 4094 
L 844 4444 
L 984 4444 
L 984 2369 
z
M 984 2169 
L 984 456 
Q 1144 300 1314 220 
Q 1484 141 1663 141 
Q 1947 141 2192 453 
Q 2438 766 2438 1363 
Q 2438 1913 2192 2208 
Q 1947 2503 1634 2503 
Q 1469 2503 1303 2419 
Q 1178 2356 984 2169 
z
" transform="scale(0.015625)"/>
       <path id="TimesNewRomanPSMT-61" d="M 1822 413 
Q 1381 72 1269 19 
Q 1100 -59 909 -59 
Q 613 -59 420 144 
Q 228 347 228 678 
Q 228 888 322 1041 
Q 450 1253 767 1440 
Q 1084 1628 1822 1897 
L 1822 2009 
Q 1822 2438 1686 2597 
Q 1550 2756 1291 2756 
Q 1094 2756 978 2650 
Q 859 2544 859 2406 
L 866 2225 
Q 866 2081 792 2003 
Q 719 1925 600 1925 
Q 484 1925 411 2006 
Q 338 2088 338 2228 
Q 338 2497 613 2722 
Q 888 2947 1384 2947 
Q 1766 2947 2009 2819 
Q 2194 2722 2281 2516 
Q 2338 2381 2338 1966 
L 2338 994 
Q 2338 584 2353 492 
Q 2369 400 2405 369 
Q 2441 338 2488 338 
Q 2538 338 2575 359 
Q 2641 400 2828 588 
L 2828 413 
Q 2478 -56 2159 -56 
Q 2006 -56 1915 50 
Q 1825 156 1822 413 
z
M 1822 616 
L 1822 1706 
Q 1350 1519 1213 1441 
Q 966 1303 859 1153 
Q 753 1003 753 825 
Q 753 600 887 451 
Q 1022 303 1197 303 
Q 1434 303 1822 616 
z
" transform="scale(0.015625)"/>
       <path id="TimesNewRomanPSMT-74" d="M 1031 3803 
L 1031 2863 
L 1700 2863 
L 1700 2644 
L 1031 2644 
L 1031 788 
Q 1031 509 1111 412 
Q 1191 316 1316 316 
Q 1419 316 1516 380 
Q 1613 444 1666 569 
L 1788 569 
Q 1678 263 1478 108 
Q 1278 -47 1066 -47 
Q 922 -47 784 33 
Q 647 113 581 261 
Q 516 409 516 719 
L 516 2644 
L 63 2644 
L 63 2747 
Q 234 2816 414 2980 
Q 594 3144 734 3369 
Q 806 3488 934 3803 
L 1031 3803 
z
" transform="scale(0.015625)"/>
       <path id="TimesNewRomanPSMT-63" d="M 2631 1088 
Q 2516 522 2178 217 
Q 1841 -88 1431 -88 
Q 944 -88 581 321 
Q 219 731 219 1428 
Q 219 2103 620 2525 
Q 1022 2947 1584 2947 
Q 2006 2947 2278 2723 
Q 2550 2500 2550 2259 
Q 2550 2141 2473 2067 
Q 2397 1994 2259 1994 
Q 2075 1994 1981 2113 
Q 1928 2178 1911 2362 
Q 1894 2547 1784 2644 
Q 1675 2738 1481 2738 
Q 1169 2738 978 2506 
Q 725 2200 725 1697 
Q 725 1184 976 792 
Q 1228 400 1656 400 
Q 1963 400 2206 609 
Q 2378 753 2541 1131 
L 2631 1088 
z
" transform="scale(0.015625)"/>
       <path id="TimesNewRomanPSMT-68" d="M 1041 4444 
L 1041 2350 
Q 1388 2731 1591 2839 
Q 1794 2947 1997 2947 
Q 2241 2947 2416 2812 
Q 2591 2678 2675 2391 
Q 2734 2191 2734 1659 
L 2734 647 
Q 2734 375 2778 275 
Q 2809 200 2884 156 
Q 2959 113 3159 113 
L 3159 0 
L 1753 0 
L 1753 113 
L 1819 113 
Q 2019 113 2097 173 
Q 2175 234 2206 353 
Q 2216 403 2216 647 
L 2216 1659 
Q 2216 2128 2167 2275 
Q 2119 2422 2012 2495 
Q 1906 2569 1756 2569 
Q 1603 2569 1437 2487 
Q 1272 2406 1041 2159 
L 1041 647 
Q 1041 353 1073 281 
Q 1106 209 1195 161 
Q 1284 113 1503 113 
L 1503 0 
L 84 0 
L 84 113 
Q 275 113 384 172 
Q 447 203 484 290 
Q 522 378 522 647 
L 522 3238 
Q 522 3728 498 3840 
Q 475 3953 426 3993 
Q 378 4034 297 4034 
Q 231 4034 84 3984 
L 41 4094 
L 897 4444 
L 1041 4444 
z
" transform="scale(0.015625)"/>
       <path id="TimesNewRomanPSMT-20" transform="scale(0.015625)"/>
       <path id="TimesNewRomanPSMT-69" d="M 928 4444 
Q 1059 4444 1151 4351 
Q 1244 4259 1244 4128 
Q 1244 3997 1151 3903 
Q 1059 3809 928 3809 
Q 797 3809 703 3903 
Q 609 3997 609 4128 
Q 609 4259 701 4351 
Q 794 4444 928 4444 
z
M 1188 2947 
L 1188 647 
Q 1188 378 1227 289 
Q 1266 200 1342 156 
Q 1419 113 1622 113 
L 1622 0 
L 231 0 
L 231 113 
Q 441 113 512 153 
Q 584 194 626 287 
Q 669 381 669 647 
L 669 1750 
Q 669 2216 641 2353 
Q 619 2453 572 2492 
Q 525 2531 444 2531 
Q 356 2531 231 2484 
L 188 2597 
L 1050 2947 
L 1188 2947 
z
" transform="scale(0.015625)"/>
       <path id="TimesNewRomanPSMT-65" d="M 681 1784 
Q 678 1147 991 784 
Q 1303 422 1725 422 
Q 2006 422 2214 576 
Q 2422 731 2563 1106 
L 2659 1044 
Q 2594 616 2278 264 
Q 1963 -88 1488 -88 
Q 972 -88 605 314 
Q 238 716 238 1394 
Q 238 2128 614 2539 
Q 991 2950 1559 2950 
Q 2041 2950 2350 2633 
Q 2659 2316 2659 1784 
L 681 1784 
z
M 681 1966 
L 2006 1966 
Q 1991 2241 1941 2353 
Q 1863 2528 1708 2628 
Q 1553 2728 1384 2728 
Q 1125 2728 920 2526 
Q 716 2325 681 1966 
z
" transform="scale(0.015625)"/>
       <path id="TimesNewRomanPSMT-72" d="M 1038 2947 
L 1038 2303 
Q 1397 2947 1775 2947 
Q 1947 2947 2059 2842 
Q 2172 2738 2172 2600 
Q 2172 2478 2090 2393 
Q 2009 2309 1897 2309 
Q 1788 2309 1652 2417 
Q 1516 2525 1450 2525 
Q 1394 2525 1328 2463 
Q 1188 2334 1038 2041 
L 1038 669 
Q 1038 431 1097 309 
Q 1138 225 1241 169 
Q 1344 113 1538 113 
L 1538 0 
L 72 0 
L 72 113 
Q 291 113 397 181 
Q 475 231 506 341 
Q 522 394 522 644 
L 522 1753 
Q 522 2253 501 2348 
Q 481 2444 426 2487 
Q 372 2531 291 2531 
Q 194 2531 72 2484 
L 41 2597 
L 906 2947 
L 1038 2947 
z
" transform="scale(0.015625)"/>
       <path id="TimesNewRomanPSMT-6f" d="M 1600 2947 
Q 2250 2947 2644 2453 
Q 2978 2031 2978 1484 
Q 2978 1100 2793 706 
Q 2609 313 2286 112 
Q 1963 -88 1566 -88 
Q 919 -88 538 428 
Q 216 863 216 1403 
Q 216 1797 411 2186 
Q 606 2575 925 2761 
Q 1244 2947 1600 2947 
z
M 1503 2744 
Q 1338 2744 1170 2645 
Q 1003 2547 900 2300 
Q 797 2053 797 1666 
Q 797 1041 1045 587 
Q 1294 134 1700 134 
Q 2003 134 2200 384 
Q 2397 634 2397 1244 
Q 2397 2006 2069 2444 
Q 1847 2744 1503 2744 
z
" transform="scale(0.015625)"/>
       <path id="TimesNewRomanPSMT-6e" d="M 1034 2341 
Q 1538 2947 1994 2947 
Q 2228 2947 2397 2830 
Q 2566 2713 2666 2444 
Q 2734 2256 2734 1869 
L 2734 647 
Q 2734 375 2778 278 
Q 2813 200 2889 156 
Q 2966 113 3172 113 
L 3172 0 
L 1756 0 
L 1756 113 
L 1816 113 
Q 2016 113 2095 173 
Q 2175 234 2206 353 
Q 2219 400 2219 647 
L 2219 1819 
Q 2219 2209 2117 2386 
Q 2016 2563 1775 2563 
Q 1403 2563 1034 2156 
L 1034 647 
Q 1034 356 1069 288 
Q 1113 197 1189 155 
Q 1266 113 1500 113 
L 1500 0 
L 84 0 
L 84 113 
L 147 113 
Q 366 113 442 223 
Q 519 334 519 647 
L 519 1709 
Q 519 2225 495 2337 
Q 472 2450 423 2490 
Q 375 2531 294 2531 
Q 206 2531 84 2484 
L 38 2597 
L 900 2947 
L 1034 2947 
L 1034 2341 
z
" transform="scale(0.015625)"/>
      </defs>
      <use xlink:href="#TimesNewRomanPSMT-62"/>
      <use xlink:href="#TimesNewRomanPSMT-61" x="50"/>
      <use xlink:href="#TimesNewRomanPSMT-74" x="94.384766"/>
      <use xlink:href="#TimesNewRomanPSMT-63" x="122.167969"/>
      <use xlink:href="#TimesNewRomanPSMT-68" x="166.552734"/>
      <use xlink:href="#TimesNewRomanPSMT-20" x="216.552734"/>
      <use xlink:href="#TimesNewRomanPSMT-69" x="241.552734"/>
      <use xlink:href="#TimesNewRomanPSMT-74" x="269.335938"/>
      <use xlink:href="#TimesNewRomanPSMT-65" x="297.119141"/>
      <use xlink:href="#TimesNewRomanPSMT-72" x="341.503906"/>
      <use xlink:href="#TimesNewRomanPSMT-61" x="374.804688"/>
      <use xlink:href="#TimesNewRomanPSMT-74" x="419.189453"/>
      <use xlink:href="#TimesNewRomanPSMT-69" x="446.972656"/>
      <use xlink:href="#TimesNewRomanPSMT-6f" x="474.755859"/>
      <use xlink:href="#TimesNewRomanPSMT-6e" x="524.755859"/>
     </g>
    </g>
   </g>
   <g id="matplotlib.axis_2">
    <g id="ytick_1">
     <g id="line2d_6">
      <defs>
       <path id="m1490a3a2fd" d="M 0 0 
L -3.5 0 
" style="stroke: #000000; stroke-width: 0.8"/>
      </defs>
      <g>
       <use xlink:href="#m1490a3a2fd" x="57.6" y="307.584" style="stroke: #000000; stroke-width: 0.8"/>
      </g>
     </g>
     <g id="text_7">
      <!-- 0 -->
      <g transform="translate(45.6 311.055875) scale(0.1 -0.1)">
       <use xlink:href="#TimesNewRomanPSMT-30"/>
      </g>
     </g>
    </g>
    <g id="ytick_2">
     <g id="line2d_7">
      <g>
       <use xlink:href="#m1490a3a2fd" x="57.6" y="262.738702" style="stroke: #000000; stroke-width: 0.8"/>
      </g>
     </g>
     <g id="text_8">
      <!-- 100 -->
      <g transform="translate(35.6 266.210577) scale(0.1 -0.1)">
       <use xlink:href="#TimesNewRomanPSMT-31"/>
       <use xlink:href="#TimesNewRomanPSMT-30" x="50"/>
       <use xlink:href="#TimesNewRomanPSMT-30" x="100"/>
      </g>
     </g>
    </g>
    <g id="ytick_3">
     <g id="line2d_8">
      <g>
       <use xlink:href="#m1490a3a2fd" x="57.6" y="217.893403" style="stroke: #000000; stroke-width: 0.8"/>
      </g>
     </g>
     <g id="text_9">
      <!-- 200 -->
      <g transform="translate(35.6 221.365278) scale(0.1 -0.1)">
       <use xlink:href="#TimesNewRomanPSMT-32"/>
       <use xlink:href="#TimesNewRomanPSMT-30" x="50"/>
       <use xlink:href="#TimesNewRomanPSMT-30" x="100"/>
      </g>
     </g>
    </g>
    <g id="ytick_4">
     <g id="line2d_9">
      <g>
       <use xlink:href="#m1490a3a2fd" x="57.6" y="173.048105" style="stroke: #000000; stroke-width: 0.8"/>
      </g>
     </g>
     <g id="text_10">
      <!-- 300 -->
      <g transform="translate(35.6 176.51998) scale(0.1 -0.1)">
       <defs>
        <path id="TimesNewRomanPSMT-33" d="M 325 3431 
Q 506 3859 782 4092 
Q 1059 4325 1472 4325 
Q 1981 4325 2253 3994 
Q 2459 3747 2459 3466 
Q 2459 3003 1878 2509 
Q 2269 2356 2469 2072 
Q 2669 1788 2669 1403 
Q 2669 853 2319 450 
Q 1863 -75 997 -75 
Q 569 -75 414 31 
Q 259 138 259 259 
Q 259 350 332 419 
Q 406 488 509 488 
Q 588 488 669 463 
Q 722 447 909 348 
Q 1097 250 1169 231 
Q 1284 197 1416 197 
Q 1734 197 1970 444 
Q 2206 691 2206 1028 
Q 2206 1275 2097 1509 
Q 2016 1684 1919 1775 
Q 1784 1900 1550 2001 
Q 1316 2103 1072 2103 
L 972 2103 
L 972 2197 
Q 1219 2228 1467 2375 
Q 1716 2522 1828 2728 
Q 1941 2934 1941 3181 
Q 1941 3503 1739 3701 
Q 1538 3900 1238 3900 
Q 753 3900 428 3381 
L 325 3431 
z
" transform="scale(0.015625)"/>
       </defs>
       <use xlink:href="#TimesNewRomanPSMT-33"/>
       <use xlink:href="#TimesNewRomanPSMT-30" x="50"/>
       <use xlink:href="#TimesNewRomanPSMT-30" x="100"/>
      </g>
     </g>
    </g>
    <g id="ytick_5">
     <g id="line2d_10">
      <g>
       <use xlink:href="#m1490a3a2fd" x="57.6" y="128.202807" style="stroke: #000000; stroke-width: 0.8"/>
      </g>
     </g>
     <g id="text_11">
      <!-- 400 -->
      <g transform="translate(35.6 131.674682) scale(0.1 -0.1)">
       <defs>
        <path id="TimesNewRomanPSMT-34" d="M 2978 1563 
L 2978 1119 
L 2409 1119 
L 2409 0 
L 1894 0 
L 1894 1119 
L 100 1119 
L 100 1519 
L 2066 4325 
L 2409 4325 
L 2409 1563 
L 2978 1563 
z
M 1894 1563 
L 1894 3666 
L 406 1563 
L 1894 1563 
z
" transform="scale(0.015625)"/>
       </defs>
       <use xlink:href="#TimesNewRomanPSMT-34"/>
       <use xlink:href="#TimesNewRomanPSMT-30" x="50"/>
       <use xlink:href="#TimesNewRomanPSMT-30" x="100"/>
      </g>
     </g>
    </g>
    <g id="ytick_6">
     <g id="line2d_11">
      <g>
       <use xlink:href="#m1490a3a2fd" x="57.6" y="83.357509" style="stroke: #000000; stroke-width: 0.8"/>
      </g>
     </g>
     <g id="text_12">
      <!-- 500 -->
      <g transform="translate(35.6 86.829384) scale(0.1 -0.1)">
       <use xlink:href="#TimesNewRomanPSMT-35"/>
       <use xlink:href="#TimesNewRomanPSMT-30" x="50"/>
       <use xlink:href="#TimesNewRomanPSMT-30" x="100"/>
      </g>
     </g>
    </g>
    <g id="text_13">
     <!-- max # of queries for a DPU -->
     <g transform="translate(27.749687 274.003312) rotate(-90) scale(0.18 -0.18)">
      <defs>
       <path id="TimesNewRomanPSMT-6d" d="M 1050 2338 
Q 1363 2650 1419 2697 
Q 1559 2816 1721 2881 
Q 1884 2947 2044 2947 
Q 2313 2947 2506 2790 
Q 2700 2634 2766 2338 
Q 3088 2713 3309 2830 
Q 3531 2947 3766 2947 
Q 3994 2947 4170 2830 
Q 4347 2713 4450 2447 
Q 4519 2266 4519 1878 
L 4519 647 
Q 4519 378 4559 278 
Q 4591 209 4675 161 
Q 4759 113 4950 113 
L 4950 0 
L 3538 0 
L 3538 113 
L 3597 113 
Q 3781 113 3884 184 
Q 3956 234 3988 344 
Q 4000 397 4000 647 
L 4000 1878 
Q 4000 2228 3916 2372 
Q 3794 2572 3525 2572 
Q 3359 2572 3192 2489 
Q 3025 2406 2788 2181 
L 2781 2147 
L 2788 2013 
L 2788 647 
Q 2788 353 2820 281 
Q 2853 209 2943 161 
Q 3034 113 3253 113 
L 3253 0 
L 1806 0 
L 1806 113 
Q 2044 113 2133 169 
Q 2222 225 2256 338 
Q 2272 391 2272 647 
L 2272 1878 
Q 2272 2228 2169 2381 
Q 2031 2581 1784 2581 
Q 1616 2581 1450 2491 
Q 1191 2353 1050 2181 
L 1050 647 
Q 1050 366 1089 281 
Q 1128 197 1204 155 
Q 1281 113 1516 113 
L 1516 0 
L 100 0 
L 100 113 
Q 297 113 375 155 
Q 453 197 493 289 
Q 534 381 534 647 
L 534 1741 
Q 534 2213 506 2350 
Q 484 2453 437 2492 
Q 391 2531 309 2531 
Q 222 2531 100 2484 
L 53 2597 
L 916 2947 
L 1050 2947 
L 1050 2338 
z
" transform="scale(0.015625)"/>
       <path id="TimesNewRomanPSMT-78" d="M 84 2863 
L 1431 2863 
L 1431 2747 
Q 1303 2747 1251 2703 
Q 1200 2659 1200 2588 
Q 1200 2513 1309 2356 
Q 1344 2306 1413 2200 
L 1616 1875 
L 1850 2200 
Q 2075 2509 2075 2591 
Q 2075 2656 2022 2701 
Q 1969 2747 1850 2747 
L 1850 2863 
L 2819 2863 
L 2819 2747 
Q 2666 2738 2553 2663 
Q 2400 2556 2134 2200 
L 1744 1678 
L 2456 653 
Q 2719 275 2831 198 
Q 2944 122 3122 113 
L 3122 0 
L 1772 0 
L 1772 113 
Q 1913 113 1991 175 
Q 2050 219 2050 291 
Q 2050 363 1850 653 
L 1431 1266 
L 972 653 
Q 759 369 759 316 
Q 759 241 829 180 
Q 900 119 1041 113 
L 1041 0 
L 106 0 
L 106 113 
Q 219 128 303 191 
Q 422 281 703 653 
L 1303 1450 
L 759 2238 
Q 528 2575 401 2661 
Q 275 2747 84 2747 
L 84 2863 
z
" transform="scale(0.015625)"/>
       <path id="TimesNewRomanPSMT-23" d="M 359 -88 
L 650 1334 
L 116 1334 
L 116 1591 
L 700 1591 
L 916 2663 
L 116 2663 
L 116 2913 
L 975 2913 
L 1259 4334 
L 1519 4334 
L 1234 2913 
L 2288 2913 
L 2591 4334 
L 2850 4334 
L 2553 2913 
L 3084 2913 
L 3084 2663 
L 2506 2663 
L 2288 1591 
L 3084 1591 
L 3084 1334 
L 2234 1334 
L 1944 -88 
L 1691 -88 
L 1975 1334 
L 916 1334 
L 619 -88 
L 359 -88 
z
M 963 1591 
L 2022 1591 
L 2247 2663 
L 1181 2663 
L 963 1591 
z
" transform="scale(0.015625)"/>
       <path id="TimesNewRomanPSMT-66" d="M 1319 2638 
L 1319 756 
Q 1319 356 1406 250 
Q 1522 113 1716 113 
L 1975 113 
L 1975 0 
L 266 0 
L 266 113 
L 394 113 
Q 519 113 622 175 
Q 725 238 764 344 
Q 803 450 803 756 
L 803 2638 
L 247 2638 
L 247 2863 
L 803 2863 
L 803 3050 
Q 803 3478 940 3775 
Q 1078 4072 1361 4255 
Q 1644 4438 1997 4438 
Q 2325 4438 2600 4225 
Q 2781 4084 2781 3909 
Q 2781 3816 2700 3733 
Q 2619 3650 2525 3650 
Q 2453 3650 2373 3701 
Q 2294 3753 2178 3923 
Q 2063 4094 1966 4153 
Q 1869 4213 1750 4213 
Q 1606 4213 1506 4136 
Q 1406 4059 1362 3898 
Q 1319 3738 1319 3069 
L 1319 2863 
L 2056 2863 
L 2056 2638 
L 1319 2638 
z
" transform="scale(0.015625)"/>
       <path id="TimesNewRomanPSMT-71" d="M 2734 2947 
L 2734 -734 
Q 2734 -1009 2771 -1087 
Q 2809 -1166 2889 -1209 
Q 2969 -1253 3200 -1253 
L 3200 -1369 
L 1756 -1369 
L 1756 -1253 
L 1816 -1253 
Q 1991 -1253 2081 -1203 
Q 2144 -1169 2181 -1080 
Q 2219 -991 2219 -734 
L 2219 497 
Q 1934 159 1721 35 
Q 1509 -88 1281 -88 
Q 866 -88 539 290 
Q 213 669 213 1303 
Q 213 2031 644 2489 
Q 1075 2947 1684 2947 
Q 1863 2947 2013 2897 
Q 2163 2847 2281 2747 
Q 2463 2834 2628 2947 
L 2734 2947 
z
M 2219 694 
L 2219 2038 
Q 2219 2272 2158 2406 
Q 2097 2541 1940 2634 
Q 1784 2728 1588 2728 
Q 1238 2728 988 2431 
Q 738 2134 738 1531 
Q 738 953 992 653 
Q 1247 353 1606 353 
Q 1791 353 1934 433 
Q 2078 513 2219 694 
z
" transform="scale(0.015625)"/>
       <path id="TimesNewRomanPSMT-75" d="M 2709 2863 
L 2709 1128 
Q 2709 631 2732 520 
Q 2756 409 2807 365 
Q 2859 322 2928 322 
Q 3025 322 3147 375 
L 3191 266 
L 2334 -88 
L 2194 -88 
L 2194 519 
Q 1825 119 1631 15 
Q 1438 -88 1222 -88 
Q 981 -88 804 51 
Q 628 191 559 409 
Q 491 628 491 1028 
L 491 2306 
Q 491 2509 447 2587 
Q 403 2666 317 2708 
Q 231 2750 6 2747 
L 6 2863 
L 1009 2863 
L 1009 947 
Q 1009 547 1148 422 
Q 1288 297 1484 297 
Q 1619 297 1789 381 
Q 1959 466 2194 703 
L 2194 2325 
Q 2194 2569 2105 2655 
Q 2016 2741 1734 2747 
L 1734 2863 
L 2709 2863 
z
" transform="scale(0.015625)"/>
       <path id="TimesNewRomanPSMT-73" d="M 2050 2947 
L 2050 1972 
L 1947 1972 
Q 1828 2431 1642 2597 
Q 1456 2763 1169 2763 
Q 950 2763 815 2647 
Q 681 2531 681 2391 
Q 681 2216 781 2091 
Q 878 1963 1175 1819 
L 1631 1597 
Q 2266 1288 2266 781 
Q 2266 391 1970 151 
Q 1675 -88 1309 -88 
Q 1047 -88 709 6 
Q 606 38 541 38 
Q 469 38 428 -44 
L 325 -44 
L 325 978 
L 428 978 
Q 516 541 762 319 
Q 1009 97 1316 97 
Q 1531 97 1667 223 
Q 1803 350 1803 528 
Q 1803 744 1651 891 
Q 1500 1038 1047 1263 
Q 594 1488 453 1669 
Q 313 1847 313 2119 
Q 313 2472 555 2709 
Q 797 2947 1181 2947 
Q 1350 2947 1591 2875 
Q 1750 2828 1803 2828 
Q 1853 2828 1881 2850 
Q 1909 2872 1947 2947 
L 2050 2947 
z
" transform="scale(0.015625)"/>
       <path id="TimesNewRomanPSMT-44" d="M 109 0 
L 109 116 
L 269 116 
Q 538 116 650 288 
Q 719 391 719 750 
L 719 3488 
Q 719 3884 631 3984 
Q 509 4122 269 4122 
L 109 4122 
L 109 4238 
L 1834 4238 
Q 2784 4238 3279 4022 
Q 3775 3806 4076 3303 
Q 4378 2800 4378 2141 
Q 4378 1256 3841 663 
Q 3238 0 2003 0 
L 109 0 
z
M 1319 306 
Q 1716 219 1984 219 
Q 2709 219 3187 728 
Q 3666 1238 3666 2109 
Q 3666 2988 3187 3494 
Q 2709 4000 1959 4000 
Q 1678 4000 1319 3909 
L 1319 306 
z
" transform="scale(0.015625)"/>
       <path id="TimesNewRomanPSMT-50" d="M 1313 1984 
L 1313 750 
Q 1313 350 1400 253 
Q 1519 116 1759 116 
L 1922 116 
L 1922 0 
L 106 0 
L 106 116 
L 266 116 
Q 534 116 650 291 
Q 713 388 713 750 
L 713 3488 
Q 713 3888 628 3984 
Q 506 4122 266 4122 
L 106 4122 
L 106 4238 
L 1659 4238 
Q 2228 4238 2556 4120 
Q 2884 4003 3109 3725 
Q 3334 3447 3334 3066 
Q 3334 2547 2992 2222 
Q 2650 1897 2025 1897 
Q 1872 1897 1694 1919 
Q 1516 1941 1313 1984 
z
M 1313 2163 
Q 1478 2131 1606 2115 
Q 1734 2100 1825 2100 
Q 2150 2100 2386 2351 
Q 2622 2603 2622 3003 
Q 2622 3278 2509 3514 
Q 2397 3750 2190 3867 
Q 1984 3984 1722 3984 
Q 1563 3984 1313 3925 
L 1313 2163 
z
" transform="scale(0.015625)"/>
       <path id="TimesNewRomanPSMT-55" d="M 3053 4122 
L 3053 4238 
L 4553 4238 
L 4553 4122 
L 4394 4122 
Q 4144 4122 4009 3913 
Q 3944 3816 3944 3463 
L 3944 1744 
Q 3944 1106 3817 754 
Q 3691 403 3320 151 
Q 2950 -100 2313 -100 
Q 1619 -100 1259 140 
Q 900 381 750 788 
Q 650 1066 650 1831 
L 650 3488 
Q 650 3878 542 4000 
Q 434 4122 194 4122 
L 34 4122 
L 34 4238 
L 1866 4238 
L 1866 4122 
L 1703 4122 
Q 1441 4122 1328 3956 
Q 1250 3844 1250 3488 
L 1250 1641 
Q 1250 1394 1295 1075 
Q 1341 756 1459 578 
Q 1578 400 1801 284 
Q 2025 169 2350 169 
Q 2766 169 3094 350 
Q 3422 531 3542 814 
Q 3663 1097 3663 1772 
L 3663 3488 
Q 3663 3884 3575 3984 
Q 3453 4122 3213 4122 
L 3053 4122 
z
" transform="scale(0.015625)"/>
      </defs>
      <use xlink:href="#TimesNewRomanPSMT-6d"/>
      <use xlink:href="#TimesNewRomanPSMT-61" x="77.783203"/>
      <use xlink:href="#TimesNewRomanPSMT-78" x="122.167969"/>
      <use xlink:href="#TimesNewRomanPSMT-20" x="172.167969"/>
      <use xlink:href="#TimesNewRomanPSMT-23" x="197.167969"/>
      <use xlink:href="#TimesNewRomanPSMT-20" x="247.167969"/>
      <use xlink:href="#TimesNewRomanPSMT-6f" x="272.167969"/>
      <use xlink:href="#TimesNewRomanPSMT-66" x="322.167969"/>
      <use xlink:href="#TimesNewRomanPSMT-20" x="355.46875"/>
      <use xlink:href="#TimesNewRomanPSMT-71" x="380.46875"/>
      <use xlink:href="#TimesNewRomanPSMT-75" x="430.46875"/>
      <use xlink:href="#TimesNewRomanPSMT-65" x="480.46875"/>
      <use xlink:href="#TimesNewRomanPSMT-72" x="524.853516"/>
      <use xlink:href="#TimesNewRomanPSMT-69" x="558.154297"/>
      <use xlink:href="#TimesNewRomanPSMT-65" x="585.9375"/>
      <use xlink:href="#TimesNewRomanPSMT-73" x="630.322266"/>
      <use xlink:href="#TimesNewRomanPSMT-20" x="669.238281"/>
      <use xlink:href="#TimesNewRomanPSMT-66" x="694.238281"/>
      <use xlink:href="#TimesNewRomanPSMT-6f" x="727.539062"/>
      <use xlink:href="#TimesNewRomanPSMT-72" x="777.539062"/>
      <use xlink:href="#TimesNewRomanPSMT-20" x="810.839844"/>
      <use xlink:href="#TimesNewRomanPSMT-61" x="835.839844"/>
      <use xlink:href="#TimesNewRomanPSMT-20" x="880.224609"/>
      <use xlink:href="#TimesNewRomanPSMT-44" x="905.224609"/>
      <use xlink:href="#TimesNewRomanPSMT-50" x="977.441406"/>
      <use xlink:href="#TimesNewRomanPSMT-55" x="1033.056641"/>
     </g>
    </g>
   </g>
   <g id="line2d_12">
    <path d="M 58.197191 64.522483 
L 59.391572 110.713141 
L 60.585953 117.439935 
L 61.780334 129.996619 
L 62.974716 136.274961 
L 64.169097 123.718277 
L 65.363478 127.754354 
L 66.55786 141.207943 
L 67.752241 140.311037 
L 68.946622 148.383191 
L 70.141003 145.692473 
L 71.335385 145.24402 
L 72.529766 156.903798 
L 73.724147 147.037832 
L 74.918528 144.795567 
L 76.11291 153.316174 
L 77.307291 145.692473 
L 78.501672 145.692473 
L 79.696054 143.450208 
L 80.890435 156.455345 
L 82.084816 136.723414 
L 83.279197 150.625456 
L 84.473579 145.692473 
L 85.66796 146.589379 
L 86.862341 151.970815 
L 88.056722 152.419268 
L 89.251104 139.414131 
L 90.445485 136.274961 
L 91.639866 135.378055 
L 92.834247 151.073909 
L 94.028629 143.450208 
L 95.22301 138.965678 
L 96.417391 138.965678 
L 97.611773 145.24402 
L 98.806154 146.140926 
L 100.000535 139.414131 
L 101.194916 138.965678 
L 102.389298 153.764627 
L 103.583679 142.553302 
L 104.77806 139.414131 
L 105.972441 156.006892 
L 107.166823 147.934738 
L 108.361204 154.21308 
L 109.555585 147.934738 
L 110.749967 146.140926 
L 111.944348 152.867721 
L 113.138729 155.558439 
L 114.33311 128.65126 
L 115.527492 143.898661 
L 116.721873 141.656396 
L 117.916254 143.450208 
L 119.110635 142.553302 
L 120.305017 154.661533 
L 122.693779 145.24402 
L 123.888161 143.898661 
L 125.082542 151.073909 
L 126.276923 150.177003 
L 127.471304 156.006892 
L 128.665686 158.69761 
L 129.860067 149.280097 
L 131.054448 146.589379 
L 132.248829 152.867721 
L 133.443211 147.934738 
L 134.637592 146.589379 
L 137.026355 144.795567 
L 138.220736 145.24402 
L 139.415117 159.594516 
L 140.609498 164.079046 
L 141.80388 158.69761 
L 142.998261 157.352251 
L 144.192642 143.001755 
L 145.387023 156.006892 
L 146.581405 161.836781 
L 147.775786 158.249157 
L 148.970167 147.934738 
L 150.164548 139.414131 
L 151.35893 145.24402 
L 152.553311 156.006892 
L 153.747692 150.625456 
L 154.942074 153.764627 
L 156.136455 141.656396 
L 157.330836 161.836781 
L 158.525217 140.311037 
L 159.719599 153.316174 
L 160.91398 155.558439 
L 162.108361 155.558439 
L 163.302742 158.249157 
L 164.497124 159.146063 
L 166.885886 149.280097 
L 168.080268 158.249157 
L 169.274649 144.347114 
L 170.46903 153.316174 
L 171.663411 145.24402 
L 172.857793 154.661533 
L 174.052174 138.517225 
L 175.246555 156.903798 
L 176.440936 153.316174 
L 177.635318 144.795567 
L 178.829699 139.414131 
L 180.02408 158.249157 
L 181.218462 153.764627 
L 182.412843 148.831644 
L 183.607224 149.72855 
L 184.801605 151.970815 
L 185.995987 152.419268 
L 187.190368 147.934738 
L 188.384749 145.24402 
L 189.57913 143.898661 
L 190.773512 156.006892 
L 191.967893 149.280097 
L 193.162274 143.450208 
L 194.356656 143.450208 
L 195.551037 152.867721 
L 196.745418 154.21308 
L 197.939799 160.491422 
L 199.134181 157.352251 
L 200.328562 149.72855 
L 201.522943 157.800704 
L 202.717324 154.21308 
L 203.911706 167.666669 
L 205.106087 141.207943 
L 206.300468 156.903798 
L 207.494849 156.455345 
L 208.689231 162.285234 
L 209.883612 147.037832 
L 211.077993 158.249157 
L 212.272375 143.450208 
L 213.466756 148.831644 
L 214.661137 159.594516 
L 215.855518 150.177003 
L 217.0499 146.589379 
L 218.244281 162.285234 
L 219.438662 154.21308 
L 220.633043 158.69761 
L 221.827425 154.661533 
L 223.021806 155.109986 
L 224.216187 140.75949 
L 225.410569 155.558439 
L 226.60495 153.764627 
L 227.799331 150.177003 
L 228.993712 138.068772 
L 230.188094 151.073909 
L 231.382475 149.72855 
L 232.576856 143.450208 
L 233.771237 146.140926 
L 234.965619 143.001755 
L 236.16 152.867721 
L 238.548763 152.867721 
L 239.743144 145.692473 
L 240.937525 162.285234 
L 242.131906 164.527498 
L 243.326288 160.042969 
L 244.520669 159.146063 
L 245.71505 137.62032 
L 246.909431 159.146063 
L 248.103813 144.347114 
L 249.298194 138.517225 
L 250.492575 151.073909 
L 251.686957 147.037832 
L 252.881338 152.867721 
L 254.075719 155.558439 
L 255.2701 160.939875 
L 256.464482 158.249157 
L 257.658863 156.006892 
L 258.853244 152.419268 
L 260.047625 146.140926 
L 261.242007 153.764627 
L 262.436388 156.455345 
L 263.630769 161.388328 
L 264.825151 148.831644 
L 266.019532 147.486285 
L 267.213913 157.352251 
L 268.408294 151.073909 
L 269.602676 156.006892 
L 270.797057 140.311037 
L 271.991438 147.934738 
L 273.185819 147.486285 
L 274.380201 152.419268 
L 275.574582 150.177003 
L 276.768963 136.274961 
L 277.963344 160.939875 
L 279.157726 143.450208 
L 280.352107 147.486285 
L 281.546488 152.419268 
L 282.74087 144.347114 
L 283.935251 162.285234 
L 285.129632 159.594516 
L 286.324013 160.042969 
L 287.518395 155.558439 
L 288.712776 135.826508 
L 289.907157 143.001755 
L 291.101538 151.522362 
L 292.29592 145.24402 
L 293.490301 142.553302 
L 294.684682 158.249157 
L 295.879064 143.450208 
L 297.073445 141.207943 
L 298.267826 158.69761 
L 299.462207 156.006892 
L 300.656589 150.625456 
L 301.85097 153.316174 
L 303.045351 153.764627 
L 304.239732 156.903798 
L 305.434114 147.037832 
L 307.822876 154.21308 
L 309.017258 155.109986 
L 311.40602 161.388328 
L 312.600401 151.073909 
L 313.794783 156.903798 
L 314.989164 138.068772 
L 316.183545 151.522362 
L 317.377926 150.177003 
L 318.572308 160.491422 
L 319.766689 146.140926 
L 320.96107 155.109986 
L 322.155452 158.249157 
L 323.349833 146.589379 
L 324.544214 157.352251 
L 325.738595 150.177003 
L 326.932977 151.522362 
L 328.127358 153.764627 
L 329.321739 145.692473 
L 330.51612 147.486285 
L 331.710502 151.970815 
L 332.904883 154.661533 
L 334.099264 149.72855 
L 335.293645 151.970815 
L 336.488027 151.970815 
L 338.876789 148.383191 
L 340.071171 153.764627 
L 341.265552 143.898661 
L 342.459933 160.042969 
L 343.654314 156.903798 
L 344.848696 138.517225 
L 346.043077 156.455345 
L 347.237458 136.274961 
L 348.431839 149.280097 
L 349.626221 164.079046 
L 350.820602 147.934738 
L 352.014983 156.006892 
L 353.209365 152.419268 
L 354.403746 131.790431 
L 355.598127 156.903798 
L 356.792508 161.388328 
L 357.98689 151.970815 
L 359.181271 141.207943 
L 360.375652 158.69761 
L 361.570033 148.383191 
L 362.764415 154.21308 
L 363.958796 152.419268 
L 365.153177 145.692473 
L 366.347559 151.073909 
L 367.54194 145.692473 
L 368.736321 145.692473 
L 369.930702 151.522362 
L 371.125084 159.594516 
L 372.319465 149.280097 
L 373.513846 150.177003 
L 374.708227 152.867721 
L 375.902609 144.347114 
L 377.09699 147.037832 
L 378.291371 155.558439 
L 379.485753 151.073909 
L 380.680134 138.517225 
L 381.874515 146.589379 
L 383.068896 148.831644 
L 384.263278 154.21308 
L 385.457659 151.522362 
L 386.65204 151.522362 
L 387.846421 162.285234 
L 389.040803 146.140926 
L 390.235184 157.800704 
L 391.429565 152.419268 
L 393.818328 156.006892 
L 395.012709 144.347114 
L 396.20709 144.347114 
L 397.401472 147.486285 
L 398.595853 139.414131 
L 399.790234 141.656396 
L 400.984615 145.24402 
L 402.178997 162.733687 
L 403.373378 148.831644 
L 404.567759 141.207943 
L 405.76214 158.249157 
L 406.956522 157.800704 
L 408.150903 151.970815 
L 409.345284 147.486285 
L 410.539666 144.795567 
L 411.734047 150.177003 
L 412.928428 151.522362 
L 414.122809 154.21308 
L 414.122809 154.21308 
" clip-path="url(#padd3722884)" style="fill: none; stroke: #1f77b4; stroke-width: 2; stroke-linecap: square"/>
   </g>
   <g id="line2d_13">
    <path d="M 58.197191 47.48127 
L 59.391572 74.388449 
L 60.585953 67.213201 
L 61.780334 67.213201 
L 62.974716 65.419389 
L 64.169097 76.630714 
L 65.363478 89.63585 
L 66.55786 109.367782 
L 67.752241 113.852311 
L 68.946622 121.924465 
L 70.141003 102.192534 
L 71.335385 117.439935 
L 72.529766 119.233747 
L 73.724147 124.615183 
L 74.918528 117.888388 
L 76.11291 135.378055 
L 77.307291 127.754354 
L 78.501672 131.341978 
L 79.696054 117.439935 
L 80.890435 127.754354 
L 82.084816 126.408995 
L 83.279197 128.202807 
L 84.473579 136.274961 
L 85.66796 132.687337 
L 86.862341 124.16673 
L 88.056722 134.032696 
L 89.251104 130.893525 
L 90.445485 126.857448 
L 91.639866 128.202807 
L 92.834247 139.862584 
L 94.028629 134.032696 
L 95.22301 125.960542 
L 96.417391 131.341978 
L 97.611773 129.548166 
L 98.806154 134.929602 
L 100.000535 126.857448 
L 102.389298 138.068772 
L 103.583679 139.862584 
L 104.77806 132.687337 
L 105.972441 139.862584 
L 107.166823 132.238884 
L 108.361204 129.099713 
L 109.555585 133.584243 
L 110.749967 138.517225 
L 111.944348 135.378055 
L 113.138729 139.862584 
L 114.33311 122.821371 
L 115.527492 131.341978 
L 116.721873 131.790431 
L 117.916254 135.826508 
L 119.110635 121.924465 
L 120.305017 145.24402 
L 121.499398 134.481149 
L 122.693779 136.274961 
L 123.888161 137.62032 
L 125.082542 137.171867 
L 126.276923 129.996619 
L 127.471304 136.723414 
L 128.665686 140.311037 
L 129.860067 133.584243 
L 131.054448 138.517225 
L 132.248829 142.553302 
L 133.443211 130.893525 
L 134.637592 136.274961 
L 135.831973 133.13579 
L 137.026355 125.063636 
L 138.220736 141.207943 
L 139.415117 145.692473 
L 140.609498 141.656396 
L 141.80388 139.414131 
L 142.998261 138.517225 
L 144.192642 133.13579 
L 145.387023 142.553302 
L 146.581405 138.068772 
L 147.775786 136.274961 
L 148.970167 134.929602 
L 150.164548 129.548166 
L 151.35893 138.965678 
L 152.553311 131.790431 
L 153.747692 134.929602 
L 154.942074 138.517225 
L 156.136455 135.378055 
L 157.330836 138.965678 
L 158.525217 131.341978 
L 159.719599 126.408995 
L 160.91398 143.450208 
L 162.108361 131.341978 
L 163.302742 130.893525 
L 164.497124 137.171867 
L 165.691505 127.754354 
L 166.885886 142.553302 
L 168.080268 147.486285 
L 169.274649 134.481149 
L 170.46903 136.274961 
L 171.663411 136.274961 
L 172.857793 125.063636 
L 175.246555 136.723414 
L 176.440936 141.656396 
L 177.635318 138.517225 
L 178.829699 128.202807 
L 180.02408 141.656396 
L 181.218462 137.62032 
L 182.412843 145.692473 
L 183.607224 136.274961 
L 184.801605 133.13579 
L 185.995987 138.517225 
L 187.190368 141.656396 
L 188.384749 134.032696 
L 189.57913 139.862584 
L 190.773512 140.75949 
L 191.967893 134.481149 
L 193.162274 134.032696 
L 194.356656 132.687337 
L 195.551037 134.481149 
L 196.745418 145.24402 
L 197.939799 139.862584 
L 199.134181 135.378055 
L 200.328562 128.202807 
L 201.522943 146.140926 
L 202.717324 124.615183 
L 203.911706 139.414131 
L 205.106087 136.274961 
L 206.300468 143.898661 
L 207.494849 145.692473 
L 208.689231 147.037832 
L 209.883612 129.548166 
L 211.077993 141.656396 
L 212.272375 128.65126 
L 213.466756 140.75949 
L 214.661137 149.72855 
L 215.855518 127.754354 
L 217.0499 143.001755 
L 219.438662 129.996619 
L 220.633043 135.378055 
L 221.827425 133.584243 
L 223.021806 147.037832 
L 224.216187 129.548166 
L 225.410569 145.24402 
L 226.60495 146.140926 
L 227.799331 150.177003 
L 228.993712 130.893525 
L 230.188094 138.517225 
L 231.382475 133.584243 
L 233.771237 143.001755 
L 234.965619 124.16673 
L 236.16 143.001755 
L 238.548763 144.795567 
L 239.743144 129.548166 
L 240.937525 151.970815 
L 242.131906 151.522362 
L 243.326288 139.862584 
L 244.520669 143.450208 
L 245.71505 128.202807 
L 246.909431 147.486285 
L 248.103813 137.171867 
L 249.298194 137.62032 
L 250.492575 141.207943 
L 251.686957 135.378055 
L 252.881338 138.517225 
L 254.075719 144.347114 
L 255.2701 145.24402 
L 256.464482 140.311037 
L 257.658863 134.032696 
L 258.853244 134.481149 
L 260.047625 146.140926 
L 261.242007 138.517225 
L 262.436388 136.274961 
L 263.630769 149.72855 
L 264.825151 145.692473 
L 266.019532 147.486285 
L 267.213913 144.795567 
L 268.408294 138.068772 
L 269.602676 147.934738 
L 270.797057 140.311037 
L 271.991438 129.996619 
L 273.185819 143.450208 
L 274.380201 138.517225 
L 275.574582 136.723414 
L 276.768963 131.341978 
L 277.963344 141.656396 
L 279.157726 128.202807 
L 280.352107 136.723414 
L 281.546488 143.001755 
L 282.74087 144.347114 
L 283.935251 150.625456 
L 285.129632 141.656396 
L 286.324013 139.862584 
L 287.518395 141.207943 
L 288.712776 125.960542 
L 289.907157 137.62032 
L 291.101538 143.001755 
L 292.29592 145.24402 
L 293.490301 142.553302 
L 294.684682 152.867721 
L 295.879064 143.450208 
L 297.073445 148.383191 
L 298.267826 143.001755 
L 299.462207 135.378055 
L 300.656589 129.996619 
L 301.85097 145.692473 
L 303.045351 138.965678 
L 304.239732 143.001755 
L 305.434114 129.548166 
L 306.628495 134.481149 
L 307.822876 137.171867 
L 309.017258 145.24402 
L 310.211639 147.934738 
L 311.40602 140.75949 
L 312.600401 148.383191 
L 313.794783 133.13579 
L 314.989164 138.068772 
L 316.183545 144.795567 
L 317.377926 138.965678 
L 318.572308 147.037832 
L 319.766689 144.795567 
L 320.96107 150.177003 
L 322.155452 141.656396 
L 323.349833 132.238884 
L 324.544214 139.414131 
L 325.738595 147.934738 
L 326.932977 142.553302 
L 328.127358 141.656396 
L 329.321739 134.481149 
L 330.51612 140.75949 
L 331.710502 136.723414 
L 332.904883 144.795567 
L 334.099264 144.347114 
L 335.293645 141.207943 
L 336.488027 132.687337 
L 337.682408 136.723414 
L 338.876789 134.481149 
L 340.071171 143.001755 
L 341.265552 135.826508 
L 342.459933 143.898661 
L 343.654314 143.001755 
L 344.848696 137.62032 
L 346.043077 150.625456 
L 347.237458 136.274961 
L 348.431839 143.898661 
L 349.626221 146.140926 
L 350.820602 132.238884 
L 352.014983 155.558439 
L 353.209365 145.692473 
L 354.403746 132.238884 
L 355.598127 138.068772 
L 356.792508 139.862584 
L 357.98689 144.795567 
L 359.181271 141.207943 
L 360.375652 147.934738 
L 361.570033 143.898661 
L 362.764415 140.75949 
L 363.958796 147.934738 
L 365.153177 127.305901 
L 366.347559 145.24402 
L 367.54194 135.826508 
L 368.736321 136.274961 
L 369.930702 145.692473 
L 371.125084 138.517225 
L 372.319465 129.996619 
L 373.513846 134.929602 
L 374.708227 147.037832 
L 375.902609 135.378055 
L 377.09699 145.24402 
L 378.291371 142.553302 
L 379.485753 142.553302 
L 380.680134 130.893525 
L 381.874515 146.589379 
L 383.068896 140.311037 
L 384.263278 143.001755 
L 385.457659 129.996619 
L 386.65204 144.347114 
L 387.846421 157.352251 
L 389.040803 142.553302 
L 390.235184 147.037832 
L 391.429565 154.21308 
L 392.623946 136.274961 
L 393.818328 143.450208 
L 395.012709 129.548166 
L 396.20709 145.692473 
L 397.401472 138.517225 
L 398.595853 127.754354 
L 399.790234 135.826508 
L 400.984615 145.24402 
L 402.178997 143.001755 
L 403.373378 128.65126 
L 404.567759 133.584243 
L 405.76214 142.553302 
L 406.956522 139.414131 
L 408.150903 140.311037 
L 409.345284 139.862584 
L 410.539666 135.378055 
L 411.734047 147.934738 
L 412.928428 138.517225 
L 414.122809 150.625456 
L 414.122809 150.625456 
" clip-path="url(#padd3722884)" style="fill: none; stroke: #ff7f0e; stroke-width: 1.5; stroke-linecap: square"/>
   </g>
   <g id="patch_3">
    <path d="M 57.6 307.584 
L 57.6 41.472 
" style="fill: none; stroke: #000000; stroke-width: 0.8; stroke-linejoin: miter; stroke-linecap: square"/>
   </g>
   <g id="patch_4">
    <path d="M 414.72 307.584 
L 414.72 41.472 
" style="fill: none; stroke: #000000; stroke-width: 0.8; stroke-linejoin: miter; stroke-linecap: square"/>
   </g>
   <g id="patch_5">
    <path d="M 57.6 307.584 
L 414.72 307.584 
" style="fill: none; stroke: #000000; stroke-width: 0.8; stroke-linejoin: miter; stroke-linecap: square"/>
   </g>
   <g id="patch_6">
    <path d="M 57.6 41.472 
L 414.72 41.472 
" style="fill: none; stroke: #000000; stroke-width: 0.8; stroke-linejoin: miter; stroke-linecap: square"/>
   </g>
   <g id="legend_1">
    <g id="patch_7">
     <path d="M 346.841875 77.750125 
L 407.72 77.750125 
Q 409.72 77.750125 409.72 75.750125 
L 409.72 48.472 
Q 409.72 46.472 407.72 46.472 
L 346.841875 46.472 
Q 344.841875 46.472 344.841875 48.472 
L 344.841875 75.750125 
Q 344.841875 77.750125 346.841875 77.750125 
z
" style="fill: #ffffff; opacity: 0.8; stroke: #cccccc; stroke-linejoin: miter"/>
    </g>
    <g id="line2d_14">
     <path d="M 348.841875 53.972 
L 358.841875 53.972 
L 368.841875 53.972 
" style="fill: none; stroke: #1f77b4; stroke-width: 2; stroke-linecap: square"/>
    </g>
    <g id="text_14">
     <!-- 12trees -->
     <g transform="translate(376.841875 57.472) scale(0.1 -0.1)">
      <use xlink:href="#TimesNewRomanPSMT-31"/>
      <use xlink:href="#TimesNewRomanPSMT-32" x="50"/>
      <use xlink:href="#TimesNewRomanPSMT-74" x="100"/>
      <use xlink:href="#TimesNewRomanPSMT-72" x="127.783203"/>
      <use xlink:href="#TimesNewRomanPSMT-65" x="161.083984"/>
      <use xlink:href="#TimesNewRomanPSMT-65" x="205.46875"/>
      <use xlink:href="#TimesNewRomanPSMT-73" x="249.853516"/>
     </g>
    </g>
    <g id="line2d_15">
     <path d="M 348.841875 68.111063 
L 358.841875 68.111063 
L 368.841875 68.111063 
" style="fill: none; stroke: #ff7f0e; stroke-width: 1.5; stroke-linecap: square"/>
    </g>
    <g id="text_15">
     <!-- 50trees -->
     <g transform="translate(376.841875 71.611063) scale(0.1 -0.1)">
      <use xlink:href="#TimesNewRomanPSMT-35"/>
      <use xlink:href="#TimesNewRomanPSMT-30" x="50"/>
      <use xlink:href="#TimesNewRomanPSMT-74" x="100"/>
      <use xlink:href="#TimesNewRomanPSMT-72" x="127.783203"/>
      <use xlink:href="#TimesNewRomanPSMT-65" x="161.083984"/>
      <use xlink:href="#TimesNewRomanPSMT-65" x="205.46875"/>
      <use xlink:href="#TimesNewRomanPSMT-73" x="249.853516"/>
     </g>
    </g>
   </g>
  </g>
 </g>
 <defs>
  <clipPath id="padd3722884">
   <rect x="57.6" y="41.472" width="357.12" height="266.112"/>
  </clipPath>
 </defs>
</svg>
