<?xml version="1.0" encoding="utf-8" standalone="no"?>
<!DOCTYPE svg PUBLIC "-//W3C//DTD SVG 1.1//EN"
  "http://www.w3.org/Graphics/SVG/1.1/DTD/svg11.dtd">
<svg xmlns:xlink="http://www.w3.org/1999/xlink" width="460.8pt" height="345.6pt" viewBox="0 0 460.8 345.6" xmlns="http://www.w3.org/2000/svg" version="1.1">
 <metadata>
  <rdf:RDF xmlns:dc="http://purl.org/dc/elements/1.1/" xmlns:cc="http://creativecommons.org/ns#" xmlns:rdf="http://www.w3.org/1999/02/22-rdf-syntax-ns#">
   <cc:Work>
    <dc:type rdf:resource="http://purl.org/dc/dcmitype/StillImage"/>
    <dc:date>2024-02-14T15:54:53.195609</dc:date>
    <dc:format>image/svg+xml</dc:format>
    <dc:creator>
     <cc:Agent>
      <dc:title>Matplotlib v3.7.0, https://matplotlib.org/</dc:title>
     </cc:Agent>
    </dc:creator>
   </cc:Work>
  </rdf:RDF>
 </metadata>
 <defs>
  <style type="text/css">*{stroke-linejoin: round; stroke-linecap: butt}</style>
 </defs>
 <g id="figure_1">
  <g id="patch_1">
   <path d="M 0 345.6 
L 460.8 345.6 
L 460.8 0 
L 0 0 
L 0 345.6 
z
" style="fill: none"/>
  </g>
  <g id="axes_1">
   <g id="patch_2">
    <path d="M 57.6 56.422112 
L 414.72 56.422112 
L 414.72 41.472 
L 57.6 41.472 
L 57.6 56.422112 
z
" style="fill: none"/>
   </g>
   <g id="patch_3">
    <path d="M 57.6 4456.179707 
L 89.752262 4456.179707 
L 89.752262 4456.179707 
L 57.6 4456.179707 
z
" clip-path="url(#p6c40be7c89)"/>
   </g>
   <g id="patch_4">
    <path d="M 89.752262 4456.179707 
L 121.904525 4456.179707 
L 121.904525 41.472764 
L 89.752262 41.472764 
z
" clip-path="url(#p6c40be7c89)"/>
   </g>
   <g id="patch_5">
    <path d="M 121.904525 4456.179707 
L 154.056787 4456.179707 
L 154.056787 55.097653 
L 121.904525 55.097653 
z
" clip-path="url(#p6c40be7c89)"/>
   </g>
   <g id="patch_6">
    <path d="M 154.056787 4456.179707 
L 186.209049 4456.179707 
L 186.209049 4456.179707 
L 154.056787 4456.179707 
z
" clip-path="url(#p6c40be7c89)"/>
   </g>
   <g id="patch_7">
    <path d="M 186.209049 4456.179707 
L 218.361312 4456.179707 
L 218.361312 4456.179707 
L 186.209049 4456.179707 
z
" clip-path="url(#p6c40be7c89)"/>
   </g>
   <g id="patch_8">
    <path d="M 218.361312 4456.179707 
L 250.513574 4456.179707 
L 250.513574 4456.179707 
L 218.361312 4456.179707 
z
" clip-path="url(#p6c40be7c89)"/>
   </g>
   <g id="patch_9">
    <path d="M 250.513574 4456.179707 
L 282.665836 4456.179707 
L 282.665836 4456.179707 
L 250.513574 4456.179707 
z
" clip-path="url(#p6c40be7c89)"/>
   </g>
   <g id="patch_10">
    <path d="M 282.665836 4456.179707 
L 314.818099 4456.179707 
L 314.818099 4456.179707 
L 282.665836 4456.179707 
z
" clip-path="url(#p6c40be7c89)"/>
   </g>
   <g id="patch_11">
    <path d="M 314.818099 4456.179707 
L 346.970361 4456.179707 
L 346.970361 4456.179707 
L 314.818099 4456.179707 
z
" clip-path="url(#p6c40be7c89)"/>
   </g>
   <g id="patch_12">
    <path d="M 346.970361 4456.179707 
L 379.122624 4456.179707 
L 379.122624 4456.179707 
L 346.970361 4456.179707 
z
" clip-path="url(#p6c40be7c89)"/>
   </g>
   <g id="matplotlib.axis_1"/>
   <g id="matplotlib.axis_2">
    <g id="ytick_1"/>
    <g id="ytick_2"/>
   </g>
   <g id="patch_13">
    <path d="M 57.6 56.422112 
L 57.6 41.472 
" style="fill: none; stroke: #000000; stroke-width: 0.8; stroke-linejoin: miter; stroke-linecap: square"/>
   </g>
   <g id="patch_14">
    <path d="M 414.72 56.422112 
L 414.72 41.472 
" style="fill: none; stroke: #000000; stroke-width: 0.8; stroke-linejoin: miter; stroke-linecap: square"/>
   </g>
   <g id="patch_15">
    <path d="M 57.6 56.422112 
L 414.72 56.422112 
" style="fill: none; stroke: #000000; stroke-width: 0.8; stroke-linejoin: miter; stroke-linecap: square"/>
   </g>
   <g id="patch_16">
    <path d="M 57.6 41.472 
L 414.72 41.472 
" style="fill: none; stroke: #000000; stroke-width: 0.8; stroke-linejoin: miter; stroke-linecap: square"/>
   </g>
  </g>
  <g id="axes_2">
   <g id="patch_17">
    <path d="M 57.6 74.362247 
L 414.72 74.362247 
L 414.72 59.412135 
L 57.6 59.412135 
L 57.6 74.362247 
z
" style="fill: none"/>
   </g>
   <g id="patch_18">
    <path d="M 57.6 4474.119842 
L 89.752262 4474.119842 
L 89.752262 4474.119842 
L 57.6 4474.119842 
z
" clip-path="url(#p58954c029d)"/>
   </g>
   <g id="patch_19">
    <path d="M 89.752262 4474.119842 
L 121.904525 4474.119842 
L 121.904525 59.414429 
L 89.752262 59.414429 
z
" clip-path="url(#p58954c029d)"/>
   </g>
   <g id="patch_20">
    <path d="M 121.904525 4474.119842 
L 154.056787 4474.119842 
L 154.056787 73.037788 
L 121.904525 73.037788 
z
" clip-path="url(#p58954c029d)"/>
   </g>
   <g id="patch_21">
    <path d="M 154.056787 4474.119842 
L 186.209049 4474.119842 
L 186.209049 73.037788 
L 154.056787 73.037788 
z
" clip-path="url(#p58954c029d)"/>
   </g>
   <g id="patch_22">
    <path d="M 186.209049 4474.119842 
L 218.361312 4474.119842 
L 218.361312 4474.119842 
L 186.209049 4474.119842 
z
" clip-path="url(#p58954c029d)"/>
   </g>
   <g id="patch_23">
    <path d="M 218.361312 4474.119842 
L 250.513574 4474.119842 
L 250.513574 4474.119842 
L 218.361312 4474.119842 
z
" clip-path="url(#p58954c029d)"/>
   </g>
   <g id="patch_24">
    <path d="M 250.513574 4474.119842 
L 282.665836 4474.119842 
L 282.665836 4474.119842 
L 250.513574 4474.119842 
z
" clip-path="url(#p58954c029d)"/>
   </g>
   <g id="patch_25">
    <path d="M 282.665836 4474.119842 
L 314.818099 4474.119842 
L 314.818099 4474.119842 
L 282.665836 4474.119842 
z
" clip-path="url(#p58954c029d)"/>
   </g>
   <g id="patch_26">
    <path d="M 314.818099 4474.119842 
L 346.970361 4474.119842 
L 346.970361 4474.119842 
L 314.818099 4474.119842 
z
" clip-path="url(#p58954c029d)"/>
   </g>
   <g id="patch_27">
    <path d="M 346.970361 4474.119842 
L 379.122624 4474.119842 
L 379.122624 4474.119842 
L 346.970361 4474.119842 
z
" clip-path="url(#p58954c029d)"/>
   </g>
   <g id="matplotlib.axis_3"/>
   <g id="matplotlib.axis_4">
    <g id="ytick_3"/>
    <g id="ytick_4"/>
   </g>
   <g id="patch_28">
    <path d="M 57.6 74.362247 
L 57.6 59.412135 
" style="fill: none; stroke: #000000; stroke-width: 0.8; stroke-linejoin: miter; stroke-linecap: square"/>
   </g>
   <g id="patch_29">
    <path d="M 414.72 74.362247 
L 414.72 59.412135 
" style="fill: none; stroke: #000000; stroke-width: 0.8; stroke-linejoin: miter; stroke-linecap: square"/>
   </g>
   <g id="patch_30">
    <path d="M 57.6 74.362247 
L 414.72 74.362247 
" style="fill: none; stroke: #000000; stroke-width: 0.8; stroke-linejoin: miter; stroke-linecap: square"/>
   </g>
   <g id="patch_31">
    <path d="M 57.6 59.412135 
L 414.72 59.412135 
" style="fill: none; stroke: #000000; stroke-width: 0.8; stroke-linejoin: miter; stroke-linecap: square"/>
   </g>
  </g>
  <g id="axes_3">
   <g id="patch_32">
    <path d="M 57.6 92.302382 
L 414.72 92.302382 
L 414.72 77.35227 
L 57.6 77.35227 
L 57.6 92.302382 
z
" style="fill: none"/>
   </g>
   <g id="patch_33">
    <path d="M 57.6 4492.059977 
L 89.752262 4492.059977 
L 89.752262 4492.059977 
L 57.6 4492.059977 
z
" clip-path="url(#pe1505703eb)"/>
   </g>
   <g id="patch_34">
    <path d="M 89.752262 4492.059977 
L 121.904525 4492.059977 
L 121.904525 77.355329 
L 89.752262 77.355329 
z
" clip-path="url(#pe1505703eb)"/>
   </g>
   <g id="patch_35">
    <path d="M 121.904525 4492.059977 
L 154.056787 4492.059977 
L 154.056787 90.203164 
L 121.904525 90.203164 
z
" clip-path="url(#pe1505703eb)"/>
   </g>
   <g id="patch_36">
    <path d="M 154.056787 4492.059977 
L 186.209049 4492.059977 
L 186.209049 4492.059977 
L 154.056787 4492.059977 
z
" clip-path="url(#pe1505703eb)"/>
   </g>
   <g id="patch_37">
    <path d="M 186.209049 4492.059977 
L 218.361312 4492.059977 
L 218.361312 90.977923 
L 186.209049 90.977923 
z
" clip-path="url(#pe1505703eb)"/>
   </g>
   <g id="patch_38">
    <path d="M 218.361312 4492.059977 
L 250.513574 4492.059977 
L 250.513574 4492.059977 
L 218.361312 4492.059977 
z
" clip-path="url(#pe1505703eb)"/>
   </g>
   <g id="patch_39">
    <path d="M 250.513574 4492.059977 
L 282.665836 4492.059977 
L 282.665836 4492.059977 
L 250.513574 4492.059977 
z
" clip-path="url(#pe1505703eb)"/>
   </g>
   <g id="patch_40">
    <path d="M 282.665836 4492.059977 
L 314.818099 4492.059977 
L 314.818099 4492.059977 
L 282.665836 4492.059977 
z
" clip-path="url(#pe1505703eb)"/>
   </g>
   <g id="patch_41">
    <path d="M 314.818099 4492.059977 
L 346.970361 4492.059977 
L 346.970361 4492.059977 
L 314.818099 4492.059977 
z
" clip-path="url(#pe1505703eb)"/>
   </g>
   <g id="patch_42">
    <path d="M 346.970361 4492.059977 
L 379.122624 4492.059977 
L 379.122624 4492.059977 
L 346.970361 4492.059977 
z
" clip-path="url(#pe1505703eb)"/>
   </g>
   <g id="matplotlib.axis_5"/>
   <g id="matplotlib.axis_6">
    <g id="ytick_5"/>
    <g id="ytick_6"/>
   </g>
   <g id="patch_43">
    <path d="M 57.6 92.302382 
L 57.6 77.35227 
" style="fill: none; stroke: #000000; stroke-width: 0.8; stroke-linejoin: miter; stroke-linecap: square"/>
   </g>
   <g id="patch_44">
    <path d="M 414.72 92.302382 
L 414.72 77.35227 
" style="fill: none; stroke: #000000; stroke-width: 0.8; stroke-linejoin: miter; stroke-linecap: square"/>
   </g>
   <g id="patch_45">
    <path d="M 57.6 92.302382 
L 414.72 92.302382 
" style="fill: none; stroke: #000000; stroke-width: 0.8; stroke-linejoin: miter; stroke-linecap: square"/>
   </g>
   <g id="patch_46">
    <path d="M 57.6 77.35227 
L 414.72 77.35227 
" style="fill: none; stroke: #000000; stroke-width: 0.8; stroke-linejoin: miter; stroke-linecap: square"/>
   </g>
  </g>
  <g id="axes_4">
   <g id="patch_47">
    <path d="M 57.6 110.242517 
L 414.72 110.242517 
L 414.72 95.292404 
L 57.6 95.292404 
L 57.6 110.242517 
z
" style="fill: none"/>
   </g>
   <g id="patch_48">
    <path d="M 57.6 4510.000112 
L 89.752262 4510.000112 
L 89.752262 4510.000112 
L 57.6 4510.000112 
z
" clip-path="url(#pd09240ae7a)"/>
   </g>
   <g id="patch_49">
    <path d="M 89.752262 4510.000112 
L 121.904525 4510.000112 
L 121.904525 95.296996 
L 89.752262 95.296996 
z
" clip-path="url(#pd09240ae7a)"/>
   </g>
   <g id="patch_50">
    <path d="M 121.904525 4510.000112 
L 154.056787 4510.000112 
L 154.056787 107.593599 
L 121.904525 107.593599 
z
" clip-path="url(#pd09240ae7a)"/>
   </g>
   <g id="patch_51">
    <path d="M 154.056787 4510.000112 
L 186.209049 4510.000112 
L 186.209049 110.242517 
L 154.056787 110.242517 
z
" clip-path="url(#pd09240ae7a)"/>
   </g>
   <g id="patch_52">
    <path d="M 186.209049 4510.000112 
L 218.361312 4510.000112 
L 218.361312 4510.000112 
L 186.209049 4510.000112 
z
" clip-path="url(#pd09240ae7a)"/>
   </g>
   <g id="patch_53">
    <path d="M 218.361312 4510.000112 
L 250.513574 4510.000112 
L 250.513574 108.918058 
L 218.361312 108.918058 
z
" clip-path="url(#pd09240ae7a)"/>
   </g>
   <g id="patch_54">
    <path d="M 250.513574 4510.000112 
L 282.665836 4510.000112 
L 282.665836 4510.000112 
L 250.513574 4510.000112 
z
" clip-path="url(#pd09240ae7a)"/>
   </g>
   <g id="patch_55">
    <path d="M 282.665836 4510.000112 
L 314.818099 4510.000112 
L 314.818099 4510.000112 
L 282.665836 4510.000112 
z
" clip-path="url(#pd09240ae7a)"/>
   </g>
   <g id="patch_56">
    <path d="M 314.818099 4510.000112 
L 346.970361 4510.000112 
L 346.970361 4510.000112 
L 314.818099 4510.000112 
z
" clip-path="url(#pd09240ae7a)"/>
   </g>
   <g id="patch_57">
    <path d="M 346.970361 4510.000112 
L 379.122624 4510.000112 
L 379.122624 4510.000112 
L 346.970361 4510.000112 
z
" clip-path="url(#pd09240ae7a)"/>
   </g>
   <g id="matplotlib.axis_7"/>
   <g id="matplotlib.axis_8">
    <g id="ytick_7"/>
    <g id="ytick_8"/>
   </g>
   <g id="patch_58">
    <path d="M 57.6 110.242517 
L 57.6 95.292404 
" style="fill: none; stroke: #000000; stroke-width: 0.8; stroke-linejoin: miter; stroke-linecap: square"/>
   </g>
   <g id="patch_59">
    <path d="M 414.72 110.242517 
L 414.72 95.292404 
" style="fill: none; stroke: #000000; stroke-width: 0.8; stroke-linejoin: miter; stroke-linecap: square"/>
   </g>
   <g id="patch_60">
    <path d="M 57.6 110.242517 
L 414.72 110.242517 
" style="fill: none; stroke: #000000; stroke-width: 0.8; stroke-linejoin: miter; stroke-linecap: square"/>
   </g>
   <g id="patch_61">
    <path d="M 57.6 95.292404 
L 414.72 95.292404 
" style="fill: none; stroke: #000000; stroke-width: 0.8; stroke-linejoin: miter; stroke-linecap: square"/>
   </g>
  </g>
  <g id="axes_5">
   <g id="patch_62">
    <path d="M 57.6 128.182652 
L 414.72 128.182652 
L 414.72 113.232539 
L 57.6 113.232539 
L 57.6 128.182652 
z
" style="fill: none"/>
   </g>
   <g id="patch_63">
    <path d="M 57.6 4527.940246 
L 89.752262 4527.940246 
L 89.752262 4527.940246 
L 57.6 4527.940246 
z
" clip-path="url(#paa6f063cf4)"/>
   </g>
   <g id="patch_64">
    <path d="M 89.752262 4527.940246 
L 121.904525 4527.940246 
L 121.904525 113.237897 
L 89.752262 113.237897 
z
" clip-path="url(#paa6f063cf4)"/>
   </g>
   <g id="patch_65">
    <path d="M 121.904525 4527.940246 
L 154.056787 4527.940246 
L 154.056787 125.533734 
L 121.904525 125.533734 
z
" clip-path="url(#paa6f063cf4)"/>
   </g>
   <g id="patch_66">
    <path d="M 154.056787 4527.940246 
L 186.209049 4527.940246 
L 186.209049 126.858193 
L 154.056787 126.858193 
z
" clip-path="url(#paa6f063cf4)"/>
   </g>
   <g id="patch_67">
    <path d="M 186.209049 4527.940246 
L 218.361312 4527.940246 
L 218.361312 4527.940246 
L 186.209049 4527.940246 
z
" clip-path="url(#paa6f063cf4)"/>
   </g>
   <g id="patch_68">
    <path d="M 218.361312 4527.940246 
L 250.513574 4527.940246 
L 250.513574 4527.940246 
L 218.361312 4527.940246 
z
" clip-path="url(#paa6f063cf4)"/>
   </g>
   <g id="patch_69">
    <path d="M 250.513574 4527.940246 
L 282.665836 4527.940246 
L 282.665836 126.858193 
L 250.513574 126.858193 
z
" clip-path="url(#paa6f063cf4)"/>
   </g>
   <g id="patch_70">
    <path d="M 282.665836 4527.940246 
L 314.818099 4527.940246 
L 314.818099 4527.940246 
L 282.665836 4527.940246 
z
" clip-path="url(#paa6f063cf4)"/>
   </g>
   <g id="patch_71">
    <path d="M 314.818099 4527.940246 
L 346.970361 4527.940246 
L 346.970361 4527.940246 
L 314.818099 4527.940246 
z
" clip-path="url(#paa6f063cf4)"/>
   </g>
   <g id="patch_72">
    <path d="M 346.970361 4527.940246 
L 379.122624 4527.940246 
L 379.122624 4527.940246 
L 346.970361 4527.940246 
z
" clip-path="url(#paa6f063cf4)"/>
   </g>
   <g id="matplotlib.axis_9"/>
   <g id="matplotlib.axis_10">
    <g id="ytick_9"/>
    <g id="ytick_10"/>
   </g>
   <g id="patch_73">
    <path d="M 57.6 128.182652 
L 57.6 113.232539 
" style="fill: none; stroke: #000000; stroke-width: 0.8; stroke-linejoin: miter; stroke-linecap: square"/>
   </g>
   <g id="patch_74">
    <path d="M 414.72 128.182652 
L 414.72 113.232539 
" style="fill: none; stroke: #000000; stroke-width: 0.8; stroke-linejoin: miter; stroke-linecap: square"/>
   </g>
   <g id="patch_75">
    <path d="M 57.6 128.182652 
L 414.72 128.182652 
" style="fill: none; stroke: #000000; stroke-width: 0.8; stroke-linejoin: miter; stroke-linecap: square"/>
   </g>
   <g id="patch_76">
    <path d="M 57.6 113.232539 
L 414.72 113.232539 
" style="fill: none; stroke: #000000; stroke-width: 0.8; stroke-linejoin: miter; stroke-linecap: square"/>
   </g>
  </g>
  <g id="axes_6">
   <g id="patch_77">
    <path d="M 57.6 146.122787 
L 414.72 146.122787 
L 414.72 131.172674 
L 57.6 131.172674 
L 57.6 146.122787 
z
" style="fill: none"/>
   </g>
   <g id="patch_78">
    <path d="M 57.6 4545.880381 
L 89.752262 4545.880381 
L 89.752262 4545.880381 
L 57.6 4545.880381 
z
" clip-path="url(#pdd7994b589)"/>
   </g>
   <g id="patch_79">
    <path d="M 89.752262 4545.880381 
L 121.904525 4545.880381 
L 121.904525 131.178798 
L 89.752262 131.178798 
z
" clip-path="url(#pdd7994b589)"/>
   </g>
   <g id="patch_80">
    <path d="M 121.904525 4545.880381 
L 154.056787 4545.880381 
L 154.056787 143.047488 
L 121.904525 143.047488 
z
" clip-path="url(#pdd7994b589)"/>
   </g>
   <g id="patch_81">
    <path d="M 154.056787 4545.880381 
L 186.209049 4545.880381 
L 186.209049 146.122787 
L 154.056787 146.122787 
z
" clip-path="url(#pdd7994b589)"/>
   </g>
   <g id="patch_82">
    <path d="M 186.209049 4545.880381 
L 218.361312 4545.880381 
L 218.361312 146.122787 
L 186.209049 146.122787 
z
" clip-path="url(#pdd7994b589)"/>
   </g>
   <g id="patch_83">
    <path d="M 218.361312 4545.880381 
L 250.513574 4545.880381 
L 250.513574 4545.880381 
L 218.361312 4545.880381 
z
" clip-path="url(#pdd7994b589)"/>
   </g>
   <g id="patch_84">
    <path d="M 250.513574 4545.880381 
L 282.665836 4545.880381 
L 282.665836 4545.880381 
L 250.513574 4545.880381 
z
" clip-path="url(#pdd7994b589)"/>
   </g>
   <g id="patch_85">
    <path d="M 282.665836 4545.880381 
L 314.818099 4545.880381 
L 314.818099 144.798328 
L 282.665836 144.798328 
z
" clip-path="url(#pdd7994b589)"/>
   </g>
   <g id="patch_86">
    <path d="M 314.818099 4545.880381 
L 346.970361 4545.880381 
L 346.970361 4545.880381 
L 314.818099 4545.880381 
z
" clip-path="url(#pdd7994b589)"/>
   </g>
   <g id="patch_87">
    <path d="M 346.970361 4545.880381 
L 379.122624 4545.880381 
L 379.122624 4545.880381 
L 346.970361 4545.880381 
z
" clip-path="url(#pdd7994b589)"/>
   </g>
   <g id="matplotlib.axis_11"/>
   <g id="matplotlib.axis_12">
    <g id="ytick_11"/>
    <g id="ytick_12"/>
   </g>
   <g id="patch_88">
    <path d="M 57.6 146.122787 
L 57.6 131.172674 
" style="fill: none; stroke: #000000; stroke-width: 0.8; stroke-linejoin: miter; stroke-linecap: square"/>
   </g>
   <g id="patch_89">
    <path d="M 414.72 146.122787 
L 414.72 131.172674 
" style="fill: none; stroke: #000000; stroke-width: 0.8; stroke-linejoin: miter; stroke-linecap: square"/>
   </g>
   <g id="patch_90">
    <path d="M 57.6 146.122787 
L 414.72 146.122787 
" style="fill: none; stroke: #000000; stroke-width: 0.8; stroke-linejoin: miter; stroke-linecap: square"/>
   </g>
   <g id="patch_91">
    <path d="M 57.6 131.172674 
L 414.72 131.172674 
" style="fill: none; stroke: #000000; stroke-width: 0.8; stroke-linejoin: miter; stroke-linecap: square"/>
   </g>
  </g>
  <g id="axes_7">
   <g id="patch_92">
    <path d="M 57.6 164.062921 
L 414.72 164.062921 
L 414.72 149.112809 
L 57.6 149.112809 
L 57.6 164.062921 
z
" style="fill: none"/>
   </g>
   <g id="patch_93">
    <path d="M 57.6 4563.820516 
L 89.752262 4563.820516 
L 89.752262 4563.820516 
L 57.6 4563.820516 
z
" clip-path="url(#p912fe7b3c0)"/>
   </g>
   <g id="patch_94">
    <path d="M 89.752262 4563.820516 
L 121.904525 4563.820516 
L 121.904525 149.120467 
L 89.752262 149.120467 
z
" clip-path="url(#p912fe7b3c0)"/>
   </g>
   <g id="patch_95">
    <path d="M 121.904525 4563.820516 
L 154.056787 4563.820516 
L 154.056787 160.639244 
L 121.904525 160.639244 
z
" clip-path="url(#p912fe7b3c0)"/>
   </g>
   <g id="patch_96">
    <path d="M 154.056787 4563.820516 
L 186.209049 4563.820516 
L 186.209049 164.062921 
L 154.056787 164.062921 
z
" clip-path="url(#p912fe7b3c0)"/>
   </g>
   <g id="patch_97">
    <path d="M 186.209049 4563.820516 
L 218.361312 4563.820516 
L 218.361312 162.738462 
L 186.209049 162.738462 
z
" clip-path="url(#p912fe7b3c0)"/>
   </g>
   <g id="patch_98">
    <path d="M 218.361312 4563.820516 
L 250.513574 4563.820516 
L 250.513574 4563.820516 
L 218.361312 4563.820516 
z
" clip-path="url(#p912fe7b3c0)"/>
   </g>
   <g id="patch_99">
    <path d="M 250.513574 4563.820516 
L 282.665836 4563.820516 
L 282.665836 4563.820516 
L 250.513574 4563.820516 
z
" clip-path="url(#p912fe7b3c0)"/>
   </g>
   <g id="patch_100">
    <path d="M 282.665836 4563.820516 
L 314.818099 4563.820516 
L 314.818099 4563.820516 
L 282.665836 4563.820516 
z
" clip-path="url(#p912fe7b3c0)"/>
   </g>
   <g id="patch_101">
    <path d="M 314.818099 4563.820516 
L 346.970361 4563.820516 
L 346.970361 162.738462 
L 314.818099 162.738462 
z
" clip-path="url(#p912fe7b3c0)"/>
   </g>
   <g id="patch_102">
    <path d="M 346.970361 4563.820516 
L 379.122624 4563.820516 
L 379.122624 4563.820516 
L 346.970361 4563.820516 
z
" clip-path="url(#p912fe7b3c0)"/>
   </g>
   <g id="matplotlib.axis_13"/>
   <g id="matplotlib.axis_14">
    <g id="ytick_13"/>
    <g id="ytick_14"/>
   </g>
   <g id="patch_103">
    <path d="M 57.6 164.062921 
L 57.6 149.112809 
" style="fill: none; stroke: #000000; stroke-width: 0.8; stroke-linejoin: miter; stroke-linecap: square"/>
   </g>
   <g id="patch_104">
    <path d="M 414.72 164.062921 
L 414.72 149.112809 
" style="fill: none; stroke: #000000; stroke-width: 0.8; stroke-linejoin: miter; stroke-linecap: square"/>
   </g>
   <g id="patch_105">
    <path d="M 57.6 164.062921 
L 414.72 164.062921 
" style="fill: none; stroke: #000000; stroke-width: 0.8; stroke-linejoin: miter; stroke-linecap: square"/>
   </g>
   <g id="patch_106">
    <path d="M 57.6 149.112809 
L 414.72 149.112809 
" style="fill: none; stroke: #000000; stroke-width: 0.8; stroke-linejoin: miter; stroke-linecap: square"/>
   </g>
  </g>
  <g id="axes_8">
   <g id="patch_107">
    <path d="M 57.6 182.003056 
L 414.72 182.003056 
L 414.72 167.052944 
L 57.6 167.052944 
L 57.6 182.003056 
z
" style="fill: none"/>
   </g>
   <g id="patch_108">
    <path d="M 57.6 4581.760651 
L 89.752262 4581.760651 
L 89.752262 4581.760651 
L 57.6 4581.760651 
z
" clip-path="url(#p19a52205aa)"/>
   </g>
   <g id="patch_109">
    <path d="M 89.752262 4581.760651 
L 121.904525 4581.760651 
L 121.904525 167.06137 
L 89.752262 167.06137 
z
" clip-path="url(#p19a52205aa)"/>
   </g>
   <g id="patch_110">
    <path d="M 121.904525 4581.760651 
L 154.056787 4581.760651 
L 154.056787 178.28483 
L 121.904525 178.28483 
z
" clip-path="url(#p19a52205aa)"/>
   </g>
   <g id="patch_111">
    <path d="M 154.056787 4581.760651 
L 186.209049 4581.760651 
L 186.209049 182.003056 
L 154.056787 182.003056 
z
" clip-path="url(#p19a52205aa)"/>
   </g>
   <g id="patch_112">
    <path d="M 186.209049 4581.760651 
L 218.361312 4581.760651 
L 218.361312 182.003056 
L 186.209049 182.003056 
z
" clip-path="url(#p19a52205aa)"/>
   </g>
   <g id="patch_113">
    <path d="M 218.361312 4581.760651 
L 250.513574 4581.760651 
L 250.513574 182.003056 
L 218.361312 182.003056 
z
" clip-path="url(#p19a52205aa)"/>
   </g>
   <g id="patch_114">
    <path d="M 250.513574 4581.760651 
L 282.665836 4581.760651 
L 282.665836 4581.760651 
L 250.513574 4581.760651 
z
" clip-path="url(#p19a52205aa)"/>
   </g>
   <g id="patch_115">
    <path d="M 282.665836 4581.760651 
L 314.818099 4581.760651 
L 314.818099 4581.760651 
L 282.665836 4581.760651 
z
" clip-path="url(#p19a52205aa)"/>
   </g>
   <g id="patch_116">
    <path d="M 314.818099 4581.760651 
L 346.970361 4581.760651 
L 346.970361 4581.760651 
L 314.818099 4581.760651 
z
" clip-path="url(#p19a52205aa)"/>
   </g>
   <g id="patch_117">
    <path d="M 346.970361 4581.760651 
L 379.122624 4581.760651 
L 379.122624 180.678597 
L 346.970361 180.678597 
z
" clip-path="url(#p19a52205aa)"/>
   </g>
   <g id="matplotlib.axis_15"/>
   <g id="matplotlib.axis_16">
    <g id="ytick_15"/>
    <g id="ytick_16"/>
   </g>
   <g id="patch_118">
    <path d="M 57.6 182.003056 
L 57.6 167.052944 
" style="fill: none; stroke: #000000; stroke-width: 0.8; stroke-linejoin: miter; stroke-linecap: square"/>
   </g>
   <g id="patch_119">
    <path d="M 414.72 182.003056 
L 414.72 167.052944 
" style="fill: none; stroke: #000000; stroke-width: 0.8; stroke-linejoin: miter; stroke-linecap: square"/>
   </g>
   <g id="patch_120">
    <path d="M 57.6 182.003056 
L 414.72 182.003056 
" style="fill: none; stroke: #000000; stroke-width: 0.8; stroke-linejoin: miter; stroke-linecap: square"/>
   </g>
   <g id="patch_121">
    <path d="M 57.6 167.052944 
L 414.72 167.052944 
" style="fill: none; stroke: #000000; stroke-width: 0.8; stroke-linejoin: miter; stroke-linecap: square"/>
   </g>
  </g>
  <g id="axes_9">
   <g id="patch_122">
    <path d="M 57.6 199.943191 
L 414.72 199.943191 
L 414.72 184.993079 
L 57.6 184.993079 
L 57.6 199.943191 
z
" style="fill: none"/>
   </g>
   <g id="patch_123">
    <path d="M 57.6 4599.700786 
L 89.752262 4599.700786 
L 89.752262 4599.700786 
L 57.6 4599.700786 
z
" clip-path="url(#pcfc5d4067b)"/>
   </g>
   <g id="patch_124">
    <path d="M 89.752262 4599.700786 
L 121.904525 4599.700786 
L 121.904525 185.003041 
L 89.752262 185.003041 
z
" clip-path="url(#pcfc5d4067b)"/>
   </g>
   <g id="patch_125">
    <path d="M 121.904525 4599.700786 
L 154.056787 4599.700786 
L 154.056787 195.969814 
L 121.904525 195.969814 
z
" clip-path="url(#pcfc5d4067b)"/>
   </g>
   <g id="patch_126">
    <path d="M 154.056787 4599.700786 
L 186.209049 4599.700786 
L 186.209049 198.618732 
L 154.056787 198.618732 
z
" clip-path="url(#pcfc5d4067b)"/>
   </g>
   <g id="patch_127">
    <path d="M 186.209049 4599.700786 
L 218.361312 4599.700786 
L 218.361312 199.943191 
L 186.209049 199.943191 
z
" clip-path="url(#pcfc5d4067b)"/>
   </g>
   <g id="patch_128">
    <path d="M 218.361312 4599.700786 
L 250.513574 4599.700786 
L 250.513574 199.943191 
L 218.361312 199.943191 
z
" clip-path="url(#pcfc5d4067b)"/>
   </g>
   <g id="patch_129">
    <path d="M 250.513574 4599.700786 
L 282.665836 4599.700786 
L 282.665836 4599.700786 
L 250.513574 4599.700786 
z
" clip-path="url(#pcfc5d4067b)"/>
   </g>
   <g id="patch_130">
    <path d="M 282.665836 4599.700786 
L 314.818099 4599.700786 
L 314.818099 4599.700786 
L 282.665836 4599.700786 
z
" clip-path="url(#pcfc5d4067b)"/>
   </g>
   <g id="patch_131">
    <path d="M 314.818099 4599.700786 
L 346.970361 4599.700786 
L 346.970361 4599.700786 
L 314.818099 4599.700786 
z
" clip-path="url(#pcfc5d4067b)"/>
   </g>
   <g id="patch_132">
    <path d="M 346.970361 4599.700786 
L 379.122624 4599.700786 
L 379.122624 198.618732 
L 346.970361 198.618732 
z
" clip-path="url(#pcfc5d4067b)"/>
   </g>
   <g id="matplotlib.axis_17"/>
   <g id="matplotlib.axis_18">
    <g id="ytick_17"/>
    <g id="ytick_18"/>
   </g>
   <g id="patch_133">
    <path d="M 57.6 199.943191 
L 57.6 184.993079 
" style="fill: none; stroke: #000000; stroke-width: 0.8; stroke-linejoin: miter; stroke-linecap: square"/>
   </g>
   <g id="patch_134">
    <path d="M 414.72 199.943191 
L 414.72 184.993079 
" style="fill: none; stroke: #000000; stroke-width: 0.8; stroke-linejoin: miter; stroke-linecap: square"/>
   </g>
   <g id="patch_135">
    <path d="M 57.6 199.943191 
L 414.72 199.943191 
" style="fill: none; stroke: #000000; stroke-width: 0.8; stroke-linejoin: miter; stroke-linecap: square"/>
   </g>
   <g id="patch_136">
    <path d="M 57.6 184.993079 
L 414.72 184.993079 
" style="fill: none; stroke: #000000; stroke-width: 0.8; stroke-linejoin: miter; stroke-linecap: square"/>
   </g>
  </g>
  <g id="axes_10">
   <g id="patch_137">
    <path d="M 57.6 217.883326 
L 414.72 217.883326 
L 414.72 202.933213 
L 57.6 202.933213 
L 57.6 217.883326 
z
" style="fill: none"/>
   </g>
   <g id="patch_138">
    <path d="M 57.6 4617.640921 
L 89.752262 4617.640921 
L 89.752262 4617.640921 
L 57.6 4617.640921 
z
" clip-path="url(#p325340fad9)"/>
   </g>
   <g id="patch_139">
    <path d="M 89.752262 4617.640921 
L 121.904525 4617.640921 
L 121.904525 202.943944 
L 89.752262 202.943944 
z
" clip-path="url(#p325340fad9)"/>
   </g>
   <g id="patch_140">
    <path d="M 121.904525 4617.640921 
L 154.056787 4617.640921 
L 154.056787 214.165099 
L 121.904525 214.165099 
z
" clip-path="url(#p325340fad9)"/>
   </g>
   <g id="patch_141">
    <path d="M 154.056787 4617.640921 
L 186.209049 4617.640921 
L 186.209049 215.234408 
L 154.056787 215.234408 
z
" clip-path="url(#p325340fad9)"/>
   </g>
   <g id="patch_142">
    <path d="M 186.209049 4617.640921 
L 218.361312 4617.640921 
L 218.361312 4617.640921 
L 186.209049 4617.640921 
z
" clip-path="url(#p325340fad9)"/>
   </g>
   <g id="patch_143">
    <path d="M 218.361312 4617.640921 
L 250.513574 4617.640921 
L 250.513574 217.883326 
L 218.361312 217.883326 
z
" clip-path="url(#p325340fad9)"/>
   </g>
   <g id="patch_144">
    <path d="M 250.513574 4617.640921 
L 282.665836 4617.640921 
L 282.665836 217.883326 
L 250.513574 217.883326 
z
" clip-path="url(#p325340fad9)"/>
   </g>
   <g id="patch_145">
    <path d="M 282.665836 4617.640921 
L 314.818099 4617.640921 
L 314.818099 4617.640921 
L 282.665836 4617.640921 
z
" clip-path="url(#p325340fad9)"/>
   </g>
   <g id="patch_146">
    <path d="M 314.818099 4617.640921 
L 346.970361 4617.640921 
L 346.970361 4617.640921 
L 314.818099 4617.640921 
z
" clip-path="url(#p325340fad9)"/>
   </g>
   <g id="patch_147">
    <path d="M 346.970361 4617.640921 
L 379.122624 4617.640921 
L 379.122624 216.558867 
L 346.970361 216.558867 
z
" clip-path="url(#p325340fad9)"/>
   </g>
   <g id="matplotlib.axis_19"/>
   <g id="matplotlib.axis_20">
    <g id="ytick_19"/>
    <g id="ytick_20"/>
   </g>
   <g id="patch_148">
    <path d="M 57.6 217.883326 
L 57.6 202.933213 
" style="fill: none; stroke: #000000; stroke-width: 0.8; stroke-linejoin: miter; stroke-linecap: square"/>
   </g>
   <g id="patch_149">
    <path d="M 414.72 217.883326 
L 414.72 202.933213 
" style="fill: none; stroke: #000000; stroke-width: 0.8; stroke-linejoin: miter; stroke-linecap: square"/>
   </g>
   <g id="patch_150">
    <path d="M 57.6 217.883326 
L 414.72 217.883326 
" style="fill: none; stroke: #000000; stroke-width: 0.8; stroke-linejoin: miter; stroke-linecap: square"/>
   </g>
   <g id="patch_151">
    <path d="M 57.6 202.933213 
L 414.72 202.933213 
" style="fill: none; stroke: #000000; stroke-width: 0.8; stroke-linejoin: miter; stroke-linecap: square"/>
   </g>
  </g>
  <g id="axes_11">
   <g id="patch_152">
    <path d="M 57.6 235.823461 
L 414.72 235.823461 
L 414.72 220.873348 
L 57.6 220.873348 
L 57.6 235.823461 
z
" style="fill: none"/>
   </g>
   <g id="patch_153">
    <path d="M 57.6 4635.581055 
L 89.752262 4635.581055 
L 89.752262 4635.581055 
L 57.6 4635.581055 
z
" clip-path="url(#p8fbe32323b)"/>
   </g>
   <g id="patch_154">
    <path d="M 89.752262 4635.581055 
L 121.904525 4635.581055 
L 121.904525 220.885617 
L 89.752262 220.885617 
z
" clip-path="url(#p8fbe32323b)"/>
   </g>
   <g id="patch_155">
    <path d="M 121.904525 4635.581055 
L 154.056787 4635.581055 
L 154.056787 231.625025 
L 121.904525 231.625025 
z
" clip-path="url(#p8fbe32323b)"/>
   </g>
   <g id="patch_156">
    <path d="M 154.056787 4635.581055 
L 186.209049 4635.581055 
L 186.209049 233.724243 
L 154.056787 233.724243 
z
" clip-path="url(#p8fbe32323b)"/>
   </g>
   <g id="patch_157">
    <path d="M 186.209049 4635.581055 
L 218.361312 4635.581055 
L 218.361312 235.823461 
L 186.209049 235.823461 
z
" clip-path="url(#p8fbe32323b)"/>
   </g>
   <g id="patch_158">
    <path d="M 218.361312 4635.581055 
L 250.513574 4635.581055 
L 250.513574 235.823461 
L 218.361312 235.823461 
z
" clip-path="url(#p8fbe32323b)"/>
   </g>
   <g id="patch_159">
    <path d="M 250.513574 4635.581055 
L 282.665836 4635.581055 
L 282.665836 235.823461 
L 250.513574 235.823461 
z
" clip-path="url(#p8fbe32323b)"/>
   </g>
   <g id="patch_160">
    <path d="M 282.665836 4635.581055 
L 314.818099 4635.581055 
L 314.818099 4635.581055 
L 282.665836 4635.581055 
z
" clip-path="url(#p8fbe32323b)"/>
   </g>
   <g id="patch_161">
    <path d="M 314.818099 4635.581055 
L 346.970361 4635.581055 
L 346.970361 4635.581055 
L 314.818099 4635.581055 
z
" clip-path="url(#p8fbe32323b)"/>
   </g>
   <g id="patch_162">
    <path d="M 346.970361 4635.581055 
L 379.122624 4635.581055 
L 379.122624 234.499002 
L 346.970361 234.499002 
z
" clip-path="url(#p8fbe32323b)"/>
   </g>
   <g id="matplotlib.axis_21"/>
   <g id="matplotlib.axis_22">
    <g id="ytick_21"/>
    <g id="ytick_22"/>
   </g>
   <g id="patch_163">
    <path d="M 57.6 235.823461 
L 57.6 220.873348 
" style="fill: none; stroke: #000000; stroke-width: 0.8; stroke-linejoin: miter; stroke-linecap: square"/>
   </g>
   <g id="patch_164">
    <path d="M 414.72 235.823461 
L 414.72 220.873348 
" style="fill: none; stroke: #000000; stroke-width: 0.8; stroke-linejoin: miter; stroke-linecap: square"/>
   </g>
   <g id="patch_165">
    <path d="M 57.6 235.823461 
L 414.72 235.823461 
" style="fill: none; stroke: #000000; stroke-width: 0.8; stroke-linejoin: miter; stroke-linecap: square"/>
   </g>
   <g id="patch_166">
    <path d="M 57.6 220.873348 
L 414.72 220.873348 
" style="fill: none; stroke: #000000; stroke-width: 0.8; stroke-linejoin: miter; stroke-linecap: square"/>
   </g>
  </g>
  <g id="axes_12">
   <g id="patch_167">
    <path d="M 57.6 253.763596 
L 414.72 253.763596 
L 414.72 238.813483 
L 57.6 238.813483 
L 57.6 253.763596 
z
" style="fill: none"/>
   </g>
   <g id="patch_168">
    <path d="M 57.6 4653.52119 
L 89.752262 4653.52119 
L 89.752262 4653.52119 
L 57.6 4653.52119 
z
" clip-path="url(#p53b9b7b2e0)"/>
   </g>
   <g id="patch_169">
    <path d="M 89.752262 4653.52119 
L 121.904525 4653.52119 
L 121.904525 238.881955 
L 89.752262 238.881955 
z
" clip-path="url(#p53b9b7b2e0)"/>
   </g>
   <g id="patch_170">
    <path d="M 121.904525 4653.52119 
L 154.056787 4653.52119 
L 154.056787 246.141483 
L 121.904525 246.141483 
z
" clip-path="url(#p53b9b7b2e0)"/>
   </g>
   <g id="patch_171">
    <path d="M 154.056787 4653.52119 
L 186.209049 4653.52119 
L 186.209049 249.18172 
L 154.056787 249.18172 
z
" clip-path="url(#p53b9b7b2e0)"/>
   </g>
   <g id="patch_172">
    <path d="M 186.209049 4653.52119 
L 218.361312 4653.52119 
L 218.361312 250.688297 
L 186.209049 250.688297 
z
" clip-path="url(#p53b9b7b2e0)"/>
   </g>
   <g id="patch_173">
    <path d="M 218.361312 4653.52119 
L 250.513574 4653.52119 
L 250.513574 250.688297 
L 218.361312 250.688297 
z
" clip-path="url(#p53b9b7b2e0)"/>
   </g>
   <g id="patch_174">
    <path d="M 250.513574 4653.52119 
L 282.665836 4653.52119 
L 282.665836 250.688297 
L 250.513574 250.688297 
z
" clip-path="url(#p53b9b7b2e0)"/>
   </g>
   <g id="patch_175">
    <path d="M 282.665836 4653.52119 
L 314.818099 4653.52119 
L 314.818099 251.114677 
L 282.665836 251.114677 
z
" clip-path="url(#p53b9b7b2e0)"/>
   </g>
   <g id="patch_176">
    <path d="M 314.818099 4653.52119 
L 346.970361 4653.52119 
L 346.970361 250.688297 
L 314.818099 250.688297 
z
" clip-path="url(#p53b9b7b2e0)"/>
   </g>
   <g id="patch_177">
    <path d="M 346.970361 4653.52119 
L 379.122624 4653.52119 
L 379.122624 4653.52119 
L 346.970361 4653.52119 
z
" clip-path="url(#p53b9b7b2e0)"/>
   </g>
   <g id="matplotlib.axis_23"/>
   <g id="matplotlib.axis_24">
    <g id="ytick_23"/>
    <g id="ytick_24"/>
   </g>
   <g id="patch_178">
    <path d="M 57.6 253.763596 
L 57.6 238.813483 
" style="fill: none; stroke: #000000; stroke-width: 0.8; stroke-linejoin: miter; stroke-linecap: square"/>
   </g>
   <g id="patch_179">
    <path d="M 414.72 253.763596 
L 414.72 238.813483 
" style="fill: none; stroke: #000000; stroke-width: 0.8; stroke-linejoin: miter; stroke-linecap: square"/>
   </g>
   <g id="patch_180">
    <path d="M 57.6 253.763596 
L 414.72 253.763596 
" style="fill: none; stroke: #000000; stroke-width: 0.8; stroke-linejoin: miter; stroke-linecap: square"/>
   </g>
   <g id="patch_181">
    <path d="M 57.6 238.813483 
L 414.72 238.813483 
" style="fill: none; stroke: #000000; stroke-width: 0.8; stroke-linejoin: miter; stroke-linecap: square"/>
   </g>
  </g>
  <g id="axes_13">
   <g id="patch_182">
    <path d="M 57.6 271.70373 
L 414.72 271.70373 
L 414.72 256.753618 
L 57.6 256.753618 
L 57.6 271.70373 
z
" style="fill: none"/>
   </g>
   <g id="patch_183">
    <path d="M 57.6 4671.461325 
L 89.752262 4671.461325 
L 89.752262 4671.461325 
L 57.6 4671.461325 
z
" clip-path="url(#p8273f9a147)"/>
   </g>
   <g id="patch_184">
    <path d="M 89.752262 4671.461325 
L 121.904525 4671.461325 
L 121.904525 256.912943 
L 89.752262 256.912943 
z
" clip-path="url(#p8273f9a147)"/>
   </g>
   <g id="patch_185">
    <path d="M 121.904525 4671.461325 
L 154.056787 4671.461325 
L 154.056787 262.417647 
L 121.904525 262.417647 
z
" clip-path="url(#p8273f9a147)"/>
   </g>
   <g id="patch_186">
    <path d="M 154.056787 4671.461325 
L 186.209049 4671.461325 
L 186.209049 265.631135 
L 154.056787 265.631135 
z
" clip-path="url(#p8273f9a147)"/>
   </g>
   <g id="patch_187">
    <path d="M 186.209049 4671.461325 
L 218.361312 4671.461325 
L 218.361312 266.80265 
L 186.209049 266.80265 
z
" clip-path="url(#p8273f9a147)"/>
   </g>
   <g id="patch_188">
    <path d="M 218.361312 4671.461325 
L 250.513574 4671.461325 
L 250.513574 267.505295 
L 218.361312 267.505295 
z
" clip-path="url(#p8273f9a147)"/>
   </g>
   <g id="patch_189">
    <path d="M 250.513574 4671.461325 
L 282.665836 4671.461325 
L 282.665836 267.730353 
L 250.513574 267.730353 
z
" clip-path="url(#p8273f9a147)"/>
   </g>
   <g id="patch_190">
    <path d="M 282.665836 4671.461325 
L 314.818099 4671.461325 
L 314.818099 267.121855 
L 282.665836 267.121855 
z
" clip-path="url(#p8273f9a147)"/>
   </g>
   <g id="patch_191">
    <path d="M 314.818099 4671.461325 
L 346.970361 4671.461325 
L 346.970361 267.985504 
L 314.818099 267.985504 
z
" clip-path="url(#p8273f9a147)"/>
   </g>
   <g id="patch_192">
    <path d="M 346.970361 4671.461325 
L 379.122624 4671.461325 
L 379.122624 4671.461325 
L 346.970361 4671.461325 
z
" clip-path="url(#p8273f9a147)"/>
   </g>
   <g id="matplotlib.axis_25"/>
   <g id="matplotlib.axis_26">
    <g id="ytick_25"/>
    <g id="ytick_26"/>
   </g>
   <g id="patch_193">
    <path d="M 57.6 271.70373 
L 57.6 256.753618 
" style="fill: none; stroke: #000000; stroke-width: 0.8; stroke-linejoin: miter; stroke-linecap: square"/>
   </g>
   <g id="patch_194">
    <path d="M 414.72 271.70373 
L 414.72 256.753618 
" style="fill: none; stroke: #000000; stroke-width: 0.8; stroke-linejoin: miter; stroke-linecap: square"/>
   </g>
   <g id="patch_195">
    <path d="M 57.6 271.70373 
L 414.72 271.70373 
" style="fill: none; stroke: #000000; stroke-width: 0.8; stroke-linejoin: miter; stroke-linecap: square"/>
   </g>
   <g id="patch_196">
    <path d="M 57.6 256.753618 
L 414.72 256.753618 
" style="fill: none; stroke: #000000; stroke-width: 0.8; stroke-linejoin: miter; stroke-linecap: square"/>
   </g>
  </g>
  <g id="axes_14">
   <g id="patch_197">
    <path d="M 57.6 289.643865 
L 414.72 289.643865 
L 414.72 274.693753 
L 57.6 274.693753 
L 57.6 289.643865 
z
" style="fill: none"/>
   </g>
   <g id="patch_198">
    <path d="M 57.6 4689.40146 
L 89.752262 4689.40146 
L 89.752262 4689.40146 
L 57.6 4689.40146 
z
" clip-path="url(#p7f4e0248dd)"/>
   </g>
   <g id="patch_199">
    <path d="M 89.752262 4689.40146 
L 121.904525 4689.40146 
L 121.904525 275.085107 
L 89.752262 275.085107 
z
" clip-path="url(#p7f4e0248dd)"/>
   </g>
   <g id="patch_200">
    <path d="M 121.904525 4689.40146 
L 154.056787 4689.40146 
L 154.056787 278.918354 
L 121.904525 278.918354 
z
" clip-path="url(#p7f4e0248dd)"/>
   </g>
   <g id="patch_201">
    <path d="M 154.056787 4689.40146 
L 186.209049 4689.40146 
L 186.209049 281.39405 
L 154.056787 281.39405 
z
" clip-path="url(#p7f4e0248dd)"/>
   </g>
   <g id="patch_202">
    <path d="M 186.209049 4689.40146 
L 218.361312 4689.40146 
L 218.361312 282.457 
L 186.209049 282.457 
z
" clip-path="url(#p7f4e0248dd)"/>
   </g>
   <g id="patch_203">
    <path d="M 218.361312 4689.40146 
L 250.513574 4689.40146 
L 250.513574 283.919649 
L 218.361312 283.919649 
z
" clip-path="url(#p7f4e0248dd)"/>
   </g>
   <g id="patch_204">
    <path d="M 250.513574 4689.40146 
L 282.665836 4689.40146 
L 282.665836 284.017659 
L 250.513574 284.017659 
z
" clip-path="url(#p7f4e0248dd)"/>
   </g>
   <g id="patch_205">
    <path d="M 282.665836 4689.40146 
L 314.818099 4689.40146 
L 314.818099 284.60118 
L 282.665836 284.60118 
z
" clip-path="url(#p7f4e0248dd)"/>
   </g>
   <g id="patch_206">
    <path d="M 314.818099 4689.40146 
L 346.970361 4689.40146 
L 346.970361 284.60118 
L 314.818099 284.60118 
z
" clip-path="url(#p7f4e0248dd)"/>
   </g>
   <g id="patch_207">
    <path d="M 346.970361 4689.40146 
L 379.122624 4689.40146 
L 379.122624 286.568567 
L 346.970361 286.568567 
z
" clip-path="url(#p7f4e0248dd)"/>
   </g>
   <g id="matplotlib.axis_27"/>
   <g id="matplotlib.axis_28">
    <g id="ytick_27"/>
    <g id="ytick_28"/>
   </g>
   <g id="patch_208">
    <path d="M 57.6 289.643865 
L 57.6 274.693753 
" style="fill: none; stroke: #000000; stroke-width: 0.8; stroke-linejoin: miter; stroke-linecap: square"/>
   </g>
   <g id="patch_209">
    <path d="M 414.72 289.643865 
L 414.72 274.693753 
" style="fill: none; stroke: #000000; stroke-width: 0.8; stroke-linejoin: miter; stroke-linecap: square"/>
   </g>
   <g id="patch_210">
    <path d="M 57.6 289.643865 
L 414.72 289.643865 
" style="fill: none; stroke: #000000; stroke-width: 0.8; stroke-linejoin: miter; stroke-linecap: square"/>
   </g>
   <g id="patch_211">
    <path d="M 57.6 274.693753 
L 414.72 274.693753 
" style="fill: none; stroke: #000000; stroke-width: 0.8; stroke-linejoin: miter; stroke-linecap: square"/>
   </g>
  </g>
  <g id="axes_15">
   <g id="patch_212">
    <path d="M 57.6 307.584 
L 414.72 307.584 
L 414.72 292.633888 
L 57.6 292.633888 
L 57.6 307.584 
z
" style="fill: none"/>
   </g>
   <g id="patch_213">
    <path d="M 57.6 4707.341595 
L 89.752262 4707.341595 
L 89.752262 4707.341595 
L 57.6 4707.341595 
z
" clip-path="url(#p46b738fe75)"/>
   </g>
   <g id="patch_214">
    <path d="M 89.752262 4707.341595 
L 121.904525 4707.341595 
L 121.904525 293.712006 
L 89.752262 293.712006 
z
" clip-path="url(#p46b738fe75)"/>
   </g>
   <g id="patch_215">
    <path d="M 121.904525 4707.341595 
L 154.056787 4707.341595 
L 154.056787 295.663869 
L 121.904525 295.663869 
z
" clip-path="url(#p46b738fe75)"/>
   </g>
   <g id="patch_216">
    <path d="M 154.056787 4707.341595 
L 186.209049 4707.341595 
L 186.209049 296.858488 
L 154.056787 296.858488 
z
" clip-path="url(#p46b738fe75)"/>
   </g>
   <g id="patch_217">
    <path d="M 186.209049 4707.341595 
L 218.361312 4707.341595 
L 218.361312 299.072676 
L 186.209049 299.072676 
z
" clip-path="url(#p46b738fe75)"/>
   </g>
   <g id="patch_218">
    <path d="M 218.361312 4707.341595 
L 250.513574 4707.341595 
L 250.513574 299.466016 
L 218.361312 299.466016 
z
" clip-path="url(#p46b738fe75)"/>
   </g>
   <g id="patch_219">
    <path d="M 250.513574 4707.341595 
L 282.665836 4707.341595 
L 282.665836 299.578448 
L 250.513574 299.578448 
z
" clip-path="url(#p46b738fe75)"/>
   </g>
   <g id="patch_220">
    <path d="M 282.665836 4707.341595 
L 314.818099 4707.341595 
L 314.818099 301.085025 
L 282.665836 301.085025 
z
" clip-path="url(#p46b738fe75)"/>
   </g>
   <g id="patch_221">
    <path d="M 314.818099 4707.341595 
L 346.970361 4707.341595 
L 346.970361 301.02237 
L 314.818099 301.02237 
z
" clip-path="url(#p46b738fe75)"/>
   </g>
   <g id="patch_222">
    <path d="M 346.970361 4707.341595 
L 379.122624 4707.341595 
L 379.122624 303.184242 
L 346.970361 303.184242 
z
" clip-path="url(#p46b738fe75)"/>
   </g>
   <g id="matplotlib.axis_29">
    <g id="xtick_1">
     <g id="line2d_1">
      <defs>
       <path id="mf17726ef14" d="M 0 0 
L 0 3.5 
" style="stroke: #000000; stroke-width: 0.8"/>
      </defs>
      <g>
       <use xlink:href="#mf17726ef14" x="57.6" y="307.584" style="stroke: #000000; stroke-width: 0.8"/>
      </g>
     </g>
     <g id="text_1">
      <!-- 0 -->
      <g transform="translate(55.1 321.52775) scale(0.1 -0.1)">
       <defs>
        <path id="TimesNewRomanPSMT-30" d="M 231 2094 
Q 231 2819 450 3342 
Q 669 3866 1031 4122 
Q 1313 4325 1613 4325 
Q 2100 4325 2488 3828 
Q 2972 3213 2972 2159 
Q 2972 1422 2759 906 
Q 2547 391 2217 158 
Q 1888 -75 1581 -75 
Q 975 -75 572 641 
Q 231 1244 231 2094 
z
M 844 2016 
Q 844 1141 1059 588 
Q 1238 122 1591 122 
Q 1759 122 1940 273 
Q 2122 425 2216 781 
Q 2359 1319 2359 2297 
Q 2359 3022 2209 3506 
Q 2097 3866 1919 4016 
Q 1791 4119 1609 4119 
Q 1397 4119 1231 3928 
Q 1006 3669 925 3112 
Q 844 2556 844 2016 
z
" transform="scale(0.015625)"/>
       </defs>
       <use xlink:href="#TimesNewRomanPSMT-30"/>
      </g>
     </g>
    </g>
    <g id="xtick_2">
     <g id="line2d_2">
      <g>
       <use xlink:href="#mf17726ef14" x="128.794753" y="307.584" style="stroke: #000000; stroke-width: 0.8"/>
      </g>
     </g>
     <g id="text_2">
      <!-- 20000 -->
      <g transform="translate(116.294753 321.52775) scale(0.1 -0.1)">
       <defs>
        <path id="TimesNewRomanPSMT-32" d="M 2934 816 
L 2638 0 
L 138 0 
L 138 116 
Q 1241 1122 1691 1759 
Q 2141 2397 2141 2925 
Q 2141 3328 1894 3587 
Q 1647 3847 1303 3847 
Q 991 3847 742 3664 
Q 494 3481 375 3128 
L 259 3128 
Q 338 3706 661 4015 
Q 984 4325 1469 4325 
Q 1984 4325 2329 3994 
Q 2675 3663 2675 3213 
Q 2675 2891 2525 2569 
Q 2294 2063 1775 1497 
Q 997 647 803 472 
L 1909 472 
Q 2247 472 2383 497 
Q 2519 522 2628 598 
Q 2738 675 2819 816 
L 2934 816 
z
" transform="scale(0.015625)"/>
       </defs>
       <use xlink:href="#TimesNewRomanPSMT-32"/>
       <use xlink:href="#TimesNewRomanPSMT-30" x="50"/>
       <use xlink:href="#TimesNewRomanPSMT-30" x="100"/>
       <use xlink:href="#TimesNewRomanPSMT-30" x="150"/>
       <use xlink:href="#TimesNewRomanPSMT-30" x="200"/>
      </g>
     </g>
    </g>
    <g id="xtick_3">
     <g id="line2d_3">
      <g>
       <use xlink:href="#mf17726ef14" x="199.989506" y="307.584" style="stroke: #000000; stroke-width: 0.8"/>
      </g>
     </g>
     <g id="text_3">
      <!-- 40000 -->
      <g transform="translate(187.489506 321.52775) scale(0.1 -0.1)">
       <defs>
        <path id="TimesNewRomanPSMT-34" d="M 2978 1563 
L 2978 1119 
L 2409 1119 
L 2409 0 
L 1894 0 
L 1894 1119 
L 100 1119 
L 100 1519 
L 2066 4325 
L 2409 4325 
L 2409 1563 
L 2978 1563 
z
M 1894 1563 
L 1894 3666 
L 406 1563 
L 1894 1563 
z
" transform="scale(0.015625)"/>
       </defs>
       <use xlink:href="#TimesNewRomanPSMT-34"/>
       <use xlink:href="#TimesNewRomanPSMT-30" x="50"/>
       <use xlink:href="#TimesNewRomanPSMT-30" x="100"/>
       <use xlink:href="#TimesNewRomanPSMT-30" x="150"/>
       <use xlink:href="#TimesNewRomanPSMT-30" x="200"/>
      </g>
     </g>
    </g>
    <g id="xtick_4">
     <g id="line2d_4">
      <g>
       <use xlink:href="#mf17726ef14" x="271.184259" y="307.584" style="stroke: #000000; stroke-width: 0.8"/>
      </g>
     </g>
     <g id="text_4">
      <!-- 60000 -->
      <g transform="translate(258.684259 321.52775) scale(0.1 -0.1)">
       <defs>
        <path id="TimesNewRomanPSMT-36" d="M 2869 4325 
L 2869 4209 
Q 2456 4169 2195 4045 
Q 1934 3922 1679 3669 
Q 1425 3416 1258 3105 
Q 1091 2794 978 2366 
Q 1428 2675 1881 2675 
Q 2316 2675 2634 2325 
Q 2953 1975 2953 1425 
Q 2953 894 2631 456 
Q 2244 -75 1606 -75 
Q 1172 -75 869 213 
Q 275 772 275 1663 
Q 275 2231 503 2743 
Q 731 3256 1154 3653 
Q 1578 4050 1965 4187 
Q 2353 4325 2688 4325 
L 2869 4325 
z
M 925 2138 
Q 869 1716 869 1456 
Q 869 1156 980 804 
Q 1091 453 1309 247 
Q 1469 100 1697 100 
Q 1969 100 2183 356 
Q 2397 613 2397 1088 
Q 2397 1622 2184 2012 
Q 1972 2403 1581 2403 
Q 1463 2403 1327 2353 
Q 1191 2303 925 2138 
z
" transform="scale(0.015625)"/>
       </defs>
       <use xlink:href="#TimesNewRomanPSMT-36"/>
       <use xlink:href="#TimesNewRomanPSMT-30" x="50"/>
       <use xlink:href="#TimesNewRomanPSMT-30" x="100"/>
       <use xlink:href="#TimesNewRomanPSMT-30" x="150"/>
       <use xlink:href="#TimesNewRomanPSMT-30" x="200"/>
      </g>
     </g>
    </g>
    <g id="xtick_5">
     <g id="line2d_5">
      <g>
       <use xlink:href="#mf17726ef14" x="342.379012" y="307.584" style="stroke: #000000; stroke-width: 0.8"/>
      </g>
     </g>
     <g id="text_5">
      <!-- 80000 -->
      <g transform="translate(329.879012 321.52775) scale(0.1 -0.1)">
       <defs>
        <path id="TimesNewRomanPSMT-38" d="M 1228 2134 
Q 725 2547 579 2797 
Q 434 3047 434 3316 
Q 434 3728 753 4026 
Q 1072 4325 1600 4325 
Q 2113 4325 2425 4047 
Q 2738 3769 2738 3413 
Q 2738 3175 2569 2928 
Q 2400 2681 1866 2347 
Q 2416 1922 2594 1678 
Q 2831 1359 2831 1006 
Q 2831 559 2490 242 
Q 2150 -75 1597 -75 
Q 994 -75 656 303 
Q 388 606 388 966 
Q 388 1247 577 1523 
Q 766 1800 1228 2134 
z
M 1719 2469 
Q 2094 2806 2194 3001 
Q 2294 3197 2294 3444 
Q 2294 3772 2109 3958 
Q 1925 4144 1606 4144 
Q 1288 4144 1088 3959 
Q 888 3775 888 3528 
Q 888 3366 970 3203 
Q 1053 3041 1206 2894 
L 1719 2469 
z
M 1375 2016 
Q 1116 1797 991 1539 
Q 866 1281 866 981 
Q 866 578 1086 336 
Q 1306 94 1647 94 
Q 1984 94 2187 284 
Q 2391 475 2391 747 
Q 2391 972 2272 1150 
Q 2050 1481 1375 2016 
z
" transform="scale(0.015625)"/>
       </defs>
       <use xlink:href="#TimesNewRomanPSMT-38"/>
       <use xlink:href="#TimesNewRomanPSMT-30" x="50"/>
       <use xlink:href="#TimesNewRomanPSMT-30" x="100"/>
       <use xlink:href="#TimesNewRomanPSMT-30" x="150"/>
       <use xlink:href="#TimesNewRomanPSMT-30" x="200"/>
      </g>
     </g>
    </g>
    <g id="xtick_6">
     <g id="line2d_6">
      <g>
       <use xlink:href="#mf17726ef14" x="413.573764" y="307.584" style="stroke: #000000; stroke-width: 0.8"/>
      </g>
     </g>
     <g id="text_6">
      <!-- 100000 -->
      <g transform="translate(398.573764 321.52775) scale(0.1 -0.1)">
       <defs>
        <path id="TimesNewRomanPSMT-31" d="M 750 3822 
L 1781 4325 
L 1884 4325 
L 1884 747 
Q 1884 391 1914 303 
Q 1944 216 2037 169 
Q 2131 122 2419 116 
L 2419 0 
L 825 0 
L 825 116 
Q 1125 122 1212 167 
Q 1300 213 1334 289 
Q 1369 366 1369 747 
L 1369 3034 
Q 1369 3497 1338 3628 
Q 1316 3728 1258 3775 
Q 1200 3822 1119 3822 
Q 1003 3822 797 3725 
L 750 3822 
z
" transform="scale(0.015625)"/>
       </defs>
       <use xlink:href="#TimesNewRomanPSMT-31"/>
       <use xlink:href="#TimesNewRomanPSMT-30" x="50"/>
       <use xlink:href="#TimesNewRomanPSMT-30" x="100"/>
       <use xlink:href="#TimesNewRomanPSMT-30" x="150"/>
       <use xlink:href="#TimesNewRomanPSMT-30" x="200"/>
       <use xlink:href="#TimesNewRomanPSMT-30" x="250"/>
      </g>
     </g>
    </g>
    <g id="text_7">
     <!-- Number of key-value pairs -->
     <g transform="translate(182.42875 334.610562) scale(0.1 -0.1)">
      <defs>
       <path id="TimesNewRomanPSMT-4e" d="M -84 4238 
L 1066 4238 
L 3656 1059 
L 3656 3503 
Q 3656 3894 3569 3991 
Q 3453 4122 3203 4122 
L 3056 4122 
L 3056 4238 
L 4531 4238 
L 4531 4122 
L 4381 4122 
Q 4113 4122 4000 3959 
Q 3931 3859 3931 3503 
L 3931 -69 
L 3819 -69 
L 1025 3344 
L 1025 734 
Q 1025 344 1109 247 
Q 1228 116 1475 116 
L 1625 116 
L 1625 0 
L 150 0 
L 150 116 
L 297 116 
Q 569 116 681 278 
Q 750 378 750 734 
L 750 3681 
Q 566 3897 470 3965 
Q 375 4034 191 4094 
Q 100 4122 -84 4122 
L -84 4238 
z
" transform="scale(0.015625)"/>
       <path id="TimesNewRomanPSMT-75" d="M 2709 2863 
L 2709 1128 
Q 2709 631 2732 520 
Q 2756 409 2807 365 
Q 2859 322 2928 322 
Q 3025 322 3147 375 
L 3191 266 
L 2334 -88 
L 2194 -88 
L 2194 519 
Q 1825 119 1631 15 
Q 1438 -88 1222 -88 
Q 981 -88 804 51 
Q 628 191 559 409 
Q 491 628 491 1028 
L 491 2306 
Q 491 2509 447 2587 
Q 403 2666 317 2708 
Q 231 2750 6 2747 
L 6 2863 
L 1009 2863 
L 1009 947 
Q 1009 547 1148 422 
Q 1288 297 1484 297 
Q 1619 297 1789 381 
Q 1959 466 2194 703 
L 2194 2325 
Q 2194 2569 2105 2655 
Q 2016 2741 1734 2747 
L 1734 2863 
L 2709 2863 
z
" transform="scale(0.015625)"/>
       <path id="TimesNewRomanPSMT-6d" d="M 1050 2338 
Q 1363 2650 1419 2697 
Q 1559 2816 1721 2881 
Q 1884 2947 2044 2947 
Q 2313 2947 2506 2790 
Q 2700 2634 2766 2338 
Q 3088 2713 3309 2830 
Q 3531 2947 3766 2947 
Q 3994 2947 4170 2830 
Q 4347 2713 4450 2447 
Q 4519 2266 4519 1878 
L 4519 647 
Q 4519 378 4559 278 
Q 4591 209 4675 161 
Q 4759 113 4950 113 
L 4950 0 
L 3538 0 
L 3538 113 
L 3597 113 
Q 3781 113 3884 184 
Q 3956 234 3988 344 
Q 4000 397 4000 647 
L 4000 1878 
Q 4000 2228 3916 2372 
Q 3794 2572 3525 2572 
Q 3359 2572 3192 2489 
Q 3025 2406 2788 2181 
L 2781 2147 
L 2788 2013 
L 2788 647 
Q 2788 353 2820 281 
Q 2853 209 2943 161 
Q 3034 113 3253 113 
L 3253 0 
L 1806 0 
L 1806 113 
Q 2044 113 2133 169 
Q 2222 225 2256 338 
Q 2272 391 2272 647 
L 2272 1878 
Q 2272 2228 2169 2381 
Q 2031 2581 1784 2581 
Q 1616 2581 1450 2491 
Q 1191 2353 1050 2181 
L 1050 647 
Q 1050 366 1089 281 
Q 1128 197 1204 155 
Q 1281 113 1516 113 
L 1516 0 
L 100 0 
L 100 113 
Q 297 113 375 155 
Q 453 197 493 289 
Q 534 381 534 647 
L 534 1741 
Q 534 2213 506 2350 
Q 484 2453 437 2492 
Q 391 2531 309 2531 
Q 222 2531 100 2484 
L 53 2597 
L 916 2947 
L 1050 2947 
L 1050 2338 
z
" transform="scale(0.015625)"/>
       <path id="TimesNewRomanPSMT-62" d="M 984 2369 
Q 1400 2947 1881 2947 
Q 2322 2947 2650 2570 
Q 2978 2194 2978 1541 
Q 2978 778 2472 313 
Q 2038 -88 1503 -88 
Q 1253 -88 995 3 
Q 738 94 469 275 
L 469 3241 
Q 469 3728 445 3840 
Q 422 3953 372 3993 
Q 322 4034 247 4034 
Q 159 4034 28 3984 
L -16 4094 
L 844 4444 
L 984 4444 
L 984 2369 
z
M 984 2169 
L 984 456 
Q 1144 300 1314 220 
Q 1484 141 1663 141 
Q 1947 141 2192 453 
Q 2438 766 2438 1363 
Q 2438 1913 2192 2208 
Q 1947 2503 1634 2503 
Q 1469 2503 1303 2419 
Q 1178 2356 984 2169 
z
" transform="scale(0.015625)"/>
       <path id="TimesNewRomanPSMT-65" d="M 681 1784 
Q 678 1147 991 784 
Q 1303 422 1725 422 
Q 2006 422 2214 576 
Q 2422 731 2563 1106 
L 2659 1044 
Q 2594 616 2278 264 
Q 1963 -88 1488 -88 
Q 972 -88 605 314 
Q 238 716 238 1394 
Q 238 2128 614 2539 
Q 991 2950 1559 2950 
Q 2041 2950 2350 2633 
Q 2659 2316 2659 1784 
L 681 1784 
z
M 681 1966 
L 2006 1966 
Q 1991 2241 1941 2353 
Q 1863 2528 1708 2628 
Q 1553 2728 1384 2728 
Q 1125 2728 920 2526 
Q 716 2325 681 1966 
z
" transform="scale(0.015625)"/>
       <path id="TimesNewRomanPSMT-72" d="M 1038 2947 
L 1038 2303 
Q 1397 2947 1775 2947 
Q 1947 2947 2059 2842 
Q 2172 2738 2172 2600 
Q 2172 2478 2090 2393 
Q 2009 2309 1897 2309 
Q 1788 2309 1652 2417 
Q 1516 2525 1450 2525 
Q 1394 2525 1328 2463 
Q 1188 2334 1038 2041 
L 1038 669 
Q 1038 431 1097 309 
Q 1138 225 1241 169 
Q 1344 113 1538 113 
L 1538 0 
L 72 0 
L 72 113 
Q 291 113 397 181 
Q 475 231 506 341 
Q 522 394 522 644 
L 522 1753 
Q 522 2253 501 2348 
Q 481 2444 426 2487 
Q 372 2531 291 2531 
Q 194 2531 72 2484 
L 41 2597 
L 906 2947 
L 1038 2947 
z
" transform="scale(0.015625)"/>
       <path id="TimesNewRomanPSMT-20" transform="scale(0.015625)"/>
       <path id="TimesNewRomanPSMT-6f" d="M 1600 2947 
Q 2250 2947 2644 2453 
Q 2978 2031 2978 1484 
Q 2978 1100 2793 706 
Q 2609 313 2286 112 
Q 1963 -88 1566 -88 
Q 919 -88 538 428 
Q 216 863 216 1403 
Q 216 1797 411 2186 
Q 606 2575 925 2761 
Q 1244 2947 1600 2947 
z
M 1503 2744 
Q 1338 2744 1170 2645 
Q 1003 2547 900 2300 
Q 797 2053 797 1666 
Q 797 1041 1045 587 
Q 1294 134 1700 134 
Q 2003 134 2200 384 
Q 2397 634 2397 1244 
Q 2397 2006 2069 2444 
Q 1847 2744 1503 2744 
z
" transform="scale(0.015625)"/>
       <path id="TimesNewRomanPSMT-66" d="M 1319 2638 
L 1319 756 
Q 1319 356 1406 250 
Q 1522 113 1716 113 
L 1975 113 
L 1975 0 
L 266 0 
L 266 113 
L 394 113 
Q 519 113 622 175 
Q 725 238 764 344 
Q 803 450 803 756 
L 803 2638 
L 247 2638 
L 247 2863 
L 803 2863 
L 803 3050 
Q 803 3478 940 3775 
Q 1078 4072 1361 4255 
Q 1644 4438 1997 4438 
Q 2325 4438 2600 4225 
Q 2781 4084 2781 3909 
Q 2781 3816 2700 3733 
Q 2619 3650 2525 3650 
Q 2453 3650 2373 3701 
Q 2294 3753 2178 3923 
Q 2063 4094 1966 4153 
Q 1869 4213 1750 4213 
Q 1606 4213 1506 4136 
Q 1406 4059 1362 3898 
Q 1319 3738 1319 3069 
L 1319 2863 
L 2056 2863 
L 2056 2638 
L 1319 2638 
z
" transform="scale(0.015625)"/>
       <path id="TimesNewRomanPSMT-6b" d="M 1047 4444 
L 1047 1594 
L 1775 2259 
Q 2006 2472 2044 2528 
Q 2069 2566 2069 2603 
Q 2069 2666 2017 2711 
Q 1966 2756 1847 2763 
L 1847 2863 
L 3091 2863 
L 3091 2763 
Q 2834 2756 2664 2684 
Q 2494 2613 2291 2428 
L 1556 1750 
L 2291 822 
Q 2597 438 2703 334 
Q 2853 188 2966 144 
Q 3044 113 3238 113 
L 3238 0 
L 1847 0 
L 1847 113 
Q 1966 116 2008 148 
Q 2050 181 2050 241 
Q 2050 313 1925 472 
L 1047 1594 
L 1047 644 
Q 1047 366 1086 278 
Q 1125 191 1197 153 
Q 1269 116 1509 113 
L 1509 0 
L 53 0 
L 53 113 
Q 272 113 381 166 
Q 447 200 481 272 
Q 528 375 528 628 
L 528 3234 
Q 528 3731 506 3842 
Q 484 3953 434 3995 
Q 384 4038 303 4038 
Q 238 4038 106 3984 
L 53 4094 
L 903 4444 
L 1047 4444 
z
" transform="scale(0.015625)"/>
       <path id="TimesNewRomanPSMT-79" d="M 38 2863 
L 1372 2863 
L 1372 2747 
L 1306 2747 
Q 1166 2747 1095 2686 
Q 1025 2625 1025 2534 
Q 1025 2413 1128 2197 
L 1825 753 
L 2466 2334 
Q 2519 2463 2519 2588 
Q 2519 2644 2497 2672 
Q 2472 2706 2419 2726 
Q 2366 2747 2231 2747 
L 2231 2863 
L 3163 2863 
L 3163 2747 
Q 3047 2734 2984 2696 
Q 2922 2659 2847 2556 
Q 2819 2513 2741 2316 
L 1575 -541 
Q 1406 -956 1132 -1168 
Q 859 -1381 606 -1381 
Q 422 -1381 303 -1275 
Q 184 -1169 184 -1031 
Q 184 -900 270 -820 
Q 356 -741 506 -741 
Q 609 -741 788 -809 
Q 913 -856 944 -856 
Q 1038 -856 1148 -759 
Q 1259 -663 1372 -384 
L 1575 113 
L 547 2272 
Q 500 2369 397 2513 
Q 319 2622 269 2659 
Q 197 2709 38 2747 
L 38 2863 
z
" transform="scale(0.015625)"/>
       <path id="TimesNewRomanPSMT-2d" d="M 259 1672 
L 1875 1672 
L 1875 1200 
L 259 1200 
L 259 1672 
z
" transform="scale(0.015625)"/>
       <path id="TimesNewRomanPSMT-76" d="M 53 2863 
L 1400 2863 
L 1400 2747 
L 1313 2747 
Q 1191 2747 1127 2687 
Q 1063 2628 1063 2528 
Q 1063 2419 1128 2269 
L 1794 688 
L 2463 2328 
Q 2534 2503 2534 2594 
Q 2534 2638 2509 2666 
Q 2475 2713 2422 2730 
Q 2369 2747 2206 2747 
L 2206 2863 
L 3141 2863 
L 3141 2747 
Q 2978 2734 2916 2681 
Q 2806 2588 2719 2369 
L 1703 -88 
L 1575 -88 
L 553 2328 
Q 484 2497 421 2570 
Q 359 2644 263 2694 
Q 209 2722 53 2747 
L 53 2863 
z
" transform="scale(0.015625)"/>
       <path id="TimesNewRomanPSMT-61" d="M 1822 413 
Q 1381 72 1269 19 
Q 1100 -59 909 -59 
Q 613 -59 420 144 
Q 228 347 228 678 
Q 228 888 322 1041 
Q 450 1253 767 1440 
Q 1084 1628 1822 1897 
L 1822 2009 
Q 1822 2438 1686 2597 
Q 1550 2756 1291 2756 
Q 1094 2756 978 2650 
Q 859 2544 859 2406 
L 866 2225 
Q 866 2081 792 2003 
Q 719 1925 600 1925 
Q 484 1925 411 2006 
Q 338 2088 338 2228 
Q 338 2497 613 2722 
Q 888 2947 1384 2947 
Q 1766 2947 2009 2819 
Q 2194 2722 2281 2516 
Q 2338 2381 2338 1966 
L 2338 994 
Q 2338 584 2353 492 
Q 2369 400 2405 369 
Q 2441 338 2488 338 
Q 2538 338 2575 359 
Q 2641 400 2828 588 
L 2828 413 
Q 2478 -56 2159 -56 
Q 2006 -56 1915 50 
Q 1825 156 1822 413 
z
M 1822 616 
L 1822 1706 
Q 1350 1519 1213 1441 
Q 966 1303 859 1153 
Q 753 1003 753 825 
Q 753 600 887 451 
Q 1022 303 1197 303 
Q 1434 303 1822 616 
z
" transform="scale(0.015625)"/>
       <path id="TimesNewRomanPSMT-6c" d="M 1184 4444 
L 1184 647 
Q 1184 378 1223 290 
Q 1263 203 1344 158 
Q 1425 113 1647 113 
L 1647 0 
L 244 0 
L 244 113 
Q 441 113 512 153 
Q 584 194 625 287 
Q 666 381 666 647 
L 666 3247 
Q 666 3731 644 3842 
Q 622 3953 573 3993 
Q 525 4034 450 4034 
Q 369 4034 244 3984 
L 191 4094 
L 1044 4444 
L 1184 4444 
z
" transform="scale(0.015625)"/>
       <path id="TimesNewRomanPSMT-70" d="M -6 2578 
L 875 2934 
L 994 2934 
L 994 2266 
Q 1216 2644 1439 2795 
Q 1663 2947 1909 2947 
Q 2341 2947 2628 2609 
Q 2981 2197 2981 1534 
Q 2981 794 2556 309 
Q 2206 -88 1675 -88 
Q 1444 -88 1275 -22 
Q 1150 25 994 166 
L 994 -706 
Q 994 -1000 1030 -1079 
Q 1066 -1159 1155 -1206 
Q 1244 -1253 1478 -1253 
L 1478 -1369 
L -22 -1369 
L -22 -1253 
L 56 -1253 
Q 228 -1256 350 -1188 
Q 409 -1153 442 -1076 
Q 475 -1000 475 -688 
L 475 2019 
Q 475 2297 450 2372 
Q 425 2447 370 2484 
Q 316 2522 222 2522 
Q 147 2522 31 2478 
L -6 2578 
z
M 994 2081 
L 994 1013 
Q 994 666 1022 556 
Q 1066 375 1236 237 
Q 1406 100 1666 100 
Q 1978 100 2172 344 
Q 2425 663 2425 1241 
Q 2425 1897 2138 2250 
Q 1938 2494 1663 2494 
Q 1513 2494 1366 2419 
Q 1253 2363 994 2081 
z
" transform="scale(0.015625)"/>
       <path id="TimesNewRomanPSMT-69" d="M 928 4444 
Q 1059 4444 1151 4351 
Q 1244 4259 1244 4128 
Q 1244 3997 1151 3903 
Q 1059 3809 928 3809 
Q 797 3809 703 3903 
Q 609 3997 609 4128 
Q 609 4259 701 4351 
Q 794 4444 928 4444 
z
M 1188 2947 
L 1188 647 
Q 1188 378 1227 289 
Q 1266 200 1342 156 
Q 1419 113 1622 113 
L 1622 0 
L 231 0 
L 231 113 
Q 441 113 512 153 
Q 584 194 626 287 
Q 669 381 669 647 
L 669 1750 
Q 669 2216 641 2353 
Q 619 2453 572 2492 
Q 525 2531 444 2531 
Q 356 2531 231 2484 
L 188 2597 
L 1050 2947 
L 1188 2947 
z
" transform="scale(0.015625)"/>
       <path id="TimesNewRomanPSMT-73" d="M 2050 2947 
L 2050 1972 
L 1947 1972 
Q 1828 2431 1642 2597 
Q 1456 2763 1169 2763 
Q 950 2763 815 2647 
Q 681 2531 681 2391 
Q 681 2216 781 2091 
Q 878 1963 1175 1819 
L 1631 1597 
Q 2266 1288 2266 781 
Q 2266 391 1970 151 
Q 1675 -88 1309 -88 
Q 1047 -88 709 6 
Q 606 38 541 38 
Q 469 38 428 -44 
L 325 -44 
L 325 978 
L 428 978 
Q 516 541 762 319 
Q 1009 97 1316 97 
Q 1531 97 1667 223 
Q 1803 350 1803 528 
Q 1803 744 1651 891 
Q 1500 1038 1047 1263 
Q 594 1488 453 1669 
Q 313 1847 313 2119 
Q 313 2472 555 2709 
Q 797 2947 1181 2947 
Q 1350 2947 1591 2875 
Q 1750 2828 1803 2828 
Q 1853 2828 1881 2850 
Q 1909 2872 1947 2947 
L 2050 2947 
z
" transform="scale(0.015625)"/>
      </defs>
      <use xlink:href="#TimesNewRomanPSMT-4e"/>
      <use xlink:href="#TimesNewRomanPSMT-75" x="72.216797"/>
      <use xlink:href="#TimesNewRomanPSMT-6d" x="122.216797"/>
      <use xlink:href="#TimesNewRomanPSMT-62" x="200"/>
      <use xlink:href="#TimesNewRomanPSMT-65" x="250"/>
      <use xlink:href="#TimesNewRomanPSMT-72" x="294.384766"/>
      <use xlink:href="#TimesNewRomanPSMT-20" x="327.685547"/>
      <use xlink:href="#TimesNewRomanPSMT-6f" x="352.685547"/>
      <use xlink:href="#TimesNewRomanPSMT-66" x="402.685547"/>
      <use xlink:href="#TimesNewRomanPSMT-20" x="435.986328"/>
      <use xlink:href="#TimesNewRomanPSMT-6b" x="460.986328"/>
      <use xlink:href="#TimesNewRomanPSMT-65" x="510.986328"/>
      <use xlink:href="#TimesNewRomanPSMT-79" x="555.371094"/>
      <use xlink:href="#TimesNewRomanPSMT-2d" x="605.371094"/>
      <use xlink:href="#TimesNewRomanPSMT-76" x="638.671875"/>
      <use xlink:href="#TimesNewRomanPSMT-61" x="688.671875"/>
      <use xlink:href="#TimesNewRomanPSMT-6c" x="733.056641"/>
      <use xlink:href="#TimesNewRomanPSMT-75" x="760.839844"/>
      <use xlink:href="#TimesNewRomanPSMT-65" x="810.839844"/>
      <use xlink:href="#TimesNewRomanPSMT-20" x="855.224609"/>
      <use xlink:href="#TimesNewRomanPSMT-70" x="880.224609"/>
      <use xlink:href="#TimesNewRomanPSMT-61" x="930.224609"/>
      <use xlink:href="#TimesNewRomanPSMT-69" x="974.609375"/>
      <use xlink:href="#TimesNewRomanPSMT-72" x="1002.392578"/>
      <use xlink:href="#TimesNewRomanPSMT-73" x="1035.693359"/>
     </g>
    </g>
   </g>
   <g id="matplotlib.axis_30">
    <g id="ytick_29"/>
    <g id="ytick_30"/>
   </g>
   <g id="patch_223">
    <path d="M 57.6 307.584 
L 57.6 292.633888 
" style="fill: none; stroke: #000000; stroke-width: 0.8; stroke-linejoin: miter; stroke-linecap: square"/>
   </g>
   <g id="patch_224">
    <path d="M 414.72 307.584 
L 414.72 292.633888 
" style="fill: none; stroke: #000000; stroke-width: 0.8; stroke-linejoin: miter; stroke-linecap: square"/>
   </g>
   <g id="patch_225">
    <path d="M 57.6 307.584 
L 414.72 307.584 
" style="fill: none; stroke: #000000; stroke-width: 0.8; stroke-linejoin: miter; stroke-linecap: square"/>
   </g>
   <g id="patch_226">
    <path d="M 57.6 292.633888 
L 414.72 292.633888 
" style="fill: none; stroke: #000000; stroke-width: 0.8; stroke-linejoin: miter; stroke-linecap: square"/>
   </g>
  </g>
 </g>
 <defs>
  <clipPath id="p6c40be7c89">
   <rect x="57.6" y="41.472" width="357.12" height="14.950112"/>
  </clipPath>
  <clipPath id="p58954c029d">
   <rect x="57.6" y="59.412135" width="357.12" height="14.950112"/>
  </clipPath>
  <clipPath id="pe1505703eb">
   <rect x="57.6" y="77.35227" width="357.12" height="14.950112"/>
  </clipPath>
  <clipPath id="pd09240ae7a">
   <rect x="57.6" y="95.292404" width="357.12" height="14.950112"/>
  </clipPath>
  <clipPath id="paa6f063cf4">
   <rect x="57.6" y="113.232539" width="357.12" height="14.950112"/>
  </clipPath>
  <clipPath id="pdd7994b589">
   <rect x="57.6" y="131.172674" width="357.12" height="14.950112"/>
  </clipPath>
  <clipPath id="p912fe7b3c0">
   <rect x="57.6" y="149.112809" width="357.12" height="14.950112"/>
  </clipPath>
  <clipPath id="p19a52205aa">
   <rect x="57.6" y="167.052944" width="357.12" height="14.950112"/>
  </clipPath>
  <clipPath id="pcfc5d4067b">
   <rect x="57.6" y="184.993079" width="357.12" height="14.950112"/>
  </clipPath>
  <clipPath id="p325340fad9">
   <rect x="57.6" y="202.933213" width="357.12" height="14.950112"/>
  </clipPath>
  <clipPath id="p8fbe32323b">
   <rect x="57.6" y="220.873348" width="357.12" height="14.950112"/>
  </clipPath>
  <clipPath id="p53b9b7b2e0">
   <rect x="57.6" y="238.813483" width="357.12" height="14.950112"/>
  </clipPath>
  <clipPath id="p8273f9a147">
   <rect x="57.6" y="256.753618" width="357.12" height="14.950112"/>
  </clipPath>
  <clipPath id="p7f4e0248dd">
   <rect x="57.6" y="274.693753" width="357.12" height="14.950112"/>
  </clipPath>
  <clipPath id="p46b738fe75">
   <rect x="57.6" y="292.633888" width="357.12" height="14.950112"/>
  </clipPath>
 </defs>
</svg>
