<?xml version="1.0" encoding="utf-8" standalone="no"?>
<!DOCTYPE svg PUBLIC "-//W3C//DTD SVG 1.1//EN"
  "http://www.w3.org/Graphics/SVG/1.1/DTD/svg11.dtd">
<svg xmlns:xlink="http://www.w3.org/1999/xlink" width="460.8pt" height="345.6pt" viewBox="0 0 460.8 345.6" xmlns="http://www.w3.org/2000/svg" version="1.1">
 <metadata>
  <rdf:RDF xmlns:dc="http://purl.org/dc/elements/1.1/" xmlns:cc="http://creativecommons.org/ns#" xmlns:rdf="http://www.w3.org/1999/02/22-rdf-syntax-ns#">
   <cc:Work>
    <dc:type rdf:resource="http://purl.org/dc/dcmitype/StillImage"/>
    <dc:date>2024-02-14T09:09:14.374700</dc:date>
    <dc:format>image/svg+xml</dc:format>
    <dc:creator>
     <cc:Agent>
      <dc:title>Matplotlib v3.7.0, https://matplotlib.org/</dc:title>
     </cc:Agent>
    </dc:creator>
   </cc:Work>
  </rdf:RDF>
 </metadata>
 <defs>
  <style type="text/css">*{stroke-linejoin: round; stroke-linecap: butt}</style>
 </defs>
 <g id="figure_1">
  <g id="patch_1">
   <path d="M 0 345.6 
L 460.8 345.6 
L 460.8 0 
L 0 0 
L 0 345.6 
z
" style="fill: none"/>
  </g>
  <g id="axes_1">
   <g id="patch_2">
    <path d="M 57.6 61.942154 
L 414.72 61.942154 
L 414.72 41.472 
L 57.6 41.472 
L 57.6 61.942154 
z
" style="fill: none"/>
   </g>
   <g id="patch_3">
    <path d="M 57.6 6086.22563 
L 89.752262 6086.22563 
L 89.752262 6086.22563 
L 57.6 6086.22563 
z
" clip-path="url(#p74087f79b3)" style="fill: #1f77b4"/>
   </g>
   <g id="patch_4">
    <path d="M 89.752262 6086.22563 
L 121.904525 6086.22563 
L 121.904525 41.473047 
L 89.752262 41.473047 
z
" clip-path="url(#p74087f79b3)" style="fill: #1f77b4"/>
   </g>
   <g id="patch_5">
    <path d="M 121.904525 6086.22563 
L 154.056787 6086.22563 
L 154.056787 60.128664 
L 121.904525 60.128664 
z
" clip-path="url(#p74087f79b3)" style="fill: #1f77b4"/>
   </g>
   <g id="patch_6">
    <path d="M 154.056787 6086.22563 
L 186.209049 6086.22563 
L 186.209049 6086.22563 
L 154.056787 6086.22563 
z
" clip-path="url(#p74087f79b3)" style="fill: #1f77b4"/>
   </g>
   <g id="patch_7">
    <path d="M 186.209049 6086.22563 
L 218.361312 6086.22563 
L 218.361312 6086.22563 
L 186.209049 6086.22563 
z
" clip-path="url(#p74087f79b3)" style="fill: #1f77b4"/>
   </g>
   <g id="patch_8">
    <path d="M 218.361312 6086.22563 
L 250.513574 6086.22563 
L 250.513574 6086.22563 
L 218.361312 6086.22563 
z
" clip-path="url(#p74087f79b3)" style="fill: #1f77b4"/>
   </g>
   <g id="patch_9">
    <path d="M 250.513574 6086.22563 
L 282.665836 6086.22563 
L 282.665836 6086.22563 
L 250.513574 6086.22563 
z
" clip-path="url(#p74087f79b3)" style="fill: #1f77b4"/>
   </g>
   <g id="patch_10">
    <path d="M 282.665836 6086.22563 
L 314.818099 6086.22563 
L 314.818099 6086.22563 
L 282.665836 6086.22563 
z
" clip-path="url(#p74087f79b3)" style="fill: #1f77b4"/>
   </g>
   <g id="patch_11">
    <path d="M 314.818099 6086.22563 
L 346.970361 6086.22563 
L 346.970361 6086.22563 
L 314.818099 6086.22563 
z
" clip-path="url(#p74087f79b3)" style="fill: #1f77b4"/>
   </g>
   <g id="patch_12">
    <path d="M 346.970361 6086.22563 
L 379.122624 6086.22563 
L 379.122624 6086.22563 
L 346.970361 6086.22563 
z
" clip-path="url(#p74087f79b3)" style="fill: #1f77b4"/>
   </g>
   <g id="matplotlib.axis_1"/>
   <g id="matplotlib.axis_2">
    <g id="ytick_1">
     <g id="line2d_1">
      <defs>
       <path id="mc830690722" d="M 0 0 
L -3.5 0 
" style="stroke: #000000; stroke-width: 0.8"/>
      </defs>
      <g>
       <use xlink:href="#mc830690722" x="57.6" y="61.942154" style="stroke: #000000; stroke-width: 0.8"/>
      </g>
     </g>
     <g id="text_1">
      <!-- $\mathdefault{10^{0}}$ -->
      <g transform="translate(33 65.741373) scale(0.1 -0.1)">
       <defs>
        <path id="DejaVuSans-31" d="M 794 531 
L 1825 531 
L 1825 4091 
L 703 3866 
L 703 4441 
L 1819 4666 
L 2450 4666 
L 2450 531 
L 3481 531 
L 3481 0 
L 794 0 
L 794 531 
z
" transform="scale(0.015625)"/>
        <path id="DejaVuSans-30" d="M 2034 4250 
Q 1547 4250 1301 3770 
Q 1056 3291 1056 2328 
Q 1056 1369 1301 889 
Q 1547 409 2034 409 
Q 2525 409 2770 889 
Q 3016 1369 3016 2328 
Q 3016 3291 2770 3770 
Q 2525 4250 2034 4250 
z
M 2034 4750 
Q 2819 4750 3233 4129 
Q 3647 3509 3647 2328 
Q 3647 1150 3233 529 
Q 2819 -91 2034 -91 
Q 1250 -91 836 529 
Q 422 1150 422 2328 
Q 422 3509 836 4129 
Q 1250 4750 2034 4750 
z
" transform="scale(0.015625)"/>
       </defs>
       <use xlink:href="#DejaVuSans-31" transform="translate(0 0.765625)"/>
       <use xlink:href="#DejaVuSans-30" transform="translate(63.623047 0.765625)"/>
       <use xlink:href="#DejaVuSans-30" transform="translate(128.203125 39.046875) scale(0.7)"/>
      </g>
     </g>
    </g>
    <g id="ytick_2">
     <g id="line2d_2">
      <g>
       <use xlink:href="#mc830690722" x="57.6" y="49.893587" style="stroke: #000000; stroke-width: 0.8"/>
      </g>
     </g>
     <g id="text_2">
      <!-- $\mathdefault{10^{2}}$ -->
      <g transform="translate(33 53.692806) scale(0.1 -0.1)">
       <defs>
        <path id="DejaVuSans-32" d="M 1228 531 
L 3431 531 
L 3431 0 
L 469 0 
L 469 531 
Q 828 903 1448 1529 
Q 2069 2156 2228 2338 
Q 2531 2678 2651 2914 
Q 2772 3150 2772 3378 
Q 2772 3750 2511 3984 
Q 2250 4219 1831 4219 
Q 1534 4219 1204 4116 
Q 875 4013 500 3803 
L 500 4441 
Q 881 4594 1212 4672 
Q 1544 4750 1819 4750 
Q 2544 4750 2975 4387 
Q 3406 4025 3406 3419 
Q 3406 3131 3298 2873 
Q 3191 2616 2906 2266 
Q 2828 2175 2409 1742 
Q 1991 1309 1228 531 
z
" transform="scale(0.015625)"/>
       </defs>
       <use xlink:href="#DejaVuSans-31" transform="translate(0 0.765625)"/>
       <use xlink:href="#DejaVuSans-30" transform="translate(63.623047 0.765625)"/>
       <use xlink:href="#DejaVuSans-32" transform="translate(128.203125 39.046875) scale(0.7)"/>
      </g>
     </g>
    </g>
   </g>
   <g id="patch_13">
    <path d="M 57.6 61.942154 
L 57.6 41.472 
" style="fill: none; stroke: #000000; stroke-width: 0.8; stroke-linejoin: miter; stroke-linecap: square"/>
   </g>
   <g id="patch_14">
    <path d="M 414.72 61.942154 
L 414.72 41.472 
" style="fill: none; stroke: #000000; stroke-width: 0.8; stroke-linejoin: miter; stroke-linecap: square"/>
   </g>
   <g id="patch_15">
    <path d="M 57.6 61.942154 
L 414.72 61.942154 
" style="fill: none; stroke: #000000; stroke-width: 0.8; stroke-linejoin: miter; stroke-linecap: square"/>
   </g>
   <g id="patch_16">
    <path d="M 57.6 41.472 
L 414.72 41.472 
" style="fill: none; stroke: #000000; stroke-width: 0.8; stroke-linejoin: miter; stroke-linecap: square"/>
   </g>
  </g>
  <g id="axes_2">
   <g id="patch_17">
    <path d="M 57.6 86.506338 
L 414.72 86.506338 
L 414.72 66.036185 
L 57.6 66.036185 
L 57.6 86.506338 
z
" style="fill: none"/>
   </g>
   <g id="patch_18">
    <path d="M 57.6 6110.789814 
L 89.752262 6110.789814 
L 89.752262 6110.789814 
L 57.6 6110.789814 
z
" clip-path="url(#pb947a29a5c)" style="fill: #1f77b4"/>
   </g>
   <g id="patch_19">
    <path d="M 89.752262 6110.789814 
L 121.904525 6110.789814 
L 121.904525 66.039326 
L 89.752262 66.039326 
z
" clip-path="url(#pb947a29a5c)" style="fill: #1f77b4"/>
   </g>
   <g id="patch_20">
    <path d="M 121.904525 6110.789814 
L 154.056787 6110.789814 
L 154.056787 84.692848 
L 121.904525 84.692848 
z
" clip-path="url(#pb947a29a5c)" style="fill: #1f77b4"/>
   </g>
   <g id="patch_21">
    <path d="M 154.056787 6110.789814 
L 186.209049 6110.789814 
L 186.209049 84.692848 
L 154.056787 84.692848 
z
" clip-path="url(#pb947a29a5c)" style="fill: #1f77b4"/>
   </g>
   <g id="patch_22">
    <path d="M 186.209049 6110.789814 
L 218.361312 6110.789814 
L 218.361312 6110.789814 
L 186.209049 6110.789814 
z
" clip-path="url(#pb947a29a5c)" style="fill: #1f77b4"/>
   </g>
   <g id="patch_23">
    <path d="M 218.361312 6110.789814 
L 250.513574 6110.789814 
L 250.513574 6110.789814 
L 218.361312 6110.789814 
z
" clip-path="url(#pb947a29a5c)" style="fill: #1f77b4"/>
   </g>
   <g id="patch_24">
    <path d="M 250.513574 6110.789814 
L 282.665836 6110.789814 
L 282.665836 6110.789814 
L 250.513574 6110.789814 
z
" clip-path="url(#pb947a29a5c)" style="fill: #1f77b4"/>
   </g>
   <g id="patch_25">
    <path d="M 282.665836 6110.789814 
L 314.818099 6110.789814 
L 314.818099 6110.789814 
L 282.665836 6110.789814 
z
" clip-path="url(#pb947a29a5c)" style="fill: #1f77b4"/>
   </g>
   <g id="patch_26">
    <path d="M 314.818099 6110.789814 
L 346.970361 6110.789814 
L 346.970361 6110.789814 
L 314.818099 6110.789814 
z
" clip-path="url(#pb947a29a5c)" style="fill: #1f77b4"/>
   </g>
   <g id="patch_27">
    <path d="M 346.970361 6110.789814 
L 379.122624 6110.789814 
L 379.122624 6110.789814 
L 346.970361 6110.789814 
z
" clip-path="url(#pb947a29a5c)" style="fill: #1f77b4"/>
   </g>
   <g id="matplotlib.axis_3"/>
   <g id="matplotlib.axis_4">
    <g id="ytick_3">
     <g id="line2d_3">
      <g>
       <use xlink:href="#mc830690722" x="57.6" y="86.506338" style="stroke: #000000; stroke-width: 0.8"/>
      </g>
     </g>
     <g id="text_3">
      <!-- $\mathdefault{10^{0}}$ -->
      <g transform="translate(33 90.305557) scale(0.1 -0.1)">
       <use xlink:href="#DejaVuSans-31" transform="translate(0 0.765625)"/>
       <use xlink:href="#DejaVuSans-30" transform="translate(63.623047 0.765625)"/>
       <use xlink:href="#DejaVuSans-30" transform="translate(128.203125 39.046875) scale(0.7)"/>
      </g>
     </g>
    </g>
    <g id="ytick_4">
     <g id="line2d_4">
      <g>
       <use xlink:href="#mc830690722" x="57.6" y="74.457772" style="stroke: #000000; stroke-width: 0.8"/>
      </g>
     </g>
     <g id="text_4">
      <!-- $\mathdefault{10^{2}}$ -->
      <g transform="translate(33 78.25699) scale(0.1 -0.1)">
       <use xlink:href="#DejaVuSans-31" transform="translate(0 0.765625)"/>
       <use xlink:href="#DejaVuSans-30" transform="translate(63.623047 0.765625)"/>
       <use xlink:href="#DejaVuSans-32" transform="translate(128.203125 39.046875) scale(0.7)"/>
      </g>
     </g>
    </g>
   </g>
   <g id="patch_28">
    <path d="M 57.6 86.506338 
L 57.6 66.036185 
" style="fill: none; stroke: #000000; stroke-width: 0.8; stroke-linejoin: miter; stroke-linecap: square"/>
   </g>
   <g id="patch_29">
    <path d="M 414.72 86.506338 
L 414.72 66.036185 
" style="fill: none; stroke: #000000; stroke-width: 0.8; stroke-linejoin: miter; stroke-linecap: square"/>
   </g>
   <g id="patch_30">
    <path d="M 57.6 86.506338 
L 414.72 86.506338 
" style="fill: none; stroke: #000000; stroke-width: 0.8; stroke-linejoin: miter; stroke-linecap: square"/>
   </g>
   <g id="patch_31">
    <path d="M 57.6 66.036185 
L 414.72 66.036185 
" style="fill: none; stroke: #000000; stroke-width: 0.8; stroke-linejoin: miter; stroke-linecap: square"/>
   </g>
  </g>
  <g id="axes_3">
   <g id="patch_32">
    <path d="M 57.6 111.070523 
L 414.72 111.070523 
L 414.72 90.600369 
L 57.6 90.600369 
L 57.6 111.070523 
z
" style="fill: none"/>
   </g>
   <g id="patch_33">
    <path d="M 57.6 6135.353999 
L 89.752262 6135.353999 
L 89.752262 6135.353999 
L 57.6 6135.353999 
z
" clip-path="url(#p347794994e)" style="fill: #1f77b4"/>
   </g>
   <g id="patch_34">
    <path d="M 89.752262 6135.353999 
L 121.904525 6135.353999 
L 121.904525 90.604559 
L 89.752262 90.604559 
z
" clip-path="url(#p347794994e)" style="fill: #1f77b4"/>
   </g>
   <g id="patch_35">
    <path d="M 121.904525 6135.353999 
L 154.056787 6135.353999 
L 154.056787 108.196209 
L 121.904525 108.196209 
z
" clip-path="url(#p347794994e)" style="fill: #1f77b4"/>
   </g>
   <g id="patch_36">
    <path d="M 154.056787 6135.353999 
L 186.209049 6135.353999 
L 186.209049 6135.353999 
L 154.056787 6135.353999 
z
" clip-path="url(#p347794994e)" style="fill: #1f77b4"/>
   </g>
   <g id="patch_37">
    <path d="M 186.209049 6135.353999 
L 218.361312 6135.353999 
L 218.361312 109.257033 
L 186.209049 109.257033 
z
" clip-path="url(#p347794994e)" style="fill: #1f77b4"/>
   </g>
   <g id="patch_38">
    <path d="M 218.361312 6135.353999 
L 250.513574 6135.353999 
L 250.513574 6135.353999 
L 218.361312 6135.353999 
z
" clip-path="url(#p347794994e)" style="fill: #1f77b4"/>
   </g>
   <g id="patch_39">
    <path d="M 250.513574 6135.353999 
L 282.665836 6135.353999 
L 282.665836 6135.353999 
L 250.513574 6135.353999 
z
" clip-path="url(#p347794994e)" style="fill: #1f77b4"/>
   </g>
   <g id="patch_40">
    <path d="M 282.665836 6135.353999 
L 314.818099 6135.353999 
L 314.818099 6135.353999 
L 282.665836 6135.353999 
z
" clip-path="url(#p347794994e)" style="fill: #1f77b4"/>
   </g>
   <g id="patch_41">
    <path d="M 314.818099 6135.353999 
L 346.970361 6135.353999 
L 346.970361 6135.353999 
L 314.818099 6135.353999 
z
" clip-path="url(#p347794994e)" style="fill: #1f77b4"/>
   </g>
   <g id="patch_42">
    <path d="M 346.970361 6135.353999 
L 379.122624 6135.353999 
L 379.122624 6135.353999 
L 346.970361 6135.353999 
z
" clip-path="url(#p347794994e)" style="fill: #1f77b4"/>
   </g>
   <g id="matplotlib.axis_5"/>
   <g id="matplotlib.axis_6">
    <g id="ytick_5">
     <g id="line2d_5">
      <g>
       <use xlink:href="#mc830690722" x="57.6" y="111.070523" style="stroke: #000000; stroke-width: 0.8"/>
      </g>
     </g>
     <g id="text_5">
      <!-- $\mathdefault{10^{0}}$ -->
      <g transform="translate(33 114.869742) scale(0.1 -0.1)">
       <use xlink:href="#DejaVuSans-31" transform="translate(0 0.765625)"/>
       <use xlink:href="#DejaVuSans-30" transform="translate(63.623047 0.765625)"/>
       <use xlink:href="#DejaVuSans-30" transform="translate(128.203125 39.046875) scale(0.7)"/>
      </g>
     </g>
    </g>
    <g id="ytick_6">
     <g id="line2d_6">
      <g>
       <use xlink:href="#mc830690722" x="57.6" y="99.021956" style="stroke: #000000; stroke-width: 0.8"/>
      </g>
     </g>
     <g id="text_6">
      <!-- $\mathdefault{10^{2}}$ -->
      <g transform="translate(33 102.821175) scale(0.1 -0.1)">
       <use xlink:href="#DejaVuSans-31" transform="translate(0 0.765625)"/>
       <use xlink:href="#DejaVuSans-30" transform="translate(63.623047 0.765625)"/>
       <use xlink:href="#DejaVuSans-32" transform="translate(128.203125 39.046875) scale(0.7)"/>
      </g>
     </g>
    </g>
   </g>
   <g id="patch_43">
    <path d="M 57.6 111.070523 
L 57.6 90.600369 
" style="fill: none; stroke: #000000; stroke-width: 0.8; stroke-linejoin: miter; stroke-linecap: square"/>
   </g>
   <g id="patch_44">
    <path d="M 414.72 111.070523 
L 414.72 90.600369 
" style="fill: none; stroke: #000000; stroke-width: 0.8; stroke-linejoin: miter; stroke-linecap: square"/>
   </g>
   <g id="patch_45">
    <path d="M 57.6 111.070523 
L 414.72 111.070523 
" style="fill: none; stroke: #000000; stroke-width: 0.8; stroke-linejoin: miter; stroke-linecap: square"/>
   </g>
   <g id="patch_46">
    <path d="M 57.6 90.600369 
L 414.72 90.600369 
" style="fill: none; stroke: #000000; stroke-width: 0.8; stroke-linejoin: miter; stroke-linecap: square"/>
   </g>
  </g>
  <g id="axes_4">
   <g id="patch_47">
    <path d="M 57.6 135.634708 
L 414.72 135.634708 
L 414.72 115.164554 
L 57.6 115.164554 
L 57.6 135.634708 
z
" style="fill: none"/>
   </g>
   <g id="patch_48">
    <path d="M 57.6 6159.918184 
L 89.752262 6159.918184 
L 89.752262 6159.918184 
L 57.6 6159.918184 
z
" clip-path="url(#p3935a86e61)" style="fill: #1f77b4"/>
   </g>
   <g id="patch_49">
    <path d="M 89.752262 6159.918184 
L 121.904525 6159.918184 
L 121.904525 115.170841 
L 89.752262 115.170841 
z
" clip-path="url(#p3935a86e61)" style="fill: #1f77b4"/>
   </g>
   <g id="patch_50">
    <path d="M 121.904525 6159.918184 
L 154.056787 6159.918184 
L 154.056787 132.007728 
L 121.904525 132.007728 
z
" clip-path="url(#p3935a86e61)" style="fill: #1f77b4"/>
   </g>
   <g id="patch_51">
    <path d="M 154.056787 6159.918184 
L 186.209049 6159.918184 
L 186.209049 135.634708 
L 154.056787 135.634708 
z
" clip-path="url(#p3935a86e61)" style="fill: #1f77b4"/>
   </g>
   <g id="patch_52">
    <path d="M 186.209049 6159.918184 
L 218.361312 6159.918184 
L 218.361312 6159.918184 
L 186.209049 6159.918184 
z
" clip-path="url(#p3935a86e61)" style="fill: #1f77b4"/>
   </g>
   <g id="patch_53">
    <path d="M 218.361312 6159.918184 
L 250.513574 6159.918184 
L 250.513574 133.821218 
L 218.361312 133.821218 
z
" clip-path="url(#p3935a86e61)" style="fill: #1f77b4"/>
   </g>
   <g id="patch_54">
    <path d="M 250.513574 6159.918184 
L 282.665836 6159.918184 
L 282.665836 6159.918184 
L 250.513574 6159.918184 
z
" clip-path="url(#p3935a86e61)" style="fill: #1f77b4"/>
   </g>
   <g id="patch_55">
    <path d="M 282.665836 6159.918184 
L 314.818099 6159.918184 
L 314.818099 6159.918184 
L 282.665836 6159.918184 
z
" clip-path="url(#p3935a86e61)" style="fill: #1f77b4"/>
   </g>
   <g id="patch_56">
    <path d="M 314.818099 6159.918184 
L 346.970361 6159.918184 
L 346.970361 6159.918184 
L 314.818099 6159.918184 
z
" clip-path="url(#p3935a86e61)" style="fill: #1f77b4"/>
   </g>
   <g id="patch_57">
    <path d="M 346.970361 6159.918184 
L 379.122624 6159.918184 
L 379.122624 6159.918184 
L 346.970361 6159.918184 
z
" clip-path="url(#p3935a86e61)" style="fill: #1f77b4"/>
   </g>
   <g id="matplotlib.axis_7"/>
   <g id="matplotlib.axis_8">
    <g id="ytick_7">
     <g id="line2d_7">
      <g>
       <use xlink:href="#mc830690722" x="57.6" y="135.634708" style="stroke: #000000; stroke-width: 0.8"/>
      </g>
     </g>
     <g id="text_7">
      <!-- $\mathdefault{10^{0}}$ -->
      <g transform="translate(33 139.433926) scale(0.1 -0.1)">
       <use xlink:href="#DejaVuSans-31" transform="translate(0 0.765625)"/>
       <use xlink:href="#DejaVuSans-30" transform="translate(63.623047 0.765625)"/>
       <use xlink:href="#DejaVuSans-30" transform="translate(128.203125 39.046875) scale(0.7)"/>
      </g>
     </g>
    </g>
    <g id="ytick_8">
     <g id="line2d_8">
      <g>
       <use xlink:href="#mc830690722" x="57.6" y="123.586141" style="stroke: #000000; stroke-width: 0.8"/>
      </g>
     </g>
     <g id="text_8">
      <!-- $\mathdefault{10^{2}}$ -->
      <g transform="translate(33 127.385359) scale(0.1 -0.1)">
       <use xlink:href="#DejaVuSans-31" transform="translate(0 0.765625)"/>
       <use xlink:href="#DejaVuSans-30" transform="translate(63.623047 0.765625)"/>
       <use xlink:href="#DejaVuSans-32" transform="translate(128.203125 39.046875) scale(0.7)"/>
      </g>
     </g>
    </g>
   </g>
   <g id="patch_58">
    <path d="M 57.6 135.634708 
L 57.6 115.164554 
" style="fill: none; stroke: #000000; stroke-width: 0.8; stroke-linejoin: miter; stroke-linecap: square"/>
   </g>
   <g id="patch_59">
    <path d="M 414.72 135.634708 
L 414.72 115.164554 
" style="fill: none; stroke: #000000; stroke-width: 0.8; stroke-linejoin: miter; stroke-linecap: square"/>
   </g>
   <g id="patch_60">
    <path d="M 57.6 135.634708 
L 414.72 135.634708 
" style="fill: none; stroke: #000000; stroke-width: 0.8; stroke-linejoin: miter; stroke-linecap: square"/>
   </g>
   <g id="patch_61">
    <path d="M 57.6 115.164554 
L 414.72 115.164554 
" style="fill: none; stroke: #000000; stroke-width: 0.8; stroke-linejoin: miter; stroke-linecap: square"/>
   </g>
  </g>
  <g id="axes_5">
   <g id="patch_62">
    <path d="M 57.6 160.198892 
L 414.72 160.198892 
L 414.72 139.728738 
L 57.6 139.728738 
L 57.6 160.198892 
z
" style="fill: none"/>
   </g>
   <g id="patch_63">
    <path d="M 57.6 6184.482368 
L 89.752262 6184.482368 
L 89.752262 6184.482368 
L 57.6 6184.482368 
z
" clip-path="url(#p4a3ad854ed)" style="fill: #1f77b4"/>
   </g>
   <g id="patch_64">
    <path d="M 89.752262 6184.482368 
L 121.904525 6184.482368 
L 121.904525 139.736074 
L 89.752262 139.736074 
z
" clip-path="url(#p4a3ad854ed)" style="fill: #1f77b4"/>
   </g>
   <g id="patch_65">
    <path d="M 121.904525 6184.482368 
L 154.056787 6184.482368 
L 154.056787 156.571912 
L 121.904525 156.571912 
z
" clip-path="url(#p4a3ad854ed)" style="fill: #1f77b4"/>
   </g>
   <g id="patch_66">
    <path d="M 154.056787 6184.482368 
L 186.209049 6184.482368 
L 186.209049 158.385402 
L 154.056787 158.385402 
z
" clip-path="url(#p4a3ad854ed)" style="fill: #1f77b4"/>
   </g>
   <g id="patch_67">
    <path d="M 186.209049 6184.482368 
L 218.361312 6184.482368 
L 218.361312 6184.482368 
L 186.209049 6184.482368 
z
" clip-path="url(#p4a3ad854ed)" style="fill: #1f77b4"/>
   </g>
   <g id="patch_68">
    <path d="M 218.361312 6184.482368 
L 250.513574 6184.482368 
L 250.513574 6184.482368 
L 218.361312 6184.482368 
z
" clip-path="url(#p4a3ad854ed)" style="fill: #1f77b4"/>
   </g>
   <g id="patch_69">
    <path d="M 250.513574 6184.482368 
L 282.665836 6184.482368 
L 282.665836 158.385402 
L 250.513574 158.385402 
z
" clip-path="url(#p4a3ad854ed)" style="fill: #1f77b4"/>
   </g>
   <g id="patch_70">
    <path d="M 282.665836 6184.482368 
L 314.818099 6184.482368 
L 314.818099 6184.482368 
L 282.665836 6184.482368 
z
" clip-path="url(#p4a3ad854ed)" style="fill: #1f77b4"/>
   </g>
   <g id="patch_71">
    <path d="M 314.818099 6184.482368 
L 346.970361 6184.482368 
L 346.970361 6184.482368 
L 314.818099 6184.482368 
z
" clip-path="url(#p4a3ad854ed)" style="fill: #1f77b4"/>
   </g>
   <g id="patch_72">
    <path d="M 346.970361 6184.482368 
L 379.122624 6184.482368 
L 379.122624 6184.482368 
L 346.970361 6184.482368 
z
" clip-path="url(#p4a3ad854ed)" style="fill: #1f77b4"/>
   </g>
   <g id="matplotlib.axis_9"/>
   <g id="matplotlib.axis_10">
    <g id="ytick_9">
     <g id="line2d_9">
      <g>
       <use xlink:href="#mc830690722" x="57.6" y="160.198892" style="stroke: #000000; stroke-width: 0.8"/>
      </g>
     </g>
     <g id="text_9">
      <!-- $\mathdefault{10^{0}}$ -->
      <g transform="translate(33 163.998111) scale(0.1 -0.1)">
       <use xlink:href="#DejaVuSans-31" transform="translate(0 0.765625)"/>
       <use xlink:href="#DejaVuSans-30" transform="translate(63.623047 0.765625)"/>
       <use xlink:href="#DejaVuSans-30" transform="translate(128.203125 39.046875) scale(0.7)"/>
      </g>
     </g>
    </g>
    <g id="ytick_10">
     <g id="line2d_10">
      <g>
       <use xlink:href="#mc830690722" x="57.6" y="148.150325" style="stroke: #000000; stroke-width: 0.8"/>
      </g>
     </g>
     <g id="text_10">
      <!-- $\mathdefault{10^{2}}$ -->
      <g transform="translate(33 151.949544) scale(0.1 -0.1)">
       <use xlink:href="#DejaVuSans-31" transform="translate(0 0.765625)"/>
       <use xlink:href="#DejaVuSans-30" transform="translate(63.623047 0.765625)"/>
       <use xlink:href="#DejaVuSans-32" transform="translate(128.203125 39.046875) scale(0.7)"/>
      </g>
     </g>
    </g>
   </g>
   <g id="patch_73">
    <path d="M 57.6 160.198892 
L 57.6 139.728738 
" style="fill: none; stroke: #000000; stroke-width: 0.8; stroke-linejoin: miter; stroke-linecap: square"/>
   </g>
   <g id="patch_74">
    <path d="M 414.72 160.198892 
L 414.72 139.728738 
" style="fill: none; stroke: #000000; stroke-width: 0.8; stroke-linejoin: miter; stroke-linecap: square"/>
   </g>
   <g id="patch_75">
    <path d="M 57.6 160.198892 
L 414.72 160.198892 
" style="fill: none; stroke: #000000; stroke-width: 0.8; stroke-linejoin: miter; stroke-linecap: square"/>
   </g>
   <g id="patch_76">
    <path d="M 57.6 139.728738 
L 414.72 139.728738 
" style="fill: none; stroke: #000000; stroke-width: 0.8; stroke-linejoin: miter; stroke-linecap: square"/>
   </g>
  </g>
  <g id="axes_6">
   <g id="patch_77">
    <path d="M 57.6 184.763077 
L 414.72 184.763077 
L 414.72 164.292923 
L 57.6 164.292923 
L 57.6 184.763077 
z
" style="fill: none"/>
   </g>
   <g id="patch_78">
    <path d="M 57.6 6209.046553 
L 89.752262 6209.046553 
L 89.752262 6209.046553 
L 57.6 6209.046553 
z
" clip-path="url(#p39a6c47f85)" style="fill: #1f77b4"/>
   </g>
   <g id="patch_79">
    <path d="M 89.752262 6209.046553 
L 121.904525 6209.046553 
L 121.904525 164.301309 
L 89.752262 164.301309 
z
" clip-path="url(#p39a6c47f85)" style="fill: #1f77b4"/>
   </g>
   <g id="patch_80">
    <path d="M 121.904525 6209.046553 
L 154.056787 6209.046553 
L 154.056787 180.552283 
L 121.904525 180.552283 
z
" clip-path="url(#p39a6c47f85)" style="fill: #1f77b4"/>
   </g>
   <g id="patch_81">
    <path d="M 154.056787 6209.046553 
L 186.209049 6209.046553 
L 186.209049 184.763077 
L 154.056787 184.763077 
z
" clip-path="url(#p39a6c47f85)" style="fill: #1f77b4"/>
   </g>
   <g id="patch_82">
    <path d="M 186.209049 6209.046553 
L 218.361312 6209.046553 
L 218.361312 184.763077 
L 186.209049 184.763077 
z
" clip-path="url(#p39a6c47f85)" style="fill: #1f77b4"/>
   </g>
   <g id="patch_83">
    <path d="M 218.361312 6209.046553 
L 250.513574 6209.046553 
L 250.513574 6209.046553 
L 218.361312 6209.046553 
z
" clip-path="url(#p39a6c47f85)" style="fill: #1f77b4"/>
   </g>
   <g id="patch_84">
    <path d="M 250.513574 6209.046553 
L 282.665836 6209.046553 
L 282.665836 6209.046553 
L 250.513574 6209.046553 
z
" clip-path="url(#p39a6c47f85)" style="fill: #1f77b4"/>
   </g>
   <g id="patch_85">
    <path d="M 282.665836 6209.046553 
L 314.818099 6209.046553 
L 314.818099 182.949587 
L 282.665836 182.949587 
z
" clip-path="url(#p39a6c47f85)" style="fill: #1f77b4"/>
   </g>
   <g id="patch_86">
    <path d="M 314.818099 6209.046553 
L 346.970361 6209.046553 
L 346.970361 6209.046553 
L 314.818099 6209.046553 
z
" clip-path="url(#p39a6c47f85)" style="fill: #1f77b4"/>
   </g>
   <g id="patch_87">
    <path d="M 346.970361 6209.046553 
L 379.122624 6209.046553 
L 379.122624 6209.046553 
L 346.970361 6209.046553 
z
" clip-path="url(#p39a6c47f85)" style="fill: #1f77b4"/>
   </g>
   <g id="matplotlib.axis_11"/>
   <g id="matplotlib.axis_12">
    <g id="ytick_11">
     <g id="line2d_11">
      <g>
       <use xlink:href="#mc830690722" x="57.6" y="184.763077" style="stroke: #000000; stroke-width: 0.8"/>
      </g>
     </g>
     <g id="text_11">
      <!-- $\mathdefault{10^{0}}$ -->
      <g transform="translate(33 188.562296) scale(0.1 -0.1)">
       <use xlink:href="#DejaVuSans-31" transform="translate(0 0.765625)"/>
       <use xlink:href="#DejaVuSans-30" transform="translate(63.623047 0.765625)"/>
       <use xlink:href="#DejaVuSans-30" transform="translate(128.203125 39.046875) scale(0.7)"/>
      </g>
     </g>
    </g>
    <g id="ytick_12">
     <g id="line2d_12">
      <g>
       <use xlink:href="#mc830690722" x="57.6" y="172.71451" style="stroke: #000000; stroke-width: 0.8"/>
      </g>
     </g>
     <g id="text_12">
      <!-- $\mathdefault{10^{2}}$ -->
      <g transform="translate(33 176.513729) scale(0.1 -0.1)">
       <use xlink:href="#DejaVuSans-31" transform="translate(0 0.765625)"/>
       <use xlink:href="#DejaVuSans-30" transform="translate(63.623047 0.765625)"/>
       <use xlink:href="#DejaVuSans-32" transform="translate(128.203125 39.046875) scale(0.7)"/>
      </g>
     </g>
    </g>
   </g>
   <g id="patch_88">
    <path d="M 57.6 184.763077 
L 57.6 164.292923 
" style="fill: none; stroke: #000000; stroke-width: 0.8; stroke-linejoin: miter; stroke-linecap: square"/>
   </g>
   <g id="patch_89">
    <path d="M 414.72 184.763077 
L 414.72 164.292923 
" style="fill: none; stroke: #000000; stroke-width: 0.8; stroke-linejoin: miter; stroke-linecap: square"/>
   </g>
   <g id="patch_90">
    <path d="M 57.6 184.763077 
L 414.72 184.763077 
" style="fill: none; stroke: #000000; stroke-width: 0.8; stroke-linejoin: miter; stroke-linecap: square"/>
   </g>
   <g id="patch_91">
    <path d="M 57.6 164.292923 
L 414.72 164.292923 
" style="fill: none; stroke: #000000; stroke-width: 0.8; stroke-linejoin: miter; stroke-linecap: square"/>
   </g>
  </g>
  <g id="axes_7">
   <g id="patch_92">
    <path d="M 57.6 209.327262 
L 414.72 209.327262 
L 414.72 188.857108 
L 57.6 188.857108 
L 57.6 209.327262 
z
" style="fill: none"/>
   </g>
   <g id="patch_93">
    <path d="M 57.6 6233.610737 
L 89.752262 6233.610737 
L 89.752262 6233.610737 
L 57.6 6233.610737 
z
" clip-path="url(#pf8a1beed45)" style="fill: #1f77b4"/>
   </g>
   <g id="patch_94">
    <path d="M 89.752262 6233.610737 
L 121.904525 6233.610737 
L 121.904525 188.873906 
L 89.752262 188.873906 
z
" clip-path="url(#pf8a1beed45)" style="fill: #1f77b4"/>
   </g>
   <g id="patch_95">
    <path d="M 121.904525 6233.610737 
L 154.056787 6233.610737 
L 154.056787 203.578634 
L 121.904525 203.578634 
z
" clip-path="url(#pf8a1beed45)" style="fill: #1f77b4"/>
   </g>
   <g id="patch_96">
    <path d="M 154.056787 6233.610737 
L 186.209049 6233.610737 
L 186.209049 206.452948 
L 154.056787 206.452948 
z
" clip-path="url(#pf8a1beed45)" style="fill: #1f77b4"/>
   </g>
   <g id="patch_97">
    <path d="M 186.209049 6233.610737 
L 218.361312 6233.610737 
L 218.361312 209.327262 
L 186.209049 209.327262 
z
" clip-path="url(#pf8a1beed45)" style="fill: #1f77b4"/>
   </g>
   <g id="patch_98">
    <path d="M 218.361312 6233.610737 
L 250.513574 6233.610737 
L 250.513574 209.327262 
L 218.361312 209.327262 
z
" clip-path="url(#pf8a1beed45)" style="fill: #1f77b4"/>
   </g>
   <g id="patch_99">
    <path d="M 250.513574 6233.610737 
L 282.665836 6233.610737 
L 282.665836 209.327262 
L 250.513574 209.327262 
z
" clip-path="url(#pf8a1beed45)" style="fill: #1f77b4"/>
   </g>
   <g id="patch_100">
    <path d="M 282.665836 6233.610737 
L 314.818099 6233.610737 
L 314.818099 6233.610737 
L 282.665836 6233.610737 
z
" clip-path="url(#pf8a1beed45)" style="fill: #1f77b4"/>
   </g>
   <g id="patch_101">
    <path d="M 314.818099 6233.610737 
L 346.970361 6233.610737 
L 346.970361 6233.610737 
L 314.818099 6233.610737 
z
" clip-path="url(#pf8a1beed45)" style="fill: #1f77b4"/>
   </g>
   <g id="patch_102">
    <path d="M 346.970361 6233.610737 
L 379.122624 6233.610737 
L 379.122624 207.513772 
L 346.970361 207.513772 
z
" clip-path="url(#pf8a1beed45)" style="fill: #1f77b4"/>
   </g>
   <g id="matplotlib.axis_13"/>
   <g id="matplotlib.axis_14">
    <g id="ytick_13">
     <g id="line2d_13">
      <g>
       <use xlink:href="#mc830690722" x="57.6" y="209.327262" style="stroke: #000000; stroke-width: 0.8"/>
      </g>
     </g>
     <g id="text_13">
      <!-- $\mathdefault{10^{0}}$ -->
      <g transform="translate(33 213.12648) scale(0.1 -0.1)">
       <use xlink:href="#DejaVuSans-31" transform="translate(0 0.765625)"/>
       <use xlink:href="#DejaVuSans-30" transform="translate(63.623047 0.765625)"/>
       <use xlink:href="#DejaVuSans-30" transform="translate(128.203125 39.046875) scale(0.7)"/>
      </g>
     </g>
    </g>
    <g id="ytick_14">
     <g id="line2d_14">
      <g>
       <use xlink:href="#mc830690722" x="57.6" y="197.278695" style="stroke: #000000; stroke-width: 0.8"/>
      </g>
     </g>
     <g id="text_14">
      <!-- $\mathdefault{10^{2}}$ -->
      <g transform="translate(33 201.077913) scale(0.1 -0.1)">
       <use xlink:href="#DejaVuSans-31" transform="translate(0 0.765625)"/>
       <use xlink:href="#DejaVuSans-30" transform="translate(63.623047 0.765625)"/>
       <use xlink:href="#DejaVuSans-32" transform="translate(128.203125 39.046875) scale(0.7)"/>
      </g>
     </g>
    </g>
   </g>
   <g id="patch_103">
    <path d="M 57.6 209.327262 
L 57.6 188.857108 
" style="fill: none; stroke: #000000; stroke-width: 0.8; stroke-linejoin: miter; stroke-linecap: square"/>
   </g>
   <g id="patch_104">
    <path d="M 414.72 209.327262 
L 414.72 188.857108 
" style="fill: none; stroke: #000000; stroke-width: 0.8; stroke-linejoin: miter; stroke-linecap: square"/>
   </g>
   <g id="patch_105">
    <path d="M 57.6 209.327262 
L 414.72 209.327262 
" style="fill: none; stroke: #000000; stroke-width: 0.8; stroke-linejoin: miter; stroke-linecap: square"/>
   </g>
   <g id="patch_106">
    <path d="M 57.6 188.857108 
L 414.72 188.857108 
" style="fill: none; stroke: #000000; stroke-width: 0.8; stroke-linejoin: miter; stroke-linecap: square"/>
   </g>
  </g>
  <g id="axes_8">
   <g id="patch_107">
    <path d="M 57.6 233.891446 
L 414.72 233.891446 
L 414.72 213.421292 
L 57.6 213.421292 
L 57.6 233.891446 
z
" style="fill: none"/>
   </g>
   <g id="patch_108">
    <path d="M 57.6 6258.174922 
L 89.752262 6258.174922 
L 89.752262 6258.174922 
L 57.6 6258.174922 
z
" clip-path="url(#p9723d00fc6)" style="fill: #1f77b4"/>
   </g>
   <g id="patch_109">
    <path d="M 89.752262 6258.174922 
L 121.904525 6258.174922 
L 121.904525 213.515046 
L 89.752262 213.515046 
z
" clip-path="url(#p9723d00fc6)" style="fill: #1f77b4"/>
   </g>
   <g id="patch_110">
    <path d="M 121.904525 6258.174922 
L 154.056787 6258.174922 
L 154.056787 223.455015 
L 121.904525 223.455015 
z
" clip-path="url(#p9723d00fc6)" style="fill: #1f77b4"/>
   </g>
   <g id="patch_111">
    <path d="M 154.056787 6258.174922 
L 186.209049 6258.174922 
L 186.209049 227.617801 
L 154.056787 227.617801 
z
" clip-path="url(#p9723d00fc6)" style="fill: #1f77b4"/>
   </g>
   <g id="patch_112">
    <path d="M 186.209049 6258.174922 
L 218.361312 6258.174922 
L 218.361312 229.680653 
L 186.209049 229.680653 
z
" clip-path="url(#p9723d00fc6)" style="fill: #1f77b4"/>
   </g>
   <g id="patch_113">
    <path d="M 218.361312 6258.174922 
L 250.513574 6258.174922 
L 250.513574 229.680653 
L 218.361312 229.680653 
z
" clip-path="url(#p9723d00fc6)" style="fill: #1f77b4"/>
   </g>
   <g id="patch_114">
    <path d="M 250.513574 6258.174922 
L 282.665836 6258.174922 
L 282.665836 229.680653 
L 250.513574 229.680653 
z
" clip-path="url(#p9723d00fc6)" style="fill: #1f77b4"/>
   </g>
   <g id="patch_115">
    <path d="M 282.665836 6258.174922 
L 314.818099 6258.174922 
L 314.818099 230.264466 
L 282.665836 230.264466 
z
" clip-path="url(#p9723d00fc6)" style="fill: #1f77b4"/>
   </g>
   <g id="patch_116">
    <path d="M 314.818099 6258.174922 
L 346.970361 6258.174922 
L 346.970361 229.680653 
L 314.818099 229.680653 
z
" clip-path="url(#p9723d00fc6)" style="fill: #1f77b4"/>
   </g>
   <g id="patch_117">
    <path d="M 346.970361 6258.174922 
L 379.122624 6258.174922 
L 379.122624 6258.174922 
L 346.970361 6258.174922 
z
" clip-path="url(#p9723d00fc6)" style="fill: #1f77b4"/>
   </g>
   <g id="matplotlib.axis_15"/>
   <g id="matplotlib.axis_16">
    <g id="ytick_15">
     <g id="line2d_15">
      <g>
       <use xlink:href="#mc830690722" x="57.6" y="233.891446" style="stroke: #000000; stroke-width: 0.8"/>
      </g>
     </g>
     <g id="text_15">
      <!-- $\mathdefault{10^{0}}$ -->
      <g transform="translate(33 237.690665) scale(0.1 -0.1)">
       <use xlink:href="#DejaVuSans-31" transform="translate(0 0.765625)"/>
       <use xlink:href="#DejaVuSans-30" transform="translate(63.623047 0.765625)"/>
       <use xlink:href="#DejaVuSans-30" transform="translate(128.203125 39.046875) scale(0.7)"/>
      </g>
     </g>
    </g>
    <g id="ytick_16">
     <g id="line2d_16">
      <g>
       <use xlink:href="#mc830690722" x="57.6" y="221.842879" style="stroke: #000000; stroke-width: 0.8"/>
      </g>
     </g>
     <g id="text_16">
      <!-- $\mathdefault{10^{2}}$ -->
      <g transform="translate(33 225.642098) scale(0.1 -0.1)">
       <use xlink:href="#DejaVuSans-31" transform="translate(0 0.765625)"/>
       <use xlink:href="#DejaVuSans-30" transform="translate(63.623047 0.765625)"/>
       <use xlink:href="#DejaVuSans-32" transform="translate(128.203125 39.046875) scale(0.7)"/>
      </g>
     </g>
    </g>
   </g>
   <g id="patch_118">
    <path d="M 57.6 233.891446 
L 57.6 213.421292 
" style="fill: none; stroke: #000000; stroke-width: 0.8; stroke-linejoin: miter; stroke-linecap: square"/>
   </g>
   <g id="patch_119">
    <path d="M 414.72 233.891446 
L 414.72 213.421292 
" style="fill: none; stroke: #000000; stroke-width: 0.8; stroke-linejoin: miter; stroke-linecap: square"/>
   </g>
   <g id="patch_120">
    <path d="M 57.6 233.891446 
L 414.72 233.891446 
" style="fill: none; stroke: #000000; stroke-width: 0.8; stroke-linejoin: miter; stroke-linecap: square"/>
   </g>
   <g id="patch_121">
    <path d="M 57.6 213.421292 
L 414.72 213.421292 
" style="fill: none; stroke: #000000; stroke-width: 0.8; stroke-linejoin: miter; stroke-linecap: square"/>
   </g>
  </g>
  <g id="axes_9">
   <g id="patch_122">
    <path d="M 57.6 258.455631 
L 414.72 258.455631 
L 414.72 237.985477 
L 57.6 237.985477 
L 57.6 258.455631 
z
" style="fill: none"/>
   </g>
   <g id="patch_123">
    <path d="M 57.6 6282.739107 
L 89.752262 6282.739107 
L 89.752262 6282.739107 
L 57.6 6282.739107 
z
" clip-path="url(#p20ec571570)" style="fill: #1f77b4"/>
   </g>
   <g id="patch_124">
    <path d="M 89.752262 6282.739107 
L 121.904525 6282.739107 
L 121.904525 238.203629 
L 89.752262 238.203629 
z
" clip-path="url(#p20ec571570)" style="fill: #1f77b4"/>
   </g>
   <g id="patch_125">
    <path d="M 121.904525 6282.739107 
L 154.056787 6282.739107 
L 154.056787 245.74084 
L 121.904525 245.74084 
z
" clip-path="url(#p20ec571570)" style="fill: #1f77b4"/>
   </g>
   <g id="patch_126">
    <path d="M 154.056787 6282.739107 
L 186.209049 6282.739107 
L 186.209049 250.140847 
L 154.056787 250.140847 
z
" clip-path="url(#p20ec571570)" style="fill: #1f77b4"/>
   </g>
   <g id="patch_127">
    <path d="M 186.209049 6282.739107 
L 218.361312 6282.739107 
L 218.361312 251.74492 
L 186.209049 251.74492 
z
" clip-path="url(#p20ec571570)" style="fill: #1f77b4"/>
   </g>
   <g id="patch_128">
    <path d="M 218.361312 6282.739107 
L 250.513574 6282.739107 
L 250.513574 252.707003 
L 218.361312 252.707003 
z
" clip-path="url(#p20ec571570)" style="fill: #1f77b4"/>
   </g>
   <g id="patch_129">
    <path d="M 250.513574 6282.739107 
L 282.665836 6282.739107 
L 282.665836 253.015161 
L 250.513574 253.015161 
z
" clip-path="url(#p20ec571570)" style="fill: #1f77b4"/>
   </g>
   <g id="patch_130">
    <path d="M 282.665836 6282.739107 
L 314.818099 6282.739107 
L 314.818099 252.181986 
L 282.665836 252.181986 
z
" clip-path="url(#p20ec571570)" style="fill: #1f77b4"/>
   </g>
   <g id="patch_131">
    <path d="M 314.818099 6282.739107 
L 346.970361 6282.739107 
L 346.970361 253.364521 
L 314.818099 253.364521 
z
" clip-path="url(#p20ec571570)" style="fill: #1f77b4"/>
   </g>
   <g id="patch_132">
    <path d="M 346.970361 6282.739107 
L 379.122624 6282.739107 
L 379.122624 6282.739107 
L 346.970361 6282.739107 
z
" clip-path="url(#p20ec571570)" style="fill: #1f77b4"/>
   </g>
   <g id="matplotlib.axis_17"/>
   <g id="matplotlib.axis_18">
    <g id="ytick_17">
     <g id="line2d_17">
      <g>
       <use xlink:href="#mc830690722" x="57.6" y="258.455631" style="stroke: #000000; stroke-width: 0.8"/>
      </g>
     </g>
     <g id="text_17">
      <!-- $\mathdefault{10^{0}}$ -->
      <g transform="translate(33 262.25485) scale(0.1 -0.1)">
       <use xlink:href="#DejaVuSans-31" transform="translate(0 0.765625)"/>
       <use xlink:href="#DejaVuSans-30" transform="translate(63.623047 0.765625)"/>
       <use xlink:href="#DejaVuSans-30" transform="translate(128.203125 39.046875) scale(0.7)"/>
      </g>
     </g>
    </g>
    <g id="ytick_18">
     <g id="line2d_18">
      <g>
       <use xlink:href="#mc830690722" x="57.6" y="246.407064" style="stroke: #000000; stroke-width: 0.8"/>
      </g>
     </g>
     <g id="text_18">
      <!-- $\mathdefault{10^{2}}$ -->
      <g transform="translate(33 250.206283) scale(0.1 -0.1)">
       <use xlink:href="#DejaVuSans-31" transform="translate(0 0.765625)"/>
       <use xlink:href="#DejaVuSans-30" transform="translate(63.623047 0.765625)"/>
       <use xlink:href="#DejaVuSans-32" transform="translate(128.203125 39.046875) scale(0.7)"/>
      </g>
     </g>
    </g>
   </g>
   <g id="patch_133">
    <path d="M 57.6 258.455631 
L 57.6 237.985477 
" style="fill: none; stroke: #000000; stroke-width: 0.8; stroke-linejoin: miter; stroke-linecap: square"/>
   </g>
   <g id="patch_134">
    <path d="M 414.72 258.455631 
L 414.72 237.985477 
" style="fill: none; stroke: #000000; stroke-width: 0.8; stroke-linejoin: miter; stroke-linecap: square"/>
   </g>
   <g id="patch_135">
    <path d="M 57.6 258.455631 
L 414.72 258.455631 
" style="fill: none; stroke: #000000; stroke-width: 0.8; stroke-linejoin: miter; stroke-linecap: square"/>
   </g>
   <g id="patch_136">
    <path d="M 57.6 237.985477 
L 414.72 237.985477 
" style="fill: none; stroke: #000000; stroke-width: 0.8; stroke-linejoin: miter; stroke-linecap: square"/>
   </g>
  </g>
  <g id="axes_10">
   <g id="patch_137">
    <path d="M 57.6 283.019815 
L 414.72 283.019815 
L 414.72 262.549662 
L 57.6 262.549662 
L 57.6 283.019815 
z
" style="fill: none"/>
   </g>
   <g id="patch_138">
    <path d="M 57.6 6307.303291 
L 89.752262 6307.303291 
L 89.752262 6307.303291 
L 57.6 6307.303291 
z
" clip-path="url(#p766b484617)" style="fill: #1f77b4"/>
   </g>
   <g id="patch_139">
    <path d="M 89.752262 6307.303291 
L 121.904525 6307.303291 
L 121.904525 263.085515 
L 89.752262 263.085515 
z
" clip-path="url(#p766b484617)" style="fill: #1f77b4"/>
   </g>
   <g id="patch_140">
    <path d="M 121.904525 6307.303291 
L 154.056787 6307.303291 
L 154.056787 268.334115 
L 121.904525 268.334115 
z
" clip-path="url(#p766b484617)" style="fill: #1f77b4"/>
   </g>
   <g id="patch_141">
    <path d="M 154.056787 6307.303291 
L 186.209049 6307.303291 
L 186.209049 271.723915 
L 154.056787 271.723915 
z
" clip-path="url(#p766b484617)" style="fill: #1f77b4"/>
   </g>
   <g id="patch_142">
    <path d="M 186.209049 6307.303291 
L 218.361312 6307.303291 
L 218.361312 273.179338 
L 186.209049 273.179338 
z
" clip-path="url(#p766b484617)" style="fill: #1f77b4"/>
   </g>
   <g id="patch_143">
    <path d="M 218.361312 6307.303291 
L 250.513574 6307.303291 
L 250.513574 275.182042 
L 218.361312 275.182042 
z
" clip-path="url(#p766b484617)" style="fill: #1f77b4"/>
   </g>
   <g id="patch_144">
    <path d="M 250.513574 6307.303291 
L 282.665836 6307.303291 
L 282.665836 275.316241 
L 250.513574 275.316241 
z
" clip-path="url(#p766b484617)" style="fill: #1f77b4"/>
   </g>
   <g id="patch_145">
    <path d="M 282.665836 6307.303291 
L 314.818099 6307.303291 
L 314.818099 276.115215 
L 282.665836 276.115215 
z
" clip-path="url(#p766b484617)" style="fill: #1f77b4"/>
   </g>
   <g id="patch_146">
    <path d="M 314.818099 6307.303291 
L 346.970361 6307.303291 
L 346.970361 276.115215 
L 314.818099 276.115215 
z
" clip-path="url(#p766b484617)" style="fill: #1f77b4"/>
   </g>
   <g id="patch_147">
    <path d="M 346.970361 6307.303291 
L 379.122624 6307.303291 
L 379.122624 278.809022 
L 346.970361 278.809022 
z
" clip-path="url(#p766b484617)" style="fill: #1f77b4"/>
   </g>
   <g id="matplotlib.axis_19"/>
   <g id="matplotlib.axis_20">
    <g id="ytick_19">
     <g id="line2d_19">
      <g>
       <use xlink:href="#mc830690722" x="57.6" y="283.019815" style="stroke: #000000; stroke-width: 0.8"/>
      </g>
     </g>
     <g id="text_19">
      <!-- $\mathdefault{10^{0}}$ -->
      <g transform="translate(33 286.819034) scale(0.1 -0.1)">
       <use xlink:href="#DejaVuSans-31" transform="translate(0 0.765625)"/>
       <use xlink:href="#DejaVuSans-30" transform="translate(63.623047 0.765625)"/>
       <use xlink:href="#DejaVuSans-30" transform="translate(128.203125 39.046875) scale(0.7)"/>
      </g>
     </g>
    </g>
    <g id="ytick_20">
     <g id="line2d_20">
      <g>
       <use xlink:href="#mc830690722" x="57.6" y="270.971248" style="stroke: #000000; stroke-width: 0.8"/>
      </g>
     </g>
     <g id="text_20">
      <!-- $\mathdefault{10^{2}}$ -->
      <g transform="translate(33 274.770467) scale(0.1 -0.1)">
       <use xlink:href="#DejaVuSans-31" transform="translate(0 0.765625)"/>
       <use xlink:href="#DejaVuSans-30" transform="translate(63.623047 0.765625)"/>
       <use xlink:href="#DejaVuSans-32" transform="translate(128.203125 39.046875) scale(0.7)"/>
      </g>
     </g>
    </g>
   </g>
   <g id="patch_148">
    <path d="M 57.6 283.019815 
L 57.6 262.549662 
" style="fill: none; stroke: #000000; stroke-width: 0.8; stroke-linejoin: miter; stroke-linecap: square"/>
   </g>
   <g id="patch_149">
    <path d="M 414.72 283.019815 
L 414.72 262.549662 
" style="fill: none; stroke: #000000; stroke-width: 0.8; stroke-linejoin: miter; stroke-linecap: square"/>
   </g>
   <g id="patch_150">
    <path d="M 57.6 283.019815 
L 414.72 283.019815 
" style="fill: none; stroke: #000000; stroke-width: 0.8; stroke-linejoin: miter; stroke-linecap: square"/>
   </g>
   <g id="patch_151">
    <path d="M 57.6 262.549662 
L 414.72 262.549662 
" style="fill: none; stroke: #000000; stroke-width: 0.8; stroke-linejoin: miter; stroke-linecap: square"/>
   </g>
  </g>
  <g id="axes_11">
   <g id="patch_152">
    <path d="M 57.6 307.584 
L 414.72 307.584 
L 414.72 287.113846 
L 57.6 287.113846 
L 57.6 307.584 
z
" style="fill: none"/>
   </g>
   <g id="patch_153">
    <path d="M 57.6 6331.867476 
L 89.752262 6331.867476 
L 89.752262 6331.867476 
L 57.6 6331.867476 
z
" clip-path="url(#p393d6cf485)" style="fill: #1f77b4"/>
   </g>
   <g id="patch_154">
    <path d="M 89.752262 6331.867476 
L 121.904525 6331.867476 
L 121.904525 288.590039 
L 89.752262 288.590039 
z
" clip-path="url(#p393d6cf485)" style="fill: #1f77b4"/>
   </g>
   <g id="patch_155">
    <path d="M 121.904525 6331.867476 
L 154.056787 6331.867476 
L 154.056787 291.26259 
L 121.904525 291.26259 
z
" clip-path="url(#p393d6cf485)" style="fill: #1f77b4"/>
   </g>
   <g id="patch_156">
    <path d="M 154.056787 6331.867476 
L 186.209049 6331.867476 
L 186.209049 292.8983 
L 154.056787 292.8983 
z
" clip-path="url(#p393d6cf485)" style="fill: #1f77b4"/>
   </g>
   <g id="patch_157">
    <path d="M 186.209049 6331.867476 
L 218.361312 6331.867476 
L 218.361312 295.930033 
L 186.209049 295.930033 
z
" clip-path="url(#p393d6cf485)" style="fill: #1f77b4"/>
   </g>
   <g id="patch_158">
    <path d="M 218.361312 6331.867476 
L 250.513574 6331.867476 
L 250.513574 296.468606 
L 218.361312 296.468606 
z
" clip-path="url(#p393d6cf485)" style="fill: #1f77b4"/>
   </g>
   <g id="patch_159">
    <path d="M 250.513574 6331.867476 
L 282.665836 6331.867476 
L 282.665836 296.622552 
L 250.513574 296.622552 
z
" clip-path="url(#p393d6cf485)" style="fill: #1f77b4"/>
   </g>
   <g id="patch_160">
    <path d="M 282.665836 6331.867476 
L 314.818099 6331.867476 
L 314.818099 298.685403 
L 282.665836 298.685403 
z
" clip-path="url(#p393d6cf485)" style="fill: #1f77b4"/>
   </g>
   <g id="patch_161">
    <path d="M 314.818099 6331.867476 
L 346.970361 6331.867476 
L 346.970361 298.599614 
L 314.818099 298.599614 
z
" clip-path="url(#p393d6cf485)" style="fill: #1f77b4"/>
   </g>
   <g id="patch_162">
    <path d="M 346.970361 6331.867476 
L 379.122624 6331.867476 
L 379.122624 301.559717 
L 346.970361 301.559717 
z
" clip-path="url(#p393d6cf485)" style="fill: #1f77b4"/>
   </g>
   <g id="matplotlib.axis_21">
    <g id="xtick_1">
     <g id="line2d_21">
      <defs>
       <path id="mb764a51be0" d="M 0 0 
L 0 3.5 
" style="stroke: #000000; stroke-width: 0.8"/>
      </defs>
      <g>
       <use xlink:href="#mb764a51be0" x="57.6" y="307.584" style="stroke: #000000; stroke-width: 0.8"/>
      </g>
     </g>
     <g id="text_21">
      <!-- 0 -->
      <g transform="translate(54.41875 322.182437) scale(0.1 -0.1)">
       <use xlink:href="#DejaVuSans-30"/>
      </g>
     </g>
    </g>
    <g id="xtick_2">
     <g id="line2d_22">
      <g>
       <use xlink:href="#mb764a51be0" x="128.794753" y="307.584" style="stroke: #000000; stroke-width: 0.8"/>
      </g>
     </g>
     <g id="text_22">
      <!-- 20000 -->
      <g transform="translate(112.888503 322.182437) scale(0.1 -0.1)">
       <use xlink:href="#DejaVuSans-32"/>
       <use xlink:href="#DejaVuSans-30" x="63.623047"/>
       <use xlink:href="#DejaVuSans-30" x="127.246094"/>
       <use xlink:href="#DejaVuSans-30" x="190.869141"/>
       <use xlink:href="#DejaVuSans-30" x="254.492188"/>
      </g>
     </g>
    </g>
    <g id="xtick_3">
     <g id="line2d_23">
      <g>
       <use xlink:href="#mb764a51be0" x="199.989506" y="307.584" style="stroke: #000000; stroke-width: 0.8"/>
      </g>
     </g>
     <g id="text_23">
      <!-- 40000 -->
      <g transform="translate(184.083256 322.182437) scale(0.1 -0.1)">
       <defs>
        <path id="DejaVuSans-34" d="M 2419 4116 
L 825 1625 
L 2419 1625 
L 2419 4116 
z
M 2253 4666 
L 3047 4666 
L 3047 1625 
L 3713 1625 
L 3713 1100 
L 3047 1100 
L 3047 0 
L 2419 0 
L 2419 1100 
L 313 1100 
L 313 1709 
L 2253 4666 
z
" transform="scale(0.015625)"/>
       </defs>
       <use xlink:href="#DejaVuSans-34"/>
       <use xlink:href="#DejaVuSans-30" x="63.623047"/>
       <use xlink:href="#DejaVuSans-30" x="127.246094"/>
       <use xlink:href="#DejaVuSans-30" x="190.869141"/>
       <use xlink:href="#DejaVuSans-30" x="254.492188"/>
      </g>
     </g>
    </g>
    <g id="xtick_4">
     <g id="line2d_24">
      <g>
       <use xlink:href="#mb764a51be0" x="271.184259" y="307.584" style="stroke: #000000; stroke-width: 0.8"/>
      </g>
     </g>
     <g id="text_24">
      <!-- 60000 -->
      <g transform="translate(255.278009 322.182437) scale(0.1 -0.1)">
       <defs>
        <path id="DejaVuSans-36" d="M 2113 2584 
Q 1688 2584 1439 2293 
Q 1191 2003 1191 1497 
Q 1191 994 1439 701 
Q 1688 409 2113 409 
Q 2538 409 2786 701 
Q 3034 994 3034 1497 
Q 3034 2003 2786 2293 
Q 2538 2584 2113 2584 
z
M 3366 4563 
L 3366 3988 
Q 3128 4100 2886 4159 
Q 2644 4219 2406 4219 
Q 1781 4219 1451 3797 
Q 1122 3375 1075 2522 
Q 1259 2794 1537 2939 
Q 1816 3084 2150 3084 
Q 2853 3084 3261 2657 
Q 3669 2231 3669 1497 
Q 3669 778 3244 343 
Q 2819 -91 2113 -91 
Q 1303 -91 875 529 
Q 447 1150 447 2328 
Q 447 3434 972 4092 
Q 1497 4750 2381 4750 
Q 2619 4750 2861 4703 
Q 3103 4656 3366 4563 
z
" transform="scale(0.015625)"/>
       </defs>
       <use xlink:href="#DejaVuSans-36"/>
       <use xlink:href="#DejaVuSans-30" x="63.623047"/>
       <use xlink:href="#DejaVuSans-30" x="127.246094"/>
       <use xlink:href="#DejaVuSans-30" x="190.869141"/>
       <use xlink:href="#DejaVuSans-30" x="254.492188"/>
      </g>
     </g>
    </g>
    <g id="xtick_5">
     <g id="line2d_25">
      <g>
       <use xlink:href="#mb764a51be0" x="342.379012" y="307.584" style="stroke: #000000; stroke-width: 0.8"/>
      </g>
     </g>
     <g id="text_25">
      <!-- 80000 -->
      <g transform="translate(326.472762 322.182437) scale(0.1 -0.1)">
       <defs>
        <path id="DejaVuSans-38" d="M 2034 2216 
Q 1584 2216 1326 1975 
Q 1069 1734 1069 1313 
Q 1069 891 1326 650 
Q 1584 409 2034 409 
Q 2484 409 2743 651 
Q 3003 894 3003 1313 
Q 3003 1734 2745 1975 
Q 2488 2216 2034 2216 
z
M 1403 2484 
Q 997 2584 770 2862 
Q 544 3141 544 3541 
Q 544 4100 942 4425 
Q 1341 4750 2034 4750 
Q 2731 4750 3128 4425 
Q 3525 4100 3525 3541 
Q 3525 3141 3298 2862 
Q 3072 2584 2669 2484 
Q 3125 2378 3379 2068 
Q 3634 1759 3634 1313 
Q 3634 634 3220 271 
Q 2806 -91 2034 -91 
Q 1263 -91 848 271 
Q 434 634 434 1313 
Q 434 1759 690 2068 
Q 947 2378 1403 2484 
z
M 1172 3481 
Q 1172 3119 1398 2916 
Q 1625 2713 2034 2713 
Q 2441 2713 2670 2916 
Q 2900 3119 2900 3481 
Q 2900 3844 2670 4047 
Q 2441 4250 2034 4250 
Q 1625 4250 1398 4047 
Q 1172 3844 1172 3481 
z
" transform="scale(0.015625)"/>
       </defs>
       <use xlink:href="#DejaVuSans-38"/>
       <use xlink:href="#DejaVuSans-30" x="63.623047"/>
       <use xlink:href="#DejaVuSans-30" x="127.246094"/>
       <use xlink:href="#DejaVuSans-30" x="190.869141"/>
       <use xlink:href="#DejaVuSans-30" x="254.492188"/>
      </g>
     </g>
    </g>
    <g id="xtick_6">
     <g id="line2d_26">
      <g>
       <use xlink:href="#mb764a51be0" x="413.573764" y="307.584" style="stroke: #000000; stroke-width: 0.8"/>
      </g>
     </g>
     <g id="text_26">
      <!-- 100000 -->
      <g transform="translate(394.486264 322.182437) scale(0.1 -0.1)">
       <use xlink:href="#DejaVuSans-31"/>
       <use xlink:href="#DejaVuSans-30" x="63.623047"/>
       <use xlink:href="#DejaVuSans-30" x="127.246094"/>
       <use xlink:href="#DejaVuSans-30" x="190.869141"/>
       <use xlink:href="#DejaVuSans-30" x="254.492188"/>
       <use xlink:href="#DejaVuSans-30" x="318.115234"/>
      </g>
     </g>
    </g>
    <g id="text_27">
     <!-- # of key-value pairs -->
     <g transform="translate(186.102969 335.860562) scale(0.1 -0.1)">
      <defs>
       <path id="DejaVuSans-23" d="M 3272 2816 
L 2363 2816 
L 2100 1772 
L 3016 1772 
L 3272 2816 
z
M 2803 4594 
L 2478 3297 
L 3391 3297 
L 3719 4594 
L 4219 4594 
L 3897 3297 
L 4872 3297 
L 4872 2816 
L 3775 2816 
L 3519 1772 
L 4513 1772 
L 4513 1294 
L 3397 1294 
L 3072 0 
L 2572 0 
L 2894 1294 
L 1978 1294 
L 1656 0 
L 1153 0 
L 1478 1294 
L 494 1294 
L 494 1772 
L 1594 1772 
L 1856 2816 
L 850 2816 
L 850 3297 
L 1978 3297 
L 2297 4594 
L 2803 4594 
z
" transform="scale(0.015625)"/>
       <path id="DejaVuSans-20" transform="scale(0.015625)"/>
       <path id="DejaVuSans-6f" d="M 1959 3097 
Q 1497 3097 1228 2736 
Q 959 2375 959 1747 
Q 959 1119 1226 758 
Q 1494 397 1959 397 
Q 2419 397 2687 759 
Q 2956 1122 2956 1747 
Q 2956 2369 2687 2733 
Q 2419 3097 1959 3097 
z
M 1959 3584 
Q 2709 3584 3137 3096 
Q 3566 2609 3566 1747 
Q 3566 888 3137 398 
Q 2709 -91 1959 -91 
Q 1206 -91 779 398 
Q 353 888 353 1747 
Q 353 2609 779 3096 
Q 1206 3584 1959 3584 
z
" transform="scale(0.015625)"/>
       <path id="DejaVuSans-66" d="M 2375 4863 
L 2375 4384 
L 1825 4384 
Q 1516 4384 1395 4259 
Q 1275 4134 1275 3809 
L 1275 3500 
L 2222 3500 
L 2222 3053 
L 1275 3053 
L 1275 0 
L 697 0 
L 697 3053 
L 147 3053 
L 147 3500 
L 697 3500 
L 697 3744 
Q 697 4328 969 4595 
Q 1241 4863 1831 4863 
L 2375 4863 
z
" transform="scale(0.015625)"/>
       <path id="DejaVuSans-6b" d="M 581 4863 
L 1159 4863 
L 1159 1991 
L 2875 3500 
L 3609 3500 
L 1753 1863 
L 3688 0 
L 2938 0 
L 1159 1709 
L 1159 0 
L 581 0 
L 581 4863 
z
" transform="scale(0.015625)"/>
       <path id="DejaVuSans-65" d="M 3597 1894 
L 3597 1613 
L 953 1613 
Q 991 1019 1311 708 
Q 1631 397 2203 397 
Q 2534 397 2845 478 
Q 3156 559 3463 722 
L 3463 178 
Q 3153 47 2828 -22 
Q 2503 -91 2169 -91 
Q 1331 -91 842 396 
Q 353 884 353 1716 
Q 353 2575 817 3079 
Q 1281 3584 2069 3584 
Q 2775 3584 3186 3129 
Q 3597 2675 3597 1894 
z
M 3022 2063 
Q 3016 2534 2758 2815 
Q 2500 3097 2075 3097 
Q 1594 3097 1305 2825 
Q 1016 2553 972 2059 
L 3022 2063 
z
" transform="scale(0.015625)"/>
       <path id="DejaVuSans-79" d="M 2059 -325 
Q 1816 -950 1584 -1140 
Q 1353 -1331 966 -1331 
L 506 -1331 
L 506 -850 
L 844 -850 
Q 1081 -850 1212 -737 
Q 1344 -625 1503 -206 
L 1606 56 
L 191 3500 
L 800 3500 
L 1894 763 
L 2988 3500 
L 3597 3500 
L 2059 -325 
z
" transform="scale(0.015625)"/>
       <path id="DejaVuSans-2d" d="M 313 2009 
L 1997 2009 
L 1997 1497 
L 313 1497 
L 313 2009 
z
" transform="scale(0.015625)"/>
       <path id="DejaVuSans-76" d="M 191 3500 
L 800 3500 
L 1894 563 
L 2988 3500 
L 3597 3500 
L 2284 0 
L 1503 0 
L 191 3500 
z
" transform="scale(0.015625)"/>
       <path id="DejaVuSans-61" d="M 2194 1759 
Q 1497 1759 1228 1600 
Q 959 1441 959 1056 
Q 959 750 1161 570 
Q 1363 391 1709 391 
Q 2188 391 2477 730 
Q 2766 1069 2766 1631 
L 2766 1759 
L 2194 1759 
z
M 3341 1997 
L 3341 0 
L 2766 0 
L 2766 531 
Q 2569 213 2275 61 
Q 1981 -91 1556 -91 
Q 1019 -91 701 211 
Q 384 513 384 1019 
Q 384 1609 779 1909 
Q 1175 2209 1959 2209 
L 2766 2209 
L 2766 2266 
Q 2766 2663 2505 2880 
Q 2244 3097 1772 3097 
Q 1472 3097 1187 3025 
Q 903 2953 641 2809 
L 641 3341 
Q 956 3463 1253 3523 
Q 1550 3584 1831 3584 
Q 2591 3584 2966 3190 
Q 3341 2797 3341 1997 
z
" transform="scale(0.015625)"/>
       <path id="DejaVuSans-6c" d="M 603 4863 
L 1178 4863 
L 1178 0 
L 603 0 
L 603 4863 
z
" transform="scale(0.015625)"/>
       <path id="DejaVuSans-75" d="M 544 1381 
L 544 3500 
L 1119 3500 
L 1119 1403 
Q 1119 906 1312 657 
Q 1506 409 1894 409 
Q 2359 409 2629 706 
Q 2900 1003 2900 1516 
L 2900 3500 
L 3475 3500 
L 3475 0 
L 2900 0 
L 2900 538 
Q 2691 219 2414 64 
Q 2138 -91 1772 -91 
Q 1169 -91 856 284 
Q 544 659 544 1381 
z
M 1991 3584 
L 1991 3584 
z
" transform="scale(0.015625)"/>
       <path id="DejaVuSans-70" d="M 1159 525 
L 1159 -1331 
L 581 -1331 
L 581 3500 
L 1159 3500 
L 1159 2969 
Q 1341 3281 1617 3432 
Q 1894 3584 2278 3584 
Q 2916 3584 3314 3078 
Q 3713 2572 3713 1747 
Q 3713 922 3314 415 
Q 2916 -91 2278 -91 
Q 1894 -91 1617 61 
Q 1341 213 1159 525 
z
M 3116 1747 
Q 3116 2381 2855 2742 
Q 2594 3103 2138 3103 
Q 1681 3103 1420 2742 
Q 1159 2381 1159 1747 
Q 1159 1113 1420 752 
Q 1681 391 2138 391 
Q 2594 391 2855 752 
Q 3116 1113 3116 1747 
z
" transform="scale(0.015625)"/>
       <path id="DejaVuSans-69" d="M 603 3500 
L 1178 3500 
L 1178 0 
L 603 0 
L 603 3500 
z
M 603 4863 
L 1178 4863 
L 1178 4134 
L 603 4134 
L 603 4863 
z
" transform="scale(0.015625)"/>
       <path id="DejaVuSans-72" d="M 2631 2963 
Q 2534 3019 2420 3045 
Q 2306 3072 2169 3072 
Q 1681 3072 1420 2755 
Q 1159 2438 1159 1844 
L 1159 0 
L 581 0 
L 581 3500 
L 1159 3500 
L 1159 2956 
Q 1341 3275 1631 3429 
Q 1922 3584 2338 3584 
Q 2397 3584 2469 3576 
Q 2541 3569 2628 3553 
L 2631 2963 
z
" transform="scale(0.015625)"/>
       <path id="DejaVuSans-73" d="M 2834 3397 
L 2834 2853 
Q 2591 2978 2328 3040 
Q 2066 3103 1784 3103 
Q 1356 3103 1142 2972 
Q 928 2841 928 2578 
Q 928 2378 1081 2264 
Q 1234 2150 1697 2047 
L 1894 2003 
Q 2506 1872 2764 1633 
Q 3022 1394 3022 966 
Q 3022 478 2636 193 
Q 2250 -91 1575 -91 
Q 1294 -91 989 -36 
Q 684 19 347 128 
L 347 722 
Q 666 556 975 473 
Q 1284 391 1588 391 
Q 1994 391 2212 530 
Q 2431 669 2431 922 
Q 2431 1156 2273 1281 
Q 2116 1406 1581 1522 
L 1381 1569 
Q 847 1681 609 1914 
Q 372 2147 372 2553 
Q 372 3047 722 3315 
Q 1072 3584 1716 3584 
Q 2034 3584 2315 3537 
Q 2597 3491 2834 3397 
z
" transform="scale(0.015625)"/>
      </defs>
      <use xlink:href="#DejaVuSans-23"/>
      <use xlink:href="#DejaVuSans-20" x="83.789062"/>
      <use xlink:href="#DejaVuSans-6f" x="115.576172"/>
      <use xlink:href="#DejaVuSans-66" x="176.757812"/>
      <use xlink:href="#DejaVuSans-20" x="211.962891"/>
      <use xlink:href="#DejaVuSans-6b" x="243.75"/>
      <use xlink:href="#DejaVuSans-65" x="298.035156"/>
      <use xlink:href="#DejaVuSans-79" x="359.558594"/>
      <use xlink:href="#DejaVuSans-2d" x="416.988281"/>
      <use xlink:href="#DejaVuSans-76" x="450.447266"/>
      <use xlink:href="#DejaVuSans-61" x="509.626953"/>
      <use xlink:href="#DejaVuSans-6c" x="570.90625"/>
      <use xlink:href="#DejaVuSans-75" x="598.689453"/>
      <use xlink:href="#DejaVuSans-65" x="662.068359"/>
      <use xlink:href="#DejaVuSans-20" x="723.591797"/>
      <use xlink:href="#DejaVuSans-70" x="755.378906"/>
      <use xlink:href="#DejaVuSans-61" x="818.855469"/>
      <use xlink:href="#DejaVuSans-69" x="880.134766"/>
      <use xlink:href="#DejaVuSans-72" x="907.917969"/>
      <use xlink:href="#DejaVuSans-73" x="949.03125"/>
     </g>
    </g>
   </g>
   <g id="matplotlib.axis_22">
    <g id="ytick_21">
     <g id="line2d_27">
      <g>
       <use xlink:href="#mc830690722" x="57.6" y="307.584" style="stroke: #000000; stroke-width: 0.8"/>
      </g>
     </g>
     <g id="text_28">
      <!-- $\mathdefault{10^{0}}$ -->
      <g transform="translate(33 311.383219) scale(0.1 -0.1)">
       <use xlink:href="#DejaVuSans-31" transform="translate(0 0.765625)"/>
       <use xlink:href="#DejaVuSans-30" transform="translate(63.623047 0.765625)"/>
       <use xlink:href="#DejaVuSans-30" transform="translate(128.203125 39.046875) scale(0.7)"/>
      </g>
     </g>
    </g>
    <g id="ytick_22">
     <g id="line2d_28">
      <g>
       <use xlink:href="#mc830690722" x="57.6" y="295.535433" style="stroke: #000000; stroke-width: 0.8"/>
      </g>
     </g>
     <g id="text_29">
      <!-- $\mathdefault{10^{2}}$ -->
      <g transform="translate(33 299.334652) scale(0.1 -0.1)">
       <use xlink:href="#DejaVuSans-31" transform="translate(0 0.765625)"/>
       <use xlink:href="#DejaVuSans-30" transform="translate(63.623047 0.765625)"/>
       <use xlink:href="#DejaVuSans-32" transform="translate(128.203125 39.046875) scale(0.7)"/>
      </g>
     </g>
    </g>
   </g>
   <g id="patch_163">
    <path d="M 57.6 307.584 
L 57.6 287.113846 
" style="fill: none; stroke: #000000; stroke-width: 0.8; stroke-linejoin: miter; stroke-linecap: square"/>
   </g>
   <g id="patch_164">
    <path d="M 414.72 307.584 
L 414.72 287.113846 
" style="fill: none; stroke: #000000; stroke-width: 0.8; stroke-linejoin: miter; stroke-linecap: square"/>
   </g>
   <g id="patch_165">
    <path d="M 57.6 307.584 
L 414.72 307.584 
" style="fill: none; stroke: #000000; stroke-width: 0.8; stroke-linejoin: miter; stroke-linecap: square"/>
   </g>
   <g id="patch_166">
    <path d="M 57.6 287.113846 
L 414.72 287.113846 
" style="fill: none; stroke: #000000; stroke-width: 0.8; stroke-linejoin: miter; stroke-linecap: square"/>
   </g>
  </g>
 </g>
 <defs>
  <clipPath id="p74087f79b3">
   <rect x="57.6" y="41.472" width="357.12" height="20.470154"/>
  </clipPath>
  <clipPath id="pb947a29a5c">
   <rect x="57.6" y="66.036185" width="357.12" height="20.470154"/>
  </clipPath>
  <clipPath id="p347794994e">
   <rect x="57.6" y="90.600369" width="357.12" height="20.470154"/>
  </clipPath>
  <clipPath id="p3935a86e61">
   <rect x="57.6" y="115.164554" width="357.12" height="20.470154"/>
  </clipPath>
  <clipPath id="p4a3ad854ed">
   <rect x="57.6" y="139.728738" width="357.12" height="20.470154"/>
  </clipPath>
  <clipPath id="p39a6c47f85">
   <rect x="57.6" y="164.292923" width="357.12" height="20.470154"/>
  </clipPath>
  <clipPath id="pf8a1beed45">
   <rect x="57.6" y="188.857108" width="357.12" height="20.470154"/>
  </clipPath>
  <clipPath id="p9723d00fc6">
   <rect x="57.6" y="213.421292" width="357.12" height="20.470154"/>
  </clipPath>
  <clipPath id="p20ec571570">
   <rect x="57.6" y="237.985477" width="357.12" height="20.470154"/>
  </clipPath>
  <clipPath id="p766b484617">
   <rect x="57.6" y="262.549662" width="357.12" height="20.470154"/>
  </clipPath>
  <clipPath id="p393d6cf485">
   <rect x="57.6" y="287.113846" width="357.12" height="20.470154"/>
  </clipPath>
 </defs>
</svg>
