<?xml version="1.0" encoding="utf-8" standalone="no"?>
<!DOCTYPE svg PUBLIC "-//W3C//DTD SVG 1.1//EN"
  "http://www.w3.org/Graphics/SVG/1.1/DTD/svg11.dtd">
<svg xmlns:xlink="http://www.w3.org/1999/xlink" width="460.8pt" height="345.6pt" viewBox="0 0 460.8 345.6" xmlns="http://www.w3.org/2000/svg" version="1.1">
 <metadata>
  <rdf:RDF xmlns:dc="http://purl.org/dc/elements/1.1/" xmlns:cc="http://creativecommons.org/ns#" xmlns:rdf="http://www.w3.org/1999/02/22-rdf-syntax-ns#">
   <cc:Work>
    <dc:type rdf:resource="http://purl.org/dc/dcmitype/StillImage"/>
    <dc:date>2024-01-31T07:19:32.973410</dc:date>
    <dc:format>image/svg+xml</dc:format>
    <dc:creator>
     <cc:Agent>
      <dc:title>Matplotlib v3.7.0, https://matplotlib.org/</dc:title>
     </cc:Agent>
    </dc:creator>
   </cc:Work>
  </rdf:RDF>
 </metadata>
 <defs>
  <style type="text/css">*{stroke-linejoin: round; stroke-linecap: butt}</style>
 </defs>
 <g id="figure_1">
  <g id="patch_1">
   <path d="M 0 345.6 
L 460.8 345.6 
L 460.8 0 
L 0 0 
L 0 345.6 
z
" style="fill: none"/>
  </g>
  <g id="axes_1">
   <g id="patch_2">
    <path d="M 87.552 293.76 
L 451.584 293.76 
L 451.584 6.912 
L 87.552 6.912 
L 87.552 293.76 
z
" style="fill: none"/>
   </g>
   <g id="patch_3">
    <path d="M 88.3104 243.739557 
L 94.3776 243.739557 
L 94.3776 134.99066 
L 88.3104 134.99066 
z
" clip-path="url(#p7b26f40de0)" style="fill: #800000"/>
   </g>
   <g id="patch_4">
    <path d="M 95.8944 242.625742 
L 101.9616 242.625742 
L 101.9616 128.814046 
L 95.8944 128.814046 
z
" clip-path="url(#p7b26f40de0)" style="fill: #800000"/>
   </g>
   <g id="patch_5">
    <path d="M 103.4784 237.967968 
L 109.5456 237.967968 
L 109.5456 125.371344 
L 103.4784 125.371344 
z
" clip-path="url(#p7b26f40de0)" style="fill: #800000"/>
   </g>
   <g id="patch_6">
    <path d="M 111.0624 244.954629 
L 117.1296 244.954629 
L 117.1296 135.49694 
L 111.0624 135.49694 
z
" clip-path="url(#p7b26f40de0)" style="fill: #800000"/>
   </g>
   <g id="patch_7">
    <path d="M 118.6464 237.6642 
L 124.7136 237.6642 
L 124.7136 125.168832 
L 118.6464 125.168832 
z
" clip-path="url(#p7b26f40de0)" style="fill: #800000"/>
   </g>
   <g id="patch_8">
    <path d="M 126.2304 239.588063 
L 132.2976 239.588063 
L 132.2976 129.826606 
L 126.2304 129.826606 
z
" clip-path="url(#p7b26f40de0)" style="fill: #800000"/>
   </g>
   <g id="patch_9">
    <path d="M 133.8144 240.398111 
L 139.8816 240.398111 
L 139.8816 128.510279 
L 133.8144 128.510279 
z
" clip-path="url(#p7b26f40de0)" style="fill: #800000"/>
   </g>
   <g id="patch_10">
    <path d="M 141.3984 242.524486 
L 147.4656 242.524486 
L 147.4656 128.915302 
L 141.3984 128.915302 
z
" clip-path="url(#p7b26f40de0)" style="fill: #800000"/>
   </g>
   <g id="patch_11">
    <path d="M 148.9824 241.91695 
L 155.0496 241.91695 
L 155.0496 129.826606 
L 148.9824 129.826606 
z
" clip-path="url(#p7b26f40de0)" style="fill: #800000"/>
   </g>
   <g id="patch_12">
    <path d="M 156.5664 239.790575 
L 162.6336 239.790575 
L 162.6336 126.383903 
L 156.5664 126.383903 
z
" clip-path="url(#p7b26f40de0)" style="fill: #800000"/>
   </g>
   <g id="patch_13">
    <path d="M 164.1504 238.67676 
L 170.2176 238.67676 
L 170.2176 117.169611 
L 164.1504 117.169611 
z
" clip-path="url(#p7b26f40de0)" style="fill: #800000"/>
   </g>
   <g id="patch_14">
    <path d="M 171.7344 239.588063 
L 177.8016 239.588063 
L 177.8016 127.902743 
L 171.7344 127.902743 
z
" clip-path="url(#p7b26f40de0)" style="fill: #800000"/>
   </g>
   <g id="patch_15">
    <path d="M 179.3184 235.031545 
L 185.3856 235.031545 
L 185.3856 123.751249 
L 179.3184 123.751249 
z
" clip-path="url(#p7b26f40de0)" style="fill: #800000"/>
   </g>
   <g id="patch_16">
    <path d="M 186.9024 223.184598 
L 192.9696 223.184598 
L 192.9696 108.765367 
L 186.9024 108.765367 
z
" clip-path="url(#p7b26f40de0)" style="fill: #800000"/>
   </g>
   <g id="patch_17">
    <path d="M 194.4864 240.094343 
L 200.5536 240.094343 
L 200.5536 126.485159 
L 194.4864 126.485159 
z
" clip-path="url(#p7b26f40de0)" style="fill: #800000"/>
   </g>
   <g id="patch_18">
    <path d="M 202.0704 229.563723 
L 208.1376 229.563723 
L 208.1376 114.435701 
L 202.0704 114.435701 
z
" clip-path="url(#p7b26f40de0)" style="fill: #800000"/>
   </g>
   <g id="patch_19">
    <path d="M 209.6544 231.183819 
L 215.7216 231.183819 
L 215.7216 118.182171 
L 209.6544 118.182171 
z
" clip-path="url(#p7b26f40de0)" style="fill: #800000"/>
   </g>
   <g id="patch_20">
    <path d="M 217.2384 232.39889 
L 223.3056 232.39889 
L 223.3056 122.738689 
L 217.2384 122.738689 
z
" clip-path="url(#p7b26f40de0)" style="fill: #800000"/>
   </g>
   <g id="patch_21">
    <path d="M 224.8224 228.65242 
L 230.8896 228.65242 
L 230.8896 114.435701 
L 224.8224 114.435701 
z
" clip-path="url(#p7b26f40de0)" style="fill: #800000"/>
   </g>
   <g id="patch_22">
    <path d="M 232.4064 234.626521 
L 238.4736 234.626521 
L 238.4736 123.447481 
L 232.4064 123.447481 
z
" clip-path="url(#p7b26f40de0)" style="fill: #800000"/>
   </g>
   <g id="patch_23">
    <path d="M 239.9904 238.474248 
L 246.0576 238.474248 
L 246.0576 125.877624 
L 239.9904 125.877624 
z
" clip-path="url(#p7b26f40de0)" style="fill: #800000"/>
   </g>
   <g id="patch_24">
    <path d="M 247.5744 214.071562 
L 253.6416 214.071562 
L 253.6416 100.259867 
L 247.5744 100.259867 
z
" clip-path="url(#p7b26f40de0)" style="fill: #800000"/>
   </g>
   <g id="patch_25">
    <path d="M 255.1584 235.436569 
L 261.2256 235.436569 
L 261.2256 124.662552 
L 255.1584 124.662552 
z
" clip-path="url(#p7b26f40de0)" style="fill: #800000"/>
   </g>
   <g id="patch_26">
    <path d="M 262.7424 240.296855 
L 268.8096 240.296855 
L 268.8096 96.91842 
L 262.7424 96.91842 
z
" clip-path="url(#p7b26f40de0)" style="fill: #800000"/>
   </g>
   <g id="patch_27">
    <path d="M 270.3264 132.864285 
L 276.3936 132.864285 
L 276.3936 20.571429 
L 270.3264 20.571429 
z
" clip-path="url(#p7b26f40de0)" style="fill: #800000"/>
   </g>
   <g id="patch_28">
    <path d="M 277.9104 238.069224 
L 283.9776 238.069224 
L 283.9776 123.447481 
L 277.9104 123.447481 
z
" clip-path="url(#p7b26f40de0)" style="fill: #800000"/>
   </g>
   <g id="patch_29">
    <path d="M 285.4944 234.829033 
L 291.5616 234.829033 
L 291.5616 120.916082 
L 285.4944 120.916082 
z
" clip-path="url(#p7b26f40de0)" style="fill: #800000"/>
   </g>
   <g id="patch_30">
    <path d="M 293.0784 235.639081 
L 299.1456 235.639081 
L 299.1456 121.422362 
L 293.0784 121.422362 
z
" clip-path="url(#p7b26f40de0)" style="fill: #800000"/>
   </g>
   <g id="patch_31">
    <path d="M 300.6624 238.372992 
L 306.7296 238.372992 
L 306.7296 123.548737 
L 300.6624 123.548737 
z
" clip-path="url(#p7b26f40de0)" style="fill: #800000"/>
   </g>
   <g id="patch_32">
    <path d="M 308.2464 242.42323 
L 314.3136 242.42323 
L 314.3136 127.396463 
L 308.2464 127.396463 
z
" clip-path="url(#p7b26f40de0)" style="fill: #800000"/>
   </g>
   <g id="patch_33">
    <path d="M 315.8304 240.499367 
L 321.8976 240.499367 
L 321.8976 124.96632 
L 315.8304 124.96632 
z
" clip-path="url(#p7b26f40de0)" style="fill: #800000"/>
   </g>
   <g id="patch_34">
    <path d="M 323.4144 242.625742 
L 329.4816 242.625742 
L 329.4816 129.522838 
L 323.4144 129.522838 
z
" clip-path="url(#p7b26f40de0)" style="fill: #800000"/>
   </g>
   <g id="patch_35">
    <path d="M 330.9984 242.726998 
L 337.0656 242.726998 
L 337.0656 131.851725 
L 330.9984 131.851725 
z
" clip-path="url(#p7b26f40de0)" style="fill: #800000"/>
   </g>
   <g id="patch_36">
    <path d="M 338.5824 240.803135 
L 344.6496 240.803135 
L 344.6496 127.396463 
L 338.5824 127.396463 
z
" clip-path="url(#p7b26f40de0)" style="fill: #800000"/>
   </g>
   <g id="patch_37">
    <path d="M 346.1664 237.765456 
L 352.2336 237.765456 
L 352.2336 125.97888 
L 346.1664 125.97888 
z
" clip-path="url(#p7b26f40de0)" style="fill: #800000"/>
   </g>
   <g id="patch_38">
    <path d="M 353.7504 236.246617 
L 359.8176 236.246617 
L 359.8176 124.96632 
L 353.7504 124.96632 
z
" clip-path="url(#p7b26f40de0)" style="fill: #800000"/>
   </g>
   <g id="patch_39">
    <path d="M 361.3344 237.967968 
L 367.4016 237.967968 
L 367.4016 125.4726 
L 361.3344 125.4726 
z
" clip-path="url(#p7b26f40de0)" style="fill: #800000"/>
   </g>
   <g id="patch_40">
    <path d="M 368.9184 236.65164 
L 374.9856 236.65164 
L 374.9856 125.270088 
L 368.9184 125.270088 
z
" clip-path="url(#p7b26f40de0)" style="fill: #800000"/>
   </g>
   <g id="patch_41">
    <path d="M 376.5024 242.321974 
L 382.5696 242.321974 
L 382.5696 131.041677 
L 376.5024 131.041677 
z
" clip-path="url(#p7b26f40de0)" style="fill: #800000"/>
   </g>
   <g id="patch_42">
    <path d="M 384.0864 241.815694 
L 390.1536 241.815694 
L 390.1536 129.016558 
L 384.0864 129.016558 
z
" clip-path="url(#p7b26f40de0)" style="fill: #800000"/>
   </g>
   <g id="patch_43">
    <path d="M 391.6704 238.879271 
L 397.7376 238.879271 
L 397.7376 125.067576 
L 391.6704 125.067576 
z
" clip-path="url(#p7b26f40de0)" style="fill: #800000"/>
   </g>
   <g id="patch_44">
    <path d="M 399.2544 235.942849 
L 405.3216 235.942849 
L 405.3216 121.422362 
L 399.2544 121.422362 
z
" clip-path="url(#p7b26f40de0)" style="fill: #800000"/>
   </g>
   <g id="patch_45">
    <path d="M 406.8384 233.107682 
L 412.9056 233.107682 
L 412.9056 118.890963 
L 406.8384 118.890963 
z
" clip-path="url(#p7b26f40de0)" style="fill: #800000"/>
   </g>
   <g id="patch_46">
    <path d="M 414.4224 237.765456 
L 420.4896 237.765456 
L 420.4896 123.751249 
L 414.4224 123.751249 
z
" clip-path="url(#p7b26f40de0)" style="fill: #800000"/>
   </g>
   <g id="patch_47">
    <path d="M 422.0064 238.980527 
L 428.0736 238.980527 
L 428.0736 126.485159 
L 422.0064 126.485159 
z
" clip-path="url(#p7b26f40de0)" style="fill: #800000"/>
   </g>
   <g id="patch_48">
    <path d="M 429.5904 238.372992 
L 435.6576 238.372992 
L 435.6576 125.877624 
L 429.5904 125.877624 
z
" clip-path="url(#p7b26f40de0)" style="fill: #800000"/>
   </g>
   <g id="patch_49">
    <path d="M 437.1744 240.499367 
L 443.2416 240.499367 
L 443.2416 129.016558 
L 437.1744 129.016558 
z
" clip-path="url(#p7b26f40de0)" style="fill: #800000"/>
   </g>
   <g id="patch_50">
    <path d="M 444.7584 235.031545 
L 450.8256 235.031545 
L 450.8256 121.118594 
L 444.7584 121.118594 
z
" clip-path="url(#p7b26f40de0)" style="fill: #800000"/>
   </g>
   <g id="patch_51">
    <path d="M 88.3104 246.372212 
L 94.3776 246.372212 
L 94.3776 243.739557 
L 88.3104 243.739557 
z
" clip-path="url(#p7b26f40de0)" style="fill: #a52a2a"/>
   </g>
   <g id="patch_52">
    <path d="M 95.8944 248.296075 
L 101.9616 248.296075 
L 101.9616 242.625742 
L 95.8944 242.625742 
z
" clip-path="url(#p7b26f40de0)" style="fill: #a52a2a"/>
   </g>
   <g id="patch_53">
    <path d="M 103.4784 243.739557 
L 109.5456 243.739557 
L 109.5456 237.967968 
L 103.4784 237.967968 
z
" clip-path="url(#p7b26f40de0)" style="fill: #a52a2a"/>
   </g>
   <g id="patch_54">
    <path d="M 111.0624 249.713659 
L 117.1296 249.713659 
L 117.1296 244.954629 
L 111.0624 244.954629 
z
" clip-path="url(#p7b26f40de0)" style="fill: #a52a2a"/>
   </g>
   <g id="patch_55">
    <path d="M 118.6464 242.92951 
L 124.7136 242.92951 
L 124.7136 237.6642 
L 118.6464 237.6642 
z
" clip-path="url(#p7b26f40de0)" style="fill: #a52a2a"/>
   </g>
   <g id="patch_56">
    <path d="M 126.2304 244.752117 
L 132.2976 244.752117 
L 132.2976 239.588063 
L 126.2304 239.588063 
z
" clip-path="url(#p7b26f40de0)" style="fill: #a52a2a"/>
   </g>
   <g id="patch_57">
    <path d="M 133.8144 246.67598 
L 139.8816 246.67598 
L 139.8816 240.398111 
L 133.8144 240.398111 
z
" clip-path="url(#p7b26f40de0)" style="fill: #a52a2a"/>
   </g>
   <g id="patch_58">
    <path d="M 141.3984 248.194819 
L 147.4656 248.194819 
L 147.4656 242.524486 
L 141.3984 242.524486 
z
" clip-path="url(#p7b26f40de0)" style="fill: #a52a2a"/>
   </g>
   <g id="patch_59">
    <path d="M 148.9824 247.587284 
L 155.0496 247.587284 
L 155.0496 241.91695 
L 148.9824 241.91695 
z
" clip-path="url(#p7b26f40de0)" style="fill: #a52a2a"/>
   </g>
   <g id="patch_60">
    <path d="M 156.5664 245.460909 
L 162.6336 245.460909 
L 162.6336 239.790575 
L 156.5664 239.790575 
z
" clip-path="url(#p7b26f40de0)" style="fill: #a52a2a"/>
   </g>
   <g id="patch_61">
    <path d="M 164.1504 243.739557 
L 170.2176 243.739557 
L 170.2176 238.67676 
L 164.1504 238.67676 
z
" clip-path="url(#p7b26f40de0)" style="fill: #a52a2a"/>
   </g>
   <g id="patch_62">
    <path d="M 171.7344 244.853373 
L 177.8016 244.853373 
L 177.8016 239.588063 
L 171.7344 239.588063 
z
" clip-path="url(#p7b26f40de0)" style="fill: #a52a2a"/>
   </g>
   <g id="patch_63">
    <path d="M 179.3184 240.701879 
L 185.3856 240.701879 
L 185.3856 235.031545 
L 179.3184 235.031545 
z
" clip-path="url(#p7b26f40de0)" style="fill: #a52a2a"/>
   </g>
   <g id="patch_64">
    <path d="M 186.9024 229.462467 
L 192.9696 229.462467 
L 192.9696 223.184598 
L 186.9024 223.184598 
z
" clip-path="url(#p7b26f40de0)" style="fill: #a52a2a"/>
   </g>
   <g id="patch_65">
    <path d="M 194.4864 245.764676 
L 200.5536 245.764676 
L 200.5536 240.094343 
L 194.4864 240.094343 
z
" clip-path="url(#p7b26f40de0)" style="fill: #a52a2a"/>
   </g>
   <g id="patch_66">
    <path d="M 202.0704 235.234057 
L 208.1376 235.234057 
L 208.1376 229.563723 
L 202.0704 229.563723 
z
" clip-path="url(#p7b26f40de0)" style="fill: #a52a2a"/>
   </g>
   <g id="patch_67">
    <path d="M 209.6544 236.854152 
L 215.7216 236.854152 
L 215.7216 231.183819 
L 209.6544 231.183819 
z
" clip-path="url(#p7b26f40de0)" style="fill: #a52a2a"/>
   </g>
   <g id="patch_68">
    <path d="M 217.2384 237.15792 
L 223.3056 237.15792 
L 223.3056 232.39889 
L 217.2384 232.39889 
z
" clip-path="url(#p7b26f40de0)" style="fill: #a52a2a"/>
   </g>
   <g id="patch_69">
    <path d="M 224.8224 234.322753 
L 230.8896 234.322753 
L 230.8896 228.65242 
L 224.8224 228.65242 
z
" clip-path="url(#p7b26f40de0)" style="fill: #a52a2a"/>
   </g>
   <g id="patch_70">
    <path d="M 232.4064 239.689319 
L 238.4736 239.689319 
L 238.4736 234.626521 
L 232.4064 234.626521 
z
" clip-path="url(#p7b26f40de0)" style="fill: #a52a2a"/>
   </g>
   <g id="patch_71">
    <path d="M 239.9904 243.638301 
L 246.0576 243.638301 
L 246.0576 238.474248 
L 239.9904 238.474248 
z
" clip-path="url(#p7b26f40de0)" style="fill: #a52a2a"/>
   </g>
   <g id="patch_72">
    <path d="M 247.5744 219.539384 
L 253.6416 219.539384 
L 253.6416 214.071562 
L 247.5744 214.071562 
z
" clip-path="url(#p7b26f40de0)" style="fill: #a52a2a"/>
   </g>
   <g id="patch_73">
    <path d="M 255.1584 241.106902 
L 261.2256 241.106902 
L 261.2256 235.436569 
L 255.1584 235.436569 
z
" clip-path="url(#p7b26f40de0)" style="fill: #a52a2a"/>
   </g>
   <g id="patch_74">
    <path d="M 262.7424 245.967188 
L 268.8096 245.967188 
L 268.8096 240.296855 
L 262.7424 240.296855 
z
" clip-path="url(#p7b26f40de0)" style="fill: #a52a2a"/>
   </g>
   <g id="patch_75">
    <path d="M 270.3264 138.534618 
L 276.3936 138.534618 
L 276.3936 132.864285 
L 270.3264 132.864285 
z
" clip-path="url(#p7b26f40de0)" style="fill: #a52a2a"/>
   </g>
   <g id="patch_76">
    <path d="M 277.9104 244.347093 
L 283.9776 244.347093 
L 283.9776 238.069224 
L 277.9104 238.069224 
z
" clip-path="url(#p7b26f40de0)" style="fill: #a52a2a"/>
   </g>
   <g id="patch_77">
    <path d="M 285.4944 240.499367 
L 291.5616 240.499367 
L 291.5616 234.829033 
L 285.4944 234.829033 
z
" clip-path="url(#p7b26f40de0)" style="fill: #a52a2a"/>
   </g>
   <g id="patch_78">
    <path d="M 293.0784 241.309414 
L 299.1456 241.309414 
L 299.1456 235.639081 
L 293.0784 235.639081 
z
" clip-path="url(#p7b26f40de0)" style="fill: #a52a2a"/>
   </g>
   <g id="patch_79">
    <path d="M 300.6624 244.043325 
L 306.7296 244.043325 
L 306.7296 238.372992 
L 300.6624 238.372992 
z
" clip-path="url(#p7b26f40de0)" style="fill: #a52a2a"/>
   </g>
   <g id="patch_80">
    <path d="M 308.2464 248.701099 
L 314.3136 248.701099 
L 314.3136 242.42323 
L 308.2464 242.42323 
z
" clip-path="url(#p7b26f40de0)" style="fill: #a52a2a"/>
   </g>
   <g id="patch_81">
    <path d="M 315.8304 246.1697 
L 321.8976 246.1697 
L 321.8976 240.499367 
L 315.8304 240.499367 
z
" clip-path="url(#p7b26f40de0)" style="fill: #a52a2a"/>
   </g>
   <g id="patch_82">
    <path d="M 323.4144 248.296075 
L 329.4816 248.296075 
L 329.4816 242.625742 
L 323.4144 242.625742 
z
" clip-path="url(#p7b26f40de0)" style="fill: #a52a2a"/>
   </g>
   <g id="patch_83">
    <path d="M 330.9984 248.397331 
L 337.0656 248.397331 
L 337.0656 242.726998 
L 330.9984 242.726998 
z
" clip-path="url(#p7b26f40de0)" style="fill: #a52a2a"/>
   </g>
   <g id="patch_84">
    <path d="M 338.5824 246.372212 
L 344.6496 246.372212 
L 344.6496 240.803135 
L 338.5824 240.803135 
z
" clip-path="url(#p7b26f40de0)" style="fill: #a52a2a"/>
   </g>
   <g id="patch_85">
    <path d="M 346.1664 242.92951 
L 352.2336 242.92951 
L 352.2336 237.765456 
L 346.1664 237.765456 
z
" clip-path="url(#p7b26f40de0)" style="fill: #a52a2a"/>
   </g>
   <g id="patch_86">
    <path d="M 353.7504 241.91695 
L 359.8176 241.91695 
L 359.8176 236.246617 
L 353.7504 236.246617 
z
" clip-path="url(#p7b26f40de0)" style="fill: #a52a2a"/>
   </g>
   <g id="patch_87">
    <path d="M 361.3344 243.233278 
L 367.4016 243.233278 
L 367.4016 237.967968 
L 361.3344 237.967968 
z
" clip-path="url(#p7b26f40de0)" style="fill: #a52a2a"/>
   </g>
   <g id="patch_88">
    <path d="M 368.9184 242.92951 
L 374.9856 242.92951 
L 374.9856 236.65164 
L 368.9184 236.65164 
z
" clip-path="url(#p7b26f40de0)" style="fill: #a52a2a"/>
   </g>
   <g id="patch_89">
    <path d="M 376.5024 247.992308 
L 382.5696 247.992308 
L 382.5696 242.321974 
L 376.5024 242.321974 
z
" clip-path="url(#p7b26f40de0)" style="fill: #a52a2a"/>
   </g>
   <g id="patch_90">
    <path d="M 384.0864 247.486028 
L 390.1536 247.486028 
L 390.1536 241.815694 
L 384.0864 241.815694 
z
" clip-path="url(#p7b26f40de0)" style="fill: #a52a2a"/>
   </g>
   <g id="patch_91">
    <path d="M 391.6704 244.549605 
L 397.7376 244.549605 
L 397.7376 238.879271 
L 391.6704 238.879271 
z
" clip-path="url(#p7b26f40de0)" style="fill: #a52a2a"/>
   </g>
   <g id="patch_92">
    <path d="M 399.2544 241.613182 
L 405.3216 241.613182 
L 405.3216 235.942849 
L 399.2544 235.942849 
z
" clip-path="url(#p7b26f40de0)" style="fill: #a52a2a"/>
   </g>
   <g id="patch_93">
    <path d="M 406.8384 238.271736 
L 412.9056 238.271736 
L 412.9056 233.107682 
L 406.8384 233.107682 
z
" clip-path="url(#p7b26f40de0)" style="fill: #a52a2a"/>
   </g>
   <g id="patch_94">
    <path d="M 414.4224 243.435789 
L 420.4896 243.435789 
L 420.4896 237.765456 
L 414.4224 237.765456 
z
" clip-path="url(#p7b26f40de0)" style="fill: #a52a2a"/>
   </g>
   <g id="patch_95">
    <path d="M 422.0064 244.650861 
L 428.0736 244.650861 
L 428.0736 238.980527 
L 422.0064 238.980527 
z
" clip-path="url(#p7b26f40de0)" style="fill: #a52a2a"/>
   </g>
   <g id="patch_96">
    <path d="M 429.5904 244.650861 
L 435.6576 244.650861 
L 435.6576 238.372992 
L 429.5904 238.372992 
z
" clip-path="url(#p7b26f40de0)" style="fill: #a52a2a"/>
   </g>
   <g id="patch_97">
    <path d="M 437.1744 246.1697 
L 443.2416 246.1697 
L 443.2416 240.499367 
L 437.1744 240.499367 
z
" clip-path="url(#p7b26f40de0)" style="fill: #a52a2a"/>
   </g>
   <g id="patch_98">
    <path d="M 444.7584 240.701879 
L 450.8256 240.701879 
L 450.8256 235.031545 
L 444.7584 235.031545 
z
" clip-path="url(#p7b26f40de0)" style="fill: #a52a2a"/>
   </g>
   <g id="patch_99">
    <path d="M 88.3104 270.673642 
L 94.3776 270.673642 
L 94.3776 220.349431 
L 88.3104 220.349431 
z
" clip-path="url(#p7b26f40de0)" style="fill: #f08080"/>
   </g>
   <g id="patch_100">
    <path d="M 95.8944 271.078666 
L 101.9616 271.078666 
L 101.9616 218.324312 
L 95.8944 218.324312 
z
" clip-path="url(#p7b26f40de0)" style="fill: #f08080"/>
   </g>
   <g id="patch_101">
    <path d="M 103.4784 267.838475 
L 109.5456 267.838475 
L 109.5456 214.37533 
L 103.4784 214.37533 
z
" clip-path="url(#p7b26f40de0)" style="fill: #f08080"/>
   </g>
   <g id="patch_102">
    <path d="M 111.0624 272.901273 
L 117.1296 272.901273 
L 117.1296 221.564503 
L 111.0624 221.564503 
z
" clip-path="url(#p7b26f40de0)" style="fill: #f08080"/>
   </g>
   <g id="patch_103">
    <path d="M 118.6464 265.7121 
L 124.7136 265.7121 
L 124.7136 212.755235 
L 118.6464 212.755235 
z
" clip-path="url(#p7b26f40de0)" style="fill: #f08080"/>
   </g>
   <g id="patch_104">
    <path d="M 126.2304 269.661082 
L 132.2976 269.661082 
L 132.2976 217.514265 
L 126.2304 217.514265 
z
" clip-path="url(#p7b26f40de0)" style="fill: #f08080"/>
   </g>
   <g id="patch_105">
    <path d="M 133.8144 270.774898 
L 139.8816 270.774898 
L 139.8816 217.413009 
L 133.8144 217.413009 
z
" clip-path="url(#p7b26f40de0)" style="fill: #f08080"/>
   </g>
   <g id="patch_106">
    <path d="M 141.3984 270.369874 
L 147.4656 270.369874 
L 147.4656 218.931848 
L 141.3984 218.931848 
z
" clip-path="url(#p7b26f40de0)" style="fill: #f08080"/>
   </g>
   <g id="patch_107">
    <path d="M 148.9824 271.787457 
L 155.0496 271.787457 
L 155.0496 215.691657 
L 148.9824 215.691657 
z
" clip-path="url(#p7b26f40de0)" style="fill: #f08080"/>
   </g>
   <g id="patch_108">
    <path d="M 156.5664 271.078666 
L 162.6336 271.078666 
L 162.6336 216.197937 
L 156.5664 216.197937 
z
" clip-path="url(#p7b26f40de0)" style="fill: #f08080"/>
   </g>
   <g id="patch_109">
    <path d="M 164.1504 270.066106 
L 170.2176 270.066106 
L 170.2176 213.160258 
L 164.1504 213.160258 
z
" clip-path="url(#p7b26f40de0)" style="fill: #f08080"/>
   </g>
   <g id="patch_110">
    <path d="M 171.7344 269.256058 
L 177.8016 269.256058 
L 177.8016 214.982866 
L 171.7344 214.982866 
z
" clip-path="url(#p7b26f40de0)" style="fill: #f08080"/>
   </g>
   <g id="patch_111">
    <path d="M 179.3184 267.838475 
L 185.3856 267.838475 
L 185.3856 208.401228 
L 179.3184 208.401228 
z
" clip-path="url(#p7b26f40de0)" style="fill: #f08080"/>
   </g>
   <g id="patch_112">
    <path d="M 186.9024 256.295296 
L 192.9696 256.295296 
L 192.9696 200.60452 
L 186.9024 200.60452 
z
" clip-path="url(#p7b26f40de0)" style="fill: #f08080"/>
   </g>
   <g id="patch_113">
    <path d="M 194.4864 268.851035 
L 200.5536 268.851035 
L 200.5536 216.096681 
L 194.4864 216.096681 
z
" clip-path="url(#p7b26f40de0)" style="fill: #f08080"/>
   </g>
   <g id="patch_114">
    <path d="M 202.0704 261.45935 
L 208.1376 261.45935 
L 208.1376 204.553502 
L 202.0704 204.553502 
z
" clip-path="url(#p7b26f40de0)" style="fill: #f08080"/>
   </g>
   <g id="patch_115">
    <path d="M 209.6544 260.44679 
L 215.7216 260.44679 
L 215.7216 212.147699 
L 209.6544 212.147699 
z
" clip-path="url(#p7b26f40de0)" style="fill: #f08080"/>
   </g>
   <g id="patch_116">
    <path d="M 217.2384 262.775677 
L 223.3056 262.775677 
L 223.3056 208.097461 
L 217.2384 208.097461 
z
" clip-path="url(#p7b26f40de0)" style="fill: #f08080"/>
   </g>
   <g id="patch_117">
    <path d="M 224.8224 258.016647 
L 230.8896 258.016647 
L 230.8896 204.35099 
L 224.8224 204.35099 
z
" clip-path="url(#p7b26f40de0)" style="fill: #f08080"/>
   </g>
   <g id="patch_118">
    <path d="M 232.4064 266.21838 
L 238.4736 266.21838 
L 238.4736 212.451467 
L 232.4064 212.451467 
z
" clip-path="url(#p7b26f40de0)" style="fill: #f08080"/>
   </g>
   <g id="patch_119">
    <path d="M 239.9904 270.369874 
L 246.0576 270.369874 
L 246.0576 211.945187 
L 239.9904 211.945187 
z
" clip-path="url(#p7b26f40de0)" style="fill: #f08080"/>
   </g>
   <g id="patch_120">
    <path d="M 247.5744 246.1697 
L 253.6416 246.1697 
L 253.6416 188.150037 
L 247.5744 188.150037 
z
" clip-path="url(#p7b26f40de0)" style="fill: #f08080"/>
   </g>
   <g id="patch_121">
    <path d="M 255.1584 269.256058 
L 261.2256 269.256058 
L 261.2256 208.907508 
L 255.1584 208.907508 
z
" clip-path="url(#p7b26f40de0)" style="fill: #f08080"/>
   </g>
   <g id="patch_122">
    <path d="M 262.7424 270.572386 
L 268.8096 270.572386 
L 268.8096 218.324312 
L 262.7424 218.324312 
z
" clip-path="url(#p7b26f40de0)" style="fill: #f08080"/>
   </g>
   <g id="patch_123">
    <path d="M 270.3264 166.78503 
L 276.3936 166.78503 
L 276.3936 110.587974 
L 270.3264 110.587974 
z
" clip-path="url(#p7b26f40de0)" style="fill: #f08080"/>
   </g>
   <g id="patch_124">
    <path d="M 277.9104 269.357314 
L 283.9776 269.357314 
L 283.9776 215.691657 
L 277.9104 215.691657 
z
" clip-path="url(#p7b26f40de0)" style="fill: #f08080"/>
   </g>
   <g id="patch_125">
    <path d="M 285.4944 267.230939 
L 291.5616 267.230939 
L 291.5616 211.337651 
L 285.4944 211.337651 
z
" clip-path="url(#p7b26f40de0)" style="fill: #f08080"/>
   </g>
   <g id="patch_126">
    <path d="M 293.0784 267.635963 
L 299.1456 267.635963 
L 299.1456 210.223836 
L 293.0784 210.223836 
z
" clip-path="url(#p7b26f40de0)" style="fill: #f08080"/>
   </g>
   <g id="patch_127">
    <path d="M 300.6624 269.762338 
L 306.7296 269.762338 
L 306.7296 212.147699 
L 300.6624 212.147699 
z
" clip-path="url(#p7b26f40de0)" style="fill: #f08080"/>
   </g>
   <g id="patch_128">
    <path d="M 308.2464 273.812577 
L 314.3136 273.812577 
L 314.3136 197.465585 
L 308.2464 197.465585 
z
" clip-path="url(#p7b26f40de0)" style="fill: #f08080"/>
   </g>
   <g id="patch_129">
    <path d="M 315.8304 269.863594 
L 321.8976 269.863594 
L 321.8976 215.590401 
L 315.8304 215.590401 
z
" clip-path="url(#p7b26f40de0)" style="fill: #f08080"/>
   </g>
   <g id="patch_130">
    <path d="M 323.4144 272.901273 
L 329.4816 272.901273 
L 329.4816 220.248175 
L 323.4144 220.248175 
z
" clip-path="url(#p7b26f40de0)" style="fill: #f08080"/>
   </g>
   <g id="patch_131">
    <path d="M 330.9984 272.091225 
L 337.0656 272.091225 
L 337.0656 218.425568 
L 330.9984 218.425568 
z
" clip-path="url(#p7b26f40de0)" style="fill: #f08080"/>
   </g>
   <g id="patch_132">
    <path d="M 338.5824 267.838475 
L 344.6496 267.838475 
L 344.6496 219.033104 
L 338.5824 219.033104 
z
" clip-path="url(#p7b26f40de0)" style="fill: #f08080"/>
   </g>
   <g id="patch_133">
    <path d="M 346.1664 266.522148 
L 352.2336 266.522148 
L 352.2336 216.197937 
L 346.1664 216.197937 
z
" clip-path="url(#p7b26f40de0)" style="fill: #f08080"/>
   </g>
   <g id="patch_134">
    <path d="M 353.7504 268.749779 
L 359.8176 268.749779 
L 359.8176 212.350211 
L 353.7504 212.350211 
z
" clip-path="url(#p7b26f40de0)" style="fill: #f08080"/>
   </g>
   <g id="patch_135">
    <path d="M 361.3344 269.96485 
L 367.4016 269.96485 
L 367.4016 211.945187 
L 361.3344 211.945187 
z
" clip-path="url(#p7b26f40de0)" style="fill: #f08080"/>
   </g>
   <g id="patch_136">
    <path d="M 368.9184 269.45857 
L 374.9856 269.45857 
L 374.9856 215.894169 
L 368.9184 215.894169 
z
" clip-path="url(#p7b26f40de0)" style="fill: #f08080"/>
   </g>
   <g id="patch_137">
    <path d="M 376.5024 271.281178 
L 382.5696 271.281178 
L 382.5696 216.501705 
L 376.5024 216.501705 
z
" clip-path="url(#p7b26f40de0)" style="fill: #f08080"/>
   </g>
   <g id="patch_138">
    <path d="M 384.0864 273.205041 
L 390.1536 273.205041 
L 390.1536 218.223056 
L 384.0864 218.223056 
z
" clip-path="url(#p7b26f40de0)" style="fill: #f08080"/>
   </g>
   <g id="patch_139">
    <path d="M 391.6704 268.243499 
L 397.7376 268.243499 
L 397.7376 213.261514 
L 391.6704 213.261514 
z
" clip-path="url(#p7b26f40de0)" style="fill: #f08080"/>
   </g>
   <g id="patch_140">
    <path d="M 399.2544 268.749779 
L 405.3216 268.749779 
L 405.3216 213.36277 
L 399.2544 213.36277 
z
" clip-path="url(#p7b26f40de0)" style="fill: #f08080"/>
   </g>
   <g id="patch_141">
    <path d="M 406.8384 269.762338 
L 412.9056 269.762338 
L 412.9056 206.781133 
L 406.8384 206.781133 
z
" clip-path="url(#p7b26f40de0)" style="fill: #f08080"/>
   </g>
   <g id="patch_142">
    <path d="M 414.4224 269.863594 
L 420.4896 269.863594 
L 420.4896 213.464026 
L 414.4224 213.464026 
z
" clip-path="url(#p7b26f40de0)" style="fill: #f08080"/>
   </g>
   <g id="patch_143">
    <path d="M 422.0064 272.394993 
L 428.0736 272.394993 
L 428.0736 209.6163 
L 422.0064 209.6163 
z
" clip-path="url(#p7b26f40de0)" style="fill: #f08080"/>
   </g>
   <g id="patch_144">
    <path d="M 429.5904 269.357314 
L 435.6576 269.357314 
L 435.6576 215.489145 
L 429.5904 215.489145 
z
" clip-path="url(#p7b26f40de0)" style="fill: #f08080"/>
   </g>
   <g id="patch_145">
    <path d="M 437.1744 271.989969 
L 443.2416 271.989969 
L 443.2416 218.324312 
L 437.1744 218.324312 
z
" clip-path="url(#p7b26f40de0)" style="fill: #f08080"/>
   </g>
   <g id="patch_146">
    <path d="M 444.7584 267.433451 
L 450.8256 267.433451 
L 450.8256 210.628859 
L 444.7584 210.628859 
z
" clip-path="url(#p7b26f40de0)" style="fill: #f08080"/>
   </g>
   <g id="patch_147">
    <path d="M 88.3104 293.76 
L 94.3776 293.76 
L 94.3776 270.673642 
L 88.3104 270.673642 
z
" clip-path="url(#p7b26f40de0)" style="fill: #ffe4e1"/>
   </g>
   <g id="patch_148">
    <path d="M 95.8944 293.76 
L 101.9616 293.76 
L 101.9616 271.078666 
L 95.8944 271.078666 
z
" clip-path="url(#p7b26f40de0)" style="fill: #ffe4e1"/>
   </g>
   <g id="patch_149">
    <path d="M 103.4784 293.76 
L 109.5456 293.76 
L 109.5456 267.838475 
L 103.4784 267.838475 
z
" clip-path="url(#p7b26f40de0)" style="fill: #ffe4e1"/>
   </g>
   <g id="patch_150">
    <path d="M 111.0624 293.76 
L 117.1296 293.76 
L 117.1296 272.901273 
L 111.0624 272.901273 
z
" clip-path="url(#p7b26f40de0)" style="fill: #ffe4e1"/>
   </g>
   <g id="patch_151">
    <path d="M 118.6464 293.76 
L 124.7136 293.76 
L 124.7136 265.7121 
L 118.6464 265.7121 
z
" clip-path="url(#p7b26f40de0)" style="fill: #ffe4e1"/>
   </g>
   <g id="patch_152">
    <path d="M 126.2304 293.76 
L 132.2976 293.76 
L 132.2976 269.661082 
L 126.2304 269.661082 
z
" clip-path="url(#p7b26f40de0)" style="fill: #ffe4e1"/>
   </g>
   <g id="patch_153">
    <path d="M 133.8144 293.76 
L 139.8816 293.76 
L 139.8816 270.774898 
L 133.8144 270.774898 
z
" clip-path="url(#p7b26f40de0)" style="fill: #ffe4e1"/>
   </g>
   <g id="patch_154">
    <path d="M 141.3984 293.76 
L 147.4656 293.76 
L 147.4656 270.369874 
L 141.3984 270.369874 
z
" clip-path="url(#p7b26f40de0)" style="fill: #ffe4e1"/>
   </g>
   <g id="patch_155">
    <path d="M 148.9824 293.76 
L 155.0496 293.76 
L 155.0496 271.787457 
L 148.9824 271.787457 
z
" clip-path="url(#p7b26f40de0)" style="fill: #ffe4e1"/>
   </g>
   <g id="patch_156">
    <path d="M 156.5664 293.76 
L 162.6336 293.76 
L 162.6336 271.078666 
L 156.5664 271.078666 
z
" clip-path="url(#p7b26f40de0)" style="fill: #ffe4e1"/>
   </g>
   <g id="patch_157">
    <path d="M 164.1504 293.76 
L 170.2176 293.76 
L 170.2176 270.066106 
L 164.1504 270.066106 
z
" clip-path="url(#p7b26f40de0)" style="fill: #ffe4e1"/>
   </g>
   <g id="patch_158">
    <path d="M 171.7344 293.76 
L 177.8016 293.76 
L 177.8016 269.256058 
L 171.7344 269.256058 
z
" clip-path="url(#p7b26f40de0)" style="fill: #ffe4e1"/>
   </g>
   <g id="patch_159">
    <path d="M 179.3184 293.76 
L 185.3856 293.76 
L 185.3856 267.838475 
L 179.3184 267.838475 
z
" clip-path="url(#p7b26f40de0)" style="fill: #ffe4e1"/>
   </g>
   <g id="patch_160">
    <path d="M 186.9024 293.76 
L 192.9696 293.76 
L 192.9696 256.295296 
L 186.9024 256.295296 
z
" clip-path="url(#p7b26f40de0)" style="fill: #ffe4e1"/>
   </g>
   <g id="patch_161">
    <path d="M 194.4864 293.76 
L 200.5536 293.76 
L 200.5536 268.851035 
L 194.4864 268.851035 
z
" clip-path="url(#p7b26f40de0)" style="fill: #ffe4e1"/>
   </g>
   <g id="patch_162">
    <path d="M 202.0704 293.76 
L 208.1376 293.76 
L 208.1376 261.45935 
L 202.0704 261.45935 
z
" clip-path="url(#p7b26f40de0)" style="fill: #ffe4e1"/>
   </g>
   <g id="patch_163">
    <path d="M 209.6544 293.76 
L 215.7216 293.76 
L 215.7216 260.44679 
L 209.6544 260.44679 
z
" clip-path="url(#p7b26f40de0)" style="fill: #ffe4e1"/>
   </g>
   <g id="patch_164">
    <path d="M 217.2384 293.76 
L 223.3056 293.76 
L 223.3056 262.775677 
L 217.2384 262.775677 
z
" clip-path="url(#p7b26f40de0)" style="fill: #ffe4e1"/>
   </g>
   <g id="patch_165">
    <path d="M 224.8224 293.76 
L 230.8896 293.76 
L 230.8896 258.016647 
L 224.8224 258.016647 
z
" clip-path="url(#p7b26f40de0)" style="fill: #ffe4e1"/>
   </g>
   <g id="patch_166">
    <path d="M 232.4064 293.76 
L 238.4736 293.76 
L 238.4736 266.21838 
L 232.4064 266.21838 
z
" clip-path="url(#p7b26f40de0)" style="fill: #ffe4e1"/>
   </g>
   <g id="patch_167">
    <path d="M 239.9904 293.76 
L 246.0576 293.76 
L 246.0576 270.369874 
L 239.9904 270.369874 
z
" clip-path="url(#p7b26f40de0)" style="fill: #ffe4e1"/>
   </g>
   <g id="patch_168">
    <path d="M 247.5744 293.76 
L 253.6416 293.76 
L 253.6416 246.1697 
L 247.5744 246.1697 
z
" clip-path="url(#p7b26f40de0)" style="fill: #ffe4e1"/>
   </g>
   <g id="patch_169">
    <path d="M 255.1584 293.76 
L 261.2256 293.76 
L 261.2256 269.256058 
L 255.1584 269.256058 
z
" clip-path="url(#p7b26f40de0)" style="fill: #ffe4e1"/>
   </g>
   <g id="patch_170">
    <path d="M 262.7424 293.76 
L 268.8096 293.76 
L 268.8096 270.572386 
L 262.7424 270.572386 
z
" clip-path="url(#p7b26f40de0)" style="fill: #ffe4e1"/>
   </g>
   <g id="patch_171">
    <path d="M 270.3264 293.76 
L 276.3936 293.76 
L 276.3936 166.78503 
L 270.3264 166.78503 
z
" clip-path="url(#p7b26f40de0)" style="fill: #ffe4e1"/>
   </g>
   <g id="patch_172">
    <path d="M 277.9104 293.76 
L 283.9776 293.76 
L 283.9776 269.357314 
L 277.9104 269.357314 
z
" clip-path="url(#p7b26f40de0)" style="fill: #ffe4e1"/>
   </g>
   <g id="patch_173">
    <path d="M 285.4944 293.76 
L 291.5616 293.76 
L 291.5616 267.230939 
L 285.4944 267.230939 
z
" clip-path="url(#p7b26f40de0)" style="fill: #ffe4e1"/>
   </g>
   <g id="patch_174">
    <path d="M 293.0784 293.76 
L 299.1456 293.76 
L 299.1456 267.635963 
L 293.0784 267.635963 
z
" clip-path="url(#p7b26f40de0)" style="fill: #ffe4e1"/>
   </g>
   <g id="patch_175">
    <path d="M 300.6624 293.76 
L 306.7296 293.76 
L 306.7296 269.762338 
L 300.6624 269.762338 
z
" clip-path="url(#p7b26f40de0)" style="fill: #ffe4e1"/>
   </g>
   <g id="patch_176">
    <path d="M 308.2464 293.76 
L 314.3136 293.76 
L 314.3136 273.812577 
L 308.2464 273.812577 
z
" clip-path="url(#p7b26f40de0)" style="fill: #ffe4e1"/>
   </g>
   <g id="patch_177">
    <path d="M 315.8304 293.76 
L 321.8976 293.76 
L 321.8976 269.863594 
L 315.8304 269.863594 
z
" clip-path="url(#p7b26f40de0)" style="fill: #ffe4e1"/>
   </g>
   <g id="patch_178">
    <path d="M 323.4144 293.76 
L 329.4816 293.76 
L 329.4816 272.901273 
L 323.4144 272.901273 
z
" clip-path="url(#p7b26f40de0)" style="fill: #ffe4e1"/>
   </g>
   <g id="patch_179">
    <path d="M 330.9984 293.76 
L 337.0656 293.76 
L 337.0656 272.091225 
L 330.9984 272.091225 
z
" clip-path="url(#p7b26f40de0)" style="fill: #ffe4e1"/>
   </g>
   <g id="patch_180">
    <path d="M 338.5824 293.76 
L 344.6496 293.76 
L 344.6496 267.838475 
L 338.5824 267.838475 
z
" clip-path="url(#p7b26f40de0)" style="fill: #ffe4e1"/>
   </g>
   <g id="patch_181">
    <path d="M 346.1664 293.76 
L 352.2336 293.76 
L 352.2336 266.522148 
L 346.1664 266.522148 
z
" clip-path="url(#p7b26f40de0)" style="fill: #ffe4e1"/>
   </g>
   <g id="patch_182">
    <path d="M 353.7504 293.76 
L 359.8176 293.76 
L 359.8176 268.749779 
L 353.7504 268.749779 
z
" clip-path="url(#p7b26f40de0)" style="fill: #ffe4e1"/>
   </g>
   <g id="patch_183">
    <path d="M 361.3344 293.76 
L 367.4016 293.76 
L 367.4016 269.96485 
L 361.3344 269.96485 
z
" clip-path="url(#p7b26f40de0)" style="fill: #ffe4e1"/>
   </g>
   <g id="patch_184">
    <path d="M 368.9184 293.76 
L 374.9856 293.76 
L 374.9856 269.45857 
L 368.9184 269.45857 
z
" clip-path="url(#p7b26f40de0)" style="fill: #ffe4e1"/>
   </g>
   <g id="patch_185">
    <path d="M 376.5024 293.76 
L 382.5696 293.76 
L 382.5696 271.281178 
L 376.5024 271.281178 
z
" clip-path="url(#p7b26f40de0)" style="fill: #ffe4e1"/>
   </g>
   <g id="patch_186">
    <path d="M 384.0864 293.76 
L 390.1536 293.76 
L 390.1536 273.205041 
L 384.0864 273.205041 
z
" clip-path="url(#p7b26f40de0)" style="fill: #ffe4e1"/>
   </g>
   <g id="patch_187">
    <path d="M 391.6704 293.76 
L 397.7376 293.76 
L 397.7376 268.243499 
L 391.6704 268.243499 
z
" clip-path="url(#p7b26f40de0)" style="fill: #ffe4e1"/>
   </g>
   <g id="patch_188">
    <path d="M 399.2544 293.76 
L 405.3216 293.76 
L 405.3216 268.749779 
L 399.2544 268.749779 
z
" clip-path="url(#p7b26f40de0)" style="fill: #ffe4e1"/>
   </g>
   <g id="patch_189">
    <path d="M 406.8384 293.76 
L 412.9056 293.76 
L 412.9056 269.762338 
L 406.8384 269.762338 
z
" clip-path="url(#p7b26f40de0)" style="fill: #ffe4e1"/>
   </g>
   <g id="patch_190">
    <path d="M 414.4224 293.76 
L 420.4896 293.76 
L 420.4896 269.863594 
L 414.4224 269.863594 
z
" clip-path="url(#p7b26f40de0)" style="fill: #ffe4e1"/>
   </g>
   <g id="patch_191">
    <path d="M 422.0064 293.76 
L 428.0736 293.76 
L 428.0736 272.394993 
L 422.0064 272.394993 
z
" clip-path="url(#p7b26f40de0)" style="fill: #ffe4e1"/>
   </g>
   <g id="patch_192">
    <path d="M 429.5904 293.76 
L 435.6576 293.76 
L 435.6576 269.357314 
L 429.5904 269.357314 
z
" clip-path="url(#p7b26f40de0)" style="fill: #ffe4e1"/>
   </g>
   <g id="patch_193">
    <path d="M 437.1744 293.76 
L 443.2416 293.76 
L 443.2416 271.989969 
L 437.1744 271.989969 
z
" clip-path="url(#p7b26f40de0)" style="fill: #ffe4e1"/>
   </g>
   <g id="patch_194">
    <path d="M 444.7584 293.76 
L 450.8256 293.76 
L 450.8256 267.433451 
L 444.7584 267.433451 
z
" clip-path="url(#p7b26f40de0)" style="fill: #ffe4e1"/>
   </g>
   <g id="matplotlib.axis_1">
    <g id="xtick_1">
     <g id="line2d_1">
      <path d="M 159.6 293.76 
L 159.6 6.912 
" clip-path="url(#p7b26f40de0)" style="fill: none; stroke: #b0b0b0; stroke-width: 0.8; stroke-linecap: square"/>
     </g>
     <g id="line2d_2">
      <defs>
       <path id="mc6b3c72cbf" d="M 0 0 
L 0 3.5 
" style="stroke: #000000; stroke-width: 0.8"/>
      </defs>
      <g>
       <use xlink:href="#mc6b3c72cbf" x="159.6" y="293.76" style="stroke: #000000; stroke-width: 0.8"/>
      </g>
     </g>
     <g id="text_1">
      <!-- 10 -->
      <g transform="translate(146.875 315.956875) scale(0.2 -0.2)">
       <defs>
        <path id="DejaVuSans-31" d="M 794 531 
L 1825 531 
L 1825 4091 
L 703 3866 
L 703 4441 
L 1819 4666 
L 2450 4666 
L 2450 531 
L 3481 531 
L 3481 0 
L 794 0 
L 794 531 
z
" transform="scale(0.015625)"/>
        <path id="DejaVuSans-30" d="M 2034 4250 
Q 1547 4250 1301 3770 
Q 1056 3291 1056 2328 
Q 1056 1369 1301 889 
Q 1547 409 2034 409 
Q 2525 409 2770 889 
Q 3016 1369 3016 2328 
Q 3016 3291 2770 3770 
Q 2525 4250 2034 4250 
z
M 2034 4750 
Q 2819 4750 3233 4129 
Q 3647 3509 3647 2328 
Q 3647 1150 3233 529 
Q 2819 -91 2034 -91 
Q 1250 -91 836 529 
Q 422 1150 422 2328 
Q 422 3509 836 4129 
Q 1250 4750 2034 4750 
z
" transform="scale(0.015625)"/>
       </defs>
       <use xlink:href="#DejaVuSans-31"/>
       <use xlink:href="#DejaVuSans-30" x="63.623047"/>
      </g>
     </g>
    </g>
    <g id="xtick_2">
     <g id="line2d_3">
      <path d="M 235.44 293.76 
L 235.44 6.912 
" clip-path="url(#p7b26f40de0)" style="fill: none; stroke: #b0b0b0; stroke-width: 0.8; stroke-linecap: square"/>
     </g>
     <g id="line2d_4">
      <g>
       <use xlink:href="#mc6b3c72cbf" x="235.44" y="293.76" style="stroke: #000000; stroke-width: 0.8"/>
      </g>
     </g>
     <g id="text_2">
      <!-- 20 -->
      <g transform="translate(222.715 315.956875) scale(0.2 -0.2)">
       <defs>
        <path id="DejaVuSans-32" d="M 1228 531 
L 3431 531 
L 3431 0 
L 469 0 
L 469 531 
Q 828 903 1448 1529 
Q 2069 2156 2228 2338 
Q 2531 2678 2651 2914 
Q 2772 3150 2772 3378 
Q 2772 3750 2511 3984 
Q 2250 4219 1831 4219 
Q 1534 4219 1204 4116 
Q 875 4013 500 3803 
L 500 4441 
Q 881 4594 1212 4672 
Q 1544 4750 1819 4750 
Q 2544 4750 2975 4387 
Q 3406 4025 3406 3419 
Q 3406 3131 3298 2873 
Q 3191 2616 2906 2266 
Q 2828 2175 2409 1742 
Q 1991 1309 1228 531 
z
" transform="scale(0.015625)"/>
       </defs>
       <use xlink:href="#DejaVuSans-32"/>
       <use xlink:href="#DejaVuSans-30" x="63.623047"/>
      </g>
     </g>
    </g>
    <g id="xtick_3">
     <g id="line2d_5">
      <path d="M 311.28 293.76 
L 311.28 6.912 
" clip-path="url(#p7b26f40de0)" style="fill: none; stroke: #b0b0b0; stroke-width: 0.8; stroke-linecap: square"/>
     </g>
     <g id="line2d_6">
      <g>
       <use xlink:href="#mc6b3c72cbf" x="311.28" y="293.76" style="stroke: #000000; stroke-width: 0.8"/>
      </g>
     </g>
     <g id="text_3">
      <!-- 30 -->
      <g transform="translate(298.555 315.956875) scale(0.2 -0.2)">
       <defs>
        <path id="DejaVuSans-33" d="M 2597 2516 
Q 3050 2419 3304 2112 
Q 3559 1806 3559 1356 
Q 3559 666 3084 287 
Q 2609 -91 1734 -91 
Q 1441 -91 1130 -33 
Q 819 25 488 141 
L 488 750 
Q 750 597 1062 519 
Q 1375 441 1716 441 
Q 2309 441 2620 675 
Q 2931 909 2931 1356 
Q 2931 1769 2642 2001 
Q 2353 2234 1838 2234 
L 1294 2234 
L 1294 2753 
L 1863 2753 
Q 2328 2753 2575 2939 
Q 2822 3125 2822 3475 
Q 2822 3834 2567 4026 
Q 2313 4219 1838 4219 
Q 1578 4219 1281 4162 
Q 984 4106 628 3988 
L 628 4550 
Q 988 4650 1302 4700 
Q 1616 4750 1894 4750 
Q 2613 4750 3031 4423 
Q 3450 4097 3450 3541 
Q 3450 3153 3228 2886 
Q 3006 2619 2597 2516 
z
" transform="scale(0.015625)"/>
       </defs>
       <use xlink:href="#DejaVuSans-33"/>
       <use xlink:href="#DejaVuSans-30" x="63.623047"/>
      </g>
     </g>
    </g>
    <g id="xtick_4">
     <g id="line2d_7">
      <path d="M 387.12 293.76 
L 387.12 6.912 
" clip-path="url(#p7b26f40de0)" style="fill: none; stroke: #b0b0b0; stroke-width: 0.8; stroke-linecap: square"/>
     </g>
     <g id="line2d_8">
      <g>
       <use xlink:href="#mc6b3c72cbf" x="387.12" y="293.76" style="stroke: #000000; stroke-width: 0.8"/>
      </g>
     </g>
     <g id="text_4">
      <!-- 40 -->
      <g transform="translate(374.395 315.956875) scale(0.2 -0.2)">
       <defs>
        <path id="DejaVuSans-34" d="M 2419 4116 
L 825 1625 
L 2419 1625 
L 2419 4116 
z
M 2253 4666 
L 3047 4666 
L 3047 1625 
L 3713 1625 
L 3713 1100 
L 3047 1100 
L 3047 0 
L 2419 0 
L 2419 1100 
L 313 1100 
L 313 1709 
L 2253 4666 
z
" transform="scale(0.015625)"/>
       </defs>
       <use xlink:href="#DejaVuSans-34"/>
       <use xlink:href="#DejaVuSans-30" x="63.623047"/>
      </g>
     </g>
    </g>
    <g id="text_5">
     <!-- batch iteration -->
     <g transform="translate(203.277375 337.793437) scale(0.18 -0.18)">
      <defs>
       <path id="DejaVuSans-62" d="M 3116 1747 
Q 3116 2381 2855 2742 
Q 2594 3103 2138 3103 
Q 1681 3103 1420 2742 
Q 1159 2381 1159 1747 
Q 1159 1113 1420 752 
Q 1681 391 2138 391 
Q 2594 391 2855 752 
Q 3116 1113 3116 1747 
z
M 1159 2969 
Q 1341 3281 1617 3432 
Q 1894 3584 2278 3584 
Q 2916 3584 3314 3078 
Q 3713 2572 3713 1747 
Q 3713 922 3314 415 
Q 2916 -91 2278 -91 
Q 1894 -91 1617 61 
Q 1341 213 1159 525 
L 1159 0 
L 581 0 
L 581 4863 
L 1159 4863 
L 1159 2969 
z
" transform="scale(0.015625)"/>
       <path id="DejaVuSans-61" d="M 2194 1759 
Q 1497 1759 1228 1600 
Q 959 1441 959 1056 
Q 959 750 1161 570 
Q 1363 391 1709 391 
Q 2188 391 2477 730 
Q 2766 1069 2766 1631 
L 2766 1759 
L 2194 1759 
z
M 3341 1997 
L 3341 0 
L 2766 0 
L 2766 531 
Q 2569 213 2275 61 
Q 1981 -91 1556 -91 
Q 1019 -91 701 211 
Q 384 513 384 1019 
Q 384 1609 779 1909 
Q 1175 2209 1959 2209 
L 2766 2209 
L 2766 2266 
Q 2766 2663 2505 2880 
Q 2244 3097 1772 3097 
Q 1472 3097 1187 3025 
Q 903 2953 641 2809 
L 641 3341 
Q 956 3463 1253 3523 
Q 1550 3584 1831 3584 
Q 2591 3584 2966 3190 
Q 3341 2797 3341 1997 
z
" transform="scale(0.015625)"/>
       <path id="DejaVuSans-74" d="M 1172 4494 
L 1172 3500 
L 2356 3500 
L 2356 3053 
L 1172 3053 
L 1172 1153 
Q 1172 725 1289 603 
Q 1406 481 1766 481 
L 2356 481 
L 2356 0 
L 1766 0 
Q 1100 0 847 248 
Q 594 497 594 1153 
L 594 3053 
L 172 3053 
L 172 3500 
L 594 3500 
L 594 4494 
L 1172 4494 
z
" transform="scale(0.015625)"/>
       <path id="DejaVuSans-63" d="M 3122 3366 
L 3122 2828 
Q 2878 2963 2633 3030 
Q 2388 3097 2138 3097 
Q 1578 3097 1268 2742 
Q 959 2388 959 1747 
Q 959 1106 1268 751 
Q 1578 397 2138 397 
Q 2388 397 2633 464 
Q 2878 531 3122 666 
L 3122 134 
Q 2881 22 2623 -34 
Q 2366 -91 2075 -91 
Q 1284 -91 818 406 
Q 353 903 353 1747 
Q 353 2603 823 3093 
Q 1294 3584 2113 3584 
Q 2378 3584 2631 3529 
Q 2884 3475 3122 3366 
z
" transform="scale(0.015625)"/>
       <path id="DejaVuSans-68" d="M 3513 2113 
L 3513 0 
L 2938 0 
L 2938 2094 
Q 2938 2591 2744 2837 
Q 2550 3084 2163 3084 
Q 1697 3084 1428 2787 
Q 1159 2491 1159 1978 
L 1159 0 
L 581 0 
L 581 4863 
L 1159 4863 
L 1159 2956 
Q 1366 3272 1645 3428 
Q 1925 3584 2291 3584 
Q 2894 3584 3203 3211 
Q 3513 2838 3513 2113 
z
" transform="scale(0.015625)"/>
       <path id="DejaVuSans-20" transform="scale(0.015625)"/>
       <path id="DejaVuSans-69" d="M 603 3500 
L 1178 3500 
L 1178 0 
L 603 0 
L 603 3500 
z
M 603 4863 
L 1178 4863 
L 1178 4134 
L 603 4134 
L 603 4863 
z
" transform="scale(0.015625)"/>
       <path id="DejaVuSans-65" d="M 3597 1894 
L 3597 1613 
L 953 1613 
Q 991 1019 1311 708 
Q 1631 397 2203 397 
Q 2534 397 2845 478 
Q 3156 559 3463 722 
L 3463 178 
Q 3153 47 2828 -22 
Q 2503 -91 2169 -91 
Q 1331 -91 842 396 
Q 353 884 353 1716 
Q 353 2575 817 3079 
Q 1281 3584 2069 3584 
Q 2775 3584 3186 3129 
Q 3597 2675 3597 1894 
z
M 3022 2063 
Q 3016 2534 2758 2815 
Q 2500 3097 2075 3097 
Q 1594 3097 1305 2825 
Q 1016 2553 972 2059 
L 3022 2063 
z
" transform="scale(0.015625)"/>
       <path id="DejaVuSans-72" d="M 2631 2963 
Q 2534 3019 2420 3045 
Q 2306 3072 2169 3072 
Q 1681 3072 1420 2755 
Q 1159 2438 1159 1844 
L 1159 0 
L 581 0 
L 581 3500 
L 1159 3500 
L 1159 2956 
Q 1341 3275 1631 3429 
Q 1922 3584 2338 3584 
Q 2397 3584 2469 3576 
Q 2541 3569 2628 3553 
L 2631 2963 
z
" transform="scale(0.015625)"/>
       <path id="DejaVuSans-6f" d="M 1959 3097 
Q 1497 3097 1228 2736 
Q 959 2375 959 1747 
Q 959 1119 1226 758 
Q 1494 397 1959 397 
Q 2419 397 2687 759 
Q 2956 1122 2956 1747 
Q 2956 2369 2687 2733 
Q 2419 3097 1959 3097 
z
M 1959 3584 
Q 2709 3584 3137 3096 
Q 3566 2609 3566 1747 
Q 3566 888 3137 398 
Q 2709 -91 1959 -91 
Q 1206 -91 779 398 
Q 353 888 353 1747 
Q 353 2609 779 3096 
Q 1206 3584 1959 3584 
z
" transform="scale(0.015625)"/>
       <path id="DejaVuSans-6e" d="M 3513 2113 
L 3513 0 
L 2938 0 
L 2938 2094 
Q 2938 2591 2744 2837 
Q 2550 3084 2163 3084 
Q 1697 3084 1428 2787 
Q 1159 2491 1159 1978 
L 1159 0 
L 581 0 
L 581 3500 
L 1159 3500 
L 1159 2956 
Q 1366 3272 1645 3428 
Q 1925 3584 2291 3584 
Q 2894 3584 3203 3211 
Q 3513 2838 3513 2113 
z
" transform="scale(0.015625)"/>
      </defs>
      <use xlink:href="#DejaVuSans-62"/>
      <use xlink:href="#DejaVuSans-61" x="63.476562"/>
      <use xlink:href="#DejaVuSans-74" x="124.755859"/>
      <use xlink:href="#DejaVuSans-63" x="163.964844"/>
      <use xlink:href="#DejaVuSans-68" x="218.945312"/>
      <use xlink:href="#DejaVuSans-20" x="282.324219"/>
      <use xlink:href="#DejaVuSans-69" x="314.111328"/>
      <use xlink:href="#DejaVuSans-74" x="341.894531"/>
      <use xlink:href="#DejaVuSans-65" x="381.103516"/>
      <use xlink:href="#DejaVuSans-72" x="442.626953"/>
      <use xlink:href="#DejaVuSans-61" x="483.740234"/>
      <use xlink:href="#DejaVuSans-74" x="545.019531"/>
      <use xlink:href="#DejaVuSans-69" x="584.228516"/>
      <use xlink:href="#DejaVuSans-6f" x="612.011719"/>
      <use xlink:href="#DejaVuSans-6e" x="673.193359"/>
     </g>
    </g>
   </g>
   <g id="matplotlib.axis_2">
    <g id="ytick_1">
     <g id="line2d_9">
      <path d="M 87.552 293.76 
L 451.584 293.76 
" clip-path="url(#p7b26f40de0)" style="fill: none; stroke: #b0b0b0; stroke-width: 0.8; stroke-linecap: square"/>
     </g>
     <g id="line2d_10">
      <defs>
       <path id="m0fcc746c20" d="M 0 0 
L -3.5 0 
" style="stroke: #000000; stroke-width: 0.8"/>
      </defs>
      <g>
       <use xlink:href="#m0fcc746c20" x="87.552" y="293.76" style="stroke: #000000; stroke-width: 0.8"/>
      </g>
     </g>
     <g id="text_6">
      <!-- 0.000 -->
      <g transform="translate(23.29575 301.358437) scale(0.2 -0.2)">
       <defs>
        <path id="DejaVuSans-2e" d="M 684 794 
L 1344 794 
L 1344 0 
L 684 0 
L 684 794 
z
" transform="scale(0.015625)"/>
       </defs>
       <use xlink:href="#DejaVuSans-30"/>
       <use xlink:href="#DejaVuSans-2e" x="63.623047"/>
       <use xlink:href="#DejaVuSans-30" x="95.410156"/>
       <use xlink:href="#DejaVuSans-30" x="159.033203"/>
       <use xlink:href="#DejaVuSans-30" x="222.65625"/>
      </g>
     </g>
    </g>
    <g id="ytick_2">
     <g id="line2d_11">
      <path d="M 87.552 243.132022 
L 451.584 243.132022 
" clip-path="url(#p7b26f40de0)" style="fill: none; stroke: #b0b0b0; stroke-width: 0.8; stroke-linecap: square"/>
     </g>
     <g id="line2d_12">
      <g>
       <use xlink:href="#m0fcc746c20" x="87.552" y="243.132022" style="stroke: #000000; stroke-width: 0.8"/>
      </g>
     </g>
     <g id="text_7">
      <!-- 0.005 -->
      <g transform="translate(23.29575 250.730459) scale(0.2 -0.2)">
       <defs>
        <path id="DejaVuSans-35" d="M 691 4666 
L 3169 4666 
L 3169 4134 
L 1269 4134 
L 1269 2991 
Q 1406 3038 1543 3061 
Q 1681 3084 1819 3084 
Q 2600 3084 3056 2656 
Q 3513 2228 3513 1497 
Q 3513 744 3044 326 
Q 2575 -91 1722 -91 
Q 1428 -91 1123 -41 
Q 819 9 494 109 
L 494 744 
Q 775 591 1075 516 
Q 1375 441 1709 441 
Q 2250 441 2565 725 
Q 2881 1009 2881 1497 
Q 2881 1984 2565 2268 
Q 2250 2553 1709 2553 
Q 1456 2553 1204 2497 
Q 953 2441 691 2322 
L 691 4666 
z
" transform="scale(0.015625)"/>
       </defs>
       <use xlink:href="#DejaVuSans-30"/>
       <use xlink:href="#DejaVuSans-2e" x="63.623047"/>
       <use xlink:href="#DejaVuSans-30" x="95.410156"/>
       <use xlink:href="#DejaVuSans-30" x="159.033203"/>
       <use xlink:href="#DejaVuSans-35" x="222.65625"/>
      </g>
     </g>
    </g>
    <g id="ytick_3">
     <g id="line2d_13">
      <path d="M 87.552 192.504043 
L 451.584 192.504043 
" clip-path="url(#p7b26f40de0)" style="fill: none; stroke: #b0b0b0; stroke-width: 0.8; stroke-linecap: square"/>
     </g>
     <g id="line2d_14">
      <g>
       <use xlink:href="#m0fcc746c20" x="87.552" y="192.504043" style="stroke: #000000; stroke-width: 0.8"/>
      </g>
     </g>
     <g id="text_8">
      <!-- 0.010 -->
      <g transform="translate(23.29575 200.102481) scale(0.2 -0.2)">
       <use xlink:href="#DejaVuSans-30"/>
       <use xlink:href="#DejaVuSans-2e" x="63.623047"/>
       <use xlink:href="#DejaVuSans-30" x="95.410156"/>
       <use xlink:href="#DejaVuSans-31" x="159.033203"/>
       <use xlink:href="#DejaVuSans-30" x="222.65625"/>
      </g>
     </g>
    </g>
    <g id="ytick_4">
     <g id="line2d_15">
      <path d="M 87.552 141.876065 
L 451.584 141.876065 
" clip-path="url(#p7b26f40de0)" style="fill: none; stroke: #b0b0b0; stroke-width: 0.8; stroke-linecap: square"/>
     </g>
     <g id="line2d_16">
      <g>
       <use xlink:href="#m0fcc746c20" x="87.552" y="141.876065" style="stroke: #000000; stroke-width: 0.8"/>
      </g>
     </g>
     <g id="text_9">
      <!-- 0.015 -->
      <g transform="translate(23.29575 149.474502) scale(0.2 -0.2)">
       <use xlink:href="#DejaVuSans-30"/>
       <use xlink:href="#DejaVuSans-2e" x="63.623047"/>
       <use xlink:href="#DejaVuSans-30" x="95.410156"/>
       <use xlink:href="#DejaVuSans-31" x="159.033203"/>
       <use xlink:href="#DejaVuSans-35" x="222.65625"/>
      </g>
     </g>
    </g>
    <g id="ytick_5">
     <g id="line2d_17">
      <path d="M 87.552 91.248086 
L 451.584 91.248086 
" clip-path="url(#p7b26f40de0)" style="fill: none; stroke: #b0b0b0; stroke-width: 0.8; stroke-linecap: square"/>
     </g>
     <g id="line2d_18">
      <g>
       <use xlink:href="#m0fcc746c20" x="87.552" y="91.248086" style="stroke: #000000; stroke-width: 0.8"/>
      </g>
     </g>
     <g id="text_10">
      <!-- 0.020 -->
      <g transform="translate(23.29575 98.846524) scale(0.2 -0.2)">
       <use xlink:href="#DejaVuSans-30"/>
       <use xlink:href="#DejaVuSans-2e" x="63.623047"/>
       <use xlink:href="#DejaVuSans-30" x="95.410156"/>
       <use xlink:href="#DejaVuSans-32" x="159.033203"/>
       <use xlink:href="#DejaVuSans-30" x="222.65625"/>
      </g>
     </g>
    </g>
    <g id="ytick_6">
     <g id="line2d_19">
      <path d="M 87.552 40.620108 
L 451.584 40.620108 
" clip-path="url(#p7b26f40de0)" style="fill: none; stroke: #b0b0b0; stroke-width: 0.8; stroke-linecap: square"/>
     </g>
     <g id="line2d_20">
      <g>
       <use xlink:href="#m0fcc746c20" x="87.552" y="40.620108" style="stroke: #000000; stroke-width: 0.8"/>
      </g>
     </g>
     <g id="text_11">
      <!-- 0.025 -->
      <g transform="translate(23.29575 48.218546) scale(0.2 -0.2)">
       <use xlink:href="#DejaVuSans-30"/>
       <use xlink:href="#DejaVuSans-2e" x="63.623047"/>
       <use xlink:href="#DejaVuSans-30" x="95.410156"/>
       <use xlink:href="#DejaVuSans-32" x="159.033203"/>
       <use xlink:href="#DejaVuSans-35" x="222.65625"/>
      </g>
     </g>
    </g>
    <g id="text_12">
     <!-- time[s] -->
     <g transform="translate(15.552313 182.380219) rotate(-90) scale(0.18 -0.18)">
      <defs>
       <path id="DejaVuSans-6d" d="M 3328 2828 
Q 3544 3216 3844 3400 
Q 4144 3584 4550 3584 
Q 5097 3584 5394 3201 
Q 5691 2819 5691 2113 
L 5691 0 
L 5113 0 
L 5113 2094 
Q 5113 2597 4934 2840 
Q 4756 3084 4391 3084 
Q 3944 3084 3684 2787 
Q 3425 2491 3425 1978 
L 3425 0 
L 2847 0 
L 2847 2094 
Q 2847 2600 2669 2842 
Q 2491 3084 2119 3084 
Q 1678 3084 1418 2786 
Q 1159 2488 1159 1978 
L 1159 0 
L 581 0 
L 581 3500 
L 1159 3500 
L 1159 2956 
Q 1356 3278 1631 3431 
Q 1906 3584 2284 3584 
Q 2666 3584 2933 3390 
Q 3200 3197 3328 2828 
z
" transform="scale(0.015625)"/>
       <path id="DejaVuSans-5b" d="M 550 4863 
L 1875 4863 
L 1875 4416 
L 1125 4416 
L 1125 -397 
L 1875 -397 
L 1875 -844 
L 550 -844 
L 550 4863 
z
" transform="scale(0.015625)"/>
       <path id="DejaVuSans-73" d="M 2834 3397 
L 2834 2853 
Q 2591 2978 2328 3040 
Q 2066 3103 1784 3103 
Q 1356 3103 1142 2972 
Q 928 2841 928 2578 
Q 928 2378 1081 2264 
Q 1234 2150 1697 2047 
L 1894 2003 
Q 2506 1872 2764 1633 
Q 3022 1394 3022 966 
Q 3022 478 2636 193 
Q 2250 -91 1575 -91 
Q 1294 -91 989 -36 
Q 684 19 347 128 
L 347 722 
Q 666 556 975 473 
Q 1284 391 1588 391 
Q 1994 391 2212 530 
Q 2431 669 2431 922 
Q 2431 1156 2273 1281 
Q 2116 1406 1581 1522 
L 1381 1569 
Q 847 1681 609 1914 
Q 372 2147 372 2553 
Q 372 3047 722 3315 
Q 1072 3584 1716 3584 
Q 2034 3584 2315 3537 
Q 2597 3491 2834 3397 
z
" transform="scale(0.015625)"/>
       <path id="DejaVuSans-5d" d="M 1947 4863 
L 1947 -844 
L 622 -844 
L 622 -397 
L 1369 -397 
L 1369 4416 
L 622 4416 
L 622 4863 
L 1947 4863 
z
" transform="scale(0.015625)"/>
      </defs>
      <use xlink:href="#DejaVuSans-74"/>
      <use xlink:href="#DejaVuSans-69" x="39.208984"/>
      <use xlink:href="#DejaVuSans-6d" x="66.992188"/>
      <use xlink:href="#DejaVuSans-65" x="164.404297"/>
      <use xlink:href="#DejaVuSans-5b" x="225.927734"/>
      <use xlink:href="#DejaVuSans-73" x="264.941406"/>
      <use xlink:href="#DejaVuSans-5d" x="317.041016"/>
     </g>
    </g>
   </g>
   <g id="patch_195">
    <path d="M 87.552 293.76 
L 87.552 6.912 
" style="fill: none; stroke: #000000; stroke-width: 0.8; stroke-linejoin: miter; stroke-linecap: square"/>
   </g>
   <g id="patch_196">
    <path d="M 451.584 293.76 
L 451.584 6.912 
" style="fill: none; stroke: #000000; stroke-width: 0.8; stroke-linejoin: miter; stroke-linecap: square"/>
   </g>
   <g id="patch_197">
    <path d="M 87.552 293.76 
L 451.584 293.76 
" style="fill: none; stroke: #000000; stroke-width: 0.8; stroke-linejoin: miter; stroke-linecap: square"/>
   </g>
   <g id="patch_198">
    <path d="M 87.552 6.912 
L 451.584 6.912 
" style="fill: none; stroke: #000000; stroke-width: 0.8; stroke-linejoin: miter; stroke-linecap: square"/>
   </g>
  </g>
 </g>
 <defs>
  <clipPath id="p7b26f40de0">
   <rect x="87.552" y="6.912" width="364.032" height="286.848"/>
  </clipPath>
 </defs>
</svg>
