<?xml version="1.0" encoding="utf-8" standalone="no"?>
<!DOCTYPE svg PUBLIC "-//W3C//DTD SVG 1.1//EN"
  "http://www.w3.org/Graphics/SVG/1.1/DTD/svg11.dtd">
<svg xmlns:xlink="http://www.w3.org/1999/xlink" width="460.8pt" height="345.6pt" viewBox="0 0 460.8 345.6" xmlns="http://www.w3.org/2000/svg" version="1.1">
 <metadata>
  <rdf:RDF xmlns:dc="http://purl.org/dc/elements/1.1/" xmlns:cc="http://creativecommons.org/ns#" xmlns:rdf="http://www.w3.org/1999/02/22-rdf-syntax-ns#">
   <cc:Work>
    <dc:type rdf:resource="http://purl.org/dc/dcmitype/StillImage"/>
    <dc:date>2024-01-24T05:45:12.617831</dc:date>
    <dc:format>image/svg+xml</dc:format>
    <dc:creator>
     <cc:Agent>
      <dc:title>Matplotlib v3.7.0, https://matplotlib.org/</dc:title>
     </cc:Agent>
    </dc:creator>
   </cc:Work>
  </rdf:RDF>
 </metadata>
 <defs>
  <style type="text/css">*{stroke-linejoin: round; stroke-linecap: butt}</style>
 </defs>
 <g id="figure_1">
  <g id="patch_1">
   <path d="M 0 345.6 
L 460.8 345.6 
L 460.8 0 
L 0 0 
L 0 345.6 
z
" style="fill: none"/>
  </g>
  <g id="axes_1">
   <g id="patch_2">
    <path d="M 87.552 293.76 
L 451.584 293.76 
L 451.584 6.912 
L 87.552 6.912 
L 87.552 293.76 
z
" style="fill: none"/>
   </g>
   <g id="patch_3">
    <path d="M 88.3104 229.950487 
L 94.3776 229.950487 
L 94.3776 72.326578 
L 88.3104 72.326578 
z
" clip-path="url(#p7c66e45de3)" style="fill: #800000"/>
   </g>
   <g id="patch_4">
    <path d="M 95.8944 222.744074 
L 101.9616 222.744074 
L 101.9616 68.395807 
L 95.8944 68.395807 
z
" clip-path="url(#p7c66e45de3)" style="fill: #800000"/>
   </g>
   <g id="patch_5">
    <path d="M 103.4784 236.23972 
L 109.5456 236.23972 
L 109.5456 81.498376 
L 103.4784 81.498376 
z
" clip-path="url(#p7c66e45de3)" style="fill: #800000"/>
   </g>
   <g id="patch_6">
    <path d="M 111.0624 229.295359 
L 117.1296 229.295359 
L 117.1296 74.029912 
L 111.0624 74.029912 
z
" clip-path="url(#p7c66e45de3)" style="fill: #800000"/>
   </g>
   <g id="patch_7">
    <path d="M 118.6464 234.798438 
L 124.7136 234.798438 
L 124.7136 79.270939 
L 118.6464 79.270939 
z
" clip-path="url(#p7c66e45de3)" style="fill: #800000"/>
   </g>
   <g id="patch_8">
    <path d="M 126.2304 230.736641 
L 132.2976 230.736641 
L 132.2976 79.795042 
L 126.2304 79.795042 
z
" clip-path="url(#p7c66e45de3)" style="fill: #800000"/>
   </g>
   <g id="patch_9">
    <path d="M 133.8144 224.709459 
L 139.8816 224.709459 
L 139.8816 74.160937 
L 133.8144 74.160937 
z
" clip-path="url(#p7c66e45de3)" style="fill: #800000"/>
   </g>
   <g id="patch_10">
    <path d="M 141.3984 220.647663 
L 147.4656 220.647663 
L 147.4656 66.954524 
L 141.3984 66.954524 
z
" clip-path="url(#p7c66e45de3)" style="fill: #800000"/>
   </g>
   <g id="patch_11">
    <path d="M 148.9824 205.972785 
L 155.0496 205.972785 
L 155.0496 51.886569 
L 148.9824 51.886569 
z
" clip-path="url(#p7c66e45de3)" style="fill: #800000"/>
   </g>
   <g id="patch_12">
    <path d="M 156.5664 219.599457 
L 162.6336 219.599457 
L 162.6336 22.405788 
L 156.5664 22.405788 
z
" clip-path="url(#p7c66e45de3)" style="fill: #800000"/>
   </g>
   <g id="patch_13">
    <path d="M 164.1504 211.60689 
L 170.2176 211.60689 
L 170.2176 56.73452 
L 164.1504 56.73452 
z
" clip-path="url(#p7c66e45de3)" style="fill: #800000"/>
   </g>
   <g id="patch_14">
    <path d="M 171.7344 239.515363 
L 177.8016 239.515363 
L 177.8016 84.249916 
L 171.7344 84.249916 
z
" clip-path="url(#p7c66e45de3)" style="fill: #800000"/>
   </g>
   <g id="patch_15">
    <path d="M 179.3184 231.653821 
L 185.3856 231.653821 
L 185.3856 78.484785 
L 179.3184 78.484785 
z
" clip-path="url(#p7c66e45de3)" style="fill: #800000"/>
   </g>
   <g id="patch_16">
    <path d="M 186.9024 229.819461 
L 192.9696 229.819461 
L 192.9696 79.795042 
L 186.9024 79.795042 
z
" clip-path="url(#p7c66e45de3)" style="fill: #800000"/>
   </g>
   <g id="patch_17">
    <path d="M 194.4864 220.909714 
L 200.5536 220.909714 
L 200.5536 58.437854 
L 194.4864 58.437854 
z
" clip-path="url(#p7c66e45de3)" style="fill: #800000"/>
   </g>
   <g id="patch_18">
    <path d="M 202.0704 224.054331 
L 208.1376 224.054331 
L 208.1376 65.120164 
L 202.0704 65.120164 
z
" clip-path="url(#p7c66e45de3)" style="fill: #800000"/>
   </g>
   <g id="patch_19">
    <path d="M 209.6544 232.702027 
L 215.7216 232.702027 
L 215.7216 79.664016 
L 209.6544 79.664016 
z
" clip-path="url(#p7c66e45de3)" style="fill: #800000"/>
   </g>
   <g id="patch_20">
    <path d="M 217.2384 231.915873 
L 223.3056 231.915873 
L 223.3056 80.712222 
L 217.2384 80.712222 
z
" clip-path="url(#p7c66e45de3)" style="fill: #800000"/>
   </g>
   <g id="patch_21">
    <path d="M 224.8224 222.219971 
L 230.8896 222.219971 
L 230.8896 62.499651 
L 224.8224 62.499651 
z
" clip-path="url(#p7c66e45de3)" style="fill: #800000"/>
   </g>
   <g id="patch_22">
    <path d="M 232.4064 231.129718 
L 238.4736 231.129718 
L 238.4736 73.76786 
L 232.4064 73.76786 
z
" clip-path="url(#p7c66e45de3)" style="fill: #800000"/>
   </g>
   <g id="patch_23">
    <path d="M 239.9904 221.433817 
L 246.0576 221.433817 
L 246.0576 47.431696 
L 239.9904 47.431696 
z
" clip-path="url(#p7c66e45de3)" style="fill: #800000"/>
   </g>
   <g id="patch_24">
    <path d="M 247.5744 236.763823 
L 253.6416 236.763823 
L 253.6416 79.139914 
L 247.5744 79.139914 
z
" clip-path="url(#p7c66e45de3)" style="fill: #800000"/>
   </g>
   <g id="patch_25">
    <path d="M 255.1584 221.433817 
L 261.2256 221.433817 
L 261.2256 25.550405 
L 255.1584 25.550405 
z
" clip-path="url(#p7c66e45de3)" style="fill: #800000"/>
   </g>
   <g id="patch_26">
    <path d="M 262.7424 227.067922 
L 268.8096 227.067922 
L 268.8096 75.209143 
L 262.7424 75.209143 
z
" clip-path="url(#p7c66e45de3)" style="fill: #800000"/>
   </g>
   <g id="patch_27">
    <path d="M 270.3264 233.619207 
L 276.3936 233.619207 
L 276.3936 76.257348 
L 270.3264 76.257348 
z
" clip-path="url(#p7c66e45de3)" style="fill: #800000"/>
   </g>
   <g id="patch_28">
    <path d="M 277.9104 223.923305 
L 283.9776 223.923305 
L 283.9776 56.73452 
L 277.9104 56.73452 
z
" clip-path="url(#p7c66e45de3)" style="fill: #800000"/>
   </g>
   <g id="patch_29">
    <path d="M 285.4944 222.350997 
L 291.5616 222.350997 
L 291.5616 42.190668 
L 285.4944 42.190668 
z
" clip-path="url(#p7c66e45de3)" style="fill: #800000"/>
   </g>
   <g id="patch_30">
    <path d="M 293.0784 231.129718 
L 299.1456 231.129718 
L 299.1456 79.139914 
L 293.0784 79.139914 
z
" clip-path="url(#p7c66e45de3)" style="fill: #800000"/>
   </g>
   <g id="patch_31">
    <path d="M 300.6624 231.129718 
L 306.7296 231.129718 
L 306.7296 76.781451 
L 300.6624 76.781451 
z
" clip-path="url(#p7c66e45de3)" style="fill: #800000"/>
   </g>
   <g id="patch_32">
    <path d="M 308.2464 230.736641 
L 314.3136 230.736641 
L 314.3136 78.35376 
L 308.2464 78.35376 
z
" clip-path="url(#p7c66e45de3)" style="fill: #800000"/>
   </g>
   <g id="patch_33">
    <path d="M 315.8304 218.158175 
L 321.8976 218.158175 
L 321.8976 65.382216 
L 315.8304 65.382216 
z
" clip-path="url(#p7c66e45de3)" style="fill: #800000"/>
   </g>
   <g id="patch_34">
    <path d="M 323.4144 221.171766 
L 329.4816 221.171766 
L 329.4816 67.478627 
L 323.4144 67.478627 
z
" clip-path="url(#p7c66e45de3)" style="fill: #800000"/>
   </g>
   <g id="patch_35">
    <path d="M 330.9984 224.447408 
L 337.0656 224.447408 
L 337.0656 59.879137 
L 330.9984 59.879137 
z
" clip-path="url(#p7c66e45de3)" style="fill: #800000"/>
   </g>
   <g id="patch_36">
    <path d="M 338.5824 233.619207 
L 344.6496 233.619207 
L 344.6496 82.546582 
L 338.5824 82.546582 
z
" clip-path="url(#p7c66e45de3)" style="fill: #800000"/>
   </g>
   <g id="patch_37">
    <path d="M 346.1664 231.39177 
L 352.2336 231.39177 
L 352.2336 82.415556 
L 346.1664 82.415556 
z
" clip-path="url(#p7c66e45de3)" style="fill: #800000"/>
   </g>
   <g id="patch_38">
    <path d="M 353.7504 235.977669 
L 359.8176 235.977669 
L 359.8176 86.084275 
L 353.7504 86.084275 
z
" clip-path="url(#p7c66e45de3)" style="fill: #800000"/>
   </g>
   <g id="patch_39">
    <path d="M 361.3344 229.819461 
L 367.4016 229.819461 
L 367.4016 79.270939 
L 361.3344 79.270939 
z
" clip-path="url(#p7c66e45de3)" style="fill: #800000"/>
   </g>
   <g id="patch_40">
    <path d="M 368.9184 216.323815 
L 374.9856 216.323815 
L 374.9856 63.41683 
L 368.9184 63.41683 
z
" clip-path="url(#p7c66e45de3)" style="fill: #800000"/>
   </g>
   <g id="patch_41">
    <path d="M 376.5024 230.47459 
L 382.5696 230.47459 
L 382.5696 77.043503 
L 376.5024 77.043503 
z
" clip-path="url(#p7c66e45de3)" style="fill: #800000"/>
   </g>
   <g id="patch_42">
    <path d="M 384.0864 222.8751 
L 390.1536 222.8751 
L 390.1536 68.264781 
L 384.0864 68.264781 
z
" clip-path="url(#p7c66e45de3)" style="fill: #800000"/>
   </g>
   <g id="patch_43">
    <path d="M 391.6704 229.295359 
L 397.7376 229.295359 
L 397.7376 75.471194 
L 391.6704 75.471194 
z
" clip-path="url(#p7c66e45de3)" style="fill: #800000"/>
   </g>
   <g id="patch_44">
    <path d="M 399.2544 221.433817 
L 405.3216 221.433817 
L 405.3216 67.216576 
L 399.2544 67.216576 
z
" clip-path="url(#p7c66e45de3)" style="fill: #800000"/>
   </g>
   <g id="patch_45">
    <path d="M 406.8384 221.564843 
L 412.9056 221.564843 
L 412.9056 20.571429 
L 406.8384 20.571429 
z
" clip-path="url(#p7c66e45de3)" style="fill: #800000"/>
   </g>
   <g id="patch_46">
    <path d="M 414.4224 232.439975 
L 420.4896 232.439975 
L 420.4896 77.960682 
L 414.4224 77.960682 
z
" clip-path="url(#p7c66e45de3)" style="fill: #800000"/>
   </g>
   <g id="patch_47">
    <path d="M 422.0064 232.177924 
L 428.0736 232.177924 
L 428.0736 76.257348 
L 422.0064 76.257348 
z
" clip-path="url(#p7c66e45de3)" style="fill: #800000"/>
   </g>
   <g id="patch_48">
    <path d="M 429.5904 235.846643 
L 435.6576 235.846643 
L 435.6576 73.76786 
L 429.5904 73.76786 
z
" clip-path="url(#p7c66e45de3)" style="fill: #800000"/>
   </g>
   <g id="patch_49">
    <path d="M 437.1744 232.439975 
L 443.2416 232.439975 
L 443.2416 75.340169 
L 437.1744 75.340169 
z
" clip-path="url(#p7c66e45de3)" style="fill: #800000"/>
   </g>
   <g id="patch_50">
    <path d="M 444.7584 233.881258 
L 450.8256 233.881258 
L 450.8256 77.698631 
L 444.7584 77.698631 
z
" clip-path="url(#p7c66e45de3)" style="fill: #800000"/>
   </g>
   <g id="patch_51">
    <path d="M 88.3104 236.501772 
L 94.3776 236.501772 
L 94.3776 229.950487 
L 88.3104 229.950487 
z
" clip-path="url(#p7c66e45de3)" style="fill: #a52a2a"/>
   </g>
   <g id="patch_52">
    <path d="M 95.8944 229.688436 
L 101.9616 229.688436 
L 101.9616 222.744074 
L 95.8944 222.744074 
z
" clip-path="url(#p7c66e45de3)" style="fill: #a52a2a"/>
   </g>
   <g id="patch_53">
    <path d="M 103.4784 243.184082 
L 109.5456 243.184082 
L 109.5456 236.23972 
L 103.4784 236.23972 
z
" clip-path="url(#p7c66e45de3)" style="fill: #a52a2a"/>
   </g>
   <g id="patch_54">
    <path d="M 111.0624 236.23972 
L 117.1296 236.23972 
L 117.1296 229.295359 
L 111.0624 229.295359 
z
" clip-path="url(#p7c66e45de3)" style="fill: #a52a2a"/>
   </g>
   <g id="patch_55">
    <path d="M 118.6464 241.7428 
L 124.7136 241.7428 
L 124.7136 234.798438 
L 118.6464 234.798438 
z
" clip-path="url(#p7c66e45de3)" style="fill: #a52a2a"/>
   </g>
   <g id="patch_56">
    <path d="M 126.2304 236.501772 
L 132.2976 236.501772 
L 132.2976 230.736641 
L 126.2304 230.736641 
z
" clip-path="url(#p7c66e45de3)" style="fill: #a52a2a"/>
   </g>
   <g id="patch_57">
    <path d="M 133.8144 230.081513 
L 139.8816 230.081513 
L 139.8816 224.709459 
L 133.8144 224.709459 
z
" clip-path="url(#p7c66e45de3)" style="fill: #a52a2a"/>
   </g>
   <g id="patch_58">
    <path d="M 141.3984 226.936896 
L 147.4656 226.936896 
L 147.4656 220.647663 
L 141.3984 220.647663 
z
" clip-path="url(#p7c66e45de3)" style="fill: #a52a2a"/>
   </g>
   <g id="patch_59">
    <path d="M 148.9824 213.834327 
L 155.0496 213.834327 
L 155.0496 205.972785 
L 148.9824 205.972785 
z
" clip-path="url(#p7c66e45de3)" style="fill: #a52a2a"/>
   </g>
   <g id="patch_60">
    <path d="M 156.5664 226.543819 
L 162.6336 226.543819 
L 162.6336 219.599457 
L 156.5664 219.599457 
z
" clip-path="url(#p7c66e45de3)" style="fill: #a52a2a"/>
   </g>
   <g id="patch_61">
    <path d="M 164.1504 218.551252 
L 170.2176 218.551252 
L 170.2176 211.60689 
L 164.1504 211.60689 
z
" clip-path="url(#p7c66e45de3)" style="fill: #a52a2a"/>
   </g>
   <g id="patch_62">
    <path d="M 171.7344 246.459725 
L 177.8016 246.459725 
L 177.8016 239.515363 
L 171.7344 239.515363 
z
" clip-path="url(#p7c66e45de3)" style="fill: #a52a2a"/>
   </g>
   <g id="patch_63">
    <path d="M 179.3184 238.598183 
L 185.3856 238.598183 
L 185.3856 231.653821 
L 179.3184 231.653821 
z
" clip-path="url(#p7c66e45de3)" style="fill: #a52a2a"/>
   </g>
   <g id="patch_64">
    <path d="M 186.9024 235.584592 
L 192.9696 235.584592 
L 192.9696 229.819461 
L 186.9024 229.819461 
z
" clip-path="url(#p7c66e45de3)" style="fill: #a52a2a"/>
   </g>
   <g id="patch_65">
    <path d="M 194.4864 227.854076 
L 200.5536 227.854076 
L 200.5536 220.909714 
L 194.4864 220.909714 
z
" clip-path="url(#p7c66e45de3)" style="fill: #a52a2a"/>
   </g>
   <g id="patch_66">
    <path d="M 202.0704 231.915873 
L 208.1376 231.915873 
L 208.1376 224.054331 
L 202.0704 224.054331 
z
" clip-path="url(#p7c66e45de3)" style="fill: #a52a2a"/>
   </g>
   <g id="patch_67">
    <path d="M 209.6544 239.646388 
L 215.7216 239.646388 
L 215.7216 232.702027 
L 209.6544 232.702027 
z
" clip-path="url(#p7c66e45de3)" style="fill: #a52a2a"/>
   </g>
   <g id="patch_68">
    <path d="M 217.2384 238.860234 
L 223.3056 238.860234 
L 223.3056 231.915873 
L 217.2384 231.915873 
z
" clip-path="url(#p7c66e45de3)" style="fill: #a52a2a"/>
   </g>
   <g id="patch_69">
    <path d="M 224.8224 229.164333 
L 230.8896 229.164333 
L 230.8896 222.219971 
L 224.8224 222.219971 
z
" clip-path="url(#p7c66e45de3)" style="fill: #a52a2a"/>
   </g>
   <g id="patch_70">
    <path d="M 232.4064 238.07408 
L 238.4736 238.07408 
L 238.4736 231.129718 
L 232.4064 231.129718 
z
" clip-path="url(#p7c66e45de3)" style="fill: #a52a2a"/>
   </g>
   <g id="patch_71">
    <path d="M 239.9904 228.509205 
L 246.0576 228.509205 
L 246.0576 221.433817 
L 239.9904 221.433817 
z
" clip-path="url(#p7c66e45de3)" style="fill: #a52a2a"/>
   </g>
   <g id="patch_72">
    <path d="M 247.5744 243.708185 
L 253.6416 243.708185 
L 253.6416 236.763823 
L 247.5744 236.763823 
z
" clip-path="url(#p7c66e45de3)" style="fill: #a52a2a"/>
   </g>
   <g id="patch_73">
    <path d="M 255.1584 228.378179 
L 261.2256 228.378179 
L 261.2256 221.433817 
L 255.1584 221.433817 
z
" clip-path="url(#p7c66e45de3)" style="fill: #a52a2a"/>
   </g>
   <g id="patch_74">
    <path d="M 262.7424 234.012284 
L 268.8096 234.012284 
L 268.8096 227.067922 
L 262.7424 227.067922 
z
" clip-path="url(#p7c66e45de3)" style="fill: #a52a2a"/>
   </g>
   <g id="patch_75">
    <path d="M 270.3264 240.563568 
L 276.3936 240.563568 
L 276.3936 233.619207 
L 270.3264 233.619207 
z
" clip-path="url(#p7c66e45de3)" style="fill: #a52a2a"/>
   </g>
   <g id="patch_76">
    <path d="M 277.9104 230.867667 
L 283.9776 230.867667 
L 283.9776 223.923305 
L 277.9104 223.923305 
z
" clip-path="url(#p7c66e45de3)" style="fill: #a52a2a"/>
   </g>
   <g id="patch_77">
    <path d="M 285.4944 229.295359 
L 291.5616 229.295359 
L 291.5616 222.350997 
L 285.4944 222.350997 
z
" clip-path="url(#p7c66e45de3)" style="fill: #a52a2a"/>
   </g>
   <g id="patch_78">
    <path d="M 293.0784 238.07408 
L 299.1456 238.07408 
L 299.1456 231.129718 
L 293.0784 231.129718 
z
" clip-path="url(#p7c66e45de3)" style="fill: #a52a2a"/>
   </g>
   <g id="patch_79">
    <path d="M 300.6624 238.07408 
L 306.7296 238.07408 
L 306.7296 231.129718 
L 300.6624 231.129718 
z
" clip-path="url(#p7c66e45de3)" style="fill: #a52a2a"/>
   </g>
   <g id="patch_80">
    <path d="M 308.2464 237.943054 
L 314.3136 237.943054 
L 314.3136 230.736641 
L 308.2464 230.736641 
z
" clip-path="url(#p7c66e45de3)" style="fill: #a52a2a"/>
   </g>
   <g id="patch_81">
    <path d="M 315.8304 225.102536 
L 321.8976 225.102536 
L 321.8976 218.158175 
L 315.8304 218.158175 
z
" clip-path="url(#p7c66e45de3)" style="fill: #a52a2a"/>
   </g>
   <g id="patch_82">
    <path d="M 323.4144 228.116127 
L 329.4816 228.116127 
L 329.4816 221.171766 
L 323.4144 221.171766 
z
" clip-path="url(#p7c66e45de3)" style="fill: #a52a2a"/>
   </g>
   <g id="patch_83">
    <path d="M 330.9984 231.39177 
L 337.0656 231.39177 
L 337.0656 224.447408 
L 330.9984 224.447408 
z
" clip-path="url(#p7c66e45de3)" style="fill: #a52a2a"/>
   </g>
   <g id="patch_84">
    <path d="M 338.5824 240.563568 
L 344.6496 240.563568 
L 344.6496 233.619207 
L 338.5824 233.619207 
z
" clip-path="url(#p7c66e45de3)" style="fill: #a52a2a"/>
   </g>
   <g id="patch_85">
    <path d="M 346.1664 237.1569 
L 352.2336 237.1569 
L 352.2336 231.39177 
L 346.1664 231.39177 
z
" clip-path="url(#p7c66e45de3)" style="fill: #a52a2a"/>
   </g>
   <g id="patch_86">
    <path d="M 353.7504 242.922031 
L 359.8176 242.922031 
L 359.8176 235.977669 
L 353.7504 235.977669 
z
" clip-path="url(#p7c66e45de3)" style="fill: #a52a2a"/>
   </g>
   <g id="patch_87">
    <path d="M 361.3344 236.108695 
L 367.4016 236.108695 
L 367.4016 229.819461 
L 361.3344 229.819461 
z
" clip-path="url(#p7c66e45de3)" style="fill: #a52a2a"/>
   </g>
   <g id="patch_88">
    <path d="M 368.9184 223.530228 
L 374.9856 223.530228 
L 374.9856 216.323815 
L 368.9184 216.323815 
z
" clip-path="url(#p7c66e45de3)" style="fill: #a52a2a"/>
   </g>
   <g id="patch_89">
    <path d="M 376.5024 237.418952 
L 382.5696 237.418952 
L 382.5696 230.47459 
L 376.5024 230.47459 
z
" clip-path="url(#p7c66e45de3)" style="fill: #a52a2a"/>
   </g>
   <g id="patch_90">
    <path d="M 384.0864 229.819461 
L 390.1536 229.819461 
L 390.1536 222.8751 
L 384.0864 222.8751 
z
" clip-path="url(#p7c66e45de3)" style="fill: #a52a2a"/>
   </g>
   <g id="patch_91">
    <path d="M 391.6704 236.23972 
L 397.7376 236.23972 
L 397.7376 229.295359 
L 391.6704 229.295359 
z
" clip-path="url(#p7c66e45de3)" style="fill: #a52a2a"/>
   </g>
   <g id="patch_92">
    <path d="M 399.2544 228.378179 
L 405.3216 228.378179 
L 405.3216 221.433817 
L 399.2544 221.433817 
z
" clip-path="url(#p7c66e45de3)" style="fill: #a52a2a"/>
   </g>
   <g id="patch_93">
    <path d="M 406.8384 228.509205 
L 412.9056 228.509205 
L 412.9056 221.564843 
L 406.8384 221.564843 
z
" clip-path="url(#p7c66e45de3)" style="fill: #a52a2a"/>
   </g>
   <g id="patch_94">
    <path d="M 414.4224 239.384337 
L 420.4896 239.384337 
L 420.4896 232.439975 
L 414.4224 232.439975 
z
" clip-path="url(#p7c66e45de3)" style="fill: #a52a2a"/>
   </g>
   <g id="patch_95">
    <path d="M 422.0064 239.384337 
L 428.0736 239.384337 
L 428.0736 232.177924 
L 422.0064 232.177924 
z
" clip-path="url(#p7c66e45de3)" style="fill: #a52a2a"/>
   </g>
   <g id="patch_96">
    <path d="M 429.5904 242.791005 
L 435.6576 242.791005 
L 435.6576 235.846643 
L 429.5904 235.846643 
z
" clip-path="url(#p7c66e45de3)" style="fill: #a52a2a"/>
   </g>
   <g id="patch_97">
    <path d="M 437.1744 239.384337 
L 443.2416 239.384337 
L 443.2416 232.439975 
L 437.1744 232.439975 
z
" clip-path="url(#p7c66e45de3)" style="fill: #a52a2a"/>
   </g>
   <g id="patch_98">
    <path d="M 444.7584 240.82562 
L 450.8256 240.82562 
L 450.8256 233.881258 
L 444.7584 233.881258 
z
" clip-path="url(#p7c66e45de3)" style="fill: #a52a2a"/>
   </g>
   <g id="patch_99">
    <path d="M 88.3104 273.05794 
L 94.3776 273.05794 
L 94.3776 199.159449 
L 88.3104 199.159449 
z
" clip-path="url(#p7c66e45de3)" style="fill: #f08080"/>
   </g>
   <g id="patch_100">
    <path d="M 95.8944 262.968962 
L 101.9616 262.968962 
L 101.9616 196.145858 
L 95.8944 196.145858 
z
" clip-path="url(#p7c66e45de3)" style="fill: #f08080"/>
   </g>
   <g id="patch_101">
    <path d="M 103.4784 273.319992 
L 109.5456 273.319992 
L 109.5456 205.84176 
L 103.4784 205.84176 
z
" clip-path="url(#p7c66e45de3)" style="fill: #f08080"/>
   </g>
   <g id="patch_102">
    <path d="M 111.0624 263.886142 
L 117.1296 263.886142 
L 117.1296 202.042014 
L 111.0624 202.042014 
z
" clip-path="url(#p7c66e45de3)" style="fill: #f08080"/>
   </g>
   <g id="patch_103">
    <path d="M 118.6464 272.926915 
L 124.7136 272.926915 
L 124.7136 207.807145 
L 118.6464 207.807145 
z
" clip-path="url(#p7c66e45de3)" style="fill: #f08080"/>
   </g>
   <g id="patch_104">
    <path d="M 126.2304 261.789731 
L 132.2976 261.789731 
L 132.2976 208.069196 
L 126.2304 208.069196 
z
" clip-path="url(#p7c66e45de3)" style="fill: #f08080"/>
   </g>
   <g id="patch_105">
    <path d="M 133.8144 260.086397 
L 139.8816 260.086397 
L 139.8816 195.097653 
L 133.8144 195.097653 
z
" clip-path="url(#p7c66e45de3)" style="fill: #f08080"/>
   </g>
   <g id="patch_106">
    <path d="M 141.3984 259.562294 
L 147.4656 259.562294 
L 147.4656 194.835601 
L 141.3984 194.835601 
z
" clip-path="url(#p7c66e45de3)" style="fill: #f08080"/>
   </g>
   <g id="patch_107">
    <path d="M 148.9824 248.687161 
L 155.0496 248.687161 
L 155.0496 174.002516 
L 148.9824 174.002516 
z
" clip-path="url(#p7c66e45de3)" style="fill: #f08080"/>
   </g>
   <g id="patch_108">
    <path d="M 156.5664 261.920756 
L 162.6336 261.920756 
L 162.6336 189.201496 
L 156.5664 189.201496 
z
" clip-path="url(#p7c66e45de3)" style="fill: #f08080"/>
   </g>
   <g id="patch_109">
    <path d="M 164.1504 248.294084 
L 170.2176 248.294084 
L 170.2176 179.112518 
L 164.1504 179.112518 
z
" clip-path="url(#p7c66e45de3)" style="fill: #f08080"/>
   </g>
   <g id="patch_110">
    <path d="M 171.7344 273.319992 
L 177.8016 273.319992 
L 177.8016 209.248428 
L 171.7344 209.248428 
z
" clip-path="url(#p7c66e45de3)" style="fill: #f08080"/>
   </g>
   <g id="patch_111">
    <path d="M 179.3184 273.844095 
L 185.3856 273.844095 
L 185.3856 201.779963 
L 179.3184 201.779963 
z
" clip-path="url(#p7c66e45de3)" style="fill: #f08080"/>
   </g>
   <g id="patch_112">
    <path d="M 186.9024 263.099988 
L 192.9696 263.099988 
L 192.9696 194.442524 
L 186.9024 194.442524 
z
" clip-path="url(#p7c66e45de3)" style="fill: #f08080"/>
   </g>
   <g id="patch_113">
    <path d="M 194.4864 262.313834 
L 200.5536 262.313834 
L 200.5536 191.035856 
L 194.4864 191.035856 
z
" clip-path="url(#p7c66e45de3)" style="fill: #f08080"/>
   </g>
   <g id="patch_114">
    <path d="M 202.0704 261.265628 
L 208.1376 261.265628 
L 208.1376 189.987651 
L 202.0704 189.987651 
z
" clip-path="url(#p7c66e45de3)" style="fill: #f08080"/>
   </g>
   <g id="patch_115">
    <path d="M 209.6544 273.319992 
L 215.7216 273.319992 
L 215.7216 202.697143 
L 209.6544 202.697143 
z
" clip-path="url(#p7c66e45de3)" style="fill: #f08080"/>
   </g>
   <g id="patch_116">
    <path d="M 217.2384 273.05794 
L 223.3056 273.05794 
L 223.3056 197.849192 
L 217.2384 197.849192 
z
" clip-path="url(#p7c66e45de3)" style="fill: #f08080"/>
   </g>
   <g id="patch_117">
    <path d="M 224.8224 261.789731 
L 230.8896 261.789731 
L 230.8896 190.511753 
L 224.8224 190.511753 
z
" clip-path="url(#p7c66e45de3)" style="fill: #f08080"/>
   </g>
   <g id="patch_118">
    <path d="M 232.4064 272.795889 
L 238.4736 272.795889 
L 238.4736 200.862783 
L 232.4064 200.862783 
z
" clip-path="url(#p7c66e45de3)" style="fill: #f08080"/>
   </g>
   <g id="patch_119">
    <path d="M 239.9904 272.795889 
L 246.0576 272.795889 
L 246.0576 189.463548 
L 239.9904 189.463548 
z
" clip-path="url(#p7c66e45de3)" style="fill: #f08080"/>
   </g>
   <g id="patch_120">
    <path d="M 247.5744 273.451017 
L 253.6416 273.451017 
L 253.6416 208.331248 
L 247.5744 208.331248 
z
" clip-path="url(#p7c66e45de3)" style="fill: #f08080"/>
   </g>
   <g id="patch_121">
    <path d="M 255.1584 264.672296 
L 261.2256 264.672296 
L 261.2256 190.773805 
L 255.1584 190.773805 
z
" clip-path="url(#p7c66e45de3)" style="fill: #f08080"/>
   </g>
   <g id="patch_122">
    <path d="M 262.7424 273.451017 
L 268.8096 273.451017 
L 268.8096 194.049447 
L 262.7424 194.049447 
z
" clip-path="url(#p7c66e45de3)" style="fill: #f08080"/>
   </g>
   <g id="patch_123">
    <path d="M 270.3264 273.451017 
L 276.3936 273.451017 
L 276.3936 202.17304 
L 270.3264 202.17304 
z
" clip-path="url(#p7c66e45de3)" style="fill: #f08080"/>
   </g>
   <g id="patch_124">
    <path d="M 277.9104 265.589476 
L 283.9776 265.589476 
L 283.9776 193.787396 
L 277.9104 193.787396 
z
" clip-path="url(#p7c66e45de3)" style="fill: #f08080"/>
   </g>
   <g id="patch_125">
    <path d="M 285.4944 272.795889 
L 291.5616 272.795889 
L 291.5616 189.332522 
L 285.4944 189.332522 
z
" clip-path="url(#p7c66e45de3)" style="fill: #f08080"/>
   </g>
   <g id="patch_126">
    <path d="M 293.0784 272.009735 
L 299.1456 272.009735 
L 299.1456 202.17304 
L 293.0784 202.17304 
z
" clip-path="url(#p7c66e45de3)" style="fill: #f08080"/>
   </g>
   <g id="patch_127">
    <path d="M 300.6624 272.664863 
L 306.7296 272.664863 
L 306.7296 197.980218 
L 300.6624 197.980218 
z
" clip-path="url(#p7c66e45de3)" style="fill: #f08080"/>
   </g>
   <g id="patch_128">
    <path d="M 308.2464 271.747683 
L 314.3136 271.747683 
L 314.3136 199.814578 
L 308.2464 199.814578 
z
" clip-path="url(#p7c66e45de3)" style="fill: #f08080"/>
   </g>
   <g id="patch_129">
    <path d="M 315.8304 261.658705 
L 321.8976 261.658705 
L 321.8976 184.877649 
L 315.8304 184.877649 
z
" clip-path="url(#p7c66e45de3)" style="fill: #f08080"/>
   </g>
   <g id="patch_130">
    <path d="M 323.4144 262.182808 
L 329.4816 262.182808 
L 329.4816 189.856625 
L 323.4144 189.856625 
z
" clip-path="url(#p7c66e45de3)" style="fill: #f08080"/>
   </g>
   <g id="patch_131">
    <path d="M 330.9984 273.319992 
L 337.0656 273.319992 
L 337.0656 189.201496 
L 330.9984 189.201496 
z
" clip-path="url(#p7c66e45de3)" style="fill: #f08080"/>
   </g>
   <g id="patch_132">
    <path d="M 338.5824 269.520247 
L 344.6496 269.520247 
L 344.6496 199.814578 
L 338.5824 199.814578 
z
" clip-path="url(#p7c66e45de3)" style="fill: #f08080"/>
   </g>
   <g id="patch_133">
    <path d="M 346.1664 273.05794 
L 352.2336 273.05794 
L 352.2336 198.766372 
L 346.1664 198.766372 
z
" clip-path="url(#p7c66e45de3)" style="fill: #f08080"/>
   </g>
   <g id="patch_134">
    <path d="M 353.7504 272.795889 
L 359.8176 272.795889 
L 359.8176 203.09022 
L 353.7504 203.09022 
z
" clip-path="url(#p7c66e45de3)" style="fill: #f08080"/>
   </g>
   <g id="patch_135">
    <path d="M 361.3344 273.188966 
L 367.4016 273.188966 
L 367.4016 195.097653 
L 361.3344 195.097653 
z
" clip-path="url(#p7c66e45de3)" style="fill: #f08080"/>
   </g>
   <g id="patch_136">
    <path d="M 368.9184 259.300243 
L 374.9856 259.300243 
L 374.9856 187.498162 
L 368.9184 187.498162 
z
" clip-path="url(#p7c66e45de3)" style="fill: #f08080"/>
   </g>
   <g id="patch_137">
    <path d="M 376.5024 272.664863 
L 382.5696 272.664863 
L 382.5696 200.33868 
L 376.5024 200.33868 
z
" clip-path="url(#p7c66e45de3)" style="fill: #f08080"/>
   </g>
   <g id="patch_138">
    <path d="M 384.0864 262.706911 
L 390.1536 262.706911 
L 390.1536 189.856625 
L 384.0864 189.856625 
z
" clip-path="url(#p7c66e45de3)" style="fill: #f08080"/>
   </g>
   <g id="patch_139">
    <path d="M 391.6704 272.533838 
L 397.7376 272.533838 
L 397.7376 197.063038 
L 391.6704 197.063038 
z
" clip-path="url(#p7c66e45de3)" style="fill: #f08080"/>
   </g>
   <g id="patch_140">
    <path d="M 399.2544 262.837936 
L 405.3216 262.837936 
L 405.3216 186.97406 
L 399.2544 186.97406 
z
" clip-path="url(#p7c66e45de3)" style="fill: #f08080"/>
   </g>
   <g id="patch_141">
    <path d="M 406.8384 261.920756 
L 412.9056 261.920756 
L 412.9056 188.153291 
L 406.8384 188.153291 
z
" clip-path="url(#p7c66e45de3)" style="fill: #f08080"/>
   </g>
   <g id="patch_142">
    <path d="M 414.4224 273.451017 
L 420.4896 273.451017 
L 420.4896 199.159449 
L 414.4224 199.159449 
z
" clip-path="url(#p7c66e45de3)" style="fill: #f08080"/>
   </g>
   <g id="patch_143">
    <path d="M 422.0064 273.05794 
L 428.0736 273.05794 
L 428.0736 197.587141 
L 422.0064 197.587141 
z
" clip-path="url(#p7c66e45de3)" style="fill: #f08080"/>
   </g>
   <g id="patch_144">
    <path d="M 429.5904 273.188966 
L 435.6576 273.188966 
L 435.6576 204.0074 
L 429.5904 204.0074 
z
" clip-path="url(#p7c66e45de3)" style="fill: #f08080"/>
   </g>
   <g id="patch_145">
    <path d="M 437.1744 273.188966 
L 443.2416 273.188966 
L 443.2416 200.862783 
L 437.1744 200.862783 
z
" clip-path="url(#p7c66e45de3)" style="fill: #f08080"/>
   </g>
   <g id="patch_146">
    <path d="M 444.7584 273.844095 
L 450.8256 273.844095 
L 450.8256 199.159449 
L 444.7584 199.159449 
z
" clip-path="url(#p7c66e45de3)" style="fill: #f08080"/>
   </g>
   <g id="patch_147">
    <path d="M 88.3104 293.76 
L 94.3776 293.76 
L 94.3776 273.05794 
L 88.3104 273.05794 
z
" clip-path="url(#p7c66e45de3)" style="fill: #ffe4e1"/>
   </g>
   <g id="patch_148">
    <path d="M 95.8944 293.76 
L 101.9616 293.76 
L 101.9616 262.968962 
L 95.8944 262.968962 
z
" clip-path="url(#p7c66e45de3)" style="fill: #ffe4e1"/>
   </g>
   <g id="patch_149">
    <path d="M 103.4784 293.76 
L 109.5456 293.76 
L 109.5456 273.319992 
L 103.4784 273.319992 
z
" clip-path="url(#p7c66e45de3)" style="fill: #ffe4e1"/>
   </g>
   <g id="patch_150">
    <path d="M 111.0624 293.76 
L 117.1296 293.76 
L 117.1296 263.886142 
L 111.0624 263.886142 
z
" clip-path="url(#p7c66e45de3)" style="fill: #ffe4e1"/>
   </g>
   <g id="patch_151">
    <path d="M 118.6464 293.76 
L 124.7136 293.76 
L 124.7136 272.926915 
L 118.6464 272.926915 
z
" clip-path="url(#p7c66e45de3)" style="fill: #ffe4e1"/>
   </g>
   <g id="patch_152">
    <path d="M 126.2304 293.76 
L 132.2976 293.76 
L 132.2976 261.789731 
L 126.2304 261.789731 
z
" clip-path="url(#p7c66e45de3)" style="fill: #ffe4e1"/>
   </g>
   <g id="patch_153">
    <path d="M 133.8144 293.76 
L 139.8816 293.76 
L 139.8816 260.086397 
L 133.8144 260.086397 
z
" clip-path="url(#p7c66e45de3)" style="fill: #ffe4e1"/>
   </g>
   <g id="patch_154">
    <path d="M 141.3984 293.76 
L 147.4656 293.76 
L 147.4656 259.562294 
L 141.3984 259.562294 
z
" clip-path="url(#p7c66e45de3)" style="fill: #ffe4e1"/>
   </g>
   <g id="patch_155">
    <path d="M 148.9824 293.76 
L 155.0496 293.76 
L 155.0496 248.687161 
L 148.9824 248.687161 
z
" clip-path="url(#p7c66e45de3)" style="fill: #ffe4e1"/>
   </g>
   <g id="patch_156">
    <path d="M 156.5664 293.76 
L 162.6336 293.76 
L 162.6336 261.920756 
L 156.5664 261.920756 
z
" clip-path="url(#p7c66e45de3)" style="fill: #ffe4e1"/>
   </g>
   <g id="patch_157">
    <path d="M 164.1504 293.76 
L 170.2176 293.76 
L 170.2176 248.294084 
L 164.1504 248.294084 
z
" clip-path="url(#p7c66e45de3)" style="fill: #ffe4e1"/>
   </g>
   <g id="patch_158">
    <path d="M 171.7344 293.76 
L 177.8016 293.76 
L 177.8016 273.319992 
L 171.7344 273.319992 
z
" clip-path="url(#p7c66e45de3)" style="fill: #ffe4e1"/>
   </g>
   <g id="patch_159">
    <path d="M 179.3184 293.76 
L 185.3856 293.76 
L 185.3856 273.844095 
L 179.3184 273.844095 
z
" clip-path="url(#p7c66e45de3)" style="fill: #ffe4e1"/>
   </g>
   <g id="patch_160">
    <path d="M 186.9024 293.76 
L 192.9696 293.76 
L 192.9696 263.099988 
L 186.9024 263.099988 
z
" clip-path="url(#p7c66e45de3)" style="fill: #ffe4e1"/>
   </g>
   <g id="patch_161">
    <path d="M 194.4864 293.76 
L 200.5536 293.76 
L 200.5536 262.313834 
L 194.4864 262.313834 
z
" clip-path="url(#p7c66e45de3)" style="fill: #ffe4e1"/>
   </g>
   <g id="patch_162">
    <path d="M 202.0704 293.76 
L 208.1376 293.76 
L 208.1376 261.265628 
L 202.0704 261.265628 
z
" clip-path="url(#p7c66e45de3)" style="fill: #ffe4e1"/>
   </g>
   <g id="patch_163">
    <path d="M 209.6544 293.76 
L 215.7216 293.76 
L 215.7216 273.319992 
L 209.6544 273.319992 
z
" clip-path="url(#p7c66e45de3)" style="fill: #ffe4e1"/>
   </g>
   <g id="patch_164">
    <path d="M 217.2384 293.76 
L 223.3056 293.76 
L 223.3056 273.05794 
L 217.2384 273.05794 
z
" clip-path="url(#p7c66e45de3)" style="fill: #ffe4e1"/>
   </g>
   <g id="patch_165">
    <path d="M 224.8224 293.76 
L 230.8896 293.76 
L 230.8896 261.789731 
L 224.8224 261.789731 
z
" clip-path="url(#p7c66e45de3)" style="fill: #ffe4e1"/>
   </g>
   <g id="patch_166">
    <path d="M 232.4064 293.76 
L 238.4736 293.76 
L 238.4736 272.795889 
L 232.4064 272.795889 
z
" clip-path="url(#p7c66e45de3)" style="fill: #ffe4e1"/>
   </g>
   <g id="patch_167">
    <path d="M 239.9904 293.76 
L 246.0576 293.76 
L 246.0576 272.795889 
L 239.9904 272.795889 
z
" clip-path="url(#p7c66e45de3)" style="fill: #ffe4e1"/>
   </g>
   <g id="patch_168">
    <path d="M 247.5744 293.76 
L 253.6416 293.76 
L 253.6416 273.451017 
L 247.5744 273.451017 
z
" clip-path="url(#p7c66e45de3)" style="fill: #ffe4e1"/>
   </g>
   <g id="patch_169">
    <path d="M 255.1584 293.76 
L 261.2256 293.76 
L 261.2256 264.672296 
L 255.1584 264.672296 
z
" clip-path="url(#p7c66e45de3)" style="fill: #ffe4e1"/>
   </g>
   <g id="patch_170">
    <path d="M 262.7424 293.76 
L 268.8096 293.76 
L 268.8096 273.451017 
L 262.7424 273.451017 
z
" clip-path="url(#p7c66e45de3)" style="fill: #ffe4e1"/>
   </g>
   <g id="patch_171">
    <path d="M 270.3264 293.76 
L 276.3936 293.76 
L 276.3936 273.451017 
L 270.3264 273.451017 
z
" clip-path="url(#p7c66e45de3)" style="fill: #ffe4e1"/>
   </g>
   <g id="patch_172">
    <path d="M 277.9104 293.76 
L 283.9776 293.76 
L 283.9776 265.589476 
L 277.9104 265.589476 
z
" clip-path="url(#p7c66e45de3)" style="fill: #ffe4e1"/>
   </g>
   <g id="patch_173">
    <path d="M 285.4944 293.76 
L 291.5616 293.76 
L 291.5616 272.795889 
L 285.4944 272.795889 
z
" clip-path="url(#p7c66e45de3)" style="fill: #ffe4e1"/>
   </g>
   <g id="patch_174">
    <path d="M 293.0784 293.76 
L 299.1456 293.76 
L 299.1456 272.009735 
L 293.0784 272.009735 
z
" clip-path="url(#p7c66e45de3)" style="fill: #ffe4e1"/>
   </g>
   <g id="patch_175">
    <path d="M 300.6624 293.76 
L 306.7296 293.76 
L 306.7296 272.664863 
L 300.6624 272.664863 
z
" clip-path="url(#p7c66e45de3)" style="fill: #ffe4e1"/>
   </g>
   <g id="patch_176">
    <path d="M 308.2464 293.76 
L 314.3136 293.76 
L 314.3136 271.747683 
L 308.2464 271.747683 
z
" clip-path="url(#p7c66e45de3)" style="fill: #ffe4e1"/>
   </g>
   <g id="patch_177">
    <path d="M 315.8304 293.76 
L 321.8976 293.76 
L 321.8976 261.658705 
L 315.8304 261.658705 
z
" clip-path="url(#p7c66e45de3)" style="fill: #ffe4e1"/>
   </g>
   <g id="patch_178">
    <path d="M 323.4144 293.76 
L 329.4816 293.76 
L 329.4816 262.182808 
L 323.4144 262.182808 
z
" clip-path="url(#p7c66e45de3)" style="fill: #ffe4e1"/>
   </g>
   <g id="patch_179">
    <path d="M 330.9984 293.76 
L 337.0656 293.76 
L 337.0656 273.319992 
L 330.9984 273.319992 
z
" clip-path="url(#p7c66e45de3)" style="fill: #ffe4e1"/>
   </g>
   <g id="patch_180">
    <path d="M 338.5824 293.76 
L 344.6496 293.76 
L 344.6496 269.520247 
L 338.5824 269.520247 
z
" clip-path="url(#p7c66e45de3)" style="fill: #ffe4e1"/>
   </g>
   <g id="patch_181">
    <path d="M 346.1664 293.76 
L 352.2336 293.76 
L 352.2336 273.05794 
L 346.1664 273.05794 
z
" clip-path="url(#p7c66e45de3)" style="fill: #ffe4e1"/>
   </g>
   <g id="patch_182">
    <path d="M 353.7504 293.76 
L 359.8176 293.76 
L 359.8176 272.795889 
L 353.7504 272.795889 
z
" clip-path="url(#p7c66e45de3)" style="fill: #ffe4e1"/>
   </g>
   <g id="patch_183">
    <path d="M 361.3344 293.76 
L 367.4016 293.76 
L 367.4016 273.188966 
L 361.3344 273.188966 
z
" clip-path="url(#p7c66e45de3)" style="fill: #ffe4e1"/>
   </g>
   <g id="patch_184">
    <path d="M 368.9184 293.76 
L 374.9856 293.76 
L 374.9856 259.300243 
L 368.9184 259.300243 
z
" clip-path="url(#p7c66e45de3)" style="fill: #ffe4e1"/>
   </g>
   <g id="patch_185">
    <path d="M 376.5024 293.76 
L 382.5696 293.76 
L 382.5696 272.664863 
L 376.5024 272.664863 
z
" clip-path="url(#p7c66e45de3)" style="fill: #ffe4e1"/>
   </g>
   <g id="patch_186">
    <path d="M 384.0864 293.76 
L 390.1536 293.76 
L 390.1536 262.706911 
L 384.0864 262.706911 
z
" clip-path="url(#p7c66e45de3)" style="fill: #ffe4e1"/>
   </g>
   <g id="patch_187">
    <path d="M 391.6704 293.76 
L 397.7376 293.76 
L 397.7376 272.533838 
L 391.6704 272.533838 
z
" clip-path="url(#p7c66e45de3)" style="fill: #ffe4e1"/>
   </g>
   <g id="patch_188">
    <path d="M 399.2544 293.76 
L 405.3216 293.76 
L 405.3216 262.837936 
L 399.2544 262.837936 
z
" clip-path="url(#p7c66e45de3)" style="fill: #ffe4e1"/>
   </g>
   <g id="patch_189">
    <path d="M 406.8384 293.76 
L 412.9056 293.76 
L 412.9056 261.920756 
L 406.8384 261.920756 
z
" clip-path="url(#p7c66e45de3)" style="fill: #ffe4e1"/>
   </g>
   <g id="patch_190">
    <path d="M 414.4224 293.76 
L 420.4896 293.76 
L 420.4896 273.451017 
L 414.4224 273.451017 
z
" clip-path="url(#p7c66e45de3)" style="fill: #ffe4e1"/>
   </g>
   <g id="patch_191">
    <path d="M 422.0064 293.76 
L 428.0736 293.76 
L 428.0736 273.05794 
L 422.0064 273.05794 
z
" clip-path="url(#p7c66e45de3)" style="fill: #ffe4e1"/>
   </g>
   <g id="patch_192">
    <path d="M 429.5904 293.76 
L 435.6576 293.76 
L 435.6576 273.188966 
L 429.5904 273.188966 
z
" clip-path="url(#p7c66e45de3)" style="fill: #ffe4e1"/>
   </g>
   <g id="patch_193">
    <path d="M 437.1744 293.76 
L 443.2416 293.76 
L 443.2416 273.188966 
L 437.1744 273.188966 
z
" clip-path="url(#p7c66e45de3)" style="fill: #ffe4e1"/>
   </g>
   <g id="patch_194">
    <path d="M 444.7584 293.76 
L 450.8256 293.76 
L 450.8256 273.844095 
L 444.7584 273.844095 
z
" clip-path="url(#p7c66e45de3)" style="fill: #ffe4e1"/>
   </g>
   <g id="matplotlib.axis_1">
    <g id="xtick_1">
     <g id="line2d_1">
      <path d="M 159.6 293.76 
L 159.6 6.912 
" clip-path="url(#p7c66e45de3)" style="fill: none; stroke: #b0b0b0; stroke-width: 0.8; stroke-linecap: square"/>
     </g>
     <g id="line2d_2">
      <defs>
       <path id="mc3a2e42b79" d="M 0 0 
L 0 3.5 
" style="stroke: #000000; stroke-width: 0.8"/>
      </defs>
      <g>
       <use xlink:href="#mc3a2e42b79" x="159.6" y="293.76" style="stroke: #000000; stroke-width: 0.8"/>
      </g>
     </g>
     <g id="text_1">
      <!-- 10 -->
      <g transform="translate(146.875 315.956875) scale(0.2 -0.2)">
       <defs>
        <path id="DejaVuSans-31" d="M 794 531 
L 1825 531 
L 1825 4091 
L 703 3866 
L 703 4441 
L 1819 4666 
L 2450 4666 
L 2450 531 
L 3481 531 
L 3481 0 
L 794 0 
L 794 531 
z
" transform="scale(0.015625)"/>
        <path id="DejaVuSans-30" d="M 2034 4250 
Q 1547 4250 1301 3770 
Q 1056 3291 1056 2328 
Q 1056 1369 1301 889 
Q 1547 409 2034 409 
Q 2525 409 2770 889 
Q 3016 1369 3016 2328 
Q 3016 3291 2770 3770 
Q 2525 4250 2034 4250 
z
M 2034 4750 
Q 2819 4750 3233 4129 
Q 3647 3509 3647 2328 
Q 3647 1150 3233 529 
Q 2819 -91 2034 -91 
Q 1250 -91 836 529 
Q 422 1150 422 2328 
Q 422 3509 836 4129 
Q 1250 4750 2034 4750 
z
" transform="scale(0.015625)"/>
       </defs>
       <use xlink:href="#DejaVuSans-31"/>
       <use xlink:href="#DejaVuSans-30" x="63.623047"/>
      </g>
     </g>
    </g>
    <g id="xtick_2">
     <g id="line2d_3">
      <path d="M 235.44 293.76 
L 235.44 6.912 
" clip-path="url(#p7c66e45de3)" style="fill: none; stroke: #b0b0b0; stroke-width: 0.8; stroke-linecap: square"/>
     </g>
     <g id="line2d_4">
      <g>
       <use xlink:href="#mc3a2e42b79" x="235.44" y="293.76" style="stroke: #000000; stroke-width: 0.8"/>
      </g>
     </g>
     <g id="text_2">
      <!-- 20 -->
      <g transform="translate(222.715 315.956875) scale(0.2 -0.2)">
       <defs>
        <path id="DejaVuSans-32" d="M 1228 531 
L 3431 531 
L 3431 0 
L 469 0 
L 469 531 
Q 828 903 1448 1529 
Q 2069 2156 2228 2338 
Q 2531 2678 2651 2914 
Q 2772 3150 2772 3378 
Q 2772 3750 2511 3984 
Q 2250 4219 1831 4219 
Q 1534 4219 1204 4116 
Q 875 4013 500 3803 
L 500 4441 
Q 881 4594 1212 4672 
Q 1544 4750 1819 4750 
Q 2544 4750 2975 4387 
Q 3406 4025 3406 3419 
Q 3406 3131 3298 2873 
Q 3191 2616 2906 2266 
Q 2828 2175 2409 1742 
Q 1991 1309 1228 531 
z
" transform="scale(0.015625)"/>
       </defs>
       <use xlink:href="#DejaVuSans-32"/>
       <use xlink:href="#DejaVuSans-30" x="63.623047"/>
      </g>
     </g>
    </g>
    <g id="xtick_3">
     <g id="line2d_5">
      <path d="M 311.28 293.76 
L 311.28 6.912 
" clip-path="url(#p7c66e45de3)" style="fill: none; stroke: #b0b0b0; stroke-width: 0.8; stroke-linecap: square"/>
     </g>
     <g id="line2d_6">
      <g>
       <use xlink:href="#mc3a2e42b79" x="311.28" y="293.76" style="stroke: #000000; stroke-width: 0.8"/>
      </g>
     </g>
     <g id="text_3">
      <!-- 30 -->
      <g transform="translate(298.555 315.956875) scale(0.2 -0.2)">
       <defs>
        <path id="DejaVuSans-33" d="M 2597 2516 
Q 3050 2419 3304 2112 
Q 3559 1806 3559 1356 
Q 3559 666 3084 287 
Q 2609 -91 1734 -91 
Q 1441 -91 1130 -33 
Q 819 25 488 141 
L 488 750 
Q 750 597 1062 519 
Q 1375 441 1716 441 
Q 2309 441 2620 675 
Q 2931 909 2931 1356 
Q 2931 1769 2642 2001 
Q 2353 2234 1838 2234 
L 1294 2234 
L 1294 2753 
L 1863 2753 
Q 2328 2753 2575 2939 
Q 2822 3125 2822 3475 
Q 2822 3834 2567 4026 
Q 2313 4219 1838 4219 
Q 1578 4219 1281 4162 
Q 984 4106 628 3988 
L 628 4550 
Q 988 4650 1302 4700 
Q 1616 4750 1894 4750 
Q 2613 4750 3031 4423 
Q 3450 4097 3450 3541 
Q 3450 3153 3228 2886 
Q 3006 2619 2597 2516 
z
" transform="scale(0.015625)"/>
       </defs>
       <use xlink:href="#DejaVuSans-33"/>
       <use xlink:href="#DejaVuSans-30" x="63.623047"/>
      </g>
     </g>
    </g>
    <g id="xtick_4">
     <g id="line2d_7">
      <path d="M 387.12 293.76 
L 387.12 6.912 
" clip-path="url(#p7c66e45de3)" style="fill: none; stroke: #b0b0b0; stroke-width: 0.8; stroke-linecap: square"/>
     </g>
     <g id="line2d_8">
      <g>
       <use xlink:href="#mc3a2e42b79" x="387.12" y="293.76" style="stroke: #000000; stroke-width: 0.8"/>
      </g>
     </g>
     <g id="text_4">
      <!-- 40 -->
      <g transform="translate(374.395 315.956875) scale(0.2 -0.2)">
       <defs>
        <path id="DejaVuSans-34" d="M 2419 4116 
L 825 1625 
L 2419 1625 
L 2419 4116 
z
M 2253 4666 
L 3047 4666 
L 3047 1625 
L 3713 1625 
L 3713 1100 
L 3047 1100 
L 3047 0 
L 2419 0 
L 2419 1100 
L 313 1100 
L 313 1709 
L 2253 4666 
z
" transform="scale(0.015625)"/>
       </defs>
       <use xlink:href="#DejaVuSans-34"/>
       <use xlink:href="#DejaVuSans-30" x="63.623047"/>
      </g>
     </g>
    </g>
    <g id="text_5">
     <!-- batch iteration -->
     <g transform="translate(203.277375 337.793437) scale(0.18 -0.18)">
      <defs>
       <path id="DejaVuSans-62" d="M 3116 1747 
Q 3116 2381 2855 2742 
Q 2594 3103 2138 3103 
Q 1681 3103 1420 2742 
Q 1159 2381 1159 1747 
Q 1159 1113 1420 752 
Q 1681 391 2138 391 
Q 2594 391 2855 752 
Q 3116 1113 3116 1747 
z
M 1159 2969 
Q 1341 3281 1617 3432 
Q 1894 3584 2278 3584 
Q 2916 3584 3314 3078 
Q 3713 2572 3713 1747 
Q 3713 922 3314 415 
Q 2916 -91 2278 -91 
Q 1894 -91 1617 61 
Q 1341 213 1159 525 
L 1159 0 
L 581 0 
L 581 4863 
L 1159 4863 
L 1159 2969 
z
" transform="scale(0.015625)"/>
       <path id="DejaVuSans-61" d="M 2194 1759 
Q 1497 1759 1228 1600 
Q 959 1441 959 1056 
Q 959 750 1161 570 
Q 1363 391 1709 391 
Q 2188 391 2477 730 
Q 2766 1069 2766 1631 
L 2766 1759 
L 2194 1759 
z
M 3341 1997 
L 3341 0 
L 2766 0 
L 2766 531 
Q 2569 213 2275 61 
Q 1981 -91 1556 -91 
Q 1019 -91 701 211 
Q 384 513 384 1019 
Q 384 1609 779 1909 
Q 1175 2209 1959 2209 
L 2766 2209 
L 2766 2266 
Q 2766 2663 2505 2880 
Q 2244 3097 1772 3097 
Q 1472 3097 1187 3025 
Q 903 2953 641 2809 
L 641 3341 
Q 956 3463 1253 3523 
Q 1550 3584 1831 3584 
Q 2591 3584 2966 3190 
Q 3341 2797 3341 1997 
z
" transform="scale(0.015625)"/>
       <path id="DejaVuSans-74" d="M 1172 4494 
L 1172 3500 
L 2356 3500 
L 2356 3053 
L 1172 3053 
L 1172 1153 
Q 1172 725 1289 603 
Q 1406 481 1766 481 
L 2356 481 
L 2356 0 
L 1766 0 
Q 1100 0 847 248 
Q 594 497 594 1153 
L 594 3053 
L 172 3053 
L 172 3500 
L 594 3500 
L 594 4494 
L 1172 4494 
z
" transform="scale(0.015625)"/>
       <path id="DejaVuSans-63" d="M 3122 3366 
L 3122 2828 
Q 2878 2963 2633 3030 
Q 2388 3097 2138 3097 
Q 1578 3097 1268 2742 
Q 959 2388 959 1747 
Q 959 1106 1268 751 
Q 1578 397 2138 397 
Q 2388 397 2633 464 
Q 2878 531 3122 666 
L 3122 134 
Q 2881 22 2623 -34 
Q 2366 -91 2075 -91 
Q 1284 -91 818 406 
Q 353 903 353 1747 
Q 353 2603 823 3093 
Q 1294 3584 2113 3584 
Q 2378 3584 2631 3529 
Q 2884 3475 3122 3366 
z
" transform="scale(0.015625)"/>
       <path id="DejaVuSans-68" d="M 3513 2113 
L 3513 0 
L 2938 0 
L 2938 2094 
Q 2938 2591 2744 2837 
Q 2550 3084 2163 3084 
Q 1697 3084 1428 2787 
Q 1159 2491 1159 1978 
L 1159 0 
L 581 0 
L 581 4863 
L 1159 4863 
L 1159 2956 
Q 1366 3272 1645 3428 
Q 1925 3584 2291 3584 
Q 2894 3584 3203 3211 
Q 3513 2838 3513 2113 
z
" transform="scale(0.015625)"/>
       <path id="DejaVuSans-20" transform="scale(0.015625)"/>
       <path id="DejaVuSans-69" d="M 603 3500 
L 1178 3500 
L 1178 0 
L 603 0 
L 603 3500 
z
M 603 4863 
L 1178 4863 
L 1178 4134 
L 603 4134 
L 603 4863 
z
" transform="scale(0.015625)"/>
       <path id="DejaVuSans-65" d="M 3597 1894 
L 3597 1613 
L 953 1613 
Q 991 1019 1311 708 
Q 1631 397 2203 397 
Q 2534 397 2845 478 
Q 3156 559 3463 722 
L 3463 178 
Q 3153 47 2828 -22 
Q 2503 -91 2169 -91 
Q 1331 -91 842 396 
Q 353 884 353 1716 
Q 353 2575 817 3079 
Q 1281 3584 2069 3584 
Q 2775 3584 3186 3129 
Q 3597 2675 3597 1894 
z
M 3022 2063 
Q 3016 2534 2758 2815 
Q 2500 3097 2075 3097 
Q 1594 3097 1305 2825 
Q 1016 2553 972 2059 
L 3022 2063 
z
" transform="scale(0.015625)"/>
       <path id="DejaVuSans-72" d="M 2631 2963 
Q 2534 3019 2420 3045 
Q 2306 3072 2169 3072 
Q 1681 3072 1420 2755 
Q 1159 2438 1159 1844 
L 1159 0 
L 581 0 
L 581 3500 
L 1159 3500 
L 1159 2956 
Q 1341 3275 1631 3429 
Q 1922 3584 2338 3584 
Q 2397 3584 2469 3576 
Q 2541 3569 2628 3553 
L 2631 2963 
z
" transform="scale(0.015625)"/>
       <path id="DejaVuSans-6f" d="M 1959 3097 
Q 1497 3097 1228 2736 
Q 959 2375 959 1747 
Q 959 1119 1226 758 
Q 1494 397 1959 397 
Q 2419 397 2687 759 
Q 2956 1122 2956 1747 
Q 2956 2369 2687 2733 
Q 2419 3097 1959 3097 
z
M 1959 3584 
Q 2709 3584 3137 3096 
Q 3566 2609 3566 1747 
Q 3566 888 3137 398 
Q 2709 -91 1959 -91 
Q 1206 -91 779 398 
Q 353 888 353 1747 
Q 353 2609 779 3096 
Q 1206 3584 1959 3584 
z
" transform="scale(0.015625)"/>
       <path id="DejaVuSans-6e" d="M 3513 2113 
L 3513 0 
L 2938 0 
L 2938 2094 
Q 2938 2591 2744 2837 
Q 2550 3084 2163 3084 
Q 1697 3084 1428 2787 
Q 1159 2491 1159 1978 
L 1159 0 
L 581 0 
L 581 3500 
L 1159 3500 
L 1159 2956 
Q 1366 3272 1645 3428 
Q 1925 3584 2291 3584 
Q 2894 3584 3203 3211 
Q 3513 2838 3513 2113 
z
" transform="scale(0.015625)"/>
      </defs>
      <use xlink:href="#DejaVuSans-62"/>
      <use xlink:href="#DejaVuSans-61" x="63.476562"/>
      <use xlink:href="#DejaVuSans-74" x="124.755859"/>
      <use xlink:href="#DejaVuSans-63" x="163.964844"/>
      <use xlink:href="#DejaVuSans-68" x="218.945312"/>
      <use xlink:href="#DejaVuSans-20" x="282.324219"/>
      <use xlink:href="#DejaVuSans-69" x="314.111328"/>
      <use xlink:href="#DejaVuSans-74" x="341.894531"/>
      <use xlink:href="#DejaVuSans-65" x="381.103516"/>
      <use xlink:href="#DejaVuSans-72" x="442.626953"/>
      <use xlink:href="#DejaVuSans-61" x="483.740234"/>
      <use xlink:href="#DejaVuSans-74" x="545.019531"/>
      <use xlink:href="#DejaVuSans-69" x="584.228516"/>
      <use xlink:href="#DejaVuSans-6f" x="612.011719"/>
      <use xlink:href="#DejaVuSans-6e" x="673.193359"/>
     </g>
    </g>
   </g>
   <g id="matplotlib.axis_2">
    <g id="ytick_1">
     <g id="line2d_9">
      <path d="M 87.552 293.76 
L 451.584 293.76 
" clip-path="url(#p7c66e45de3)" style="fill: none; stroke: #b0b0b0; stroke-width: 0.8; stroke-linecap: square"/>
     </g>
     <g id="line2d_10">
      <defs>
       <path id="mf663280b0a" d="M 0 0 
L -3.5 0 
" style="stroke: #000000; stroke-width: 0.8"/>
      </defs>
      <g>
       <use xlink:href="#mf663280b0a" x="87.552" y="293.76" style="stroke: #000000; stroke-width: 0.8"/>
      </g>
     </g>
     <g id="text_6">
      <!-- 0.000 -->
      <g transform="translate(23.29575 301.358437) scale(0.2 -0.2)">
       <defs>
        <path id="DejaVuSans-2e" d="M 684 794 
L 1344 794 
L 1344 0 
L 684 0 
L 684 794 
z
" transform="scale(0.015625)"/>
       </defs>
       <use xlink:href="#DejaVuSans-30"/>
       <use xlink:href="#DejaVuSans-2e" x="63.623047"/>
       <use xlink:href="#DejaVuSans-30" x="95.410156"/>
       <use xlink:href="#DejaVuSans-30" x="159.033203"/>
       <use xlink:href="#DejaVuSans-30" x="222.65625"/>
      </g>
     </g>
    </g>
    <g id="ytick_2">
     <g id="line2d_11">
      <path d="M 87.552 228.247153 
L 451.584 228.247153 
" clip-path="url(#p7c66e45de3)" style="fill: none; stroke: #b0b0b0; stroke-width: 0.8; stroke-linecap: square"/>
     </g>
     <g id="line2d_12">
      <g>
       <use xlink:href="#mf663280b0a" x="87.552" y="228.247153" style="stroke: #000000; stroke-width: 0.8"/>
      </g>
     </g>
     <g id="text_7">
      <!-- 0.005 -->
      <g transform="translate(23.29575 235.845591) scale(0.2 -0.2)">
       <defs>
        <path id="DejaVuSans-35" d="M 691 4666 
L 3169 4666 
L 3169 4134 
L 1269 4134 
L 1269 2991 
Q 1406 3038 1543 3061 
Q 1681 3084 1819 3084 
Q 2600 3084 3056 2656 
Q 3513 2228 3513 1497 
Q 3513 744 3044 326 
Q 2575 -91 1722 -91 
Q 1428 -91 1123 -41 
Q 819 9 494 109 
L 494 744 
Q 775 591 1075 516 
Q 1375 441 1709 441 
Q 2250 441 2565 725 
Q 2881 1009 2881 1497 
Q 2881 1984 2565 2268 
Q 2250 2553 1709 2553 
Q 1456 2553 1204 2497 
Q 953 2441 691 2322 
L 691 4666 
z
" transform="scale(0.015625)"/>
       </defs>
       <use xlink:href="#DejaVuSans-30"/>
       <use xlink:href="#DejaVuSans-2e" x="63.623047"/>
       <use xlink:href="#DejaVuSans-30" x="95.410156"/>
       <use xlink:href="#DejaVuSans-30" x="159.033203"/>
       <use xlink:href="#DejaVuSans-35" x="222.65625"/>
      </g>
     </g>
    </g>
    <g id="ytick_3">
     <g id="line2d_13">
      <path d="M 87.552 162.734306 
L 451.584 162.734306 
" clip-path="url(#p7c66e45de3)" style="fill: none; stroke: #b0b0b0; stroke-width: 0.8; stroke-linecap: square"/>
     </g>
     <g id="line2d_14">
      <g>
       <use xlink:href="#mf663280b0a" x="87.552" y="162.734306" style="stroke: #000000; stroke-width: 0.8"/>
      </g>
     </g>
     <g id="text_8">
      <!-- 0.010 -->
      <g transform="translate(23.29575 170.332744) scale(0.2 -0.2)">
       <use xlink:href="#DejaVuSans-30"/>
       <use xlink:href="#DejaVuSans-2e" x="63.623047"/>
       <use xlink:href="#DejaVuSans-30" x="95.410156"/>
       <use xlink:href="#DejaVuSans-31" x="159.033203"/>
       <use xlink:href="#DejaVuSans-30" x="222.65625"/>
      </g>
     </g>
    </g>
    <g id="ytick_4">
     <g id="line2d_15">
      <path d="M 87.552 97.221459 
L 451.584 97.221459 
" clip-path="url(#p7c66e45de3)" style="fill: none; stroke: #b0b0b0; stroke-width: 0.8; stroke-linecap: square"/>
     </g>
     <g id="line2d_16">
      <g>
       <use xlink:href="#mf663280b0a" x="87.552" y="97.221459" style="stroke: #000000; stroke-width: 0.8"/>
      </g>
     </g>
     <g id="text_9">
      <!-- 0.015 -->
      <g transform="translate(23.29575 104.819897) scale(0.2 -0.2)">
       <use xlink:href="#DejaVuSans-30"/>
       <use xlink:href="#DejaVuSans-2e" x="63.623047"/>
       <use xlink:href="#DejaVuSans-30" x="95.410156"/>
       <use xlink:href="#DejaVuSans-31" x="159.033203"/>
       <use xlink:href="#DejaVuSans-35" x="222.65625"/>
      </g>
     </g>
    </g>
    <g id="ytick_5">
     <g id="line2d_17">
      <path d="M 87.552 31.708613 
L 451.584 31.708613 
" clip-path="url(#p7c66e45de3)" style="fill: none; stroke: #b0b0b0; stroke-width: 0.8; stroke-linecap: square"/>
     </g>
     <g id="line2d_18">
      <g>
       <use xlink:href="#mf663280b0a" x="87.552" y="31.708613" style="stroke: #000000; stroke-width: 0.8"/>
      </g>
     </g>
     <g id="text_10">
      <!-- 0.020 -->
      <g transform="translate(23.29575 39.30705) scale(0.2 -0.2)">
       <use xlink:href="#DejaVuSans-30"/>
       <use xlink:href="#DejaVuSans-2e" x="63.623047"/>
       <use xlink:href="#DejaVuSans-30" x="95.410156"/>
       <use xlink:href="#DejaVuSans-32" x="159.033203"/>
       <use xlink:href="#DejaVuSans-30" x="222.65625"/>
      </g>
     </g>
    </g>
    <g id="text_11">
     <!-- time[s] -->
     <g transform="translate(15.552313 182.380219) rotate(-90) scale(0.18 -0.18)">
      <defs>
       <path id="DejaVuSans-6d" d="M 3328 2828 
Q 3544 3216 3844 3400 
Q 4144 3584 4550 3584 
Q 5097 3584 5394 3201 
Q 5691 2819 5691 2113 
L 5691 0 
L 5113 0 
L 5113 2094 
Q 5113 2597 4934 2840 
Q 4756 3084 4391 3084 
Q 3944 3084 3684 2787 
Q 3425 2491 3425 1978 
L 3425 0 
L 2847 0 
L 2847 2094 
Q 2847 2600 2669 2842 
Q 2491 3084 2119 3084 
Q 1678 3084 1418 2786 
Q 1159 2488 1159 1978 
L 1159 0 
L 581 0 
L 581 3500 
L 1159 3500 
L 1159 2956 
Q 1356 3278 1631 3431 
Q 1906 3584 2284 3584 
Q 2666 3584 2933 3390 
Q 3200 3197 3328 2828 
z
" transform="scale(0.015625)"/>
       <path id="DejaVuSans-5b" d="M 550 4863 
L 1875 4863 
L 1875 4416 
L 1125 4416 
L 1125 -397 
L 1875 -397 
L 1875 -844 
L 550 -844 
L 550 4863 
z
" transform="scale(0.015625)"/>
       <path id="DejaVuSans-73" d="M 2834 3397 
L 2834 2853 
Q 2591 2978 2328 3040 
Q 2066 3103 1784 3103 
Q 1356 3103 1142 2972 
Q 928 2841 928 2578 
Q 928 2378 1081 2264 
Q 1234 2150 1697 2047 
L 1894 2003 
Q 2506 1872 2764 1633 
Q 3022 1394 3022 966 
Q 3022 478 2636 193 
Q 2250 -91 1575 -91 
Q 1294 -91 989 -36 
Q 684 19 347 128 
L 347 722 
Q 666 556 975 473 
Q 1284 391 1588 391 
Q 1994 391 2212 530 
Q 2431 669 2431 922 
Q 2431 1156 2273 1281 
Q 2116 1406 1581 1522 
L 1381 1569 
Q 847 1681 609 1914 
Q 372 2147 372 2553 
Q 372 3047 722 3315 
Q 1072 3584 1716 3584 
Q 2034 3584 2315 3537 
Q 2597 3491 2834 3397 
z
" transform="scale(0.015625)"/>
       <path id="DejaVuSans-5d" d="M 1947 4863 
L 1947 -844 
L 622 -844 
L 622 -397 
L 1369 -397 
L 1369 4416 
L 622 4416 
L 622 4863 
L 1947 4863 
z
" transform="scale(0.015625)"/>
      </defs>
      <use xlink:href="#DejaVuSans-74"/>
      <use xlink:href="#DejaVuSans-69" x="39.208984"/>
      <use xlink:href="#DejaVuSans-6d" x="66.992188"/>
      <use xlink:href="#DejaVuSans-65" x="164.404297"/>
      <use xlink:href="#DejaVuSans-5b" x="225.927734"/>
      <use xlink:href="#DejaVuSans-73" x="264.941406"/>
      <use xlink:href="#DejaVuSans-5d" x="317.041016"/>
     </g>
    </g>
   </g>
   <g id="patch_195">
    <path d="M 87.552 293.76 
L 87.552 6.912 
" style="fill: none; stroke: #000000; stroke-width: 0.8; stroke-linejoin: miter; stroke-linecap: square"/>
   </g>
   <g id="patch_196">
    <path d="M 451.584 293.76 
L 451.584 6.912 
" style="fill: none; stroke: #000000; stroke-width: 0.8; stroke-linejoin: miter; stroke-linecap: square"/>
   </g>
   <g id="patch_197">
    <path d="M 87.552 293.76 
L 451.584 293.76 
" style="fill: none; stroke: #000000; stroke-width: 0.8; stroke-linejoin: miter; stroke-linecap: square"/>
   </g>
   <g id="patch_198">
    <path d="M 87.552 6.912 
L 451.584 6.912 
" style="fill: none; stroke: #000000; stroke-width: 0.8; stroke-linejoin: miter; stroke-linecap: square"/>
   </g>
  </g>
 </g>
 <defs>
  <clipPath id="p7c66e45de3">
   <rect x="87.552" y="6.912" width="364.032" height="286.848"/>
  </clipPath>
 </defs>
</svg>
