<?xml version="1.0" encoding="utf-8" standalone="no"?>
<!DOCTYPE svg PUBLIC "-//W3C//DTD SVG 1.1//EN"
  "http://www.w3.org/Graphics/SVG/1.1/DTD/svg11.dtd">
<svg xmlns:xlink="http://www.w3.org/1999/xlink" width="460.8pt" height="345.6pt" viewBox="0 0 460.8 345.6" xmlns="http://www.w3.org/2000/svg" version="1.1">
 <metadata>
  <rdf:RDF xmlns:dc="http://purl.org/dc/elements/1.1/" xmlns:cc="http://creativecommons.org/ns#" xmlns:rdf="http://www.w3.org/1999/02/22-rdf-syntax-ns#">
   <cc:Work>
    <dc:type rdf:resource="http://purl.org/dc/dcmitype/StillImage"/>
    <dc:date>2024-02-14T09:04:02.358413</dc:date>
    <dc:format>image/svg+xml</dc:format>
    <dc:creator>
     <cc:Agent>
      <dc:title>Matplotlib v3.7.0, https://matplotlib.org/</dc:title>
     </cc:Agent>
    </dc:creator>
   </cc:Work>
  </rdf:RDF>
 </metadata>
 <defs>
  <style type="text/css">*{stroke-linejoin: round; stroke-linecap: butt}</style>
 </defs>
 <g id="figure_1">
  <g id="patch_1">
   <path d="M 0 345.6 
L 460.8 345.6 
L 460.8 0 
L 0 0 
L 0 345.6 
z
" style="fill: none"/>
  </g>
  <g id="axes_1">
   <g id="patch_2">
    <path d="M 87.552 293.76 
L 451.584 293.76 
L 451.584 6.912 
L 87.552 6.912 
L 87.552 293.76 
z
" style="fill: none"/>
   </g>
   <g id="patch_3">
    <path d="M 87.919709 59.776399 
L 90.861382 59.776399 
L 90.861382 48.369973 
L 87.919709 48.369973 
z
" clip-path="url(#pf1aca2cd92)" style="fill: #800000"/>
   </g>
   <g id="patch_4">
    <path d="M 91.5968 77.274127 
L 94.538473 77.274127 
L 94.538473 65.310878 
L 91.5968 65.310878 
z
" clip-path="url(#pf1aca2cd92)" style="fill: #800000"/>
   </g>
   <g id="patch_5">
    <path d="M 95.273891 100.491942 
L 98.215564 100.491942 
L 98.215564 87.415048 
L 95.273891 87.415048 
z
" clip-path="url(#pf1aca2cd92)" style="fill: #800000"/>
   </g>
   <g id="patch_6">
    <path d="M 98.950982 107.291927 
L 101.892655 107.291927 
L 101.892655 97.876563 
L 98.950982 97.876563 
z
" clip-path="url(#pf1aca2cd92)" style="fill: #800000"/>
   </g>
   <g id="patch_7">
    <path d="M 102.628073 128.957387 
L 105.569745 128.957387 
L 105.569745 121.263112 
L 102.628073 121.263112 
z
" clip-path="url(#pf1aca2cd92)" style="fill: #800000"/>
   </g>
   <g id="patch_8">
    <path d="M 106.305164 137.714688 
L 109.246836 137.714688 
L 109.246836 124.637794 
L 106.305164 124.637794 
z
" clip-path="url(#pf1aca2cd92)" style="fill: #800000"/>
   </g>
   <g id="patch_9">
    <path d="M 109.982255 154.250632 
L 112.923927 154.250632 
L 112.923927 144.480926 
L 109.982255 144.480926 
z
" clip-path="url(#pf1aca2cd92)" style="fill: #800000"/>
   </g>
   <g id="patch_10">
    <path d="M 113.659345 166.601969 
L 116.601018 166.601969 
L 116.601018 157.389086 
L 113.659345 157.389086 
z
" clip-path="url(#pf1aca2cd92)" style="fill: #800000"/>
   </g>
   <g id="patch_11">
    <path d="M 117.336436 181.264964 
L 120.278109 181.264964 
L 120.278109 171.782106 
L 117.336436 171.782106 
z
" clip-path="url(#pf1aca2cd92)" style="fill: #800000"/>
   </g>
   <g id="patch_12">
    <path d="M 121.013527 197.66592 
L 123.9552 197.66592 
L 123.9552 188.26743 
L 121.013527 188.26743 
z
" clip-path="url(#pf1aca2cd92)" style="fill: #800000"/>
   </g>
   <g id="patch_13">
    <path d="M 124.690618 206.828183 
L 127.632291 206.828183 
L 127.632291 196.721009 
L 124.690618 196.721009 
z
" clip-path="url(#pf1aca2cd92)" style="fill: #800000"/>
   </g>
   <g id="patch_14">
    <path d="M 128.367709 207.469372 
L 131.309382 207.469372 
L 131.309382 198.020262 
L 128.367709 198.020262 
z
" clip-path="url(#pf1aca2cd92)" style="fill: #800000"/>
   </g>
   <g id="patch_15">
    <path d="M 132.0448 217.677786 
L 134.986473 217.677786 
L 134.986473 210.877801 
L 132.0448 210.877801 
z
" clip-path="url(#pf1aca2cd92)" style="fill: #800000"/>
   </g>
   <g id="patch_16">
    <path d="M 135.721891 209.83165 
L 138.663564 209.83165 
L 138.663564 200.720008 
L 135.721891 200.720008 
z
" clip-path="url(#pf1aca2cd92)" style="fill: #800000"/>
   </g>
   <g id="patch_17">
    <path d="M 139.398982 216.041065 
L 142.340655 216.041065 
L 142.340655 207.688727 
L 139.398982 207.688727 
z
" clip-path="url(#pf1aca2cd92)" style="fill: #800000"/>
   </g>
   <g id="patch_18">
    <path d="M 143.076073 221.474304 
L 146.017745 221.474304 
L 146.017745 212.210801 
L 143.076073 212.210801 
z
" clip-path="url(#pf1aca2cd92)" style="fill: #800000"/>
   </g>
   <g id="patch_19">
    <path d="M 146.753164 224.9671 
L 149.694836 224.9671 
L 149.694836 215.939825 
L 146.753164 215.939825 
z
" clip-path="url(#pf1aca2cd92)" style="fill: #800000"/>
   </g>
   <g id="patch_20">
    <path d="M 150.430255 237.301564 
L 153.371927 237.301564 
L 153.371927 228.831112 
L 150.430255 228.831112 
z
" clip-path="url(#pf1aca2cd92)" style="fill: #800000"/>
   </g>
   <g id="patch_21">
    <path d="M 154.107345 235.833577 
L 157.049018 235.833577 
L 157.049018 227.413745 
L 154.107345 227.413745 
z
" clip-path="url(#pf1aca2cd92)" style="fill: #800000"/>
   </g>
   <g id="patch_22">
    <path d="M 157.784436 236.28916 
L 160.726109 236.28916 
L 160.726109 228.105555 
L 157.784436 228.105555 
z
" clip-path="url(#pf1aca2cd92)" style="fill: #800000"/>
   </g>
   <g id="patch_23">
    <path d="M 161.461527 237.436552 
L 164.4032 237.436552 
L 164.4032 230.265352 
L 161.461527 230.265352 
z
" clip-path="url(#pf1aca2cd92)" style="fill: #800000"/>
   </g>
   <g id="patch_24">
    <path d="M 165.138618 241.638031 
L 168.080291 241.638031 
L 168.080291 233.960629 
L 165.138618 233.960629 
z
" clip-path="url(#pf1aca2cd92)" style="fill: #800000"/>
   </g>
   <g id="patch_25">
    <path d="M 168.815709 233.62316 
L 171.757382 233.62316 
L 171.757382 224.494645 
L 168.815709 224.494645 
z
" clip-path="url(#pf1aca2cd92)" style="fill: #800000"/>
   </g>
   <g id="patch_26">
    <path d="M 172.4928 235.901071 
L 175.434473 235.901071 
L 175.434473 221.963633 
L 172.4928 221.963633 
z
" clip-path="url(#pf1aca2cd92)" style="fill: #800000"/>
   </g>
   <g id="patch_27">
    <path d="M 176.169891 236.997843 
L 179.111564 236.997843 
L 179.111564 229.202327 
L 176.169891 229.202327 
z
" clip-path="url(#pf1aca2cd92)" style="fill: #800000"/>
   </g>
   <g id="patch_28">
    <path d="M 179.846982 238.178982 
L 182.788655 238.178982 
L 182.788655 230.518453 
L 179.846982 230.518453 
z
" clip-path="url(#pf1aca2cd92)" style="fill: #800000"/>
   </g>
   <g id="patch_29">
    <path d="M 183.524073 237.520919 
L 186.465745 237.520919 
L 186.465745 229.202327 
L 183.524073 229.202327 
z
" clip-path="url(#pf1aca2cd92)" style="fill: #800000"/>
   </g>
   <g id="patch_30">
    <path d="M 187.201164 236.306033 
L 190.142836 236.306033 
L 190.142836 228.105555 
L 187.201164 228.105555 
z
" clip-path="url(#pf1aca2cd92)" style="fill: #800000"/>
   </g>
   <g id="patch_31">
    <path d="M 190.878255 236.812235 
L 193.819927 236.812235 
L 193.819927 225.118961 
L 190.878255 225.118961 
z
" clip-path="url(#pf1aca2cd92)" style="fill: #800000"/>
   </g>
   <g id="patch_32">
    <path d="M 194.555345 239.95069 
L 197.497018 239.95069 
L 197.497018 231.733338 
L 194.555345 231.733338 
z
" clip-path="url(#pf1aca2cd92)" style="fill: #800000"/>
   </g>
   <g id="patch_33">
    <path d="M 198.232436 244.050929 
L 201.174109 244.050929 
L 201.174109 230.045997 
L 198.232436 230.045997 
z
" clip-path="url(#pf1aca2cd92)" style="fill: #800000"/>
   </g>
   <g id="patch_34">
    <path d="M 201.909527 248.50551 
L 204.8512 248.50551 
L 204.8512 241.604284 
L 201.909527 241.604284 
z
" clip-path="url(#pf1aca2cd92)" style="fill: #800000"/>
   </g>
   <g id="patch_35">
    <path d="M 205.586618 230.670313 
L 208.528291 230.670313 
L 208.528291 222.182987 
L 205.586618 222.182987 
z
" clip-path="url(#pf1aca2cd92)" style="fill: #800000"/>
   </g>
   <g id="patch_36">
    <path d="M 209.263709 227.04253 
L 212.205382 227.04253 
L 212.205382 212.902611 
L 209.263709 212.902611 
z
" clip-path="url(#pf1aca2cd92)" style="fill: #800000"/>
   </g>
   <g id="patch_37">
    <path d="M 212.9408 245.552663 
L 215.882473 245.552663 
L 215.882473 239.005779 
L 212.9408 239.005779 
z
" clip-path="url(#pf1aca2cd92)" style="fill: #800000"/>
   </g>
   <g id="patch_38">
    <path d="M 216.617891 236.474767 
L 219.559564 236.474767 
L 219.559564 227.717466 
L 216.617891 227.717466 
z
" clip-path="url(#pf1aca2cd92)" style="fill: #800000"/>
   </g>
   <g id="patch_39">
    <path d="M 220.294982 231.969566 
L 223.236655 231.969566 
L 223.236655 216.125432 
L 220.294982 216.125432 
z
" clip-path="url(#pf1aca2cd92)" style="fill: #800000"/>
   </g>
   <g id="patch_40">
    <path d="M 223.972073 237.200324 
L 226.913745 237.200324 
L 226.913745 229.11796 
L 223.972073 229.11796 
z
" clip-path="url(#pf1aca2cd92)" style="fill: #800000"/>
   </g>
   <g id="patch_41">
    <path d="M 227.649164 242.161107 
L 230.590836 242.161107 
L 230.590836 234.129363 
L 227.649164 234.129363 
z
" clip-path="url(#pf1aca2cd92)" style="fill: #800000"/>
   </g>
   <g id="patch_42">
    <path d="M 231.326255 236.677248 
L 234.267927 236.677248 
L 234.267927 229.016719 
L 231.326255 229.016719 
z
" clip-path="url(#pf1aca2cd92)" style="fill: #800000"/>
   </g>
   <g id="patch_43">
    <path d="M 235.003345 221.119962 
L 237.945018 221.119962 
L 237.945018 211.805839 
L 235.003345 211.805839 
z
" clip-path="url(#pf1aca2cd92)" style="fill: #800000"/>
   </g>
   <g id="patch_44">
    <path d="M 238.680436 230.079744 
L 241.622109 230.079744 
L 241.622109 219.398874 
L 238.680436 219.398874 
z
" clip-path="url(#pf1aca2cd92)" style="fill: #800000"/>
   </g>
   <g id="patch_45">
    <path d="M 242.357527 235.344248 
L 245.2992 235.344248 
L 245.2992 219.888203 
L 242.357527 219.888203 
z
" clip-path="url(#pf1aca2cd92)" style="fill: #800000"/>
   </g>
   <g id="patch_46">
    <path d="M 246.034618 232.610756 
L 248.976291 232.610756 
L 248.976291 224.562138 
L 246.034618 224.562138 
z
" clip-path="url(#pf1aca2cd92)" style="fill: #800000"/>
   </g>
   <g id="patch_47">
    <path d="M 249.711709 230.417212 
L 252.653382 230.417212 
L 252.653382 222.469835 
L 249.711709 222.469835 
z
" clip-path="url(#pf1aca2cd92)" style="fill: #800000"/>
   </g>
   <g id="patch_48">
    <path d="M 253.3888 234.888666 
L 256.330473 234.888666 
L 256.330473 218.555204 
L 253.3888 218.555204 
z
" clip-path="url(#pf1aca2cd92)" style="fill: #800000"/>
   </g>
   <g id="patch_49">
    <path d="M 257.065891 236.103552 
L 260.007564 236.103552 
L 260.007564 227.869327 
L 257.065891 227.869327 
z
" clip-path="url(#pf1aca2cd92)" style="fill: #800000"/>
   </g>
   <g id="patch_50">
    <path d="M 260.742982 230.940288 
L 263.684655 230.940288 
L 263.684655 212.362662 
L 260.742982 212.362662 
z
" clip-path="url(#pf1aca2cd92)" style="fill: #800000"/>
   </g>
   <g id="patch_51">
    <path d="M 264.420073 237.757146 
L 267.361745 237.757146 
L 267.361745 228.122428 
L 264.420073 228.122428 
z
" clip-path="url(#pf1aca2cd92)" style="fill: #800000"/>
   </g>
   <g id="patch_52">
    <path d="M 268.097164 236.744742 
L 271.038836 236.744742 
L 271.038836 228.392403 
L 268.097164 228.392403 
z
" clip-path="url(#pf1aca2cd92)" style="fill: #800000"/>
   </g>
   <g id="patch_53">
    <path d="M 271.774255 231.244009 
L 274.715927 231.244009 
L 274.715927 222.452962 
L 271.774255 222.452962 
z
" clip-path="url(#pf1aca2cd92)" style="fill: #800000"/>
   </g>
   <g id="patch_54">
    <path d="M 275.451345 234.686185 
L 278.393018 234.686185 
L 278.393018 218.43709 
L 275.451345 218.43709 
z
" clip-path="url(#pf1aca2cd92)" style="fill: #800000"/>
   </g>
   <g id="patch_55">
    <path d="M 279.128436 236.913476 
L 282.070109 236.913476 
L 282.070109 226.586948 
L 279.128436 226.586948 
z
" clip-path="url(#pf1aca2cd92)" style="fill: #800000"/>
   </g>
   <g id="patch_56">
    <path d="M 282.805527 225.726404 
L 285.7472 225.726404 
L 285.7472 211.687725 
L 282.805527 211.687725 
z
" clip-path="url(#pf1aca2cd92)" style="fill: #800000"/>
   </g>
   <g id="patch_57">
    <path d="M 286.482618 239.849449 
L 289.424291 239.849449 
L 289.424291 231.851452 
L 286.482618 231.851452 
z
" clip-path="url(#pf1aca2cd92)" style="fill: #800000"/>
   </g>
   <g id="patch_58">
    <path d="M 290.159709 238.162108 
L 293.101382 238.162108 
L 293.101382 223.904075 
L 290.159709 223.904075 
z
" clip-path="url(#pf1aca2cd92)" style="fill: #800000"/>
   </g>
   <g id="patch_59">
    <path d="M 293.8368 238.600817 
L 296.778473 238.600817 
L 296.778473 230.417212 
L 293.8368 230.417212 
z
" clip-path="url(#pf1aca2cd92)" style="fill: #800000"/>
   </g>
   <g id="patch_60">
    <path d="M 297.513891 242.515448 
L 300.455564 242.515448 
L 300.455564 235.0574 
L 297.513891 235.0574 
z
" clip-path="url(#pf1aca2cd92)" style="fill: #800000"/>
   </g>
   <g id="patch_61">
    <path d="M 301.190982 232.644503 
L 304.132655 232.644503 
L 304.132655 217.205331 
L 301.190982 217.205331 
z
" clip-path="url(#pf1aca2cd92)" style="fill: #800000"/>
   </g>
   <g id="patch_62">
    <path d="M 304.868073 234.804299 
L 307.809745 234.804299 
L 307.809745 225.878264 
L 304.868073 225.878264 
z
" clip-path="url(#pf1aca2cd92)" style="fill: #800000"/>
   </g>
   <g id="patch_63">
    <path d="M 308.545164 230.60282 
L 311.486836 230.60282 
L 311.486836 213.780028 
L 308.545164 213.780028 
z
" clip-path="url(#pf1aca2cd92)" style="fill: #800000"/>
   </g>
   <g id="patch_64">
    <path d="M 312.222255 236.306033 
L 315.163927 236.306033 
L 315.163927 227.970568 
L 312.222255 227.970568 
z
" clip-path="url(#pf1aca2cd92)" style="fill: #800000"/>
   </g>
   <g id="patch_65">
    <path d="M 315.899345 232.627629 
L 318.841018 232.627629 
L 318.841018 218.43709 
L 315.899345 218.43709 
z
" clip-path="url(#pf1aca2cd92)" style="fill: #800000"/>
   </g>
   <g id="patch_66">
    <path d="M 319.576436 231.362123 
L 322.518109 231.362123 
L 322.518109 222.976038 
L 319.576436 222.976038 
z
" clip-path="url(#pf1aca2cd92)" style="fill: #800000"/>
   </g>
   <g id="patch_67">
    <path d="M 323.253527 230.450959 
L 326.1952 230.450959 
L 326.1952 216.648508 
L 323.253527 216.648508 
z
" clip-path="url(#pf1aca2cd92)" style="fill: #800000"/>
   </g>
   <g id="patch_68">
    <path d="M 326.930618 232.914477 
L 329.872291 232.914477 
L 329.872291 224.410278 
L 326.930618 224.410278 
z
" clip-path="url(#pf1aca2cd92)" style="fill: #800000"/>
   </g>
   <g id="patch_69">
    <path d="M 330.607709 224.258417 
L 333.549382 224.258417 
L 333.549382 213.661914 
L 330.607709 213.661914 
z
" clip-path="url(#pf1aca2cd92)" style="fill: #800000"/>
   </g>
   <g id="patch_70">
    <path d="M 334.2848 233.62316 
L 337.226473 233.62316 
L 337.226473 222.469835 
L 334.2848 222.469835 
z
" clip-path="url(#pf1aca2cd92)" style="fill: #800000"/>
   </g>
   <g id="patch_71">
    <path d="M 337.961891 237.250944 
L 340.903564 237.250944 
L 340.903564 222.031127 
L 337.961891 222.031127 
z
" clip-path="url(#pf1aca2cd92)" style="fill: #800000"/>
   </g>
   <g id="patch_72">
    <path d="M 341.638982 235.175514 
L 344.580655 235.175514 
L 344.580655 227.363125 
L 341.638982 227.363125 
z
" clip-path="url(#pf1aca2cd92)" style="fill: #800000"/>
   </g>
   <g id="patch_73">
    <path d="M 345.316073 229.067339 
L 348.257745 229.067339 
L 348.257745 217.137837 
L 345.316073 217.137837 
z
" clip-path="url(#pf1aca2cd92)" style="fill: #800000"/>
   </g>
   <g id="patch_74">
    <path d="M 348.993164 233.454426 
L 351.934836 233.454426 
L 351.934836 219.432621 
L 348.993164 219.432621 
z
" clip-path="url(#pf1aca2cd92)" style="fill: #800000"/>
   </g>
   <g id="patch_75">
    <path d="M 352.670255 234.348717 
L 355.611927 234.348717 
L 355.611927 224.494645 
L 352.670255 224.494645 
z
" clip-path="url(#pf1aca2cd92)" style="fill: #800000"/>
   </g>
   <g id="patch_76">
    <path d="M 356.347345 231.328376 
L 359.289018 231.328376 
L 359.289018 223.701594 
L 356.347345 223.701594 
z
" clip-path="url(#pf1aca2cd92)" style="fill: #800000"/>
   </g>
   <g id="patch_77">
    <path d="M 360.024436 235.69859 
L 362.966109 235.69859 
L 362.966109 220.428152 
L 360.024436 220.428152 
z
" clip-path="url(#pf1aca2cd92)" style="fill: #800000"/>
   </g>
   <g id="patch_78">
    <path d="M 363.701527 243.578473 
L 366.6432 243.578473 
L 366.6432 235.192388 
L 363.701527 235.192388 
z
" clip-path="url(#pf1aca2cd92)" style="fill: #800000"/>
   </g>
   <g id="patch_79">
    <path d="M 367.378618 232.458895 
L 370.320291 232.458895 
L 370.320291 225.642037 
L 367.378618 225.642037 
z
" clip-path="url(#pf1aca2cd92)" style="fill: #800000"/>
   </g>
   <g id="patch_80">
    <path d="M 371.055709 233.302566 
L 373.997382 233.302566 
L 373.997382 225.068341 
L 371.055709 225.068341 
z
" clip-path="url(#pf1aca2cd92)" style="fill: #800000"/>
   </g>
   <g id="patch_81">
    <path d="M 374.7328 232.846984 
L 377.674473 232.846984 
L 377.674473 222.031127 
L 374.7328 222.031127 
z
" clip-path="url(#pf1aca2cd92)" style="fill: #800000"/>
   </g>
   <g id="patch_82">
    <path d="M 378.409891 237.149704 
L 381.351564 237.149704 
L 381.351564 229.404808 
L 378.409891 229.404808 
z
" clip-path="url(#pf1aca2cd92)" style="fill: #800000"/>
   </g>
   <g id="patch_83">
    <path d="M 382.086982 241.503044 
L 385.028655 241.503044 
L 385.028655 233.926882 
L 382.086982 233.926882 
z
" clip-path="url(#pf1aca2cd92)" style="fill: #800000"/>
   </g>
   <g id="patch_84">
    <path d="M 385.764073 235.867324 
L 388.705745 235.867324 
L 388.705745 227.211264 
L 385.764073 227.211264 
z
" clip-path="url(#pf1aca2cd92)" style="fill: #800000"/>
   </g>
   <g id="patch_85">
    <path d="M 389.441164 234.888666 
L 392.382836 234.888666 
L 392.382836 226.485707 
L 389.441164 226.485707 
z
" clip-path="url(#pf1aca2cd92)" style="fill: #800000"/>
   </g>
   <g id="patch_86">
    <path d="M 393.118255 229.725402 
L 396.059927 229.725402 
L 396.059927 221.35619 
L 393.118255 221.35619 
z
" clip-path="url(#pf1aca2cd92)" style="fill: #800000"/>
   </g>
   <g id="patch_87">
    <path d="M 396.795345 227.514985 
L 399.737018 227.514985 
L 399.737018 218.150242 
L 396.795345 218.150242 
z
" clip-path="url(#pf1aca2cd92)" style="fill: #800000"/>
   </g>
   <g id="patch_88">
    <path d="M 400.472436 240.558133 
L 403.414109 240.558133 
L 403.414109 232.897604 
L 400.472436 232.897604 
z
" clip-path="url(#pf1aca2cd92)" style="fill: #800000"/>
   </g>
   <g id="patch_89">
    <path d="M 404.149527 239.25888 
L 407.0912 239.25888 
L 407.0912 231.648971 
L 404.149527 231.648971 
z
" clip-path="url(#pf1aca2cd92)" style="fill: #800000"/>
   </g>
   <g id="patch_90">
    <path d="M 407.826618 237.537792 
L 410.768291 237.537792 
L 410.768291 229.708529 
L 407.826618 229.708529 
z
" clip-path="url(#pf1aca2cd92)" style="fill: #800000"/>
   </g>
   <g id="patch_91">
    <path d="M 411.503709 233.656907 
L 414.445382 233.656907 
L 414.445382 226.165112 
L 411.503709 226.165112 
z
" clip-path="url(#pf1aca2cd92)" style="fill: #800000"/>
   </g>
   <g id="patch_92">
    <path d="M 415.1808 234.871793 
L 418.122473 234.871793 
L 418.122473 227.160644 
L 415.1808 227.160644 
z
" clip-path="url(#pf1aca2cd92)" style="fill: #800000"/>
   </g>
   <g id="patch_93">
    <path d="M 418.857891 235.209261 
L 421.799564 235.209261 
L 421.799564 228.173048 
L 418.857891 228.173048 
z
" clip-path="url(#pf1aca2cd92)" style="fill: #800000"/>
   </g>
   <g id="patch_94">
    <path d="M 422.534982 229.404808 
L 425.476655 229.404808 
L 425.476655 219.989444 
L 422.534982 219.989444 
z
" clip-path="url(#pf1aca2cd92)" style="fill: #800000"/>
   </g>
   <g id="patch_95">
    <path d="M 426.212073 229.539795 
L 429.153745 229.539795 
L 429.153745 221.018722 
L 426.212073 221.018722 
z
" clip-path="url(#pf1aca2cd92)" style="fill: #800000"/>
   </g>
   <g id="patch_96">
    <path d="M 429.889164 236.3904 
L 432.830836 236.3904 
L 432.830836 228.071808 
L 429.889164 228.071808 
z
" clip-path="url(#pf1aca2cd92)" style="fill: #800000"/>
   </g>
   <g id="patch_97">
    <path d="M 433.566255 234.028122 
L 436.507927 234.028122 
L 436.507927 221.592418 
L 433.566255 221.592418 
z
" clip-path="url(#pf1aca2cd92)" style="fill: #800000"/>
   </g>
   <g id="patch_98">
    <path d="M 437.243345 246.244472 
L 440.185018 246.244472 
L 440.185018 239.866323 
L 437.243345 239.866323 
z
" clip-path="url(#pf1aca2cd92)" style="fill: #800000"/>
   </g>
   <g id="patch_99">
    <path d="M 440.920436 233.268819 
L 443.862109 233.268819 
L 443.862109 216.766622 
L 440.920436 216.766622 
z
" clip-path="url(#pf1aca2cd92)" style="fill: #800000"/>
   </g>
   <g id="patch_100">
    <path d="M 444.597527 241.857385 
L 447.5392 241.857385 
L 447.5392 234.365591 
L 444.597527 234.365591 
z
" clip-path="url(#pf1aca2cd92)" style="fill: #800000"/>
   </g>
   <g id="patch_101">
    <path d="M 448.274618 236.28916 
L 451.216291 236.28916 
L 451.216291 228.459896 
L 448.274618 228.459896 
z
" clip-path="url(#pf1aca2cd92)" style="fill: #800000"/>
   </g>
   <g id="patch_102">
    <path d="M 87.919709 113.872557 
L 90.861382 113.872557 
L 90.861382 59.776399 
L 87.919709 59.776399 
z
" clip-path="url(#pf1aca2cd92)" style="fill: #a52a2a"/>
   </g>
   <g id="patch_103">
    <path d="M 91.5968 135.082436 
L 94.538473 135.082436 
L 94.538473 77.274127 
L 91.5968 77.274127 
z
" clip-path="url(#pf1aca2cd92)" style="fill: #a52a2a"/>
   </g>
   <g id="patch_104">
    <path d="M 95.273891 148.581165 
L 98.215564 148.581165 
L 98.215564 100.491942 
L 95.273891 100.491942 
z
" clip-path="url(#pf1aca2cd92)" style="fill: #a52a2a"/>
   </g>
   <g id="patch_105">
    <path d="M 98.950982 165.032742 
L 101.892655 165.032742 
L 101.892655 107.291927 
L 98.950982 107.291927 
z
" clip-path="url(#pf1aca2cd92)" style="fill: #a52a2a"/>
   </g>
   <g id="patch_106">
    <path d="M 102.628073 179.493256 
L 105.569745 179.493256 
L 105.569745 128.957387 
L 102.628073 128.957387 
z
" clip-path="url(#pf1aca2cd92)" style="fill: #a52a2a"/>
   </g>
   <g id="patch_107">
    <path d="M 106.305164 195.185528 
L 109.246836 195.185528 
L 109.246836 137.714688 
L 106.305164 137.714688 
z
" clip-path="url(#pf1aca2cd92)" style="fill: #a52a2a"/>
   </g>
   <g id="patch_108">
    <path d="M 109.982255 209.83165 
L 112.923927 209.83165 
L 112.923927 154.250632 
L 109.982255 154.250632 
z
" clip-path="url(#pf1aca2cd92)" style="fill: #a52a2a"/>
   </g>
   <g id="patch_109">
    <path d="M 113.659345 224.309037 
L 116.601018 224.309037 
L 116.601018 166.601969 
L 113.659345 166.601969 
z
" clip-path="url(#pf1aca2cd92)" style="fill: #a52a2a"/>
   </g>
   <g id="patch_110">
    <path d="M 117.336436 239.073272 
L 120.278109 239.073272 
L 120.278109 181.264964 
L 117.336436 181.264964 
z
" clip-path="url(#pf1aca2cd92)" style="fill: #a52a2a"/>
   </g>
   <g id="patch_111">
    <path d="M 121.013527 255.322368 
L 123.9552 255.322368 
L 123.9552 197.66592 
L 121.013527 197.66592 
z
" clip-path="url(#pf1aca2cd92)" style="fill: #a52a2a"/>
   </g>
   <g id="patch_112">
    <path d="M 124.690618 264.33277 
L 127.632291 264.33277 
L 127.632291 206.828183 
L 124.690618 206.828183 
z
" clip-path="url(#pf1aca2cd92)" style="fill: #a52a2a"/>
   </g>
   <g id="patch_113">
    <path d="M 128.367709 265.311428 
L 131.309382 265.311428 
L 131.309382 207.469372 
L 128.367709 207.469372 
z
" clip-path="url(#pf1aca2cd92)" style="fill: #a52a2a"/>
   </g>
   <g id="patch_114">
    <path d="M 132.0448 267.639959 
L 134.986473 267.639959 
L 134.986473 217.677786 
L 132.0448 217.677786 
z
" clip-path="url(#pf1aca2cd92)" style="fill: #a52a2a"/>
   </g>
   <g id="patch_115">
    <path d="M 135.721891 267.319364 
L 138.663564 267.319364 
L 138.663564 209.83165 
L 135.721891 209.83165 
z
" clip-path="url(#pf1aca2cd92)" style="fill: #a52a2a"/>
   </g>
   <g id="patch_116">
    <path d="M 139.398982 269.057325 
L 142.340655 269.057325 
L 142.340655 216.041065 
L 139.398982 216.041065 
z
" clip-path="url(#pf1aca2cd92)" style="fill: #a52a2a"/>
   </g>
   <g id="patch_117">
    <path d="M 143.076073 269.698515 
L 146.017745 269.698515 
L 146.017745 221.474304 
L 143.076073 221.474304 
z
" clip-path="url(#pf1aca2cd92)" style="fill: #a52a2a"/>
   </g>
   <g id="patch_118">
    <path d="M 146.753164 269.732262 
L 149.694836 269.732262 
L 149.694836 224.9671 
L 146.753164 224.9671 
z
" clip-path="url(#pf1aca2cd92)" style="fill: #a52a2a"/>
   </g>
   <g id="patch_119">
    <path d="M 150.430255 270.525312 
L 153.371927 270.525312 
L 153.371927 237.301564 
L 150.430255 237.301564 
z
" clip-path="url(#pf1aca2cd92)" style="fill: #a52a2a"/>
   </g>
   <g id="patch_120">
    <path d="M 154.107345 269.293553 
L 157.049018 269.293553 
L 157.049018 235.833577 
L 154.107345 235.833577 
z
" clip-path="url(#pf1aca2cd92)" style="fill: #a52a2a"/>
   </g>
   <g id="patch_121">
    <path d="M 157.784436 270.339704 
L 160.726109 270.339704 
L 160.726109 236.28916 
L 157.784436 236.28916 
z
" clip-path="url(#pf1aca2cd92)" style="fill: #a52a2a"/>
   </g>
   <g id="patch_122">
    <path d="M 161.461527 269.394793 
L 164.4032 269.394793 
L 164.4032 237.436552 
L 161.461527 237.436552 
z
" clip-path="url(#pf1aca2cd92)" style="fill: #a52a2a"/>
   </g>
   <g id="patch_123">
    <path d="M 165.138618 270.660299 
L 168.080291 270.660299 
L 168.080291 241.638031 
L 165.138618 241.638031 
z
" clip-path="url(#pf1aca2cd92)" style="fill: #a52a2a"/>
   </g>
   <g id="patch_124">
    <path d="M 168.815709 268.804224 
L 171.757382 268.804224 
L 171.757382 233.62316 
L 168.815709 233.62316 
z
" clip-path="url(#pf1aca2cd92)" style="fill: #a52a2a"/>
   </g>
   <g id="patch_125">
    <path d="M 172.4928 269.445414 
L 175.434473 269.445414 
L 175.434473 235.901071 
L 172.4928 235.901071 
z
" clip-path="url(#pf1aca2cd92)" style="fill: #a52a2a"/>
   </g>
   <g id="patch_126">
    <path d="M 176.169891 269.040452 
L 179.111564 269.040452 
L 179.111564 236.997843 
L 176.169891 236.997843 
z
" clip-path="url(#pf1aca2cd92)" style="fill: #a52a2a"/>
   </g>
   <g id="patch_127">
    <path d="M 179.846982 271.200248 
L 182.788655 271.200248 
L 182.788655 238.178982 
L 179.846982 238.178982 
z
" clip-path="url(#pf1aca2cd92)" style="fill: #a52a2a"/>
   </g>
   <g id="patch_128">
    <path d="M 183.524073 271.082135 
L 186.465745 271.082135 
L 186.465745 237.520919 
L 183.524073 237.520919 
z
" clip-path="url(#pf1aca2cd92)" style="fill: #a52a2a"/>
   </g>
   <g id="patch_129">
    <path d="M 187.201164 270.542185 
L 190.142836 270.542185 
L 190.142836 236.306033 
L 187.201164 236.306033 
z
" clip-path="url(#pf1aca2cd92)" style="fill: #a52a2a"/>
   </g>
   <g id="patch_130">
    <path d="M 190.878255 270.322831 
L 193.819927 270.322831 
L 193.819927 236.812235 
L 190.878255 236.812235 
z
" clip-path="url(#pf1aca2cd92)" style="fill: #a52a2a"/>
   </g>
   <g id="patch_131">
    <path d="M 194.555345 270.086603 
L 197.497018 270.086603 
L 197.497018 239.95069 
L 194.555345 239.95069 
z
" clip-path="url(#pf1aca2cd92)" style="fill: #a52a2a"/>
   </g>
   <g id="patch_132">
    <path d="M 198.232436 271.048388 
L 201.174109 271.048388 
L 201.174109 244.050929 
L 198.232436 244.050929 
z
" clip-path="url(#pf1aca2cd92)" style="fill: #a52a2a"/>
   </g>
   <g id="patch_133">
    <path d="M 201.909527 271.031514 
L 204.8512 271.031514 
L 204.8512 248.50551 
L 201.909527 248.50551 
z
" clip-path="url(#pf1aca2cd92)" style="fill: #a52a2a"/>
   </g>
   <g id="patch_134">
    <path d="M 205.586618 270.137224 
L 208.528291 270.137224 
L 208.528291 230.670313 
L 205.586618 230.670313 
z
" clip-path="url(#pf1aca2cd92)" style="fill: #a52a2a"/>
   </g>
   <g id="patch_135">
    <path d="M 209.263709 271.402729 
L 212.205382 271.402729 
L 212.205382 227.04253 
L 209.263709 227.04253 
z
" clip-path="url(#pf1aca2cd92)" style="fill: #a52a2a"/>
   </g>
   <g id="patch_136">
    <path d="M 212.9408 271.436476 
L 215.882473 271.436476 
L 215.882473 245.552663 
L 212.9408 245.552663 
z
" clip-path="url(#pf1aca2cd92)" style="fill: #a52a2a"/>
   </g>
   <g id="patch_137">
    <path d="M 216.617891 269.867249 
L 219.559564 269.867249 
L 219.559564 236.474767 
L 216.617891 236.474767 
z
" clip-path="url(#pf1aca2cd92)" style="fill: #a52a2a"/>
   </g>
   <g id="patch_138">
    <path d="M 220.294982 270.744666 
L 223.236655 270.744666 
L 223.236655 231.969566 
L 220.294982 231.969566 
z
" clip-path="url(#pf1aca2cd92)" style="fill: #a52a2a"/>
   </g>
   <g id="patch_139">
    <path d="M 223.972073 270.778413 
L 226.913745 270.778413 
L 226.913745 237.200324 
L 223.972073 237.200324 
z
" clip-path="url(#pf1aca2cd92)" style="fill: #a52a2a"/>
   </g>
   <g id="patch_140">
    <path d="M 227.649164 271.60521 
L 230.590836 271.60521 
L 230.590836 242.161107 
L 227.649164 242.161107 
z
" clip-path="url(#pf1aca2cd92)" style="fill: #a52a2a"/>
   </g>
   <g id="patch_141">
    <path d="M 231.326255 270.845907 
L 234.267927 270.845907 
L 234.267927 236.677248 
L 231.326255 236.677248 
z
" clip-path="url(#pf1aca2cd92)" style="fill: #a52a2a"/>
   </g>
   <g id="patch_142">
    <path d="M 235.003345 270.508439 
L 237.945018 270.508439 
L 237.945018 221.119962 
L 235.003345 221.119962 
z
" clip-path="url(#pf1aca2cd92)" style="fill: #a52a2a"/>
   </g>
   <g id="patch_143">
    <path d="M 238.680436 270.86278 
L 241.622109 270.86278 
L 241.622109 230.079744 
L 238.680436 230.079744 
z
" clip-path="url(#pf1aca2cd92)" style="fill: #a52a2a"/>
   </g>
   <g id="patch_144">
    <path d="M 242.357527 271.571464 
L 245.2992 271.571464 
L 245.2992 235.344248 
L 242.357527 235.344248 
z
" clip-path="url(#pf1aca2cd92)" style="fill: #a52a2a"/>
   </g>
   <g id="patch_145">
    <path d="M 246.034618 270.559059 
L 248.976291 270.559059 
L 248.976291 232.610756 
L 246.034618 232.610756 
z
" clip-path="url(#pf1aca2cd92)" style="fill: #a52a2a"/>
   </g>
   <g id="patch_146">
    <path d="M 249.711709 270.06973 
L 252.653382 270.06973 
L 252.653382 230.417212 
L 249.711709 230.417212 
z
" clip-path="url(#pf1aca2cd92)" style="fill: #a52a2a"/>
   </g>
   <g id="patch_147">
    <path d="M 253.3888 270.643426 
L 256.330473 270.643426 
L 256.330473 234.888666 
L 253.3888 234.888666 
z
" clip-path="url(#pf1aca2cd92)" style="fill: #a52a2a"/>
   </g>
   <g id="patch_148">
    <path d="M 257.065891 268.146161 
L 260.007564 268.146161 
L 260.007564 236.103552 
L 257.065891 236.103552 
z
" clip-path="url(#pf1aca2cd92)" style="fill: #a52a2a"/>
   </g>
   <g id="patch_149">
    <path d="M 260.742982 260.097544 
L 263.684655 260.097544 
L 263.684655 230.940288 
L 260.742982 230.940288 
z
" clip-path="url(#pf1aca2cd92)" style="fill: #a52a2a"/>
   </g>
   <g id="patch_150">
    <path d="M 264.420073 270.187844 
L 267.361745 270.187844 
L 267.361745 237.757146 
L 264.420073 237.757146 
z
" clip-path="url(#pf1aca2cd92)" style="fill: #a52a2a"/>
   </g>
   <g id="patch_151">
    <path d="M 268.097164 270.187844 
L 271.038836 270.187844 
L 271.038836 236.744742 
L 268.097164 236.744742 
z
" clip-path="url(#pf1aca2cd92)" style="fill: #a52a2a"/>
   </g>
   <g id="patch_152">
    <path d="M 271.774255 270.744666 
L 274.715927 270.744666 
L 274.715927 231.244009 
L 271.774255 231.244009 
z
" clip-path="url(#pf1aca2cd92)" style="fill: #a52a2a"/>
   </g>
   <g id="patch_153">
    <path d="M 275.451345 269.850376 
L 278.393018 269.850376 
L 278.393018 234.686185 
L 275.451345 234.686185 
z
" clip-path="url(#pf1aca2cd92)" style="fill: #a52a2a"/>
   </g>
   <g id="patch_154">
    <path d="M 279.128436 268.264275 
L 282.070109 268.264275 
L 282.070109 236.913476 
L 279.128436 236.913476 
z
" clip-path="url(#pf1aca2cd92)" style="fill: #a52a2a"/>
   </g>
   <g id="patch_155">
    <path d="M 282.805527 270.559059 
L 285.7472 270.559059 
L 285.7472 225.726404 
L 282.805527 225.726404 
z
" clip-path="url(#pf1aca2cd92)" style="fill: #a52a2a"/>
   </g>
   <g id="patch_156">
    <path d="M 286.482618 270.71092 
L 289.424291 270.71092 
L 289.424291 239.849449 
L 286.482618 239.849449 
z
" clip-path="url(#pf1aca2cd92)" style="fill: #a52a2a"/>
   </g>
   <g id="patch_157">
    <path d="M 290.159709 271.250869 
L 293.101382 271.250869 
L 293.101382 238.162108 
L 290.159709 238.162108 
z
" clip-path="url(#pf1aca2cd92)" style="fill: #a52a2a"/>
   </g>
   <g id="patch_158">
    <path d="M 293.8368 270.508439 
L 296.778473 270.508439 
L 296.778473 238.600817 
L 293.8368 238.600817 
z
" clip-path="url(#pf1aca2cd92)" style="fill: #a52a2a"/>
   </g>
   <g id="patch_159">
    <path d="M 297.513891 270.086603 
L 300.455564 270.086603 
L 300.455564 242.515448 
L 297.513891 242.515448 
z
" clip-path="url(#pf1aca2cd92)" style="fill: #a52a2a"/>
   </g>
   <g id="patch_160">
    <path d="M 301.190982 270.964021 
L 304.132655 270.964021 
L 304.132655 232.644503 
L 301.190982 232.644503 
z
" clip-path="url(#pf1aca2cd92)" style="fill: #a52a2a"/>
   </g>
   <g id="patch_161">
    <path d="M 304.868073 271.183375 
L 307.809745 271.183375 
L 307.809745 234.804299 
L 304.868073 234.804299 
z
" clip-path="url(#pf1aca2cd92)" style="fill: #a52a2a"/>
   </g>
   <g id="patch_162">
    <path d="M 308.545164 269.698515 
L 311.486836 269.698515 
L 311.486836 230.60282 
L 308.545164 230.60282 
z
" clip-path="url(#pf1aca2cd92)" style="fill: #a52a2a"/>
   </g>
   <g id="patch_163">
    <path d="M 312.222255 269.192312 
L 315.163927 269.192312 
L 315.163927 236.306033 
L 312.222255 236.306033 
z
" clip-path="url(#pf1aca2cd92)" style="fill: #a52a2a"/>
   </g>
   <g id="patch_164">
    <path d="M 315.899345 271.824565 
L 318.841018 271.824565 
L 318.841018 232.627629 
L 315.899345 232.627629 
z
" clip-path="url(#pf1aca2cd92)" style="fill: #a52a2a"/>
   </g>
   <g id="patch_165">
    <path d="M 319.576436 270.322831 
L 322.518109 270.322831 
L 322.518109 231.362123 
L 319.576436 231.362123 
z
" clip-path="url(#pf1aca2cd92)" style="fill: #a52a2a"/>
   </g>
   <g id="patch_166">
    <path d="M 323.253527 270.339704 
L 326.1952 270.339704 
L 326.1952 230.450959 
L 323.253527 230.450959 
z
" clip-path="url(#pf1aca2cd92)" style="fill: #a52a2a"/>
   </g>
   <g id="patch_167">
    <path d="M 326.930618 270.103477 
L 329.872291 270.103477 
L 329.872291 232.914477 
L 326.930618 232.914477 
z
" clip-path="url(#pf1aca2cd92)" style="fill: #a52a2a"/>
   </g>
   <g id="patch_168">
    <path d="M 330.607709 270.575932 
L 333.549382 270.575932 
L 333.549382 224.258417 
L 330.607709 224.258417 
z
" clip-path="url(#pf1aca2cd92)" style="fill: #a52a2a"/>
   </g>
   <g id="patch_169">
    <path d="M 334.2848 270.71092 
L 337.226473 270.71092 
L 337.226473 233.62316 
L 334.2848 233.62316 
z
" clip-path="url(#pf1aca2cd92)" style="fill: #a52a2a"/>
   </g>
   <g id="patch_170">
    <path d="M 337.961891 270.980894 
L 340.903564 270.980894 
L 340.903564 237.250944 
L 337.961891 237.250944 
z
" clip-path="url(#pf1aca2cd92)" style="fill: #a52a2a"/>
   </g>
   <g id="patch_171">
    <path d="M 341.638982 269.563528 
L 344.580655 269.563528 
L 344.580655 235.175514 
L 341.638982 235.175514 
z
" clip-path="url(#pf1aca2cd92)" style="fill: #a52a2a"/>
   </g>
   <g id="patch_172">
    <path d="M 345.316073 267.960553 
L 348.257745 267.960553 
L 348.257745 229.067339 
L 345.316073 229.067339 
z
" clip-path="url(#pf1aca2cd92)" style="fill: #a52a2a"/>
   </g>
   <g id="patch_173">
    <path d="M 348.993164 269.27668 
L 351.934836 269.27668 
L 351.934836 233.454426 
L 348.993164 233.454426 
z
" clip-path="url(#pf1aca2cd92)" style="fill: #a52a2a"/>
   </g>
   <g id="patch_174">
    <path d="M 352.670255 269.37792 
L 355.611927 269.37792 
L 355.611927 234.348717 
L 352.670255 234.348717 
z
" clip-path="url(#pf1aca2cd92)" style="fill: #a52a2a"/>
   </g>
   <g id="patch_175">
    <path d="M 356.347345 270.086603 
L 359.289018 270.086603 
L 359.289018 231.328376 
L 356.347345 231.328376 
z
" clip-path="url(#pf1aca2cd92)" style="fill: #a52a2a"/>
   </g>
   <g id="patch_176">
    <path d="M 360.024436 271.183375 
L 362.966109 271.183375 
L 362.966109 235.69859 
L 360.024436 235.69859 
z
" clip-path="url(#pf1aca2cd92)" style="fill: #a52a2a"/>
   </g>
   <g id="patch_177">
    <path d="M 363.701527 270.81216 
L 366.6432 270.81216 
L 366.6432 243.578473 
L 363.701527 243.578473 
z
" clip-path="url(#pf1aca2cd92)" style="fill: #a52a2a"/>
   </g>
   <g id="patch_178">
    <path d="M 367.378618 264.43401 
L 370.320291 264.43401 
L 370.320291 232.458895 
L 367.378618 232.458895 
z
" clip-path="url(#pf1aca2cd92)" style="fill: #a52a2a"/>
   </g>
   <g id="patch_179">
    <path d="M 371.055709 268.281148 
L 373.997382 268.281148 
L 373.997382 233.302566 
L 371.055709 233.302566 
z
" clip-path="url(#pf1aca2cd92)" style="fill: #a52a2a"/>
   </g>
   <g id="patch_180">
    <path d="M 374.7328 269.917869 
L 377.674473 269.917869 
L 377.674473 232.846984 
L 374.7328 232.846984 
z
" clip-path="url(#pf1aca2cd92)" style="fill: #a52a2a"/>
   </g>
   <g id="patch_181">
    <path d="M 378.409891 271.082135 
L 381.351564 271.082135 
L 381.351564 237.149704 
L 378.409891 237.149704 
z
" clip-path="url(#pf1aca2cd92)" style="fill: #a52a2a"/>
   </g>
   <g id="patch_182">
    <path d="M 382.086982 270.660299 
L 385.028655 270.660299 
L 385.028655 241.503044 
L 382.086982 241.503044 
z
" clip-path="url(#pf1aca2cd92)" style="fill: #a52a2a"/>
   </g>
   <g id="patch_183">
    <path d="M 385.764073 270.103477 
L 388.705745 270.103477 
L 388.705745 235.867324 
L 385.764073 235.867324 
z
" clip-path="url(#pf1aca2cd92)" style="fill: #a52a2a"/>
   </g>
   <g id="patch_184">
    <path d="M 389.441164 269.951616 
L 392.382836 269.951616 
L 392.382836 234.888666 
L 389.441164 234.888666 
z
" clip-path="url(#pf1aca2cd92)" style="fill: #a52a2a"/>
   </g>
   <g id="patch_185">
    <path d="M 393.118255 270.221591 
L 396.059927 270.221591 
L 396.059927 229.725402 
L 393.118255 229.725402 
z
" clip-path="url(#pf1aca2cd92)" style="fill: #a52a2a"/>
   </g>
   <g id="patch_186">
    <path d="M 396.795345 268.146161 
L 399.737018 268.146161 
L 399.737018 227.514985 
L 396.795345 227.514985 
z
" clip-path="url(#pf1aca2cd92)" style="fill: #a52a2a"/>
   </g>
   <g id="patch_187">
    <path d="M 400.472436 271.166502 
L 403.414109 271.166502 
L 403.414109 240.558133 
L 400.472436 240.558133 
z
" clip-path="url(#pf1aca2cd92)" style="fill: #a52a2a"/>
   </g>
   <g id="patch_188">
    <path d="M 404.149527 269.394793 
L 407.0912 269.394793 
L 407.0912 239.25888 
L 404.149527 239.25888 
z
" clip-path="url(#pf1aca2cd92)" style="fill: #a52a2a"/>
   </g>
   <g id="patch_189">
    <path d="M 407.826618 270.187844 
L 410.768291 270.187844 
L 410.768291 237.537792 
L 407.826618 237.537792 
z
" clip-path="url(#pf1aca2cd92)" style="fill: #a52a2a"/>
   </g>
   <g id="patch_190">
    <path d="M 411.503709 269.293553 
L 414.445382 269.293553 
L 414.445382 233.656907 
L 411.503709 233.656907 
z
" clip-path="url(#pf1aca2cd92)" style="fill: #a52a2a"/>
   </g>
   <g id="patch_191">
    <path d="M 415.1808 269.529781 
L 418.122473 269.529781 
L 418.122473 234.871793 
L 415.1808 234.871793 
z
" clip-path="url(#pf1aca2cd92)" style="fill: #a52a2a"/>
   </g>
   <g id="patch_192">
    <path d="M 418.857891 269.3273 
L 421.799564 269.3273 
L 421.799564 235.209261 
L 418.857891 235.209261 
z
" clip-path="url(#pf1aca2cd92)" style="fill: #a52a2a"/>
   </g>
   <g id="patch_193">
    <path d="M 422.534982 270.035983 
L 425.476655 270.035983 
L 425.476655 229.404808 
L 422.534982 229.404808 
z
" clip-path="url(#pf1aca2cd92)" style="fill: #a52a2a"/>
   </g>
   <g id="patch_194">
    <path d="M 426.212073 270.12035 
L 429.153745 270.12035 
L 429.153745 229.539795 
L 426.212073 229.539795 
z
" clip-path="url(#pf1aca2cd92)" style="fill: #a52a2a"/>
   </g>
   <g id="patch_195">
    <path d="M 429.889164 270.154097 
L 432.830836 270.154097 
L 432.830836 236.3904 
L 429.889164 236.3904 
z
" clip-path="url(#pf1aca2cd92)" style="fill: #a52a2a"/>
   </g>
   <g id="patch_196">
    <path d="M 433.566255 270.424072 
L 436.507927 270.424072 
L 436.507927 234.028122 
L 433.566255 234.028122 
z
" clip-path="url(#pf1aca2cd92)" style="fill: #a52a2a"/>
   </g>
   <g id="patch_197">
    <path d="M 437.243345 270.727793 
L 440.185018 270.727793 
L 440.185018 246.244472 
L 437.243345 246.244472 
z
" clip-path="url(#pf1aca2cd92)" style="fill: #a52a2a"/>
   </g>
   <g id="patch_198">
    <path d="M 440.920436 270.744666 
L 443.862109 270.744666 
L 443.862109 233.268819 
L 440.920436 233.268819 
z
" clip-path="url(#pf1aca2cd92)" style="fill: #a52a2a"/>
   </g>
   <g id="patch_199">
    <path d="M 444.597527 269.968489 
L 447.5392 269.968489 
L 447.5392 241.857385 
L 444.597527 241.857385 
z
" clip-path="url(#pf1aca2cd92)" style="fill: #a52a2a"/>
   </g>
   <g id="patch_200">
    <path d="M 448.274618 270.339704 
L 451.216291 270.339704 
L 451.216291 236.28916 
L 448.274618 236.28916 
z
" clip-path="url(#pf1aca2cd92)" style="fill: #a52a2a"/>
   </g>
   <g id="patch_201">
    <path d="M 87.919709 124.739034 
L 90.861382 124.739034 
L 90.861382 103.495409 
L 87.919709 103.495409 
z
" clip-path="url(#pf1aca2cd92)" style="fill: #f08080"/>
   </g>
   <g id="patch_202">
    <path d="M 91.5968 144.059091 
L 94.538473 144.059091 
L 94.538473 123.18668 
L 91.5968 123.18668 
z
" clip-path="url(#pf1aca2cd92)" style="fill: #f08080"/>
   </g>
   <g id="patch_203">
    <path d="M 95.273891 157.642187 
L 98.215564 157.642187 
L 98.215564 139.418903 
L 95.273891 139.418903 
z
" clip-path="url(#pf1aca2cd92)" style="fill: #f08080"/>
   </g>
   <g id="patch_204">
    <path d="M 98.950982 173.671928 
L 101.892655 173.671928 
L 101.892655 154.858074 
L 98.950982 154.858074 
z
" clip-path="url(#pf1aca2cd92)" style="fill: #f08080"/>
   </g>
   <g id="patch_205">
    <path d="M 102.628073 187.946835 
L 105.569745 187.946835 
L 105.569745 170.432233 
L 102.628073 170.432233 
z
" clip-path="url(#pf1aca2cd92)" style="fill: #f08080"/>
   </g>
   <g id="patch_206">
    <path d="M 106.305164 203.807842 
L 109.246836 203.807842 
L 109.246836 185.55081 
L 106.305164 185.55081 
z
" clip-path="url(#pf1aca2cd92)" style="fill: #f08080"/>
   </g>
   <g id="patch_207">
    <path d="M 109.982255 217.947761 
L 112.923927 217.947761 
L 112.923927 201.884273 
L 109.982255 201.884273 
z
" clip-path="url(#pf1aca2cd92)" style="fill: #f08080"/>
   </g>
   <g id="patch_208">
    <path d="M 113.659345 232.644503 
L 116.601018 232.644503 
L 116.601018 215.855458 
L 113.659345 215.855458 
z
" clip-path="url(#pf1aca2cd92)" style="fill: #f08080"/>
   </g>
   <g id="patch_209">
    <path d="M 117.336436 247.459358 
L 120.278109 247.459358 
L 120.278109 230.60282 
L 117.336436 230.60282 
z
" clip-path="url(#pf1aca2cd92)" style="fill: #f08080"/>
   </g>
   <g id="patch_210">
    <path d="M 121.013527 262.881656 
L 123.9552 262.881656 
L 123.9552 247.206257 
L 121.013527 247.206257 
z
" clip-path="url(#pf1aca2cd92)" style="fill: #f08080"/>
   </g>
   <g id="patch_211">
    <path d="M 124.690618 272.2464 
L 127.632291 272.2464 
L 127.632291 255.811697 
L 124.690618 255.811697 
z
" clip-path="url(#pf1aca2cd92)" style="fill: #f08080"/>
   </g>
   <g id="patch_212">
    <path d="M 128.367709 273.292552 
L 131.309382 273.292552 
L 131.309382 256.891595 
L 128.367709 256.891595 
z
" clip-path="url(#pf1aca2cd92)" style="fill: #f08080"/>
   </g>
   <g id="patch_213">
    <path d="M 132.0448 274.929272 
L 134.986473 274.929272 
L 134.986473 259.473227 
L 132.0448 259.473227 
z
" clip-path="url(#pf1aca2cd92)" style="fill: #f08080"/>
   </g>
   <g id="patch_214">
    <path d="M 135.721891 275.924804 
L 138.663564 275.924804 
L 138.663564 257.937747 
L 135.721891 257.937747 
z
" clip-path="url(#pf1aca2cd92)" style="fill: #f08080"/>
   </g>
   <g id="patch_215">
    <path d="M 139.398982 276.751601 
L 142.340655 276.751601 
L 142.340655 260.958088 
L 139.398982 260.958088 
z
" clip-path="url(#pf1aca2cd92)" style="fill: #f08080"/>
   </g>
   <g id="patch_216">
    <path d="M 143.076073 276.937208 
L 146.017745 276.937208 
L 146.017745 261.869252 
L 143.076073 261.869252 
z
" clip-path="url(#pf1aca2cd92)" style="fill: #f08080"/>
   </g>
   <g id="patch_217">
    <path d="M 146.753164 277.122816 
L 149.694836 277.122816 
L 149.694836 261.059328 
L 146.753164 261.059328 
z
" clip-path="url(#pf1aca2cd92)" style="fill: #f08080"/>
   </g>
   <g id="patch_218">
    <path d="M 150.430255 277.460284 
L 153.371927 277.460284 
L 153.371927 262.966024 
L 150.430255 262.966024 
z
" clip-path="url(#pf1aca2cd92)" style="fill: #f08080"/>
   </g>
   <g id="patch_219">
    <path d="M 154.107345 276.667234 
L 157.049018 276.667234 
L 157.049018 261.278682 
L 154.107345 261.278682 
z
" clip-path="url(#pf1aca2cd92)" style="fill: #f08080"/>
   </g>
   <g id="patch_220">
    <path d="M 157.784436 277.645892 
L 160.726109 277.645892 
L 160.726109 262.375454 
L 157.784436 262.375454 
z
" clip-path="url(#pf1aca2cd92)" style="fill: #f08080"/>
   </g>
   <g id="patch_221">
    <path d="M 161.461527 277.629018 
L 164.4032 277.629018 
L 164.4032 261.194315 
L 161.461527 261.194315 
z
" clip-path="url(#pf1aca2cd92)" style="fill: #f08080"/>
   </g>
   <g id="patch_222">
    <path d="M 165.138618 277.578398 
L 168.080291 277.578398 
L 168.080291 262.409201 
L 165.138618 262.409201 
z
" clip-path="url(#pf1aca2cd92)" style="fill: #f08080"/>
   </g>
   <g id="patch_223">
    <path d="M 168.815709 277.038449 
L 171.757382 277.038449 
L 171.757382 260.316898 
L 168.815709 260.316898 
z
" clip-path="url(#pf1aca2cd92)" style="fill: #f08080"/>
   </g>
   <g id="patch_224">
    <path d="M 172.4928 277.274677 
L 175.434473 277.274677 
L 175.434473 261.649897 
L 172.4928 261.649897 
z
" clip-path="url(#pf1aca2cd92)" style="fill: #f08080"/>
   </g>
   <g id="patch_225">
    <path d="M 176.169891 277.477158 
L 179.111564 277.477158 
L 179.111564 260.198784 
L 176.169891 260.198784 
z
" clip-path="url(#pf1aca2cd92)" style="fill: #f08080"/>
   </g>
   <g id="patch_226">
    <path d="M 179.846982 277.966487 
L 182.788655 277.966487 
L 182.788655 263.202251 
L 179.846982 263.202251 
z
" clip-path="url(#pf1aca2cd92)" style="fill: #f08080"/>
   </g>
   <g id="patch_227">
    <path d="M 183.524073 277.713385 
L 186.465745 277.713385 
L 186.465745 262.982897 
L 183.524073 262.982897 
z
" clip-path="url(#pf1aca2cd92)" style="fill: #f08080"/>
   </g>
   <g id="patch_228">
    <path d="M 187.201164 277.645892 
L 190.142836 277.645892 
L 190.142836 262.99977 
L 187.201164 262.99977 
z
" clip-path="url(#pf1aca2cd92)" style="fill: #f08080"/>
   </g>
   <g id="patch_229">
    <path d="M 190.878255 276.869715 
L 193.819927 276.869715 
L 193.819927 263.219125 
L 190.878255 263.219125 
z
" clip-path="url(#pf1aca2cd92)" style="fill: #f08080"/>
   </g>
   <g id="patch_230">
    <path d="M 194.555345 277.257803 
L 197.497018 277.257803 
L 197.497018 262.30796 
L 194.555345 262.30796 
z
" clip-path="url(#pf1aca2cd92)" style="fill: #f08080"/>
   </g>
   <g id="patch_231">
    <path d="M 198.232436 277.156563 
L 201.174109 277.156563 
L 201.174109 264.788352 
L 198.232436 264.788352 
z
" clip-path="url(#pf1aca2cd92)" style="fill: #f08080"/>
   </g>
   <g id="patch_232">
    <path d="M 201.909527 277.612145 
L 204.8512 277.612145 
L 204.8512 263.725327 
L 201.909527 263.725327 
z
" clip-path="url(#pf1aca2cd92)" style="fill: #f08080"/>
   </g>
   <g id="patch_233">
    <path d="M 205.586618 276.937208 
L 208.528291 276.937208 
L 208.528291 262.223593 
L 205.586618 262.223593 
z
" clip-path="url(#pf1aca2cd92)" style="fill: #f08080"/>
   </g>
   <g id="patch_234">
    <path d="M 209.263709 277.274677 
L 212.205382 277.274677 
L 212.205382 265.311428 
L 209.263709 265.311428 
z
" clip-path="url(#pf1aca2cd92)" style="fill: #f08080"/>
   </g>
   <g id="patch_235">
    <path d="M 212.9408 277.848373 
L 215.882473 277.848373 
L 215.882473 264.029048 
L 212.9408 264.029048 
z
" clip-path="url(#pf1aca2cd92)" style="fill: #f08080"/>
   </g>
   <g id="patch_236">
    <path d="M 216.617891 277.359044 
L 219.559564 277.359044 
L 219.559564 260.502505 
L 216.617891 260.502505 
z
" clip-path="url(#pf1aca2cd92)" style="fill: #f08080"/>
   </g>
   <g id="patch_237">
    <path d="M 220.294982 277.274677 
L 223.236655 277.274677 
L 223.236655 263.708454 
L 220.294982 263.708454 
z
" clip-path="url(#pf1aca2cd92)" style="fill: #f08080"/>
   </g>
   <g id="patch_238">
    <path d="M 223.972073 277.696512 
L 226.913745 277.696512 
L 226.913745 262.189847 
L 223.972073 262.189847 
z
" clip-path="url(#pf1aca2cd92)" style="fill: #f08080"/>
   </g>
   <g id="patch_239">
    <path d="M 227.649164 277.831499 
L 230.590836 277.831499 
L 230.590836 264.535251 
L 227.649164 264.535251 
z
" clip-path="url(#pf1aca2cd92)" style="fill: #f08080"/>
   </g>
   <g id="patch_240">
    <path d="M 231.326255 277.105943 
L 234.267927 277.105943 
L 234.267927 262.99977 
L 231.326255 262.99977 
z
" clip-path="url(#pf1aca2cd92)" style="fill: #f08080"/>
   </g>
   <g id="patch_241">
    <path d="M 235.003345 277.645892 
L 237.945018 277.645892 
L 237.945018 262.932277 
L 235.003345 262.932277 
z
" clip-path="url(#pf1aca2cd92)" style="fill: #f08080"/>
   </g>
   <g id="patch_242">
    <path d="M 238.680436 277.966487 
L 241.622109 277.966487 
L 241.622109 262.729796 
L 238.680436 262.729796 
z
" clip-path="url(#pf1aca2cd92)" style="fill: #f08080"/>
   </g>
   <g id="patch_243">
    <path d="M 242.357527 278.000233 
L 245.2992 278.000233 
L 245.2992 264.214656 
L 242.357527 264.214656 
z
" clip-path="url(#pf1aca2cd92)" style="fill: #f08080"/>
   </g>
   <g id="patch_244">
    <path d="M 246.034618 277.662765 
L 248.976291 277.662765 
L 248.976291 262.544188 
L 246.034618 262.544188 
z
" clip-path="url(#pf1aca2cd92)" style="fill: #f08080"/>
   </g>
   <g id="patch_245">
    <path d="M 249.711709 277.578398 
L 252.653382 277.578398 
L 252.653382 261.852378 
L 249.711709 261.852378 
z
" clip-path="url(#pf1aca2cd92)" style="fill: #f08080"/>
   </g>
   <g id="patch_246">
    <path d="M 253.3888 277.510904 
L 256.330473 277.510904 
L 256.330473 262.679176 
L 253.3888 262.679176 
z
" clip-path="url(#pf1aca2cd92)" style="fill: #f08080"/>
   </g>
   <g id="patch_247">
    <path d="M 257.065891 276.59974 
L 260.007564 276.59974 
L 260.007564 259.506974 
L 257.065891 259.506974 
z
" clip-path="url(#pf1aca2cd92)" style="fill: #f08080"/>
   </g>
   <g id="patch_248">
    <path d="M 260.742982 277.207183 
L 263.684655 277.207183 
L 263.684655 250.901534 
L 260.742982 250.901534 
z
" clip-path="url(#pf1aca2cd92)" style="fill: #f08080"/>
   </g>
   <g id="patch_249">
    <path d="M 264.420073 277.898993 
L 267.361745 277.898993 
L 267.361745 262.628555 
L 264.420073 262.628555 
z
" clip-path="url(#pf1aca2cd92)" style="fill: #f08080"/>
   </g>
   <g id="patch_250">
    <path d="M 268.097164 277.595272 
L 271.038836 277.595272 
L 271.038836 260.67124 
L 268.097164 260.67124 
z
" clip-path="url(#pf1aca2cd92)" style="fill: #f08080"/>
   </g>
   <g id="patch_251">
    <path d="M 271.774255 278.168968 
L 274.715927 278.168968 
L 274.715927 262.662302 
L 271.774255 262.662302 
z
" clip-path="url(#pf1aca2cd92)" style="fill: #f08080"/>
   </g>
   <g id="patch_252">
    <path d="M 275.451345 277.865246 
L 278.393018 277.865246 
L 278.393018 261.768011 
L 275.451345 261.768011 
z
" clip-path="url(#pf1aca2cd92)" style="fill: #f08080"/>
   </g>
   <g id="patch_253">
    <path d="M 279.128436 277.764006 
L 282.070109 277.764006 
L 282.070109 259.422607 
L 279.128436 259.422607 
z
" clip-path="url(#pf1aca2cd92)" style="fill: #f08080"/>
   </g>
   <g id="patch_254">
    <path d="M 282.805527 278.118347 
L 285.7472 278.118347 
L 285.7472 262.814163 
L 282.805527 262.814163 
z
" clip-path="url(#pf1aca2cd92)" style="fill: #f08080"/>
   </g>
   <g id="patch_255">
    <path d="M 286.482618 277.848373 
L 289.424291 277.848373 
L 289.424291 262.1561 
L 286.482618 262.1561 
z
" clip-path="url(#pf1aca2cd92)" style="fill: #f08080"/>
   </g>
   <g id="patch_256">
    <path d="M 290.159709 278.354575 
L 293.101382 278.354575 
L 293.101382 264.518377 
L 290.159709 264.518377 
z
" clip-path="url(#pf1aca2cd92)" style="fill: #f08080"/>
   </g>
   <g id="patch_257">
    <path d="M 293.8368 277.764006 
L 296.778473 277.764006 
L 296.778473 262.291087 
L 293.8368 262.291087 
z
" clip-path="url(#pf1aca2cd92)" style="fill: #f08080"/>
   </g>
   <g id="patch_258">
    <path d="M 297.513891 277.645892 
L 300.455564 277.645892 
L 300.455564 260.704986 
L 297.513891 260.704986 
z
" clip-path="url(#pf1aca2cd92)" style="fill: #f08080"/>
   </g>
   <g id="patch_259">
    <path d="M 301.190982 277.34217 
L 304.132655 277.34217 
L 304.132655 263.286618 
L 301.190982 263.286618 
z
" clip-path="url(#pf1aca2cd92)" style="fill: #f08080"/>
   </g>
   <g id="patch_260">
    <path d="M 304.868073 277.780879 
L 307.809745 277.780879 
L 307.809745 262.831036 
L 304.868073 262.831036 
z
" clip-path="url(#pf1aca2cd92)" style="fill: #f08080"/>
   </g>
   <g id="patch_261">
    <path d="M 308.545164 276.920335 
L 311.486836 276.920335 
L 311.486836 262.189847 
L 308.545164 262.189847 
z
" clip-path="url(#pf1aca2cd92)" style="fill: #f08080"/>
   </g>
   <g id="patch_262">
    <path d="M 312.222255 276.633487 
L 315.163927 276.633487 
L 315.163927 260.215657 
L 312.222255 260.215657 
z
" clip-path="url(#pf1aca2cd92)" style="fill: #f08080"/>
   </g>
   <g id="patch_263">
    <path d="M 315.899345 278.253335 
L 318.841018 278.253335 
L 318.841018 263.809694 
L 315.899345 263.809694 
z
" clip-path="url(#pf1aca2cd92)" style="fill: #f08080"/>
   </g>
   <g id="patch_264">
    <path d="M 319.576436 277.257803 
L 322.518109 277.257803 
L 322.518109 261.987366 
L 319.576436 261.987366 
z
" clip-path="url(#pf1aca2cd92)" style="fill: #f08080"/>
   </g>
   <g id="patch_265">
    <path d="M 323.253527 277.561525 
L 326.1952 277.561525 
L 326.1952 262.89853 
L 323.253527 262.89853 
z
" clip-path="url(#pf1aca2cd92)" style="fill: #f08080"/>
   </g>
   <g id="patch_266">
    <path d="M 326.930618 277.308424 
L 329.872291 277.308424 
L 329.872291 260.77248 
L 326.930618 260.77248 
z
" clip-path="url(#pf1aca2cd92)" style="fill: #f08080"/>
   </g>
   <g id="patch_267">
    <path d="M 330.607709 277.949613 
L 333.549382 277.949613 
L 333.549382 262.240467 
L 330.607709 262.240467 
z
" clip-path="url(#pf1aca2cd92)" style="fill: #f08080"/>
   </g>
   <g id="patch_268">
    <path d="M 334.2848 278.0846 
L 337.226473 278.0846 
L 337.226473 261.649897 
L 334.2848 261.649897 
z
" clip-path="url(#pf1aca2cd92)" style="fill: #f08080"/>
   </g>
   <g id="patch_269">
    <path d="M 337.961891 277.645892 
L 340.903564 277.645892 
L 340.903564 263.708454 
L 337.961891 263.708454 
z
" clip-path="url(#pf1aca2cd92)" style="fill: #f08080"/>
   </g>
   <g id="patch_270">
    <path d="M 341.638982 277.865246 
L 344.580655 277.865246 
L 344.580655 260.991834 
L 341.638982 260.991834 
z
" clip-path="url(#pf1aca2cd92)" style="fill: #f08080"/>
   </g>
   <g id="patch_271">
    <path d="M 345.316073 276.835968 
L 348.257745 276.835968 
L 348.257745 258.69705 
L 345.316073 258.69705 
z
" clip-path="url(#pf1aca2cd92)" style="fill: #f08080"/>
   </g>
   <g id="patch_272">
    <path d="M 348.993164 277.88212 
L 351.934836 277.88212 
L 351.934836 260.249404 
L 348.993164 260.249404 
z
" clip-path="url(#pf1aca2cd92)" style="fill: #f08080"/>
   </g>
   <g id="patch_273">
    <path d="M 352.670255 276.869715 
L 355.611927 276.869715 
L 355.611927 260.907467 
L 352.670255 260.907467 
z
" clip-path="url(#pf1aca2cd92)" style="fill: #f08080"/>
   </g>
   <g id="patch_274">
    <path d="M 356.347345 278.118347 
L 359.289018 278.118347 
L 359.289018 261.582404 
L 356.347345 261.582404 
z
" clip-path="url(#pf1aca2cd92)" style="fill: #f08080"/>
   </g>
   <g id="patch_275">
    <path d="M 360.024436 277.561525 
L 362.966109 277.561525 
L 362.966109 264.130289 
L 360.024436 264.130289 
z
" clip-path="url(#pf1aca2cd92)" style="fill: #f08080"/>
   </g>
   <g id="patch_276">
    <path d="M 363.701527 278.0846 
L 366.6432 278.0846 
L 366.6432 263.472226 
L 363.701527 263.472226 
z
" clip-path="url(#pf1aca2cd92)" style="fill: #f08080"/>
   </g>
   <g id="patch_277">
    <path d="M 367.378618 270.643426 
L 370.320291 270.643426 
L 370.320291 256.739735 
L 367.378618 256.739735 
z
" clip-path="url(#pf1aca2cd92)" style="fill: #f08080"/>
   </g>
   <g id="patch_278">
    <path d="M 371.055709 276.667234 
L 373.997382 276.667234 
L 373.997382 259.135759 
L 371.055709 259.135759 
z
" clip-path="url(#pf1aca2cd92)" style="fill: #f08080"/>
   </g>
   <g id="patch_279">
    <path d="M 374.7328 277.207183 
L 377.674473 277.207183 
L 377.674473 261.649897 
L 374.7328 261.649897 
z
" clip-path="url(#pf1aca2cd92)" style="fill: #f08080"/>
   </g>
   <g id="patch_280">
    <path d="M 378.409891 277.780879 
L 381.351564 277.780879 
L 381.351564 262.915403 
L 378.409891 262.915403 
z
" clip-path="url(#pf1aca2cd92)" style="fill: #f08080"/>
   </g>
   <g id="patch_281">
    <path d="M 382.086982 277.696512 
L 385.028655 277.696512 
L 385.028655 262.189847 
L 382.086982 262.189847 
z
" clip-path="url(#pf1aca2cd92)" style="fill: #f08080"/>
   </g>
   <g id="patch_282">
    <path d="M 385.764073 277.629018 
L 388.705745 277.629018 
L 388.705745 261.194315 
L 385.764073 261.194315 
z
" clip-path="url(#pf1aca2cd92)" style="fill: #f08080"/>
   </g>
   <g id="patch_283">
    <path d="M 389.441164 278.017107 
L 392.382836 278.017107 
L 392.382836 261.447416 
L 389.441164 261.447416 
z
" clip-path="url(#pf1aca2cd92)" style="fill: #f08080"/>
   </g>
   <g id="patch_284">
    <path d="M 393.118255 277.544651 
L 396.059927 277.544651 
L 396.059927 260.839974 
L 393.118255 260.839974 
z
" clip-path="url(#pf1aca2cd92)" style="fill: #f08080"/>
   </g>
   <g id="patch_285">
    <path d="M 396.795345 276.464753 
L 399.737018 276.464753 
L 399.737018 259.591341 
L 396.795345 259.591341 
z
" clip-path="url(#pf1aca2cd92)" style="fill: #f08080"/>
   </g>
   <g id="patch_286">
    <path d="M 400.472436 278.135221 
L 403.414109 278.135221 
L 403.414109 262.915403 
L 400.472436 262.915403 
z
" clip-path="url(#pf1aca2cd92)" style="fill: #f08080"/>
   </g>
   <g id="patch_287">
    <path d="M 404.149527 277.915866 
L 407.0912 277.915866 
L 407.0912 260.536252 
L 404.149527 260.536252 
z
" clip-path="url(#pf1aca2cd92)" style="fill: #f08080"/>
   </g>
   <g id="patch_288">
    <path d="M 407.826618 277.814626 
L 410.768291 277.814626 
L 410.768291 262.240467 
L 407.826618 262.240467 
z
" clip-path="url(#pf1aca2cd92)" style="fill: #f08080"/>
   </g>
   <g id="patch_289">
    <path d="M 411.503709 276.329766 
L 414.445382 276.329766 
L 414.445382 260.637493 
L 411.503709 260.637493 
z
" clip-path="url(#pf1aca2cd92)" style="fill: #f08080"/>
   </g>
   <g id="patch_290">
    <path d="M 415.1808 277.375917 
L 418.122473 277.375917 
L 418.122473 260.603746 
L 415.1808 260.603746 
z
" clip-path="url(#pf1aca2cd92)" style="fill: #f08080"/>
   </g>
   <g id="patch_291">
    <path d="M 418.857891 276.835968 
L 421.799564 276.835968 
L 421.799564 259.911936 
L 418.857891 259.911936 
z
" clip-path="url(#pf1aca2cd92)" style="fill: #f08080"/>
   </g>
   <g id="patch_292">
    <path d="M 422.534982 277.426537 
L 425.476655 277.426537 
L 425.476655 261.852378 
L 422.534982 261.852378 
z
" clip-path="url(#pf1aca2cd92)" style="fill: #f08080"/>
   </g>
   <g id="patch_293">
    <path d="M 426.212073 278.253335 
L 429.153745 278.253335 
L 429.153745 260.451885 
L 426.212073 260.451885 
z
" clip-path="url(#pf1aca2cd92)" style="fill: #f08080"/>
   </g>
   <g id="patch_294">
    <path d="M 429.889164 277.561525 
L 432.830836 277.561525 
L 432.830836 261.548657 
L 429.889164 261.548657 
z
" clip-path="url(#pf1aca2cd92)" style="fill: #f08080"/>
   </g>
   <g id="patch_295">
    <path d="M 433.566255 277.629018 
L 436.507927 277.629018 
L 436.507927 263.134758 
L 433.566255 263.134758 
z
" clip-path="url(#pf1aca2cd92)" style="fill: #f08080"/>
   </g>
   <g id="patch_296">
    <path d="M 437.243345 277.426537 
L 440.185018 277.426537 
L 440.185018 262.864783 
L 437.243345 262.864783 
z
" clip-path="url(#pf1aca2cd92)" style="fill: #f08080"/>
   </g>
   <g id="patch_297">
    <path d="M 440.920436 277.510904 
L 443.862109 277.510904 
L 443.862109 263.978428 
L 440.920436 263.978428 
z
" clip-path="url(#pf1aca2cd92)" style="fill: #f08080"/>
   </g>
   <g id="patch_298">
    <path d="M 444.597527 277.392791 
L 447.5392 277.392791 
L 447.5392 262.139226 
L 444.597527 262.139226 
z
" clip-path="url(#pf1aca2cd92)" style="fill: #f08080"/>
   </g>
   <g id="patch_299">
    <path d="M 448.274618 277.224056 
L 451.216291 277.224056 
L 451.216291 261.498037 
L 448.274618 261.498037 
z
" clip-path="url(#pf1aca2cd92)" style="fill: #f08080"/>
   </g>
   <g id="patch_300">
    <path d="M 87.919709 293.76 
L 90.861382 293.76 
L 90.861382 124.739034 
L 87.919709 124.739034 
z
" clip-path="url(#pf1aca2cd92)" style="fill: #ffe4e1"/>
   </g>
   <g id="patch_301">
    <path d="M 91.5968 293.76 
L 94.538473 293.76 
L 94.538473 144.059091 
L 91.5968 144.059091 
z
" clip-path="url(#pf1aca2cd92)" style="fill: #ffe4e1"/>
   </g>
   <g id="patch_302">
    <path d="M 95.273891 293.76 
L 98.215564 293.76 
L 98.215564 157.642187 
L 95.273891 157.642187 
z
" clip-path="url(#pf1aca2cd92)" style="fill: #ffe4e1"/>
   </g>
   <g id="patch_303">
    <path d="M 98.950982 293.76 
L 101.892655 293.76 
L 101.892655 173.671928 
L 98.950982 173.671928 
z
" clip-path="url(#pf1aca2cd92)" style="fill: #ffe4e1"/>
   </g>
   <g id="patch_304">
    <path d="M 102.628073 293.76 
L 105.569745 293.76 
L 105.569745 187.946835 
L 102.628073 187.946835 
z
" clip-path="url(#pf1aca2cd92)" style="fill: #ffe4e1"/>
   </g>
   <g id="patch_305">
    <path d="M 106.305164 293.76 
L 109.246836 293.76 
L 109.246836 203.807842 
L 106.305164 203.807842 
z
" clip-path="url(#pf1aca2cd92)" style="fill: #ffe4e1"/>
   </g>
   <g id="patch_306">
    <path d="M 109.982255 293.76 
L 112.923927 293.76 
L 112.923927 217.947761 
L 109.982255 217.947761 
z
" clip-path="url(#pf1aca2cd92)" style="fill: #ffe4e1"/>
   </g>
   <g id="patch_307">
    <path d="M 113.659345 293.76 
L 116.601018 293.76 
L 116.601018 232.644503 
L 113.659345 232.644503 
z
" clip-path="url(#pf1aca2cd92)" style="fill: #ffe4e1"/>
   </g>
   <g id="patch_308">
    <path d="M 117.336436 293.76 
L 120.278109 293.76 
L 120.278109 247.459358 
L 117.336436 247.459358 
z
" clip-path="url(#pf1aca2cd92)" style="fill: #ffe4e1"/>
   </g>
   <g id="patch_309">
    <path d="M 121.013527 293.76 
L 123.9552 293.76 
L 123.9552 262.881656 
L 121.013527 262.881656 
z
" clip-path="url(#pf1aca2cd92)" style="fill: #ffe4e1"/>
   </g>
   <g id="patch_310">
    <path d="M 124.690618 293.76 
L 127.632291 293.76 
L 127.632291 272.2464 
L 124.690618 272.2464 
z
" clip-path="url(#pf1aca2cd92)" style="fill: #ffe4e1"/>
   </g>
   <g id="patch_311">
    <path d="M 128.367709 293.76 
L 131.309382 293.76 
L 131.309382 273.292552 
L 128.367709 273.292552 
z
" clip-path="url(#pf1aca2cd92)" style="fill: #ffe4e1"/>
   </g>
   <g id="patch_312">
    <path d="M 132.0448 293.76 
L 134.986473 293.76 
L 134.986473 274.929272 
L 132.0448 274.929272 
z
" clip-path="url(#pf1aca2cd92)" style="fill: #ffe4e1"/>
   </g>
   <g id="patch_313">
    <path d="M 135.721891 293.76 
L 138.663564 293.76 
L 138.663564 275.924804 
L 135.721891 275.924804 
z
" clip-path="url(#pf1aca2cd92)" style="fill: #ffe4e1"/>
   </g>
   <g id="patch_314">
    <path d="M 139.398982 293.76 
L 142.340655 293.76 
L 142.340655 276.751601 
L 139.398982 276.751601 
z
" clip-path="url(#pf1aca2cd92)" style="fill: #ffe4e1"/>
   </g>
   <g id="patch_315">
    <path d="M 143.076073 293.76 
L 146.017745 293.76 
L 146.017745 276.937208 
L 143.076073 276.937208 
z
" clip-path="url(#pf1aca2cd92)" style="fill: #ffe4e1"/>
   </g>
   <g id="patch_316">
    <path d="M 146.753164 293.76 
L 149.694836 293.76 
L 149.694836 277.122816 
L 146.753164 277.122816 
z
" clip-path="url(#pf1aca2cd92)" style="fill: #ffe4e1"/>
   </g>
   <g id="patch_317">
    <path d="M 150.430255 293.76 
L 153.371927 293.76 
L 153.371927 277.460284 
L 150.430255 277.460284 
z
" clip-path="url(#pf1aca2cd92)" style="fill: #ffe4e1"/>
   </g>
   <g id="patch_318">
    <path d="M 154.107345 293.76 
L 157.049018 293.76 
L 157.049018 276.667234 
L 154.107345 276.667234 
z
" clip-path="url(#pf1aca2cd92)" style="fill: #ffe4e1"/>
   </g>
   <g id="patch_319">
    <path d="M 157.784436 293.76 
L 160.726109 293.76 
L 160.726109 277.645892 
L 157.784436 277.645892 
z
" clip-path="url(#pf1aca2cd92)" style="fill: #ffe4e1"/>
   </g>
   <g id="patch_320">
    <path d="M 161.461527 293.76 
L 164.4032 293.76 
L 164.4032 277.629018 
L 161.461527 277.629018 
z
" clip-path="url(#pf1aca2cd92)" style="fill: #ffe4e1"/>
   </g>
   <g id="patch_321">
    <path d="M 165.138618 293.76 
L 168.080291 293.76 
L 168.080291 277.578398 
L 165.138618 277.578398 
z
" clip-path="url(#pf1aca2cd92)" style="fill: #ffe4e1"/>
   </g>
   <g id="patch_322">
    <path d="M 168.815709 293.76 
L 171.757382 293.76 
L 171.757382 277.038449 
L 168.815709 277.038449 
z
" clip-path="url(#pf1aca2cd92)" style="fill: #ffe4e1"/>
   </g>
   <g id="patch_323">
    <path d="M 172.4928 293.76 
L 175.434473 293.76 
L 175.434473 277.274677 
L 172.4928 277.274677 
z
" clip-path="url(#pf1aca2cd92)" style="fill: #ffe4e1"/>
   </g>
   <g id="patch_324">
    <path d="M 176.169891 293.76 
L 179.111564 293.76 
L 179.111564 277.477158 
L 176.169891 277.477158 
z
" clip-path="url(#pf1aca2cd92)" style="fill: #ffe4e1"/>
   </g>
   <g id="patch_325">
    <path d="M 179.846982 293.76 
L 182.788655 293.76 
L 182.788655 277.966487 
L 179.846982 277.966487 
z
" clip-path="url(#pf1aca2cd92)" style="fill: #ffe4e1"/>
   </g>
   <g id="patch_326">
    <path d="M 183.524073 293.76 
L 186.465745 293.76 
L 186.465745 277.713385 
L 183.524073 277.713385 
z
" clip-path="url(#pf1aca2cd92)" style="fill: #ffe4e1"/>
   </g>
   <g id="patch_327">
    <path d="M 187.201164 293.76 
L 190.142836 293.76 
L 190.142836 277.645892 
L 187.201164 277.645892 
z
" clip-path="url(#pf1aca2cd92)" style="fill: #ffe4e1"/>
   </g>
   <g id="patch_328">
    <path d="M 190.878255 293.76 
L 193.819927 293.76 
L 193.819927 276.869715 
L 190.878255 276.869715 
z
" clip-path="url(#pf1aca2cd92)" style="fill: #ffe4e1"/>
   </g>
   <g id="patch_329">
    <path d="M 194.555345 293.76 
L 197.497018 293.76 
L 197.497018 277.257803 
L 194.555345 277.257803 
z
" clip-path="url(#pf1aca2cd92)" style="fill: #ffe4e1"/>
   </g>
   <g id="patch_330">
    <path d="M 198.232436 293.76 
L 201.174109 293.76 
L 201.174109 277.156563 
L 198.232436 277.156563 
z
" clip-path="url(#pf1aca2cd92)" style="fill: #ffe4e1"/>
   </g>
   <g id="patch_331">
    <path d="M 201.909527 293.76 
L 204.8512 293.76 
L 204.8512 277.612145 
L 201.909527 277.612145 
z
" clip-path="url(#pf1aca2cd92)" style="fill: #ffe4e1"/>
   </g>
   <g id="patch_332">
    <path d="M 205.586618 293.76 
L 208.528291 293.76 
L 208.528291 276.937208 
L 205.586618 276.937208 
z
" clip-path="url(#pf1aca2cd92)" style="fill: #ffe4e1"/>
   </g>
   <g id="patch_333">
    <path d="M 209.263709 293.76 
L 212.205382 293.76 
L 212.205382 277.274677 
L 209.263709 277.274677 
z
" clip-path="url(#pf1aca2cd92)" style="fill: #ffe4e1"/>
   </g>
   <g id="patch_334">
    <path d="M 212.9408 293.76 
L 215.882473 293.76 
L 215.882473 277.848373 
L 212.9408 277.848373 
z
" clip-path="url(#pf1aca2cd92)" style="fill: #ffe4e1"/>
   </g>
   <g id="patch_335">
    <path d="M 216.617891 293.76 
L 219.559564 293.76 
L 219.559564 277.359044 
L 216.617891 277.359044 
z
" clip-path="url(#pf1aca2cd92)" style="fill: #ffe4e1"/>
   </g>
   <g id="patch_336">
    <path d="M 220.294982 293.76 
L 223.236655 293.76 
L 223.236655 277.274677 
L 220.294982 277.274677 
z
" clip-path="url(#pf1aca2cd92)" style="fill: #ffe4e1"/>
   </g>
   <g id="patch_337">
    <path d="M 223.972073 293.76 
L 226.913745 293.76 
L 226.913745 277.696512 
L 223.972073 277.696512 
z
" clip-path="url(#pf1aca2cd92)" style="fill: #ffe4e1"/>
   </g>
   <g id="patch_338">
    <path d="M 227.649164 293.76 
L 230.590836 293.76 
L 230.590836 277.831499 
L 227.649164 277.831499 
z
" clip-path="url(#pf1aca2cd92)" style="fill: #ffe4e1"/>
   </g>
   <g id="patch_339">
    <path d="M 231.326255 293.76 
L 234.267927 293.76 
L 234.267927 277.105943 
L 231.326255 277.105943 
z
" clip-path="url(#pf1aca2cd92)" style="fill: #ffe4e1"/>
   </g>
   <g id="patch_340">
    <path d="M 235.003345 293.76 
L 237.945018 293.76 
L 237.945018 277.645892 
L 235.003345 277.645892 
z
" clip-path="url(#pf1aca2cd92)" style="fill: #ffe4e1"/>
   </g>
   <g id="patch_341">
    <path d="M 238.680436 293.76 
L 241.622109 293.76 
L 241.622109 277.966487 
L 238.680436 277.966487 
z
" clip-path="url(#pf1aca2cd92)" style="fill: #ffe4e1"/>
   </g>
   <g id="patch_342">
    <path d="M 242.357527 293.76 
L 245.2992 293.76 
L 245.2992 278.000233 
L 242.357527 278.000233 
z
" clip-path="url(#pf1aca2cd92)" style="fill: #ffe4e1"/>
   </g>
   <g id="patch_343">
    <path d="M 246.034618 293.76 
L 248.976291 293.76 
L 248.976291 277.662765 
L 246.034618 277.662765 
z
" clip-path="url(#pf1aca2cd92)" style="fill: #ffe4e1"/>
   </g>
   <g id="patch_344">
    <path d="M 249.711709 293.76 
L 252.653382 293.76 
L 252.653382 277.578398 
L 249.711709 277.578398 
z
" clip-path="url(#pf1aca2cd92)" style="fill: #ffe4e1"/>
   </g>
   <g id="patch_345">
    <path d="M 253.3888 293.76 
L 256.330473 293.76 
L 256.330473 277.510904 
L 253.3888 277.510904 
z
" clip-path="url(#pf1aca2cd92)" style="fill: #ffe4e1"/>
   </g>
   <g id="patch_346">
    <path d="M 257.065891 293.76 
L 260.007564 293.76 
L 260.007564 276.59974 
L 257.065891 276.59974 
z
" clip-path="url(#pf1aca2cd92)" style="fill: #ffe4e1"/>
   </g>
   <g id="patch_347">
    <path d="M 260.742982 293.76 
L 263.684655 293.76 
L 263.684655 277.207183 
L 260.742982 277.207183 
z
" clip-path="url(#pf1aca2cd92)" style="fill: #ffe4e1"/>
   </g>
   <g id="patch_348">
    <path d="M 264.420073 293.76 
L 267.361745 293.76 
L 267.361745 277.898993 
L 264.420073 277.898993 
z
" clip-path="url(#pf1aca2cd92)" style="fill: #ffe4e1"/>
   </g>
   <g id="patch_349">
    <path d="M 268.097164 293.76 
L 271.038836 293.76 
L 271.038836 277.595272 
L 268.097164 277.595272 
z
" clip-path="url(#pf1aca2cd92)" style="fill: #ffe4e1"/>
   </g>
   <g id="patch_350">
    <path d="M 271.774255 293.76 
L 274.715927 293.76 
L 274.715927 278.168968 
L 271.774255 278.168968 
z
" clip-path="url(#pf1aca2cd92)" style="fill: #ffe4e1"/>
   </g>
   <g id="patch_351">
    <path d="M 275.451345 293.76 
L 278.393018 293.76 
L 278.393018 277.865246 
L 275.451345 277.865246 
z
" clip-path="url(#pf1aca2cd92)" style="fill: #ffe4e1"/>
   </g>
   <g id="patch_352">
    <path d="M 279.128436 293.76 
L 282.070109 293.76 
L 282.070109 277.764006 
L 279.128436 277.764006 
z
" clip-path="url(#pf1aca2cd92)" style="fill: #ffe4e1"/>
   </g>
   <g id="patch_353">
    <path d="M 282.805527 293.76 
L 285.7472 293.76 
L 285.7472 278.118347 
L 282.805527 278.118347 
z
" clip-path="url(#pf1aca2cd92)" style="fill: #ffe4e1"/>
   </g>
   <g id="patch_354">
    <path d="M 286.482618 293.76 
L 289.424291 293.76 
L 289.424291 277.848373 
L 286.482618 277.848373 
z
" clip-path="url(#pf1aca2cd92)" style="fill: #ffe4e1"/>
   </g>
   <g id="patch_355">
    <path d="M 290.159709 293.76 
L 293.101382 293.76 
L 293.101382 278.354575 
L 290.159709 278.354575 
z
" clip-path="url(#pf1aca2cd92)" style="fill: #ffe4e1"/>
   </g>
   <g id="patch_356">
    <path d="M 293.8368 293.76 
L 296.778473 293.76 
L 296.778473 277.764006 
L 293.8368 277.764006 
z
" clip-path="url(#pf1aca2cd92)" style="fill: #ffe4e1"/>
   </g>
   <g id="patch_357">
    <path d="M 297.513891 293.76 
L 300.455564 293.76 
L 300.455564 277.645892 
L 297.513891 277.645892 
z
" clip-path="url(#pf1aca2cd92)" style="fill: #ffe4e1"/>
   </g>
   <g id="patch_358">
    <path d="M 301.190982 293.76 
L 304.132655 293.76 
L 304.132655 277.34217 
L 301.190982 277.34217 
z
" clip-path="url(#pf1aca2cd92)" style="fill: #ffe4e1"/>
   </g>
   <g id="patch_359">
    <path d="M 304.868073 293.76 
L 307.809745 293.76 
L 307.809745 277.780879 
L 304.868073 277.780879 
z
" clip-path="url(#pf1aca2cd92)" style="fill: #ffe4e1"/>
   </g>
   <g id="patch_360">
    <path d="M 308.545164 293.76 
L 311.486836 293.76 
L 311.486836 276.920335 
L 308.545164 276.920335 
z
" clip-path="url(#pf1aca2cd92)" style="fill: #ffe4e1"/>
   </g>
   <g id="patch_361">
    <path d="M 312.222255 293.76 
L 315.163927 293.76 
L 315.163927 276.633487 
L 312.222255 276.633487 
z
" clip-path="url(#pf1aca2cd92)" style="fill: #ffe4e1"/>
   </g>
   <g id="patch_362">
    <path d="M 315.899345 293.76 
L 318.841018 293.76 
L 318.841018 278.253335 
L 315.899345 278.253335 
z
" clip-path="url(#pf1aca2cd92)" style="fill: #ffe4e1"/>
   </g>
   <g id="patch_363">
    <path d="M 319.576436 293.76 
L 322.518109 293.76 
L 322.518109 277.257803 
L 319.576436 277.257803 
z
" clip-path="url(#pf1aca2cd92)" style="fill: #ffe4e1"/>
   </g>
   <g id="patch_364">
    <path d="M 323.253527 293.76 
L 326.1952 293.76 
L 326.1952 277.561525 
L 323.253527 277.561525 
z
" clip-path="url(#pf1aca2cd92)" style="fill: #ffe4e1"/>
   </g>
   <g id="patch_365">
    <path d="M 326.930618 293.76 
L 329.872291 293.76 
L 329.872291 277.308424 
L 326.930618 277.308424 
z
" clip-path="url(#pf1aca2cd92)" style="fill: #ffe4e1"/>
   </g>
   <g id="patch_366">
    <path d="M 330.607709 293.76 
L 333.549382 293.76 
L 333.549382 277.949613 
L 330.607709 277.949613 
z
" clip-path="url(#pf1aca2cd92)" style="fill: #ffe4e1"/>
   </g>
   <g id="patch_367">
    <path d="M 334.2848 293.76 
L 337.226473 293.76 
L 337.226473 278.0846 
L 334.2848 278.0846 
z
" clip-path="url(#pf1aca2cd92)" style="fill: #ffe4e1"/>
   </g>
   <g id="patch_368">
    <path d="M 337.961891 293.76 
L 340.903564 293.76 
L 340.903564 277.645892 
L 337.961891 277.645892 
z
" clip-path="url(#pf1aca2cd92)" style="fill: #ffe4e1"/>
   </g>
   <g id="patch_369">
    <path d="M 341.638982 293.76 
L 344.580655 293.76 
L 344.580655 277.865246 
L 341.638982 277.865246 
z
" clip-path="url(#pf1aca2cd92)" style="fill: #ffe4e1"/>
   </g>
   <g id="patch_370">
    <path d="M 345.316073 293.76 
L 348.257745 293.76 
L 348.257745 276.835968 
L 345.316073 276.835968 
z
" clip-path="url(#pf1aca2cd92)" style="fill: #ffe4e1"/>
   </g>
   <g id="patch_371">
    <path d="M 348.993164 293.76 
L 351.934836 293.76 
L 351.934836 277.88212 
L 348.993164 277.88212 
z
" clip-path="url(#pf1aca2cd92)" style="fill: #ffe4e1"/>
   </g>
   <g id="patch_372">
    <path d="M 352.670255 293.76 
L 355.611927 293.76 
L 355.611927 276.869715 
L 352.670255 276.869715 
z
" clip-path="url(#pf1aca2cd92)" style="fill: #ffe4e1"/>
   </g>
   <g id="patch_373">
    <path d="M 356.347345 293.76 
L 359.289018 293.76 
L 359.289018 278.118347 
L 356.347345 278.118347 
z
" clip-path="url(#pf1aca2cd92)" style="fill: #ffe4e1"/>
   </g>
   <g id="patch_374">
    <path d="M 360.024436 293.76 
L 362.966109 293.76 
L 362.966109 277.561525 
L 360.024436 277.561525 
z
" clip-path="url(#pf1aca2cd92)" style="fill: #ffe4e1"/>
   </g>
   <g id="patch_375">
    <path d="M 363.701527 293.76 
L 366.6432 293.76 
L 366.6432 278.0846 
L 363.701527 278.0846 
z
" clip-path="url(#pf1aca2cd92)" style="fill: #ffe4e1"/>
   </g>
   <g id="patch_376">
    <path d="M 367.378618 293.76 
L 370.320291 293.76 
L 370.320291 270.643426 
L 367.378618 270.643426 
z
" clip-path="url(#pf1aca2cd92)" style="fill: #ffe4e1"/>
   </g>
   <g id="patch_377">
    <path d="M 371.055709 293.76 
L 373.997382 293.76 
L 373.997382 276.667234 
L 371.055709 276.667234 
z
" clip-path="url(#pf1aca2cd92)" style="fill: #ffe4e1"/>
   </g>
   <g id="patch_378">
    <path d="M 374.7328 293.76 
L 377.674473 293.76 
L 377.674473 277.207183 
L 374.7328 277.207183 
z
" clip-path="url(#pf1aca2cd92)" style="fill: #ffe4e1"/>
   </g>
   <g id="patch_379">
    <path d="M 378.409891 293.76 
L 381.351564 293.76 
L 381.351564 277.780879 
L 378.409891 277.780879 
z
" clip-path="url(#pf1aca2cd92)" style="fill: #ffe4e1"/>
   </g>
   <g id="patch_380">
    <path d="M 382.086982 293.76 
L 385.028655 293.76 
L 385.028655 277.696512 
L 382.086982 277.696512 
z
" clip-path="url(#pf1aca2cd92)" style="fill: #ffe4e1"/>
   </g>
   <g id="patch_381">
    <path d="M 385.764073 293.76 
L 388.705745 293.76 
L 388.705745 277.629018 
L 385.764073 277.629018 
z
" clip-path="url(#pf1aca2cd92)" style="fill: #ffe4e1"/>
   </g>
   <g id="patch_382">
    <path d="M 389.441164 293.76 
L 392.382836 293.76 
L 392.382836 278.017107 
L 389.441164 278.017107 
z
" clip-path="url(#pf1aca2cd92)" style="fill: #ffe4e1"/>
   </g>
   <g id="patch_383">
    <path d="M 393.118255 293.76 
L 396.059927 293.76 
L 396.059927 277.544651 
L 393.118255 277.544651 
z
" clip-path="url(#pf1aca2cd92)" style="fill: #ffe4e1"/>
   </g>
   <g id="patch_384">
    <path d="M 396.795345 293.76 
L 399.737018 293.76 
L 399.737018 276.464753 
L 396.795345 276.464753 
z
" clip-path="url(#pf1aca2cd92)" style="fill: #ffe4e1"/>
   </g>
   <g id="patch_385">
    <path d="M 400.472436 293.76 
L 403.414109 293.76 
L 403.414109 278.135221 
L 400.472436 278.135221 
z
" clip-path="url(#pf1aca2cd92)" style="fill: #ffe4e1"/>
   </g>
   <g id="patch_386">
    <path d="M 404.149527 293.76 
L 407.0912 293.76 
L 407.0912 277.915866 
L 404.149527 277.915866 
z
" clip-path="url(#pf1aca2cd92)" style="fill: #ffe4e1"/>
   </g>
   <g id="patch_387">
    <path d="M 407.826618 293.76 
L 410.768291 293.76 
L 410.768291 277.814626 
L 407.826618 277.814626 
z
" clip-path="url(#pf1aca2cd92)" style="fill: #ffe4e1"/>
   </g>
   <g id="patch_388">
    <path d="M 411.503709 293.76 
L 414.445382 293.76 
L 414.445382 276.329766 
L 411.503709 276.329766 
z
" clip-path="url(#pf1aca2cd92)" style="fill: #ffe4e1"/>
   </g>
   <g id="patch_389">
    <path d="M 415.1808 293.76 
L 418.122473 293.76 
L 418.122473 277.375917 
L 415.1808 277.375917 
z
" clip-path="url(#pf1aca2cd92)" style="fill: #ffe4e1"/>
   </g>
   <g id="patch_390">
    <path d="M 418.857891 293.76 
L 421.799564 293.76 
L 421.799564 276.835968 
L 418.857891 276.835968 
z
" clip-path="url(#pf1aca2cd92)" style="fill: #ffe4e1"/>
   </g>
   <g id="patch_391">
    <path d="M 422.534982 293.76 
L 425.476655 293.76 
L 425.476655 277.426537 
L 422.534982 277.426537 
z
" clip-path="url(#pf1aca2cd92)" style="fill: #ffe4e1"/>
   </g>
   <g id="patch_392">
    <path d="M 426.212073 293.76 
L 429.153745 293.76 
L 429.153745 278.253335 
L 426.212073 278.253335 
z
" clip-path="url(#pf1aca2cd92)" style="fill: #ffe4e1"/>
   </g>
   <g id="patch_393">
    <path d="M 429.889164 293.76 
L 432.830836 293.76 
L 432.830836 277.561525 
L 429.889164 277.561525 
z
" clip-path="url(#pf1aca2cd92)" style="fill: #ffe4e1"/>
   </g>
   <g id="patch_394">
    <path d="M 433.566255 293.76 
L 436.507927 293.76 
L 436.507927 277.629018 
L 433.566255 277.629018 
z
" clip-path="url(#pf1aca2cd92)" style="fill: #ffe4e1"/>
   </g>
   <g id="patch_395">
    <path d="M 437.243345 293.76 
L 440.185018 293.76 
L 440.185018 277.426537 
L 437.243345 277.426537 
z
" clip-path="url(#pf1aca2cd92)" style="fill: #ffe4e1"/>
   </g>
   <g id="patch_396">
    <path d="M 440.920436 293.76 
L 443.862109 293.76 
L 443.862109 277.510904 
L 440.920436 277.510904 
z
" clip-path="url(#pf1aca2cd92)" style="fill: #ffe4e1"/>
   </g>
   <g id="patch_397">
    <path d="M 444.597527 293.76 
L 447.5392 293.76 
L 447.5392 277.392791 
L 444.597527 277.392791 
z
" clip-path="url(#pf1aca2cd92)" style="fill: #ffe4e1"/>
   </g>
   <g id="patch_398">
    <path d="M 448.274618 293.76 
L 451.216291 293.76 
L 451.216291 277.224056 
L 448.274618 277.224056 
z
" clip-path="url(#pf1aca2cd92)" style="fill: #ffe4e1"/>
   </g>
   <g id="matplotlib.axis_1">
    <g id="xtick_1">
     <g id="line2d_1">
      <path d="M 159.255273 293.76 
L 159.255273 6.912 
" clip-path="url(#pf1aca2cd92)" style="fill: none; stroke: #b0b0b0; stroke-width: 0.8; stroke-linecap: square"/>
     </g>
     <g id="line2d_2">
      <defs>
       <path id="m7c2a16e0e4" d="M 0 0 
L 0 3.5 
" style="stroke: #000000; stroke-width: 0.8"/>
      </defs>
      <g>
       <use xlink:href="#m7c2a16e0e4" x="159.255273" y="293.76" style="stroke: #000000; stroke-width: 0.8"/>
      </g>
     </g>
     <g id="text_1">
      <!-- 20 -->
      <g transform="translate(146.530273 315.956875) scale(0.2 -0.2)">
       <defs>
        <path id="DejaVuSans-32" d="M 1228 531 
L 3431 531 
L 3431 0 
L 469 0 
L 469 531 
Q 828 903 1448 1529 
Q 2069 2156 2228 2338 
Q 2531 2678 2651 2914 
Q 2772 3150 2772 3378 
Q 2772 3750 2511 3984 
Q 2250 4219 1831 4219 
Q 1534 4219 1204 4116 
Q 875 4013 500 3803 
L 500 4441 
Q 881 4594 1212 4672 
Q 1544 4750 1819 4750 
Q 2544 4750 2975 4387 
Q 3406 4025 3406 3419 
Q 3406 3131 3298 2873 
Q 3191 2616 2906 2266 
Q 2828 2175 2409 1742 
Q 1991 1309 1228 531 
z
" transform="scale(0.015625)"/>
        <path id="DejaVuSans-30" d="M 2034 4250 
Q 1547 4250 1301 3770 
Q 1056 3291 1056 2328 
Q 1056 1369 1301 889 
Q 1547 409 2034 409 
Q 2525 409 2770 889 
Q 3016 1369 3016 2328 
Q 3016 3291 2770 3770 
Q 2525 4250 2034 4250 
z
M 2034 4750 
Q 2819 4750 3233 4129 
Q 3647 3509 3647 2328 
Q 3647 1150 3233 529 
Q 2819 -91 2034 -91 
Q 1250 -91 836 529 
Q 422 1150 422 2328 
Q 422 3509 836 4129 
Q 1250 4750 2034 4750 
z
" transform="scale(0.015625)"/>
       </defs>
       <use xlink:href="#DejaVuSans-32"/>
       <use xlink:href="#DejaVuSans-30" x="63.623047"/>
      </g>
     </g>
    </g>
    <g id="xtick_2">
     <g id="line2d_3">
      <path d="M 232.797091 293.76 
L 232.797091 6.912 
" clip-path="url(#pf1aca2cd92)" style="fill: none; stroke: #b0b0b0; stroke-width: 0.8; stroke-linecap: square"/>
     </g>
     <g id="line2d_4">
      <g>
       <use xlink:href="#m7c2a16e0e4" x="232.797091" y="293.76" style="stroke: #000000; stroke-width: 0.8"/>
      </g>
     </g>
     <g id="text_2">
      <!-- 40 -->
      <g transform="translate(220.072091 315.956875) scale(0.2 -0.2)">
       <defs>
        <path id="DejaVuSans-34" d="M 2419 4116 
L 825 1625 
L 2419 1625 
L 2419 4116 
z
M 2253 4666 
L 3047 4666 
L 3047 1625 
L 3713 1625 
L 3713 1100 
L 3047 1100 
L 3047 0 
L 2419 0 
L 2419 1100 
L 313 1100 
L 313 1709 
L 2253 4666 
z
" transform="scale(0.015625)"/>
       </defs>
       <use xlink:href="#DejaVuSans-34"/>
       <use xlink:href="#DejaVuSans-30" x="63.623047"/>
      </g>
     </g>
    </g>
    <g id="xtick_3">
     <g id="line2d_5">
      <path d="M 306.338909 293.76 
L 306.338909 6.912 
" clip-path="url(#pf1aca2cd92)" style="fill: none; stroke: #b0b0b0; stroke-width: 0.8; stroke-linecap: square"/>
     </g>
     <g id="line2d_6">
      <g>
       <use xlink:href="#m7c2a16e0e4" x="306.338909" y="293.76" style="stroke: #000000; stroke-width: 0.8"/>
      </g>
     </g>
     <g id="text_3">
      <!-- 60 -->
      <g transform="translate(293.613909 315.956875) scale(0.2 -0.2)">
       <defs>
        <path id="DejaVuSans-36" d="M 2113 2584 
Q 1688 2584 1439 2293 
Q 1191 2003 1191 1497 
Q 1191 994 1439 701 
Q 1688 409 2113 409 
Q 2538 409 2786 701 
Q 3034 994 3034 1497 
Q 3034 2003 2786 2293 
Q 2538 2584 2113 2584 
z
M 3366 4563 
L 3366 3988 
Q 3128 4100 2886 4159 
Q 2644 4219 2406 4219 
Q 1781 4219 1451 3797 
Q 1122 3375 1075 2522 
Q 1259 2794 1537 2939 
Q 1816 3084 2150 3084 
Q 2853 3084 3261 2657 
Q 3669 2231 3669 1497 
Q 3669 778 3244 343 
Q 2819 -91 2113 -91 
Q 1303 -91 875 529 
Q 447 1150 447 2328 
Q 447 3434 972 4092 
Q 1497 4750 2381 4750 
Q 2619 4750 2861 4703 
Q 3103 4656 3366 4563 
z
" transform="scale(0.015625)"/>
       </defs>
       <use xlink:href="#DejaVuSans-36"/>
       <use xlink:href="#DejaVuSans-30" x="63.623047"/>
      </g>
     </g>
    </g>
    <g id="xtick_4">
     <g id="line2d_7">
      <path d="M 379.880727 293.76 
L 379.880727 6.912 
" clip-path="url(#pf1aca2cd92)" style="fill: none; stroke: #b0b0b0; stroke-width: 0.8; stroke-linecap: square"/>
     </g>
     <g id="line2d_8">
      <g>
       <use xlink:href="#m7c2a16e0e4" x="379.880727" y="293.76" style="stroke: #000000; stroke-width: 0.8"/>
      </g>
     </g>
     <g id="text_4">
      <!-- 80 -->
      <g transform="translate(367.155727 315.956875) scale(0.2 -0.2)">
       <defs>
        <path id="DejaVuSans-38" d="M 2034 2216 
Q 1584 2216 1326 1975 
Q 1069 1734 1069 1313 
Q 1069 891 1326 650 
Q 1584 409 2034 409 
Q 2484 409 2743 651 
Q 3003 894 3003 1313 
Q 3003 1734 2745 1975 
Q 2488 2216 2034 2216 
z
M 1403 2484 
Q 997 2584 770 2862 
Q 544 3141 544 3541 
Q 544 4100 942 4425 
Q 1341 4750 2034 4750 
Q 2731 4750 3128 4425 
Q 3525 4100 3525 3541 
Q 3525 3141 3298 2862 
Q 3072 2584 2669 2484 
Q 3125 2378 3379 2068 
Q 3634 1759 3634 1313 
Q 3634 634 3220 271 
Q 2806 -91 2034 -91 
Q 1263 -91 848 271 
Q 434 634 434 1313 
Q 434 1759 690 2068 
Q 947 2378 1403 2484 
z
M 1172 3481 
Q 1172 3119 1398 2916 
Q 1625 2713 2034 2713 
Q 2441 2713 2670 2916 
Q 2900 3119 2900 3481 
Q 2900 3844 2670 4047 
Q 2441 4250 2034 4250 
Q 1625 4250 1398 4047 
Q 1172 3844 1172 3481 
z
" transform="scale(0.015625)"/>
       </defs>
       <use xlink:href="#DejaVuSans-38"/>
       <use xlink:href="#DejaVuSans-30" x="63.623047"/>
      </g>
     </g>
    </g>
    <g id="text_5">
     <!-- batch iteration -->
     <g transform="translate(203.277375 337.793437) scale(0.18 -0.18)">
      <defs>
       <path id="DejaVuSans-62" d="M 3116 1747 
Q 3116 2381 2855 2742 
Q 2594 3103 2138 3103 
Q 1681 3103 1420 2742 
Q 1159 2381 1159 1747 
Q 1159 1113 1420 752 
Q 1681 391 2138 391 
Q 2594 391 2855 752 
Q 3116 1113 3116 1747 
z
M 1159 2969 
Q 1341 3281 1617 3432 
Q 1894 3584 2278 3584 
Q 2916 3584 3314 3078 
Q 3713 2572 3713 1747 
Q 3713 922 3314 415 
Q 2916 -91 2278 -91 
Q 1894 -91 1617 61 
Q 1341 213 1159 525 
L 1159 0 
L 581 0 
L 581 4863 
L 1159 4863 
L 1159 2969 
z
" transform="scale(0.015625)"/>
       <path id="DejaVuSans-61" d="M 2194 1759 
Q 1497 1759 1228 1600 
Q 959 1441 959 1056 
Q 959 750 1161 570 
Q 1363 391 1709 391 
Q 2188 391 2477 730 
Q 2766 1069 2766 1631 
L 2766 1759 
L 2194 1759 
z
M 3341 1997 
L 3341 0 
L 2766 0 
L 2766 531 
Q 2569 213 2275 61 
Q 1981 -91 1556 -91 
Q 1019 -91 701 211 
Q 384 513 384 1019 
Q 384 1609 779 1909 
Q 1175 2209 1959 2209 
L 2766 2209 
L 2766 2266 
Q 2766 2663 2505 2880 
Q 2244 3097 1772 3097 
Q 1472 3097 1187 3025 
Q 903 2953 641 2809 
L 641 3341 
Q 956 3463 1253 3523 
Q 1550 3584 1831 3584 
Q 2591 3584 2966 3190 
Q 3341 2797 3341 1997 
z
" transform="scale(0.015625)"/>
       <path id="DejaVuSans-74" d="M 1172 4494 
L 1172 3500 
L 2356 3500 
L 2356 3053 
L 1172 3053 
L 1172 1153 
Q 1172 725 1289 603 
Q 1406 481 1766 481 
L 2356 481 
L 2356 0 
L 1766 0 
Q 1100 0 847 248 
Q 594 497 594 1153 
L 594 3053 
L 172 3053 
L 172 3500 
L 594 3500 
L 594 4494 
L 1172 4494 
z
" transform="scale(0.015625)"/>
       <path id="DejaVuSans-63" d="M 3122 3366 
L 3122 2828 
Q 2878 2963 2633 3030 
Q 2388 3097 2138 3097 
Q 1578 3097 1268 2742 
Q 959 2388 959 1747 
Q 959 1106 1268 751 
Q 1578 397 2138 397 
Q 2388 397 2633 464 
Q 2878 531 3122 666 
L 3122 134 
Q 2881 22 2623 -34 
Q 2366 -91 2075 -91 
Q 1284 -91 818 406 
Q 353 903 353 1747 
Q 353 2603 823 3093 
Q 1294 3584 2113 3584 
Q 2378 3584 2631 3529 
Q 2884 3475 3122 3366 
z
" transform="scale(0.015625)"/>
       <path id="DejaVuSans-68" d="M 3513 2113 
L 3513 0 
L 2938 0 
L 2938 2094 
Q 2938 2591 2744 2837 
Q 2550 3084 2163 3084 
Q 1697 3084 1428 2787 
Q 1159 2491 1159 1978 
L 1159 0 
L 581 0 
L 581 4863 
L 1159 4863 
L 1159 2956 
Q 1366 3272 1645 3428 
Q 1925 3584 2291 3584 
Q 2894 3584 3203 3211 
Q 3513 2838 3513 2113 
z
" transform="scale(0.015625)"/>
       <path id="DejaVuSans-20" transform="scale(0.015625)"/>
       <path id="DejaVuSans-69" d="M 603 3500 
L 1178 3500 
L 1178 0 
L 603 0 
L 603 3500 
z
M 603 4863 
L 1178 4863 
L 1178 4134 
L 603 4134 
L 603 4863 
z
" transform="scale(0.015625)"/>
       <path id="DejaVuSans-65" d="M 3597 1894 
L 3597 1613 
L 953 1613 
Q 991 1019 1311 708 
Q 1631 397 2203 397 
Q 2534 397 2845 478 
Q 3156 559 3463 722 
L 3463 178 
Q 3153 47 2828 -22 
Q 2503 -91 2169 -91 
Q 1331 -91 842 396 
Q 353 884 353 1716 
Q 353 2575 817 3079 
Q 1281 3584 2069 3584 
Q 2775 3584 3186 3129 
Q 3597 2675 3597 1894 
z
M 3022 2063 
Q 3016 2534 2758 2815 
Q 2500 3097 2075 3097 
Q 1594 3097 1305 2825 
Q 1016 2553 972 2059 
L 3022 2063 
z
" transform="scale(0.015625)"/>
       <path id="DejaVuSans-72" d="M 2631 2963 
Q 2534 3019 2420 3045 
Q 2306 3072 2169 3072 
Q 1681 3072 1420 2755 
Q 1159 2438 1159 1844 
L 1159 0 
L 581 0 
L 581 3500 
L 1159 3500 
L 1159 2956 
Q 1341 3275 1631 3429 
Q 1922 3584 2338 3584 
Q 2397 3584 2469 3576 
Q 2541 3569 2628 3553 
L 2631 2963 
z
" transform="scale(0.015625)"/>
       <path id="DejaVuSans-6f" d="M 1959 3097 
Q 1497 3097 1228 2736 
Q 959 2375 959 1747 
Q 959 1119 1226 758 
Q 1494 397 1959 397 
Q 2419 397 2687 759 
Q 2956 1122 2956 1747 
Q 2956 2369 2687 2733 
Q 2419 3097 1959 3097 
z
M 1959 3584 
Q 2709 3584 3137 3096 
Q 3566 2609 3566 1747 
Q 3566 888 3137 398 
Q 2709 -91 1959 -91 
Q 1206 -91 779 398 
Q 353 888 353 1747 
Q 353 2609 779 3096 
Q 1206 3584 1959 3584 
z
" transform="scale(0.015625)"/>
       <path id="DejaVuSans-6e" d="M 3513 2113 
L 3513 0 
L 2938 0 
L 2938 2094 
Q 2938 2591 2744 2837 
Q 2550 3084 2163 3084 
Q 1697 3084 1428 2787 
Q 1159 2491 1159 1978 
L 1159 0 
L 581 0 
L 581 3500 
L 1159 3500 
L 1159 2956 
Q 1366 3272 1645 3428 
Q 1925 3584 2291 3584 
Q 2894 3584 3203 3211 
Q 3513 2838 3513 2113 
z
" transform="scale(0.015625)"/>
      </defs>
      <use xlink:href="#DejaVuSans-62"/>
      <use xlink:href="#DejaVuSans-61" x="63.476562"/>
      <use xlink:href="#DejaVuSans-74" x="124.755859"/>
      <use xlink:href="#DejaVuSans-63" x="163.964844"/>
      <use xlink:href="#DejaVuSans-68" x="218.945312"/>
      <use xlink:href="#DejaVuSans-20" x="282.324219"/>
      <use xlink:href="#DejaVuSans-69" x="314.111328"/>
      <use xlink:href="#DejaVuSans-74" x="341.894531"/>
      <use xlink:href="#DejaVuSans-65" x="381.103516"/>
      <use xlink:href="#DejaVuSans-72" x="442.626953"/>
      <use xlink:href="#DejaVuSans-61" x="483.740234"/>
      <use xlink:href="#DejaVuSans-74" x="545.019531"/>
      <use xlink:href="#DejaVuSans-69" x="584.228516"/>
      <use xlink:href="#DejaVuSans-6f" x="612.011719"/>
      <use xlink:href="#DejaVuSans-6e" x="673.193359"/>
     </g>
    </g>
   </g>
   <g id="matplotlib.axis_2">
    <g id="ytick_1">
     <g id="line2d_9">
      <path d="M 87.552 293.76 
L 451.584 293.76 
" clip-path="url(#pf1aca2cd92)" style="fill: none; stroke: #b0b0b0; stroke-width: 0.8; stroke-linecap: square"/>
     </g>
     <g id="line2d_10">
      <defs>
       <path id="mda944ea7db" d="M 0 0 
L -3.5 0 
" style="stroke: #000000; stroke-width: 0.8"/>
      </defs>
      <g>
       <use xlink:href="#mda944ea7db" x="87.552" y="293.76" style="stroke: #000000; stroke-width: 0.8"/>
      </g>
     </g>
     <g id="text_6">
      <!-- 0.000 -->
      <g transform="translate(23.29575 301.358437) scale(0.2 -0.2)">
       <defs>
        <path id="DejaVuSans-2e" d="M 684 794 
L 1344 794 
L 1344 0 
L 684 0 
L 684 794 
z
" transform="scale(0.015625)"/>
       </defs>
       <use xlink:href="#DejaVuSans-30"/>
       <use xlink:href="#DejaVuSans-2e" x="63.623047"/>
       <use xlink:href="#DejaVuSans-30" x="95.410156"/>
       <use xlink:href="#DejaVuSans-30" x="159.033203"/>
       <use xlink:href="#DejaVuSans-30" x="222.65625"/>
      </g>
     </g>
    </g>
    <g id="ytick_2">
     <g id="line2d_11">
      <path d="M 87.552 251.576471 
L 451.584 251.576471 
" clip-path="url(#pf1aca2cd92)" style="fill: none; stroke: #b0b0b0; stroke-width: 0.8; stroke-linecap: square"/>
     </g>
     <g id="line2d_12">
      <g>
       <use xlink:href="#mda944ea7db" x="87.552" y="251.576471" style="stroke: #000000; stroke-width: 0.8"/>
      </g>
     </g>
     <g id="text_7">
      <!-- 0.025 -->
      <g transform="translate(23.29575 259.174908) scale(0.2 -0.2)">
       <defs>
        <path id="DejaVuSans-35" d="M 691 4666 
L 3169 4666 
L 3169 4134 
L 1269 4134 
L 1269 2991 
Q 1406 3038 1543 3061 
Q 1681 3084 1819 3084 
Q 2600 3084 3056 2656 
Q 3513 2228 3513 1497 
Q 3513 744 3044 326 
Q 2575 -91 1722 -91 
Q 1428 -91 1123 -41 
Q 819 9 494 109 
L 494 744 
Q 775 591 1075 516 
Q 1375 441 1709 441 
Q 2250 441 2565 725 
Q 2881 1009 2881 1497 
Q 2881 1984 2565 2268 
Q 2250 2553 1709 2553 
Q 1456 2553 1204 2497 
Q 953 2441 691 2322 
L 691 4666 
z
" transform="scale(0.015625)"/>
       </defs>
       <use xlink:href="#DejaVuSans-30"/>
       <use xlink:href="#DejaVuSans-2e" x="63.623047"/>
       <use xlink:href="#DejaVuSans-30" x="95.410156"/>
       <use xlink:href="#DejaVuSans-32" x="159.033203"/>
       <use xlink:href="#DejaVuSans-35" x="222.65625"/>
      </g>
     </g>
    </g>
    <g id="ytick_3">
     <g id="line2d_13">
      <path d="M 87.552 209.392941 
L 451.584 209.392941 
" clip-path="url(#pf1aca2cd92)" style="fill: none; stroke: #b0b0b0; stroke-width: 0.8; stroke-linecap: square"/>
     </g>
     <g id="line2d_14">
      <g>
       <use xlink:href="#mda944ea7db" x="87.552" y="209.392941" style="stroke: #000000; stroke-width: 0.8"/>
      </g>
     </g>
     <g id="text_8">
      <!-- 0.050 -->
      <g transform="translate(23.29575 216.991379) scale(0.2 -0.2)">
       <use xlink:href="#DejaVuSans-30"/>
       <use xlink:href="#DejaVuSans-2e" x="63.623047"/>
       <use xlink:href="#DejaVuSans-30" x="95.410156"/>
       <use xlink:href="#DejaVuSans-35" x="159.033203"/>
       <use xlink:href="#DejaVuSans-30" x="222.65625"/>
      </g>
     </g>
    </g>
    <g id="ytick_4">
     <g id="line2d_15">
      <path d="M 87.552 167.209412 
L 451.584 167.209412 
" clip-path="url(#pf1aca2cd92)" style="fill: none; stroke: #b0b0b0; stroke-width: 0.8; stroke-linecap: square"/>
     </g>
     <g id="line2d_16">
      <g>
       <use xlink:href="#mda944ea7db" x="87.552" y="167.209412" style="stroke: #000000; stroke-width: 0.8"/>
      </g>
     </g>
     <g id="text_9">
      <!-- 0.075 -->
      <g transform="translate(23.29575 174.807849) scale(0.2 -0.2)">
       <defs>
        <path id="DejaVuSans-37" d="M 525 4666 
L 3525 4666 
L 3525 4397 
L 1831 0 
L 1172 0 
L 2766 4134 
L 525 4134 
L 525 4666 
z
" transform="scale(0.015625)"/>
       </defs>
       <use xlink:href="#DejaVuSans-30"/>
       <use xlink:href="#DejaVuSans-2e" x="63.623047"/>
       <use xlink:href="#DejaVuSans-30" x="95.410156"/>
       <use xlink:href="#DejaVuSans-37" x="159.033203"/>
       <use xlink:href="#DejaVuSans-35" x="222.65625"/>
      </g>
     </g>
    </g>
    <g id="ytick_5">
     <g id="line2d_17">
      <path d="M 87.552 125.025882 
L 451.584 125.025882 
" clip-path="url(#pf1aca2cd92)" style="fill: none; stroke: #b0b0b0; stroke-width: 0.8; stroke-linecap: square"/>
     </g>
     <g id="line2d_18">
      <g>
       <use xlink:href="#mda944ea7db" x="87.552" y="125.025882" style="stroke: #000000; stroke-width: 0.8"/>
      </g>
     </g>
     <g id="text_10">
      <!-- 0.100 -->
      <g transform="translate(23.29575 132.62432) scale(0.2 -0.2)">
       <defs>
        <path id="DejaVuSans-31" d="M 794 531 
L 1825 531 
L 1825 4091 
L 703 3866 
L 703 4441 
L 1819 4666 
L 2450 4666 
L 2450 531 
L 3481 531 
L 3481 0 
L 794 0 
L 794 531 
z
" transform="scale(0.015625)"/>
       </defs>
       <use xlink:href="#DejaVuSans-30"/>
       <use xlink:href="#DejaVuSans-2e" x="63.623047"/>
       <use xlink:href="#DejaVuSans-31" x="95.410156"/>
       <use xlink:href="#DejaVuSans-30" x="159.033203"/>
       <use xlink:href="#DejaVuSans-30" x="222.65625"/>
      </g>
     </g>
    </g>
    <g id="ytick_6">
     <g id="line2d_19">
      <path d="M 87.552 82.842353 
L 451.584 82.842353 
" clip-path="url(#pf1aca2cd92)" style="fill: none; stroke: #b0b0b0; stroke-width: 0.8; stroke-linecap: square"/>
     </g>
     <g id="line2d_20">
      <g>
       <use xlink:href="#mda944ea7db" x="87.552" y="82.842353" style="stroke: #000000; stroke-width: 0.8"/>
      </g>
     </g>
     <g id="text_11">
      <!-- 0.125 -->
      <g transform="translate(23.29575 90.44079) scale(0.2 -0.2)">
       <use xlink:href="#DejaVuSans-30"/>
       <use xlink:href="#DejaVuSans-2e" x="63.623047"/>
       <use xlink:href="#DejaVuSans-31" x="95.410156"/>
       <use xlink:href="#DejaVuSans-32" x="159.033203"/>
       <use xlink:href="#DejaVuSans-35" x="222.65625"/>
      </g>
     </g>
    </g>
    <g id="ytick_7">
     <g id="line2d_21">
      <path d="M 87.552 40.658824 
L 451.584 40.658824 
" clip-path="url(#pf1aca2cd92)" style="fill: none; stroke: #b0b0b0; stroke-width: 0.8; stroke-linecap: square"/>
     </g>
     <g id="line2d_22">
      <g>
       <use xlink:href="#mda944ea7db" x="87.552" y="40.658824" style="stroke: #000000; stroke-width: 0.8"/>
      </g>
     </g>
     <g id="text_12">
      <!-- 0.150 -->
      <g transform="translate(23.29575 48.257261) scale(0.2 -0.2)">
       <use xlink:href="#DejaVuSans-30"/>
       <use xlink:href="#DejaVuSans-2e" x="63.623047"/>
       <use xlink:href="#DejaVuSans-31" x="95.410156"/>
       <use xlink:href="#DejaVuSans-35" x="159.033203"/>
       <use xlink:href="#DejaVuSans-30" x="222.65625"/>
      </g>
     </g>
    </g>
    <g id="text_13">
     <!-- time[s] -->
     <g transform="translate(15.552313 182.380219) rotate(-90) scale(0.18 -0.18)">
      <defs>
       <path id="DejaVuSans-6d" d="M 3328 2828 
Q 3544 3216 3844 3400 
Q 4144 3584 4550 3584 
Q 5097 3584 5394 3201 
Q 5691 2819 5691 2113 
L 5691 0 
L 5113 0 
L 5113 2094 
Q 5113 2597 4934 2840 
Q 4756 3084 4391 3084 
Q 3944 3084 3684 2787 
Q 3425 2491 3425 1978 
L 3425 0 
L 2847 0 
L 2847 2094 
Q 2847 2600 2669 2842 
Q 2491 3084 2119 3084 
Q 1678 3084 1418 2786 
Q 1159 2488 1159 1978 
L 1159 0 
L 581 0 
L 581 3500 
L 1159 3500 
L 1159 2956 
Q 1356 3278 1631 3431 
Q 1906 3584 2284 3584 
Q 2666 3584 2933 3390 
Q 3200 3197 3328 2828 
z
" transform="scale(0.015625)"/>
       <path id="DejaVuSans-5b" d="M 550 4863 
L 1875 4863 
L 1875 4416 
L 1125 4416 
L 1125 -397 
L 1875 -397 
L 1875 -844 
L 550 -844 
L 550 4863 
z
" transform="scale(0.015625)"/>
       <path id="DejaVuSans-73" d="M 2834 3397 
L 2834 2853 
Q 2591 2978 2328 3040 
Q 2066 3103 1784 3103 
Q 1356 3103 1142 2972 
Q 928 2841 928 2578 
Q 928 2378 1081 2264 
Q 1234 2150 1697 2047 
L 1894 2003 
Q 2506 1872 2764 1633 
Q 3022 1394 3022 966 
Q 3022 478 2636 193 
Q 2250 -91 1575 -91 
Q 1294 -91 989 -36 
Q 684 19 347 128 
L 347 722 
Q 666 556 975 473 
Q 1284 391 1588 391 
Q 1994 391 2212 530 
Q 2431 669 2431 922 
Q 2431 1156 2273 1281 
Q 2116 1406 1581 1522 
L 1381 1569 
Q 847 1681 609 1914 
Q 372 2147 372 2553 
Q 372 3047 722 3315 
Q 1072 3584 1716 3584 
Q 2034 3584 2315 3537 
Q 2597 3491 2834 3397 
z
" transform="scale(0.015625)"/>
       <path id="DejaVuSans-5d" d="M 1947 4863 
L 1947 -844 
L 622 -844 
L 622 -397 
L 1369 -397 
L 1369 4416 
L 622 4416 
L 622 4863 
L 1947 4863 
z
" transform="scale(0.015625)"/>
      </defs>
      <use xlink:href="#DejaVuSans-74"/>
      <use xlink:href="#DejaVuSans-69" x="39.208984"/>
      <use xlink:href="#DejaVuSans-6d" x="66.992188"/>
      <use xlink:href="#DejaVuSans-65" x="164.404297"/>
      <use xlink:href="#DejaVuSans-5b" x="225.927734"/>
      <use xlink:href="#DejaVuSans-73" x="264.941406"/>
      <use xlink:href="#DejaVuSans-5d" x="317.041016"/>
     </g>
    </g>
   </g>
   <g id="patch_399">
    <path d="M 87.552 293.76 
L 87.552 6.912 
" style="fill: none; stroke: #000000; stroke-width: 0.8; stroke-linejoin: miter; stroke-linecap: square"/>
   </g>
   <g id="patch_400">
    <path d="M 451.584 293.76 
L 451.584 6.912 
" style="fill: none; stroke: #000000; stroke-width: 0.8; stroke-linejoin: miter; stroke-linecap: square"/>
   </g>
   <g id="patch_401">
    <path d="M 87.552 293.76 
L 451.584 293.76 
" style="fill: none; stroke: #000000; stroke-width: 0.8; stroke-linejoin: miter; stroke-linecap: square"/>
   </g>
   <g id="patch_402">
    <path d="M 87.552 6.912 
L 451.584 6.912 
" style="fill: none; stroke: #000000; stroke-width: 0.8; stroke-linejoin: miter; stroke-linecap: square"/>
   </g>
  </g>
 </g>
 <defs>
  <clipPath id="pf1aca2cd92">
   <rect x="87.552" y="6.912" width="364.032" height="286.848"/>
  </clipPath>
 </defs>
</svg>
