<?xml version="1.0" encoding="utf-8" standalone="no"?>
<!DOCTYPE svg PUBLIC "-//W3C//DTD SVG 1.1//EN"
  "http://www.w3.org/Graphics/SVG/1.1/DTD/svg11.dtd">
<svg xmlns:xlink="http://www.w3.org/1999/xlink" width="460.8pt" height="345.6pt" viewBox="0 0 460.8 345.6" xmlns="http://www.w3.org/2000/svg" version="1.1">
 <metadata>
  <rdf:RDF xmlns:dc="http://purl.org/dc/elements/1.1/" xmlns:cc="http://creativecommons.org/ns#" xmlns:rdf="http://www.w3.org/1999/02/22-rdf-syntax-ns#">
   <cc:Work>
    <dc:type rdf:resource="http://purl.org/dc/dcmitype/StillImage"/>
    <dc:date>2024-02-14T07:55:40.639172</dc:date>
    <dc:format>image/svg+xml</dc:format>
    <dc:creator>
     <cc:Agent>
      <dc:title>Matplotlib v3.7.0, https://matplotlib.org/</dc:title>
     </cc:Agent>
    </dc:creator>
   </cc:Work>
  </rdf:RDF>
 </metadata>
 <defs>
  <style type="text/css">*{stroke-linejoin: round; stroke-linecap: butt}</style>
 </defs>
 <g id="figure_1">
  <g id="patch_1">
   <path d="M 0 345.6 
L 460.8 345.6 
L 460.8 0 
L 0 0 
L 0 345.6 
z
" style="fill: none"/>
  </g>
  <g id="axes_1">
   <g id="patch_2">
    <path d="M 92.16 307.584 
L 414.72 307.584 
L 414.72 41.472 
L 92.16 41.472 
L 92.16 307.584 
z
" style="fill: none"/>
   </g>
   <g id="matplotlib.axis_1">
    <g id="xtick_1">
     <g id="line2d_1">
      <path d="M 156.607229 307.584 
L 156.607229 41.472 
" clip-path="url(#p51a3fe619d)" style="fill: none; stroke: #b0b0b0; stroke-width: 0.8; stroke-linecap: square"/>
     </g>
     <g id="line2d_2">
      <defs>
       <path id="m3099fe88ed" d="M 0 0 
L 0 3.5 
" style="stroke: #000000; stroke-width: 0.8"/>
      </defs>
      <g>
       <use xlink:href="#m3099fe88ed" x="156.607229" y="307.584" style="stroke: #000000; stroke-width: 0.8"/>
      </g>
     </g>
     <g id="text_1">
      <!-- 100 -->
      <g transform="translate(147.063479 322.182437) scale(0.1 -0.1)">
       <defs>
        <path id="DejaVuSans-31" d="M 794 531 
L 1825 531 
L 1825 4091 
L 703 3866 
L 703 4441 
L 1819 4666 
L 2450 4666 
L 2450 531 
L 3481 531 
L 3481 0 
L 794 0 
L 794 531 
z
" transform="scale(0.015625)"/>
        <path id="DejaVuSans-30" d="M 2034 4250 
Q 1547 4250 1301 3770 
Q 1056 3291 1056 2328 
Q 1056 1369 1301 889 
Q 1547 409 2034 409 
Q 2525 409 2770 889 
Q 3016 1369 3016 2328 
Q 3016 3291 2770 3770 
Q 2525 4250 2034 4250 
z
M 2034 4750 
Q 2819 4750 3233 4129 
Q 3647 3509 3647 2328 
Q 3647 1150 3233 529 
Q 2819 -91 2034 -91 
Q 1250 -91 836 529 
Q 422 1150 422 2328 
Q 422 3509 836 4129 
Q 1250 4750 2034 4750 
z
" transform="scale(0.015625)"/>
       </defs>
       <use xlink:href="#DejaVuSans-31"/>
       <use xlink:href="#DejaVuSans-30" x="63.623047"/>
       <use xlink:href="#DejaVuSans-30" x="127.246094"/>
      </g>
     </g>
    </g>
    <g id="xtick_2">
     <g id="line2d_3">
      <path d="M 221.378313 307.584 
L 221.378313 41.472 
" clip-path="url(#p51a3fe619d)" style="fill: none; stroke: #b0b0b0; stroke-width: 0.8; stroke-linecap: square"/>
     </g>
     <g id="line2d_4">
      <g>
       <use xlink:href="#m3099fe88ed" x="221.378313" y="307.584" style="stroke: #000000; stroke-width: 0.8"/>
      </g>
     </g>
     <g id="text_2">
      <!-- 200 -->
      <g transform="translate(211.834563 322.182437) scale(0.1 -0.1)">
       <defs>
        <path id="DejaVuSans-32" d="M 1228 531 
L 3431 531 
L 3431 0 
L 469 0 
L 469 531 
Q 828 903 1448 1529 
Q 2069 2156 2228 2338 
Q 2531 2678 2651 2914 
Q 2772 3150 2772 3378 
Q 2772 3750 2511 3984 
Q 2250 4219 1831 4219 
Q 1534 4219 1204 4116 
Q 875 4013 500 3803 
L 500 4441 
Q 881 4594 1212 4672 
Q 1544 4750 1819 4750 
Q 2544 4750 2975 4387 
Q 3406 4025 3406 3419 
Q 3406 3131 3298 2873 
Q 3191 2616 2906 2266 
Q 2828 2175 2409 1742 
Q 1991 1309 1228 531 
z
" transform="scale(0.015625)"/>
       </defs>
       <use xlink:href="#DejaVuSans-32"/>
       <use xlink:href="#DejaVuSans-30" x="63.623047"/>
       <use xlink:href="#DejaVuSans-30" x="127.246094"/>
      </g>
     </g>
    </g>
    <g id="xtick_3">
     <g id="line2d_5">
      <path d="M 286.149398 307.584 
L 286.149398 41.472 
" clip-path="url(#p51a3fe619d)" style="fill: none; stroke: #b0b0b0; stroke-width: 0.8; stroke-linecap: square"/>
     </g>
     <g id="line2d_6">
      <g>
       <use xlink:href="#m3099fe88ed" x="286.149398" y="307.584" style="stroke: #000000; stroke-width: 0.8"/>
      </g>
     </g>
     <g id="text_3">
      <!-- 300 -->
      <g transform="translate(276.605648 322.182437) scale(0.1 -0.1)">
       <defs>
        <path id="DejaVuSans-33" d="M 2597 2516 
Q 3050 2419 3304 2112 
Q 3559 1806 3559 1356 
Q 3559 666 3084 287 
Q 2609 -91 1734 -91 
Q 1441 -91 1130 -33 
Q 819 25 488 141 
L 488 750 
Q 750 597 1062 519 
Q 1375 441 1716 441 
Q 2309 441 2620 675 
Q 2931 909 2931 1356 
Q 2931 1769 2642 2001 
Q 2353 2234 1838 2234 
L 1294 2234 
L 1294 2753 
L 1863 2753 
Q 2328 2753 2575 2939 
Q 2822 3125 2822 3475 
Q 2822 3834 2567 4026 
Q 2313 4219 1838 4219 
Q 1578 4219 1281 4162 
Q 984 4106 628 3988 
L 628 4550 
Q 988 4650 1302 4700 
Q 1616 4750 1894 4750 
Q 2613 4750 3031 4423 
Q 3450 4097 3450 3541 
Q 3450 3153 3228 2886 
Q 3006 2619 2597 2516 
z
" transform="scale(0.015625)"/>
       </defs>
       <use xlink:href="#DejaVuSans-33"/>
       <use xlink:href="#DejaVuSans-30" x="63.623047"/>
       <use xlink:href="#DejaVuSans-30" x="127.246094"/>
      </g>
     </g>
    </g>
    <g id="xtick_4">
     <g id="line2d_7">
      <path d="M 350.920482 307.584 
L 350.920482 41.472 
" clip-path="url(#p51a3fe619d)" style="fill: none; stroke: #b0b0b0; stroke-width: 0.8; stroke-linecap: square"/>
     </g>
     <g id="line2d_8">
      <g>
       <use xlink:href="#m3099fe88ed" x="350.920482" y="307.584" style="stroke: #000000; stroke-width: 0.8"/>
      </g>
     </g>
     <g id="text_4">
      <!-- 400 -->
      <g transform="translate(341.376732 322.182437) scale(0.1 -0.1)">
       <defs>
        <path id="DejaVuSans-34" d="M 2419 4116 
L 825 1625 
L 2419 1625 
L 2419 4116 
z
M 2253 4666 
L 3047 4666 
L 3047 1625 
L 3713 1625 
L 3713 1100 
L 3047 1100 
L 3047 0 
L 2419 0 
L 2419 1100 
L 313 1100 
L 313 1709 
L 2253 4666 
z
" transform="scale(0.015625)"/>
       </defs>
       <use xlink:href="#DejaVuSans-34"/>
       <use xlink:href="#DejaVuSans-30" x="63.623047"/>
       <use xlink:href="#DejaVuSans-30" x="127.246094"/>
      </g>
     </g>
    </g>
    <g id="text_5">
     <!-- batch iteration -->
     <g transform="translate(187.149375 341.939312) scale(0.18 -0.18)">
      <defs>
       <path id="DejaVuSans-62" d="M 3116 1747 
Q 3116 2381 2855 2742 
Q 2594 3103 2138 3103 
Q 1681 3103 1420 2742 
Q 1159 2381 1159 1747 
Q 1159 1113 1420 752 
Q 1681 391 2138 391 
Q 2594 391 2855 752 
Q 3116 1113 3116 1747 
z
M 1159 2969 
Q 1341 3281 1617 3432 
Q 1894 3584 2278 3584 
Q 2916 3584 3314 3078 
Q 3713 2572 3713 1747 
Q 3713 922 3314 415 
Q 2916 -91 2278 -91 
Q 1894 -91 1617 61 
Q 1341 213 1159 525 
L 1159 0 
L 581 0 
L 581 4863 
L 1159 4863 
L 1159 2969 
z
" transform="scale(0.015625)"/>
       <path id="DejaVuSans-61" d="M 2194 1759 
Q 1497 1759 1228 1600 
Q 959 1441 959 1056 
Q 959 750 1161 570 
Q 1363 391 1709 391 
Q 2188 391 2477 730 
Q 2766 1069 2766 1631 
L 2766 1759 
L 2194 1759 
z
M 3341 1997 
L 3341 0 
L 2766 0 
L 2766 531 
Q 2569 213 2275 61 
Q 1981 -91 1556 -91 
Q 1019 -91 701 211 
Q 384 513 384 1019 
Q 384 1609 779 1909 
Q 1175 2209 1959 2209 
L 2766 2209 
L 2766 2266 
Q 2766 2663 2505 2880 
Q 2244 3097 1772 3097 
Q 1472 3097 1187 3025 
Q 903 2953 641 2809 
L 641 3341 
Q 956 3463 1253 3523 
Q 1550 3584 1831 3584 
Q 2591 3584 2966 3190 
Q 3341 2797 3341 1997 
z
" transform="scale(0.015625)"/>
       <path id="DejaVuSans-74" d="M 1172 4494 
L 1172 3500 
L 2356 3500 
L 2356 3053 
L 1172 3053 
L 1172 1153 
Q 1172 725 1289 603 
Q 1406 481 1766 481 
L 2356 481 
L 2356 0 
L 1766 0 
Q 1100 0 847 248 
Q 594 497 594 1153 
L 594 3053 
L 172 3053 
L 172 3500 
L 594 3500 
L 594 4494 
L 1172 4494 
z
" transform="scale(0.015625)"/>
       <path id="DejaVuSans-63" d="M 3122 3366 
L 3122 2828 
Q 2878 2963 2633 3030 
Q 2388 3097 2138 3097 
Q 1578 3097 1268 2742 
Q 959 2388 959 1747 
Q 959 1106 1268 751 
Q 1578 397 2138 397 
Q 2388 397 2633 464 
Q 2878 531 3122 666 
L 3122 134 
Q 2881 22 2623 -34 
Q 2366 -91 2075 -91 
Q 1284 -91 818 406 
Q 353 903 353 1747 
Q 353 2603 823 3093 
Q 1294 3584 2113 3584 
Q 2378 3584 2631 3529 
Q 2884 3475 3122 3366 
z
" transform="scale(0.015625)"/>
       <path id="DejaVuSans-68" d="M 3513 2113 
L 3513 0 
L 2938 0 
L 2938 2094 
Q 2938 2591 2744 2837 
Q 2550 3084 2163 3084 
Q 1697 3084 1428 2787 
Q 1159 2491 1159 1978 
L 1159 0 
L 581 0 
L 581 4863 
L 1159 4863 
L 1159 2956 
Q 1366 3272 1645 3428 
Q 1925 3584 2291 3584 
Q 2894 3584 3203 3211 
Q 3513 2838 3513 2113 
z
" transform="scale(0.015625)"/>
       <path id="DejaVuSans-20" transform="scale(0.015625)"/>
       <path id="DejaVuSans-69" d="M 603 3500 
L 1178 3500 
L 1178 0 
L 603 0 
L 603 3500 
z
M 603 4863 
L 1178 4863 
L 1178 4134 
L 603 4134 
L 603 4863 
z
" transform="scale(0.015625)"/>
       <path id="DejaVuSans-65" d="M 3597 1894 
L 3597 1613 
L 953 1613 
Q 991 1019 1311 708 
Q 1631 397 2203 397 
Q 2534 397 2845 478 
Q 3156 559 3463 722 
L 3463 178 
Q 3153 47 2828 -22 
Q 2503 -91 2169 -91 
Q 1331 -91 842 396 
Q 353 884 353 1716 
Q 353 2575 817 3079 
Q 1281 3584 2069 3584 
Q 2775 3584 3186 3129 
Q 3597 2675 3597 1894 
z
M 3022 2063 
Q 3016 2534 2758 2815 
Q 2500 3097 2075 3097 
Q 1594 3097 1305 2825 
Q 1016 2553 972 2059 
L 3022 2063 
z
" transform="scale(0.015625)"/>
       <path id="DejaVuSans-72" d="M 2631 2963 
Q 2534 3019 2420 3045 
Q 2306 3072 2169 3072 
Q 1681 3072 1420 2755 
Q 1159 2438 1159 1844 
L 1159 0 
L 581 0 
L 581 3500 
L 1159 3500 
L 1159 2956 
Q 1341 3275 1631 3429 
Q 1922 3584 2338 3584 
Q 2397 3584 2469 3576 
Q 2541 3569 2628 3553 
L 2631 2963 
z
" transform="scale(0.015625)"/>
       <path id="DejaVuSans-6f" d="M 1959 3097 
Q 1497 3097 1228 2736 
Q 959 2375 959 1747 
Q 959 1119 1226 758 
Q 1494 397 1959 397 
Q 2419 397 2687 759 
Q 2956 1122 2956 1747 
Q 2956 2369 2687 2733 
Q 2419 3097 1959 3097 
z
M 1959 3584 
Q 2709 3584 3137 3096 
Q 3566 2609 3566 1747 
Q 3566 888 3137 398 
Q 2709 -91 1959 -91 
Q 1206 -91 779 398 
Q 353 888 353 1747 
Q 353 2609 779 3096 
Q 1206 3584 1959 3584 
z
" transform="scale(0.015625)"/>
       <path id="DejaVuSans-6e" d="M 3513 2113 
L 3513 0 
L 2938 0 
L 2938 2094 
Q 2938 2591 2744 2837 
Q 2550 3084 2163 3084 
Q 1697 3084 1428 2787 
Q 1159 2491 1159 1978 
L 1159 0 
L 581 0 
L 581 3500 
L 1159 3500 
L 1159 2956 
Q 1366 3272 1645 3428 
Q 1925 3584 2291 3584 
Q 2894 3584 3203 3211 
Q 3513 2838 3513 2113 
z
" transform="scale(0.015625)"/>
      </defs>
      <use xlink:href="#DejaVuSans-62"/>
      <use xlink:href="#DejaVuSans-61" x="63.476562"/>
      <use xlink:href="#DejaVuSans-74" x="124.755859"/>
      <use xlink:href="#DejaVuSans-63" x="163.964844"/>
      <use xlink:href="#DejaVuSans-68" x="218.945312"/>
      <use xlink:href="#DejaVuSans-20" x="282.324219"/>
      <use xlink:href="#DejaVuSans-69" x="314.111328"/>
      <use xlink:href="#DejaVuSans-74" x="341.894531"/>
      <use xlink:href="#DejaVuSans-65" x="381.103516"/>
      <use xlink:href="#DejaVuSans-72" x="442.626953"/>
      <use xlink:href="#DejaVuSans-61" x="483.740234"/>
      <use xlink:href="#DejaVuSans-74" x="545.019531"/>
      <use xlink:href="#DejaVuSans-69" x="584.228516"/>
      <use xlink:href="#DejaVuSans-6f" x="612.011719"/>
      <use xlink:href="#DejaVuSans-6e" x="673.193359"/>
     </g>
    </g>
   </g>
   <g id="matplotlib.axis_2">
    <g id="ytick_1">
     <g id="line2d_9">
      <path d="M 92.16 307.584 
L 414.72 307.584 
" clip-path="url(#p51a3fe619d)" style="fill: none; stroke: #b0b0b0; stroke-width: 0.8; stroke-linecap: square"/>
     </g>
     <g id="line2d_10">
      <defs>
       <path id="mdd17e8916b" d="M 0 0 
L -3.5 0 
" style="stroke: #000000; stroke-width: 0.8"/>
      </defs>
      <g>
       <use xlink:href="#mdd17e8916b" x="92.16" y="307.584" style="stroke: #000000; stroke-width: 0.8"/>
      </g>
     </g>
     <g id="text_6">
      <!-- 0 -->
      <g transform="translate(78.7975 311.383219) scale(0.1 -0.1)">
       <use xlink:href="#DejaVuSans-30"/>
      </g>
     </g>
    </g>
    <g id="ytick_2">
     <g id="line2d_11">
      <path d="M 92.16 260.300418 
L 414.72 260.300418 
" clip-path="url(#p51a3fe619d)" style="fill: none; stroke: #b0b0b0; stroke-width: 0.8; stroke-linecap: square"/>
     </g>
     <g id="line2d_12">
      <g>
       <use xlink:href="#mdd17e8916b" x="92.16" y="260.300418" style="stroke: #000000; stroke-width: 0.8"/>
      </g>
     </g>
     <g id="text_7">
      <!-- 100 -->
      <g transform="translate(66.0725 264.099637) scale(0.1 -0.1)">
       <use xlink:href="#DejaVuSans-31"/>
       <use xlink:href="#DejaVuSans-30" x="63.623047"/>
       <use xlink:href="#DejaVuSans-30" x="127.246094"/>
      </g>
     </g>
    </g>
    <g id="ytick_3">
     <g id="line2d_13">
      <path d="M 92.16 213.016836 
L 414.72 213.016836 
" clip-path="url(#p51a3fe619d)" style="fill: none; stroke: #b0b0b0; stroke-width: 0.8; stroke-linecap: square"/>
     </g>
     <g id="line2d_14">
      <g>
       <use xlink:href="#mdd17e8916b" x="92.16" y="213.016836" style="stroke: #000000; stroke-width: 0.8"/>
      </g>
     </g>
     <g id="text_8">
      <!-- 200 -->
      <g transform="translate(66.0725 216.816055) scale(0.1 -0.1)">
       <use xlink:href="#DejaVuSans-32"/>
       <use xlink:href="#DejaVuSans-30" x="63.623047"/>
       <use xlink:href="#DejaVuSans-30" x="127.246094"/>
      </g>
     </g>
    </g>
    <g id="ytick_4">
     <g id="line2d_15">
      <path d="M 92.16 165.733254 
L 414.72 165.733254 
" clip-path="url(#p51a3fe619d)" style="fill: none; stroke: #b0b0b0; stroke-width: 0.8; stroke-linecap: square"/>
     </g>
     <g id="line2d_16">
      <g>
       <use xlink:href="#mdd17e8916b" x="92.16" y="165.733254" style="stroke: #000000; stroke-width: 0.8"/>
      </g>
     </g>
     <g id="text_9">
      <!-- 300 -->
      <g transform="translate(66.0725 169.532472) scale(0.1 -0.1)">
       <use xlink:href="#DejaVuSans-33"/>
       <use xlink:href="#DejaVuSans-30" x="63.623047"/>
       <use xlink:href="#DejaVuSans-30" x="127.246094"/>
      </g>
     </g>
    </g>
    <g id="ytick_5">
     <g id="line2d_17">
      <path d="M 92.16 118.449672 
L 414.72 118.449672 
" clip-path="url(#p51a3fe619d)" style="fill: none; stroke: #b0b0b0; stroke-width: 0.8; stroke-linecap: square"/>
     </g>
     <g id="line2d_18">
      <g>
       <use xlink:href="#mdd17e8916b" x="92.16" y="118.449672" style="stroke: #000000; stroke-width: 0.8"/>
      </g>
     </g>
     <g id="text_10">
      <!-- 400 -->
      <g transform="translate(66.0725 122.24889) scale(0.1 -0.1)">
       <use xlink:href="#DejaVuSans-34"/>
       <use xlink:href="#DejaVuSans-30" x="63.623047"/>
       <use xlink:href="#DejaVuSans-30" x="127.246094"/>
      </g>
     </g>
    </g>
    <g id="ytick_6">
     <g id="line2d_19">
      <path d="M 92.16 71.16609 
L 414.72 71.16609 
" clip-path="url(#p51a3fe619d)" style="fill: none; stroke: #b0b0b0; stroke-width: 0.8; stroke-linecap: square"/>
     </g>
     <g id="line2d_20">
      <g>
       <use xlink:href="#mdd17e8916b" x="92.16" y="71.16609" style="stroke: #000000; stroke-width: 0.8"/>
      </g>
     </g>
     <g id="text_11">
      <!-- 500 -->
      <g transform="translate(66.0725 74.965308) scale(0.1 -0.1)">
       <defs>
        <path id="DejaVuSans-35" d="M 691 4666 
L 3169 4666 
L 3169 4134 
L 1269 4134 
L 1269 2991 
Q 1406 3038 1543 3061 
Q 1681 3084 1819 3084 
Q 2600 3084 3056 2656 
Q 3513 2228 3513 1497 
Q 3513 744 3044 326 
Q 2575 -91 1722 -91 
Q 1428 -91 1123 -41 
Q 819 9 494 109 
L 494 744 
Q 775 591 1075 516 
Q 1375 441 1709 441 
Q 2250 441 2565 725 
Q 2881 1009 2881 1497 
Q 2881 1984 2565 2268 
Q 2250 2553 1709 2553 
Q 1456 2553 1204 2497 
Q 953 2441 691 2322 
L 691 4666 
z
" transform="scale(0.015625)"/>
       </defs>
       <use xlink:href="#DejaVuSans-35"/>
       <use xlink:href="#DejaVuSans-30" x="63.623047"/>
       <use xlink:href="#DejaVuSans-30" x="127.246094"/>
      </g>
     </g>
    </g>
    <g id="text_12">
     <!-- max # of queries for a DPU -->
     <g transform="translate(58.329062 297.730969) rotate(-90) scale(0.18 -0.18)">
      <defs>
       <path id="DejaVuSans-6d" d="M 3328 2828 
Q 3544 3216 3844 3400 
Q 4144 3584 4550 3584 
Q 5097 3584 5394 3201 
Q 5691 2819 5691 2113 
L 5691 0 
L 5113 0 
L 5113 2094 
Q 5113 2597 4934 2840 
Q 4756 3084 4391 3084 
Q 3944 3084 3684 2787 
Q 3425 2491 3425 1978 
L 3425 0 
L 2847 0 
L 2847 2094 
Q 2847 2600 2669 2842 
Q 2491 3084 2119 3084 
Q 1678 3084 1418 2786 
Q 1159 2488 1159 1978 
L 1159 0 
L 581 0 
L 581 3500 
L 1159 3500 
L 1159 2956 
Q 1356 3278 1631 3431 
Q 1906 3584 2284 3584 
Q 2666 3584 2933 3390 
Q 3200 3197 3328 2828 
z
" transform="scale(0.015625)"/>
       <path id="DejaVuSans-78" d="M 3513 3500 
L 2247 1797 
L 3578 0 
L 2900 0 
L 1881 1375 
L 863 0 
L 184 0 
L 1544 1831 
L 300 3500 
L 978 3500 
L 1906 2253 
L 2834 3500 
L 3513 3500 
z
" transform="scale(0.015625)"/>
       <path id="DejaVuSans-23" d="M 3272 2816 
L 2363 2816 
L 2100 1772 
L 3016 1772 
L 3272 2816 
z
M 2803 4594 
L 2478 3297 
L 3391 3297 
L 3719 4594 
L 4219 4594 
L 3897 3297 
L 4872 3297 
L 4872 2816 
L 3775 2816 
L 3519 1772 
L 4513 1772 
L 4513 1294 
L 3397 1294 
L 3072 0 
L 2572 0 
L 2894 1294 
L 1978 1294 
L 1656 0 
L 1153 0 
L 1478 1294 
L 494 1294 
L 494 1772 
L 1594 1772 
L 1856 2816 
L 850 2816 
L 850 3297 
L 1978 3297 
L 2297 4594 
L 2803 4594 
z
" transform="scale(0.015625)"/>
       <path id="DejaVuSans-66" d="M 2375 4863 
L 2375 4384 
L 1825 4384 
Q 1516 4384 1395 4259 
Q 1275 4134 1275 3809 
L 1275 3500 
L 2222 3500 
L 2222 3053 
L 1275 3053 
L 1275 0 
L 697 0 
L 697 3053 
L 147 3053 
L 147 3500 
L 697 3500 
L 697 3744 
Q 697 4328 969 4595 
Q 1241 4863 1831 4863 
L 2375 4863 
z
" transform="scale(0.015625)"/>
       <path id="DejaVuSans-71" d="M 947 1747 
Q 947 1113 1208 752 
Q 1469 391 1925 391 
Q 2381 391 2643 752 
Q 2906 1113 2906 1747 
Q 2906 2381 2643 2742 
Q 2381 3103 1925 3103 
Q 1469 3103 1208 2742 
Q 947 2381 947 1747 
z
M 2906 525 
Q 2725 213 2448 61 
Q 2172 -91 1784 -91 
Q 1150 -91 751 415 
Q 353 922 353 1747 
Q 353 2572 751 3078 
Q 1150 3584 1784 3584 
Q 2172 3584 2448 3432 
Q 2725 3281 2906 2969 
L 2906 3500 
L 3481 3500 
L 3481 -1331 
L 2906 -1331 
L 2906 525 
z
" transform="scale(0.015625)"/>
       <path id="DejaVuSans-75" d="M 544 1381 
L 544 3500 
L 1119 3500 
L 1119 1403 
Q 1119 906 1312 657 
Q 1506 409 1894 409 
Q 2359 409 2629 706 
Q 2900 1003 2900 1516 
L 2900 3500 
L 3475 3500 
L 3475 0 
L 2900 0 
L 2900 538 
Q 2691 219 2414 64 
Q 2138 -91 1772 -91 
Q 1169 -91 856 284 
Q 544 659 544 1381 
z
M 1991 3584 
L 1991 3584 
z
" transform="scale(0.015625)"/>
       <path id="DejaVuSans-73" d="M 2834 3397 
L 2834 2853 
Q 2591 2978 2328 3040 
Q 2066 3103 1784 3103 
Q 1356 3103 1142 2972 
Q 928 2841 928 2578 
Q 928 2378 1081 2264 
Q 1234 2150 1697 2047 
L 1894 2003 
Q 2506 1872 2764 1633 
Q 3022 1394 3022 966 
Q 3022 478 2636 193 
Q 2250 -91 1575 -91 
Q 1294 -91 989 -36 
Q 684 19 347 128 
L 347 722 
Q 666 556 975 473 
Q 1284 391 1588 391 
Q 1994 391 2212 530 
Q 2431 669 2431 922 
Q 2431 1156 2273 1281 
Q 2116 1406 1581 1522 
L 1381 1569 
Q 847 1681 609 1914 
Q 372 2147 372 2553 
Q 372 3047 722 3315 
Q 1072 3584 1716 3584 
Q 2034 3584 2315 3537 
Q 2597 3491 2834 3397 
z
" transform="scale(0.015625)"/>
       <path id="DejaVuSans-44" d="M 1259 4147 
L 1259 519 
L 2022 519 
Q 2988 519 3436 956 
Q 3884 1394 3884 2338 
Q 3884 3275 3436 3711 
Q 2988 4147 2022 4147 
L 1259 4147 
z
M 628 4666 
L 1925 4666 
Q 3281 4666 3915 4102 
Q 4550 3538 4550 2338 
Q 4550 1131 3912 565 
Q 3275 0 1925 0 
L 628 0 
L 628 4666 
z
" transform="scale(0.015625)"/>
       <path id="DejaVuSans-50" d="M 1259 4147 
L 1259 2394 
L 2053 2394 
Q 2494 2394 2734 2622 
Q 2975 2850 2975 3272 
Q 2975 3691 2734 3919 
Q 2494 4147 2053 4147 
L 1259 4147 
z
M 628 4666 
L 2053 4666 
Q 2838 4666 3239 4311 
Q 3641 3956 3641 3272 
Q 3641 2581 3239 2228 
Q 2838 1875 2053 1875 
L 1259 1875 
L 1259 0 
L 628 0 
L 628 4666 
z
" transform="scale(0.015625)"/>
       <path id="DejaVuSans-55" d="M 556 4666 
L 1191 4666 
L 1191 1831 
Q 1191 1081 1462 751 
Q 1734 422 2344 422 
Q 2950 422 3222 751 
Q 3494 1081 3494 1831 
L 3494 4666 
L 4128 4666 
L 4128 1753 
Q 4128 841 3676 375 
Q 3225 -91 2344 -91 
Q 1459 -91 1007 375 
Q 556 841 556 1753 
L 556 4666 
z
" transform="scale(0.015625)"/>
      </defs>
      <use xlink:href="#DejaVuSans-6d"/>
      <use xlink:href="#DejaVuSans-61" x="97.412109"/>
      <use xlink:href="#DejaVuSans-78" x="158.691406"/>
      <use xlink:href="#DejaVuSans-20" x="217.871094"/>
      <use xlink:href="#DejaVuSans-23" x="249.658203"/>
      <use xlink:href="#DejaVuSans-20" x="333.447266"/>
      <use xlink:href="#DejaVuSans-6f" x="365.234375"/>
      <use xlink:href="#DejaVuSans-66" x="426.416016"/>
      <use xlink:href="#DejaVuSans-20" x="461.621094"/>
      <use xlink:href="#DejaVuSans-71" x="493.408203"/>
      <use xlink:href="#DejaVuSans-75" x="556.884766"/>
      <use xlink:href="#DejaVuSans-65" x="620.263672"/>
      <use xlink:href="#DejaVuSans-72" x="681.787109"/>
      <use xlink:href="#DejaVuSans-69" x="722.900391"/>
      <use xlink:href="#DejaVuSans-65" x="750.683594"/>
      <use xlink:href="#DejaVuSans-73" x="812.207031"/>
      <use xlink:href="#DejaVuSans-20" x="864.306641"/>
      <use xlink:href="#DejaVuSans-66" x="896.09375"/>
      <use xlink:href="#DejaVuSans-6f" x="931.298828"/>
      <use xlink:href="#DejaVuSans-72" x="992.480469"/>
      <use xlink:href="#DejaVuSans-20" x="1033.59375"/>
      <use xlink:href="#DejaVuSans-61" x="1065.380859"/>
      <use xlink:href="#DejaVuSans-20" x="1126.660156"/>
      <use xlink:href="#DejaVuSans-44" x="1158.447266"/>
      <use xlink:href="#DejaVuSans-50" x="1235.449219"/>
      <use xlink:href="#DejaVuSans-55" x="1295.751953"/>
     </g>
    </g>
   </g>
   <g id="line2d_21">
    <path d="M 92.483855 52.252657 
L 93.131566 97.644896 
L 93.779277 103.318925 
L 94.426988 136.890269 
L 95.074699 143.50997 
L 95.72241 165.260418 
L 96.37012 197.413254 
L 97.017831 199.777433 
L 97.665542 207.815642 
L 98.960964 217.272358 
L 99.608675 218.21803 
L 100.256386 223.89206 
L 100.904096 223.89206 
L 101.551807 228.147582 
L 102.199518 223.89206 
L 102.847229 231.457433 
L 103.49494 228.147582 
L 104.142651 228.620418 
L 104.790361 236.658627 
L 105.438072 235.240119 
L 106.085783 235.240119 
L 106.733494 237.131463 
L 107.381205 237.131463 
L 108.028916 236.658627 
L 108.676627 238.077134 
L 109.324337 238.54997 
L 109.972048 237.604299 
L 110.619759 238.077134 
L 111.26747 239.495642 
L 111.915181 242.805493 
L 112.562892 243.751164 
L 113.210602 243.751164 
L 113.858313 245.642507 
L 114.506024 246.115343 
L 115.153735 240.441313 
L 115.801446 246.115343 
L 116.449157 246.588179 
L 117.744578 248.479522 
L 118.392289 249.89803 
L 119.04 248.952358 
L 119.687711 250.370866 
L 120.335422 249.425194 
L 120.983133 248.006687 
L 121.630843 250.370866 
L 122.278554 251.789373 
L 122.926265 250.370866 
L 123.573976 249.89803 
L 124.221687 253.680716 
L 125.517108 253.680716 
L 126.164819 254.153552 
L 126.81253 255.57206 
L 127.460241 253.680716 
L 128.107952 254.153552 
L 128.755663 254.153552 
L 129.403373 256.044896 
L 130.051084 254.153552 
L 130.698795 256.990567 
L 131.346506 256.044896 
L 131.994217 256.044896 
L 132.641928 254.626388 
L 133.937349 257.463403 
L 134.58506 257.936239 
L 135.232771 254.626388 
L 135.880482 256.990567 
L 136.528193 258.88191 
L 137.175904 257.936239 
L 137.823614 256.517731 
L 138.471325 256.990567 
L 139.119036 258.409075 
L 139.766747 258.88191 
L 140.414458 258.88191 
L 141.062169 259.827582 
L 141.70988 257.463403 
L 142.35759 259.827582 
L 143.005301 260.300418 
L 143.653012 259.354746 
L 144.300723 259.827582 
L 145.596145 261.718925 
L 146.243855 260.773254 
L 146.891566 259.354746 
L 147.539277 260.773254 
L 148.186988 261.718925 
L 148.834699 261.24609 
L 149.48241 262.664597 
L 150.13012 261.718925 
L 150.777831 262.191761 
L 152.073253 262.191761 
L 152.720964 262.664597 
L 153.368675 262.191761 
L 155.311807 262.191761 
L 156.607229 263.137433 
L 157.25494 261.718925 
L 157.902651 261.718925 
L 159.198072 262.664597 
L 159.845783 262.191761 
L 160.493494 262.664597 
L 161.141205 262.191761 
L 161.788916 263.137433 
L 162.436627 263.137433 
L 163.084337 262.191761 
L 163.732048 261.718925 
L 164.379759 262.664597 
L 165.02747 262.664597 
L 165.675181 263.137433 
L 166.322892 261.718925 
L 166.970602 261.24609 
L 167.618313 262.664597 
L 168.266024 262.191761 
L 168.913735 263.610269 
L 169.561446 263.610269 
L 170.209157 262.191761 
L 170.856867 262.191761 
L 171.504578 264.083104 
L 172.152289 262.664597 
L 172.8 263.137433 
L 173.447711 262.664597 
L 174.095422 262.664597 
L 174.743133 263.610269 
L 175.390843 262.664597 
L 176.038554 263.137433 
L 177.333976 262.191761 
L 177.981687 263.137433 
L 178.629398 262.664597 
L 179.277108 262.664597 
L 179.924819 263.137433 
L 182.515663 263.137433 
L 183.163373 262.191761 
L 183.811084 263.610269 
L 184.458795 262.664597 
L 185.106506 262.191761 
L 185.754217 262.664597 
L 186.401928 263.610269 
L 187.697349 263.610269 
L 188.34506 263.137433 
L 188.992771 263.137433 
L 189.640482 263.610269 
L 190.288193 262.664597 
L 190.935904 262.191761 
L 191.583614 263.137433 
L 192.231325 261.718925 
L 192.879036 262.664597 
L 193.526747 263.137433 
L 194.174458 264.55594 
L 194.822169 263.137433 
L 195.46988 263.610269 
L 196.765301 262.664597 
L 197.413012 264.55594 
L 198.060723 263.137433 
L 198.708434 263.137433 
L 199.356145 262.191761 
L 200.003855 262.191761 
L 200.651566 263.137433 
L 201.299277 263.137433 
L 201.946988 264.55594 
L 202.594699 262.191761 
L 203.24241 263.610269 
L 203.89012 264.083104 
L 204.537831 262.664597 
L 205.185542 261.718925 
L 205.833253 264.083104 
L 206.480964 264.55594 
L 207.128675 262.664597 
L 207.776386 264.083104 
L 208.424096 261.718925 
L 209.071807 264.55594 
L 209.719518 262.664597 
L 210.367229 263.137433 
L 211.01494 265.028776 
L 211.662651 263.137433 
L 212.310361 262.664597 
L 212.958072 261.718925 
L 213.605783 262.664597 
L 214.253494 263.137433 
L 215.548916 262.191761 
L 216.196627 264.083104 
L 217.492048 264.083104 
L 218.139759 263.610269 
L 218.78747 262.191761 
L 219.435181 263.137433 
L 220.082892 262.191761 
L 222.026024 263.610269 
L 222.673735 263.610269 
L 223.321446 263.137433 
L 223.969157 264.55594 
L 224.616867 262.191761 
L 225.264578 263.137433 
L 225.912289 262.664597 
L 226.56 263.137433 
L 227.207711 263.137433 
L 227.855422 262.664597 
L 228.503133 263.610269 
L 229.798554 262.664597 
L 230.446265 262.664597 
L 231.093976 264.55594 
L 231.741687 264.083104 
L 232.389398 263.137433 
L 233.037108 263.137433 
L 233.684819 260.773254 
L 234.33253 262.664597 
L 234.980241 262.664597 
L 235.627952 265.028776 
L 236.275663 262.664597 
L 236.923373 265.028776 
L 237.571084 262.191761 
L 238.218795 265.501612 
L 238.866506 262.664597 
L 239.514217 263.137433 
L 240.161928 263.137433 
L 242.10506 264.55594 
L 242.752771 263.610269 
L 243.400482 265.028776 
L 244.048193 263.137433 
L 245.343614 263.137433 
L 245.991325 265.028776 
L 246.639036 262.664597 
L 247.286747 266.447284 
L 247.934458 263.137433 
L 248.582169 265.501612 
L 249.22988 265.028776 
L 249.87759 265.028776 
L 250.525301 262.191761 
L 251.173012 263.137433 
L 251.820723 265.028776 
L 252.468434 262.191761 
L 253.763855 263.137433 
L 254.411566 264.55594 
L 255.059277 263.610269 
L 255.706988 263.137433 
L 256.354699 261.718925 
L 257.00241 263.137433 
L 257.65012 265.028776 
L 258.297831 265.501612 
L 258.945542 265.028776 
L 259.593253 263.137433 
L 260.240964 265.028776 
L 261.536386 264.083104 
L 262.831807 262.191761 
L 264.127229 265.028776 
L 264.77494 262.664597 
L 265.422651 265.501612 
L 266.070361 265.028776 
L 266.718072 263.610269 
L 267.365783 264.55594 
L 268.013494 263.137433 
L 268.661205 265.501612 
L 269.308916 265.501612 
L 269.956627 263.610269 
L 270.604337 265.974448 
L 271.252048 264.55594 
L 271.899759 265.501612 
L 272.54747 263.610269 
L 273.195181 265.974448 
L 273.842892 264.55594 
L 274.490602 264.55594 
L 275.138313 262.664597 
L 275.786024 263.137433 
L 276.433735 263.137433 
L 277.081446 262.191761 
L 277.729157 263.610269 
L 278.376867 262.664597 
L 279.024578 264.55594 
L 279.672289 265.028776 
L 280.967711 263.137433 
L 281.615422 262.664597 
L 282.263133 265.028776 
L 282.910843 264.55594 
L 283.558554 261.718925 
L 284.206265 264.083104 
L 284.853976 264.55594 
L 285.501687 265.501612 
L 286.149398 263.610269 
L 286.797108 264.083104 
L 288.09253 263.137433 
L 289.387952 264.083104 
L 290.035663 263.610269 
L 290.683373 264.083104 
L 291.331084 265.028776 
L 291.978795 263.137433 
L 292.626506 263.137433 
L 293.274217 264.55594 
L 293.921928 263.610269 
L 294.569639 265.028776 
L 295.217349 263.610269 
L 295.86506 265.501612 
L 296.512771 265.974448 
L 297.160482 262.664597 
L 297.808193 263.610269 
L 298.455904 264.083104 
L 299.103614 264.083104 
L 299.751325 263.610269 
L 300.399036 264.55594 
L 301.046747 263.610269 
L 301.694458 261.718925 
L 302.342169 265.974448 
L 302.98988 265.028776 
L 303.63759 264.55594 
L 304.285301 262.664597 
L 304.933012 262.664597 
L 305.580723 264.55594 
L 306.228434 263.137433 
L 306.876145 263.137433 
L 307.523855 262.191761 
L 308.171566 265.501612 
L 308.819277 265.501612 
L 309.466988 263.137433 
L 310.114699 261.718925 
L 310.76241 264.083104 
L 311.41012 265.028776 
L 312.057831 265.028776 
L 312.705542 264.083104 
L 313.353253 262.664597 
L 314.000964 261.718925 
L 314.648675 264.55594 
L 315.296386 265.501612 
L 316.591807 264.55594 
L 317.239518 265.028776 
L 317.887229 264.55594 
L 318.53494 265.028776 
L 319.182651 262.191761 
L 319.830361 265.974448 
L 320.478072 266.447284 
L 321.125783 263.137433 
L 321.773494 262.664597 
L 322.421205 267.392955 
L 323.068916 264.083104 
L 323.716627 263.137433 
L 324.364337 265.028776 
L 325.012048 262.664597 
L 325.659759 262.664597 
L 326.30747 262.191761 
L 326.955181 264.083104 
L 327.602892 262.664597 
L 328.250602 266.447284 
L 328.898313 266.920119 
L 329.546024 264.55594 
L 330.841446 264.55594 
L 331.489157 263.610269 
L 332.136867 264.083104 
L 332.784578 264.083104 
L 333.432289 264.55594 
L 334.08 265.974448 
L 334.727711 265.974448 
L 335.375422 262.664597 
L 336.023133 263.610269 
L 336.670843 264.083104 
L 337.318554 261.718925 
L 337.966265 262.664597 
L 338.613976 265.501612 
L 339.909398 264.55594 
L 340.557108 264.55594 
L 341.204819 266.447284 
L 341.85253 264.083104 
L 342.500241 264.55594 
L 343.147952 264.55594 
L 343.795663 264.083104 
L 344.443373 265.974448 
L 345.091084 264.55594 
L 345.738795 264.55594 
L 346.386506 263.610269 
L 347.034217 263.610269 
L 347.681928 265.028776 
L 348.329639 264.083104 
L 348.977349 265.974448 
L 349.62506 263.137433 
L 350.272771 265.028776 
L 350.920482 265.028776 
L 351.568193 263.137433 
L 352.215904 265.028776 
L 352.863614 263.610269 
L 353.511325 263.610269 
L 354.159036 265.501612 
L 354.806747 266.447284 
L 355.454458 264.55594 
L 356.102169 264.083104 
L 356.74988 264.55594 
L 357.39759 265.974448 
L 358.045301 264.083104 
L 358.693012 263.610269 
L 359.340723 262.664597 
L 359.988434 264.083104 
L 360.636145 263.610269 
L 361.283855 265.974448 
L 362.579277 265.028776 
L 363.226988 264.083104 
L 363.874699 264.55594 
L 364.52241 265.501612 
L 365.17012 264.55594 
L 365.817831 265.501612 
L 367.113253 264.55594 
L 367.760964 265.974448 
L 368.408675 266.447284 
L 369.056386 265.501612 
L 369.704096 265.974448 
L 370.351807 264.083104 
L 370.999518 265.028776 
L 372.942651 265.028776 
L 373.590361 264.55594 
L 374.238072 266.447284 
L 374.885783 264.55594 
L 375.533494 264.55594 
L 376.181205 265.501612 
L 376.828916 266.920119 
L 377.476627 265.501612 
L 378.124337 265.974448 
L 378.772048 262.664597 
L 379.419759 263.610269 
L 380.06747 265.028776 
L 380.715181 262.191761 
L 381.362892 265.028776 
L 382.010602 262.664597 
L 382.658313 264.083104 
L 383.306024 263.137433 
L 383.953735 264.083104 
L 384.601446 263.137433 
L 385.249157 264.083104 
L 385.896867 264.55594 
L 386.544578 265.501612 
L 387.84 263.610269 
L 388.487711 265.974448 
L 389.135422 265.028776 
L 389.783133 264.55594 
L 390.430843 267.865791 
L 391.078554 264.083104 
L 392.373976 265.028776 
L 393.021687 264.55594 
L 393.669398 263.137433 
L 394.317108 265.028776 
L 394.964819 263.610269 
L 395.61253 261.718925 
L 396.260241 263.137433 
L 396.907952 265.028776 
L 397.555663 264.083104 
L 398.203373 262.191761 
L 398.851084 265.028776 
L 400.146506 264.083104 
L 400.794217 265.028776 
L 401.441928 266.447284 
L 402.089639 263.137433 
L 403.38506 265.974448 
L 404.032771 263.610269 
L 404.680482 265.501612 
L 405.328193 264.083104 
L 405.975904 266.920119 
L 407.271325 264.083104 
L 407.919036 265.501612 
L 408.566747 266.447284 
L 409.214458 261.718925 
L 409.862169 265.028776 
L 410.50988 263.137433 
L 411.15759 265.974448 
L 411.805301 265.501612 
L 412.453012 266.920119 
L 413.100723 263.610269 
L 413.748434 265.501612 
L 414.396145 265.028776 
L 415.043855 263.137433 
L 415.043855 263.137433 
" clip-path="url(#p51a3fe619d)" style="fill: none; stroke: #1f77b4; stroke-width: 1.5; stroke-linecap: square"/>
   </g>
   <g id="patch_3">
    <path d="M 92.16 307.584 
L 92.16 41.472 
" style="fill: none; stroke: #000000; stroke-width: 0.8; stroke-linejoin: miter; stroke-linecap: square"/>
   </g>
   <g id="patch_4">
    <path d="M 414.72 307.584 
L 414.72 41.472 
" style="fill: none; stroke: #000000; stroke-width: 0.8; stroke-linejoin: miter; stroke-linecap: square"/>
   </g>
   <g id="patch_5">
    <path d="M 92.16 307.584 
L 414.72 307.584 
" style="fill: none; stroke: #000000; stroke-width: 0.8; stroke-linejoin: miter; stroke-linecap: square"/>
   </g>
   <g id="patch_6">
    <path d="M 92.16 41.472 
L 414.72 41.472 
" style="fill: none; stroke: #000000; stroke-width: 0.8; stroke-linejoin: miter; stroke-linecap: square"/>
   </g>
  </g>
 </g>
 <defs>
  <clipPath id="p51a3fe619d">
   <rect x="92.16" y="41.472" width="322.56" height="266.112"/>
  </clipPath>
 </defs>
</svg>
