<?xml version="1.0" encoding="utf-8" standalone="no"?>
<!DOCTYPE svg PUBLIC "-//W3C//DTD SVG 1.1//EN"
  "http://www.w3.org/Graphics/SVG/1.1/DTD/svg11.dtd">
<svg xmlns:xlink="http://www.w3.org/1999/xlink" width="460.8pt" height="345.6pt" viewBox="0 0 460.8 345.6" xmlns="http://www.w3.org/2000/svg" version="1.1">
 <metadata>
  <rdf:RDF xmlns:dc="http://purl.org/dc/elements/1.1/" xmlns:cc="http://creativecommons.org/ns#" xmlns:rdf="http://www.w3.org/1999/02/22-rdf-syntax-ns#">
   <cc:Work>
    <dc:type rdf:resource="http://purl.org/dc/dcmitype/StillImage"/>
    <dc:date>2024-02-14T14:20:26.648649</dc:date>
    <dc:format>image/svg+xml</dc:format>
    <dc:creator>
     <cc:Agent>
      <dc:title>Matplotlib v3.7.0, https://matplotlib.org/</dc:title>
     </cc:Agent>
    </dc:creator>
   </cc:Work>
  </rdf:RDF>
 </metadata>
 <defs>
  <style type="text/css">*{stroke-linejoin: round; stroke-linecap: butt}</style>
 </defs>
 <g id="figure_1">
  <g id="patch_1">
   <path d="M 0 345.6 
L 460.8 345.6 
L 460.8 0 
L 0 0 
L 0 345.6 
z
" style="fill: none"/>
  </g>
  <g id="axes_1">
   <g id="patch_2">
    <path d="M 92.16 307.584 
L 414.72 307.584 
L 414.72 41.472 
L 92.16 41.472 
L 92.16 307.584 
z
" style="fill: none"/>
   </g>
   <g id="matplotlib.axis_1">
    <g id="xtick_1">
     <g id="line2d_1">
      <path d="M 156.607229 307.584 
L 156.607229 41.472 
" clip-path="url(#p682c20db52)" style="fill: none; stroke: #b0b0b0; stroke-width: 0.8; stroke-linecap: square"/>
     </g>
     <g id="line2d_2">
      <defs>
       <path id="m32699fe7c9" d="M 0 0 
L 0 3.5 
" style="stroke: #000000; stroke-width: 0.8"/>
      </defs>
      <g>
       <use xlink:href="#m32699fe7c9" x="156.607229" y="307.584" style="stroke: #000000; stroke-width: 0.8"/>
      </g>
     </g>
     <g id="text_1">
      <!-- 100 -->
      <g transform="translate(147.063479 322.182437) scale(0.1 -0.1)">
       <defs>
        <path id="DejaVuSans-31" d="M 794 531 
L 1825 531 
L 1825 4091 
L 703 3866 
L 703 4441 
L 1819 4666 
L 2450 4666 
L 2450 531 
L 3481 531 
L 3481 0 
L 794 0 
L 794 531 
z
" transform="scale(0.015625)"/>
        <path id="DejaVuSans-30" d="M 2034 4250 
Q 1547 4250 1301 3770 
Q 1056 3291 1056 2328 
Q 1056 1369 1301 889 
Q 1547 409 2034 409 
Q 2525 409 2770 889 
Q 3016 1369 3016 2328 
Q 3016 3291 2770 3770 
Q 2525 4250 2034 4250 
z
M 2034 4750 
Q 2819 4750 3233 4129 
Q 3647 3509 3647 2328 
Q 3647 1150 3233 529 
Q 2819 -91 2034 -91 
Q 1250 -91 836 529 
Q 422 1150 422 2328 
Q 422 3509 836 4129 
Q 1250 4750 2034 4750 
z
" transform="scale(0.015625)"/>
       </defs>
       <use xlink:href="#DejaVuSans-31"/>
       <use xlink:href="#DejaVuSans-30" x="63.623047"/>
       <use xlink:href="#DejaVuSans-30" x="127.246094"/>
      </g>
     </g>
    </g>
    <g id="xtick_2">
     <g id="line2d_3">
      <path d="M 221.378313 307.584 
L 221.378313 41.472 
" clip-path="url(#p682c20db52)" style="fill: none; stroke: #b0b0b0; stroke-width: 0.8; stroke-linecap: square"/>
     </g>
     <g id="line2d_4">
      <g>
       <use xlink:href="#m32699fe7c9" x="221.378313" y="307.584" style="stroke: #000000; stroke-width: 0.8"/>
      </g>
     </g>
     <g id="text_2">
      <!-- 200 -->
      <g transform="translate(211.834563 322.182437) scale(0.1 -0.1)">
       <defs>
        <path id="DejaVuSans-32" d="M 1228 531 
L 3431 531 
L 3431 0 
L 469 0 
L 469 531 
Q 828 903 1448 1529 
Q 2069 2156 2228 2338 
Q 2531 2678 2651 2914 
Q 2772 3150 2772 3378 
Q 2772 3750 2511 3984 
Q 2250 4219 1831 4219 
Q 1534 4219 1204 4116 
Q 875 4013 500 3803 
L 500 4441 
Q 881 4594 1212 4672 
Q 1544 4750 1819 4750 
Q 2544 4750 2975 4387 
Q 3406 4025 3406 3419 
Q 3406 3131 3298 2873 
Q 3191 2616 2906 2266 
Q 2828 2175 2409 1742 
Q 1991 1309 1228 531 
z
" transform="scale(0.015625)"/>
       </defs>
       <use xlink:href="#DejaVuSans-32"/>
       <use xlink:href="#DejaVuSans-30" x="63.623047"/>
       <use xlink:href="#DejaVuSans-30" x="127.246094"/>
      </g>
     </g>
    </g>
    <g id="xtick_3">
     <g id="line2d_5">
      <path d="M 286.149398 307.584 
L 286.149398 41.472 
" clip-path="url(#p682c20db52)" style="fill: none; stroke: #b0b0b0; stroke-width: 0.8; stroke-linecap: square"/>
     </g>
     <g id="line2d_6">
      <g>
       <use xlink:href="#m32699fe7c9" x="286.149398" y="307.584" style="stroke: #000000; stroke-width: 0.8"/>
      </g>
     </g>
     <g id="text_3">
      <!-- 300 -->
      <g transform="translate(276.605648 322.182437) scale(0.1 -0.1)">
       <defs>
        <path id="DejaVuSans-33" d="M 2597 2516 
Q 3050 2419 3304 2112 
Q 3559 1806 3559 1356 
Q 3559 666 3084 287 
Q 2609 -91 1734 -91 
Q 1441 -91 1130 -33 
Q 819 25 488 141 
L 488 750 
Q 750 597 1062 519 
Q 1375 441 1716 441 
Q 2309 441 2620 675 
Q 2931 909 2931 1356 
Q 2931 1769 2642 2001 
Q 2353 2234 1838 2234 
L 1294 2234 
L 1294 2753 
L 1863 2753 
Q 2328 2753 2575 2939 
Q 2822 3125 2822 3475 
Q 2822 3834 2567 4026 
Q 2313 4219 1838 4219 
Q 1578 4219 1281 4162 
Q 984 4106 628 3988 
L 628 4550 
Q 988 4650 1302 4700 
Q 1616 4750 1894 4750 
Q 2613 4750 3031 4423 
Q 3450 4097 3450 3541 
Q 3450 3153 3228 2886 
Q 3006 2619 2597 2516 
z
" transform="scale(0.015625)"/>
       </defs>
       <use xlink:href="#DejaVuSans-33"/>
       <use xlink:href="#DejaVuSans-30" x="63.623047"/>
       <use xlink:href="#DejaVuSans-30" x="127.246094"/>
      </g>
     </g>
    </g>
    <g id="xtick_4">
     <g id="line2d_7">
      <path d="M 350.920482 307.584 
L 350.920482 41.472 
" clip-path="url(#p682c20db52)" style="fill: none; stroke: #b0b0b0; stroke-width: 0.8; stroke-linecap: square"/>
     </g>
     <g id="line2d_8">
      <g>
       <use xlink:href="#m32699fe7c9" x="350.920482" y="307.584" style="stroke: #000000; stroke-width: 0.8"/>
      </g>
     </g>
     <g id="text_4">
      <!-- 400 -->
      <g transform="translate(341.376732 322.182437) scale(0.1 -0.1)">
       <defs>
        <path id="DejaVuSans-34" d="M 2419 4116 
L 825 1625 
L 2419 1625 
L 2419 4116 
z
M 2253 4666 
L 3047 4666 
L 3047 1625 
L 3713 1625 
L 3713 1100 
L 3047 1100 
L 3047 0 
L 2419 0 
L 2419 1100 
L 313 1100 
L 313 1709 
L 2253 4666 
z
" transform="scale(0.015625)"/>
       </defs>
       <use xlink:href="#DejaVuSans-34"/>
       <use xlink:href="#DejaVuSans-30" x="63.623047"/>
       <use xlink:href="#DejaVuSans-30" x="127.246094"/>
      </g>
     </g>
    </g>
    <g id="text_5">
     <!-- batch iteration -->
     <g transform="translate(187.149375 341.939312) scale(0.18 -0.18)">
      <defs>
       <path id="DejaVuSans-62" d="M 3116 1747 
Q 3116 2381 2855 2742 
Q 2594 3103 2138 3103 
Q 1681 3103 1420 2742 
Q 1159 2381 1159 1747 
Q 1159 1113 1420 752 
Q 1681 391 2138 391 
Q 2594 391 2855 752 
Q 3116 1113 3116 1747 
z
M 1159 2969 
Q 1341 3281 1617 3432 
Q 1894 3584 2278 3584 
Q 2916 3584 3314 3078 
Q 3713 2572 3713 1747 
Q 3713 922 3314 415 
Q 2916 -91 2278 -91 
Q 1894 -91 1617 61 
Q 1341 213 1159 525 
L 1159 0 
L 581 0 
L 581 4863 
L 1159 4863 
L 1159 2969 
z
" transform="scale(0.015625)"/>
       <path id="DejaVuSans-61" d="M 2194 1759 
Q 1497 1759 1228 1600 
Q 959 1441 959 1056 
Q 959 750 1161 570 
Q 1363 391 1709 391 
Q 2188 391 2477 730 
Q 2766 1069 2766 1631 
L 2766 1759 
L 2194 1759 
z
M 3341 1997 
L 3341 0 
L 2766 0 
L 2766 531 
Q 2569 213 2275 61 
Q 1981 -91 1556 -91 
Q 1019 -91 701 211 
Q 384 513 384 1019 
Q 384 1609 779 1909 
Q 1175 2209 1959 2209 
L 2766 2209 
L 2766 2266 
Q 2766 2663 2505 2880 
Q 2244 3097 1772 3097 
Q 1472 3097 1187 3025 
Q 903 2953 641 2809 
L 641 3341 
Q 956 3463 1253 3523 
Q 1550 3584 1831 3584 
Q 2591 3584 2966 3190 
Q 3341 2797 3341 1997 
z
" transform="scale(0.015625)"/>
       <path id="DejaVuSans-74" d="M 1172 4494 
L 1172 3500 
L 2356 3500 
L 2356 3053 
L 1172 3053 
L 1172 1153 
Q 1172 725 1289 603 
Q 1406 481 1766 481 
L 2356 481 
L 2356 0 
L 1766 0 
Q 1100 0 847 248 
Q 594 497 594 1153 
L 594 3053 
L 172 3053 
L 172 3500 
L 594 3500 
L 594 4494 
L 1172 4494 
z
" transform="scale(0.015625)"/>
       <path id="DejaVuSans-63" d="M 3122 3366 
L 3122 2828 
Q 2878 2963 2633 3030 
Q 2388 3097 2138 3097 
Q 1578 3097 1268 2742 
Q 959 2388 959 1747 
Q 959 1106 1268 751 
Q 1578 397 2138 397 
Q 2388 397 2633 464 
Q 2878 531 3122 666 
L 3122 134 
Q 2881 22 2623 -34 
Q 2366 -91 2075 -91 
Q 1284 -91 818 406 
Q 353 903 353 1747 
Q 353 2603 823 3093 
Q 1294 3584 2113 3584 
Q 2378 3584 2631 3529 
Q 2884 3475 3122 3366 
z
" transform="scale(0.015625)"/>
       <path id="DejaVuSans-68" d="M 3513 2113 
L 3513 0 
L 2938 0 
L 2938 2094 
Q 2938 2591 2744 2837 
Q 2550 3084 2163 3084 
Q 1697 3084 1428 2787 
Q 1159 2491 1159 1978 
L 1159 0 
L 581 0 
L 581 4863 
L 1159 4863 
L 1159 2956 
Q 1366 3272 1645 3428 
Q 1925 3584 2291 3584 
Q 2894 3584 3203 3211 
Q 3513 2838 3513 2113 
z
" transform="scale(0.015625)"/>
       <path id="DejaVuSans-20" transform="scale(0.015625)"/>
       <path id="DejaVuSans-69" d="M 603 3500 
L 1178 3500 
L 1178 0 
L 603 0 
L 603 3500 
z
M 603 4863 
L 1178 4863 
L 1178 4134 
L 603 4134 
L 603 4863 
z
" transform="scale(0.015625)"/>
       <path id="DejaVuSans-65" d="M 3597 1894 
L 3597 1613 
L 953 1613 
Q 991 1019 1311 708 
Q 1631 397 2203 397 
Q 2534 397 2845 478 
Q 3156 559 3463 722 
L 3463 178 
Q 3153 47 2828 -22 
Q 2503 -91 2169 -91 
Q 1331 -91 842 396 
Q 353 884 353 1716 
Q 353 2575 817 3079 
Q 1281 3584 2069 3584 
Q 2775 3584 3186 3129 
Q 3597 2675 3597 1894 
z
M 3022 2063 
Q 3016 2534 2758 2815 
Q 2500 3097 2075 3097 
Q 1594 3097 1305 2825 
Q 1016 2553 972 2059 
L 3022 2063 
z
" transform="scale(0.015625)"/>
       <path id="DejaVuSans-72" d="M 2631 2963 
Q 2534 3019 2420 3045 
Q 2306 3072 2169 3072 
Q 1681 3072 1420 2755 
Q 1159 2438 1159 1844 
L 1159 0 
L 581 0 
L 581 3500 
L 1159 3500 
L 1159 2956 
Q 1341 3275 1631 3429 
Q 1922 3584 2338 3584 
Q 2397 3584 2469 3576 
Q 2541 3569 2628 3553 
L 2631 2963 
z
" transform="scale(0.015625)"/>
       <path id="DejaVuSans-6f" d="M 1959 3097 
Q 1497 3097 1228 2736 
Q 959 2375 959 1747 
Q 959 1119 1226 758 
Q 1494 397 1959 397 
Q 2419 397 2687 759 
Q 2956 1122 2956 1747 
Q 2956 2369 2687 2733 
Q 2419 3097 1959 3097 
z
M 1959 3584 
Q 2709 3584 3137 3096 
Q 3566 2609 3566 1747 
Q 3566 888 3137 398 
Q 2709 -91 1959 -91 
Q 1206 -91 779 398 
Q 353 888 353 1747 
Q 353 2609 779 3096 
Q 1206 3584 1959 3584 
z
" transform="scale(0.015625)"/>
       <path id="DejaVuSans-6e" d="M 3513 2113 
L 3513 0 
L 2938 0 
L 2938 2094 
Q 2938 2591 2744 2837 
Q 2550 3084 2163 3084 
Q 1697 3084 1428 2787 
Q 1159 2491 1159 1978 
L 1159 0 
L 581 0 
L 581 3500 
L 1159 3500 
L 1159 2956 
Q 1366 3272 1645 3428 
Q 1925 3584 2291 3584 
Q 2894 3584 3203 3211 
Q 3513 2838 3513 2113 
z
" transform="scale(0.015625)"/>
      </defs>
      <use xlink:href="#DejaVuSans-62"/>
      <use xlink:href="#DejaVuSans-61" x="63.476562"/>
      <use xlink:href="#DejaVuSans-74" x="124.755859"/>
      <use xlink:href="#DejaVuSans-63" x="163.964844"/>
      <use xlink:href="#DejaVuSans-68" x="218.945312"/>
      <use xlink:href="#DejaVuSans-20" x="282.324219"/>
      <use xlink:href="#DejaVuSans-69" x="314.111328"/>
      <use xlink:href="#DejaVuSans-74" x="341.894531"/>
      <use xlink:href="#DejaVuSans-65" x="381.103516"/>
      <use xlink:href="#DejaVuSans-72" x="442.626953"/>
      <use xlink:href="#DejaVuSans-61" x="483.740234"/>
      <use xlink:href="#DejaVuSans-74" x="545.019531"/>
      <use xlink:href="#DejaVuSans-69" x="584.228516"/>
      <use xlink:href="#DejaVuSans-6f" x="612.011719"/>
      <use xlink:href="#DejaVuSans-6e" x="673.193359"/>
     </g>
    </g>
   </g>
   <g id="matplotlib.axis_2">
    <g id="ytick_1">
     <g id="line2d_9">
      <path d="M 92.16 307.584 
L 414.72 307.584 
" clip-path="url(#p682c20db52)" style="fill: none; stroke: #b0b0b0; stroke-width: 0.8; stroke-linecap: square"/>
     </g>
     <g id="line2d_10">
      <defs>
       <path id="m58e449c37e" d="M 0 0 
L -3.5 0 
" style="stroke: #000000; stroke-width: 0.8"/>
      </defs>
      <g>
       <use xlink:href="#m58e449c37e" x="92.16" y="307.584" style="stroke: #000000; stroke-width: 0.8"/>
      </g>
     </g>
     <g id="text_6">
      <!-- 0 -->
      <g transform="translate(78.7975 311.383219) scale(0.1 -0.1)">
       <use xlink:href="#DejaVuSans-30"/>
      </g>
     </g>
    </g>
    <g id="ytick_2">
     <g id="line2d_11">
      <path d="M 92.16 259.351494 
L 414.72 259.351494 
" clip-path="url(#p682c20db52)" style="fill: none; stroke: #b0b0b0; stroke-width: 0.8; stroke-linecap: square"/>
     </g>
     <g id="line2d_12">
      <g>
       <use xlink:href="#m58e449c37e" x="92.16" y="259.351494" style="stroke: #000000; stroke-width: 0.8"/>
      </g>
     </g>
     <g id="text_7">
      <!-- 2000 -->
      <g transform="translate(59.71 263.150713) scale(0.1 -0.1)">
       <use xlink:href="#DejaVuSans-32"/>
       <use xlink:href="#DejaVuSans-30" x="63.623047"/>
       <use xlink:href="#DejaVuSans-30" x="127.246094"/>
       <use xlink:href="#DejaVuSans-30" x="190.869141"/>
      </g>
     </g>
    </g>
    <g id="ytick_3">
     <g id="line2d_13">
      <path d="M 92.16 211.118988 
L 414.72 211.118988 
" clip-path="url(#p682c20db52)" style="fill: none; stroke: #b0b0b0; stroke-width: 0.8; stroke-linecap: square"/>
     </g>
     <g id="line2d_14">
      <g>
       <use xlink:href="#m58e449c37e" x="92.16" y="211.118988" style="stroke: #000000; stroke-width: 0.8"/>
      </g>
     </g>
     <g id="text_8">
      <!-- 4000 -->
      <g transform="translate(59.71 214.918207) scale(0.1 -0.1)">
       <use xlink:href="#DejaVuSans-34"/>
       <use xlink:href="#DejaVuSans-30" x="63.623047"/>
       <use xlink:href="#DejaVuSans-30" x="127.246094"/>
       <use xlink:href="#DejaVuSans-30" x="190.869141"/>
      </g>
     </g>
    </g>
    <g id="ytick_4">
     <g id="line2d_15">
      <path d="M 92.16 162.886482 
L 414.72 162.886482 
" clip-path="url(#p682c20db52)" style="fill: none; stroke: #b0b0b0; stroke-width: 0.8; stroke-linecap: square"/>
     </g>
     <g id="line2d_16">
      <g>
       <use xlink:href="#m58e449c37e" x="92.16" y="162.886482" style="stroke: #000000; stroke-width: 0.8"/>
      </g>
     </g>
     <g id="text_9">
      <!-- 6000 -->
      <g transform="translate(59.71 166.685701) scale(0.1 -0.1)">
       <defs>
        <path id="DejaVuSans-36" d="M 2113 2584 
Q 1688 2584 1439 2293 
Q 1191 2003 1191 1497 
Q 1191 994 1439 701 
Q 1688 409 2113 409 
Q 2538 409 2786 701 
Q 3034 994 3034 1497 
Q 3034 2003 2786 2293 
Q 2538 2584 2113 2584 
z
M 3366 4563 
L 3366 3988 
Q 3128 4100 2886 4159 
Q 2644 4219 2406 4219 
Q 1781 4219 1451 3797 
Q 1122 3375 1075 2522 
Q 1259 2794 1537 2939 
Q 1816 3084 2150 3084 
Q 2853 3084 3261 2657 
Q 3669 2231 3669 1497 
Q 3669 778 3244 343 
Q 2819 -91 2113 -91 
Q 1303 -91 875 529 
Q 447 1150 447 2328 
Q 447 3434 972 4092 
Q 1497 4750 2381 4750 
Q 2619 4750 2861 4703 
Q 3103 4656 3366 4563 
z
" transform="scale(0.015625)"/>
       </defs>
       <use xlink:href="#DejaVuSans-36"/>
       <use xlink:href="#DejaVuSans-30" x="63.623047"/>
       <use xlink:href="#DejaVuSans-30" x="127.246094"/>
       <use xlink:href="#DejaVuSans-30" x="190.869141"/>
      </g>
     </g>
    </g>
    <g id="ytick_5">
     <g id="line2d_17">
      <path d="M 92.16 114.653976 
L 414.72 114.653976 
" clip-path="url(#p682c20db52)" style="fill: none; stroke: #b0b0b0; stroke-width: 0.8; stroke-linecap: square"/>
     </g>
     <g id="line2d_18">
      <g>
       <use xlink:href="#m58e449c37e" x="92.16" y="114.653976" style="stroke: #000000; stroke-width: 0.8"/>
      </g>
     </g>
     <g id="text_10">
      <!-- 8000 -->
      <g transform="translate(59.71 118.453194) scale(0.1 -0.1)">
       <defs>
        <path id="DejaVuSans-38" d="M 2034 2216 
Q 1584 2216 1326 1975 
Q 1069 1734 1069 1313 
Q 1069 891 1326 650 
Q 1584 409 2034 409 
Q 2484 409 2743 651 
Q 3003 894 3003 1313 
Q 3003 1734 2745 1975 
Q 2488 2216 2034 2216 
z
M 1403 2484 
Q 997 2584 770 2862 
Q 544 3141 544 3541 
Q 544 4100 942 4425 
Q 1341 4750 2034 4750 
Q 2731 4750 3128 4425 
Q 3525 4100 3525 3541 
Q 3525 3141 3298 2862 
Q 3072 2584 2669 2484 
Q 3125 2378 3379 2068 
Q 3634 1759 3634 1313 
Q 3634 634 3220 271 
Q 2806 -91 2034 -91 
Q 1263 -91 848 271 
Q 434 634 434 1313 
Q 434 1759 690 2068 
Q 947 2378 1403 2484 
z
M 1172 3481 
Q 1172 3119 1398 2916 
Q 1625 2713 2034 2713 
Q 2441 2713 2670 2916 
Q 2900 3119 2900 3481 
Q 2900 3844 2670 4047 
Q 2441 4250 2034 4250 
Q 1625 4250 1398 4047 
Q 1172 3844 1172 3481 
z
" transform="scale(0.015625)"/>
       </defs>
       <use xlink:href="#DejaVuSans-38"/>
       <use xlink:href="#DejaVuSans-30" x="63.623047"/>
       <use xlink:href="#DejaVuSans-30" x="127.246094"/>
       <use xlink:href="#DejaVuSans-30" x="190.869141"/>
      </g>
     </g>
    </g>
    <g id="ytick_6">
     <g id="line2d_19">
      <path d="M 92.16 66.42147 
L 414.72 66.42147 
" clip-path="url(#p682c20db52)" style="fill: none; stroke: #b0b0b0; stroke-width: 0.8; stroke-linecap: square"/>
     </g>
     <g id="line2d_20">
      <g>
       <use xlink:href="#m58e449c37e" x="92.16" y="66.42147" style="stroke: #000000; stroke-width: 0.8"/>
      </g>
     </g>
     <g id="text_11">
      <!-- 10000 -->
      <g transform="translate(53.3475 70.220688) scale(0.1 -0.1)">
       <use xlink:href="#DejaVuSans-31"/>
       <use xlink:href="#DejaVuSans-30" x="63.623047"/>
       <use xlink:href="#DejaVuSans-30" x="127.246094"/>
       <use xlink:href="#DejaVuSans-30" x="190.869141"/>
       <use xlink:href="#DejaVuSans-30" x="254.492188"/>
      </g>
     </g>
    </g>
    <g id="text_12">
     <!-- max # of queries for a DPU -->
     <g transform="translate(45.604063 297.730969) rotate(-90) scale(0.18 -0.18)">
      <defs>
       <path id="DejaVuSans-6d" d="M 3328 2828 
Q 3544 3216 3844 3400 
Q 4144 3584 4550 3584 
Q 5097 3584 5394 3201 
Q 5691 2819 5691 2113 
L 5691 0 
L 5113 0 
L 5113 2094 
Q 5113 2597 4934 2840 
Q 4756 3084 4391 3084 
Q 3944 3084 3684 2787 
Q 3425 2491 3425 1978 
L 3425 0 
L 2847 0 
L 2847 2094 
Q 2847 2600 2669 2842 
Q 2491 3084 2119 3084 
Q 1678 3084 1418 2786 
Q 1159 2488 1159 1978 
L 1159 0 
L 581 0 
L 581 3500 
L 1159 3500 
L 1159 2956 
Q 1356 3278 1631 3431 
Q 1906 3584 2284 3584 
Q 2666 3584 2933 3390 
Q 3200 3197 3328 2828 
z
" transform="scale(0.015625)"/>
       <path id="DejaVuSans-78" d="M 3513 3500 
L 2247 1797 
L 3578 0 
L 2900 0 
L 1881 1375 
L 863 0 
L 184 0 
L 1544 1831 
L 300 3500 
L 978 3500 
L 1906 2253 
L 2834 3500 
L 3513 3500 
z
" transform="scale(0.015625)"/>
       <path id="DejaVuSans-23" d="M 3272 2816 
L 2363 2816 
L 2100 1772 
L 3016 1772 
L 3272 2816 
z
M 2803 4594 
L 2478 3297 
L 3391 3297 
L 3719 4594 
L 4219 4594 
L 3897 3297 
L 4872 3297 
L 4872 2816 
L 3775 2816 
L 3519 1772 
L 4513 1772 
L 4513 1294 
L 3397 1294 
L 3072 0 
L 2572 0 
L 2894 1294 
L 1978 1294 
L 1656 0 
L 1153 0 
L 1478 1294 
L 494 1294 
L 494 1772 
L 1594 1772 
L 1856 2816 
L 850 2816 
L 850 3297 
L 1978 3297 
L 2297 4594 
L 2803 4594 
z
" transform="scale(0.015625)"/>
       <path id="DejaVuSans-66" d="M 2375 4863 
L 2375 4384 
L 1825 4384 
Q 1516 4384 1395 4259 
Q 1275 4134 1275 3809 
L 1275 3500 
L 2222 3500 
L 2222 3053 
L 1275 3053 
L 1275 0 
L 697 0 
L 697 3053 
L 147 3053 
L 147 3500 
L 697 3500 
L 697 3744 
Q 697 4328 969 4595 
Q 1241 4863 1831 4863 
L 2375 4863 
z
" transform="scale(0.015625)"/>
       <path id="DejaVuSans-71" d="M 947 1747 
Q 947 1113 1208 752 
Q 1469 391 1925 391 
Q 2381 391 2643 752 
Q 2906 1113 2906 1747 
Q 2906 2381 2643 2742 
Q 2381 3103 1925 3103 
Q 1469 3103 1208 2742 
Q 947 2381 947 1747 
z
M 2906 525 
Q 2725 213 2448 61 
Q 2172 -91 1784 -91 
Q 1150 -91 751 415 
Q 353 922 353 1747 
Q 353 2572 751 3078 
Q 1150 3584 1784 3584 
Q 2172 3584 2448 3432 
Q 2725 3281 2906 2969 
L 2906 3500 
L 3481 3500 
L 3481 -1331 
L 2906 -1331 
L 2906 525 
z
" transform="scale(0.015625)"/>
       <path id="DejaVuSans-75" d="M 544 1381 
L 544 3500 
L 1119 3500 
L 1119 1403 
Q 1119 906 1312 657 
Q 1506 409 1894 409 
Q 2359 409 2629 706 
Q 2900 1003 2900 1516 
L 2900 3500 
L 3475 3500 
L 3475 0 
L 2900 0 
L 2900 538 
Q 2691 219 2414 64 
Q 2138 -91 1772 -91 
Q 1169 -91 856 284 
Q 544 659 544 1381 
z
M 1991 3584 
L 1991 3584 
z
" transform="scale(0.015625)"/>
       <path id="DejaVuSans-73" d="M 2834 3397 
L 2834 2853 
Q 2591 2978 2328 3040 
Q 2066 3103 1784 3103 
Q 1356 3103 1142 2972 
Q 928 2841 928 2578 
Q 928 2378 1081 2264 
Q 1234 2150 1697 2047 
L 1894 2003 
Q 2506 1872 2764 1633 
Q 3022 1394 3022 966 
Q 3022 478 2636 193 
Q 2250 -91 1575 -91 
Q 1294 -91 989 -36 
Q 684 19 347 128 
L 347 722 
Q 666 556 975 473 
Q 1284 391 1588 391 
Q 1994 391 2212 530 
Q 2431 669 2431 922 
Q 2431 1156 2273 1281 
Q 2116 1406 1581 1522 
L 1381 1569 
Q 847 1681 609 1914 
Q 372 2147 372 2553 
Q 372 3047 722 3315 
Q 1072 3584 1716 3584 
Q 2034 3584 2315 3537 
Q 2597 3491 2834 3397 
z
" transform="scale(0.015625)"/>
       <path id="DejaVuSans-44" d="M 1259 4147 
L 1259 519 
L 2022 519 
Q 2988 519 3436 956 
Q 3884 1394 3884 2338 
Q 3884 3275 3436 3711 
Q 2988 4147 2022 4147 
L 1259 4147 
z
M 628 4666 
L 1925 4666 
Q 3281 4666 3915 4102 
Q 4550 3538 4550 2338 
Q 4550 1131 3912 565 
Q 3275 0 1925 0 
L 628 0 
L 628 4666 
z
" transform="scale(0.015625)"/>
       <path id="DejaVuSans-50" d="M 1259 4147 
L 1259 2394 
L 2053 2394 
Q 2494 2394 2734 2622 
Q 2975 2850 2975 3272 
Q 2975 3691 2734 3919 
Q 2494 4147 2053 4147 
L 1259 4147 
z
M 628 4666 
L 2053 4666 
Q 2838 4666 3239 4311 
Q 3641 3956 3641 3272 
Q 3641 2581 3239 2228 
Q 2838 1875 2053 1875 
L 1259 1875 
L 1259 0 
L 628 0 
L 628 4666 
z
" transform="scale(0.015625)"/>
       <path id="DejaVuSans-55" d="M 556 4666 
L 1191 4666 
L 1191 1831 
Q 1191 1081 1462 751 
Q 1734 422 2344 422 
Q 2950 422 3222 751 
Q 3494 1081 3494 1831 
L 3494 4666 
L 4128 4666 
L 4128 1753 
Q 4128 841 3676 375 
Q 3225 -91 2344 -91 
Q 1459 -91 1007 375 
Q 556 841 556 1753 
L 556 4666 
z
" transform="scale(0.015625)"/>
      </defs>
      <use xlink:href="#DejaVuSans-6d"/>
      <use xlink:href="#DejaVuSans-61" x="97.412109"/>
      <use xlink:href="#DejaVuSans-78" x="158.691406"/>
      <use xlink:href="#DejaVuSans-20" x="217.871094"/>
      <use xlink:href="#DejaVuSans-23" x="249.658203"/>
      <use xlink:href="#DejaVuSans-20" x="333.447266"/>
      <use xlink:href="#DejaVuSans-6f" x="365.234375"/>
      <use xlink:href="#DejaVuSans-66" x="426.416016"/>
      <use xlink:href="#DejaVuSans-20" x="461.621094"/>
      <use xlink:href="#DejaVuSans-71" x="493.408203"/>
      <use xlink:href="#DejaVuSans-75" x="556.884766"/>
      <use xlink:href="#DejaVuSans-65" x="620.263672"/>
      <use xlink:href="#DejaVuSans-72" x="681.787109"/>
      <use xlink:href="#DejaVuSans-69" x="722.900391"/>
      <use xlink:href="#DejaVuSans-65" x="750.683594"/>
      <use xlink:href="#DejaVuSans-73" x="812.207031"/>
      <use xlink:href="#DejaVuSans-20" x="864.306641"/>
      <use xlink:href="#DejaVuSans-66" x="896.09375"/>
      <use xlink:href="#DejaVuSans-6f" x="931.298828"/>
      <use xlink:href="#DejaVuSans-72" x="992.480469"/>
      <use xlink:href="#DejaVuSans-20" x="1033.59375"/>
      <use xlink:href="#DejaVuSans-61" x="1065.380859"/>
      <use xlink:href="#DejaVuSans-20" x="1126.660156"/>
      <use xlink:href="#DejaVuSans-44" x="1158.447266"/>
      <use xlink:href="#DejaVuSans-50" x="1235.449219"/>
      <use xlink:href="#DejaVuSans-55" x="1295.751953"/>
     </g>
    </g>
   </g>
   <g id="line2d_21">
    <path d="M 92.483855 53.036949 
L 93.131566 80.481245 
L 93.779277 100.20834 
L 94.426988 127.869682 
L 95.72241 171.447752 
L 97.017831 216.086936 
L 97.665542 237.405704 
L 98.313253 263.427141 
L 98.960964 276.281104 
L 99.608675 279.00624 
L 100.904096 282.165469 
L 101.551807 283.226584 
L 102.199518 283.950072 
L 102.847229 283.612444 
L 103.49494 282.913073 
L 104.142651 283.371282 
L 104.790361 282.985422 
L 105.438072 283.708909 
L 106.085783 283.226584 
L 106.733494 283.877723 
L 107.381205 283.588328 
L 108.028916 282.551329 
L 108.676627 282.913073 
L 109.324337 282.430748 
L 109.972048 283.636561 
L 110.619759 283.443631 
L 111.26747 283.371282 
L 111.915181 283.90184 
L 113.210602 283.081887 
L 113.858313 283.298933 
L 114.506024 283.178352 
L 115.153735 282.864841 
L 115.801446 283.660677 
L 116.449157 282.913073 
L 117.744578 282.961306 
L 118.392289 283.515979 
L 119.04 283.660677 
L 119.687711 283.588328 
L 120.335422 283.009538 
L 120.983133 282.768376 
L 121.630843 283.419514 
L 122.926265 283.467747 
L 123.573976 283.178352 
L 124.221687 282.696027 
L 124.869398 282.864841 
L 125.517108 283.660677 
L 126.164819 283.515979 
L 126.81253 283.564212 
L 127.460241 282.937189 
L 128.107952 282.768376 
L 128.755663 282.816608 
L 129.403373 283.202468 
L 130.051084 282.671911 
L 131.346506 283.130119 
L 131.994217 283.009538 
L 132.641928 283.757142 
L 133.289639 283.033654 
L 133.937349 283.757142 
L 134.58506 283.684793 
L 135.880482 282.671911 
L 136.528193 282.985422 
L 137.175904 283.443631 
L 137.823614 283.323049 
L 138.471325 282.864841 
L 139.119036 282.840724 
L 139.766747 283.371282 
L 141.062169 283.781258 
L 141.70988 283.347166 
L 142.35759 283.298933 
L 143.005301 283.467747 
L 143.653012 283.226584 
L 144.300723 283.130119 
L 144.948434 283.660677 
L 145.596145 283.491863 
L 146.243855 283.925956 
L 146.891566 283.106003 
L 147.539277 283.178352 
L 148.834699 283.829491 
L 149.48241 283.106003 
L 150.13012 283.178352 
L 150.777831 283.540096 
L 151.425542 283.323049 
L 152.073253 283.588328 
L 152.720964 282.985422 
L 154.016386 283.033654 
L 155.959518 284.09477 
L 156.607229 283.540096 
L 157.25494 281.490214 
L 157.902651 283.154236 
L 158.550361 283.515979 
L 159.198072 283.564212 
L 159.845783 283.925956 
L 160.493494 283.250701 
L 161.141205 283.178352 
L 161.788916 283.684793 
L 162.436627 283.443631 
L 163.084337 282.406632 
L 163.732048 283.274817 
L 164.379759 283.733026 
L 165.02747 282.913073 
L 165.675181 283.250701 
L 166.970602 283.347166 
L 167.618313 282.430748 
L 168.266024 283.274817 
L 168.913735 283.106003 
L 169.561446 283.419514 
L 170.209157 283.009538 
L 170.856867 282.792492 
L 171.504578 283.371282 
L 172.152289 282.961306 
L 172.8 283.250701 
L 173.447711 283.106003 
L 174.095422 283.443631 
L 174.743133 282.720143 
L 175.390843 283.323049 
L 176.038554 282.117237 
L 176.686265 283.323049 
L 177.333976 283.564212 
L 177.981687 283.226584 
L 178.629398 283.660677 
L 179.277108 283.130119 
L 179.924819 283.612444 
L 181.220241 282.744259 
L 181.867952 282.141353 
L 182.515663 283.998305 
L 183.163373 283.371282 
L 183.811084 283.805375 
L 184.458795 283.106003 
L 185.106506 283.829491 
L 185.754217 283.250701 
L 186.401928 283.564212 
L 187.049639 283.347166 
L 187.697349 282.961306 
L 188.34506 283.660677 
L 188.992771 284.118886 
L 189.640482 283.757142 
L 190.288193 283.154236 
L 190.935904 282.310167 
L 191.583614 283.733026 
L 192.231325 283.564212 
L 192.879036 283.660677 
L 193.526747 283.274817 
L 194.174458 283.540096 
L 194.822169 284.143002 
L 195.46988 282.888957 
L 196.11759 283.564212 
L 197.413012 282.623678 
L 198.060723 283.395398 
L 198.708434 283.033654 
L 199.356145 283.684793 
L 200.003855 283.974188 
L 200.651566 283.90184 
L 201.299277 283.298933 
L 201.946988 283.395398 
L 202.594699 282.261934 
L 203.24241 283.202468 
L 203.89012 283.877723 
L 204.537831 283.684793 
L 205.185542 282.864841 
L 205.833253 283.395398 
L 206.480964 282.840724 
L 207.128675 283.757142 
L 207.776386 282.696027 
L 208.424096 282.744259 
L 209.071807 282.985422 
L 209.719518 283.733026 
L 210.367229 282.069004 
L 211.01494 283.226584 
L 212.310361 283.564212 
L 212.958072 283.347166 
L 213.605783 283.274817 
L 214.901205 283.564212 
L 215.548916 283.925956 
L 216.196627 283.564212 
L 216.844337 283.057771 
L 217.492048 283.250701 
L 218.139759 283.757142 
L 218.78747 283.636561 
L 219.435181 282.768376 
L 220.082892 283.033654 
L 220.730602 282.985422 
L 221.378313 283.564212 
L 222.026024 282.792492 
L 222.673735 283.877723 
L 223.321446 283.130119 
L 223.969157 282.937189 
L 225.264578 283.612444 
L 225.912289 283.564212 
L 226.56 282.840724 
L 227.207711 283.009538 
L 227.855422 283.636561 
L 228.503133 282.286051 
L 229.798554 283.564212 
L 230.446265 283.057771 
L 231.093976 282.093121 
L 231.741687 283.106003 
L 232.389398 283.106003 
L 233.037108 283.419514 
L 233.684819 283.974188 
L 234.33253 282.913073 
L 234.980241 284.335932 
L 235.627952 283.974188 
L 236.275663 283.323049 
L 236.923373 283.467747 
L 237.571084 283.781258 
L 238.218795 283.588328 
L 238.866506 283.564212 
L 239.514217 282.165469 
L 240.161928 283.033654 
L 240.809639 283.588328 
L 241.457349 283.371282 
L 242.10506 283.347166 
L 242.752771 283.660677 
L 243.400482 283.443631 
L 244.048193 283.90184 
L 244.695904 283.202468 
L 245.343614 283.274817 
L 245.991325 283.829491 
L 246.639036 283.467747 
L 247.286747 282.527213 
L 247.934458 283.612444 
L 248.582169 283.612444 
L 249.22988 282.575446 
L 249.87759 283.757142 
L 250.525301 283.419514 
L 251.173012 283.998305 
L 251.820723 283.298933 
L 252.468434 283.202468 
L 254.411566 283.491863 
L 255.059277 283.419514 
L 255.706988 282.527213 
L 256.354699 282.406632 
L 257.00241 283.323049 
L 257.65012 283.733026 
L 258.297831 283.829491 
L 258.945542 282.937189 
L 259.593253 283.660677 
L 260.240964 281.924307 
L 260.888675 283.540096 
L 261.536386 283.853607 
L 262.184096 283.226584 
L 262.831807 283.708909 
L 263.479518 282.768376 
L 264.127229 283.588328 
L 264.77494 283.371282 
L 265.422651 283.877723 
L 266.070361 283.588328 
L 266.718072 283.130119 
L 267.365783 282.503097 
L 268.013494 283.925956 
L 268.661205 283.974188 
L 269.308916 283.250701 
L 269.956627 282.937189 
L 270.604337 283.540096 
L 271.252048 283.805375 
L 271.899759 283.757142 
L 272.54747 283.419514 
L 273.195181 283.660677 
L 273.842892 283.274817 
L 274.490602 283.564212 
L 275.138313 283.419514 
L 275.786024 283.419514 
L 276.433735 282.527213 
L 277.081446 282.647794 
L 277.729157 283.636561 
L 278.376867 283.588328 
L 279.024578 283.950072 
L 279.672289 283.202468 
L 280.32 283.009538 
L 280.967711 283.033654 
L 281.615422 282.792492 
L 282.263133 283.202468 
L 282.910843 283.419514 
L 283.558554 282.985422 
L 284.206265 283.515979 
L 284.853976 283.805375 
L 285.501687 283.057771 
L 286.149398 282.768376 
L 286.797108 282.623678 
L 287.444819 283.829491 
L 288.09253 283.323049 
L 288.740241 283.612444 
L 289.387952 283.395398 
L 290.035663 283.733026 
L 290.683373 282.961306 
L 291.331084 283.226584 
L 291.978795 283.925956 
L 292.626506 283.491863 
L 293.274217 282.671911 
L 293.921928 282.864841 
L 294.569639 283.419514 
L 295.217349 283.250701 
L 295.86506 282.696027 
L 296.512771 283.395398 
L 297.160482 283.202468 
L 297.808193 282.792492 
L 299.103614 282.768376 
L 299.751325 283.636561 
L 300.399036 283.081887 
L 301.046747 282.937189 
L 301.694458 282.937189 
L 302.342169 283.154236 
L 302.98988 283.009538 
L 303.63759 283.708909 
L 304.285301 283.974188 
L 304.933012 283.829491 
L 305.580723 283.323049 
L 306.228434 283.154236 
L 306.876145 282.213702 
L 307.523855 283.805375 
L 308.171566 283.733026 
L 308.819277 283.877723 
L 309.466988 282.382516 
L 310.76241 284.022421 
L 311.41012 282.985422 
L 312.057831 282.840724 
L 312.705542 283.950072 
L 313.353253 282.478981 
L 314.648675 283.925956 
L 315.296386 283.371282 
L 316.591807 282.840724 
L 317.239518 283.419514 
L 318.53494 283.371282 
L 319.182651 283.009538 
L 321.125783 283.467747 
L 322.421205 283.057771 
L 323.068916 283.009538 
L 323.716627 283.347166 
L 324.364337 283.057771 
L 325.012048 283.612444 
L 325.659759 282.478981 
L 326.30747 283.540096 
L 327.602892 283.347166 
L 328.250602 283.323049 
L 328.898313 284.09477 
L 329.546024 283.564212 
L 330.193735 282.334283 
L 330.841446 282.744259 
L 331.489157 283.733026 
L 332.136867 283.419514 
L 332.784578 283.588328 
L 333.432289 283.877723 
L 334.727711 282.454864 
L 335.375422 282.503097 
L 336.023133 283.757142 
L 336.670843 283.371282 
L 337.318554 282.792492 
L 337.966265 283.274817 
L 338.613976 283.419514 
L 339.261687 282.720143 
L 339.909398 283.708909 
L 340.557108 283.540096 
L 341.204819 283.853607 
L 341.85253 283.274817 
L 342.500241 283.250701 
L 343.147952 283.081887 
L 344.443373 283.057771 
L 345.091084 283.829491 
L 345.738795 283.202468 
L 346.386506 283.226584 
L 347.034217 283.540096 
L 348.977349 283.081887 
L 349.62506 283.660677 
L 350.272771 283.829491 
L 350.920482 283.178352 
L 351.568193 282.888957 
L 352.215904 283.347166 
L 352.863614 283.106003 
L 353.511325 283.274817 
L 354.159036 283.612444 
L 354.806747 283.274817 
L 355.454458 282.599562 
L 356.102169 283.081887 
L 356.74988 283.395398 
L 357.39759 283.347166 
L 358.045301 283.467747 
L 358.693012 283.708909 
L 359.988434 282.551329 
L 360.636145 283.515979 
L 361.283855 283.298933 
L 361.931566 283.371282 
L 362.579277 282.358399 
L 363.226988 283.564212 
L 363.874699 282.310167 
L 364.52241 283.805375 
L 365.17012 282.840724 
L 365.817831 283.298933 
L 366.465542 283.106003 
L 367.113253 283.588328 
L 367.760964 283.540096 
L 368.408675 283.708909 
L 369.056386 282.406632 
L 369.704096 283.081887 
L 370.351807 282.961306 
L 371.647229 283.733026 
L 372.942651 283.612444 
L 373.590361 282.623678 
L 374.238072 283.202468 
L 374.885783 282.334283 
L 375.533494 283.202468 
L 376.181205 283.033654 
L 376.828916 283.660677 
L 377.476627 283.130119 
L 378.124337 282.913073 
L 378.772048 284.070653 
L 379.419759 282.647794 
L 380.06747 283.781258 
L 380.715181 283.612444 
L 381.362892 283.660677 
L 382.010602 283.515979 
L 382.658313 283.660677 
L 383.306024 283.564212 
L 384.601446 283.009538 
L 385.249157 283.515979 
L 385.896867 282.816608 
L 386.544578 282.527213 
L 387.192289 283.564212 
L 387.84 283.612444 
L 388.487711 282.937189 
L 389.135422 283.154236 
L 389.783133 283.178352 
L 390.430843 282.937189 
L 391.078554 283.564212 
L 393.021687 283.130119 
L 393.669398 283.226584 
L 394.317108 283.684793 
L 394.964819 283.371282 
L 395.61253 283.202468 
L 396.260241 283.323049 
L 397.555663 282.840724 
L 398.203373 283.829491 
L 398.851084 283.395398 
L 399.498795 283.371282 
L 400.146506 283.540096 
L 400.794217 283.925956 
L 401.441928 282.768376 
L 402.089639 283.371282 
L 402.737349 282.237818 
L 403.38506 283.540096 
L 404.032771 282.913073 
L 404.680482 283.708909 
L 405.328193 283.636561 
L 405.975904 283.323049 
L 406.623614 282.792492 
L 407.271325 282.744259 
L 407.919036 283.708909 
L 408.566747 283.419514 
L 409.214458 283.757142 
L 409.862169 283.009538 
L 410.50988 283.612444 
L 411.15759 283.684793 
L 411.805301 283.178352 
L 412.453012 283.347166 
L 413.100723 283.781258 
L 413.748434 282.913073 
L 414.396145 283.226584 
L 415.043855 283.347166 
L 415.043855 283.347166 
" clip-path="url(#p682c20db52)" style="fill: none; stroke: #1f77b4; stroke-width: 1.5; stroke-linecap: square"/>
   </g>
   <g id="patch_3">
    <path d="M 92.16 307.584 
L 92.16 41.472 
" style="fill: none; stroke: #000000; stroke-width: 0.8; stroke-linejoin: miter; stroke-linecap: square"/>
   </g>
   <g id="patch_4">
    <path d="M 414.72 307.584 
L 414.72 41.472 
" style="fill: none; stroke: #000000; stroke-width: 0.8; stroke-linejoin: miter; stroke-linecap: square"/>
   </g>
   <g id="patch_5">
    <path d="M 92.16 307.584 
L 414.72 307.584 
" style="fill: none; stroke: #000000; stroke-width: 0.8; stroke-linejoin: miter; stroke-linecap: square"/>
   </g>
   <g id="patch_6">
    <path d="M 92.16 41.472 
L 414.72 41.472 
" style="fill: none; stroke: #000000; stroke-width: 0.8; stroke-linejoin: miter; stroke-linecap: square"/>
   </g>
  </g>
 </g>
 <defs>
  <clipPath id="p682c20db52">
   <rect x="92.16" y="41.472" width="322.56" height="266.112"/>
  </clipPath>
 </defs>
</svg>
