<?xml version="1.0" encoding="utf-8" standalone="no"?>
<!DOCTYPE svg PUBLIC "-//W3C//DTD SVG 1.1//EN"
  "http://www.w3.org/Graphics/SVG/1.1/DTD/svg11.dtd">
<svg xmlns:xlink="http://www.w3.org/1999/xlink" width="460.8pt" height="345.6pt" viewBox="0 0 460.8 345.6" xmlns="http://www.w3.org/2000/svg" version="1.1">
 <metadata>
  <rdf:RDF xmlns:dc="http://purl.org/dc/elements/1.1/" xmlns:cc="http://creativecommons.org/ns#" xmlns:rdf="http://www.w3.org/1999/02/22-rdf-syntax-ns#">
   <cc:Work>
    <dc:type rdf:resource="http://purl.org/dc/dcmitype/StillImage"/>
    <dc:date>2023-09-12T09:26:09.766373</dc:date>
    <dc:format>image/svg+xml</dc:format>
    <dc:creator>
     <cc:Agent>
      <dc:title>Matplotlib v3.7.0, https://matplotlib.org/</dc:title>
     </cc:Agent>
    </dc:creator>
   </cc:Work>
  </rdf:RDF>
 </metadata>
 <defs>
  <style type="text/css">*{stroke-linejoin: round; stroke-linecap: butt}</style>
 </defs>
 <g id="figure_1">
  <g id="patch_1">
   <path d="M 0 345.6 
L 460.8 345.6 
L 460.8 0 
L 0 0 
L 0 345.6 
z
" style="fill: none"/>
  </g>
  <g id="axes_1">
   <g id="patch_2">
    <path d="M 101.376 279.936 
L 352.0512 279.936 
L 352.0512 41.472 
L 101.376 41.472 
L 101.376 279.936 
z
" style="fill: none"/>
   </g>
   <g id="PathCollection_1">
    <path d="M 101.376 278.53533 
L 101.376 278.268522 
L 102.236064 278.53533 
L 105.354971 279.6641 
L 105.880166 279.936 
L 105.354971 279.936 
L 101.376 279.936 
z
" clip-path="url(#p534451d3fa)" style="fill: #eaf3fb"/>
    <path d="M 101.376 41.472 
L 105.354971 41.472 
L 113.312914 41.472 
L 161.060571 41.472 
L 224.724114 41.472 
L 352.0512 41.472 
L 352.0512 98.096941 
L 224.724114 97.109092 
L 161.060571 85.777036 
L 113.312914 56.019233 
L 105.354971 44.776337 
L 101.376 41.674396 
z
" clip-path="url(#p534451d3fa)" style="fill: #eaf3fb"/>
   </g>
   <g id="PathCollection_2">
    <path d="M 102.236064 278.53533 
L 101.376 278.268522 
L 101.376 274.142152 
L 105.354971 275.460253 
L 111.157474 278.53533 
L 113.312914 279.356547 
L 132.73597 278.53533 
L 145.056187 272.932652 
L 143.13906 250.521938 
L 139.243821 220.640987 
L 127.395365 160.879084 
L 113.312914 126.291296 
L 110.442831 101.117181 
L 105.354971 85.310905 
L 101.376 69.309472 
L 101.376 41.674396 
L 105.354971 44.776337 
L 113.312914 56.019233 
L 161.060571 85.777036 
L 224.724114 97.109092 
L 352.0512 98.096941 
L 352.0512 101.117181 
L 352.0512 160.879084 
L 352.0512 220.640987 
L 352.0512 250.521938 
L 352.0512 272.932652 
L 352.0512 278.53533 
L 352.0512 279.936 
L 224.724114 279.936 
L 161.060571 279.936 
L 113.312914 279.936 
L 105.880166 279.936 
L 105.354971 279.6641 
z
" clip-path="url(#p534451d3fa)" style="fill: #d2e3f3"/>
   </g>
   <g id="PathCollection_3">
    <path d="M 101.376 272.932652 
L 101.376 269.891593 
L 105.354971 269.252655 
L 112.632068 250.521938 
L 111.724055 220.640987 
L 109.150583 160.879084 
L 105.354971 130.368977 
L 102.165423 101.117181 
L 101.376 96.944549 
L 101.376 69.309472 
L 105.354971 85.310905 
L 110.442831 101.117181 
L 113.312914 126.291296 
L 127.395365 160.879084 
L 139.243821 220.640987 
L 143.13906 250.521938 
L 145.056187 272.932652 
L 132.73597 278.53533 
L 113.312914 279.356547 
L 111.157474 278.53533 
L 105.354971 275.460253 
L 101.376 274.142152 
z
" clip-path="url(#p534451d3fa)" style="fill: #b2d2e8"/>
   </g>
   <g id="PathCollection_4">
    <path d="M 105.354971 259.327362 
L 108.775979 250.521938 
L 107.370291 220.640987 
L 105.354971 187.174441 
L 104.275974 160.879084 
L 101.376 128.89594 
L 101.376 101.117181 
L 101.376 96.944549 
L 102.165423 101.117181 
L 105.354971 130.368977 
L 109.150583 160.879084 
L 111.724055 220.640987 
L 112.632068 250.521938 
L 105.354971 269.252655 
L 101.376 269.891593 
L 101.376 265.589539 
z
" clip-path="url(#p534451d3fa)" style="fill: #84bcdb"/>
   </g>
   <g id="PathCollection_5">
    <path d="M 105.183306 250.521938 
L 104.678782 220.640987 
L 101.376 161.387063 
L 101.376 160.879084 
L 101.376 128.89594 
L 104.275974 160.879084 
L 105.354971 187.174441 
L 107.370291 220.640987 
L 108.775979 250.521938 
L 105.354971 259.327362 
L 101.376 265.589539 
L 101.376 261.287485 
z
" clip-path="url(#p534451d3fa)" style="fill: #56a0ce"/>
   </g>
   <g id="PathCollection_6">
    <path d="M 103.661857 250.521938 
L 103.419838 220.640987 
L 101.376 183.973276 
L 101.376 161.387063 
L 104.678782 220.640987 
L 105.183306 250.521938 
L 101.376 261.287485 
L 101.376 256.985431 
z
" clip-path="url(#p534451d3fa)" style="fill: #3181bd"/>
   </g>
   <g id="PathCollection_7">
    <path d="M 102.140407 250.521938 
L 102.160895 220.640987 
L 101.376 206.559489 
L 101.376 183.973276 
L 103.419838 220.640987 
L 103.661857 250.521938 
L 101.376 256.985431 
L 101.376 252.683377 
z
" clip-path="url(#p534451d3fa)" style="fill: #1460a8"/>
   </g>
   <g id="PathCollection_8">
    <path d="M 101.376 250.521938 
L 101.376 220.640987 
L 101.376 206.559489 
L 102.160895 220.640987 
L 102.140407 250.521938 
L 101.376 252.683377 
z
" clip-path="url(#p534451d3fa)" style="fill: #084082"/>
   </g>
   <g id="matplotlib.axis_1">
    <g id="xtick_1">
     <g id="line2d_1">
      <path d="M 221.739886 279.936 
L 221.739886 41.472 
" clip-path="url(#p534451d3fa)" style="fill: none; stroke: #d3d3d3; stroke-linecap: square"/>
     </g>
     <g id="line2d_2">
      <defs>
       <path id="m36bab4cf92" d="M 0 0 
L 0 3.5 
" style="stroke: #000000; stroke-width: 0.8"/>
      </defs>
      <g>
       <use xlink:href="#m36bab4cf92" x="221.739886" y="279.936" style="stroke: #000000; stroke-width: 0.8"/>
      </g>
     </g>
     <g id="text_1">
      <!-- 500 -->
      <g transform="translate(199.065511 304.9135) scale(0.24 -0.24)">
       <defs>
        <path id="IPAexGothic-35" d="M 1178 2603 
Q 1634 2963 2172 2963 
Q 2816 2963 3241 2528 
Q 3638 2113 3638 1497 
Q 3638 938 3297 513 
Q 2869 -31 2031 -31 
Q 959 -31 469 784 
L 938 1028 
Q 1309 434 2013 434 
Q 2466 434 2769 716 
Q 3081 1013 3081 1503 
Q 3081 1966 2806 2241 
Q 2519 2528 2056 2528 
Q 1406 2528 1072 2028 
L 591 2091 
L 884 4634 
L 3406 4634 
L 3406 4153 
L 1341 4153 
L 1134 2603 
L 1178 2603 
z
" transform="scale(0.015625)"/>
        <path id="IPAexGothic-30" d="M 2038 4725 
Q 2881 4725 3334 3944 
Q 3694 3325 3694 2344 
Q 3694 1372 3334 741 
Q 2888 -31 2016 -31 
Q 1147 -31 700 741 
Q 341 1372 341 2350 
Q 341 3713 1000 4334 
Q 1419 4725 2038 4725 
z
M 2016 4266 
Q 1516 4266 1228 3759 
Q 934 3247 934 2344 
Q 934 1456 1222 947 
Q 1513 447 2016 447 
Q 2619 447 2909 1153 
Q 3100 1622 3100 2375 
Q 3100 3256 2806 3759 
Q 2509 4266 2016 4266 
z
" transform="scale(0.015625)"/>
       </defs>
       <use xlink:href="#IPAexGothic-35"/>
       <use xlink:href="#IPAexGothic-30" x="62.988281"/>
       <use xlink:href="#IPAexGothic-30" x="125.976562"/>
      </g>
     </g>
    </g>
    <g id="xtick_2">
     <g id="line2d_3">
      <path d="M 346.082743 279.936 
L 346.082743 41.472 
" clip-path="url(#p534451d3fa)" style="fill: none; stroke: #d3d3d3; stroke-linecap: square"/>
     </g>
     <g id="line2d_4">
      <g>
       <use xlink:href="#m36bab4cf92" x="346.082743" y="279.936" style="stroke: #000000; stroke-width: 0.8"/>
      </g>
     </g>
     <g id="text_2">
      <!-- 1000 -->
      <g transform="translate(315.850243 304.9135) scale(0.24 -0.24)">
       <defs>
        <path id="IPAexGothic-31" d="M 2463 63 
L 1900 63 
L 1900 4103 
Q 1372 3922 788 3797 
L 684 4231 
Q 1519 4441 2106 4731 
L 2463 4731 
L 2463 63 
z
" transform="scale(0.015625)"/>
       </defs>
       <use xlink:href="#IPAexGothic-31"/>
       <use xlink:href="#IPAexGothic-30" x="62.988281"/>
       <use xlink:href="#IPAexGothic-30" x="125.976562"/>
       <use xlink:href="#IPAexGothic-30" x="188.964844"/>
      </g>
     </g>
    </g>
    <g id="text_3">
     <!-- CPUに置く部分木数($N_{c}$) -->
     <g transform="translate(62.9136 338.6735) scale(0.3 -0.3)">
      <defs>
       <path id="IPAexGothic-43" d="M 4353 1088 
Q 4181 694 3859 428 
Q 3313 -31 2559 -31 
Q 1588 -31 959 653 
Q 378 1294 378 2331 
Q 378 3406 1013 4078 
Q 1619 4725 2534 4725 
Q 3813 4725 4322 3628 
L 3809 3391 
Q 3425 4238 2541 4238 
Q 1891 4238 1453 3744 
Q 994 3216 994 2322 
Q 994 1550 1384 1056 
Q 1841 472 2563 472 
Q 3456 472 3878 1319 
L 4353 1088 
z
" transform="scale(0.015625)"/>
       <path id="IPAexGothic-50" d="M 609 4634 
L 1941 4634 
Q 3688 4634 3688 3322 
Q 3688 1934 1906 1934 
L 1172 1934 
L 1172 63 
L 609 63 
L 609 4634 
z
M 1172 2381 
L 1800 2381 
Q 3100 2381 3100 3316 
Q 3100 4181 1894 4181 
L 1172 4181 
L 1172 2381 
z
" transform="scale(0.015625)"/>
       <path id="IPAexGothic-55" d="M 4219 4634 
L 4219 1631 
Q 4219 994 3906 594 
Q 3400 -63 2388 -63 
Q 1372 -63 856 594 
Q 550 988 550 1631 
L 550 4634 
L 1113 4634 
L 1113 1700 
Q 1113 1134 1388 831 
Q 1753 428 2388 428 
Q 3031 428 3388 831 
Q 3663 1144 3663 1700 
L 3663 4634 
L 4219 4634 
z
" transform="scale(0.015625)"/>
       <path id="IPAexGothic-306b" d="M 1088 -38 
Q 922 1003 922 2081 
Q 922 3222 1331 4794 
L 1813 4684 
Q 1391 3113 1391 2003 
Q 1391 1441 1422 1147 
Q 1434 1181 1813 2016 
L 2125 1797 
Q 1800 1081 1691 763 
Q 1581 453 1581 269 
Q 1581 78 1588 6 
L 1088 -38 
z
M 2834 4038 
Q 3969 4213 5313 4172 
L 5338 3681 
Q 3959 3728 2869 3547 
L 2834 4038 
z
M 5650 256 
Q 5044 172 4372 172 
Q 3463 172 3047 434 
Q 2784 594 2675 841 
Q 2572 1075 2572 1447 
Q 2572 1563 2578 1656 
L 3053 1684 
Q 3050 1613 3044 1528 
Q 3041 1481 3041 1466 
Q 3041 1200 3119 1053 
Q 3178 944 3309 850 
Q 3569 678 4275 678 
Q 4891 678 5588 763 
L 5650 256 
z
" transform="scale(0.015625)"/>
       <path id="IPAexGothic-7f6e" d="M 3559 3841 
Q 3531 3675 3481 3488 
L 5991 3488 
L 5991 3147 
L 3391 3147 
Q 3384 3128 3372 3066 
Q 3366 3047 3291 2797 
L 5222 2797 
L 5222 453 
L 1978 453 
L 1978 2797 
L 2853 2797 
Q 2913 2966 2956 3147 
L 397 3147 
L 397 3488 
L 3041 3488 
Q 3047 3519 3063 3591 
Q 3094 3750 3109 3841 
L 966 3841 
L 966 5050 
L 5491 5050 
L 5491 3841 
L 3559 3841 
z
M 1394 4725 
L 1394 4166 
L 2338 4166 
L 2338 4725 
L 1394 4725 
z
M 5063 4166 
L 5063 4725 
L 4109 4725 
L 4109 4166 
L 5063 4166 
z
M 2753 4725 
L 2753 4166 
L 3694 4166 
L 3694 4725 
L 2753 4725 
z
M 2406 2472 
L 2406 2125 
L 4794 2125 
L 4794 2472 
L 2406 2472 
z
M 2406 1813 
L 2406 1459 
L 4794 1459 
L 4794 1813 
L 2406 1813 
z
M 2406 1147 
L 2406 778 
L 4794 778 
L 4794 1147 
L 2406 1147 
z
M 1331 134 
L 6081 134 
L 6081 -225 
L 1331 -225 
L 1331 -450 
L 878 -450 
L 878 2803 
L 1331 2803 
L 1331 134 
z
" transform="scale(0.015625)"/>
       <path id="IPAexGothic-304f" d="M 4022 -300 
Q 3050 984 1863 2047 
Q 1538 2338 1538 2522 
Q 1538 2700 1953 3041 
Q 3144 4019 3816 5094 
L 4256 4769 
Q 3456 3659 2234 2694 
Q 2106 2588 2106 2528 
Q 2106 2466 2344 2247 
Q 3591 1113 4444 103 
L 4022 -300 
z
" transform="scale(0.015625)"/>
       <path id="IPAexGothic-90e8" d="M 3034 4031 
L 3028 4000 
Q 2897 3488 2675 2888 
L 3631 2888 
L 3631 2503 
L 322 2503 
L 322 2888 
L 1256 2888 
Q 1150 3450 950 4031 
L 438 4031 
L 438 4416 
L 1756 4416 
L 1756 5313 
L 2197 5313 
L 2197 4416 
L 3456 4416 
L 3456 4031 
L 3034 4031 
z
M 2594 4031 
L 1384 4031 
Q 1566 3538 1691 2888 
L 2241 2888 
Q 2463 3466 2594 4031 
z
M 3194 1863 
L 3194 -422 
L 2766 -422 
L 2766 -103 
L 1250 -103 
L 1250 -450 
L 822 -450 
L 822 1863 
L 3194 1863 
z
M 1250 1478 
L 1250 281 
L 2766 281 
L 2766 1478 
L 1250 1478 
z
M 5166 2878 
Q 5953 2066 5953 1159 
Q 5953 391 5306 391 
Q 5016 391 4584 459 
L 4528 947 
Q 4844 850 5166 850 
Q 5472 850 5472 1216 
Q 5472 2041 4669 2828 
Q 5081 3600 5300 4409 
L 4291 4409 
L 4291 -447 
L 3850 -447 
L 3850 4825 
L 5575 4825 
L 5866 4594 
Q 5563 3659 5166 2878 
z
" transform="scale(0.015625)"/>
       <path id="IPAexGothic-5206" d="M 3031 2431 
Q 2916 1378 2528 759 
Q 1991 -81 941 -469 
L 625 -53 
Q 2356 488 2541 2431 
L 1375 2431 
L 1375 2772 
Q 1044 2431 653 2156 
L 313 2534 
Q 1600 3425 2219 5056 
L 2688 4875 
Q 2200 3672 1453 2847 
L 4966 2847 
Q 4878 559 4741 94 
Q 4666 -163 4459 -250 
Q 4288 -322 3941 -322 
Q 3525 -322 2981 -263 
L 2884 256 
Q 3441 138 3844 138 
Q 4213 138 4281 438 
Q 4388 931 4472 2431 
L 3031 2431 
z
M 5747 2303 
Q 4416 3238 3506 4934 
L 3934 5113 
Q 4747 3572 6084 2747 
L 5747 2303 
z
" transform="scale(0.015625)"/>
       <path id="IPAexGothic-6728" d="M 3547 3328 
Q 4384 1728 6088 838 
L 5728 353 
Q 4134 1459 3425 2797 
L 3425 -384 
L 2931 -384 
L 2931 2731 
Q 2272 1253 731 191 
L 372 594 
Q 2013 1584 2803 3328 
L 481 3328 
L 481 3769 
L 2931 3769 
L 2931 5150 
L 3425 5150 
L 3425 3769 
L 5922 3769 
L 5922 3328 
L 3547 3328 
z
" transform="scale(0.015625)"/>
       <path id="IPAexGothic-6570" d="M 2847 1553 
Q 2741 1006 2425 534 
Q 2625 441 3091 203 
L 2809 -188 
Q 2541 0 2144 209 
Q 1569 -291 703 -500 
L 422 -125 
Q 1263 19 1747 406 
Q 1222 650 734 816 
Q 975 1172 1147 1503 
L 1172 1553 
L 359 1553 
L 359 1925 
L 1344 1925 
Q 1406 2066 1569 2475 
L 1691 2450 
L 1691 3372 
Q 1250 2738 550 2303 
L 275 2663 
Q 1019 3013 1528 3641 
L 378 3641 
L 378 4006 
L 1691 4006 
L 1691 5313 
L 2113 5313 
L 2113 4006 
L 3297 4006 
L 3297 3641 
L 2113 3641 
L 2113 3513 
Q 2659 3291 3175 2963 
L 2956 2584 
Q 2553 2922 2113 3159 
L 2113 2372 
L 1966 2372 
Q 1928 2288 1872 2141 
Q 1806 1975 1784 1925 
L 3378 1925 
L 3378 1553 
L 2847 1553 
z
M 2419 1553 
L 1613 1553 
Q 1478 1269 1313 997 
Q 1559 909 2047 703 
Q 2313 1047 2419 1553 
z
M 4363 1163 
Q 3953 1781 3738 2638 
Q 3575 2281 3428 2016 
L 3103 2406 
Q 3675 3444 3916 5291 
L 4363 5200 
Q 4284 4666 4197 4197 
L 6009 4197 
L 6009 3775 
L 5503 3775 
Q 5397 2275 4869 1191 
Q 5419 503 6144 75 
L 5822 -378 
Q 5188 106 4631 788 
Q 4113 34 3341 -463 
L 3031 -78 
Q 3888 406 4363 1163 
z
M 4588 1594 
Q 4938 2388 5059 3775 
L 4100 3775 
Q 4041 3519 3972 3288 
Q 3981 3250 3991 3194 
Q 4175 2256 4588 1594 
z
M 1003 4116 
Q 878 4544 638 4934 
L 1053 5094 
Q 1247 4788 1438 4269 
L 1003 4116 
z
M 2316 4269 
Q 2550 4688 2688 5131 
L 3128 4997 
Q 2966 4588 2675 4128 
L 2316 4269 
z
" transform="scale(0.015625)"/>
       <path id="IPAexGothic-28" d="M 1928 -1016 
L 1653 -1166 
Q 488 69 488 1875 
Q 488 3678 1653 4909 
L 1928 4763 
Q 1006 3522 1006 1881 
Q 1006 203 1928 -1016 
z
" transform="scale(0.015625)"/>
       <path id="DejaVuSans-Oblique-4e" d="M 1081 4666 
L 1931 4666 
L 3219 666 
L 4000 4666 
L 4616 4666 
L 3706 0 
L 2853 0 
L 1569 4025 
L 788 0 
L 172 0 
L 1081 4666 
z
" transform="scale(0.015625)"/>
       <path id="DejaVuSans-Oblique-63" d="M 3431 3366 
L 3316 2797 
Q 3109 2947 2876 3022 
Q 2644 3097 2394 3097 
Q 2119 3097 1870 3000 
Q 1622 2903 1453 2725 
Q 1184 2453 1037 2087 
Q 891 1722 891 1331 
Q 891 859 1127 628 
Q 1363 397 1844 397 
Q 2081 397 2348 469 
Q 2616 541 2906 684 
L 2797 116 
Q 2547 13 2283 -39 
Q 2019 -91 1741 -91 
Q 1044 -91 669 257 
Q 294 606 294 1253 
Q 294 1797 489 2255 
Q 684 2713 1069 3078 
Q 1331 3328 1684 3456 
Q 2038 3584 2456 3584 
Q 2700 3584 2940 3529 
Q 3181 3475 3431 3366 
z
" transform="scale(0.015625)"/>
       <path id="IPAexGothic-29" d="M 466 4909 
Q 1638 3672 1638 1875 
Q 1638 75 466 -1166 
L 191 -1016 
Q 1119 216 1119 1881 
Q 1119 3509 191 4763 
L 466 4909 
z
" transform="scale(0.015625)"/>
      </defs>
      <use xlink:href="#IPAexGothic-43" transform="translate(0 0.984375)"/>
      <use xlink:href="#IPAexGothic-50" transform="translate(72.509766 0.984375)"/>
      <use xlink:href="#IPAexGothic-55" transform="translate(134.619141 0.984375)"/>
      <use xlink:href="#IPAexGothic-306b" transform="translate(209.326172 0.984375)"/>
      <use xlink:href="#IPAexGothic-7f6e" transform="translate(309.326172 0.984375)"/>
      <use xlink:href="#IPAexGothic-304f" transform="translate(409.326172 0.984375)"/>
      <use xlink:href="#IPAexGothic-90e8" transform="translate(509.326172 0.984375)"/>
      <use xlink:href="#IPAexGothic-5206" transform="translate(609.326172 0.984375)"/>
      <use xlink:href="#IPAexGothic-6728" transform="translate(709.326172 0.984375)"/>
      <use xlink:href="#IPAexGothic-6570" transform="translate(809.326172 0.984375)"/>
      <use xlink:href="#IPAexGothic-28" transform="translate(909.326172 0.984375)"/>
      <use xlink:href="#DejaVuSans-Oblique-4e" transform="translate(942.626953 0.984375)"/>
      <use xlink:href="#DejaVuSans-Oblique-63" transform="translate(1017.431641 -15.421875) scale(0.7)"/>
      <use xlink:href="#IPAexGothic-29" transform="translate(1058.652344 0.984375)"/>
     </g>
    </g>
   </g>
   <g id="matplotlib.axis_2">
    <g id="ytick_1">
     <g id="line2d_5">
      <path d="M 101.376 220.640987 
L 352.0512 220.640987 
" clip-path="url(#p534451d3fa)" style="fill: none; stroke: #d3d3d3; stroke-linecap: square"/>
     </g>
     <g id="line2d_6">
      <defs>
       <path id="m5ab6492aa1" d="M 0 0 
L -3.5 0 
" style="stroke: #000000; stroke-width: 0.8"/>
      </defs>
      <g>
       <use xlink:href="#m5ab6492aa1" x="101.376" y="220.640987" style="stroke: #000000; stroke-width: 0.8"/>
      </g>
     </g>
     <g id="text_4">
      <!-- 25 -->
      <g transform="translate(64.1435 229.629737) scale(0.24 -0.24)">
       <defs>
        <path id="IPAexGothic-32" d="M 3659 63 
L 447 63 
L 447 594 
Q 825 1475 1894 2203 
L 2072 2322 
Q 2619 2697 2791 2906 
Q 2988 3153 2988 3444 
Q 2988 3772 2756 4003 
Q 2500 4259 2084 4259 
Q 1250 4259 991 3328 
L 497 3506 
Q 853 4725 2116 4725 
Q 2806 4725 3216 4316 
Q 3575 3947 3575 3425 
Q 3575 3038 3344 2722 
Q 3131 2416 2366 1938 
L 2231 1856 
Q 1256 1253 978 569 
L 3659 569 
L 3659 63 
z
" transform="scale(0.015625)"/>
       </defs>
       <use xlink:href="#IPAexGothic-32"/>
       <use xlink:href="#IPAexGothic-35" x="62.988281"/>
      </g>
     </g>
    </g>
    <g id="ytick_2">
     <g id="line2d_7">
      <path d="M 101.376 160.879084 
L 352.0512 160.879084 
" clip-path="url(#p534451d3fa)" style="fill: none; stroke: #d3d3d3; stroke-linecap: square"/>
     </g>
     <g id="line2d_8">
      <g>
       <use xlink:href="#m5ab6492aa1" x="101.376" y="160.879084" style="stroke: #000000; stroke-width: 0.8"/>
      </g>
     </g>
     <g id="text_5">
      <!-- 50 -->
      <g transform="translate(64.1435 169.867834) scale(0.24 -0.24)">
       <use xlink:href="#IPAexGothic-35"/>
       <use xlink:href="#IPAexGothic-30" x="62.988281"/>
      </g>
     </g>
    </g>
    <g id="ytick_3">
     <g id="line2d_9">
      <path d="M 101.376 101.117181 
L 352.0512 101.117181 
" clip-path="url(#p534451d3fa)" style="fill: none; stroke: #d3d3d3; stroke-linecap: square"/>
     </g>
     <g id="line2d_10">
      <g>
       <use xlink:href="#m5ab6492aa1" x="101.376" y="101.117181" style="stroke: #000000; stroke-width: 0.8"/>
      </g>
     </g>
     <g id="text_6">
      <!-- 75 -->
      <g transform="translate(64.1435 110.105931) scale(0.24 -0.24)">
       <defs>
        <path id="IPAexGothic-37" d="M 3597 4263 
Q 2238 2106 1778 63 
L 1131 63 
Q 1581 1834 2950 4128 
L 428 4128 
L 428 4634 
L 3597 4634 
L 3597 4263 
z
" transform="scale(0.015625)"/>
       </defs>
       <use xlink:href="#IPAexGothic-37"/>
       <use xlink:href="#IPAexGothic-35" x="62.988281"/>
      </g>
     </g>
    </g>
    <g id="text_7">
     <!-- first-class PIMノード -->
     <g transform="translate(21.2795 293.45025) rotate(-90) scale(0.28 -0.28)">
      <defs>
       <path id="IPAexGothic-66" d="M 2456 4622 
L 2228 4244 
Q 1991 4422 1741 4422 
Q 1184 4422 1184 3672 
L 1184 3250 
L 2053 3250 
L 2053 2859 
L 1184 2859 
L 1184 63 
L 641 63 
L 641 2859 
L 122 2859 
L 122 3250 
L 641 3250 
L 641 3659 
Q 641 4188 891 4484 
Q 1200 4844 1709 4844 
Q 2116 4844 2456 4622 
z
" transform="scale(0.015625)"/>
       <path id="IPAexGothic-69" d="M 1178 3928 
L 550 3928 
L 550 4569 
L 1178 4569 
L 1178 3928 
z
M 1138 63 
L 588 63 
L 588 3250 
L 1138 3250 
L 1138 63 
z
" transform="scale(0.015625)"/>
       <path id="IPAexGothic-72" d="M 2309 3316 
L 2213 2769 
Q 2106 2791 2022 2791 
Q 1653 2791 1413 2444 
Q 1113 2006 1113 1675 
L 1113 63 
L 563 63 
L 563 3250 
L 1081 3250 
L 1056 2303 
L 1069 2303 
Q 1422 3341 2097 3341 
Q 2206 3341 2309 3316 
z
" transform="scale(0.015625)"/>
       <path id="IPAexGothic-73" d="M 2234 2547 
Q 1938 2931 1484 2931 
Q 891 2931 891 2475 
Q 891 2153 1531 1944 
L 1741 1875 
Q 2650 1578 2650 894 
Q 2650 434 2272 172 
Q 1972 -31 1497 -31 
Q 766 -31 256 503 
L 603 819 
Q 997 397 1516 397 
Q 2131 397 2131 875 
Q 2131 1238 1453 1478 
L 1234 1553 
Q 378 1853 378 2431 
Q 378 2797 628 3047 
Q 928 3347 1453 3347 
Q 2156 3347 2606 2859 
L 2234 2547 
z
" transform="scale(0.015625)"/>
       <path id="IPAexGothic-74" d="M 2125 241 
Q 1769 -6 1397 -6 
Q 653 -6 653 831 
L 653 2859 
L 219 2859 
L 219 3250 
L 653 3250 
L 653 3966 
L 1178 4228 
L 1178 3250 
L 2063 3250 
L 2063 2859 
L 1178 2859 
L 1178 906 
Q 1178 416 1513 416 
Q 1738 416 1941 588 
L 2125 241 
z
" transform="scale(0.015625)"/>
       <path id="IPAexGothic-2d" d="M 1969 1703 
L 319 1703 
L 319 2203 
L 1969 2203 
L 1969 1703 
z
" transform="scale(0.015625)"/>
       <path id="IPAexGothic-63" d="M 3269 784 
Q 2834 -31 1900 -31 
Q 1228 -31 788 409 
Q 313 891 313 1663 
Q 313 2428 788 2913 
Q 1222 3347 1881 3347 
Q 2813 3347 3206 2541 
L 2763 2309 
Q 2484 2900 1900 2900 
Q 1516 2900 1234 2619 
Q 881 2266 881 1650 
Q 881 1069 1222 728 
Q 1522 428 1956 428 
Q 2547 428 2847 1016 
L 3269 784 
z
" transform="scale(0.015625)"/>
       <path id="IPAexGothic-6c" d="M 1131 63 
L 581 63 
L 581 4794 
L 1131 4794 
L 1131 63 
z
" transform="scale(0.015625)"/>
       <path id="IPAexGothic-61" d="M 3156 63 
L 2672 63 
Q 2559 303 2531 556 
L 2509 556 
Q 2147 -25 1428 -25 
Q 934 -25 622 288 
Q 347 563 347 959 
Q 347 1947 2050 1997 
L 2478 2009 
L 2478 2175 
Q 2478 2509 2288 2700 
Q 2088 2900 1775 2900 
Q 1238 2900 969 2378 
L 494 2597 
Q 938 3328 1788 3328 
Q 2375 3328 2691 3000 
Q 2984 2706 2984 2169 
L 2984 997 
Q 2984 400 3156 63 
z
M 2491 1625 
L 2141 1619 
Q 903 1591 903 953 
Q 903 728 1050 581 
Q 1231 403 1525 403 
Q 1934 403 2234 703 
Q 2491 969 2491 1344 
L 2491 1625 
z
" transform="scale(0.015625)"/>
       <path id="IPAexGothic-20" transform="scale(0.015625)"/>
       <path id="IPAexGothic-49" d="M 1203 63 
L 634 63 
L 634 4634 
L 1203 4634 
L 1203 63 
z
" transform="scale(0.015625)"/>
       <path id="IPAexGothic-4d" d="M 5147 63 
L 4597 63 
L 4597 2534 
Q 4597 3281 4634 4134 
L 4609 4134 
Q 4356 3409 4066 2675 
L 3066 209 
L 2650 209 
L 1641 2725 
Q 1328 3506 1128 4141 
L 1103 4141 
Q 1141 3131 1141 2553 
L 1141 63 
L 609 63 
L 609 4634 
L 1416 4634 
L 2503 1944 
Q 2697 1472 2869 906 
L 2888 906 
Q 3028 1416 3234 1931 
L 4316 4634 
L 5147 4634 
L 5147 63 
z
" transform="scale(0.015625)"/>
       <path id="IPAexGothic-30ce" d="M 1159 500 
Q 3694 1525 4269 4591 
L 4828 4438 
Q 4106 1244 1550 78 
L 1159 500 
z
" transform="scale(0.015625)"/>
       <path id="IPAexGothic-30fc" d="M 588 2688 
L 5809 2688 
L 5809 2175 
L 588 2175 
L 588 2688 
z
" transform="scale(0.015625)"/>
       <path id="IPAexGothic-30c9" d="M 2247 4959 
L 2766 4959 
L 2766 3169 
Q 4050 2581 5178 1850 
L 4841 1331 
Q 3781 2138 2766 2650 
L 2766 -225 
L 2247 -225 
L 2247 4959 
z
M 5263 3847 
Q 4900 4388 4506 4716 
L 4806 4947 
Q 5191 4638 5581 4122 
L 5263 3847 
z
M 4666 3378 
Q 4375 3869 3931 4269 
L 4244 4513 
Q 4616 4206 5000 3653 
L 4666 3378 
z
" transform="scale(0.015625)"/>
      </defs>
      <use xlink:href="#IPAexGothic-66"/>
      <use xlink:href="#IPAexGothic-69" x="30.615234"/>
      <use xlink:href="#IPAexGothic-72" x="57.617188"/>
      <use xlink:href="#IPAexGothic-73" x="94.628906"/>
      <use xlink:href="#IPAexGothic-74" x="140.820312"/>
      <use xlink:href="#IPAexGothic-2d" x="175.439453"/>
      <use xlink:href="#IPAexGothic-63" x="211.230469"/>
      <use xlink:href="#IPAexGothic-6c" x="265.625"/>
      <use xlink:href="#IPAexGothic-61" x="292.626953"/>
      <use xlink:href="#IPAexGothic-73" x="347.607422"/>
      <use xlink:href="#IPAexGothic-73" x="393.798828"/>
      <use xlink:href="#IPAexGothic-20" x="439.990234"/>
      <use xlink:href="#IPAexGothic-50" x="466.992188"/>
      <use xlink:href="#IPAexGothic-49" x="529.101562"/>
      <use xlink:href="#IPAexGothic-4d" x="558.007812"/>
      <use xlink:href="#IPAexGothic-30ce" x="648.193359"/>
      <use xlink:href="#IPAexGothic-30fc" x="748.193359"/>
      <use xlink:href="#IPAexGothic-30c9" x="848.193359"/>
     </g>
     <!-- の割合($r_{f}$[%]) -->
     <g transform="translate(54.8235 242.044) rotate(-90) scale(0.28 -0.28)">
      <defs>
       <path id="IPAexGothic-306e" d="M 3119 469 
Q 5275 766 5275 2425 
Q 5275 3453 4413 3925 
Q 4041 4116 3547 4159 
Q 3394 2525 2850 1400 
Q 2322 306 1722 306 
Q 1384 306 1084 666 
Q 609 1244 609 2003 
Q 609 3025 1397 3794 
Q 2184 4563 3431 4563 
Q 4306 4563 4928 4122 
Q 5813 3506 5813 2425 
Q 5813 438 3431 6 
L 3119 469 
z
M 3053 4147 
Q 2378 4044 1891 3641 
Q 1097 2981 1097 1991 
Q 1097 1366 1434 978 
Q 1581 813 1719 813 
Q 2022 813 2416 1625 
Q 2909 2638 3053 4147 
z
" transform="scale(0.015625)"/>
       <path id="IPAexGothic-5272" d="M 2325 4209 
L 2325 3713 
L 3272 3713 
L 3272 3381 
L 2325 3381 
L 2325 2950 
L 3494 2950 
L 3494 2619 
L 2325 2619 
L 2325 2175 
L 3956 2175 
L 3956 1809 
L 353 1809 
L 353 2175 
L 1909 2175 
L 1909 2619 
L 753 2619 
L 753 2950 
L 1909 2950 
L 1909 3381 
L 984 3381 
L 984 3713 
L 1909 3713 
L 1909 4209 
L 838 4209 
L 838 3609 
L 409 3609 
L 409 4569 
L 1903 4569 
L 1903 5313 
L 2338 5313 
L 2338 4569 
L 3872 4569 
L 3872 3609 
L 3444 3609 
L 3444 4209 
L 2325 4209 
z
M 3388 1397 
L 3388 -384 
L 2966 -384 
L 2966 -122 
L 1269 -122 
L 1269 -447 
L 847 -447 
L 847 1397 
L 3388 1397 
z
M 1269 1038 
L 1269 238 
L 2966 238 
L 2966 1038 
L 1269 1038 
z
M 4259 4550 
L 4700 4550 
L 4700 953 
L 4259 953 
L 4259 4550 
z
M 5403 5081 
L 5844 5081 
L 5844 159 
Q 5844 -106 5747 -231 
Q 5634 -372 5263 -372 
Q 4763 -372 4391 -325 
L 4303 141 
Q 4803 75 5206 75 
Q 5403 75 5403 300 
L 5403 5081 
z
" transform="scale(0.015625)"/>
       <path id="IPAexGothic-5408" d="M 1831 3188 
L 4653 3188 
L 4653 2778 
L 1747 2778 
L 1747 3125 
Q 1275 2778 594 2453 
L 294 2828 
Q 2006 3509 2891 5147 
L 3431 5147 
Q 4331 3806 6125 3003 
L 5831 2588 
Q 4119 3416 3175 4731 
Q 2650 3806 1831 3188 
z
M 5113 2088 
L 5113 -450 
L 4638 -450 
L 4638 -97 
L 1766 -97 
L 1766 -450 
L 1284 -450 
L 1284 2088 
L 5113 2088 
z
M 1766 1691 
L 1766 300 
L 4638 300 
L 4638 1691 
L 1766 1691 
z
" transform="scale(0.015625)"/>
       <path id="DejaVuSans-Oblique-72" d="M 2853 2969 
Q 2766 3016 2653 3041 
Q 2541 3066 2413 3066 
Q 1953 3066 1609 2717 
Q 1266 2369 1153 1784 
L 800 0 
L 225 0 
L 909 3500 
L 1484 3500 
L 1375 2956 
Q 1603 3259 1920 3421 
Q 2238 3584 2597 3584 
Q 2691 3584 2781 3573 
Q 2872 3563 2963 3538 
L 2853 2969 
z
" transform="scale(0.015625)"/>
       <path id="DejaVuSans-Oblique-66" d="M 3059 4863 
L 2969 4384 
L 2419 4384 
Q 2106 4384 1964 4261 
Q 1822 4138 1753 3809 
L 1691 3500 
L 2638 3500 
L 2553 3053 
L 1606 3053 
L 1013 0 
L 434 0 
L 1031 3053 
L 481 3053 
L 563 3500 
L 1113 3500 
L 1159 3744 
Q 1278 4363 1576 4613 
Q 1875 4863 2516 4863 
L 3059 4863 
z
" transform="scale(0.015625)"/>
       <path id="IPAexGothic-5b" d="M 1706 -991 
L 581 -991 
L 581 4750 
L 1706 4750 
L 1706 4438 
L 1028 4438 
L 1028 -678 
L 1706 -678 
L 1706 -991 
z
" transform="scale(0.015625)"/>
       <path id="IPAexGothic-25" d="M 4088 2481 
Q 4528 2481 4800 2181 
Q 5094 1847 5094 1203 
Q 5094 534 4728 197 
Q 4472 -38 4088 -38 
Q 3647 -38 3378 269 
Q 3084 600 3084 1222 
Q 3084 1906 3444 2244 
Q 3697 2481 4088 2481 
z
M 4081 2097 
Q 3566 2097 3566 1234 
Q 3566 356 4097 356 
Q 4613 356 4613 1241 
Q 4613 2097 4081 2097 
z
M 1331 4731 
Q 1769 4731 2041 4431 
Q 2334 4097 2334 3450 
Q 2334 2781 1969 2447 
Q 1713 2209 1331 2209 
Q 888 2209 619 2516 
Q 325 2850 325 3472 
Q 325 4156 684 4494 
Q 941 4731 1331 4731 
z
M 1322 4347 
Q 806 4347 806 3484 
Q 806 2606 1338 2606 
Q 1859 2606 1859 3484 
Q 1859 3859 1725 4091 
Q 1584 4347 1322 4347 
z
M 4569 4603 
L 1106 -134 
L 856 78 
L 4313 4813 
L 4569 4603 
z
" transform="scale(0.015625)"/>
       <path id="IPAexGothic-5d" d="M 1322 -991 
L 197 -991 
L 197 -678 
L 875 -678 
L 875 4438 
L 197 4438 
L 197 4750 
L 1322 4750 
L 1322 -991 
z
" transform="scale(0.015625)"/>
      </defs>
      <use xlink:href="#IPAexGothic-306e" transform="translate(0 0.984375)"/>
      <use xlink:href="#IPAexGothic-5272" transform="translate(100 0.984375)"/>
      <use xlink:href="#IPAexGothic-5408" transform="translate(200 0.984375)"/>
      <use xlink:href="#IPAexGothic-28" transform="translate(300 0.984375)"/>
      <use xlink:href="#DejaVuSans-Oblique-72" transform="translate(333.300781 0.984375)"/>
      <use xlink:href="#DejaVuSans-Oblique-66" transform="translate(374.414062 -15.421875) scale(0.7)"/>
      <use xlink:href="#IPAexGothic-5b" transform="translate(401.791992 0.984375)"/>
      <use xlink:href="#IPAexGothic-25" transform="translate(431.772461 0.984375)"/>
      <use xlink:href="#IPAexGothic-5d" transform="translate(516.782227 0.984375)"/>
      <use xlink:href="#IPAexGothic-29" transform="translate(546.762695 0.984375)"/>
     </g>
    </g>
   </g>
   <g id="patch_3">
    <path d="M 101.376 279.936 
L 101.376 41.472 
" style="fill: none; stroke: #000000; stroke-width: 0.8; stroke-linejoin: miter; stroke-linecap: square"/>
   </g>
   <g id="patch_4">
    <path d="M 352.0512 279.936 
L 352.0512 41.472 
" style="fill: none; stroke: #000000; stroke-width: 0.8; stroke-linejoin: miter; stroke-linecap: square"/>
   </g>
   <g id="patch_5">
    <path d="M 101.376 279.936 
L 352.0512 279.936 
" style="fill: none; stroke: #000000; stroke-width: 0.8; stroke-linejoin: miter; stroke-linecap: square"/>
   </g>
   <g id="patch_6">
    <path d="M 101.376 41.472 
L 352.0512 41.472 
" style="fill: none; stroke: #000000; stroke-width: 0.8; stroke-linejoin: miter; stroke-linecap: square"/>
   </g>
  </g>
  <g id="axes_2">
   <g id="patch_7">
    <path d="M 367.7184 279.936 
L 379.6416 279.936 
L 379.6416 41.472 
L 367.7184 41.472 
L 367.7184 279.936 
z
" style="fill: none"/>
   </g>
   <g id="QuadMesh_1">
    <path d="M 367.7184 279.936 
L 379.6416 279.936 
L 379.6416 250.128 
L 367.7184 250.128 
L 367.7184 279.936 
" clip-path="url(#pe9fd714e6d)" style="fill: #eaf3fb"/>
    <path d="M 367.7184 250.128 
L 379.6416 250.128 
L 379.6416 220.32 
L 367.7184 220.32 
L 367.7184 250.128 
" clip-path="url(#pe9fd714e6d)" style="fill: #d2e3f3"/>
    <path d="M 367.7184 220.32 
L 379.6416 220.32 
L 379.6416 190.512 
L 367.7184 190.512 
L 367.7184 220.32 
" clip-path="url(#pe9fd714e6d)" style="fill: #b2d2e8"/>
    <path d="M 367.7184 190.512 
L 379.6416 190.512 
L 379.6416 160.704 
L 367.7184 160.704 
L 367.7184 190.512 
" clip-path="url(#pe9fd714e6d)" style="fill: #84bcdb"/>
    <path d="M 367.7184 160.704 
L 379.6416 160.704 
L 379.6416 130.896 
L 367.7184 130.896 
L 367.7184 160.704 
" clip-path="url(#pe9fd714e6d)" style="fill: #56a0ce"/>
    <path d="M 367.7184 130.896 
L 379.6416 130.896 
L 379.6416 101.088 
L 367.7184 101.088 
L 367.7184 130.896 
" clip-path="url(#pe9fd714e6d)" style="fill: #3181bd"/>
    <path d="M 367.7184 101.088 
L 379.6416 101.088 
L 379.6416 71.28 
L 367.7184 71.28 
L 367.7184 101.088 
" clip-path="url(#pe9fd714e6d)" style="fill: #1460a8"/>
    <path d="M 367.7184 71.28 
L 379.6416 71.28 
L 379.6416 41.472 
L 367.7184 41.472 
L 367.7184 71.28 
" clip-path="url(#pe9fd714e6d)" style="fill: #084082"/>
   </g>
   <g id="matplotlib.axis_3"/>
   <g id="matplotlib.axis_4">
    <g id="ytick_4">
     <g id="line2d_11">
      <defs>
       <path id="m550cd44ce8" d="M 0 0 
L 3.5 0 
" style="stroke: #000000; stroke-width: 0.8"/>
      </defs>
      <g>
       <use xlink:href="#m550cd44ce8" x="379.6416" y="279.936" style="stroke: #000000; stroke-width: 0.8"/>
      </g>
     </g>
     <g id="text_8">
      <!-- 0 -->
      <g transform="translate(386.6416 288.92475) scale(0.24 -0.24)">
       <use xlink:href="#IPAexGothic-30"/>
      </g>
     </g>
    </g>
    <g id="ytick_5">
     <g id="line2d_12">
      <g>
       <use xlink:href="#m550cd44ce8" x="379.6416" y="250.128" style="stroke: #000000; stroke-width: 0.8"/>
      </g>
     </g>
     <g id="text_9">
      <!-- 15 -->
      <g transform="translate(386.6416 259.11675) scale(0.24 -0.24)">
       <use xlink:href="#IPAexGothic-31"/>
       <use xlink:href="#IPAexGothic-35" x="62.988281"/>
      </g>
     </g>
    </g>
    <g id="ytick_6">
     <g id="line2d_13">
      <g>
       <use xlink:href="#m550cd44ce8" x="379.6416" y="220.32" style="stroke: #000000; stroke-width: 0.8"/>
      </g>
     </g>
     <g id="text_10">
      <!-- 30 -->
      <g transform="translate(386.6416 229.30875) scale(0.24 -0.24)">
       <defs>
        <path id="IPAexGothic-33" d="M 2381 2419 
Q 3506 2216 3506 1278 
Q 3506 716 3128 356 
Q 2709 -31 1944 -31 
Q 797 -31 288 881 
L 756 1131 
Q 1109 441 1938 441 
Q 2425 441 2694 691 
Q 2950 928 2950 1291 
Q 2950 1719 2566 1978 
Q 2216 2213 1644 2213 
L 1363 2213 
L 1363 2669 
L 1656 2669 
Q 2231 2669 2534 2888 
Q 2859 3119 2859 3509 
Q 2859 3934 2494 4138 
Q 2259 4278 1931 4278 
Q 1238 4278 903 3578 
L 434 3803 
Q 897 4725 1938 4725 
Q 2597 4725 3006 4394 
Q 3416 4069 3416 3534 
Q 3416 3028 3019 2706 
Q 2763 2500 2381 2444 
L 2381 2419 
z
" transform="scale(0.015625)"/>
       </defs>
       <use xlink:href="#IPAexGothic-33"/>
       <use xlink:href="#IPAexGothic-30" x="62.988281"/>
      </g>
     </g>
    </g>
    <g id="ytick_7">
     <g id="line2d_14">
      <g>
       <use xlink:href="#m550cd44ce8" x="379.6416" y="190.512" style="stroke: #000000; stroke-width: 0.8"/>
      </g>
     </g>
     <g id="text_11">
      <!-- 45 -->
      <g transform="translate(386.6416 199.50075) scale(0.24 -0.24)">
       <defs>
        <path id="IPAexGothic-34" d="M 3813 1159 
L 3059 1159 
L 3059 63 
L 2547 63 
L 2547 1159 
L 197 1159 
L 197 1672 
L 2456 4678 
L 3059 4678 
L 3059 1634 
L 3813 1634 
L 3813 1159 
z
M 2578 4109 
L 2559 4109 
Q 2278 3656 2003 3284 
L 759 1634 
L 2547 1634 
L 2547 3144 
Q 2547 3481 2578 4109 
z
" transform="scale(0.015625)"/>
       </defs>
       <use xlink:href="#IPAexGothic-34"/>
       <use xlink:href="#IPAexGothic-35" x="62.988281"/>
      </g>
     </g>
    </g>
    <g id="ytick_8">
     <g id="line2d_15">
      <g>
       <use xlink:href="#m550cd44ce8" x="379.6416" y="160.704" style="stroke: #000000; stroke-width: 0.8"/>
      </g>
     </g>
     <g id="text_12">
      <!-- 60 -->
      <g transform="translate(386.6416 169.69275) scale(0.24 -0.24)">
       <defs>
        <path id="IPAexGothic-36" d="M 1056 2328 
Q 1509 2981 2234 2981 
Q 2906 2981 3316 2513 
Q 3675 2106 3675 1522 
Q 3675 884 3272 434 
Q 2853 -31 2178 -31 
Q 1375 -31 922 581 
Q 481 1178 481 2228 
Q 481 3425 1013 4109 
Q 1494 4725 2272 4725 
Q 3191 4725 3609 4025 
L 3150 3775 
Q 2894 4266 2300 4266 
Q 1119 4266 1031 2328 
L 1056 2328 
z
M 2141 2547 
Q 1684 2547 1384 2206 
Q 1116 1900 1116 1541 
Q 1116 1156 1353 844 
Q 1672 428 2159 428 
Q 2669 428 2941 844 
Q 3125 1128 3125 1503 
Q 3125 1944 2881 2228 
Q 2600 2547 2141 2547 
z
" transform="scale(0.015625)"/>
       </defs>
       <use xlink:href="#IPAexGothic-36"/>
       <use xlink:href="#IPAexGothic-30" x="62.988281"/>
      </g>
     </g>
    </g>
    <g id="ytick_9">
     <g id="line2d_16">
      <g>
       <use xlink:href="#m550cd44ce8" x="379.6416" y="130.896" style="stroke: #000000; stroke-width: 0.8"/>
      </g>
     </g>
     <g id="text_13">
      <!-- 75 -->
      <g transform="translate(386.6416 139.88475) scale(0.24 -0.24)">
       <use xlink:href="#IPAexGothic-37"/>
       <use xlink:href="#IPAexGothic-35" x="62.988281"/>
      </g>
     </g>
    </g>
    <g id="ytick_10">
     <g id="line2d_17">
      <g>
       <use xlink:href="#m550cd44ce8" x="379.6416" y="101.088" style="stroke: #000000; stroke-width: 0.8"/>
      </g>
     </g>
     <g id="text_14">
      <!-- 90 -->
      <g transform="translate(386.6416 110.07675) scale(0.24 -0.24)">
       <defs>
        <path id="IPAexGothic-39" d="M 2984 2356 
Q 2544 1716 1813 1716 
Q 1253 1716 847 2056 
Q 366 2459 366 3163 
Q 366 3813 769 4266 
Q 1181 4725 1869 4725 
Q 2800 4725 3241 3950 
Q 3559 3378 3559 2472 
Q 3559 1250 3041 588 
Q 2553 -31 1769 -31 
Q 859 -31 391 703 
L 853 953 
Q 1156 428 1753 428 
Q 2922 428 3009 2356 
L 2984 2356 
z
M 1888 4278 
Q 1450 4278 1172 3950 
Q 922 3653 922 3200 
Q 922 2741 1159 2478 
Q 1434 2163 1906 2163 
Q 2431 2163 2728 2572 
Q 2925 2847 2925 3169 
Q 2925 3553 2694 3863 
Q 2375 4278 1888 4278 
z
" transform="scale(0.015625)"/>
       </defs>
       <use xlink:href="#IPAexGothic-39"/>
       <use xlink:href="#IPAexGothic-30" x="62.988281"/>
      </g>
     </g>
    </g>
    <g id="ytick_11">
     <g id="line2d_18">
      <g>
       <use xlink:href="#m550cd44ce8" x="379.6416" y="71.28" style="stroke: #000000; stroke-width: 0.8"/>
      </g>
     </g>
     <g id="text_15">
      <!-- 105 -->
      <g transform="translate(386.6416 80.26875) scale(0.24 -0.24)">
       <use xlink:href="#IPAexGothic-31"/>
       <use xlink:href="#IPAexGothic-30" x="62.988281"/>
       <use xlink:href="#IPAexGothic-35" x="125.976562"/>
      </g>
     </g>
    </g>
    <g id="ytick_12">
     <g id="line2d_19">
      <g>
       <use xlink:href="#m550cd44ce8" x="379.6416" y="41.472" style="stroke: #000000; stroke-width: 0.8"/>
      </g>
     </g>
     <g id="text_16">
      <!-- 120 -->
      <g transform="translate(386.6416 50.46075) scale(0.24 -0.24)">
       <use xlink:href="#IPAexGothic-31"/>
       <use xlink:href="#IPAexGothic-32" x="62.988281"/>
       <use xlink:href="#IPAexGothic-30" x="125.976562"/>
      </g>
     </g>
    </g>
   </g>
   <g id="LineCollection_1"/>
   <g id="patch_8">
    <path d="M 367.7184 279.936 
L 373.68 279.936 
L 379.6416 279.936 
L 379.6416 41.472 
L 373.68 41.472 
L 367.7184 41.472 
L 367.7184 279.936 
z
" style="fill: none; stroke: #000000; stroke-width: 0.8; stroke-linejoin: miter; stroke-linecap: square"/>
   </g>
  </g>
 </g>
 <defs>
  <clipPath id="p534451d3fa">
   <rect x="101.376" y="41.472" width="250.6752" height="238.464"/>
  </clipPath>
  <clipPath id="pe9fd714e6d">
   <rect x="367.7184" y="41.472" width="11.9232" height="238.464"/>
  </clipPath>
 </defs>
</svg>
