<?xml version="1.0" encoding="utf-8" standalone="no"?>
<!DOCTYPE svg PUBLIC "-//W3C//DTD SVG 1.1//EN"
  "http://www.w3.org/Graphics/SVG/1.1/DTD/svg11.dtd">
<svg xmlns:xlink="http://www.w3.org/1999/xlink" width="460.8pt" height="345.6pt" viewBox="0 0 460.8 345.6" xmlns="http://www.w3.org/2000/svg" version="1.1">
 <metadata>
  <rdf:RDF xmlns:dc="http://purl.org/dc/elements/1.1/" xmlns:cc="http://creativecommons.org/ns#" xmlns:rdf="http://www.w3.org/1999/02/22-rdf-syntax-ns#">
   <cc:Work>
    <dc:type rdf:resource="http://purl.org/dc/dcmitype/StillImage"/>
    <dc:date>2023-09-12T09:30:02.007840</dc:date>
    <dc:format>image/svg+xml</dc:format>
    <dc:creator>
     <cc:Agent>
      <dc:title>Matplotlib v3.7.0, https://matplotlib.org/</dc:title>
     </cc:Agent>
    </dc:creator>
   </cc:Work>
  </rdf:RDF>
 </metadata>
 <defs>
  <style type="text/css">*{stroke-linejoin: round; stroke-linecap: butt}</style>
 </defs>
 <g id="figure_1">
  <g id="patch_1">
   <path d="M 0 345.6 
L 460.8 345.6 
L 460.8 0 
L 0 0 
L 0 345.6 
z
" style="fill: none"/>
  </g>
  <g id="axes_1">
   <g id="patch_2">
    <path d="M 57.6 279.936 
L 343.296 279.936 
L 343.296 41.472 
L 57.6 41.472 
L 57.6 279.936 
z
" style="fill: none"/>
   </g>
   <g id="PathCollection_1">
    <path d="M 57.6 278.53533 
L 57.6 274.531564 
L 62.134857 276.044175 
L 68.023674 278.53533 
L 71.204571 279.585001 
L 74.423831 279.936 
L 71.204571 279.936 
L 62.134857 279.936 
L 57.6 279.936 
z
" clip-path="url(#p985a91981b)" style="fill: #e9f2fa"/>
    <path d="M 57.6 41.472 
L 62.134857 41.472 
L 71.204571 41.472 
L 125.622857 41.472 
L 198.180571 41.472 
L 343.296 41.472 
L 343.296 46.627729 
L 198.180571 59.723863 
L 125.622857 57.717817 
L 71.204571 53.357904 
L 62.134857 48.52153 
L 57.6 45.353135 
z
" clip-path="url(#p985a91981b)" style="fill: #e9f2fa"/>
   </g>
   <g id="PathCollection_2">
    <path d="M 57.6 272.932652 
L 57.6 268.71034 
L 62.134857 269.15784 
L 69.358682 272.932652 
L 71.204571 273.751706 
L 113.988836 278.53533 
L 122.344093 279.936 
L 74.423831 279.936 
L 71.204571 279.585001 
L 68.023674 278.53533 
L 62.134857 276.044175 
L 57.6 274.531564 
z
" clip-path="url(#p985a91981b)" style="fill: #cde0f1"/>
    <path d="M 62.134857 48.52153 
L 71.204571 53.357904 
L 125.622857 57.717817 
L 198.180571 59.723863 
L 343.296 46.627729 
L 343.296 101.117181 
L 343.296 160.879084 
L 343.296 220.640987 
L 343.296 250.521938 
L 343.296 272.932652 
L 343.296 278.53533 
L 343.296 279.936 
L 198.180571 279.936 
L 163.017078 279.936 
L 187.733658 278.53533 
L 171.023215 272.932652 
L 159.911434 250.521938 
L 128.13824 220.640987 
L 125.622857 217.678607 
L 115.159326 160.879084 
L 71.204571 104.992711 
L 70.417229 101.117181 
L 62.134857 86.728863 
L 57.6 74.222172 
L 57.6 45.353135 
z
" clip-path="url(#p985a91981b)" style="fill: #cde0f1"/>
   </g>
   <g id="PathCollection_3">
    <path d="M 62.134857 262.108009 
L 71.204571 254.218151 
L 80.380862 250.521938 
L 71.204571 228.605654 
L 70.725794 220.640987 
L 66.566291 160.879084 
L 62.134857 135.435749 
L 57.6 103.043277 
L 57.6 101.117181 
L 57.6 74.222172 
L 62.134857 86.728863 
L 70.417229 101.117181 
L 71.204571 104.992711 
L 115.159326 160.879084 
L 125.622857 217.678607 
L 128.13824 220.640987 
L 159.911434 250.521938 
L 171.023215 272.932652 
L 187.733658 278.53533 
L 163.017078 279.936 
L 125.622857 279.936 
L 122.344093 279.936 
L 113.988836 278.53533 
L 71.204571 273.751706 
L 69.358682 272.932652 
L 62.134857 269.15784 
L 57.6 268.71034 
L 57.6 263.387539 
z
" clip-path="url(#p985a91981b)" style="fill: #a4cce3"/>
   </g>
   <g id="PathCollection_4">
    <path d="M 62.134857 255.058177 
L 66.096876 250.521938 
L 62.998027 220.640987 
L 62.134857 210.363572 
L 60.601979 160.879084 
L 57.6 131.211333 
L 57.6 103.043277 
L 62.134857 135.435749 
L 66.566291 160.879084 
L 70.725794 220.640987 
L 71.204571 228.605654 
L 80.380862 250.521938 
L 71.204571 254.218151 
L 62.134857 262.108009 
L 57.6 263.387539 
L 57.6 258.064738 
z
" clip-path="url(#p985a91981b)" style="fill: #6aaed6"/>
   </g>
   <g id="PathCollection_5">
    <path d="M 60.044829 250.521938 
L 60.709778 220.640987 
L 57.751749 160.879084 
L 57.6 159.379388 
L 57.6 131.211333 
L 60.601979 160.879084 
L 62.134857 210.363572 
L 62.998027 220.640987 
L 66.096876 250.521938 
L 62.134857 255.058177 
L 57.6 258.064738 
L 57.6 252.741937 
z
" clip-path="url(#p985a91981b)" style="fill: #3d8dc4"/>
   </g>
   <g id="PathCollection_6">
    <path d="M 57.6 250.521938 
L 57.6 239.072721 
L 59.105505 220.640987 
L 57.6 190.891973 
L 57.6 160.879084 
L 57.6 159.379388 
L 57.751749 160.879084 
L 60.709778 220.640987 
L 60.044829 250.521938 
L 57.6 252.741937 
z
" clip-path="url(#p985a91981b)" style="fill: #1967ad"/>
   </g>
   <g id="PathCollection_7">
    <path d="M 57.6 220.640987 
L 57.6 190.891973 
L 59.105505 220.640987 
L 57.6 239.072721 
z
" clip-path="url(#p985a91981b)" style="fill: #084387"/>
   </g>
   <g id="matplotlib.axis_1">
    <g id="xtick_1">
     <g id="line2d_1">
      <path d="M 194.779429 279.936 
L 194.779429 41.472 
" clip-path="url(#p985a91981b)" style="fill: none; stroke: #d3d3d3; stroke-linecap: square"/>
     </g>
     <g id="line2d_2">
      <defs>
       <path id="m10e4a78d70" d="M 0 0 
L 0 3.5 
" style="stroke: #000000; stroke-width: 0.8"/>
      </defs>
      <g>
       <use xlink:href="#m10e4a78d70" x="194.779429" y="279.936" style="stroke: #000000; stroke-width: 0.8"/>
      </g>
     </g>
     <g id="text_1">
      <!-- 500 -->
      <g transform="translate(172.105054 304.9135) scale(0.24 -0.24)">
       <defs>
        <path id="IPAexGothic-35" d="M 1178 2603 
Q 1634 2963 2172 2963 
Q 2816 2963 3241 2528 
Q 3638 2113 3638 1497 
Q 3638 938 3297 513 
Q 2869 -31 2031 -31 
Q 959 -31 469 784 
L 938 1028 
Q 1309 434 2013 434 
Q 2466 434 2769 716 
Q 3081 1013 3081 1503 
Q 3081 1966 2806 2241 
Q 2519 2528 2056 2528 
Q 1406 2528 1072 2028 
L 591 2091 
L 884 4634 
L 3406 4634 
L 3406 4153 
L 1341 4153 
L 1134 2603 
L 1178 2603 
z
" transform="scale(0.015625)"/>
        <path id="IPAexGothic-30" d="M 2038 4725 
Q 2881 4725 3334 3944 
Q 3694 3325 3694 2344 
Q 3694 1372 3334 741 
Q 2888 -31 2016 -31 
Q 1147 -31 700 741 
Q 341 1372 341 2350 
Q 341 3713 1000 4334 
Q 1419 4725 2038 4725 
z
M 2016 4266 
Q 1516 4266 1228 3759 
Q 934 3247 934 2344 
Q 934 1456 1222 947 
Q 1513 447 2016 447 
Q 2619 447 2909 1153 
Q 3100 1622 3100 2375 
Q 3100 3256 2806 3759 
Q 2509 4266 2016 4266 
z
" transform="scale(0.015625)"/>
       </defs>
       <use xlink:href="#IPAexGothic-35"/>
       <use xlink:href="#IPAexGothic-30" x="62.988281"/>
       <use xlink:href="#IPAexGothic-30" x="125.976562"/>
      </g>
     </g>
    </g>
    <g id="xtick_2">
     <g id="line2d_3">
      <path d="M 336.493714 279.936 
L 336.493714 41.472 
" clip-path="url(#p985a91981b)" style="fill: none; stroke: #d3d3d3; stroke-linecap: square"/>
     </g>
     <g id="line2d_4">
      <g>
       <use xlink:href="#m10e4a78d70" x="336.493714" y="279.936" style="stroke: #000000; stroke-width: 0.8"/>
      </g>
     </g>
     <g id="text_2">
      <!-- 1000 -->
      <g transform="translate(306.261214 304.9135) scale(0.24 -0.24)">
       <defs>
        <path id="IPAexGothic-31" d="M 2463 63 
L 1900 63 
L 1900 4103 
Q 1372 3922 788 3797 
L 684 4231 
Q 1519 4441 2106 4731 
L 2463 4731 
L 2463 63 
z
" transform="scale(0.015625)"/>
       </defs>
       <use xlink:href="#IPAexGothic-31"/>
       <use xlink:href="#IPAexGothic-30" x="62.988281"/>
       <use xlink:href="#IPAexGothic-30" x="125.976562"/>
       <use xlink:href="#IPAexGothic-30" x="188.964844"/>
      </g>
     </g>
    </g>
    <g id="text_3">
     <!-- CPUに置く部分木数($N_{c}$) -->
     <g transform="translate(36.648 338.6735) scale(0.3 -0.3)">
      <defs>
       <path id="IPAexGothic-43" d="M 4353 1088 
Q 4181 694 3859 428 
Q 3313 -31 2559 -31 
Q 1588 -31 959 653 
Q 378 1294 378 2331 
Q 378 3406 1013 4078 
Q 1619 4725 2534 4725 
Q 3813 4725 4322 3628 
L 3809 3391 
Q 3425 4238 2541 4238 
Q 1891 4238 1453 3744 
Q 994 3216 994 2322 
Q 994 1550 1384 1056 
Q 1841 472 2563 472 
Q 3456 472 3878 1319 
L 4353 1088 
z
" transform="scale(0.015625)"/>
       <path id="IPAexGothic-50" d="M 609 4634 
L 1941 4634 
Q 3688 4634 3688 3322 
Q 3688 1934 1906 1934 
L 1172 1934 
L 1172 63 
L 609 63 
L 609 4634 
z
M 1172 2381 
L 1800 2381 
Q 3100 2381 3100 3316 
Q 3100 4181 1894 4181 
L 1172 4181 
L 1172 2381 
z
" transform="scale(0.015625)"/>
       <path id="IPAexGothic-55" d="M 4219 4634 
L 4219 1631 
Q 4219 994 3906 594 
Q 3400 -63 2388 -63 
Q 1372 -63 856 594 
Q 550 988 550 1631 
L 550 4634 
L 1113 4634 
L 1113 1700 
Q 1113 1134 1388 831 
Q 1753 428 2388 428 
Q 3031 428 3388 831 
Q 3663 1144 3663 1700 
L 3663 4634 
L 4219 4634 
z
" transform="scale(0.015625)"/>
       <path id="IPAexGothic-306b" d="M 1088 -38 
Q 922 1003 922 2081 
Q 922 3222 1331 4794 
L 1813 4684 
Q 1391 3113 1391 2003 
Q 1391 1441 1422 1147 
Q 1434 1181 1813 2016 
L 2125 1797 
Q 1800 1081 1691 763 
Q 1581 453 1581 269 
Q 1581 78 1588 6 
L 1088 -38 
z
M 2834 4038 
Q 3969 4213 5313 4172 
L 5338 3681 
Q 3959 3728 2869 3547 
L 2834 4038 
z
M 5650 256 
Q 5044 172 4372 172 
Q 3463 172 3047 434 
Q 2784 594 2675 841 
Q 2572 1075 2572 1447 
Q 2572 1563 2578 1656 
L 3053 1684 
Q 3050 1613 3044 1528 
Q 3041 1481 3041 1466 
Q 3041 1200 3119 1053 
Q 3178 944 3309 850 
Q 3569 678 4275 678 
Q 4891 678 5588 763 
L 5650 256 
z
" transform="scale(0.015625)"/>
       <path id="IPAexGothic-7f6e" d="M 3559 3841 
Q 3531 3675 3481 3488 
L 5991 3488 
L 5991 3147 
L 3391 3147 
Q 3384 3128 3372 3066 
Q 3366 3047 3291 2797 
L 5222 2797 
L 5222 453 
L 1978 453 
L 1978 2797 
L 2853 2797 
Q 2913 2966 2956 3147 
L 397 3147 
L 397 3488 
L 3041 3488 
Q 3047 3519 3063 3591 
Q 3094 3750 3109 3841 
L 966 3841 
L 966 5050 
L 5491 5050 
L 5491 3841 
L 3559 3841 
z
M 1394 4725 
L 1394 4166 
L 2338 4166 
L 2338 4725 
L 1394 4725 
z
M 5063 4166 
L 5063 4725 
L 4109 4725 
L 4109 4166 
L 5063 4166 
z
M 2753 4725 
L 2753 4166 
L 3694 4166 
L 3694 4725 
L 2753 4725 
z
M 2406 2472 
L 2406 2125 
L 4794 2125 
L 4794 2472 
L 2406 2472 
z
M 2406 1813 
L 2406 1459 
L 4794 1459 
L 4794 1813 
L 2406 1813 
z
M 2406 1147 
L 2406 778 
L 4794 778 
L 4794 1147 
L 2406 1147 
z
M 1331 134 
L 6081 134 
L 6081 -225 
L 1331 -225 
L 1331 -450 
L 878 -450 
L 878 2803 
L 1331 2803 
L 1331 134 
z
" transform="scale(0.015625)"/>
       <path id="IPAexGothic-304f" d="M 4022 -300 
Q 3050 984 1863 2047 
Q 1538 2338 1538 2522 
Q 1538 2700 1953 3041 
Q 3144 4019 3816 5094 
L 4256 4769 
Q 3456 3659 2234 2694 
Q 2106 2588 2106 2528 
Q 2106 2466 2344 2247 
Q 3591 1113 4444 103 
L 4022 -300 
z
" transform="scale(0.015625)"/>
       <path id="IPAexGothic-90e8" d="M 3034 4031 
L 3028 4000 
Q 2897 3488 2675 2888 
L 3631 2888 
L 3631 2503 
L 322 2503 
L 322 2888 
L 1256 2888 
Q 1150 3450 950 4031 
L 438 4031 
L 438 4416 
L 1756 4416 
L 1756 5313 
L 2197 5313 
L 2197 4416 
L 3456 4416 
L 3456 4031 
L 3034 4031 
z
M 2594 4031 
L 1384 4031 
Q 1566 3538 1691 2888 
L 2241 2888 
Q 2463 3466 2594 4031 
z
M 3194 1863 
L 3194 -422 
L 2766 -422 
L 2766 -103 
L 1250 -103 
L 1250 -450 
L 822 -450 
L 822 1863 
L 3194 1863 
z
M 1250 1478 
L 1250 281 
L 2766 281 
L 2766 1478 
L 1250 1478 
z
M 5166 2878 
Q 5953 2066 5953 1159 
Q 5953 391 5306 391 
Q 5016 391 4584 459 
L 4528 947 
Q 4844 850 5166 850 
Q 5472 850 5472 1216 
Q 5472 2041 4669 2828 
Q 5081 3600 5300 4409 
L 4291 4409 
L 4291 -447 
L 3850 -447 
L 3850 4825 
L 5575 4825 
L 5866 4594 
Q 5563 3659 5166 2878 
z
" transform="scale(0.015625)"/>
       <path id="IPAexGothic-5206" d="M 3031 2431 
Q 2916 1378 2528 759 
Q 1991 -81 941 -469 
L 625 -53 
Q 2356 488 2541 2431 
L 1375 2431 
L 1375 2772 
Q 1044 2431 653 2156 
L 313 2534 
Q 1600 3425 2219 5056 
L 2688 4875 
Q 2200 3672 1453 2847 
L 4966 2847 
Q 4878 559 4741 94 
Q 4666 -163 4459 -250 
Q 4288 -322 3941 -322 
Q 3525 -322 2981 -263 
L 2884 256 
Q 3441 138 3844 138 
Q 4213 138 4281 438 
Q 4388 931 4472 2431 
L 3031 2431 
z
M 5747 2303 
Q 4416 3238 3506 4934 
L 3934 5113 
Q 4747 3572 6084 2747 
L 5747 2303 
z
" transform="scale(0.015625)"/>
       <path id="IPAexGothic-6728" d="M 3547 3328 
Q 4384 1728 6088 838 
L 5728 353 
Q 4134 1459 3425 2797 
L 3425 -384 
L 2931 -384 
L 2931 2731 
Q 2272 1253 731 191 
L 372 594 
Q 2013 1584 2803 3328 
L 481 3328 
L 481 3769 
L 2931 3769 
L 2931 5150 
L 3425 5150 
L 3425 3769 
L 5922 3769 
L 5922 3328 
L 3547 3328 
z
" transform="scale(0.015625)"/>
       <path id="IPAexGothic-6570" d="M 2847 1553 
Q 2741 1006 2425 534 
Q 2625 441 3091 203 
L 2809 -188 
Q 2541 0 2144 209 
Q 1569 -291 703 -500 
L 422 -125 
Q 1263 19 1747 406 
Q 1222 650 734 816 
Q 975 1172 1147 1503 
L 1172 1553 
L 359 1553 
L 359 1925 
L 1344 1925 
Q 1406 2066 1569 2475 
L 1691 2450 
L 1691 3372 
Q 1250 2738 550 2303 
L 275 2663 
Q 1019 3013 1528 3641 
L 378 3641 
L 378 4006 
L 1691 4006 
L 1691 5313 
L 2113 5313 
L 2113 4006 
L 3297 4006 
L 3297 3641 
L 2113 3641 
L 2113 3513 
Q 2659 3291 3175 2963 
L 2956 2584 
Q 2553 2922 2113 3159 
L 2113 2372 
L 1966 2372 
Q 1928 2288 1872 2141 
Q 1806 1975 1784 1925 
L 3378 1925 
L 3378 1553 
L 2847 1553 
z
M 2419 1553 
L 1613 1553 
Q 1478 1269 1313 997 
Q 1559 909 2047 703 
Q 2313 1047 2419 1553 
z
M 4363 1163 
Q 3953 1781 3738 2638 
Q 3575 2281 3428 2016 
L 3103 2406 
Q 3675 3444 3916 5291 
L 4363 5200 
Q 4284 4666 4197 4197 
L 6009 4197 
L 6009 3775 
L 5503 3775 
Q 5397 2275 4869 1191 
Q 5419 503 6144 75 
L 5822 -378 
Q 5188 106 4631 788 
Q 4113 34 3341 -463 
L 3031 -78 
Q 3888 406 4363 1163 
z
M 4588 1594 
Q 4938 2388 5059 3775 
L 4100 3775 
Q 4041 3519 3972 3288 
Q 3981 3250 3991 3194 
Q 4175 2256 4588 1594 
z
M 1003 4116 
Q 878 4544 638 4934 
L 1053 5094 
Q 1247 4788 1438 4269 
L 1003 4116 
z
M 2316 4269 
Q 2550 4688 2688 5131 
L 3128 4997 
Q 2966 4588 2675 4128 
L 2316 4269 
z
" transform="scale(0.015625)"/>
       <path id="IPAexGothic-28" d="M 1928 -1016 
L 1653 -1166 
Q 488 69 488 1875 
Q 488 3678 1653 4909 
L 1928 4763 
Q 1006 3522 1006 1881 
Q 1006 203 1928 -1016 
z
" transform="scale(0.015625)"/>
       <path id="DejaVuSans-Oblique-4e" d="M 1081 4666 
L 1931 4666 
L 3219 666 
L 4000 4666 
L 4616 4666 
L 3706 0 
L 2853 0 
L 1569 4025 
L 788 0 
L 172 0 
L 1081 4666 
z
" transform="scale(0.015625)"/>
       <path id="DejaVuSans-Oblique-63" d="M 3431 3366 
L 3316 2797 
Q 3109 2947 2876 3022 
Q 2644 3097 2394 3097 
Q 2119 3097 1870 3000 
Q 1622 2903 1453 2725 
Q 1184 2453 1037 2087 
Q 891 1722 891 1331 
Q 891 859 1127 628 
Q 1363 397 1844 397 
Q 2081 397 2348 469 
Q 2616 541 2906 684 
L 2797 116 
Q 2547 13 2283 -39 
Q 2019 -91 1741 -91 
Q 1044 -91 669 257 
Q 294 606 294 1253 
Q 294 1797 489 2255 
Q 684 2713 1069 3078 
Q 1331 3328 1684 3456 
Q 2038 3584 2456 3584 
Q 2700 3584 2940 3529 
Q 3181 3475 3431 3366 
z
" transform="scale(0.015625)"/>
       <path id="IPAexGothic-29" d="M 466 4909 
Q 1638 3672 1638 1875 
Q 1638 75 466 -1166 
L 191 -1016 
Q 1119 216 1119 1881 
Q 1119 3509 191 4763 
L 466 4909 
z
" transform="scale(0.015625)"/>
      </defs>
      <use xlink:href="#IPAexGothic-43" transform="translate(0 0.984375)"/>
      <use xlink:href="#IPAexGothic-50" transform="translate(72.509766 0.984375)"/>
      <use xlink:href="#IPAexGothic-55" transform="translate(134.619141 0.984375)"/>
      <use xlink:href="#IPAexGothic-306b" transform="translate(209.326172 0.984375)"/>
      <use xlink:href="#IPAexGothic-7f6e" transform="translate(309.326172 0.984375)"/>
      <use xlink:href="#IPAexGothic-304f" transform="translate(409.326172 0.984375)"/>
      <use xlink:href="#IPAexGothic-90e8" transform="translate(509.326172 0.984375)"/>
      <use xlink:href="#IPAexGothic-5206" transform="translate(609.326172 0.984375)"/>
      <use xlink:href="#IPAexGothic-6728" transform="translate(709.326172 0.984375)"/>
      <use xlink:href="#IPAexGothic-6570" transform="translate(809.326172 0.984375)"/>
      <use xlink:href="#IPAexGothic-28" transform="translate(909.326172 0.984375)"/>
      <use xlink:href="#DejaVuSans-Oblique-4e" transform="translate(942.626953 0.984375)"/>
      <use xlink:href="#DejaVuSans-Oblique-63" transform="translate(1017.431641 -15.421875) scale(0.7)"/>
      <use xlink:href="#IPAexGothic-29" transform="translate(1058.652344 0.984375)"/>
     </g>
    </g>
   </g>
   <g id="matplotlib.axis_2">
    <g id="ytick_1">
     <g id="line2d_5">
      <path d="M 57.6 220.640987 
L 343.296 220.640987 
" clip-path="url(#p985a91981b)" style="fill: none; stroke: #d3d3d3; stroke-linecap: square"/>
     </g>
     <g id="line2d_6">
      <defs>
       <path id="m6f9791772c" d="M 0 0 
L -3.5 0 
" style="stroke: #000000; stroke-width: 0.8"/>
      </defs>
      <g>
       <use xlink:href="#m6f9791772c" x="57.6" y="220.640987" style="stroke: #000000; stroke-width: 0.8"/>
      </g>
     </g>
     <g id="text_4">
      <!-- 25 -->
      <g transform="translate(20.3675 229.629737) scale(0.24 -0.24)">
       <defs>
        <path id="IPAexGothic-32" d="M 3659 63 
L 447 63 
L 447 594 
Q 825 1475 1894 2203 
L 2072 2322 
Q 2619 2697 2791 2906 
Q 2988 3153 2988 3444 
Q 2988 3772 2756 4003 
Q 2500 4259 2084 4259 
Q 1250 4259 991 3328 
L 497 3506 
Q 853 4725 2116 4725 
Q 2806 4725 3216 4316 
Q 3575 3947 3575 3425 
Q 3575 3038 3344 2722 
Q 3131 2416 2366 1938 
L 2231 1856 
Q 1256 1253 978 569 
L 3659 569 
L 3659 63 
z
" transform="scale(0.015625)"/>
       </defs>
       <use xlink:href="#IPAexGothic-32"/>
       <use xlink:href="#IPAexGothic-35" x="62.988281"/>
      </g>
     </g>
    </g>
    <g id="ytick_2">
     <g id="line2d_7">
      <path d="M 57.6 160.879084 
L 343.296 160.879084 
" clip-path="url(#p985a91981b)" style="fill: none; stroke: #d3d3d3; stroke-linecap: square"/>
     </g>
     <g id="line2d_8">
      <g>
       <use xlink:href="#m6f9791772c" x="57.6" y="160.879084" style="stroke: #000000; stroke-width: 0.8"/>
      </g>
     </g>
     <g id="text_5">
      <!-- 50 -->
      <g transform="translate(20.3675 169.867834) scale(0.24 -0.24)">
       <use xlink:href="#IPAexGothic-35"/>
       <use xlink:href="#IPAexGothic-30" x="62.988281"/>
      </g>
     </g>
    </g>
    <g id="ytick_3">
     <g id="line2d_9">
      <path d="M 57.6 101.117181 
L 343.296 101.117181 
" clip-path="url(#p985a91981b)" style="fill: none; stroke: #d3d3d3; stroke-linecap: square"/>
     </g>
     <g id="line2d_10">
      <g>
       <use xlink:href="#m6f9791772c" x="57.6" y="101.117181" style="stroke: #000000; stroke-width: 0.8"/>
      </g>
     </g>
     <g id="text_6">
      <!-- 75 -->
      <g transform="translate(20.3675 110.105931) scale(0.24 -0.24)">
       <defs>
        <path id="IPAexGothic-37" d="M 3597 4263 
Q 2238 2106 1778 63 
L 1131 63 
Q 1581 1834 2950 4128 
L 428 4128 
L 428 4634 
L 3597 4634 
L 3597 4263 
z
" transform="scale(0.015625)"/>
       </defs>
       <use xlink:href="#IPAexGothic-37"/>
       <use xlink:href="#IPAexGothic-35" x="62.988281"/>
      </g>
     </g>
    </g>
   </g>
   <g id="patch_3">
    <path d="M 57.6 279.936 
L 57.6 41.472 
" style="fill: none; stroke: #000000; stroke-width: 0.8; stroke-linejoin: miter; stroke-linecap: square"/>
   </g>
   <g id="patch_4">
    <path d="M 343.296 279.936 
L 343.296 41.472 
" style="fill: none; stroke: #000000; stroke-width: 0.8; stroke-linejoin: miter; stroke-linecap: square"/>
   </g>
   <g id="patch_5">
    <path d="M 57.6 279.936 
L 343.296 279.936 
" style="fill: none; stroke: #000000; stroke-width: 0.8; stroke-linejoin: miter; stroke-linecap: square"/>
   </g>
   <g id="patch_6">
    <path d="M 57.6 41.472 
L 343.296 41.472 
" style="fill: none; stroke: #000000; stroke-width: 0.8; stroke-linejoin: miter; stroke-linecap: square"/>
   </g>
  </g>
  <g id="axes_2">
   <g id="patch_7">
    <path d="M 361.152 279.936 
L 373.0752 279.936 
L 373.0752 41.472 
L 361.152 41.472 
L 361.152 279.936 
z
" style="fill: none"/>
   </g>
   <g id="QuadMesh_1">
    <path d="M 361.152 279.936 
L 373.0752 279.936 
L 373.0752 245.869714 
L 361.152 245.869714 
L 361.152 279.936 
" clip-path="url(#p9be9e12835)" style="fill: #e9f2fa"/>
    <path d="M 361.152 245.869714 
L 373.0752 245.869714 
L 373.0752 211.803429 
L 361.152 211.803429 
L 361.152 245.869714 
" clip-path="url(#p9be9e12835)" style="fill: #cde0f1"/>
    <path d="M 361.152 211.803429 
L 373.0752 211.803429 
L 373.0752 177.737143 
L 361.152 177.737143 
L 361.152 211.803429 
" clip-path="url(#p9be9e12835)" style="fill: #a4cce3"/>
    <path d="M 361.152 177.737143 
L 373.0752 177.737143 
L 373.0752 143.670857 
L 361.152 143.670857 
L 361.152 177.737143 
" clip-path="url(#p9be9e12835)" style="fill: #6aaed6"/>
    <path d="M 361.152 143.670857 
L 373.0752 143.670857 
L 373.0752 109.604571 
L 361.152 109.604571 
L 361.152 143.670857 
" clip-path="url(#p9be9e12835)" style="fill: #3d8dc4"/>
    <path d="M 361.152 109.604571 
L 373.0752 109.604571 
L 373.0752 75.538286 
L 361.152 75.538286 
L 361.152 109.604571 
" clip-path="url(#p9be9e12835)" style="fill: #1967ad"/>
    <path d="M 361.152 75.538286 
L 373.0752 75.538286 
L 373.0752 41.472 
L 361.152 41.472 
L 361.152 75.538286 
" clip-path="url(#p9be9e12835)" style="fill: #084387"/>
   </g>
   <g id="matplotlib.axis_3"/>
   <g id="matplotlib.axis_4">
    <g id="ytick_4">
     <g id="line2d_11">
      <defs>
       <path id="ma73599e665" d="M 0 0 
L 3.5 0 
" style="stroke: #000000; stroke-width: 0.8"/>
      </defs>
      <g>
       <use xlink:href="#ma73599e665" x="373.0752" y="279.936" style="stroke: #000000; stroke-width: 0.8"/>
      </g>
     </g>
     <g id="text_7">
      <!-- 0 -->
      <g transform="translate(380.0752 288.92475) scale(0.24 -0.24)">
       <use xlink:href="#IPAexGothic-30"/>
      </g>
     </g>
    </g>
    <g id="ytick_5">
     <g id="line2d_12">
      <g>
       <use xlink:href="#ma73599e665" x="373.0752" y="245.869714" style="stroke: #000000; stroke-width: 0.8"/>
      </g>
     </g>
     <g id="text_8">
      <!-- 8 -->
      <g transform="translate(380.0752 254.858464) scale(0.24 -0.24)">
       <defs>
        <path id="IPAexGothic-38" d="M 2541 2425 
Q 3700 2031 3700 1197 
Q 3700 541 3100 197 
Q 2663 -56 2016 -56 
Q 1366 -56 928 197 
Q 347 531 347 1178 
Q 347 1988 1409 2381 
L 1409 2400 
Q 481 2734 481 3509 
Q 481 4100 981 4456 
Q 1406 4756 2019 4756 
Q 2703 4756 3131 4403 
Q 3553 4069 3553 3566 
Q 3553 2706 2541 2444 
L 2541 2425 
z
M 2022 2625 
Q 2997 2856 2997 3528 
Q 2997 3916 2675 4150 
Q 2413 4347 2016 4347 
Q 1606 4347 1331 4128 
Q 1050 3897 1050 3522 
Q 1050 3150 1350 2925 
Q 1494 2809 1722 2722 
Q 1984 2616 2022 2625 
z
M 1978 2209 
Q 922 1931 922 1216 
Q 922 775 1313 556 
Q 1606 391 2009 391 
Q 2575 391 2881 697 
Q 3106 922 3106 1250 
Q 3106 1594 2794 1850 
Q 2609 1994 2350 2100 
Q 2047 2222 1978 2209 
z
" transform="scale(0.015625)"/>
       </defs>
       <use xlink:href="#IPAexGothic-38"/>
      </g>
     </g>
    </g>
    <g id="ytick_6">
     <g id="line2d_13">
      <g>
       <use xlink:href="#ma73599e665" x="373.0752" y="211.803429" style="stroke: #000000; stroke-width: 0.8"/>
      </g>
     </g>
     <g id="text_9">
      <!-- 16 -->
      <g transform="translate(380.0752 220.792179) scale(0.24 -0.24)">
       <defs>
        <path id="IPAexGothic-36" d="M 1056 2328 
Q 1509 2981 2234 2981 
Q 2906 2981 3316 2513 
Q 3675 2106 3675 1522 
Q 3675 884 3272 434 
Q 2853 -31 2178 -31 
Q 1375 -31 922 581 
Q 481 1178 481 2228 
Q 481 3425 1013 4109 
Q 1494 4725 2272 4725 
Q 3191 4725 3609 4025 
L 3150 3775 
Q 2894 4266 2300 4266 
Q 1119 4266 1031 2328 
L 1056 2328 
z
M 2141 2547 
Q 1684 2547 1384 2206 
Q 1116 1900 1116 1541 
Q 1116 1156 1353 844 
Q 1672 428 2159 428 
Q 2669 428 2941 844 
Q 3125 1128 3125 1503 
Q 3125 1944 2881 2228 
Q 2600 2547 2141 2547 
z
" transform="scale(0.015625)"/>
       </defs>
       <use xlink:href="#IPAexGothic-31"/>
       <use xlink:href="#IPAexGothic-36" x="62.988281"/>
      </g>
     </g>
    </g>
    <g id="ytick_7">
     <g id="line2d_14">
      <g>
       <use xlink:href="#ma73599e665" x="373.0752" y="177.737143" style="stroke: #000000; stroke-width: 0.8"/>
      </g>
     </g>
     <g id="text_10">
      <!-- 24 -->
      <g transform="translate(380.0752 186.725893) scale(0.24 -0.24)">
       <defs>
        <path id="IPAexGothic-34" d="M 3813 1159 
L 3059 1159 
L 3059 63 
L 2547 63 
L 2547 1159 
L 197 1159 
L 197 1672 
L 2456 4678 
L 3059 4678 
L 3059 1634 
L 3813 1634 
L 3813 1159 
z
M 2578 4109 
L 2559 4109 
Q 2278 3656 2003 3284 
L 759 1634 
L 2547 1634 
L 2547 3144 
Q 2547 3481 2578 4109 
z
" transform="scale(0.015625)"/>
       </defs>
       <use xlink:href="#IPAexGothic-32"/>
       <use xlink:href="#IPAexGothic-34" x="62.988281"/>
      </g>
     </g>
    </g>
    <g id="ytick_8">
     <g id="line2d_15">
      <g>
       <use xlink:href="#ma73599e665" x="373.0752" y="143.670857" style="stroke: #000000; stroke-width: 0.8"/>
      </g>
     </g>
     <g id="text_11">
      <!-- 32 -->
      <g transform="translate(380.0752 152.659607) scale(0.24 -0.24)">
       <defs>
        <path id="IPAexGothic-33" d="M 2381 2419 
Q 3506 2216 3506 1278 
Q 3506 716 3128 356 
Q 2709 -31 1944 -31 
Q 797 -31 288 881 
L 756 1131 
Q 1109 441 1938 441 
Q 2425 441 2694 691 
Q 2950 928 2950 1291 
Q 2950 1719 2566 1978 
Q 2216 2213 1644 2213 
L 1363 2213 
L 1363 2669 
L 1656 2669 
Q 2231 2669 2534 2888 
Q 2859 3119 2859 3509 
Q 2859 3934 2494 4138 
Q 2259 4278 1931 4278 
Q 1238 4278 903 3578 
L 434 3803 
Q 897 4725 1938 4725 
Q 2597 4725 3006 4394 
Q 3416 4069 3416 3534 
Q 3416 3028 3019 2706 
Q 2763 2500 2381 2444 
L 2381 2419 
z
" transform="scale(0.015625)"/>
       </defs>
       <use xlink:href="#IPAexGothic-33"/>
       <use xlink:href="#IPAexGothic-32" x="62.988281"/>
      </g>
     </g>
    </g>
    <g id="ytick_9">
     <g id="line2d_16">
      <g>
       <use xlink:href="#ma73599e665" x="373.0752" y="109.604571" style="stroke: #000000; stroke-width: 0.8"/>
      </g>
     </g>
     <g id="text_12">
      <!-- 40 -->
      <g transform="translate(380.0752 118.593321) scale(0.24 -0.24)">
       <use xlink:href="#IPAexGothic-34"/>
       <use xlink:href="#IPAexGothic-30" x="62.988281"/>
      </g>
     </g>
    </g>
    <g id="ytick_10">
     <g id="line2d_17">
      <g>
       <use xlink:href="#ma73599e665" x="373.0752" y="75.538286" style="stroke: #000000; stroke-width: 0.8"/>
      </g>
     </g>
     <g id="text_13">
      <!-- 48 -->
      <g transform="translate(380.0752 84.527036) scale(0.24 -0.24)">
       <use xlink:href="#IPAexGothic-34"/>
       <use xlink:href="#IPAexGothic-38" x="62.988281"/>
      </g>
     </g>
    </g>
    <g id="ytick_11">
     <g id="line2d_18">
      <g>
       <use xlink:href="#ma73599e665" x="373.0752" y="41.472" style="stroke: #000000; stroke-width: 0.8"/>
      </g>
     </g>
     <g id="text_14">
      <!-- 56 -->
      <g transform="translate(380.0752 50.46075) scale(0.24 -0.24)">
       <use xlink:href="#IPAexGothic-35"/>
       <use xlink:href="#IPAexGothic-36" x="62.988281"/>
      </g>
     </g>
    </g>
   </g>
   <g id="LineCollection_1"/>
   <g id="patch_8">
    <path d="M 361.152 279.936 
L 367.1136 279.936 
L 373.0752 279.936 
L 373.0752 41.472 
L 367.1136 41.472 
L 361.152 41.472 
L 361.152 279.936 
z
" style="fill: none; stroke: #000000; stroke-width: 0.8; stroke-linejoin: miter; stroke-linecap: square"/>
   </g>
  </g>
 </g>
 <defs>
  <clipPath id="p985a91981b">
   <rect x="57.6" y="41.472" width="285.696" height="238.464"/>
  </clipPath>
  <clipPath id="p9be9e12835">
   <rect x="361.152" y="41.472" width="11.9232" height="238.464"/>
  </clipPath>
 </defs>
</svg>
