<?xml version="1.0" encoding="utf-8" standalone="no"?>
<!DOCTYPE svg PUBLIC "-//W3C//DTD SVG 1.1//EN"
  "http://www.w3.org/Graphics/SVG/1.1/DTD/svg11.dtd">
<svg xmlns:xlink="http://www.w3.org/1999/xlink" width="460.8pt" height="345.6pt" viewBox="0 0 460.8 345.6" xmlns="http://www.w3.org/2000/svg" version="1.1">
 <metadata>
  <rdf:RDF xmlns:dc="http://purl.org/dc/elements/1.1/" xmlns:cc="http://creativecommons.org/ns#" xmlns:rdf="http://www.w3.org/1999/02/22-rdf-syntax-ns#">
   <cc:Work>
    <dc:type rdf:resource="http://purl.org/dc/dcmitype/StillImage"/>
    <dc:date>2024-01-31T07:19:32.274917</dc:date>
    <dc:format>image/svg+xml</dc:format>
    <dc:creator>
     <cc:Agent>
      <dc:title>Matplotlib v3.7.0, https://matplotlib.org/</dc:title>
     </cc:Agent>
    </dc:creator>
   </cc:Work>
  </rdf:RDF>
 </metadata>
 <defs>
  <style type="text/css">*{stroke-linejoin: round; stroke-linecap: butt}</style>
 </defs>
 <g id="figure_1">
  <g id="patch_1">
   <path d="M 0 345.6 
L 460.8 345.6 
L 460.8 0 
L 0 0 
L 0 345.6 
z
" style="fill: none"/>
  </g>
  <g id="axes_1">
   <g id="patch_2">
    <path d="M 87.552 293.76 
L 451.584 293.76 
L 451.584 6.912 
L 87.552 6.912 
L 87.552 293.76 
z
" style="fill: none"/>
   </g>
   <g id="patch_3">
    <path d="M 88.3104 287.003787 
L 94.3776 287.003787 
L 94.3776 195.728097 
L 88.3104 195.728097 
z
" clip-path="url(#pc7307cb8ab)" style="fill: #800000"/>
   </g>
   <g id="patch_4">
    <path d="M 95.8944 286.884997 
L 101.9616 286.884997 
L 101.9616 197.287223 
L 95.8944 197.287223 
z
" clip-path="url(#pc7307cb8ab)" style="fill: #800000"/>
   </g>
   <g id="patch_5">
    <path d="M 103.4784 287.285915 
L 109.5456 287.285915 
L 109.5456 199.113628 
L 103.4784 199.113628 
z
" clip-path="url(#pc7307cb8ab)" style="fill: #800000"/>
   </g>
   <g id="patch_6">
    <path d="M 111.0624 287.003787 
L 117.1296 287.003787 
L 117.1296 216.070979 
L 111.0624 216.070979 
z
" clip-path="url(#pc7307cb8ab)" style="fill: #800000"/>
   </g>
   <g id="patch_7">
    <path d="M 118.6464 287.211671 
L 124.7136 287.211671 
L 124.7136 196.708119 
L 118.6464 196.708119 
z
" clip-path="url(#pc7307cb8ab)" style="fill: #800000"/>
   </g>
   <g id="patch_8">
    <path d="M 126.2304 286.929543 
L 132.2976 286.929543 
L 132.2976 213.932749 
L 126.2304 213.932749 
z
" clip-path="url(#pc7307cb8ab)" style="fill: #800000"/>
   </g>
   <g id="patch_9">
    <path d="M 133.8144 286.914694 
L 139.8816 286.914694 
L 139.8816 214.987015 
L 133.8144 214.987015 
z
" clip-path="url(#pc7307cb8ab)" style="fill: #800000"/>
   </g>
   <g id="patch_10">
    <path d="M 141.3984 287.003787 
L 147.4656 287.003787 
L 147.4656 215.135504 
L 141.3984 215.135504 
z
" clip-path="url(#pc7307cb8ab)" style="fill: #800000"/>
   </g>
   <g id="patch_11">
    <path d="M 148.9824 287.449252 
L 155.0496 287.449252 
L 155.0496 215.625515 
L 148.9824 215.625515 
z
" clip-path="url(#pc7307cb8ab)" style="fill: #800000"/>
   </g>
   <g id="patch_12">
    <path d="M 156.5664 286.602869 
L 162.6336 286.602869 
L 162.6336 214.734585 
L 156.5664 214.734585 
z
" clip-path="url(#pc7307cb8ab)" style="fill: #800000"/>
   </g>
   <g id="patch_13">
    <path d="M 164.1504 286.484079 
L 170.2176 286.484079 
L 170.2176 196.544782 
L 164.1504 196.544782 
z
" clip-path="url(#pc7307cb8ab)" style="fill: #800000"/>
   </g>
   <g id="patch_14">
    <path d="M 171.7344 287.434403 
L 177.8016 287.434403 
L 177.8016 199.870918 
L 171.7344 199.870918 
z
" clip-path="url(#pc7307cb8ab)" style="fill: #800000"/>
   </g>
   <g id="patch_15">
    <path d="M 179.3184 284.984348 
L 185.3856 284.984348 
L 185.3856 214.096086 
L 179.3184 214.096086 
z
" clip-path="url(#pc7307cb8ab)" style="fill: #800000"/>
   </g>
   <g id="patch_16">
    <path d="M 186.9024 286.706811 
L 192.9696 286.706811 
L 192.9696 194.955959 
L 186.9024 194.955959 
z
" clip-path="url(#pc7307cb8ab)" style="fill: #800000"/>
   </g>
   <g id="patch_17">
    <path d="M 194.4864 287.642287 
L 200.5536 287.642287 
L 200.5536 217.288582 
L 194.4864 217.288582 
z
" clip-path="url(#pc7307cb8ab)" style="fill: #800000"/>
   </g>
   <g id="patch_18">
    <path d="M 202.0704 286.409835 
L 208.1376 286.409835 
L 208.1376 197.034793 
L 202.0704 197.034793 
z
" clip-path="url(#pc7307cb8ab)" style="fill: #800000"/>
   </g>
   <g id="patch_19">
    <path d="M 209.6544 285.815882 
L 215.7216 285.815882 
L 215.7216 209.864173 
L 209.6544 209.864173 
z
" clip-path="url(#pc7307cb8ab)" style="fill: #800000"/>
   </g>
   <g id="patch_20">
    <path d="M 217.2384 284.316151 
L 223.3056 284.316151 
L 223.3056 194.406552 
L 217.2384 194.406552 
z
" clip-path="url(#pc7307cb8ab)" style="fill: #800000"/>
   </g>
   <g id="patch_21">
    <path d="M 224.8224 284.910104 
L 230.8896 284.910104 
L 230.8896 195.19354 
L 224.8224 195.19354 
z
" clip-path="url(#pc7307cb8ab)" style="fill: #800000"/>
   </g>
   <g id="patch_22">
    <path d="M 232.4064 285.919824 
L 238.4736 285.919824 
L 238.4736 196.232957 
L 232.4064 196.232957 
z
" clip-path="url(#pc7307cb8ab)" style="fill: #800000"/>
   </g>
   <g id="patch_23">
    <path d="M 239.9904 286.439532 
L 246.0576 286.439532 
L 246.0576 192.639543 
L 239.9904 192.639543 
z
" clip-path="url(#pc7307cb8ab)" style="fill: #800000"/>
   </g>
   <g id="patch_24">
    <path d="M 247.5744 287.107729 
L 253.6416 287.107729 
L 253.6416 197.554502 
L 247.5744 197.554502 
z
" clip-path="url(#pc7307cb8ab)" style="fill: #800000"/>
   </g>
   <g id="patch_25">
    <path d="M 255.1584 286.870148 
L 261.2256 286.870148 
L 261.2256 196.173562 
L 255.1584 196.173562 
z
" clip-path="url(#pc7307cb8ab)" style="fill: #800000"/>
   </g>
   <g id="patch_26">
    <path d="M 262.7424 286.855299 
L 268.8096 286.855299 
L 268.8096 215.655212 
L 262.7424 215.655212 
z
" clip-path="url(#pc7307cb8ab)" style="fill: #800000"/>
   </g>
   <g id="patch_27">
    <path d="M 270.3264 286.736509 
L 276.3936 286.736509 
L 276.3936 214.67519 
L 270.3264 214.67519 
z
" clip-path="url(#pc7307cb8ab)" style="fill: #800000"/>
   </g>
   <g id="patch_28">
    <path d="M 277.9104 284.791313 
L 283.9776 284.791313 
L 283.9776 195.728097 
L 277.9104 195.728097 
z
" clip-path="url(#pc7307cb8ab)" style="fill: #800000"/>
   </g>
   <g id="patch_29">
    <path d="M 285.4944 285.919824 
L 291.5616 285.919824 
L 291.5616 182.586892 
L 285.4944 182.586892 
z
" clip-path="url(#pc7307cb8ab)" style="fill: #800000"/>
   </g>
   <g id="patch_30">
    <path d="M 293.0784 287.033485 
L 299.1456 287.033485 
L 299.1456 197.361467 
L 293.0784 197.361467 
z
" clip-path="url(#pc7307cb8ab)" style="fill: #800000"/>
   </g>
   <g id="patch_31">
    <path d="M 300.6624 284.137965 
L 306.7296 284.137965 
L 306.7296 117.162996 
L 300.6624 117.162996 
z
" clip-path="url(#pc7307cb8ab)" style="fill: #800000"/>
   </g>
   <g id="patch_32">
    <path d="M 308.2464 285.994068 
L 314.3136 285.994068 
L 314.3136 119.12304 
L 308.2464 119.12304 
z
" clip-path="url(#pc7307cb8ab)" style="fill: #800000"/>
   </g>
   <g id="patch_33">
    <path d="M 315.8304 285.919824 
L 321.8976 285.919824 
L 321.8976 41.567659 
L 315.8304 41.567659 
z
" clip-path="url(#pc7307cb8ab)" style="fill: #800000"/>
   </g>
   <g id="patch_34">
    <path d="M 323.4144 284.123116 
L 329.4816 284.123116 
L 329.4816 117.281787 
L 323.4144 117.281787 
z
" clip-path="url(#pc7307cb8ab)" style="fill: #800000"/>
   </g>
   <g id="patch_35">
    <path d="M 330.9984 284.464639 
L 337.0656 284.464639 
L 337.0656 135.813113 
L 330.9984 135.813113 
z
" clip-path="url(#pc7307cb8ab)" style="fill: #800000"/>
   </g>
   <g id="patch_36">
    <path d="M 338.5824 282.81642 
L 344.6496 282.81642 
L 344.6496 135.427043 
L 338.5824 135.427043 
z
" clip-path="url(#pc7307cb8ab)" style="fill: #800000"/>
   </g>
   <g id="patch_37">
    <path d="M 346.1664 283.781594 
L 352.2336 283.781594 
L 352.2336 111.817421 
L 346.1664 111.817421 
z
" clip-path="url(#pc7307cb8ab)" style="fill: #800000"/>
   </g>
   <g id="patch_38">
    <path d="M 353.7504 286.498928 
L 359.8176 286.498928 
L 359.8176 117.979681 
L 353.7504 117.979681 
z
" clip-path="url(#pc7307cb8ab)" style="fill: #800000"/>
   </g>
   <g id="patch_39">
    <path d="M 361.3344 286.647416 
L 367.4016 286.647416 
L 367.4016 135.456741 
L 361.3344 135.456741 
z
" clip-path="url(#pc7307cb8ab)" style="fill: #800000"/>
   </g>
   <g id="patch_40">
    <path d="M 368.9184 284.524035 
L 374.9856 284.524035 
L 374.9856 118.053925 
L 368.9184 118.053925 
z
" clip-path="url(#pc7307cb8ab)" style="fill: #800000"/>
   </g>
   <g id="patch_41">
    <path d="M 376.5024 286.781055 
L 382.5696 286.781055 
L 382.5696 135.679473 
L 376.5024 135.679473 
z
" clip-path="url(#pc7307cb8ab)" style="fill: #800000"/>
   </g>
   <g id="patch_42">
    <path d="M 384.0864 286.46923 
L 390.1536 286.46923 
L 390.1536 110.733457 
L 384.0864 110.733457 
z
" clip-path="url(#pc7307cb8ab)" style="fill: #800000"/>
   </g>
   <g id="patch_43">
    <path d="M 391.6704 286.781055 
L 397.7376 286.781055 
L 397.7376 126.398961 
L 391.6704 126.398961 
z
" clip-path="url(#pc7307cb8ab)" style="fill: #800000"/>
   </g>
   <g id="patch_44">
    <path d="M 399.2544 284.301302 
L 405.3216 284.301302 
L 405.3216 20.571429 
L 399.2544 20.571429 
z
" clip-path="url(#pc7307cb8ab)" style="fill: #800000"/>
   </g>
   <g id="patch_45">
    <path d="M 406.8384 283.885535 
L 412.9056 283.885535 
L 412.9056 103.442687 
L 406.8384 103.442687 
z
" clip-path="url(#pc7307cb8ab)" style="fill: #800000"/>
   </g>
   <g id="patch_46">
    <path d="M 414.4224 286.439532 
L 420.4896 286.439532 
L 420.4896 104.185128 
L 414.4224 104.185128 
z
" clip-path="url(#pc7307cb8ab)" style="fill: #800000"/>
   </g>
   <g id="patch_47">
    <path d="M 422.0064 286.424683 
L 428.0736 286.424683 
L 428.0736 25.768515 
L 422.0064 25.768515 
z
" clip-path="url(#pc7307cb8ab)" style="fill: #800000"/>
   </g>
   <g id="patch_48">
    <path d="M 429.5904 286.112858 
L 435.6576 286.112858 
L 435.6576 125.107114 
L 429.5904 125.107114 
z
" clip-path="url(#pc7307cb8ab)" style="fill: #800000"/>
   </g>
   <g id="patch_49">
    <path d="M 437.1744 286.736509 
L 443.2416 286.736509 
L 443.2416 106.694579 
L 437.1744 106.694579 
z
" clip-path="url(#pc7307cb8ab)" style="fill: #800000"/>
   </g>
   <g id="patch_50">
    <path d="M 444.7584 284.568581 
L 450.8256 284.568581 
L 450.8256 122.716454 
L 444.7584 122.716454 
z
" clip-path="url(#pc7307cb8ab)" style="fill: #800000"/>
   </g>
   <g id="patch_51">
    <path d="M 88.3104 287.256217 
L 94.3776 287.256217 
L 94.3776 287.003787 
L 88.3104 287.003787 
z
" clip-path="url(#pc7307cb8ab)" style="fill: #a52a2a"/>
   </g>
   <g id="patch_52">
    <path d="M 95.8944 287.09288 
L 101.9616 287.09288 
L 101.9616 286.884997 
L 95.8944 286.884997 
z
" clip-path="url(#pc7307cb8ab)" style="fill: #a52a2a"/>
   </g>
   <g id="patch_53">
    <path d="M 103.4784 287.493798 
L 109.5456 287.493798 
L 109.5456 287.285915 
L 103.4784 287.285915 
z
" clip-path="url(#pc7307cb8ab)" style="fill: #a52a2a"/>
   </g>
   <g id="patch_54">
    <path d="M 111.0624 287.241368 
L 117.1296 287.241368 
L 117.1296 287.003787 
L 111.0624 287.003787 
z
" clip-path="url(#pc7307cb8ab)" style="fill: #a52a2a"/>
   </g>
   <g id="patch_55">
    <path d="M 118.6464 287.464101 
L 124.7136 287.464101 
L 124.7136 287.211671 
L 118.6464 287.211671 
z
" clip-path="url(#pc7307cb8ab)" style="fill: #a52a2a"/>
   </g>
   <g id="patch_56">
    <path d="M 126.2304 287.181973 
L 132.2976 287.181973 
L 132.2976 286.929543 
L 126.2304 286.929543 
z
" clip-path="url(#pc7307cb8ab)" style="fill: #a52a2a"/>
   </g>
   <g id="patch_57">
    <path d="M 133.8144 287.167124 
L 139.8816 287.167124 
L 139.8816 286.914694 
L 133.8144 286.914694 
z
" clip-path="url(#pc7307cb8ab)" style="fill: #a52a2a"/>
   </g>
   <g id="patch_58">
    <path d="M 141.3984 287.300764 
L 147.4656 287.300764 
L 147.4656 287.003787 
L 141.3984 287.003787 
z
" clip-path="url(#pc7307cb8ab)" style="fill: #a52a2a"/>
   </g>
   <g id="patch_59">
    <path d="M 148.9824 287.701682 
L 155.0496 287.701682 
L 155.0496 287.449252 
L 148.9824 287.449252 
z
" clip-path="url(#pc7307cb8ab)" style="fill: #a52a2a"/>
   </g>
   <g id="patch_60">
    <path d="M 156.5664 286.884997 
L 162.6336 286.884997 
L 162.6336 286.602869 
L 156.5664 286.602869 
z
" clip-path="url(#pc7307cb8ab)" style="fill: #a52a2a"/>
   </g>
   <g id="patch_61">
    <path d="M 164.1504 286.72166 
L 170.2176 286.72166 
L 170.2176 286.484079 
L 164.1504 286.484079 
z
" clip-path="url(#pc7307cb8ab)" style="fill: #a52a2a"/>
   </g>
   <g id="patch_62">
    <path d="M 171.7344 287.642287 
L 177.8016 287.642287 
L 177.8016 287.434403 
L 171.7344 287.434403 
z
" clip-path="url(#pc7307cb8ab)" style="fill: #a52a2a"/>
   </g>
   <g id="patch_63">
    <path d="M 179.3184 285.221929 
L 185.3856 285.221929 
L 185.3856 284.984348 
L 179.3184 284.984348 
z
" clip-path="url(#pc7307cb8ab)" style="fill: #a52a2a"/>
   </g>
   <g id="patch_64">
    <path d="M 186.9024 286.959241 
L 192.9696 286.959241 
L 192.9696 286.706811 
L 186.9024 286.706811 
z
" clip-path="url(#pc7307cb8ab)" style="fill: #a52a2a"/>
   </g>
   <g id="patch_65">
    <path d="M 194.4864 287.894717 
L 200.5536 287.894717 
L 200.5536 287.642287 
L 194.4864 287.642287 
z
" clip-path="url(#pc7307cb8ab)" style="fill: #a52a2a"/>
   </g>
   <g id="patch_66">
    <path d="M 202.0704 286.691962 
L 208.1376 286.691962 
L 208.1376 286.409835 
L 202.0704 286.409835 
z
" clip-path="url(#pc7307cb8ab)" style="fill: #a52a2a"/>
   </g>
   <g id="patch_67">
    <path d="M 209.6544 286.023765 
L 215.7216 286.023765 
L 215.7216 285.815882 
L 209.6544 285.815882 
z
" clip-path="url(#pc7307cb8ab)" style="fill: #a52a2a"/>
   </g>
   <g id="patch_68">
    <path d="M 217.2384 284.524035 
L 223.3056 284.524035 
L 223.3056 284.316151 
L 217.2384 284.316151 
z
" clip-path="url(#pc7307cb8ab)" style="fill: #a52a2a"/>
   </g>
   <g id="patch_69">
    <path d="M 224.8224 285.147685 
L 230.8896 285.147685 
L 230.8896 284.910104 
L 224.8224 284.910104 
z
" clip-path="url(#pc7307cb8ab)" style="fill: #a52a2a"/>
   </g>
   <g id="patch_70">
    <path d="M 232.4064 286.157405 
L 238.4736 286.157405 
L 238.4736 285.919824 
L 232.4064 285.919824 
z
" clip-path="url(#pc7307cb8ab)" style="fill: #a52a2a"/>
   </g>
   <g id="patch_71">
    <path d="M 239.9904 286.647416 
L 246.0576 286.647416 
L 246.0576 286.439532 
L 239.9904 286.439532 
z
" clip-path="url(#pc7307cb8ab)" style="fill: #a52a2a"/>
   </g>
   <g id="patch_72">
    <path d="M 247.5744 287.360159 
L 253.6416 287.360159 
L 253.6416 287.107729 
L 247.5744 287.107729 
z
" clip-path="url(#pc7307cb8ab)" style="fill: #a52a2a"/>
   </g>
   <g id="patch_73">
    <path d="M 255.1584 287.152276 
L 261.2256 287.152276 
L 261.2256 286.870148 
L 255.1584 286.870148 
z
" clip-path="url(#pc7307cb8ab)" style="fill: #a52a2a"/>
   </g>
   <g id="patch_74">
    <path d="M 262.7424 287.09288 
L 268.8096 287.09288 
L 268.8096 286.855299 
L 262.7424 286.855299 
z
" clip-path="url(#pc7307cb8ab)" style="fill: #a52a2a"/>
   </g>
   <g id="patch_75">
    <path d="M 270.3264 286.97409 
L 276.3936 286.97409 
L 276.3936 286.736509 
L 270.3264 286.736509 
z
" clip-path="url(#pc7307cb8ab)" style="fill: #a52a2a"/>
   </g>
   <g id="patch_76">
    <path d="M 277.9104 285.028894 
L 283.9776 285.028894 
L 283.9776 284.791313 
L 277.9104 284.791313 
z
" clip-path="url(#pc7307cb8ab)" style="fill: #a52a2a"/>
   </g>
   <g id="patch_77">
    <path d="M 285.4944 286.157405 
L 291.5616 286.157405 
L 291.5616 285.919824 
L 285.4944 285.919824 
z
" clip-path="url(#pc7307cb8ab)" style="fill: #a52a2a"/>
   </g>
   <g id="patch_78">
    <path d="M 293.0784 287.285915 
L 299.1456 287.285915 
L 299.1456 287.033485 
L 293.0784 287.033485 
z
" clip-path="url(#pc7307cb8ab)" style="fill: #a52a2a"/>
   </g>
   <g id="patch_79">
    <path d="M 300.6624 284.390395 
L 306.7296 284.390395 
L 306.7296 284.137965 
L 300.6624 284.137965 
z
" clip-path="url(#pc7307cb8ab)" style="fill: #a52a2a"/>
   </g>
   <g id="patch_80">
    <path d="M 308.2464 286.246498 
L 314.3136 286.246498 
L 314.3136 285.994068 
L 308.2464 285.994068 
z
" clip-path="url(#pc7307cb8ab)" style="fill: #a52a2a"/>
   </g>
   <g id="patch_81">
    <path d="M 315.8304 286.172254 
L 321.8976 286.172254 
L 321.8976 285.919824 
L 315.8304 285.919824 
z
" clip-path="url(#pc7307cb8ab)" style="fill: #a52a2a"/>
   </g>
   <g id="patch_82">
    <path d="M 323.4144 284.375546 
L 329.4816 284.375546 
L 329.4816 284.123116 
L 323.4144 284.123116 
z
" clip-path="url(#pc7307cb8ab)" style="fill: #a52a2a"/>
   </g>
   <g id="patch_83">
    <path d="M 330.9984 284.717069 
L 337.0656 284.717069 
L 337.0656 284.464639 
L 330.9984 284.464639 
z
" clip-path="url(#pc7307cb8ab)" style="fill: #a52a2a"/>
   </g>
   <g id="patch_84">
    <path d="M 338.5824 283.06885 
L 344.6496 283.06885 
L 344.6496 282.81642 
L 338.5824 282.81642 
z
" clip-path="url(#pc7307cb8ab)" style="fill: #a52a2a"/>
   </g>
   <g id="patch_85">
    <path d="M 346.1664 283.989477 
L 352.2336 283.989477 
L 352.2336 283.781594 
L 346.1664 283.781594 
z
" clip-path="url(#pc7307cb8ab)" style="fill: #a52a2a"/>
   </g>
   <g id="patch_86">
    <path d="M 353.7504 286.706811 
L 359.8176 286.706811 
L 359.8176 286.498928 
L 353.7504 286.498928 
z
" clip-path="url(#pc7307cb8ab)" style="fill: #a52a2a"/>
   </g>
   <g id="patch_87">
    <path d="M 361.3344 286.899846 
L 367.4016 286.899846 
L 367.4016 286.647416 
L 361.3344 286.647416 
z
" clip-path="url(#pc7307cb8ab)" style="fill: #a52a2a"/>
   </g>
   <g id="patch_88">
    <path d="M 368.9184 284.776465 
L 374.9856 284.776465 
L 374.9856 284.524035 
L 368.9184 284.524035 
z
" clip-path="url(#pc7307cb8ab)" style="fill: #a52a2a"/>
   </g>
   <g id="patch_89">
    <path d="M 376.5024 286.988939 
L 382.5696 286.988939 
L 382.5696 286.781055 
L 376.5024 286.781055 
z
" clip-path="url(#pc7307cb8ab)" style="fill: #a52a2a"/>
   </g>
   <g id="patch_90">
    <path d="M 384.0864 286.72166 
L 390.1536 286.72166 
L 390.1536 286.46923 
L 384.0864 286.46923 
z
" clip-path="url(#pc7307cb8ab)" style="fill: #a52a2a"/>
   </g>
   <g id="patch_91">
    <path d="M 391.6704 287.018636 
L 397.7376 287.018636 
L 397.7376 286.781055 
L 391.6704 286.781055 
z
" clip-path="url(#pc7307cb8ab)" style="fill: #a52a2a"/>
   </g>
   <g id="patch_92">
    <path d="M 399.2544 284.509186 
L 405.3216 284.509186 
L 405.3216 284.301302 
L 399.2544 284.301302 
z
" clip-path="url(#pc7307cb8ab)" style="fill: #a52a2a"/>
   </g>
   <g id="patch_93">
    <path d="M 406.8384 284.137965 
L 412.9056 284.137965 
L 412.9056 283.885535 
L 406.8384 283.885535 
z
" clip-path="url(#pc7307cb8ab)" style="fill: #a52a2a"/>
   </g>
   <g id="patch_94">
    <path d="M 414.4224 286.677113 
L 420.4896 286.677113 
L 420.4896 286.439532 
L 414.4224 286.439532 
z
" clip-path="url(#pc7307cb8ab)" style="fill: #a52a2a"/>
   </g>
   <g id="patch_95">
    <path d="M 422.0064 286.632567 
L 428.0736 286.632567 
L 428.0736 286.424683 
L 422.0064 286.424683 
z
" clip-path="url(#pc7307cb8ab)" style="fill: #a52a2a"/>
   </g>
   <g id="patch_96">
    <path d="M 429.5904 286.350439 
L 435.6576 286.350439 
L 435.6576 286.112858 
L 429.5904 286.112858 
z
" clip-path="url(#pc7307cb8ab)" style="fill: #a52a2a"/>
   </g>
   <g id="patch_97">
    <path d="M 437.1744 286.988939 
L 443.2416 286.988939 
L 443.2416 286.736509 
L 437.1744 286.736509 
z
" clip-path="url(#pc7307cb8ab)" style="fill: #a52a2a"/>
   </g>
   <g id="patch_98">
    <path d="M 444.7584 284.821011 
L 450.8256 284.821011 
L 450.8256 284.568581 
L 444.7584 284.568581 
z
" clip-path="url(#pc7307cb8ab)" style="fill: #a52a2a"/>
   </g>
   <g id="patch_99">
    <path d="M 88.3104 290.61205 
L 94.3776 290.61205 
L 94.3776 282.370956 
L 88.3104 282.370956 
z
" clip-path="url(#pc7307cb8ab)" style="fill: #f08080"/>
   </g>
   <g id="patch_100">
    <path d="M 95.8944 290.003249 
L 101.9616 290.003249 
L 101.9616 282.073979 
L 95.8944 282.073979 
z
" clip-path="url(#pc7307cb8ab)" style="fill: #f08080"/>
   </g>
   <g id="patch_101">
    <path d="M 103.4784 290.285376 
L 109.5456 290.285376 
L 109.5456 283.217339 
L 103.4784 283.217339 
z
" clip-path="url(#pc7307cb8ab)" style="fill: #f08080"/>
   </g>
   <g id="patch_102">
    <path d="M 111.0624 290.374469 
L 117.1296 290.374469 
L 117.1296 282.370956 
L 111.0624 282.370956 
z
" clip-path="url(#pc7307cb8ab)" style="fill: #f08080"/>
   </g>
   <g id="patch_103">
    <path d="M 118.6464 290.374469 
L 124.7136 290.374469 
L 124.7136 283.232187 
L 118.6464 283.232187 
z
" clip-path="url(#pc7307cb8ab)" style="fill: #f08080"/>
   </g>
   <g id="patch_104">
    <path d="M 126.2304 290.24083 
L 132.2976 290.24083 
L 132.2976 283.06885 
L 126.2304 283.06885 
z
" clip-path="url(#pc7307cb8ab)" style="fill: #f08080"/>
   </g>
   <g id="patch_105">
    <path d="M 133.8144 290.151737 
L 139.8816 290.151737 
L 139.8816 282.890665 
L 133.8144 282.890665 
z
" clip-path="url(#pc7307cb8ab)" style="fill: #f08080"/>
   </g>
   <g id="patch_106">
    <path d="M 141.3984 290.270528 
L 147.4656 290.270528 
L 147.4656 283.06885 
L 141.3984 283.06885 
z
" clip-path="url(#pc7307cb8ab)" style="fill: #f08080"/>
   </g>
   <g id="patch_107">
    <path d="M 148.9824 290.567504 
L 155.0496 290.567504 
L 155.0496 283.484617 
L 148.9824 283.484617 
z
" clip-path="url(#pc7307cb8ab)" style="fill: #f08080"/>
   </g>
   <g id="patch_108">
    <path d="M 156.5664 290.196283 
L 162.6336 290.196283 
L 162.6336 281.925491 
L 156.5664 281.925491 
z
" clip-path="url(#pc7307cb8ab)" style="fill: #f08080"/>
   </g>
   <g id="patch_109">
    <path d="M 164.1504 290.196283 
L 170.2176 290.196283 
L 170.2176 281.405783 
L 164.1504 281.405783 
z
" clip-path="url(#pc7307cb8ab)" style="fill: #f08080"/>
   </g>
   <g id="patch_110">
    <path d="M 171.7344 290.389318 
L 177.8016 290.389318 
L 177.8016 283.410373 
L 171.7344 283.410373 
z
" clip-path="url(#pc7307cb8ab)" style="fill: #f08080"/>
   </g>
   <g id="patch_111">
    <path d="M 179.3184 288.325332 
L 185.3856 288.325332 
L 185.3856 280.143633 
L 179.3184 280.143633 
z
" clip-path="url(#pc7307cb8ab)" style="fill: #f08080"/>
   </g>
   <g id="patch_112">
    <path d="M 186.9024 289.676575 
L 192.9696 289.676575 
L 192.9696 282.638235 
L 186.9024 282.638235 
z
" clip-path="url(#pc7307cb8ab)" style="fill: #f08080"/>
   </g>
   <g id="patch_113">
    <path d="M 194.4864 290.522957 
L 200.5536 290.522957 
L 200.5536 283.009455 
L 194.4864 283.009455 
z
" clip-path="url(#pc7307cb8ab)" style="fill: #f08080"/>
   </g>
   <g id="patch_114">
    <path d="M 202.0704 290.300225 
L 208.1376 290.300225 
L 208.1376 282.267014 
L 202.0704 282.267014 
z
" clip-path="url(#pc7307cb8ab)" style="fill: #f08080"/>
   </g>
   <g id="patch_115">
    <path d="M 209.6544 289.869609 
L 215.7216 289.869609 
L 215.7216 280.841527 
L 209.6544 280.841527 
z
" clip-path="url(#pc7307cb8ab)" style="fill: #f08080"/>
   </g>
   <g id="patch_116">
    <path d="M 217.2384 288.1026 
L 223.3056 288.1026 
L 223.3056 279.713017 
L 217.2384 279.713017 
z
" clip-path="url(#pc7307cb8ab)" style="fill: #f08080"/>
   </g>
   <g id="patch_117">
    <path d="M 224.8224 288.741099 
L 230.8896 288.741099 
L 230.8896 280.143633 
L 224.8224 280.143633 
z
" clip-path="url(#pc7307cb8ab)" style="fill: #f08080"/>
   </g>
   <g id="patch_118">
    <path d="M 232.4064 290.211132 
L 238.4736 290.211132 
L 238.4736 280.722737 
L 232.4064 280.722737 
z
" clip-path="url(#pc7307cb8ab)" style="fill: #f08080"/>
   </g>
   <g id="patch_119">
    <path d="M 239.9904 290.404167 
L 246.0576 290.404167 
L 246.0576 281.658213 
L 239.9904 281.658213 
z
" clip-path="url(#pc7307cb8ab)" style="fill: #f08080"/>
   </g>
   <g id="patch_120">
    <path d="M 247.5744 290.329923 
L 253.6416 290.329923 
L 253.6416 282.19277 
L 247.5744 282.19277 
z
" clip-path="url(#pc7307cb8ab)" style="fill: #f08080"/>
   </g>
   <g id="patch_121">
    <path d="M 255.1584 290.018098 
L 261.2256 290.018098 
L 261.2256 282.712479 
L 255.1584 282.712479 
z
" clip-path="url(#pc7307cb8ab)" style="fill: #f08080"/>
   </g>
   <g id="patch_122">
    <path d="M 262.7424 290.136888 
L 268.8096 290.136888 
L 268.8096 282.252165 
L 262.7424 282.252165 
z
" clip-path="url(#pc7307cb8ab)" style="fill: #f08080"/>
   </g>
   <g id="patch_123">
    <path d="M 270.3264 289.914156 
L 276.3936 289.914156 
L 276.3936 281.450329 
L 270.3264 281.450329 
z
" clip-path="url(#pc7307cb8ab)" style="fill: #f08080"/>
   </g>
   <g id="patch_124">
    <path d="M 277.9104 288.666855 
L 283.9776 288.666855 
L 283.9776 280.128784 
L 277.9104 280.128784 
z
" clip-path="url(#pc7307cb8ab)" style="fill: #f08080"/>
   </g>
   <g id="patch_125">
    <path d="M 285.4944 289.943854 
L 291.5616 289.943854 
L 291.5616 281.108806 
L 285.4944 281.108806 
z
" clip-path="url(#pc7307cb8ab)" style="fill: #f08080"/>
   </g>
   <g id="patch_126">
    <path d="M 293.0784 290.166586 
L 299.1456 290.166586 
L 299.1456 282.118526 
L 293.0784 282.118526 
z
" clip-path="url(#pc7307cb8ab)" style="fill: #f08080"/>
   </g>
   <g id="patch_127">
    <path d="M 300.6624 288.161995 
L 306.7296 288.161995 
L 306.7296 279.326948 
L 300.6624 279.326948 
z
" clip-path="url(#pc7307cb8ab)" style="fill: #f08080"/>
   </g>
   <g id="patch_128">
    <path d="M 308.2464 290.315074 
L 314.3136 290.315074 
L 314.3136 281.257294 
L 308.2464 281.257294 
z
" clip-path="url(#pc7307cb8ab)" style="fill: #f08080"/>
   </g>
   <g id="patch_129">
    <path d="M 315.8304 289.676575 
L 321.8976 289.676575 
L 321.8976 281.004865 
L 315.8304 281.004865 
z
" clip-path="url(#pc7307cb8ab)" style="fill: #f08080"/>
   </g>
   <g id="patch_130">
    <path d="M 323.4144 287.909565 
L 329.4816 287.909565 
L 329.4816 279.920901 
L 323.4144 279.920901 
z
" clip-path="url(#pc7307cb8ab)" style="fill: #f08080"/>
   </g>
   <g id="patch_131">
    <path d="M 330.9984 287.835321 
L 337.0656 287.835321 
L 337.0656 280.262424 
L 330.9984 280.262424 
z
" clip-path="url(#pc7307cb8ab)" style="fill: #f08080"/>
   </g>
   <g id="patch_132">
    <path d="M 338.5824 287.09288 
L 344.6496 287.09288 
L 344.6496 278.183589 
L 338.5824 278.183589 
z
" clip-path="url(#pc7307cb8ab)" style="fill: #f08080"/>
   </g>
   <g id="patch_133">
    <path d="M 346.1664 287.85017 
L 352.2336 287.85017 
L 352.2336 278.911181 
L 346.1664 278.911181 
z
" clip-path="url(#pc7307cb8ab)" style="fill: #f08080"/>
   </g>
   <g id="patch_134">
    <path d="M 353.7504 289.869609 
L 359.8176 289.869609 
L 359.8176 282.296712 
L 353.7504 282.296712 
z
" clip-path="url(#pc7307cb8ab)" style="fill: #f08080"/>
   </g>
   <g id="patch_135">
    <path d="M 361.3344 290.047795 
L 367.4016 290.047795 
L 367.4016 281.82155 
L 361.3344 281.82155 
z
" clip-path="url(#pc7307cb8ab)" style="fill: #f08080"/>
   </g>
   <g id="patch_136">
    <path d="M 368.9184 288.013507 
L 374.9856 288.013507 
L 374.9856 280.396063 
L 368.9184 280.396063 
z
" clip-path="url(#pc7307cb8ab)" style="fill: #f08080"/>
   </g>
   <g id="patch_137">
    <path d="M 376.5024 290.003249 
L 382.5696 290.003249 
L 382.5696 281.895794 
L 376.5024 281.895794 
z
" clip-path="url(#pc7307cb8ab)" style="fill: #f08080"/>
   </g>
   <g id="patch_138">
    <path d="M 384.0864 290.24083 
L 390.1536 290.24083 
L 390.1536 281.836398 
L 384.0864 281.836398 
z
" clip-path="url(#pc7307cb8ab)" style="fill: #f08080"/>
   </g>
   <g id="patch_139">
    <path d="M 391.6704 290.122039 
L 397.7376 290.122039 
L 397.7376 281.82155 
L 391.6704 281.82155 
z
" clip-path="url(#pc7307cb8ab)" style="fill: #f08080"/>
   </g>
   <g id="patch_140">
    <path d="M 399.2544 288.384728 
L 405.3216 288.384728 
L 405.3216 279.416041 
L 399.2544 279.416041 
z
" clip-path="url(#pc7307cb8ab)" style="fill: #f08080"/>
   </g>
   <g id="patch_141">
    <path d="M 406.8384 287.671984 
L 412.9056 287.671984 
L 412.9056 279.074518 
L 406.8384 279.074518 
z
" clip-path="url(#pc7307cb8ab)" style="fill: #f08080"/>
   </g>
   <g id="patch_142">
    <path d="M 414.4224 289.810214 
L 420.4896 289.810214 
L 420.4896 281.598817 
L 414.4224 281.598817 
z
" clip-path="url(#pc7307cb8ab)" style="fill: #f08080"/>
   </g>
   <g id="patch_143">
    <path d="M 422.0064 289.810214 
L 428.0736 289.810214 
L 428.0736 281.999735 
L 422.0064 281.999735 
z
" clip-path="url(#pc7307cb8ab)" style="fill: #f08080"/>
   </g>
   <g id="patch_144">
    <path d="M 429.5904 290.136888 
L 435.6576 290.136888 
L 435.6576 281.301841 
L 429.5904 281.301841 
z
" clip-path="url(#pc7307cb8ab)" style="fill: #f08080"/>
   </g>
   <g id="patch_145">
    <path d="M 437.1744 290.107191 
L 443.2416 290.107191 
L 443.2416 282.460049 
L 437.1744 282.460049 
z
" clip-path="url(#pc7307cb8ab)" style="fill: #f08080"/>
   </g>
   <g id="patch_146">
    <path d="M 444.7584 288.087751 
L 450.8256 288.087751 
L 450.8256 280.024842 
L 444.7584 280.024842 
z
" clip-path="url(#pc7307cb8ab)" style="fill: #f08080"/>
   </g>
   <g id="patch_147">
    <path d="M 88.3104 293.76 
L 94.3776 293.76 
L 94.3776 290.61205 
L 88.3104 290.61205 
z
" clip-path="url(#pc7307cb8ab)" style="fill: #ffe4e1"/>
   </g>
   <g id="patch_148">
    <path d="M 95.8944 293.76 
L 101.9616 293.76 
L 101.9616 290.003249 
L 95.8944 290.003249 
z
" clip-path="url(#pc7307cb8ab)" style="fill: #ffe4e1"/>
   </g>
   <g id="patch_149">
    <path d="M 103.4784 293.76 
L 109.5456 293.76 
L 109.5456 290.285376 
L 103.4784 290.285376 
z
" clip-path="url(#pc7307cb8ab)" style="fill: #ffe4e1"/>
   </g>
   <g id="patch_150">
    <path d="M 111.0624 293.76 
L 117.1296 293.76 
L 117.1296 290.374469 
L 111.0624 290.374469 
z
" clip-path="url(#pc7307cb8ab)" style="fill: #ffe4e1"/>
   </g>
   <g id="patch_151">
    <path d="M 118.6464 293.76 
L 124.7136 293.76 
L 124.7136 290.374469 
L 118.6464 290.374469 
z
" clip-path="url(#pc7307cb8ab)" style="fill: #ffe4e1"/>
   </g>
   <g id="patch_152">
    <path d="M 126.2304 293.76 
L 132.2976 293.76 
L 132.2976 290.24083 
L 126.2304 290.24083 
z
" clip-path="url(#pc7307cb8ab)" style="fill: #ffe4e1"/>
   </g>
   <g id="patch_153">
    <path d="M 133.8144 293.76 
L 139.8816 293.76 
L 139.8816 290.151737 
L 133.8144 290.151737 
z
" clip-path="url(#pc7307cb8ab)" style="fill: #ffe4e1"/>
   </g>
   <g id="patch_154">
    <path d="M 141.3984 293.76 
L 147.4656 293.76 
L 147.4656 290.270528 
L 141.3984 290.270528 
z
" clip-path="url(#pc7307cb8ab)" style="fill: #ffe4e1"/>
   </g>
   <g id="patch_155">
    <path d="M 148.9824 293.76 
L 155.0496 293.76 
L 155.0496 290.567504 
L 148.9824 290.567504 
z
" clip-path="url(#pc7307cb8ab)" style="fill: #ffe4e1"/>
   </g>
   <g id="patch_156">
    <path d="M 156.5664 293.76 
L 162.6336 293.76 
L 162.6336 290.196283 
L 156.5664 290.196283 
z
" clip-path="url(#pc7307cb8ab)" style="fill: #ffe4e1"/>
   </g>
   <g id="patch_157">
    <path d="M 164.1504 293.76 
L 170.2176 293.76 
L 170.2176 290.196283 
L 164.1504 290.196283 
z
" clip-path="url(#pc7307cb8ab)" style="fill: #ffe4e1"/>
   </g>
   <g id="patch_158">
    <path d="M 171.7344 293.76 
L 177.8016 293.76 
L 177.8016 290.389318 
L 171.7344 290.389318 
z
" clip-path="url(#pc7307cb8ab)" style="fill: #ffe4e1"/>
   </g>
   <g id="patch_159">
    <path d="M 179.3184 293.76 
L 185.3856 293.76 
L 185.3856 288.325332 
L 179.3184 288.325332 
z
" clip-path="url(#pc7307cb8ab)" style="fill: #ffe4e1"/>
   </g>
   <g id="patch_160">
    <path d="M 186.9024 293.76 
L 192.9696 293.76 
L 192.9696 289.676575 
L 186.9024 289.676575 
z
" clip-path="url(#pc7307cb8ab)" style="fill: #ffe4e1"/>
   </g>
   <g id="patch_161">
    <path d="M 194.4864 293.76 
L 200.5536 293.76 
L 200.5536 290.522957 
L 194.4864 290.522957 
z
" clip-path="url(#pc7307cb8ab)" style="fill: #ffe4e1"/>
   </g>
   <g id="patch_162">
    <path d="M 202.0704 293.76 
L 208.1376 293.76 
L 208.1376 290.300225 
L 202.0704 290.300225 
z
" clip-path="url(#pc7307cb8ab)" style="fill: #ffe4e1"/>
   </g>
   <g id="patch_163">
    <path d="M 209.6544 293.76 
L 215.7216 293.76 
L 215.7216 289.869609 
L 209.6544 289.869609 
z
" clip-path="url(#pc7307cb8ab)" style="fill: #ffe4e1"/>
   </g>
   <g id="patch_164">
    <path d="M 217.2384 293.76 
L 223.3056 293.76 
L 223.3056 288.1026 
L 217.2384 288.1026 
z
" clip-path="url(#pc7307cb8ab)" style="fill: #ffe4e1"/>
   </g>
   <g id="patch_165">
    <path d="M 224.8224 293.76 
L 230.8896 293.76 
L 230.8896 288.741099 
L 224.8224 288.741099 
z
" clip-path="url(#pc7307cb8ab)" style="fill: #ffe4e1"/>
   </g>
   <g id="patch_166">
    <path d="M 232.4064 293.76 
L 238.4736 293.76 
L 238.4736 290.211132 
L 232.4064 290.211132 
z
" clip-path="url(#pc7307cb8ab)" style="fill: #ffe4e1"/>
   </g>
   <g id="patch_167">
    <path d="M 239.9904 293.76 
L 246.0576 293.76 
L 246.0576 290.404167 
L 239.9904 290.404167 
z
" clip-path="url(#pc7307cb8ab)" style="fill: #ffe4e1"/>
   </g>
   <g id="patch_168">
    <path d="M 247.5744 293.76 
L 253.6416 293.76 
L 253.6416 290.329923 
L 247.5744 290.329923 
z
" clip-path="url(#pc7307cb8ab)" style="fill: #ffe4e1"/>
   </g>
   <g id="patch_169">
    <path d="M 255.1584 293.76 
L 261.2256 293.76 
L 261.2256 290.018098 
L 255.1584 290.018098 
z
" clip-path="url(#pc7307cb8ab)" style="fill: #ffe4e1"/>
   </g>
   <g id="patch_170">
    <path d="M 262.7424 293.76 
L 268.8096 293.76 
L 268.8096 290.136888 
L 262.7424 290.136888 
z
" clip-path="url(#pc7307cb8ab)" style="fill: #ffe4e1"/>
   </g>
   <g id="patch_171">
    <path d="M 270.3264 293.76 
L 276.3936 293.76 
L 276.3936 289.914156 
L 270.3264 289.914156 
z
" clip-path="url(#pc7307cb8ab)" style="fill: #ffe4e1"/>
   </g>
   <g id="patch_172">
    <path d="M 277.9104 293.76 
L 283.9776 293.76 
L 283.9776 288.666855 
L 277.9104 288.666855 
z
" clip-path="url(#pc7307cb8ab)" style="fill: #ffe4e1"/>
   </g>
   <g id="patch_173">
    <path d="M 285.4944 293.76 
L 291.5616 293.76 
L 291.5616 289.943854 
L 285.4944 289.943854 
z
" clip-path="url(#pc7307cb8ab)" style="fill: #ffe4e1"/>
   </g>
   <g id="patch_174">
    <path d="M 293.0784 293.76 
L 299.1456 293.76 
L 299.1456 290.166586 
L 293.0784 290.166586 
z
" clip-path="url(#pc7307cb8ab)" style="fill: #ffe4e1"/>
   </g>
   <g id="patch_175">
    <path d="M 300.6624 293.76 
L 306.7296 293.76 
L 306.7296 288.161995 
L 300.6624 288.161995 
z
" clip-path="url(#pc7307cb8ab)" style="fill: #ffe4e1"/>
   </g>
   <g id="patch_176">
    <path d="M 308.2464 293.76 
L 314.3136 293.76 
L 314.3136 290.315074 
L 308.2464 290.315074 
z
" clip-path="url(#pc7307cb8ab)" style="fill: #ffe4e1"/>
   </g>
   <g id="patch_177">
    <path d="M 315.8304 293.76 
L 321.8976 293.76 
L 321.8976 289.676575 
L 315.8304 289.676575 
z
" clip-path="url(#pc7307cb8ab)" style="fill: #ffe4e1"/>
   </g>
   <g id="patch_178">
    <path d="M 323.4144 293.76 
L 329.4816 293.76 
L 329.4816 287.909565 
L 323.4144 287.909565 
z
" clip-path="url(#pc7307cb8ab)" style="fill: #ffe4e1"/>
   </g>
   <g id="patch_179">
    <path d="M 330.9984 293.76 
L 337.0656 293.76 
L 337.0656 287.835321 
L 330.9984 287.835321 
z
" clip-path="url(#pc7307cb8ab)" style="fill: #ffe4e1"/>
   </g>
   <g id="patch_180">
    <path d="M 338.5824 293.76 
L 344.6496 293.76 
L 344.6496 287.09288 
L 338.5824 287.09288 
z
" clip-path="url(#pc7307cb8ab)" style="fill: #ffe4e1"/>
   </g>
   <g id="patch_181">
    <path d="M 346.1664 293.76 
L 352.2336 293.76 
L 352.2336 287.85017 
L 346.1664 287.85017 
z
" clip-path="url(#pc7307cb8ab)" style="fill: #ffe4e1"/>
   </g>
   <g id="patch_182">
    <path d="M 353.7504 293.76 
L 359.8176 293.76 
L 359.8176 289.869609 
L 353.7504 289.869609 
z
" clip-path="url(#pc7307cb8ab)" style="fill: #ffe4e1"/>
   </g>
   <g id="patch_183">
    <path d="M 361.3344 293.76 
L 367.4016 293.76 
L 367.4016 290.047795 
L 361.3344 290.047795 
z
" clip-path="url(#pc7307cb8ab)" style="fill: #ffe4e1"/>
   </g>
   <g id="patch_184">
    <path d="M 368.9184 293.76 
L 374.9856 293.76 
L 374.9856 288.013507 
L 368.9184 288.013507 
z
" clip-path="url(#pc7307cb8ab)" style="fill: #ffe4e1"/>
   </g>
   <g id="patch_185">
    <path d="M 376.5024 293.76 
L 382.5696 293.76 
L 382.5696 290.003249 
L 376.5024 290.003249 
z
" clip-path="url(#pc7307cb8ab)" style="fill: #ffe4e1"/>
   </g>
   <g id="patch_186">
    <path d="M 384.0864 293.76 
L 390.1536 293.76 
L 390.1536 290.24083 
L 384.0864 290.24083 
z
" clip-path="url(#pc7307cb8ab)" style="fill: #ffe4e1"/>
   </g>
   <g id="patch_187">
    <path d="M 391.6704 293.76 
L 397.7376 293.76 
L 397.7376 290.122039 
L 391.6704 290.122039 
z
" clip-path="url(#pc7307cb8ab)" style="fill: #ffe4e1"/>
   </g>
   <g id="patch_188">
    <path d="M 399.2544 293.76 
L 405.3216 293.76 
L 405.3216 288.384728 
L 399.2544 288.384728 
z
" clip-path="url(#pc7307cb8ab)" style="fill: #ffe4e1"/>
   </g>
   <g id="patch_189">
    <path d="M 406.8384 293.76 
L 412.9056 293.76 
L 412.9056 287.671984 
L 406.8384 287.671984 
z
" clip-path="url(#pc7307cb8ab)" style="fill: #ffe4e1"/>
   </g>
   <g id="patch_190">
    <path d="M 414.4224 293.76 
L 420.4896 293.76 
L 420.4896 289.810214 
L 414.4224 289.810214 
z
" clip-path="url(#pc7307cb8ab)" style="fill: #ffe4e1"/>
   </g>
   <g id="patch_191">
    <path d="M 422.0064 293.76 
L 428.0736 293.76 
L 428.0736 289.810214 
L 422.0064 289.810214 
z
" clip-path="url(#pc7307cb8ab)" style="fill: #ffe4e1"/>
   </g>
   <g id="patch_192">
    <path d="M 429.5904 293.76 
L 435.6576 293.76 
L 435.6576 290.136888 
L 429.5904 290.136888 
z
" clip-path="url(#pc7307cb8ab)" style="fill: #ffe4e1"/>
   </g>
   <g id="patch_193">
    <path d="M 437.1744 293.76 
L 443.2416 293.76 
L 443.2416 290.107191 
L 437.1744 290.107191 
z
" clip-path="url(#pc7307cb8ab)" style="fill: #ffe4e1"/>
   </g>
   <g id="patch_194">
    <path d="M 444.7584 293.76 
L 450.8256 293.76 
L 450.8256 288.087751 
L 444.7584 288.087751 
z
" clip-path="url(#pc7307cb8ab)" style="fill: #ffe4e1"/>
   </g>
   <g id="matplotlib.axis_1">
    <g id="xtick_1">
     <g id="line2d_1">
      <path d="M 159.6 293.76 
L 159.6 6.912 
" clip-path="url(#pc7307cb8ab)" style="fill: none; stroke: #b0b0b0; stroke-width: 0.8; stroke-linecap: square"/>
     </g>
     <g id="line2d_2">
      <defs>
       <path id="mccf0ca650b" d="M 0 0 
L 0 3.5 
" style="stroke: #000000; stroke-width: 0.8"/>
      </defs>
      <g>
       <use xlink:href="#mccf0ca650b" x="159.6" y="293.76" style="stroke: #000000; stroke-width: 0.8"/>
      </g>
     </g>
     <g id="text_1">
      <!-- 10 -->
      <g transform="translate(146.875 315.956875) scale(0.2 -0.2)">
       <defs>
        <path id="DejaVuSans-31" d="M 794 531 
L 1825 531 
L 1825 4091 
L 703 3866 
L 703 4441 
L 1819 4666 
L 2450 4666 
L 2450 531 
L 3481 531 
L 3481 0 
L 794 0 
L 794 531 
z
" transform="scale(0.015625)"/>
        <path id="DejaVuSans-30" d="M 2034 4250 
Q 1547 4250 1301 3770 
Q 1056 3291 1056 2328 
Q 1056 1369 1301 889 
Q 1547 409 2034 409 
Q 2525 409 2770 889 
Q 3016 1369 3016 2328 
Q 3016 3291 2770 3770 
Q 2525 4250 2034 4250 
z
M 2034 4750 
Q 2819 4750 3233 4129 
Q 3647 3509 3647 2328 
Q 3647 1150 3233 529 
Q 2819 -91 2034 -91 
Q 1250 -91 836 529 
Q 422 1150 422 2328 
Q 422 3509 836 4129 
Q 1250 4750 2034 4750 
z
" transform="scale(0.015625)"/>
       </defs>
       <use xlink:href="#DejaVuSans-31"/>
       <use xlink:href="#DejaVuSans-30" x="63.623047"/>
      </g>
     </g>
    </g>
    <g id="xtick_2">
     <g id="line2d_3">
      <path d="M 235.44 293.76 
L 235.44 6.912 
" clip-path="url(#pc7307cb8ab)" style="fill: none; stroke: #b0b0b0; stroke-width: 0.8; stroke-linecap: square"/>
     </g>
     <g id="line2d_4">
      <g>
       <use xlink:href="#mccf0ca650b" x="235.44" y="293.76" style="stroke: #000000; stroke-width: 0.8"/>
      </g>
     </g>
     <g id="text_2">
      <!-- 20 -->
      <g transform="translate(222.715 315.956875) scale(0.2 -0.2)">
       <defs>
        <path id="DejaVuSans-32" d="M 1228 531 
L 3431 531 
L 3431 0 
L 469 0 
L 469 531 
Q 828 903 1448 1529 
Q 2069 2156 2228 2338 
Q 2531 2678 2651 2914 
Q 2772 3150 2772 3378 
Q 2772 3750 2511 3984 
Q 2250 4219 1831 4219 
Q 1534 4219 1204 4116 
Q 875 4013 500 3803 
L 500 4441 
Q 881 4594 1212 4672 
Q 1544 4750 1819 4750 
Q 2544 4750 2975 4387 
Q 3406 4025 3406 3419 
Q 3406 3131 3298 2873 
Q 3191 2616 2906 2266 
Q 2828 2175 2409 1742 
Q 1991 1309 1228 531 
z
" transform="scale(0.015625)"/>
       </defs>
       <use xlink:href="#DejaVuSans-32"/>
       <use xlink:href="#DejaVuSans-30" x="63.623047"/>
      </g>
     </g>
    </g>
    <g id="xtick_3">
     <g id="line2d_5">
      <path d="M 311.28 293.76 
L 311.28 6.912 
" clip-path="url(#pc7307cb8ab)" style="fill: none; stroke: #b0b0b0; stroke-width: 0.8; stroke-linecap: square"/>
     </g>
     <g id="line2d_6">
      <g>
       <use xlink:href="#mccf0ca650b" x="311.28" y="293.76" style="stroke: #000000; stroke-width: 0.8"/>
      </g>
     </g>
     <g id="text_3">
      <!-- 30 -->
      <g transform="translate(298.555 315.956875) scale(0.2 -0.2)">
       <defs>
        <path id="DejaVuSans-33" d="M 2597 2516 
Q 3050 2419 3304 2112 
Q 3559 1806 3559 1356 
Q 3559 666 3084 287 
Q 2609 -91 1734 -91 
Q 1441 -91 1130 -33 
Q 819 25 488 141 
L 488 750 
Q 750 597 1062 519 
Q 1375 441 1716 441 
Q 2309 441 2620 675 
Q 2931 909 2931 1356 
Q 2931 1769 2642 2001 
Q 2353 2234 1838 2234 
L 1294 2234 
L 1294 2753 
L 1863 2753 
Q 2328 2753 2575 2939 
Q 2822 3125 2822 3475 
Q 2822 3834 2567 4026 
Q 2313 4219 1838 4219 
Q 1578 4219 1281 4162 
Q 984 4106 628 3988 
L 628 4550 
Q 988 4650 1302 4700 
Q 1616 4750 1894 4750 
Q 2613 4750 3031 4423 
Q 3450 4097 3450 3541 
Q 3450 3153 3228 2886 
Q 3006 2619 2597 2516 
z
" transform="scale(0.015625)"/>
       </defs>
       <use xlink:href="#DejaVuSans-33"/>
       <use xlink:href="#DejaVuSans-30" x="63.623047"/>
      </g>
     </g>
    </g>
    <g id="xtick_4">
     <g id="line2d_7">
      <path d="M 387.12 293.76 
L 387.12 6.912 
" clip-path="url(#pc7307cb8ab)" style="fill: none; stroke: #b0b0b0; stroke-width: 0.8; stroke-linecap: square"/>
     </g>
     <g id="line2d_8">
      <g>
       <use xlink:href="#mccf0ca650b" x="387.12" y="293.76" style="stroke: #000000; stroke-width: 0.8"/>
      </g>
     </g>
     <g id="text_4">
      <!-- 40 -->
      <g transform="translate(374.395 315.956875) scale(0.2 -0.2)">
       <defs>
        <path id="DejaVuSans-34" d="M 2419 4116 
L 825 1625 
L 2419 1625 
L 2419 4116 
z
M 2253 4666 
L 3047 4666 
L 3047 1625 
L 3713 1625 
L 3713 1100 
L 3047 1100 
L 3047 0 
L 2419 0 
L 2419 1100 
L 313 1100 
L 313 1709 
L 2253 4666 
z
" transform="scale(0.015625)"/>
       </defs>
       <use xlink:href="#DejaVuSans-34"/>
       <use xlink:href="#DejaVuSans-30" x="63.623047"/>
      </g>
     </g>
    </g>
    <g id="text_5">
     <!-- batch iteration -->
     <g transform="translate(203.277375 337.793437) scale(0.18 -0.18)">
      <defs>
       <path id="DejaVuSans-62" d="M 3116 1747 
Q 3116 2381 2855 2742 
Q 2594 3103 2138 3103 
Q 1681 3103 1420 2742 
Q 1159 2381 1159 1747 
Q 1159 1113 1420 752 
Q 1681 391 2138 391 
Q 2594 391 2855 752 
Q 3116 1113 3116 1747 
z
M 1159 2969 
Q 1341 3281 1617 3432 
Q 1894 3584 2278 3584 
Q 2916 3584 3314 3078 
Q 3713 2572 3713 1747 
Q 3713 922 3314 415 
Q 2916 -91 2278 -91 
Q 1894 -91 1617 61 
Q 1341 213 1159 525 
L 1159 0 
L 581 0 
L 581 4863 
L 1159 4863 
L 1159 2969 
z
" transform="scale(0.015625)"/>
       <path id="DejaVuSans-61" d="M 2194 1759 
Q 1497 1759 1228 1600 
Q 959 1441 959 1056 
Q 959 750 1161 570 
Q 1363 391 1709 391 
Q 2188 391 2477 730 
Q 2766 1069 2766 1631 
L 2766 1759 
L 2194 1759 
z
M 3341 1997 
L 3341 0 
L 2766 0 
L 2766 531 
Q 2569 213 2275 61 
Q 1981 -91 1556 -91 
Q 1019 -91 701 211 
Q 384 513 384 1019 
Q 384 1609 779 1909 
Q 1175 2209 1959 2209 
L 2766 2209 
L 2766 2266 
Q 2766 2663 2505 2880 
Q 2244 3097 1772 3097 
Q 1472 3097 1187 3025 
Q 903 2953 641 2809 
L 641 3341 
Q 956 3463 1253 3523 
Q 1550 3584 1831 3584 
Q 2591 3584 2966 3190 
Q 3341 2797 3341 1997 
z
" transform="scale(0.015625)"/>
       <path id="DejaVuSans-74" d="M 1172 4494 
L 1172 3500 
L 2356 3500 
L 2356 3053 
L 1172 3053 
L 1172 1153 
Q 1172 725 1289 603 
Q 1406 481 1766 481 
L 2356 481 
L 2356 0 
L 1766 0 
Q 1100 0 847 248 
Q 594 497 594 1153 
L 594 3053 
L 172 3053 
L 172 3500 
L 594 3500 
L 594 4494 
L 1172 4494 
z
" transform="scale(0.015625)"/>
       <path id="DejaVuSans-63" d="M 3122 3366 
L 3122 2828 
Q 2878 2963 2633 3030 
Q 2388 3097 2138 3097 
Q 1578 3097 1268 2742 
Q 959 2388 959 1747 
Q 959 1106 1268 751 
Q 1578 397 2138 397 
Q 2388 397 2633 464 
Q 2878 531 3122 666 
L 3122 134 
Q 2881 22 2623 -34 
Q 2366 -91 2075 -91 
Q 1284 -91 818 406 
Q 353 903 353 1747 
Q 353 2603 823 3093 
Q 1294 3584 2113 3584 
Q 2378 3584 2631 3529 
Q 2884 3475 3122 3366 
z
" transform="scale(0.015625)"/>
       <path id="DejaVuSans-68" d="M 3513 2113 
L 3513 0 
L 2938 0 
L 2938 2094 
Q 2938 2591 2744 2837 
Q 2550 3084 2163 3084 
Q 1697 3084 1428 2787 
Q 1159 2491 1159 1978 
L 1159 0 
L 581 0 
L 581 4863 
L 1159 4863 
L 1159 2956 
Q 1366 3272 1645 3428 
Q 1925 3584 2291 3584 
Q 2894 3584 3203 3211 
Q 3513 2838 3513 2113 
z
" transform="scale(0.015625)"/>
       <path id="DejaVuSans-20" transform="scale(0.015625)"/>
       <path id="DejaVuSans-69" d="M 603 3500 
L 1178 3500 
L 1178 0 
L 603 0 
L 603 3500 
z
M 603 4863 
L 1178 4863 
L 1178 4134 
L 603 4134 
L 603 4863 
z
" transform="scale(0.015625)"/>
       <path id="DejaVuSans-65" d="M 3597 1894 
L 3597 1613 
L 953 1613 
Q 991 1019 1311 708 
Q 1631 397 2203 397 
Q 2534 397 2845 478 
Q 3156 559 3463 722 
L 3463 178 
Q 3153 47 2828 -22 
Q 2503 -91 2169 -91 
Q 1331 -91 842 396 
Q 353 884 353 1716 
Q 353 2575 817 3079 
Q 1281 3584 2069 3584 
Q 2775 3584 3186 3129 
Q 3597 2675 3597 1894 
z
M 3022 2063 
Q 3016 2534 2758 2815 
Q 2500 3097 2075 3097 
Q 1594 3097 1305 2825 
Q 1016 2553 972 2059 
L 3022 2063 
z
" transform="scale(0.015625)"/>
       <path id="DejaVuSans-72" d="M 2631 2963 
Q 2534 3019 2420 3045 
Q 2306 3072 2169 3072 
Q 1681 3072 1420 2755 
Q 1159 2438 1159 1844 
L 1159 0 
L 581 0 
L 581 3500 
L 1159 3500 
L 1159 2956 
Q 1341 3275 1631 3429 
Q 1922 3584 2338 3584 
Q 2397 3584 2469 3576 
Q 2541 3569 2628 3553 
L 2631 2963 
z
" transform="scale(0.015625)"/>
       <path id="DejaVuSans-6f" d="M 1959 3097 
Q 1497 3097 1228 2736 
Q 959 2375 959 1747 
Q 959 1119 1226 758 
Q 1494 397 1959 397 
Q 2419 397 2687 759 
Q 2956 1122 2956 1747 
Q 2956 2369 2687 2733 
Q 2419 3097 1959 3097 
z
M 1959 3584 
Q 2709 3584 3137 3096 
Q 3566 2609 3566 1747 
Q 3566 888 3137 398 
Q 2709 -91 1959 -91 
Q 1206 -91 779 398 
Q 353 888 353 1747 
Q 353 2609 779 3096 
Q 1206 3584 1959 3584 
z
" transform="scale(0.015625)"/>
       <path id="DejaVuSans-6e" d="M 3513 2113 
L 3513 0 
L 2938 0 
L 2938 2094 
Q 2938 2591 2744 2837 
Q 2550 3084 2163 3084 
Q 1697 3084 1428 2787 
Q 1159 2491 1159 1978 
L 1159 0 
L 581 0 
L 581 3500 
L 1159 3500 
L 1159 2956 
Q 1366 3272 1645 3428 
Q 1925 3584 2291 3584 
Q 2894 3584 3203 3211 
Q 3513 2838 3513 2113 
z
" transform="scale(0.015625)"/>
      </defs>
      <use xlink:href="#DejaVuSans-62"/>
      <use xlink:href="#DejaVuSans-61" x="63.476562"/>
      <use xlink:href="#DejaVuSans-74" x="124.755859"/>
      <use xlink:href="#DejaVuSans-63" x="163.964844"/>
      <use xlink:href="#DejaVuSans-68" x="218.945312"/>
      <use xlink:href="#DejaVuSans-20" x="282.324219"/>
      <use xlink:href="#DejaVuSans-69" x="314.111328"/>
      <use xlink:href="#DejaVuSans-74" x="341.894531"/>
      <use xlink:href="#DejaVuSans-65" x="381.103516"/>
      <use xlink:href="#DejaVuSans-72" x="442.626953"/>
      <use xlink:href="#DejaVuSans-61" x="483.740234"/>
      <use xlink:href="#DejaVuSans-74" x="545.019531"/>
      <use xlink:href="#DejaVuSans-69" x="584.228516"/>
      <use xlink:href="#DejaVuSans-6f" x="612.011719"/>
      <use xlink:href="#DejaVuSans-6e" x="673.193359"/>
     </g>
    </g>
   </g>
   <g id="matplotlib.axis_2">
    <g id="ytick_1">
     <g id="line2d_9">
      <path d="M 87.552 293.76 
L 451.584 293.76 
" clip-path="url(#pc7307cb8ab)" style="fill: none; stroke: #b0b0b0; stroke-width: 0.8; stroke-linecap: square"/>
     </g>
     <g id="line2d_10">
      <defs>
       <path id="me857186d07" d="M 0 0 
L -3.5 0 
" style="stroke: #000000; stroke-width: 0.8"/>
      </defs>
      <g>
       <use xlink:href="#me857186d07" x="87.552" y="293.76" style="stroke: #000000; stroke-width: 0.8"/>
      </g>
     </g>
     <g id="text_6">
      <!-- 0.00 -->
      <g transform="translate(36.02075 301.358437) scale(0.2 -0.2)">
       <defs>
        <path id="DejaVuSans-2e" d="M 684 794 
L 1344 794 
L 1344 0 
L 684 0 
L 684 794 
z
" transform="scale(0.015625)"/>
       </defs>
       <use xlink:href="#DejaVuSans-30"/>
       <use xlink:href="#DejaVuSans-2e" x="63.623047"/>
       <use xlink:href="#DejaVuSans-30" x="95.410156"/>
       <use xlink:href="#DejaVuSans-30" x="159.033203"/>
      </g>
     </g>
    </g>
    <g id="ytick_2">
     <g id="line2d_11">
      <path d="M 87.552 219.515905 
L 451.584 219.515905 
" clip-path="url(#pc7307cb8ab)" style="fill: none; stroke: #b0b0b0; stroke-width: 0.8; stroke-linecap: square"/>
     </g>
     <g id="line2d_12">
      <g>
       <use xlink:href="#me857186d07" x="87.552" y="219.515905" style="stroke: #000000; stroke-width: 0.8"/>
      </g>
     </g>
     <g id="text_7">
      <!-- 0.05 -->
      <g transform="translate(36.02075 227.114343) scale(0.2 -0.2)">
       <defs>
        <path id="DejaVuSans-35" d="M 691 4666 
L 3169 4666 
L 3169 4134 
L 1269 4134 
L 1269 2991 
Q 1406 3038 1543 3061 
Q 1681 3084 1819 3084 
Q 2600 3084 3056 2656 
Q 3513 2228 3513 1497 
Q 3513 744 3044 326 
Q 2575 -91 1722 -91 
Q 1428 -91 1123 -41 
Q 819 9 494 109 
L 494 744 
Q 775 591 1075 516 
Q 1375 441 1709 441 
Q 2250 441 2565 725 
Q 2881 1009 2881 1497 
Q 2881 1984 2565 2268 
Q 2250 2553 1709 2553 
Q 1456 2553 1204 2497 
Q 953 2441 691 2322 
L 691 4666 
z
" transform="scale(0.015625)"/>
       </defs>
       <use xlink:href="#DejaVuSans-30"/>
       <use xlink:href="#DejaVuSans-2e" x="63.623047"/>
       <use xlink:href="#DejaVuSans-30" x="95.410156"/>
       <use xlink:href="#DejaVuSans-35" x="159.033203"/>
      </g>
     </g>
    </g>
    <g id="ytick_3">
     <g id="line2d_13">
      <path d="M 87.552 145.27181 
L 451.584 145.27181 
" clip-path="url(#pc7307cb8ab)" style="fill: none; stroke: #b0b0b0; stroke-width: 0.8; stroke-linecap: square"/>
     </g>
     <g id="line2d_14">
      <g>
       <use xlink:href="#me857186d07" x="87.552" y="145.27181" style="stroke: #000000; stroke-width: 0.8"/>
      </g>
     </g>
     <g id="text_8">
      <!-- 0.10 -->
      <g transform="translate(36.02075 152.870248) scale(0.2 -0.2)">
       <use xlink:href="#DejaVuSans-30"/>
       <use xlink:href="#DejaVuSans-2e" x="63.623047"/>
       <use xlink:href="#DejaVuSans-31" x="95.410156"/>
       <use xlink:href="#DejaVuSans-30" x="159.033203"/>
      </g>
     </g>
    </g>
    <g id="ytick_4">
     <g id="line2d_15">
      <path d="M 87.552 71.027715 
L 451.584 71.027715 
" clip-path="url(#pc7307cb8ab)" style="fill: none; stroke: #b0b0b0; stroke-width: 0.8; stroke-linecap: square"/>
     </g>
     <g id="line2d_16">
      <g>
       <use xlink:href="#me857186d07" x="87.552" y="71.027715" style="stroke: #000000; stroke-width: 0.8"/>
      </g>
     </g>
     <g id="text_9">
      <!-- 0.15 -->
      <g transform="translate(36.02075 78.626153) scale(0.2 -0.2)">
       <use xlink:href="#DejaVuSans-30"/>
       <use xlink:href="#DejaVuSans-2e" x="63.623047"/>
       <use xlink:href="#DejaVuSans-31" x="95.410156"/>
       <use xlink:href="#DejaVuSans-35" x="159.033203"/>
      </g>
     </g>
    </g>
    <g id="text_10">
     <!-- time[s] -->
     <g transform="translate(28.277313 182.380219) rotate(-90) scale(0.18 -0.18)">
      <defs>
       <path id="DejaVuSans-6d" d="M 3328 2828 
Q 3544 3216 3844 3400 
Q 4144 3584 4550 3584 
Q 5097 3584 5394 3201 
Q 5691 2819 5691 2113 
L 5691 0 
L 5113 0 
L 5113 2094 
Q 5113 2597 4934 2840 
Q 4756 3084 4391 3084 
Q 3944 3084 3684 2787 
Q 3425 2491 3425 1978 
L 3425 0 
L 2847 0 
L 2847 2094 
Q 2847 2600 2669 2842 
Q 2491 3084 2119 3084 
Q 1678 3084 1418 2786 
Q 1159 2488 1159 1978 
L 1159 0 
L 581 0 
L 581 3500 
L 1159 3500 
L 1159 2956 
Q 1356 3278 1631 3431 
Q 1906 3584 2284 3584 
Q 2666 3584 2933 3390 
Q 3200 3197 3328 2828 
z
" transform="scale(0.015625)"/>
       <path id="DejaVuSans-5b" d="M 550 4863 
L 1875 4863 
L 1875 4416 
L 1125 4416 
L 1125 -397 
L 1875 -397 
L 1875 -844 
L 550 -844 
L 550 4863 
z
" transform="scale(0.015625)"/>
       <path id="DejaVuSans-73" d="M 2834 3397 
L 2834 2853 
Q 2591 2978 2328 3040 
Q 2066 3103 1784 3103 
Q 1356 3103 1142 2972 
Q 928 2841 928 2578 
Q 928 2378 1081 2264 
Q 1234 2150 1697 2047 
L 1894 2003 
Q 2506 1872 2764 1633 
Q 3022 1394 3022 966 
Q 3022 478 2636 193 
Q 2250 -91 1575 -91 
Q 1294 -91 989 -36 
Q 684 19 347 128 
L 347 722 
Q 666 556 975 473 
Q 1284 391 1588 391 
Q 1994 391 2212 530 
Q 2431 669 2431 922 
Q 2431 1156 2273 1281 
Q 2116 1406 1581 1522 
L 1381 1569 
Q 847 1681 609 1914 
Q 372 2147 372 2553 
Q 372 3047 722 3315 
Q 1072 3584 1716 3584 
Q 2034 3584 2315 3537 
Q 2597 3491 2834 3397 
z
" transform="scale(0.015625)"/>
       <path id="DejaVuSans-5d" d="M 1947 4863 
L 1947 -844 
L 622 -844 
L 622 -397 
L 1369 -397 
L 1369 4416 
L 622 4416 
L 622 4863 
L 1947 4863 
z
" transform="scale(0.015625)"/>
      </defs>
      <use xlink:href="#DejaVuSans-74"/>
      <use xlink:href="#DejaVuSans-69" x="39.208984"/>
      <use xlink:href="#DejaVuSans-6d" x="66.992188"/>
      <use xlink:href="#DejaVuSans-65" x="164.404297"/>
      <use xlink:href="#DejaVuSans-5b" x="225.927734"/>
      <use xlink:href="#DejaVuSans-73" x="264.941406"/>
      <use xlink:href="#DejaVuSans-5d" x="317.041016"/>
     </g>
    </g>
   </g>
   <g id="patch_195">
    <path d="M 87.552 293.76 
L 87.552 6.912 
" style="fill: none; stroke: #000000; stroke-width: 0.8; stroke-linejoin: miter; stroke-linecap: square"/>
   </g>
   <g id="patch_196">
    <path d="M 451.584 293.76 
L 451.584 6.912 
" style="fill: none; stroke: #000000; stroke-width: 0.8; stroke-linejoin: miter; stroke-linecap: square"/>
   </g>
   <g id="patch_197">
    <path d="M 87.552 293.76 
L 451.584 293.76 
" style="fill: none; stroke: #000000; stroke-width: 0.8; stroke-linejoin: miter; stroke-linecap: square"/>
   </g>
   <g id="patch_198">
    <path d="M 87.552 6.912 
L 451.584 6.912 
" style="fill: none; stroke: #000000; stroke-width: 0.8; stroke-linejoin: miter; stroke-linecap: square"/>
   </g>
  </g>
 </g>
 <defs>
  <clipPath id="pc7307cb8ab">
   <rect x="87.552" y="6.912" width="364.032" height="286.848"/>
  </clipPath>
 </defs>
</svg>
