<?xml version="1.0" encoding="utf-8" standalone="no"?>
<!DOCTYPE svg PUBLIC "-//W3C//DTD SVG 1.1//EN"
  "http://www.w3.org/Graphics/SVG/1.1/DTD/svg11.dtd">
<svg xmlns:xlink="http://www.w3.org/1999/xlink" width="460.8pt" height="345.6pt" viewBox="0 0 460.8 345.6" xmlns="http://www.w3.org/2000/svg" version="1.1">
 <metadata>
  <rdf:RDF xmlns:dc="http://purl.org/dc/elements/1.1/" xmlns:cc="http://creativecommons.org/ns#" xmlns:rdf="http://www.w3.org/1999/02/22-rdf-syntax-ns#">
   <cc:Work>
    <dc:type rdf:resource="http://purl.org/dc/dcmitype/StillImage"/>
    <dc:date>2024-01-24T05:45:12.874448</dc:date>
    <dc:format>image/svg+xml</dc:format>
    <dc:creator>
     <cc:Agent>
      <dc:title>Matplotlib v3.7.0, https://matplotlib.org/</dc:title>
     </cc:Agent>
    </dc:creator>
   </cc:Work>
  </rdf:RDF>
 </metadata>
 <defs>
  <style type="text/css">*{stroke-linejoin: round; stroke-linecap: butt}</style>
 </defs>
 <g id="figure_1">
  <g id="patch_1">
   <path d="M 0 345.6 
L 460.8 345.6 
L 460.8 0 
L 0 0 
L 0 345.6 
z
" style="fill: none"/>
  </g>
  <g id="axes_1">
   <g id="patch_2">
    <path d="M 87.552 293.76 
L 451.584 293.76 
L 451.584 6.912 
L 87.552 6.912 
L 87.552 293.76 
z
" style="fill: none"/>
   </g>
   <g id="patch_3">
    <path d="M 88.3104 237.233943 
L 94.3776 237.233943 
L 94.3776 87.781532 
L 88.3104 87.781532 
z
" clip-path="url(#p10d8649240)" style="fill: #800000"/>
   </g>
   <g id="patch_4">
    <path d="M 95.8944 236.240078 
L 101.9616 236.240078 
L 101.9616 89.893494 
L 95.8944 89.893494 
z
" clip-path="url(#p10d8649240)" style="fill: #800000"/>
   </g>
   <g id="patch_5">
    <path d="M 103.4784 239.594371 
L 109.5456 239.594371 
L 109.5456 92.875089 
L 103.4784 92.875089 
z
" clip-path="url(#p10d8649240)" style="fill: #800000"/>
   </g>
   <g id="patch_6">
    <path d="M 111.0624 237.233943 
L 117.1296 237.233943 
L 117.1296 90.017728 
L 111.0624 90.017728 
z
" clip-path="url(#p10d8649240)" style="fill: #800000"/>
   </g>
   <g id="patch_7">
    <path d="M 118.6464 238.973206 
L 124.7136 238.973206 
L 124.7136 91.508525 
L 118.6464 91.508525 
z
" clip-path="url(#p10d8649240)" style="fill: #800000"/>
   </g>
   <g id="patch_8">
    <path d="M 126.2304 236.612777 
L 132.2976 236.612777 
L 132.2976 93.496254 
L 126.2304 93.496254 
z
" clip-path="url(#p10d8649240)" style="fill: #800000"/>
   </g>
   <g id="patch_9">
    <path d="M 133.8144 236.488544 
L 139.8816 236.488544 
L 139.8816 93.74472 
L 133.8144 93.74472 
z
" clip-path="url(#p10d8649240)" style="fill: #800000"/>
   </g>
   <g id="patch_10">
    <path d="M 141.3984 237.233943 
L 147.4656 237.233943 
L 147.4656 91.508525 
L 141.3984 91.508525 
z
" clip-path="url(#p10d8649240)" style="fill: #800000"/>
   </g>
   <g id="patch_11">
    <path d="M 148.9824 240.960935 
L 155.0496 240.960935 
L 155.0496 94.862818 
L 148.9824 94.862818 
z
" clip-path="url(#p10d8649240)" style="fill: #800000"/>
   </g>
   <g id="patch_12">
    <path d="M 156.5664 233.879649 
L 162.6336 233.879649 
L 162.6336 46.908844 
L 156.5664 46.908844 
z
" clip-path="url(#p10d8649240)" style="fill: #800000"/>
   </g>
   <g id="patch_13">
    <path d="M 164.1504 232.885784 
L 170.2176 232.885784 
L 170.2176 86.042269 
L 164.1504 86.042269 
z
" clip-path="url(#p10d8649240)" style="fill: #800000"/>
   </g>
   <g id="patch_14">
    <path d="M 171.7344 240.836702 
L 177.8016 240.836702 
L 177.8016 93.620487 
L 171.7344 93.620487 
z
" clip-path="url(#p10d8649240)" style="fill: #800000"/>
   </g>
   <g id="patch_15">
    <path d="M 179.3184 220.338242 
L 185.3856 220.338242 
L 185.3856 75.109756 
L 179.3184 75.109756 
z
" clip-path="url(#p10d8649240)" style="fill: #800000"/>
   </g>
   <g id="patch_16">
    <path d="M 186.9024 234.749281 
L 192.9696 234.749281 
L 192.9696 92.502389 
L 186.9024 92.502389 
z
" clip-path="url(#p10d8649240)" style="fill: #800000"/>
   </g>
   <g id="patch_17">
    <path d="M 194.4864 242.575966 
L 200.5536 242.575966 
L 200.5536 88.52693 
L 194.4864 88.52693 
z
" clip-path="url(#p10d8649240)" style="fill: #800000"/>
   </g>
   <g id="patch_18">
    <path d="M 202.0704 232.264619 
L 208.1376 232.264619 
L 208.1376 81.569877 
L 202.0704 81.569877 
z
" clip-path="url(#p10d8649240)" style="fill: #800000"/>
   </g>
   <g id="patch_19">
    <path d="M 209.6544 227.295295 
L 215.7216 227.295295 
L 215.7216 82.191043 
L 209.6544 82.191043 
z
" clip-path="url(#p10d8649240)" style="fill: #800000"/>
   </g>
   <g id="patch_20">
    <path d="M 217.2384 214.747753 
L 223.3056 214.747753 
L 223.3056 71.382764 
L 217.2384 71.382764 
z
" clip-path="url(#p10d8649240)" style="fill: #800000"/>
   </g>
   <g id="patch_21">
    <path d="M 224.8224 219.717077 
L 230.8896 219.717077 
L 230.8896 68.276936 
L 224.8224 68.276936 
z
" clip-path="url(#p10d8649240)" style="fill: #800000"/>
   </g>
   <g id="patch_22">
    <path d="M 232.4064 228.164927 
L 238.4736 228.164927 
L 238.4736 78.960982 
L 232.4064 78.960982 
z
" clip-path="url(#p10d8649240)" style="fill: #800000"/>
   </g>
   <g id="patch_23">
    <path d="M 239.9904 232.513085 
L 246.0576 232.513085 
L 246.0576 67.531538 
L 239.9904 67.531538 
z
" clip-path="url(#p10d8649240)" style="fill: #800000"/>
   </g>
   <g id="patch_24">
    <path d="M 247.5744 238.103574 
L 253.6416 238.103574 
L 253.6416 88.651164 
L 247.5744 88.651164 
z
" clip-path="url(#p10d8649240)" style="fill: #800000"/>
   </g>
   <g id="patch_25">
    <path d="M 255.1584 236.115845 
L 261.2256 236.115845 
L 261.2256 50.387371 
L 255.1584 50.387371 
z
" clip-path="url(#p10d8649240)" style="fill: #800000"/>
   </g>
   <g id="patch_26">
    <path d="M 262.7424 235.991612 
L 268.8096 235.991612 
L 268.8096 92.005457 
L 262.7424 92.005457 
z
" clip-path="url(#p10d8649240)" style="fill: #800000"/>
   </g>
   <g id="patch_27">
    <path d="M 270.3264 234.997747 
L 276.3936 234.997747 
L 276.3936 85.793802 
L 270.3264 85.793802 
z
" clip-path="url(#p10d8649240)" style="fill: #800000"/>
   </g>
   <g id="patch_28">
    <path d="M 277.9104 218.723212 
L 283.9776 218.723212 
L 283.9776 60.201785 
L 277.9104 60.201785 
z
" clip-path="url(#p10d8649240)" style="fill: #800000"/>
   </g>
   <g id="patch_29">
    <path d="M 285.4944 228.164927 
L 291.5616 228.164927 
L 291.5616 57.344424 
L 285.4944 57.344424 
z
" clip-path="url(#p10d8649240)" style="fill: #800000"/>
   </g>
   <g id="patch_30">
    <path d="M 293.0784 237.482409 
L 299.1456 237.482409 
L 299.1456 93.372021 
L 293.0784 93.372021 
z
" clip-path="url(#p10d8649240)" style="fill: #800000"/>
   </g>
   <g id="patch_31">
    <path d="M 300.6624 213.256956 
L 306.7296 213.256956 
L 306.7296 66.910372 
L 300.6624 66.910372 
z
" clip-path="url(#p10d8649240)" style="fill: #800000"/>
   </g>
   <g id="patch_32">
    <path d="M 308.2464 228.786092 
L 314.3136 228.786092 
L 314.3136 84.303005 
L 308.2464 84.303005 
z
" clip-path="url(#p10d8649240)" style="fill: #800000"/>
   </g>
   <g id="patch_33">
    <path d="M 315.8304 228.164927 
L 321.8976 228.164927 
L 321.8976 83.309141 
L 315.8304 83.309141 
z
" clip-path="url(#p10d8649240)" style="fill: #800000"/>
   </g>
   <g id="patch_34">
    <path d="M 323.4144 213.132723 
L 329.4816 213.132723 
L 329.4816 67.407305 
L 323.4144 67.407305 
z
" clip-path="url(#p10d8649240)" style="fill: #800000"/>
   </g>
   <g id="patch_35">
    <path d="M 330.9984 215.990084 
L 337.0656 215.990084 
L 337.0656 59.953319 
L 330.9984 59.953319 
z
" clip-path="url(#p10d8649240)" style="fill: #800000"/>
   </g>
   <g id="patch_36">
    <path d="M 338.5824 202.20021 
L 344.6496 202.20021 
L 344.6496 58.959454 
L 338.5824 58.959454 
z
" clip-path="url(#p10d8649240)" style="fill: #800000"/>
   </g>
   <g id="patch_37">
    <path d="M 346.1664 210.275362 
L 352.2336 210.275362 
L 352.2336 69.022335 
L 346.1664 69.022335 
z
" clip-path="url(#p10d8649240)" style="fill: #800000"/>
   </g>
   <g id="patch_38">
    <path d="M 353.7504 233.010018 
L 359.8176 233.010018 
L 359.8176 90.887359 
L 353.7504 90.887359 
z
" clip-path="url(#p10d8649240)" style="fill: #800000"/>
   </g>
   <g id="patch_39">
    <path d="M 361.3344 234.252348 
L 367.4016 234.252348 
L 367.4016 91.508525 
L 361.3344 91.508525 
z
" clip-path="url(#p10d8649240)" style="fill: #800000"/>
   </g>
   <g id="patch_40">
    <path d="M 368.9184 216.487016 
L 374.9856 216.487016 
L 374.9856 71.506997 
L 368.9184 71.506997 
z
" clip-path="url(#p10d8649240)" style="fill: #800000"/>
   </g>
   <g id="patch_41">
    <path d="M 376.5024 235.370446 
L 382.5696 235.370446 
L 382.5696 89.893494 
L 376.5024 89.893494 
z
" clip-path="url(#p10d8649240)" style="fill: #800000"/>
   </g>
   <g id="patch_42">
    <path d="M 384.0864 232.761551 
L 390.1536 232.761551 
L 390.1536 86.166502 
L 384.0864 86.166502 
z
" clip-path="url(#p10d8649240)" style="fill: #800000"/>
   </g>
   <g id="patch_43">
    <path d="M 391.6704 235.370446 
L 397.7376 235.370446 
L 397.7376 89.520795 
L 391.6704 89.520795 
z
" clip-path="url(#p10d8649240)" style="fill: #800000"/>
   </g>
   <g id="patch_44">
    <path d="M 399.2544 214.62352 
L 405.3216 214.62352 
L 405.3216 68.401169 
L 399.2544 68.401169 
z
" clip-path="url(#p10d8649240)" style="fill: #800000"/>
   </g>
   <g id="patch_45">
    <path d="M 406.8384 211.144993 
L 412.9056 211.144993 
L 412.9056 20.571429 
L 406.8384 20.571429 
z
" clip-path="url(#p10d8649240)" style="fill: #800000"/>
   </g>
   <g id="patch_46">
    <path d="M 414.4224 232.513085 
L 420.4896 232.513085 
L 420.4896 86.042269 
L 414.4224 86.042269 
z
" clip-path="url(#p10d8649240)" style="fill: #800000"/>
   </g>
   <g id="patch_47">
    <path d="M 422.0064 232.388852 
L 428.0736 232.388852 
L 428.0736 84.551471 
L 422.0064 84.551471 
z
" clip-path="url(#p10d8649240)" style="fill: #800000"/>
   </g>
   <g id="patch_48">
    <path d="M 429.5904 229.779957 
L 435.6576 229.779957 
L 435.6576 76.103621 
L 429.5904 76.103621 
z
" clip-path="url(#p10d8649240)" style="fill: #800000"/>
   </g>
   <g id="patch_49">
    <path d="M 437.1744 234.997747 
L 443.2416 234.997747 
L 443.2416 86.042269 
L 437.1744 86.042269 
z
" clip-path="url(#p10d8649240)" style="fill: #800000"/>
   </g>
   <g id="patch_50">
    <path d="M 444.7584 216.859715 
L 450.8256 216.859715 
L 450.8256 68.773869 
L 444.7584 68.773869 
z
" clip-path="url(#p10d8649240)" style="fill: #800000"/>
   </g>
   <g id="patch_51">
    <path d="M 88.3104 239.345905 
L 94.3776 239.345905 
L 94.3776 237.233943 
L 88.3104 237.233943 
z
" clip-path="url(#p10d8649240)" style="fill: #a52a2a"/>
   </g>
   <g id="patch_52">
    <path d="M 95.8944 237.979341 
L 101.9616 237.979341 
L 101.9616 236.240078 
L 95.8944 236.240078 
z
" clip-path="url(#p10d8649240)" style="fill: #a52a2a"/>
   </g>
   <g id="patch_53">
    <path d="M 103.4784 241.333635 
L 109.5456 241.333635 
L 109.5456 239.594371 
L 103.4784 239.594371 
z
" clip-path="url(#p10d8649240)" style="fill: #a52a2a"/>
   </g>
   <g id="patch_54">
    <path d="M 111.0624 239.221672 
L 117.1296 239.221672 
L 117.1296 237.233943 
L 111.0624 237.233943 
z
" clip-path="url(#p10d8649240)" style="fill: #a52a2a"/>
   </g>
   <g id="patch_55">
    <path d="M 118.6464 241.085169 
L 124.7136 241.085169 
L 124.7136 238.973206 
L 118.6464 238.973206 
z
" clip-path="url(#p10d8649240)" style="fill: #a52a2a"/>
   </g>
   <g id="patch_56">
    <path d="M 126.2304 238.72474 
L 132.2976 238.72474 
L 132.2976 236.612777 
L 126.2304 236.612777 
z
" clip-path="url(#p10d8649240)" style="fill: #a52a2a"/>
   </g>
   <g id="patch_57">
    <path d="M 133.8144 238.600507 
L 139.8816 238.600507 
L 139.8816 236.488544 
L 133.8144 236.488544 
z
" clip-path="url(#p10d8649240)" style="fill: #a52a2a"/>
   </g>
   <g id="patch_58">
    <path d="M 141.3984 239.718605 
L 147.4656 239.718605 
L 147.4656 237.233943 
L 141.3984 237.233943 
z
" clip-path="url(#p10d8649240)" style="fill: #a52a2a"/>
   </g>
   <g id="patch_59">
    <path d="M 148.9824 243.072898 
L 155.0496 243.072898 
L 155.0496 240.960935 
L 148.9824 240.960935 
z
" clip-path="url(#p10d8649240)" style="fill: #a52a2a"/>
   </g>
   <g id="patch_60">
    <path d="M 156.5664 236.240078 
L 162.6336 236.240078 
L 162.6336 233.879649 
L 156.5664 233.879649 
z
" clip-path="url(#p10d8649240)" style="fill: #a52a2a"/>
   </g>
   <g id="patch_61">
    <path d="M 164.1504 234.873514 
L 170.2176 234.873514 
L 170.2176 232.885784 
L 164.1504 232.885784 
z
" clip-path="url(#p10d8649240)" style="fill: #a52a2a"/>
   </g>
   <g id="patch_62">
    <path d="M 171.7344 242.575966 
L 177.8016 242.575966 
L 177.8016 240.836702 
L 171.7344 240.836702 
z
" clip-path="url(#p10d8649240)" style="fill: #a52a2a"/>
   </g>
   <g id="patch_63">
    <path d="M 179.3184 222.325972 
L 185.3856 222.325972 
L 185.3856 220.338242 
L 179.3184 220.338242 
z
" clip-path="url(#p10d8649240)" style="fill: #a52a2a"/>
   </g>
   <g id="patch_64">
    <path d="M 186.9024 236.861243 
L 192.9696 236.861243 
L 192.9696 234.749281 
L 186.9024 234.749281 
z
" clip-path="url(#p10d8649240)" style="fill: #a52a2a"/>
   </g>
   <g id="patch_65">
    <path d="M 194.4864 244.687928 
L 200.5536 244.687928 
L 200.5536 242.575966 
L 194.4864 242.575966 
z
" clip-path="url(#p10d8649240)" style="fill: #a52a2a"/>
   </g>
   <g id="patch_66">
    <path d="M 202.0704 234.625048 
L 208.1376 234.625048 
L 208.1376 232.264619 
L 202.0704 232.264619 
z
" clip-path="url(#p10d8649240)" style="fill: #a52a2a"/>
   </g>
   <g id="patch_67">
    <path d="M 209.6544 229.034559 
L 215.7216 229.034559 
L 215.7216 227.295295 
L 209.6544 227.295295 
z
" clip-path="url(#p10d8649240)" style="fill: #a52a2a"/>
   </g>
   <g id="patch_68">
    <path d="M 217.2384 216.487016 
L 223.3056 216.487016 
L 223.3056 214.747753 
L 217.2384 214.747753 
z
" clip-path="url(#p10d8649240)" style="fill: #a52a2a"/>
   </g>
   <g id="patch_69">
    <path d="M 224.8224 221.704806 
L 230.8896 221.704806 
L 230.8896 219.717077 
L 224.8224 219.717077 
z
" clip-path="url(#p10d8649240)" style="fill: #a52a2a"/>
   </g>
   <g id="patch_70">
    <path d="M 232.4064 230.152656 
L 238.4736 230.152656 
L 238.4736 228.164927 
L 232.4064 228.164927 
z
" clip-path="url(#p10d8649240)" style="fill: #a52a2a"/>
   </g>
   <g id="patch_71">
    <path d="M 239.9904 234.252348 
L 246.0576 234.252348 
L 246.0576 232.513085 
L 239.9904 232.513085 
z
" clip-path="url(#p10d8649240)" style="fill: #a52a2a"/>
   </g>
   <g id="patch_72">
    <path d="M 247.5744 240.215537 
L 253.6416 240.215537 
L 253.6416 238.103574 
L 247.5744 238.103574 
z
" clip-path="url(#p10d8649240)" style="fill: #a52a2a"/>
   </g>
   <g id="patch_73">
    <path d="M 255.1584 238.476274 
L 261.2256 238.476274 
L 261.2256 236.115845 
L 255.1584 236.115845 
z
" clip-path="url(#p10d8649240)" style="fill: #a52a2a"/>
   </g>
   <g id="patch_74">
    <path d="M 262.7424 237.979341 
L 268.8096 237.979341 
L 268.8096 235.991612 
L 262.7424 235.991612 
z
" clip-path="url(#p10d8649240)" style="fill: #a52a2a"/>
   </g>
   <g id="patch_75">
    <path d="M 270.3264 236.985477 
L 276.3936 236.985477 
L 276.3936 234.997747 
L 270.3264 234.997747 
z
" clip-path="url(#p10d8649240)" style="fill: #a52a2a"/>
   </g>
   <g id="patch_76">
    <path d="M 277.9104 220.710941 
L 283.9776 220.710941 
L 283.9776 218.723212 
L 277.9104 218.723212 
z
" clip-path="url(#p10d8649240)" style="fill: #a52a2a"/>
   </g>
   <g id="patch_77">
    <path d="M 285.4944 230.152656 
L 291.5616 230.152656 
L 291.5616 228.164927 
L 285.4944 228.164927 
z
" clip-path="url(#p10d8649240)" style="fill: #a52a2a"/>
   </g>
   <g id="patch_78">
    <path d="M 293.0784 239.594371 
L 299.1456 239.594371 
L 299.1456 237.482409 
L 293.0784 237.482409 
z
" clip-path="url(#p10d8649240)" style="fill: #a52a2a"/>
   </g>
   <g id="patch_79">
    <path d="M 300.6624 215.368918 
L 306.7296 215.368918 
L 306.7296 213.256956 
L 300.6624 213.256956 
z
" clip-path="url(#p10d8649240)" style="fill: #a52a2a"/>
   </g>
   <g id="patch_80">
    <path d="M 308.2464 230.898055 
L 314.3136 230.898055 
L 314.3136 228.786092 
L 308.2464 228.786092 
z
" clip-path="url(#p10d8649240)" style="fill: #a52a2a"/>
   </g>
   <g id="patch_81">
    <path d="M 315.8304 230.276889 
L 321.8976 230.276889 
L 321.8976 228.164927 
L 315.8304 228.164927 
z
" clip-path="url(#p10d8649240)" style="fill: #a52a2a"/>
   </g>
   <g id="patch_82">
    <path d="M 323.4144 215.244685 
L 329.4816 215.244685 
L 329.4816 213.132723 
L 323.4144 213.132723 
z
" clip-path="url(#p10d8649240)" style="fill: #a52a2a"/>
   </g>
   <g id="patch_83">
    <path d="M 330.9984 218.102046 
L 337.0656 218.102046 
L 337.0656 215.990084 
L 330.9984 215.990084 
z
" clip-path="url(#p10d8649240)" style="fill: #a52a2a"/>
   </g>
   <g id="patch_84">
    <path d="M 338.5824 204.312173 
L 344.6496 204.312173 
L 344.6496 202.20021 
L 338.5824 202.20021 
z
" clip-path="url(#p10d8649240)" style="fill: #a52a2a"/>
   </g>
   <g id="patch_85">
    <path d="M 346.1664 212.014625 
L 352.2336 212.014625 
L 352.2336 210.275362 
L 346.1664 210.275362 
z
" clip-path="url(#p10d8649240)" style="fill: #a52a2a"/>
   </g>
   <g id="patch_86">
    <path d="M 353.7504 234.749281 
L 359.8176 234.749281 
L 359.8176 233.010018 
L 353.7504 233.010018 
z
" clip-path="url(#p10d8649240)" style="fill: #a52a2a"/>
   </g>
   <g id="patch_87">
    <path d="M 361.3344 236.364311 
L 367.4016 236.364311 
L 367.4016 234.252348 
L 361.3344 234.252348 
z
" clip-path="url(#p10d8649240)" style="fill: #a52a2a"/>
   </g>
   <g id="patch_88">
    <path d="M 368.9184 218.598979 
L 374.9856 218.598979 
L 374.9856 216.487016 
L 368.9184 216.487016 
z
" clip-path="url(#p10d8649240)" style="fill: #a52a2a"/>
   </g>
   <g id="patch_89">
    <path d="M 376.5024 237.10971 
L 382.5696 237.10971 
L 382.5696 235.370446 
L 376.5024 235.370446 
z
" clip-path="url(#p10d8649240)" style="fill: #a52a2a"/>
   </g>
   <g id="patch_90">
    <path d="M 384.0864 234.873514 
L 390.1536 234.873514 
L 390.1536 232.761551 
L 384.0864 232.761551 
z
" clip-path="url(#p10d8649240)" style="fill: #a52a2a"/>
   </g>
   <g id="patch_91">
    <path d="M 391.6704 237.358176 
L 397.7376 237.358176 
L 397.7376 235.370446 
L 391.6704 235.370446 
z
" clip-path="url(#p10d8649240)" style="fill: #a52a2a"/>
   </g>
   <g id="patch_92">
    <path d="M 399.2544 216.362783 
L 405.3216 216.362783 
L 405.3216 214.62352 
L 399.2544 214.62352 
z
" clip-path="url(#p10d8649240)" style="fill: #a52a2a"/>
   </g>
   <g id="patch_93">
    <path d="M 406.8384 213.256956 
L 412.9056 213.256956 
L 412.9056 211.144993 
L 406.8384 211.144993 
z
" clip-path="url(#p10d8649240)" style="fill: #a52a2a"/>
   </g>
   <g id="patch_94">
    <path d="M 414.4224 234.500815 
L 420.4896 234.500815 
L 420.4896 232.513085 
L 414.4224 232.513085 
z
" clip-path="url(#p10d8649240)" style="fill: #a52a2a"/>
   </g>
   <g id="patch_95">
    <path d="M 422.0064 234.128115 
L 428.0736 234.128115 
L 428.0736 232.388852 
L 422.0064 232.388852 
z
" clip-path="url(#p10d8649240)" style="fill: #a52a2a"/>
   </g>
   <g id="patch_96">
    <path d="M 429.5904 231.767687 
L 435.6576 231.767687 
L 435.6576 229.779957 
L 429.5904 229.779957 
z
" clip-path="url(#p10d8649240)" style="fill: #a52a2a"/>
   </g>
   <g id="patch_97">
    <path d="M 437.1744 237.10971 
L 443.2416 237.10971 
L 443.2416 234.997747 
L 437.1744 234.997747 
z
" clip-path="url(#p10d8649240)" style="fill: #a52a2a"/>
   </g>
   <g id="patch_98">
    <path d="M 444.7584 218.971678 
L 450.8256 218.971678 
L 450.8256 216.859715 
L 444.7584 216.859715 
z
" clip-path="url(#p10d8649240)" style="fill: #a52a2a"/>
   </g>
   <g id="patch_99">
    <path d="M 88.3104 267.422584 
L 94.3776 267.422584 
L 94.3776 198.473218 
L 88.3104 198.473218 
z
" clip-path="url(#p10d8649240)" style="fill: #f08080"/>
   </g>
   <g id="patch_100">
    <path d="M 95.8944 262.329027 
L 101.9616 262.329027 
L 101.9616 195.988556 
L 95.8944 195.988556 
z
" clip-path="url(#p10d8649240)" style="fill: #f08080"/>
   </g>
   <g id="patch_101">
    <path d="M 103.4784 264.689456 
L 109.5456 264.689456 
L 109.5456 205.554504 
L 103.4784 205.554504 
z
" clip-path="url(#p10d8649240)" style="fill: #f08080"/>
   </g>
   <g id="patch_102">
    <path d="M 111.0624 265.434855 
L 117.1296 265.434855 
L 117.1296 198.473218 
L 111.0624 198.473218 
z
" clip-path="url(#p10d8649240)" style="fill: #f08080"/>
   </g>
   <g id="patch_103">
    <path d="M 118.6464 265.434855 
L 124.7136 265.434855 
L 124.7136 205.678737 
L 118.6464 205.678737 
z
" clip-path="url(#p10d8649240)" style="fill: #f08080"/>
   </g>
   <g id="patch_104">
    <path d="M 126.2304 264.316757 
L 132.2976 264.316757 
L 132.2976 204.312173 
L 126.2304 204.312173 
z
" clip-path="url(#p10d8649240)" style="fill: #f08080"/>
   </g>
   <g id="patch_105">
    <path d="M 133.8144 263.571358 
L 139.8816 263.571358 
L 139.8816 202.821376 
L 133.8144 202.821376 
z
" clip-path="url(#p10d8649240)" style="fill: #f08080"/>
   </g>
   <g id="patch_106">
    <path d="M 141.3984 264.565223 
L 147.4656 264.565223 
L 147.4656 204.312173 
L 141.3984 204.312173 
z
" clip-path="url(#p10d8649240)" style="fill: #f08080"/>
   </g>
   <g id="patch_107">
    <path d="M 148.9824 267.049885 
L 155.0496 267.049885 
L 155.0496 207.7907 
L 148.9824 207.7907 
z
" clip-path="url(#p10d8649240)" style="fill: #f08080"/>
   </g>
   <g id="patch_108">
    <path d="M 156.5664 263.944058 
L 162.6336 263.944058 
L 162.6336 194.746225 
L 156.5664 194.746225 
z
" clip-path="url(#p10d8649240)" style="fill: #f08080"/>
   </g>
   <g id="patch_109">
    <path d="M 164.1504 263.944058 
L 170.2176 263.944058 
L 170.2176 190.398067 
L 164.1504 190.398067 
z
" clip-path="url(#p10d8649240)" style="fill: #f08080"/>
   </g>
   <g id="patch_110">
    <path d="M 171.7344 265.559088 
L 177.8016 265.559088 
L 177.8016 207.169534 
L 171.7344 207.169534 
z
" clip-path="url(#p10d8649240)" style="fill: #f08080"/>
   </g>
   <g id="patch_111">
    <path d="M 179.3184 248.290688 
L 185.3856 248.290688 
L 185.3856 179.838254 
L 179.3184 179.838254 
z
" clip-path="url(#p10d8649240)" style="fill: #f08080"/>
   </g>
   <g id="patch_112">
    <path d="M 186.9024 259.595899 
L 192.9696 259.595899 
L 192.9696 200.709413 
L 186.9024 200.709413 
z
" clip-path="url(#p10d8649240)" style="fill: #f08080"/>
   </g>
   <g id="patch_113">
    <path d="M 194.4864 266.677186 
L 200.5536 266.677186 
L 200.5536 203.815241 
L 194.4864 203.815241 
z
" clip-path="url(#p10d8649240)" style="fill: #f08080"/>
   </g>
   <g id="patch_114">
    <path d="M 202.0704 264.813689 
L 208.1376 264.813689 
L 208.1376 197.603586 
L 202.0704 197.603586 
z
" clip-path="url(#p10d8649240)" style="fill: #f08080"/>
   </g>
   <g id="patch_115">
    <path d="M 209.6544 261.21093 
L 215.7216 261.21093 
L 215.7216 185.677209 
L 209.6544 185.677209 
z
" clip-path="url(#p10d8649240)" style="fill: #f08080"/>
   </g>
   <g id="patch_116">
    <path d="M 217.2384 246.427192 
L 223.3056 246.427192 
L 223.3056 176.235494 
L 217.2384 176.235494 
z
" clip-path="url(#p10d8649240)" style="fill: #f08080"/>
   </g>
   <g id="patch_117">
    <path d="M 224.8224 251.769215 
L 230.8896 251.769215 
L 230.8896 179.838254 
L 224.8224 179.838254 
z
" clip-path="url(#p10d8649240)" style="fill: #f08080"/>
   </g>
   <g id="patch_118">
    <path d="M 232.4064 264.068291 
L 238.4736 264.068291 
L 238.4736 184.683344 
L 232.4064 184.683344 
z
" clip-path="url(#p10d8649240)" style="fill: #f08080"/>
   </g>
   <g id="patch_119">
    <path d="M 239.9904 265.683321 
L 246.0576 265.683321 
L 246.0576 192.510029 
L 239.9904 192.510029 
z
" clip-path="url(#p10d8649240)" style="fill: #f08080"/>
   </g>
   <g id="patch_120">
    <path d="M 247.5744 265.062156 
L 253.6416 265.062156 
L 253.6416 196.982421 
L 247.5744 196.982421 
z
" clip-path="url(#p10d8649240)" style="fill: #f08080"/>
   </g>
   <g id="patch_121">
    <path d="M 255.1584 262.453261 
L 261.2256 262.453261 
L 261.2256 201.330579 
L 255.1584 201.330579 
z
" clip-path="url(#p10d8649240)" style="fill: #f08080"/>
   </g>
   <g id="patch_122">
    <path d="M 262.7424 263.447125 
L 268.8096 263.447125 
L 268.8096 197.479353 
L 262.7424 197.479353 
z
" clip-path="url(#p10d8649240)" style="fill: #f08080"/>
   </g>
   <g id="patch_123">
    <path d="M 270.3264 261.583629 
L 276.3936 261.583629 
L 276.3936 190.770766 
L 270.3264 190.770766 
z
" clip-path="url(#p10d8649240)" style="fill: #f08080"/>
   </g>
   <g id="patch_124">
    <path d="M 277.9104 251.148049 
L 283.9776 251.148049 
L 283.9776 179.714021 
L 277.9104 179.714021 
z
" clip-path="url(#p10d8649240)" style="fill: #f08080"/>
   </g>
   <g id="patch_125">
    <path d="M 285.4944 261.832095 
L 291.5616 261.832095 
L 291.5616 187.913405 
L 285.4944 187.913405 
z
" clip-path="url(#p10d8649240)" style="fill: #f08080"/>
   </g>
   <g id="patch_126">
    <path d="M 293.0784 263.695592 
L 299.1456 263.695592 
L 299.1456 196.361255 
L 293.0784 196.361255 
z
" clip-path="url(#p10d8649240)" style="fill: #f08080"/>
   </g>
   <g id="patch_127">
    <path d="M 300.6624 246.924124 
L 306.7296 246.924124 
L 306.7296 173.005434 
L 300.6624 173.005434 
z
" clip-path="url(#p10d8649240)" style="fill: #f08080"/>
   </g>
   <g id="patch_128">
    <path d="M 308.2464 264.937922 
L 314.3136 264.937922 
L 314.3136 189.155736 
L 308.2464 189.155736 
z
" clip-path="url(#p10d8649240)" style="fill: #f08080"/>
   </g>
   <g id="patch_129">
    <path d="M 315.8304 259.595899 
L 321.8976 259.595899 
L 321.8976 187.043773 
L 315.8304 187.043773 
z
" clip-path="url(#p10d8649240)" style="fill: #f08080"/>
   </g>
   <g id="patch_130">
    <path d="M 323.4144 244.812161 
L 329.4816 244.812161 
L 329.4816 177.974757 
L 323.4144 177.974757 
z
" clip-path="url(#p10d8649240)" style="fill: #f08080"/>
   </g>
   <g id="patch_131">
    <path d="M 330.9984 244.190996 
L 337.0656 244.190996 
L 337.0656 180.832118 
L 330.9984 180.832118 
z
" clip-path="url(#p10d8649240)" style="fill: #f08080"/>
   </g>
   <g id="patch_132">
    <path d="M 338.5824 237.979341 
L 344.6496 237.979341 
L 344.6496 163.439485 
L 338.5824 163.439485 
z
" clip-path="url(#p10d8649240)" style="fill: #f08080"/>
   </g>
   <g id="patch_133">
    <path d="M 346.1664 244.315229 
L 352.2336 244.315229 
L 352.2336 169.526907 
L 346.1664 169.526907 
z
" clip-path="url(#p10d8649240)" style="fill: #f08080"/>
   </g>
   <g id="patch_134">
    <path d="M 353.7504 261.21093 
L 359.8176 261.21093 
L 359.8176 197.852052 
L 353.7504 197.852052 
z
" clip-path="url(#p10d8649240)" style="fill: #f08080"/>
   </g>
   <g id="patch_135">
    <path d="M 361.3344 262.701727 
L 367.4016 262.701727 
L 367.4016 193.876593 
L 361.3344 193.876593 
z
" clip-path="url(#p10d8649240)" style="fill: #f08080"/>
   </g>
   <g id="patch_136">
    <path d="M 368.9184 245.681793 
L 374.9856 245.681793 
L 374.9856 181.950216 
L 368.9184 181.950216 
z
" clip-path="url(#p10d8649240)" style="fill: #f08080"/>
   </g>
   <g id="patch_137">
    <path d="M 376.5024 262.329027 
L 382.5696 262.329027 
L 382.5696 194.497759 
L 376.5024 194.497759 
z
" clip-path="url(#p10d8649240)" style="fill: #f08080"/>
   </g>
   <g id="patch_138">
    <path d="M 384.0864 264.316757 
L 390.1536 264.316757 
L 390.1536 194.000826 
L 384.0864 194.000826 
z
" clip-path="url(#p10d8649240)" style="fill: #f08080"/>
   </g>
   <g id="patch_139">
    <path d="M 391.6704 263.322892 
L 397.7376 263.322892 
L 397.7376 193.876593 
L 391.6704 193.876593 
z
" clip-path="url(#p10d8649240)" style="fill: #f08080"/>
   </g>
   <g id="patch_140">
    <path d="M 399.2544 248.78762 
L 405.3216 248.78762 
L 405.3216 173.750832 
L 399.2544 173.750832 
z
" clip-path="url(#p10d8649240)" style="fill: #f08080"/>
   </g>
   <g id="patch_141">
    <path d="M 406.8384 242.824432 
L 412.9056 242.824432 
L 412.9056 170.893471 
L 406.8384 170.893471 
z
" clip-path="url(#p10d8649240)" style="fill: #f08080"/>
   </g>
   <g id="patch_142">
    <path d="M 414.4224 260.713997 
L 420.4896 260.713997 
L 420.4896 192.013097 
L 414.4224 192.013097 
z
" clip-path="url(#p10d8649240)" style="fill: #f08080"/>
   </g>
   <g id="patch_143">
    <path d="M 422.0064 260.713997 
L 428.0736 260.713997 
L 428.0736 195.36739 
L 422.0064 195.36739 
z
" clip-path="url(#p10d8649240)" style="fill: #f08080"/>
   </g>
   <g id="patch_144">
    <path d="M 429.5904 263.447125 
L 435.6576 263.447125 
L 435.6576 189.528435 
L 429.5904 189.528435 
z
" clip-path="url(#p10d8649240)" style="fill: #f08080"/>
   </g>
   <g id="patch_145">
    <path d="M 437.1744 263.198659 
L 443.2416 263.198659 
L 443.2416 199.218616 
L 437.1744 199.218616 
z
" clip-path="url(#p10d8649240)" style="fill: #f08080"/>
   </g>
   <g id="patch_146">
    <path d="M 444.7584 246.302958 
L 450.8256 246.302958 
L 450.8256 178.844389 
L 444.7584 178.844389 
z
" clip-path="url(#p10d8649240)" style="fill: #f08080"/>
   </g>
   <g id="patch_147">
    <path d="M 88.3104 293.76 
L 94.3776 293.76 
L 94.3776 267.422584 
L 88.3104 267.422584 
z
" clip-path="url(#p10d8649240)" style="fill: #ffe4e1"/>
   </g>
   <g id="patch_148">
    <path d="M 95.8944 293.76 
L 101.9616 293.76 
L 101.9616 262.329027 
L 95.8944 262.329027 
z
" clip-path="url(#p10d8649240)" style="fill: #ffe4e1"/>
   </g>
   <g id="patch_149">
    <path d="M 103.4784 293.76 
L 109.5456 293.76 
L 109.5456 264.689456 
L 103.4784 264.689456 
z
" clip-path="url(#p10d8649240)" style="fill: #ffe4e1"/>
   </g>
   <g id="patch_150">
    <path d="M 111.0624 293.76 
L 117.1296 293.76 
L 117.1296 265.434855 
L 111.0624 265.434855 
z
" clip-path="url(#p10d8649240)" style="fill: #ffe4e1"/>
   </g>
   <g id="patch_151">
    <path d="M 118.6464 293.76 
L 124.7136 293.76 
L 124.7136 265.434855 
L 118.6464 265.434855 
z
" clip-path="url(#p10d8649240)" style="fill: #ffe4e1"/>
   </g>
   <g id="patch_152">
    <path d="M 126.2304 293.76 
L 132.2976 293.76 
L 132.2976 264.316757 
L 126.2304 264.316757 
z
" clip-path="url(#p10d8649240)" style="fill: #ffe4e1"/>
   </g>
   <g id="patch_153">
    <path d="M 133.8144 293.76 
L 139.8816 293.76 
L 139.8816 263.571358 
L 133.8144 263.571358 
z
" clip-path="url(#p10d8649240)" style="fill: #ffe4e1"/>
   </g>
   <g id="patch_154">
    <path d="M 141.3984 293.76 
L 147.4656 293.76 
L 147.4656 264.565223 
L 141.3984 264.565223 
z
" clip-path="url(#p10d8649240)" style="fill: #ffe4e1"/>
   </g>
   <g id="patch_155">
    <path d="M 148.9824 293.76 
L 155.0496 293.76 
L 155.0496 267.049885 
L 148.9824 267.049885 
z
" clip-path="url(#p10d8649240)" style="fill: #ffe4e1"/>
   </g>
   <g id="patch_156">
    <path d="M 156.5664 293.76 
L 162.6336 293.76 
L 162.6336 263.944058 
L 156.5664 263.944058 
z
" clip-path="url(#p10d8649240)" style="fill: #ffe4e1"/>
   </g>
   <g id="patch_157">
    <path d="M 164.1504 293.76 
L 170.2176 293.76 
L 170.2176 263.944058 
L 164.1504 263.944058 
z
" clip-path="url(#p10d8649240)" style="fill: #ffe4e1"/>
   </g>
   <g id="patch_158">
    <path d="M 171.7344 293.76 
L 177.8016 293.76 
L 177.8016 265.559088 
L 171.7344 265.559088 
z
" clip-path="url(#p10d8649240)" style="fill: #ffe4e1"/>
   </g>
   <g id="patch_159">
    <path d="M 179.3184 293.76 
L 185.3856 293.76 
L 185.3856 248.290688 
L 179.3184 248.290688 
z
" clip-path="url(#p10d8649240)" style="fill: #ffe4e1"/>
   </g>
   <g id="patch_160">
    <path d="M 186.9024 293.76 
L 192.9696 293.76 
L 192.9696 259.595899 
L 186.9024 259.595899 
z
" clip-path="url(#p10d8649240)" style="fill: #ffe4e1"/>
   </g>
   <g id="patch_161">
    <path d="M 194.4864 293.76 
L 200.5536 293.76 
L 200.5536 266.677186 
L 194.4864 266.677186 
z
" clip-path="url(#p10d8649240)" style="fill: #ffe4e1"/>
   </g>
   <g id="patch_162">
    <path d="M 202.0704 293.76 
L 208.1376 293.76 
L 208.1376 264.813689 
L 202.0704 264.813689 
z
" clip-path="url(#p10d8649240)" style="fill: #ffe4e1"/>
   </g>
   <g id="patch_163">
    <path d="M 209.6544 293.76 
L 215.7216 293.76 
L 215.7216 261.21093 
L 209.6544 261.21093 
z
" clip-path="url(#p10d8649240)" style="fill: #ffe4e1"/>
   </g>
   <g id="patch_164">
    <path d="M 217.2384 293.76 
L 223.3056 293.76 
L 223.3056 246.427192 
L 217.2384 246.427192 
z
" clip-path="url(#p10d8649240)" style="fill: #ffe4e1"/>
   </g>
   <g id="patch_165">
    <path d="M 224.8224 293.76 
L 230.8896 293.76 
L 230.8896 251.769215 
L 224.8224 251.769215 
z
" clip-path="url(#p10d8649240)" style="fill: #ffe4e1"/>
   </g>
   <g id="patch_166">
    <path d="M 232.4064 293.76 
L 238.4736 293.76 
L 238.4736 264.068291 
L 232.4064 264.068291 
z
" clip-path="url(#p10d8649240)" style="fill: #ffe4e1"/>
   </g>
   <g id="patch_167">
    <path d="M 239.9904 293.76 
L 246.0576 293.76 
L 246.0576 265.683321 
L 239.9904 265.683321 
z
" clip-path="url(#p10d8649240)" style="fill: #ffe4e1"/>
   </g>
   <g id="patch_168">
    <path d="M 247.5744 293.76 
L 253.6416 293.76 
L 253.6416 265.062156 
L 247.5744 265.062156 
z
" clip-path="url(#p10d8649240)" style="fill: #ffe4e1"/>
   </g>
   <g id="patch_169">
    <path d="M 255.1584 293.76 
L 261.2256 293.76 
L 261.2256 262.453261 
L 255.1584 262.453261 
z
" clip-path="url(#p10d8649240)" style="fill: #ffe4e1"/>
   </g>
   <g id="patch_170">
    <path d="M 262.7424 293.76 
L 268.8096 293.76 
L 268.8096 263.447125 
L 262.7424 263.447125 
z
" clip-path="url(#p10d8649240)" style="fill: #ffe4e1"/>
   </g>
   <g id="patch_171">
    <path d="M 270.3264 293.76 
L 276.3936 293.76 
L 276.3936 261.583629 
L 270.3264 261.583629 
z
" clip-path="url(#p10d8649240)" style="fill: #ffe4e1"/>
   </g>
   <g id="patch_172">
    <path d="M 277.9104 293.76 
L 283.9776 293.76 
L 283.9776 251.148049 
L 277.9104 251.148049 
z
" clip-path="url(#p10d8649240)" style="fill: #ffe4e1"/>
   </g>
   <g id="patch_173">
    <path d="M 285.4944 293.76 
L 291.5616 293.76 
L 291.5616 261.832095 
L 285.4944 261.832095 
z
" clip-path="url(#p10d8649240)" style="fill: #ffe4e1"/>
   </g>
   <g id="patch_174">
    <path d="M 293.0784 293.76 
L 299.1456 293.76 
L 299.1456 263.695592 
L 293.0784 263.695592 
z
" clip-path="url(#p10d8649240)" style="fill: #ffe4e1"/>
   </g>
   <g id="patch_175">
    <path d="M 300.6624 293.76 
L 306.7296 293.76 
L 306.7296 246.924124 
L 300.6624 246.924124 
z
" clip-path="url(#p10d8649240)" style="fill: #ffe4e1"/>
   </g>
   <g id="patch_176">
    <path d="M 308.2464 293.76 
L 314.3136 293.76 
L 314.3136 264.937922 
L 308.2464 264.937922 
z
" clip-path="url(#p10d8649240)" style="fill: #ffe4e1"/>
   </g>
   <g id="patch_177">
    <path d="M 315.8304 293.76 
L 321.8976 293.76 
L 321.8976 259.595899 
L 315.8304 259.595899 
z
" clip-path="url(#p10d8649240)" style="fill: #ffe4e1"/>
   </g>
   <g id="patch_178">
    <path d="M 323.4144 293.76 
L 329.4816 293.76 
L 329.4816 244.812161 
L 323.4144 244.812161 
z
" clip-path="url(#p10d8649240)" style="fill: #ffe4e1"/>
   </g>
   <g id="patch_179">
    <path d="M 330.9984 293.76 
L 337.0656 293.76 
L 337.0656 244.190996 
L 330.9984 244.190996 
z
" clip-path="url(#p10d8649240)" style="fill: #ffe4e1"/>
   </g>
   <g id="patch_180">
    <path d="M 338.5824 293.76 
L 344.6496 293.76 
L 344.6496 237.979341 
L 338.5824 237.979341 
z
" clip-path="url(#p10d8649240)" style="fill: #ffe4e1"/>
   </g>
   <g id="patch_181">
    <path d="M 346.1664 293.76 
L 352.2336 293.76 
L 352.2336 244.315229 
L 346.1664 244.315229 
z
" clip-path="url(#p10d8649240)" style="fill: #ffe4e1"/>
   </g>
   <g id="patch_182">
    <path d="M 353.7504 293.76 
L 359.8176 293.76 
L 359.8176 261.21093 
L 353.7504 261.21093 
z
" clip-path="url(#p10d8649240)" style="fill: #ffe4e1"/>
   </g>
   <g id="patch_183">
    <path d="M 361.3344 293.76 
L 367.4016 293.76 
L 367.4016 262.701727 
L 361.3344 262.701727 
z
" clip-path="url(#p10d8649240)" style="fill: #ffe4e1"/>
   </g>
   <g id="patch_184">
    <path d="M 368.9184 293.76 
L 374.9856 293.76 
L 374.9856 245.681793 
L 368.9184 245.681793 
z
" clip-path="url(#p10d8649240)" style="fill: #ffe4e1"/>
   </g>
   <g id="patch_185">
    <path d="M 376.5024 293.76 
L 382.5696 293.76 
L 382.5696 262.329027 
L 376.5024 262.329027 
z
" clip-path="url(#p10d8649240)" style="fill: #ffe4e1"/>
   </g>
   <g id="patch_186">
    <path d="M 384.0864 293.76 
L 390.1536 293.76 
L 390.1536 264.316757 
L 384.0864 264.316757 
z
" clip-path="url(#p10d8649240)" style="fill: #ffe4e1"/>
   </g>
   <g id="patch_187">
    <path d="M 391.6704 293.76 
L 397.7376 293.76 
L 397.7376 263.322892 
L 391.6704 263.322892 
z
" clip-path="url(#p10d8649240)" style="fill: #ffe4e1"/>
   </g>
   <g id="patch_188">
    <path d="M 399.2544 293.76 
L 405.3216 293.76 
L 405.3216 248.78762 
L 399.2544 248.78762 
z
" clip-path="url(#p10d8649240)" style="fill: #ffe4e1"/>
   </g>
   <g id="patch_189">
    <path d="M 406.8384 293.76 
L 412.9056 293.76 
L 412.9056 242.824432 
L 406.8384 242.824432 
z
" clip-path="url(#p10d8649240)" style="fill: #ffe4e1"/>
   </g>
   <g id="patch_190">
    <path d="M 414.4224 293.76 
L 420.4896 293.76 
L 420.4896 260.713997 
L 414.4224 260.713997 
z
" clip-path="url(#p10d8649240)" style="fill: #ffe4e1"/>
   </g>
   <g id="patch_191">
    <path d="M 422.0064 293.76 
L 428.0736 293.76 
L 428.0736 260.713997 
L 422.0064 260.713997 
z
" clip-path="url(#p10d8649240)" style="fill: #ffe4e1"/>
   </g>
   <g id="patch_192">
    <path d="M 429.5904 293.76 
L 435.6576 293.76 
L 435.6576 263.447125 
L 429.5904 263.447125 
z
" clip-path="url(#p10d8649240)" style="fill: #ffe4e1"/>
   </g>
   <g id="patch_193">
    <path d="M 437.1744 293.76 
L 443.2416 293.76 
L 443.2416 263.198659 
L 437.1744 263.198659 
z
" clip-path="url(#p10d8649240)" style="fill: #ffe4e1"/>
   </g>
   <g id="patch_194">
    <path d="M 444.7584 293.76 
L 450.8256 293.76 
L 450.8256 246.302958 
L 444.7584 246.302958 
z
" clip-path="url(#p10d8649240)" style="fill: #ffe4e1"/>
   </g>
   <g id="matplotlib.axis_1">
    <g id="xtick_1">
     <g id="line2d_1">
      <path d="M 159.6 293.76 
L 159.6 6.912 
" clip-path="url(#p10d8649240)" style="fill: none; stroke: #b0b0b0; stroke-width: 0.8; stroke-linecap: square"/>
     </g>
     <g id="line2d_2">
      <defs>
       <path id="m4867a9f88d" d="M 0 0 
L 0 3.5 
" style="stroke: #000000; stroke-width: 0.8"/>
      </defs>
      <g>
       <use xlink:href="#m4867a9f88d" x="159.6" y="293.76" style="stroke: #000000; stroke-width: 0.8"/>
      </g>
     </g>
     <g id="text_1">
      <!-- 10 -->
      <g transform="translate(146.875 315.956875) scale(0.2 -0.2)">
       <defs>
        <path id="DejaVuSans-31" d="M 794 531 
L 1825 531 
L 1825 4091 
L 703 3866 
L 703 4441 
L 1819 4666 
L 2450 4666 
L 2450 531 
L 3481 531 
L 3481 0 
L 794 0 
L 794 531 
z
" transform="scale(0.015625)"/>
        <path id="DejaVuSans-30" d="M 2034 4250 
Q 1547 4250 1301 3770 
Q 1056 3291 1056 2328 
Q 1056 1369 1301 889 
Q 1547 409 2034 409 
Q 2525 409 2770 889 
Q 3016 1369 3016 2328 
Q 3016 3291 2770 3770 
Q 2525 4250 2034 4250 
z
M 2034 4750 
Q 2819 4750 3233 4129 
Q 3647 3509 3647 2328 
Q 3647 1150 3233 529 
Q 2819 -91 2034 -91 
Q 1250 -91 836 529 
Q 422 1150 422 2328 
Q 422 3509 836 4129 
Q 1250 4750 2034 4750 
z
" transform="scale(0.015625)"/>
       </defs>
       <use xlink:href="#DejaVuSans-31"/>
       <use xlink:href="#DejaVuSans-30" x="63.623047"/>
      </g>
     </g>
    </g>
    <g id="xtick_2">
     <g id="line2d_3">
      <path d="M 235.44 293.76 
L 235.44 6.912 
" clip-path="url(#p10d8649240)" style="fill: none; stroke: #b0b0b0; stroke-width: 0.8; stroke-linecap: square"/>
     </g>
     <g id="line2d_4">
      <g>
       <use xlink:href="#m4867a9f88d" x="235.44" y="293.76" style="stroke: #000000; stroke-width: 0.8"/>
      </g>
     </g>
     <g id="text_2">
      <!-- 20 -->
      <g transform="translate(222.715 315.956875) scale(0.2 -0.2)">
       <defs>
        <path id="DejaVuSans-32" d="M 1228 531 
L 3431 531 
L 3431 0 
L 469 0 
L 469 531 
Q 828 903 1448 1529 
Q 2069 2156 2228 2338 
Q 2531 2678 2651 2914 
Q 2772 3150 2772 3378 
Q 2772 3750 2511 3984 
Q 2250 4219 1831 4219 
Q 1534 4219 1204 4116 
Q 875 4013 500 3803 
L 500 4441 
Q 881 4594 1212 4672 
Q 1544 4750 1819 4750 
Q 2544 4750 2975 4387 
Q 3406 4025 3406 3419 
Q 3406 3131 3298 2873 
Q 3191 2616 2906 2266 
Q 2828 2175 2409 1742 
Q 1991 1309 1228 531 
z
" transform="scale(0.015625)"/>
       </defs>
       <use xlink:href="#DejaVuSans-32"/>
       <use xlink:href="#DejaVuSans-30" x="63.623047"/>
      </g>
     </g>
    </g>
    <g id="xtick_3">
     <g id="line2d_5">
      <path d="M 311.28 293.76 
L 311.28 6.912 
" clip-path="url(#p10d8649240)" style="fill: none; stroke: #b0b0b0; stroke-width: 0.8; stroke-linecap: square"/>
     </g>
     <g id="line2d_6">
      <g>
       <use xlink:href="#m4867a9f88d" x="311.28" y="293.76" style="stroke: #000000; stroke-width: 0.8"/>
      </g>
     </g>
     <g id="text_3">
      <!-- 30 -->
      <g transform="translate(298.555 315.956875) scale(0.2 -0.2)">
       <defs>
        <path id="DejaVuSans-33" d="M 2597 2516 
Q 3050 2419 3304 2112 
Q 3559 1806 3559 1356 
Q 3559 666 3084 287 
Q 2609 -91 1734 -91 
Q 1441 -91 1130 -33 
Q 819 25 488 141 
L 488 750 
Q 750 597 1062 519 
Q 1375 441 1716 441 
Q 2309 441 2620 675 
Q 2931 909 2931 1356 
Q 2931 1769 2642 2001 
Q 2353 2234 1838 2234 
L 1294 2234 
L 1294 2753 
L 1863 2753 
Q 2328 2753 2575 2939 
Q 2822 3125 2822 3475 
Q 2822 3834 2567 4026 
Q 2313 4219 1838 4219 
Q 1578 4219 1281 4162 
Q 984 4106 628 3988 
L 628 4550 
Q 988 4650 1302 4700 
Q 1616 4750 1894 4750 
Q 2613 4750 3031 4423 
Q 3450 4097 3450 3541 
Q 3450 3153 3228 2886 
Q 3006 2619 2597 2516 
z
" transform="scale(0.015625)"/>
       </defs>
       <use xlink:href="#DejaVuSans-33"/>
       <use xlink:href="#DejaVuSans-30" x="63.623047"/>
      </g>
     </g>
    </g>
    <g id="xtick_4">
     <g id="line2d_7">
      <path d="M 387.12 293.76 
L 387.12 6.912 
" clip-path="url(#p10d8649240)" style="fill: none; stroke: #b0b0b0; stroke-width: 0.8; stroke-linecap: square"/>
     </g>
     <g id="line2d_8">
      <g>
       <use xlink:href="#m4867a9f88d" x="387.12" y="293.76" style="stroke: #000000; stroke-width: 0.8"/>
      </g>
     </g>
     <g id="text_4">
      <!-- 40 -->
      <g transform="translate(374.395 315.956875) scale(0.2 -0.2)">
       <defs>
        <path id="DejaVuSans-34" d="M 2419 4116 
L 825 1625 
L 2419 1625 
L 2419 4116 
z
M 2253 4666 
L 3047 4666 
L 3047 1625 
L 3713 1625 
L 3713 1100 
L 3047 1100 
L 3047 0 
L 2419 0 
L 2419 1100 
L 313 1100 
L 313 1709 
L 2253 4666 
z
" transform="scale(0.015625)"/>
       </defs>
       <use xlink:href="#DejaVuSans-34"/>
       <use xlink:href="#DejaVuSans-30" x="63.623047"/>
      </g>
     </g>
    </g>
    <g id="text_5">
     <!-- batch iteration -->
     <g transform="translate(203.277375 337.793437) scale(0.18 -0.18)">
      <defs>
       <path id="DejaVuSans-62" d="M 3116 1747 
Q 3116 2381 2855 2742 
Q 2594 3103 2138 3103 
Q 1681 3103 1420 2742 
Q 1159 2381 1159 1747 
Q 1159 1113 1420 752 
Q 1681 391 2138 391 
Q 2594 391 2855 752 
Q 3116 1113 3116 1747 
z
M 1159 2969 
Q 1341 3281 1617 3432 
Q 1894 3584 2278 3584 
Q 2916 3584 3314 3078 
Q 3713 2572 3713 1747 
Q 3713 922 3314 415 
Q 2916 -91 2278 -91 
Q 1894 -91 1617 61 
Q 1341 213 1159 525 
L 1159 0 
L 581 0 
L 581 4863 
L 1159 4863 
L 1159 2969 
z
" transform="scale(0.015625)"/>
       <path id="DejaVuSans-61" d="M 2194 1759 
Q 1497 1759 1228 1600 
Q 959 1441 959 1056 
Q 959 750 1161 570 
Q 1363 391 1709 391 
Q 2188 391 2477 730 
Q 2766 1069 2766 1631 
L 2766 1759 
L 2194 1759 
z
M 3341 1997 
L 3341 0 
L 2766 0 
L 2766 531 
Q 2569 213 2275 61 
Q 1981 -91 1556 -91 
Q 1019 -91 701 211 
Q 384 513 384 1019 
Q 384 1609 779 1909 
Q 1175 2209 1959 2209 
L 2766 2209 
L 2766 2266 
Q 2766 2663 2505 2880 
Q 2244 3097 1772 3097 
Q 1472 3097 1187 3025 
Q 903 2953 641 2809 
L 641 3341 
Q 956 3463 1253 3523 
Q 1550 3584 1831 3584 
Q 2591 3584 2966 3190 
Q 3341 2797 3341 1997 
z
" transform="scale(0.015625)"/>
       <path id="DejaVuSans-74" d="M 1172 4494 
L 1172 3500 
L 2356 3500 
L 2356 3053 
L 1172 3053 
L 1172 1153 
Q 1172 725 1289 603 
Q 1406 481 1766 481 
L 2356 481 
L 2356 0 
L 1766 0 
Q 1100 0 847 248 
Q 594 497 594 1153 
L 594 3053 
L 172 3053 
L 172 3500 
L 594 3500 
L 594 4494 
L 1172 4494 
z
" transform="scale(0.015625)"/>
       <path id="DejaVuSans-63" d="M 3122 3366 
L 3122 2828 
Q 2878 2963 2633 3030 
Q 2388 3097 2138 3097 
Q 1578 3097 1268 2742 
Q 959 2388 959 1747 
Q 959 1106 1268 751 
Q 1578 397 2138 397 
Q 2388 397 2633 464 
Q 2878 531 3122 666 
L 3122 134 
Q 2881 22 2623 -34 
Q 2366 -91 2075 -91 
Q 1284 -91 818 406 
Q 353 903 353 1747 
Q 353 2603 823 3093 
Q 1294 3584 2113 3584 
Q 2378 3584 2631 3529 
Q 2884 3475 3122 3366 
z
" transform="scale(0.015625)"/>
       <path id="DejaVuSans-68" d="M 3513 2113 
L 3513 0 
L 2938 0 
L 2938 2094 
Q 2938 2591 2744 2837 
Q 2550 3084 2163 3084 
Q 1697 3084 1428 2787 
Q 1159 2491 1159 1978 
L 1159 0 
L 581 0 
L 581 4863 
L 1159 4863 
L 1159 2956 
Q 1366 3272 1645 3428 
Q 1925 3584 2291 3584 
Q 2894 3584 3203 3211 
Q 3513 2838 3513 2113 
z
" transform="scale(0.015625)"/>
       <path id="DejaVuSans-20" transform="scale(0.015625)"/>
       <path id="DejaVuSans-69" d="M 603 3500 
L 1178 3500 
L 1178 0 
L 603 0 
L 603 3500 
z
M 603 4863 
L 1178 4863 
L 1178 4134 
L 603 4134 
L 603 4863 
z
" transform="scale(0.015625)"/>
       <path id="DejaVuSans-65" d="M 3597 1894 
L 3597 1613 
L 953 1613 
Q 991 1019 1311 708 
Q 1631 397 2203 397 
Q 2534 397 2845 478 
Q 3156 559 3463 722 
L 3463 178 
Q 3153 47 2828 -22 
Q 2503 -91 2169 -91 
Q 1331 -91 842 396 
Q 353 884 353 1716 
Q 353 2575 817 3079 
Q 1281 3584 2069 3584 
Q 2775 3584 3186 3129 
Q 3597 2675 3597 1894 
z
M 3022 2063 
Q 3016 2534 2758 2815 
Q 2500 3097 2075 3097 
Q 1594 3097 1305 2825 
Q 1016 2553 972 2059 
L 3022 2063 
z
" transform="scale(0.015625)"/>
       <path id="DejaVuSans-72" d="M 2631 2963 
Q 2534 3019 2420 3045 
Q 2306 3072 2169 3072 
Q 1681 3072 1420 2755 
Q 1159 2438 1159 1844 
L 1159 0 
L 581 0 
L 581 3500 
L 1159 3500 
L 1159 2956 
Q 1341 3275 1631 3429 
Q 1922 3584 2338 3584 
Q 2397 3584 2469 3576 
Q 2541 3569 2628 3553 
L 2631 2963 
z
" transform="scale(0.015625)"/>
       <path id="DejaVuSans-6f" d="M 1959 3097 
Q 1497 3097 1228 2736 
Q 959 2375 959 1747 
Q 959 1119 1226 758 
Q 1494 397 1959 397 
Q 2419 397 2687 759 
Q 2956 1122 2956 1747 
Q 2956 2369 2687 2733 
Q 2419 3097 1959 3097 
z
M 1959 3584 
Q 2709 3584 3137 3096 
Q 3566 2609 3566 1747 
Q 3566 888 3137 398 
Q 2709 -91 1959 -91 
Q 1206 -91 779 398 
Q 353 888 353 1747 
Q 353 2609 779 3096 
Q 1206 3584 1959 3584 
z
" transform="scale(0.015625)"/>
       <path id="DejaVuSans-6e" d="M 3513 2113 
L 3513 0 
L 2938 0 
L 2938 2094 
Q 2938 2591 2744 2837 
Q 2550 3084 2163 3084 
Q 1697 3084 1428 2787 
Q 1159 2491 1159 1978 
L 1159 0 
L 581 0 
L 581 3500 
L 1159 3500 
L 1159 2956 
Q 1366 3272 1645 3428 
Q 1925 3584 2291 3584 
Q 2894 3584 3203 3211 
Q 3513 2838 3513 2113 
z
" transform="scale(0.015625)"/>
      </defs>
      <use xlink:href="#DejaVuSans-62"/>
      <use xlink:href="#DejaVuSans-61" x="63.476562"/>
      <use xlink:href="#DejaVuSans-74" x="124.755859"/>
      <use xlink:href="#DejaVuSans-63" x="163.964844"/>
      <use xlink:href="#DejaVuSans-68" x="218.945312"/>
      <use xlink:href="#DejaVuSans-20" x="282.324219"/>
      <use xlink:href="#DejaVuSans-69" x="314.111328"/>
      <use xlink:href="#DejaVuSans-74" x="341.894531"/>
      <use xlink:href="#DejaVuSans-65" x="381.103516"/>
      <use xlink:href="#DejaVuSans-72" x="442.626953"/>
      <use xlink:href="#DejaVuSans-61" x="483.740234"/>
      <use xlink:href="#DejaVuSans-74" x="545.019531"/>
      <use xlink:href="#DejaVuSans-69" x="584.228516"/>
      <use xlink:href="#DejaVuSans-6f" x="612.011719"/>
      <use xlink:href="#DejaVuSans-6e" x="673.193359"/>
     </g>
    </g>
   </g>
   <g id="matplotlib.axis_2">
    <g id="ytick_1">
     <g id="line2d_9">
      <path d="M 87.552 293.76 
L 451.584 293.76 
" clip-path="url(#p10d8649240)" style="fill: none; stroke: #b0b0b0; stroke-width: 0.8; stroke-linecap: square"/>
     </g>
     <g id="line2d_10">
      <defs>
       <path id="m59e3d2e6b9" d="M 0 0 
L -3.5 0 
" style="stroke: #000000; stroke-width: 0.8"/>
      </defs>
      <g>
       <use xlink:href="#m59e3d2e6b9" x="87.552" y="293.76" style="stroke: #000000; stroke-width: 0.8"/>
      </g>
     </g>
     <g id="text_6">
      <!-- 0.000 -->
      <g transform="translate(23.29575 301.358437) scale(0.2 -0.2)">
       <defs>
        <path id="DejaVuSans-2e" d="M 684 794 
L 1344 794 
L 1344 0 
L 684 0 
L 684 794 
z
" transform="scale(0.015625)"/>
       </defs>
       <use xlink:href="#DejaVuSans-30"/>
       <use xlink:href="#DejaVuSans-2e" x="63.623047"/>
       <use xlink:href="#DejaVuSans-30" x="95.410156"/>
       <use xlink:href="#DejaVuSans-30" x="159.033203"/>
       <use xlink:href="#DejaVuSans-30" x="222.65625"/>
      </g>
     </g>
    </g>
    <g id="ytick_2">
     <g id="line2d_11">
      <path d="M 87.552 231.643454 
L 451.584 231.643454 
" clip-path="url(#p10d8649240)" style="fill: none; stroke: #b0b0b0; stroke-width: 0.8; stroke-linecap: square"/>
     </g>
     <g id="line2d_12">
      <g>
       <use xlink:href="#m59e3d2e6b9" x="87.552" y="231.643454" style="stroke: #000000; stroke-width: 0.8"/>
      </g>
     </g>
     <g id="text_7">
      <!-- 0.005 -->
      <g transform="translate(23.29575 239.241891) scale(0.2 -0.2)">
       <defs>
        <path id="DejaVuSans-35" d="M 691 4666 
L 3169 4666 
L 3169 4134 
L 1269 4134 
L 1269 2991 
Q 1406 3038 1543 3061 
Q 1681 3084 1819 3084 
Q 2600 3084 3056 2656 
Q 3513 2228 3513 1497 
Q 3513 744 3044 326 
Q 2575 -91 1722 -91 
Q 1428 -91 1123 -41 
Q 819 9 494 109 
L 494 744 
Q 775 591 1075 516 
Q 1375 441 1709 441 
Q 2250 441 2565 725 
Q 2881 1009 2881 1497 
Q 2881 1984 2565 2268 
Q 2250 2553 1709 2553 
Q 1456 2553 1204 2497 
Q 953 2441 691 2322 
L 691 4666 
z
" transform="scale(0.015625)"/>
       </defs>
       <use xlink:href="#DejaVuSans-30"/>
       <use xlink:href="#DejaVuSans-2e" x="63.623047"/>
       <use xlink:href="#DejaVuSans-30" x="95.410156"/>
       <use xlink:href="#DejaVuSans-30" x="159.033203"/>
       <use xlink:href="#DejaVuSans-35" x="222.65625"/>
      </g>
     </g>
    </g>
    <g id="ytick_3">
     <g id="line2d_13">
      <path d="M 87.552 169.526907 
L 451.584 169.526907 
" clip-path="url(#p10d8649240)" style="fill: none; stroke: #b0b0b0; stroke-width: 0.8; stroke-linecap: square"/>
     </g>
     <g id="line2d_14">
      <g>
       <use xlink:href="#m59e3d2e6b9" x="87.552" y="169.526907" style="stroke: #000000; stroke-width: 0.8"/>
      </g>
     </g>
     <g id="text_8">
      <!-- 0.010 -->
      <g transform="translate(23.29575 177.125345) scale(0.2 -0.2)">
       <use xlink:href="#DejaVuSans-30"/>
       <use xlink:href="#DejaVuSans-2e" x="63.623047"/>
       <use xlink:href="#DejaVuSans-30" x="95.410156"/>
       <use xlink:href="#DejaVuSans-31" x="159.033203"/>
       <use xlink:href="#DejaVuSans-30" x="222.65625"/>
      </g>
     </g>
    </g>
    <g id="ytick_4">
     <g id="line2d_15">
      <path d="M 87.552 107.410361 
L 451.584 107.410361 
" clip-path="url(#p10d8649240)" style="fill: none; stroke: #b0b0b0; stroke-width: 0.8; stroke-linecap: square"/>
     </g>
     <g id="line2d_16">
      <g>
       <use xlink:href="#m59e3d2e6b9" x="87.552" y="107.410361" style="stroke: #000000; stroke-width: 0.8"/>
      </g>
     </g>
     <g id="text_9">
      <!-- 0.015 -->
      <g transform="translate(23.29575 115.008798) scale(0.2 -0.2)">
       <use xlink:href="#DejaVuSans-30"/>
       <use xlink:href="#DejaVuSans-2e" x="63.623047"/>
       <use xlink:href="#DejaVuSans-30" x="95.410156"/>
       <use xlink:href="#DejaVuSans-31" x="159.033203"/>
       <use xlink:href="#DejaVuSans-35" x="222.65625"/>
      </g>
     </g>
    </g>
    <g id="ytick_5">
     <g id="line2d_17">
      <path d="M 87.552 45.293814 
L 451.584 45.293814 
" clip-path="url(#p10d8649240)" style="fill: none; stroke: #b0b0b0; stroke-width: 0.8; stroke-linecap: square"/>
     </g>
     <g id="line2d_18">
      <g>
       <use xlink:href="#m59e3d2e6b9" x="87.552" y="45.293814" style="stroke: #000000; stroke-width: 0.8"/>
      </g>
     </g>
     <g id="text_10">
      <!-- 0.020 -->
      <g transform="translate(23.29575 52.892252) scale(0.2 -0.2)">
       <use xlink:href="#DejaVuSans-30"/>
       <use xlink:href="#DejaVuSans-2e" x="63.623047"/>
       <use xlink:href="#DejaVuSans-30" x="95.410156"/>
       <use xlink:href="#DejaVuSans-32" x="159.033203"/>
       <use xlink:href="#DejaVuSans-30" x="222.65625"/>
      </g>
     </g>
    </g>
    <g id="text_11">
     <!-- time[s] -->
     <g transform="translate(15.552313 182.380219) rotate(-90) scale(0.18 -0.18)">
      <defs>
       <path id="DejaVuSans-6d" d="M 3328 2828 
Q 3544 3216 3844 3400 
Q 4144 3584 4550 3584 
Q 5097 3584 5394 3201 
Q 5691 2819 5691 2113 
L 5691 0 
L 5113 0 
L 5113 2094 
Q 5113 2597 4934 2840 
Q 4756 3084 4391 3084 
Q 3944 3084 3684 2787 
Q 3425 2491 3425 1978 
L 3425 0 
L 2847 0 
L 2847 2094 
Q 2847 2600 2669 2842 
Q 2491 3084 2119 3084 
Q 1678 3084 1418 2786 
Q 1159 2488 1159 1978 
L 1159 0 
L 581 0 
L 581 3500 
L 1159 3500 
L 1159 2956 
Q 1356 3278 1631 3431 
Q 1906 3584 2284 3584 
Q 2666 3584 2933 3390 
Q 3200 3197 3328 2828 
z
" transform="scale(0.015625)"/>
       <path id="DejaVuSans-5b" d="M 550 4863 
L 1875 4863 
L 1875 4416 
L 1125 4416 
L 1125 -397 
L 1875 -397 
L 1875 -844 
L 550 -844 
L 550 4863 
z
" transform="scale(0.015625)"/>
       <path id="DejaVuSans-73" d="M 2834 3397 
L 2834 2853 
Q 2591 2978 2328 3040 
Q 2066 3103 1784 3103 
Q 1356 3103 1142 2972 
Q 928 2841 928 2578 
Q 928 2378 1081 2264 
Q 1234 2150 1697 2047 
L 1894 2003 
Q 2506 1872 2764 1633 
Q 3022 1394 3022 966 
Q 3022 478 2636 193 
Q 2250 -91 1575 -91 
Q 1294 -91 989 -36 
Q 684 19 347 128 
L 347 722 
Q 666 556 975 473 
Q 1284 391 1588 391 
Q 1994 391 2212 530 
Q 2431 669 2431 922 
Q 2431 1156 2273 1281 
Q 2116 1406 1581 1522 
L 1381 1569 
Q 847 1681 609 1914 
Q 372 2147 372 2553 
Q 372 3047 722 3315 
Q 1072 3584 1716 3584 
Q 2034 3584 2315 3537 
Q 2597 3491 2834 3397 
z
" transform="scale(0.015625)"/>
       <path id="DejaVuSans-5d" d="M 1947 4863 
L 1947 -844 
L 622 -844 
L 622 -397 
L 1369 -397 
L 1369 4416 
L 622 4416 
L 622 4863 
L 1947 4863 
z
" transform="scale(0.015625)"/>
      </defs>
      <use xlink:href="#DejaVuSans-74"/>
      <use xlink:href="#DejaVuSans-69" x="39.208984"/>
      <use xlink:href="#DejaVuSans-6d" x="66.992188"/>
      <use xlink:href="#DejaVuSans-65" x="164.404297"/>
      <use xlink:href="#DejaVuSans-5b" x="225.927734"/>
      <use xlink:href="#DejaVuSans-73" x="264.941406"/>
      <use xlink:href="#DejaVuSans-5d" x="317.041016"/>
     </g>
    </g>
   </g>
   <g id="patch_195">
    <path d="M 87.552 293.76 
L 87.552 6.912 
" style="fill: none; stroke: #000000; stroke-width: 0.8; stroke-linejoin: miter; stroke-linecap: square"/>
   </g>
   <g id="patch_196">
    <path d="M 451.584 293.76 
L 451.584 6.912 
" style="fill: none; stroke: #000000; stroke-width: 0.8; stroke-linejoin: miter; stroke-linecap: square"/>
   </g>
   <g id="patch_197">
    <path d="M 87.552 293.76 
L 451.584 293.76 
" style="fill: none; stroke: #000000; stroke-width: 0.8; stroke-linejoin: miter; stroke-linecap: square"/>
   </g>
   <g id="patch_198">
    <path d="M 87.552 6.912 
L 451.584 6.912 
" style="fill: none; stroke: #000000; stroke-width: 0.8; stroke-linejoin: miter; stroke-linecap: square"/>
   </g>
  </g>
 </g>
 <defs>
  <clipPath id="p10d8649240">
   <rect x="87.552" y="6.912" width="364.032" height="286.848"/>
  </clipPath>
 </defs>
</svg>
