<?xml version="1.0" encoding="utf-8" standalone="no"?>
<!DOCTYPE svg PUBLIC "-//W3C//DTD SVG 1.1//EN"
  "http://www.w3.org/Graphics/SVG/1.1/DTD/svg11.dtd">
<svg xmlns:xlink="http://www.w3.org/1999/xlink" width="460.8pt" height="345.6pt" viewBox="0 0 460.8 345.6" xmlns="http://www.w3.org/2000/svg" version="1.1">
 <metadata>
  <rdf:RDF xmlns:dc="http://purl.org/dc/elements/1.1/" xmlns:cc="http://creativecommons.org/ns#" xmlns:rdf="http://www.w3.org/1999/02/22-rdf-syntax-ns#">
   <cc:Work>
    <dc:type rdf:resource="http://purl.org/dc/dcmitype/StillImage"/>
    <dc:date>2024-02-14T15:54:49.737781</dc:date>
    <dc:format>image/svg+xml</dc:format>
    <dc:creator>
     <cc:Agent>
      <dc:title>Matplotlib v3.7.0, https://matplotlib.org/</dc:title>
     </cc:Agent>
    </dc:creator>
   </cc:Work>
  </rdf:RDF>
 </metadata>
 <defs>
  <style type="text/css">*{stroke-linejoin: round; stroke-linecap: butt}</style>
 </defs>
 <g id="figure_1">
  <g id="patch_1">
   <path d="M 0 345.6 
L 460.8 345.6 
L 460.8 0 
L 0 0 
L 0 345.6 
z
" style="fill: none"/>
  </g>
  <g id="axes_1">
   <g id="patch_2">
    <path d="M 57.6 56.422112 
L 414.72 56.422112 
L 414.72 41.472 
L 57.6 41.472 
L 57.6 56.422112 
z
" style="fill: none"/>
   </g>
   <g id="patch_3">
    <path d="M 57.6 4456.179707 
L 87.222478 4456.179707 
L 87.222478 4456.179707 
L 57.6 4456.179707 
z
" clip-path="url(#p7ac05806de)"/>
   </g>
   <g id="patch_4">
    <path d="M 87.222478 4456.179707 
L 116.844957 4456.179707 
L 116.844957 4456.179707 
L 87.222478 4456.179707 
z
" clip-path="url(#p7ac05806de)"/>
   </g>
   <g id="patch_5">
    <path d="M 116.844957 4456.179707 
L 146.467435 4456.179707 
L 146.467435 41.473529 
L 116.844957 41.473529 
z
" clip-path="url(#p7ac05806de)"/>
   </g>
   <g id="patch_6">
    <path d="M 146.467435 4456.179707 
L 176.089913 4456.179707 
L 176.089913 56.422112 
L 146.467435 56.422112 
z
" clip-path="url(#p7ac05806de)"/>
   </g>
   <g id="patch_7">
    <path d="M 176.089913 4456.179707 
L 205.712392 4456.179707 
L 205.712392 55.097653 
L 176.089913 55.097653 
z
" clip-path="url(#p7ac05806de)"/>
   </g>
   <g id="patch_8">
    <path d="M 205.712392 4456.179707 
L 235.33487 4456.179707 
L 235.33487 4456.179707 
L 205.712392 4456.179707 
z
" clip-path="url(#p7ac05806de)"/>
   </g>
   <g id="patch_9">
    <path d="M 235.33487 4456.179707 
L 264.957348 4456.179707 
L 264.957348 4456.179707 
L 235.33487 4456.179707 
z
" clip-path="url(#p7ac05806de)"/>
   </g>
   <g id="patch_10">
    <path d="M 264.957348 4456.179707 
L 294.579826 4456.179707 
L 294.579826 4456.179707 
L 264.957348 4456.179707 
z
" clip-path="url(#p7ac05806de)"/>
   </g>
   <g id="patch_11">
    <path d="M 294.579826 4456.179707 
L 324.202305 4456.179707 
L 324.202305 4456.179707 
L 294.579826 4456.179707 
z
" clip-path="url(#p7ac05806de)"/>
   </g>
   <g id="patch_12">
    <path d="M 324.202305 4456.179707 
L 353.824783 4456.179707 
L 353.824783 4456.179707 
L 324.202305 4456.179707 
z
" clip-path="url(#p7ac05806de)"/>
   </g>
   <g id="matplotlib.axis_1"/>
   <g id="matplotlib.axis_2">
    <g id="ytick_1"/>
    <g id="ytick_2"/>
   </g>
   <g id="patch_13">
    <path d="M 57.6 56.422112 
L 57.6 41.472 
" style="fill: none; stroke: #000000; stroke-width: 0.8; stroke-linejoin: miter; stroke-linecap: square"/>
   </g>
   <g id="patch_14">
    <path d="M 414.72 56.422112 
L 414.72 41.472 
" style="fill: none; stroke: #000000; stroke-width: 0.8; stroke-linejoin: miter; stroke-linecap: square"/>
   </g>
   <g id="patch_15">
    <path d="M 57.6 56.422112 
L 414.72 56.422112 
" style="fill: none; stroke: #000000; stroke-width: 0.8; stroke-linejoin: miter; stroke-linecap: square"/>
   </g>
   <g id="patch_16">
    <path d="M 57.6 41.472 
L 414.72 41.472 
" style="fill: none; stroke: #000000; stroke-width: 0.8; stroke-linejoin: miter; stroke-linecap: square"/>
   </g>
  </g>
  <g id="axes_2">
   <g id="patch_17">
    <path d="M 57.6 74.362247 
L 414.72 74.362247 
L 414.72 59.412135 
L 57.6 59.412135 
L 57.6 74.362247 
z
" style="fill: none"/>
   </g>
   <g id="patch_18">
    <path d="M 57.6 4474.119842 
L 87.222478 4474.119842 
L 87.222478 4474.119842 
L 57.6 4474.119842 
z
" clip-path="url(#p43f78ca941)"/>
   </g>
   <g id="patch_19">
    <path d="M 87.222478 4474.119842 
L 116.844957 4474.119842 
L 116.844957 4474.119842 
L 87.222478 4474.119842 
z
" clip-path="url(#p43f78ca941)"/>
   </g>
   <g id="patch_20">
    <path d="M 116.844957 4474.119842 
L 146.467435 4474.119842 
L 146.467435 59.415195 
L 116.844957 59.415195 
z
" clip-path="url(#p43f78ca941)"/>
   </g>
   <g id="patch_21">
    <path d="M 146.467435 4474.119842 
L 176.089913 4474.119842 
L 176.089913 73.037788 
L 146.467435 73.037788 
z
" clip-path="url(#p43f78ca941)"/>
   </g>
   <g id="patch_22">
    <path d="M 176.089913 4474.119842 
L 205.712392 4474.119842 
L 205.712392 74.362247 
L 176.089913 74.362247 
z
" clip-path="url(#p43f78ca941)"/>
   </g>
   <g id="patch_23">
    <path d="M 205.712392 4474.119842 
L 235.33487 4474.119842 
L 235.33487 4474.119842 
L 205.712392 4474.119842 
z
" clip-path="url(#p43f78ca941)"/>
   </g>
   <g id="patch_24">
    <path d="M 235.33487 4474.119842 
L 264.957348 4474.119842 
L 264.957348 73.037788 
L 235.33487 73.037788 
z
" clip-path="url(#p43f78ca941)"/>
   </g>
   <g id="patch_25">
    <path d="M 264.957348 4474.119842 
L 294.579826 4474.119842 
L 294.579826 4474.119842 
L 264.957348 4474.119842 
z
" clip-path="url(#p43f78ca941)"/>
   </g>
   <g id="patch_26">
    <path d="M 294.579826 4474.119842 
L 324.202305 4474.119842 
L 324.202305 4474.119842 
L 294.579826 4474.119842 
z
" clip-path="url(#p43f78ca941)"/>
   </g>
   <g id="patch_27">
    <path d="M 324.202305 4474.119842 
L 353.824783 4474.119842 
L 353.824783 4474.119842 
L 324.202305 4474.119842 
z
" clip-path="url(#p43f78ca941)"/>
   </g>
   <g id="matplotlib.axis_3"/>
   <g id="matplotlib.axis_4">
    <g id="ytick_3"/>
    <g id="ytick_4"/>
   </g>
   <g id="patch_28">
    <path d="M 57.6 74.362247 
L 57.6 59.412135 
" style="fill: none; stroke: #000000; stroke-width: 0.8; stroke-linejoin: miter; stroke-linecap: square"/>
   </g>
   <g id="patch_29">
    <path d="M 414.72 74.362247 
L 414.72 59.412135 
" style="fill: none; stroke: #000000; stroke-width: 0.8; stroke-linejoin: miter; stroke-linecap: square"/>
   </g>
   <g id="patch_30">
    <path d="M 57.6 74.362247 
L 414.72 74.362247 
" style="fill: none; stroke: #000000; stroke-width: 0.8; stroke-linejoin: miter; stroke-linecap: square"/>
   </g>
   <g id="patch_31">
    <path d="M 57.6 59.412135 
L 414.72 59.412135 
" style="fill: none; stroke: #000000; stroke-width: 0.8; stroke-linejoin: miter; stroke-linecap: square"/>
   </g>
  </g>
  <g id="axes_3">
   <g id="patch_32">
    <path d="M 57.6 92.302382 
L 414.72 92.302382 
L 414.72 77.35227 
L 57.6 77.35227 
L 57.6 92.302382 
z
" style="fill: none"/>
   </g>
   <g id="patch_33">
    <path d="M 57.6 4492.059977 
L 87.222478 4492.059977 
L 87.222478 4492.059977 
L 57.6 4492.059977 
z
" clip-path="url(#p5d326b0903)"/>
   </g>
   <g id="patch_34">
    <path d="M 87.222478 4492.059977 
L 116.844957 4492.059977 
L 116.844957 4492.059977 
L 87.222478 4492.059977 
z
" clip-path="url(#p5d326b0903)"/>
   </g>
   <g id="patch_35">
    <path d="M 116.844957 4492.059977 
L 146.467435 4492.059977 
L 146.467435 77.356861 
L 116.844957 77.356861 
z
" clip-path="url(#p5d326b0903)"/>
   </g>
   <g id="patch_36">
    <path d="M 146.467435 4492.059977 
L 176.089913 4492.059977 
L 176.089913 90.203164 
L 146.467435 90.203164 
z
" clip-path="url(#p5d326b0903)"/>
   </g>
   <g id="patch_37">
    <path d="M 176.089913 4492.059977 
L 205.712392 4492.059977 
L 205.712392 90.977923 
L 176.089913 90.977923 
z
" clip-path="url(#p5d326b0903)"/>
   </g>
   <g id="patch_38">
    <path d="M 205.712392 4492.059977 
L 235.33487 4492.059977 
L 235.33487 4492.059977 
L 205.712392 4492.059977 
z
" clip-path="url(#p5d326b0903)"/>
   </g>
   <g id="patch_39">
    <path d="M 235.33487 4492.059977 
L 264.957348 4492.059977 
L 264.957348 4492.059977 
L 235.33487 4492.059977 
z
" clip-path="url(#p5d326b0903)"/>
   </g>
   <g id="patch_40">
    <path d="M 264.957348 4492.059977 
L 294.579826 4492.059977 
L 294.579826 90.977923 
L 264.957348 90.977923 
z
" clip-path="url(#p5d326b0903)"/>
   </g>
   <g id="patch_41">
    <path d="M 294.579826 4492.059977 
L 324.202305 4492.059977 
L 324.202305 4492.059977 
L 294.579826 4492.059977 
z
" clip-path="url(#p5d326b0903)"/>
   </g>
   <g id="patch_42">
    <path d="M 324.202305 4492.059977 
L 353.824783 4492.059977 
L 353.824783 4492.059977 
L 324.202305 4492.059977 
z
" clip-path="url(#p5d326b0903)"/>
   </g>
   <g id="matplotlib.axis_5"/>
   <g id="matplotlib.axis_6">
    <g id="ytick_5"/>
    <g id="ytick_6"/>
   </g>
   <g id="patch_43">
    <path d="M 57.6 92.302382 
L 57.6 77.35227 
" style="fill: none; stroke: #000000; stroke-width: 0.8; stroke-linejoin: miter; stroke-linecap: square"/>
   </g>
   <g id="patch_44">
    <path d="M 414.72 92.302382 
L 414.72 77.35227 
" style="fill: none; stroke: #000000; stroke-width: 0.8; stroke-linejoin: miter; stroke-linecap: square"/>
   </g>
   <g id="patch_45">
    <path d="M 57.6 92.302382 
L 414.72 92.302382 
" style="fill: none; stroke: #000000; stroke-width: 0.8; stroke-linejoin: miter; stroke-linecap: square"/>
   </g>
   <g id="patch_46">
    <path d="M 57.6 77.35227 
L 414.72 77.35227 
" style="fill: none; stroke: #000000; stroke-width: 0.8; stroke-linejoin: miter; stroke-linecap: square"/>
   </g>
  </g>
  <g id="axes_4">
   <g id="patch_47">
    <path d="M 57.6 110.242517 
L 414.72 110.242517 
L 414.72 95.292404 
L 57.6 95.292404 
L 57.6 110.242517 
z
" style="fill: none"/>
   </g>
   <g id="patch_48">
    <path d="M 57.6 4510.000112 
L 87.222478 4510.000112 
L 87.222478 4510.000112 
L 57.6 4510.000112 
z
" clip-path="url(#p2a7a062a24)"/>
   </g>
   <g id="patch_49">
    <path d="M 87.222478 4510.000112 
L 116.844957 4510.000112 
L 116.844957 4510.000112 
L 87.222478 4510.000112 
z
" clip-path="url(#p2a7a062a24)"/>
   </g>
   <g id="patch_50">
    <path d="M 116.844957 4510.000112 
L 146.467435 4510.000112 
L 146.467435 95.300063 
L 116.844957 95.300063 
z
" clip-path="url(#p2a7a062a24)"/>
   </g>
   <g id="patch_51">
    <path d="M 146.467435 4510.000112 
L 176.089913 4510.000112 
L 176.089913 106.52429 
L 146.467435 106.52429 
z
" clip-path="url(#p2a7a062a24)"/>
   </g>
   <g id="patch_52">
    <path d="M 176.089913 4510.000112 
L 205.712392 4510.000112 
L 205.712392 110.242517 
L 176.089913 110.242517 
z
" clip-path="url(#p2a7a062a24)"/>
   </g>
   <g id="patch_53">
    <path d="M 205.712392 4510.000112 
L 235.33487 4510.000112 
L 235.33487 110.242517 
L 205.712392 110.242517 
z
" clip-path="url(#p2a7a062a24)"/>
   </g>
   <g id="patch_54">
    <path d="M 235.33487 4510.000112 
L 264.957348 4510.000112 
L 264.957348 4510.000112 
L 235.33487 4510.000112 
z
" clip-path="url(#p2a7a062a24)"/>
   </g>
   <g id="patch_55">
    <path d="M 264.957348 4510.000112 
L 294.579826 4510.000112 
L 294.579826 4510.000112 
L 264.957348 4510.000112 
z
" clip-path="url(#p2a7a062a24)"/>
   </g>
   <g id="patch_56">
    <path d="M 294.579826 4510.000112 
L 324.202305 4510.000112 
L 324.202305 108.918058 
L 294.579826 108.918058 
z
" clip-path="url(#p2a7a062a24)"/>
   </g>
   <g id="patch_57">
    <path d="M 324.202305 4510.000112 
L 353.824783 4510.000112 
L 353.824783 4510.000112 
L 324.202305 4510.000112 
z
" clip-path="url(#p2a7a062a24)"/>
   </g>
   <g id="matplotlib.axis_7"/>
   <g id="matplotlib.axis_8">
    <g id="ytick_7"/>
    <g id="ytick_8"/>
   </g>
   <g id="patch_58">
    <path d="M 57.6 110.242517 
L 57.6 95.292404 
" style="fill: none; stroke: #000000; stroke-width: 0.8; stroke-linejoin: miter; stroke-linecap: square"/>
   </g>
   <g id="patch_59">
    <path d="M 414.72 110.242517 
L 414.72 95.292404 
" style="fill: none; stroke: #000000; stroke-width: 0.8; stroke-linejoin: miter; stroke-linecap: square"/>
   </g>
   <g id="patch_60">
    <path d="M 57.6 110.242517 
L 414.72 110.242517 
" style="fill: none; stroke: #000000; stroke-width: 0.8; stroke-linejoin: miter; stroke-linecap: square"/>
   </g>
   <g id="patch_61">
    <path d="M 57.6 95.292404 
L 414.72 95.292404 
" style="fill: none; stroke: #000000; stroke-width: 0.8; stroke-linejoin: miter; stroke-linecap: square"/>
   </g>
  </g>
  <g id="axes_5">
   <g id="patch_62">
    <path d="M 57.6 128.182652 
L 414.72 128.182652 
L 414.72 113.232539 
L 57.6 113.232539 
L 57.6 128.182652 
z
" style="fill: none"/>
   </g>
   <g id="patch_63">
    <path d="M 57.6 4527.940246 
L 87.222478 4527.940246 
L 87.222478 4527.940246 
L 57.6 4527.940246 
z
" clip-path="url(#pd3d35ef11d)"/>
   </g>
   <g id="patch_64">
    <path d="M 87.222478 4527.940246 
L 116.844957 4527.940246 
L 116.844957 4527.940246 
L 87.222478 4527.940246 
z
" clip-path="url(#pd3d35ef11d)"/>
   </g>
   <g id="patch_65">
    <path d="M 116.844957 4527.940246 
L 146.467435 4527.940246 
L 146.467435 113.241733 
L 116.844957 113.241733 
z
" clip-path="url(#pd3d35ef11d)"/>
   </g>
   <g id="patch_66">
    <path d="M 146.467435 4527.940246 
L 176.089913 4527.940246 
L 176.089913 123.984216 
L 146.467435 123.984216 
z
" clip-path="url(#pd3d35ef11d)"/>
   </g>
   <g id="patch_67">
    <path d="M 176.089913 4527.940246 
L 205.712392 4527.940246 
L 205.712392 128.182652 
L 176.089913 128.182652 
z
" clip-path="url(#pd3d35ef11d)"/>
   </g>
   <g id="patch_68">
    <path d="M 205.712392 4527.940246 
L 235.33487 4527.940246 
L 235.33487 128.182652 
L 205.712392 128.182652 
z
" clip-path="url(#pd3d35ef11d)"/>
   </g>
   <g id="patch_69">
    <path d="M 235.33487 4527.940246 
L 264.957348 4527.940246 
L 264.957348 4527.940246 
L 235.33487 4527.940246 
z
" clip-path="url(#pd3d35ef11d)"/>
   </g>
   <g id="patch_70">
    <path d="M 264.957348 4527.940246 
L 294.579826 4527.940246 
L 294.579826 4527.940246 
L 264.957348 4527.940246 
z
" clip-path="url(#pd3d35ef11d)"/>
   </g>
   <g id="patch_71">
    <path d="M 294.579826 4527.940246 
L 324.202305 4527.940246 
L 324.202305 4527.940246 
L 294.579826 4527.940246 
z
" clip-path="url(#pd3d35ef11d)"/>
   </g>
   <g id="patch_72">
    <path d="M 324.202305 4527.940246 
L 353.824783 4527.940246 
L 353.824783 126.858193 
L 324.202305 126.858193 
z
" clip-path="url(#pd3d35ef11d)"/>
   </g>
   <g id="matplotlib.axis_9"/>
   <g id="matplotlib.axis_10">
    <g id="ytick_9"/>
    <g id="ytick_10"/>
   </g>
   <g id="patch_73">
    <path d="M 57.6 128.182652 
L 57.6 113.232539 
" style="fill: none; stroke: #000000; stroke-width: 0.8; stroke-linejoin: miter; stroke-linecap: square"/>
   </g>
   <g id="patch_74">
    <path d="M 414.72 128.182652 
L 414.72 113.232539 
" style="fill: none; stroke: #000000; stroke-width: 0.8; stroke-linejoin: miter; stroke-linecap: square"/>
   </g>
   <g id="patch_75">
    <path d="M 57.6 128.182652 
L 414.72 128.182652 
" style="fill: none; stroke: #000000; stroke-width: 0.8; stroke-linejoin: miter; stroke-linecap: square"/>
   </g>
   <g id="patch_76">
    <path d="M 57.6 113.232539 
L 414.72 113.232539 
" style="fill: none; stroke: #000000; stroke-width: 0.8; stroke-linejoin: miter; stroke-linecap: square"/>
   </g>
  </g>
  <g id="axes_6">
   <g id="patch_77">
    <path d="M 57.6 146.122787 
L 414.72 146.122787 
L 414.72 131.172674 
L 57.6 131.172674 
L 57.6 146.122787 
z
" style="fill: none"/>
   </g>
   <g id="patch_78">
    <path d="M 57.6 4545.880381 
L 87.222478 4545.880381 
L 87.222478 4545.880381 
L 57.6 4545.880381 
z
" clip-path="url(#p61e8ce080f)"/>
   </g>
   <g id="patch_79">
    <path d="M 87.222478 4545.880381 
L 116.844957 4545.880381 
L 116.844957 4545.880381 
L 87.222478 4545.880381 
z
" clip-path="url(#p61e8ce080f)"/>
   </g>
   <g id="patch_80">
    <path d="M 116.844957 4545.880381 
L 146.467435 4545.880381 
L 146.467435 131.184943 
L 116.844957 131.184943 
z
" clip-path="url(#p61e8ce080f)"/>
   </g>
   <g id="patch_81">
    <path d="M 146.467435 4545.880381 
L 176.089913 4545.880381 
L 176.089913 141.374651 
L 146.467435 141.374651 
z
" clip-path="url(#p61e8ce080f)"/>
   </g>
   <g id="patch_82">
    <path d="M 176.089913 4545.880381 
L 205.712392 4545.880381 
L 205.712392 144.798328 
L 176.089913 144.798328 
z
" clip-path="url(#p61e8ce080f)"/>
   </g>
   <g id="patch_83">
    <path d="M 205.712392 4545.880381 
L 235.33487 4545.880381 
L 235.33487 146.122787 
L 205.712392 146.122787 
z
" clip-path="url(#p61e8ce080f)"/>
   </g>
   <g id="patch_84">
    <path d="M 235.33487 4545.880381 
L 264.957348 4545.880381 
L 264.957348 4545.880381 
L 235.33487 4545.880381 
z
" clip-path="url(#p61e8ce080f)"/>
   </g>
   <g id="patch_85">
    <path d="M 264.957348 4545.880381 
L 294.579826 4545.880381 
L 294.579826 4545.880381 
L 264.957348 4545.880381 
z
" clip-path="url(#p61e8ce080f)"/>
   </g>
   <g id="patch_86">
    <path d="M 294.579826 4545.880381 
L 324.202305 4545.880381 
L 324.202305 4545.880381 
L 294.579826 4545.880381 
z
" clip-path="url(#p61e8ce080f)"/>
   </g>
   <g id="patch_87">
    <path d="M 324.202305 4545.880381 
L 353.824783 4545.880381 
L 353.824783 144.798328 
L 324.202305 144.798328 
z
" clip-path="url(#p61e8ce080f)"/>
   </g>
   <g id="matplotlib.axis_11"/>
   <g id="matplotlib.axis_12">
    <g id="ytick_11"/>
    <g id="ytick_12"/>
   </g>
   <g id="patch_88">
    <path d="M 57.6 146.122787 
L 57.6 131.172674 
" style="fill: none; stroke: #000000; stroke-width: 0.8; stroke-linejoin: miter; stroke-linecap: square"/>
   </g>
   <g id="patch_89">
    <path d="M 414.72 146.122787 
L 414.72 131.172674 
" style="fill: none; stroke: #000000; stroke-width: 0.8; stroke-linejoin: miter; stroke-linecap: square"/>
   </g>
   <g id="patch_90">
    <path d="M 57.6 146.122787 
L 414.72 146.122787 
" style="fill: none; stroke: #000000; stroke-width: 0.8; stroke-linejoin: miter; stroke-linecap: square"/>
   </g>
   <g id="patch_91">
    <path d="M 57.6 131.172674 
L 414.72 131.172674 
" style="fill: none; stroke: #000000; stroke-width: 0.8; stroke-linejoin: miter; stroke-linecap: square"/>
   </g>
  </g>
  <g id="axes_7">
   <g id="patch_92">
    <path d="M 57.6 164.062921 
L 414.72 164.062921 
L 414.72 149.112809 
L 57.6 149.112809 
L 57.6 164.062921 
z
" style="fill: none"/>
   </g>
   <g id="patch_93">
    <path d="M 57.6 4563.820516 
L 87.222478 4563.820516 
L 87.222478 4563.820516 
L 57.6 4563.820516 
z
" clip-path="url(#p3506cab58d)"/>
   </g>
   <g id="patch_94">
    <path d="M 87.222478 4563.820516 
L 116.844957 4563.820516 
L 116.844957 4563.820516 
L 87.222478 4563.820516 
z
" clip-path="url(#p3506cab58d)"/>
   </g>
   <g id="patch_95">
    <path d="M 116.844957 4563.820516 
L 146.467435 4563.820516 
L 146.467435 149.128157 
L 116.844957 149.128157 
z
" clip-path="url(#p3506cab58d)"/>
   </g>
   <g id="patch_96">
    <path d="M 146.467435 4563.820516 
L 176.089913 4563.820516 
L 176.089913 159.020236 
L 146.467435 159.020236 
z
" clip-path="url(#p3506cab58d)"/>
   </g>
   <g id="patch_97">
    <path d="M 176.089913 4563.820516 
L 205.712392 4563.820516 
L 205.712392 161.414003 
L 176.089913 161.414003 
z
" clip-path="url(#p3506cab58d)"/>
   </g>
   <g id="patch_98">
    <path d="M 205.712392 4563.820516 
L 235.33487 4563.820516 
L 235.33487 164.062921 
L 205.712392 164.062921 
z
" clip-path="url(#p3506cab58d)"/>
   </g>
   <g id="patch_99">
    <path d="M 235.33487 4563.820516 
L 264.957348 4563.820516 
L 264.957348 4563.820516 
L 235.33487 4563.820516 
z
" clip-path="url(#p3506cab58d)"/>
   </g>
   <g id="patch_100">
    <path d="M 264.957348 4563.820516 
L 294.579826 4563.820516 
L 294.579826 4563.820516 
L 264.957348 4563.820516 
z
" clip-path="url(#p3506cab58d)"/>
   </g>
   <g id="patch_101">
    <path d="M 294.579826 4563.820516 
L 324.202305 4563.820516 
L 324.202305 4563.820516 
L 294.579826 4563.820516 
z
" clip-path="url(#p3506cab58d)"/>
   </g>
   <g id="patch_102">
    <path d="M 324.202305 4563.820516 
L 353.824783 4563.820516 
L 353.824783 162.738462 
L 324.202305 162.738462 
z
" clip-path="url(#p3506cab58d)"/>
   </g>
   <g id="matplotlib.axis_13"/>
   <g id="matplotlib.axis_14">
    <g id="ytick_13"/>
    <g id="ytick_14"/>
   </g>
   <g id="patch_103">
    <path d="M 57.6 164.062921 
L 57.6 149.112809 
" style="fill: none; stroke: #000000; stroke-width: 0.8; stroke-linejoin: miter; stroke-linecap: square"/>
   </g>
   <g id="patch_104">
    <path d="M 414.72 164.062921 
L 414.72 149.112809 
" style="fill: none; stroke: #000000; stroke-width: 0.8; stroke-linejoin: miter; stroke-linecap: square"/>
   </g>
   <g id="patch_105">
    <path d="M 57.6 164.062921 
L 414.72 164.062921 
" style="fill: none; stroke: #000000; stroke-width: 0.8; stroke-linejoin: miter; stroke-linecap: square"/>
   </g>
   <g id="patch_106">
    <path d="M 57.6 149.112809 
L 414.72 149.112809 
" style="fill: none; stroke: #000000; stroke-width: 0.8; stroke-linejoin: miter; stroke-linecap: square"/>
   </g>
  </g>
  <g id="axes_8">
   <g id="patch_107">
    <path d="M 57.6 182.003056 
L 414.72 182.003056 
L 414.72 167.052944 
L 57.6 167.052944 
L 57.6 182.003056 
z
" style="fill: none"/>
   </g>
   <g id="patch_108">
    <path d="M 57.6 4581.760651 
L 87.222478 4581.760651 
L 87.222478 4581.760651 
L 57.6 4581.760651 
z
" clip-path="url(#p1962dd7e51)"/>
   </g>
   <g id="patch_109">
    <path d="M 87.222478 4581.760651 
L 116.844957 4581.760651 
L 116.844957 4581.760651 
L 87.222478 4581.760651 
z
" clip-path="url(#p1962dd7e51)"/>
   </g>
   <g id="patch_110">
    <path d="M 116.844957 4581.760651 
L 146.467435 4581.760651 
L 146.467435 167.070604 
L 116.844957 167.070604 
z
" clip-path="url(#p1962dd7e51)"/>
   </g>
   <g id="patch_111">
    <path d="M 146.467435 4581.760651 
L 176.089913 4581.760651 
L 176.089913 176.82854 
L 146.467435 176.82854 
z
" clip-path="url(#p1962dd7e51)"/>
   </g>
   <g id="patch_112">
    <path d="M 176.089913 4581.760651 
L 205.712392 4581.760651 
L 205.712392 178.28483 
L 176.089913 178.28483 
z
" clip-path="url(#p1962dd7e51)"/>
   </g>
   <g id="patch_113">
    <path d="M 205.712392 4581.760651 
L 235.33487 4581.760651 
L 235.33487 4581.760651 
L 205.712392 4581.760651 
z
" clip-path="url(#p1962dd7e51)"/>
   </g>
   <g id="patch_114">
    <path d="M 235.33487 4581.760651 
L 264.957348 4581.760651 
L 264.957348 4581.760651 
L 235.33487 4581.760651 
z
" clip-path="url(#p1962dd7e51)"/>
   </g>
   <g id="patch_115">
    <path d="M 264.957348 4581.760651 
L 294.579826 4581.760651 
L 294.579826 4581.760651 
L 264.957348 4581.760651 
z
" clip-path="url(#p1962dd7e51)"/>
   </g>
   <g id="patch_116">
    <path d="M 294.579826 4581.760651 
L 324.202305 4581.760651 
L 324.202305 180.678597 
L 294.579826 180.678597 
z
" clip-path="url(#p1962dd7e51)"/>
   </g>
   <g id="patch_117">
    <path d="M 324.202305 4581.760651 
L 353.824783 4581.760651 
L 353.824783 4581.760651 
L 324.202305 4581.760651 
z
" clip-path="url(#p1962dd7e51)"/>
   </g>
   <g id="matplotlib.axis_15"/>
   <g id="matplotlib.axis_16">
    <g id="ytick_15"/>
    <g id="ytick_16"/>
   </g>
   <g id="patch_118">
    <path d="M 57.6 182.003056 
L 57.6 167.052944 
" style="fill: none; stroke: #000000; stroke-width: 0.8; stroke-linejoin: miter; stroke-linecap: square"/>
   </g>
   <g id="patch_119">
    <path d="M 414.72 182.003056 
L 414.72 167.052944 
" style="fill: none; stroke: #000000; stroke-width: 0.8; stroke-linejoin: miter; stroke-linecap: square"/>
   </g>
   <g id="patch_120">
    <path d="M 57.6 182.003056 
L 414.72 182.003056 
" style="fill: none; stroke: #000000; stroke-width: 0.8; stroke-linejoin: miter; stroke-linecap: square"/>
   </g>
   <g id="patch_121">
    <path d="M 57.6 167.052944 
L 414.72 167.052944 
" style="fill: none; stroke: #000000; stroke-width: 0.8; stroke-linejoin: miter; stroke-linecap: square"/>
   </g>
  </g>
  <g id="axes_9">
   <g id="patch_122">
    <path d="M 57.6 199.943191 
L 414.72 199.943191 
L 414.72 184.993079 
L 57.6 184.993079 
L 57.6 199.943191 
z
" style="fill: none"/>
   </g>
   <g id="patch_123">
    <path d="M 57.6 4599.700786 
L 87.222478 4599.700786 
L 87.222478 4599.700786 
L 57.6 4599.700786 
z
" clip-path="url(#p3330e6d279)"/>
   </g>
   <g id="patch_124">
    <path d="M 87.222478 4599.700786 
L 116.844957 4599.700786 
L 116.844957 4599.700786 
L 87.222478 4599.700786 
z
" clip-path="url(#p3330e6d279)"/>
   </g>
   <g id="patch_125">
    <path d="M 116.844957 4599.700786 
L 146.467435 4599.700786 
L 146.467435 185.013055 
L 116.844957 185.013055 
z
" clip-path="url(#p3330e6d279)"/>
   </g>
   <g id="patch_126">
    <path d="M 146.467435 4599.700786 
L 176.089913 4599.700786 
L 176.089913 194.420296 
L 146.467435 194.420296 
z
" clip-path="url(#p3330e6d279)"/>
   </g>
   <g id="patch_127">
    <path d="M 176.089913 4599.700786 
L 205.712392 4599.700786 
L 205.712392 196.224964 
L 176.089913 196.224964 
z
" clip-path="url(#p3330e6d279)"/>
   </g>
   <g id="patch_128">
    <path d="M 205.712392 4599.700786 
L 235.33487 4599.700786 
L 235.33487 4599.700786 
L 205.712392 4599.700786 
z
" clip-path="url(#p3330e6d279)"/>
   </g>
   <g id="patch_129">
    <path d="M 235.33487 4599.700786 
L 264.957348 4599.700786 
L 264.957348 4599.700786 
L 235.33487 4599.700786 
z
" clip-path="url(#p3330e6d279)"/>
   </g>
   <g id="patch_130">
    <path d="M 264.957348 4599.700786 
L 294.579826 4599.700786 
L 294.579826 4599.700786 
L 264.957348 4599.700786 
z
" clip-path="url(#p3330e6d279)"/>
   </g>
   <g id="patch_131">
    <path d="M 294.579826 4599.700786 
L 324.202305 4599.700786 
L 324.202305 198.618732 
L 294.579826 198.618732 
z
" clip-path="url(#p3330e6d279)"/>
   </g>
   <g id="patch_132">
    <path d="M 324.202305 4599.700786 
L 353.824783 4599.700786 
L 353.824783 4599.700786 
L 324.202305 4599.700786 
z
" clip-path="url(#p3330e6d279)"/>
   </g>
   <g id="matplotlib.axis_17"/>
   <g id="matplotlib.axis_18">
    <g id="ytick_17"/>
    <g id="ytick_18"/>
   </g>
   <g id="patch_133">
    <path d="M 57.6 199.943191 
L 57.6 184.993079 
" style="fill: none; stroke: #000000; stroke-width: 0.8; stroke-linejoin: miter; stroke-linecap: square"/>
   </g>
   <g id="patch_134">
    <path d="M 414.72 199.943191 
L 414.72 184.993079 
" style="fill: none; stroke: #000000; stroke-width: 0.8; stroke-linejoin: miter; stroke-linecap: square"/>
   </g>
   <g id="patch_135">
    <path d="M 57.6 199.943191 
L 414.72 199.943191 
" style="fill: none; stroke: #000000; stroke-width: 0.8; stroke-linejoin: miter; stroke-linecap: square"/>
   </g>
   <g id="patch_136">
    <path d="M 57.6 184.993079 
L 414.72 184.993079 
" style="fill: none; stroke: #000000; stroke-width: 0.8; stroke-linejoin: miter; stroke-linecap: square"/>
   </g>
  </g>
  <g id="axes_10">
   <g id="patch_137">
    <path d="M 57.6 217.883326 
L 414.72 217.883326 
L 414.72 202.933213 
L 57.6 202.933213 
L 57.6 217.883326 
z
" style="fill: none"/>
   </g>
   <g id="patch_138">
    <path d="M 57.6 4617.640921 
L 87.222478 4617.640921 
L 87.222478 4617.640921 
L 57.6 4617.640921 
z
" clip-path="url(#p9228ceca33)"/>
   </g>
   <g id="patch_139">
    <path d="M 87.222478 4617.640921 
L 116.844957 4617.640921 
L 116.844957 4617.640921 
L 87.222478 4617.640921 
z
" clip-path="url(#p9228ceca33)"/>
   </g>
   <g id="patch_140">
    <path d="M 116.844957 4617.640921 
L 146.467435 4617.640921 
L 146.467435 202.956282 
L 116.844957 202.956282 
z
" clip-path="url(#p9228ceca33)"/>
   </g>
   <g id="patch_141">
    <path d="M 146.467435 4617.640921 
L 176.089913 4617.640921 
L 176.089913 212.065881 
L 146.467435 212.065881 
z
" clip-path="url(#p9228ceca33)"/>
   </g>
   <g id="patch_142">
    <path d="M 176.089913 4617.640921 
L 205.712392 4617.640921 
L 205.712392 213.909949 
L 176.089913 213.909949 
z
" clip-path="url(#p9228ceca33)"/>
   </g>
   <g id="patch_143">
    <path d="M 205.712392 4617.640921 
L 235.33487 4617.640921 
L 235.33487 4617.640921 
L 205.712392 4617.640921 
z
" clip-path="url(#p9228ceca33)"/>
   </g>
   <g id="patch_144">
    <path d="M 235.33487 4617.640921 
L 264.957348 4617.640921 
L 264.957348 4617.640921 
L 235.33487 4617.640921 
z
" clip-path="url(#p9228ceca33)"/>
   </g>
   <g id="patch_145">
    <path d="M 264.957348 4617.640921 
L 294.579826 4617.640921 
L 294.579826 4617.640921 
L 264.957348 4617.640921 
z
" clip-path="url(#p9228ceca33)"/>
   </g>
   <g id="patch_146">
    <path d="M 294.579826 4617.640921 
L 324.202305 4617.640921 
L 324.202305 216.558867 
L 294.579826 216.558867 
z
" clip-path="url(#p9228ceca33)"/>
   </g>
   <g id="patch_147">
    <path d="M 324.202305 4617.640921 
L 353.824783 4617.640921 
L 353.824783 4617.640921 
L 324.202305 4617.640921 
z
" clip-path="url(#p9228ceca33)"/>
   </g>
   <g id="matplotlib.axis_19"/>
   <g id="matplotlib.axis_20">
    <g id="ytick_19"/>
    <g id="ytick_20"/>
   </g>
   <g id="patch_148">
    <path d="M 57.6 217.883326 
L 57.6 202.933213 
" style="fill: none; stroke: #000000; stroke-width: 0.8; stroke-linejoin: miter; stroke-linecap: square"/>
   </g>
   <g id="patch_149">
    <path d="M 414.72 217.883326 
L 414.72 202.933213 
" style="fill: none; stroke: #000000; stroke-width: 0.8; stroke-linejoin: miter; stroke-linecap: square"/>
   </g>
   <g id="patch_150">
    <path d="M 57.6 217.883326 
L 414.72 217.883326 
" style="fill: none; stroke: #000000; stroke-width: 0.8; stroke-linejoin: miter; stroke-linecap: square"/>
   </g>
   <g id="patch_151">
    <path d="M 57.6 202.933213 
L 414.72 202.933213 
" style="fill: none; stroke: #000000; stroke-width: 0.8; stroke-linejoin: miter; stroke-linecap: square"/>
   </g>
  </g>
  <g id="axes_11">
   <g id="patch_152">
    <path d="M 57.6 235.823461 
L 414.72 235.823461 
L 414.72 220.873348 
L 57.6 220.873348 
L 57.6 235.823461 
z
" style="fill: none"/>
   </g>
   <g id="patch_153">
    <path d="M 57.6 4635.581055 
L 87.222478 4635.581055 
L 87.222478 4635.581055 
L 57.6 4635.581055 
z
" clip-path="url(#pad4f653922)"/>
   </g>
   <g id="patch_154">
    <path d="M 87.222478 4635.581055 
L 116.844957 4635.581055 
L 116.844957 4635.581055 
L 87.222478 4635.581055 
z
" clip-path="url(#pad4f653922)"/>
   </g>
   <g id="patch_155">
    <path d="M 116.844957 4635.581055 
L 146.467435 4635.581055 
L 146.467435 220.899513 
L 116.844957 220.899513 
z
" clip-path="url(#pad4f653922)"/>
   </g>
   <g id="patch_156">
    <path d="M 146.467435 4635.581055 
L 176.089913 4635.581055 
L 176.089913 229.672864 
L 146.467435 229.672864 
z
" clip-path="url(#pad4f653922)"/>
   </g>
   <g id="patch_157">
    <path d="M 176.089913 4635.581055 
L 205.712392 4635.581055 
L 205.712392 232.399784 
L 176.089913 232.399784 
z
" clip-path="url(#pad4f653922)"/>
   </g>
   <g id="patch_158">
    <path d="M 205.712392 4635.581055 
L 235.33487 4635.581055 
L 235.33487 234.499002 
L 205.712392 234.499002 
z
" clip-path="url(#pad4f653922)"/>
   </g>
   <g id="patch_159">
    <path d="M 235.33487 4635.581055 
L 264.957348 4635.581055 
L 264.957348 4635.581055 
L 235.33487 4635.581055 
z
" clip-path="url(#pad4f653922)"/>
   </g>
   <g id="patch_160">
    <path d="M 264.957348 4635.581055 
L 294.579826 4635.581055 
L 294.579826 4635.581055 
L 264.957348 4635.581055 
z
" clip-path="url(#pad4f653922)"/>
   </g>
   <g id="patch_161">
    <path d="M 294.579826 4635.581055 
L 324.202305 4635.581055 
L 324.202305 234.499002 
L 294.579826 234.499002 
z
" clip-path="url(#pad4f653922)"/>
   </g>
   <g id="patch_162">
    <path d="M 324.202305 4635.581055 
L 353.824783 4635.581055 
L 353.824783 4635.581055 
L 324.202305 4635.581055 
z
" clip-path="url(#pad4f653922)"/>
   </g>
   <g id="matplotlib.axis_21"/>
   <g id="matplotlib.axis_22">
    <g id="ytick_21"/>
    <g id="ytick_22"/>
   </g>
   <g id="patch_163">
    <path d="M 57.6 235.823461 
L 57.6 220.873348 
" style="fill: none; stroke: #000000; stroke-width: 0.8; stroke-linejoin: miter; stroke-linecap: square"/>
   </g>
   <g id="patch_164">
    <path d="M 414.72 235.823461 
L 414.72 220.873348 
" style="fill: none; stroke: #000000; stroke-width: 0.8; stroke-linejoin: miter; stroke-linecap: square"/>
   </g>
   <g id="patch_165">
    <path d="M 57.6 235.823461 
L 414.72 235.823461 
" style="fill: none; stroke: #000000; stroke-width: 0.8; stroke-linejoin: miter; stroke-linecap: square"/>
   </g>
   <g id="patch_166">
    <path d="M 57.6 220.873348 
L 414.72 220.873348 
" style="fill: none; stroke: #000000; stroke-width: 0.8; stroke-linejoin: miter; stroke-linecap: square"/>
   </g>
  </g>
  <g id="axes_12">
   <g id="patch_167">
    <path d="M 57.6 253.763596 
L 414.72 253.763596 
L 414.72 238.813483 
L 57.6 238.813483 
L 57.6 253.763596 
z
" style="fill: none"/>
   </g>
   <g id="patch_168">
    <path d="M 57.6 4653.52119 
L 87.222478 4653.52119 
L 87.222478 4653.52119 
L 57.6 4653.52119 
z
" clip-path="url(#p9bd47d7160)"/>
   </g>
   <g id="patch_169">
    <path d="M 87.222478 4653.52119 
L 116.844957 4653.52119 
L 116.844957 4653.52119 
L 87.222478 4653.52119 
z
" clip-path="url(#p9bd47d7160)"/>
   </g>
   <g id="patch_170">
    <path d="M 116.844957 4653.52119 
L 146.467435 4653.52119 
L 146.467435 238.987821 
L 116.844957 238.987821 
z
" clip-path="url(#p9bd47d7160)"/>
   </g>
   <g id="patch_171">
    <path d="M 146.467435 4653.52119 
L 176.089913 4653.52119 
L 176.089913 244.781963 
L 146.467435 244.781963 
z
" clip-path="url(#p9bd47d7160)"/>
   </g>
   <g id="patch_172">
    <path d="M 176.089913 4653.52119 
L 205.712392 4653.52119 
L 205.712392 245.366724 
L 176.089913 245.366724 
z
" clip-path="url(#p9bd47d7160)"/>
   </g>
   <g id="patch_173">
    <path d="M 205.712392 4653.52119 
L 235.33487 4653.52119 
L 235.33487 247.396451 
L 205.712392 247.396451 
z
" clip-path="url(#p9bd47d7160)"/>
   </g>
   <g id="patch_174">
    <path d="M 235.33487 4653.52119 
L 264.957348 4653.52119 
L 264.957348 4653.52119 
L 235.33487 4653.52119 
z
" clip-path="url(#p9bd47d7160)"/>
   </g>
   <g id="patch_175">
    <path d="M 264.957348 4653.52119 
L 294.579826 4653.52119 
L 294.579826 4653.52119 
L 264.957348 4653.52119 
z
" clip-path="url(#p9bd47d7160)"/>
   </g>
   <g id="patch_176">
    <path d="M 294.579826 4653.52119 
L 324.202305 4653.52119 
L 324.202305 4653.52119 
L 294.579826 4653.52119 
z
" clip-path="url(#p9bd47d7160)"/>
   </g>
   <g id="patch_177">
    <path d="M 324.202305 4653.52119 
L 353.824783 4653.52119 
L 353.824783 4653.52119 
L 324.202305 4653.52119 
z
" clip-path="url(#p9bd47d7160)"/>
   </g>
   <g id="matplotlib.axis_23"/>
   <g id="matplotlib.axis_24">
    <g id="ytick_23"/>
    <g id="ytick_24"/>
   </g>
   <g id="patch_178">
    <path d="M 57.6 253.763596 
L 57.6 238.813483 
" style="fill: none; stroke: #000000; stroke-width: 0.8; stroke-linejoin: miter; stroke-linecap: square"/>
   </g>
   <g id="patch_179">
    <path d="M 414.72 253.763596 
L 414.72 238.813483 
" style="fill: none; stroke: #000000; stroke-width: 0.8; stroke-linejoin: miter; stroke-linecap: square"/>
   </g>
   <g id="patch_180">
    <path d="M 57.6 253.763596 
L 414.72 253.763596 
" style="fill: none; stroke: #000000; stroke-width: 0.8; stroke-linejoin: miter; stroke-linecap: square"/>
   </g>
   <g id="patch_181">
    <path d="M 57.6 238.813483 
L 414.72 238.813483 
" style="fill: none; stroke: #000000; stroke-width: 0.8; stroke-linejoin: miter; stroke-linecap: square"/>
   </g>
  </g>
  <g id="axes_13">
   <g id="patch_182">
    <path d="M 57.6 271.70373 
L 414.72 271.70373 
L 414.72 256.753618 
L 57.6 256.753618 
L 57.6 271.70373 
z
" style="fill: none"/>
   </g>
   <g id="patch_183">
    <path d="M 57.6 4671.461325 
L 87.222478 4671.461325 
L 87.222478 269.054812 
L 57.6 269.054812 
z
" clip-path="url(#pc984444ef4)"/>
   </g>
   <g id="patch_184">
    <path d="M 87.222478 4671.461325 
L 116.844957 4671.461325 
L 116.844957 267.985504 
L 87.222478 267.985504 
z
" clip-path="url(#pc984444ef4)"/>
   </g>
   <g id="patch_185">
    <path d="M 116.844957 4671.461325 
L 146.467435 4671.461325 
L 146.467435 257.154375 
L 116.844957 257.154375 
z
" clip-path="url(#pc984444ef4)"/>
   </g>
   <g id="patch_186">
    <path d="M 146.467435 4671.461325 
L 176.089913 4671.461325 
L 176.089913 261.168723 
L 146.467435 261.168723 
z
" clip-path="url(#pc984444ef4)"/>
   </g>
   <g id="patch_187">
    <path d="M 176.089913 4671.461325 
L 205.712392 4671.461325 
L 205.712392 262.620616 
L 176.089913 262.620616 
z
" clip-path="url(#pc984444ef4)"/>
   </g>
   <g id="patch_188">
    <path d="M 205.712392 4671.461325 
L 235.33487 4671.461325 
L 235.33487 263.479564 
L 205.712392 263.479564 
z
" clip-path="url(#pc984444ef4)"/>
   </g>
   <g id="patch_189">
    <path d="M 235.33487 4671.461325 
L 264.957348 4671.461325 
L 264.957348 265.553133 
L 235.33487 265.553133 
z
" clip-path="url(#pc984444ef4)"/>
   </g>
   <g id="patch_190">
    <path d="M 264.957348 4671.461325 
L 294.579826 4671.461325 
L 294.579826 4671.461325 
L 264.957348 4671.461325 
z
" clip-path="url(#pc984444ef4)"/>
   </g>
   <g id="patch_191">
    <path d="M 294.579826 4671.461325 
L 324.202305 4671.461325 
L 324.202305 4671.461325 
L 294.579826 4671.461325 
z
" clip-path="url(#pc984444ef4)"/>
   </g>
   <g id="patch_192">
    <path d="M 324.202305 4671.461325 
L 353.824783 4671.461325 
L 353.824783 4671.461325 
L 324.202305 4671.461325 
z
" clip-path="url(#pc984444ef4)"/>
   </g>
   <g id="matplotlib.axis_25"/>
   <g id="matplotlib.axis_26">
    <g id="ytick_25"/>
    <g id="ytick_26"/>
   </g>
   <g id="patch_193">
    <path d="M 57.6 271.70373 
L 57.6 256.753618 
" style="fill: none; stroke: #000000; stroke-width: 0.8; stroke-linejoin: miter; stroke-linecap: square"/>
   </g>
   <g id="patch_194">
    <path d="M 414.72 271.70373 
L 414.72 256.753618 
" style="fill: none; stroke: #000000; stroke-width: 0.8; stroke-linejoin: miter; stroke-linecap: square"/>
   </g>
   <g id="patch_195">
    <path d="M 57.6 271.70373 
L 414.72 271.70373 
" style="fill: none; stroke: #000000; stroke-width: 0.8; stroke-linejoin: miter; stroke-linecap: square"/>
   </g>
   <g id="patch_196">
    <path d="M 57.6 256.753618 
L 414.72 256.753618 
" style="fill: none; stroke: #000000; stroke-width: 0.8; stroke-linejoin: miter; stroke-linecap: square"/>
   </g>
  </g>
  <g id="axes_14">
   <g id="patch_197">
    <path d="M 57.6 289.643865 
L 414.72 289.643865 
L 414.72 274.693753 
L 57.6 274.693753 
L 57.6 289.643865 
z
" style="fill: none"/>
   </g>
   <g id="patch_198">
    <path d="M 57.6 4689.40146 
L 87.222478 4689.40146 
L 87.222478 286.994947 
L 57.6 286.994947 
z
" clip-path="url(#p8e73618b4c)"/>
   </g>
   <g id="patch_199">
    <path d="M 87.222478 4689.40146 
L 116.844957 4689.40146 
L 116.844957 286.568567 
L 87.222478 286.568567 
z
" clip-path="url(#p8e73618b4c)"/>
   </g>
   <g id="patch_200">
    <path d="M 116.844957 4689.40146 
L 146.467435 4689.40146 
L 146.467435 275.533422 
L 116.844957 275.533422 
z
" clip-path="url(#p8e73618b4c)"/>
   </g>
   <g id="patch_201">
    <path d="M 146.467435 4689.40146 
L 176.089913 4689.40146 
L 176.089913 278.253633 
L 146.467435 278.253633 
z
" clip-path="url(#p8e73618b4c)"/>
   </g>
   <g id="patch_202">
    <path d="M 176.089913 4689.40146 
L 205.712392 4689.40146 
L 205.712392 279.355223 
L 176.089913 279.355223 
z
" clip-path="url(#p8e73618b4c)"/>
   </g>
   <g id="patch_203">
    <path d="M 205.712392 4689.40146 
L 235.33487 4689.40146 
L 235.33487 279.830431 
L 205.712392 279.830431 
z
" clip-path="url(#p8e73618b4c)"/>
   </g>
   <g id="patch_204">
    <path d="M 235.33487 4689.40146 
L 264.957348 4689.40146 
L 264.957348 280.962581 
L 235.33487 280.962581 
z
" clip-path="url(#p8e73618b4c)"/>
   </g>
   <g id="patch_205">
    <path d="M 264.957348 4689.40146 
L 294.579826 4689.40146 
L 294.579826 285.06199 
L 264.957348 285.06199 
z
" clip-path="url(#p8e73618b4c)"/>
   </g>
   <g id="patch_206">
    <path d="M 294.579826 4689.40146 
L 324.202305 4689.40146 
L 324.202305 4689.40146 
L 294.579826 4689.40146 
z
" clip-path="url(#p8e73618b4c)"/>
   </g>
   <g id="patch_207">
    <path d="M 324.202305 4689.40146 
L 353.824783 4689.40146 
L 353.824783 4689.40146 
L 324.202305 4689.40146 
z
" clip-path="url(#p8e73618b4c)"/>
   </g>
   <g id="matplotlib.axis_27"/>
   <g id="matplotlib.axis_28">
    <g id="ytick_27"/>
    <g id="ytick_28"/>
   </g>
   <g id="patch_208">
    <path d="M 57.6 289.643865 
L 57.6 274.693753 
" style="fill: none; stroke: #000000; stroke-width: 0.8; stroke-linejoin: miter; stroke-linecap: square"/>
   </g>
   <g id="patch_209">
    <path d="M 414.72 289.643865 
L 414.72 274.693753 
" style="fill: none; stroke: #000000; stroke-width: 0.8; stroke-linejoin: miter; stroke-linecap: square"/>
   </g>
   <g id="patch_210">
    <path d="M 57.6 289.643865 
L 414.72 289.643865 
" style="fill: none; stroke: #000000; stroke-width: 0.8; stroke-linejoin: miter; stroke-linecap: square"/>
   </g>
   <g id="patch_211">
    <path d="M 57.6 274.693753 
L 414.72 274.693753 
" style="fill: none; stroke: #000000; stroke-width: 0.8; stroke-linejoin: miter; stroke-linecap: square"/>
   </g>
  </g>
  <g id="axes_15">
   <g id="patch_212">
    <path d="M 57.6 307.584 
L 414.72 307.584 
L 414.72 292.633888 
L 57.6 292.633888 
L 57.6 307.584 
z
" style="fill: none"/>
   </g>
   <g id="patch_213">
    <path d="M 57.6 4707.341595 
L 87.222478 4707.341595 
L 87.222478 4707.341595 
L 57.6 4707.341595 
z
" clip-path="url(#p62e3d0e3ef)"/>
   </g>
   <g id="patch_214">
    <path d="M 87.222478 4707.341595 
L 116.844957 4707.341595 
L 116.844957 307.584 
L 87.222478 307.584 
z
" clip-path="url(#p62e3d0e3ef)"/>
   </g>
   <g id="patch_215">
    <path d="M 116.844957 4707.341595 
L 146.467435 4707.341595 
L 146.467435 295.113236 
L 116.844957 295.113236 
z
" clip-path="url(#p62e3d0e3ef)"/>
   </g>
   <g id="patch_216">
    <path d="M 146.467435 4707.341595 
L 176.089913 4707.341595 
L 176.089913 295.660141 
L 146.467435 295.660141 
z
" clip-path="url(#p62e3d0e3ef)"/>
   </g>
   <g id="patch_217">
    <path d="M 176.089913 4707.341595 
L 205.712392 4707.341595 
L 205.712392 295.931858 
L 176.089913 295.931858 
z
" clip-path="url(#p62e3d0e3ef)"/>
   </g>
   <g id="patch_218">
    <path d="M 205.712392 4707.341595 
L 235.33487 4707.341595 
L 235.33487 296.508948 
L 205.712392 296.508948 
z
" clip-path="url(#p62e3d0e3ef)"/>
   </g>
   <g id="patch_219">
    <path d="M 235.33487 4707.341595 
L 264.957348 4707.341595 
L 264.957348 296.678908 
L 235.33487 296.678908 
z
" clip-path="url(#p62e3d0e3ef)"/>
   </g>
   <g id="patch_220">
    <path d="M 264.957348 4707.341595 
L 294.579826 4707.341595 
L 294.579826 297.99703 
L 264.957348 297.99703 
z
" clip-path="url(#p62e3d0e3ef)"/>
   </g>
   <g id="patch_221">
    <path d="M 294.579826 4707.341595 
L 324.202305 4707.341595 
L 324.202305 299.760566 
L 294.579826 299.760566 
z
" clip-path="url(#p62e3d0e3ef)"/>
   </g>
   <g id="patch_222">
    <path d="M 324.202305 4707.341595 
L 353.824783 4707.341595 
L 353.824783 302.061105 
L 324.202305 302.061105 
z
" clip-path="url(#p62e3d0e3ef)"/>
   </g>
   <g id="matplotlib.axis_29">
    <g id="xtick_1">
     <g id="line2d_1">
      <defs>
       <path id="m3a36b5ab7b" d="M 0 0 
L 0 3.5 
" style="stroke: #000000; stroke-width: 0.8"/>
      </defs>
      <g>
       <use xlink:href="#m3a36b5ab7b" x="57.6" y="307.584" style="stroke: #000000; stroke-width: 0.8"/>
      </g>
     </g>
     <g id="text_1">
      <!-- 0 -->
      <g transform="translate(55.1 321.52775) scale(0.1 -0.1)">
       <defs>
        <path id="TimesNewRomanPSMT-30" d="M 231 2094 
Q 231 2819 450 3342 
Q 669 3866 1031 4122 
Q 1313 4325 1613 4325 
Q 2100 4325 2488 3828 
Q 2972 3213 2972 2159 
Q 2972 1422 2759 906 
Q 2547 391 2217 158 
Q 1888 -75 1581 -75 
Q 975 -75 572 641 
Q 231 1244 231 2094 
z
M 844 2016 
Q 844 1141 1059 588 
Q 1238 122 1591 122 
Q 1759 122 1940 273 
Q 2122 425 2216 781 
Q 2359 1319 2359 2297 
Q 2359 3022 2209 3506 
Q 2097 3866 1919 4016 
Q 1791 4119 1609 4119 
Q 1397 4119 1231 3928 
Q 1006 3669 925 3112 
Q 844 2556 844 2016 
z
" transform="scale(0.015625)"/>
       </defs>
       <use xlink:href="#TimesNewRomanPSMT-30"/>
      </g>
     </g>
    </g>
    <g id="xtick_2">
     <g id="line2d_2">
      <g>
       <use xlink:href="#m3a36b5ab7b" x="118.495217" y="307.584" style="stroke: #000000; stroke-width: 0.8"/>
      </g>
     </g>
     <g id="text_2">
      <!-- 10000 -->
      <g transform="translate(105.995217 321.52775) scale(0.1 -0.1)">
       <defs>
        <path id="TimesNewRomanPSMT-31" d="M 750 3822 
L 1781 4325 
L 1884 4325 
L 1884 747 
Q 1884 391 1914 303 
Q 1944 216 2037 169 
Q 2131 122 2419 116 
L 2419 0 
L 825 0 
L 825 116 
Q 1125 122 1212 167 
Q 1300 213 1334 289 
Q 1369 366 1369 747 
L 1369 3034 
Q 1369 3497 1338 3628 
Q 1316 3728 1258 3775 
Q 1200 3822 1119 3822 
Q 1003 3822 797 3725 
L 750 3822 
z
" transform="scale(0.015625)"/>
       </defs>
       <use xlink:href="#TimesNewRomanPSMT-31"/>
       <use xlink:href="#TimesNewRomanPSMT-30" x="50"/>
       <use xlink:href="#TimesNewRomanPSMT-30" x="100"/>
       <use xlink:href="#TimesNewRomanPSMT-30" x="150"/>
       <use xlink:href="#TimesNewRomanPSMT-30" x="200"/>
      </g>
     </g>
    </g>
    <g id="xtick_3">
     <g id="line2d_3">
      <g>
       <use xlink:href="#m3a36b5ab7b" x="179.390434" y="307.584" style="stroke: #000000; stroke-width: 0.8"/>
      </g>
     </g>
     <g id="text_3">
      <!-- 20000 -->
      <g transform="translate(166.890434 321.52775) scale(0.1 -0.1)">
       <defs>
        <path id="TimesNewRomanPSMT-32" d="M 2934 816 
L 2638 0 
L 138 0 
L 138 116 
Q 1241 1122 1691 1759 
Q 2141 2397 2141 2925 
Q 2141 3328 1894 3587 
Q 1647 3847 1303 3847 
Q 991 3847 742 3664 
Q 494 3481 375 3128 
L 259 3128 
Q 338 3706 661 4015 
Q 984 4325 1469 4325 
Q 1984 4325 2329 3994 
Q 2675 3663 2675 3213 
Q 2675 2891 2525 2569 
Q 2294 2063 1775 1497 
Q 997 647 803 472 
L 1909 472 
Q 2247 472 2383 497 
Q 2519 522 2628 598 
Q 2738 675 2819 816 
L 2934 816 
z
" transform="scale(0.015625)"/>
       </defs>
       <use xlink:href="#TimesNewRomanPSMT-32"/>
       <use xlink:href="#TimesNewRomanPSMT-30" x="50"/>
       <use xlink:href="#TimesNewRomanPSMT-30" x="100"/>
       <use xlink:href="#TimesNewRomanPSMT-30" x="150"/>
       <use xlink:href="#TimesNewRomanPSMT-30" x="200"/>
      </g>
     </g>
    </g>
    <g id="xtick_4">
     <g id="line2d_4">
      <g>
       <use xlink:href="#m3a36b5ab7b" x="240.285651" y="307.584" style="stroke: #000000; stroke-width: 0.8"/>
      </g>
     </g>
     <g id="text_4">
      <!-- 30000 -->
      <g transform="translate(227.785651 321.52775) scale(0.1 -0.1)">
       <defs>
        <path id="TimesNewRomanPSMT-33" d="M 325 3431 
Q 506 3859 782 4092 
Q 1059 4325 1472 4325 
Q 1981 4325 2253 3994 
Q 2459 3747 2459 3466 
Q 2459 3003 1878 2509 
Q 2269 2356 2469 2072 
Q 2669 1788 2669 1403 
Q 2669 853 2319 450 
Q 1863 -75 997 -75 
Q 569 -75 414 31 
Q 259 138 259 259 
Q 259 350 332 419 
Q 406 488 509 488 
Q 588 488 669 463 
Q 722 447 909 348 
Q 1097 250 1169 231 
Q 1284 197 1416 197 
Q 1734 197 1970 444 
Q 2206 691 2206 1028 
Q 2206 1275 2097 1509 
Q 2016 1684 1919 1775 
Q 1784 1900 1550 2001 
Q 1316 2103 1072 2103 
L 972 2103 
L 972 2197 
Q 1219 2228 1467 2375 
Q 1716 2522 1828 2728 
Q 1941 2934 1941 3181 
Q 1941 3503 1739 3701 
Q 1538 3900 1238 3900 
Q 753 3900 428 3381 
L 325 3431 
z
" transform="scale(0.015625)"/>
       </defs>
       <use xlink:href="#TimesNewRomanPSMT-33"/>
       <use xlink:href="#TimesNewRomanPSMT-30" x="50"/>
       <use xlink:href="#TimesNewRomanPSMT-30" x="100"/>
       <use xlink:href="#TimesNewRomanPSMT-30" x="150"/>
       <use xlink:href="#TimesNewRomanPSMT-30" x="200"/>
      </g>
     </g>
    </g>
    <g id="xtick_5">
     <g id="line2d_5">
      <g>
       <use xlink:href="#m3a36b5ab7b" x="301.180868" y="307.584" style="stroke: #000000; stroke-width: 0.8"/>
      </g>
     </g>
     <g id="text_5">
      <!-- 40000 -->
      <g transform="translate(288.680868 321.52775) scale(0.1 -0.1)">
       <defs>
        <path id="TimesNewRomanPSMT-34" d="M 2978 1563 
L 2978 1119 
L 2409 1119 
L 2409 0 
L 1894 0 
L 1894 1119 
L 100 1119 
L 100 1519 
L 2066 4325 
L 2409 4325 
L 2409 1563 
L 2978 1563 
z
M 1894 1563 
L 1894 3666 
L 406 1563 
L 1894 1563 
z
" transform="scale(0.015625)"/>
       </defs>
       <use xlink:href="#TimesNewRomanPSMT-34"/>
       <use xlink:href="#TimesNewRomanPSMT-30" x="50"/>
       <use xlink:href="#TimesNewRomanPSMT-30" x="100"/>
       <use xlink:href="#TimesNewRomanPSMT-30" x="150"/>
       <use xlink:href="#TimesNewRomanPSMT-30" x="200"/>
      </g>
     </g>
    </g>
    <g id="xtick_6">
     <g id="line2d_6">
      <g>
       <use xlink:href="#m3a36b5ab7b" x="362.076085" y="307.584" style="stroke: #000000; stroke-width: 0.8"/>
      </g>
     </g>
     <g id="text_6">
      <!-- 50000 -->
      <g transform="translate(349.576085 321.52775) scale(0.1 -0.1)">
       <defs>
        <path id="TimesNewRomanPSMT-35" d="M 2778 4238 
L 2534 3706 
L 1259 3706 
L 981 3138 
Q 1809 3016 2294 2522 
Q 2709 2097 2709 1522 
Q 2709 1188 2573 903 
Q 2438 619 2231 419 
Q 2025 219 1772 97 
Q 1413 -75 1034 -75 
Q 653 -75 479 54 
Q 306 184 306 341 
Q 306 428 378 495 
Q 450 563 559 563 
Q 641 563 702 538 
Q 763 513 909 409 
Q 1144 247 1384 247 
Q 1750 247 2026 523 
Q 2303 800 2303 1197 
Q 2303 1581 2056 1914 
Q 1809 2247 1375 2428 
Q 1034 2569 447 2591 
L 1259 4238 
L 2778 4238 
z
" transform="scale(0.015625)"/>
       </defs>
       <use xlink:href="#TimesNewRomanPSMT-35"/>
       <use xlink:href="#TimesNewRomanPSMT-30" x="50"/>
       <use xlink:href="#TimesNewRomanPSMT-30" x="100"/>
       <use xlink:href="#TimesNewRomanPSMT-30" x="150"/>
       <use xlink:href="#TimesNewRomanPSMT-30" x="200"/>
      </g>
     </g>
    </g>
    <g id="text_7">
     <!-- Number of key-value pairs -->
     <g transform="translate(182.42875 334.610562) scale(0.1 -0.1)">
      <defs>
       <path id="TimesNewRomanPSMT-4e" d="M -84 4238 
L 1066 4238 
L 3656 1059 
L 3656 3503 
Q 3656 3894 3569 3991 
Q 3453 4122 3203 4122 
L 3056 4122 
L 3056 4238 
L 4531 4238 
L 4531 4122 
L 4381 4122 
Q 4113 4122 4000 3959 
Q 3931 3859 3931 3503 
L 3931 -69 
L 3819 -69 
L 1025 3344 
L 1025 734 
Q 1025 344 1109 247 
Q 1228 116 1475 116 
L 1625 116 
L 1625 0 
L 150 0 
L 150 116 
L 297 116 
Q 569 116 681 278 
Q 750 378 750 734 
L 750 3681 
Q 566 3897 470 3965 
Q 375 4034 191 4094 
Q 100 4122 -84 4122 
L -84 4238 
z
" transform="scale(0.015625)"/>
       <path id="TimesNewRomanPSMT-75" d="M 2709 2863 
L 2709 1128 
Q 2709 631 2732 520 
Q 2756 409 2807 365 
Q 2859 322 2928 322 
Q 3025 322 3147 375 
L 3191 266 
L 2334 -88 
L 2194 -88 
L 2194 519 
Q 1825 119 1631 15 
Q 1438 -88 1222 -88 
Q 981 -88 804 51 
Q 628 191 559 409 
Q 491 628 491 1028 
L 491 2306 
Q 491 2509 447 2587 
Q 403 2666 317 2708 
Q 231 2750 6 2747 
L 6 2863 
L 1009 2863 
L 1009 947 
Q 1009 547 1148 422 
Q 1288 297 1484 297 
Q 1619 297 1789 381 
Q 1959 466 2194 703 
L 2194 2325 
Q 2194 2569 2105 2655 
Q 2016 2741 1734 2747 
L 1734 2863 
L 2709 2863 
z
" transform="scale(0.015625)"/>
       <path id="TimesNewRomanPSMT-6d" d="M 1050 2338 
Q 1363 2650 1419 2697 
Q 1559 2816 1721 2881 
Q 1884 2947 2044 2947 
Q 2313 2947 2506 2790 
Q 2700 2634 2766 2338 
Q 3088 2713 3309 2830 
Q 3531 2947 3766 2947 
Q 3994 2947 4170 2830 
Q 4347 2713 4450 2447 
Q 4519 2266 4519 1878 
L 4519 647 
Q 4519 378 4559 278 
Q 4591 209 4675 161 
Q 4759 113 4950 113 
L 4950 0 
L 3538 0 
L 3538 113 
L 3597 113 
Q 3781 113 3884 184 
Q 3956 234 3988 344 
Q 4000 397 4000 647 
L 4000 1878 
Q 4000 2228 3916 2372 
Q 3794 2572 3525 2572 
Q 3359 2572 3192 2489 
Q 3025 2406 2788 2181 
L 2781 2147 
L 2788 2013 
L 2788 647 
Q 2788 353 2820 281 
Q 2853 209 2943 161 
Q 3034 113 3253 113 
L 3253 0 
L 1806 0 
L 1806 113 
Q 2044 113 2133 169 
Q 2222 225 2256 338 
Q 2272 391 2272 647 
L 2272 1878 
Q 2272 2228 2169 2381 
Q 2031 2581 1784 2581 
Q 1616 2581 1450 2491 
Q 1191 2353 1050 2181 
L 1050 647 
Q 1050 366 1089 281 
Q 1128 197 1204 155 
Q 1281 113 1516 113 
L 1516 0 
L 100 0 
L 100 113 
Q 297 113 375 155 
Q 453 197 493 289 
Q 534 381 534 647 
L 534 1741 
Q 534 2213 506 2350 
Q 484 2453 437 2492 
Q 391 2531 309 2531 
Q 222 2531 100 2484 
L 53 2597 
L 916 2947 
L 1050 2947 
L 1050 2338 
z
" transform="scale(0.015625)"/>
       <path id="TimesNewRomanPSMT-62" d="M 984 2369 
Q 1400 2947 1881 2947 
Q 2322 2947 2650 2570 
Q 2978 2194 2978 1541 
Q 2978 778 2472 313 
Q 2038 -88 1503 -88 
Q 1253 -88 995 3 
Q 738 94 469 275 
L 469 3241 
Q 469 3728 445 3840 
Q 422 3953 372 3993 
Q 322 4034 247 4034 
Q 159 4034 28 3984 
L -16 4094 
L 844 4444 
L 984 4444 
L 984 2369 
z
M 984 2169 
L 984 456 
Q 1144 300 1314 220 
Q 1484 141 1663 141 
Q 1947 141 2192 453 
Q 2438 766 2438 1363 
Q 2438 1913 2192 2208 
Q 1947 2503 1634 2503 
Q 1469 2503 1303 2419 
Q 1178 2356 984 2169 
z
" transform="scale(0.015625)"/>
       <path id="TimesNewRomanPSMT-65" d="M 681 1784 
Q 678 1147 991 784 
Q 1303 422 1725 422 
Q 2006 422 2214 576 
Q 2422 731 2563 1106 
L 2659 1044 
Q 2594 616 2278 264 
Q 1963 -88 1488 -88 
Q 972 -88 605 314 
Q 238 716 238 1394 
Q 238 2128 614 2539 
Q 991 2950 1559 2950 
Q 2041 2950 2350 2633 
Q 2659 2316 2659 1784 
L 681 1784 
z
M 681 1966 
L 2006 1966 
Q 1991 2241 1941 2353 
Q 1863 2528 1708 2628 
Q 1553 2728 1384 2728 
Q 1125 2728 920 2526 
Q 716 2325 681 1966 
z
" transform="scale(0.015625)"/>
       <path id="TimesNewRomanPSMT-72" d="M 1038 2947 
L 1038 2303 
Q 1397 2947 1775 2947 
Q 1947 2947 2059 2842 
Q 2172 2738 2172 2600 
Q 2172 2478 2090 2393 
Q 2009 2309 1897 2309 
Q 1788 2309 1652 2417 
Q 1516 2525 1450 2525 
Q 1394 2525 1328 2463 
Q 1188 2334 1038 2041 
L 1038 669 
Q 1038 431 1097 309 
Q 1138 225 1241 169 
Q 1344 113 1538 113 
L 1538 0 
L 72 0 
L 72 113 
Q 291 113 397 181 
Q 475 231 506 341 
Q 522 394 522 644 
L 522 1753 
Q 522 2253 501 2348 
Q 481 2444 426 2487 
Q 372 2531 291 2531 
Q 194 2531 72 2484 
L 41 2597 
L 906 2947 
L 1038 2947 
z
" transform="scale(0.015625)"/>
       <path id="TimesNewRomanPSMT-20" transform="scale(0.015625)"/>
       <path id="TimesNewRomanPSMT-6f" d="M 1600 2947 
Q 2250 2947 2644 2453 
Q 2978 2031 2978 1484 
Q 2978 1100 2793 706 
Q 2609 313 2286 112 
Q 1963 -88 1566 -88 
Q 919 -88 538 428 
Q 216 863 216 1403 
Q 216 1797 411 2186 
Q 606 2575 925 2761 
Q 1244 2947 1600 2947 
z
M 1503 2744 
Q 1338 2744 1170 2645 
Q 1003 2547 900 2300 
Q 797 2053 797 1666 
Q 797 1041 1045 587 
Q 1294 134 1700 134 
Q 2003 134 2200 384 
Q 2397 634 2397 1244 
Q 2397 2006 2069 2444 
Q 1847 2744 1503 2744 
z
" transform="scale(0.015625)"/>
       <path id="TimesNewRomanPSMT-66" d="M 1319 2638 
L 1319 756 
Q 1319 356 1406 250 
Q 1522 113 1716 113 
L 1975 113 
L 1975 0 
L 266 0 
L 266 113 
L 394 113 
Q 519 113 622 175 
Q 725 238 764 344 
Q 803 450 803 756 
L 803 2638 
L 247 2638 
L 247 2863 
L 803 2863 
L 803 3050 
Q 803 3478 940 3775 
Q 1078 4072 1361 4255 
Q 1644 4438 1997 4438 
Q 2325 4438 2600 4225 
Q 2781 4084 2781 3909 
Q 2781 3816 2700 3733 
Q 2619 3650 2525 3650 
Q 2453 3650 2373 3701 
Q 2294 3753 2178 3923 
Q 2063 4094 1966 4153 
Q 1869 4213 1750 4213 
Q 1606 4213 1506 4136 
Q 1406 4059 1362 3898 
Q 1319 3738 1319 3069 
L 1319 2863 
L 2056 2863 
L 2056 2638 
L 1319 2638 
z
" transform="scale(0.015625)"/>
       <path id="TimesNewRomanPSMT-6b" d="M 1047 4444 
L 1047 1594 
L 1775 2259 
Q 2006 2472 2044 2528 
Q 2069 2566 2069 2603 
Q 2069 2666 2017 2711 
Q 1966 2756 1847 2763 
L 1847 2863 
L 3091 2863 
L 3091 2763 
Q 2834 2756 2664 2684 
Q 2494 2613 2291 2428 
L 1556 1750 
L 2291 822 
Q 2597 438 2703 334 
Q 2853 188 2966 144 
Q 3044 113 3238 113 
L 3238 0 
L 1847 0 
L 1847 113 
Q 1966 116 2008 148 
Q 2050 181 2050 241 
Q 2050 313 1925 472 
L 1047 1594 
L 1047 644 
Q 1047 366 1086 278 
Q 1125 191 1197 153 
Q 1269 116 1509 113 
L 1509 0 
L 53 0 
L 53 113 
Q 272 113 381 166 
Q 447 200 481 272 
Q 528 375 528 628 
L 528 3234 
Q 528 3731 506 3842 
Q 484 3953 434 3995 
Q 384 4038 303 4038 
Q 238 4038 106 3984 
L 53 4094 
L 903 4444 
L 1047 4444 
z
" transform="scale(0.015625)"/>
       <path id="TimesNewRomanPSMT-79" d="M 38 2863 
L 1372 2863 
L 1372 2747 
L 1306 2747 
Q 1166 2747 1095 2686 
Q 1025 2625 1025 2534 
Q 1025 2413 1128 2197 
L 1825 753 
L 2466 2334 
Q 2519 2463 2519 2588 
Q 2519 2644 2497 2672 
Q 2472 2706 2419 2726 
Q 2366 2747 2231 2747 
L 2231 2863 
L 3163 2863 
L 3163 2747 
Q 3047 2734 2984 2696 
Q 2922 2659 2847 2556 
Q 2819 2513 2741 2316 
L 1575 -541 
Q 1406 -956 1132 -1168 
Q 859 -1381 606 -1381 
Q 422 -1381 303 -1275 
Q 184 -1169 184 -1031 
Q 184 -900 270 -820 
Q 356 -741 506 -741 
Q 609 -741 788 -809 
Q 913 -856 944 -856 
Q 1038 -856 1148 -759 
Q 1259 -663 1372 -384 
L 1575 113 
L 547 2272 
Q 500 2369 397 2513 
Q 319 2622 269 2659 
Q 197 2709 38 2747 
L 38 2863 
z
" transform="scale(0.015625)"/>
       <path id="TimesNewRomanPSMT-2d" d="M 259 1672 
L 1875 1672 
L 1875 1200 
L 259 1200 
L 259 1672 
z
" transform="scale(0.015625)"/>
       <path id="TimesNewRomanPSMT-76" d="M 53 2863 
L 1400 2863 
L 1400 2747 
L 1313 2747 
Q 1191 2747 1127 2687 
Q 1063 2628 1063 2528 
Q 1063 2419 1128 2269 
L 1794 688 
L 2463 2328 
Q 2534 2503 2534 2594 
Q 2534 2638 2509 2666 
Q 2475 2713 2422 2730 
Q 2369 2747 2206 2747 
L 2206 2863 
L 3141 2863 
L 3141 2747 
Q 2978 2734 2916 2681 
Q 2806 2588 2719 2369 
L 1703 -88 
L 1575 -88 
L 553 2328 
Q 484 2497 421 2570 
Q 359 2644 263 2694 
Q 209 2722 53 2747 
L 53 2863 
z
" transform="scale(0.015625)"/>
       <path id="TimesNewRomanPSMT-61" d="M 1822 413 
Q 1381 72 1269 19 
Q 1100 -59 909 -59 
Q 613 -59 420 144 
Q 228 347 228 678 
Q 228 888 322 1041 
Q 450 1253 767 1440 
Q 1084 1628 1822 1897 
L 1822 2009 
Q 1822 2438 1686 2597 
Q 1550 2756 1291 2756 
Q 1094 2756 978 2650 
Q 859 2544 859 2406 
L 866 2225 
Q 866 2081 792 2003 
Q 719 1925 600 1925 
Q 484 1925 411 2006 
Q 338 2088 338 2228 
Q 338 2497 613 2722 
Q 888 2947 1384 2947 
Q 1766 2947 2009 2819 
Q 2194 2722 2281 2516 
Q 2338 2381 2338 1966 
L 2338 994 
Q 2338 584 2353 492 
Q 2369 400 2405 369 
Q 2441 338 2488 338 
Q 2538 338 2575 359 
Q 2641 400 2828 588 
L 2828 413 
Q 2478 -56 2159 -56 
Q 2006 -56 1915 50 
Q 1825 156 1822 413 
z
M 1822 616 
L 1822 1706 
Q 1350 1519 1213 1441 
Q 966 1303 859 1153 
Q 753 1003 753 825 
Q 753 600 887 451 
Q 1022 303 1197 303 
Q 1434 303 1822 616 
z
" transform="scale(0.015625)"/>
       <path id="TimesNewRomanPSMT-6c" d="M 1184 4444 
L 1184 647 
Q 1184 378 1223 290 
Q 1263 203 1344 158 
Q 1425 113 1647 113 
L 1647 0 
L 244 0 
L 244 113 
Q 441 113 512 153 
Q 584 194 625 287 
Q 666 381 666 647 
L 666 3247 
Q 666 3731 644 3842 
Q 622 3953 573 3993 
Q 525 4034 450 4034 
Q 369 4034 244 3984 
L 191 4094 
L 1044 4444 
L 1184 4444 
z
" transform="scale(0.015625)"/>
       <path id="TimesNewRomanPSMT-70" d="M -6 2578 
L 875 2934 
L 994 2934 
L 994 2266 
Q 1216 2644 1439 2795 
Q 1663 2947 1909 2947 
Q 2341 2947 2628 2609 
Q 2981 2197 2981 1534 
Q 2981 794 2556 309 
Q 2206 -88 1675 -88 
Q 1444 -88 1275 -22 
Q 1150 25 994 166 
L 994 -706 
Q 994 -1000 1030 -1079 
Q 1066 -1159 1155 -1206 
Q 1244 -1253 1478 -1253 
L 1478 -1369 
L -22 -1369 
L -22 -1253 
L 56 -1253 
Q 228 -1256 350 -1188 
Q 409 -1153 442 -1076 
Q 475 -1000 475 -688 
L 475 2019 
Q 475 2297 450 2372 
Q 425 2447 370 2484 
Q 316 2522 222 2522 
Q 147 2522 31 2478 
L -6 2578 
z
M 994 2081 
L 994 1013 
Q 994 666 1022 556 
Q 1066 375 1236 237 
Q 1406 100 1666 100 
Q 1978 100 2172 344 
Q 2425 663 2425 1241 
Q 2425 1897 2138 2250 
Q 1938 2494 1663 2494 
Q 1513 2494 1366 2419 
Q 1253 2363 994 2081 
z
" transform="scale(0.015625)"/>
       <path id="TimesNewRomanPSMT-69" d="M 928 4444 
Q 1059 4444 1151 4351 
Q 1244 4259 1244 4128 
Q 1244 3997 1151 3903 
Q 1059 3809 928 3809 
Q 797 3809 703 3903 
Q 609 3997 609 4128 
Q 609 4259 701 4351 
Q 794 4444 928 4444 
z
M 1188 2947 
L 1188 647 
Q 1188 378 1227 289 
Q 1266 200 1342 156 
Q 1419 113 1622 113 
L 1622 0 
L 231 0 
L 231 113 
Q 441 113 512 153 
Q 584 194 626 287 
Q 669 381 669 647 
L 669 1750 
Q 669 2216 641 2353 
Q 619 2453 572 2492 
Q 525 2531 444 2531 
Q 356 2531 231 2484 
L 188 2597 
L 1050 2947 
L 1188 2947 
z
" transform="scale(0.015625)"/>
       <path id="TimesNewRomanPSMT-73" d="M 2050 2947 
L 2050 1972 
L 1947 1972 
Q 1828 2431 1642 2597 
Q 1456 2763 1169 2763 
Q 950 2763 815 2647 
Q 681 2531 681 2391 
Q 681 2216 781 2091 
Q 878 1963 1175 1819 
L 1631 1597 
Q 2266 1288 2266 781 
Q 2266 391 1970 151 
Q 1675 -88 1309 -88 
Q 1047 -88 709 6 
Q 606 38 541 38 
Q 469 38 428 -44 
L 325 -44 
L 325 978 
L 428 978 
Q 516 541 762 319 
Q 1009 97 1316 97 
Q 1531 97 1667 223 
Q 1803 350 1803 528 
Q 1803 744 1651 891 
Q 1500 1038 1047 1263 
Q 594 1488 453 1669 
Q 313 1847 313 2119 
Q 313 2472 555 2709 
Q 797 2947 1181 2947 
Q 1350 2947 1591 2875 
Q 1750 2828 1803 2828 
Q 1853 2828 1881 2850 
Q 1909 2872 1947 2947 
L 2050 2947 
z
" transform="scale(0.015625)"/>
      </defs>
      <use xlink:href="#TimesNewRomanPSMT-4e"/>
      <use xlink:href="#TimesNewRomanPSMT-75" x="72.216797"/>
      <use xlink:href="#TimesNewRomanPSMT-6d" x="122.216797"/>
      <use xlink:href="#TimesNewRomanPSMT-62" x="200"/>
      <use xlink:href="#TimesNewRomanPSMT-65" x="250"/>
      <use xlink:href="#TimesNewRomanPSMT-72" x="294.384766"/>
      <use xlink:href="#TimesNewRomanPSMT-20" x="327.685547"/>
      <use xlink:href="#TimesNewRomanPSMT-6f" x="352.685547"/>
      <use xlink:href="#TimesNewRomanPSMT-66" x="402.685547"/>
      <use xlink:href="#TimesNewRomanPSMT-20" x="435.986328"/>
      <use xlink:href="#TimesNewRomanPSMT-6b" x="460.986328"/>
      <use xlink:href="#TimesNewRomanPSMT-65" x="510.986328"/>
      <use xlink:href="#TimesNewRomanPSMT-79" x="555.371094"/>
      <use xlink:href="#TimesNewRomanPSMT-2d" x="605.371094"/>
      <use xlink:href="#TimesNewRomanPSMT-76" x="638.671875"/>
      <use xlink:href="#TimesNewRomanPSMT-61" x="688.671875"/>
      <use xlink:href="#TimesNewRomanPSMT-6c" x="733.056641"/>
      <use xlink:href="#TimesNewRomanPSMT-75" x="760.839844"/>
      <use xlink:href="#TimesNewRomanPSMT-65" x="810.839844"/>
      <use xlink:href="#TimesNewRomanPSMT-20" x="855.224609"/>
      <use xlink:href="#TimesNewRomanPSMT-70" x="880.224609"/>
      <use xlink:href="#TimesNewRomanPSMT-61" x="930.224609"/>
      <use xlink:href="#TimesNewRomanPSMT-69" x="974.609375"/>
      <use xlink:href="#TimesNewRomanPSMT-72" x="1002.392578"/>
      <use xlink:href="#TimesNewRomanPSMT-73" x="1035.693359"/>
     </g>
    </g>
   </g>
   <g id="matplotlib.axis_30">
    <g id="ytick_29"/>
    <g id="ytick_30"/>
   </g>
   <g id="patch_223">
    <path d="M 57.6 307.584 
L 57.6 292.633888 
" style="fill: none; stroke: #000000; stroke-width: 0.8; stroke-linejoin: miter; stroke-linecap: square"/>
   </g>
   <g id="patch_224">
    <path d="M 414.72 307.584 
L 414.72 292.633888 
" style="fill: none; stroke: #000000; stroke-width: 0.8; stroke-linejoin: miter; stroke-linecap: square"/>
   </g>
   <g id="patch_225">
    <path d="M 57.6 307.584 
L 414.72 307.584 
" style="fill: none; stroke: #000000; stroke-width: 0.8; stroke-linejoin: miter; stroke-linecap: square"/>
   </g>
   <g id="patch_226">
    <path d="M 57.6 292.633888 
L 414.72 292.633888 
" style="fill: none; stroke: #000000; stroke-width: 0.8; stroke-linejoin: miter; stroke-linecap: square"/>
   </g>
  </g>
 </g>
 <defs>
  <clipPath id="p7ac05806de">
   <rect x="57.6" y="41.472" width="357.12" height="14.950112"/>
  </clipPath>
  <clipPath id="p43f78ca941">
   <rect x="57.6" y="59.412135" width="357.12" height="14.950112"/>
  </clipPath>
  <clipPath id="p5d326b0903">
   <rect x="57.6" y="77.35227" width="357.12" height="14.950112"/>
  </clipPath>
  <clipPath id="p2a7a062a24">
   <rect x="57.6" y="95.292404" width="357.12" height="14.950112"/>
  </clipPath>
  <clipPath id="pd3d35ef11d">
   <rect x="57.6" y="113.232539" width="357.12" height="14.950112"/>
  </clipPath>
  <clipPath id="p61e8ce080f">
   <rect x="57.6" y="131.172674" width="357.12" height="14.950112"/>
  </clipPath>
  <clipPath id="p3506cab58d">
   <rect x="57.6" y="149.112809" width="357.12" height="14.950112"/>
  </clipPath>
  <clipPath id="p1962dd7e51">
   <rect x="57.6" y="167.052944" width="357.12" height="14.950112"/>
  </clipPath>
  <clipPath id="p3330e6d279">
   <rect x="57.6" y="184.993079" width="357.12" height="14.950112"/>
  </clipPath>
  <clipPath id="p9228ceca33">
   <rect x="57.6" y="202.933213" width="357.12" height="14.950112"/>
  </clipPath>
  <clipPath id="pad4f653922">
   <rect x="57.6" y="220.873348" width="357.12" height="14.950112"/>
  </clipPath>
  <clipPath id="p9bd47d7160">
   <rect x="57.6" y="238.813483" width="357.12" height="14.950112"/>
  </clipPath>
  <clipPath id="pc984444ef4">
   <rect x="57.6" y="256.753618" width="357.12" height="14.950112"/>
  </clipPath>
  <clipPath id="p8e73618b4c">
   <rect x="57.6" y="274.693753" width="357.12" height="14.950112"/>
  </clipPath>
  <clipPath id="p62e3d0e3ef">
   <rect x="57.6" y="292.633888" width="357.12" height="14.950112"/>
  </clipPath>
 </defs>
</svg>
