<?xml version="1.0" encoding="utf-8" standalone="no"?>
<!DOCTYPE svg PUBLIC "-//W3C//DTD SVG 1.1//EN"
  "http://www.w3.org/Graphics/SVG/1.1/DTD/svg11.dtd">
<svg xmlns:xlink="http://www.w3.org/1999/xlink" width="460.8pt" height="345.6pt" viewBox="0 0 460.8 345.6" xmlns="http://www.w3.org/2000/svg" version="1.1">
 <metadata>
  <rdf:RDF xmlns:dc="http://purl.org/dc/elements/1.1/" xmlns:cc="http://creativecommons.org/ns#" xmlns:rdf="http://www.w3.org/1999/02/22-rdf-syntax-ns#">
   <cc:Work>
    <dc:type rdf:resource="http://purl.org/dc/dcmitype/StillImage"/>
    <dc:date>2024-02-14T09:09:11.117708</dc:date>
    <dc:format>image/svg+xml</dc:format>
    <dc:creator>
     <cc:Agent>
      <dc:title>Matplotlib v3.7.0, https://matplotlib.org/</dc:title>
     </cc:Agent>
    </dc:creator>
   </cc:Work>
  </rdf:RDF>
 </metadata>
 <defs>
  <style type="text/css">*{stroke-linejoin: round; stroke-linecap: butt}</style>
 </defs>
 <g id="figure_1">
  <g id="patch_1">
   <path d="M 0 345.6 
L 460.8 345.6 
L 460.8 0 
L 0 0 
L 0 345.6 
z
" style="fill: none"/>
  </g>
  <g id="axes_1">
   <g id="patch_2">
    <path d="M 57.6 61.942154 
L 414.72 61.942154 
L 414.72 41.472 
L 57.6 41.472 
L 57.6 61.942154 
z
" style="fill: none"/>
   </g>
   <g id="patch_3">
    <path d="M 57.6 6086.22563 
L 87.222478 6086.22563 
L 87.222478 6086.22563 
L 57.6 6086.22563 
z
" clip-path="url(#p0668395b21)" style="fill: #1f77b4"/>
   </g>
   <g id="patch_4">
    <path d="M 87.222478 6086.22563 
L 116.844957 6086.22563 
L 116.844957 6086.22563 
L 87.222478 6086.22563 
z
" clip-path="url(#p0668395b21)" style="fill: #1f77b4"/>
   </g>
   <g id="patch_5">
    <path d="M 116.844957 6086.22563 
L 146.467435 6086.22563 
L 146.467435 41.474094 
L 116.844957 41.474094 
z
" clip-path="url(#p0668395b21)" style="fill: #1f77b4"/>
   </g>
   <g id="patch_6">
    <path d="M 146.467435 6086.22563 
L 176.089913 6086.22563 
L 176.089913 61.942154 
L 146.467435 61.942154 
z
" clip-path="url(#p0668395b21)" style="fill: #1f77b4"/>
   </g>
   <g id="patch_7">
    <path d="M 176.089913 6086.22563 
L 205.712392 6086.22563 
L 205.712392 60.128664 
L 176.089913 60.128664 
z
" clip-path="url(#p0668395b21)" style="fill: #1f77b4"/>
   </g>
   <g id="patch_8">
    <path d="M 205.712392 6086.22563 
L 235.33487 6086.22563 
L 235.33487 6086.22563 
L 205.712392 6086.22563 
z
" clip-path="url(#p0668395b21)" style="fill: #1f77b4"/>
   </g>
   <g id="patch_9">
    <path d="M 235.33487 6086.22563 
L 264.957348 6086.22563 
L 264.957348 6086.22563 
L 235.33487 6086.22563 
z
" clip-path="url(#p0668395b21)" style="fill: #1f77b4"/>
   </g>
   <g id="patch_10">
    <path d="M 264.957348 6086.22563 
L 294.579826 6086.22563 
L 294.579826 6086.22563 
L 264.957348 6086.22563 
z
" clip-path="url(#p0668395b21)" style="fill: #1f77b4"/>
   </g>
   <g id="patch_11">
    <path d="M 294.579826 6086.22563 
L 324.202305 6086.22563 
L 324.202305 6086.22563 
L 294.579826 6086.22563 
z
" clip-path="url(#p0668395b21)" style="fill: #1f77b4"/>
   </g>
   <g id="patch_12">
    <path d="M 324.202305 6086.22563 
L 353.824783 6086.22563 
L 353.824783 6086.22563 
L 324.202305 6086.22563 
z
" clip-path="url(#p0668395b21)" style="fill: #1f77b4"/>
   </g>
   <g id="matplotlib.axis_1"/>
   <g id="matplotlib.axis_2">
    <g id="ytick_1">
     <g id="line2d_1">
      <defs>
       <path id="mb72ab872e9" d="M 0 0 
L -3.5 0 
" style="stroke: #000000; stroke-width: 0.8"/>
      </defs>
      <g>
       <use xlink:href="#mb72ab872e9" x="57.6" y="61.942154" style="stroke: #000000; stroke-width: 0.8"/>
      </g>
     </g>
     <g id="text_1">
      <!-- $\mathdefault{10^{0}}$ -->
      <g transform="translate(33 65.741373) scale(0.1 -0.1)">
       <defs>
        <path id="DejaVuSans-31" d="M 794 531 
L 1825 531 
L 1825 4091 
L 703 3866 
L 703 4441 
L 1819 4666 
L 2450 4666 
L 2450 531 
L 3481 531 
L 3481 0 
L 794 0 
L 794 531 
z
" transform="scale(0.015625)"/>
        <path id="DejaVuSans-30" d="M 2034 4250 
Q 1547 4250 1301 3770 
Q 1056 3291 1056 2328 
Q 1056 1369 1301 889 
Q 1547 409 2034 409 
Q 2525 409 2770 889 
Q 3016 1369 3016 2328 
Q 3016 3291 2770 3770 
Q 2525 4250 2034 4250 
z
M 2034 4750 
Q 2819 4750 3233 4129 
Q 3647 3509 3647 2328 
Q 3647 1150 3233 529 
Q 2819 -91 2034 -91 
Q 1250 -91 836 529 
Q 422 1150 422 2328 
Q 422 3509 836 4129 
Q 1250 4750 2034 4750 
z
" transform="scale(0.015625)"/>
       </defs>
       <use xlink:href="#DejaVuSans-31" transform="translate(0 0.765625)"/>
       <use xlink:href="#DejaVuSans-30" transform="translate(63.623047 0.765625)"/>
       <use xlink:href="#DejaVuSans-30" transform="translate(128.203125 39.046875) scale(0.7)"/>
      </g>
     </g>
    </g>
    <g id="ytick_2">
     <g id="line2d_2">
      <g>
       <use xlink:href="#mb72ab872e9" x="57.6" y="49.893587" style="stroke: #000000; stroke-width: 0.8"/>
      </g>
     </g>
     <g id="text_2">
      <!-- $\mathdefault{10^{2}}$ -->
      <g transform="translate(33 53.692806) scale(0.1 -0.1)">
       <defs>
        <path id="DejaVuSans-32" d="M 1228 531 
L 3431 531 
L 3431 0 
L 469 0 
L 469 531 
Q 828 903 1448 1529 
Q 2069 2156 2228 2338 
Q 2531 2678 2651 2914 
Q 2772 3150 2772 3378 
Q 2772 3750 2511 3984 
Q 2250 4219 1831 4219 
Q 1534 4219 1204 4116 
Q 875 4013 500 3803 
L 500 4441 
Q 881 4594 1212 4672 
Q 1544 4750 1819 4750 
Q 2544 4750 2975 4387 
Q 3406 4025 3406 3419 
Q 3406 3131 3298 2873 
Q 3191 2616 2906 2266 
Q 2828 2175 2409 1742 
Q 1991 1309 1228 531 
z
" transform="scale(0.015625)"/>
       </defs>
       <use xlink:href="#DejaVuSans-31" transform="translate(0 0.765625)"/>
       <use xlink:href="#DejaVuSans-30" transform="translate(63.623047 0.765625)"/>
       <use xlink:href="#DejaVuSans-32" transform="translate(128.203125 39.046875) scale(0.7)"/>
      </g>
     </g>
    </g>
   </g>
   <g id="patch_13">
    <path d="M 57.6 61.942154 
L 57.6 41.472 
" style="fill: none; stroke: #000000; stroke-width: 0.8; stroke-linejoin: miter; stroke-linecap: square"/>
   </g>
   <g id="patch_14">
    <path d="M 414.72 61.942154 
L 414.72 41.472 
" style="fill: none; stroke: #000000; stroke-width: 0.8; stroke-linejoin: miter; stroke-linecap: square"/>
   </g>
   <g id="patch_15">
    <path d="M 57.6 61.942154 
L 414.72 61.942154 
" style="fill: none; stroke: #000000; stroke-width: 0.8; stroke-linejoin: miter; stroke-linecap: square"/>
   </g>
   <g id="patch_16">
    <path d="M 57.6 41.472 
L 414.72 41.472 
" style="fill: none; stroke: #000000; stroke-width: 0.8; stroke-linejoin: miter; stroke-linecap: square"/>
   </g>
  </g>
  <g id="axes_2">
   <g id="patch_17">
    <path d="M 57.6 86.506338 
L 414.72 86.506338 
L 414.72 66.036185 
L 57.6 66.036185 
L 57.6 86.506338 
z
" style="fill: none"/>
   </g>
   <g id="patch_18">
    <path d="M 57.6 6110.789814 
L 87.222478 6110.789814 
L 87.222478 6110.789814 
L 57.6 6110.789814 
z
" clip-path="url(#pa1846dcc92)" style="fill: #1f77b4"/>
   </g>
   <g id="patch_19">
    <path d="M 87.222478 6110.789814 
L 116.844957 6110.789814 
L 116.844957 6110.789814 
L 87.222478 6110.789814 
z
" clip-path="url(#pa1846dcc92)" style="fill: #1f77b4"/>
   </g>
   <g id="patch_20">
    <path d="M 116.844957 6110.789814 
L 146.467435 6110.789814 
L 146.467435 66.040374 
L 116.844957 66.040374 
z
" clip-path="url(#pa1846dcc92)" style="fill: #1f77b4"/>
   </g>
   <g id="patch_21">
    <path d="M 146.467435 6110.789814 
L 176.089913 6110.789814 
L 176.089913 84.692848 
L 146.467435 84.692848 
z
" clip-path="url(#pa1846dcc92)" style="fill: #1f77b4"/>
   </g>
   <g id="patch_22">
    <path d="M 176.089913 6110.789814 
L 205.712392 6110.789814 
L 205.712392 86.506338 
L 176.089913 86.506338 
z
" clip-path="url(#pa1846dcc92)" style="fill: #1f77b4"/>
   </g>
   <g id="patch_23">
    <path d="M 205.712392 6110.789814 
L 235.33487 6110.789814 
L 235.33487 6110.789814 
L 205.712392 6110.789814 
z
" clip-path="url(#pa1846dcc92)" style="fill: #1f77b4"/>
   </g>
   <g id="patch_24">
    <path d="M 235.33487 6110.789814 
L 264.957348 6110.789814 
L 264.957348 84.692848 
L 235.33487 84.692848 
z
" clip-path="url(#pa1846dcc92)" style="fill: #1f77b4"/>
   </g>
   <g id="patch_25">
    <path d="M 264.957348 6110.789814 
L 294.579826 6110.789814 
L 294.579826 6110.789814 
L 264.957348 6110.789814 
z
" clip-path="url(#pa1846dcc92)" style="fill: #1f77b4"/>
   </g>
   <g id="patch_26">
    <path d="M 294.579826 6110.789814 
L 324.202305 6110.789814 
L 324.202305 6110.789814 
L 294.579826 6110.789814 
z
" clip-path="url(#pa1846dcc92)" style="fill: #1f77b4"/>
   </g>
   <g id="patch_27">
    <path d="M 324.202305 6110.789814 
L 353.824783 6110.789814 
L 353.824783 6110.789814 
L 324.202305 6110.789814 
z
" clip-path="url(#pa1846dcc92)" style="fill: #1f77b4"/>
   </g>
   <g id="matplotlib.axis_3"/>
   <g id="matplotlib.axis_4">
    <g id="ytick_3">
     <g id="line2d_3">
      <g>
       <use xlink:href="#mb72ab872e9" x="57.6" y="86.506338" style="stroke: #000000; stroke-width: 0.8"/>
      </g>
     </g>
     <g id="text_3">
      <!-- $\mathdefault{10^{0}}$ -->
      <g transform="translate(33 90.305557) scale(0.1 -0.1)">
       <use xlink:href="#DejaVuSans-31" transform="translate(0 0.765625)"/>
       <use xlink:href="#DejaVuSans-30" transform="translate(63.623047 0.765625)"/>
       <use xlink:href="#DejaVuSans-30" transform="translate(128.203125 39.046875) scale(0.7)"/>
      </g>
     </g>
    </g>
    <g id="ytick_4">
     <g id="line2d_4">
      <g>
       <use xlink:href="#mb72ab872e9" x="57.6" y="74.457772" style="stroke: #000000; stroke-width: 0.8"/>
      </g>
     </g>
     <g id="text_4">
      <!-- $\mathdefault{10^{2}}$ -->
      <g transform="translate(33 78.25699) scale(0.1 -0.1)">
       <use xlink:href="#DejaVuSans-31" transform="translate(0 0.765625)"/>
       <use xlink:href="#DejaVuSans-30" transform="translate(63.623047 0.765625)"/>
       <use xlink:href="#DejaVuSans-32" transform="translate(128.203125 39.046875) scale(0.7)"/>
      </g>
     </g>
    </g>
   </g>
   <g id="patch_28">
    <path d="M 57.6 86.506338 
L 57.6 66.036185 
" style="fill: none; stroke: #000000; stroke-width: 0.8; stroke-linejoin: miter; stroke-linecap: square"/>
   </g>
   <g id="patch_29">
    <path d="M 414.72 86.506338 
L 414.72 66.036185 
" style="fill: none; stroke: #000000; stroke-width: 0.8; stroke-linejoin: miter; stroke-linecap: square"/>
   </g>
   <g id="patch_30">
    <path d="M 57.6 86.506338 
L 414.72 86.506338 
" style="fill: none; stroke: #000000; stroke-width: 0.8; stroke-linejoin: miter; stroke-linecap: square"/>
   </g>
   <g id="patch_31">
    <path d="M 57.6 66.036185 
L 414.72 66.036185 
" style="fill: none; stroke: #000000; stroke-width: 0.8; stroke-linejoin: miter; stroke-linecap: square"/>
   </g>
  </g>
  <g id="axes_3">
   <g id="patch_32">
    <path d="M 57.6 111.070523 
L 414.72 111.070523 
L 414.72 90.600369 
L 57.6 90.600369 
L 57.6 111.070523 
z
" style="fill: none"/>
   </g>
   <g id="patch_33">
    <path d="M 57.6 6135.353999 
L 87.222478 6135.353999 
L 87.222478 6135.353999 
L 57.6 6135.353999 
z
" clip-path="url(#pa85a0e1d16)" style="fill: #1f77b4"/>
   </g>
   <g id="patch_34">
    <path d="M 87.222478 6135.353999 
L 116.844957 6135.353999 
L 116.844957 6135.353999 
L 87.222478 6135.353999 
z
" clip-path="url(#pa85a0e1d16)" style="fill: #1f77b4"/>
   </g>
   <g id="patch_35">
    <path d="M 116.844957 6135.353999 
L 146.467435 6135.353999 
L 146.467435 90.606656 
L 116.844957 90.606656 
z
" clip-path="url(#pa85a0e1d16)" style="fill: #1f77b4"/>
   </g>
   <g id="patch_36">
    <path d="M 146.467435 6135.353999 
L 176.089913 6135.353999 
L 176.089913 108.196209 
L 146.467435 108.196209 
z
" clip-path="url(#pa85a0e1d16)" style="fill: #1f77b4"/>
   </g>
   <g id="patch_37">
    <path d="M 176.089913 6135.353999 
L 205.712392 6135.353999 
L 205.712392 109.257033 
L 176.089913 109.257033 
z
" clip-path="url(#pa85a0e1d16)" style="fill: #1f77b4"/>
   </g>
   <g id="patch_38">
    <path d="M 205.712392 6135.353999 
L 235.33487 6135.353999 
L 235.33487 6135.353999 
L 205.712392 6135.353999 
z
" clip-path="url(#pa85a0e1d16)" style="fill: #1f77b4"/>
   </g>
   <g id="patch_39">
    <path d="M 235.33487 6135.353999 
L 264.957348 6135.353999 
L 264.957348 6135.353999 
L 235.33487 6135.353999 
z
" clip-path="url(#pa85a0e1d16)" style="fill: #1f77b4"/>
   </g>
   <g id="patch_40">
    <path d="M 264.957348 6135.353999 
L 294.579826 6135.353999 
L 294.579826 109.257033 
L 264.957348 109.257033 
z
" clip-path="url(#pa85a0e1d16)" style="fill: #1f77b4"/>
   </g>
   <g id="patch_41">
    <path d="M 294.579826 6135.353999 
L 324.202305 6135.353999 
L 324.202305 6135.353999 
L 294.579826 6135.353999 
z
" clip-path="url(#pa85a0e1d16)" style="fill: #1f77b4"/>
   </g>
   <g id="patch_42">
    <path d="M 324.202305 6135.353999 
L 353.824783 6135.353999 
L 353.824783 6135.353999 
L 324.202305 6135.353999 
z
" clip-path="url(#pa85a0e1d16)" style="fill: #1f77b4"/>
   </g>
   <g id="matplotlib.axis_5"/>
   <g id="matplotlib.axis_6">
    <g id="ytick_5">
     <g id="line2d_5">
      <g>
       <use xlink:href="#mb72ab872e9" x="57.6" y="111.070523" style="stroke: #000000; stroke-width: 0.8"/>
      </g>
     </g>
     <g id="text_5">
      <!-- $\mathdefault{10^{0}}$ -->
      <g transform="translate(33 114.869742) scale(0.1 -0.1)">
       <use xlink:href="#DejaVuSans-31" transform="translate(0 0.765625)"/>
       <use xlink:href="#DejaVuSans-30" transform="translate(63.623047 0.765625)"/>
       <use xlink:href="#DejaVuSans-30" transform="translate(128.203125 39.046875) scale(0.7)"/>
      </g>
     </g>
    </g>
    <g id="ytick_6">
     <g id="line2d_6">
      <g>
       <use xlink:href="#mb72ab872e9" x="57.6" y="99.021956" style="stroke: #000000; stroke-width: 0.8"/>
      </g>
     </g>
     <g id="text_6">
      <!-- $\mathdefault{10^{2}}$ -->
      <g transform="translate(33 102.821175) scale(0.1 -0.1)">
       <use xlink:href="#DejaVuSans-31" transform="translate(0 0.765625)"/>
       <use xlink:href="#DejaVuSans-30" transform="translate(63.623047 0.765625)"/>
       <use xlink:href="#DejaVuSans-32" transform="translate(128.203125 39.046875) scale(0.7)"/>
      </g>
     </g>
    </g>
   </g>
   <g id="patch_43">
    <path d="M 57.6 111.070523 
L 57.6 90.600369 
" style="fill: none; stroke: #000000; stroke-width: 0.8; stroke-linejoin: miter; stroke-linecap: square"/>
   </g>
   <g id="patch_44">
    <path d="M 414.72 111.070523 
L 414.72 90.600369 
" style="fill: none; stroke: #000000; stroke-width: 0.8; stroke-linejoin: miter; stroke-linecap: square"/>
   </g>
   <g id="patch_45">
    <path d="M 57.6 111.070523 
L 414.72 111.070523 
" style="fill: none; stroke: #000000; stroke-width: 0.8; stroke-linejoin: miter; stroke-linecap: square"/>
   </g>
   <g id="patch_46">
    <path d="M 57.6 90.600369 
L 414.72 90.600369 
" style="fill: none; stroke: #000000; stroke-width: 0.8; stroke-linejoin: miter; stroke-linecap: square"/>
   </g>
  </g>
  <g id="axes_4">
   <g id="patch_47">
    <path d="M 57.6 135.634708 
L 414.72 135.634708 
L 414.72 115.164554 
L 57.6 115.164554 
L 57.6 135.634708 
z
" style="fill: none"/>
   </g>
   <g id="patch_48">
    <path d="M 57.6 6159.918184 
L 87.222478 6159.918184 
L 87.222478 6159.918184 
L 57.6 6159.918184 
z
" clip-path="url(#pd234d3e96d)" style="fill: #1f77b4"/>
   </g>
   <g id="patch_49">
    <path d="M 87.222478 6159.918184 
L 116.844957 6159.918184 
L 116.844957 6159.918184 
L 87.222478 6159.918184 
z
" clip-path="url(#pd234d3e96d)" style="fill: #1f77b4"/>
   </g>
   <g id="patch_50">
    <path d="M 116.844957 6159.918184 
L 146.467435 6159.918184 
L 146.467435 115.17504 
L 116.844957 115.17504 
z
" clip-path="url(#pd234d3e96d)" style="fill: #1f77b4"/>
   </g>
   <g id="patch_51">
    <path d="M 146.467435 6159.918184 
L 176.089913 6159.918184 
L 176.089913 130.543598 
L 146.467435 130.543598 
z
" clip-path="url(#pd234d3e96d)" style="fill: #1f77b4"/>
   </g>
   <g id="patch_52">
    <path d="M 176.089913 6159.918184 
L 205.712392 6159.918184 
L 205.712392 135.634708 
L 176.089913 135.634708 
z
" clip-path="url(#pd234d3e96d)" style="fill: #1f77b4"/>
   </g>
   <g id="patch_53">
    <path d="M 205.712392 6159.918184 
L 235.33487 6159.918184 
L 235.33487 135.634708 
L 205.712392 135.634708 
z
" clip-path="url(#pd234d3e96d)" style="fill: #1f77b4"/>
   </g>
   <g id="patch_54">
    <path d="M 235.33487 6159.918184 
L 264.957348 6159.918184 
L 264.957348 6159.918184 
L 235.33487 6159.918184 
z
" clip-path="url(#pd234d3e96d)" style="fill: #1f77b4"/>
   </g>
   <g id="patch_55">
    <path d="M 264.957348 6159.918184 
L 294.579826 6159.918184 
L 294.579826 6159.918184 
L 264.957348 6159.918184 
z
" clip-path="url(#pd234d3e96d)" style="fill: #1f77b4"/>
   </g>
   <g id="patch_56">
    <path d="M 294.579826 6159.918184 
L 324.202305 6159.918184 
L 324.202305 133.821218 
L 294.579826 133.821218 
z
" clip-path="url(#pd234d3e96d)" style="fill: #1f77b4"/>
   </g>
   <g id="patch_57">
    <path d="M 324.202305 6159.918184 
L 353.824783 6159.918184 
L 353.824783 6159.918184 
L 324.202305 6159.918184 
z
" clip-path="url(#pd234d3e96d)" style="fill: #1f77b4"/>
   </g>
   <g id="matplotlib.axis_7"/>
   <g id="matplotlib.axis_8">
    <g id="ytick_7">
     <g id="line2d_7">
      <g>
       <use xlink:href="#mb72ab872e9" x="57.6" y="135.634708" style="stroke: #000000; stroke-width: 0.8"/>
      </g>
     </g>
     <g id="text_7">
      <!-- $\mathdefault{10^{0}}$ -->
      <g transform="translate(33 139.433926) scale(0.1 -0.1)">
       <use xlink:href="#DejaVuSans-31" transform="translate(0 0.765625)"/>
       <use xlink:href="#DejaVuSans-30" transform="translate(63.623047 0.765625)"/>
       <use xlink:href="#DejaVuSans-30" transform="translate(128.203125 39.046875) scale(0.7)"/>
      </g>
     </g>
    </g>
    <g id="ytick_8">
     <g id="line2d_8">
      <g>
       <use xlink:href="#mb72ab872e9" x="57.6" y="123.586141" style="stroke: #000000; stroke-width: 0.8"/>
      </g>
     </g>
     <g id="text_8">
      <!-- $\mathdefault{10^{2}}$ -->
      <g transform="translate(33 127.385359) scale(0.1 -0.1)">
       <use xlink:href="#DejaVuSans-31" transform="translate(0 0.765625)"/>
       <use xlink:href="#DejaVuSans-30" transform="translate(63.623047 0.765625)"/>
       <use xlink:href="#DejaVuSans-32" transform="translate(128.203125 39.046875) scale(0.7)"/>
      </g>
     </g>
    </g>
   </g>
   <g id="patch_58">
    <path d="M 57.6 135.634708 
L 57.6 115.164554 
" style="fill: none; stroke: #000000; stroke-width: 0.8; stroke-linejoin: miter; stroke-linecap: square"/>
   </g>
   <g id="patch_59">
    <path d="M 414.72 135.634708 
L 414.72 115.164554 
" style="fill: none; stroke: #000000; stroke-width: 0.8; stroke-linejoin: miter; stroke-linecap: square"/>
   </g>
   <g id="patch_60">
    <path d="M 57.6 135.634708 
L 414.72 135.634708 
" style="fill: none; stroke: #000000; stroke-width: 0.8; stroke-linejoin: miter; stroke-linecap: square"/>
   </g>
   <g id="patch_61">
    <path d="M 57.6 115.164554 
L 414.72 115.164554 
" style="fill: none; stroke: #000000; stroke-width: 0.8; stroke-linejoin: miter; stroke-linecap: square"/>
   </g>
  </g>
  <g id="axes_5">
   <g id="patch_62">
    <path d="M 57.6 160.198892 
L 414.72 160.198892 
L 414.72 139.728738 
L 57.6 139.728738 
L 57.6 160.198892 
z
" style="fill: none"/>
   </g>
   <g id="patch_63">
    <path d="M 57.6 6184.482368 
L 87.222478 6184.482368 
L 87.222478 6184.482368 
L 57.6 6184.482368 
z
" clip-path="url(#p3086d37e52)" style="fill: #1f77b4"/>
   </g>
   <g id="patch_64">
    <path d="M 87.222478 6184.482368 
L 116.844957 6184.482368 
L 116.844957 6184.482368 
L 87.222478 6184.482368 
z
" clip-path="url(#p3086d37e52)" style="fill: #1f77b4"/>
   </g>
   <g id="patch_65">
    <path d="M 116.844957 6184.482368 
L 146.467435 6184.482368 
L 146.467435 139.741327 
L 116.844957 139.741327 
z
" clip-path="url(#p3086d37e52)" style="fill: #1f77b4"/>
   </g>
   <g id="patch_66">
    <path d="M 146.467435 6184.482368 
L 176.089913 6184.482368 
L 176.089913 154.450265 
L 146.467435 154.450265 
z
" clip-path="url(#p3086d37e52)" style="fill: #1f77b4"/>
   </g>
   <g id="patch_67">
    <path d="M 176.089913 6184.482368 
L 205.712392 6184.482368 
L 205.712392 160.198892 
L 176.089913 160.198892 
z
" clip-path="url(#p3086d37e52)" style="fill: #1f77b4"/>
   </g>
   <g id="patch_68">
    <path d="M 205.712392 6184.482368 
L 235.33487 6184.482368 
L 235.33487 160.198892 
L 205.712392 160.198892 
z
" clip-path="url(#p3086d37e52)" style="fill: #1f77b4"/>
   </g>
   <g id="patch_69">
    <path d="M 235.33487 6184.482368 
L 264.957348 6184.482368 
L 264.957348 6184.482368 
L 235.33487 6184.482368 
z
" clip-path="url(#p3086d37e52)" style="fill: #1f77b4"/>
   </g>
   <g id="patch_70">
    <path d="M 264.957348 6184.482368 
L 294.579826 6184.482368 
L 294.579826 6184.482368 
L 264.957348 6184.482368 
z
" clip-path="url(#p3086d37e52)" style="fill: #1f77b4"/>
   </g>
   <g id="patch_71">
    <path d="M 294.579826 6184.482368 
L 324.202305 6184.482368 
L 324.202305 6184.482368 
L 294.579826 6184.482368 
z
" clip-path="url(#p3086d37e52)" style="fill: #1f77b4"/>
   </g>
   <g id="patch_72">
    <path d="M 324.202305 6184.482368 
L 353.824783 6184.482368 
L 353.824783 158.385402 
L 324.202305 158.385402 
z
" clip-path="url(#p3086d37e52)" style="fill: #1f77b4"/>
   </g>
   <g id="matplotlib.axis_9"/>
   <g id="matplotlib.axis_10">
    <g id="ytick_9">
     <g id="line2d_9">
      <g>
       <use xlink:href="#mb72ab872e9" x="57.6" y="160.198892" style="stroke: #000000; stroke-width: 0.8"/>
      </g>
     </g>
     <g id="text_9">
      <!-- $\mathdefault{10^{0}}$ -->
      <g transform="translate(33 163.998111) scale(0.1 -0.1)">
       <use xlink:href="#DejaVuSans-31" transform="translate(0 0.765625)"/>
       <use xlink:href="#DejaVuSans-30" transform="translate(63.623047 0.765625)"/>
       <use xlink:href="#DejaVuSans-30" transform="translate(128.203125 39.046875) scale(0.7)"/>
      </g>
     </g>
    </g>
    <g id="ytick_10">
     <g id="line2d_10">
      <g>
       <use xlink:href="#mb72ab872e9" x="57.6" y="148.150325" style="stroke: #000000; stroke-width: 0.8"/>
      </g>
     </g>
     <g id="text_10">
      <!-- $\mathdefault{10^{2}}$ -->
      <g transform="translate(33 151.949544) scale(0.1 -0.1)">
       <use xlink:href="#DejaVuSans-31" transform="translate(0 0.765625)"/>
       <use xlink:href="#DejaVuSans-30" transform="translate(63.623047 0.765625)"/>
       <use xlink:href="#DejaVuSans-32" transform="translate(128.203125 39.046875) scale(0.7)"/>
      </g>
     </g>
    </g>
   </g>
   <g id="patch_73">
    <path d="M 57.6 160.198892 
L 57.6 139.728738 
" style="fill: none; stroke: #000000; stroke-width: 0.8; stroke-linejoin: miter; stroke-linecap: square"/>
   </g>
   <g id="patch_74">
    <path d="M 414.72 160.198892 
L 414.72 139.728738 
" style="fill: none; stroke: #000000; stroke-width: 0.8; stroke-linejoin: miter; stroke-linecap: square"/>
   </g>
   <g id="patch_75">
    <path d="M 57.6 160.198892 
L 414.72 160.198892 
" style="fill: none; stroke: #000000; stroke-width: 0.8; stroke-linejoin: miter; stroke-linecap: square"/>
   </g>
   <g id="patch_76">
    <path d="M 57.6 139.728738 
L 414.72 139.728738 
" style="fill: none; stroke: #000000; stroke-width: 0.8; stroke-linejoin: miter; stroke-linecap: square"/>
   </g>
  </g>
  <g id="axes_6">
   <g id="patch_77">
    <path d="M 57.6 184.763077 
L 414.72 184.763077 
L 414.72 164.292923 
L 57.6 164.292923 
L 57.6 184.763077 
z
" style="fill: none"/>
   </g>
   <g id="patch_78">
    <path d="M 57.6 6209.046553 
L 87.222478 6209.046553 
L 87.222478 6209.046553 
L 57.6 6209.046553 
z
" clip-path="url(#p8ca5f9df52)" style="fill: #1f77b4"/>
   </g>
   <g id="patch_79">
    <path d="M 87.222478 6209.046553 
L 116.844957 6209.046553 
L 116.844957 6209.046553 
L 87.222478 6209.046553 
z
" clip-path="url(#p8ca5f9df52)" style="fill: #1f77b4"/>
   </g>
   <g id="patch_80">
    <path d="M 116.844957 6209.046553 
L 146.467435 6209.046553 
L 146.467435 164.309721 
L 116.844957 164.309721 
z
" clip-path="url(#p8ca5f9df52)" style="fill: #1f77b4"/>
   </g>
   <g id="patch_81">
    <path d="M 146.467435 6209.046553 
L 176.089913 6209.046553 
L 176.089913 178.261783 
L 146.467435 178.261783 
z
" clip-path="url(#p8ca5f9df52)" style="fill: #1f77b4"/>
   </g>
   <g id="patch_82">
    <path d="M 176.089913 6209.046553 
L 205.712392 6209.046553 
L 205.712392 182.949587 
L 176.089913 182.949587 
z
" clip-path="url(#p8ca5f9df52)" style="fill: #1f77b4"/>
   </g>
   <g id="patch_83">
    <path d="M 205.712392 6209.046553 
L 235.33487 6209.046553 
L 235.33487 184.763077 
L 205.712392 184.763077 
z
" clip-path="url(#p8ca5f9df52)" style="fill: #1f77b4"/>
   </g>
   <g id="patch_84">
    <path d="M 235.33487 6209.046553 
L 264.957348 6209.046553 
L 264.957348 6209.046553 
L 235.33487 6209.046553 
z
" clip-path="url(#p8ca5f9df52)" style="fill: #1f77b4"/>
   </g>
   <g id="patch_85">
    <path d="M 264.957348 6209.046553 
L 294.579826 6209.046553 
L 294.579826 6209.046553 
L 264.957348 6209.046553 
z
" clip-path="url(#p8ca5f9df52)" style="fill: #1f77b4"/>
   </g>
   <g id="patch_86">
    <path d="M 294.579826 6209.046553 
L 324.202305 6209.046553 
L 324.202305 6209.046553 
L 294.579826 6209.046553 
z
" clip-path="url(#p8ca5f9df52)" style="fill: #1f77b4"/>
   </g>
   <g id="patch_87">
    <path d="M 324.202305 6209.046553 
L 353.824783 6209.046553 
L 353.824783 182.949587 
L 324.202305 182.949587 
z
" clip-path="url(#p8ca5f9df52)" style="fill: #1f77b4"/>
   </g>
   <g id="matplotlib.axis_11"/>
   <g id="matplotlib.axis_12">
    <g id="ytick_11">
     <g id="line2d_11">
      <g>
       <use xlink:href="#mb72ab872e9" x="57.6" y="184.763077" style="stroke: #000000; stroke-width: 0.8"/>
      </g>
     </g>
     <g id="text_11">
      <!-- $\mathdefault{10^{0}}$ -->
      <g transform="translate(33 188.562296) scale(0.1 -0.1)">
       <use xlink:href="#DejaVuSans-31" transform="translate(0 0.765625)"/>
       <use xlink:href="#DejaVuSans-30" transform="translate(63.623047 0.765625)"/>
       <use xlink:href="#DejaVuSans-30" transform="translate(128.203125 39.046875) scale(0.7)"/>
      </g>
     </g>
    </g>
    <g id="ytick_12">
     <g id="line2d_12">
      <g>
       <use xlink:href="#mb72ab872e9" x="57.6" y="172.71451" style="stroke: #000000; stroke-width: 0.8"/>
      </g>
     </g>
     <g id="text_12">
      <!-- $\mathdefault{10^{2}}$ -->
      <g transform="translate(33 176.513729) scale(0.1 -0.1)">
       <use xlink:href="#DejaVuSans-31" transform="translate(0 0.765625)"/>
       <use xlink:href="#DejaVuSans-30" transform="translate(63.623047 0.765625)"/>
       <use xlink:href="#DejaVuSans-32" transform="translate(128.203125 39.046875) scale(0.7)"/>
      </g>
     </g>
    </g>
   </g>
   <g id="patch_88">
    <path d="M 57.6 184.763077 
L 57.6 164.292923 
" style="fill: none; stroke: #000000; stroke-width: 0.8; stroke-linejoin: miter; stroke-linecap: square"/>
   </g>
   <g id="patch_89">
    <path d="M 414.72 184.763077 
L 414.72 164.292923 
" style="fill: none; stroke: #000000; stroke-width: 0.8; stroke-linejoin: miter; stroke-linecap: square"/>
   </g>
   <g id="patch_90">
    <path d="M 57.6 184.763077 
L 414.72 184.763077 
" style="fill: none; stroke: #000000; stroke-width: 0.8; stroke-linejoin: miter; stroke-linecap: square"/>
   </g>
   <g id="patch_91">
    <path d="M 57.6 164.292923 
L 414.72 164.292923 
" style="fill: none; stroke: #000000; stroke-width: 0.8; stroke-linejoin: miter; stroke-linecap: square"/>
   </g>
  </g>
  <g id="axes_7">
   <g id="patch_92">
    <path d="M 57.6 209.327262 
L 414.72 209.327262 
L 414.72 188.857108 
L 57.6 188.857108 
L 57.6 209.327262 
z
" style="fill: none"/>
   </g>
   <g id="patch_93">
    <path d="M 57.6 6233.610737 
L 87.222478 6233.610737 
L 87.222478 6233.610737 
L 57.6 6233.610737 
z
" clip-path="url(#pa719f02039)" style="fill: #1f77b4"/>
   </g>
   <g id="patch_94">
    <path d="M 87.222478 6233.610737 
L 116.844957 6233.610737 
L 116.844957 6233.610737 
L 87.222478 6233.610737 
z
" clip-path="url(#pa719f02039)" style="fill: #1f77b4"/>
   </g>
   <g id="patch_95">
    <path d="M 116.844957 6233.610737 
L 146.467435 6233.610737 
L 146.467435 188.892934 
L 116.844957 188.892934 
z
" clip-path="url(#pa719f02039)" style="fill: #1f77b4"/>
   </g>
   <g id="patch_96">
    <path d="M 146.467435 6233.610737 
L 176.089913 6233.610737 
L 176.089913 200.905675 
L 146.467435 200.905675 
z
" clip-path="url(#pa719f02039)" style="fill: #1f77b4"/>
   </g>
   <g id="patch_97">
    <path d="M 176.089913 6233.610737 
L 205.712392 6233.610737 
L 205.712392 204.639458 
L 176.089913 204.639458 
z
" clip-path="url(#pa719f02039)" style="fill: #1f77b4"/>
   </g>
   <g id="patch_98">
    <path d="M 205.712392 6233.610737 
L 235.33487 6233.610737 
L 235.33487 207.513772 
L 205.712392 207.513772 
z
" clip-path="url(#pa719f02039)" style="fill: #1f77b4"/>
   </g>
   <g id="patch_99">
    <path d="M 235.33487 6233.610737 
L 264.957348 6233.610737 
L 264.957348 6233.610737 
L 235.33487 6233.610737 
z
" clip-path="url(#pa719f02039)" style="fill: #1f77b4"/>
   </g>
   <g id="patch_100">
    <path d="M 264.957348 6233.610737 
L 294.579826 6233.610737 
L 294.579826 6233.610737 
L 264.957348 6233.610737 
z
" clip-path="url(#pa719f02039)" style="fill: #1f77b4"/>
   </g>
   <g id="patch_101">
    <path d="M 294.579826 6233.610737 
L 324.202305 6233.610737 
L 324.202305 207.513772 
L 294.579826 207.513772 
z
" clip-path="url(#pa719f02039)" style="fill: #1f77b4"/>
   </g>
   <g id="patch_102">
    <path d="M 324.202305 6233.610737 
L 353.824783 6233.610737 
L 353.824783 6233.610737 
L 324.202305 6233.610737 
z
" clip-path="url(#pa719f02039)" style="fill: #1f77b4"/>
   </g>
   <g id="matplotlib.axis_13"/>
   <g id="matplotlib.axis_14">
    <g id="ytick_13">
     <g id="line2d_13">
      <g>
       <use xlink:href="#mb72ab872e9" x="57.6" y="209.327262" style="stroke: #000000; stroke-width: 0.8"/>
      </g>
     </g>
     <g id="text_13">
      <!-- $\mathdefault{10^{0}}$ -->
      <g transform="translate(33 213.12648) scale(0.1 -0.1)">
       <use xlink:href="#DejaVuSans-31" transform="translate(0 0.765625)"/>
       <use xlink:href="#DejaVuSans-30" transform="translate(63.623047 0.765625)"/>
       <use xlink:href="#DejaVuSans-30" transform="translate(128.203125 39.046875) scale(0.7)"/>
      </g>
     </g>
    </g>
    <g id="ytick_14">
     <g id="line2d_14">
      <g>
       <use xlink:href="#mb72ab872e9" x="57.6" y="197.278695" style="stroke: #000000; stroke-width: 0.8"/>
      </g>
     </g>
     <g id="text_14">
      <!-- $\mathdefault{10^{2}}$ -->
      <g transform="translate(33 201.077913) scale(0.1 -0.1)">
       <use xlink:href="#DejaVuSans-31" transform="translate(0 0.765625)"/>
       <use xlink:href="#DejaVuSans-30" transform="translate(63.623047 0.765625)"/>
       <use xlink:href="#DejaVuSans-32" transform="translate(128.203125 39.046875) scale(0.7)"/>
      </g>
     </g>
    </g>
   </g>
   <g id="patch_103">
    <path d="M 57.6 209.327262 
L 57.6 188.857108 
" style="fill: none; stroke: #000000; stroke-width: 0.8; stroke-linejoin: miter; stroke-linecap: square"/>
   </g>
   <g id="patch_104">
    <path d="M 414.72 209.327262 
L 414.72 188.857108 
" style="fill: none; stroke: #000000; stroke-width: 0.8; stroke-linejoin: miter; stroke-linecap: square"/>
   </g>
   <g id="patch_105">
    <path d="M 57.6 209.327262 
L 414.72 209.327262 
" style="fill: none; stroke: #000000; stroke-width: 0.8; stroke-linejoin: miter; stroke-linecap: square"/>
   </g>
   <g id="patch_106">
    <path d="M 57.6 188.857108 
L 414.72 188.857108 
" style="fill: none; stroke: #000000; stroke-width: 0.8; stroke-linejoin: miter; stroke-linecap: square"/>
   </g>
  </g>
  <g id="axes_8">
   <g id="patch_107">
    <path d="M 57.6 233.891446 
L 414.72 233.891446 
L 414.72 213.421292 
L 57.6 213.421292 
L 57.6 233.891446 
z
" style="fill: none"/>
   </g>
   <g id="patch_108">
    <path d="M 57.6 6258.174922 
L 87.222478 6258.174922 
L 87.222478 6258.174922 
L 57.6 6258.174922 
z
" clip-path="url(#pbb4950cffe)" style="fill: #1f77b4"/>
   </g>
   <g id="patch_109">
    <path d="M 87.222478 6258.174922 
L 116.844957 6258.174922 
L 116.844957 6258.174922 
L 87.222478 6258.174922 
z
" clip-path="url(#pbb4950cffe)" style="fill: #1f77b4"/>
   </g>
   <g id="patch_110">
    <path d="M 116.844957 6258.174922 
L 146.467435 6258.174922 
L 146.467435 213.660001 
L 116.844957 213.660001 
z
" clip-path="url(#pbb4950cffe)" style="fill: #1f77b4"/>
   </g>
   <g id="patch_111">
    <path d="M 146.467435 6258.174922 
L 176.089913 6258.174922 
L 176.089913 221.593518 
L 146.467435 221.593518 
z
" clip-path="url(#pbb4950cffe)" style="fill: #1f77b4"/>
   </g>
   <g id="patch_112">
    <path d="M 176.089913 6258.174922 
L 205.712392 6258.174922 
L 205.712392 222.394191 
L 176.089913 222.394191 
z
" clip-path="url(#pbb4950cffe)" style="fill: #1f77b4"/>
   </g>
   <g id="patch_113">
    <path d="M 205.712392 6258.174922 
L 235.33487 6258.174922 
L 235.33487 225.173356 
L 205.712392 225.173356 
z
" clip-path="url(#pbb4950cffe)" style="fill: #1f77b4"/>
   </g>
   <g id="patch_114">
    <path d="M 235.33487 6258.174922 
L 264.957348 6258.174922 
L 264.957348 6258.174922 
L 235.33487 6258.174922 
z
" clip-path="url(#pbb4950cffe)" style="fill: #1f77b4"/>
   </g>
   <g id="patch_115">
    <path d="M 264.957348 6258.174922 
L 294.579826 6258.174922 
L 294.579826 6258.174922 
L 264.957348 6258.174922 
z
" clip-path="url(#pbb4950cffe)" style="fill: #1f77b4"/>
   </g>
   <g id="patch_116">
    <path d="M 294.579826 6258.174922 
L 324.202305 6258.174922 
L 324.202305 6258.174922 
L 294.579826 6258.174922 
z
" clip-path="url(#pbb4950cffe)" style="fill: #1f77b4"/>
   </g>
   <g id="patch_117">
    <path d="M 324.202305 6258.174922 
L 353.824783 6258.174922 
L 353.824783 6258.174922 
L 324.202305 6258.174922 
z
" clip-path="url(#pbb4950cffe)" style="fill: #1f77b4"/>
   </g>
   <g id="matplotlib.axis_15"/>
   <g id="matplotlib.axis_16">
    <g id="ytick_15">
     <g id="line2d_15">
      <g>
       <use xlink:href="#mb72ab872e9" x="57.6" y="233.891446" style="stroke: #000000; stroke-width: 0.8"/>
      </g>
     </g>
     <g id="text_15">
      <!-- $\mathdefault{10^{0}}$ -->
      <g transform="translate(33 237.690665) scale(0.1 -0.1)">
       <use xlink:href="#DejaVuSans-31" transform="translate(0 0.765625)"/>
       <use xlink:href="#DejaVuSans-30" transform="translate(63.623047 0.765625)"/>
       <use xlink:href="#DejaVuSans-30" transform="translate(128.203125 39.046875) scale(0.7)"/>
      </g>
     </g>
    </g>
    <g id="ytick_16">
     <g id="line2d_16">
      <g>
       <use xlink:href="#mb72ab872e9" x="57.6" y="221.842879" style="stroke: #000000; stroke-width: 0.8"/>
      </g>
     </g>
     <g id="text_16">
      <!-- $\mathdefault{10^{2}}$ -->
      <g transform="translate(33 225.642098) scale(0.1 -0.1)">
       <use xlink:href="#DejaVuSans-31" transform="translate(0 0.765625)"/>
       <use xlink:href="#DejaVuSans-30" transform="translate(63.623047 0.765625)"/>
       <use xlink:href="#DejaVuSans-32" transform="translate(128.203125 39.046875) scale(0.7)"/>
      </g>
     </g>
    </g>
   </g>
   <g id="patch_118">
    <path d="M 57.6 233.891446 
L 57.6 213.421292 
" style="fill: none; stroke: #000000; stroke-width: 0.8; stroke-linejoin: miter; stroke-linecap: square"/>
   </g>
   <g id="patch_119">
    <path d="M 414.72 233.891446 
L 414.72 213.421292 
" style="fill: none; stroke: #000000; stroke-width: 0.8; stroke-linejoin: miter; stroke-linecap: square"/>
   </g>
   <g id="patch_120">
    <path d="M 57.6 233.891446 
L 414.72 233.891446 
" style="fill: none; stroke: #000000; stroke-width: 0.8; stroke-linejoin: miter; stroke-linecap: square"/>
   </g>
   <g id="patch_121">
    <path d="M 57.6 213.421292 
L 414.72 213.421292 
" style="fill: none; stroke: #000000; stroke-width: 0.8; stroke-linejoin: miter; stroke-linecap: square"/>
   </g>
  </g>
  <g id="axes_9">
   <g id="patch_122">
    <path d="M 57.6 258.455631 
L 414.72 258.455631 
L 414.72 237.985477 
L 57.6 237.985477 
L 57.6 258.455631 
z
" style="fill: none"/>
   </g>
   <g id="patch_123">
    <path d="M 57.6 6282.739107 
L 87.222478 6282.739107 
L 87.222478 254.828651 
L 57.6 254.828651 
z
" clip-path="url(#p29d3ce3319)" style="fill: #1f77b4"/>
   </g>
   <g id="patch_124">
    <path d="M 87.222478 6282.739107 
L 116.844957 6282.739107 
L 116.844957 253.364521 
L 87.222478 253.364521 
z
" clip-path="url(#p29d3ce3319)" style="fill: #1f77b4"/>
   </g>
   <g id="patch_125">
    <path d="M 116.844957 6282.739107 
L 146.467435 6282.739107 
L 146.467435 238.534206 
L 116.844957 238.534206 
z
" clip-path="url(#p29d3ce3319)" style="fill: #1f77b4"/>
   </g>
   <g id="patch_126">
    <path d="M 146.467435 6282.739107 
L 176.089913 6282.739107 
L 176.089913 244.030775 
L 146.467435 244.030775 
z
" clip-path="url(#p29d3ce3319)" style="fill: #1f77b4"/>
   </g>
   <g id="patch_127">
    <path d="M 176.089913 6282.739107 
L 205.712392 6282.739107 
L 205.712392 246.018751 
L 176.089913 246.018751 
z
" clip-path="url(#p29d3ce3319)" style="fill: #1f77b4"/>
   </g>
   <g id="patch_128">
    <path d="M 205.712392 6282.739107 
L 235.33487 6282.739107 
L 235.33487 247.194849 
L 205.712392 247.194849 
z
" clip-path="url(#p29d3ce3319)" style="fill: #1f77b4"/>
   </g>
   <g id="patch_129">
    <path d="M 235.33487 6282.739107 
L 264.957348 6282.739107 
L 264.957348 250.034044 
L 235.33487 250.034044 
z
" clip-path="url(#p29d3ce3319)" style="fill: #1f77b4"/>
   </g>
   <g id="patch_130">
    <path d="M 264.957348 6282.739107 
L 294.579826 6282.739107 
L 294.579826 6282.739107 
L 264.957348 6282.739107 
z
" clip-path="url(#p29d3ce3319)" style="fill: #1f77b4"/>
   </g>
   <g id="patch_131">
    <path d="M 294.579826 6282.739107 
L 324.202305 6282.739107 
L 324.202305 6282.739107 
L 294.579826 6282.739107 
z
" clip-path="url(#p29d3ce3319)" style="fill: #1f77b4"/>
   </g>
   <g id="patch_132">
    <path d="M 324.202305 6282.739107 
L 353.824783 6282.739107 
L 353.824783 6282.739107 
L 324.202305 6282.739107 
z
" clip-path="url(#p29d3ce3319)" style="fill: #1f77b4"/>
   </g>
   <g id="matplotlib.axis_17"/>
   <g id="matplotlib.axis_18">
    <g id="ytick_17">
     <g id="line2d_17">
      <g>
       <use xlink:href="#mb72ab872e9" x="57.6" y="258.455631" style="stroke: #000000; stroke-width: 0.8"/>
      </g>
     </g>
     <g id="text_17">
      <!-- $\mathdefault{10^{0}}$ -->
      <g transform="translate(33 262.25485) scale(0.1 -0.1)">
       <use xlink:href="#DejaVuSans-31" transform="translate(0 0.765625)"/>
       <use xlink:href="#DejaVuSans-30" transform="translate(63.623047 0.765625)"/>
       <use xlink:href="#DejaVuSans-30" transform="translate(128.203125 39.046875) scale(0.7)"/>
      </g>
     </g>
    </g>
    <g id="ytick_18">
     <g id="line2d_18">
      <g>
       <use xlink:href="#mb72ab872e9" x="57.6" y="246.407064" style="stroke: #000000; stroke-width: 0.8"/>
      </g>
     </g>
     <g id="text_18">
      <!-- $\mathdefault{10^{2}}$ -->
      <g transform="translate(33 250.206283) scale(0.1 -0.1)">
       <use xlink:href="#DejaVuSans-31" transform="translate(0 0.765625)"/>
       <use xlink:href="#DejaVuSans-30" transform="translate(63.623047 0.765625)"/>
       <use xlink:href="#DejaVuSans-32" transform="translate(128.203125 39.046875) scale(0.7)"/>
      </g>
     </g>
    </g>
   </g>
   <g id="patch_133">
    <path d="M 57.6 258.455631 
L 57.6 237.985477 
" style="fill: none; stroke: #000000; stroke-width: 0.8; stroke-linejoin: miter; stroke-linecap: square"/>
   </g>
   <g id="patch_134">
    <path d="M 414.72 258.455631 
L 414.72 237.985477 
" style="fill: none; stroke: #000000; stroke-width: 0.8; stroke-linejoin: miter; stroke-linecap: square"/>
   </g>
   <g id="patch_135">
    <path d="M 57.6 258.455631 
L 414.72 258.455631 
" style="fill: none; stroke: #000000; stroke-width: 0.8; stroke-linejoin: miter; stroke-linecap: square"/>
   </g>
   <g id="patch_136">
    <path d="M 57.6 237.985477 
L 414.72 237.985477 
" style="fill: none; stroke: #000000; stroke-width: 0.8; stroke-linejoin: miter; stroke-linecap: square"/>
   </g>
  </g>
  <g id="axes_10">
   <g id="patch_137">
    <path d="M 57.6 283.019815 
L 414.72 283.019815 
L 414.72 262.549662 
L 57.6 262.549662 
L 57.6 283.019815 
z
" style="fill: none"/>
   </g>
   <g id="patch_138">
    <path d="M 57.6 6307.303291 
L 87.222478 6307.303291 
L 87.222478 279.392835 
L 57.6 279.392835 
z
" clip-path="url(#pd3395db30a)" style="fill: #1f77b4"/>
   </g>
   <g id="patch_139">
    <path d="M 87.222478 6307.303291 
L 116.844957 6307.303291 
L 116.844957 278.809022 
L 87.222478 278.809022 
z
" clip-path="url(#pd3395db30a)" style="fill: #1f77b4"/>
   </g>
   <g id="patch_140">
    <path d="M 116.844957 6307.303291 
L 146.467435 6307.303291 
L 146.467435 263.699363 
L 116.844957 263.699363 
z
" clip-path="url(#pd3395db30a)" style="fill: #1f77b4"/>
   </g>
   <g id="patch_141">
    <path d="M 146.467435 6307.303291 
L 176.089913 6307.303291 
L 176.089913 267.423959 
L 146.467435 267.423959 
z
" clip-path="url(#pd3395db30a)" style="fill: #1f77b4"/>
   </g>
   <g id="patch_142">
    <path d="M 176.089913 6307.303291 
L 205.712392 6307.303291 
L 205.712392 268.932291 
L 176.089913 268.932291 
z
" clip-path="url(#pd3395db30a)" style="fill: #1f77b4"/>
   </g>
   <g id="patch_143">
    <path d="M 205.712392 6307.303291 
L 235.33487 6307.303291 
L 235.33487 269.582959 
L 205.712392 269.582959 
z
" clip-path="url(#pd3395db30a)" style="fill: #1f77b4"/>
   </g>
   <g id="patch_144">
    <path d="M 235.33487 6307.303291 
L 264.957348 6307.303291 
L 264.957348 271.133134 
L 235.33487 271.133134 
z
" clip-path="url(#pd3395db30a)" style="fill: #1f77b4"/>
   </g>
   <g id="patch_145">
    <path d="M 264.957348 6307.303291 
L 294.579826 6307.303291 
L 294.579826 276.746171 
L 264.957348 276.746171 
z
" clip-path="url(#pd3395db30a)" style="fill: #1f77b4"/>
   </g>
   <g id="patch_146">
    <path d="M 294.579826 6307.303291 
L 324.202305 6307.303291 
L 324.202305 6307.303291 
L 294.579826 6307.303291 
z
" clip-path="url(#pd3395db30a)" style="fill: #1f77b4"/>
   </g>
   <g id="patch_147">
    <path d="M 324.202305 6307.303291 
L 353.824783 6307.303291 
L 353.824783 6307.303291 
L 324.202305 6307.303291 
z
" clip-path="url(#pd3395db30a)" style="fill: #1f77b4"/>
   </g>
   <g id="matplotlib.axis_19"/>
   <g id="matplotlib.axis_20">
    <g id="ytick_19">
     <g id="line2d_19">
      <g>
       <use xlink:href="#mb72ab872e9" x="57.6" y="283.019815" style="stroke: #000000; stroke-width: 0.8"/>
      </g>
     </g>
     <g id="text_19">
      <!-- $\mathdefault{10^{0}}$ -->
      <g transform="translate(33 286.819034) scale(0.1 -0.1)">
       <use xlink:href="#DejaVuSans-31" transform="translate(0 0.765625)"/>
       <use xlink:href="#DejaVuSans-30" transform="translate(63.623047 0.765625)"/>
       <use xlink:href="#DejaVuSans-30" transform="translate(128.203125 39.046875) scale(0.7)"/>
      </g>
     </g>
    </g>
    <g id="ytick_20">
     <g id="line2d_20">
      <g>
       <use xlink:href="#mb72ab872e9" x="57.6" y="270.971248" style="stroke: #000000; stroke-width: 0.8"/>
      </g>
     </g>
     <g id="text_20">
      <!-- $\mathdefault{10^{2}}$ -->
      <g transform="translate(33 274.770467) scale(0.1 -0.1)">
       <use xlink:href="#DejaVuSans-31" transform="translate(0 0.765625)"/>
       <use xlink:href="#DejaVuSans-30" transform="translate(63.623047 0.765625)"/>
       <use xlink:href="#DejaVuSans-32" transform="translate(128.203125 39.046875) scale(0.7)"/>
      </g>
     </g>
    </g>
   </g>
   <g id="patch_148">
    <path d="M 57.6 283.019815 
L 57.6 262.549662 
" style="fill: none; stroke: #000000; stroke-width: 0.8; stroke-linejoin: miter; stroke-linecap: square"/>
   </g>
   <g id="patch_149">
    <path d="M 414.72 283.019815 
L 414.72 262.549662 
" style="fill: none; stroke: #000000; stroke-width: 0.8; stroke-linejoin: miter; stroke-linecap: square"/>
   </g>
   <g id="patch_150">
    <path d="M 57.6 283.019815 
L 414.72 283.019815 
" style="fill: none; stroke: #000000; stroke-width: 0.8; stroke-linejoin: miter; stroke-linecap: square"/>
   </g>
   <g id="patch_151">
    <path d="M 57.6 262.549662 
L 414.72 262.549662 
" style="fill: none; stroke: #000000; stroke-width: 0.8; stroke-linejoin: miter; stroke-linecap: square"/>
   </g>
  </g>
  <g id="axes_11">
   <g id="patch_152">
    <path d="M 57.6 307.584 
L 414.72 307.584 
L 414.72 287.113846 
L 57.6 287.113846 
L 57.6 307.584 
z
" style="fill: none"/>
   </g>
   <g id="patch_153">
    <path d="M 57.6 6331.867476 
L 87.222478 6331.867476 
L 87.222478 6331.867476 
L 57.6 6331.867476 
z
" clip-path="url(#p837c21039f)" style="fill: #1f77b4"/>
   </g>
   <g id="patch_154">
    <path d="M 87.222478 6331.867476 
L 116.844957 6331.867476 
L 116.844957 307.584 
L 87.222478 307.584 
z
" clip-path="url(#p837c21039f)" style="fill: #1f77b4"/>
   </g>
   <g id="patch_155">
    <path d="M 116.844957 6331.867476 
L 146.467435 6331.867476 
L 146.467435 290.508646 
L 116.844957 290.508646 
z
" clip-path="url(#p837c21039f)" style="fill: #1f77b4"/>
   </g>
   <g id="patch_156">
    <path d="M 146.467435 6331.867476 
L 176.089913 6331.867476 
L 176.089913 291.257485 
L 146.467435 291.257485 
z
" clip-path="url(#p837c21039f)" style="fill: #1f77b4"/>
   </g>
   <g id="patch_157">
    <path d="M 176.089913 6331.867476 
L 205.712392 6331.867476 
L 205.712392 291.629529 
L 176.089913 291.629529 
z
" clip-path="url(#p837c21039f)" style="fill: #1f77b4"/>
   </g>
   <g id="patch_158">
    <path d="M 205.712392 6331.867476 
L 235.33487 6331.867476 
L 235.33487 292.419698 
L 205.712392 292.419698 
z
" clip-path="url(#p837c21039f)" style="fill: #1f77b4"/>
   </g>
   <g id="patch_159">
    <path d="M 235.33487 6331.867476 
L 264.957348 6331.867476 
L 264.957348 292.652413 
L 235.33487 292.652413 
z
" clip-path="url(#p837c21039f)" style="fill: #1f77b4"/>
   </g>
   <g id="patch_160">
    <path d="M 264.957348 6331.867476 
L 294.579826 6331.867476 
L 294.579826 294.457225 
L 264.957348 294.457225 
z
" clip-path="url(#p837c21039f)" style="fill: #1f77b4"/>
   </g>
   <g id="patch_161">
    <path d="M 294.579826 6331.867476 
L 324.202305 6331.867476 
L 324.202305 296.871913 
L 294.579826 296.871913 
z
" clip-path="url(#p837c21039f)" style="fill: #1f77b4"/>
   </g>
   <g id="patch_162">
    <path d="M 324.202305 6331.867476 
L 353.824783 6331.867476 
L 353.824783 300.021883 
L 324.202305 300.021883 
z
" clip-path="url(#p837c21039f)" style="fill: #1f77b4"/>
   </g>
   <g id="matplotlib.axis_21">
    <g id="xtick_1">
     <g id="line2d_21">
      <defs>
       <path id="m6d62989cee" d="M 0 0 
L 0 3.5 
" style="stroke: #000000; stroke-width: 0.8"/>
      </defs>
      <g>
       <use xlink:href="#m6d62989cee" x="57.6" y="307.584" style="stroke: #000000; stroke-width: 0.8"/>
      </g>
     </g>
     <g id="text_21">
      <!-- 0 -->
      <g transform="translate(54.41875 322.182437) scale(0.1 -0.1)">
       <use xlink:href="#DejaVuSans-30"/>
      </g>
     </g>
    </g>
    <g id="xtick_2">
     <g id="line2d_22">
      <g>
       <use xlink:href="#m6d62989cee" x="118.495217" y="307.584" style="stroke: #000000; stroke-width: 0.8"/>
      </g>
     </g>
     <g id="text_22">
      <!-- 10000 -->
      <g transform="translate(102.588967 322.182437) scale(0.1 -0.1)">
       <use xlink:href="#DejaVuSans-31"/>
       <use xlink:href="#DejaVuSans-30" x="63.623047"/>
       <use xlink:href="#DejaVuSans-30" x="127.246094"/>
       <use xlink:href="#DejaVuSans-30" x="190.869141"/>
       <use xlink:href="#DejaVuSans-30" x="254.492188"/>
      </g>
     </g>
    </g>
    <g id="xtick_3">
     <g id="line2d_23">
      <g>
       <use xlink:href="#m6d62989cee" x="179.390434" y="307.584" style="stroke: #000000; stroke-width: 0.8"/>
      </g>
     </g>
     <g id="text_23">
      <!-- 20000 -->
      <g transform="translate(163.484184 322.182437) scale(0.1 -0.1)">
       <use xlink:href="#DejaVuSans-32"/>
       <use xlink:href="#DejaVuSans-30" x="63.623047"/>
       <use xlink:href="#DejaVuSans-30" x="127.246094"/>
       <use xlink:href="#DejaVuSans-30" x="190.869141"/>
       <use xlink:href="#DejaVuSans-30" x="254.492188"/>
      </g>
     </g>
    </g>
    <g id="xtick_4">
     <g id="line2d_24">
      <g>
       <use xlink:href="#m6d62989cee" x="240.285651" y="307.584" style="stroke: #000000; stroke-width: 0.8"/>
      </g>
     </g>
     <g id="text_24">
      <!-- 30000 -->
      <g transform="translate(224.379401 322.182437) scale(0.1 -0.1)">
       <defs>
        <path id="DejaVuSans-33" d="M 2597 2516 
Q 3050 2419 3304 2112 
Q 3559 1806 3559 1356 
Q 3559 666 3084 287 
Q 2609 -91 1734 -91 
Q 1441 -91 1130 -33 
Q 819 25 488 141 
L 488 750 
Q 750 597 1062 519 
Q 1375 441 1716 441 
Q 2309 441 2620 675 
Q 2931 909 2931 1356 
Q 2931 1769 2642 2001 
Q 2353 2234 1838 2234 
L 1294 2234 
L 1294 2753 
L 1863 2753 
Q 2328 2753 2575 2939 
Q 2822 3125 2822 3475 
Q 2822 3834 2567 4026 
Q 2313 4219 1838 4219 
Q 1578 4219 1281 4162 
Q 984 4106 628 3988 
L 628 4550 
Q 988 4650 1302 4700 
Q 1616 4750 1894 4750 
Q 2613 4750 3031 4423 
Q 3450 4097 3450 3541 
Q 3450 3153 3228 2886 
Q 3006 2619 2597 2516 
z
" transform="scale(0.015625)"/>
       </defs>
       <use xlink:href="#DejaVuSans-33"/>
       <use xlink:href="#DejaVuSans-30" x="63.623047"/>
       <use xlink:href="#DejaVuSans-30" x="127.246094"/>
       <use xlink:href="#DejaVuSans-30" x="190.869141"/>
       <use xlink:href="#DejaVuSans-30" x="254.492188"/>
      </g>
     </g>
    </g>
    <g id="xtick_5">
     <g id="line2d_25">
      <g>
       <use xlink:href="#m6d62989cee" x="301.180868" y="307.584" style="stroke: #000000; stroke-width: 0.8"/>
      </g>
     </g>
     <g id="text_25">
      <!-- 40000 -->
      <g transform="translate(285.274618 322.182437) scale(0.1 -0.1)">
       <defs>
        <path id="DejaVuSans-34" d="M 2419 4116 
L 825 1625 
L 2419 1625 
L 2419 4116 
z
M 2253 4666 
L 3047 4666 
L 3047 1625 
L 3713 1625 
L 3713 1100 
L 3047 1100 
L 3047 0 
L 2419 0 
L 2419 1100 
L 313 1100 
L 313 1709 
L 2253 4666 
z
" transform="scale(0.015625)"/>
       </defs>
       <use xlink:href="#DejaVuSans-34"/>
       <use xlink:href="#DejaVuSans-30" x="63.623047"/>
       <use xlink:href="#DejaVuSans-30" x="127.246094"/>
       <use xlink:href="#DejaVuSans-30" x="190.869141"/>
       <use xlink:href="#DejaVuSans-30" x="254.492188"/>
      </g>
     </g>
    </g>
    <g id="xtick_6">
     <g id="line2d_26">
      <g>
       <use xlink:href="#m6d62989cee" x="362.076085" y="307.584" style="stroke: #000000; stroke-width: 0.8"/>
      </g>
     </g>
     <g id="text_26">
      <!-- 50000 -->
      <g transform="translate(346.169835 322.182437) scale(0.1 -0.1)">
       <defs>
        <path id="DejaVuSans-35" d="M 691 4666 
L 3169 4666 
L 3169 4134 
L 1269 4134 
L 1269 2991 
Q 1406 3038 1543 3061 
Q 1681 3084 1819 3084 
Q 2600 3084 3056 2656 
Q 3513 2228 3513 1497 
Q 3513 744 3044 326 
Q 2575 -91 1722 -91 
Q 1428 -91 1123 -41 
Q 819 9 494 109 
L 494 744 
Q 775 591 1075 516 
Q 1375 441 1709 441 
Q 2250 441 2565 725 
Q 2881 1009 2881 1497 
Q 2881 1984 2565 2268 
Q 2250 2553 1709 2553 
Q 1456 2553 1204 2497 
Q 953 2441 691 2322 
L 691 4666 
z
" transform="scale(0.015625)"/>
       </defs>
       <use xlink:href="#DejaVuSans-35"/>
       <use xlink:href="#DejaVuSans-30" x="63.623047"/>
       <use xlink:href="#DejaVuSans-30" x="127.246094"/>
       <use xlink:href="#DejaVuSans-30" x="190.869141"/>
       <use xlink:href="#DejaVuSans-30" x="254.492188"/>
      </g>
     </g>
    </g>
    <g id="text_27">
     <!-- # of key-value pairs -->
     <g transform="translate(186.102969 335.860562) scale(0.1 -0.1)">
      <defs>
       <path id="DejaVuSans-23" d="M 3272 2816 
L 2363 2816 
L 2100 1772 
L 3016 1772 
L 3272 2816 
z
M 2803 4594 
L 2478 3297 
L 3391 3297 
L 3719 4594 
L 4219 4594 
L 3897 3297 
L 4872 3297 
L 4872 2816 
L 3775 2816 
L 3519 1772 
L 4513 1772 
L 4513 1294 
L 3397 1294 
L 3072 0 
L 2572 0 
L 2894 1294 
L 1978 1294 
L 1656 0 
L 1153 0 
L 1478 1294 
L 494 1294 
L 494 1772 
L 1594 1772 
L 1856 2816 
L 850 2816 
L 850 3297 
L 1978 3297 
L 2297 4594 
L 2803 4594 
z
" transform="scale(0.015625)"/>
       <path id="DejaVuSans-20" transform="scale(0.015625)"/>
       <path id="DejaVuSans-6f" d="M 1959 3097 
Q 1497 3097 1228 2736 
Q 959 2375 959 1747 
Q 959 1119 1226 758 
Q 1494 397 1959 397 
Q 2419 397 2687 759 
Q 2956 1122 2956 1747 
Q 2956 2369 2687 2733 
Q 2419 3097 1959 3097 
z
M 1959 3584 
Q 2709 3584 3137 3096 
Q 3566 2609 3566 1747 
Q 3566 888 3137 398 
Q 2709 -91 1959 -91 
Q 1206 -91 779 398 
Q 353 888 353 1747 
Q 353 2609 779 3096 
Q 1206 3584 1959 3584 
z
" transform="scale(0.015625)"/>
       <path id="DejaVuSans-66" d="M 2375 4863 
L 2375 4384 
L 1825 4384 
Q 1516 4384 1395 4259 
Q 1275 4134 1275 3809 
L 1275 3500 
L 2222 3500 
L 2222 3053 
L 1275 3053 
L 1275 0 
L 697 0 
L 697 3053 
L 147 3053 
L 147 3500 
L 697 3500 
L 697 3744 
Q 697 4328 969 4595 
Q 1241 4863 1831 4863 
L 2375 4863 
z
" transform="scale(0.015625)"/>
       <path id="DejaVuSans-6b" d="M 581 4863 
L 1159 4863 
L 1159 1991 
L 2875 3500 
L 3609 3500 
L 1753 1863 
L 3688 0 
L 2938 0 
L 1159 1709 
L 1159 0 
L 581 0 
L 581 4863 
z
" transform="scale(0.015625)"/>
       <path id="DejaVuSans-65" d="M 3597 1894 
L 3597 1613 
L 953 1613 
Q 991 1019 1311 708 
Q 1631 397 2203 397 
Q 2534 397 2845 478 
Q 3156 559 3463 722 
L 3463 178 
Q 3153 47 2828 -22 
Q 2503 -91 2169 -91 
Q 1331 -91 842 396 
Q 353 884 353 1716 
Q 353 2575 817 3079 
Q 1281 3584 2069 3584 
Q 2775 3584 3186 3129 
Q 3597 2675 3597 1894 
z
M 3022 2063 
Q 3016 2534 2758 2815 
Q 2500 3097 2075 3097 
Q 1594 3097 1305 2825 
Q 1016 2553 972 2059 
L 3022 2063 
z
" transform="scale(0.015625)"/>
       <path id="DejaVuSans-79" d="M 2059 -325 
Q 1816 -950 1584 -1140 
Q 1353 -1331 966 -1331 
L 506 -1331 
L 506 -850 
L 844 -850 
Q 1081 -850 1212 -737 
Q 1344 -625 1503 -206 
L 1606 56 
L 191 3500 
L 800 3500 
L 1894 763 
L 2988 3500 
L 3597 3500 
L 2059 -325 
z
" transform="scale(0.015625)"/>
       <path id="DejaVuSans-2d" d="M 313 2009 
L 1997 2009 
L 1997 1497 
L 313 1497 
L 313 2009 
z
" transform="scale(0.015625)"/>
       <path id="DejaVuSans-76" d="M 191 3500 
L 800 3500 
L 1894 563 
L 2988 3500 
L 3597 3500 
L 2284 0 
L 1503 0 
L 191 3500 
z
" transform="scale(0.015625)"/>
       <path id="DejaVuSans-61" d="M 2194 1759 
Q 1497 1759 1228 1600 
Q 959 1441 959 1056 
Q 959 750 1161 570 
Q 1363 391 1709 391 
Q 2188 391 2477 730 
Q 2766 1069 2766 1631 
L 2766 1759 
L 2194 1759 
z
M 3341 1997 
L 3341 0 
L 2766 0 
L 2766 531 
Q 2569 213 2275 61 
Q 1981 -91 1556 -91 
Q 1019 -91 701 211 
Q 384 513 384 1019 
Q 384 1609 779 1909 
Q 1175 2209 1959 2209 
L 2766 2209 
L 2766 2266 
Q 2766 2663 2505 2880 
Q 2244 3097 1772 3097 
Q 1472 3097 1187 3025 
Q 903 2953 641 2809 
L 641 3341 
Q 956 3463 1253 3523 
Q 1550 3584 1831 3584 
Q 2591 3584 2966 3190 
Q 3341 2797 3341 1997 
z
" transform="scale(0.015625)"/>
       <path id="DejaVuSans-6c" d="M 603 4863 
L 1178 4863 
L 1178 0 
L 603 0 
L 603 4863 
z
" transform="scale(0.015625)"/>
       <path id="DejaVuSans-75" d="M 544 1381 
L 544 3500 
L 1119 3500 
L 1119 1403 
Q 1119 906 1312 657 
Q 1506 409 1894 409 
Q 2359 409 2629 706 
Q 2900 1003 2900 1516 
L 2900 3500 
L 3475 3500 
L 3475 0 
L 2900 0 
L 2900 538 
Q 2691 219 2414 64 
Q 2138 -91 1772 -91 
Q 1169 -91 856 284 
Q 544 659 544 1381 
z
M 1991 3584 
L 1991 3584 
z
" transform="scale(0.015625)"/>
       <path id="DejaVuSans-70" d="M 1159 525 
L 1159 -1331 
L 581 -1331 
L 581 3500 
L 1159 3500 
L 1159 2969 
Q 1341 3281 1617 3432 
Q 1894 3584 2278 3584 
Q 2916 3584 3314 3078 
Q 3713 2572 3713 1747 
Q 3713 922 3314 415 
Q 2916 -91 2278 -91 
Q 1894 -91 1617 61 
Q 1341 213 1159 525 
z
M 3116 1747 
Q 3116 2381 2855 2742 
Q 2594 3103 2138 3103 
Q 1681 3103 1420 2742 
Q 1159 2381 1159 1747 
Q 1159 1113 1420 752 
Q 1681 391 2138 391 
Q 2594 391 2855 752 
Q 3116 1113 3116 1747 
z
" transform="scale(0.015625)"/>
       <path id="DejaVuSans-69" d="M 603 3500 
L 1178 3500 
L 1178 0 
L 603 0 
L 603 3500 
z
M 603 4863 
L 1178 4863 
L 1178 4134 
L 603 4134 
L 603 4863 
z
" transform="scale(0.015625)"/>
       <path id="DejaVuSans-72" d="M 2631 2963 
Q 2534 3019 2420 3045 
Q 2306 3072 2169 3072 
Q 1681 3072 1420 2755 
Q 1159 2438 1159 1844 
L 1159 0 
L 581 0 
L 581 3500 
L 1159 3500 
L 1159 2956 
Q 1341 3275 1631 3429 
Q 1922 3584 2338 3584 
Q 2397 3584 2469 3576 
Q 2541 3569 2628 3553 
L 2631 2963 
z
" transform="scale(0.015625)"/>
       <path id="DejaVuSans-73" d="M 2834 3397 
L 2834 2853 
Q 2591 2978 2328 3040 
Q 2066 3103 1784 3103 
Q 1356 3103 1142 2972 
Q 928 2841 928 2578 
Q 928 2378 1081 2264 
Q 1234 2150 1697 2047 
L 1894 2003 
Q 2506 1872 2764 1633 
Q 3022 1394 3022 966 
Q 3022 478 2636 193 
Q 2250 -91 1575 -91 
Q 1294 -91 989 -36 
Q 684 19 347 128 
L 347 722 
Q 666 556 975 473 
Q 1284 391 1588 391 
Q 1994 391 2212 530 
Q 2431 669 2431 922 
Q 2431 1156 2273 1281 
Q 2116 1406 1581 1522 
L 1381 1569 
Q 847 1681 609 1914 
Q 372 2147 372 2553 
Q 372 3047 722 3315 
Q 1072 3584 1716 3584 
Q 2034 3584 2315 3537 
Q 2597 3491 2834 3397 
z
" transform="scale(0.015625)"/>
      </defs>
      <use xlink:href="#DejaVuSans-23"/>
      <use xlink:href="#DejaVuSans-20" x="83.789062"/>
      <use xlink:href="#DejaVuSans-6f" x="115.576172"/>
      <use xlink:href="#DejaVuSans-66" x="176.757812"/>
      <use xlink:href="#DejaVuSans-20" x="211.962891"/>
      <use xlink:href="#DejaVuSans-6b" x="243.75"/>
      <use xlink:href="#DejaVuSans-65" x="298.035156"/>
      <use xlink:href="#DejaVuSans-79" x="359.558594"/>
      <use xlink:href="#DejaVuSans-2d" x="416.988281"/>
      <use xlink:href="#DejaVuSans-76" x="450.447266"/>
      <use xlink:href="#DejaVuSans-61" x="509.626953"/>
      <use xlink:href="#DejaVuSans-6c" x="570.90625"/>
      <use xlink:href="#DejaVuSans-75" x="598.689453"/>
      <use xlink:href="#DejaVuSans-65" x="662.068359"/>
      <use xlink:href="#DejaVuSans-20" x="723.591797"/>
      <use xlink:href="#DejaVuSans-70" x="755.378906"/>
      <use xlink:href="#DejaVuSans-61" x="818.855469"/>
      <use xlink:href="#DejaVuSans-69" x="880.134766"/>
      <use xlink:href="#DejaVuSans-72" x="907.917969"/>
      <use xlink:href="#DejaVuSans-73" x="949.03125"/>
     </g>
    </g>
   </g>
   <g id="matplotlib.axis_22">
    <g id="ytick_21">
     <g id="line2d_27">
      <g>
       <use xlink:href="#mb72ab872e9" x="57.6" y="307.584" style="stroke: #000000; stroke-width: 0.8"/>
      </g>
     </g>
     <g id="text_28">
      <!-- $\mathdefault{10^{0}}$ -->
      <g transform="translate(33 311.383219) scale(0.1 -0.1)">
       <use xlink:href="#DejaVuSans-31" transform="translate(0 0.765625)"/>
       <use xlink:href="#DejaVuSans-30" transform="translate(63.623047 0.765625)"/>
       <use xlink:href="#DejaVuSans-30" transform="translate(128.203125 39.046875) scale(0.7)"/>
      </g>
     </g>
    </g>
    <g id="ytick_22">
     <g id="line2d_28">
      <g>
       <use xlink:href="#mb72ab872e9" x="57.6" y="295.535433" style="stroke: #000000; stroke-width: 0.8"/>
      </g>
     </g>
     <g id="text_29">
      <!-- $\mathdefault{10^{2}}$ -->
      <g transform="translate(33 299.334652) scale(0.1 -0.1)">
       <use xlink:href="#DejaVuSans-31" transform="translate(0 0.765625)"/>
       <use xlink:href="#DejaVuSans-30" transform="translate(63.623047 0.765625)"/>
       <use xlink:href="#DejaVuSans-32" transform="translate(128.203125 39.046875) scale(0.7)"/>
      </g>
     </g>
    </g>
   </g>
   <g id="patch_163">
    <path d="M 57.6 307.584 
L 57.6 287.113846 
" style="fill: none; stroke: #000000; stroke-width: 0.8; stroke-linejoin: miter; stroke-linecap: square"/>
   </g>
   <g id="patch_164">
    <path d="M 414.72 307.584 
L 414.72 287.113846 
" style="fill: none; stroke: #000000; stroke-width: 0.8; stroke-linejoin: miter; stroke-linecap: square"/>
   </g>
   <g id="patch_165">
    <path d="M 57.6 307.584 
L 414.72 307.584 
" style="fill: none; stroke: #000000; stroke-width: 0.8; stroke-linejoin: miter; stroke-linecap: square"/>
   </g>
   <g id="patch_166">
    <path d="M 57.6 287.113846 
L 414.72 287.113846 
" style="fill: none; stroke: #000000; stroke-width: 0.8; stroke-linejoin: miter; stroke-linecap: square"/>
   </g>
  </g>
 </g>
 <defs>
  <clipPath id="p0668395b21">
   <rect x="57.6" y="41.472" width="357.12" height="20.470154"/>
  </clipPath>
  <clipPath id="pa1846dcc92">
   <rect x="57.6" y="66.036185" width="357.12" height="20.470154"/>
  </clipPath>
  <clipPath id="pa85a0e1d16">
   <rect x="57.6" y="90.600369" width="357.12" height="20.470154"/>
  </clipPath>
  <clipPath id="pd234d3e96d">
   <rect x="57.6" y="115.164554" width="357.12" height="20.470154"/>
  </clipPath>
  <clipPath id="p3086d37e52">
   <rect x="57.6" y="139.728738" width="357.12" height="20.470154"/>
  </clipPath>
  <clipPath id="p8ca5f9df52">
   <rect x="57.6" y="164.292923" width="357.12" height="20.470154"/>
  </clipPath>
  <clipPath id="pa719f02039">
   <rect x="57.6" y="188.857108" width="357.12" height="20.470154"/>
  </clipPath>
  <clipPath id="pbb4950cffe">
   <rect x="57.6" y="213.421292" width="357.12" height="20.470154"/>
  </clipPath>
  <clipPath id="p29d3ce3319">
   <rect x="57.6" y="237.985477" width="357.12" height="20.470154"/>
  </clipPath>
  <clipPath id="pd3395db30a">
   <rect x="57.6" y="262.549662" width="357.12" height="20.470154"/>
  </clipPath>
  <clipPath id="p837c21039f">
   <rect x="57.6" y="287.113846" width="357.12" height="20.470154"/>
  </clipPath>
 </defs>
</svg>
