<?xml version="1.0" encoding="utf-8" standalone="no"?>
<!DOCTYPE svg PUBLIC "-//W3C//DTD SVG 1.1//EN"
  "http://www.w3.org/Graphics/SVG/1.1/DTD/svg11.dtd">
<svg xmlns:xlink="http://www.w3.org/1999/xlink" width="460.8pt" height="345.6pt" viewBox="0 0 460.8 345.6" xmlns="http://www.w3.org/2000/svg" version="1.1">
 <metadata>
  <rdf:RDF xmlns:dc="http://purl.org/dc/elements/1.1/" xmlns:cc="http://creativecommons.org/ns#" xmlns:rdf="http://www.w3.org/1999/02/22-rdf-syntax-ns#">
   <cc:Work>
    <dc:type rdf:resource="http://purl.org/dc/dcmitype/StillImage"/>
    <dc:date>2024-01-24T05:34:17.468917</dc:date>
    <dc:format>image/svg+xml</dc:format>
    <dc:creator>
     <cc:Agent>
      <dc:title>Matplotlib v3.7.0, https://matplotlib.org/</dc:title>
     </cc:Agent>
    </dc:creator>
   </cc:Work>
  </rdf:RDF>
 </metadata>
 <defs>
  <style type="text/css">*{stroke-linejoin: round; stroke-linecap: butt}</style>
 </defs>
 <g id="figure_1">
  <g id="patch_1">
   <path d="M 0 345.6 
L 460.8 345.6 
L 460.8 0 
L 0 0 
L 0 345.6 
z
" style="fill: none"/>
  </g>
  <g id="axes_1">
   <g id="patch_2">
    <path d="M 69.12 293.76 
L 437.76 293.76 
L 437.76 17.28 
L 69.12 17.28 
L 69.12 293.76 
z
" style="fill: none"/>
   </g>
   <g id="matplotlib.axis_1">
    <g id="xtick_1">
     <g id="line2d_1">
      <path d="M 69.12 293.76 
L 69.12 17.28 
" clip-path="url(#p881769e8e9)" style="fill: none; stroke: #b0b0b0; stroke-width: 0.8; stroke-linecap: square"/>
     </g>
     <g id="line2d_2">
      <defs>
       <path id="me88502008b" d="M 0 0 
L 0 3.5 
" style="stroke: #000000; stroke-width: 0.8"/>
      </defs>
      <g>
       <use xlink:href="#me88502008b" x="69.12" y="293.76" style="stroke: #000000; stroke-width: 0.8"/>
      </g>
     </g>
     <g id="text_1">
      <!-- $\mathdefault{10^{0}}$ -->
      <g transform="translate(53.28 314.437187) scale(0.18 -0.18)">
       <defs>
        <path id="DejaVuSans-31" d="M 794 531 
L 1825 531 
L 1825 4091 
L 703 3866 
L 703 4441 
L 1819 4666 
L 2450 4666 
L 2450 531 
L 3481 531 
L 3481 0 
L 794 0 
L 794 531 
z
" transform="scale(0.015625)"/>
        <path id="DejaVuSans-30" d="M 2034 4250 
Q 1547 4250 1301 3770 
Q 1056 3291 1056 2328 
Q 1056 1369 1301 889 
Q 1547 409 2034 409 
Q 2525 409 2770 889 
Q 3016 1369 3016 2328 
Q 3016 3291 2770 3770 
Q 2525 4250 2034 4250 
z
M 2034 4750 
Q 2819 4750 3233 4129 
Q 3647 3509 3647 2328 
Q 3647 1150 3233 529 
Q 2819 -91 2034 -91 
Q 1250 -91 836 529 
Q 422 1150 422 2328 
Q 422 3509 836 4129 
Q 1250 4750 2034 4750 
z
" transform="scale(0.015625)"/>
       </defs>
       <use xlink:href="#DejaVuSans-31" transform="translate(0 0.765625)"/>
       <use xlink:href="#DejaVuSans-30" transform="translate(63.623047 0.765625)"/>
       <use xlink:href="#DejaVuSans-30" transform="translate(128.203125 39.046875) scale(0.7)"/>
      </g>
     </g>
    </g>
    <g id="xtick_2">
     <g id="line2d_3">
      <path d="M 177.603716 293.76 
L 177.603716 17.28 
" clip-path="url(#p881769e8e9)" style="fill: none; stroke: #b0b0b0; stroke-width: 0.8; stroke-linecap: square"/>
     </g>
     <g id="line2d_4">
      <g>
       <use xlink:href="#me88502008b" x="177.603716" y="293.76" style="stroke: #000000; stroke-width: 0.8"/>
      </g>
     </g>
     <g id="text_2">
      <!-- $\mathdefault{10^{1}}$ -->
      <g transform="translate(161.763716 314.437187) scale(0.18 -0.18)">
       <use xlink:href="#DejaVuSans-31" transform="translate(0 0.684375)"/>
       <use xlink:href="#DejaVuSans-30" transform="translate(63.623047 0.684375)"/>
       <use xlink:href="#DejaVuSans-31" transform="translate(128.203125 38.965625) scale(0.7)"/>
      </g>
     </g>
    </g>
    <g id="xtick_3">
     <g id="line2d_5">
      <path d="M 286.087432 293.76 
L 286.087432 17.28 
" clip-path="url(#p881769e8e9)" style="fill: none; stroke: #b0b0b0; stroke-width: 0.8; stroke-linecap: square"/>
     </g>
     <g id="line2d_6">
      <g>
       <use xlink:href="#me88502008b" x="286.087432" y="293.76" style="stroke: #000000; stroke-width: 0.8"/>
      </g>
     </g>
     <g id="text_3">
      <!-- $\mathdefault{10^{2}}$ -->
      <g transform="translate(270.247432 314.437187) scale(0.18 -0.18)">
       <defs>
        <path id="DejaVuSans-32" d="M 1228 531 
L 3431 531 
L 3431 0 
L 469 0 
L 469 531 
Q 828 903 1448 1529 
Q 2069 2156 2228 2338 
Q 2531 2678 2651 2914 
Q 2772 3150 2772 3378 
Q 2772 3750 2511 3984 
Q 2250 4219 1831 4219 
Q 1534 4219 1204 4116 
Q 875 4013 500 3803 
L 500 4441 
Q 881 4594 1212 4672 
Q 1544 4750 1819 4750 
Q 2544 4750 2975 4387 
Q 3406 4025 3406 3419 
Q 3406 3131 3298 2873 
Q 3191 2616 2906 2266 
Q 2828 2175 2409 1742 
Q 1991 1309 1228 531 
z
" transform="scale(0.015625)"/>
       </defs>
       <use xlink:href="#DejaVuSans-31" transform="translate(0 0.765625)"/>
       <use xlink:href="#DejaVuSans-30" transform="translate(63.623047 0.765625)"/>
       <use xlink:href="#DejaVuSans-32" transform="translate(128.203125 39.046875) scale(0.7)"/>
      </g>
     </g>
    </g>
    <g id="xtick_4">
     <g id="line2d_7">
      <path d="M 394.571147 293.76 
L 394.571147 17.28 
" clip-path="url(#p881769e8e9)" style="fill: none; stroke: #b0b0b0; stroke-width: 0.8; stroke-linecap: square"/>
     </g>
     <g id="line2d_8">
      <g>
       <use xlink:href="#me88502008b" x="394.571147" y="293.76" style="stroke: #000000; stroke-width: 0.8"/>
      </g>
     </g>
     <g id="text_4">
      <!-- $\mathdefault{10^{3}}$ -->
      <g transform="translate(378.731147 314.437187) scale(0.18 -0.18)">
       <defs>
        <path id="DejaVuSans-33" d="M 2597 2516 
Q 3050 2419 3304 2112 
Q 3559 1806 3559 1356 
Q 3559 666 3084 287 
Q 2609 -91 1734 -91 
Q 1441 -91 1130 -33 
Q 819 25 488 141 
L 488 750 
Q 750 597 1062 519 
Q 1375 441 1716 441 
Q 2309 441 2620 675 
Q 2931 909 2931 1356 
Q 2931 1769 2642 2001 
Q 2353 2234 1838 2234 
L 1294 2234 
L 1294 2753 
L 1863 2753 
Q 2328 2753 2575 2939 
Q 2822 3125 2822 3475 
Q 2822 3834 2567 4026 
Q 2313 4219 1838 4219 
Q 1578 4219 1281 4162 
Q 984 4106 628 3988 
L 628 4550 
Q 988 4650 1302 4700 
Q 1616 4750 1894 4750 
Q 2613 4750 3031 4423 
Q 3450 4097 3450 3541 
Q 3450 3153 3228 2886 
Q 3006 2619 2597 2516 
z
" transform="scale(0.015625)"/>
       </defs>
       <use xlink:href="#DejaVuSans-31" transform="translate(0 0.765625)"/>
       <use xlink:href="#DejaVuSans-30" transform="translate(63.623047 0.765625)"/>
       <use xlink:href="#DejaVuSans-33" transform="translate(128.203125 39.046875) scale(0.7)"/>
      </g>
     </g>
    </g>
    <g id="xtick_5">
     <g id="line2d_9">
      <defs>
       <path id="mab5187bfe4" d="M 0 0 
L 0 2 
" style="stroke: #000000; stroke-width: 0.6"/>
      </defs>
      <g>
       <use xlink:href="#mab5187bfe4" x="101.776852" y="293.76" style="stroke: #000000; stroke-width: 0.6"/>
      </g>
     </g>
    </g>
    <g id="xtick_6">
     <g id="line2d_10">
      <g>
       <use xlink:href="#mab5187bfe4" x="120.879887" y="293.76" style="stroke: #000000; stroke-width: 0.6"/>
      </g>
     </g>
    </g>
    <g id="xtick_7">
     <g id="line2d_11">
      <g>
       <use xlink:href="#mab5187bfe4" x="134.433705" y="293.76" style="stroke: #000000; stroke-width: 0.6"/>
      </g>
     </g>
    </g>
    <g id="xtick_8">
     <g id="line2d_12">
      <g>
       <use xlink:href="#mab5187bfe4" x="144.946863" y="293.76" style="stroke: #000000; stroke-width: 0.6"/>
      </g>
     </g>
    </g>
    <g id="xtick_9">
     <g id="line2d_13">
      <g>
       <use xlink:href="#mab5187bfe4" x="153.536739" y="293.76" style="stroke: #000000; stroke-width: 0.6"/>
      </g>
     </g>
    </g>
    <g id="xtick_10">
     <g id="line2d_14">
      <g>
       <use xlink:href="#mab5187bfe4" x="160.799376" y="293.76" style="stroke: #000000; stroke-width: 0.6"/>
      </g>
     </g>
    </g>
    <g id="xtick_11">
     <g id="line2d_15">
      <g>
       <use xlink:href="#mab5187bfe4" x="167.090557" y="293.76" style="stroke: #000000; stroke-width: 0.6"/>
      </g>
     </g>
    </g>
    <g id="xtick_12">
     <g id="line2d_16">
      <g>
       <use xlink:href="#mab5187bfe4" x="172.639773" y="293.76" style="stroke: #000000; stroke-width: 0.6"/>
      </g>
     </g>
    </g>
    <g id="xtick_13">
     <g id="line2d_17">
      <g>
       <use xlink:href="#mab5187bfe4" x="210.260568" y="293.76" style="stroke: #000000; stroke-width: 0.6"/>
      </g>
     </g>
    </g>
    <g id="xtick_14">
     <g id="line2d_18">
      <g>
       <use xlink:href="#mab5187bfe4" x="229.363602" y="293.76" style="stroke: #000000; stroke-width: 0.6"/>
      </g>
     </g>
    </g>
    <g id="xtick_15">
     <g id="line2d_19">
      <g>
       <use xlink:href="#mab5187bfe4" x="242.917421" y="293.76" style="stroke: #000000; stroke-width: 0.6"/>
      </g>
     </g>
    </g>
    <g id="xtick_16">
     <g id="line2d_20">
      <g>
       <use xlink:href="#mab5187bfe4" x="253.430579" y="293.76" style="stroke: #000000; stroke-width: 0.6"/>
      </g>
     </g>
    </g>
    <g id="xtick_17">
     <g id="line2d_21">
      <g>
       <use xlink:href="#mab5187bfe4" x="262.020455" y="293.76" style="stroke: #000000; stroke-width: 0.6"/>
      </g>
     </g>
    </g>
    <g id="xtick_18">
     <g id="line2d_22">
      <g>
       <use xlink:href="#mab5187bfe4" x="269.283091" y="293.76" style="stroke: #000000; stroke-width: 0.6"/>
      </g>
     </g>
    </g>
    <g id="xtick_19">
     <g id="line2d_23">
      <g>
       <use xlink:href="#mab5187bfe4" x="275.574273" y="293.76" style="stroke: #000000; stroke-width: 0.6"/>
      </g>
     </g>
    </g>
    <g id="xtick_20">
     <g id="line2d_24">
      <g>
       <use xlink:href="#mab5187bfe4" x="281.123489" y="293.76" style="stroke: #000000; stroke-width: 0.6"/>
      </g>
     </g>
    </g>
    <g id="xtick_21">
     <g id="line2d_25">
      <g>
       <use xlink:href="#mab5187bfe4" x="318.744284" y="293.76" style="stroke: #000000; stroke-width: 0.6"/>
      </g>
     </g>
    </g>
    <g id="xtick_22">
     <g id="line2d_26">
      <g>
       <use xlink:href="#mab5187bfe4" x="337.847318" y="293.76" style="stroke: #000000; stroke-width: 0.6"/>
      </g>
     </g>
    </g>
    <g id="xtick_23">
     <g id="line2d_27">
      <g>
       <use xlink:href="#mab5187bfe4" x="351.401137" y="293.76" style="stroke: #000000; stroke-width: 0.6"/>
      </g>
     </g>
    </g>
    <g id="xtick_24">
     <g id="line2d_28">
      <g>
       <use xlink:href="#mab5187bfe4" x="361.914295" y="293.76" style="stroke: #000000; stroke-width: 0.6"/>
      </g>
     </g>
    </g>
    <g id="xtick_25">
     <g id="line2d_29">
      <g>
       <use xlink:href="#mab5187bfe4" x="370.504171" y="293.76" style="stroke: #000000; stroke-width: 0.6"/>
      </g>
     </g>
    </g>
    <g id="xtick_26">
     <g id="line2d_30">
      <g>
       <use xlink:href="#mab5187bfe4" x="377.766807" y="293.76" style="stroke: #000000; stroke-width: 0.6"/>
      </g>
     </g>
    </g>
    <g id="xtick_27">
     <g id="line2d_31">
      <g>
       <use xlink:href="#mab5187bfe4" x="384.057989" y="293.76" style="stroke: #000000; stroke-width: 0.6"/>
      </g>
     </g>
    </g>
    <g id="xtick_28">
     <g id="line2d_32">
      <g>
       <use xlink:href="#mab5187bfe4" x="389.607205" y="293.76" style="stroke: #000000; stroke-width: 0.6"/>
      </g>
     </g>
    </g>
    <g id="xtick_29">
     <g id="line2d_33">
      <g>
       <use xlink:href="#mab5187bfe4" x="427.228" y="293.76" style="stroke: #000000; stroke-width: 0.6"/>
      </g>
     </g>
    </g>
    <g id="text_5">
     <!-- PIM node -->
     <g transform="translate(212.270625 335.857812) scale(0.18 -0.18)">
      <defs>
       <path id="DejaVuSans-50" d="M 1259 4147 
L 1259 2394 
L 2053 2394 
Q 2494 2394 2734 2622 
Q 2975 2850 2975 3272 
Q 2975 3691 2734 3919 
Q 2494 4147 2053 4147 
L 1259 4147 
z
M 628 4666 
L 2053 4666 
Q 2838 4666 3239 4311 
Q 3641 3956 3641 3272 
Q 3641 2581 3239 2228 
Q 2838 1875 2053 1875 
L 1259 1875 
L 1259 0 
L 628 0 
L 628 4666 
z
" transform="scale(0.015625)"/>
       <path id="DejaVuSans-49" d="M 628 4666 
L 1259 4666 
L 1259 0 
L 628 0 
L 628 4666 
z
" transform="scale(0.015625)"/>
       <path id="DejaVuSans-4d" d="M 628 4666 
L 1569 4666 
L 2759 1491 
L 3956 4666 
L 4897 4666 
L 4897 0 
L 4281 0 
L 4281 4097 
L 3078 897 
L 2444 897 
L 1241 4097 
L 1241 0 
L 628 0 
L 628 4666 
z
" transform="scale(0.015625)"/>
       <path id="DejaVuSans-20" transform="scale(0.015625)"/>
       <path id="DejaVuSans-6e" d="M 3513 2113 
L 3513 0 
L 2938 0 
L 2938 2094 
Q 2938 2591 2744 2837 
Q 2550 3084 2163 3084 
Q 1697 3084 1428 2787 
Q 1159 2491 1159 1978 
L 1159 0 
L 581 0 
L 581 3500 
L 1159 3500 
L 1159 2956 
Q 1366 3272 1645 3428 
Q 1925 3584 2291 3584 
Q 2894 3584 3203 3211 
Q 3513 2838 3513 2113 
z
" transform="scale(0.015625)"/>
       <path id="DejaVuSans-6f" d="M 1959 3097 
Q 1497 3097 1228 2736 
Q 959 2375 959 1747 
Q 959 1119 1226 758 
Q 1494 397 1959 397 
Q 2419 397 2687 759 
Q 2956 1122 2956 1747 
Q 2956 2369 2687 2733 
Q 2419 3097 1959 3097 
z
M 1959 3584 
Q 2709 3584 3137 3096 
Q 3566 2609 3566 1747 
Q 3566 888 3137 398 
Q 2709 -91 1959 -91 
Q 1206 -91 779 398 
Q 353 888 353 1747 
Q 353 2609 779 3096 
Q 1206 3584 1959 3584 
z
" transform="scale(0.015625)"/>
       <path id="DejaVuSans-64" d="M 2906 2969 
L 2906 4863 
L 3481 4863 
L 3481 0 
L 2906 0 
L 2906 525 
Q 2725 213 2448 61 
Q 2172 -91 1784 -91 
Q 1150 -91 751 415 
Q 353 922 353 1747 
Q 353 2572 751 3078 
Q 1150 3584 1784 3584 
Q 2172 3584 2448 3432 
Q 2725 3281 2906 2969 
z
M 947 1747 
Q 947 1113 1208 752 
Q 1469 391 1925 391 
Q 2381 391 2643 752 
Q 2906 1113 2906 1747 
Q 2906 2381 2643 2742 
Q 2381 3103 1925 3103 
Q 1469 3103 1208 2742 
Q 947 2381 947 1747 
z
" transform="scale(0.015625)"/>
       <path id="DejaVuSans-65" d="M 3597 1894 
L 3597 1613 
L 953 1613 
Q 991 1019 1311 708 
Q 1631 397 2203 397 
Q 2534 397 2845 478 
Q 3156 559 3463 722 
L 3463 178 
Q 3153 47 2828 -22 
Q 2503 -91 2169 -91 
Q 1331 -91 842 396 
Q 353 884 353 1716 
Q 353 2575 817 3079 
Q 1281 3584 2069 3584 
Q 2775 3584 3186 3129 
Q 3597 2675 3597 1894 
z
M 3022 2063 
Q 3016 2534 2758 2815 
Q 2500 3097 2075 3097 
Q 1594 3097 1305 2825 
Q 1016 2553 972 2059 
L 3022 2063 
z
" transform="scale(0.015625)"/>
      </defs>
      <use xlink:href="#DejaVuSans-50"/>
      <use xlink:href="#DejaVuSans-49" x="60.302734"/>
      <use xlink:href="#DejaVuSans-4d" x="89.794922"/>
      <use xlink:href="#DejaVuSans-20" x="176.074219"/>
      <use xlink:href="#DejaVuSans-6e" x="207.861328"/>
      <use xlink:href="#DejaVuSans-6f" x="271.240234"/>
      <use xlink:href="#DejaVuSans-64" x="332.421875"/>
      <use xlink:href="#DejaVuSans-65" x="395.898438"/>
     </g>
    </g>
   </g>
   <g id="matplotlib.axis_2">
    <g id="ytick_1">
     <g id="line2d_34">
      <path d="M 69.12 239.352289 
L 437.76 239.352289 
" clip-path="url(#p881769e8e9)" style="fill: none; stroke: #b0b0b0; stroke-width: 0.8; stroke-linecap: square"/>
     </g>
     <g id="line2d_35">
      <defs>
       <path id="m0ccb9c5d8e" d="M 0 0 
L -3.5 0 
" style="stroke: #000000; stroke-width: 0.8"/>
      </defs>
      <g>
       <use xlink:href="#m0ccb9c5d8e" x="69.12" y="239.352289" style="stroke: #000000; stroke-width: 0.8"/>
      </g>
     </g>
     <g id="text_6">
      <!-- 50 -->
      <g transform="translate(39.215 246.190883) scale(0.18 -0.18)">
       <defs>
        <path id="DejaVuSans-35" d="M 691 4666 
L 3169 4666 
L 3169 4134 
L 1269 4134 
L 1269 2991 
Q 1406 3038 1543 3061 
Q 1681 3084 1819 3084 
Q 2600 3084 3056 2656 
Q 3513 2228 3513 1497 
Q 3513 744 3044 326 
Q 2575 -91 1722 -91 
Q 1428 -91 1123 -41 
Q 819 9 494 109 
L 494 744 
Q 775 591 1075 516 
Q 1375 441 1709 441 
Q 2250 441 2565 725 
Q 2881 1009 2881 1497 
Q 2881 1984 2565 2268 
Q 2250 2553 1709 2553 
Q 1456 2553 1204 2497 
Q 953 2441 691 2322 
L 691 4666 
z
" transform="scale(0.015625)"/>
       </defs>
       <use xlink:href="#DejaVuSans-35"/>
       <use xlink:href="#DejaVuSans-30" x="63.623047"/>
      </g>
     </g>
    </g>
    <g id="ytick_2">
     <g id="line2d_36">
      <path d="M 69.12 183.834217 
L 437.76 183.834217 
" clip-path="url(#p881769e8e9)" style="fill: none; stroke: #b0b0b0; stroke-width: 0.8; stroke-linecap: square"/>
     </g>
     <g id="line2d_37">
      <g>
       <use xlink:href="#m0ccb9c5d8e" x="69.12" y="183.834217" style="stroke: #000000; stroke-width: 0.8"/>
      </g>
     </g>
     <g id="text_7">
      <!-- 100 -->
      <g transform="translate(27.7625 190.672811) scale(0.18 -0.18)">
       <use xlink:href="#DejaVuSans-31"/>
       <use xlink:href="#DejaVuSans-30" x="63.623047"/>
       <use xlink:href="#DejaVuSans-30" x="127.246094"/>
      </g>
     </g>
    </g>
    <g id="ytick_3">
     <g id="line2d_38">
      <path d="M 69.12 128.316145 
L 437.76 128.316145 
" clip-path="url(#p881769e8e9)" style="fill: none; stroke: #b0b0b0; stroke-width: 0.8; stroke-linecap: square"/>
     </g>
     <g id="line2d_39">
      <g>
       <use xlink:href="#m0ccb9c5d8e" x="69.12" y="128.316145" style="stroke: #000000; stroke-width: 0.8"/>
      </g>
     </g>
     <g id="text_8">
      <!-- 150 -->
      <g transform="translate(27.7625 135.154738) scale(0.18 -0.18)">
       <use xlink:href="#DejaVuSans-31"/>
       <use xlink:href="#DejaVuSans-35" x="63.623047"/>
       <use xlink:href="#DejaVuSans-30" x="127.246094"/>
      </g>
     </g>
    </g>
    <g id="ytick_4">
     <g id="line2d_40">
      <path d="M 69.12 72.798072 
L 437.76 72.798072 
" clip-path="url(#p881769e8e9)" style="fill: none; stroke: #b0b0b0; stroke-width: 0.8; stroke-linecap: square"/>
     </g>
     <g id="line2d_41">
      <g>
       <use xlink:href="#m0ccb9c5d8e" x="69.12" y="72.798072" style="stroke: #000000; stroke-width: 0.8"/>
      </g>
     </g>
     <g id="text_9">
      <!-- 200 -->
      <g transform="translate(27.7625 79.636666) scale(0.18 -0.18)">
       <use xlink:href="#DejaVuSans-32"/>
       <use xlink:href="#DejaVuSans-30" x="63.623047"/>
       <use xlink:href="#DejaVuSans-30" x="127.246094"/>
      </g>
     </g>
    </g>
    <g id="ytick_5">
     <g id="line2d_42">
      <path d="M 69.12 17.28 
L 437.76 17.28 
" clip-path="url(#p881769e8e9)" style="fill: none; stroke: #b0b0b0; stroke-width: 0.8; stroke-linecap: square"/>
     </g>
     <g id="line2d_43">
      <g>
       <use xlink:href="#m0ccb9c5d8e" x="69.12" y="17.28" style="stroke: #000000; stroke-width: 0.8"/>
      </g>
     </g>
     <g id="text_10">
      <!-- 250 -->
      <g transform="translate(27.7625 24.118594) scale(0.18 -0.18)">
       <use xlink:href="#DejaVuSans-32"/>
       <use xlink:href="#DejaVuSans-35" x="63.623047"/>
       <use xlink:href="#DejaVuSans-30" x="127.246094"/>
      </g>
     </g>
    </g>
    <g id="ytick_6">
     <g id="line2d_44">
      <path d="M 69.12 250.455904 
L 437.76 250.455904 
" clip-path="url(#p881769e8e9)" style="fill: none; stroke: #b0b0b0; stroke-width: 0.8; stroke-linecap: square"/>
     </g>
     <g id="line2d_45">
      <g>
       <use xlink:href="#m0ccb9c5d8e" x="69.12" y="250.455904" style="stroke: #000000; stroke-width: 0.8"/>
      </g>
     </g>
     <g id="text_11">
      <!-- 40 -->
      <g transform="translate(39.215 257.294497) scale(0.18 -0.18)">
       <defs>
        <path id="DejaVuSans-34" d="M 2419 4116 
L 825 1625 
L 2419 1625 
L 2419 4116 
z
M 2253 4666 
L 3047 4666 
L 3047 1625 
L 3713 1625 
L 3713 1100 
L 3047 1100 
L 3047 0 
L 2419 0 
L 2419 1100 
L 313 1100 
L 313 1709 
L 2253 4666 
z
" transform="scale(0.015625)"/>
       </defs>
       <use xlink:href="#DejaVuSans-34"/>
       <use xlink:href="#DejaVuSans-30" x="63.623047"/>
      </g>
     </g>
    </g>
    <g id="text_12">
     <!-- number of queries -->
     <g transform="translate(20.019063 238.422656) rotate(-90) scale(0.18 -0.18)">
      <defs>
       <path id="DejaVuSans-75" d="M 544 1381 
L 544 3500 
L 1119 3500 
L 1119 1403 
Q 1119 906 1312 657 
Q 1506 409 1894 409 
Q 2359 409 2629 706 
Q 2900 1003 2900 1516 
L 2900 3500 
L 3475 3500 
L 3475 0 
L 2900 0 
L 2900 538 
Q 2691 219 2414 64 
Q 2138 -91 1772 -91 
Q 1169 -91 856 284 
Q 544 659 544 1381 
z
M 1991 3584 
L 1991 3584 
z
" transform="scale(0.015625)"/>
       <path id="DejaVuSans-6d" d="M 3328 2828 
Q 3544 3216 3844 3400 
Q 4144 3584 4550 3584 
Q 5097 3584 5394 3201 
Q 5691 2819 5691 2113 
L 5691 0 
L 5113 0 
L 5113 2094 
Q 5113 2597 4934 2840 
Q 4756 3084 4391 3084 
Q 3944 3084 3684 2787 
Q 3425 2491 3425 1978 
L 3425 0 
L 2847 0 
L 2847 2094 
Q 2847 2600 2669 2842 
Q 2491 3084 2119 3084 
Q 1678 3084 1418 2786 
Q 1159 2488 1159 1978 
L 1159 0 
L 581 0 
L 581 3500 
L 1159 3500 
L 1159 2956 
Q 1356 3278 1631 3431 
Q 1906 3584 2284 3584 
Q 2666 3584 2933 3390 
Q 3200 3197 3328 2828 
z
" transform="scale(0.015625)"/>
       <path id="DejaVuSans-62" d="M 3116 1747 
Q 3116 2381 2855 2742 
Q 2594 3103 2138 3103 
Q 1681 3103 1420 2742 
Q 1159 2381 1159 1747 
Q 1159 1113 1420 752 
Q 1681 391 2138 391 
Q 2594 391 2855 752 
Q 3116 1113 3116 1747 
z
M 1159 2969 
Q 1341 3281 1617 3432 
Q 1894 3584 2278 3584 
Q 2916 3584 3314 3078 
Q 3713 2572 3713 1747 
Q 3713 922 3314 415 
Q 2916 -91 2278 -91 
Q 1894 -91 1617 61 
Q 1341 213 1159 525 
L 1159 0 
L 581 0 
L 581 4863 
L 1159 4863 
L 1159 2969 
z
" transform="scale(0.015625)"/>
       <path id="DejaVuSans-72" d="M 2631 2963 
Q 2534 3019 2420 3045 
Q 2306 3072 2169 3072 
Q 1681 3072 1420 2755 
Q 1159 2438 1159 1844 
L 1159 0 
L 581 0 
L 581 3500 
L 1159 3500 
L 1159 2956 
Q 1341 3275 1631 3429 
Q 1922 3584 2338 3584 
Q 2397 3584 2469 3576 
Q 2541 3569 2628 3553 
L 2631 2963 
z
" transform="scale(0.015625)"/>
       <path id="DejaVuSans-66" d="M 2375 4863 
L 2375 4384 
L 1825 4384 
Q 1516 4384 1395 4259 
Q 1275 4134 1275 3809 
L 1275 3500 
L 2222 3500 
L 2222 3053 
L 1275 3053 
L 1275 0 
L 697 0 
L 697 3053 
L 147 3053 
L 147 3500 
L 697 3500 
L 697 3744 
Q 697 4328 969 4595 
Q 1241 4863 1831 4863 
L 2375 4863 
z
" transform="scale(0.015625)"/>
       <path id="DejaVuSans-71" d="M 947 1747 
Q 947 1113 1208 752 
Q 1469 391 1925 391 
Q 2381 391 2643 752 
Q 2906 1113 2906 1747 
Q 2906 2381 2643 2742 
Q 2381 3103 1925 3103 
Q 1469 3103 1208 2742 
Q 947 2381 947 1747 
z
M 2906 525 
Q 2725 213 2448 61 
Q 2172 -91 1784 -91 
Q 1150 -91 751 415 
Q 353 922 353 1747 
Q 353 2572 751 3078 
Q 1150 3584 1784 3584 
Q 2172 3584 2448 3432 
Q 2725 3281 2906 2969 
L 2906 3500 
L 3481 3500 
L 3481 -1331 
L 2906 -1331 
L 2906 525 
z
" transform="scale(0.015625)"/>
       <path id="DejaVuSans-69" d="M 603 3500 
L 1178 3500 
L 1178 0 
L 603 0 
L 603 3500 
z
M 603 4863 
L 1178 4863 
L 1178 4134 
L 603 4134 
L 603 4863 
z
" transform="scale(0.015625)"/>
       <path id="DejaVuSans-73" d="M 2834 3397 
L 2834 2853 
Q 2591 2978 2328 3040 
Q 2066 3103 1784 3103 
Q 1356 3103 1142 2972 
Q 928 2841 928 2578 
Q 928 2378 1081 2264 
Q 1234 2150 1697 2047 
L 1894 2003 
Q 2506 1872 2764 1633 
Q 3022 1394 3022 966 
Q 3022 478 2636 193 
Q 2250 -91 1575 -91 
Q 1294 -91 989 -36 
Q 684 19 347 128 
L 347 722 
Q 666 556 975 473 
Q 1284 391 1588 391 
Q 1994 391 2212 530 
Q 2431 669 2431 922 
Q 2431 1156 2273 1281 
Q 2116 1406 1581 1522 
L 1381 1569 
Q 847 1681 609 1914 
Q 372 2147 372 2553 
Q 372 3047 722 3315 
Q 1072 3584 1716 3584 
Q 2034 3584 2315 3537 
Q 2597 3491 2834 3397 
z
" transform="scale(0.015625)"/>
      </defs>
      <use xlink:href="#DejaVuSans-6e"/>
      <use xlink:href="#DejaVuSans-75" x="63.378906"/>
      <use xlink:href="#DejaVuSans-6d" x="126.757812"/>
      <use xlink:href="#DejaVuSans-62" x="224.169922"/>
      <use xlink:href="#DejaVuSans-65" x="287.646484"/>
      <use xlink:href="#DejaVuSans-72" x="349.169922"/>
      <use xlink:href="#DejaVuSans-20" x="390.283203"/>
      <use xlink:href="#DejaVuSans-6f" x="422.070312"/>
      <use xlink:href="#DejaVuSans-66" x="483.251953"/>
      <use xlink:href="#DejaVuSans-20" x="518.457031"/>
      <use xlink:href="#DejaVuSans-71" x="550.244141"/>
      <use xlink:href="#DejaVuSans-75" x="613.720703"/>
      <use xlink:href="#DejaVuSans-65" x="677.099609"/>
      <use xlink:href="#DejaVuSans-72" x="738.623047"/>
      <use xlink:href="#DejaVuSans-69" x="779.736328"/>
      <use xlink:href="#DejaVuSans-65" x="807.519531"/>
      <use xlink:href="#DejaVuSans-73" x="869.042969"/>
     </g>
    </g>
   </g>
   <g id="line2d_46">
    <path d="M 69.12 79.460241 
L 101.776852 151.633735 
L 120.879887 153.854458 
L 134.433705 154.964819 
L 144.946863 170.50988 
L 153.536739 174.951325 
L 160.799376 178.28241 
L 167.090557 180.503133 
L 172.639773 184.944578 
L 177.603716 184.944578 
L 182.094148 188.275663 
L 186.193592 189.386024 
L 189.964714 192.717108 
L 196.70675 194.937831 
L 202.603671 194.937831 
L 207.843942 199.379277 
L 210.260568 200.489639 
L 212.559262 200.489639 
L 216.845296 202.710361 
L 220.773727 202.710361 
L 222.621567 203.820723 
L 226.113081 203.820723 
L 227.766369 204.931084 
L 230.908458 204.931084 
L 232.404262 207.151807 
L 235.260524 207.151807 
L 236.626239 208.262169 
L 239.24435 208.262169 
L 240.500795 209.37253 
L 241.724601 209.37253 
L 242.917421 210.482892 
L 246.324728 210.482892 
L 247.407853 211.593253 
L 251.507297 211.593253 
L 255.278419 216.034699 
L 259.603829 216.034699 
L 260.423221 217.14506 
L 264.319149 217.14506 
L 265.061115 218.255422 
L 266.510887 218.255422 
L 267.21938 219.365783 
L 269.283091 219.365783 
L 269.951385 220.476145 
L 275.574273 220.476145 
L 276.159546 221.586506 
L 279.526255 221.586506 
L 280.064706 222.696867 
L 284.65238 222.696867 
L 285.135604 223.807229 
L 287.935272 223.807229 
L 288.386126 224.91759 
L 291.845578 224.91759 
L 292.260681 226.027952 
L 296.976001 226.027952 
L 297.348445 227.138313 
L 301.602209 227.138313 
L 301.939944 228.248675 
L 305.503516 228.248675 
L 305.8145 229.359036 
L 309.394491 229.359036 
L 309.680898 230.469398 
L 311.911557 230.469398 
L 312.183108 231.579759 
L 315.577819 231.579759 
L 315.829094 232.69012 
L 319.677263 232.69012 
L 319.907649 233.800482 
L 323.872837 233.800482 
L 324.083638 234.910843 
L 327.53006 234.910843 
L 327.725149 236.021205 
L 333.403976 236.021205 
L 333.576239 237.131566 
L 338.160368 237.131566 
L 338.316117 238.241928 
L 343.466281 238.241928 
L 343.605465 239.352289 
L 348.234672 239.352289 
L 348.360477 240.462651 
L 353.248977 240.462651 
L 353.362095 241.573012 
L 357.985864 241.573012 
L 358.190263 242.683373 
L 362.939563 242.683373 
L 363.123602 243.793735 
L 367.000575 243.793735 
L 367.169442 244.904096 
L 372.276447 244.904096 
L 372.427453 246.014458 
L 376.952138 246.014458 
L 377.088898 247.124819 
L 382.011854 247.124819 
L 382.134707 248.235181 
L 387.190579 248.235181 
L 387.355601 249.345542 
L 391.905899 249.345542 
L 392.05523 250.455904 
L 396.373664 250.455904 
L 396.509504 251.566265 
L 400.785707 251.566265 
L 400.90942 252.676627 
L 405.384874 252.676627 
L 405.497094 253.786988 
L 410.153665 253.786988 
L 410.288856 254.897349 
L 414.545533 254.897349 
L 414.668707 256.007711 
L 417.878206 256.007711 
L 417.992978 257.118072 
L 421.790547 257.118072 
L 421.922556 258.228434 
L 424.811374 258.228434 
L 424.935195 259.338795 
L 427.298618 259.338795 
L 427.41608 260.449157 
L 429.256699 260.449157 
L 429.369385 261.559518 
L 431.288165 261.559518 
L 431.417659 262.66988 
L 432.923565 262.66988 
L 433.048646 263.780241 
L 434.301803 263.780241 
L 434.423283 264.890602 
L 435.205357 264.890602 
L 435.324532 266.000964 
L 436.052858 266.000964 
L 436.169911 267.111325 
L 436.480639 267.111325 
L 436.596635 268.221687 
L 436.827775 268.221687 
L 436.942921 269.332048 
L 437.134208 269.332048 
L 437.248608 270.44241 
L 437.41969 270.44241 
L 437.5334 271.552771 
L 437.590152 271.552771 
L 437.741158 275.994217 
L 437.741158 275.994217 
" clip-path="url(#p881769e8e9)" style="fill: none; stroke: #800000; stroke-width: 3; stroke-linecap: square"/>
   </g>
   <g id="line2d_47">
    <path d="M 69.12 60.584096 
L 101.776852 141.640482 
L 120.879887 150.523373 
L 134.433705 160.516627 
L 144.946863 172.730602 
L 153.536739 176.061687 
L 160.799376 177.172048 
L 167.090557 178.28241 
L 172.639773 179.392771 
L 177.603716 184.944578 
L 182.094148 186.05494 
L 186.193592 186.05494 
L 189.964714 187.165301 
L 193.456228 187.165301 
L 196.70675 191.606747 
L 199.74741 192.717108 
L 202.603671 192.717108 
L 205.296626 196.048193 
L 207.843942 198.268916 
L 210.260568 199.379277 
L 212.559262 201.6 
L 214.751001 202.710361 
L 216.845296 202.710361 
L 218.850444 203.820723 
L 220.773727 203.820723 
L 222.621567 204.931084 
L 224.39966 204.931084 
L 226.113081 206.041446 
L 229.363602 206.041446 
L 230.908458 207.151807 
L 232.404262 207.151807 
L 233.854035 208.262169 
L 235.260524 208.262169 
L 236.626239 209.37253 
L 239.24435 209.37253 
L 240.500795 210.482892 
L 241.724601 210.482892 
L 242.917421 211.593253 
L 246.324728 211.593253 
L 247.407853 212.703614 
L 252.478751 212.703614 
L 253.430579 213.813976 
L 254.363558 213.813976 
L 255.278419 214.924337 
L 257.921011 214.924337 
L 258.769933 216.034699 
L 261.228606 216.034699 
L 262.020455 217.14506 
L 264.319149 217.14506 
L 265.061115 218.255422 
L 266.510887 218.255422 
L 267.21938 219.365783 
L 268.605182 219.365783 
L 269.283091 220.476145 
L 272.533613 220.476145 
L 273.157647 221.586506 
L 274.981638 221.586506 
L 275.574273 222.696867 
L 277.872967 222.696867 
L 278.430534 223.807229 
L 282.668345 223.807229 
L 283.172241 224.91759 
L 287.480061 224.91759 
L 287.935272 226.027952 
L 291.004237 226.027952 
L 291.426786 227.138313 
L 298.084614 227.138313 
L 298.44843 228.248675 
L 302.275275 228.248675 
L 302.608237 229.359036 
L 305.190466 229.359036 
L 305.503516 230.469398 
L 308.816399 230.469398 
L 309.106331 231.579759 
L 312.453102 231.579759 
L 312.721558 232.69012 
L 317.792456 232.69012 
L 318.032222 233.800482 
L 323.234716 233.800482 
L 323.448385 234.910843 
L 329.632854 234.910843 
L 329.819444 236.021205 
L 334.089281 236.021205 
L 334.259061 237.131566 
L 337.847318 237.131566 
L 338.004103 238.241928 
L 342.622427 238.241928 
L 342.764123 239.352289 
L 347.472706 239.352289 
L 347.600559 240.462651 
L 353.021921 240.462651 
L 353.135586 241.573012 
L 358.596419 241.573012 
L 358.798192 242.683373 
L 362.847274 242.683373 
L 363.031672 243.793735 
L 366.746134 243.793735 
L 366.915914 244.904096 
L 371.667535 244.904096 
L 371.820503 246.014458 
L 376.262317 246.014458 
L 376.401092 247.124819 
L 381.765184 247.124819 
L 381.888681 248.235181 
L 387.683922 248.235181 
L 387.847229 249.345542 
L 393.426624 249.345542 
L 393.57122 250.455904 
L 397.360848 250.455904 
L 397.493875 251.566265 
L 402.048671 251.566265 
L 402.169115 252.676627 
L 406.348685 252.676627 
L 406.495229 253.786988 
L 410.591624 253.786988 
L 410.725565 254.897349 
L 415.036307 254.897349 
L 415.158206 256.007711 
L 419.06959 256.007711 
L 419.1815 257.118072 
L 422.133003 257.118072 
L 422.264057 258.228434 
L 424.910457 258.228434 
L 425.034018 259.338795 
L 427.322134 259.338795 
L 427.439537 260.449157 
L 429.436868 260.449157 
L 429.549124 261.559518 
L 431.266549 261.559518 
L 431.396101 262.66988 
L 432.756271 262.66988 
L 432.881797 263.780241 
L 434.017126 263.780241 
L 434.139341 264.890602 
L 434.846012 264.890602 
L 434.966099 266.000964 
L 435.719619 266.000964 
L 435.837502 267.111325 
L 436.189392 267.111325 
L 436.306107 268.221687 
L 436.731604 268.221687 
L 436.846985 269.332048 
L 437.000389 269.332048 
L 437.115114 270.44241 
L 437.34373 270.44241 
L 437.457623 271.552771 
L 437.552325 271.552771 
L 437.741158 279.325301 
L 437.741158 279.325301 
" clip-path="url(#p881769e8e9)" style="fill: none; stroke: #a52a2a; stroke-width: 3; stroke-linecap: square"/>
   </g>
   <g id="line2d_48">
    <path d="M 69.12 128.316145 
L 101.776852 146.081928 
L 120.879887 161.626988 
L 134.433705 162.737349 
L 144.946863 163.847711 
L 153.536739 168.289157 
L 160.799376 176.061687 
L 167.090557 177.172048 
L 172.639773 178.28241 
L 177.603716 182.723855 
L 186.193592 184.944578 
L 189.964714 188.275663 
L 196.70675 190.496386 
L 199.74741 191.606747 
L 205.296626 196.048193 
L 207.843942 198.268916 
L 210.260568 199.379277 
L 212.559262 199.379277 
L 214.751001 200.489639 
L 216.845296 200.489639 
L 218.850444 201.6 
L 220.773727 201.6 
L 224.39966 203.820723 
L 227.766369 203.820723 
L 230.908458 206.041446 
L 233.854035 206.041446 
L 235.260524 207.151807 
L 236.626239 209.37253 
L 239.24435 209.37253 
L 240.500795 210.482892 
L 241.724601 210.482892 
L 242.917421 212.703614 
L 244.080786 213.813976 
L 246.324728 213.813976 
L 247.407853 214.924337 
L 248.466637 214.924337 
L 249.502148 216.034699 
L 252.478751 216.034699 
L 253.430579 217.14506 
L 254.363558 217.14506 
L 255.278419 219.365783 
L 261.228606 219.365783 
L 262.020455 220.476145 
L 266.510887 220.476145 
L 267.21938 221.586506 
L 271.901203 221.586506 
L 272.533613 222.696867 
L 276.737638 222.696867 
L 277.308722 223.807229 
L 283.172241 223.807229 
L 283.670806 224.91759 
L 287.480061 224.91759 
L 287.935272 226.027952 
L 293.484487 226.027952 
L 293.885459 227.138313 
L 296.60059 227.138313 
L 296.976001 228.248675 
L 298.809458 228.248675 
L 299.16774 229.359036 
L 302.938862 229.359036 
L 303.267183 230.469398 
L 307.93574 230.469398 
L 308.231126 231.579759 
L 312.453102 231.579759 
L 312.721558 232.69012 
L 317.309233 232.69012 
L 317.551464 233.800482 
L 322.151591 233.800482 
L 322.370217 234.910843 
L 325.736926 234.910843 
L 325.939567 236.021205 
L 330.37482 236.021205 
L 330.5585 237.131566 
L 335.26509 237.131566 
L 335.430692 238.241928 
L 339.695158 238.241928 
L 339.845923 239.352289 
L 346.437194 239.352289 
L 346.567884 240.462651 
L 352.907982 240.462651 
L 353.021921 241.573012 
L 356.845538 241.573012 
L 357.054934 242.683373 
L 361.345509 242.683373 
L 361.535868 243.793735 
L 366.490311 243.793735 
L 366.661014 244.904096 
L 372.276447 244.904096 
L 372.427453 246.014458 
L 378.035263 246.014458 
L 378.16892 247.124819 
L 383.166217 247.124819 
L 383.2861 248.235181 
L 388.172153 248.235181 
L 388.333779 249.345542 
L 393.281584 249.345542 
L 393.426624 250.455904 
L 398.240684 250.455904 
L 398.371254 251.566265 
L 403.396006 251.566265 
L 403.513059 252.676627 
L 407.82958 252.676627 
L 407.971596 253.786988 
L 411.946799 253.786988 
L 412.076948 254.897349 
L 415.522021 254.897349 
L 415.642672 256.007711 
L 418.50602 256.007711 
L 418.619275 257.118072 
L 421.790547 257.118072 
L 421.922556 258.228434 
L 424.562751 258.228434 
L 424.687227 259.338795 
L 427.228 259.338795 
L 427.345638 260.449157 
L 429.21155 260.449157 
L 429.324343 261.559518 
L 431.331369 261.559518 
L 431.460744 262.66988 
L 432.923565 262.66988 
L 433.048646 263.780241 
L 434.281526 263.780241 
L 434.403058 264.890602 
L 435.125739 264.890602 
L 435.245116 266.000964 
L 435.974661 266.000964 
L 436.091908 267.111325 
L 436.577322 267.111325 
L 436.693081 268.221687 
L 437.076903 268.221687 
L 437.191443 269.332048 
L 437.28668 269.332048 
L 437.400711 270.44241 
L 437.43866 270.44241 
L 437.552325 271.552771 
L 437.571242 271.552771 
L 437.722309 274.883855 
L 437.741158 274.883855 
L 437.741158 274.883855 
" clip-path="url(#p881769e8e9)" style="fill: none; stroke: #f08080; stroke-width: 3; stroke-linecap: square"/>
   </g>
   <g id="line2d_49">
    <path d="M 69.12 114.991807 
L 101.776852 150.523373 
L 120.879887 154.964819 
L 134.433705 160.516627 
L 144.946863 162.737349 
L 153.536739 164.958072 
L 160.799376 170.50988 
L 167.090557 180.503133 
L 172.639773 181.613494 
L 177.603716 184.944578 
L 182.094148 187.165301 
L 186.193592 189.386024 
L 189.964714 190.496386 
L 193.456228 192.717108 
L 196.70675 192.717108 
L 202.603671 194.937831 
L 207.843942 194.937831 
L 212.559262 197.158554 
L 216.845296 199.379277 
L 220.773727 199.379277 
L 222.621567 201.6 
L 227.766369 204.931084 
L 230.908458 204.931084 
L 235.260524 208.262169 
L 237.953478 208.262169 
L 239.24435 209.37253 
L 242.917421 209.37253 
L 244.080786 210.482892 
L 245.216115 210.482892 
L 246.324728 211.593253 
L 251.507297 211.593253 
L 252.478751 212.703614 
L 254.363558 212.703614 
L 255.278419 213.813976 
L 260.423221 213.813976 
L 261.228606 214.924337 
L 264.319149 214.924337 
L 265.061115 216.034699 
L 268.605182 216.034699 
L 269.283091 217.14506 
L 271.260188 217.14506 
L 271.901203 218.255422 
L 273.157647 218.255422 
L 273.773524 219.365783 
L 276.159546 219.365783 
L 276.737638 220.476145 
L 277.872967 220.476145 
L 278.430534 221.586506 
L 278.98158 221.586506 
L 279.526255 222.696867 
L 282.668345 222.696867 
L 283.172241 223.807229 
L 287.02041 223.807229 
L 287.480061 224.91759 
L 292.260681 224.91759 
L 292.672159 226.027952 
L 294.283047 226.027952 
L 294.677307 227.138313 
L 298.084614 227.138313 
L 298.44843 228.248675 
L 301.939944 228.248675 
L 302.275275 229.359036 
L 304.558055 229.359036 
L 304.875322 230.469398 
L 311.638433 230.469398 
L 311.911557 231.579759 
L 314.300942 231.579759 
L 314.559101 232.69012 
L 319.213083 232.69012 
L 319.445744 233.800482 
L 323.448385 233.800482 
L 323.661089 234.910843 
L 327.919433 234.910843 
L 328.112919 236.021205 
L 333.403976 236.021205 
L 333.576239 237.131566 
L 338.160368 237.131566 
L 338.316117 238.241928 
L 342.33775 238.241928 
L 342.480304 239.352289 
L 348.611083 239.352289 
L 348.735888 240.462651 
L 353.811873 240.462651 
L 354.035162 241.573012 
L 359.991012 241.573012 
L 360.186912 242.683373 
L 364.74838 242.683373 
L 364.9255 243.793735 
L 368.906937 243.793735 
L 369.069119 244.904096 
L 373.397369 244.904096 
L 373.544831 246.014458 
L 377.496813 246.014458 
L 377.632003 247.124819 
L 382.07332 247.124819 
L 382.196013 248.235181 
L 387.465296 248.235181 
L 387.629361 249.345542 
L 391.806081 249.345542 
L 391.955728 250.455904 
L 397.227444 250.455904 
L 397.360848 251.566265 
L 401.847243 251.566265 
L 401.968203 252.676627 
L 406.385363 252.676627 
L 406.531794 253.786988 
L 410.255095 253.786988 
L 410.389995 254.897349 
L 414.049593 254.897349 
L 414.174068 256.007711 
L 417.618943 256.007711 
L 417.734347 257.118072 
L 421.365616 257.118072 
L 421.498819 258.228434 
L 424.337864 258.228434 
L 424.462934 259.338795 
L 426.706876 259.338795 
L 426.82582 260.449157 
L 429.030516 260.449157 
L 429.143744 261.559518 
L 430.897537 261.559518 
L 431.028107 262.66988 
L 432.714355 262.66988 
L 432.839992 263.780241 
L 433.853678 263.780241 
L 433.976317 264.890602 
L 434.926104 264.890602 
L 435.045986 266.000964 
L 435.739287 266.000964 
L 435.857121 267.111325 
L 436.461278 267.111325 
L 436.577322 268.221687 
L 436.846985 268.221687 
L 436.962085 269.332048 
L 437.038661 269.332048 
L 437.153294 270.44241 
L 437.267648 270.44241 
L 437.381725 271.552771 
L 437.495527 271.552771 
L 437.627949 273.773494 
L 437.684588 273.773494 
L 437.741158 278.21494 
L 437.741158 278.21494 
" clip-path="url(#p881769e8e9)" style="fill: none; stroke: #ffe4e1; stroke-width: 3; stroke-linecap: square"/>
   </g>
   <g id="line2d_50">
    <path d="M 69.12 250.455904 
L 437.741158 250.455904 
L 437.741158 250.455904 
" clip-path="url(#p881769e8e9)" style="fill: none; stroke-dasharray: 11.1,4.8; stroke-dashoffset: 0; stroke: #000000; stroke-width: 3"/>
   </g>
   <g id="patch_3">
    <path d="M 69.12 293.76 
L 69.12 17.28 
" style="fill: none; stroke: #000000; stroke-width: 0.8; stroke-linejoin: miter; stroke-linecap: square"/>
   </g>
   <g id="patch_4">
    <path d="M 437.76 293.76 
L 437.76 17.28 
" style="fill: none; stroke: #000000; stroke-width: 0.8; stroke-linejoin: miter; stroke-linecap: square"/>
   </g>
   <g id="patch_5">
    <path d="M 69.12 293.76 
L 437.76 293.76 
" style="fill: none; stroke: #000000; stroke-width: 0.8; stroke-linejoin: miter; stroke-linecap: square"/>
   </g>
   <g id="patch_6">
    <path d="M 69.12 17.28 
L 437.76 17.28 
" style="fill: none; stroke: #000000; stroke-width: 0.8; stroke-linejoin: miter; stroke-linecap: square"/>
   </g>
   <g id="legend_1">
    <g id="patch_7">
     <path d="M 199.62 163.783125 
L 425.16 163.783125 
Q 428.76 163.783125 428.76 160.183125 
L 428.76 29.88 
Q 428.76 26.28 425.16 26.28 
L 199.62 26.28 
Q 196.02 26.28 196.02 29.88 
L 196.02 160.183125 
Q 196.02 163.783125 199.62 163.783125 
z
" style="fill: #008000; opacity: 0.2; stroke: #000000; stroke-linejoin: miter"/>
    </g>
    <g id="line2d_51">
     <path d="M 203.22 40.857188 
L 221.22 40.857188 
L 239.22 40.857188 
" style="fill: none; stroke: #800000; stroke-width: 3; stroke-linecap: square"/>
    </g>
    <g id="text_13">
     <!-- batch 0 -->
     <g transform="translate(253.62 47.157188) scale(0.18 -0.18)">
      <defs>
       <path id="DejaVuSans-61" d="M 2194 1759 
Q 1497 1759 1228 1600 
Q 959 1441 959 1056 
Q 959 750 1161 570 
Q 1363 391 1709 391 
Q 2188 391 2477 730 
Q 2766 1069 2766 1631 
L 2766 1759 
L 2194 1759 
z
M 3341 1997 
L 3341 0 
L 2766 0 
L 2766 531 
Q 2569 213 2275 61 
Q 1981 -91 1556 -91 
Q 1019 -91 701 211 
Q 384 513 384 1019 
Q 384 1609 779 1909 
Q 1175 2209 1959 2209 
L 2766 2209 
L 2766 2266 
Q 2766 2663 2505 2880 
Q 2244 3097 1772 3097 
Q 1472 3097 1187 3025 
Q 903 2953 641 2809 
L 641 3341 
Q 956 3463 1253 3523 
Q 1550 3584 1831 3584 
Q 2591 3584 2966 3190 
Q 3341 2797 3341 1997 
z
" transform="scale(0.015625)"/>
       <path id="DejaVuSans-74" d="M 1172 4494 
L 1172 3500 
L 2356 3500 
L 2356 3053 
L 1172 3053 
L 1172 1153 
Q 1172 725 1289 603 
Q 1406 481 1766 481 
L 2356 481 
L 2356 0 
L 1766 0 
Q 1100 0 847 248 
Q 594 497 594 1153 
L 594 3053 
L 172 3053 
L 172 3500 
L 594 3500 
L 594 4494 
L 1172 4494 
z
" transform="scale(0.015625)"/>
       <path id="DejaVuSans-63" d="M 3122 3366 
L 3122 2828 
Q 2878 2963 2633 3030 
Q 2388 3097 2138 3097 
Q 1578 3097 1268 2742 
Q 959 2388 959 1747 
Q 959 1106 1268 751 
Q 1578 397 2138 397 
Q 2388 397 2633 464 
Q 2878 531 3122 666 
L 3122 134 
Q 2881 22 2623 -34 
Q 2366 -91 2075 -91 
Q 1284 -91 818 406 
Q 353 903 353 1747 
Q 353 2603 823 3093 
Q 1294 3584 2113 3584 
Q 2378 3584 2631 3529 
Q 2884 3475 3122 3366 
z
" transform="scale(0.015625)"/>
       <path id="DejaVuSans-68" d="M 3513 2113 
L 3513 0 
L 2938 0 
L 2938 2094 
Q 2938 2591 2744 2837 
Q 2550 3084 2163 3084 
Q 1697 3084 1428 2787 
Q 1159 2491 1159 1978 
L 1159 0 
L 581 0 
L 581 4863 
L 1159 4863 
L 1159 2956 
Q 1366 3272 1645 3428 
Q 1925 3584 2291 3584 
Q 2894 3584 3203 3211 
Q 3513 2838 3513 2113 
z
" transform="scale(0.015625)"/>
      </defs>
      <use xlink:href="#DejaVuSans-62"/>
      <use xlink:href="#DejaVuSans-61" x="63.476562"/>
      <use xlink:href="#DejaVuSans-74" x="124.755859"/>
      <use xlink:href="#DejaVuSans-63" x="163.964844"/>
      <use xlink:href="#DejaVuSans-68" x="218.945312"/>
      <use xlink:href="#DejaVuSans-20" x="282.324219"/>
      <use xlink:href="#DejaVuSans-30" x="314.111328"/>
     </g>
    </g>
    <g id="line2d_52">
     <path d="M 203.22 67.277813 
L 221.22 67.277813 
L 239.22 67.277813 
" style="fill: none; stroke: #a52a2a; stroke-width: 3; stroke-linecap: square"/>
    </g>
    <g id="text_14">
     <!-- batch 5 -->
     <g transform="translate(253.62 73.577813) scale(0.18 -0.18)">
      <use xlink:href="#DejaVuSans-62"/>
      <use xlink:href="#DejaVuSans-61" x="63.476562"/>
      <use xlink:href="#DejaVuSans-74" x="124.755859"/>
      <use xlink:href="#DejaVuSans-63" x="163.964844"/>
      <use xlink:href="#DejaVuSans-68" x="218.945312"/>
      <use xlink:href="#DejaVuSans-20" x="282.324219"/>
      <use xlink:href="#DejaVuSans-35" x="314.111328"/>
     </g>
    </g>
    <g id="line2d_53">
     <path d="M 203.22 93.698438 
L 221.22 93.698438 
L 239.22 93.698438 
" style="fill: none; stroke: #f08080; stroke-width: 3; stroke-linecap: square"/>
    </g>
    <g id="text_15">
     <!-- batch 10 -->
     <g transform="translate(253.62 99.998438) scale(0.18 -0.18)">
      <use xlink:href="#DejaVuSans-62"/>
      <use xlink:href="#DejaVuSans-61" x="63.476562"/>
      <use xlink:href="#DejaVuSans-74" x="124.755859"/>
      <use xlink:href="#DejaVuSans-63" x="163.964844"/>
      <use xlink:href="#DejaVuSans-68" x="218.945312"/>
      <use xlink:href="#DejaVuSans-20" x="282.324219"/>
      <use xlink:href="#DejaVuSans-31" x="314.111328"/>
      <use xlink:href="#DejaVuSans-30" x="377.734375"/>
     </g>
    </g>
    <g id="line2d_54">
     <path d="M 203.22 120.119063 
L 221.22 120.119063 
L 239.22 120.119063 
" style="fill: none; stroke: #ffe4e1; stroke-width: 3; stroke-linecap: square"/>
    </g>
    <g id="text_16">
     <!-- batch 49 -->
     <g transform="translate(253.62 126.419063) scale(0.18 -0.18)">
      <defs>
       <path id="DejaVuSans-39" d="M 703 97 
L 703 672 
Q 941 559 1184 500 
Q 1428 441 1663 441 
Q 2288 441 2617 861 
Q 2947 1281 2994 2138 
Q 2813 1869 2534 1725 
Q 2256 1581 1919 1581 
Q 1219 1581 811 2004 
Q 403 2428 403 3163 
Q 403 3881 828 4315 
Q 1253 4750 1959 4750 
Q 2769 4750 3195 4129 
Q 3622 3509 3622 2328 
Q 3622 1225 3098 567 
Q 2575 -91 1691 -91 
Q 1453 -91 1209 -44 
Q 966 3 703 97 
z
M 1959 2075 
Q 2384 2075 2632 2365 
Q 2881 2656 2881 3163 
Q 2881 3666 2632 3958 
Q 2384 4250 1959 4250 
Q 1534 4250 1286 3958 
Q 1038 3666 1038 3163 
Q 1038 2656 1286 2365 
Q 1534 2075 1959 2075 
z
" transform="scale(0.015625)"/>
      </defs>
      <use xlink:href="#DejaVuSans-62"/>
      <use xlink:href="#DejaVuSans-61" x="63.476562"/>
      <use xlink:href="#DejaVuSans-74" x="124.755859"/>
      <use xlink:href="#DejaVuSans-63" x="163.964844"/>
      <use xlink:href="#DejaVuSans-68" x="218.945312"/>
      <use xlink:href="#DejaVuSans-20" x="282.324219"/>
      <use xlink:href="#DejaVuSans-34" x="314.111328"/>
      <use xlink:href="#DejaVuSans-39" x="377.734375"/>
     </g>
    </g>
    <g id="line2d_55">
     <path d="M 203.22 146.539688 
L 221.22 146.539688 
L 239.22 146.539688 
" style="fill: none; stroke-dasharray: 11.1,4.8; stroke-dashoffset: 0; stroke: #000000; stroke-width: 3"/>
    </g>
    <g id="text_17">
     <!-- perfectly balanced -->
     <g transform="translate(253.62 152.839688) scale(0.18 -0.18)">
      <defs>
       <path id="DejaVuSans-70" d="M 1159 525 
L 1159 -1331 
L 581 -1331 
L 581 3500 
L 1159 3500 
L 1159 2969 
Q 1341 3281 1617 3432 
Q 1894 3584 2278 3584 
Q 2916 3584 3314 3078 
Q 3713 2572 3713 1747 
Q 3713 922 3314 415 
Q 2916 -91 2278 -91 
Q 1894 -91 1617 61 
Q 1341 213 1159 525 
z
M 3116 1747 
Q 3116 2381 2855 2742 
Q 2594 3103 2138 3103 
Q 1681 3103 1420 2742 
Q 1159 2381 1159 1747 
Q 1159 1113 1420 752 
Q 1681 391 2138 391 
Q 2594 391 2855 752 
Q 3116 1113 3116 1747 
z
" transform="scale(0.015625)"/>
       <path id="DejaVuSans-6c" d="M 603 4863 
L 1178 4863 
L 1178 0 
L 603 0 
L 603 4863 
z
" transform="scale(0.015625)"/>
       <path id="DejaVuSans-79" d="M 2059 -325 
Q 1816 -950 1584 -1140 
Q 1353 -1331 966 -1331 
L 506 -1331 
L 506 -850 
L 844 -850 
Q 1081 -850 1212 -737 
Q 1344 -625 1503 -206 
L 1606 56 
L 191 3500 
L 800 3500 
L 1894 763 
L 2988 3500 
L 3597 3500 
L 2059 -325 
z
" transform="scale(0.015625)"/>
      </defs>
      <use xlink:href="#DejaVuSans-70"/>
      <use xlink:href="#DejaVuSans-65" x="63.476562"/>
      <use xlink:href="#DejaVuSans-72" x="125"/>
      <use xlink:href="#DejaVuSans-66" x="166.113281"/>
      <use xlink:href="#DejaVuSans-65" x="201.318359"/>
      <use xlink:href="#DejaVuSans-63" x="262.841797"/>
      <use xlink:href="#DejaVuSans-74" x="317.822266"/>
      <use xlink:href="#DejaVuSans-6c" x="357.03125"/>
      <use xlink:href="#DejaVuSans-79" x="384.814453"/>
      <use xlink:href="#DejaVuSans-20" x="443.994141"/>
      <use xlink:href="#DejaVuSans-62" x="475.78125"/>
      <use xlink:href="#DejaVuSans-61" x="539.257812"/>
      <use xlink:href="#DejaVuSans-6c" x="600.537109"/>
      <use xlink:href="#DejaVuSans-61" x="628.320312"/>
      <use xlink:href="#DejaVuSans-6e" x="689.599609"/>
      <use xlink:href="#DejaVuSans-63" x="752.978516"/>
      <use xlink:href="#DejaVuSans-65" x="807.958984"/>
      <use xlink:href="#DejaVuSans-64" x="869.482422"/>
     </g>
    </g>
   </g>
  </g>
 </g>
 <defs>
  <clipPath id="p881769e8e9">
   <rect x="69.12" y="17.28" width="368.64" height="276.48"/>
  </clipPath>
 </defs>
</svg>
