<?xml version="1.0" encoding="utf-8" standalone="no"?>
<!DOCTYPE svg PUBLIC "-//W3C//DTD SVG 1.1//EN"
  "http://www.w3.org/Graphics/SVG/1.1/DTD/svg11.dtd">
<svg xmlns:xlink="http://www.w3.org/1999/xlink" width="460.8pt" height="345.6pt" viewBox="0 0 460.8 345.6" xmlns="http://www.w3.org/2000/svg" version="1.1">
 <metadata>
  <rdf:RDF xmlns:dc="http://purl.org/dc/elements/1.1/" xmlns:cc="http://creativecommons.org/ns#" xmlns:rdf="http://www.w3.org/1999/02/22-rdf-syntax-ns#">
   <cc:Work>
    <dc:type rdf:resource="http://purl.org/dc/dcmitype/StillImage"/>
    <dc:date>2024-02-14T15:40:33.848158</dc:date>
    <dc:format>image/svg+xml</dc:format>
    <dc:creator>
     <cc:Agent>
      <dc:title>Matplotlib v3.7.0, https://matplotlib.org/</dc:title>
     </cc:Agent>
    </dc:creator>
   </cc:Work>
  </rdf:RDF>
 </metadata>
 <defs>
  <style type="text/css">*{stroke-linejoin: round; stroke-linecap: butt}</style>
 </defs>
 <g id="figure_1">
  <g id="patch_1">
   <path d="M 0 345.6 
L 460.8 345.6 
L 460.8 0 
L 0 0 
L 0 345.6 
z
" style="fill: none"/>
  </g>
  <g id="axes_1">
   <g id="patch_2">
    <path d="M 57.6 307.584 
L 414.72 307.584 
L 414.72 41.472 
L 57.6 41.472 
L 57.6 307.584 
z
" style="fill: none"/>
   </g>
   <g id="matplotlib.axis_1">
    <g id="xtick_1">
     <g id="line2d_1">
      <path d="M 128.809299 307.584 
L 128.809299 41.472 
" clip-path="url(#p2940d992ab)" style="fill: none; stroke: #b0b0b0; stroke-width: 0.8; stroke-linecap: square"/>
     </g>
     <g id="line2d_2">
      <defs>
       <path id="md87741d68c" d="M 0 0 
L 0 3.5 
" style="stroke: #000000; stroke-width: 0.8"/>
      </defs>
      <g>
       <use xlink:href="#md87741d68c" x="128.809299" y="307.584" style="stroke: #000000; stroke-width: 0.8"/>
      </g>
     </g>
     <g id="text_1">
      <!-- 100 -->
      <g transform="translate(121.309299 321.52775) scale(0.1 -0.1)">
       <defs>
        <path id="TimesNewRomanPSMT-31" d="M 750 3822 
L 1781 4325 
L 1884 4325 
L 1884 747 
Q 1884 391 1914 303 
Q 1944 216 2037 169 
Q 2131 122 2419 116 
L 2419 0 
L 825 0 
L 825 116 
Q 1125 122 1212 167 
Q 1300 213 1334 289 
Q 1369 366 1369 747 
L 1369 3034 
Q 1369 3497 1338 3628 
Q 1316 3728 1258 3775 
Q 1200 3822 1119 3822 
Q 1003 3822 797 3725 
L 750 3822 
z
" transform="scale(0.015625)"/>
        <path id="TimesNewRomanPSMT-30" d="M 231 2094 
Q 231 2819 450 3342 
Q 669 3866 1031 4122 
Q 1313 4325 1613 4325 
Q 2100 4325 2488 3828 
Q 2972 3213 2972 2159 
Q 2972 1422 2759 906 
Q 2547 391 2217 158 
Q 1888 -75 1581 -75 
Q 975 -75 572 641 
Q 231 1244 231 2094 
z
M 844 2016 
Q 844 1141 1059 588 
Q 1238 122 1591 122 
Q 1759 122 1940 273 
Q 2122 425 2216 781 
Q 2359 1319 2359 2297 
Q 2359 3022 2209 3506 
Q 2097 3866 1919 4016 
Q 1791 4119 1609 4119 
Q 1397 4119 1231 3928 
Q 1006 3669 925 3112 
Q 844 2556 844 2016 
z
" transform="scale(0.015625)"/>
       </defs>
       <use xlink:href="#TimesNewRomanPSMT-31"/>
       <use xlink:href="#TimesNewRomanPSMT-30" x="50"/>
       <use xlink:href="#TimesNewRomanPSMT-30" x="100"/>
      </g>
     </g>
    </g>
    <g id="xtick_2">
     <g id="line2d_3">
      <path d="M 200.376433 307.584 
L 200.376433 41.472 
" clip-path="url(#p2940d992ab)" style="fill: none; stroke: #b0b0b0; stroke-width: 0.8; stroke-linecap: square"/>
     </g>
     <g id="line2d_4">
      <g>
       <use xlink:href="#md87741d68c" x="200.376433" y="307.584" style="stroke: #000000; stroke-width: 0.8"/>
      </g>
     </g>
     <g id="text_2">
      <!-- 200 -->
      <g transform="translate(192.876433 321.52775) scale(0.1 -0.1)">
       <defs>
        <path id="TimesNewRomanPSMT-32" d="M 2934 816 
L 2638 0 
L 138 0 
L 138 116 
Q 1241 1122 1691 1759 
Q 2141 2397 2141 2925 
Q 2141 3328 1894 3587 
Q 1647 3847 1303 3847 
Q 991 3847 742 3664 
Q 494 3481 375 3128 
L 259 3128 
Q 338 3706 661 4015 
Q 984 4325 1469 4325 
Q 1984 4325 2329 3994 
Q 2675 3663 2675 3213 
Q 2675 2891 2525 2569 
Q 2294 2063 1775 1497 
Q 997 647 803 472 
L 1909 472 
Q 2247 472 2383 497 
Q 2519 522 2628 598 
Q 2738 675 2819 816 
L 2934 816 
z
" transform="scale(0.015625)"/>
       </defs>
       <use xlink:href="#TimesNewRomanPSMT-32"/>
       <use xlink:href="#TimesNewRomanPSMT-30" x="50"/>
       <use xlink:href="#TimesNewRomanPSMT-30" x="100"/>
      </g>
     </g>
    </g>
    <g id="xtick_3">
     <g id="line2d_5">
      <path d="M 271.943567 307.584 
L 271.943567 41.472 
" clip-path="url(#p2940d992ab)" style="fill: none; stroke: #b0b0b0; stroke-width: 0.8; stroke-linecap: square"/>
     </g>
     <g id="line2d_6">
      <g>
       <use xlink:href="#md87741d68c" x="271.943567" y="307.584" style="stroke: #000000; stroke-width: 0.8"/>
      </g>
     </g>
     <g id="text_3">
      <!-- 300 -->
      <g transform="translate(264.443567 321.52775) scale(0.1 -0.1)">
       <defs>
        <path id="TimesNewRomanPSMT-33" d="M 325 3431 
Q 506 3859 782 4092 
Q 1059 4325 1472 4325 
Q 1981 4325 2253 3994 
Q 2459 3747 2459 3466 
Q 2459 3003 1878 2509 
Q 2269 2356 2469 2072 
Q 2669 1788 2669 1403 
Q 2669 853 2319 450 
Q 1863 -75 997 -75 
Q 569 -75 414 31 
Q 259 138 259 259 
Q 259 350 332 419 
Q 406 488 509 488 
Q 588 488 669 463 
Q 722 447 909 348 
Q 1097 250 1169 231 
Q 1284 197 1416 197 
Q 1734 197 1970 444 
Q 2206 691 2206 1028 
Q 2206 1275 2097 1509 
Q 2016 1684 1919 1775 
Q 1784 1900 1550 2001 
Q 1316 2103 1072 2103 
L 972 2103 
L 972 2197 
Q 1219 2228 1467 2375 
Q 1716 2522 1828 2728 
Q 1941 2934 1941 3181 
Q 1941 3503 1739 3701 
Q 1538 3900 1238 3900 
Q 753 3900 428 3381 
L 325 3431 
z
" transform="scale(0.015625)"/>
       </defs>
       <use xlink:href="#TimesNewRomanPSMT-33"/>
       <use xlink:href="#TimesNewRomanPSMT-30" x="50"/>
       <use xlink:href="#TimesNewRomanPSMT-30" x="100"/>
      </g>
     </g>
    </g>
    <g id="xtick_4">
     <g id="line2d_7">
      <path d="M 343.510701 307.584 
L 343.510701 41.472 
" clip-path="url(#p2940d992ab)" style="fill: none; stroke: #b0b0b0; stroke-width: 0.8; stroke-linecap: square"/>
     </g>
     <g id="line2d_8">
      <g>
       <use xlink:href="#md87741d68c" x="343.510701" y="307.584" style="stroke: #000000; stroke-width: 0.8"/>
      </g>
     </g>
     <g id="text_4">
      <!-- 400 -->
      <g transform="translate(336.010701 321.52775) scale(0.1 -0.1)">
       <defs>
        <path id="TimesNewRomanPSMT-34" d="M 2978 1563 
L 2978 1119 
L 2409 1119 
L 2409 0 
L 1894 0 
L 1894 1119 
L 100 1119 
L 100 1519 
L 2066 4325 
L 2409 4325 
L 2409 1563 
L 2978 1563 
z
M 1894 1563 
L 1894 3666 
L 406 1563 
L 1894 1563 
z
" transform="scale(0.015625)"/>
       </defs>
       <use xlink:href="#TimesNewRomanPSMT-34"/>
       <use xlink:href="#TimesNewRomanPSMT-30" x="50"/>
       <use xlink:href="#TimesNewRomanPSMT-30" x="100"/>
      </g>
     </g>
    </g>
    <g id="text_5">
     <!-- batch iteration -->
     <g transform="translate(184.431094 340.165562) scale(0.18 -0.18)">
      <defs>
       <path id="TimesNewRomanPSMT-62" d="M 984 2369 
Q 1400 2947 1881 2947 
Q 2322 2947 2650 2570 
Q 2978 2194 2978 1541 
Q 2978 778 2472 313 
Q 2038 -88 1503 -88 
Q 1253 -88 995 3 
Q 738 94 469 275 
L 469 3241 
Q 469 3728 445 3840 
Q 422 3953 372 3993 
Q 322 4034 247 4034 
Q 159 4034 28 3984 
L -16 4094 
L 844 4444 
L 984 4444 
L 984 2369 
z
M 984 2169 
L 984 456 
Q 1144 300 1314 220 
Q 1484 141 1663 141 
Q 1947 141 2192 453 
Q 2438 766 2438 1363 
Q 2438 1913 2192 2208 
Q 1947 2503 1634 2503 
Q 1469 2503 1303 2419 
Q 1178 2356 984 2169 
z
" transform="scale(0.015625)"/>
       <path id="TimesNewRomanPSMT-61" d="M 1822 413 
Q 1381 72 1269 19 
Q 1100 -59 909 -59 
Q 613 -59 420 144 
Q 228 347 228 678 
Q 228 888 322 1041 
Q 450 1253 767 1440 
Q 1084 1628 1822 1897 
L 1822 2009 
Q 1822 2438 1686 2597 
Q 1550 2756 1291 2756 
Q 1094 2756 978 2650 
Q 859 2544 859 2406 
L 866 2225 
Q 866 2081 792 2003 
Q 719 1925 600 1925 
Q 484 1925 411 2006 
Q 338 2088 338 2228 
Q 338 2497 613 2722 
Q 888 2947 1384 2947 
Q 1766 2947 2009 2819 
Q 2194 2722 2281 2516 
Q 2338 2381 2338 1966 
L 2338 994 
Q 2338 584 2353 492 
Q 2369 400 2405 369 
Q 2441 338 2488 338 
Q 2538 338 2575 359 
Q 2641 400 2828 588 
L 2828 413 
Q 2478 -56 2159 -56 
Q 2006 -56 1915 50 
Q 1825 156 1822 413 
z
M 1822 616 
L 1822 1706 
Q 1350 1519 1213 1441 
Q 966 1303 859 1153 
Q 753 1003 753 825 
Q 753 600 887 451 
Q 1022 303 1197 303 
Q 1434 303 1822 616 
z
" transform="scale(0.015625)"/>
       <path id="TimesNewRomanPSMT-74" d="M 1031 3803 
L 1031 2863 
L 1700 2863 
L 1700 2644 
L 1031 2644 
L 1031 788 
Q 1031 509 1111 412 
Q 1191 316 1316 316 
Q 1419 316 1516 380 
Q 1613 444 1666 569 
L 1788 569 
Q 1678 263 1478 108 
Q 1278 -47 1066 -47 
Q 922 -47 784 33 
Q 647 113 581 261 
Q 516 409 516 719 
L 516 2644 
L 63 2644 
L 63 2747 
Q 234 2816 414 2980 
Q 594 3144 734 3369 
Q 806 3488 934 3803 
L 1031 3803 
z
" transform="scale(0.015625)"/>
       <path id="TimesNewRomanPSMT-63" d="M 2631 1088 
Q 2516 522 2178 217 
Q 1841 -88 1431 -88 
Q 944 -88 581 321 
Q 219 731 219 1428 
Q 219 2103 620 2525 
Q 1022 2947 1584 2947 
Q 2006 2947 2278 2723 
Q 2550 2500 2550 2259 
Q 2550 2141 2473 2067 
Q 2397 1994 2259 1994 
Q 2075 1994 1981 2113 
Q 1928 2178 1911 2362 
Q 1894 2547 1784 2644 
Q 1675 2738 1481 2738 
Q 1169 2738 978 2506 
Q 725 2200 725 1697 
Q 725 1184 976 792 
Q 1228 400 1656 400 
Q 1963 400 2206 609 
Q 2378 753 2541 1131 
L 2631 1088 
z
" transform="scale(0.015625)"/>
       <path id="TimesNewRomanPSMT-68" d="M 1041 4444 
L 1041 2350 
Q 1388 2731 1591 2839 
Q 1794 2947 1997 2947 
Q 2241 2947 2416 2812 
Q 2591 2678 2675 2391 
Q 2734 2191 2734 1659 
L 2734 647 
Q 2734 375 2778 275 
Q 2809 200 2884 156 
Q 2959 113 3159 113 
L 3159 0 
L 1753 0 
L 1753 113 
L 1819 113 
Q 2019 113 2097 173 
Q 2175 234 2206 353 
Q 2216 403 2216 647 
L 2216 1659 
Q 2216 2128 2167 2275 
Q 2119 2422 2012 2495 
Q 1906 2569 1756 2569 
Q 1603 2569 1437 2487 
Q 1272 2406 1041 2159 
L 1041 647 
Q 1041 353 1073 281 
Q 1106 209 1195 161 
Q 1284 113 1503 113 
L 1503 0 
L 84 0 
L 84 113 
Q 275 113 384 172 
Q 447 203 484 290 
Q 522 378 522 647 
L 522 3238 
Q 522 3728 498 3840 
Q 475 3953 426 3993 
Q 378 4034 297 4034 
Q 231 4034 84 3984 
L 41 4094 
L 897 4444 
L 1041 4444 
z
" transform="scale(0.015625)"/>
       <path id="TimesNewRomanPSMT-20" transform="scale(0.015625)"/>
       <path id="TimesNewRomanPSMT-69" d="M 928 4444 
Q 1059 4444 1151 4351 
Q 1244 4259 1244 4128 
Q 1244 3997 1151 3903 
Q 1059 3809 928 3809 
Q 797 3809 703 3903 
Q 609 3997 609 4128 
Q 609 4259 701 4351 
Q 794 4444 928 4444 
z
M 1188 2947 
L 1188 647 
Q 1188 378 1227 289 
Q 1266 200 1342 156 
Q 1419 113 1622 113 
L 1622 0 
L 231 0 
L 231 113 
Q 441 113 512 153 
Q 584 194 626 287 
Q 669 381 669 647 
L 669 1750 
Q 669 2216 641 2353 
Q 619 2453 572 2492 
Q 525 2531 444 2531 
Q 356 2531 231 2484 
L 188 2597 
L 1050 2947 
L 1188 2947 
z
" transform="scale(0.015625)"/>
       <path id="TimesNewRomanPSMT-65" d="M 681 1784 
Q 678 1147 991 784 
Q 1303 422 1725 422 
Q 2006 422 2214 576 
Q 2422 731 2563 1106 
L 2659 1044 
Q 2594 616 2278 264 
Q 1963 -88 1488 -88 
Q 972 -88 605 314 
Q 238 716 238 1394 
Q 238 2128 614 2539 
Q 991 2950 1559 2950 
Q 2041 2950 2350 2633 
Q 2659 2316 2659 1784 
L 681 1784 
z
M 681 1966 
L 2006 1966 
Q 1991 2241 1941 2353 
Q 1863 2528 1708 2628 
Q 1553 2728 1384 2728 
Q 1125 2728 920 2526 
Q 716 2325 681 1966 
z
" transform="scale(0.015625)"/>
       <path id="TimesNewRomanPSMT-72" d="M 1038 2947 
L 1038 2303 
Q 1397 2947 1775 2947 
Q 1947 2947 2059 2842 
Q 2172 2738 2172 2600 
Q 2172 2478 2090 2393 
Q 2009 2309 1897 2309 
Q 1788 2309 1652 2417 
Q 1516 2525 1450 2525 
Q 1394 2525 1328 2463 
Q 1188 2334 1038 2041 
L 1038 669 
Q 1038 431 1097 309 
Q 1138 225 1241 169 
Q 1344 113 1538 113 
L 1538 0 
L 72 0 
L 72 113 
Q 291 113 397 181 
Q 475 231 506 341 
Q 522 394 522 644 
L 522 1753 
Q 522 2253 501 2348 
Q 481 2444 426 2487 
Q 372 2531 291 2531 
Q 194 2531 72 2484 
L 41 2597 
L 906 2947 
L 1038 2947 
z
" transform="scale(0.015625)"/>
       <path id="TimesNewRomanPSMT-6f" d="M 1600 2947 
Q 2250 2947 2644 2453 
Q 2978 2031 2978 1484 
Q 2978 1100 2793 706 
Q 2609 313 2286 112 
Q 1963 -88 1566 -88 
Q 919 -88 538 428 
Q 216 863 216 1403 
Q 216 1797 411 2186 
Q 606 2575 925 2761 
Q 1244 2947 1600 2947 
z
M 1503 2744 
Q 1338 2744 1170 2645 
Q 1003 2547 900 2300 
Q 797 2053 797 1666 
Q 797 1041 1045 587 
Q 1294 134 1700 134 
Q 2003 134 2200 384 
Q 2397 634 2397 1244 
Q 2397 2006 2069 2444 
Q 1847 2744 1503 2744 
z
" transform="scale(0.015625)"/>
       <path id="TimesNewRomanPSMT-6e" d="M 1034 2341 
Q 1538 2947 1994 2947 
Q 2228 2947 2397 2830 
Q 2566 2713 2666 2444 
Q 2734 2256 2734 1869 
L 2734 647 
Q 2734 375 2778 278 
Q 2813 200 2889 156 
Q 2966 113 3172 113 
L 3172 0 
L 1756 0 
L 1756 113 
L 1816 113 
Q 2016 113 2095 173 
Q 2175 234 2206 353 
Q 2219 400 2219 647 
L 2219 1819 
Q 2219 2209 2117 2386 
Q 2016 2563 1775 2563 
Q 1403 2563 1034 2156 
L 1034 647 
Q 1034 356 1069 288 
Q 1113 197 1189 155 
Q 1266 113 1500 113 
L 1500 0 
L 84 0 
L 84 113 
L 147 113 
Q 366 113 442 223 
Q 519 334 519 647 
L 519 1709 
Q 519 2225 495 2337 
Q 472 2450 423 2490 
Q 375 2531 294 2531 
Q 206 2531 84 2484 
L 38 2597 
L 900 2947 
L 1034 2947 
L 1034 2341 
z
" transform="scale(0.015625)"/>
      </defs>
      <use xlink:href="#TimesNewRomanPSMT-62"/>
      <use xlink:href="#TimesNewRomanPSMT-61" x="50"/>
      <use xlink:href="#TimesNewRomanPSMT-74" x="94.384766"/>
      <use xlink:href="#TimesNewRomanPSMT-63" x="122.167969"/>
      <use xlink:href="#TimesNewRomanPSMT-68" x="166.552734"/>
      <use xlink:href="#TimesNewRomanPSMT-20" x="216.552734"/>
      <use xlink:href="#TimesNewRomanPSMT-69" x="241.552734"/>
      <use xlink:href="#TimesNewRomanPSMT-74" x="269.335938"/>
      <use xlink:href="#TimesNewRomanPSMT-65" x="297.119141"/>
      <use xlink:href="#TimesNewRomanPSMT-72" x="341.503906"/>
      <use xlink:href="#TimesNewRomanPSMT-61" x="374.804688"/>
      <use xlink:href="#TimesNewRomanPSMT-74" x="419.189453"/>
      <use xlink:href="#TimesNewRomanPSMT-69" x="446.972656"/>
      <use xlink:href="#TimesNewRomanPSMT-6f" x="474.755859"/>
      <use xlink:href="#TimesNewRomanPSMT-6e" x="524.755859"/>
     </g>
    </g>
   </g>
   <g id="matplotlib.axis_2">
    <g id="ytick_1">
     <g id="line2d_9">
      <path d="M 57.6 307.584 
L 414.72 307.584 
" clip-path="url(#p2940d992ab)" style="fill: none; stroke: #b0b0b0; stroke-width: 0.8; stroke-linecap: square"/>
     </g>
     <g id="line2d_10">
      <defs>
       <path id="m3e4975a19c" d="M 0 0 
L -3.5 0 
" style="stroke: #000000; stroke-width: 0.8"/>
      </defs>
      <g>
       <use xlink:href="#m3e4975a19c" x="57.6" y="307.584" style="stroke: #000000; stroke-width: 0.8"/>
      </g>
     </g>
     <g id="text_6">
      <!-- 0 -->
      <g transform="translate(45.6 311.055875) scale(0.1 -0.1)">
       <use xlink:href="#TimesNewRomanPSMT-30"/>
      </g>
     </g>
    </g>
    <g id="ytick_2">
     <g id="line2d_11">
      <path d="M 57.6 251.382944 
L 414.72 251.382944 
" clip-path="url(#p2940d992ab)" style="fill: none; stroke: #b0b0b0; stroke-width: 0.8; stroke-linecap: square"/>
     </g>
     <g id="line2d_12">
      <g>
       <use xlink:href="#m3e4975a19c" x="57.6" y="251.382944" style="stroke: #000000; stroke-width: 0.8"/>
      </g>
     </g>
     <g id="text_7">
      <!-- 20 -->
      <g transform="translate(40.6 254.854819) scale(0.1 -0.1)">
       <use xlink:href="#TimesNewRomanPSMT-32"/>
       <use xlink:href="#TimesNewRomanPSMT-30" x="50"/>
      </g>
     </g>
    </g>
    <g id="ytick_3">
     <g id="line2d_13">
      <path d="M 57.6 195.181888 
L 414.72 195.181888 
" clip-path="url(#p2940d992ab)" style="fill: none; stroke: #b0b0b0; stroke-width: 0.8; stroke-linecap: square"/>
     </g>
     <g id="line2d_14">
      <g>
       <use xlink:href="#m3e4975a19c" x="57.6" y="195.181888" style="stroke: #000000; stroke-width: 0.8"/>
      </g>
     </g>
     <g id="text_8">
      <!-- 40 -->
      <g transform="translate(40.6 198.653763) scale(0.1 -0.1)">
       <use xlink:href="#TimesNewRomanPSMT-34"/>
       <use xlink:href="#TimesNewRomanPSMT-30" x="50"/>
      </g>
     </g>
    </g>
    <g id="ytick_4">
     <g id="line2d_15">
      <path d="M 57.6 138.980832 
L 414.72 138.980832 
" clip-path="url(#p2940d992ab)" style="fill: none; stroke: #b0b0b0; stroke-width: 0.8; stroke-linecap: square"/>
     </g>
     <g id="line2d_16">
      <g>
       <use xlink:href="#m3e4975a19c" x="57.6" y="138.980832" style="stroke: #000000; stroke-width: 0.8"/>
      </g>
     </g>
     <g id="text_9">
      <!-- 60 -->
      <g transform="translate(40.6 142.452707) scale(0.1 -0.1)">
       <defs>
        <path id="TimesNewRomanPSMT-36" d="M 2869 4325 
L 2869 4209 
Q 2456 4169 2195 4045 
Q 1934 3922 1679 3669 
Q 1425 3416 1258 3105 
Q 1091 2794 978 2366 
Q 1428 2675 1881 2675 
Q 2316 2675 2634 2325 
Q 2953 1975 2953 1425 
Q 2953 894 2631 456 
Q 2244 -75 1606 -75 
Q 1172 -75 869 213 
Q 275 772 275 1663 
Q 275 2231 503 2743 
Q 731 3256 1154 3653 
Q 1578 4050 1965 4187 
Q 2353 4325 2688 4325 
L 2869 4325 
z
M 925 2138 
Q 869 1716 869 1456 
Q 869 1156 980 804 
Q 1091 453 1309 247 
Q 1469 100 1697 100 
Q 1969 100 2183 356 
Q 2397 613 2397 1088 
Q 2397 1622 2184 2012 
Q 1972 2403 1581 2403 
Q 1463 2403 1327 2353 
Q 1191 2303 925 2138 
z
" transform="scale(0.015625)"/>
       </defs>
       <use xlink:href="#TimesNewRomanPSMT-36"/>
       <use xlink:href="#TimesNewRomanPSMT-30" x="50"/>
      </g>
     </g>
    </g>
    <g id="ytick_5">
     <g id="line2d_17">
      <path d="M 57.6 82.779776 
L 414.72 82.779776 
" clip-path="url(#p2940d992ab)" style="fill: none; stroke: #b0b0b0; stroke-width: 0.8; stroke-linecap: square"/>
     </g>
     <g id="line2d_18">
      <g>
       <use xlink:href="#m3e4975a19c" x="57.6" y="82.779776" style="stroke: #000000; stroke-width: 0.8"/>
      </g>
     </g>
     <g id="text_10">
      <!-- 80 -->
      <g transform="translate(40.6 86.251651) scale(0.1 -0.1)">
       <defs>
        <path id="TimesNewRomanPSMT-38" d="M 1228 2134 
Q 725 2547 579 2797 
Q 434 3047 434 3316 
Q 434 3728 753 4026 
Q 1072 4325 1600 4325 
Q 2113 4325 2425 4047 
Q 2738 3769 2738 3413 
Q 2738 3175 2569 2928 
Q 2400 2681 1866 2347 
Q 2416 1922 2594 1678 
Q 2831 1359 2831 1006 
Q 2831 559 2490 242 
Q 2150 -75 1597 -75 
Q 994 -75 656 303 
Q 388 606 388 966 
Q 388 1247 577 1523 
Q 766 1800 1228 2134 
z
M 1719 2469 
Q 2094 2806 2194 3001 
Q 2294 3197 2294 3444 
Q 2294 3772 2109 3958 
Q 1925 4144 1606 4144 
Q 1288 4144 1088 3959 
Q 888 3775 888 3528 
Q 888 3366 970 3203 
Q 1053 3041 1206 2894 
L 1719 2469 
z
M 1375 2016 
Q 1116 1797 991 1539 
Q 866 1281 866 981 
Q 866 578 1086 336 
Q 1306 94 1647 94 
Q 1984 94 2187 284 
Q 2391 475 2391 747 
Q 2391 972 2272 1150 
Q 2050 1481 1375 2016 
z
" transform="scale(0.015625)"/>
       </defs>
       <use xlink:href="#TimesNewRomanPSMT-38"/>
       <use xlink:href="#TimesNewRomanPSMT-30" x="50"/>
      </g>
     </g>
    </g>
    <g id="text_11">
     <!-- max # of queries for a DPU -->
     <g transform="translate(32.749687 274.003312) rotate(-90) scale(0.18 -0.18)">
      <defs>
       <path id="TimesNewRomanPSMT-6d" d="M 1050 2338 
Q 1363 2650 1419 2697 
Q 1559 2816 1721 2881 
Q 1884 2947 2044 2947 
Q 2313 2947 2506 2790 
Q 2700 2634 2766 2338 
Q 3088 2713 3309 2830 
Q 3531 2947 3766 2947 
Q 3994 2947 4170 2830 
Q 4347 2713 4450 2447 
Q 4519 2266 4519 1878 
L 4519 647 
Q 4519 378 4559 278 
Q 4591 209 4675 161 
Q 4759 113 4950 113 
L 4950 0 
L 3538 0 
L 3538 113 
L 3597 113 
Q 3781 113 3884 184 
Q 3956 234 3988 344 
Q 4000 397 4000 647 
L 4000 1878 
Q 4000 2228 3916 2372 
Q 3794 2572 3525 2572 
Q 3359 2572 3192 2489 
Q 3025 2406 2788 2181 
L 2781 2147 
L 2788 2013 
L 2788 647 
Q 2788 353 2820 281 
Q 2853 209 2943 161 
Q 3034 113 3253 113 
L 3253 0 
L 1806 0 
L 1806 113 
Q 2044 113 2133 169 
Q 2222 225 2256 338 
Q 2272 391 2272 647 
L 2272 1878 
Q 2272 2228 2169 2381 
Q 2031 2581 1784 2581 
Q 1616 2581 1450 2491 
Q 1191 2353 1050 2181 
L 1050 647 
Q 1050 366 1089 281 
Q 1128 197 1204 155 
Q 1281 113 1516 113 
L 1516 0 
L 100 0 
L 100 113 
Q 297 113 375 155 
Q 453 197 493 289 
Q 534 381 534 647 
L 534 1741 
Q 534 2213 506 2350 
Q 484 2453 437 2492 
Q 391 2531 309 2531 
Q 222 2531 100 2484 
L 53 2597 
L 916 2947 
L 1050 2947 
L 1050 2338 
z
" transform="scale(0.015625)"/>
       <path id="TimesNewRomanPSMT-78" d="M 84 2863 
L 1431 2863 
L 1431 2747 
Q 1303 2747 1251 2703 
Q 1200 2659 1200 2588 
Q 1200 2513 1309 2356 
Q 1344 2306 1413 2200 
L 1616 1875 
L 1850 2200 
Q 2075 2509 2075 2591 
Q 2075 2656 2022 2701 
Q 1969 2747 1850 2747 
L 1850 2863 
L 2819 2863 
L 2819 2747 
Q 2666 2738 2553 2663 
Q 2400 2556 2134 2200 
L 1744 1678 
L 2456 653 
Q 2719 275 2831 198 
Q 2944 122 3122 113 
L 3122 0 
L 1772 0 
L 1772 113 
Q 1913 113 1991 175 
Q 2050 219 2050 291 
Q 2050 363 1850 653 
L 1431 1266 
L 972 653 
Q 759 369 759 316 
Q 759 241 829 180 
Q 900 119 1041 113 
L 1041 0 
L 106 0 
L 106 113 
Q 219 128 303 191 
Q 422 281 703 653 
L 1303 1450 
L 759 2238 
Q 528 2575 401 2661 
Q 275 2747 84 2747 
L 84 2863 
z
" transform="scale(0.015625)"/>
       <path id="TimesNewRomanPSMT-23" d="M 359 -88 
L 650 1334 
L 116 1334 
L 116 1591 
L 700 1591 
L 916 2663 
L 116 2663 
L 116 2913 
L 975 2913 
L 1259 4334 
L 1519 4334 
L 1234 2913 
L 2288 2913 
L 2591 4334 
L 2850 4334 
L 2553 2913 
L 3084 2913 
L 3084 2663 
L 2506 2663 
L 2288 1591 
L 3084 1591 
L 3084 1334 
L 2234 1334 
L 1944 -88 
L 1691 -88 
L 1975 1334 
L 916 1334 
L 619 -88 
L 359 -88 
z
M 963 1591 
L 2022 1591 
L 2247 2663 
L 1181 2663 
L 963 1591 
z
" transform="scale(0.015625)"/>
       <path id="TimesNewRomanPSMT-66" d="M 1319 2638 
L 1319 756 
Q 1319 356 1406 250 
Q 1522 113 1716 113 
L 1975 113 
L 1975 0 
L 266 0 
L 266 113 
L 394 113 
Q 519 113 622 175 
Q 725 238 764 344 
Q 803 450 803 756 
L 803 2638 
L 247 2638 
L 247 2863 
L 803 2863 
L 803 3050 
Q 803 3478 940 3775 
Q 1078 4072 1361 4255 
Q 1644 4438 1997 4438 
Q 2325 4438 2600 4225 
Q 2781 4084 2781 3909 
Q 2781 3816 2700 3733 
Q 2619 3650 2525 3650 
Q 2453 3650 2373 3701 
Q 2294 3753 2178 3923 
Q 2063 4094 1966 4153 
Q 1869 4213 1750 4213 
Q 1606 4213 1506 4136 
Q 1406 4059 1362 3898 
Q 1319 3738 1319 3069 
L 1319 2863 
L 2056 2863 
L 2056 2638 
L 1319 2638 
z
" transform="scale(0.015625)"/>
       <path id="TimesNewRomanPSMT-71" d="M 2734 2947 
L 2734 -734 
Q 2734 -1009 2771 -1087 
Q 2809 -1166 2889 -1209 
Q 2969 -1253 3200 -1253 
L 3200 -1369 
L 1756 -1369 
L 1756 -1253 
L 1816 -1253 
Q 1991 -1253 2081 -1203 
Q 2144 -1169 2181 -1080 
Q 2219 -991 2219 -734 
L 2219 497 
Q 1934 159 1721 35 
Q 1509 -88 1281 -88 
Q 866 -88 539 290 
Q 213 669 213 1303 
Q 213 2031 644 2489 
Q 1075 2947 1684 2947 
Q 1863 2947 2013 2897 
Q 2163 2847 2281 2747 
Q 2463 2834 2628 2947 
L 2734 2947 
z
M 2219 694 
L 2219 2038 
Q 2219 2272 2158 2406 
Q 2097 2541 1940 2634 
Q 1784 2728 1588 2728 
Q 1238 2728 988 2431 
Q 738 2134 738 1531 
Q 738 953 992 653 
Q 1247 353 1606 353 
Q 1791 353 1934 433 
Q 2078 513 2219 694 
z
" transform="scale(0.015625)"/>
       <path id="TimesNewRomanPSMT-75" d="M 2709 2863 
L 2709 1128 
Q 2709 631 2732 520 
Q 2756 409 2807 365 
Q 2859 322 2928 322 
Q 3025 322 3147 375 
L 3191 266 
L 2334 -88 
L 2194 -88 
L 2194 519 
Q 1825 119 1631 15 
Q 1438 -88 1222 -88 
Q 981 -88 804 51 
Q 628 191 559 409 
Q 491 628 491 1028 
L 491 2306 
Q 491 2509 447 2587 
Q 403 2666 317 2708 
Q 231 2750 6 2747 
L 6 2863 
L 1009 2863 
L 1009 947 
Q 1009 547 1148 422 
Q 1288 297 1484 297 
Q 1619 297 1789 381 
Q 1959 466 2194 703 
L 2194 2325 
Q 2194 2569 2105 2655 
Q 2016 2741 1734 2747 
L 1734 2863 
L 2709 2863 
z
" transform="scale(0.015625)"/>
       <path id="TimesNewRomanPSMT-73" d="M 2050 2947 
L 2050 1972 
L 1947 1972 
Q 1828 2431 1642 2597 
Q 1456 2763 1169 2763 
Q 950 2763 815 2647 
Q 681 2531 681 2391 
Q 681 2216 781 2091 
Q 878 1963 1175 1819 
L 1631 1597 
Q 2266 1288 2266 781 
Q 2266 391 1970 151 
Q 1675 -88 1309 -88 
Q 1047 -88 709 6 
Q 606 38 541 38 
Q 469 38 428 -44 
L 325 -44 
L 325 978 
L 428 978 
Q 516 541 762 319 
Q 1009 97 1316 97 
Q 1531 97 1667 223 
Q 1803 350 1803 528 
Q 1803 744 1651 891 
Q 1500 1038 1047 1263 
Q 594 1488 453 1669 
Q 313 1847 313 2119 
Q 313 2472 555 2709 
Q 797 2947 1181 2947 
Q 1350 2947 1591 2875 
Q 1750 2828 1803 2828 
Q 1853 2828 1881 2850 
Q 1909 2872 1947 2947 
L 2050 2947 
z
" transform="scale(0.015625)"/>
       <path id="TimesNewRomanPSMT-44" d="M 109 0 
L 109 116 
L 269 116 
Q 538 116 650 288 
Q 719 391 719 750 
L 719 3488 
Q 719 3884 631 3984 
Q 509 4122 269 4122 
L 109 4122 
L 109 4238 
L 1834 4238 
Q 2784 4238 3279 4022 
Q 3775 3806 4076 3303 
Q 4378 2800 4378 2141 
Q 4378 1256 3841 663 
Q 3238 0 2003 0 
L 109 0 
z
M 1319 306 
Q 1716 219 1984 219 
Q 2709 219 3187 728 
Q 3666 1238 3666 2109 
Q 3666 2988 3187 3494 
Q 2709 4000 1959 4000 
Q 1678 4000 1319 3909 
L 1319 306 
z
" transform="scale(0.015625)"/>
       <path id="TimesNewRomanPSMT-50" d="M 1313 1984 
L 1313 750 
Q 1313 350 1400 253 
Q 1519 116 1759 116 
L 1922 116 
L 1922 0 
L 106 0 
L 106 116 
L 266 116 
Q 534 116 650 291 
Q 713 388 713 750 
L 713 3488 
Q 713 3888 628 3984 
Q 506 4122 266 4122 
L 106 4122 
L 106 4238 
L 1659 4238 
Q 2228 4238 2556 4120 
Q 2884 4003 3109 3725 
Q 3334 3447 3334 3066 
Q 3334 2547 2992 2222 
Q 2650 1897 2025 1897 
Q 1872 1897 1694 1919 
Q 1516 1941 1313 1984 
z
M 1313 2163 
Q 1478 2131 1606 2115 
Q 1734 2100 1825 2100 
Q 2150 2100 2386 2351 
Q 2622 2603 2622 3003 
Q 2622 3278 2509 3514 
Q 2397 3750 2190 3867 
Q 1984 3984 1722 3984 
Q 1563 3984 1313 3925 
L 1313 2163 
z
" transform="scale(0.015625)"/>
       <path id="TimesNewRomanPSMT-55" d="M 3053 4122 
L 3053 4238 
L 4553 4238 
L 4553 4122 
L 4394 4122 
Q 4144 4122 4009 3913 
Q 3944 3816 3944 3463 
L 3944 1744 
Q 3944 1106 3817 754 
Q 3691 403 3320 151 
Q 2950 -100 2313 -100 
Q 1619 -100 1259 140 
Q 900 381 750 788 
Q 650 1066 650 1831 
L 650 3488 
Q 650 3878 542 4000 
Q 434 4122 194 4122 
L 34 4122 
L 34 4238 
L 1866 4238 
L 1866 4122 
L 1703 4122 
Q 1441 4122 1328 3956 
Q 1250 3844 1250 3488 
L 1250 1641 
Q 1250 1394 1295 1075 
Q 1341 756 1459 578 
Q 1578 400 1801 284 
Q 2025 169 2350 169 
Q 2766 169 3094 350 
Q 3422 531 3542 814 
Q 3663 1097 3663 1772 
L 3663 3488 
Q 3663 3884 3575 3984 
Q 3453 4122 3213 4122 
L 3053 4122 
z
" transform="scale(0.015625)"/>
      </defs>
      <use xlink:href="#TimesNewRomanPSMT-6d"/>
      <use xlink:href="#TimesNewRomanPSMT-61" x="77.783203"/>
      <use xlink:href="#TimesNewRomanPSMT-78" x="122.167969"/>
      <use xlink:href="#TimesNewRomanPSMT-20" x="172.167969"/>
      <use xlink:href="#TimesNewRomanPSMT-23" x="197.167969"/>
      <use xlink:href="#TimesNewRomanPSMT-20" x="247.167969"/>
      <use xlink:href="#TimesNewRomanPSMT-6f" x="272.167969"/>
      <use xlink:href="#TimesNewRomanPSMT-66" x="322.167969"/>
      <use xlink:href="#TimesNewRomanPSMT-20" x="355.46875"/>
      <use xlink:href="#TimesNewRomanPSMT-71" x="380.46875"/>
      <use xlink:href="#TimesNewRomanPSMT-75" x="430.46875"/>
      <use xlink:href="#TimesNewRomanPSMT-65" x="480.46875"/>
      <use xlink:href="#TimesNewRomanPSMT-72" x="524.853516"/>
      <use xlink:href="#TimesNewRomanPSMT-69" x="558.154297"/>
      <use xlink:href="#TimesNewRomanPSMT-65" x="585.9375"/>
      <use xlink:href="#TimesNewRomanPSMT-73" x="630.322266"/>
      <use xlink:href="#TimesNewRomanPSMT-20" x="669.238281"/>
      <use xlink:href="#TimesNewRomanPSMT-66" x="694.238281"/>
      <use xlink:href="#TimesNewRomanPSMT-6f" x="727.539062"/>
      <use xlink:href="#TimesNewRomanPSMT-72" x="777.539062"/>
      <use xlink:href="#TimesNewRomanPSMT-20" x="810.839844"/>
      <use xlink:href="#TimesNewRomanPSMT-61" x="835.839844"/>
      <use xlink:href="#TimesNewRomanPSMT-20" x="880.224609"/>
      <use xlink:href="#TimesNewRomanPSMT-44" x="905.224609"/>
      <use xlink:href="#TimesNewRomanPSMT-50" x="977.441406"/>
      <use xlink:href="#TimesNewRomanPSMT-55" x="1033.056641"/>
     </g>
    </g>
   </g>
   <g id="line2d_19">
    <path d="M 57.957836 108.070251 
L 58.673507 74.349618 
L 59.389178 88.399882 
L 60.10485 96.83004 
L 60.820521 85.589829 
L 61.536192 82.779776 
L 62.251864 57.489301 
L 62.967535 77.159671 
L 63.683206 136.170779 
L 64.398878 119.310463 
L 65.114549 79.969723 
L 65.83022 102.450146 
L 66.545892 74.349618 
L 67.261563 57.489301 
L 68.692906 127.740621 
L 69.408577 77.159671 
L 70.124248 91.209935 
L 72.986934 113.690357 
L 73.702605 122.120515 
L 74.418277 105.260199 
L 75.133948 102.450146 
L 75.849619 105.260199 
L 76.565291 88.399882 
L 77.280962 105.260199 
L 77.996633 113.690357 
L 78.712305 130.550674 
L 79.427976 102.450146 
L 80.143647 127.740621 
L 80.859319 116.50041 
L 81.57499 110.880304 
L 82.290661 85.589829 
L 83.006333 82.779776 
L 83.722004 119.310463 
L 84.437675 102.450146 
L 85.153347 113.690357 
L 85.869018 105.260199 
L 86.584689 82.779776 
L 87.300361 133.360727 
L 88.016032 102.450146 
L 88.731703 88.399882 
L 89.447375 110.880304 
L 90.163046 91.209935 
L 90.878717 102.450146 
L 91.594389 99.640093 
L 92.31006 110.880304 
L 93.025731 124.930568 
L 93.741403 122.120515 
L 94.457074 102.450146 
L 95.172745 96.83004 
L 95.888417 88.399882 
L 96.604088 108.070251 
L 97.31976 85.589829 
L 98.035431 127.740621 
L 98.751102 130.550674 
L 99.466774 79.969723 
L 100.182445 122.120515 
L 100.898116 74.349618 
L 101.613788 119.310463 
L 102.329459 91.209935 
L 103.04513 102.450146 
L 103.760802 119.310463 
L 104.476473 68.729512 
L 105.192144 110.880304 
L 105.907816 113.690357 
L 106.623487 94.019987 
L 107.339158 119.310463 
L 108.05483 130.550674 
L 108.770501 108.070251 
L 109.486172 65.919459 
L 110.201844 94.019987 
L 110.917515 99.640093 
L 111.633186 122.120515 
L 112.348858 77.159671 
L 113.064529 122.120515 
L 113.7802 60.299354 
L 114.495872 82.779776 
L 115.211543 88.399882 
L 115.927214 102.450146 
L 116.642886 60.299354 
L 117.358557 99.640093 
L 118.074228 122.120515 
L 118.7899 116.50041 
L 119.505571 94.019987 
L 120.221242 102.450146 
L 120.936914 96.83004 
L 121.652585 122.120515 
L 122.368257 60.299354 
L 123.083928 105.260199 
L 123.799599 74.349618 
L 124.515271 71.539565 
L 125.230942 77.159671 
L 125.946613 108.070251 
L 126.662285 60.299354 
L 127.377956 91.209935 
L 128.093627 113.690357 
L 128.809299 122.120515 
L 129.52497 94.019987 
L 130.956313 88.399882 
L 131.671984 110.880304 
L 132.387655 102.450146 
L 133.103327 119.310463 
L 133.818998 54.679248 
L 134.534669 77.159671 
L 135.250341 74.349618 
L 135.966012 82.779776 
L 136.681683 122.120515 
L 137.397355 79.969723 
L 138.113026 77.159671 
L 138.828697 110.880304 
L 139.544369 63.109407 
L 140.26004 136.170779 
L 140.975711 124.930568 
L 141.691383 110.880304 
L 142.407054 113.690357 
L 143.122725 122.120515 
L 143.838397 110.880304 
L 144.554068 108.070251 
L 145.269739 130.550674 
L 145.985411 119.310463 
L 146.701082 130.550674 
L 147.416754 130.550674 
L 148.132425 127.740621 
L 148.848096 119.310463 
L 149.563768 122.120515 
L 150.279439 113.690357 
L 151.710782 119.310463 
L 152.426453 116.50041 
L 153.142124 108.070251 
L 153.857796 122.120515 
L 154.573467 108.070251 
L 155.289138 113.690357 
L 156.00481 127.740621 
L 156.720481 124.930568 
L 157.436152 91.209935 
L 158.151824 116.50041 
L 158.867495 88.399882 
L 159.583166 110.880304 
L 160.298838 110.880304 
L 161.014509 113.690357 
L 161.73018 105.260199 
L 162.445852 127.740621 
L 163.161523 91.209935 
L 163.877194 119.310463 
L 164.592866 116.50041 
L 165.308537 105.260199 
L 166.024208 110.880304 
L 166.73988 119.310463 
L 167.455551 94.019987 
L 168.171222 122.120515 
L 168.886894 113.690357 
L 169.602565 127.740621 
L 170.318236 102.450146 
L 171.033908 130.550674 
L 171.749579 105.260199 
L 172.465251 122.120515 
L 173.180922 119.310463 
L 173.896593 130.550674 
L 174.612265 127.740621 
L 175.327936 130.550674 
L 176.759279 94.019987 
L 177.47495 85.589829 
L 178.190621 102.450146 
L 178.906293 124.930568 
L 179.621964 113.690357 
L 180.337635 119.310463 
L 181.053307 110.880304 
L 181.768978 133.360727 
L 182.484649 119.310463 
L 183.200321 136.170779 
L 183.915992 130.550674 
L 184.631663 113.690357 
L 185.347335 110.880304 
L 186.063006 88.399882 
L 186.778677 133.360727 
L 187.494349 96.83004 
L 188.21002 133.360727 
L 189.641363 82.779776 
L 190.357034 124.930568 
L 191.072705 110.880304 
L 191.788377 127.740621 
L 192.504048 124.930568 
L 193.219719 96.83004 
L 193.935391 96.83004 
L 194.651062 127.740621 
L 195.366733 124.930568 
L 196.082405 88.399882 
L 196.798076 119.310463 
L 197.513747 122.120515 
L 198.229419 91.209935 
L 198.94509 113.690357 
L 199.660762 122.120515 
L 200.376433 116.50041 
L 201.092104 113.690357 
L 201.807776 130.550674 
L 202.523447 127.740621 
L 203.239118 79.969723 
L 203.95479 119.310463 
L 204.670461 119.310463 
L 206.101804 124.930568 
L 206.817475 136.170779 
L 207.533146 136.170779 
L 208.248818 82.779776 
L 208.964489 102.450146 
L 209.68016 127.740621 
L 210.395832 122.120515 
L 211.111503 110.880304 
L 211.827174 138.980832 
L 212.542846 119.310463 
L 213.258517 133.360727 
L 213.974188 127.740621 
L 214.68986 105.260199 
L 215.405531 116.50041 
L 216.121202 91.209935 
L 216.836874 127.740621 
L 217.552545 113.690357 
L 218.268216 119.310463 
L 218.983888 127.740621 
L 219.699559 88.399882 
L 221.130902 122.120515 
L 221.846573 122.120515 
L 222.562244 130.550674 
L 223.277916 105.260199 
L 223.993587 124.930568 
L 224.709259 124.930568 
L 225.42493 108.070251 
L 226.140601 124.930568 
L 226.856273 124.930568 
L 227.571944 122.120515 
L 228.287615 130.550674 
L 229.003287 105.260199 
L 229.718958 110.880304 
L 230.434629 113.690357 
L 231.150301 108.070251 
L 231.865972 130.550674 
L 232.581643 113.690357 
L 233.297315 124.930568 
L 234.012986 130.550674 
L 234.728657 105.260199 
L 235.444329 94.019987 
L 236.16 122.120515 
L 236.875671 65.919459 
L 237.591343 105.260199 
L 238.307014 108.070251 
L 239.022685 113.690357 
L 239.738357 110.880304 
L 240.454028 133.360727 
L 241.169699 133.360727 
L 241.885371 119.310463 
L 242.601042 113.690357 
L 243.316713 130.550674 
L 244.032385 127.740621 
L 244.748056 105.260199 
L 245.463727 119.310463 
L 246.179399 77.159671 
L 246.89507 108.070251 
L 247.610741 116.50041 
L 248.326413 133.360727 
L 249.042084 136.170779 
L 249.757756 130.550674 
L 250.473427 133.360727 
L 251.189098 94.019987 
L 251.90477 105.260199 
L 252.620441 122.120515 
L 253.336112 88.399882 
L 254.051784 119.310463 
L 254.767455 130.550674 
L 255.483126 96.83004 
L 256.198798 122.120515 
L 256.914469 122.120515 
L 257.63014 133.360727 
L 258.345812 105.260199 
L 259.061483 124.930568 
L 259.777154 113.690357 
L 260.492826 133.360727 
L 261.208497 94.019987 
L 261.924168 99.640093 
L 262.63984 96.83004 
L 263.355511 85.589829 
L 264.071182 130.550674 
L 265.502525 136.170779 
L 266.218196 122.120515 
L 266.933868 130.550674 
L 267.649539 119.310463 
L 268.36521 88.399882 
L 269.080882 68.729512 
L 269.796553 119.310463 
L 270.512224 127.740621 
L 271.227896 119.310463 
L 271.943567 113.690357 
L 272.659238 116.50041 
L 273.37491 133.360727 
L 274.090581 130.550674 
L 274.806253 124.930568 
L 275.521924 108.070251 
L 276.237595 127.740621 
L 276.953267 119.310463 
L 277.668938 116.50041 
L 278.384609 130.550674 
L 279.100281 116.50041 
L 279.815952 122.120515 
L 280.531623 119.310463 
L 281.247295 133.360727 
L 281.962966 122.120515 
L 282.678637 105.260199 
L 283.394309 113.690357 
L 284.10998 124.930568 
L 284.825651 127.740621 
L 285.541323 136.170779 
L 286.256994 127.740621 
L 286.972665 130.550674 
L 287.688337 130.550674 
L 288.404008 99.640093 
L 289.119679 130.550674 
L 289.835351 108.070251 
L 290.551022 122.120515 
L 291.266693 105.260199 
L 291.982365 127.740621 
L 292.698036 124.930568 
L 293.413707 127.740621 
L 294.129379 122.120515 
L 294.84505 79.969723 
L 295.560721 102.450146 
L 296.276393 119.310463 
L 296.992064 133.360727 
L 297.707735 122.120515 
L 298.423407 133.360727 
L 299.139078 127.740621 
L 299.854749 127.740621 
L 300.570421 94.019987 
L 301.286092 94.019987 
L 302.001764 122.120515 
L 302.717435 124.930568 
L 303.433106 122.120515 
L 304.148778 110.880304 
L 304.864449 82.779776 
L 305.58012 122.120515 
L 306.295792 127.740621 
L 307.011463 116.50041 
L 307.727134 136.170779 
L 308.442806 79.969723 
L 309.158477 94.019987 
L 309.874148 102.450146 
L 310.58982 116.50041 
L 311.305491 122.120515 
L 312.021162 130.550674 
L 312.736834 127.740621 
L 313.452505 99.640093 
L 314.168176 133.360727 
L 314.883848 127.740621 
L 316.31519 110.880304 
L 317.030862 116.50041 
L 317.746533 124.930568 
L 318.462204 119.310463 
L 319.177876 88.399882 
L 319.893547 130.550674 
L 320.609218 102.450146 
L 321.32489 119.310463 
L 322.040561 54.679248 
L 322.756232 119.310463 
L 323.471904 108.070251 
L 324.187575 119.310463 
L 324.903246 119.310463 
L 325.618918 127.740621 
L 326.334589 119.310463 
L 327.050261 119.310463 
L 327.765932 108.070251 
L 328.481603 124.930568 
L 329.912946 124.930568 
L 330.628617 108.070251 
L 331.344289 130.550674 
L 332.05996 110.880304 
L 332.775631 119.310463 
L 333.491303 91.209935 
L 334.206974 116.50041 
L 334.922645 124.930568 
L 336.353988 124.930568 
L 337.069659 85.589829 
L 337.785331 124.930568 
L 338.501002 85.589829 
L 339.216673 79.969723 
L 339.932345 130.550674 
L 340.648016 91.209935 
L 341.363687 133.360727 
L 342.079359 127.740621 
L 342.79503 102.450146 
L 343.510701 116.50041 
L 344.942044 60.299354 
L 345.657715 113.690357 
L 346.373387 124.930568 
L 347.089058 94.019987 
L 347.804729 46.24909 
L 348.520401 102.450146 
L 349.236072 122.120515 
L 349.951743 110.880304 
L 350.667415 124.930568 
L 351.383086 127.740621 
L 352.098758 82.779776 
L 352.814429 116.50041 
L 353.5301 99.640093 
L 354.245772 127.740621 
L 354.961443 119.310463 
L 355.677114 124.930568 
L 356.392786 124.930568 
L 357.108457 116.50041 
L 357.824128 127.740621 
L 358.5398 102.450146 
L 359.255471 113.690357 
L 359.971142 102.450146 
L 360.686814 130.550674 
L 361.402485 116.50041 
L 362.118156 94.019987 
L 362.833828 99.640093 
L 363.549499 122.120515 
L 364.26517 122.120515 
L 364.980842 57.489301 
L 365.696513 127.740621 
L 366.412184 116.50041 
L 367.127856 124.930568 
L 367.843527 122.120515 
L 368.559198 116.50041 
L 369.27487 116.50041 
L 369.990541 94.019987 
L 370.706212 122.120515 
L 371.421884 99.640093 
L 372.137555 116.50041 
L 372.853226 141.790885 
L 373.568898 122.120515 
L 374.284569 124.930568 
L 375.00024 99.640093 
L 375.715912 130.550674 
L 376.431583 94.019987 
L 377.147255 127.740621 
L 377.862926 130.550674 
L 378.578597 102.450146 
L 379.294269 113.690357 
L 380.00994 108.070251 
L 380.725611 130.550674 
L 381.441283 96.83004 
L 382.156954 113.690357 
L 382.872625 122.120515 
L 383.588297 105.260199 
L 384.303968 116.50041 
L 385.019639 124.930568 
L 385.735311 130.550674 
L 386.450982 102.450146 
L 387.166653 119.310463 
L 387.882325 127.740621 
L 388.597996 127.740621 
L 389.313667 110.880304 
L 390.029339 113.690357 
L 391.460681 108.070251 
L 392.176353 99.640093 
L 392.892024 85.589829 
L 393.607695 119.310463 
L 394.323367 110.880304 
L 395.039038 130.550674 
L 395.754709 113.690357 
L 396.470381 116.50041 
L 397.186052 124.930568 
L 397.901723 116.50041 
L 398.617395 79.969723 
L 399.333066 122.120515 
L 400.048737 124.930568 
L 400.764409 94.019987 
L 401.48008 127.740621 
L 402.195752 119.310463 
L 402.911423 127.740621 
L 403.627094 124.930568 
L 404.342766 136.170779 
L 405.058437 127.740621 
L 405.774108 127.740621 
L 406.48978 79.969723 
L 407.205451 113.690357 
L 407.921122 110.880304 
L 408.636794 130.550674 
L 409.352465 119.310463 
L 410.068136 119.310463 
L 410.783808 79.969723 
L 411.499479 122.120515 
L 412.21515 133.360727 
L 412.930822 108.070251 
L 414.362164 119.310463 
L 414.362164 119.310463 
" clip-path="url(#p2940d992ab)" style="fill: none; stroke: #1f77b4; stroke-width: 2; stroke-linecap: square"/>
   </g>
   <g id="patch_3">
    <path d="M 57.6 307.584 
L 57.6 41.472 
" style="fill: none; stroke: #000000; stroke-width: 0.8; stroke-linejoin: miter; stroke-linecap: square"/>
   </g>
   <g id="patch_4">
    <path d="M 414.72 307.584 
L 414.72 41.472 
" style="fill: none; stroke: #000000; stroke-width: 0.8; stroke-linejoin: miter; stroke-linecap: square"/>
   </g>
   <g id="patch_5">
    <path d="M 57.6 307.584 
L 414.72 307.584 
" style="fill: none; stroke: #000000; stroke-width: 0.8; stroke-linejoin: miter; stroke-linecap: square"/>
   </g>
   <g id="patch_6">
    <path d="M 57.6 41.472 
L 414.72 41.472 
" style="fill: none; stroke: #000000; stroke-width: 0.8; stroke-linejoin: miter; stroke-linecap: square"/>
   </g>
  </g>
 </g>
 <defs>
  <clipPath id="p2940d992ab">
   <rect x="57.6" y="41.472" width="357.12" height="266.112"/>
  </clipPath>
 </defs>
</svg>
