<?xml version="1.0" encoding="utf-8" standalone="no"?>
<!DOCTYPE svg PUBLIC "-//W3C//DTD SVG 1.1//EN"
  "http://www.w3.org/Graphics/SVG/1.1/DTD/svg11.dtd">
<svg xmlns:xlink="http://www.w3.org/1999/xlink" width="460.8pt" height="345.6pt" viewBox="0 0 460.8 345.6" xmlns="http://www.w3.org/2000/svg" version="1.1">
 <metadata>
  <rdf:RDF xmlns:dc="http://purl.org/dc/elements/1.1/" xmlns:cc="http://creativecommons.org/ns#" xmlns:rdf="http://www.w3.org/1999/02/22-rdf-syntax-ns#">
   <cc:Work>
    <dc:type rdf:resource="http://purl.org/dc/dcmitype/StillImage"/>
    <dc:date>2024-02-14T15:40:34.301008</dc:date>
    <dc:format>image/svg+xml</dc:format>
    <dc:creator>
     <cc:Agent>
      <dc:title>Matplotlib v3.7.0, https://matplotlib.org/</dc:title>
     </cc:Agent>
    </dc:creator>
   </cc:Work>
  </rdf:RDF>
 </metadata>
 <defs>
  <style type="text/css">*{stroke-linejoin: round; stroke-linecap: butt}</style>
 </defs>
 <g id="figure_1">
  <g id="patch_1">
   <path d="M 0 345.6 
L 460.8 345.6 
L 460.8 0 
L 0 0 
L 0 345.6 
z
" style="fill: none"/>
  </g>
  <g id="axes_1">
   <g id="patch_2">
    <path d="M 57.6 307.584 
L 414.72 307.584 
L 414.72 41.472 
L 57.6 41.472 
L 57.6 307.584 
z
" style="fill: none"/>
   </g>
   <g id="matplotlib.axis_1">
    <g id="xtick_1">
     <g id="line2d_1">
      <path d="M 128.809299 307.584 
L 128.809299 41.472 
" clip-path="url(#p085a09984a)" style="fill: none; stroke: #b0b0b0; stroke-width: 0.8; stroke-linecap: square"/>
     </g>
     <g id="line2d_2">
      <defs>
       <path id="ma17e23319b" d="M 0 0 
L 0 3.5 
" style="stroke: #000000; stroke-width: 0.8"/>
      </defs>
      <g>
       <use xlink:href="#ma17e23319b" x="128.809299" y="307.584" style="stroke: #000000; stroke-width: 0.8"/>
      </g>
     </g>
     <g id="text_1">
      <!-- 100 -->
      <g transform="translate(121.309299 321.52775) scale(0.1 -0.1)">
       <defs>
        <path id="TimesNewRomanPSMT-31" d="M 750 3822 
L 1781 4325 
L 1884 4325 
L 1884 747 
Q 1884 391 1914 303 
Q 1944 216 2037 169 
Q 2131 122 2419 116 
L 2419 0 
L 825 0 
L 825 116 
Q 1125 122 1212 167 
Q 1300 213 1334 289 
Q 1369 366 1369 747 
L 1369 3034 
Q 1369 3497 1338 3628 
Q 1316 3728 1258 3775 
Q 1200 3822 1119 3822 
Q 1003 3822 797 3725 
L 750 3822 
z
" transform="scale(0.015625)"/>
        <path id="TimesNewRomanPSMT-30" d="M 231 2094 
Q 231 2819 450 3342 
Q 669 3866 1031 4122 
Q 1313 4325 1613 4325 
Q 2100 4325 2488 3828 
Q 2972 3213 2972 2159 
Q 2972 1422 2759 906 
Q 2547 391 2217 158 
Q 1888 -75 1581 -75 
Q 975 -75 572 641 
Q 231 1244 231 2094 
z
M 844 2016 
Q 844 1141 1059 588 
Q 1238 122 1591 122 
Q 1759 122 1940 273 
Q 2122 425 2216 781 
Q 2359 1319 2359 2297 
Q 2359 3022 2209 3506 
Q 2097 3866 1919 4016 
Q 1791 4119 1609 4119 
Q 1397 4119 1231 3928 
Q 1006 3669 925 3112 
Q 844 2556 844 2016 
z
" transform="scale(0.015625)"/>
       </defs>
       <use xlink:href="#TimesNewRomanPSMT-31"/>
       <use xlink:href="#TimesNewRomanPSMT-30" x="50"/>
       <use xlink:href="#TimesNewRomanPSMT-30" x="100"/>
      </g>
     </g>
    </g>
    <g id="xtick_2">
     <g id="line2d_3">
      <path d="M 200.376433 307.584 
L 200.376433 41.472 
" clip-path="url(#p085a09984a)" style="fill: none; stroke: #b0b0b0; stroke-width: 0.8; stroke-linecap: square"/>
     </g>
     <g id="line2d_4">
      <g>
       <use xlink:href="#ma17e23319b" x="200.376433" y="307.584" style="stroke: #000000; stroke-width: 0.8"/>
      </g>
     </g>
     <g id="text_2">
      <!-- 200 -->
      <g transform="translate(192.876433 321.52775) scale(0.1 -0.1)">
       <defs>
        <path id="TimesNewRomanPSMT-32" d="M 2934 816 
L 2638 0 
L 138 0 
L 138 116 
Q 1241 1122 1691 1759 
Q 2141 2397 2141 2925 
Q 2141 3328 1894 3587 
Q 1647 3847 1303 3847 
Q 991 3847 742 3664 
Q 494 3481 375 3128 
L 259 3128 
Q 338 3706 661 4015 
Q 984 4325 1469 4325 
Q 1984 4325 2329 3994 
Q 2675 3663 2675 3213 
Q 2675 2891 2525 2569 
Q 2294 2063 1775 1497 
Q 997 647 803 472 
L 1909 472 
Q 2247 472 2383 497 
Q 2519 522 2628 598 
Q 2738 675 2819 816 
L 2934 816 
z
" transform="scale(0.015625)"/>
       </defs>
       <use xlink:href="#TimesNewRomanPSMT-32"/>
       <use xlink:href="#TimesNewRomanPSMT-30" x="50"/>
       <use xlink:href="#TimesNewRomanPSMT-30" x="100"/>
      </g>
     </g>
    </g>
    <g id="xtick_3">
     <g id="line2d_5">
      <path d="M 271.943567 307.584 
L 271.943567 41.472 
" clip-path="url(#p085a09984a)" style="fill: none; stroke: #b0b0b0; stroke-width: 0.8; stroke-linecap: square"/>
     </g>
     <g id="line2d_6">
      <g>
       <use xlink:href="#ma17e23319b" x="271.943567" y="307.584" style="stroke: #000000; stroke-width: 0.8"/>
      </g>
     </g>
     <g id="text_3">
      <!-- 300 -->
      <g transform="translate(264.443567 321.52775) scale(0.1 -0.1)">
       <defs>
        <path id="TimesNewRomanPSMT-33" d="M 325 3431 
Q 506 3859 782 4092 
Q 1059 4325 1472 4325 
Q 1981 4325 2253 3994 
Q 2459 3747 2459 3466 
Q 2459 3003 1878 2509 
Q 2269 2356 2469 2072 
Q 2669 1788 2669 1403 
Q 2669 853 2319 450 
Q 1863 -75 997 -75 
Q 569 -75 414 31 
Q 259 138 259 259 
Q 259 350 332 419 
Q 406 488 509 488 
Q 588 488 669 463 
Q 722 447 909 348 
Q 1097 250 1169 231 
Q 1284 197 1416 197 
Q 1734 197 1970 444 
Q 2206 691 2206 1028 
Q 2206 1275 2097 1509 
Q 2016 1684 1919 1775 
Q 1784 1900 1550 2001 
Q 1316 2103 1072 2103 
L 972 2103 
L 972 2197 
Q 1219 2228 1467 2375 
Q 1716 2522 1828 2728 
Q 1941 2934 1941 3181 
Q 1941 3503 1739 3701 
Q 1538 3900 1238 3900 
Q 753 3900 428 3381 
L 325 3431 
z
" transform="scale(0.015625)"/>
       </defs>
       <use xlink:href="#TimesNewRomanPSMT-33"/>
       <use xlink:href="#TimesNewRomanPSMT-30" x="50"/>
       <use xlink:href="#TimesNewRomanPSMT-30" x="100"/>
      </g>
     </g>
    </g>
    <g id="xtick_4">
     <g id="line2d_7">
      <path d="M 343.510701 307.584 
L 343.510701 41.472 
" clip-path="url(#p085a09984a)" style="fill: none; stroke: #b0b0b0; stroke-width: 0.8; stroke-linecap: square"/>
     </g>
     <g id="line2d_8">
      <g>
       <use xlink:href="#ma17e23319b" x="343.510701" y="307.584" style="stroke: #000000; stroke-width: 0.8"/>
      </g>
     </g>
     <g id="text_4">
      <!-- 400 -->
      <g transform="translate(336.010701 321.52775) scale(0.1 -0.1)">
       <defs>
        <path id="TimesNewRomanPSMT-34" d="M 2978 1563 
L 2978 1119 
L 2409 1119 
L 2409 0 
L 1894 0 
L 1894 1119 
L 100 1119 
L 100 1519 
L 2066 4325 
L 2409 4325 
L 2409 1563 
L 2978 1563 
z
M 1894 1563 
L 1894 3666 
L 406 1563 
L 1894 1563 
z
" transform="scale(0.015625)"/>
       </defs>
       <use xlink:href="#TimesNewRomanPSMT-34"/>
       <use xlink:href="#TimesNewRomanPSMT-30" x="50"/>
       <use xlink:href="#TimesNewRomanPSMT-30" x="100"/>
      </g>
     </g>
    </g>
    <g id="text_5">
     <!-- batch iteration -->
     <g transform="translate(184.431094 340.165562) scale(0.18 -0.18)">
      <defs>
       <path id="TimesNewRomanPSMT-62" d="M 984 2369 
Q 1400 2947 1881 2947 
Q 2322 2947 2650 2570 
Q 2978 2194 2978 1541 
Q 2978 778 2472 313 
Q 2038 -88 1503 -88 
Q 1253 -88 995 3 
Q 738 94 469 275 
L 469 3241 
Q 469 3728 445 3840 
Q 422 3953 372 3993 
Q 322 4034 247 4034 
Q 159 4034 28 3984 
L -16 4094 
L 844 4444 
L 984 4444 
L 984 2369 
z
M 984 2169 
L 984 456 
Q 1144 300 1314 220 
Q 1484 141 1663 141 
Q 1947 141 2192 453 
Q 2438 766 2438 1363 
Q 2438 1913 2192 2208 
Q 1947 2503 1634 2503 
Q 1469 2503 1303 2419 
Q 1178 2356 984 2169 
z
" transform="scale(0.015625)"/>
       <path id="TimesNewRomanPSMT-61" d="M 1822 413 
Q 1381 72 1269 19 
Q 1100 -59 909 -59 
Q 613 -59 420 144 
Q 228 347 228 678 
Q 228 888 322 1041 
Q 450 1253 767 1440 
Q 1084 1628 1822 1897 
L 1822 2009 
Q 1822 2438 1686 2597 
Q 1550 2756 1291 2756 
Q 1094 2756 978 2650 
Q 859 2544 859 2406 
L 866 2225 
Q 866 2081 792 2003 
Q 719 1925 600 1925 
Q 484 1925 411 2006 
Q 338 2088 338 2228 
Q 338 2497 613 2722 
Q 888 2947 1384 2947 
Q 1766 2947 2009 2819 
Q 2194 2722 2281 2516 
Q 2338 2381 2338 1966 
L 2338 994 
Q 2338 584 2353 492 
Q 2369 400 2405 369 
Q 2441 338 2488 338 
Q 2538 338 2575 359 
Q 2641 400 2828 588 
L 2828 413 
Q 2478 -56 2159 -56 
Q 2006 -56 1915 50 
Q 1825 156 1822 413 
z
M 1822 616 
L 1822 1706 
Q 1350 1519 1213 1441 
Q 966 1303 859 1153 
Q 753 1003 753 825 
Q 753 600 887 451 
Q 1022 303 1197 303 
Q 1434 303 1822 616 
z
" transform="scale(0.015625)"/>
       <path id="TimesNewRomanPSMT-74" d="M 1031 3803 
L 1031 2863 
L 1700 2863 
L 1700 2644 
L 1031 2644 
L 1031 788 
Q 1031 509 1111 412 
Q 1191 316 1316 316 
Q 1419 316 1516 380 
Q 1613 444 1666 569 
L 1788 569 
Q 1678 263 1478 108 
Q 1278 -47 1066 -47 
Q 922 -47 784 33 
Q 647 113 581 261 
Q 516 409 516 719 
L 516 2644 
L 63 2644 
L 63 2747 
Q 234 2816 414 2980 
Q 594 3144 734 3369 
Q 806 3488 934 3803 
L 1031 3803 
z
" transform="scale(0.015625)"/>
       <path id="TimesNewRomanPSMT-63" d="M 2631 1088 
Q 2516 522 2178 217 
Q 1841 -88 1431 -88 
Q 944 -88 581 321 
Q 219 731 219 1428 
Q 219 2103 620 2525 
Q 1022 2947 1584 2947 
Q 2006 2947 2278 2723 
Q 2550 2500 2550 2259 
Q 2550 2141 2473 2067 
Q 2397 1994 2259 1994 
Q 2075 1994 1981 2113 
Q 1928 2178 1911 2362 
Q 1894 2547 1784 2644 
Q 1675 2738 1481 2738 
Q 1169 2738 978 2506 
Q 725 2200 725 1697 
Q 725 1184 976 792 
Q 1228 400 1656 400 
Q 1963 400 2206 609 
Q 2378 753 2541 1131 
L 2631 1088 
z
" transform="scale(0.015625)"/>
       <path id="TimesNewRomanPSMT-68" d="M 1041 4444 
L 1041 2350 
Q 1388 2731 1591 2839 
Q 1794 2947 1997 2947 
Q 2241 2947 2416 2812 
Q 2591 2678 2675 2391 
Q 2734 2191 2734 1659 
L 2734 647 
Q 2734 375 2778 275 
Q 2809 200 2884 156 
Q 2959 113 3159 113 
L 3159 0 
L 1753 0 
L 1753 113 
L 1819 113 
Q 2019 113 2097 173 
Q 2175 234 2206 353 
Q 2216 403 2216 647 
L 2216 1659 
Q 2216 2128 2167 2275 
Q 2119 2422 2012 2495 
Q 1906 2569 1756 2569 
Q 1603 2569 1437 2487 
Q 1272 2406 1041 2159 
L 1041 647 
Q 1041 353 1073 281 
Q 1106 209 1195 161 
Q 1284 113 1503 113 
L 1503 0 
L 84 0 
L 84 113 
Q 275 113 384 172 
Q 447 203 484 290 
Q 522 378 522 647 
L 522 3238 
Q 522 3728 498 3840 
Q 475 3953 426 3993 
Q 378 4034 297 4034 
Q 231 4034 84 3984 
L 41 4094 
L 897 4444 
L 1041 4444 
z
" transform="scale(0.015625)"/>
       <path id="TimesNewRomanPSMT-20" transform="scale(0.015625)"/>
       <path id="TimesNewRomanPSMT-69" d="M 928 4444 
Q 1059 4444 1151 4351 
Q 1244 4259 1244 4128 
Q 1244 3997 1151 3903 
Q 1059 3809 928 3809 
Q 797 3809 703 3903 
Q 609 3997 609 4128 
Q 609 4259 701 4351 
Q 794 4444 928 4444 
z
M 1188 2947 
L 1188 647 
Q 1188 378 1227 289 
Q 1266 200 1342 156 
Q 1419 113 1622 113 
L 1622 0 
L 231 0 
L 231 113 
Q 441 113 512 153 
Q 584 194 626 287 
Q 669 381 669 647 
L 669 1750 
Q 669 2216 641 2353 
Q 619 2453 572 2492 
Q 525 2531 444 2531 
Q 356 2531 231 2484 
L 188 2597 
L 1050 2947 
L 1188 2947 
z
" transform="scale(0.015625)"/>
       <path id="TimesNewRomanPSMT-65" d="M 681 1784 
Q 678 1147 991 784 
Q 1303 422 1725 422 
Q 2006 422 2214 576 
Q 2422 731 2563 1106 
L 2659 1044 
Q 2594 616 2278 264 
Q 1963 -88 1488 -88 
Q 972 -88 605 314 
Q 238 716 238 1394 
Q 238 2128 614 2539 
Q 991 2950 1559 2950 
Q 2041 2950 2350 2633 
Q 2659 2316 2659 1784 
L 681 1784 
z
M 681 1966 
L 2006 1966 
Q 1991 2241 1941 2353 
Q 1863 2528 1708 2628 
Q 1553 2728 1384 2728 
Q 1125 2728 920 2526 
Q 716 2325 681 1966 
z
" transform="scale(0.015625)"/>
       <path id="TimesNewRomanPSMT-72" d="M 1038 2947 
L 1038 2303 
Q 1397 2947 1775 2947 
Q 1947 2947 2059 2842 
Q 2172 2738 2172 2600 
Q 2172 2478 2090 2393 
Q 2009 2309 1897 2309 
Q 1788 2309 1652 2417 
Q 1516 2525 1450 2525 
Q 1394 2525 1328 2463 
Q 1188 2334 1038 2041 
L 1038 669 
Q 1038 431 1097 309 
Q 1138 225 1241 169 
Q 1344 113 1538 113 
L 1538 0 
L 72 0 
L 72 113 
Q 291 113 397 181 
Q 475 231 506 341 
Q 522 394 522 644 
L 522 1753 
Q 522 2253 501 2348 
Q 481 2444 426 2487 
Q 372 2531 291 2531 
Q 194 2531 72 2484 
L 41 2597 
L 906 2947 
L 1038 2947 
z
" transform="scale(0.015625)"/>
       <path id="TimesNewRomanPSMT-6f" d="M 1600 2947 
Q 2250 2947 2644 2453 
Q 2978 2031 2978 1484 
Q 2978 1100 2793 706 
Q 2609 313 2286 112 
Q 1963 -88 1566 -88 
Q 919 -88 538 428 
Q 216 863 216 1403 
Q 216 1797 411 2186 
Q 606 2575 925 2761 
Q 1244 2947 1600 2947 
z
M 1503 2744 
Q 1338 2744 1170 2645 
Q 1003 2547 900 2300 
Q 797 2053 797 1666 
Q 797 1041 1045 587 
Q 1294 134 1700 134 
Q 2003 134 2200 384 
Q 2397 634 2397 1244 
Q 2397 2006 2069 2444 
Q 1847 2744 1503 2744 
z
" transform="scale(0.015625)"/>
       <path id="TimesNewRomanPSMT-6e" d="M 1034 2341 
Q 1538 2947 1994 2947 
Q 2228 2947 2397 2830 
Q 2566 2713 2666 2444 
Q 2734 2256 2734 1869 
L 2734 647 
Q 2734 375 2778 278 
Q 2813 200 2889 156 
Q 2966 113 3172 113 
L 3172 0 
L 1756 0 
L 1756 113 
L 1816 113 
Q 2016 113 2095 173 
Q 2175 234 2206 353 
Q 2219 400 2219 647 
L 2219 1819 
Q 2219 2209 2117 2386 
Q 2016 2563 1775 2563 
Q 1403 2563 1034 2156 
L 1034 647 
Q 1034 356 1069 288 
Q 1113 197 1189 155 
Q 1266 113 1500 113 
L 1500 0 
L 84 0 
L 84 113 
L 147 113 
Q 366 113 442 223 
Q 519 334 519 647 
L 519 1709 
Q 519 2225 495 2337 
Q 472 2450 423 2490 
Q 375 2531 294 2531 
Q 206 2531 84 2484 
L 38 2597 
L 900 2947 
L 1034 2947 
L 1034 2341 
z
" transform="scale(0.015625)"/>
      </defs>
      <use xlink:href="#TimesNewRomanPSMT-62"/>
      <use xlink:href="#TimesNewRomanPSMT-61" x="50"/>
      <use xlink:href="#TimesNewRomanPSMT-74" x="94.384766"/>
      <use xlink:href="#TimesNewRomanPSMT-63" x="122.167969"/>
      <use xlink:href="#TimesNewRomanPSMT-68" x="166.552734"/>
      <use xlink:href="#TimesNewRomanPSMT-20" x="216.552734"/>
      <use xlink:href="#TimesNewRomanPSMT-69" x="241.552734"/>
      <use xlink:href="#TimesNewRomanPSMT-74" x="269.335938"/>
      <use xlink:href="#TimesNewRomanPSMT-65" x="297.119141"/>
      <use xlink:href="#TimesNewRomanPSMT-72" x="341.503906"/>
      <use xlink:href="#TimesNewRomanPSMT-61" x="374.804688"/>
      <use xlink:href="#TimesNewRomanPSMT-74" x="419.189453"/>
      <use xlink:href="#TimesNewRomanPSMT-69" x="446.972656"/>
      <use xlink:href="#TimesNewRomanPSMT-6f" x="474.755859"/>
      <use xlink:href="#TimesNewRomanPSMT-6e" x="524.755859"/>
     </g>
    </g>
   </g>
   <g id="matplotlib.axis_2">
    <g id="ytick_1">
     <g id="line2d_9">
      <path d="M 57.6 307.584 
L 414.72 307.584 
" clip-path="url(#p085a09984a)" style="fill: none; stroke: #b0b0b0; stroke-width: 0.8; stroke-linecap: square"/>
     </g>
     <g id="line2d_10">
      <defs>
       <path id="m45e76e690a" d="M 0 0 
L -3.5 0 
" style="stroke: #000000; stroke-width: 0.8"/>
      </defs>
      <g>
       <use xlink:href="#m45e76e690a" x="57.6" y="307.584" style="stroke: #000000; stroke-width: 0.8"/>
      </g>
     </g>
     <g id="text_6">
      <!-- 0 -->
      <g transform="translate(45.6 311.055875) scale(0.1 -0.1)">
       <use xlink:href="#TimesNewRomanPSMT-30"/>
      </g>
     </g>
    </g>
    <g id="ytick_2">
     <g id="line2d_11">
      <path d="M 57.6 260.300418 
L 414.72 260.300418 
" clip-path="url(#p085a09984a)" style="fill: none; stroke: #b0b0b0; stroke-width: 0.8; stroke-linecap: square"/>
     </g>
     <g id="line2d_12">
      <g>
       <use xlink:href="#m45e76e690a" x="57.6" y="260.300418" style="stroke: #000000; stroke-width: 0.8"/>
      </g>
     </g>
     <g id="text_7">
      <!-- 100 -->
      <g transform="translate(35.6 263.772293) scale(0.1 -0.1)">
       <use xlink:href="#TimesNewRomanPSMT-31"/>
       <use xlink:href="#TimesNewRomanPSMT-30" x="50"/>
       <use xlink:href="#TimesNewRomanPSMT-30" x="100"/>
      </g>
     </g>
    </g>
    <g id="ytick_3">
     <g id="line2d_13">
      <path d="M 57.6 213.016836 
L 414.72 213.016836 
" clip-path="url(#p085a09984a)" style="fill: none; stroke: #b0b0b0; stroke-width: 0.8; stroke-linecap: square"/>
     </g>
     <g id="line2d_14">
      <g>
       <use xlink:href="#m45e76e690a" x="57.6" y="213.016836" style="stroke: #000000; stroke-width: 0.8"/>
      </g>
     </g>
     <g id="text_8">
      <!-- 200 -->
      <g transform="translate(35.6 216.488711) scale(0.1 -0.1)">
       <use xlink:href="#TimesNewRomanPSMT-32"/>
       <use xlink:href="#TimesNewRomanPSMT-30" x="50"/>
       <use xlink:href="#TimesNewRomanPSMT-30" x="100"/>
      </g>
     </g>
    </g>
    <g id="ytick_4">
     <g id="line2d_15">
      <path d="M 57.6 165.733254 
L 414.72 165.733254 
" clip-path="url(#p085a09984a)" style="fill: none; stroke: #b0b0b0; stroke-width: 0.8; stroke-linecap: square"/>
     </g>
     <g id="line2d_16">
      <g>
       <use xlink:href="#m45e76e690a" x="57.6" y="165.733254" style="stroke: #000000; stroke-width: 0.8"/>
      </g>
     </g>
     <g id="text_9">
      <!-- 300 -->
      <g transform="translate(35.6 169.205129) scale(0.1 -0.1)">
       <use xlink:href="#TimesNewRomanPSMT-33"/>
       <use xlink:href="#TimesNewRomanPSMT-30" x="50"/>
       <use xlink:href="#TimesNewRomanPSMT-30" x="100"/>
      </g>
     </g>
    </g>
    <g id="ytick_5">
     <g id="line2d_17">
      <path d="M 57.6 118.449672 
L 414.72 118.449672 
" clip-path="url(#p085a09984a)" style="fill: none; stroke: #b0b0b0; stroke-width: 0.8; stroke-linecap: square"/>
     </g>
     <g id="line2d_18">
      <g>
       <use xlink:href="#m45e76e690a" x="57.6" y="118.449672" style="stroke: #000000; stroke-width: 0.8"/>
      </g>
     </g>
     <g id="text_10">
      <!-- 400 -->
      <g transform="translate(35.6 121.921547) scale(0.1 -0.1)">
       <use xlink:href="#TimesNewRomanPSMT-34"/>
       <use xlink:href="#TimesNewRomanPSMT-30" x="50"/>
       <use xlink:href="#TimesNewRomanPSMT-30" x="100"/>
      </g>
     </g>
    </g>
    <g id="ytick_6">
     <g id="line2d_19">
      <path d="M 57.6 71.16609 
L 414.72 71.16609 
" clip-path="url(#p085a09984a)" style="fill: none; stroke: #b0b0b0; stroke-width: 0.8; stroke-linecap: square"/>
     </g>
     <g id="line2d_20">
      <g>
       <use xlink:href="#m45e76e690a" x="57.6" y="71.16609" style="stroke: #000000; stroke-width: 0.8"/>
      </g>
     </g>
     <g id="text_11">
      <!-- 500 -->
      <g transform="translate(35.6 74.637965) scale(0.1 -0.1)">
       <defs>
        <path id="TimesNewRomanPSMT-35" d="M 2778 4238 
L 2534 3706 
L 1259 3706 
L 981 3138 
Q 1809 3016 2294 2522 
Q 2709 2097 2709 1522 
Q 2709 1188 2573 903 
Q 2438 619 2231 419 
Q 2025 219 1772 97 
Q 1413 -75 1034 -75 
Q 653 -75 479 54 
Q 306 184 306 341 
Q 306 428 378 495 
Q 450 563 559 563 
Q 641 563 702 538 
Q 763 513 909 409 
Q 1144 247 1384 247 
Q 1750 247 2026 523 
Q 2303 800 2303 1197 
Q 2303 1581 2056 1914 
Q 1809 2247 1375 2428 
Q 1034 2569 447 2591 
L 1259 4238 
L 2778 4238 
z
" transform="scale(0.015625)"/>
       </defs>
       <use xlink:href="#TimesNewRomanPSMT-35"/>
       <use xlink:href="#TimesNewRomanPSMT-30" x="50"/>
       <use xlink:href="#TimesNewRomanPSMT-30" x="100"/>
      </g>
     </g>
    </g>
    <g id="text_12">
     <!-- max # of queries for a DPU -->
     <g transform="translate(27.749687 274.003312) rotate(-90) scale(0.18 -0.18)">
      <defs>
       <path id="TimesNewRomanPSMT-6d" d="M 1050 2338 
Q 1363 2650 1419 2697 
Q 1559 2816 1721 2881 
Q 1884 2947 2044 2947 
Q 2313 2947 2506 2790 
Q 2700 2634 2766 2338 
Q 3088 2713 3309 2830 
Q 3531 2947 3766 2947 
Q 3994 2947 4170 2830 
Q 4347 2713 4450 2447 
Q 4519 2266 4519 1878 
L 4519 647 
Q 4519 378 4559 278 
Q 4591 209 4675 161 
Q 4759 113 4950 113 
L 4950 0 
L 3538 0 
L 3538 113 
L 3597 113 
Q 3781 113 3884 184 
Q 3956 234 3988 344 
Q 4000 397 4000 647 
L 4000 1878 
Q 4000 2228 3916 2372 
Q 3794 2572 3525 2572 
Q 3359 2572 3192 2489 
Q 3025 2406 2788 2181 
L 2781 2147 
L 2788 2013 
L 2788 647 
Q 2788 353 2820 281 
Q 2853 209 2943 161 
Q 3034 113 3253 113 
L 3253 0 
L 1806 0 
L 1806 113 
Q 2044 113 2133 169 
Q 2222 225 2256 338 
Q 2272 391 2272 647 
L 2272 1878 
Q 2272 2228 2169 2381 
Q 2031 2581 1784 2581 
Q 1616 2581 1450 2491 
Q 1191 2353 1050 2181 
L 1050 647 
Q 1050 366 1089 281 
Q 1128 197 1204 155 
Q 1281 113 1516 113 
L 1516 0 
L 100 0 
L 100 113 
Q 297 113 375 155 
Q 453 197 493 289 
Q 534 381 534 647 
L 534 1741 
Q 534 2213 506 2350 
Q 484 2453 437 2492 
Q 391 2531 309 2531 
Q 222 2531 100 2484 
L 53 2597 
L 916 2947 
L 1050 2947 
L 1050 2338 
z
" transform="scale(0.015625)"/>
       <path id="TimesNewRomanPSMT-78" d="M 84 2863 
L 1431 2863 
L 1431 2747 
Q 1303 2747 1251 2703 
Q 1200 2659 1200 2588 
Q 1200 2513 1309 2356 
Q 1344 2306 1413 2200 
L 1616 1875 
L 1850 2200 
Q 2075 2509 2075 2591 
Q 2075 2656 2022 2701 
Q 1969 2747 1850 2747 
L 1850 2863 
L 2819 2863 
L 2819 2747 
Q 2666 2738 2553 2663 
Q 2400 2556 2134 2200 
L 1744 1678 
L 2456 653 
Q 2719 275 2831 198 
Q 2944 122 3122 113 
L 3122 0 
L 1772 0 
L 1772 113 
Q 1913 113 1991 175 
Q 2050 219 2050 291 
Q 2050 363 1850 653 
L 1431 1266 
L 972 653 
Q 759 369 759 316 
Q 759 241 829 180 
Q 900 119 1041 113 
L 1041 0 
L 106 0 
L 106 113 
Q 219 128 303 191 
Q 422 281 703 653 
L 1303 1450 
L 759 2238 
Q 528 2575 401 2661 
Q 275 2747 84 2747 
L 84 2863 
z
" transform="scale(0.015625)"/>
       <path id="TimesNewRomanPSMT-23" d="M 359 -88 
L 650 1334 
L 116 1334 
L 116 1591 
L 700 1591 
L 916 2663 
L 116 2663 
L 116 2913 
L 975 2913 
L 1259 4334 
L 1519 4334 
L 1234 2913 
L 2288 2913 
L 2591 4334 
L 2850 4334 
L 2553 2913 
L 3084 2913 
L 3084 2663 
L 2506 2663 
L 2288 1591 
L 3084 1591 
L 3084 1334 
L 2234 1334 
L 1944 -88 
L 1691 -88 
L 1975 1334 
L 916 1334 
L 619 -88 
L 359 -88 
z
M 963 1591 
L 2022 1591 
L 2247 2663 
L 1181 2663 
L 963 1591 
z
" transform="scale(0.015625)"/>
       <path id="TimesNewRomanPSMT-66" d="M 1319 2638 
L 1319 756 
Q 1319 356 1406 250 
Q 1522 113 1716 113 
L 1975 113 
L 1975 0 
L 266 0 
L 266 113 
L 394 113 
Q 519 113 622 175 
Q 725 238 764 344 
Q 803 450 803 756 
L 803 2638 
L 247 2638 
L 247 2863 
L 803 2863 
L 803 3050 
Q 803 3478 940 3775 
Q 1078 4072 1361 4255 
Q 1644 4438 1997 4438 
Q 2325 4438 2600 4225 
Q 2781 4084 2781 3909 
Q 2781 3816 2700 3733 
Q 2619 3650 2525 3650 
Q 2453 3650 2373 3701 
Q 2294 3753 2178 3923 
Q 2063 4094 1966 4153 
Q 1869 4213 1750 4213 
Q 1606 4213 1506 4136 
Q 1406 4059 1362 3898 
Q 1319 3738 1319 3069 
L 1319 2863 
L 2056 2863 
L 2056 2638 
L 1319 2638 
z
" transform="scale(0.015625)"/>
       <path id="TimesNewRomanPSMT-71" d="M 2734 2947 
L 2734 -734 
Q 2734 -1009 2771 -1087 
Q 2809 -1166 2889 -1209 
Q 2969 -1253 3200 -1253 
L 3200 -1369 
L 1756 -1369 
L 1756 -1253 
L 1816 -1253 
Q 1991 -1253 2081 -1203 
Q 2144 -1169 2181 -1080 
Q 2219 -991 2219 -734 
L 2219 497 
Q 1934 159 1721 35 
Q 1509 -88 1281 -88 
Q 866 -88 539 290 
Q 213 669 213 1303 
Q 213 2031 644 2489 
Q 1075 2947 1684 2947 
Q 1863 2947 2013 2897 
Q 2163 2847 2281 2747 
Q 2463 2834 2628 2947 
L 2734 2947 
z
M 2219 694 
L 2219 2038 
Q 2219 2272 2158 2406 
Q 2097 2541 1940 2634 
Q 1784 2728 1588 2728 
Q 1238 2728 988 2431 
Q 738 2134 738 1531 
Q 738 953 992 653 
Q 1247 353 1606 353 
Q 1791 353 1934 433 
Q 2078 513 2219 694 
z
" transform="scale(0.015625)"/>
       <path id="TimesNewRomanPSMT-75" d="M 2709 2863 
L 2709 1128 
Q 2709 631 2732 520 
Q 2756 409 2807 365 
Q 2859 322 2928 322 
Q 3025 322 3147 375 
L 3191 266 
L 2334 -88 
L 2194 -88 
L 2194 519 
Q 1825 119 1631 15 
Q 1438 -88 1222 -88 
Q 981 -88 804 51 
Q 628 191 559 409 
Q 491 628 491 1028 
L 491 2306 
Q 491 2509 447 2587 
Q 403 2666 317 2708 
Q 231 2750 6 2747 
L 6 2863 
L 1009 2863 
L 1009 947 
Q 1009 547 1148 422 
Q 1288 297 1484 297 
Q 1619 297 1789 381 
Q 1959 466 2194 703 
L 2194 2325 
Q 2194 2569 2105 2655 
Q 2016 2741 1734 2747 
L 1734 2863 
L 2709 2863 
z
" transform="scale(0.015625)"/>
       <path id="TimesNewRomanPSMT-73" d="M 2050 2947 
L 2050 1972 
L 1947 1972 
Q 1828 2431 1642 2597 
Q 1456 2763 1169 2763 
Q 950 2763 815 2647 
Q 681 2531 681 2391 
Q 681 2216 781 2091 
Q 878 1963 1175 1819 
L 1631 1597 
Q 2266 1288 2266 781 
Q 2266 391 1970 151 
Q 1675 -88 1309 -88 
Q 1047 -88 709 6 
Q 606 38 541 38 
Q 469 38 428 -44 
L 325 -44 
L 325 978 
L 428 978 
Q 516 541 762 319 
Q 1009 97 1316 97 
Q 1531 97 1667 223 
Q 1803 350 1803 528 
Q 1803 744 1651 891 
Q 1500 1038 1047 1263 
Q 594 1488 453 1669 
Q 313 1847 313 2119 
Q 313 2472 555 2709 
Q 797 2947 1181 2947 
Q 1350 2947 1591 2875 
Q 1750 2828 1803 2828 
Q 1853 2828 1881 2850 
Q 1909 2872 1947 2947 
L 2050 2947 
z
" transform="scale(0.015625)"/>
       <path id="TimesNewRomanPSMT-44" d="M 109 0 
L 109 116 
L 269 116 
Q 538 116 650 288 
Q 719 391 719 750 
L 719 3488 
Q 719 3884 631 3984 
Q 509 4122 269 4122 
L 109 4122 
L 109 4238 
L 1834 4238 
Q 2784 4238 3279 4022 
Q 3775 3806 4076 3303 
Q 4378 2800 4378 2141 
Q 4378 1256 3841 663 
Q 3238 0 2003 0 
L 109 0 
z
M 1319 306 
Q 1716 219 1984 219 
Q 2709 219 3187 728 
Q 3666 1238 3666 2109 
Q 3666 2988 3187 3494 
Q 2709 4000 1959 4000 
Q 1678 4000 1319 3909 
L 1319 306 
z
" transform="scale(0.015625)"/>
       <path id="TimesNewRomanPSMT-50" d="M 1313 1984 
L 1313 750 
Q 1313 350 1400 253 
Q 1519 116 1759 116 
L 1922 116 
L 1922 0 
L 106 0 
L 106 116 
L 266 116 
Q 534 116 650 291 
Q 713 388 713 750 
L 713 3488 
Q 713 3888 628 3984 
Q 506 4122 266 4122 
L 106 4122 
L 106 4238 
L 1659 4238 
Q 2228 4238 2556 4120 
Q 2884 4003 3109 3725 
Q 3334 3447 3334 3066 
Q 3334 2547 2992 2222 
Q 2650 1897 2025 1897 
Q 1872 1897 1694 1919 
Q 1516 1941 1313 1984 
z
M 1313 2163 
Q 1478 2131 1606 2115 
Q 1734 2100 1825 2100 
Q 2150 2100 2386 2351 
Q 2622 2603 2622 3003 
Q 2622 3278 2509 3514 
Q 2397 3750 2190 3867 
Q 1984 3984 1722 3984 
Q 1563 3984 1313 3925 
L 1313 2163 
z
" transform="scale(0.015625)"/>
       <path id="TimesNewRomanPSMT-55" d="M 3053 4122 
L 3053 4238 
L 4553 4238 
L 4553 4122 
L 4394 4122 
Q 4144 4122 4009 3913 
Q 3944 3816 3944 3463 
L 3944 1744 
Q 3944 1106 3817 754 
Q 3691 403 3320 151 
Q 2950 -100 2313 -100 
Q 1619 -100 1259 140 
Q 900 381 750 788 
Q 650 1066 650 1831 
L 650 3488 
Q 650 3878 542 4000 
Q 434 4122 194 4122 
L 34 4122 
L 34 4238 
L 1866 4238 
L 1866 4122 
L 1703 4122 
Q 1441 4122 1328 3956 
Q 1250 3844 1250 3488 
L 1250 1641 
Q 1250 1394 1295 1075 
Q 1341 756 1459 578 
Q 1578 400 1801 284 
Q 2025 169 2350 169 
Q 2766 169 3094 350 
Q 3422 531 3542 814 
Q 3663 1097 3663 1772 
L 3663 3488 
Q 3663 3884 3575 3984 
Q 3453 4122 3213 4122 
L 3053 4122 
z
" transform="scale(0.015625)"/>
      </defs>
      <use xlink:href="#TimesNewRomanPSMT-6d"/>
      <use xlink:href="#TimesNewRomanPSMT-61" x="77.783203"/>
      <use xlink:href="#TimesNewRomanPSMT-78" x="122.167969"/>
      <use xlink:href="#TimesNewRomanPSMT-20" x="172.167969"/>
      <use xlink:href="#TimesNewRomanPSMT-23" x="197.167969"/>
      <use xlink:href="#TimesNewRomanPSMT-20" x="247.167969"/>
      <use xlink:href="#TimesNewRomanPSMT-6f" x="272.167969"/>
      <use xlink:href="#TimesNewRomanPSMT-66" x="322.167969"/>
      <use xlink:href="#TimesNewRomanPSMT-20" x="355.46875"/>
      <use xlink:href="#TimesNewRomanPSMT-71" x="380.46875"/>
      <use xlink:href="#TimesNewRomanPSMT-75" x="430.46875"/>
      <use xlink:href="#TimesNewRomanPSMT-65" x="480.46875"/>
      <use xlink:href="#TimesNewRomanPSMT-72" x="524.853516"/>
      <use xlink:href="#TimesNewRomanPSMT-69" x="558.154297"/>
      <use xlink:href="#TimesNewRomanPSMT-65" x="585.9375"/>
      <use xlink:href="#TimesNewRomanPSMT-73" x="630.322266"/>
      <use xlink:href="#TimesNewRomanPSMT-20" x="669.238281"/>
      <use xlink:href="#TimesNewRomanPSMT-66" x="694.238281"/>
      <use xlink:href="#TimesNewRomanPSMT-6f" x="727.539062"/>
      <use xlink:href="#TimesNewRomanPSMT-72" x="777.539062"/>
      <use xlink:href="#TimesNewRomanPSMT-20" x="810.839844"/>
      <use xlink:href="#TimesNewRomanPSMT-61" x="835.839844"/>
      <use xlink:href="#TimesNewRomanPSMT-20" x="880.224609"/>
      <use xlink:href="#TimesNewRomanPSMT-44" x="905.224609"/>
      <use xlink:href="#TimesNewRomanPSMT-50" x="977.441406"/>
      <use xlink:href="#TimesNewRomanPSMT-55" x="1033.056641"/>
     </g>
    </g>
   </g>
   <g id="line2d_21">
    <path d="M 57.957836 52.252657 
L 58.673507 97.644896 
L 59.389178 103.318925 
L 60.10485 136.890269 
L 60.820521 143.50997 
L 61.536192 165.260418 
L 62.251864 197.413254 
L 62.967535 199.777433 
L 63.683206 207.815642 
L 65.114549 217.272358 
L 65.83022 218.21803 
L 66.545892 223.89206 
L 67.261563 223.89206 
L 67.977234 228.147582 
L 68.692906 223.89206 
L 69.408577 231.457433 
L 70.124248 228.147582 
L 70.83992 228.620418 
L 71.555591 236.658627 
L 72.271263 235.240119 
L 72.986934 235.240119 
L 73.702605 237.131463 
L 74.418277 237.131463 
L 75.133948 236.658627 
L 75.849619 238.077134 
L 76.565291 238.54997 
L 77.280962 237.604299 
L 77.996633 238.077134 
L 78.712305 239.495642 
L 79.427976 242.805493 
L 80.143647 243.751164 
L 80.859319 243.751164 
L 81.57499 245.642507 
L 82.290661 246.115343 
L 83.006333 240.441313 
L 83.722004 246.115343 
L 84.437675 246.588179 
L 85.869018 248.479522 
L 86.584689 249.89803 
L 87.300361 248.952358 
L 88.016032 250.370866 
L 88.731703 249.425194 
L 89.447375 248.006687 
L 90.163046 250.370866 
L 90.878717 251.789373 
L 91.594389 250.370866 
L 92.31006 249.89803 
L 93.025731 253.680716 
L 94.457074 253.680716 
L 95.172745 254.153552 
L 95.888417 255.57206 
L 96.604088 253.680716 
L 97.31976 254.153552 
L 98.035431 254.153552 
L 98.751102 256.044896 
L 99.466774 254.153552 
L 100.182445 256.990567 
L 100.898116 256.044896 
L 101.613788 256.044896 
L 102.329459 254.626388 
L 103.760802 257.463403 
L 104.476473 257.936239 
L 105.192144 254.626388 
L 105.907816 256.990567 
L 106.623487 258.88191 
L 107.339158 257.936239 
L 108.05483 256.517731 
L 108.770501 256.990567 
L 109.486172 258.409075 
L 110.201844 258.88191 
L 110.917515 258.88191 
L 111.633186 259.827582 
L 112.348858 257.463403 
L 113.064529 259.827582 
L 113.7802 260.300418 
L 114.495872 259.354746 
L 115.211543 259.827582 
L 116.642886 261.718925 
L 117.358557 260.773254 
L 118.074228 259.354746 
L 118.7899 260.773254 
L 119.505571 261.718925 
L 120.221242 261.24609 
L 120.936914 262.664597 
L 121.652585 261.718925 
L 122.368257 262.191761 
L 123.799599 262.191761 
L 124.515271 262.664597 
L 125.230942 262.191761 
L 127.377956 262.191761 
L 128.809299 263.137433 
L 129.52497 261.718925 
L 130.240641 261.718925 
L 131.671984 262.664597 
L 132.387655 262.191761 
L 133.103327 262.664597 
L 133.818998 262.191761 
L 134.534669 263.137433 
L 135.250341 263.137433 
L 135.966012 262.191761 
L 136.681683 261.718925 
L 137.397355 262.664597 
L 138.113026 262.664597 
L 138.828697 263.137433 
L 139.544369 261.718925 
L 140.26004 261.24609 
L 140.975711 262.664597 
L 141.691383 262.191761 
L 142.407054 263.610269 
L 143.122725 263.610269 
L 143.838397 262.191761 
L 144.554068 262.191761 
L 145.269739 264.083104 
L 145.985411 262.664597 
L 146.701082 263.137433 
L 147.416754 262.664597 
L 148.132425 262.664597 
L 148.848096 263.610269 
L 149.563768 262.664597 
L 150.279439 263.137433 
L 151.710782 262.191761 
L 152.426453 263.137433 
L 153.142124 262.664597 
L 153.857796 262.664597 
L 154.573467 263.137433 
L 157.436152 263.137433 
L 158.151824 262.191761 
L 158.867495 263.610269 
L 159.583166 262.664597 
L 160.298838 262.191761 
L 161.014509 262.664597 
L 161.73018 263.610269 
L 163.161523 263.610269 
L 163.877194 263.137433 
L 164.592866 263.137433 
L 165.308537 263.610269 
L 166.024208 262.664597 
L 166.73988 262.191761 
L 167.455551 263.137433 
L 168.171222 261.718925 
L 168.886894 262.664597 
L 169.602565 263.137433 
L 170.318236 264.55594 
L 171.033908 263.137433 
L 171.749579 263.610269 
L 173.180922 262.664597 
L 173.896593 264.55594 
L 174.612265 263.137433 
L 175.327936 263.137433 
L 176.043607 262.191761 
L 176.759279 262.191761 
L 177.47495 263.137433 
L 178.190621 263.137433 
L 178.906293 264.55594 
L 179.621964 262.191761 
L 180.337635 263.610269 
L 181.053307 264.083104 
L 181.768978 262.664597 
L 182.484649 261.718925 
L 183.200321 264.083104 
L 183.915992 264.55594 
L 184.631663 262.664597 
L 185.347335 264.083104 
L 186.063006 261.718925 
L 186.778677 264.55594 
L 187.494349 262.664597 
L 188.21002 263.137433 
L 188.925691 265.028776 
L 189.641363 263.137433 
L 190.357034 262.664597 
L 191.072705 261.718925 
L 191.788377 262.664597 
L 192.504048 263.137433 
L 193.935391 262.191761 
L 194.651062 264.083104 
L 196.082405 264.083104 
L 196.798076 263.610269 
L 197.513747 262.191761 
L 198.229419 263.137433 
L 198.94509 262.191761 
L 201.092104 263.610269 
L 201.807776 263.610269 
L 202.523447 263.137433 
L 203.239118 264.55594 
L 203.95479 262.191761 
L 204.670461 263.137433 
L 205.386132 262.664597 
L 206.101804 263.137433 
L 206.817475 263.137433 
L 207.533146 262.664597 
L 208.248818 263.610269 
L 209.68016 262.664597 
L 210.395832 262.664597 
L 211.111503 264.55594 
L 211.827174 264.083104 
L 212.542846 263.137433 
L 213.258517 263.137433 
L 213.974188 260.773254 
L 214.68986 262.664597 
L 215.405531 262.664597 
L 216.121202 265.028776 
L 216.836874 262.664597 
L 217.552545 265.028776 
L 218.268216 262.191761 
L 218.983888 265.501612 
L 219.699559 262.664597 
L 220.41523 263.137433 
L 221.130902 263.137433 
L 223.277916 264.55594 
L 223.993587 263.610269 
L 224.709259 265.028776 
L 225.42493 263.137433 
L 226.856273 263.137433 
L 227.571944 265.028776 
L 228.287615 262.664597 
L 229.003287 266.447284 
L 229.718958 263.137433 
L 230.434629 265.501612 
L 231.150301 265.028776 
L 231.865972 265.028776 
L 232.581643 262.191761 
L 233.297315 263.137433 
L 234.012986 265.028776 
L 234.728657 262.191761 
L 236.16 263.137433 
L 236.875671 264.55594 
L 237.591343 263.610269 
L 238.307014 263.137433 
L 239.022685 261.718925 
L 239.738357 263.137433 
L 240.454028 265.028776 
L 241.169699 265.501612 
L 241.885371 265.028776 
L 242.601042 263.137433 
L 243.316713 265.028776 
L 244.748056 264.083104 
L 246.179399 262.191761 
L 247.610741 265.028776 
L 248.326413 262.664597 
L 249.042084 265.501612 
L 249.757756 265.028776 
L 250.473427 263.610269 
L 251.189098 264.55594 
L 251.90477 263.137433 
L 252.620441 265.501612 
L 253.336112 265.501612 
L 254.051784 263.610269 
L 254.767455 265.974448 
L 255.483126 264.55594 
L 256.198798 265.501612 
L 256.914469 263.610269 
L 257.63014 265.974448 
L 258.345812 264.55594 
L 259.061483 264.55594 
L 259.777154 262.664597 
L 260.492826 263.137433 
L 261.208497 263.137433 
L 261.924168 262.191761 
L 262.63984 263.610269 
L 263.355511 262.664597 
L 264.071182 264.55594 
L 264.786854 265.028776 
L 266.218196 263.137433 
L 266.933868 262.664597 
L 267.649539 265.028776 
L 268.36521 264.55594 
L 269.080882 261.718925 
L 269.796553 264.083104 
L 270.512224 264.55594 
L 271.227896 265.501612 
L 271.943567 263.610269 
L 272.659238 264.083104 
L 274.090581 263.137433 
L 275.521924 264.083104 
L 276.237595 263.610269 
L 276.953267 264.083104 
L 277.668938 265.028776 
L 278.384609 263.137433 
L 279.100281 263.137433 
L 279.815952 264.55594 
L 280.531623 263.610269 
L 281.247295 265.028776 
L 281.962966 263.610269 
L 282.678637 265.501612 
L 283.394309 265.974448 
L 284.10998 262.664597 
L 284.825651 263.610269 
L 285.541323 264.083104 
L 286.256994 264.083104 
L 286.972665 263.610269 
L 287.688337 264.55594 
L 288.404008 263.610269 
L 289.119679 261.718925 
L 289.835351 265.974448 
L 290.551022 265.028776 
L 291.266693 264.55594 
L 291.982365 262.664597 
L 292.698036 262.664597 
L 293.413707 264.55594 
L 294.129379 263.137433 
L 294.84505 263.137433 
L 295.560721 262.191761 
L 296.276393 265.501612 
L 296.992064 265.501612 
L 297.707735 263.137433 
L 298.423407 261.718925 
L 299.139078 264.083104 
L 299.854749 265.028776 
L 300.570421 265.028776 
L 301.286092 264.083104 
L 302.001764 262.664597 
L 302.717435 261.718925 
L 303.433106 264.55594 
L 304.148778 265.501612 
L 305.58012 264.55594 
L 306.295792 265.028776 
L 307.011463 264.55594 
L 307.727134 265.028776 
L 308.442806 262.191761 
L 309.158477 265.974448 
L 309.874148 266.447284 
L 310.58982 263.137433 
L 311.305491 262.664597 
L 312.021162 267.392955 
L 312.736834 264.083104 
L 313.452505 263.137433 
L 314.168176 265.028776 
L 314.883848 262.664597 
L 315.599519 262.664597 
L 316.31519 262.191761 
L 317.030862 264.083104 
L 317.746533 262.664597 
L 318.462204 266.447284 
L 319.177876 266.920119 
L 319.893547 264.55594 
L 321.32489 264.55594 
L 322.040561 263.610269 
L 322.756232 264.083104 
L 323.471904 264.083104 
L 324.187575 264.55594 
L 324.903246 265.974448 
L 325.618918 265.974448 
L 326.334589 262.664597 
L 327.050261 263.610269 
L 327.765932 264.083104 
L 328.481603 261.718925 
L 329.197275 262.664597 
L 329.912946 265.501612 
L 331.344289 264.55594 
L 332.05996 264.55594 
L 332.775631 266.447284 
L 333.491303 264.083104 
L 334.206974 264.55594 
L 334.922645 264.55594 
L 335.638317 264.083104 
L 336.353988 265.974448 
L 337.069659 264.55594 
L 337.785331 264.55594 
L 338.501002 263.610269 
L 339.216673 263.610269 
L 339.932345 265.028776 
L 340.648016 264.083104 
L 341.363687 265.974448 
L 342.079359 263.137433 
L 342.79503 265.028776 
L 343.510701 265.028776 
L 344.226373 263.137433 
L 344.942044 265.028776 
L 345.657715 263.610269 
L 346.373387 263.610269 
L 347.089058 265.501612 
L 347.804729 266.447284 
L 348.520401 264.55594 
L 349.236072 264.083104 
L 349.951743 264.55594 
L 350.667415 265.974448 
L 351.383086 264.083104 
L 352.098758 263.610269 
L 352.814429 262.664597 
L 353.5301 264.083104 
L 354.245772 263.610269 
L 354.961443 265.974448 
L 356.392786 265.028776 
L 357.108457 264.083104 
L 357.824128 264.55594 
L 358.5398 265.501612 
L 359.255471 264.55594 
L 359.971142 265.501612 
L 361.402485 264.55594 
L 362.118156 265.974448 
L 362.833828 266.447284 
L 363.549499 265.501612 
L 364.26517 265.974448 
L 364.980842 264.083104 
L 365.696513 265.028776 
L 367.843527 265.028776 
L 368.559198 264.55594 
L 369.27487 266.447284 
L 369.990541 264.55594 
L 370.706212 264.55594 
L 371.421884 265.501612 
L 372.137555 266.920119 
L 372.853226 265.501612 
L 373.568898 265.974448 
L 374.284569 262.664597 
L 375.00024 263.610269 
L 375.715912 265.028776 
L 376.431583 262.191761 
L 377.147255 265.028776 
L 377.862926 262.664597 
L 378.578597 264.083104 
L 379.294269 263.137433 
L 380.00994 264.083104 
L 380.725611 263.137433 
L 381.441283 264.083104 
L 382.156954 264.55594 
L 382.872625 265.501612 
L 384.303968 263.610269 
L 385.019639 265.974448 
L 385.735311 265.028776 
L 386.450982 264.55594 
L 387.166653 267.865791 
L 387.882325 264.083104 
L 389.313667 265.028776 
L 390.029339 264.55594 
L 390.74501 263.137433 
L 391.460681 265.028776 
L 392.176353 263.610269 
L 392.892024 261.718925 
L 393.607695 263.137433 
L 394.323367 265.028776 
L 395.039038 264.083104 
L 395.754709 262.191761 
L 396.470381 265.028776 
L 397.901723 264.083104 
L 398.617395 265.028776 
L 399.333066 266.447284 
L 400.048737 263.137433 
L 401.48008 265.974448 
L 402.195752 263.610269 
L 402.911423 265.501612 
L 403.627094 264.083104 
L 404.342766 266.920119 
L 405.774108 264.083104 
L 406.48978 265.501612 
L 407.205451 266.447284 
L 407.921122 261.718925 
L 408.636794 265.028776 
L 409.352465 263.137433 
L 410.068136 265.974448 
L 410.783808 265.501612 
L 411.499479 266.920119 
L 412.21515 263.610269 
L 412.930822 265.501612 
L 413.646493 265.028776 
L 414.362164 263.137433 
L 414.362164 263.137433 
" clip-path="url(#p085a09984a)" style="fill: none; stroke: #1f77b4; stroke-width: 2; stroke-linecap: square"/>
   </g>
   <g id="patch_3">
    <path d="M 57.6 307.584 
L 57.6 41.472 
" style="fill: none; stroke: #000000; stroke-width: 0.8; stroke-linejoin: miter; stroke-linecap: square"/>
   </g>
   <g id="patch_4">
    <path d="M 414.72 307.584 
L 414.72 41.472 
" style="fill: none; stroke: #000000; stroke-width: 0.8; stroke-linejoin: miter; stroke-linecap: square"/>
   </g>
   <g id="patch_5">
    <path d="M 57.6 307.584 
L 414.72 307.584 
" style="fill: none; stroke: #000000; stroke-width: 0.8; stroke-linejoin: miter; stroke-linecap: square"/>
   </g>
   <g id="patch_6">
    <path d="M 57.6 41.472 
L 414.72 41.472 
" style="fill: none; stroke: #000000; stroke-width: 0.8; stroke-linejoin: miter; stroke-linecap: square"/>
   </g>
  </g>
 </g>
 <defs>
  <clipPath id="p085a09984a">
   <rect x="57.6" y="41.472" width="357.12" height="266.112"/>
  </clipPath>
 </defs>
</svg>
