<?xml version="1.0" encoding="utf-8" standalone="no"?>
<!DOCTYPE svg PUBLIC "-//W3C//DTD SVG 1.1//EN"
  "http://www.w3.org/Graphics/SVG/1.1/DTD/svg11.dtd">
<svg xmlns:xlink="http://www.w3.org/1999/xlink" width="460.8pt" height="345.6pt" viewBox="0 0 460.8 345.6" xmlns="http://www.w3.org/2000/svg" version="1.1">
 <metadata>
  <rdf:RDF xmlns:dc="http://purl.org/dc/elements/1.1/" xmlns:cc="http://creativecommons.org/ns#" xmlns:rdf="http://www.w3.org/1999/02/22-rdf-syntax-ns#">
   <cc:Work>
    <dc:type rdf:resource="http://purl.org/dc/dcmitype/StillImage"/>
    <dc:date>2024-01-24T05:34:16.383231</dc:date>
    <dc:format>image/svg+xml</dc:format>
    <dc:creator>
     <cc:Agent>
      <dc:title>Matplotlib v3.7.0, https://matplotlib.org/</dc:title>
     </cc:Agent>
    </dc:creator>
   </cc:Work>
  </rdf:RDF>
 </metadata>
 <defs>
  <style type="text/css">*{stroke-linejoin: round; stroke-linecap: butt}</style>
 </defs>
 <g id="figure_1">
  <g id="patch_1">
   <path d="M 0 345.6 
L 460.8 345.6 
L 460.8 0 
L 0 0 
L 0 345.6 
z
" style="fill: none"/>
  </g>
  <g id="axes_1">
   <g id="patch_2">
    <path d="M 69.12 293.76 
L 437.76 293.76 
L 437.76 17.28 
L 69.12 17.28 
L 69.12 293.76 
z
" style="fill: none"/>
   </g>
   <g id="matplotlib.axis_1">
    <g id="xtick_1">
     <g id="line2d_1">
      <path d="M 69.12 293.76 
L 69.12 17.28 
" clip-path="url(#p670b14a726)" style="fill: none; stroke: #b0b0b0; stroke-width: 0.8; stroke-linecap: square"/>
     </g>
     <g id="line2d_2">
      <defs>
       <path id="m859299af16" d="M 0 0 
L 0 3.5 
" style="stroke: #000000; stroke-width: 0.8"/>
      </defs>
      <g>
       <use xlink:href="#m859299af16" x="69.12" y="293.76" style="stroke: #000000; stroke-width: 0.8"/>
      </g>
     </g>
     <g id="text_1">
      <!-- $\mathdefault{10^{0}}$ -->
      <g transform="translate(53.28 314.437187) scale(0.18 -0.18)">
       <defs>
        <path id="DejaVuSans-31" d="M 794 531 
L 1825 531 
L 1825 4091 
L 703 3866 
L 703 4441 
L 1819 4666 
L 2450 4666 
L 2450 531 
L 3481 531 
L 3481 0 
L 794 0 
L 794 531 
z
" transform="scale(0.015625)"/>
        <path id="DejaVuSans-30" d="M 2034 4250 
Q 1547 4250 1301 3770 
Q 1056 3291 1056 2328 
Q 1056 1369 1301 889 
Q 1547 409 2034 409 
Q 2525 409 2770 889 
Q 3016 1369 3016 2328 
Q 3016 3291 2770 3770 
Q 2525 4250 2034 4250 
z
M 2034 4750 
Q 2819 4750 3233 4129 
Q 3647 3509 3647 2328 
Q 3647 1150 3233 529 
Q 2819 -91 2034 -91 
Q 1250 -91 836 529 
Q 422 1150 422 2328 
Q 422 3509 836 4129 
Q 1250 4750 2034 4750 
z
" transform="scale(0.015625)"/>
       </defs>
       <use xlink:href="#DejaVuSans-31" transform="translate(0 0.765625)"/>
       <use xlink:href="#DejaVuSans-30" transform="translate(63.623047 0.765625)"/>
       <use xlink:href="#DejaVuSans-30" transform="translate(128.203125 39.046875) scale(0.7)"/>
      </g>
     </g>
    </g>
    <g id="xtick_2">
     <g id="line2d_3">
      <path d="M 177.603716 293.76 
L 177.603716 17.28 
" clip-path="url(#p670b14a726)" style="fill: none; stroke: #b0b0b0; stroke-width: 0.8; stroke-linecap: square"/>
     </g>
     <g id="line2d_4">
      <g>
       <use xlink:href="#m859299af16" x="177.603716" y="293.76" style="stroke: #000000; stroke-width: 0.8"/>
      </g>
     </g>
     <g id="text_2">
      <!-- $\mathdefault{10^{1}}$ -->
      <g transform="translate(161.763716 314.437187) scale(0.18 -0.18)">
       <use xlink:href="#DejaVuSans-31" transform="translate(0 0.684375)"/>
       <use xlink:href="#DejaVuSans-30" transform="translate(63.623047 0.684375)"/>
       <use xlink:href="#DejaVuSans-31" transform="translate(128.203125 38.965625) scale(0.7)"/>
      </g>
     </g>
    </g>
    <g id="xtick_3">
     <g id="line2d_5">
      <path d="M 286.087432 293.76 
L 286.087432 17.28 
" clip-path="url(#p670b14a726)" style="fill: none; stroke: #b0b0b0; stroke-width: 0.8; stroke-linecap: square"/>
     </g>
     <g id="line2d_6">
      <g>
       <use xlink:href="#m859299af16" x="286.087432" y="293.76" style="stroke: #000000; stroke-width: 0.8"/>
      </g>
     </g>
     <g id="text_3">
      <!-- $\mathdefault{10^{2}}$ -->
      <g transform="translate(270.247432 314.437187) scale(0.18 -0.18)">
       <defs>
        <path id="DejaVuSans-32" d="M 1228 531 
L 3431 531 
L 3431 0 
L 469 0 
L 469 531 
Q 828 903 1448 1529 
Q 2069 2156 2228 2338 
Q 2531 2678 2651 2914 
Q 2772 3150 2772 3378 
Q 2772 3750 2511 3984 
Q 2250 4219 1831 4219 
Q 1534 4219 1204 4116 
Q 875 4013 500 3803 
L 500 4441 
Q 881 4594 1212 4672 
Q 1544 4750 1819 4750 
Q 2544 4750 2975 4387 
Q 3406 4025 3406 3419 
Q 3406 3131 3298 2873 
Q 3191 2616 2906 2266 
Q 2828 2175 2409 1742 
Q 1991 1309 1228 531 
z
" transform="scale(0.015625)"/>
       </defs>
       <use xlink:href="#DejaVuSans-31" transform="translate(0 0.765625)"/>
       <use xlink:href="#DejaVuSans-30" transform="translate(63.623047 0.765625)"/>
       <use xlink:href="#DejaVuSans-32" transform="translate(128.203125 39.046875) scale(0.7)"/>
      </g>
     </g>
    </g>
    <g id="xtick_4">
     <g id="line2d_7">
      <path d="M 394.571147 293.76 
L 394.571147 17.28 
" clip-path="url(#p670b14a726)" style="fill: none; stroke: #b0b0b0; stroke-width: 0.8; stroke-linecap: square"/>
     </g>
     <g id="line2d_8">
      <g>
       <use xlink:href="#m859299af16" x="394.571147" y="293.76" style="stroke: #000000; stroke-width: 0.8"/>
      </g>
     </g>
     <g id="text_4">
      <!-- $\mathdefault{10^{3}}$ -->
      <g transform="translate(378.731147 314.437187) scale(0.18 -0.18)">
       <defs>
        <path id="DejaVuSans-33" d="M 2597 2516 
Q 3050 2419 3304 2112 
Q 3559 1806 3559 1356 
Q 3559 666 3084 287 
Q 2609 -91 1734 -91 
Q 1441 -91 1130 -33 
Q 819 25 488 141 
L 488 750 
Q 750 597 1062 519 
Q 1375 441 1716 441 
Q 2309 441 2620 675 
Q 2931 909 2931 1356 
Q 2931 1769 2642 2001 
Q 2353 2234 1838 2234 
L 1294 2234 
L 1294 2753 
L 1863 2753 
Q 2328 2753 2575 2939 
Q 2822 3125 2822 3475 
Q 2822 3834 2567 4026 
Q 2313 4219 1838 4219 
Q 1578 4219 1281 4162 
Q 984 4106 628 3988 
L 628 4550 
Q 988 4650 1302 4700 
Q 1616 4750 1894 4750 
Q 2613 4750 3031 4423 
Q 3450 4097 3450 3541 
Q 3450 3153 3228 2886 
Q 3006 2619 2597 2516 
z
" transform="scale(0.015625)"/>
       </defs>
       <use xlink:href="#DejaVuSans-31" transform="translate(0 0.765625)"/>
       <use xlink:href="#DejaVuSans-30" transform="translate(63.623047 0.765625)"/>
       <use xlink:href="#DejaVuSans-33" transform="translate(128.203125 39.046875) scale(0.7)"/>
      </g>
     </g>
    </g>
    <g id="xtick_5">
     <g id="line2d_9">
      <defs>
       <path id="ma5f4b5854f" d="M 0 0 
L 0 2 
" style="stroke: #000000; stroke-width: 0.6"/>
      </defs>
      <g>
       <use xlink:href="#ma5f4b5854f" x="101.776852" y="293.76" style="stroke: #000000; stroke-width: 0.6"/>
      </g>
     </g>
    </g>
    <g id="xtick_6">
     <g id="line2d_10">
      <g>
       <use xlink:href="#ma5f4b5854f" x="120.879887" y="293.76" style="stroke: #000000; stroke-width: 0.6"/>
      </g>
     </g>
    </g>
    <g id="xtick_7">
     <g id="line2d_11">
      <g>
       <use xlink:href="#ma5f4b5854f" x="134.433705" y="293.76" style="stroke: #000000; stroke-width: 0.6"/>
      </g>
     </g>
    </g>
    <g id="xtick_8">
     <g id="line2d_12">
      <g>
       <use xlink:href="#ma5f4b5854f" x="144.946863" y="293.76" style="stroke: #000000; stroke-width: 0.6"/>
      </g>
     </g>
    </g>
    <g id="xtick_9">
     <g id="line2d_13">
      <g>
       <use xlink:href="#ma5f4b5854f" x="153.536739" y="293.76" style="stroke: #000000; stroke-width: 0.6"/>
      </g>
     </g>
    </g>
    <g id="xtick_10">
     <g id="line2d_14">
      <g>
       <use xlink:href="#ma5f4b5854f" x="160.799376" y="293.76" style="stroke: #000000; stroke-width: 0.6"/>
      </g>
     </g>
    </g>
    <g id="xtick_11">
     <g id="line2d_15">
      <g>
       <use xlink:href="#ma5f4b5854f" x="167.090557" y="293.76" style="stroke: #000000; stroke-width: 0.6"/>
      </g>
     </g>
    </g>
    <g id="xtick_12">
     <g id="line2d_16">
      <g>
       <use xlink:href="#ma5f4b5854f" x="172.639773" y="293.76" style="stroke: #000000; stroke-width: 0.6"/>
      </g>
     </g>
    </g>
    <g id="xtick_13">
     <g id="line2d_17">
      <g>
       <use xlink:href="#ma5f4b5854f" x="210.260568" y="293.76" style="stroke: #000000; stroke-width: 0.6"/>
      </g>
     </g>
    </g>
    <g id="xtick_14">
     <g id="line2d_18">
      <g>
       <use xlink:href="#ma5f4b5854f" x="229.363602" y="293.76" style="stroke: #000000; stroke-width: 0.6"/>
      </g>
     </g>
    </g>
    <g id="xtick_15">
     <g id="line2d_19">
      <g>
       <use xlink:href="#ma5f4b5854f" x="242.917421" y="293.76" style="stroke: #000000; stroke-width: 0.6"/>
      </g>
     </g>
    </g>
    <g id="xtick_16">
     <g id="line2d_20">
      <g>
       <use xlink:href="#ma5f4b5854f" x="253.430579" y="293.76" style="stroke: #000000; stroke-width: 0.6"/>
      </g>
     </g>
    </g>
    <g id="xtick_17">
     <g id="line2d_21">
      <g>
       <use xlink:href="#ma5f4b5854f" x="262.020455" y="293.76" style="stroke: #000000; stroke-width: 0.6"/>
      </g>
     </g>
    </g>
    <g id="xtick_18">
     <g id="line2d_22">
      <g>
       <use xlink:href="#ma5f4b5854f" x="269.283091" y="293.76" style="stroke: #000000; stroke-width: 0.6"/>
      </g>
     </g>
    </g>
    <g id="xtick_19">
     <g id="line2d_23">
      <g>
       <use xlink:href="#ma5f4b5854f" x="275.574273" y="293.76" style="stroke: #000000; stroke-width: 0.6"/>
      </g>
     </g>
    </g>
    <g id="xtick_20">
     <g id="line2d_24">
      <g>
       <use xlink:href="#ma5f4b5854f" x="281.123489" y="293.76" style="stroke: #000000; stroke-width: 0.6"/>
      </g>
     </g>
    </g>
    <g id="xtick_21">
     <g id="line2d_25">
      <g>
       <use xlink:href="#ma5f4b5854f" x="318.744284" y="293.76" style="stroke: #000000; stroke-width: 0.6"/>
      </g>
     </g>
    </g>
    <g id="xtick_22">
     <g id="line2d_26">
      <g>
       <use xlink:href="#ma5f4b5854f" x="337.847318" y="293.76" style="stroke: #000000; stroke-width: 0.6"/>
      </g>
     </g>
    </g>
    <g id="xtick_23">
     <g id="line2d_27">
      <g>
       <use xlink:href="#ma5f4b5854f" x="351.401137" y="293.76" style="stroke: #000000; stroke-width: 0.6"/>
      </g>
     </g>
    </g>
    <g id="xtick_24">
     <g id="line2d_28">
      <g>
       <use xlink:href="#ma5f4b5854f" x="361.914295" y="293.76" style="stroke: #000000; stroke-width: 0.6"/>
      </g>
     </g>
    </g>
    <g id="xtick_25">
     <g id="line2d_29">
      <g>
       <use xlink:href="#ma5f4b5854f" x="370.504171" y="293.76" style="stroke: #000000; stroke-width: 0.6"/>
      </g>
     </g>
    </g>
    <g id="xtick_26">
     <g id="line2d_30">
      <g>
       <use xlink:href="#ma5f4b5854f" x="377.766807" y="293.76" style="stroke: #000000; stroke-width: 0.6"/>
      </g>
     </g>
    </g>
    <g id="xtick_27">
     <g id="line2d_31">
      <g>
       <use xlink:href="#ma5f4b5854f" x="384.057989" y="293.76" style="stroke: #000000; stroke-width: 0.6"/>
      </g>
     </g>
    </g>
    <g id="xtick_28">
     <g id="line2d_32">
      <g>
       <use xlink:href="#ma5f4b5854f" x="389.607205" y="293.76" style="stroke: #000000; stroke-width: 0.6"/>
      </g>
     </g>
    </g>
    <g id="xtick_29">
     <g id="line2d_33">
      <g>
       <use xlink:href="#ma5f4b5854f" x="427.228" y="293.76" style="stroke: #000000; stroke-width: 0.6"/>
      </g>
     </g>
    </g>
    <g id="text_5">
     <!-- PIM node -->
     <g transform="translate(212.270625 335.857812) scale(0.18 -0.18)">
      <defs>
       <path id="DejaVuSans-50" d="M 1259 4147 
L 1259 2394 
L 2053 2394 
Q 2494 2394 2734 2622 
Q 2975 2850 2975 3272 
Q 2975 3691 2734 3919 
Q 2494 4147 2053 4147 
L 1259 4147 
z
M 628 4666 
L 2053 4666 
Q 2838 4666 3239 4311 
Q 3641 3956 3641 3272 
Q 3641 2581 3239 2228 
Q 2838 1875 2053 1875 
L 1259 1875 
L 1259 0 
L 628 0 
L 628 4666 
z
" transform="scale(0.015625)"/>
       <path id="DejaVuSans-49" d="M 628 4666 
L 1259 4666 
L 1259 0 
L 628 0 
L 628 4666 
z
" transform="scale(0.015625)"/>
       <path id="DejaVuSans-4d" d="M 628 4666 
L 1569 4666 
L 2759 1491 
L 3956 4666 
L 4897 4666 
L 4897 0 
L 4281 0 
L 4281 4097 
L 3078 897 
L 2444 897 
L 1241 4097 
L 1241 0 
L 628 0 
L 628 4666 
z
" transform="scale(0.015625)"/>
       <path id="DejaVuSans-20" transform="scale(0.015625)"/>
       <path id="DejaVuSans-6e" d="M 3513 2113 
L 3513 0 
L 2938 0 
L 2938 2094 
Q 2938 2591 2744 2837 
Q 2550 3084 2163 3084 
Q 1697 3084 1428 2787 
Q 1159 2491 1159 1978 
L 1159 0 
L 581 0 
L 581 3500 
L 1159 3500 
L 1159 2956 
Q 1366 3272 1645 3428 
Q 1925 3584 2291 3584 
Q 2894 3584 3203 3211 
Q 3513 2838 3513 2113 
z
" transform="scale(0.015625)"/>
       <path id="DejaVuSans-6f" d="M 1959 3097 
Q 1497 3097 1228 2736 
Q 959 2375 959 1747 
Q 959 1119 1226 758 
Q 1494 397 1959 397 
Q 2419 397 2687 759 
Q 2956 1122 2956 1747 
Q 2956 2369 2687 2733 
Q 2419 3097 1959 3097 
z
M 1959 3584 
Q 2709 3584 3137 3096 
Q 3566 2609 3566 1747 
Q 3566 888 3137 398 
Q 2709 -91 1959 -91 
Q 1206 -91 779 398 
Q 353 888 353 1747 
Q 353 2609 779 3096 
Q 1206 3584 1959 3584 
z
" transform="scale(0.015625)"/>
       <path id="DejaVuSans-64" d="M 2906 2969 
L 2906 4863 
L 3481 4863 
L 3481 0 
L 2906 0 
L 2906 525 
Q 2725 213 2448 61 
Q 2172 -91 1784 -91 
Q 1150 -91 751 415 
Q 353 922 353 1747 
Q 353 2572 751 3078 
Q 1150 3584 1784 3584 
Q 2172 3584 2448 3432 
Q 2725 3281 2906 2969 
z
M 947 1747 
Q 947 1113 1208 752 
Q 1469 391 1925 391 
Q 2381 391 2643 752 
Q 2906 1113 2906 1747 
Q 2906 2381 2643 2742 
Q 2381 3103 1925 3103 
Q 1469 3103 1208 2742 
Q 947 2381 947 1747 
z
" transform="scale(0.015625)"/>
       <path id="DejaVuSans-65" d="M 3597 1894 
L 3597 1613 
L 953 1613 
Q 991 1019 1311 708 
Q 1631 397 2203 397 
Q 2534 397 2845 478 
Q 3156 559 3463 722 
L 3463 178 
Q 3153 47 2828 -22 
Q 2503 -91 2169 -91 
Q 1331 -91 842 396 
Q 353 884 353 1716 
Q 353 2575 817 3079 
Q 1281 3584 2069 3584 
Q 2775 3584 3186 3129 
Q 3597 2675 3597 1894 
z
M 3022 2063 
Q 3016 2534 2758 2815 
Q 2500 3097 2075 3097 
Q 1594 3097 1305 2825 
Q 1016 2553 972 2059 
L 3022 2063 
z
" transform="scale(0.015625)"/>
      </defs>
      <use xlink:href="#DejaVuSans-50"/>
      <use xlink:href="#DejaVuSans-49" x="60.302734"/>
      <use xlink:href="#DejaVuSans-4d" x="89.794922"/>
      <use xlink:href="#DejaVuSans-20" x="176.074219"/>
      <use xlink:href="#DejaVuSans-6e" x="207.861328"/>
      <use xlink:href="#DejaVuSans-6f" x="271.240234"/>
      <use xlink:href="#DejaVuSans-64" x="332.421875"/>
      <use xlink:href="#DejaVuSans-65" x="395.898438"/>
     </g>
    </g>
   </g>
   <g id="matplotlib.axis_2">
    <g id="ytick_1">
     <g id="line2d_34">
      <path d="M 69.12 248.064641 
L 437.76 248.064641 
" clip-path="url(#p670b14a726)" style="fill: none; stroke: #b0b0b0; stroke-width: 0.8; stroke-linecap: square"/>
     </g>
     <g id="line2d_35">
      <defs>
       <path id="mdc88df6ac9" d="M 0 0 
L -3.5 0 
" style="stroke: #000000; stroke-width: 0.8"/>
      </defs>
      <g>
       <use xlink:href="#mdc88df6ac9" x="69.12" y="248.064641" style="stroke: #000000; stroke-width: 0.8"/>
      </g>
     </g>
     <g id="text_6">
      <!-- 100 -->
      <g transform="translate(27.7625 254.903235) scale(0.18 -0.18)">
       <use xlink:href="#DejaVuSans-31"/>
       <use xlink:href="#DejaVuSans-30" x="63.623047"/>
       <use xlink:href="#DejaVuSans-30" x="127.246094"/>
      </g>
     </g>
    </g>
    <g id="ytick_2">
     <g id="line2d_36">
      <path d="M 69.12 201.907713 
L 437.76 201.907713 
" clip-path="url(#p670b14a726)" style="fill: none; stroke: #b0b0b0; stroke-width: 0.8; stroke-linecap: square"/>
     </g>
     <g id="line2d_37">
      <g>
       <use xlink:href="#mdc88df6ac9" x="69.12" y="201.907713" style="stroke: #000000; stroke-width: 0.8"/>
      </g>
     </g>
     <g id="text_7">
      <!-- 200 -->
      <g transform="translate(27.7625 208.746307) scale(0.18 -0.18)">
       <use xlink:href="#DejaVuSans-32"/>
       <use xlink:href="#DejaVuSans-30" x="63.623047"/>
       <use xlink:href="#DejaVuSans-30" x="127.246094"/>
      </g>
     </g>
    </g>
    <g id="ytick_3">
     <g id="line2d_38">
      <path d="M 69.12 155.750785 
L 437.76 155.750785 
" clip-path="url(#p670b14a726)" style="fill: none; stroke: #b0b0b0; stroke-width: 0.8; stroke-linecap: square"/>
     </g>
     <g id="line2d_39">
      <g>
       <use xlink:href="#mdc88df6ac9" x="69.12" y="155.750785" style="stroke: #000000; stroke-width: 0.8"/>
      </g>
     </g>
     <g id="text_8">
      <!-- 300 -->
      <g transform="translate(27.7625 162.589378) scale(0.18 -0.18)">
       <use xlink:href="#DejaVuSans-33"/>
       <use xlink:href="#DejaVuSans-30" x="63.623047"/>
       <use xlink:href="#DejaVuSans-30" x="127.246094"/>
      </g>
     </g>
    </g>
    <g id="ytick_4">
     <g id="line2d_40">
      <path d="M 69.12 109.593856 
L 437.76 109.593856 
" clip-path="url(#p670b14a726)" style="fill: none; stroke: #b0b0b0; stroke-width: 0.8; stroke-linecap: square"/>
     </g>
     <g id="line2d_41">
      <g>
       <use xlink:href="#mdc88df6ac9" x="69.12" y="109.593856" style="stroke: #000000; stroke-width: 0.8"/>
      </g>
     </g>
     <g id="text_9">
      <!-- 400 -->
      <g transform="translate(27.7625 116.43245) scale(0.18 -0.18)">
       <defs>
        <path id="DejaVuSans-34" d="M 2419 4116 
L 825 1625 
L 2419 1625 
L 2419 4116 
z
M 2253 4666 
L 3047 4666 
L 3047 1625 
L 3713 1625 
L 3713 1100 
L 3047 1100 
L 3047 0 
L 2419 0 
L 2419 1100 
L 313 1100 
L 313 1709 
L 2253 4666 
z
" transform="scale(0.015625)"/>
       </defs>
       <use xlink:href="#DejaVuSans-34"/>
       <use xlink:href="#DejaVuSans-30" x="63.623047"/>
       <use xlink:href="#DejaVuSans-30" x="127.246094"/>
      </g>
     </g>
    </g>
    <g id="ytick_5">
     <g id="line2d_42">
      <path d="M 69.12 63.436928 
L 437.76 63.436928 
" clip-path="url(#p670b14a726)" style="fill: none; stroke: #b0b0b0; stroke-width: 0.8; stroke-linecap: square"/>
     </g>
     <g id="line2d_43">
      <g>
       <use xlink:href="#mdc88df6ac9" x="69.12" y="63.436928" style="stroke: #000000; stroke-width: 0.8"/>
      </g>
     </g>
     <g id="text_10">
      <!-- 500 -->
      <g transform="translate(27.7625 70.275522) scale(0.18 -0.18)">
       <defs>
        <path id="DejaVuSans-35" d="M 691 4666 
L 3169 4666 
L 3169 4134 
L 1269 4134 
L 1269 2991 
Q 1406 3038 1543 3061 
Q 1681 3084 1819 3084 
Q 2600 3084 3056 2656 
Q 3513 2228 3513 1497 
Q 3513 744 3044 326 
Q 2575 -91 1722 -91 
Q 1428 -91 1123 -41 
Q 819 9 494 109 
L 494 744 
Q 775 591 1075 516 
Q 1375 441 1709 441 
Q 2250 441 2565 725 
Q 2881 1009 2881 1497 
Q 2881 1984 2565 2268 
Q 2250 2553 1709 2553 
Q 1456 2553 1204 2497 
Q 953 2441 691 2322 
L 691 4666 
z
" transform="scale(0.015625)"/>
       </defs>
       <use xlink:href="#DejaVuSans-35"/>
       <use xlink:href="#DejaVuSans-30" x="63.623047"/>
       <use xlink:href="#DejaVuSans-30" x="127.246094"/>
      </g>
     </g>
    </g>
    <g id="ytick_6">
     <g id="line2d_44">
      <path d="M 69.12 17.28 
L 437.76 17.28 
" clip-path="url(#p670b14a726)" style="fill: none; stroke: #b0b0b0; stroke-width: 0.8; stroke-linecap: square"/>
     </g>
     <g id="line2d_45">
      <g>
       <use xlink:href="#mdc88df6ac9" x="69.12" y="17.28" style="stroke: #000000; stroke-width: 0.8"/>
      </g>
     </g>
     <g id="text_11">
      <!-- 600 -->
      <g transform="translate(27.7625 24.118594) scale(0.18 -0.18)">
       <defs>
        <path id="DejaVuSans-36" d="M 2113 2584 
Q 1688 2584 1439 2293 
Q 1191 2003 1191 1497 
Q 1191 994 1439 701 
Q 1688 409 2113 409 
Q 2538 409 2786 701 
Q 3034 994 3034 1497 
Q 3034 2003 2786 2293 
Q 2538 2584 2113 2584 
z
M 3366 4563 
L 3366 3988 
Q 3128 4100 2886 4159 
Q 2644 4219 2406 4219 
Q 1781 4219 1451 3797 
Q 1122 3375 1075 2522 
Q 1259 2794 1537 2939 
Q 1816 3084 2150 3084 
Q 2853 3084 3261 2657 
Q 3669 2231 3669 1497 
Q 3669 778 3244 343 
Q 2819 -91 2113 -91 
Q 1303 -91 875 529 
Q 447 1150 447 2328 
Q 447 3434 972 4092 
Q 1497 4750 2381 4750 
Q 2619 4750 2861 4703 
Q 3103 4656 3366 4563 
z
" transform="scale(0.015625)"/>
       </defs>
       <use xlink:href="#DejaVuSans-36"/>
       <use xlink:href="#DejaVuSans-30" x="63.623047"/>
       <use xlink:href="#DejaVuSans-30" x="127.246094"/>
      </g>
     </g>
    </g>
    <g id="ytick_7">
     <g id="line2d_46">
      <path d="M 69.12 275.758798 
L 437.76 275.758798 
" clip-path="url(#p670b14a726)" style="fill: none; stroke: #b0b0b0; stroke-width: 0.8; stroke-linecap: square"/>
     </g>
     <g id="line2d_47">
      <g>
       <use xlink:href="#mdc88df6ac9" x="69.12" y="275.758798" style="stroke: #000000; stroke-width: 0.8"/>
      </g>
     </g>
     <g id="text_12">
      <!-- 40 -->
      <g transform="translate(39.215 282.597392) scale(0.18 -0.18)">
       <use xlink:href="#DejaVuSans-34"/>
       <use xlink:href="#DejaVuSans-30" x="63.623047"/>
      </g>
     </g>
    </g>
    <g id="text_13">
     <!-- number of queries -->
     <g transform="translate(20.019063 238.422656) rotate(-90) scale(0.18 -0.18)">
      <defs>
       <path id="DejaVuSans-75" d="M 544 1381 
L 544 3500 
L 1119 3500 
L 1119 1403 
Q 1119 906 1312 657 
Q 1506 409 1894 409 
Q 2359 409 2629 706 
Q 2900 1003 2900 1516 
L 2900 3500 
L 3475 3500 
L 3475 0 
L 2900 0 
L 2900 538 
Q 2691 219 2414 64 
Q 2138 -91 1772 -91 
Q 1169 -91 856 284 
Q 544 659 544 1381 
z
M 1991 3584 
L 1991 3584 
z
" transform="scale(0.015625)"/>
       <path id="DejaVuSans-6d" d="M 3328 2828 
Q 3544 3216 3844 3400 
Q 4144 3584 4550 3584 
Q 5097 3584 5394 3201 
Q 5691 2819 5691 2113 
L 5691 0 
L 5113 0 
L 5113 2094 
Q 5113 2597 4934 2840 
Q 4756 3084 4391 3084 
Q 3944 3084 3684 2787 
Q 3425 2491 3425 1978 
L 3425 0 
L 2847 0 
L 2847 2094 
Q 2847 2600 2669 2842 
Q 2491 3084 2119 3084 
Q 1678 3084 1418 2786 
Q 1159 2488 1159 1978 
L 1159 0 
L 581 0 
L 581 3500 
L 1159 3500 
L 1159 2956 
Q 1356 3278 1631 3431 
Q 1906 3584 2284 3584 
Q 2666 3584 2933 3390 
Q 3200 3197 3328 2828 
z
" transform="scale(0.015625)"/>
       <path id="DejaVuSans-62" d="M 3116 1747 
Q 3116 2381 2855 2742 
Q 2594 3103 2138 3103 
Q 1681 3103 1420 2742 
Q 1159 2381 1159 1747 
Q 1159 1113 1420 752 
Q 1681 391 2138 391 
Q 2594 391 2855 752 
Q 3116 1113 3116 1747 
z
M 1159 2969 
Q 1341 3281 1617 3432 
Q 1894 3584 2278 3584 
Q 2916 3584 3314 3078 
Q 3713 2572 3713 1747 
Q 3713 922 3314 415 
Q 2916 -91 2278 -91 
Q 1894 -91 1617 61 
Q 1341 213 1159 525 
L 1159 0 
L 581 0 
L 581 4863 
L 1159 4863 
L 1159 2969 
z
" transform="scale(0.015625)"/>
       <path id="DejaVuSans-72" d="M 2631 2963 
Q 2534 3019 2420 3045 
Q 2306 3072 2169 3072 
Q 1681 3072 1420 2755 
Q 1159 2438 1159 1844 
L 1159 0 
L 581 0 
L 581 3500 
L 1159 3500 
L 1159 2956 
Q 1341 3275 1631 3429 
Q 1922 3584 2338 3584 
Q 2397 3584 2469 3576 
Q 2541 3569 2628 3553 
L 2631 2963 
z
" transform="scale(0.015625)"/>
       <path id="DejaVuSans-66" d="M 2375 4863 
L 2375 4384 
L 1825 4384 
Q 1516 4384 1395 4259 
Q 1275 4134 1275 3809 
L 1275 3500 
L 2222 3500 
L 2222 3053 
L 1275 3053 
L 1275 0 
L 697 0 
L 697 3053 
L 147 3053 
L 147 3500 
L 697 3500 
L 697 3744 
Q 697 4328 969 4595 
Q 1241 4863 1831 4863 
L 2375 4863 
z
" transform="scale(0.015625)"/>
       <path id="DejaVuSans-71" d="M 947 1747 
Q 947 1113 1208 752 
Q 1469 391 1925 391 
Q 2381 391 2643 752 
Q 2906 1113 2906 1747 
Q 2906 2381 2643 2742 
Q 2381 3103 1925 3103 
Q 1469 3103 1208 2742 
Q 947 2381 947 1747 
z
M 2906 525 
Q 2725 213 2448 61 
Q 2172 -91 1784 -91 
Q 1150 -91 751 415 
Q 353 922 353 1747 
Q 353 2572 751 3078 
Q 1150 3584 1784 3584 
Q 2172 3584 2448 3432 
Q 2725 3281 2906 2969 
L 2906 3500 
L 3481 3500 
L 3481 -1331 
L 2906 -1331 
L 2906 525 
z
" transform="scale(0.015625)"/>
       <path id="DejaVuSans-69" d="M 603 3500 
L 1178 3500 
L 1178 0 
L 603 0 
L 603 3500 
z
M 603 4863 
L 1178 4863 
L 1178 4134 
L 603 4134 
L 603 4863 
z
" transform="scale(0.015625)"/>
       <path id="DejaVuSans-73" d="M 2834 3397 
L 2834 2853 
Q 2591 2978 2328 3040 
Q 2066 3103 1784 3103 
Q 1356 3103 1142 2972 
Q 928 2841 928 2578 
Q 928 2378 1081 2264 
Q 1234 2150 1697 2047 
L 1894 2003 
Q 2506 1872 2764 1633 
Q 3022 1394 3022 966 
Q 3022 478 2636 193 
Q 2250 -91 1575 -91 
Q 1294 -91 989 -36 
Q 684 19 347 128 
L 347 722 
Q 666 556 975 473 
Q 1284 391 1588 391 
Q 1994 391 2212 530 
Q 2431 669 2431 922 
Q 2431 1156 2273 1281 
Q 2116 1406 1581 1522 
L 1381 1569 
Q 847 1681 609 1914 
Q 372 2147 372 2553 
Q 372 3047 722 3315 
Q 1072 3584 1716 3584 
Q 2034 3584 2315 3537 
Q 2597 3491 2834 3397 
z
" transform="scale(0.015625)"/>
      </defs>
      <use xlink:href="#DejaVuSans-6e"/>
      <use xlink:href="#DejaVuSans-75" x="63.378906"/>
      <use xlink:href="#DejaVuSans-6d" x="126.757812"/>
      <use xlink:href="#DejaVuSans-62" x="224.169922"/>
      <use xlink:href="#DejaVuSans-65" x="287.646484"/>
      <use xlink:href="#DejaVuSans-72" x="349.169922"/>
      <use xlink:href="#DejaVuSans-20" x="390.283203"/>
      <use xlink:href="#DejaVuSans-6f" x="422.070312"/>
      <use xlink:href="#DejaVuSans-66" x="483.251953"/>
      <use xlink:href="#DejaVuSans-20" x="518.457031"/>
      <use xlink:href="#DejaVuSans-71" x="550.244141"/>
      <use xlink:href="#DejaVuSans-75" x="613.720703"/>
      <use xlink:href="#DejaVuSans-65" x="677.099609"/>
      <use xlink:href="#DejaVuSans-72" x="738.623047"/>
      <use xlink:href="#DejaVuSans-69" x="779.736328"/>
      <use xlink:href="#DejaVuSans-65" x="807.519531"/>
      <use xlink:href="#DejaVuSans-73" x="869.042969"/>
     </g>
    </g>
   </g>
   <g id="line2d_48">
    <path d="M 69.12 22.357262 
L 101.776852 108.209149 
L 120.879887 119.286811 
L 134.433705 133.13389 
L 144.946863 164.98217 
L 153.536739 171.90571 
L 160.799376 181.137095 
L 167.090557 181.598664 
L 172.639773 194.984174 
L 182.094148 195.907312 
L 186.193592 198.215159 
L 189.964714 199.599866 
L 193.456228 206.061836 
L 196.70675 208.831252 
L 199.74741 209.754391 
L 202.603671 210.21596 
L 205.296626 210.21596 
L 207.843942 212.523806 
L 210.260568 213.446945 
L 212.559262 215.293222 
L 214.751001 215.754791 
L 216.845296 217.601068 
L 220.773727 222.216761 
L 222.621567 222.678331 
L 224.39966 224.524608 
L 226.113081 226.832454 
L 229.363602 227.755593 
L 230.908458 227.755593 
L 232.404262 228.678731 
L 233.854035 229.140301 
L 235.260524 229.140301 
L 236.626239 229.60187 
L 237.953478 230.986578 
L 239.24435 232.832855 
L 240.500795 234.217563 
L 241.724601 234.217563 
L 242.917421 235.60227 
L 244.080786 236.06384 
L 245.216115 236.986978 
L 246.324728 236.986978 
L 247.407853 238.371686 
L 249.502148 238.371686 
L 253.430579 240.217963 
L 254.363558 242.06424 
L 255.278419 242.06424 
L 256.175853 242.987379 
L 257.056512 242.987379 
L 257.921011 243.448948 
L 258.769933 243.448948 
L 259.603829 243.910518 
L 262.020455 243.910518 
L 262.799214 244.372087 
L 265.061115 244.372087 
L 267.21938 245.756795 
L 267.917376 245.756795 
L 268.605182 246.218364 
L 269.283091 246.218364 
L 269.951385 247.141503 
L 270.610331 247.603072 
L 271.901203 247.603072 
L 272.533613 248.52621 
L 273.157647 248.52621 
L 273.773524 248.98778 
L 276.737638 248.98778 
L 277.308722 249.449349 
L 278.430534 249.449349 
L 279.526255 250.372487 
L 280.597071 250.372487 
L 281.123489 250.834057 
L 282.159001 250.834057 
L 282.668345 251.295626 
L 284.164149 251.295626 
L 284.65238 251.757195 
L 286.55623 251.757195 
L 287.02041 252.218765 
L 287.480061 252.218765 
L 287.935272 252.680334 
L 288.832706 252.680334 
L 289.275093 253.141903 
L 290.577864 253.141903 
L 291.004237 253.603472 
L 291.845578 253.603472 
L 292.260681 254.065042 
L 292.672159 254.065042 
L 293.080074 254.526611 
L 293.885459 254.526611 
L 294.283047 254.98818 
L 294.677307 254.98818 
L 295.068296 255.44975 
L 296.976001 255.44975 
L 297.348445 255.911319 
L 298.084614 255.911319 
L 298.44843 256.372888 
L 298.809458 256.372888 
L 299.16774 256.834457 
L 299.876232 256.834457 
L 300.226523 257.296027 
L 301.262035 257.296027 
L 301.602209 257.757596 
L 302.608237 257.757596 
L 302.938862 258.219165 
L 304.558055 258.219165 
L 304.875322 258.680735 
L 305.190466 258.680735 
L 305.503516 259.142304 
L 306.735321 259.142304 
L 307.038306 259.603873 
L 307.339354 259.603873 
L 307.638491 260.065442 
L 309.394491 260.065442 
L 309.680898 260.527012 
L 310.248542 260.527012 
L 310.52982 260.988581 
L 312.721558 260.988581 
L 312.988493 261.45015 
L 313.517868 261.45015 
L 313.780342 261.91172 
L 314.815853 261.91172 
L 315.071213 262.373289 
L 317.06575 262.373289 
L 317.309233 262.834858 
L 318.032222 262.834858 
L 318.270774 263.296427 
L 320.136914 263.296427 
L 320.365069 263.757997 
L 322.370217 263.757997 
L 322.587834 264.219566 
L 323.872837 264.219566 
L 324.083638 264.681135 
L 325.53341 264.681135 
L 325.736926 265.142705 
L 326.741525 265.142705 
L 326.939899 265.604274 
L 328.112919 265.604274 
L 328.305615 266.065843 
L 330.37482 266.065843 
L 330.5585 266.527412 
L 332.18017 266.527412 
L 332.356958 266.988982 
L 334.259061 266.988982 
L 334.428231 267.450551 
L 337.214908 267.450551 
L 337.373808 267.91212 
L 339.54391 267.91212 
L 339.695158 268.373689 
L 341.763184 268.373689 
L 341.907484 268.835259 
L 344.158127 268.835259 
L 344.295285 269.296828 
L 346.30614 269.296828 
L 346.437194 269.758397 
L 348.611083 269.758397 
L 348.735888 270.219967 
L 351.164976 270.219967 
L 351.283204 270.681536 
L 352.907982 270.681536 
L 353.135586 271.143105 
L 355.353119 271.143105 
L 355.569238 271.604674 
L 358.292131 271.604674 
L 358.495208 272.066244 
L 360.576286 272.066244 
L 360.769772 272.527813 
L 363.031672 272.527813 
L 363.215353 272.989382 
L 366.147039 272.989382 
L 366.318988 273.450952 
L 368.417014 273.450952 
L 368.580888 273.912521 
L 371.205631 273.912521 
L 371.360103 274.37409 
L 373.838376 274.37409 
L 373.984466 274.835659 
L 376.262317 274.835659 
L 376.401092 275.297229 
L 379.289946 275.297229 
L 379.420095 275.758798 
L 382.562185 275.758798 
L 382.683612 276.220367 
L 385.393407 276.220367 
L 385.507761 276.681937 
L 389.292061 276.681937 
L 389.449896 277.143506 
L 392.598762 277.143506 
L 392.745917 277.605075 
L 395.411655 277.605075 
L 395.550293 278.066644 
L 398.674517 278.066644 
L 398.803891 278.528214 
L 402.727154 278.528214 
L 402.845879 278.989783 
L 406.67777 278.989783 
L 406.823296 279.451352 
L 409.60899 279.451352 
L 409.74575 279.912922 
L 412.23913 279.912922 
L 412.368475 280.374491 
L 415.522021 280.374491 
L 415.642672 280.83606 
L 418.929328 280.83606 
L 419.041571 281.297629 
L 421.684673 281.297629 
L 421.816978 281.759199 
L 424.662358 281.759199 
L 424.786571 282.220768 
L 427.228 282.220768 
L 427.345638 282.682337 
L 429.12112 282.682337 
L 429.23413 283.143907 
L 431.179982 283.143907 
L 431.309772 283.605476 
L 432.860899 283.605476 
L 432.986147 284.067045 
L 434.220642 284.067045 
L 434.342331 284.528614 
L 435.08588 284.528614 
L 435.205357 284.990184 
L 435.817876 284.990184 
L 435.935513 285.451753 
L 436.44191 285.451753 
L 436.558001 285.913322 
L 437.000389 285.913322 
L 437.115114 286.374891 
L 437.28668 286.374891 
L 437.400711 286.836461 
L 437.43866 286.836461 
L 437.571242 287.759599 
L 437.684588 287.759599 
L 437.741158 288.221169 
L 437.741158 288.221169 
" clip-path="url(#p670b14a726)" style="fill: none; stroke: #800000; stroke-width: 3; stroke-linecap: square"/>
   </g>
   <g id="line2d_49">
    <path d="M 69.12 117.902104 
L 101.776852 127.133489 
L 120.879887 127.595058 
L 134.433705 134.057028 
L 144.946863 148.827245 
L 153.536739 173.751987 
L 160.799376 177.90611 
L 167.090557 185.752788 
L 172.639773 186.214357 
L 177.603716 192.676327 
L 182.094148 197.753589 
L 189.964714 198.676728 
L 193.456228 199.599866 
L 196.70675 204.215559 
L 199.74741 206.984975 
L 202.603671 209.754391 
L 205.296626 211.600668 
L 207.843942 215.293222 
L 210.260568 218.062638 
L 214.751001 219.908915 
L 218.850444 222.678331 
L 222.621567 223.601469 
L 227.766369 226.370885 
L 229.363602 226.370885 
L 232.404262 228.217162 
L 233.854035 228.678731 
L 235.260524 231.448147 
L 236.626239 232.371285 
L 237.953478 232.832855 
L 239.24435 233.755993 
L 240.500795 233.755993 
L 241.724601 235.60227 
L 242.917421 236.06384 
L 244.080786 236.986978 
L 245.216115 237.448548 
L 246.324728 237.448548 
L 247.407853 239.756394 
L 248.466637 239.756394 
L 253.430579 242.06424 
L 256.175853 242.06424 
L 257.056512 242.52581 
L 257.921011 242.52581 
L 258.769933 242.987379 
L 259.603829 242.987379 
L 262.020455 244.372087 
L 264.319149 244.372087 
L 265.061115 244.833656 
L 265.791577 245.756795 
L 267.21938 246.679933 
L 267.917376 246.679933 
L 269.283091 247.603072 
L 270.610331 247.603072 
L 271.260188 248.064641 
L 274.381453 248.064641 
L 274.981638 248.52621 
L 275.574273 248.52621 
L 276.159546 248.98778 
L 277.872967 248.98778 
L 278.430534 249.449349 
L 278.98158 249.449349 
L 279.526255 250.372487 
L 280.064706 250.372487 
L 281.123489 251.295626 
L 281.64409 251.295626 
L 282.159001 251.757195 
L 282.668345 251.757195 
L 283.172241 252.218765 
L 284.164149 252.218765 
L 284.65238 252.680334 
L 285.135604 252.680334 
L 285.613921 253.141903 
L 287.480061 253.141903 
L 287.935272 253.603472 
L 289.275093 253.603472 
L 290.147597 254.526611 
L 292.260681 254.526611 
L 292.672159 254.98818 
L 293.885459 254.98818 
L 294.283047 255.44975 
L 295.068296 255.44975 
L 295.456067 255.911319 
L 296.976001 255.911319 
L 297.348445 256.372888 
L 298.084614 256.372888 
L 298.44843 256.834457 
L 299.876232 256.834457 
L 300.226523 257.296027 
L 301.262035 257.296027 
L 301.602209 257.757596 
L 302.938862 257.757596 
L 303.267183 258.219165 
L 304.238638 258.219165 
L 304.558055 258.680735 
L 305.503516 258.680735 
L 305.8145 259.142304 
L 307.038306 259.142304 
L 307.339354 259.603873 
L 309.680898 259.603873 
L 309.965575 260.065442 
L 310.809428 260.065442 
L 311.087387 260.527012 
L 311.638433 260.527012 
L 311.911557 260.988581 
L 313.517868 260.988581 
L 313.780342 261.45015 
L 315.325197 261.45015 
L 315.577819 261.91172 
L 317.309233 261.91172 
L 317.551464 262.373289 
L 318.032222 262.373289 
L 318.270774 262.834858 
L 319.445744 262.834858 
L 319.677263 263.296427 
L 321.489558 263.296427 
L 321.711271 263.757997 
L 323.234716 263.757997 
L 323.448385 264.219566 
L 324.917534 264.219566 
L 325.123722 264.681135 
L 326.939899 264.681135 
L 327.137442 265.142705 
L 329.257442 265.142705 
L 329.445522 265.604274 
L 330.5585 265.604274 
L 330.741467 266.065843 
L 332.533085 266.065843 
L 332.708556 266.527412 
L 334.932128 266.527412 
L 335.098903 266.988982 
L 337.05547 266.988982 
L 337.214908 267.450551 
L 338.471352 267.450551 
L 338.626078 267.91212 
L 340.887978 267.91212 
L 341.03498 268.373689 
L 343.466281 268.373689 
L 343.605465 268.835259 
L 344.975151 268.835259 
L 345.109955 269.296828 
L 346.828183 269.296828 
L 346.957795 269.758397 
L 349.600387 269.758397 
L 349.722602 270.219967 
L 351.636119 270.219967 
L 351.753172 270.681536 
L 354.035162 270.681536 
L 354.257398 271.143105 
L 356.317942 271.143105 
L 356.52969 271.604674 
L 358.495208 271.604674 
L 358.697414 272.066244 
L 360.769772 272.066244 
L 360.962467 272.527813 
L 362.939563 272.527813 
L 363.123602 272.989382 
L 366.404727 272.989382 
L 366.57574 273.450952 
L 369.150001 273.450952 
L 369.311351 273.912521 
L 370.739153 273.912521 
L 370.895159 274.37409 
L 374.057341 274.37409 
L 374.202754 274.835659 
L 377.15713 274.835659 
L 377.293297 275.297229 
L 380.001357 275.297229 
L 380.129558 275.758798 
L 382.925533 275.758798 
L 383.046029 276.220367 
L 386.580502 276.220367 
L 386.747672 276.681937 
L 390.437427 276.681937 
L 390.591478 277.143506 
L 392.990157 277.143506 
L 393.136096 277.605075 
L 396.554697 277.605075 
L 396.690017 278.066644 
L 399.741936 278.066644 
L 399.868417 278.528214 
L 402.409085 278.528214 
L 402.528613 278.989783 
L 405.646307 278.989783 
L 405.757907 279.451352 
L 408.988608 279.451352 
L 409.127179 279.912922 
L 412.593978 279.912922 
L 412.722354 280.374491 
L 415.642672 280.374491 
L 415.763014 280.83606 
L 418.562682 280.83606 
L 418.6758 281.297629 
L 421.498819 281.297629 
L 421.631647 281.759199 
L 424.462934 281.759199 
L 424.587673 282.220768 
L 426.873314 282.220768 
L 426.99184 282.682337 
L 429.34687 282.682337 
L 429.45934 283.143907 
L 431.568285 283.143907 
L 431.697012 283.605476 
L 433.297816 283.605476 
L 433.421909 284.067045 
L 434.281526 284.067045 
L 434.403058 284.528614 
L 435.324532 284.528614 
L 435.443407 284.990184 
L 436.013776 284.990184 
L 436.130926 285.451753 
L 436.499991 285.451753 
L 436.61594 285.913322 
L 436.866188 285.913322 
L 436.98124 286.374891 
L 437.153294 286.374891 
L 437.267648 286.836461 
L 437.495527 286.836461 
L 437.609054 287.29803 
L 437.646836 287.29803 
L 437.741158 289.144307 
L 437.741158 289.144307 
" clip-path="url(#p670b14a726)" style="fill: none; stroke: #a52a2a; stroke-width: 3; stroke-linecap: square"/>
   </g>
   <g id="line2d_50">
    <path d="M 69.12 127.133489 
L 101.776852 129.441336 
L 120.879887 146.980968 
L 134.433705 147.904107 
L 144.946863 153.904508 
L 153.536739 164.520601 
L 160.799376 175.598264 
L 167.090557 176.521402 
L 172.639773 183.906511 
L 177.603716 193.599466 
L 182.094148 197.753589 
L 186.193592 200.984574 
L 189.964714 201.446144 
L 193.456228 204.215559 
L 196.70675 206.061836 
L 199.74741 208.831252 
L 202.603671 209.754391 
L 205.296626 210.21596 
L 207.843942 218.524207 
L 210.260568 218.524207 
L 212.559262 220.832053 
L 214.751001 220.832053 
L 216.845296 224.524608 
L 220.773727 224.524608 
L 222.621567 225.447746 
L 224.39966 226.832454 
L 226.113081 228.678731 
L 227.766369 231.448147 
L 229.363602 231.909716 
L 232.404262 231.909716 
L 233.854035 232.371285 
L 235.260524 233.294424 
L 237.953478 233.294424 
L 239.24435 234.679132 
L 241.724601 234.679132 
L 244.080786 235.60227 
L 245.216115 237.448548 
L 247.407853 238.371686 
L 248.466637 238.371686 
L 249.502148 240.217963 
L 250.515389 240.217963 
L 251.507297 240.679533 
L 253.430579 240.679533 
L 254.363558 241.141102 
L 255.278419 242.06424 
L 256.175853 242.06424 
L 257.056512 242.52581 
L 257.921011 242.52581 
L 258.769933 243.448948 
L 259.603829 243.448948 
L 260.423221 243.910518 
L 262.020455 243.910518 
L 262.799214 244.833656 
L 264.319149 244.833656 
L 265.791577 246.679933 
L 266.510887 246.679933 
L 267.21938 247.141503 
L 267.917376 247.141503 
L 269.283091 248.064641 
L 269.951385 248.064641 
L 271.901203 249.449349 
L 273.157647 249.449349 
L 273.773524 249.910918 
L 274.981638 249.910918 
L 275.574273 250.372487 
L 276.159546 250.372487 
L 276.737638 251.295626 
L 278.430534 251.295626 
L 278.98158 251.757195 
L 279.526255 251.757195 
L 280.064706 252.218765 
L 280.597071 252.218765 
L 281.123489 252.680334 
L 281.64409 252.680334 
L 282.159001 253.141903 
L 282.668345 253.141903 
L 283.172241 253.603472 
L 285.135604 253.603472 
L 285.613921 254.065042 
L 286.55623 254.065042 
L 287.02041 254.98818 
L 288.832706 254.98818 
L 289.275093 255.44975 
L 291.426786 255.44975 
L 291.845578 255.911319 
L 292.672159 255.911319 
L 293.080074 256.372888 
L 294.283047 256.372888 
L 294.677307 256.834457 
L 296.222163 256.834457 
L 296.60059 257.296027 
L 297.717967 257.296027 
L 298.084614 257.757596 
L 300.226523 257.757596 
L 300.574229 258.219165 
L 301.939944 258.219165 
L 302.275275 258.680735 
L 303.91704 258.680735 
L 304.238638 259.142304 
L 305.190466 259.142304 
L 305.503516 259.603873 
L 306.735321 259.603873 
L 307.038306 260.065442 
L 309.965575 260.065442 
L 310.248542 260.527012 
L 311.087387 260.527012 
L 311.363715 260.988581 
L 312.453102 260.988581 
L 312.721558 261.45015 
L 314.300942 261.45015 
L 314.559101 261.91172 
L 316.821002 261.91172 
L 317.06575 262.373289 
L 318.979267 262.373289 
L 319.213083 262.834858 
L 321.489558 262.834858 
L 321.711271 263.296427 
L 322.587834 263.296427 
L 322.80445 263.757997 
L 324.083638 263.757997 
L 324.2935 264.219566 
L 325.53341 264.219566 
L 325.736926 264.681135 
L 327.137442 264.681135 
L 327.33416 265.142705 
L 328.879016 265.142705 
L 329.068609 265.604274 
L 330.741467 265.604274 
L 330.923726 266.065843 
L 332.708556 266.065843 
L 332.883376 266.527412 
L 334.259061 266.527412 
L 334.428231 266.988982 
L 336.734966 266.988982 
L 336.89549 267.450551 
L 338.160368 267.450551 
L 338.316117 267.91212 
L 341.327613 267.91212 
L 341.473251 268.373689 
L 343.186672 268.373689 
L 343.326684 268.835259 
L 344.704381 268.835259 
L 344.83996 269.296828 
L 346.567884 269.296828 
L 346.698213 269.758397 
L 349.231828 269.758397 
L 349.355002 270.219967 
L 351.636119 270.219967 
L 351.753172 270.681536 
L 354.257398 270.681536 
L 354.47859 271.143105 
L 357.159283 271.143105 
L 357.367292 271.604674 
L 359.991012 271.604674 
L 360.186912 272.066244 
L 362.847274 272.066244 
L 363.031672 272.527813 
L 365.452899 272.527813 
L 365.627395 272.989382 
L 367.838922 272.989382 
L 368.004816 273.450952 
L 370.895159 273.450952 
L 371.050651 273.912521 
L 373.691832 273.912521 
L 373.838376 274.37409 
L 376.053386 274.37409 
L 376.192777 274.835659 
L 378.4351 274.835659 
L 378.567629 275.297229 
L 381.57933 275.297229 
L 381.703314 275.758798 
L 384.351534 275.758798 
L 384.468442 276.220367 
L 387.080242 276.220367 
L 387.24565 276.681937 
L 390.693899 276.681937 
L 390.847115 277.143506 
L 393.57122 277.143506 
L 393.715372 277.605075 
L 396.554697 277.605075 
L 396.690017 278.066644 
L 400.120363 278.066644 
L 400.245833 278.528214 
L 403.590933 278.528214 
L 403.707503 278.989783 
L 407.076889 278.989783 
L 407.221189 279.451352 
L 410.825772 279.451352 
L 410.95905 279.912922 
L 413.516873 279.912922 
L 413.642762 280.374491 
L 416.714842 280.374491 
L 416.832479 280.83606 
L 419.95751 280.83606 
L 420.094749 281.297629 
L 422.290224 281.297629 
L 422.420842 281.759199 
L 425.083352 281.759199 
L 425.206461 282.220768 
L 427.251551 282.220768 
L 427.36913 282.682337 
L 429.166356 282.682337 
L 429.279258 283.143907 
L 431.00637 283.143907 
L 431.136639 283.605476 
L 432.419892 283.605476 
L 432.546316 284.067045 
L 433.792238 284.067045 
L 433.915037 284.528614 
L 434.765784 284.528614 
L 434.886075 284.990184 
L 435.621158 284.990184 
L 435.739287 285.451753 
L 436.344948 285.451753 
L 436.461278 285.913322 
L 436.693081 285.913322 
L 436.808557 286.374891 
L 437.115114 286.374891 
L 437.229561 286.836461 
L 437.324721 286.836461 
L 437.43866 287.29803 
L 437.5334 287.29803 
L 437.646836 287.759599 
L 437.665716 287.759599 
L 437.741158 288.682738 
L 437.741158 288.682738 
" clip-path="url(#p670b14a726)" style="fill: none; stroke: #f08080; stroke-width: 3; stroke-linecap: square"/>
   </g>
   <g id="line2d_51">
    <path d="M 69.12 126.67192 
L 101.776852 128.518197 
L 120.879887 139.59586 
L 134.433705 146.980968 
L 144.946863 150.211953 
L 153.536739 160.366477 
L 160.799376 169.136294 
L 167.090557 174.675125 
L 172.639773 185.291219 
L 177.603716 189.906912 
L 182.094148 191.291619 
L 186.193592 200.984574 
L 189.964714 201.446144 
L 193.456228 205.600267 
L 196.70675 206.061836 
L 199.74741 206.061836 
L 205.296626 208.831252 
L 207.843942 211.139098 
L 210.260568 211.139098 
L 214.751001 213.908514 
L 216.845296 214.370083 
L 218.850444 222.678331 
L 220.773727 224.063038 
L 222.621567 225.909316 
L 224.39966 225.909316 
L 226.113081 228.217162 
L 227.766369 229.60187 
L 229.363602 230.525008 
L 230.908458 230.986578 
L 232.404262 232.371285 
L 235.260524 233.294424 
L 239.24435 233.294424 
L 240.500795 233.755993 
L 241.724601 234.679132 
L 242.917421 235.140701 
L 244.080786 235.140701 
L 245.216115 235.60227 
L 246.324728 236.525409 
L 247.407853 236.525409 
L 248.466637 236.986978 
L 250.515389 236.986978 
L 251.507297 237.910117 
L 252.478751 238.371686 
L 253.430579 240.217963 
L 254.363558 241.141102 
L 255.278419 241.141102 
L 259.603829 243.448948 
L 260.423221 244.372087 
L 261.228606 244.833656 
L 265.061115 244.833656 
L 266.510887 245.756795 
L 267.917376 245.756795 
L 268.605182 246.218364 
L 269.283091 246.218364 
L 269.951385 246.679933 
L 273.157647 246.679933 
L 273.773524 247.603072 
L 274.381453 247.603072 
L 274.981638 248.064641 
L 275.574273 248.064641 
L 276.159546 248.52621 
L 276.737638 248.52621 
L 277.308722 249.449349 
L 277.872967 249.449349 
L 278.98158 250.372487 
L 279.526255 250.372487 
L 280.597071 251.295626 
L 281.123489 251.295626 
L 281.64409 251.757195 
L 282.159001 251.757195 
L 283.172241 252.680334 
L 283.670806 252.680334 
L 284.164149 253.141903 
L 285.613921 253.141903 
L 286.087432 253.603472 
L 286.55623 253.603472 
L 287.02041 254.065042 
L 287.935272 254.065042 
L 288.386126 254.526611 
L 288.832706 254.526611 
L 289.275093 254.98818 
L 291.426786 254.98818 
L 291.845578 255.44975 
L 293.080074 255.44975 
L 293.484487 255.911319 
L 295.456067 255.911319 
L 295.840672 256.372888 
L 297.348445 256.372888 
L 297.717967 256.834457 
L 298.809458 256.834457 
L 299.16774 257.296027 
L 300.226523 257.296027 
L 300.574229 257.757596 
L 302.275275 257.757596 
L 302.938862 258.680735 
L 303.267183 258.680735 
L 303.593232 259.142304 
L 304.558055 259.142304 
L 304.875322 259.603873 
L 306.123444 259.603873 
L 306.430376 260.065442 
L 308.816399 260.065442 
L 309.106331 260.527012 
L 310.248542 260.527012 
L 310.52982 260.988581 
L 311.911557 260.988581 
L 312.183108 261.45015 
L 313.780342 261.45015 
L 314.041361 261.91172 
L 315.325197 261.91172 
L 315.577819 262.373289 
L 317.06575 262.373289 
L 317.309233 262.834858 
L 318.979267 262.834858 
L 319.213083 263.296427 
L 320.592124 263.296427 
L 320.81809 263.757997 
L 321.931945 263.757997 
L 322.151591 264.219566 
L 324.2935 264.219566 
L 324.502431 264.681135 
L 326.741525 264.681135 
L 326.939899 265.142705 
L 328.497525 265.142705 
L 328.688656 265.604274 
L 330.5585 265.604274 
L 330.741467 266.065843 
L 332.533085 266.065843 
L 332.708556 266.527412 
L 334.089281 266.527412 
L 334.259061 266.988982 
L 336.89549 266.988982 
L 337.05547 267.450551 
L 339.392174 267.450551 
L 339.54391 267.91212 
L 341.763184 267.91212 
L 341.907484 268.373689 
L 343.326684 268.373689 
L 343.466281 268.835259 
L 345.910776 268.835259 
L 346.042933 269.296828 
L 348.611083 269.296828 
L 348.735888 269.758397 
L 350.569344 269.758397 
L 350.689074 270.219967 
L 352.449449 270.219967 
L 352.564501 270.681536 
L 355.02707 270.681536 
L 355.244686 271.143105 
L 356.950352 271.143105 
L 357.159283 271.604674 
L 359.596752 271.604674 
L 359.794294 272.066244 
L 362.102375 272.066244 
L 362.289706 272.527813 
L 364.392129 272.527813 
L 364.570591 272.989382 
L 367.000575 272.989382 
L 367.169442 273.450952 
L 369.712322 273.450952 
L 369.87176 273.912521 
L 371.360103 273.912521 
L 371.51407 274.37409 
L 374.636321 274.37409 
L 374.779961 274.835659 
L 378.102139 274.835659 
L 378.235606 275.297229 
L 381.703314 275.297229 
L 381.826973 275.758798 
L 383.88098 275.758798 
L 383.99906 276.220367 
L 386.356683 276.220367 
L 386.524647 276.681937 
L 389.397343 276.681937 
L 389.554827 277.143506 
L 393.0875 277.143506 
L 393.233138 277.605075 
L 396.418987 277.605075 
L 396.554697 278.066644 
L 399.657427 278.066644 
L 399.784134 278.528214 
L 402.727154 278.528214 
L 402.845879 278.989783 
L 406.275241 278.989783 
L 406.422014 279.451352 
L 409.3687 279.451352 
L 409.506159 279.912922 
L 412.497466 279.912922 
L 412.626105 280.374491 
L 415.672786 280.374491 
L 415.793051 280.83606 
L 419.1815 280.83606 
L 419.293144 281.297629 
L 421.711164 281.297629 
L 421.843395 281.759199 
L 424.437946 281.759199 
L 424.562751 282.220768 
L 426.75449 282.220768 
L 426.873314 282.682337 
L 428.939738 282.682337 
L 429.053183 283.143907 
L 430.832116 283.143907 
L 430.962867 283.605476 
L 432.398789 283.605476 
L 432.525269 284.067045 
L 433.935473 284.067045 
L 434.0579 284.528614 
L 434.846012 284.528614 
L 434.966099 284.990184 
L 435.837502 284.990184 
L 435.955091 285.451753 
L 436.480639 285.451753 
L 436.596635 285.913322 
L 436.885383 285.913322 
L 437.000389 286.374891 
L 437.172372 286.374891 
L 437.28668 286.836461 
L 437.495527 286.836461 
L 437.646836 288.221169 
L 437.684588 288.221169 
L 437.741158 289.144307 
L 437.741158 289.144307 
" clip-path="url(#p670b14a726)" style="fill: none; stroke: #ffe4e1; stroke-width: 3; stroke-linecap: square"/>
   </g>
   <g id="line2d_52">
    <path d="M 69.12 275.758798 
L 437.741158 275.758798 
L 437.741158 275.758798 
" clip-path="url(#p670b14a726)" style="fill: none; stroke-dasharray: 11.1,4.8; stroke-dashoffset: 0; stroke: #000000; stroke-width: 3"/>
   </g>
   <g id="patch_3">
    <path d="M 69.12 293.76 
L 69.12 17.28 
" style="fill: none; stroke: #000000; stroke-width: 0.8; stroke-linejoin: miter; stroke-linecap: square"/>
   </g>
   <g id="patch_4">
    <path d="M 437.76 293.76 
L 437.76 17.28 
" style="fill: none; stroke: #000000; stroke-width: 0.8; stroke-linejoin: miter; stroke-linecap: square"/>
   </g>
   <g id="patch_5">
    <path d="M 69.12 293.76 
L 437.76 293.76 
" style="fill: none; stroke: #000000; stroke-width: 0.8; stroke-linejoin: miter; stroke-linecap: square"/>
   </g>
   <g id="patch_6">
    <path d="M 69.12 17.28 
L 437.76 17.28 
" style="fill: none; stroke: #000000; stroke-width: 0.8; stroke-linejoin: miter; stroke-linecap: square"/>
   </g>
   <g id="legend_1">
    <g id="patch_7">
     <path d="M 199.62 163.783125 
L 425.16 163.783125 
Q 428.76 163.783125 428.76 160.183125 
L 428.76 29.88 
Q 428.76 26.28 425.16 26.28 
L 199.62 26.28 
Q 196.02 26.28 196.02 29.88 
L 196.02 160.183125 
Q 196.02 163.783125 199.62 163.783125 
z
" style="fill: #008000; opacity: 0.2; stroke: #000000; stroke-linejoin: miter"/>
    </g>
    <g id="line2d_53">
     <path d="M 203.22 40.857188 
L 221.22 40.857188 
L 239.22 40.857188 
" style="fill: none; stroke: #800000; stroke-width: 3; stroke-linecap: square"/>
    </g>
    <g id="text_14">
     <!-- batch 0 -->
     <g transform="translate(253.62 47.157188) scale(0.18 -0.18)">
      <defs>
       <path id="DejaVuSans-61" d="M 2194 1759 
Q 1497 1759 1228 1600 
Q 959 1441 959 1056 
Q 959 750 1161 570 
Q 1363 391 1709 391 
Q 2188 391 2477 730 
Q 2766 1069 2766 1631 
L 2766 1759 
L 2194 1759 
z
M 3341 1997 
L 3341 0 
L 2766 0 
L 2766 531 
Q 2569 213 2275 61 
Q 1981 -91 1556 -91 
Q 1019 -91 701 211 
Q 384 513 384 1019 
Q 384 1609 779 1909 
Q 1175 2209 1959 2209 
L 2766 2209 
L 2766 2266 
Q 2766 2663 2505 2880 
Q 2244 3097 1772 3097 
Q 1472 3097 1187 3025 
Q 903 2953 641 2809 
L 641 3341 
Q 956 3463 1253 3523 
Q 1550 3584 1831 3584 
Q 2591 3584 2966 3190 
Q 3341 2797 3341 1997 
z
" transform="scale(0.015625)"/>
       <path id="DejaVuSans-74" d="M 1172 4494 
L 1172 3500 
L 2356 3500 
L 2356 3053 
L 1172 3053 
L 1172 1153 
Q 1172 725 1289 603 
Q 1406 481 1766 481 
L 2356 481 
L 2356 0 
L 1766 0 
Q 1100 0 847 248 
Q 594 497 594 1153 
L 594 3053 
L 172 3053 
L 172 3500 
L 594 3500 
L 594 4494 
L 1172 4494 
z
" transform="scale(0.015625)"/>
       <path id="DejaVuSans-63" d="M 3122 3366 
L 3122 2828 
Q 2878 2963 2633 3030 
Q 2388 3097 2138 3097 
Q 1578 3097 1268 2742 
Q 959 2388 959 1747 
Q 959 1106 1268 751 
Q 1578 397 2138 397 
Q 2388 397 2633 464 
Q 2878 531 3122 666 
L 3122 134 
Q 2881 22 2623 -34 
Q 2366 -91 2075 -91 
Q 1284 -91 818 406 
Q 353 903 353 1747 
Q 353 2603 823 3093 
Q 1294 3584 2113 3584 
Q 2378 3584 2631 3529 
Q 2884 3475 3122 3366 
z
" transform="scale(0.015625)"/>
       <path id="DejaVuSans-68" d="M 3513 2113 
L 3513 0 
L 2938 0 
L 2938 2094 
Q 2938 2591 2744 2837 
Q 2550 3084 2163 3084 
Q 1697 3084 1428 2787 
Q 1159 2491 1159 1978 
L 1159 0 
L 581 0 
L 581 4863 
L 1159 4863 
L 1159 2956 
Q 1366 3272 1645 3428 
Q 1925 3584 2291 3584 
Q 2894 3584 3203 3211 
Q 3513 2838 3513 2113 
z
" transform="scale(0.015625)"/>
      </defs>
      <use xlink:href="#DejaVuSans-62"/>
      <use xlink:href="#DejaVuSans-61" x="63.476562"/>
      <use xlink:href="#DejaVuSans-74" x="124.755859"/>
      <use xlink:href="#DejaVuSans-63" x="163.964844"/>
      <use xlink:href="#DejaVuSans-68" x="218.945312"/>
      <use xlink:href="#DejaVuSans-20" x="282.324219"/>
      <use xlink:href="#DejaVuSans-30" x="314.111328"/>
     </g>
    </g>
    <g id="line2d_54">
     <path d="M 203.22 67.277813 
L 221.22 67.277813 
L 239.22 67.277813 
" style="fill: none; stroke: #a52a2a; stroke-width: 3; stroke-linecap: square"/>
    </g>
    <g id="text_15">
     <!-- batch 5 -->
     <g transform="translate(253.62 73.577813) scale(0.18 -0.18)">
      <use xlink:href="#DejaVuSans-62"/>
      <use xlink:href="#DejaVuSans-61" x="63.476562"/>
      <use xlink:href="#DejaVuSans-74" x="124.755859"/>
      <use xlink:href="#DejaVuSans-63" x="163.964844"/>
      <use xlink:href="#DejaVuSans-68" x="218.945312"/>
      <use xlink:href="#DejaVuSans-20" x="282.324219"/>
      <use xlink:href="#DejaVuSans-35" x="314.111328"/>
     </g>
    </g>
    <g id="line2d_55">
     <path d="M 203.22 93.698438 
L 221.22 93.698438 
L 239.22 93.698438 
" style="fill: none; stroke: #f08080; stroke-width: 3; stroke-linecap: square"/>
    </g>
    <g id="text_16">
     <!-- batch 10 -->
     <g transform="translate(253.62 99.998438) scale(0.18 -0.18)">
      <use xlink:href="#DejaVuSans-62"/>
      <use xlink:href="#DejaVuSans-61" x="63.476562"/>
      <use xlink:href="#DejaVuSans-74" x="124.755859"/>
      <use xlink:href="#DejaVuSans-63" x="163.964844"/>
      <use xlink:href="#DejaVuSans-68" x="218.945312"/>
      <use xlink:href="#DejaVuSans-20" x="282.324219"/>
      <use xlink:href="#DejaVuSans-31" x="314.111328"/>
      <use xlink:href="#DejaVuSans-30" x="377.734375"/>
     </g>
    </g>
    <g id="line2d_56">
     <path d="M 203.22 120.119063 
L 221.22 120.119063 
L 239.22 120.119063 
" style="fill: none; stroke: #ffe4e1; stroke-width: 3; stroke-linecap: square"/>
    </g>
    <g id="text_17">
     <!-- batch 49 -->
     <g transform="translate(253.62 126.419063) scale(0.18 -0.18)">
      <defs>
       <path id="DejaVuSans-39" d="M 703 97 
L 703 672 
Q 941 559 1184 500 
Q 1428 441 1663 441 
Q 2288 441 2617 861 
Q 2947 1281 2994 2138 
Q 2813 1869 2534 1725 
Q 2256 1581 1919 1581 
Q 1219 1581 811 2004 
Q 403 2428 403 3163 
Q 403 3881 828 4315 
Q 1253 4750 1959 4750 
Q 2769 4750 3195 4129 
Q 3622 3509 3622 2328 
Q 3622 1225 3098 567 
Q 2575 -91 1691 -91 
Q 1453 -91 1209 -44 
Q 966 3 703 97 
z
M 1959 2075 
Q 2384 2075 2632 2365 
Q 2881 2656 2881 3163 
Q 2881 3666 2632 3958 
Q 2384 4250 1959 4250 
Q 1534 4250 1286 3958 
Q 1038 3666 1038 3163 
Q 1038 2656 1286 2365 
Q 1534 2075 1959 2075 
z
" transform="scale(0.015625)"/>
      </defs>
      <use xlink:href="#DejaVuSans-62"/>
      <use xlink:href="#DejaVuSans-61" x="63.476562"/>
      <use xlink:href="#DejaVuSans-74" x="124.755859"/>
      <use xlink:href="#DejaVuSans-63" x="163.964844"/>
      <use xlink:href="#DejaVuSans-68" x="218.945312"/>
      <use xlink:href="#DejaVuSans-20" x="282.324219"/>
      <use xlink:href="#DejaVuSans-34" x="314.111328"/>
      <use xlink:href="#DejaVuSans-39" x="377.734375"/>
     </g>
    </g>
    <g id="line2d_57">
     <path d="M 203.22 146.539688 
L 221.22 146.539688 
L 239.22 146.539688 
" style="fill: none; stroke-dasharray: 11.1,4.8; stroke-dashoffset: 0; stroke: #000000; stroke-width: 3"/>
    </g>
    <g id="text_18">
     <!-- perfectly balanced -->
     <g transform="translate(253.62 152.839688) scale(0.18 -0.18)">
      <defs>
       <path id="DejaVuSans-70" d="M 1159 525 
L 1159 -1331 
L 581 -1331 
L 581 3500 
L 1159 3500 
L 1159 2969 
Q 1341 3281 1617 3432 
Q 1894 3584 2278 3584 
Q 2916 3584 3314 3078 
Q 3713 2572 3713 1747 
Q 3713 922 3314 415 
Q 2916 -91 2278 -91 
Q 1894 -91 1617 61 
Q 1341 213 1159 525 
z
M 3116 1747 
Q 3116 2381 2855 2742 
Q 2594 3103 2138 3103 
Q 1681 3103 1420 2742 
Q 1159 2381 1159 1747 
Q 1159 1113 1420 752 
Q 1681 391 2138 391 
Q 2594 391 2855 752 
Q 3116 1113 3116 1747 
z
" transform="scale(0.015625)"/>
       <path id="DejaVuSans-6c" d="M 603 4863 
L 1178 4863 
L 1178 0 
L 603 0 
L 603 4863 
z
" transform="scale(0.015625)"/>
       <path id="DejaVuSans-79" d="M 2059 -325 
Q 1816 -950 1584 -1140 
Q 1353 -1331 966 -1331 
L 506 -1331 
L 506 -850 
L 844 -850 
Q 1081 -850 1212 -737 
Q 1344 -625 1503 -206 
L 1606 56 
L 191 3500 
L 800 3500 
L 1894 763 
L 2988 3500 
L 3597 3500 
L 2059 -325 
z
" transform="scale(0.015625)"/>
      </defs>
      <use xlink:href="#DejaVuSans-70"/>
      <use xlink:href="#DejaVuSans-65" x="63.476562"/>
      <use xlink:href="#DejaVuSans-72" x="125"/>
      <use xlink:href="#DejaVuSans-66" x="166.113281"/>
      <use xlink:href="#DejaVuSans-65" x="201.318359"/>
      <use xlink:href="#DejaVuSans-63" x="262.841797"/>
      <use xlink:href="#DejaVuSans-74" x="317.822266"/>
      <use xlink:href="#DejaVuSans-6c" x="357.03125"/>
      <use xlink:href="#DejaVuSans-79" x="384.814453"/>
      <use xlink:href="#DejaVuSans-20" x="443.994141"/>
      <use xlink:href="#DejaVuSans-62" x="475.78125"/>
      <use xlink:href="#DejaVuSans-61" x="539.257812"/>
      <use xlink:href="#DejaVuSans-6c" x="600.537109"/>
      <use xlink:href="#DejaVuSans-61" x="628.320312"/>
      <use xlink:href="#DejaVuSans-6e" x="689.599609"/>
      <use xlink:href="#DejaVuSans-63" x="752.978516"/>
      <use xlink:href="#DejaVuSans-65" x="807.958984"/>
      <use xlink:href="#DejaVuSans-64" x="869.482422"/>
     </g>
    </g>
   </g>
  </g>
 </g>
 <defs>
  <clipPath id="p670b14a726">
   <rect x="69.12" y="17.28" width="368.64" height="276.48"/>
  </clipPath>
 </defs>
</svg>
