<?xml version="1.0" encoding="utf-8" standalone="no"?>
<!DOCTYPE svg PUBLIC "-//W3C//DTD SVG 1.1//EN"
  "http://www.w3.org/Graphics/SVG/1.1/DTD/svg11.dtd">
<svg xmlns:xlink="http://www.w3.org/1999/xlink" width="460.8pt" height="345.6pt" viewBox="0 0 460.8 345.6" xmlns="http://www.w3.org/2000/svg" version="1.1">
 <metadata>
  <rdf:RDF xmlns:dc="http://purl.org/dc/elements/1.1/" xmlns:cc="http://creativecommons.org/ns#" xmlns:rdf="http://www.w3.org/1999/02/22-rdf-syntax-ns#">
   <cc:Work>
    <dc:type rdf:resource="http://purl.org/dc/dcmitype/StillImage"/>
    <dc:date>2024-01-24T05:45:13.083637</dc:date>
    <dc:format>image/svg+xml</dc:format>
    <dc:creator>
     <cc:Agent>
      <dc:title>Matplotlib v3.7.0, https://matplotlib.org/</dc:title>
     </cc:Agent>
    </dc:creator>
   </cc:Work>
  </rdf:RDF>
 </metadata>
 <defs>
  <style type="text/css">*{stroke-linejoin: round; stroke-linecap: butt}</style>
 </defs>
 <g id="figure_1">
  <g id="patch_1">
   <path d="M 0 345.6 
L 460.8 345.6 
L 460.8 0 
L 0 0 
L 0 345.6 
z
" style="fill: none"/>
  </g>
  <g id="axes_1">
   <g id="patch_2">
    <path d="M 87.552 293.76 
L 451.584 293.76 
L 451.584 6.912 
L 87.552 6.912 
L 87.552 293.76 
z
" style="fill: none"/>
   </g>
   <g id="patch_3">
    <path d="M 88.3104 41.980345 
L 94.3776 41.980345 
L 94.3776 20.571429 
L 88.3104 20.571429 
z
" clip-path="url(#p12f0be0a3e)" style="fill: #800000"/>
   </g>
   <g id="patch_4">
    <path d="M 95.8944 62.687625 
L 101.9616 62.687625 
L 101.9616 41.728476 
L 95.8944 41.728476 
z
" clip-path="url(#p12f0be0a3e)" style="fill: #800000"/>
   </g>
   <g id="patch_5">
    <path d="M 103.4784 75.92877 
L 109.5456 75.92877 
L 109.5456 58.693693 
L 103.4784 58.693693 
z
" clip-path="url(#p12f0be0a3e)" style="fill: #800000"/>
   </g>
   <g id="patch_6">
    <path d="M 111.0624 95.196795 
L 117.1296 95.196795 
L 117.1296 77.799802 
L 111.0624 77.799802 
z
" clip-path="url(#p12f0be0a3e)" style="fill: #800000"/>
   </g>
   <g id="patch_7">
    <path d="M 118.6464 110.974627 
L 124.7136 110.974627 
L 124.7136 93.955438 
L 118.6464 93.955438 
z
" clip-path="url(#p12f0be0a3e)" style="fill: #800000"/>
   </g>
   <g id="patch_8">
    <path d="M 126.2304 128.569518 
L 132.2976 128.569518 
L 132.2976 112.413882 
L 126.2304 112.413882 
z
" clip-path="url(#p12f0be0a3e)" style="fill: #800000"/>
   </g>
   <g id="patch_9">
    <path d="M 133.8144 140.587297 
L 139.8816 140.587297 
L 139.8816 120.419738 
L 133.8144 120.419738 
z
" clip-path="url(#p12f0be0a3e)" style="fill: #800000"/>
   </g>
   <g id="patch_10">
    <path d="M 141.3984 158.146207 
L 147.4656 158.146207 
L 147.4656 142.278421 
L 141.3984 142.278421 
z
" clip-path="url(#p12f0be0a3e)" style="fill: #800000"/>
   </g>
   <g id="patch_11">
    <path d="M 148.9824 173.654178 
L 155.0496 173.654178 
L 155.0496 157.624477 
L 148.9824 157.624477 
z
" clip-path="url(#p12f0be0a3e)" style="fill: #800000"/>
   </g>
   <g id="patch_12">
    <path d="M 156.5664 190.853274 
L 162.6336 190.853274 
L 162.6336 174.859554 
L 156.5664 174.859554 
z
" clip-path="url(#p12f0be0a3e)" style="fill: #800000"/>
   </g>
   <g id="patch_13">
    <path d="M 164.1504 201.161938 
L 170.2176 201.161938 
L 170.2176 185.132236 
L 164.1504 185.132236 
z
" clip-path="url(#p12f0be0a3e)" style="fill: #800000"/>
   </g>
   <g id="patch_14">
    <path d="M 171.7344 201.575723 
L 177.8016 201.575723 
L 177.8016 180.112835 
L 171.7344 180.112835 
z
" clip-path="url(#p12f0be0a3e)" style="fill: #800000"/>
   </g>
   <g id="patch_15">
    <path d="M 179.3184 202.709137 
L 185.3856 202.709137 
L 185.3856 186.211677 
L 179.3184 186.211677 
z
" clip-path="url(#p12f0be0a3e)" style="fill: #800000"/>
   </g>
   <g id="patch_16">
    <path d="M 186.9024 203.698624 
L 192.9696 203.698624 
L 192.9696 186.895323 
L 186.9024 186.895323 
z
" clip-path="url(#p12f0be0a3e)" style="fill: #800000"/>
   </g>
   <g id="patch_17">
    <path d="M 194.4864 208.754007 
L 200.5536 208.754007 
L 200.5536 187.237146 
L 194.4864 187.237146 
z
" clip-path="url(#p12f0be0a3e)" style="fill: #800000"/>
   </g>
   <g id="patch_18">
    <path d="M 202.0704 253.568807 
L 208.1376 253.568807 
L 208.1376 233.365266 
L 202.0704 233.365266 
z
" clip-path="url(#p12f0be0a3e)" style="fill: #800000"/>
   </g>
   <g id="patch_19">
    <path d="M 209.6544 233.635126 
L 215.7216 233.635126 
L 215.7216 216.184161 
L 209.6544 216.184161 
z
" clip-path="url(#p12f0be0a3e)" style="fill: #800000"/>
   </g>
   <g id="patch_20">
    <path d="M 217.2384 231.656151 
L 223.3056 231.656151 
L 223.3056 212.172238 
L 217.2384 212.172238 
z
" clip-path="url(#p12f0be0a3e)" style="fill: #800000"/>
   </g>
   <g id="patch_21">
    <path d="M 224.8224 249.628847 
L 230.8896 249.628847 
L 230.8896 231.961993 
L 224.8224 231.961993 
z
" clip-path="url(#p12f0be0a3e)" style="fill: #800000"/>
   </g>
   <g id="patch_22">
    <path d="M 232.4064 218.972717 
L 238.4736 218.972717 
L 238.4736 201.539742 
L 232.4064 201.539742 
z
" clip-path="url(#p12f0be0a3e)" style="fill: #800000"/>
   </g>
   <g id="patch_23">
    <path d="M 239.9904 221.833236 
L 246.0576 221.833236 
L 246.0576 204.832038 
L 239.9904 204.832038 
z
" clip-path="url(#p12f0be0a3e)" style="fill: #800000"/>
   </g>
   <g id="patch_24">
    <path d="M 247.5744 230.32484 
L 253.6416 230.32484 
L 253.6416 214.151213 
L 247.5744 214.151213 
z
" clip-path="url(#p12f0be0a3e)" style="fill: #800000"/>
   </g>
   <g id="patch_25">
    <path d="M 255.1584 263.949433 
L 261.2256 263.949433 
L 261.2256 247.757815 
L 255.1584 247.757815 
z
" clip-path="url(#p12f0be0a3e)" style="fill: #800000"/>
   </g>
   <g id="patch_26">
    <path d="M 262.7424 227.788153 
L 268.8096 227.788153 
L 268.8096 209.185784 
L 262.7424 209.185784 
z
" clip-path="url(#p12f0be0a3e)" style="fill: #800000"/>
   </g>
   <g id="patch_27">
    <path d="M 270.3264 228.022032 
L 276.3936 228.022032 
L 276.3936 210.750973 
L 270.3264 210.750973 
z
" clip-path="url(#p12f0be0a3e)" style="fill: #800000"/>
   </g>
   <g id="patch_28">
    <path d="M 277.9104 230.630682 
L 283.9776 230.630682 
L 283.9776 213.575511 
L 277.9104 213.575511 
z
" clip-path="url(#p12f0be0a3e)" style="fill: #800000"/>
   </g>
   <g id="patch_29">
    <path d="M 285.4944 224.010109 
L 291.5616 224.010109 
L 291.5616 204.88601 
L 285.4944 204.88601 
z
" clip-path="url(#p12f0be0a3e)" style="fill: #800000"/>
   </g>
   <g id="patch_30">
    <path d="M 293.0784 227.500302 
L 299.1456 227.500302 
L 299.1456 210.283216 
L 293.0784 210.283216 
z
" clip-path="url(#p12f0be0a3e)" style="fill: #800000"/>
   </g>
   <g id="patch_31">
    <path d="M 300.6624 265.028874 
L 306.7296 265.028874 
L 306.7296 247.847769 
L 300.6624 247.847769 
z
" clip-path="url(#p12f0be0a3e)" style="fill: #800000"/>
   </g>
   <g id="patch_32">
    <path d="M 308.2464 242.486544 
L 314.3136 242.486544 
L 314.3136 225.557308 
L 308.2464 225.557308 
z
" clip-path="url(#p12f0be0a3e)" style="fill: #800000"/>
   </g>
   <g id="patch_33">
    <path d="M 315.8304 241.784907 
L 321.8976 241.784907 
L 321.8976 220.753795 
L 315.8304 220.753795 
z
" clip-path="url(#p12f0be0a3e)" style="fill: #800000"/>
   </g>
   <g id="patch_34">
    <path d="M 323.4144 229.641194 
L 329.4816 229.641194 
L 329.4816 211.668498 
L 323.4144 211.668498 
z
" clip-path="url(#p12f0be0a3e)" style="fill: #800000"/>
   </g>
   <g id="patch_35">
    <path d="M 330.9984 244.645426 
L 337.0656 244.645426 
L 337.0656 226.996563 
L 330.9984 226.996563 
z
" clip-path="url(#p12f0be0a3e)" style="fill: #800000"/>
   </g>
   <g id="patch_36">
    <path d="M 338.5824 217.947248 
L 344.6496 217.947248 
L 344.6496 198.751186 
L 338.5824 198.751186 
z
" clip-path="url(#p12f0be0a3e)" style="fill: #800000"/>
   </g>
   <g id="patch_37">
    <path d="M 346.1664 237.305226 
L 352.2336 237.305226 
L 352.2336 221.599357 
L 346.1664 221.599357 
z
" clip-path="url(#p12f0be0a3e)" style="fill: #800000"/>
   </g>
   <g id="patch_38">
    <path d="M 353.7504 230.414794 
L 359.8176 230.414794 
L 359.8176 214.690934 
L 353.7504 214.690934 
z
" clip-path="url(#p12f0be0a3e)" style="fill: #800000"/>
   </g>
   <g id="patch_39">
    <path d="M 361.3344 232.393769 
L 367.4016 232.393769 
L 367.4016 216.849816 
L 361.3344 216.849816 
z
" clip-path="url(#p12f0be0a3e)" style="fill: #800000"/>
   </g>
   <g id="patch_40">
    <path d="M 368.9184 229.497269 
L 374.9856 229.497269 
L 374.9856 213.503548 
L 368.9184 213.503548 
z
" clip-path="url(#p12f0be0a3e)" style="fill: #800000"/>
   </g>
   <g id="patch_41">
    <path d="M 376.5024 232.375778 
L 382.5696 232.375778 
L 382.5696 216.472012 
L 376.5024 216.472012 
z
" clip-path="url(#p12f0be0a3e)" style="fill: #800000"/>
   </g>
   <g id="patch_42">
    <path d="M 384.0864 228.651706 
L 390.1536 228.651706 
L 390.1536 211.632517 
L 384.0864 211.632517 
z
" clip-path="url(#p12f0be0a3e)" style="fill: #800000"/>
   </g>
   <g id="patch_43">
    <path d="M 391.6704 227.194461 
L 397.7376 227.194461 
L 397.7376 210.049337 
L 391.6704 210.049337 
z
" clip-path="url(#p12f0be0a3e)" style="fill: #800000"/>
   </g>
   <g id="patch_44">
    <path d="M 399.2544 224.225997 
L 405.3216 224.225997 
L 405.3216 206.757041 
L 399.2544 206.757041 
z
" clip-path="url(#p12f0be0a3e)" style="fill: #800000"/>
   </g>
   <g id="patch_45">
    <path d="M 406.8384 239.050323 
L 412.9056 239.050323 
L 412.9056 222.46291 
L 406.8384 222.46291 
z
" clip-path="url(#p12f0be0a3e)" style="fill: #800000"/>
   </g>
   <g id="patch_46">
    <path d="M 414.4224 239.679997 
L 420.4896 239.679997 
L 420.4896 221.67132 
L 414.4224 221.67132 
z
" clip-path="url(#p12f0be0a3e)" style="fill: #800000"/>
   </g>
   <g id="patch_47">
    <path d="M 422.0064 221.437441 
L 428.0736 221.437441 
L 428.0736 202.745118 
L 422.0064 202.745118 
z
" clip-path="url(#p12f0be0a3e)" style="fill: #800000"/>
   </g>
   <g id="patch_48">
    <path d="M 429.5904 223.326463 
L 435.6576 223.326463 
L 435.6576 205.101898 
L 429.5904 205.101898 
z
" clip-path="url(#p12f0be0a3e)" style="fill: #800000"/>
   </g>
   <g id="patch_49">
    <path d="M 437.1744 266.180278 
L 443.2416 266.180278 
L 443.2416 249.107117 
L 437.1744 249.107117 
z
" clip-path="url(#p12f0be0a3e)" style="fill: #800000"/>
   </g>
   <g id="patch_50">
    <path d="M 444.7584 253.604788 
L 450.8256 253.604788 
L 450.8256 236.657562 
L 444.7584 236.657562 
z
" clip-path="url(#p12f0be0a3e)" style="fill: #800000"/>
   </g>
   <g id="patch_51">
    <path d="M 88.3104 100.576011 
L 94.3776 100.576011 
L 94.3776 41.980345 
L 88.3104 41.980345 
z
" clip-path="url(#p12f0be0a3e)" style="fill: #a52a2a"/>
   </g>
   <g id="patch_52">
    <path d="M 95.8944 124.269744 
L 101.9616 124.269744 
L 101.9616 62.687625 
L 95.8944 62.687625 
z
" clip-path="url(#p12f0be0a3e)" style="fill: #a52a2a"/>
   </g>
   <g id="patch_53">
    <path d="M 103.4784 137.726778 
L 109.5456 137.726778 
L 109.5456 75.92877 
L 103.4784 75.92877 
z
" clip-path="url(#p12f0be0a3e)" style="fill: #a52a2a"/>
   </g>
   <g id="patch_54">
    <path d="M 111.0624 156.688961 
L 117.1296 156.688961 
L 117.1296 95.196795 
L 111.0624 95.196795 
z
" clip-path="url(#p12f0be0a3e)" style="fill: #a52a2a"/>
   </g>
   <g id="patch_55">
    <path d="M 118.6464 172.232914 
L 124.7136 172.232914 
L 124.7136 110.974627 
L 118.6464 110.974627 
z
" clip-path="url(#p12f0be0a3e)" style="fill: #a52a2a"/>
   </g>
   <g id="patch_56">
    <path d="M 126.2304 189.809815 
L 132.2976 189.809815 
L 132.2976 128.569518 
L 126.2304 128.569518 
z
" clip-path="url(#p12f0be0a3e)" style="fill: #a52a2a"/>
   </g>
   <g id="patch_57">
    <path d="M 133.8144 204.508205 
L 139.8816 204.508205 
L 139.8816 140.587297 
L 133.8144 140.587297 
z
" clip-path="url(#p12f0be0a3e)" style="fill: #a52a2a"/>
   </g>
   <g id="patch_58">
    <path d="M 141.3984 219.56641 
L 147.4656 219.56641 
L 147.4656 158.146207 
L 141.3984 158.146207 
z
" clip-path="url(#p12f0be0a3e)" style="fill: #a52a2a"/>
   </g>
   <g id="patch_59">
    <path d="M 148.9824 235.218307 
L 155.0496 235.218307 
L 155.0496 173.654178 
L 148.9824 173.654178 
z
" clip-path="url(#p12f0be0a3e)" style="fill: #a52a2a"/>
   </g>
   <g id="patch_60">
    <path d="M 156.5664 252.165533 
L 162.6336 252.165533 
L 162.6336 190.853274 
L 156.5664 190.853274 
z
" clip-path="url(#p12f0be0a3e)" style="fill: #a52a2a"/>
   </g>
   <g id="patch_61">
    <path d="M 164.1504 262.618122 
L 170.2176 262.618122 
L 170.2176 201.161938 
L 164.1504 201.161938 
z
" clip-path="url(#p12f0be0a3e)" style="fill: #a52a2a"/>
   </g>
   <g id="patch_62">
    <path d="M 171.7344 263.229805 
L 177.8016 263.229805 
L 177.8016 201.575723 
L 171.7344 201.575723 
z
" clip-path="url(#p12f0be0a3e)" style="fill: #a52a2a"/>
   </g>
   <g id="patch_63">
    <path d="M 179.3184 265.046865 
L 185.3856 265.046865 
L 185.3856 202.709137 
L 179.3184 202.709137 
z
" clip-path="url(#p12f0be0a3e)" style="fill: #a52a2a"/>
   </g>
   <g id="patch_64">
    <path d="M 186.9024 265.820464 
L 192.9696 265.820464 
L 192.9696 203.698624 
L 186.9024 203.698624 
z
" clip-path="url(#p12f0be0a3e)" style="fill: #a52a2a"/>
   </g>
   <g id="patch_65">
    <path d="M 194.4864 265.946399 
L 200.5536 265.946399 
L 200.5536 208.754007 
L 194.4864 208.754007 
z
" clip-path="url(#p12f0be0a3e)" style="fill: #a52a2a"/>
   </g>
   <g id="patch_66">
    <path d="M 202.0704 267.727477 
L 208.1376 267.727477 
L 208.1376 253.568807 
L 202.0704 253.568807 
z
" clip-path="url(#p12f0be0a3e)" style="fill: #a52a2a"/>
   </g>
   <g id="patch_67">
    <path d="M 209.6544 266.881915 
L 215.7216 266.881915 
L 215.7216 233.635126 
L 209.6544 233.635126 
z
" clip-path="url(#p12f0be0a3e)" style="fill: #a52a2a"/>
   </g>
   <g id="patch_68">
    <path d="M 217.2384 267.979347 
L 223.3056 267.979347 
L 223.3056 231.656151 
L 217.2384 231.656151 
z
" clip-path="url(#p12f0be0a3e)" style="fill: #a52a2a"/>
   </g>
   <g id="patch_69">
    <path d="M 224.8224 266.917896 
L 230.8896 266.917896 
L 230.8896 249.628847 
L 224.8224 249.628847 
z
" clip-path="url(#p12f0be0a3e)" style="fill: #a52a2a"/>
   </g>
   <g id="patch_70">
    <path d="M 232.4064 267.367663 
L 238.4736 267.367663 
L 238.4736 218.972717 
L 232.4064 218.972717 
z
" clip-path="url(#p12f0be0a3e)" style="fill: #a52a2a"/>
   </g>
   <g id="patch_71">
    <path d="M 239.9904 266.75598 
L 246.0576 266.75598 
L 246.0576 221.833236 
L 239.9904 221.833236 
z
" clip-path="url(#p12f0be0a3e)" style="fill: #a52a2a"/>
   </g>
   <g id="patch_72">
    <path d="M 247.5744 267.007849 
L 253.6416 267.007849 
L 253.6416 230.32484 
L 247.5744 230.32484 
z
" clip-path="url(#p12f0be0a3e)" style="fill: #a52a2a"/>
   </g>
   <g id="patch_73">
    <path d="M 255.1584 264.902939 
L 261.2256 264.902939 
L 261.2256 263.949433 
L 255.1584 263.949433 
z
" clip-path="url(#p12f0be0a3e)" style="fill: #a52a2a"/>
   </g>
   <g id="patch_74">
    <path d="M 262.7424 266.072334 
L 268.8096 266.072334 
L 268.8096 227.788153 
L 262.7424 227.788153 
z
" clip-path="url(#p12f0be0a3e)" style="fill: #a52a2a"/>
   </g>
   <g id="patch_75">
    <path d="M 270.3264 267.583551 
L 276.3936 267.583551 
L 276.3936 228.022032 
L 270.3264 228.022032 
z
" clip-path="url(#p12f0be0a3e)" style="fill: #a52a2a"/>
   </g>
   <g id="patch_76">
    <path d="M 277.9104 267.655514 
L 283.9776 267.655514 
L 283.9776 230.630682 
L 277.9104 230.630682 
z
" clip-path="url(#p12f0be0a3e)" style="fill: #a52a2a"/>
   </g>
   <g id="patch_77">
    <path d="M 285.4944 267.601542 
L 291.5616 267.601542 
L 291.5616 224.010109 
L 285.4944 224.010109 
z
" clip-path="url(#p12f0be0a3e)" style="fill: #a52a2a"/>
   </g>
   <g id="patch_78">
    <path d="M 293.0784 266.522101 
L 299.1456 266.522101 
L 299.1456 227.500302 
L 293.0784 227.500302 
z
" clip-path="url(#p12f0be0a3e)" style="fill: #a52a2a"/>
   </g>
   <g id="patch_79">
    <path d="M 300.6624 265.96439 
L 306.7296 265.96439 
L 306.7296 265.028874 
L 300.6624 265.028874 
z
" clip-path="url(#p12f0be0a3e)" style="fill: #a52a2a"/>
   </g>
   <g id="patch_80">
    <path d="M 308.2464 265.874436 
L 314.3136 265.874436 
L 314.3136 242.486544 
L 308.2464 242.486544 
z
" clip-path="url(#p12f0be0a3e)" style="fill: #a52a2a"/>
   </g>
   <g id="patch_81">
    <path d="M 315.8304 266.719998 
L 321.8976 266.719998 
L 321.8976 241.784907 
L 315.8304 241.784907 
z
" clip-path="url(#p12f0be0a3e)" style="fill: #a52a2a"/>
   </g>
   <g id="patch_82">
    <path d="M 323.4144 267.457617 
L 329.4816 267.457617 
L 329.4816 229.641194 
L 323.4144 229.641194 
z
" clip-path="url(#p12f0be0a3e)" style="fill: #a52a2a"/>
   </g>
   <g id="patch_83">
    <path d="M 330.9984 266.594064 
L 337.0656 266.594064 
L 337.0656 244.645426 
L 330.9984 244.645426 
z
" clip-path="url(#p12f0be0a3e)" style="fill: #a52a2a"/>
   </g>
   <g id="patch_84">
    <path d="M 338.5824 266.576073 
L 344.6496 266.576073 
L 344.6496 217.947248 
L 338.5824 217.947248 
z
" clip-path="url(#p12f0be0a3e)" style="fill: #a52a2a"/>
   </g>
   <g id="patch_85">
    <path d="M 346.1664 268.645002 
L 352.2336 268.645002 
L 352.2336 237.305226 
L 346.1664 237.305226 
z
" clip-path="url(#p12f0be0a3e)" style="fill: #a52a2a"/>
   </g>
   <g id="patch_86">
    <path d="M 353.7504 267.997337 
L 359.8176 267.997337 
L 359.8176 230.414794 
L 353.7504 230.414794 
z
" clip-path="url(#p12f0be0a3e)" style="fill: #a52a2a"/>
   </g>
   <g id="patch_87">
    <path d="M 361.3344 266.863924 
L 367.4016 266.863924 
L 367.4016 232.393769 
L 361.3344 232.393769 
z
" clip-path="url(#p12f0be0a3e)" style="fill: #a52a2a"/>
   </g>
   <g id="patch_88">
    <path d="M 368.9184 267.763458 
L 374.9856 267.763458 
L 374.9856 229.497269 
L 368.9184 229.497269 
z
" clip-path="url(#p12f0be0a3e)" style="fill: #a52a2a"/>
   </g>
   <g id="patch_89">
    <path d="M 376.5024 267.997337 
L 382.5696 267.997337 
L 382.5696 232.375778 
L 376.5024 232.375778 
z
" clip-path="url(#p12f0be0a3e)" style="fill: #a52a2a"/>
   </g>
   <g id="patch_90">
    <path d="M 384.0864 267.079812 
L 390.1536 267.079812 
L 390.1536 228.651706 
L 384.0864 228.651706 
z
" clip-path="url(#p12f0be0a3e)" style="fill: #a52a2a"/>
   </g>
   <g id="patch_91">
    <path d="M 391.6704 266.881915 
L 397.7376 266.881915 
L 397.7376 227.194461 
L 391.6704 227.194461 
z
" clip-path="url(#p12f0be0a3e)" style="fill: #a52a2a"/>
   </g>
   <g id="patch_92">
    <path d="M 399.2544 267.691496 
L 405.3216 267.691496 
L 405.3216 224.225997 
L 399.2544 224.225997 
z
" clip-path="url(#p12f0be0a3e)" style="fill: #a52a2a"/>
   </g>
   <g id="patch_93">
    <path d="M 406.8384 268.105281 
L 412.9056 268.105281 
L 412.9056 239.050323 
L 406.8384 239.050323 
z
" clip-path="url(#p12f0be0a3e)" style="fill: #a52a2a"/>
   </g>
   <g id="patch_94">
    <path d="M 414.4224 267.907384 
L 420.4896 267.907384 
L 420.4896 239.679997 
L 414.4224 239.679997 
z
" clip-path="url(#p12f0be0a3e)" style="fill: #a52a2a"/>
   </g>
   <g id="patch_95">
    <path d="M 422.0064 267.187756 
L 428.0736 267.187756 
L 428.0736 221.437441 
L 422.0064 221.437441 
z
" clip-path="url(#p12f0be0a3e)" style="fill: #a52a2a"/>
   </g>
   <g id="patch_96">
    <path d="M 429.5904 267.403645 
L 435.6576 267.403645 
L 435.6576 223.326463 
L 429.5904 223.326463 
z
" clip-path="url(#p12f0be0a3e)" style="fill: #a52a2a"/>
   </g>
   <g id="patch_97">
    <path d="M 437.1744 266.845933 
L 443.2416 266.845933 
L 443.2416 266.180278 
L 437.1744 266.180278 
z
" clip-path="url(#p12f0be0a3e)" style="fill: #a52a2a"/>
   </g>
   <g id="patch_98">
    <path d="M 444.7584 267.097803 
L 450.8256 267.097803 
L 450.8256 253.604788 
L 444.7584 253.604788 
z
" clip-path="url(#p12f0be0a3e)" style="fill: #a52a2a"/>
   </g>
   <g id="patch_99">
    <path d="M 88.3104 113.511314 
L 94.3776 113.511314 
L 94.3776 87.19094 
L 88.3104 87.19094 
z
" clip-path="url(#p12f0be0a3e)" style="fill: #f08080"/>
   </g>
   <g id="patch_100">
    <path d="M 95.8944 134.12864 
L 101.9616 134.12864 
L 101.9616 113.907109 
L 95.8944 113.907109 
z
" clip-path="url(#p12f0be0a3e)" style="fill: #f08080"/>
   </g>
   <g id="patch_101">
    <path d="M 103.4784 148.467217 
L 109.5456 148.467217 
L 109.5456 128.35363 
L 103.4784 128.35363 
z
" clip-path="url(#p12f0be0a3e)" style="fill: #f08080"/>
   </g>
   <g id="patch_102">
    <path d="M 111.0624 165.648323 
L 117.1296 165.648323 
L 117.1296 147.297823 
L 111.0624 147.297823 
z
" clip-path="url(#p12f0be0a3e)" style="fill: #f08080"/>
   </g>
   <g id="patch_103">
    <path d="M 118.6464 180.77849 
L 124.7136 180.77849 
L 124.7136 163.47145 
L 118.6464 163.47145 
z
" clip-path="url(#p12f0be0a3e)" style="fill: #f08080"/>
   </g>
   <g id="patch_104">
    <path d="M 126.2304 197.797679 
L 132.2976 197.797679 
L 132.2976 180.850453 
L 126.2304 180.850453 
z
" clip-path="url(#p12f0be0a3e)" style="fill: #f08080"/>
   </g>
   <g id="patch_105">
    <path d="M 133.8144 212.909856 
L 139.8816 212.909856 
L 139.8816 196.214499 
L 133.8144 196.214499 
z
" clip-path="url(#p12f0be0a3e)" style="fill: #f08080"/>
   </g>
   <g id="patch_106">
    <path d="M 141.3984 228.471799 
L 147.4656 228.471799 
L 147.4656 210.193262 
L 141.3984 210.193262 
z
" clip-path="url(#p12f0be0a3e)" style="fill: #f08080"/>
   </g>
   <g id="patch_107">
    <path d="M 148.9824 244.285613 
L 155.0496 244.285613 
L 155.0496 225.647262 
L 148.9824 225.647262 
z
" clip-path="url(#p12f0be0a3e)" style="fill: #f08080"/>
   </g>
   <g id="patch_108">
    <path d="M 156.5664 260.801063 
L 162.6336 260.801063 
L 162.6336 242.144721 
L 156.5664 242.144721 
z
" clip-path="url(#p12f0be0a3e)" style="fill: #f08080"/>
   </g>
   <g id="patch_109">
    <path d="M 164.1504 270.821875 
L 170.2176 270.821875 
L 170.2176 253.496844 
L 164.1504 253.496844 
z
" clip-path="url(#p12f0be0a3e)" style="fill: #f08080"/>
   </g>
   <g id="patch_110">
    <path d="M 171.7344 271.973279 
L 177.8016 271.973279 
L 177.8016 253.316937 
L 171.7344 253.316937 
z
" clip-path="url(#p12f0be0a3e)" style="fill: #f08080"/>
   </g>
   <g id="patch_111">
    <path d="M 179.3184 273.556459 
L 185.3856 273.556459 
L 185.3856 255.187969 
L 179.3184 255.187969 
z
" clip-path="url(#p12f0be0a3e)" style="fill: #f08080"/>
   </g>
   <g id="patch_112">
    <path d="M 186.9024 274.653891 
L 192.9696 274.653891 
L 192.9696 255.925587 
L 186.9024 255.925587 
z
" clip-path="url(#p12f0be0a3e)" style="fill: #f08080"/>
   </g>
   <g id="patch_113">
    <path d="M 194.4864 275.607398 
L 200.5536 275.607398 
L 200.5536 257.059 
L 194.4864 257.059 
z
" clip-path="url(#p12f0be0a3e)" style="fill: #f08080"/>
   </g>
   <g id="patch_114">
    <path d="M 202.0704 275.589407 
L 208.1376 275.589407 
L 208.1376 259.865547 
L 202.0704 259.865547 
z
" clip-path="url(#p12f0be0a3e)" style="fill: #f08080"/>
   </g>
   <g id="patch_115">
    <path d="M 209.6544 275.949221 
L 215.7216 275.949221 
L 215.7216 258.426292 
L 209.6544 258.426292 
z
" clip-path="url(#p12f0be0a3e)" style="fill: #f08080"/>
   </g>
   <g id="patch_116">
    <path d="M 217.2384 276.416978 
L 223.3056 276.416978 
L 223.3056 257.724655 
L 217.2384 257.724655 
z
" clip-path="url(#p12f0be0a3e)" style="fill: #f08080"/>
   </g>
   <g id="patch_117">
    <path d="M 224.8224 275.427491 
L 230.8896 275.427491 
L 230.8896 257.202925 
L 224.8224 257.202925 
z
" clip-path="url(#p12f0be0a3e)" style="fill: #f08080"/>
   </g>
   <g id="patch_118">
    <path d="M 232.4064 276.506932 
L 238.4736 276.506932 
L 238.4736 257.31087 
L 232.4064 257.31087 
z
" clip-path="url(#p12f0be0a3e)" style="fill: #f08080"/>
   </g>
   <g id="patch_119">
    <path d="M 239.9904 276.542913 
L 246.0576 276.542913 
L 246.0576 257.436804 
L 239.9904 257.436804 
z
" clip-path="url(#p12f0be0a3e)" style="fill: #f08080"/>
   </g>
   <g id="patch_120">
    <path d="M 247.5744 276.416978 
L 253.6416 276.416978 
L 253.6416 257.220916 
L 247.5744 257.220916 
z
" clip-path="url(#p12f0be0a3e)" style="fill: #f08080"/>
   </g>
   <g id="patch_121">
    <path d="M 255.1584 275.949221 
L 261.2256 275.949221 
L 261.2256 254.97208 
L 255.1584 254.97208 
z
" clip-path="url(#p12f0be0a3e)" style="fill: #f08080"/>
   </g>
   <g id="patch_122">
    <path d="M 262.7424 276.219081 
L 268.8096 276.219081 
L 268.8096 257.041009 
L 262.7424 257.041009 
z
" clip-path="url(#p12f0be0a3e)" style="fill: #f08080"/>
   </g>
   <g id="patch_123">
    <path d="M 270.3264 276.363006 
L 276.3936 276.363006 
L 276.3936 258.444283 
L 270.3264 258.444283 
z
" clip-path="url(#p12f0be0a3e)" style="fill: #f08080"/>
   </g>
   <g id="patch_124">
    <path d="M 277.9104 276.848755 
L 283.9776 276.848755 
L 283.9776 257.760637 
L 277.9104 257.760637 
z
" clip-path="url(#p12f0be0a3e)" style="fill: #f08080"/>
   </g>
   <g id="patch_125">
    <path d="M 285.4944 276.578895 
L 291.5616 276.578895 
L 291.5616 256.969047 
L 285.4944 256.969047 
z
" clip-path="url(#p12f0be0a3e)" style="fill: #f08080"/>
   </g>
   <g id="patch_126">
    <path d="M 293.0784 276.434969 
L 299.1456 276.434969 
L 299.1456 257.778627 
L 293.0784 257.778627 
z
" clip-path="url(#p12f0be0a3e)" style="fill: #f08080"/>
   </g>
   <g id="patch_127">
    <path d="M 300.6624 275.517444 
L 306.7296 275.517444 
L 306.7296 257.148953 
L 300.6624 257.148953 
z
" clip-path="url(#p12f0be0a3e)" style="fill: #f08080"/>
   </g>
   <g id="patch_128">
    <path d="M 308.2464 276.003193 
L 314.3136 276.003193 
L 314.3136 257.364842 
L 308.2464 257.364842 
z
" clip-path="url(#p12f0be0a3e)" style="fill: #f08080"/>
   </g>
   <g id="patch_129">
    <path d="M 315.8304 275.805295 
L 321.8976 275.805295 
L 321.8976 257.076991 
L 315.8304 257.076991 
z
" clip-path="url(#p12f0be0a3e)" style="fill: #f08080"/>
   </g>
   <g id="patch_130">
    <path d="M 323.4144 276.524923 
L 329.4816 276.524923 
L 329.4816 257.868581 
L 323.4144 257.868581 
z
" clip-path="url(#p12f0be0a3e)" style="fill: #f08080"/>
   </g>
   <g id="patch_131">
    <path d="M 330.9984 275.787304 
L 337.0656 275.787304 
L 337.0656 257.526758 
L 330.9984 257.526758 
z
" clip-path="url(#p12f0be0a3e)" style="fill: #f08080"/>
   </g>
   <g id="patch_132">
    <path d="M 338.5824 275.967211 
L 344.6496 275.967211 
L 344.6496 257.616711 
L 338.5824 257.616711 
z
" clip-path="url(#p12f0be0a3e)" style="fill: #f08080"/>
   </g>
   <g id="patch_133">
    <path d="M 346.1664 277.226559 
L 352.2336 277.226559 
L 352.2336 259.217882 
L 346.1664 259.217882 
z
" clip-path="url(#p12f0be0a3e)" style="fill: #f08080"/>
   </g>
   <g id="patch_134">
    <path d="M 353.7504 276.650857 
L 359.8176 276.650857 
L 359.8176 259.091948 
L 353.7504 259.091948 
z
" clip-path="url(#p12f0be0a3e)" style="fill: #f08080"/>
   </g>
   <g id="patch_135">
    <path d="M 361.3344 276.021183 
L 367.4016 276.021183 
L 367.4016 256.753158 
L 361.3344 256.753158 
z
" clip-path="url(#p12f0be0a3e)" style="fill: #f08080"/>
   </g>
   <g id="patch_136">
    <path d="M 368.9184 276.578895 
L 374.9856 276.578895 
L 374.9856 258.192413 
L 368.9184 258.192413 
z
" clip-path="url(#p12f0be0a3e)" style="fill: #f08080"/>
   </g>
   <g id="patch_137">
    <path d="M 376.5024 276.596885 
L 382.5696 276.596885 
L 382.5696 257.85059 
L 376.5024 257.85059 
z
" clip-path="url(#p12f0be0a3e)" style="fill: #f08080"/>
   </g>
   <g id="patch_138">
    <path d="M 384.0864 275.949221 
L 390.1536 275.949221 
L 390.1536 257.670683 
L 384.0864 257.670683 
z
" clip-path="url(#p12f0be0a3e)" style="fill: #f08080"/>
   </g>
   <g id="patch_139">
    <path d="M 391.6704 276.057165 
L 397.7376 276.057165 
L 397.7376 257.472786 
L 391.6704 257.472786 
z
" clip-path="url(#p12f0be0a3e)" style="fill: #f08080"/>
   </g>
   <g id="patch_140">
    <path d="M 399.2544 276.920718 
L 405.3216 276.920718 
L 405.3216 259.127929 
L 399.2544 259.127929 
z
" clip-path="url(#p12f0be0a3e)" style="fill: #f08080"/>
   </g>
   <g id="patch_141">
    <path d="M 406.8384 276.363006 
L 412.9056 276.363006 
L 412.9056 259.091948 
L 406.8384 259.091948 
z
" clip-path="url(#p12f0be0a3e)" style="fill: #f08080"/>
   </g>
   <g id="patch_142">
    <path d="M 414.4224 276.380997 
L 420.4896 276.380997 
L 420.4896 258.354329 
L 414.4224 258.354329 
z
" clip-path="url(#p12f0be0a3e)" style="fill: #f08080"/>
   </g>
   <g id="patch_143">
    <path d="M 422.0064 276.398988 
L 428.0736 276.398988 
L 428.0736 257.544748 
L 422.0064 257.544748 
z
" clip-path="url(#p12f0be0a3e)" style="fill: #f08080"/>
   </g>
   <g id="patch_144">
    <path d="M 429.5904 276.255062 
L 435.6576 276.255062 
L 435.6576 257.958534 
L 429.5904 257.958534 
z
" clip-path="url(#p12f0be0a3e)" style="fill: #f08080"/>
   </g>
   <g id="patch_145">
    <path d="M 437.1744 275.427491 
L 443.2416 275.427491 
L 443.2416 257.886572 
L 437.1744 257.886572 
z
" clip-path="url(#p12f0be0a3e)" style="fill: #f08080"/>
   </g>
   <g id="patch_146">
    <path d="M 444.7584 276.111137 
L 450.8256 276.111137 
L 450.8256 257.094981 
L 444.7584 257.094981 
z
" clip-path="url(#p12f0be0a3e)" style="fill: #f08080"/>
   </g>
   <g id="patch_147">
    <path d="M 88.3104 293.76 
L 94.3776 293.76 
L 94.3776 113.511314 
L 88.3104 113.511314 
z
" clip-path="url(#p12f0be0a3e)" style="fill: #ffe4e1"/>
   </g>
   <g id="patch_148">
    <path d="M 95.8944 293.76 
L 101.9616 293.76 
L 101.9616 134.12864 
L 95.8944 134.12864 
z
" clip-path="url(#p12f0be0a3e)" style="fill: #ffe4e1"/>
   </g>
   <g id="patch_149">
    <path d="M 103.4784 293.76 
L 109.5456 293.76 
L 109.5456 148.467217 
L 103.4784 148.467217 
z
" clip-path="url(#p12f0be0a3e)" style="fill: #ffe4e1"/>
   </g>
   <g id="patch_150">
    <path d="M 111.0624 293.76 
L 117.1296 293.76 
L 117.1296 165.648323 
L 111.0624 165.648323 
z
" clip-path="url(#p12f0be0a3e)" style="fill: #ffe4e1"/>
   </g>
   <g id="patch_151">
    <path d="M 118.6464 293.76 
L 124.7136 293.76 
L 124.7136 180.77849 
L 118.6464 180.77849 
z
" clip-path="url(#p12f0be0a3e)" style="fill: #ffe4e1"/>
   </g>
   <g id="patch_152">
    <path d="M 126.2304 293.76 
L 132.2976 293.76 
L 132.2976 197.797679 
L 126.2304 197.797679 
z
" clip-path="url(#p12f0be0a3e)" style="fill: #ffe4e1"/>
   </g>
   <g id="patch_153">
    <path d="M 133.8144 293.76 
L 139.8816 293.76 
L 139.8816 212.909856 
L 133.8144 212.909856 
z
" clip-path="url(#p12f0be0a3e)" style="fill: #ffe4e1"/>
   </g>
   <g id="patch_154">
    <path d="M 141.3984 293.76 
L 147.4656 293.76 
L 147.4656 228.471799 
L 141.3984 228.471799 
z
" clip-path="url(#p12f0be0a3e)" style="fill: #ffe4e1"/>
   </g>
   <g id="patch_155">
    <path d="M 148.9824 293.76 
L 155.0496 293.76 
L 155.0496 244.285613 
L 148.9824 244.285613 
z
" clip-path="url(#p12f0be0a3e)" style="fill: #ffe4e1"/>
   </g>
   <g id="patch_156">
    <path d="M 156.5664 293.76 
L 162.6336 293.76 
L 162.6336 260.801063 
L 156.5664 260.801063 
z
" clip-path="url(#p12f0be0a3e)" style="fill: #ffe4e1"/>
   </g>
   <g id="patch_157">
    <path d="M 164.1504 293.76 
L 170.2176 293.76 
L 170.2176 270.821875 
L 164.1504 270.821875 
z
" clip-path="url(#p12f0be0a3e)" style="fill: #ffe4e1"/>
   </g>
   <g id="patch_158">
    <path d="M 171.7344 293.76 
L 177.8016 293.76 
L 177.8016 271.973279 
L 171.7344 271.973279 
z
" clip-path="url(#p12f0be0a3e)" style="fill: #ffe4e1"/>
   </g>
   <g id="patch_159">
    <path d="M 179.3184 293.76 
L 185.3856 293.76 
L 185.3856 273.556459 
L 179.3184 273.556459 
z
" clip-path="url(#p12f0be0a3e)" style="fill: #ffe4e1"/>
   </g>
   <g id="patch_160">
    <path d="M 186.9024 293.76 
L 192.9696 293.76 
L 192.9696 274.653891 
L 186.9024 274.653891 
z
" clip-path="url(#p12f0be0a3e)" style="fill: #ffe4e1"/>
   </g>
   <g id="patch_161">
    <path d="M 194.4864 293.76 
L 200.5536 293.76 
L 200.5536 275.607398 
L 194.4864 275.607398 
z
" clip-path="url(#p12f0be0a3e)" style="fill: #ffe4e1"/>
   </g>
   <g id="patch_162">
    <path d="M 202.0704 293.76 
L 208.1376 293.76 
L 208.1376 275.589407 
L 202.0704 275.589407 
z
" clip-path="url(#p12f0be0a3e)" style="fill: #ffe4e1"/>
   </g>
   <g id="patch_163">
    <path d="M 209.6544 293.76 
L 215.7216 293.76 
L 215.7216 275.949221 
L 209.6544 275.949221 
z
" clip-path="url(#p12f0be0a3e)" style="fill: #ffe4e1"/>
   </g>
   <g id="patch_164">
    <path d="M 217.2384 293.76 
L 223.3056 293.76 
L 223.3056 276.416978 
L 217.2384 276.416978 
z
" clip-path="url(#p12f0be0a3e)" style="fill: #ffe4e1"/>
   </g>
   <g id="patch_165">
    <path d="M 224.8224 293.76 
L 230.8896 293.76 
L 230.8896 275.427491 
L 224.8224 275.427491 
z
" clip-path="url(#p12f0be0a3e)" style="fill: #ffe4e1"/>
   </g>
   <g id="patch_166">
    <path d="M 232.4064 293.76 
L 238.4736 293.76 
L 238.4736 276.506932 
L 232.4064 276.506932 
z
" clip-path="url(#p12f0be0a3e)" style="fill: #ffe4e1"/>
   </g>
   <g id="patch_167">
    <path d="M 239.9904 293.76 
L 246.0576 293.76 
L 246.0576 276.542913 
L 239.9904 276.542913 
z
" clip-path="url(#p12f0be0a3e)" style="fill: #ffe4e1"/>
   </g>
   <g id="patch_168">
    <path d="M 247.5744 293.76 
L 253.6416 293.76 
L 253.6416 276.416978 
L 247.5744 276.416978 
z
" clip-path="url(#p12f0be0a3e)" style="fill: #ffe4e1"/>
   </g>
   <g id="patch_169">
    <path d="M 255.1584 293.76 
L 261.2256 293.76 
L 261.2256 275.949221 
L 255.1584 275.949221 
z
" clip-path="url(#p12f0be0a3e)" style="fill: #ffe4e1"/>
   </g>
   <g id="patch_170">
    <path d="M 262.7424 293.76 
L 268.8096 293.76 
L 268.8096 276.219081 
L 262.7424 276.219081 
z
" clip-path="url(#p12f0be0a3e)" style="fill: #ffe4e1"/>
   </g>
   <g id="patch_171">
    <path d="M 270.3264 293.76 
L 276.3936 293.76 
L 276.3936 276.363006 
L 270.3264 276.363006 
z
" clip-path="url(#p12f0be0a3e)" style="fill: #ffe4e1"/>
   </g>
   <g id="patch_172">
    <path d="M 277.9104 293.76 
L 283.9776 293.76 
L 283.9776 276.848755 
L 277.9104 276.848755 
z
" clip-path="url(#p12f0be0a3e)" style="fill: #ffe4e1"/>
   </g>
   <g id="patch_173">
    <path d="M 285.4944 293.76 
L 291.5616 293.76 
L 291.5616 276.578895 
L 285.4944 276.578895 
z
" clip-path="url(#p12f0be0a3e)" style="fill: #ffe4e1"/>
   </g>
   <g id="patch_174">
    <path d="M 293.0784 293.76 
L 299.1456 293.76 
L 299.1456 276.434969 
L 293.0784 276.434969 
z
" clip-path="url(#p12f0be0a3e)" style="fill: #ffe4e1"/>
   </g>
   <g id="patch_175">
    <path d="M 300.6624 293.76 
L 306.7296 293.76 
L 306.7296 275.517444 
L 300.6624 275.517444 
z
" clip-path="url(#p12f0be0a3e)" style="fill: #ffe4e1"/>
   </g>
   <g id="patch_176">
    <path d="M 308.2464 293.76 
L 314.3136 293.76 
L 314.3136 276.003193 
L 308.2464 276.003193 
z
" clip-path="url(#p12f0be0a3e)" style="fill: #ffe4e1"/>
   </g>
   <g id="patch_177">
    <path d="M 315.8304 293.76 
L 321.8976 293.76 
L 321.8976 275.805295 
L 315.8304 275.805295 
z
" clip-path="url(#p12f0be0a3e)" style="fill: #ffe4e1"/>
   </g>
   <g id="patch_178">
    <path d="M 323.4144 293.76 
L 329.4816 293.76 
L 329.4816 276.524923 
L 323.4144 276.524923 
z
" clip-path="url(#p12f0be0a3e)" style="fill: #ffe4e1"/>
   </g>
   <g id="patch_179">
    <path d="M 330.9984 293.76 
L 337.0656 293.76 
L 337.0656 275.787304 
L 330.9984 275.787304 
z
" clip-path="url(#p12f0be0a3e)" style="fill: #ffe4e1"/>
   </g>
   <g id="patch_180">
    <path d="M 338.5824 293.76 
L 344.6496 293.76 
L 344.6496 275.967211 
L 338.5824 275.967211 
z
" clip-path="url(#p12f0be0a3e)" style="fill: #ffe4e1"/>
   </g>
   <g id="patch_181">
    <path d="M 346.1664 293.76 
L 352.2336 293.76 
L 352.2336 277.226559 
L 346.1664 277.226559 
z
" clip-path="url(#p12f0be0a3e)" style="fill: #ffe4e1"/>
   </g>
   <g id="patch_182">
    <path d="M 353.7504 293.76 
L 359.8176 293.76 
L 359.8176 276.650857 
L 353.7504 276.650857 
z
" clip-path="url(#p12f0be0a3e)" style="fill: #ffe4e1"/>
   </g>
   <g id="patch_183">
    <path d="M 361.3344 293.76 
L 367.4016 293.76 
L 367.4016 276.021183 
L 361.3344 276.021183 
z
" clip-path="url(#p12f0be0a3e)" style="fill: #ffe4e1"/>
   </g>
   <g id="patch_184">
    <path d="M 368.9184 293.76 
L 374.9856 293.76 
L 374.9856 276.578895 
L 368.9184 276.578895 
z
" clip-path="url(#p12f0be0a3e)" style="fill: #ffe4e1"/>
   </g>
   <g id="patch_185">
    <path d="M 376.5024 293.76 
L 382.5696 293.76 
L 382.5696 276.596885 
L 376.5024 276.596885 
z
" clip-path="url(#p12f0be0a3e)" style="fill: #ffe4e1"/>
   </g>
   <g id="patch_186">
    <path d="M 384.0864 293.76 
L 390.1536 293.76 
L 390.1536 275.949221 
L 384.0864 275.949221 
z
" clip-path="url(#p12f0be0a3e)" style="fill: #ffe4e1"/>
   </g>
   <g id="patch_187">
    <path d="M 391.6704 293.76 
L 397.7376 293.76 
L 397.7376 276.057165 
L 391.6704 276.057165 
z
" clip-path="url(#p12f0be0a3e)" style="fill: #ffe4e1"/>
   </g>
   <g id="patch_188">
    <path d="M 399.2544 293.76 
L 405.3216 293.76 
L 405.3216 276.920718 
L 399.2544 276.920718 
z
" clip-path="url(#p12f0be0a3e)" style="fill: #ffe4e1"/>
   </g>
   <g id="patch_189">
    <path d="M 406.8384 293.76 
L 412.9056 293.76 
L 412.9056 276.363006 
L 406.8384 276.363006 
z
" clip-path="url(#p12f0be0a3e)" style="fill: #ffe4e1"/>
   </g>
   <g id="patch_190">
    <path d="M 414.4224 293.76 
L 420.4896 293.76 
L 420.4896 276.380997 
L 414.4224 276.380997 
z
" clip-path="url(#p12f0be0a3e)" style="fill: #ffe4e1"/>
   </g>
   <g id="patch_191">
    <path d="M 422.0064 293.76 
L 428.0736 293.76 
L 428.0736 276.398988 
L 422.0064 276.398988 
z
" clip-path="url(#p12f0be0a3e)" style="fill: #ffe4e1"/>
   </g>
   <g id="patch_192">
    <path d="M 429.5904 293.76 
L 435.6576 293.76 
L 435.6576 276.255062 
L 429.5904 276.255062 
z
" clip-path="url(#p12f0be0a3e)" style="fill: #ffe4e1"/>
   </g>
   <g id="patch_193">
    <path d="M 437.1744 293.76 
L 443.2416 293.76 
L 443.2416 275.427491 
L 437.1744 275.427491 
z
" clip-path="url(#p12f0be0a3e)" style="fill: #ffe4e1"/>
   </g>
   <g id="patch_194">
    <path d="M 444.7584 293.76 
L 450.8256 293.76 
L 450.8256 276.111137 
L 444.7584 276.111137 
z
" clip-path="url(#p12f0be0a3e)" style="fill: #ffe4e1"/>
   </g>
   <g id="matplotlib.axis_1">
    <g id="xtick_1">
     <g id="line2d_1">
      <path d="M 159.6 293.76 
L 159.6 6.912 
" clip-path="url(#p12f0be0a3e)" style="fill: none; stroke: #b0b0b0; stroke-width: 0.8; stroke-linecap: square"/>
     </g>
     <g id="line2d_2">
      <defs>
       <path id="ma52acd6e65" d="M 0 0 
L 0 3.5 
" style="stroke: #000000; stroke-width: 0.8"/>
      </defs>
      <g>
       <use xlink:href="#ma52acd6e65" x="159.6" y="293.76" style="stroke: #000000; stroke-width: 0.8"/>
      </g>
     </g>
     <g id="text_1">
      <!-- 10 -->
      <g transform="translate(146.875 315.956875) scale(0.2 -0.2)">
       <defs>
        <path id="DejaVuSans-31" d="M 794 531 
L 1825 531 
L 1825 4091 
L 703 3866 
L 703 4441 
L 1819 4666 
L 2450 4666 
L 2450 531 
L 3481 531 
L 3481 0 
L 794 0 
L 794 531 
z
" transform="scale(0.015625)"/>
        <path id="DejaVuSans-30" d="M 2034 4250 
Q 1547 4250 1301 3770 
Q 1056 3291 1056 2328 
Q 1056 1369 1301 889 
Q 1547 409 2034 409 
Q 2525 409 2770 889 
Q 3016 1369 3016 2328 
Q 3016 3291 2770 3770 
Q 2525 4250 2034 4250 
z
M 2034 4750 
Q 2819 4750 3233 4129 
Q 3647 3509 3647 2328 
Q 3647 1150 3233 529 
Q 2819 -91 2034 -91 
Q 1250 -91 836 529 
Q 422 1150 422 2328 
Q 422 3509 836 4129 
Q 1250 4750 2034 4750 
z
" transform="scale(0.015625)"/>
       </defs>
       <use xlink:href="#DejaVuSans-31"/>
       <use xlink:href="#DejaVuSans-30" x="63.623047"/>
      </g>
     </g>
    </g>
    <g id="xtick_2">
     <g id="line2d_3">
      <path d="M 235.44 293.76 
L 235.44 6.912 
" clip-path="url(#p12f0be0a3e)" style="fill: none; stroke: #b0b0b0; stroke-width: 0.8; stroke-linecap: square"/>
     </g>
     <g id="line2d_4">
      <g>
       <use xlink:href="#ma52acd6e65" x="235.44" y="293.76" style="stroke: #000000; stroke-width: 0.8"/>
      </g>
     </g>
     <g id="text_2">
      <!-- 20 -->
      <g transform="translate(222.715 315.956875) scale(0.2 -0.2)">
       <defs>
        <path id="DejaVuSans-32" d="M 1228 531 
L 3431 531 
L 3431 0 
L 469 0 
L 469 531 
Q 828 903 1448 1529 
Q 2069 2156 2228 2338 
Q 2531 2678 2651 2914 
Q 2772 3150 2772 3378 
Q 2772 3750 2511 3984 
Q 2250 4219 1831 4219 
Q 1534 4219 1204 4116 
Q 875 4013 500 3803 
L 500 4441 
Q 881 4594 1212 4672 
Q 1544 4750 1819 4750 
Q 2544 4750 2975 4387 
Q 3406 4025 3406 3419 
Q 3406 3131 3298 2873 
Q 3191 2616 2906 2266 
Q 2828 2175 2409 1742 
Q 1991 1309 1228 531 
z
" transform="scale(0.015625)"/>
       </defs>
       <use xlink:href="#DejaVuSans-32"/>
       <use xlink:href="#DejaVuSans-30" x="63.623047"/>
      </g>
     </g>
    </g>
    <g id="xtick_3">
     <g id="line2d_5">
      <path d="M 311.28 293.76 
L 311.28 6.912 
" clip-path="url(#p12f0be0a3e)" style="fill: none; stroke: #b0b0b0; stroke-width: 0.8; stroke-linecap: square"/>
     </g>
     <g id="line2d_6">
      <g>
       <use xlink:href="#ma52acd6e65" x="311.28" y="293.76" style="stroke: #000000; stroke-width: 0.8"/>
      </g>
     </g>
     <g id="text_3">
      <!-- 30 -->
      <g transform="translate(298.555 315.956875) scale(0.2 -0.2)">
       <defs>
        <path id="DejaVuSans-33" d="M 2597 2516 
Q 3050 2419 3304 2112 
Q 3559 1806 3559 1356 
Q 3559 666 3084 287 
Q 2609 -91 1734 -91 
Q 1441 -91 1130 -33 
Q 819 25 488 141 
L 488 750 
Q 750 597 1062 519 
Q 1375 441 1716 441 
Q 2309 441 2620 675 
Q 2931 909 2931 1356 
Q 2931 1769 2642 2001 
Q 2353 2234 1838 2234 
L 1294 2234 
L 1294 2753 
L 1863 2753 
Q 2328 2753 2575 2939 
Q 2822 3125 2822 3475 
Q 2822 3834 2567 4026 
Q 2313 4219 1838 4219 
Q 1578 4219 1281 4162 
Q 984 4106 628 3988 
L 628 4550 
Q 988 4650 1302 4700 
Q 1616 4750 1894 4750 
Q 2613 4750 3031 4423 
Q 3450 4097 3450 3541 
Q 3450 3153 3228 2886 
Q 3006 2619 2597 2516 
z
" transform="scale(0.015625)"/>
       </defs>
       <use xlink:href="#DejaVuSans-33"/>
       <use xlink:href="#DejaVuSans-30" x="63.623047"/>
      </g>
     </g>
    </g>
    <g id="xtick_4">
     <g id="line2d_7">
      <path d="M 387.12 293.76 
L 387.12 6.912 
" clip-path="url(#p12f0be0a3e)" style="fill: none; stroke: #b0b0b0; stroke-width: 0.8; stroke-linecap: square"/>
     </g>
     <g id="line2d_8">
      <g>
       <use xlink:href="#ma52acd6e65" x="387.12" y="293.76" style="stroke: #000000; stroke-width: 0.8"/>
      </g>
     </g>
     <g id="text_4">
      <!-- 40 -->
      <g transform="translate(374.395 315.956875) scale(0.2 -0.2)">
       <defs>
        <path id="DejaVuSans-34" d="M 2419 4116 
L 825 1625 
L 2419 1625 
L 2419 4116 
z
M 2253 4666 
L 3047 4666 
L 3047 1625 
L 3713 1625 
L 3713 1100 
L 3047 1100 
L 3047 0 
L 2419 0 
L 2419 1100 
L 313 1100 
L 313 1709 
L 2253 4666 
z
" transform="scale(0.015625)"/>
       </defs>
       <use xlink:href="#DejaVuSans-34"/>
       <use xlink:href="#DejaVuSans-30" x="63.623047"/>
      </g>
     </g>
    </g>
    <g id="text_5">
     <!-- batch iteration -->
     <g transform="translate(203.277375 337.793437) scale(0.18 -0.18)">
      <defs>
       <path id="DejaVuSans-62" d="M 3116 1747 
Q 3116 2381 2855 2742 
Q 2594 3103 2138 3103 
Q 1681 3103 1420 2742 
Q 1159 2381 1159 1747 
Q 1159 1113 1420 752 
Q 1681 391 2138 391 
Q 2594 391 2855 752 
Q 3116 1113 3116 1747 
z
M 1159 2969 
Q 1341 3281 1617 3432 
Q 1894 3584 2278 3584 
Q 2916 3584 3314 3078 
Q 3713 2572 3713 1747 
Q 3713 922 3314 415 
Q 2916 -91 2278 -91 
Q 1894 -91 1617 61 
Q 1341 213 1159 525 
L 1159 0 
L 581 0 
L 581 4863 
L 1159 4863 
L 1159 2969 
z
" transform="scale(0.015625)"/>
       <path id="DejaVuSans-61" d="M 2194 1759 
Q 1497 1759 1228 1600 
Q 959 1441 959 1056 
Q 959 750 1161 570 
Q 1363 391 1709 391 
Q 2188 391 2477 730 
Q 2766 1069 2766 1631 
L 2766 1759 
L 2194 1759 
z
M 3341 1997 
L 3341 0 
L 2766 0 
L 2766 531 
Q 2569 213 2275 61 
Q 1981 -91 1556 -91 
Q 1019 -91 701 211 
Q 384 513 384 1019 
Q 384 1609 779 1909 
Q 1175 2209 1959 2209 
L 2766 2209 
L 2766 2266 
Q 2766 2663 2505 2880 
Q 2244 3097 1772 3097 
Q 1472 3097 1187 3025 
Q 903 2953 641 2809 
L 641 3341 
Q 956 3463 1253 3523 
Q 1550 3584 1831 3584 
Q 2591 3584 2966 3190 
Q 3341 2797 3341 1997 
z
" transform="scale(0.015625)"/>
       <path id="DejaVuSans-74" d="M 1172 4494 
L 1172 3500 
L 2356 3500 
L 2356 3053 
L 1172 3053 
L 1172 1153 
Q 1172 725 1289 603 
Q 1406 481 1766 481 
L 2356 481 
L 2356 0 
L 1766 0 
Q 1100 0 847 248 
Q 594 497 594 1153 
L 594 3053 
L 172 3053 
L 172 3500 
L 594 3500 
L 594 4494 
L 1172 4494 
z
" transform="scale(0.015625)"/>
       <path id="DejaVuSans-63" d="M 3122 3366 
L 3122 2828 
Q 2878 2963 2633 3030 
Q 2388 3097 2138 3097 
Q 1578 3097 1268 2742 
Q 959 2388 959 1747 
Q 959 1106 1268 751 
Q 1578 397 2138 397 
Q 2388 397 2633 464 
Q 2878 531 3122 666 
L 3122 134 
Q 2881 22 2623 -34 
Q 2366 -91 2075 -91 
Q 1284 -91 818 406 
Q 353 903 353 1747 
Q 353 2603 823 3093 
Q 1294 3584 2113 3584 
Q 2378 3584 2631 3529 
Q 2884 3475 3122 3366 
z
" transform="scale(0.015625)"/>
       <path id="DejaVuSans-68" d="M 3513 2113 
L 3513 0 
L 2938 0 
L 2938 2094 
Q 2938 2591 2744 2837 
Q 2550 3084 2163 3084 
Q 1697 3084 1428 2787 
Q 1159 2491 1159 1978 
L 1159 0 
L 581 0 
L 581 4863 
L 1159 4863 
L 1159 2956 
Q 1366 3272 1645 3428 
Q 1925 3584 2291 3584 
Q 2894 3584 3203 3211 
Q 3513 2838 3513 2113 
z
" transform="scale(0.015625)"/>
       <path id="DejaVuSans-20" transform="scale(0.015625)"/>
       <path id="DejaVuSans-69" d="M 603 3500 
L 1178 3500 
L 1178 0 
L 603 0 
L 603 3500 
z
M 603 4863 
L 1178 4863 
L 1178 4134 
L 603 4134 
L 603 4863 
z
" transform="scale(0.015625)"/>
       <path id="DejaVuSans-65" d="M 3597 1894 
L 3597 1613 
L 953 1613 
Q 991 1019 1311 708 
Q 1631 397 2203 397 
Q 2534 397 2845 478 
Q 3156 559 3463 722 
L 3463 178 
Q 3153 47 2828 -22 
Q 2503 -91 2169 -91 
Q 1331 -91 842 396 
Q 353 884 353 1716 
Q 353 2575 817 3079 
Q 1281 3584 2069 3584 
Q 2775 3584 3186 3129 
Q 3597 2675 3597 1894 
z
M 3022 2063 
Q 3016 2534 2758 2815 
Q 2500 3097 2075 3097 
Q 1594 3097 1305 2825 
Q 1016 2553 972 2059 
L 3022 2063 
z
" transform="scale(0.015625)"/>
       <path id="DejaVuSans-72" d="M 2631 2963 
Q 2534 3019 2420 3045 
Q 2306 3072 2169 3072 
Q 1681 3072 1420 2755 
Q 1159 2438 1159 1844 
L 1159 0 
L 581 0 
L 581 3500 
L 1159 3500 
L 1159 2956 
Q 1341 3275 1631 3429 
Q 1922 3584 2338 3584 
Q 2397 3584 2469 3576 
Q 2541 3569 2628 3553 
L 2631 2963 
z
" transform="scale(0.015625)"/>
       <path id="DejaVuSans-6f" d="M 1959 3097 
Q 1497 3097 1228 2736 
Q 959 2375 959 1747 
Q 959 1119 1226 758 
Q 1494 397 1959 397 
Q 2419 397 2687 759 
Q 2956 1122 2956 1747 
Q 2956 2369 2687 2733 
Q 2419 3097 1959 3097 
z
M 1959 3584 
Q 2709 3584 3137 3096 
Q 3566 2609 3566 1747 
Q 3566 888 3137 398 
Q 2709 -91 1959 -91 
Q 1206 -91 779 398 
Q 353 888 353 1747 
Q 353 2609 779 3096 
Q 1206 3584 1959 3584 
z
" transform="scale(0.015625)"/>
       <path id="DejaVuSans-6e" d="M 3513 2113 
L 3513 0 
L 2938 0 
L 2938 2094 
Q 2938 2591 2744 2837 
Q 2550 3084 2163 3084 
Q 1697 3084 1428 2787 
Q 1159 2491 1159 1978 
L 1159 0 
L 581 0 
L 581 3500 
L 1159 3500 
L 1159 2956 
Q 1366 3272 1645 3428 
Q 1925 3584 2291 3584 
Q 2894 3584 3203 3211 
Q 3513 2838 3513 2113 
z
" transform="scale(0.015625)"/>
      </defs>
      <use xlink:href="#DejaVuSans-62"/>
      <use xlink:href="#DejaVuSans-61" x="63.476562"/>
      <use xlink:href="#DejaVuSans-74" x="124.755859"/>
      <use xlink:href="#DejaVuSans-63" x="163.964844"/>
      <use xlink:href="#DejaVuSans-68" x="218.945312"/>
      <use xlink:href="#DejaVuSans-20" x="282.324219"/>
      <use xlink:href="#DejaVuSans-69" x="314.111328"/>
      <use xlink:href="#DejaVuSans-74" x="341.894531"/>
      <use xlink:href="#DejaVuSans-65" x="381.103516"/>
      <use xlink:href="#DejaVuSans-72" x="442.626953"/>
      <use xlink:href="#DejaVuSans-61" x="483.740234"/>
      <use xlink:href="#DejaVuSans-74" x="545.019531"/>
      <use xlink:href="#DejaVuSans-69" x="584.228516"/>
      <use xlink:href="#DejaVuSans-6f" x="612.011719"/>
      <use xlink:href="#DejaVuSans-6e" x="673.193359"/>
     </g>
    </g>
   </g>
   <g id="matplotlib.axis_2">
    <g id="ytick_1">
     <g id="line2d_9">
      <path d="M 87.552 293.76 
L 451.584 293.76 
" clip-path="url(#p12f0be0a3e)" style="fill: none; stroke: #b0b0b0; stroke-width: 0.8; stroke-linecap: square"/>
     </g>
     <g id="line2d_10">
      <defs>
       <path id="m9d808cf591" d="M 0 0 
L -3.5 0 
" style="stroke: #000000; stroke-width: 0.8"/>
      </defs>
      <g>
       <use xlink:href="#m9d808cf591" x="87.552" y="293.76" style="stroke: #000000; stroke-width: 0.8"/>
      </g>
     </g>
     <g id="text_6">
      <!-- 0.000 -->
      <g transform="translate(23.29575 301.358437) scale(0.2 -0.2)">
       <defs>
        <path id="DejaVuSans-2e" d="M 684 794 
L 1344 794 
L 1344 0 
L 684 0 
L 684 794 
z
" transform="scale(0.015625)"/>
       </defs>
       <use xlink:href="#DejaVuSans-30"/>
       <use xlink:href="#DejaVuSans-2e" x="63.623047"/>
       <use xlink:href="#DejaVuSans-30" x="95.410156"/>
       <use xlink:href="#DejaVuSans-30" x="159.033203"/>
       <use xlink:href="#DejaVuSans-30" x="222.65625"/>
      </g>
     </g>
    </g>
    <g id="ytick_2">
     <g id="line2d_11">
      <path d="M 87.552 248.783284 
L 451.584 248.783284 
" clip-path="url(#p12f0be0a3e)" style="fill: none; stroke: #b0b0b0; stroke-width: 0.8; stroke-linecap: square"/>
     </g>
     <g id="line2d_12">
      <g>
       <use xlink:href="#m9d808cf591" x="87.552" y="248.783284" style="stroke: #000000; stroke-width: 0.8"/>
      </g>
     </g>
     <g id="text_7">
      <!-- 0.025 -->
      <g transform="translate(23.29575 256.381722) scale(0.2 -0.2)">
       <defs>
        <path id="DejaVuSans-35" d="M 691 4666 
L 3169 4666 
L 3169 4134 
L 1269 4134 
L 1269 2991 
Q 1406 3038 1543 3061 
Q 1681 3084 1819 3084 
Q 2600 3084 3056 2656 
Q 3513 2228 3513 1497 
Q 3513 744 3044 326 
Q 2575 -91 1722 -91 
Q 1428 -91 1123 -41 
Q 819 9 494 109 
L 494 744 
Q 775 591 1075 516 
Q 1375 441 1709 441 
Q 2250 441 2565 725 
Q 2881 1009 2881 1497 
Q 2881 1984 2565 2268 
Q 2250 2553 1709 2553 
Q 1456 2553 1204 2497 
Q 953 2441 691 2322 
L 691 4666 
z
" transform="scale(0.015625)"/>
       </defs>
       <use xlink:href="#DejaVuSans-30"/>
       <use xlink:href="#DejaVuSans-2e" x="63.623047"/>
       <use xlink:href="#DejaVuSans-30" x="95.410156"/>
       <use xlink:href="#DejaVuSans-32" x="159.033203"/>
       <use xlink:href="#DejaVuSans-35" x="222.65625"/>
      </g>
     </g>
    </g>
    <g id="ytick_3">
     <g id="line2d_13">
      <path d="M 87.552 203.806569 
L 451.584 203.806569 
" clip-path="url(#p12f0be0a3e)" style="fill: none; stroke: #b0b0b0; stroke-width: 0.8; stroke-linecap: square"/>
     </g>
     <g id="line2d_14">
      <g>
       <use xlink:href="#m9d808cf591" x="87.552" y="203.806569" style="stroke: #000000; stroke-width: 0.8"/>
      </g>
     </g>
     <g id="text_8">
      <!-- 0.050 -->
      <g transform="translate(23.29575 211.405006) scale(0.2 -0.2)">
       <use xlink:href="#DejaVuSans-30"/>
       <use xlink:href="#DejaVuSans-2e" x="63.623047"/>
       <use xlink:href="#DejaVuSans-30" x="95.410156"/>
       <use xlink:href="#DejaVuSans-35" x="159.033203"/>
       <use xlink:href="#DejaVuSans-30" x="222.65625"/>
      </g>
     </g>
    </g>
    <g id="ytick_4">
     <g id="line2d_15">
      <path d="M 87.552 158.829853 
L 451.584 158.829853 
" clip-path="url(#p12f0be0a3e)" style="fill: none; stroke: #b0b0b0; stroke-width: 0.8; stroke-linecap: square"/>
     </g>
     <g id="line2d_16">
      <g>
       <use xlink:href="#m9d808cf591" x="87.552" y="158.829853" style="stroke: #000000; stroke-width: 0.8"/>
      </g>
     </g>
     <g id="text_9">
      <!-- 0.075 -->
      <g transform="translate(23.29575 166.42829) scale(0.2 -0.2)">
       <defs>
        <path id="DejaVuSans-37" d="M 525 4666 
L 3525 4666 
L 3525 4397 
L 1831 0 
L 1172 0 
L 2766 4134 
L 525 4134 
L 525 4666 
z
" transform="scale(0.015625)"/>
       </defs>
       <use xlink:href="#DejaVuSans-30"/>
       <use xlink:href="#DejaVuSans-2e" x="63.623047"/>
       <use xlink:href="#DejaVuSans-30" x="95.410156"/>
       <use xlink:href="#DejaVuSans-37" x="159.033203"/>
       <use xlink:href="#DejaVuSans-35" x="222.65625"/>
      </g>
     </g>
    </g>
    <g id="ytick_5">
     <g id="line2d_17">
      <path d="M 87.552 113.853137 
L 451.584 113.853137 
" clip-path="url(#p12f0be0a3e)" style="fill: none; stroke: #b0b0b0; stroke-width: 0.8; stroke-linecap: square"/>
     </g>
     <g id="line2d_18">
      <g>
       <use xlink:href="#m9d808cf591" x="87.552" y="113.853137" style="stroke: #000000; stroke-width: 0.8"/>
      </g>
     </g>
     <g id="text_10">
      <!-- 0.100 -->
      <g transform="translate(23.29575 121.451575) scale(0.2 -0.2)">
       <use xlink:href="#DejaVuSans-30"/>
       <use xlink:href="#DejaVuSans-2e" x="63.623047"/>
       <use xlink:href="#DejaVuSans-31" x="95.410156"/>
       <use xlink:href="#DejaVuSans-30" x="159.033203"/>
       <use xlink:href="#DejaVuSans-30" x="222.65625"/>
      </g>
     </g>
    </g>
    <g id="ytick_6">
     <g id="line2d_19">
      <path d="M 87.552 68.876421 
L 451.584 68.876421 
" clip-path="url(#p12f0be0a3e)" style="fill: none; stroke: #b0b0b0; stroke-width: 0.8; stroke-linecap: square"/>
     </g>
     <g id="line2d_20">
      <g>
       <use xlink:href="#m9d808cf591" x="87.552" y="68.876421" style="stroke: #000000; stroke-width: 0.8"/>
      </g>
     </g>
     <g id="text_11">
      <!-- 0.125 -->
      <g transform="translate(23.29575 76.474859) scale(0.2 -0.2)">
       <use xlink:href="#DejaVuSans-30"/>
       <use xlink:href="#DejaVuSans-2e" x="63.623047"/>
       <use xlink:href="#DejaVuSans-31" x="95.410156"/>
       <use xlink:href="#DejaVuSans-32" x="159.033203"/>
       <use xlink:href="#DejaVuSans-35" x="222.65625"/>
      </g>
     </g>
    </g>
    <g id="ytick_7">
     <g id="line2d_21">
      <path d="M 87.552 23.899706 
L 451.584 23.899706 
" clip-path="url(#p12f0be0a3e)" style="fill: none; stroke: #b0b0b0; stroke-width: 0.8; stroke-linecap: square"/>
     </g>
     <g id="line2d_22">
      <g>
       <use xlink:href="#m9d808cf591" x="87.552" y="23.899706" style="stroke: #000000; stroke-width: 0.8"/>
      </g>
     </g>
     <g id="text_12">
      <!-- 0.150 -->
      <g transform="translate(23.29575 31.498143) scale(0.2 -0.2)">
       <use xlink:href="#DejaVuSans-30"/>
       <use xlink:href="#DejaVuSans-2e" x="63.623047"/>
       <use xlink:href="#DejaVuSans-31" x="95.410156"/>
       <use xlink:href="#DejaVuSans-35" x="159.033203"/>
       <use xlink:href="#DejaVuSans-30" x="222.65625"/>
      </g>
     </g>
    </g>
    <g id="text_13">
     <!-- time[s] -->
     <g transform="translate(15.552313 182.380219) rotate(-90) scale(0.18 -0.18)">
      <defs>
       <path id="DejaVuSans-6d" d="M 3328 2828 
Q 3544 3216 3844 3400 
Q 4144 3584 4550 3584 
Q 5097 3584 5394 3201 
Q 5691 2819 5691 2113 
L 5691 0 
L 5113 0 
L 5113 2094 
Q 5113 2597 4934 2840 
Q 4756 3084 4391 3084 
Q 3944 3084 3684 2787 
Q 3425 2491 3425 1978 
L 3425 0 
L 2847 0 
L 2847 2094 
Q 2847 2600 2669 2842 
Q 2491 3084 2119 3084 
Q 1678 3084 1418 2786 
Q 1159 2488 1159 1978 
L 1159 0 
L 581 0 
L 581 3500 
L 1159 3500 
L 1159 2956 
Q 1356 3278 1631 3431 
Q 1906 3584 2284 3584 
Q 2666 3584 2933 3390 
Q 3200 3197 3328 2828 
z
" transform="scale(0.015625)"/>
       <path id="DejaVuSans-5b" d="M 550 4863 
L 1875 4863 
L 1875 4416 
L 1125 4416 
L 1125 -397 
L 1875 -397 
L 1875 -844 
L 550 -844 
L 550 4863 
z
" transform="scale(0.015625)"/>
       <path id="DejaVuSans-73" d="M 2834 3397 
L 2834 2853 
Q 2591 2978 2328 3040 
Q 2066 3103 1784 3103 
Q 1356 3103 1142 2972 
Q 928 2841 928 2578 
Q 928 2378 1081 2264 
Q 1234 2150 1697 2047 
L 1894 2003 
Q 2506 1872 2764 1633 
Q 3022 1394 3022 966 
Q 3022 478 2636 193 
Q 2250 -91 1575 -91 
Q 1294 -91 989 -36 
Q 684 19 347 128 
L 347 722 
Q 666 556 975 473 
Q 1284 391 1588 391 
Q 1994 391 2212 530 
Q 2431 669 2431 922 
Q 2431 1156 2273 1281 
Q 2116 1406 1581 1522 
L 1381 1569 
Q 847 1681 609 1914 
Q 372 2147 372 2553 
Q 372 3047 722 3315 
Q 1072 3584 1716 3584 
Q 2034 3584 2315 3537 
Q 2597 3491 2834 3397 
z
" transform="scale(0.015625)"/>
       <path id="DejaVuSans-5d" d="M 1947 4863 
L 1947 -844 
L 622 -844 
L 622 -397 
L 1369 -397 
L 1369 4416 
L 622 4416 
L 622 4863 
L 1947 4863 
z
" transform="scale(0.015625)"/>
      </defs>
      <use xlink:href="#DejaVuSans-74"/>
      <use xlink:href="#DejaVuSans-69" x="39.208984"/>
      <use xlink:href="#DejaVuSans-6d" x="66.992188"/>
      <use xlink:href="#DejaVuSans-65" x="164.404297"/>
      <use xlink:href="#DejaVuSans-5b" x="225.927734"/>
      <use xlink:href="#DejaVuSans-73" x="264.941406"/>
      <use xlink:href="#DejaVuSans-5d" x="317.041016"/>
     </g>
    </g>
   </g>
   <g id="patch_195">
    <path d="M 87.552 293.76 
L 87.552 6.912 
" style="fill: none; stroke: #000000; stroke-width: 0.8; stroke-linejoin: miter; stroke-linecap: square"/>
   </g>
   <g id="patch_196">
    <path d="M 451.584 293.76 
L 451.584 6.912 
" style="fill: none; stroke: #000000; stroke-width: 0.8; stroke-linejoin: miter; stroke-linecap: square"/>
   </g>
   <g id="patch_197">
    <path d="M 87.552 293.76 
L 451.584 293.76 
" style="fill: none; stroke: #000000; stroke-width: 0.8; stroke-linejoin: miter; stroke-linecap: square"/>
   </g>
   <g id="patch_198">
    <path d="M 87.552 6.912 
L 451.584 6.912 
" style="fill: none; stroke: #000000; stroke-width: 0.8; stroke-linejoin: miter; stroke-linecap: square"/>
   </g>
  </g>
 </g>
 <defs>
  <clipPath id="p12f0be0a3e">
   <rect x="87.552" y="6.912" width="364.032" height="286.848"/>
  </clipPath>
 </defs>
</svg>
